<?xml version="1.0" encoding="UTF-8" standalone="no"?>
<!DOCTYPE svg PUBLIC "-//W3C//DTD SVG 1.1//EN"
 "http://www.w3.org/Graphics/SVG/1.1/DTD/svg11.dtd">
<!-- Generated by graphviz version 2.43.0 (0)
 -->
<!-- Title: ProductCoefficient::F Pages: 1 -->
<svg width="277pt" height="88pt"
 viewBox="0.00 0.00 277.00 88.00" xmlns="http://www.w3.org/2000/svg" xmlns:xlink="http://www.w3.org/1999/xlink">
<g id="graph0" class="graph" transform="scale(1 1) rotate(0) translate(4 84)">
<title>ProductCoefficient::F</title>
<!-- Node1 -->
<g id="node1" class="node">
<title>Node1</title>
<g id="a_node1"><a xlink:title="Compute the value of the coefficient as a summation of the value of coefficients.">
<polygon fill="#bfbfbf" stroke="black" points="146,-30 146,-49 269,-49 269,-30 146,-30"/>
<text text-anchor="middle" x="207.5" y="-37" font-family="serif" font-size="10.00">ProductCoefficient::F</text>
</a>
</g>
</g>
<!-- Node2 -->
<g id="node2" class="node">
<title>Node2</title>
<g id="a_node2"><a xlink:href="classProductCoefficient.html#a4f52838ace9637e6156246aa881610d1" target="_top" xlink:title="Gradient.">
<polygon fill="none" stroke="black" points="0,-49.5 0,-79.5 110,-79.5 110,-49.5 0,-49.5"/>
<text text-anchor="start" x="8" y="-67.5" font-family="serif" font-size="10.00">ProductCoefficient</text>
<text text-anchor="middle" x="55" y="-56.5" font-family="serif" font-size="10.00">::GradientF</text>
</a>
</g>
</g>
<!-- Node1&#45;&gt;Node2 -->
<g id="edge1" class="edge">
<title>Node1&#45;&gt;Node2</title>
<path fill="none" stroke="midnightblue" d="M139.16,-50.69C129.46,-52.3 119.59,-53.94 110.19,-55.5"/>
<polygon fill="midnightblue" stroke="midnightblue" points="139.88,-54.11 149.17,-49.02 138.73,-47.21 139.88,-54.11"/>
</g>
<!-- Node3 -->
<g id="node3" class="node">
<title>Node3</title>
<g id="a_node3"><a xlink:href="classProductCoefficient.html#a43c7046575666085a23e46ac8d3b5c37" target="_top" xlink:title="Hessian.">
<polygon fill="none" stroke="black" points="0,-0.5 0,-30.5 110,-30.5 110,-0.5 0,-0.5"/>
<text text-anchor="start" x="8" y="-18.5" font-family="serif" font-size="10.00">ProductCoefficient</text>
<text text-anchor="middle" x="55" y="-7.5" font-family="serif" font-size="10.00">::HessianF</text>
</a>
</g>
</g>
<!-- Node1&#45;&gt;Node3 -->
<g id="edge2" class="edge">
<title>Node1&#45;&gt;Node3</title>
<path fill="none" stroke="midnightblue" d="M136.67,-28.36C127.83,-26.96 118.89,-25.53 110.34,-24.17"/>
<polygon fill="midnightblue" stroke="midnightblue" points="136.16,-31.83 146.59,-29.95 137.26,-24.91 136.16,-31.83"/>
</g>
</g>
</svg>
