<?xml version="1.0" encoding="UTF-8" standalone="no"?>
<!DOCTYPE svg PUBLIC "-//W3C//DTD SVG 1.1//EN"
 "http://www.w3.org/Graphics/SVG/1.1/DTD/svg11.dtd">
<!-- Generated by graphviz version 2.43.0 (0)
 -->
<!-- Title: SolverHyprePCG::create_solver Pages: 1 -->
<svg width="362pt" height="225pt"
 viewBox="0.00 0.00 362.00 225.00" xmlns="http://www.w3.org/2000/svg" xmlns:xlink="http://www.w3.org/1999/xlink">
<g id="graph0" class="graph" transform="scale(1 1) rotate(0) translate(4 221)">
<title>SolverHyprePCG::create_solver</title>
<!-- Node1 -->
<g id="node1" class="node">
<title>Node1</title>
<g id="a_node1"><a xlink:title="Create a iterative solver based of the SolverType and a list of Parameters.">
<polygon fill="#bfbfbf" stroke="black" points="0,-88 0,-118 141,-118 141,-88 0,-88"/>
<text text-anchor="start" x="8" y="-106" font-family="serif" font-size="10.00">SolverHyprePCG::create</text>
<text text-anchor="middle" x="70.5" y="-95" font-family="serif" font-size="10.00">_solver</text>
</a>
</g>
</g>
<!-- Node2 -->
<g id="node2" class="node">
<title>Node2</title>
<g id="a_node2"><a xlink:href="classSlothInfo.html#a854d3cafdb9f5a77f1063a27d2a27e04" target="_top" xlink:title="Print information on Debug mode.">
<polygon fill="none" stroke="black" points="214.5,-197.5 214.5,-216.5 316.5,-216.5 316.5,-197.5 214.5,-197.5"/>
<text text-anchor="middle" x="265.5" y="-204.5" font-family="serif" font-size="10.00">SlothInfo::debug</text>
</a>
</g>
</g>
<!-- Node1&#45;&gt;Node2 -->
<g id="edge1" class="edge">
<title>Node1&#45;&gt;Node2</title>
<path fill="none" stroke="midnightblue" d="M85.67,-118.14C104.61,-137.42 140.08,-170.35 177,-188 185.54,-192.08 194.96,-195.3 204.36,-197.82"/>
<polygon fill="midnightblue" stroke="midnightblue" points="203.57,-201.23 214.12,-200.22 205.24,-194.44 203.57,-201.23"/>
</g>
<!-- Node3 -->
<g id="node3" class="node">
<title>Node3</title>
<g id="a_node3"><a xlink:href="classSolverBase.html#a52edc30e08c2552f8ceb3d9ea928b059" target="_top" xlink:title=" ">
<polygon fill="none" stroke="black" points="177,-137.5 177,-178.5 354,-178.5 354,-137.5 177,-137.5"/>
<text text-anchor="start" x="185" y="-166.5" font-family="serif" font-size="10.00">SolverBase&lt; mfem::HyprePCG,</text>
<text text-anchor="start" x="185" y="-155.5" font-family="serif" font-size="10.00"> HypreSolverType &gt;::get</text>
<text text-anchor="middle" x="265.5" y="-144.5" font-family="serif" font-size="10.00">_description</text>
</a>
</g>
</g>
<!-- Node1&#45;&gt;Node3 -->
<g id="edge2" class="edge">
<title>Node1&#45;&gt;Node3</title>
<path fill="none" stroke="midnightblue" d="M124.24,-118.03C142.27,-123.17 162.89,-129.04 182.66,-134.68"/>
<polygon fill="midnightblue" stroke="midnightblue" points="181.71,-138.05 192.29,-137.42 183.63,-131.32 181.71,-138.05"/>
</g>
<!-- Node4 -->
<g id="node4" class="node">
<title>Node4</title>
<g id="a_node4"><a xlink:href="classParameters.html#ae3b314c5ebc3fde8684b0634b2406da6" target="_top" xlink:title=" ">
<polygon fill="none" stroke="black" points="198,-88 198,-118 333,-118 333,-88 198,-88"/>
<text text-anchor="start" x="206" y="-106" font-family="serif" font-size="10.00">Parameters::get_param</text>
<text text-anchor="middle" x="265.5" y="-95" font-family="serif" font-size="10.00">_value</text>
</a>
</g>
</g>
<!-- Node1&#45;&gt;Node4 -->
<g id="edge3" class="edge">
<title>Node1&#45;&gt;Node4</title>
<path fill="none" stroke="midnightblue" d="M141.18,-103C156.32,-103 172.43,-103 187.83,-103"/>
<polygon fill="midnightblue" stroke="midnightblue" points="187.83,-106.5 197.83,-103 187.83,-99.5 187.83,-106.5"/>
</g>
<!-- Node5 -->
<g id="node5" class="node">
<title>Node5</title>
<g id="a_node5"><a xlink:href="classParameters.html#a857c53fbe60d7bd2f91e91626f85b6d2" target="_top" xlink:title=" ">
<polygon fill="none" stroke="black" points="198,-39 198,-69 333,-69 333,-39 198,-39"/>
<text text-anchor="start" x="206" y="-57" font-family="serif" font-size="10.00">Parameters::get_param</text>
<text text-anchor="middle" x="265.5" y="-46" font-family="serif" font-size="10.00">_value_or_default</text>
</a>
</g>
</g>
<!-- Node1&#45;&gt;Node5 -->
<g id="edge4" class="edge">
<title>Node1&#45;&gt;Node5</title>
<path fill="none" stroke="midnightblue" d="M130.72,-87.97C151.19,-82.77 174.3,-76.9 195.49,-71.52"/>
<polygon fill="midnightblue" stroke="midnightblue" points="196.56,-74.86 205.39,-69.01 194.84,-68.07 196.56,-74.86"/>
</g>
<!-- Node6 -->
<g id="node6" class="node">
<title>Node6</title>
<g id="a_node6"><a xlink:href="UtilsForData_8hpp.html#a624f01f99bc5aadf3d7c3b7c8c7c4ac7" target="_top" xlink:title="Check the level of verbosity.">
<polygon fill="none" stroke="black" points="215,-0.5 215,-19.5 316,-19.5 316,-0.5 215,-0.5"/>
<text text-anchor="middle" x="265.5" y="-7.5" font-family="serif" font-size="10.00">verbose_at_least</text>
</a>
</g>
</g>
<!-- Node1&#45;&gt;Node6 -->
<g id="edge5" class="edge">
<title>Node1&#45;&gt;Node6</title>
<path fill="none" stroke="midnightblue" d="M88.9,-87.8C108.85,-71.18 143.17,-44.91 177,-30 185.78,-26.13 195.41,-22.96 204.96,-20.39"/>
<polygon fill="midnightblue" stroke="midnightblue" points="205.99,-23.74 214.84,-17.91 204.29,-16.95 205.99,-23.74"/>
</g>
</g>
</svg>
