<?xml version="1.0" encoding="UTF-8" standalone="no"?>
<!DOCTYPE svg PUBLIC "-//W3C//DTD SVG 1.1//EN"
 "http://www.w3.org/Graphics/SVG/1.1/DTD/svg11.dtd">
<!-- Generated by graphviz version 2.43.0 (0)
 -->
<!-- Title: SolverBase&lt; T, S &gt; Pages: 1 -->
<svg width="774pt" height="774pt"
 viewBox="0.00 0.00 774.00 773.75" xmlns="http://www.w3.org/2000/svg" xmlns:xlink="http://www.w3.org/1999/xlink">
<g id="graph0" class="graph" transform="scale(1 1) rotate(0) translate(4 769.75)">
<title>SolverBase&lt; T, S &gt;</title>
<!-- Node1 -->
<g id="node1" class="node">
<title>Node1</title>
<g id="a_node1"><a xlink:title=" ">
<polygon fill="#bfbfbf" stroke="black" points="0,-367.25 0,-386.25 114,-386.25 114,-367.25 0,-367.25"/>
<text text-anchor="middle" x="57" y="-374.25" font-family="serif" font-size="10.00">SolverBase&lt; T, S &gt;</text>
</a>
</g>
</g>
<!-- Node2 -->
<g id="node2" class="node">
<title>Node2</title>
<g id="a_node2"><a xlink:href="classSolverBase.html" target="_top" xlink:title=" ">
<polygon fill="none" stroke="black" points="377.5,-704.75 377.5,-734.75 557.5,-734.75 557.5,-704.75 377.5,-704.75"/>
<text text-anchor="start" x="385.5" y="-722.75" font-family="serif" font-size="10.00">SolverBase&lt; mfem::DSmoother,</text>
<text text-anchor="middle" x="467.5" y="-711.75" font-family="serif" font-size="10.00"> PreconditionerType &gt;</text>
</a>
</g>
</g>
<!-- Node1&#45;&gt;Node2 -->
<g id="edge1" class="edge">
<title>Node1&#45;&gt;Node2</title>
<path fill="none" stroke="orange" stroke-dasharray="5,2" d="M59.66,-396.57C65.35,-459.57 86.37,-653.48 132,-692.75 206.63,-756.98 328.5,-748.17 402.72,-734.77"/>
<polygon fill="orange" stroke="orange" points="63.12,-396.05 58.77,-386.39 56.15,-396.66 63.12,-396.05"/>
<text text-anchor="start" x="181" y="-757.75" font-family="serif" font-size="10.00"> &lt; mfem::DSmoother,</text>
<text text-anchor="middle" x="238.5" y="-746.75" font-family="serif" font-size="10.00"> PreconditionerType &gt;</text>
</g>
<!-- Node4 -->
<g id="node4" class="node">
<title>Node4</title>
<g id="a_node4"><a xlink:href="classSolverBase.html" target="_top" xlink:title=" ">
<polygon fill="none" stroke="black" points="366,-655.75 366,-685.75 569,-685.75 569,-655.75 366,-655.75"/>
<text text-anchor="start" x="374" y="-673.75" font-family="serif" font-size="10.00">SolverBase&lt; mfem::HypreFGMRES,</text>
<text text-anchor="middle" x="467.5" y="-662.75" font-family="serif" font-size="10.00"> HypreSolverType &gt;</text>
</a>
</g>
</g>
<!-- Node1&#45;&gt;Node4 -->
<g id="edge3" class="edge">
<title>Node1&#45;&gt;Node4</title>
<path fill="none" stroke="orange" stroke-dasharray="5,2" d="M60.55,-396.3C68.26,-452.18 93.22,-610.65 132,-642.75 149.79,-657.48 273.77,-664.7 365.64,-668.07"/>
<polygon fill="orange" stroke="orange" points="64.01,-395.73 59.2,-386.28 57.07,-396.66 64.01,-395.73"/>
<text text-anchor="start" x="172" y="-680.75" font-family="serif" font-size="10.00"> &lt; mfem::HypreFGMRES,</text>
<text text-anchor="middle" x="238.5" y="-669.75" font-family="serif" font-size="10.00"> HypreSolverType &gt;</text>
</g>
<!-- Node6 -->
<g id="node6" class="node">
<title>Node6</title>
<g id="a_node6"><a xlink:href="classSolverBase.html" target="_top" xlink:title=" ">
<polygon fill="none" stroke="black" points="383,-606.75 383,-636.75 552,-636.75 552,-606.75 383,-606.75"/>
<text text-anchor="start" x="391" y="-624.75" font-family="serif" font-size="10.00">SolverBase&lt; mfem::UMFPack</text>
<text text-anchor="middle" x="467.5" y="-613.75" font-family="serif" font-size="10.00">Solver, DirectSolverType &gt;</text>
</a>
</g>
</g>
<!-- Node1&#45;&gt;Node6 -->
<g id="edge5" class="edge">
<title>Node1&#45;&gt;Node6</title>
<path fill="none" stroke="orange" stroke-dasharray="5,2" d="M58.08,-396.85C59.46,-440.71 69.5,-544.96 132,-593.75 151.35,-608.86 290.14,-616.21 382.76,-619.47"/>
<polygon fill="orange" stroke="orange" points="61.58,-396.56 57.89,-386.62 54.58,-396.69 61.58,-396.56"/>
<text text-anchor="start" x="172" y="-630.75" font-family="serif" font-size="10.00"> &lt; mfem::UMFPackSolver,</text>
<text text-anchor="middle" x="238.5" y="-619.75" font-family="serif" font-size="10.00"> DirectSolverType &gt;</text>
</g>
<!-- Node8 -->
<g id="node8" class="node">
<title>Node8</title>
<g id="a_node8"><a xlink:href="classSolverBase.html" target="_top" xlink:title=" ">
<polygon fill="none" stroke="black" points="370,-557.75 370,-587.75 565,-587.75 565,-557.75 370,-557.75"/>
<text text-anchor="start" x="378" y="-575.75" font-family="serif" font-size="10.00">SolverBase&lt; mfem::GMRESSolver,</text>
<text text-anchor="middle" x="467.5" y="-564.75" font-family="serif" font-size="10.00"> IterativeSolverType &gt;</text>
</a>
</g>
</g>
<!-- Node1&#45;&gt;Node8 -->
<g id="edge7" class="edge">
<title>Node1&#45;&gt;Node8</title>
<path fill="none" stroke="orange" stroke-dasharray="5,2" d="M60.28,-396.74C65.59,-433.04 82.37,-509.34 132,-544.75 151.06,-558.35 278.08,-565.91 369.96,-569.66"/>
<polygon fill="orange" stroke="orange" points="63.7,-395.92 58.93,-386.46 56.76,-396.83 63.7,-395.92"/>
<text text-anchor="start" x="176" y="-581.75" font-family="serif" font-size="10.00"> &lt; mfem::GMRESSolver,</text>
<text text-anchor="middle" x="238.5" y="-570.75" font-family="serif" font-size="10.00"> IterativeSolverType &gt;</text>
</g>
<!-- Node10 -->
<g id="node10" class="node">
<title>Node10</title>
<g id="a_node10"><a xlink:href="classSolverBase.html" target="_top" xlink:title=" ">
<polygon fill="none" stroke="black" points="382.5,-508.75 382.5,-538.75 552.5,-538.75 552.5,-508.75 382.5,-508.75"/>
<text text-anchor="start" x="390.5" y="-526.75" font-family="serif" font-size="10.00">SolverBase&lt; mfem::CGSolver,</text>
<text text-anchor="middle" x="467.5" y="-515.75" font-family="serif" font-size="10.00"> IterativeSolverType &gt;</text>
</a>
</g>
</g>
<!-- Node1&#45;&gt;Node10 -->
<g id="edge9" class="edge">
<title>Node1&#45;&gt;Node10</title>
<path fill="none" stroke="orange" stroke-dasharray="5,2" d="M63.69,-396.24C72.95,-424.13 94.19,-474.58 132,-497.75 152.86,-510.53 290.4,-517.74 382.49,-521.18"/>
<polygon fill="orange" stroke="orange" points="66.95,-394.95 60.62,-386.45 60.27,-397.04 66.95,-394.95"/>
<text text-anchor="start" x="165.5" y="-532.75" font-family="serif" font-size="10.00"> &lt; mfem::CGSolver, Iterative</text>
<text text-anchor="middle" x="238.5" y="-521.75" font-family="serif" font-size="10.00">SolverType &gt;</text>
</g>
<!-- Node12 -->
<g id="node12" class="node">
<title>Node12</title>
<g id="a_node12"><a xlink:href="classSolverBase.html" target="_top" xlink:title=" ">
<polygon fill="none" stroke="black" points="370.5,-459.75 370.5,-489.75 564.5,-489.75 564.5,-459.75 370.5,-459.75"/>
<text text-anchor="start" x="378.5" y="-477.75" font-family="serif" font-size="10.00">SolverBase&lt; mfem::HypreDiag</text>
<text text-anchor="middle" x="467.5" y="-466.75" font-family="serif" font-size="10.00">Scale, HyprePreconditionerType &gt;</text>
</a>
</g>
</g>
<!-- Node1&#45;&gt;Node12 -->
<g id="edge11" class="edge">
<title>Node1&#45;&gt;Node12</title>
<path fill="none" stroke="orange" stroke-dasharray="5,2" d="M70.3,-394.78C83.35,-412.24 105.7,-437.8 132,-449.75 173.02,-468.39 286.68,-473.63 370.17,-474.86"/>
<polygon fill="orange" stroke="orange" points="73.03,-392.57 64.35,-386.49 67.34,-396.66 73.03,-392.57"/>
<text text-anchor="start" x="164.5" y="-487.75" font-family="serif" font-size="10.00"> &lt; mfem::HypreDiagScale,</text>
<text text-anchor="middle" x="238.5" y="-476.75" font-family="serif" font-size="10.00"> HyprePreconditionerType &gt;</text>
</g>
<!-- Node14 -->
<g id="node14" class="node">
<title>Node14</title>
<g id="a_node14"><a xlink:href="classSolverBase.html" target="_top" xlink:title=" ">
<polygon fill="none" stroke="black" points="365.5,-410.75 365.5,-440.75 569.5,-440.75 569.5,-410.75 365.5,-410.75"/>
<text text-anchor="start" x="373.5" y="-428.75" font-family="serif" font-size="10.00">SolverBase&lt; mfem::HypreSmoother,</text>
<text text-anchor="middle" x="467.5" y="-417.75" font-family="serif" font-size="10.00"> HyprePreconditionerType &gt;</text>
</a>
</g>
</g>
<!-- Node1&#45;&gt;Node14 -->
<g id="edge13" class="edge">
<title>Node1&#45;&gt;Node14</title>
<path fill="none" stroke="orange" stroke-dasharray="5,2" d="M90.89,-389.86C103.55,-394.37 118.26,-398.98 132,-401.75 209.34,-417.32 298.52,-423.14 365.34,-425.16"/>
<polygon fill="orange" stroke="orange" points="91.84,-386.48 81.24,-386.3 89.41,-393.05 91.84,-386.48"/>
<text text-anchor="start" x="164.5" y="-437.75" font-family="serif" font-size="10.00"> &lt; mfem::HypreSmoother,</text>
<text text-anchor="middle" x="238.5" y="-426.75" font-family="serif" font-size="10.00"> HyprePreconditionerType &gt;</text>
</g>
<!-- Node16 -->
<g id="node16" class="node">
<title>Node16</title>
<g id="a_node16"><a xlink:href="classSolverBase.html" target="_top" xlink:title=" ">
<polygon fill="none" stroke="black" points="387.5,-361.75 387.5,-391.75 547.5,-391.75 547.5,-361.75 387.5,-361.75"/>
<text text-anchor="start" x="395.5" y="-379.75" font-family="serif" font-size="10.00">SolverBase&lt; mfem::Newton</text>
<text text-anchor="middle" x="467.5" y="-368.75" font-family="serif" font-size="10.00">Solver, NLSolverType &gt;</text>
</a>
</g>
</g>
<!-- Node1&#45;&gt;Node16 -->
<g id="edge15" class="edge">
<title>Node1&#45;&gt;Node16</title>
<path fill="none" stroke="orange" stroke-dasharray="5,2" d="M124.66,-376.75C196.51,-376.75 310.84,-376.75 387.25,-376.75"/>
<polygon fill="orange" stroke="orange" points="124.37,-373.25 114.37,-376.75 124.37,-380.25 124.37,-373.25"/>
<text text-anchor="start" x="176.5" y="-390.75" font-family="serif" font-size="10.00"> &lt; mfem::NewtonSolver,</text>
<text text-anchor="middle" x="238.5" y="-379.75" font-family="serif" font-size="10.00"> NLSolverType &gt;</text>
</g>
<!-- Node18 -->
<g id="node18" class="node">
<title>Node18</title>
<g id="a_node18"><a xlink:href="classSolverBase.html" target="_top" xlink:title=" ">
<polygon fill="none" stroke="black" points="363,-312.75 363,-342.75 572,-342.75 572,-312.75 363,-312.75"/>
<text text-anchor="start" x="371" y="-330.75" font-family="serif" font-size="10.00">SolverBase&lt; mfem::BiCGSTABSolver,</text>
<text text-anchor="middle" x="467.5" y="-319.75" font-family="serif" font-size="10.00"> IterativeSolverType &gt;</text>
</a>
</g>
</g>
<!-- Node1&#45;&gt;Node18 -->
<g id="edge17" class="edge">
<title>Node1&#45;&gt;Node18</title>
<path fill="none" stroke="orange" stroke-dasharray="5,2" d="M89.6,-363.54C102.52,-358.7 117.76,-353.69 132,-350.75 208.25,-335.03 296.13,-329.46 362.68,-327.72"/>
<polygon fill="orange" stroke="orange" points="88.28,-360.3 80.22,-367.17 90.81,-366.82 88.28,-360.3"/>
<text text-anchor="start" x="169" y="-364.75" font-family="serif" font-size="10.00"> &lt; mfem::BiCGSTABSolver,</text>
<text text-anchor="middle" x="238.5" y="-353.75" font-family="serif" font-size="10.00"> IterativeSolverType &gt;</text>
</g>
<!-- Node20 -->
<g id="node20" class="node">
<title>Node20</title>
<g id="a_node20"><a xlink:href="classSolverBase.html" target="_top" xlink:title=" ">
<polygon fill="none" stroke="black" points="379,-263.75 379,-293.75 556,-293.75 556,-263.75 379,-263.75"/>
<text text-anchor="start" x="387" y="-281.75" font-family="serif" font-size="10.00">SolverBase&lt; mfem::HyprePCG,</text>
<text text-anchor="middle" x="467.5" y="-270.75" font-family="serif" font-size="10.00"> HypreSolverType &gt;</text>
</a>
</g>
</g>
<!-- Node1&#45;&gt;Node20 -->
<g id="edge19" class="edge">
<title>Node1&#45;&gt;Node20</title>
<path fill="none" stroke="orange" stroke-dasharray="5,2" d="M69.96,-358.49C82.88,-340.52 105.24,-314.03 132,-301.75 209.9,-265.99 308.85,-263.76 378.87,-268.32"/>
<polygon fill="orange" stroke="orange" points="66.9,-356.77 64.1,-366.99 72.66,-360.75 66.9,-356.77"/>
<text text-anchor="start" x="151" y="-315.75" font-family="serif" font-size="10.00"> &lt; mfem::HyprePCG, HypreSolver</text>
<text text-anchor="middle" x="238.5" y="-304.75" font-family="serif" font-size="10.00">Type &gt;</text>
</g>
<!-- Node22 -->
<g id="node22" class="node">
<title>Node22</title>
<g id="a_node22"><a xlink:href="classSolverBase.html" target="_top" xlink:title=" ">
<polygon fill="none" stroke="black" points="367.5,-214.75 367.5,-244.75 567.5,-244.75 567.5,-214.75 367.5,-214.75"/>
<text text-anchor="start" x="375.5" y="-232.75" font-family="serif" font-size="10.00">SolverBase&lt; mfem::MINRESSolver,</text>
<text text-anchor="middle" x="467.5" y="-221.75" font-family="serif" font-size="10.00"> IterativeSolverType &gt;</text>
</a>
</g>
</g>
<!-- Node1&#45;&gt;Node22 -->
<g id="edge21" class="edge">
<title>Node1&#45;&gt;Node22</title>
<path fill="none" stroke="orange" stroke-dasharray="5,2" d="M62.07,-357.17C69.69,-326.02 89.38,-266.04 132,-239.75 170.01,-216.3 283.02,-217.41 367.23,-222.04"/>
<polygon fill="orange" stroke="orange" points="58.58,-356.69 59.78,-367.22 65.41,-358.24 58.58,-356.69"/>
<text text-anchor="start" x="173.5" y="-253.75" font-family="serif" font-size="10.00"> &lt; mfem::MINRESSolver,</text>
<text text-anchor="middle" x="238.5" y="-242.75" font-family="serif" font-size="10.00"> IterativeSolverType &gt;</text>
</g>
<!-- Node24 -->
<g id="node24" class="node">
<title>Node24</title>
<g id="a_node24"><a xlink:href="classSolverBase.html" target="_top" xlink:title=" ">
<polygon fill="none" stroke="black" points="381,-165.75 381,-195.75 554,-195.75 554,-165.75 381,-165.75"/>
<text text-anchor="start" x="389" y="-183.75" font-family="serif" font-size="10.00">SolverBase&lt; mfem::HypreILU,</text>
<text text-anchor="middle" x="467.5" y="-172.75" font-family="serif" font-size="10.00"> HyprePreconditionerType &gt;</text>
</a>
</g>
</g>
<!-- Node1&#45;&gt;Node24 -->
<g id="edge23" class="edge">
<title>Node1&#45;&gt;Node24</title>
<path fill="none" stroke="orange" stroke-dasharray="5,2" d="M59.26,-356.82C62.91,-317.69 77.11,-231.29 132,-192.75 151.89,-178.79 288.56,-177.95 380.94,-179.04"/>
<polygon fill="orange" stroke="orange" points="55.75,-356.69 58.45,-366.94 62.73,-357.24 55.75,-356.69"/>
<text text-anchor="start" x="132" y="-206.75" font-family="serif" font-size="10.00"> &lt; mfem::HypreILU, HyprePreconditioner</text>
<text text-anchor="middle" x="238.5" y="-195.75" font-family="serif" font-size="10.00">Type &gt;</text>
</g>
<!-- Node26 -->
<g id="node26" class="node">
<title>Node26</title>
<g id="a_node26"><a xlink:href="classSolverBase.html" target="_top" xlink:title=" ">
<polygon fill="none" stroke="black" points="369.5,-116.75 369.5,-146.75 565.5,-146.75 565.5,-116.75 369.5,-116.75"/>
<text text-anchor="start" x="377.5" y="-134.75" font-family="serif" font-size="10.00">SolverBase&lt; mfem::HypreGMRES,</text>
<text text-anchor="middle" x="467.5" y="-123.75" font-family="serif" font-size="10.00"> HypreSolverType &gt;</text>
</a>
</g>
</g>
<!-- Node1&#45;&gt;Node26 -->
<g id="edge25" class="edge">
<title>Node1&#45;&gt;Node26</title>
<path fill="none" stroke="orange" stroke-dasharray="5,2" d="M57.72,-356.73C58.28,-311.63 66.67,-202.08 132,-151.75 167.89,-124.1 283.92,-122.69 369.3,-125.83"/>
<polygon fill="orange" stroke="orange" points="54.22,-356.96 57.71,-366.97 61.22,-356.97 54.22,-356.96"/>
<text text-anchor="start" x="175.5" y="-165.75" font-family="serif" font-size="10.00"> &lt; mfem::HypreGMRES,</text>
<text text-anchor="middle" x="238.5" y="-154.75" font-family="serif" font-size="10.00"> HypreSolverType &gt;</text>
</g>
<!-- Node28 -->
<g id="node28" class="node">
<title>Node28</title>
<g id="a_node28"><a xlink:href="classSolverBase.html" target="_top" xlink:title=" ">
<polygon fill="none" stroke="black" points="371.5,-67.75 371.5,-97.75 563.5,-97.75 563.5,-67.75 371.5,-67.75"/>
<text text-anchor="start" x="379.5" y="-85.75" font-family="serif" font-size="10.00">SolverBase&lt; mfem::HypreBoomer</text>
<text text-anchor="middle" x="467.5" y="-74.75" font-family="serif" font-size="10.00">AMG, HyprePreconditionerType &gt;</text>
</a>
</g>
</g>
<!-- Node1&#45;&gt;Node28 -->
<g id="edge27" class="edge">
<title>Node1&#45;&gt;Node28</title>
<path fill="none" stroke="orange" stroke-dasharray="5,2" d="M60.25,-356.94C67.27,-298.85 90.84,-130.91 132,-97.75 167.59,-69.08 285.67,-69.97 371.47,-74.92"/>
<polygon fill="orange" stroke="orange" points="56.75,-356.68 59.06,-367.02 63.7,-357.5 56.75,-356.68"/>
<text text-anchor="start" x="163" y="-111.75" font-family="serif" font-size="10.00"> &lt; mfem::HypreBoomerAMG,</text>
<text text-anchor="middle" x="238.5" y="-100.75" font-family="serif" font-size="10.00"> HyprePreconditionerType &gt;</text>
</g>
<!-- Node30 -->
<g id="node30" class="node">
<title>Node30</title>
<g id="a_node30"><a xlink:href="classSolverBase.html" target="_top" xlink:title=" ">
<polygon fill="none" stroke="black" points="372,-18.75 372,-48.75 563,-48.75 563,-18.75 372,-18.75"/>
<text text-anchor="start" x="380" y="-36.75" font-family="serif" font-size="10.00">SolverBase&lt; mfem::LBFGSSolver,</text>
<text text-anchor="middle" x="467.5" y="-25.75" font-family="serif" font-size="10.00"> NLSolverType &gt;</text>
</a>
</g>
</g>
<!-- Node1&#45;&gt;Node30 -->
<g id="edge29" class="edge">
<title>Node1&#45;&gt;Node30</title>
<path fill="none" stroke="orange" stroke-dasharray="5,2" d="M59.37,-356.76C64.28,-291.44 83.4,-86.13 132,-45.75 212.56,21.19 345.51,-0.18 417.13,-18.7"/>
<polygon fill="orange" stroke="orange" points="55.86,-356.72 58.63,-366.95 62.84,-357.23 55.86,-356.72"/>
<text text-anchor="start" x="178" y="-59.75" font-family="serif" font-size="10.00"> &lt; mfem::LBFGSSolver,</text>
<text text-anchor="middle" x="238.5" y="-48.75" font-family="serif" font-size="10.00"> NLSolverType &gt;</text>
</g>
<!-- Node3 -->
<g id="node3" class="node">
<title>Node3</title>
<g id="a_node3"><a xlink:href="classPrecondDSmoother.html" target="_top" xlink:title=" ">
<polygon fill="none" stroke="black" points="629.5,-710.25 629.5,-729.25 745.5,-729.25 745.5,-710.25 629.5,-710.25"/>
<text text-anchor="middle" x="687.5" y="-717.25" font-family="serif" font-size="10.00">PrecondDSmoother</text>
</a>
</g>
</g>
<!-- Node2&#45;&gt;Node3 -->
<g id="edge2" class="edge">
<title>Node2&#45;&gt;Node3</title>
<path fill="none" stroke="midnightblue" d="M568.08,-719.75C589.14,-719.75 610.67,-719.75 629.49,-719.75"/>
<polygon fill="midnightblue" stroke="midnightblue" points="567.8,-716.25 557.8,-719.75 567.8,-723.25 567.8,-716.25"/>
</g>
<!-- Node5 -->
<g id="node5" class="node">
<title>Node5</title>
<g id="a_node5"><a xlink:href="classSolverHypreFGMRES.html" target="_top" xlink:title=" ">
<polygon fill="none" stroke="black" points="623.5,-661.25 623.5,-680.25 751.5,-680.25 751.5,-661.25 623.5,-661.25"/>
<text text-anchor="middle" x="687.5" y="-668.25" font-family="serif" font-size="10.00">SolverHypreFGMRES</text>
</a>
</g>
</g>
<!-- Node4&#45;&gt;Node5 -->
<g id="edge4" class="edge">
<title>Node4&#45;&gt;Node5</title>
<path fill="none" stroke="midnightblue" d="M579.58,-670.75C594.57,-670.75 609.51,-670.75 623.26,-670.75"/>
<polygon fill="midnightblue" stroke="midnightblue" points="579.2,-667.25 569.2,-670.75 579.2,-674.25 579.2,-667.25"/>
</g>
<!-- Node7 -->
<g id="node7" class="node">
<title>Node7</title>
<g id="a_node7"><a xlink:href="classSolverUMFPACK.html" target="_top" xlink:title=" ">
<polygon fill="none" stroke="black" points="636,-612.25 636,-631.25 739,-631.25 739,-612.25 636,-612.25"/>
<text text-anchor="middle" x="687.5" y="-619.25" font-family="serif" font-size="10.00">SolverUMFPACK</text>
</a>
</g>
</g>
<!-- Node6&#45;&gt;Node7 -->
<g id="edge6" class="edge">
<title>Node6&#45;&gt;Node7</title>
<path fill="none" stroke="midnightblue" d="M562.17,-621.75C587.47,-621.75 613.91,-621.75 635.86,-621.75"/>
<polygon fill="midnightblue" stroke="midnightblue" points="562.16,-618.25 552.16,-621.75 562.16,-625.25 562.16,-618.25"/>
</g>
<!-- Node9 -->
<g id="node9" class="node">
<title>Node9</title>
<g id="a_node9"><a xlink:href="classSolverGMRES.html" target="_top" xlink:title=" ">
<polygon fill="none" stroke="black" points="643,-563.25 643,-582.25 732,-582.25 732,-563.25 643,-563.25"/>
<text text-anchor="middle" x="687.5" y="-570.25" font-family="serif" font-size="10.00">SolverGMRES</text>
</a>
</g>
</g>
<!-- Node8&#45;&gt;Node9 -->
<g id="edge8" class="edge">
<title>Node8&#45;&gt;Node9</title>
<path fill="none" stroke="midnightblue" d="M575.31,-572.75C599.26,-572.75 623.36,-572.75 642.96,-572.75"/>
<polygon fill="midnightblue" stroke="midnightblue" points="575.07,-569.25 565.07,-572.75 575.07,-576.25 575.07,-569.25"/>
</g>
<!-- Node11 -->
<g id="node11" class="node">
<title>Node11</title>
<g id="a_node11"><a xlink:href="classSolverCG.html" target="_top" xlink:title=" ">
<polygon fill="none" stroke="black" points="655,-514.25 655,-533.25 720,-533.25 720,-514.25 655,-514.25"/>
<text text-anchor="middle" x="687.5" y="-521.25" font-family="serif" font-size="10.00">SolverCG</text>
</a>
</g>
</g>
<!-- Node10&#45;&gt;Node11 -->
<g id="edge10" class="edge">
<title>Node10&#45;&gt;Node11</title>
<path fill="none" stroke="midnightblue" d="M562.95,-523.75C595.92,-523.75 630.7,-523.75 654.93,-523.75"/>
<polygon fill="midnightblue" stroke="midnightblue" points="562.78,-520.25 552.78,-523.75 562.78,-527.25 562.78,-520.25"/>
</g>
<!-- Node13 -->
<g id="node13" class="node">
<title>Node13</title>
<g id="a_node13"><a xlink:href="classPrecondHypreDiagScale.html" target="_top" xlink:title=" ">
<polygon fill="none" stroke="black" points="616.5,-465.25 616.5,-484.25 758.5,-484.25 758.5,-465.25 616.5,-465.25"/>
<text text-anchor="middle" x="687.5" y="-472.25" font-family="serif" font-size="10.00">PrecondHypreDiagScale</text>
</a>
</g>
</g>
<!-- Node12&#45;&gt;Node13 -->
<g id="edge12" class="edge">
<title>Node12&#45;&gt;Node13</title>
<path fill="none" stroke="midnightblue" d="M574.95,-474.75C588.98,-474.75 603.07,-474.75 616.29,-474.75"/>
<polygon fill="midnightblue" stroke="midnightblue" points="574.75,-471.25 564.75,-474.75 574.75,-478.25 574.75,-471.25"/>
</g>
<!-- Node15 -->
<g id="node15" class="node">
<title>Node15</title>
<g id="a_node15"><a xlink:href="classPrecondHypreSmoother.html" target="_top" xlink:title=" ">
<polygon fill="none" stroke="black" points="617.5,-416.25 617.5,-435.25 757.5,-435.25 757.5,-416.25 617.5,-416.25"/>
<text text-anchor="middle" x="687.5" y="-423.25" font-family="serif" font-size="10.00">PrecondHypreSmoother</text>
</a>
</g>
</g>
<!-- Node14&#45;&gt;Node15 -->
<g id="edge14" class="edge">
<title>Node14&#45;&gt;Node15</title>
<path fill="none" stroke="midnightblue" d="M579.76,-425.75C592.53,-425.75 605.26,-425.75 617.25,-425.75"/>
<polygon fill="midnightblue" stroke="midnightblue" points="579.52,-422.25 569.52,-425.75 579.52,-429.25 579.52,-422.25"/>
</g>
<!-- Node17 -->
<g id="node17" class="node">
<title>Node17</title>
<g id="a_node17"><a xlink:href="classSolverNewton.html" target="_top" xlink:title=" ">
<polygon fill="none" stroke="black" points="643,-367.25 643,-386.25 732,-386.25 732,-367.25 643,-367.25"/>
<text text-anchor="middle" x="687.5" y="-374.25" font-family="serif" font-size="10.00">SolverNewton</text>
</a>
</g>
</g>
<!-- Node16&#45;&gt;Node17 -->
<g id="edge16" class="edge">
<title>Node16&#45;&gt;Node17</title>
<path fill="none" stroke="#8b1a1a" d="M557.8,-376.75C587.17,-376.75 618.5,-376.75 642.9,-376.75"/>
<polygon fill="#8b1a1a" stroke="#8b1a1a" points="557.51,-373.25 547.51,-376.75 557.51,-380.25 557.51,-373.25"/>
</g>
<!-- Node19 -->
<g id="node19" class="node">
<title>Node19</title>
<g id="a_node19"><a xlink:href="classSolverBICGSTAB.html" target="_top" xlink:title=" ">
<polygon fill="none" stroke="black" points="635.5,-318.25 635.5,-337.25 739.5,-337.25 739.5,-318.25 635.5,-318.25"/>
<text text-anchor="middle" x="687.5" y="-325.25" font-family="serif" font-size="10.00">SolverBICGSTAB</text>
</a>
</g>
</g>
<!-- Node18&#45;&gt;Node19 -->
<g id="edge18" class="edge">
<title>Node18&#45;&gt;Node19</title>
<path fill="none" stroke="midnightblue" d="M582.12,-327.75C600.75,-327.75 619.2,-327.75 635.29,-327.75"/>
<polygon fill="midnightblue" stroke="midnightblue" points="582.07,-324.25 572.07,-327.75 582.07,-331.25 582.07,-324.25"/>
</g>
<!-- Node21 -->
<g id="node21" class="node">
<title>Node21</title>
<g id="a_node21"><a xlink:href="classSolverHyprePCG.html" target="_top" xlink:title=" ">
<polygon fill="none" stroke="black" points="635.5,-269.25 635.5,-288.25 739.5,-288.25 739.5,-269.25 635.5,-269.25"/>
<text text-anchor="middle" x="687.5" y="-276.25" font-family="serif" font-size="10.00">SolverHyprePCG</text>
</a>
</g>
</g>
<!-- Node20&#45;&gt;Node21 -->
<g id="edge20" class="edge">
<title>Node20&#45;&gt;Node21</title>
<path fill="none" stroke="midnightblue" d="M566.37,-278.75C590.17,-278.75 614.68,-278.75 635.31,-278.75"/>
<polygon fill="midnightblue" stroke="midnightblue" points="566.23,-275.25 556.23,-278.75 566.23,-282.25 566.23,-275.25"/>
</g>
<!-- Node23 -->
<g id="node23" class="node">
<title>Node23</title>
<g id="a_node23"><a xlink:href="classSolverMINRES.html" target="_top" xlink:title=" ">
<polygon fill="none" stroke="black" points="640.5,-220.25 640.5,-239.25 734.5,-239.25 734.5,-220.25 640.5,-220.25"/>
<text text-anchor="middle" x="687.5" y="-227.25" font-family="serif" font-size="10.00">SolverMINRES</text>
</a>
</g>
</g>
<!-- Node22&#45;&gt;Node23 -->
<g id="edge22" class="edge">
<title>Node22&#45;&gt;Node23</title>
<path fill="none" stroke="midnightblue" d="M577.77,-229.75C599.89,-229.75 622,-229.75 640.45,-229.75"/>
<polygon fill="midnightblue" stroke="midnightblue" points="577.61,-226.25 567.61,-229.75 577.61,-233.25 577.61,-226.25"/>
</g>
<!-- Node25 -->
<g id="node25" class="node">
<title>Node25</title>
<g id="a_node25"><a xlink:href="classPrecondHypreILU.html" target="_top" xlink:title=" ">
<polygon fill="none" stroke="black" points="633,-171.25 633,-190.25 742,-190.25 742,-171.25 633,-171.25"/>
<text text-anchor="middle" x="687.5" y="-178.25" font-family="serif" font-size="10.00">PrecondHypreILU</text>
</a>
</g>
</g>
<!-- Node24&#45;&gt;Node25 -->
<g id="edge24" class="edge">
<title>Node24&#45;&gt;Node25</title>
<path fill="none" stroke="midnightblue" d="M564.09,-180.75C587.7,-180.75 612.16,-180.75 632.96,-180.75"/>
<polygon fill="midnightblue" stroke="midnightblue" points="564.03,-177.25 554.03,-180.75 564.03,-184.25 564.03,-177.25"/>
</g>
<!-- Node27 -->
<g id="node27" class="node">
<title>Node27</title>
<g id="a_node27"><a xlink:href="classSolverHypreGMRES.html" target="_top" xlink:title=" ">
<polygon fill="none" stroke="black" points="626.5,-122.25 626.5,-141.25 748.5,-141.25 748.5,-122.25 626.5,-122.25"/>
<text text-anchor="middle" x="687.5" y="-129.25" font-family="serif" font-size="10.00">SolverHypreGMRES</text>
</a>
</g>
</g>
<!-- Node26&#45;&gt;Node27 -->
<g id="edge26" class="edge">
<title>Node26&#45;&gt;Node27</title>
<path fill="none" stroke="midnightblue" d="M575.91,-131.75C593.27,-131.75 610.69,-131.75 626.4,-131.75"/>
<polygon fill="midnightblue" stroke="midnightblue" points="575.71,-128.25 565.71,-131.75 575.71,-135.25 575.71,-128.25"/>
</g>
<!-- Node29 -->
<g id="node29" class="node">
<title>Node29</title>
<g id="a_node29"><a xlink:href="classPrecondHypreBoomerAMG.html" target="_top" xlink:title=" ">
<polygon fill="none" stroke="black" points="609,-73.25 609,-92.25 766,-92.25 766,-73.25 609,-73.25"/>
<text text-anchor="middle" x="687.5" y="-80.25" font-family="serif" font-size="10.00">PrecondHypreBoomerAMG</text>
</a>
</g>
</g>
<!-- Node28&#45;&gt;Node29 -->
<g id="edge28" class="edge">
<title>Node28&#45;&gt;Node29</title>
<path fill="none" stroke="midnightblue" d="M574.04,-82.75C585.73,-82.75 597.47,-82.75 608.72,-82.75"/>
<polygon fill="midnightblue" stroke="midnightblue" points="573.8,-79.25 563.8,-82.75 573.8,-86.25 573.8,-79.25"/>
</g>
<!-- Node31 -->
<g id="node31" class="node">
<title>Node31</title>
<g id="a_node31"><a xlink:href="classSolverLBFGS.html" target="_top" xlink:title=" ">
<polygon fill="none" stroke="black" points="645,-24.25 645,-43.25 730,-43.25 730,-24.25 645,-24.25"/>
<text text-anchor="middle" x="687.5" y="-31.25" font-family="serif" font-size="10.00">SolverLBFGS</text>
</a>
</g>
</g>
<!-- Node30&#45;&gt;Node31 -->
<g id="edge30" class="edge">
<title>Node30&#45;&gt;Node31</title>
<path fill="none" stroke="#8b1a1a" d="M573.27,-33.75C598.71,-33.75 624.45,-33.75 644.95,-33.75"/>
<polygon fill="#8b1a1a" stroke="#8b1a1a" points="573.17,-30.25 563.17,-33.75 573.17,-37.25 573.17,-30.25"/>
</g>
</g>
</svg>
