<?xml version="1.0" encoding="UTF-8" standalone="no"?>
<!DOCTYPE svg PUBLIC "-//W3C//DTD SVG 1.1//EN"
 "http://www.w3.org/Graphics/SVG/1.1/DTD/svg11.dtd">
<!-- Generated by graphviz version 2.43.0 (0)
 -->
<!-- Title: OperatorBase&lt; T, DIM &gt; Pages: 1 -->
<svg width="305pt" height="117pt"
 viewBox="0.00 0.00 304.50 117.00" xmlns="http://www.w3.org/2000/svg" xmlns:xlink="http://www.w3.org/1999/xlink">
<g id="graph0" class="graph" transform="scale(1 1) rotate(0) translate(4 113)">
<title>OperatorBase&lt; T, DIM &gt;</title>
<!-- Node1 -->
<g id="node1" class="node">
<title>Node1</title>
<g id="a_node1"><a xlink:title="Base class for building Steady and TimeDependent PhaseFieldOperators.">
<polygon fill="#bfbfbf" stroke="black" points="48,-0.5 48,-19.5 191,-19.5 191,-0.5 48,-0.5"/>
<text text-anchor="middle" x="119.5" y="-7.5" font-family="serif" font-size="10.00">OperatorBase&lt; T, DIM &gt;</text>
</a>
</g>
</g>
<!-- Node2 -->
<g id="node2" class="node">
<title>Node2</title>
<g id="a_node2"><a xlink:href="classParameter.html" target="_top" xlink:title=" ">
<polygon fill="none" stroke="black" points="0,-89.5 0,-108.5 69,-108.5 69,-89.5 0,-89.5"/>
<text text-anchor="middle" x="34.5" y="-96.5" font-family="serif" font-size="10.00">Parameter</text>
</a>
</g>
</g>
<!-- Node2&#45;&gt;Node1 -->
<g id="edge1" class="edge">
<title>Node2&#45;&gt;Node1</title>
<path fill="none" stroke="#9a32cd" stroke-dasharray="5,2" d="M38.06,-79.34C41.39,-66.34 47.55,-49.36 58.5,-38 66.54,-29.66 77.61,-23.72 88.11,-19.57"/>
<polygon fill="#9a32cd" stroke="#9a32cd" points="34.64,-78.6 35.88,-89.12 41.47,-80.12 34.64,-78.6"/>
<text text-anchor="middle" x="87" y="-52" font-family="serif" font-size="10.00"> default_p_</text>
</g>
<!-- Node3 -->
<g id="node3" class="node">
<title>Node3</title>
<g id="a_node3"><a xlink:href="classNLSolver.html" target="_top" xlink:title=" ">
<polygon fill="none" stroke="black" points="87,-89.5 87,-108.5 152,-108.5 152,-89.5 87,-89.5"/>
<text text-anchor="middle" x="119.5" y="-96.5" font-family="serif" font-size="10.00">NLSolver</text>
</a>
</g>
</g>
<!-- Node3&#45;&gt;Node1 -->
<g id="edge2" class="edge">
<title>Node3&#45;&gt;Node1</title>
<path fill="none" stroke="#9a32cd" stroke-dasharray="5,2" d="M119.5,-79.19C119.5,-60.74 119.5,-33.41 119.5,-19.62"/>
<polygon fill="#9a32cd" stroke="#9a32cd" points="116,-79.34 119.5,-89.34 123,-79.34 116,-79.34"/>
<text text-anchor="middle" x="150" y="-52" font-family="serif" font-size="10.00"> rhs_solver_</text>
</g>
<!-- Node4 -->
<g id="node4" class="node">
<title>Node4</title>
<g id="a_node4"><a xlink:href="classParameters.html" target="_top" xlink:title=" ">
<polygon fill="none" stroke="black" points="170.5,-89.5 170.5,-108.5 244.5,-108.5 244.5,-89.5 170.5,-89.5"/>
<text text-anchor="middle" x="207.5" y="-96.5" font-family="serif" font-size="10.00">Parameters</text>
</a>
</g>
</g>
<!-- Node4&#45;&gt;Node1 -->
<g id="edge3" class="edge">
<title>Node4&#45;&gt;Node1</title>
<path fill="none" stroke="#9a32cd" stroke-dasharray="5,2" d="M204.27,-78.88C201.18,-65.9 195.33,-49.13 184.5,-38 176.32,-29.59 165.14,-23.69 154.35,-19.6"/>
<polygon fill="#9a32cd" stroke="#9a32cd" points="200.92,-79.97 206.32,-89.08 207.78,-78.59 200.92,-79.97"/>
<text text-anchor="middle" x="249" y="-63" font-family="serif" font-size="10.00"> default_params_</text>
<text text-anchor="middle" x="249" y="-52" font-family="serif" font-size="10.00">nl_solver_params_</text>
<text text-anchor="middle" x="249" y="-41" font-family="serif" font-size="10.00">params_</text>
</g>
</g>
</svg>
