<?xml version="1.0" encoding="UTF-8" standalone="no"?>
<!DOCTYPE svg PUBLIC "-//W3C//DTD SVG 1.1//EN"
 "http://www.w3.org/Graphics/SVG/1.1/DTD/svg11.dtd">
<!-- Generated by graphviz version 2.43.0 (0)
 -->
<!-- Title: MeltingCalphadNLFormIntegrator&lt; VARS &gt; Pages: 1 -->
<svg width="202pt" height="173pt"
 viewBox="0.00 0.00 202.00 173.00" xmlns="http://www.w3.org/2000/svg" xmlns:xlink="http://www.w3.org/1999/xlink">
<g id="graph0" class="graph" transform="scale(1 1) rotate(0) translate(4 169)">
<title>MeltingCalphadNLFormIntegrator&lt; VARS &gt;</title>
<!-- Node1 -->
<g id="node1" class="node">
<title>Node1</title>
<g id="a_node1"><a xlink:title="Class dedicated to the VF of Calphad melting contribution found in Allen&#45;Cahn&#45;type equations.">
<polygon fill="#bfbfbf" stroke="black" points="0,-0.5 0,-30.5 194,-30.5 194,-0.5 0,-0.5"/>
<text text-anchor="start" x="8" y="-18.5" font-family="serif" font-size="10.00">MeltingCalphadNLFormIntegrator</text>
<text text-anchor="middle" x="97" y="-7.5" font-family="serif" font-size="10.00">&lt; VARS &gt;</text>
</a>
</g>
</g>
<!-- Node2 -->
<g id="node2" class="node">
<title>Node2</title>
<g id="a_node2"><a xlink:href="classMeltingBaseNLFormIntegrator.html" target="_top" xlink:title="Base class for melting integrators.">
<polygon fill="none" stroke="black" points="9,-67.5 9,-97.5 185,-97.5 185,-67.5 9,-67.5"/>
<text text-anchor="start" x="17" y="-85.5" font-family="serif" font-size="10.00">MeltingBaseNLFormIntegrator</text>
<text text-anchor="middle" x="97" y="-74.5" font-family="serif" font-size="10.00">&lt; VARS &gt;</text>
</a>
</g>
</g>
<!-- Node2&#45;&gt;Node1 -->
<g id="edge1" class="edge">
<title>Node2&#45;&gt;Node1</title>
<path fill="none" stroke="midnightblue" d="M97,-57.11C97,-48.15 97,-38.32 97,-30.58"/>
<polygon fill="midnightblue" stroke="midnightblue" points="93.5,-57.4 97,-67.4 100.5,-57.4 93.5,-57.4"/>
</g>
<!-- Node3 -->
<g id="node3" class="node">
<title>Node3</title>
<g id="a_node3"><a xlink:href="classSlothNLFormIntegrator.html" target="_top" xlink:title="Class prodiving common methods to all NLFormIntegrators.">
<polygon fill="none" stroke="black" points="28.5,-134.5 28.5,-164.5 165.5,-164.5 165.5,-134.5 28.5,-134.5"/>
<text text-anchor="start" x="36.5" y="-152.5" font-family="serif" font-size="10.00">SlothNLFormIntegrator</text>
<text text-anchor="middle" x="97" y="-141.5" font-family="serif" font-size="10.00">&lt; VARS &gt;</text>
</a>
</g>
</g>
<!-- Node3&#45;&gt;Node2 -->
<g id="edge2" class="edge">
<title>Node3&#45;&gt;Node2</title>
<path fill="none" stroke="midnightblue" d="M97,-124.11C97,-115.15 97,-105.32 97,-97.58"/>
<polygon fill="midnightblue" stroke="midnightblue" points="93.5,-124.4 97,-134.4 100.5,-124.4 93.5,-124.4"/>
</g>
</g>
</svg>
