<?xml version="1.0" encoding="UTF-8" standalone="no"?>
<!DOCTYPE svg PUBLIC "-//W3C//DTD SVG 1.1//EN"
 "http://www.w3.org/Graphics/SVG/1.1/DTD/svg11.dtd">
<!-- Generated by graphviz version 2.43.0 (0)
 -->
<!-- Title: SolverHypreGMRES::create_solver Pages: 1 -->
<svg width="409pt" height="176pt"
 viewBox="0.00 0.00 409.00 175.50" xmlns="http://www.w3.org/2000/svg" xmlns:xlink="http://www.w3.org/1999/xlink">
<g id="graph0" class="graph" transform="scale(1 1) rotate(0) translate(4 171.5)">
<title>SolverHypreGMRES::create_solver</title>
<!-- Node1 -->
<g id="node1" class="node">
<title>Node1</title>
<g id="a_node1"><a xlink:title="Create a iterative solver based of the SolverType and a list of Parameters.">
<polygon fill="#bfbfbf" stroke="black" points="0,-73.5 0,-103.5 159,-103.5 159,-73.5 0,-73.5"/>
<text text-anchor="start" x="8" y="-91.5" font-family="serif" font-size="10.00">SolverHypreGMRES::create</text>
<text text-anchor="middle" x="79.5" y="-80.5" font-family="serif" font-size="10.00">_solver</text>
</a>
</g>
</g>
<!-- Node2 -->
<g id="node2" class="node">
<title>Node2</title>
<g id="a_node2"><a xlink:href="classSlothInfo.html#a854d3cafdb9f5a77f1063a27d2a27e04" target="_top" xlink:title="Print information on Debug mode.">
<polygon fill="none" stroke="black" points="247,-148 247,-167 349,-167 349,-148 247,-148"/>
<text text-anchor="middle" x="298" y="-155" font-family="serif" font-size="10.00">SlothInfo::debug</text>
</a>
</g>
</g>
<!-- Node1&#45;&gt;Node2 -->
<g id="edge1" class="edge">
<title>Node1&#45;&gt;Node2</title>
<path fill="none" stroke="midnightblue" d="M109.93,-103.57C132.64,-114.66 165.14,-129.33 195,-138.5 208.37,-142.61 223.02,-145.97 236.93,-148.66"/>
<polygon fill="midnightblue" stroke="midnightblue" points="236.44,-152.13 246.91,-150.51 237.71,-145.25 236.44,-152.13"/>
</g>
<!-- Node3 -->
<g id="node3" class="node">
<title>Node3</title>
<g id="a_node3"><a xlink:href="classSolverBase.html#a52edc30e08c2552f8ceb3d9ea928b059" target="_top" xlink:title=" ">
<polygon fill="none" stroke="black" points="195,-98.5 195,-128.5 401,-128.5 401,-98.5 195,-98.5"/>
<text text-anchor="start" x="203" y="-116.5" font-family="serif" font-size="10.00">SolverBase&lt; mfem::HypreGMRES,</text>
<text text-anchor="middle" x="298" y="-105.5" font-family="serif" font-size="10.00"> HypreSolverType &gt;::get_description</text>
</a>
</g>
</g>
<!-- Node1&#45;&gt;Node3 -->
<g id="edge2" class="edge">
<title>Node1&#45;&gt;Node3</title>
<path fill="none" stroke="midnightblue" d="M159.27,-97.6C167.62,-98.56 176.21,-99.55 184.84,-100.55"/>
<polygon fill="midnightblue" stroke="midnightblue" points="184.64,-104.05 194.97,-101.72 185.44,-97.09 184.64,-104.05"/>
</g>
<!-- Node4 -->
<g id="node4" class="node">
<title>Node4</title>
<g id="a_node4"><a xlink:href="classParameters.html#ae3b314c5ebc3fde8684b0634b2406da6" target="_top" xlink:title=" ">
<polygon fill="none" stroke="black" points="230.5,-49.5 230.5,-79.5 365.5,-79.5 365.5,-49.5 230.5,-49.5"/>
<text text-anchor="start" x="238.5" y="-67.5" font-family="serif" font-size="10.00">Parameters::get_param</text>
<text text-anchor="middle" x="298" y="-56.5" font-family="serif" font-size="10.00">_value</text>
</a>
</g>
</g>
<!-- Node1&#45;&gt;Node4 -->
<g id="edge3" class="edge">
<title>Node1&#45;&gt;Node4</title>
<path fill="none" stroke="midnightblue" d="M159.27,-79.77C179.14,-77.56 200.45,-75.2 220.22,-73.01"/>
<polygon fill="midnightblue" stroke="midnightblue" points="220.85,-76.46 230.4,-71.88 220.08,-69.51 220.85,-76.46"/>
</g>
<!-- Node5 -->
<g id="node5" class="node">
<title>Node5</title>
<g id="a_node5"><a xlink:href="classParameters.html#a857c53fbe60d7bd2f91e91626f85b6d2" target="_top" xlink:title=" ">
<polygon fill="none" stroke="black" points="230.5,-0.5 230.5,-30.5 365.5,-30.5 365.5,-0.5 230.5,-0.5"/>
<text text-anchor="start" x="238.5" y="-18.5" font-family="serif" font-size="10.00">Parameters::get_param</text>
<text text-anchor="middle" x="298" y="-7.5" font-family="serif" font-size="10.00">_value_or_default</text>
</a>
</g>
</g>
<!-- Node1&#45;&gt;Node5 -->
<g id="edge4" class="edge">
<title>Node1&#45;&gt;Node5</title>
<path fill="none" stroke="midnightblue" d="M112.56,-73.47C135.24,-63.23 166.55,-49.89 195,-40.5 203.24,-37.78 211.94,-35.21 220.65,-32.82"/>
<polygon fill="midnightblue" stroke="midnightblue" points="221.69,-36.17 230.46,-30.21 219.89,-29.4 221.69,-36.17"/>
</g>
</g>
</svg>
