<?xml version="1.0" encoding="UTF-8" standalone="no"?>
<!DOCTYPE svg PUBLIC "-//W3C//DTD SVG 1.1//EN"
 "http://www.w3.org/Graphics/SVG/1.1/DTD/svg11.dtd">
<!-- Generated by graphviz version 2.43.0 (0)
 -->
<!-- Title: SolverMINRES::create_solver Pages: 1 -->
<svg width="375pt" height="225pt"
 viewBox="0.00 0.00 375.00 225.00" xmlns="http://www.w3.org/2000/svg" xmlns:xlink="http://www.w3.org/1999/xlink">
<g id="graph0" class="graph" transform="scale(1 1) rotate(0) translate(4 221)">
<title>SolverMINRES::create_solver</title>
<!-- Node1 -->
<g id="node1" class="node">
<title>Node1</title>
<g id="a_node1"><a xlink:title=" ">
<polygon fill="#bfbfbf" stroke="black" points="0,-88 0,-118 131,-118 131,-88 0,-88"/>
<text text-anchor="start" x="8" y="-106" font-family="serif" font-size="10.00">SolverMINRES::create</text>
<text text-anchor="middle" x="65.5" y="-95" font-family="serif" font-size="10.00">_solver</text>
</a>
</g>
</g>
<!-- Node2 -->
<g id="node2" class="node">
<title>Node2</title>
<g id="a_node2"><a xlink:href="classSlothInfo.html#a854d3cafdb9f5a77f1063a27d2a27e04" target="_top" xlink:title="Print information on Debug mode.">
<polygon fill="none" stroke="black" points="216,-197.5 216,-216.5 318,-216.5 318,-197.5 216,-197.5"/>
<text text-anchor="middle" x="267" y="-204.5" font-family="serif" font-size="10.00">SlothInfo::debug</text>
</a>
</g>
</g>
<!-- Node1&#45;&gt;Node2 -->
<g id="edge1" class="edge">
<title>Node1&#45;&gt;Node2</title>
<path fill="none" stroke="midnightblue" d="M79.79,-118.3C97.59,-137.75 131.12,-170.85 167,-188 179.02,-193.74 192.64,-197.75 205.85,-200.55"/>
<polygon fill="midnightblue" stroke="midnightblue" points="205.36,-204.02 215.84,-202.46 206.67,-197.14 205.36,-204.02"/>
</g>
<!-- Node3 -->
<g id="node3" class="node">
<title>Node3</title>
<g id="a_node3"><a xlink:href="classSolverBase.html#a52edc30e08c2552f8ceb3d9ea928b059" target="_top" xlink:title=" ">
<polygon fill="none" stroke="black" points="167,-137.5 167,-178.5 367,-178.5 367,-137.5 167,-137.5"/>
<text text-anchor="start" x="175" y="-166.5" font-family="serif" font-size="10.00">SolverBase&lt; mfem::MINRESSolver,</text>
<text text-anchor="start" x="175" y="-155.5" font-family="serif" font-size="10.00"> IterativeSolverType &gt;::get</text>
<text text-anchor="middle" x="267" y="-144.5" font-family="serif" font-size="10.00">_description</text>
</a>
</g>
</g>
<!-- Node1&#45;&gt;Node3 -->
<g id="edge2" class="edge">
<title>Node1&#45;&gt;Node3</title>
<path fill="none" stroke="midnightblue" d="M121.01,-118.03C139.74,-123.19 161.16,-129.1 181.69,-134.76"/>
<polygon fill="midnightblue" stroke="midnightblue" points="180.79,-138.14 191.36,-137.42 182.65,-131.39 180.79,-138.14"/>
</g>
<!-- Node4 -->
<g id="node4" class="node">
<title>Node4</title>
<g id="a_node4"><a xlink:href="classParameters.html#ae3b314c5ebc3fde8684b0634b2406da6" target="_top" xlink:title=" ">
<polygon fill="none" stroke="black" points="199.5,-88 199.5,-118 334.5,-118 334.5,-88 199.5,-88"/>
<text text-anchor="start" x="207.5" y="-106" font-family="serif" font-size="10.00">Parameters::get_param</text>
<text text-anchor="middle" x="267" y="-95" font-family="serif" font-size="10.00">_value</text>
</a>
</g>
</g>
<!-- Node1&#45;&gt;Node4 -->
<g id="edge3" class="edge">
<title>Node1&#45;&gt;Node4</title>
<path fill="none" stroke="midnightblue" d="M131.27,-103C149.69,-103 169.93,-103 189.01,-103"/>
<polygon fill="midnightblue" stroke="midnightblue" points="189.16,-106.5 199.16,-103 189.16,-99.5 189.16,-106.5"/>
</g>
<!-- Node5 -->
<g id="node5" class="node">
<title>Node5</title>
<g id="a_node5"><a xlink:href="classParameters.html#a857c53fbe60d7bd2f91e91626f85b6d2" target="_top" xlink:title=" ">
<polygon fill="none" stroke="black" points="199.5,-39 199.5,-69 334.5,-69 334.5,-39 199.5,-39"/>
<text text-anchor="start" x="207.5" y="-57" font-family="serif" font-size="10.00">Parameters::get_param</text>
<text text-anchor="middle" x="267" y="-46" font-family="serif" font-size="10.00">_value_or_default</text>
</a>
</g>
</g>
<!-- Node1&#45;&gt;Node5 -->
<g id="edge4" class="edge">
<title>Node1&#45;&gt;Node5</title>
<path fill="none" stroke="midnightblue" d="M127.71,-87.97C148.97,-82.74 172.98,-76.85 194.96,-71.45"/>
<polygon fill="midnightblue" stroke="midnightblue" points="196.03,-74.79 204.9,-69.01 194.36,-67.99 196.03,-74.79"/>
</g>
<!-- Node6 -->
<g id="node6" class="node">
<title>Node6</title>
<g id="a_node6"><a xlink:href="UtilsForData_8hpp.html#a624f01f99bc5aadf3d7c3b7c8c7c4ac7" target="_top" xlink:title="Check the level of verbosity.">
<polygon fill="none" stroke="black" points="216.5,-0.5 216.5,-19.5 317.5,-19.5 317.5,-0.5 216.5,-0.5"/>
<text text-anchor="middle" x="267" y="-7.5" font-family="serif" font-size="10.00">verbose_at_least</text>
</a>
</g>
</g>
<!-- Node1&#45;&gt;Node6 -->
<g id="edge5" class="edge">
<title>Node1&#45;&gt;Node6</title>
<path fill="none" stroke="midnightblue" d="M82.54,-87.92C101.3,-71.13 134.03,-44.48 167,-30 179.28,-24.61 193.06,-20.65 206.35,-17.75"/>
<polygon fill="midnightblue" stroke="midnightblue" points="207.27,-21.14 216.39,-15.74 205.89,-14.28 207.27,-21.14"/>
</g>
</g>
</svg>
