<?xml version="1.0" encoding="UTF-8" standalone="no"?>
<!DOCTYPE svg PUBLIC "-//W3C//DTD SVG 1.1//EN"
 "http://www.w3.org/Graphics/SVG/1.1/DTD/svg11.dtd">
<!-- Generated by graphviz version 2.43.0 (0)
 -->
<!-- Title: SteadyOperator&lt; T, DIM &gt; Pages: 1 -->
<svg width="305pt" height="185pt"
 viewBox="0.00 0.00 304.50 185.00" xmlns="http://www.w3.org/2000/svg" xmlns:xlink="http://www.w3.org/1999/xlink">
<g id="graph0" class="graph" transform="scale(1 1) rotate(0) translate(4 181)">
<title>SteadyOperator&lt; T, DIM &gt;</title>
<!-- Node1 -->
<g id="node1" class="node">
<title>Node1</title>
<g id="a_node1"><a xlink:title="SteadyOperator class.">
<polygon fill="#bfbfbf" stroke="black" points="61,-0.5 61,-30.5 178,-30.5 178,-0.5 61,-0.5"/>
<text text-anchor="start" x="69" y="-18.5" font-family="serif" font-size="10.00">SteadyOperator&lt; T,</text>
<text text-anchor="middle" x="119.5" y="-7.5" font-family="serif" font-size="10.00"> DIM &gt;</text>
</a>
</g>
</g>
<!-- Node2 -->
<g id="node2" class="node">
<title>Node2</title>
<g id="a_node2"><a xlink:href="classOperatorBase.html" target="_top" xlink:title="Base class for building Steady and TimeDependent PhaseFieldOperators.">
<polygon fill="none" stroke="black" points="48,-68.5 48,-87.5 191,-87.5 191,-68.5 48,-68.5"/>
<text text-anchor="middle" x="119.5" y="-75.5" font-family="serif" font-size="10.00">OperatorBase&lt; T, DIM &gt;</text>
</a>
</g>
</g>
<!-- Node2&#45;&gt;Node1 -->
<g id="edge1" class="edge">
<title>Node2&#45;&gt;Node1</title>
<path fill="none" stroke="midnightblue" d="M119.5,-58.22C119.5,-49.36 119.5,-38.96 119.5,-30.76"/>
<polygon fill="midnightblue" stroke="midnightblue" points="116,-58.33 119.5,-68.33 123,-58.33 116,-58.33"/>
</g>
<!-- Node3 -->
<g id="node3" class="node">
<title>Node3</title>
<g id="a_node3"><a xlink:href="classParameter.html" target="_top" xlink:title=" ">
<polygon fill="none" stroke="black" points="0,-157.5 0,-176.5 69,-176.5 69,-157.5 0,-157.5"/>
<text text-anchor="middle" x="34.5" y="-164.5" font-family="serif" font-size="10.00">Parameter</text>
</a>
</g>
</g>
<!-- Node3&#45;&gt;Node2 -->
<g id="edge2" class="edge">
<title>Node3&#45;&gt;Node2</title>
<path fill="none" stroke="#9a32cd" stroke-dasharray="5,2" d="M38.06,-147.34C41.39,-134.34 47.55,-117.36 58.5,-106 66.54,-97.66 77.61,-91.72 88.11,-87.57"/>
<polygon fill="#9a32cd" stroke="#9a32cd" points="34.64,-146.6 35.88,-157.12 41.47,-148.12 34.64,-146.6"/>
<text text-anchor="middle" x="87" y="-120" font-family="serif" font-size="10.00"> default_p_</text>
</g>
<!-- Node4 -->
<g id="node4" class="node">
<title>Node4</title>
<g id="a_node4"><a xlink:href="classNLSolver.html" target="_top" xlink:title=" ">
<polygon fill="none" stroke="black" points="87,-157.5 87,-176.5 152,-176.5 152,-157.5 87,-157.5"/>
<text text-anchor="middle" x="119.5" y="-164.5" font-family="serif" font-size="10.00">NLSolver</text>
</a>
</g>
</g>
<!-- Node4&#45;&gt;Node2 -->
<g id="edge3" class="edge">
<title>Node4&#45;&gt;Node2</title>
<path fill="none" stroke="#9a32cd" stroke-dasharray="5,2" d="M119.5,-147.19C119.5,-128.74 119.5,-101.41 119.5,-87.62"/>
<polygon fill="#9a32cd" stroke="#9a32cd" points="116,-147.34 119.5,-157.34 123,-147.34 116,-147.34"/>
<text text-anchor="middle" x="150" y="-120" font-family="serif" font-size="10.00"> rhs_solver_</text>
</g>
<!-- Node5 -->
<g id="node5" class="node">
<title>Node5</title>
<g id="a_node5"><a xlink:href="classParameters.html" target="_top" xlink:title=" ">
<polygon fill="none" stroke="black" points="170.5,-157.5 170.5,-176.5 244.5,-176.5 244.5,-157.5 170.5,-157.5"/>
<text text-anchor="middle" x="207.5" y="-164.5" font-family="serif" font-size="10.00">Parameters</text>
</a>
</g>
</g>
<!-- Node5&#45;&gt;Node2 -->
<g id="edge4" class="edge">
<title>Node5&#45;&gt;Node2</title>
<path fill="none" stroke="#9a32cd" stroke-dasharray="5,2" d="M204.27,-146.88C201.18,-133.9 195.33,-117.13 184.5,-106 176.32,-97.59 165.14,-91.69 154.35,-87.6"/>
<polygon fill="#9a32cd" stroke="#9a32cd" points="200.92,-147.97 206.32,-157.08 207.78,-146.59 200.92,-147.97"/>
<text text-anchor="middle" x="249" y="-131" font-family="serif" font-size="10.00"> default_params_</text>
<text text-anchor="middle" x="249" y="-120" font-family="serif" font-size="10.00">nl_solver_params_</text>
<text text-anchor="middle" x="249" y="-109" font-family="serif" font-size="10.00">params_</text>
</g>
</g>
</svg>
