<?xml version="1.0" encoding="UTF-8" standalone="no"?>
<!DOCTYPE svg PUBLIC "-//W3C//DTD SVG 1.1//EN"
 "http://www.w3.org/Graphics/SVG/1.1/DTD/svg11.dtd">
<!-- Generated by graphviz version 2.43.0 (0)
 -->
<!-- Title: SlothSolver::get_value Pages: 1 -->
<!--zoomable 617 -->
<svg id="main" version="1.1" xmlns="http://www.w3.org/2000/svg" xmlns:xlink="http://www.w3.org/1999/xlink" xml:space="preserve" onload="init(evt)">
<style type="text/css"><![CDATA[
.edge:hover path { stroke: red; }
.edge:hover polygon { stroke: red; fill: red; }
]]></style>
<script type="text/javascript"><![CDATA[
var edges = document.getElementsByTagName('g');
if (edges && edges.length) {
  for (var i=0;i<edges.length;i++) {
    if (edges[i].id.substr(0,4)=='edge') {
      edges[i].setAttribute('class','edge');
    }
  }
}
]]></script>
        <defs>
                <circle id="rim" cx="0" cy="0" r="7"/>
                <circle id="rim2" cx="0" cy="0" r="3.5"/>
                <g id="zoomPlus">
                        <use xlink:href="#rim" fill="#404040">
                                <set attributeName="fill" to="#808080" begin="zoomplus.mouseover" end="zoomplus.mouseout"/>
                        </use>
                        <path d="M-4,0h8M0,-4v8" fill="none" stroke="white" stroke-width="1.5" pointer-events="none"/>
                </g>
                <g id="zoomMin">
                        <use xlink:href="#rim" fill="#404040">
                                <set attributeName="fill" to="#808080" begin="zoomminus.mouseover" end="zoomminus.mouseout"/>
                        </use>
                        <path d="M-4,0h8" fill="none" stroke="white" stroke-width="1.5" pointer-events="none"/>
                </g>
                <g id="dirArrow">
                        <path fill="none" stroke="white" stroke-width="1.5" d="M0,-3.0v7 M-2.5,-0.5L0,-3.0L2.5,-0.5"/>
                </g>
               <g id="resetDef">
                       <use xlink:href="#rim2" fill="#404040">
                               <set attributeName="fill" to="#808080" begin="reset.mouseover" end="reset.mouseout"/>
                       </use>
               </g>
        </defs>

<script type="text/javascript">
var viewWidth = 539;
var viewHeight = 617;
var sectionId = 'dynsection-0';
</script>
<script xlink:href="svgpan.js"/>
<svg id="graph" class="graph">
<g id="viewport">
<title>SlothSolver::get_value</title>
<!-- Node1 -->
<g id="node1" class="node">
<title>Node1</title>
<g id="a_node1"><a xlink:title="Create the linear solver depending on SolverType.">
<polygon fill="#bfbfbf" stroke="black" points="0,-290 0,-309 131,-309 131,-290 0,-290"/>
<text text-anchor="middle" x="65.5" y="-297" font-family="serif" font-size="10.00">SlothSolver::get_value</text>
</a>
</g>
</g>
<!-- Node2 -->
<g id="node2" class="node">
<title>Node2</title>
<g id="a_node2"><a xlink:href="classSolverUMFPACK.html#a83fe21379896c4df62b1df2947767d2e" target="_top" xlink:title="Create a direct solver based of the SolverType and a list of Parameters.">
<polygon fill="none" stroke="black" points="176.5,-98.5 176.5,-128.5 316.5,-128.5 316.5,-98.5 176.5,-98.5"/>
<text text-anchor="start" x="184.5" y="-116.5" font-family="serif" font-size="10.00">SolverUMFPACK::create</text>
<text text-anchor="middle" x="246.5" y="-105.5" font-family="serif" font-size="10.00">_solver</text>
</a>
</g>
</g>
<!-- Node1&#45;&gt;Node2 -->
<g id="edge1" class="edge">
<title>Node1&#45;&gt;Node2</title>
<path fill="none" stroke="midnightblue" d="M69.73,-289.8C79.58,-261.75 111.93,-179.9 167,-137.5 168.79,-136.12 170.66,-134.82 172.59,-133.6"/>
<polygon fill="midnightblue" stroke="midnightblue" points="174.37,-136.61 181.4,-128.69 170.96,-130.5 174.37,-136.61"/>
</g>
<!-- Node7 -->
<g id="node7" class="node">
<title>Node7</title>
<g id="a_node7"><a xlink:href="classPrecondHypreILU.html#a7e7defa37401cea9cac7183a5994b13b" target="_top" xlink:title="Create preconditioner based of the PreconditionerType and a list of Parameters.">
<polygon fill="none" stroke="black" points="173.5,-49.5 173.5,-79.5 319.5,-79.5 319.5,-49.5 173.5,-49.5"/>
<text text-anchor="start" x="181.5" y="-67.5" font-family="serif" font-size="10.00">PrecondHypreILU::create</text>
<text text-anchor="middle" x="246.5" y="-56.5" font-family="serif" font-size="10.00">_solver</text>
</a>
</g>
</g>
<!-- Node1&#45;&gt;Node7 -->
<g id="edge6" class="edge">
<title>Node1&#45;&gt;Node7</title>
<path fill="none" stroke="midnightblue" d="M68.23,-289.85C74.71,-256.6 100.62,-145.73 167,-88.5 168.5,-87.21 170.06,-85.99 171.69,-84.83"/>
<polygon fill="midnightblue" stroke="midnightblue" points="173.53,-87.8 180.21,-79.58 169.86,-81.84 173.53,-87.8"/>
</g>
<!-- Node8 -->
<g id="node8" class="node">
<title>Node8</title>
<g id="a_node8"><a xlink:href="classPrecondHypreSmoother.html#aadca5acda7af3396285f385654c24a1b" target="_top" xlink:title="Create preconditioner based of the PreconditionerType and a list of Parameters.">
<polygon fill="none" stroke="black" points="176.5,-0.5 176.5,-30.5 316.5,-30.5 316.5,-0.5 176.5,-0.5"/>
<text text-anchor="start" x="184.5" y="-18.5" font-family="serif" font-size="10.00">PrecondHypreSmoother</text>
<text text-anchor="middle" x="246.5" y="-7.5" font-family="serif" font-size="10.00">::create_solver</text>
</a>
</g>
</g>
<!-- Node1&#45;&gt;Node8 -->
<g id="edge11" class="edge">
<title>Node1&#45;&gt;Node8</title>
<path fill="none" stroke="midnightblue" d="M67.28,-289.82C70.86,-251.91 89.05,-112.02 167,-39.5 168.14,-38.44 169.33,-37.42 170.55,-36.45"/>
<polygon fill="midnightblue" stroke="midnightblue" points="172.81,-39.16 179.17,-30.68 168.91,-33.34 172.81,-39.16"/>
</g>
<!-- Node9 -->
<g id="node9" class="node">
<title>Node9</title>
<g id="a_node9"><a xlink:href="classPrecondHypreBoomerAMG.html#a9274064ab381792bf2f034344d2d621d" target="_top" xlink:title="Create preconditioner based of the PreconditionerType and a list of Parameters.">
<polygon fill="none" stroke="black" points="168,-529.5 168,-559.5 325,-559.5 325,-529.5 168,-529.5"/>
<text text-anchor="start" x="176" y="-547.5" font-family="serif" font-size="10.00">PrecondHypreBoomerAMG</text>
<text text-anchor="middle" x="246.5" y="-536.5" font-family="serif" font-size="10.00">::create_solver</text>
</a>
</g>
</g>
<!-- Node1&#45;&gt;Node9 -->
<g id="edge16" class="edge">
<title>Node1&#45;&gt;Node9</title>
<path fill="none" stroke="midnightblue" d="M68,-309.12C73.84,-343.32 98.26,-460.17 167,-520.5 168.49,-521.8 170.04,-523.04 171.65,-524.2"/>
<polygon fill="midnightblue" stroke="midnightblue" points="169.81,-527.18 180.15,-529.5 173.51,-521.24 169.81,-527.18"/>
</g>
<!-- Node10 -->
<g id="node10" class="node">
<title>Node10</title>
<g id="a_node10"><a xlink:href="classPrecondHypreDiagScale.html#addd6474561b2dc1caef97fbf187bae91" target="_top" xlink:title="Create preconditioner based of the PreconditionerType and a list of Parameters.">
<polygon fill="none" stroke="black" points="175.5,-578.5 175.5,-608.5 317.5,-608.5 317.5,-578.5 175.5,-578.5"/>
<text text-anchor="start" x="183.5" y="-596.5" font-family="serif" font-size="10.00">PrecondHypreDiagScale</text>
<text text-anchor="middle" x="246.5" y="-585.5" font-family="serif" font-size="10.00">::create_solver</text>
</a>
</g>
</g>
<!-- Node1&#45;&gt;Node10 -->
<g id="edge21" class="edge">
<title>Node1&#45;&gt;Node10</title>
<path fill="none" stroke="midnightblue" d="M67.11,-309.01C70.1,-347.56 86.54,-493.7 167,-569.5 168.13,-570.57 169.32,-571.59 170.54,-572.57"/>
<polygon fill="midnightblue" stroke="midnightblue" points="168.87,-575.67 179.12,-578.37 172.8,-569.87 168.87,-575.67"/>
</g>
<!-- Node11 -->
<g id="node11" class="node">
<title>Node11</title>
<g id="a_node11"><a xlink:href="classSolverHyprePCG.html#af4a480332bac2a5014c3e2a84f3403ba" target="_top" xlink:title="Create a iterative solver based of the SolverType and a list of Parameters.">
<polygon fill="none" stroke="black" points="176,-480.5 176,-510.5 317,-510.5 317,-480.5 176,-480.5"/>
<text text-anchor="start" x="184" y="-498.5" font-family="serif" font-size="10.00">SolverHyprePCG::create</text>
<text text-anchor="middle" x="246.5" y="-487.5" font-family="serif" font-size="10.00">_solver</text>
</a>
</g>
</g>
<!-- Node1&#45;&gt;Node11 -->
<g id="edge25" class="edge">
<title>Node1&#45;&gt;Node11</title>
<path fill="none" stroke="midnightblue" d="M69.42,-309.38C78.61,-338.74 109.77,-426.22 167,-471.5 168.77,-472.9 170.62,-474.22 172.54,-475.46"/>
<polygon fill="midnightblue" stroke="midnightblue" points="170.88,-478.55 181.31,-480.43 174.33,-472.46 170.88,-478.55"/>
</g>
<!-- Node12 -->
<g id="node12" class="node">
<title>Node12</title>
<g id="a_node12"><a xlink:href="classSolverHypreGMRES.html#a94293cedbdd903adcd5866ce3554ef10" target="_top" xlink:title="Create a iterative solver based of the SolverType and a list of Parameters.">
<polygon fill="none" stroke="black" points="167,-431.5 167,-461.5 326,-461.5 326,-431.5 167,-431.5"/>
<text text-anchor="start" x="175" y="-449.5" font-family="serif" font-size="10.00">SolverHypreGMRES::create</text>
<text text-anchor="middle" x="246.5" y="-438.5" font-family="serif" font-size="10.00">_solver</text>
</a>
</g>
</g>
<!-- Node1&#45;&gt;Node12 -->
<g id="edge30" class="edge">
<title>Node1&#45;&gt;Node12</title>
<path fill="none" stroke="midnightblue" d="M71.66,-309.12C84.56,-332.24 120.52,-391.3 167,-422.5 169.38,-424.1 171.88,-425.6 174.46,-427"/>
<polygon fill="midnightblue" stroke="midnightblue" points="172.94,-430.16 183.47,-431.4 176.02,-423.87 172.94,-430.16"/>
</g>
<!-- Node13 -->
<g id="node13" class="node">
<title>Node13</title>
<g id="a_node13"><a xlink:href="classSolverHypreFGMRES.html#a54588ca870f9439ec8f4bccd7d8615a8" target="_top" xlink:title="Create a iterative solver based of the SolverType and a list of Parameters.">
<polygon fill="none" stroke="black" points="179.5,-382.5 179.5,-412.5 313.5,-412.5 313.5,-382.5 179.5,-382.5"/>
<text text-anchor="start" x="187.5" y="-400.5" font-family="serif" font-size="10.00">SolverHypreFGMRES::</text>
<text text-anchor="middle" x="246.5" y="-389.5" font-family="serif" font-size="10.00">create_solver</text>
</a>
</g>
</g>
<!-- Node1&#45;&gt;Node13 -->
<g id="edge35" class="edge">
<title>Node1&#45;&gt;Node13</title>
<path fill="none" stroke="midnightblue" d="M76.86,-309.01C94.25,-324.54 130.99,-355.4 167,-373.5 170.72,-375.37 174.62,-377.13 178.61,-378.77"/>
<polygon fill="midnightblue" stroke="midnightblue" points="177.43,-382.07 188.01,-382.41 179.95,-375.54 177.43,-382.07"/>
</g>
<!-- Node14 -->
<g id="node14" class="node">
<title>Node14</title>
<g id="a_node14"><a xlink:href="classPrecondDSmoother.html#a286f01fb24a1d08cc00950b04e9e0bfc" target="_top" xlink:title="Create preconditioner based of the PreconditionerType and a list of Parameters.">
<polygon fill="none" stroke="black" points="169.5,-333.5 169.5,-363.5 323.5,-363.5 323.5,-333.5 169.5,-333.5"/>
<text text-anchor="start" x="177.5" y="-351.5" font-family="serif" font-size="10.00">PrecondDSmoother::create</text>
<text text-anchor="middle" x="246.5" y="-340.5" font-family="serif" font-size="10.00">_solver</text>
</a>
</g>
</g>
<!-- Node1&#45;&gt;Node14 -->
<g id="edge40" class="edge">
<title>Node1&#45;&gt;Node14</title>
<path fill="none" stroke="midnightblue" d="M101.44,-309.06C124,-315.24 154.05,-323.46 180.86,-330.8"/>
<polygon fill="midnightblue" stroke="midnightblue" points="180,-334.2 190.57,-333.46 181.85,-327.45 180,-334.2"/>
</g>
<!-- Node15 -->
<g id="node15" class="node">
<title>Node15</title>
<g id="a_node15"><a xlink:href="classSolverBICGSTAB.html#a088138ab2b4e2295192b98abd8e4eefc" target="_top" xlink:title="Create a iterative solver based of the SolverType and a list of Parameters.">
<polygon fill="none" stroke="black" points="176,-284.5 176,-314.5 317,-314.5 317,-284.5 176,-284.5"/>
<text text-anchor="start" x="184" y="-302.5" font-family="serif" font-size="10.00">SolverBICGSTAB::create</text>
<text text-anchor="middle" x="246.5" y="-291.5" font-family="serif" font-size="10.00">_solver</text>
</a>
</g>
</g>
<!-- Node1&#45;&gt;Node15 -->
<g id="edge45" class="edge">
<title>Node1&#45;&gt;Node15</title>
<path fill="none" stroke="midnightblue" d="M131.12,-299.5C142.35,-299.5 154.15,-299.5 165.73,-299.5"/>
<polygon fill="midnightblue" stroke="midnightblue" points="165.83,-303 175.83,-299.5 165.83,-296 165.83,-303"/>
</g>
<!-- Node16 -->
<g id="node16" class="node">
<title>Node16</title>
<g id="a_node16"><a xlink:href="classSolverMINRES.html#ace4d6324acb77a33354204e692a2463f" target="_top" xlink:title=" ">
<polygon fill="none" stroke="black" points="181,-235.5 181,-265.5 312,-265.5 312,-235.5 181,-235.5"/>
<text text-anchor="start" x="189" y="-253.5" font-family="serif" font-size="10.00">SolverMINRES::create</text>
<text text-anchor="middle" x="246.5" y="-242.5" font-family="serif" font-size="10.00">_solver</text>
</a>
</g>
</g>
<!-- Node1&#45;&gt;Node16 -->
<g id="edge50" class="edge">
<title>Node1&#45;&gt;Node16</title>
<path fill="none" stroke="midnightblue" d="M101.44,-289.94C124,-283.76 154.05,-275.54 180.86,-268.2"/>
<polygon fill="midnightblue" stroke="midnightblue" points="181.85,-271.55 190.57,-265.54 180,-264.8 181.85,-271.55"/>
</g>
<!-- Node17 -->
<g id="node17" class="node">
<title>Node17</title>
<g id="a_node17"><a xlink:href="classSolverCG.html#a22bb7e38585bc24764881aa0f5aa200c" target="_top" xlink:title=" ">
<polygon fill="none" stroke="black" points="177.5,-197 177.5,-216 315.5,-216 315.5,-197 177.5,-197"/>
<text text-anchor="middle" x="246.5" y="-204" font-family="serif" font-size="10.00">SolverCG::create_solver</text>
</a>
</g>
</g>
<!-- Node1&#45;&gt;Node17 -->
<g id="edge55" class="edge">
<title>Node1&#45;&gt;Node17</title>
<path fill="none" stroke="midnightblue" d="M76.74,-289.75C93.97,-273.87 130.47,-242.52 167,-225.5 172.29,-223.03 177.94,-220.87 183.69,-218.97"/>
<polygon fill="midnightblue" stroke="midnightblue" points="184.86,-222.27 193.41,-216.02 182.82,-215.57 184.86,-222.27"/>
</g>
<!-- Node18 -->
<g id="node18" class="node">
<title>Node18</title>
<g id="a_node18"><a xlink:href="classSolverGMRES.html#aea5f0ae2948f5e66d2ef5d508ce61f68" target="_top" xlink:title=" ">
<polygon fill="none" stroke="black" points="183,-147.5 183,-177.5 310,-177.5 310,-147.5 183,-147.5"/>
<text text-anchor="start" x="191" y="-165.5" font-family="serif" font-size="10.00">SolverGMRES::create</text>
<text text-anchor="middle" x="246.5" y="-154.5" font-family="serif" font-size="10.00">_solver</text>
</a>
</g>
</g>
<!-- Node1&#45;&gt;Node18 -->
<g id="edge60" class="edge">
<title>Node1&#45;&gt;Node18</title>
<path fill="none" stroke="midnightblue" d="M72.52,-289.84C86.46,-268.27 123.12,-215.87 167,-187.5 170.13,-185.48 173.43,-183.61 176.84,-181.88"/>
<polygon fill="midnightblue" stroke="midnightblue" points="178.45,-185 186.07,-177.64 175.52,-178.64 178.45,-185"/>
</g>
<!-- Node3 -->
<g id="node3" class="node">
<title>Node3</title>
<g id="a_node3"><a xlink:href="classSlothInfo.html#a854d3cafdb9f5a77f1063a27d2a27e04" target="_top" xlink:title="Print information on Debug mode.">
<polygon fill="none" stroke="black" points="395.5,-350 395.5,-369 497.5,-369 497.5,-350 395.5,-350"/>
<text text-anchor="middle" x="446.5" y="-357" font-family="serif" font-size="10.00">SlothInfo::debug</text>
</a>
</g>
</g>
<!-- Node2&#45;&gt;Node3 -->
<g id="edge2" class="edge">
<title>Node2&#45;&gt;Node3</title>
<path fill="none" stroke="midnightblue" d="M315.68,-128.63C319.48,-131.15 322.98,-134.09 326,-137.5 386.75,-206.1 298.79,-274.16 362,-340.5 368.4,-347.22 376.65,-351.79 385.45,-354.86"/>
<polygon fill="midnightblue" stroke="midnightblue" points="384.6,-358.26 395.17,-357.64 386.52,-351.53 384.6,-358.26"/>
</g>
<!-- Node4 -->
<g id="node4" class="node">
<title>Node4</title>
<g id="a_node4"><a xlink:href="classSolverBase.html#a52edc30e08c2552f8ceb3d9ea928b059" target="_top" xlink:title=" ">
<polygon fill="none" stroke="black" points="362,-290 362,-331 531,-331 531,-290 362,-290"/>
<text text-anchor="start" x="370" y="-319" font-family="serif" font-size="10.00">SolverBase&lt; mfem::UMFPack</text>
<text text-anchor="start" x="370" y="-308" font-family="serif" font-size="10.00">Solver, DirectSolverType</text>
<text text-anchor="middle" x="446.5" y="-297" font-family="serif" font-size="10.00"> &gt;::get_description</text>
</a>
</g>
</g>
<!-- Node2&#45;&gt;Node4 -->
<g id="edge3" class="edge">
<title>Node2&#45;&gt;Node4</title>
<path fill="none" stroke="midnightblue" d="M315.04,-128.66C319.04,-131.17 322.76,-134.1 326,-137.5 370.91,-184.64 318.49,-231.06 362,-279.5 363.21,-280.84 364.48,-282.13 365.81,-283.36"/>
<polygon fill="midnightblue" stroke="midnightblue" points="363.94,-286.35 373.95,-289.82 368.29,-280.86 363.94,-286.35"/>
</g>
<!-- Node5 -->
<g id="node5" class="node">
<title>Node5</title>
<g id="a_node5"><a xlink:href="classParameters.html#ae3b314c5ebc3fde8684b0634b2406da6" target="_top" xlink:title=" ">
<polygon fill="none" stroke="black" points="379,-240.5 379,-270.5 514,-270.5 514,-240.5 379,-240.5"/>
<text text-anchor="start" x="387" y="-258.5" font-family="serif" font-size="10.00">Parameters::get_param</text>
<text text-anchor="middle" x="446.5" y="-247.5" font-family="serif" font-size="10.00">_value</text>
</a>
</g>
</g>
<!-- Node2&#45;&gt;Node5 -->
<g id="edge4" class="edge">
<title>Node2&#45;&gt;Node5</title>
<path fill="none" stroke="midnightblue" d="M313.83,-128.68C318.23,-131.19 322.35,-134.1 326,-137.5 358.46,-167.68 329.46,-200.41 362,-230.5 364.44,-232.76 367.09,-234.82 369.87,-236.69"/>
<polygon fill="midnightblue" stroke="midnightblue" points="368.21,-239.77 378.61,-241.76 371.72,-233.71 368.21,-239.77"/>
</g>
<!-- Node6 -->
<g id="node6" class="node">
<title>Node6</title>
<g id="a_node6"><a xlink:href="classParameters.html#a857c53fbe60d7bd2f91e91626f85b6d2" target="_top" xlink:title=" ">
<polygon fill="none" stroke="black" points="379,-191.5 379,-221.5 514,-221.5 514,-191.5 379,-191.5"/>
<text text-anchor="start" x="387" y="-209.5" font-family="serif" font-size="10.00">Parameters::get_param</text>
<text text-anchor="middle" x="446.5" y="-198.5" font-family="serif" font-size="10.00">_value_or_default</text>
</a>
</g>
</g>
<!-- Node2&#45;&gt;Node6 -->
<g id="edge5" class="edge">
<title>Node2&#45;&gt;Node6</title>
<path fill="none" stroke="midnightblue" d="M302.55,-128.59C310.53,-131.27 318.55,-134.26 326,-137.5 357.36,-151.14 390.91,-171.02 414.45,-185.95"/>
<polygon fill="midnightblue" stroke="midnightblue" points="412.65,-188.95 422.96,-191.4 416.43,-183.06 412.65,-188.95"/>
</g>
<!-- Node7&#45;&gt;Node3 -->
<g id="edge7" class="edge">
<title>Node7&#45;&gt;Node3</title>
<path fill="none" stroke="midnightblue" d="M315.82,-79.51C319.58,-82.06 323.03,-85.04 326,-88.5 399.57,-174.45 285.34,-257.29 362,-340.5 368.36,-347.41 376.67,-352.06 385.57,-355.15"/>
<polygon fill="midnightblue" stroke="midnightblue" points="384.82,-358.58 395.4,-357.93 386.73,-351.84 384.82,-358.58"/>
</g>
<!-- Node7&#45;&gt;Node4 -->
<g id="edge8" class="edge">
<title>Node7&#45;&gt;Node4</title>
<path fill="none" stroke="midnightblue" d="M315.64,-79.66C319.45,-82.18 322.96,-85.1 326,-88.5 383.62,-152.86 306.3,-213.47 362,-279.5 363.13,-280.84 364.33,-282.12 365.58,-283.35"/>
<polygon fill="midnightblue" stroke="midnightblue" points="363.37,-286.07 373.3,-289.79 367.86,-280.7 363.37,-286.07"/>
</g>
<!-- Node7&#45;&gt;Node5 -->
<g id="edge9" class="edge">
<title>Node7&#45;&gt;Node5</title>
<path fill="none" stroke="midnightblue" d="M315.04,-79.66C319.04,-82.17 322.76,-85.1 326,-88.5 370.91,-135.64 316.95,-183.49 362,-230.5 364.48,-233.09 367.22,-235.42 370.15,-237.5"/>
<polygon fill="midnightblue" stroke="midnightblue" points="368.48,-240.58 378.84,-242.78 372.11,-234.6 368.48,-240.58"/>
</g>
<!-- Node7&#45;&gt;Node6 -->
<g id="edge10" class="edge">
<title>Node7&#45;&gt;Node6</title>
<path fill="none" stroke="midnightblue" d="M307.53,-79.51C313.96,-82.09 320.25,-85.07 326,-88.5 368.25,-113.71 406.72,-156.95 428.04,-183.5"/>
<polygon fill="midnightblue" stroke="midnightblue" points="425.4,-185.81 434.34,-191.49 430.9,-181.47 425.4,-185.81"/>
</g>
<!-- Node8&#45;&gt;Node3 -->
<g id="edge12" class="edge">
<title>Node8&#45;&gt;Node3</title>
<path fill="none" stroke="midnightblue" d="M316.26,-30.68C319.87,-33.19 323.17,-36.11 326,-39.5 412.44,-142.85 271.85,-240.38 362,-340.5 368.28,-347.48 376.55,-352.17 385.43,-355.28"/>
<polygon fill="midnightblue" stroke="midnightblue" points="384.68,-358.7 395.26,-358.06 386.59,-351.97 384.68,-358.7"/>
</g>
<!-- Node8&#45;&gt;Node4 -->
<g id="edge13" class="edge">
<title>Node8&#45;&gt;Node4</title>
<path fill="none" stroke="midnightblue" d="M315.79,-30.54C319.56,-33.08 323.02,-36.05 326,-39.5 396.43,-121.19 294,-195.77 362,-279.5 363.11,-280.86 364.28,-282.16 365.51,-283.41"/>
<polygon fill="midnightblue" stroke="midnightblue" points="363.25,-286.09 373.13,-289.93 367.81,-280.77 363.25,-286.09"/>
</g>
<!-- Node8&#45;&gt;Node5 -->
<g id="edge14" class="edge">
<title>Node8&#45;&gt;Node5</title>
<path fill="none" stroke="midnightblue" d="M315.64,-30.66C319.45,-33.18 322.96,-36.1 326,-39.5 383.62,-103.86 304.19,-166.31 362,-230.5 364.53,-233.31 367.36,-235.81 370.41,-238.03"/>
<polygon fill="midnightblue" stroke="midnightblue" points="368.58,-241.01 378.93,-243.29 372.26,-235.06 368.58,-241.01"/>
</g>
<!-- Node8&#45;&gt;Node6 -->
<g id="edge15" class="edge">
<title>Node8&#45;&gt;Node6</title>
<path fill="none" stroke="midnightblue" d="M310.56,-30.63C316.02,-33.16 321.26,-36.09 326,-39.5 378.39,-77.16 416.43,-145.04 434.23,-181.59"/>
<polygon fill="midnightblue" stroke="midnightblue" points="431.25,-183.48 438.7,-191.01 437.58,-180.48 431.25,-183.48"/>
</g>
<!-- Node9&#45;&gt;Node3 -->
<g id="edge17" class="edge">
<title>Node9&#45;&gt;Node3</title>
<path fill="none" stroke="midnightblue" d="M310.1,-529.46C315.71,-526.92 321.11,-523.95 326,-520.5 380.13,-482.31 419.82,-411.92 436.63,-378.32"/>
<polygon fill="midnightblue" stroke="midnightblue" points="439.86,-379.67 441.1,-369.14 433.57,-376.6 439.86,-379.67"/>
</g>
<!-- Node9&#45;&gt;Node4 -->
<g id="edge18" class="edge">
<title>Node9&#45;&gt;Node4</title>
<path fill="none" stroke="midnightblue" d="M315.6,-529.3C319.42,-526.79 322.94,-523.88 326,-520.5 380.75,-460.02 308.72,-402.28 362,-340.5 362.75,-339.63 363.54,-338.78 364.34,-337.95"/>
<polygon fill="midnightblue" stroke="midnightblue" points="366.92,-340.35 372.23,-331.18 362.36,-335.04 366.92,-340.35"/>
</g>
<!-- Node9&#45;&gt;Node5 -->
<g id="edge19" class="edge">
<title>Node9&#45;&gt;Node5</title>
<path fill="none" stroke="midnightblue" d="M315.79,-529.46C319.56,-526.92 323.02,-523.95 326,-520.5 396.43,-438.81 291.33,-361.99 362,-280.5 364.4,-277.73 367.1,-275.26 370.01,-273.06"/>
<polygon fill="midnightblue" stroke="midnightblue" points="372.15,-275.84 378.73,-267.54 368.41,-269.93 372.15,-275.84"/>
</g>
<!-- Node9&#45;&gt;Node6 -->
<g id="edge20" class="edge">
<title>Node9&#45;&gt;Node6</title>
<path fill="none" stroke="midnightblue" d="M316.24,-529.31C319.85,-526.8 323.16,-523.88 326,-520.5 409.55,-421.06 277.62,-329.23 362,-230.5 364.37,-227.72 367.05,-225.25 369.94,-223.06"/>
<polygon fill="midnightblue" stroke="midnightblue" points="372.03,-225.89 378.62,-217.59 368.29,-219.97 372.03,-225.89"/>
</g>
<!-- Node10&#45;&gt;Node3 -->
<g id="edge22" class="edge">
<title>Node10&#45;&gt;Node3</title>
<path fill="none" stroke="midnightblue" d="M311.74,-578.49C316.82,-575.95 321.66,-572.97 326,-569.5 390.93,-517.52 426.97,-420.08 439.92,-378.78"/>
<polygon fill="midnightblue" stroke="midnightblue" points="443.29,-379.72 442.84,-369.13 436.59,-377.69 443.29,-379.72"/>
</g>
<!-- Node10&#45;&gt;Node4 -->
<g id="edge23" class="edge">
<title>Node10&#45;&gt;Node4</title>
<path fill="none" stroke="midnightblue" d="M315.76,-578.44C319.54,-575.9 323.01,-572.94 326,-569.5 393.55,-491.71 296.35,-419.9 362,-340.5 362.74,-339.61 363.5,-338.75 364.29,-337.91"/>
<polygon fill="midnightblue" stroke="midnightblue" points="366.89,-340.28 372.06,-331.03 362.25,-335.04 366.89,-340.28"/>
</g>
<!-- Node10&#45;&gt;Node5 -->
<g id="edge24" class="edge">
<title>Node10&#45;&gt;Node5</title>
<path fill="none" stroke="midnightblue" d="M316.24,-578.31C319.85,-575.8 323.16,-572.88 326,-569.5 409.29,-470.42 278.43,-379.34 362,-280.5 364.49,-277.55 367.32,-274.95 370.38,-272.64"/>
<polygon fill="midnightblue" stroke="midnightblue" points="372.4,-275.5 378.99,-267.21 368.67,-269.58 372.4,-275.5"/>
</g>
<!-- Node11&#45;&gt;Node3 -->
<g id="edge26" class="edge">
<title>Node11&#45;&gt;Node3</title>
<path fill="none" stroke="midnightblue" d="M307.44,-480.34C313.89,-477.79 320.2,-474.86 326,-471.5 370.02,-446.01 410.88,-401.45 431.49,-376.92"/>
<polygon fill="midnightblue" stroke="midnightblue" points="434.24,-379.08 437.91,-369.14 428.85,-374.63 434.24,-379.08"/>
</g>
<!-- Node11&#45;&gt;Node4 -->
<g id="edge27" class="edge">
<title>Node11&#45;&gt;Node4</title>
<path fill="none" stroke="midnightblue" d="M314.6,-480.5C318.76,-477.95 322.62,-474.97 326,-471.5 368.08,-428.2 320.97,-384.8 362,-340.5 362.91,-339.51 363.86,-338.56 364.84,-337.64"/>
<polygon fill="midnightblue" stroke="midnightblue" points="367.29,-340.16 372.9,-331.17 362.91,-334.7 367.29,-340.16"/>
</g>
<!-- Node11&#45;&gt;Node5 -->
<g id="edge28" class="edge">
<title>Node11&#45;&gt;Node5</title>
<path fill="none" stroke="midnightblue" d="M315.64,-480.34C319.45,-477.82 322.96,-474.9 326,-471.5 383.62,-407.14 304.19,-344.69 362,-280.5 364.53,-277.69 367.36,-275.19 370.41,-272.97"/>
<polygon fill="midnightblue" stroke="midnightblue" points="372.26,-275.94 378.93,-267.71 368.58,-269.99 372.26,-275.94"/>
</g>
<!-- Node11&#45;&gt;Node6 -->
<g id="edge29" class="edge">
<title>Node11&#45;&gt;Node6</title>
<path fill="none" stroke="midnightblue" d="M315.79,-480.47C319.56,-477.92 323.02,-474.95 326,-471.5 396.69,-389.45 290.62,-311.95 362,-230.5 364.41,-227.75 367.11,-225.31 370.03,-223.14"/>
<polygon fill="midnightblue" stroke="midnightblue" points="372.11,-225.96 378.75,-217.71 368.41,-220.02 372.11,-225.96"/>
</g>
<!-- Node12&#45;&gt;Node3 -->
<g id="edge31" class="edge">
<title>Node12&#45;&gt;Node3</title>
<path fill="none" stroke="midnightblue" d="M301.6,-431.43C309.87,-428.71 318.23,-425.7 326,-422.5 360.07,-408.46 397.34,-387.92 421.05,-374.15"/>
<polygon fill="midnightblue" stroke="midnightblue" points="422.87,-377.13 429.73,-369.05 419.33,-371.09 422.87,-377.13"/>
</g>
<!-- Node12&#45;&gt;Node4 -->
<g id="edge32" class="edge">
<title>Node12&#45;&gt;Node4</title>
<path fill="none" stroke="midnightblue" d="M313.29,-431.34C317.86,-428.83 322.17,-425.91 326,-422.5 355.74,-396.05 332.9,-367.66 362,-340.5 363.28,-339.31 364.61,-338.16 365.98,-337.06"/>
<polygon fill="midnightblue" stroke="midnightblue" points="368.1,-339.85 374.26,-331.24 364.07,-334.12 368.1,-339.85"/>
</g>
<!-- Node12&#45;&gt;Node5 -->
<g id="edge33" class="edge">
<title>Node12&#45;&gt;Node5</title>
<path fill="none" stroke="midnightblue" d="M315.04,-431.34C319.04,-428.83 322.76,-425.9 326,-422.5 370.91,-375.36 316.95,-327.51 362,-280.5 364.48,-277.91 367.22,-275.58 370.15,-273.5"/>
<polygon fill="midnightblue" stroke="midnightblue" points="372.11,-276.4 378.84,-268.22 368.48,-270.42 372.11,-276.4"/>
</g>
<!-- Node12&#45;&gt;Node6 -->
<g id="edge34" class="edge">
<title>Node12&#45;&gt;Node6</title>
<path fill="none" stroke="midnightblue" d="M315.64,-431.34C319.45,-428.82 322.96,-425.9 326,-422.5 383.88,-357.79 303.58,-294.72 362,-230.5 364.46,-227.8 367.2,-225.39 370.15,-223.25"/>
<polygon fill="midnightblue" stroke="midnightblue" points="372.23,-226.08 378.95,-217.88 368.59,-220.1 372.23,-226.08"/>
</g>
<!-- Node13&#45;&gt;Node3 -->
<g id="edge36" class="edge">
<title>Node13&#45;&gt;Node3</title>
<path fill="none" stroke="midnightblue" d="M313.71,-384.79C337.11,-380.3 363.27,-375.28 386.08,-370.9"/>
<polygon fill="midnightblue" stroke="midnightblue" points="386.8,-374.33 395.97,-369.01 385.49,-367.45 386.8,-374.33"/>
</g>
<!-- Node13&#45;&gt;Node4 -->
<g id="edge37" class="edge">
<title>Node13&#45;&gt;Node4</title>
<path fill="none" stroke="midnightblue" d="M306.99,-382.44C313.59,-379.86 320.06,-376.89 326,-373.5 344.84,-362.73 343.42,-351.72 362,-340.5 364.83,-338.79 367.78,-337.15 370.8,-335.59"/>
<polygon fill="midnightblue" stroke="midnightblue" points="372.56,-338.63 380.05,-331.13 369.52,-332.32 372.56,-338.63"/>
</g>
<!-- Node13&#45;&gt;Node5 -->
<g id="edge38" class="edge">
<title>Node13&#45;&gt;Node5</title>
<path fill="none" stroke="midnightblue" d="M313.83,-382.32C318.23,-379.81 322.35,-376.9 326,-373.5 358.46,-343.32 329.46,-310.59 362,-280.5 364.44,-278.24 367.09,-276.18 369.87,-274.31"/>
<polygon fill="midnightblue" stroke="midnightblue" points="371.72,-277.29 378.61,-269.24 368.21,-271.23 371.72,-277.29"/>
</g>
<!-- Node13&#45;&gt;Node6 -->
<g id="edge39" class="edge">
<title>Node13&#45;&gt;Node6</title>
<path fill="none" stroke="midnightblue" d="M313.58,-383.25C318.14,-380.54 322.37,-377.32 326,-373.5 371.17,-326.01 316.43,-277.61 362,-230.5 364.49,-227.93 367.23,-225.63 370.16,-223.57"/>
<polygon fill="midnightblue" stroke="midnightblue" points="372.06,-226.51 378.86,-218.39 368.48,-220.5 372.06,-226.51"/>
</g>
<!-- Node14&#45;&gt;Node3 -->
<g id="edge41" class="edge">
<title>Node14&#45;&gt;Node3</title>
<path fill="none" stroke="midnightblue" d="M323.77,-352.74C344.08,-353.87 365.75,-355.07 385.09,-356.14"/>
<polygon fill="midnightblue" stroke="midnightblue" points="385.09,-359.65 395.27,-356.71 385.48,-352.66 385.09,-359.65"/>
</g>
<!-- Node14&#45;&gt;Node4 -->
<g id="edge42" class="edge">
<title>Node14&#45;&gt;Node4</title>
<path fill="none" stroke="midnightblue" d="M323.77,-333.86C332.89,-332.11 342.28,-330.31 351.61,-328.52"/>
<polygon fill="midnightblue" stroke="midnightblue" points="352.54,-331.91 361.7,-326.58 351.22,-325.03 352.54,-331.91"/>
</g>
<!-- Node14&#45;&gt;Node5 -->
<g id="edge43" class="edge">
<title>Node14&#45;&gt;Node5</title>
<path fill="none" stroke="midnightblue" d="M307.47,-333.38C313.98,-330.6 320.3,-327.33 326,-323.5 346.7,-309.61 341.18,-294.21 362,-280.5 365.09,-278.47 368.35,-276.59 371.72,-274.87"/>
<polygon fill="midnightblue" stroke="midnightblue" points="373.25,-278.02 380.86,-270.64 370.31,-271.66 373.25,-278.02"/>
</g>
<!-- Node14&#45;&gt;Node6 -->
<g id="edge44" class="edge">
<title>Node14&#45;&gt;Node6</title>
<path fill="none" stroke="midnightblue" d="M312.33,-333.3C317.29,-330.56 321.94,-327.32 326,-323.5 358.28,-293.13 329.29,-260.41 362,-230.5 364.45,-228.26 367.09,-226.23 369.88,-224.39"/>
<polygon fill="midnightblue" stroke="midnightblue" points="371.67,-227.39 378.63,-219.4 368.21,-221.31 371.67,-227.39"/>
</g>
<!-- Node15&#45;&gt;Node3 -->
<g id="edge46" class="edge">
<title>Node15&#45;&gt;Node3</title>
<path fill="none" stroke="midnightblue" d="M297.62,-314.55C307.11,-317.66 316.91,-321.04 326,-324.5 342.37,-330.72 345.39,-334.98 362,-340.5 369.72,-343.07 377.96,-345.41 386.14,-347.5"/>
<polygon fill="midnightblue" stroke="midnightblue" points="385.51,-350.94 396.05,-349.92 387.17,-344.14 385.51,-350.94"/>
</g>
<!-- Node15&#45;&gt;Node4 -->
<g id="edge47" class="edge">
<title>Node15&#45;&gt;Node4</title>
<path fill="none" stroke="midnightblue" d="M317.03,-303.36C328.23,-303.99 339.99,-304.64 351.65,-305.29"/>
<polygon fill="midnightblue" stroke="midnightblue" points="351.68,-308.79 361.86,-305.85 352.07,-301.8 351.68,-308.79"/>
</g>
<!-- Node15&#45;&gt;Node5 -->
<g id="edge48" class="edge">
<title>Node15&#45;&gt;Node5</title>
<path fill="none" stroke="midnightblue" d="M315.09,-284.48C332.48,-280.62 351.31,-276.43 369.12,-272.47"/>
<polygon fill="midnightblue" stroke="midnightblue" points="369.89,-275.89 378.89,-270.3 368.37,-269.06 369.89,-275.89"/>
</g>
<!-- Node15&#45;&gt;Node6 -->
<g id="edge49" class="edge">
<title>Node15&#45;&gt;Node6</title>
<path fill="none" stroke="midnightblue" d="M307.51,-284.45C314.01,-281.65 320.32,-278.36 326,-274.5 346.9,-260.3 340.9,-244.4 362,-230.5 364.42,-228.91 366.95,-227.41 369.55,-226.02"/>
<polygon fill="midnightblue" stroke="midnightblue" points="371.16,-229.13 378.67,-221.65 368.14,-222.82 371.16,-229.13"/>
</g>
<!-- Node16&#45;&gt;Node3 -->
<g id="edge51" class="edge">
<title>Node16&#45;&gt;Node3</title>
<path fill="none" stroke="midnightblue" d="M312.19,-265.63C317.12,-268.14 321.8,-271.08 326,-274.5 351.9,-295.62 335.35,-320.34 362,-340.5 368.98,-345.78 377.16,-349.63 385.63,-352.44"/>
<polygon fill="midnightblue" stroke="midnightblue" points="384.68,-355.81 395.25,-355.19 386.6,-349.08 384.68,-355.81"/>
</g>
<!-- Node16&#45;&gt;Node4 -->
<g id="edge52" class="edge">
<title>Node16&#45;&gt;Node4</title>
<path fill="none" stroke="midnightblue" d="M297.21,-265.56C318.65,-272.06 344.24,-279.82 368.08,-287.04"/>
<polygon fill="midnightblue" stroke="midnightblue" points="367.23,-290.44 377.81,-289.99 369.26,-283.74 367.23,-290.44"/>
</g>
<!-- Node16&#45;&gt;Node5 -->
<g id="edge53" class="edge">
<title>Node16&#45;&gt;Node5</title>
<path fill="none" stroke="midnightblue" d="M312.06,-252.13C330.23,-252.59 350.18,-253.09 368.98,-253.57"/>
<polygon fill="midnightblue" stroke="midnightblue" points="368.91,-257.07 378.99,-253.82 369.08,-250.07 368.91,-257.07"/>
</g>
<!-- Node16&#45;&gt;Node6 -->
<g id="edge54" class="edge">
<title>Node16&#45;&gt;Node6</title>
<path fill="none" stroke="midnightblue" d="M312.06,-236.15C330.23,-232.11 350.18,-227.68 368.98,-223.5"/>
<polygon fill="midnightblue" stroke="midnightblue" points="369.99,-226.87 378.99,-221.28 368.47,-220.03 369.99,-226.87"/>
</g>
<!-- Node17&#45;&gt;Node3 -->
<g id="edge56" class="edge">
<title>Node17&#45;&gt;Node3</title>
<path fill="none" stroke="midnightblue" d="M312.1,-216.07C317.17,-218.57 321.91,-221.67 326,-225.5 365.1,-262.1 322.65,-304.17 362,-340.5 368.74,-346.72 377.08,-351.05 385.85,-354.03"/>
<polygon fill="midnightblue" stroke="midnightblue" points="384.92,-357.4 395.5,-356.77 386.83,-350.67 384.92,-357.4"/>
</g>
<!-- Node17&#45;&gt;Node4 -->
<g id="edge57" class="edge">
<title>Node17&#45;&gt;Node4</title>
<path fill="none" stroke="midnightblue" d="M307.83,-216.11C314.28,-218.57 320.48,-221.64 326,-225.5 349.64,-242.03 339.38,-261.61 362,-279.5 364.41,-281.4 366.95,-283.2 369.58,-284.89"/>
<polygon fill="midnightblue" stroke="midnightblue" points="367.86,-287.94 378.26,-289.95 371.38,-281.89 367.86,-287.94"/>
</g>
<!-- Node17&#45;&gt;Node5 -->
<g id="edge58" class="edge">
<title>Node17&#45;&gt;Node5</title>
<path fill="none" stroke="midnightblue" d="M287.05,-216C299.52,-219.02 313.34,-222.38 326,-225.5 342.17,-229.49 359.55,-233.82 375.92,-237.93"/>
<polygon fill="midnightblue" stroke="midnightblue" points="375.41,-241.41 385.96,-240.45 377.11,-234.62 375.41,-241.41"/>
</g>
<!-- Node17&#45;&gt;Node6 -->
<g id="edge59" class="edge">
<title>Node17&#45;&gt;Node6</title>
<path fill="none" stroke="midnightblue" d="M315.64,-206.5C332.75,-206.5 351.23,-206.5 368.73,-206.5"/>
<polygon fill="midnightblue" stroke="midnightblue" points="368.91,-210 378.91,-206.5 368.91,-203 368.91,-210"/>
</g>
<!-- Node18&#45;&gt;Node3 -->
<g id="edge61" class="edge">
<title>Node18&#45;&gt;Node3</title>
<path fill="none" stroke="midnightblue" d="M310.28,-175.62C316.13,-178.77 321.53,-182.67 326,-187.5 373.45,-238.77 312.42,-291.29 362,-340.5 368.51,-346.96 376.73,-351.41 385.46,-354.45"/>
<polygon fill="midnightblue" stroke="midnightblue" points="384.5,-357.81 395.07,-357.21 386.43,-351.08 384.5,-357.81"/>
</g>
<!-- Node18&#45;&gt;Node4 -->
<g id="edge62" class="edge">
<title>Node18&#45;&gt;Node4</title>
<path fill="none" stroke="midnightblue" d="M310.01,-176.48C315.83,-179.47 321.3,-183.1 326,-187.5 358.04,-217.53 330.68,-248.73 362,-279.5 363.61,-281.09 365.31,-282.59 367.09,-284.02"/>
<polygon fill="midnightblue" stroke="midnightblue" points="365.1,-286.9 375.29,-289.81 369.14,-281.18 365.1,-286.9"/>
</g>
<!-- Node18&#45;&gt;Node5 -->
<g id="edge63" class="edge">
<title>Node18&#45;&gt;Node5</title>
<path fill="none" stroke="midnightblue" d="M307.47,-177.62C313.98,-180.4 320.3,-183.67 326,-187.5 346.7,-201.39 341.18,-216.79 362,-230.5 365.09,-232.53 368.35,-234.41 371.72,-236.13"/>
<polygon fill="midnightblue" stroke="midnightblue" points="370.31,-239.34 380.86,-240.36 373.25,-232.98 370.31,-239.34"/>
</g>
<!-- Node18&#45;&gt;Node6 -->
<g id="edge64" class="edge">
<title>Node18&#45;&gt;Node6</title>
<path fill="none" stroke="midnightblue" d="M310.15,-176.42C328.77,-180.56 349.38,-185.14 368.79,-189.45"/>
<polygon fill="midnightblue" stroke="midnightblue" points="368.29,-192.93 378.81,-191.68 369.81,-186.09 368.29,-192.93"/>
</g>
</g>
</svg>
        <g id="navigator" transform="translate(0 0)" fill="#404254">
                <rect fill="#f2f5e9" fill-opacity="0.5" stroke="#606060" stroke-width=".5" x="0" y="0" width="60" height="60"/>
                <use id="zoomplus" xlink:href="#zoomPlus" x="17" y="9" onmousedown="handleZoom(evt,'in')"/>
                <use id="zoomminus" xlink:href="#zoomMin" x="42" y="9" onmousedown="handleZoom(evt,'out')"/>
                <use id="reset" xlink:href="#resetDef" x="30" y="36" onmousedown="handleReset()"/>
                <g id="arrowUp" xlink:href="#dirArrow" transform="translate(30 24)" onmousedown="handlePan(0,-1)">
                  <use xlink:href="#rim" fill="#404040">
                        <set attributeName="fill" to="#808080" begin="arrowUp.mouseover" end="arrowUp.mouseout"/>
                  </use>
                  <path fill="none" stroke="white" stroke-width="1.5" d="M0,-3.0v7 M-2.5,-0.5L0,-3.0L2.5,-0.5"/>
                </g>
                <g id="arrowRight" xlink:href="#dirArrow" transform="rotate(90) translate(36 -43)" onmousedown="handlePan(1,0)">
                  <use xlink:href="#rim" fill="#404040">
                        <set attributeName="fill" to="#808080" begin="arrowRight.mouseover" end="arrowRight.mouseout"/>
                  </use>
                  <path fill="none" stroke="white" stroke-width="1.5" d="M0,-3.0v7 M-2.5,-0.5L0,-3.0L2.5,-0.5"/>
                </g>
                <g id="arrowDown" xlink:href="#dirArrow" transform="rotate(180) translate(-30 -48)" onmousedown="handlePan(0,1)">
                  <use xlink:href="#rim" fill="#404040">
                        <set attributeName="fill" to="#808080" begin="arrowDown.mouseover" end="arrowDown.mouseout"/>
                  </use>
                  <path fill="none" stroke="white" stroke-width="1.5" d="M0,-3.0v7 M-2.5,-0.5L0,-3.0L2.5,-0.5"/>
                </g>
                <g id="arrowLeft" xlink:href="#dirArrow" transform="rotate(270) translate(-36 17)" onmousedown="handlePan(-1,0)">
                  <use xlink:href="#rim" fill="#404040">
                        <set attributeName="fill" to="#808080" begin="arrowLeft.mouseover" end="arrowLeft.mouseout"/>
                  </use>
                  <path fill="none" stroke="white" stroke-width="1.5" d="M0,-3.0v7 M-2.5,-0.5L0,-3.0L2.5,-0.5"/>
                </g>
        </g>
        <svg viewBox="0 0 15 15" width="100%" height="30px" preserveAspectRatio="xMaxYMin meet">
         <g id="arrow_out" transform="scale(0.3 0.3)">
          <a xlink:href="classSlothSolver_aa9c78d816c02f2d4ab70af64cb3f7791_cgraph_org.svg" target="_base">
           <rect id="button" ry="5" rx="5" y="6" x="6" height="38" width="38"
                fill="#f2f5e9" fill-opacity="0.5" stroke="#606060" stroke-width="1.0"/>
           <path id="arrow"
             d="M 11.500037,31.436501 C 11.940474,20.09759 22.043105,11.32322 32.158766,21.979434 L 37.068811,17.246167 C 37.068811,17.246167 37.088388,32 37.088388,32 L 22.160133,31.978069 C 22.160133,31.978069 26.997745,27.140456 26.997745,27.140456 C 18.528582,18.264221 13.291696,25.230495 11.500037,31.436501 z"
             style="fill:#404040;"/>
          </a>
         </g>
        </svg>
</svg>
