<?xml version="1.0" encoding="UTF-8" standalone="no"?>
<!DOCTYPE svg PUBLIC "-//W3C//DTD SVG 1.1//EN"
 "http://www.w3.org/Graphics/SVG/1.1/DTD/svg11.dtd">
<!-- Generated by graphviz version 2.43.0 (0)
 -->
<!-- Title: SlothSolver::get_value Pages: 1 -->
<svg width="539pt" height="715pt"
 viewBox="0.00 0.00 539.00 715.00" xmlns="http://www.w3.org/2000/svg" xmlns:xlink="http://www.w3.org/1999/xlink">
<g id="graph0" class="graph" transform="scale(1 1) rotate(0) translate(4 711)">
<title>SlothSolver::get_value</title>
<!-- Node1 -->
<g id="node1" class="node">
<title>Node1</title>
<g id="a_node1"><a xlink:title="Create the linear solver depending on SolverType.">
<polygon fill="#bfbfbf" stroke="black" points="0,-339 0,-358 131,-358 131,-339 0,-339"/>
<text text-anchor="middle" x="65.5" y="-346" font-family="serif" font-size="10.00">SlothSolver::get_value</text>
</a>
</g>
</g>
<!-- Node2 -->
<g id="node2" class="node">
<title>Node2</title>
<g id="a_node2"><a xlink:href="classSolverUMFPACK.html#a83fe21379896c4df62b1df2947767d2e" target="_top" xlink:title="Create a direct solver based of the SolverType and a list of Parameters.">
<polygon fill="none" stroke="black" points="176.5,-480.5 176.5,-510.5 316.5,-510.5 316.5,-480.5 176.5,-480.5"/>
<text text-anchor="start" x="184.5" y="-498.5" font-family="serif" font-size="10.00">SolverUMFPACK::create</text>
<text text-anchor="middle" x="246.5" y="-487.5" font-family="serif" font-size="10.00">_solver</text>
</a>
</g>
</g>
<!-- Node1&#45;&gt;Node2 -->
<g id="edge1" class="edge">
<title>Node1&#45;&gt;Node2</title>
<path fill="none" stroke="midnightblue" d="M71.66,-358.12C84.56,-381.24 120.52,-440.3 167,-471.5 169.38,-473.1 171.88,-474.6 174.46,-476"/>
<polygon fill="midnightblue" stroke="midnightblue" points="172.94,-479.16 183.47,-480.4 176.02,-472.87 172.94,-479.16"/>
</g>
<!-- Node8 -->
<g id="node8" class="node">
<title>Node8</title>
<g id="a_node8"><a xlink:href="classPrecondHypreILU.html#a7e7defa37401cea9cac7183a5994b13b" target="_top" xlink:title="Create preconditioner based of the PreconditionerType and a list of Parameters.">
<polygon fill="none" stroke="black" points="173.5,-431.5 173.5,-461.5 319.5,-461.5 319.5,-431.5 173.5,-431.5"/>
<text text-anchor="start" x="181.5" y="-449.5" font-family="serif" font-size="10.00">PrecondHypreILU::create</text>
<text text-anchor="middle" x="246.5" y="-438.5" font-family="serif" font-size="10.00">_solver</text>
</a>
</g>
</g>
<!-- Node1&#45;&gt;Node8 -->
<g id="edge7" class="edge">
<title>Node1&#45;&gt;Node8</title>
<path fill="none" stroke="midnightblue" d="M77.19,-358.08C94.77,-373.39 131.4,-403.49 167,-421.5 171.51,-423.78 176.27,-425.91 181.13,-427.88"/>
<polygon fill="midnightblue" stroke="midnightblue" points="179.96,-431.18 190.55,-431.49 182.46,-424.64 179.96,-431.18"/>
</g>
<!-- Node9 -->
<g id="node9" class="node">
<title>Node9</title>
<g id="a_node9"><a xlink:href="classPrecondHypreSmoother.html#aadca5acda7af3396285f385654c24a1b" target="_top" xlink:title="Create preconditioner based of the PreconditionerType and a list of Parameters.">
<polygon fill="none" stroke="black" points="176.5,-578.5 176.5,-608.5 316.5,-608.5 316.5,-578.5 176.5,-578.5"/>
<text text-anchor="start" x="184.5" y="-596.5" font-family="serif" font-size="10.00">PrecondHypreSmoother</text>
<text text-anchor="middle" x="246.5" y="-585.5" font-family="serif" font-size="10.00">::create_solver</text>
</a>
</g>
</g>
<!-- Node1&#45;&gt;Node9 -->
<g id="edge13" class="edge">
<title>Node1&#45;&gt;Node9</title>
<path fill="none" stroke="midnightblue" d="M68,-358.12C73.84,-392.32 98.26,-509.17 167,-569.5 168.49,-570.8 170.04,-572.04 171.65,-573.2"/>
<polygon fill="midnightblue" stroke="midnightblue" points="169.81,-576.18 180.15,-578.5 173.51,-570.24 169.81,-576.18"/>
</g>
<!-- Node10 -->
<g id="node10" class="node">
<title>Node10</title>
<g id="a_node10"><a xlink:href="classPrecondHypreBoomerAMG.html#a9274064ab381792bf2f034344d2d621d" target="_top" xlink:title="Create preconditioner based of the PreconditionerType and a list of Parameters.">
<polygon fill="none" stroke="black" points="168,-382.5 168,-412.5 325,-412.5 325,-382.5 168,-382.5"/>
<text text-anchor="start" x="176" y="-400.5" font-family="serif" font-size="10.00">PrecondHypreBoomerAMG</text>
<text text-anchor="middle" x="246.5" y="-389.5" font-family="serif" font-size="10.00">::create_solver</text>
</a>
</g>
</g>
<!-- Node1&#45;&gt;Node10 -->
<g id="edge18" class="edge">
<title>Node1&#45;&gt;Node10</title>
<path fill="none" stroke="midnightblue" d="M101.44,-358.06C124,-364.24 154.05,-372.46 180.86,-379.8"/>
<polygon fill="midnightblue" stroke="midnightblue" points="180,-383.2 190.57,-382.46 181.85,-376.45 180,-383.2"/>
</g>
<!-- Node11 -->
<g id="node11" class="node">
<title>Node11</title>
<g id="a_node11"><a xlink:href="classPrecondHypreDiagScale.html#addd6474561b2dc1caef97fbf187bae91" target="_top" xlink:title="Create preconditioner based of the PreconditionerType and a list of Parameters.">
<polygon fill="none" stroke="black" points="175.5,-676.5 175.5,-706.5 317.5,-706.5 317.5,-676.5 175.5,-676.5"/>
<text text-anchor="start" x="183.5" y="-694.5" font-family="serif" font-size="10.00">PrecondHypreDiagScale</text>
<text text-anchor="middle" x="246.5" y="-683.5" font-family="serif" font-size="10.00">::create_solver</text>
</a>
</g>
</g>
<!-- Node1&#45;&gt;Node11 -->
<g id="edge24" class="edge">
<title>Node1&#45;&gt;Node11</title>
<path fill="none" stroke="midnightblue" d="M66.49,-358.2C67,-401.15 74.85,-576.13 167,-667.5 168.08,-668.57 169.2,-669.59 170.36,-670.56"/>
<polygon fill="midnightblue" stroke="midnightblue" points="168.36,-673.44 178.55,-676.35 172.41,-667.72 168.36,-673.44"/>
</g>
<!-- Node12 -->
<g id="node12" class="node">
<title>Node12</title>
<g id="a_node12"><a xlink:href="classSolverHyprePCG.html#af4a480332bac2a5014c3e2a84f3403ba" target="_top" xlink:title="Create a iterative solver based of the SolverType and a list of Parameters.">
<polygon fill="none" stroke="black" points="176,-333.5 176,-363.5 317,-363.5 317,-333.5 176,-333.5"/>
<text text-anchor="start" x="184" y="-351.5" font-family="serif" font-size="10.00">SolverHyprePCG::create</text>
<text text-anchor="middle" x="246.5" y="-340.5" font-family="serif" font-size="10.00">_solver</text>
</a>
</g>
</g>
<!-- Node1&#45;&gt;Node12 -->
<g id="edge28" class="edge">
<title>Node1&#45;&gt;Node12</title>
<path fill="none" stroke="midnightblue" d="M131.12,-348.5C142.35,-348.5 154.15,-348.5 165.73,-348.5"/>
<polygon fill="midnightblue" stroke="midnightblue" points="165.83,-352 175.83,-348.5 165.83,-345 165.83,-352"/>
</g>
<!-- Node13 -->
<g id="node13" class="node">
<title>Node13</title>
<g id="a_node13"><a xlink:href="classSolverHypreGMRES.html#a94293cedbdd903adcd5866ce3554ef10" target="_top" xlink:title="Create a iterative solver based of the SolverType and a list of Parameters.">
<polygon fill="none" stroke="black" points="167,-284.5 167,-314.5 326,-314.5 326,-284.5 167,-284.5"/>
<text text-anchor="start" x="175" y="-302.5" font-family="serif" font-size="10.00">SolverHypreGMRES::create</text>
<text text-anchor="middle" x="246.5" y="-291.5" font-family="serif" font-size="10.00">_solver</text>
</a>
</g>
</g>
<!-- Node1&#45;&gt;Node13 -->
<g id="edge34" class="edge">
<title>Node1&#45;&gt;Node13</title>
<path fill="none" stroke="midnightblue" d="M101.44,-338.94C124,-332.76 154.05,-324.54 180.86,-317.2"/>
<polygon fill="midnightblue" stroke="midnightblue" points="181.85,-320.55 190.57,-314.54 180,-313.8 181.85,-320.55"/>
</g>
<!-- Node14 -->
<g id="node14" class="node">
<title>Node14</title>
<g id="a_node14"><a xlink:href="classSolverHypreFGMRES.html#a54588ca870f9439ec8f4bccd7d8615a8" target="_top" xlink:title="Create a iterative solver based of the SolverType and a list of Parameters.">
<polygon fill="none" stroke="black" points="179.5,-235.5 179.5,-265.5 313.5,-265.5 313.5,-235.5 179.5,-235.5"/>
<text text-anchor="start" x="187.5" y="-253.5" font-family="serif" font-size="10.00">SolverHypreFGMRES::</text>
<text text-anchor="middle" x="246.5" y="-242.5" font-family="serif" font-size="10.00">create_solver</text>
</a>
</g>
</g>
<!-- Node1&#45;&gt;Node14 -->
<g id="edge40" class="edge">
<title>Node1&#45;&gt;Node14</title>
<path fill="none" stroke="midnightblue" d="M76.86,-338.99C94.25,-323.46 130.99,-292.6 167,-274.5 170.72,-272.63 174.62,-270.87 178.61,-269.23"/>
<polygon fill="midnightblue" stroke="midnightblue" points="179.95,-272.46 188.01,-265.59 177.43,-265.93 179.95,-272.46"/>
</g>
<!-- Node15 -->
<g id="node15" class="node">
<title>Node15</title>
<g id="a_node15"><a xlink:href="classPrecondDSmoother.html#a286f01fb24a1d08cc00950b04e9e0bfc" target="_top" xlink:title="Create preconditioner based of the PreconditionerType and a list of Parameters.">
<polygon fill="none" stroke="black" points="169.5,-627.5 169.5,-657.5 323.5,-657.5 323.5,-627.5 169.5,-627.5"/>
<text text-anchor="start" x="177.5" y="-645.5" font-family="serif" font-size="10.00">PrecondDSmoother::create</text>
<text text-anchor="middle" x="246.5" y="-634.5" font-family="serif" font-size="10.00">_solver</text>
</a>
</g>
</g>
<!-- Node1&#45;&gt;Node15 -->
<g id="edge46" class="edge">
<title>Node1&#45;&gt;Node15</title>
<path fill="none" stroke="midnightblue" d="M67.11,-358.01C70.1,-396.56 86.54,-542.7 167,-618.5 168.13,-619.57 169.32,-620.59 170.54,-621.57"/>
<polygon fill="midnightblue" stroke="midnightblue" points="168.87,-624.67 179.12,-627.37 172.8,-618.87 168.87,-624.67"/>
</g>
<!-- Node16 -->
<g id="node16" class="node">
<title>Node16</title>
<g id="a_node16"><a xlink:href="classSolverBICGSTAB.html#a088138ab2b4e2295192b98abd8e4eefc" target="_top" xlink:title="Create a iterative solver based of the SolverType and a list of Parameters.">
<polygon fill="none" stroke="black" points="176,-186.5 176,-216.5 317,-216.5 317,-186.5 176,-186.5"/>
<text text-anchor="start" x="184" y="-204.5" font-family="serif" font-size="10.00">SolverBICGSTAB::create</text>
<text text-anchor="middle" x="246.5" y="-193.5" font-family="serif" font-size="10.00">_solver</text>
</a>
</g>
</g>
<!-- Node1&#45;&gt;Node16 -->
<g id="edge51" class="edge">
<title>Node1&#45;&gt;Node16</title>
<path fill="none" stroke="midnightblue" d="M71.66,-338.88C84.56,-315.76 120.52,-256.7 167,-225.5 169.38,-223.9 171.88,-222.4 174.46,-221"/>
<polygon fill="midnightblue" stroke="midnightblue" points="176.02,-224.13 183.47,-216.6 172.94,-217.84 176.02,-224.13"/>
</g>
<!-- Node17 -->
<g id="node17" class="node">
<title>Node17</title>
<g id="a_node17"><a xlink:href="classSolverMINRES.html#ace4d6324acb77a33354204e692a2463f" target="_top" xlink:title=" ">
<polygon fill="none" stroke="black" points="181,-137.5 181,-167.5 312,-167.5 312,-137.5 181,-137.5"/>
<text text-anchor="start" x="189" y="-155.5" font-family="serif" font-size="10.00">SolverMINRES::create</text>
<text text-anchor="middle" x="246.5" y="-144.5" font-family="serif" font-size="10.00">_solver</text>
</a>
</g>
</g>
<!-- Node1&#45;&gt;Node17 -->
<g id="edge57" class="edge">
<title>Node1&#45;&gt;Node17</title>
<path fill="none" stroke="midnightblue" d="M69.42,-338.62C78.61,-309.26 109.77,-221.78 167,-176.5 168.77,-175.1 170.62,-173.78 172.54,-172.54"/>
<polygon fill="midnightblue" stroke="midnightblue" points="174.33,-175.54 181.31,-167.57 170.88,-169.45 174.33,-175.54"/>
</g>
<!-- Node18 -->
<g id="node18" class="node">
<title>Node18</title>
<g id="a_node18"><a xlink:href="classSolverCG.html#a22bb7e38585bc24764881aa0f5aa200c" target="_top" xlink:title=" ">
<polygon fill="none" stroke="black" points="177.5,-99 177.5,-118 315.5,-118 315.5,-99 177.5,-99"/>
<text text-anchor="middle" x="246.5" y="-106" font-family="serif" font-size="10.00">SolverCG::create_solver</text>
</a>
</g>
</g>
<!-- Node1&#45;&gt;Node18 -->
<g id="edge63" class="edge">
<title>Node1&#45;&gt;Node18</title>
<path fill="none" stroke="midnightblue" d="M67.88,-338.73C73.31,-304.05 96.5,-185.77 167,-127.5 169.03,-125.82 171.19,-124.28 173.45,-122.88"/>
<polygon fill="midnightblue" stroke="midnightblue" points="175.33,-125.84 182.55,-118.09 172.07,-119.65 175.33,-125.84"/>
</g>
<!-- Node19 -->
<g id="node19" class="node">
<title>Node19</title>
<g id="a_node19"><a xlink:href="classSolverGMRES.html#aea5f0ae2948f5e66d2ef5d508ce61f68" target="_top" xlink:title=" ">
<polygon fill="none" stroke="black" points="183,-529.5 183,-559.5 310,-559.5 310,-529.5 183,-529.5"/>
<text text-anchor="start" x="191" y="-547.5" font-family="serif" font-size="10.00">SolverGMRES::create</text>
<text text-anchor="middle" x="246.5" y="-536.5" font-family="serif" font-size="10.00">_solver</text>
</a>
</g>
</g>
<!-- Node1&#45;&gt;Node19 -->
<g id="edge69" class="edge">
<title>Node1&#45;&gt;Node19</title>
<path fill="none" stroke="midnightblue" d="M69.42,-358.38C78.61,-387.74 109.77,-475.22 167,-520.5 169.1,-522.16 171.32,-523.71 173.62,-525.15"/>
<polygon fill="midnightblue" stroke="midnightblue" points="172.43,-528.49 182.88,-530.2 175.78,-522.34 172.43,-528.49"/>
</g>
<!-- Node20 -->
<g id="node20" class="node">
<title>Node20</title>
<g id="a_node20"><a xlink:href="classSolverNewton.html#ac34b1de15feb99f5539ab9007cf37800" target="_top" xlink:title="Create non linear solver based of the NLSolverType and a list of Parameters.">
<polygon fill="none" stroke="black" points="183.5,-0.5 183.5,-30.5 309.5,-30.5 309.5,-0.5 183.5,-0.5"/>
<text text-anchor="start" x="191.5" y="-18.5" font-family="serif" font-size="10.00">SolverNewton::create</text>
<text text-anchor="middle" x="246.5" y="-7.5" font-family="serif" font-size="10.00">_solver</text>
</a>
</g>
</g>
<!-- Node1&#45;&gt;Node20 -->
<g id="edge75" class="edge">
<title>Node1&#45;&gt;Node20</title>
<path fill="none" stroke="midnightblue" d="M66.61,-338.81C67.6,-296.7 77.26,-127.66 167,-39.5 169.27,-37.27 171.73,-35.25 174.34,-33.42"/>
<polygon fill="midnightblue" stroke="midnightblue" points="176.34,-36.31 183.13,-28.18 172.75,-30.3 176.34,-36.31"/>
</g>
<!-- Node21 -->
<g id="node21" class="node">
<title>Node21</title>
<g id="a_node21"><a xlink:href="classSolverLBFGS.html#a507c2bb2c75c19d0304b42dc8f9159de" target="_top" xlink:title="Create non linear solver based of the NLSolverType and a list of Parameters.">
<polygon fill="none" stroke="black" points="185.5,-49.5 185.5,-79.5 307.5,-79.5 307.5,-49.5 185.5,-49.5"/>
<text text-anchor="start" x="193.5" y="-67.5" font-family="serif" font-size="10.00">SolverLBFGS::create</text>
<text text-anchor="middle" x="246.5" y="-56.5" font-family="serif" font-size="10.00">_solver</text>
</a>
</g>
</g>
<!-- Node1&#45;&gt;Node21 -->
<g id="edge79" class="edge">
<title>Node1&#45;&gt;Node21</title>
<path fill="none" stroke="midnightblue" d="M67.32,-338.89C71.03,-301.22 89.69,-162.18 167,-89.5 169.91,-86.77 173.11,-84.33 176.52,-82.17"/>
<polygon fill="midnightblue" stroke="midnightblue" points="178.26,-85.2 185.33,-77.31 174.88,-79.07 178.26,-85.2"/>
</g>
<!-- Node3 -->
<g id="node3" class="node">
<title>Node3</title>
<g id="a_node3"><a xlink:href="classSlothInfo.html#a854d3cafdb9f5a77f1063a27d2a27e04" target="_top" xlink:title="Print information on Debug mode.">
<polygon fill="none" stroke="black" points="395.5,-385 395.5,-404 497.5,-404 497.5,-385 395.5,-385"/>
<text text-anchor="middle" x="446.5" y="-392" font-family="serif" font-size="10.00">SlothInfo::debug</text>
</a>
</g>
</g>
<!-- Node2&#45;&gt;Node3 -->
<g id="edge2" class="edge">
<title>Node2&#45;&gt;Node3</title>
<path fill="none" stroke="midnightblue" d="M311.6,-480.31C316.71,-477.8 321.6,-474.89 326,-471.5 350.04,-452.99 337.3,-431.12 362,-413.5 368.96,-408.54 377.01,-404.84 385.3,-402.1"/>
<polygon fill="midnightblue" stroke="midnightblue" points="386.44,-405.41 395.1,-399.3 384.52,-398.68 386.44,-405.41"/>
</g>
<!-- Node4 -->
<g id="node4" class="node">
<title>Node4</title>
<g id="a_node4"><a xlink:href="classSolverBase.html#a52edc30e08c2552f8ceb3d9ea928b059" target="_top" xlink:title=" ">
<polygon fill="none" stroke="black" points="362,-423 362,-464 531,-464 531,-423 362,-423"/>
<text text-anchor="start" x="370" y="-452" font-family="serif" font-size="10.00">SolverBase&lt; mfem::UMFPack</text>
<text text-anchor="start" x="370" y="-441" font-family="serif" font-size="10.00">Solver, DirectSolverType</text>
<text text-anchor="middle" x="446.5" y="-430" font-family="serif" font-size="10.00"> &gt;::get_description</text>
</a>
</g>
</g>
<!-- Node2&#45;&gt;Node4 -->
<g id="edge3" class="edge">
<title>Node2&#45;&gt;Node4</title>
<path fill="none" stroke="midnightblue" d="M304.77,-480.46C321.25,-476.13 339.62,-471.31 357.5,-466.61"/>
<polygon fill="midnightblue" stroke="midnightblue" points="358.58,-469.95 367.37,-464.02 356.81,-463.17 358.58,-469.95"/>
</g>
<!-- Node5 -->
<g id="node5" class="node">
<title>Node5</title>
<g id="a_node5"><a xlink:href="classParameters.html#ae3b314c5ebc3fde8684b0634b2406da6" target="_top" xlink:title=" ">
<polygon fill="none" stroke="black" points="379,-333.5 379,-363.5 514,-363.5 514,-333.5 379,-333.5"/>
<text text-anchor="start" x="387" y="-351.5" font-family="serif" font-size="10.00">Parameters::get_param</text>
<text text-anchor="middle" x="446.5" y="-340.5" font-family="serif" font-size="10.00">_value</text>
</a>
</g>
</g>
<!-- Node2&#45;&gt;Node5 -->
<g id="edge4" class="edge">
<title>Node2&#45;&gt;Node5</title>
<path fill="none" stroke="midnightblue" d="M313.87,-480.36C318.26,-477.85 322.37,-474.92 326,-471.5 359.21,-440.29 329.05,-406.97 362,-375.5 364.56,-373.06 367.34,-370.84 370.28,-368.82"/>
<polygon fill="midnightblue" stroke="midnightblue" points="372.15,-371.78 378.94,-363.64 368.56,-365.77 372.15,-371.78"/>
</g>
<!-- Node6 -->
<g id="node6" class="node">
<title>Node6</title>
<g id="a_node6"><a xlink:href="classParameters.html#a857c53fbe60d7bd2f91e91626f85b6d2" target="_top" xlink:title=" ">
<polygon fill="none" stroke="black" points="379,-284.5 379,-314.5 514,-314.5 514,-284.5 379,-284.5"/>
<text text-anchor="start" x="387" y="-302.5" font-family="serif" font-size="10.00">Parameters::get_param</text>
<text text-anchor="middle" x="446.5" y="-291.5" font-family="serif" font-size="10.00">_value_or_default</text>
</a>
</g>
</g>
<!-- Node2&#45;&gt;Node6 -->
<g id="edge5" class="edge">
<title>Node2&#45;&gt;Node6</title>
<path fill="none" stroke="midnightblue" d="M315.08,-480.38C319.07,-477.86 322.77,-474.92 326,-471.5 372.46,-422.26 315.13,-372.35 362,-323.5 364.48,-320.92 367.21,-318.61 370.14,-316.54"/>
<polygon fill="midnightblue" stroke="midnightblue" points="372.03,-319.49 378.82,-311.35 368.44,-313.48 372.03,-319.49"/>
</g>
<!-- Node7 -->
<g id="node7" class="node">
<title>Node7</title>
<g id="a_node7"><a xlink:href="UtilsForData_8hpp.html#a624f01f99bc5aadf3d7c3b7c8c7c4ac7" target="_top" xlink:title="Check the level of verbosity.">
<polygon fill="none" stroke="black" points="396,-244 396,-263 497,-263 497,-244 396,-244"/>
<text text-anchor="middle" x="446.5" y="-251" font-family="serif" font-size="10.00">verbose_at_least</text>
</a>
</g>
</g>
<!-- Node2&#45;&gt;Node7 -->
<g id="edge6" class="edge">
<title>Node2&#45;&gt;Node7</title>
<path fill="none" stroke="midnightblue" d="M315.66,-480.35C319.47,-477.84 322.97,-474.91 326,-471.5 385.18,-405.02 301.16,-339.47 362,-274.5 368.6,-267.45 377.18,-262.63 386.32,-259.35"/>
<polygon fill="midnightblue" stroke="midnightblue" points="387.42,-262.67 396,-256.46 385.41,-255.97 387.42,-262.67"/>
</g>
<!-- Node8&#45;&gt;Node3 -->
<g id="edge8" class="edge">
<title>Node8&#45;&gt;Node3</title>
<path fill="none" stroke="midnightblue" d="M297.49,-431.42C317.48,-425.57 340.76,-418.97 362,-413.5 371.4,-411.08 381.44,-408.65 391.18,-406.39"/>
<polygon fill="midnightblue" stroke="midnightblue" points="392.22,-409.74 401.19,-404.09 390.66,-402.92 392.22,-409.74"/>
</g>
<!-- Node8&#45;&gt;Node4 -->
<g id="edge9" class="edge">
<title>Node8&#45;&gt;Node4</title>
<path fill="none" stroke="midnightblue" d="M319.54,-445.41C329.93,-445.25 340.75,-445.09 351.49,-444.92"/>
<polygon fill="midnightblue" stroke="midnightblue" points="351.8,-448.42 361.75,-444.77 351.7,-441.42 351.8,-448.42"/>
</g>
<!-- Node8&#45;&gt;Node5 -->
<g id="edge10" class="edge">
<title>Node8&#45;&gt;Node5</title>
<path fill="none" stroke="midnightblue" d="M308,-431.39C314.34,-428.61 320.48,-425.34 326,-421.5 347.32,-406.68 340.72,-390.37 362,-375.5 366,-372.7 370.32,-370.18 374.79,-367.91"/>
<polygon fill="midnightblue" stroke="midnightblue" points="376.55,-370.96 384.18,-363.6 373.63,-364.6 376.55,-370.96"/>
</g>
<!-- Node8&#45;&gt;Node6 -->
<g id="edge11" class="edge">
<title>Node8&#45;&gt;Node6</title>
<path fill="none" stroke="midnightblue" d="M312.4,-431.38C317.35,-428.62 321.97,-425.36 326,-421.5 359.52,-389.41 328.03,-355.11 362,-323.5 364.48,-321.19 367.18,-319.1 370.02,-317.21"/>
<polygon fill="midnightblue" stroke="midnightblue" points="372.01,-320.11 378.96,-312.11 368.54,-314.02 372.01,-320.11"/>
</g>
<!-- Node8&#45;&gt;Node7 -->
<g id="edge12" class="edge">
<title>Node8&#45;&gt;Node7</title>
<path fill="none" stroke="midnightblue" d="M313.62,-431.41C318.18,-428.64 322.39,-425.37 326,-421.5 371.91,-372.34 314.59,-322.21 362,-274.5 368.65,-267.8 377.11,-263.13 386.07,-259.9"/>
<polygon fill="midnightblue" stroke="midnightblue" points="387.37,-263.16 395.93,-256.92 385.34,-256.46 387.37,-263.16"/>
</g>
<!-- Node9&#45;&gt;Node3 -->
<g id="edge14" class="edge">
<title>Node9&#45;&gt;Node3</title>
<path fill="none" stroke="midnightblue" d="M315.12,-578.42C319.11,-575.89 322.79,-572.94 326,-569.5 374.53,-517.46 311.61,-463.74 362,-413.5 368.57,-406.95 376.9,-402.46 385.75,-399.42"/>
<polygon fill="midnightblue" stroke="midnightblue" points="386.82,-402.76 395.48,-396.66 384.91,-396.02 386.82,-402.76"/>
</g>
<!-- Node9&#45;&gt;Node4 -->
<g id="edge15" class="edge">
<title>Node9&#45;&gt;Node4</title>
<path fill="none" stroke="midnightblue" d="M308.46,-578.34C314.59,-575.81 320.55,-572.88 326,-569.5 367.12,-544.05 403.63,-501.02 425.16,-472.44"/>
<polygon fill="midnightblue" stroke="midnightblue" points="428.22,-474.19 431.35,-464.07 422.59,-470.03 428.22,-474.19"/>
</g>
<!-- Node9&#45;&gt;Node5 -->
<g id="edge16" class="edge">
<title>Node9&#45;&gt;Node5</title>
<path fill="none" stroke="midnightblue" d="M315.65,-578.35C319.46,-575.83 322.96,-572.9 326,-569.5 384.4,-504.08 304.13,-441.38 362,-375.5 364.51,-372.64 367.33,-370.08 370.36,-367.8"/>
<polygon fill="midnightblue" stroke="midnightblue" points="372.33,-370.69 378.86,-362.35 368.55,-364.8 372.33,-370.69"/>
</g>
<!-- Node9&#45;&gt;Node6 -->
<g id="edge17" class="edge">
<title>Node9&#45;&gt;Node6</title>
<path fill="none" stroke="midnightblue" d="M315.8,-578.48C319.57,-575.93 323.03,-572.96 326,-569.5 398,-485.68 289.3,-406.71 362,-323.5 364.41,-320.75 367.1,-318.3 370.02,-316.13"/>
<polygon fill="midnightblue" stroke="midnightblue" points="372.1,-318.95 378.74,-310.7 368.4,-313.01 372.1,-318.95"/>
</g>
<!-- Node10&#45;&gt;Node3 -->
<g id="edge19" class="edge">
<title>Node10&#45;&gt;Node3</title>
<path fill="none" stroke="midnightblue" d="M325.19,-396.32C345.11,-396.02 366.25,-395.7 385.16,-395.41"/>
<polygon fill="midnightblue" stroke="midnightblue" points="385.46,-398.91 395.41,-395.26 385.36,-391.91 385.46,-398.91"/>
</g>
<!-- Node10&#45;&gt;Node4 -->
<g id="edge20" class="edge">
<title>Node10&#45;&gt;Node4</title>
<path fill="none" stroke="midnightblue" d="M312.33,-412.56C324.92,-415.49 338.34,-418.6 351.63,-421.69"/>
<polygon fill="midnightblue" stroke="midnightblue" points="351.23,-425.19 361.76,-424.05 352.81,-418.37 351.23,-425.19"/>
</g>
<!-- Node10&#45;&gt;Node5 -->
<g id="edge21" class="edge">
<title>Node10&#45;&gt;Node5</title>
<path fill="none" stroke="midnightblue" d="M308.25,-382.47C329.35,-377.24 353.18,-371.35 375,-365.95"/>
<polygon fill="midnightblue" stroke="midnightblue" points="376,-369.31 384.86,-363.51 374.31,-362.51 376,-369.31"/>
</g>
<!-- Node10&#45;&gt;Node6 -->
<g id="edge22" class="edge">
<title>Node10&#45;&gt;Node6</title>
<path fill="none" stroke="midnightblue" d="M308.52,-382.38C314.7,-379.6 320.66,-376.34 326,-372.5 347.95,-356.74 339.83,-338.95 362,-323.5 364.52,-321.75 367.16,-320.12 369.9,-318.61"/>
<polygon fill="midnightblue" stroke="midnightblue" points="371.47,-321.74 378.9,-314.18 368.38,-315.45 371.47,-321.74"/>
</g>
<!-- Node10&#45;&gt;Node7 -->
<g id="edge23" class="edge">
<title>Node10&#45;&gt;Node7</title>
<path fill="none" stroke="midnightblue" d="M312.4,-382.38C317.35,-379.62 321.97,-376.36 326,-372.5 359.52,-340.41 327.5,-305.53 362,-274.5 368.86,-268.33 377.26,-263.92 386.06,-260.77"/>
<polygon fill="midnightblue" stroke="midnightblue" points="387.17,-264.09 395.71,-257.83 385.13,-257.4 387.17,-264.09"/>
</g>
<!-- Node11&#45;&gt;Node3 -->
<g id="edge25" class="edge">
<title>Node11&#45;&gt;Node3</title>
<path fill="none" stroke="midnightblue" d="M315.82,-676.49C319.59,-673.94 323.04,-670.97 326,-667.5 400.1,-580.84 284.79,-497.4 362,-413.5 368.36,-406.59 376.66,-401.93 385.56,-398.84"/>
<polygon fill="midnightblue" stroke="midnightblue" points="386.72,-402.15 395.39,-396.06 384.82,-395.41 386.72,-402.15"/>
</g>
<!-- Node11&#45;&gt;Node4 -->
<g id="edge26" class="edge">
<title>Node11&#45;&gt;Node4</title>
<path fill="none" stroke="midnightblue" d="M312.23,-676.42C317.15,-673.89 321.82,-670.94 326,-667.5 388.77,-615.83 423.13,-522.32 437.43,-474.09"/>
<polygon fill="midnightblue" stroke="midnightblue" points="440.86,-474.82 440.25,-464.24 434.13,-472.89 440.86,-474.82"/>
</g>
<!-- Node11&#45;&gt;Node5 -->
<g id="edge27" class="edge">
<title>Node11&#45;&gt;Node5</title>
<path fill="none" stroke="midnightblue" d="M316.24,-676.31C319.86,-673.8 323.16,-670.88 326,-667.5 410.08,-567.35 278.73,-476.32 362,-375.5 364.47,-372.5 367.28,-369.84 370.34,-367.46"/>
<polygon fill="midnightblue" stroke="midnightblue" points="372.48,-370.25 378.93,-361.84 368.65,-364.39 372.48,-370.25"/>
</g>
<!-- Node12&#45;&gt;Node3 -->
<g id="edge29" class="edge">
<title>Node12&#45;&gt;Node3</title>
<path fill="none" stroke="midnightblue" d="M312.33,-363.56C339,-369.76 369.43,-376.83 394.47,-382.64"/>
<polygon fill="midnightblue" stroke="midnightblue" points="393.95,-386.12 404.49,-384.97 395.54,-379.3 393.95,-386.12"/>
</g>
<!-- Node12&#45;&gt;Node4 -->
<g id="edge30" class="edge">
<title>Node12&#45;&gt;Node4</title>
<path fill="none" stroke="midnightblue" d="M309,-363.62C314.96,-366.16 320.73,-369.1 326,-372.5 346.37,-385.66 341.95,-399.86 362,-413.5 364.39,-415.13 366.87,-416.67 369.43,-418.15"/>
<polygon fill="midnightblue" stroke="midnightblue" points="367.88,-421.29 378.36,-422.87 371.16,-415.1 367.88,-421.29"/>
</g>
<!-- Node12&#45;&gt;Node5 -->
<g id="edge31" class="edge">
<title>Node12&#45;&gt;Node5</title>
<path fill="none" stroke="midnightblue" d="M317.03,-348.5C333.64,-348.5 351.47,-348.5 368.4,-348.5"/>
<polygon fill="midnightblue" stroke="midnightblue" points="368.8,-352 378.8,-348.5 368.8,-345 368.8,-352"/>
</g>
<!-- Node12&#45;&gt;Node6 -->
<g id="edge32" class="edge">
<title>Node12&#45;&gt;Node6</title>
<path fill="none" stroke="midnightblue" d="M308.25,-333.47C329.35,-328.24 353.18,-322.35 375,-316.95"/>
<polygon fill="midnightblue" stroke="midnightblue" points="376,-320.31 384.86,-314.51 374.31,-313.51 376,-320.31"/>
</g>
<!-- Node12&#45;&gt;Node7 -->
<g id="edge33" class="edge">
<title>Node12&#45;&gt;Node7</title>
<path fill="none" stroke="midnightblue" d="M308.52,-333.38C314.7,-330.6 320.66,-327.34 326,-323.5 347.95,-307.74 339.57,-289.57 362,-274.5 369.3,-269.59 377.66,-265.83 386.2,-262.95"/>
<polygon fill="midnightblue" stroke="midnightblue" points="387.3,-266.27 395.88,-260.05 385.29,-259.57 387.3,-266.27"/>
</g>
<!-- Node13&#45;&gt;Node3 -->
<g id="edge35" class="edge">
<title>Node13&#45;&gt;Node3</title>
<path fill="none" stroke="midnightblue" d="M310.12,-314.51C315.72,-317.06 321.12,-320.04 326,-323.5 348.04,-339.13 339.66,-357.3 362,-372.5 369.2,-377.4 377.44,-381.21 385.87,-384.17"/>
<polygon fill="midnightblue" stroke="midnightblue" points="384.84,-387.52 395.43,-387.17 386.93,-380.84 384.84,-387.52"/>
</g>
<!-- Node13&#45;&gt;Node4 -->
<g id="edge36" class="edge">
<title>Node13&#45;&gt;Node4</title>
<path fill="none" stroke="midnightblue" d="M313.41,-314.52C317.96,-317.06 322.22,-320.03 326,-323.5 357.71,-352.66 331,-383.58 362,-413.5 363.26,-414.71 364.57,-415.88 365.92,-417"/>
<polygon fill="midnightblue" stroke="midnightblue" points="363.97,-419.9 374.13,-422.9 368.06,-414.22 363.97,-419.9"/>
</g>
<!-- Node13&#45;&gt;Node5 -->
<g id="edge37" class="edge">
<title>Node13&#45;&gt;Node5</title>
<path fill="none" stroke="midnightblue" d="M308.25,-314.53C329.35,-319.76 353.18,-325.65 375,-331.05"/>
<polygon fill="midnightblue" stroke="midnightblue" points="374.31,-334.49 384.86,-333.49 376,-327.69 374.31,-334.49"/>
</g>
<!-- Node13&#45;&gt;Node6 -->
<g id="edge38" class="edge">
<title>Node13&#45;&gt;Node6</title>
<path fill="none" stroke="midnightblue" d="M326.04,-299.5C340.11,-299.5 354.77,-299.5 368.79,-299.5"/>
<polygon fill="midnightblue" stroke="midnightblue" points="368.87,-303 378.87,-299.5 368.87,-296 368.87,-303"/>
</g>
<!-- Node13&#45;&gt;Node7 -->
<g id="edge39" class="edge">
<title>Node13&#45;&gt;Node7</title>
<path fill="none" stroke="midnightblue" d="M312.33,-284.44C339,-278.24 369.43,-271.17 394.47,-265.36"/>
<polygon fill="midnightblue" stroke="midnightblue" points="395.54,-268.7 404.49,-263.03 393.95,-261.88 395.54,-268.7"/>
</g>
<!-- Node14&#45;&gt;Node3 -->
<g id="edge41" class="edge">
<title>Node14&#45;&gt;Node3</title>
<path fill="none" stroke="midnightblue" d="M313.52,-265.4C318.04,-267.97 322.27,-270.97 326,-274.5 359.71,-306.39 327.68,-341.27 362,-372.5 368.76,-378.65 377.03,-383.12 385.72,-386.36"/>
<polygon fill="midnightblue" stroke="midnightblue" points="384.66,-389.69 395.25,-389.41 386.79,-383.03 384.66,-389.69"/>
</g>
<!-- Node14&#45;&gt;Node4 -->
<g id="edge42" class="edge">
<title>Node14&#45;&gt;Node4</title>
<path fill="none" stroke="midnightblue" d="M313.55,-264.78C318.12,-267.48 322.35,-270.69 326,-274.5 370.14,-320.59 318.99,-366.36 362,-413.5 362.91,-414.49 363.85,-415.45 364.82,-416.38"/>
<polygon fill="midnightblue" stroke="midnightblue" points="362.87,-419.3 372.84,-422.89 367.28,-413.87 362.87,-419.3"/>
</g>
<!-- Node14&#45;&gt;Node5 -->
<g id="edge43" class="edge">
<title>Node14&#45;&gt;Node5</title>
<path fill="none" stroke="midnightblue" d="M310.12,-265.51C315.72,-268.06 321.12,-271.04 326,-274.5 348.04,-290.13 339.91,-307.93 362,-323.5 364.72,-325.42 367.59,-327.19 370.56,-328.83"/>
<polygon fill="midnightblue" stroke="midnightblue" points="369.23,-332.07 379.75,-333.35 372.32,-325.8 369.23,-332.07"/>
</g>
<!-- Node14&#45;&gt;Node6 -->
<g id="edge44" class="edge">
<title>Node14&#45;&gt;Node6</title>
<path fill="none" stroke="midnightblue" d="M308.25,-265.53C329.35,-270.76 353.18,-276.65 375,-282.05"/>
<polygon fill="midnightblue" stroke="midnightblue" points="374.31,-285.49 384.86,-284.49 376,-278.69 374.31,-285.49"/>
</g>
<!-- Node14&#45;&gt;Node7 -->
<g id="edge45" class="edge">
<title>Node14&#45;&gt;Node7</title>
<path fill="none" stroke="midnightblue" d="M313.71,-251.5C337.01,-251.86 363.04,-252.25 385.77,-252.6"/>
<polygon fill="midnightblue" stroke="midnightblue" points="385.91,-256.1 395.97,-252.75 386.02,-249.1 385.91,-256.1"/>
</g>
<!-- Node15&#45;&gt;Node3 -->
<g id="edge47" class="edge">
<title>Node15&#45;&gt;Node3</title>
<path fill="none" stroke="midnightblue" d="M315.69,-627.38C319.49,-624.85 322.98,-621.92 326,-618.5 387.27,-549.2 298.24,-480.52 362,-413.5 368.4,-406.78 376.64,-402.2 385.44,-399.13"/>
<polygon fill="midnightblue" stroke="midnightblue" points="386.51,-402.46 395.16,-396.35 384.59,-395.73 386.51,-402.46"/>
</g>
<!-- Node15&#45;&gt;Node4 -->
<g id="edge48" class="edge">
<title>Node15&#45;&gt;Node4</title>
<path fill="none" stroke="midnightblue" d="M310.64,-627.48C316.08,-624.93 321.29,-621.96 326,-618.5 377.91,-580.32 414.73,-512.46 432.81,-473.41"/>
<polygon fill="midnightblue" stroke="midnightblue" points="436.07,-474.69 437,-464.14 429.69,-471.81 436.07,-474.69"/>
</g>
<!-- Node15&#45;&gt;Node5 -->
<g id="edge49" class="edge">
<title>Node15&#45;&gt;Node5</title>
<path fill="none" stroke="midnightblue" d="M315.79,-627.47C319.57,-624.92 323.03,-621.96 326,-618.5 397.21,-535.74 291.45,-458.82 362,-375.5 364.46,-372.6 367.23,-370 370.23,-367.69"/>
<polygon fill="midnightblue" stroke="midnightblue" points="372.21,-370.58 378.66,-362.18 368.38,-364.72 372.21,-370.58"/>
</g>
<!-- Node15&#45;&gt;Node6 -->
<g id="edge50" class="edge">
<title>Node15&#45;&gt;Node6</title>
<path fill="none" stroke="midnightblue" d="M316.25,-627.32C319.86,-624.8 323.16,-621.89 326,-618.5 410.86,-517.29 276.29,-424 362,-323.5 364.37,-320.72 367.04,-318.25 369.94,-316.06"/>
<polygon fill="midnightblue" stroke="midnightblue" points="372.02,-318.88 378.61,-310.58 368.28,-312.96 372.02,-318.88"/>
</g>
<!-- Node16&#45;&gt;Node3 -->
<g id="edge52" class="edge">
<title>Node16&#45;&gt;Node3</title>
<path fill="none" stroke="midnightblue" d="M315.07,-216.63C319.07,-219.15 322.77,-222.08 326,-225.5 372.2,-274.39 314.85,-324.52 362,-372.5 368.56,-379.17 376.88,-383.9 385.72,-387.24"/>
<polygon fill="midnightblue" stroke="midnightblue" points="384.87,-390.64 395.46,-390.33 386.99,-383.96 384.87,-390.64"/>
</g>
<!-- Node16&#45;&gt;Node4 -->
<g id="edge53" class="edge">
<title>Node16&#45;&gt;Node4</title>
<path fill="none" stroke="midnightblue" d="M315.63,-216.67C319.44,-219.19 322.95,-222.11 326,-225.5 382.84,-288.8 306.71,-348.85 362,-413.5 362.75,-414.38 363.53,-415.23 364.33,-416.06"/>
<polygon fill="midnightblue" stroke="midnightblue" points="362.34,-418.96 372.19,-422.85 366.92,-413.66 362.34,-418.96"/>
</g>
<!-- Node16&#45;&gt;Node5 -->
<g id="edge54" class="edge">
<title>Node16&#45;&gt;Node5</title>
<path fill="none" stroke="midnightblue" d="M313.9,-216.61C318.28,-219.13 322.38,-222.07 326,-225.5 359.71,-257.39 328.2,-291.71 362,-323.5 364.56,-325.91 367.34,-328.08 370.28,-330.05"/>
<polygon fill="midnightblue" stroke="midnightblue" points="368.53,-333.08 378.94,-335.05 372.04,-327.02 368.53,-333.08"/>
</g>
<!-- Node16&#45;&gt;Node6 -->
<g id="edge55" class="edge">
<title>Node16&#45;&gt;Node6</title>
<path fill="none" stroke="midnightblue" d="M310.05,-216.62C315.67,-219.15 321.08,-222.09 326,-225.5 347.61,-240.51 340.51,-257.32 362,-272.5 365.99,-275.32 370.29,-277.85 374.76,-280.13"/>
<polygon fill="midnightblue" stroke="midnightblue" points="373.58,-283.45 384.13,-284.46 376.52,-277.09 373.58,-283.45"/>
</g>
<!-- Node16&#45;&gt;Node7 -->
<g id="edge56" class="edge">
<title>Node16&#45;&gt;Node7</title>
<path fill="none" stroke="midnightblue" d="M304.77,-216.54C334.78,-224.42 371.05,-233.95 399.25,-241.35"/>
<polygon fill="midnightblue" stroke="midnightblue" points="398.69,-244.82 409.25,-243.98 400.46,-238.05 398.69,-244.82"/>
</g>
<!-- Node17&#45;&gt;Node3 -->
<g id="edge58" class="edge">
<title>Node17&#45;&gt;Node3</title>
<path fill="none" stroke="midnightblue" d="M312.01,-165.41C317.23,-168.38 322.02,-172.03 326,-176.5 384.92,-242.62 301.8,-307.54 362,-372.5 368.36,-379.36 376.58,-384.19 385.38,-387.56"/>
<polygon fill="midnightblue" stroke="midnightblue" points="384.51,-390.95 395.1,-390.68 386.64,-384.29 384.51,-390.95"/>
</g>
<!-- Node17&#45;&gt;Node4 -->
<g id="edge59" class="edge">
<title>Node17&#45;&gt;Node4</title>
<path fill="none" stroke="midnightblue" d="M312.15,-165.28C317.35,-168.28 322.09,-171.97 326,-176.5 395.64,-257.13 294.32,-331.22 362,-413.5 362.73,-414.39 363.5,-415.26 364.29,-416.1"/>
<polygon fill="midnightblue" stroke="midnightblue" points="362.23,-418.96 372.03,-422.98 366.88,-413.73 362.23,-418.96"/>
</g>
<!-- Node17&#45;&gt;Node5 -->
<g id="edge60" class="edge">
<title>Node17&#45;&gt;Node5</title>
<path fill="none" stroke="midnightblue" d="M312.11,-165.86C317.25,-168.75 321.99,-172.25 326,-176.5 372.2,-225.39 315.66,-274.75 362,-323.5 364.47,-326.1 367.2,-328.44 370.12,-330.53"/>
<polygon fill="midnightblue" stroke="midnightblue" points="368.44,-333.6 378.8,-335.82 372.08,-327.62 368.44,-333.6"/>
</g>
<!-- Node17&#45;&gt;Node6 -->
<g id="edge61" class="edge">
<title>Node17&#45;&gt;Node6</title>
<path fill="none" stroke="midnightblue" d="M312.36,-166.79C317.31,-169.49 321.95,-172.69 326,-176.5 359.21,-207.71 329.05,-241.03 362,-272.5 364.56,-274.94 367.34,-277.16 370.28,-279.18"/>
<polygon fill="midnightblue" stroke="midnightblue" points="368.56,-282.23 378.94,-284.36 372.15,-276.22 368.56,-282.23"/>
</g>
<!-- Node17&#45;&gt;Node7 -->
<g id="edge62" class="edge">
<title>Node17&#45;&gt;Node7</title>
<path fill="none" stroke="midnightblue" d="M303.54,-167.55C311.21,-170.21 318.89,-173.2 326,-176.5 362.96,-193.65 401.94,-220.7 424.97,-237.75"/>
<polygon fill="midnightblue" stroke="midnightblue" points="423.16,-240.77 433.26,-243.97 427.36,-235.17 423.16,-240.77"/>
</g>
<!-- Node18&#45;&gt;Node3 -->
<g id="edge64" class="edge">
<title>Node18&#45;&gt;Node3</title>
<path fill="none" stroke="midnightblue" d="M313.88,-118.01C318.38,-120.55 322.5,-123.67 326,-127.5 400.18,-208.8 288.64,-290.45 362,-372.5 368.38,-379.63 376.77,-384.58 385.77,-387.98"/>
<polygon fill="midnightblue" stroke="midnightblue" points="384.72,-391.32 395.31,-391 386.83,-384.64 384.72,-391.32"/>
</g>
<!-- Node18&#45;&gt;Node4 -->
<g id="edge65" class="edge">
<title>Node18&#45;&gt;Node4</title>
<path fill="none" stroke="midnightblue" d="M314.33,-118.14C318.67,-120.65 322.64,-123.74 326,-127.5 411.37,-223.03 281.89,-313.52 362,-413.5 362.7,-414.37 363.42,-415.22 364.18,-416.04"/>
<polygon fill="midnightblue" stroke="midnightblue" points="361.82,-418.63 371.56,-422.79 366.54,-413.46 361.82,-418.63"/>
</g>
<!-- Node18&#45;&gt;Node5 -->
<g id="edge66" class="edge">
<title>Node18&#45;&gt;Node5</title>
<path fill="none" stroke="midnightblue" d="M313.73,-118.15C318.26,-120.65 322.44,-123.73 326,-127.5 386.86,-191.85 302.89,-257.55 362,-323.5 364.52,-326.31 367.35,-328.82 370.39,-331.04"/>
<polygon fill="midnightblue" stroke="midnightblue" points="368.56,-334.02 378.9,-336.31 372.24,-328.07 368.56,-334.02"/>
</g>
<!-- Node18&#45;&gt;Node6 -->
<g id="edge67" class="edge">
<title>Node18&#45;&gt;Node6</title>
<path fill="none" stroke="midnightblue" d="M312.73,-118C317.6,-120.52 322.12,-123.64 326,-127.5 373.09,-174.31 316.7,-223.95 362,-272.5 364.47,-275.14 367.19,-277.53 370.11,-279.68"/>
<polygon fill="midnightblue" stroke="midnightblue" points="368.45,-282.77 378.77,-285.15 372.18,-276.85 368.45,-282.77"/>
</g>
<!-- Node18&#45;&gt;Node7 -->
<g id="edge68" class="edge">
<title>Node18&#45;&gt;Node7</title>
<path fill="none" stroke="midnightblue" d="M304.34,-118.1C311.9,-120.56 319.33,-123.64 326,-127.5 373.82,-155.18 414.42,-207.81 433.63,-235.48"/>
<polygon fill="midnightblue" stroke="midnightblue" points="430.79,-237.52 439.3,-243.83 436.58,-233.59 430.79,-237.52"/>
</g>
<!-- Node19&#45;&gt;Node3 -->
<g id="edge70" class="edge">
<title>Node19&#45;&gt;Node3</title>
<path fill="none" stroke="midnightblue" d="M310.21,-531.58C316,-528.61 321.4,-524.97 326,-520.5 361.97,-485.52 324.78,-447.15 362,-413.5 368.65,-407.49 376.8,-403.25 385.38,-400.29"/>
<polygon fill="midnightblue" stroke="midnightblue" points="386.54,-403.6 395.18,-397.47 384.6,-396.87 386.54,-403.6"/>
</g>
<!-- Node19&#45;&gt;Node4 -->
<g id="edge71" class="edge">
<title>Node19&#45;&gt;Node4</title>
<path fill="none" stroke="midnightblue" d="M303.54,-529.45C311.21,-526.79 318.89,-523.8 326,-520.5 355.78,-506.68 386.87,-486.43 409.87,-470.17"/>
<polygon fill="midnightblue" stroke="midnightblue" points="412.18,-472.82 418.27,-464.16 408.11,-467.13 412.18,-472.82"/>
</g>
<!-- Node19&#45;&gt;Node5 -->
<g id="edge72" class="edge">
<title>Node19&#45;&gt;Node5</title>
<path fill="none" stroke="midnightblue" d="M310.2,-532.15C316.07,-529.08 321.49,-525.26 326,-520.5 371.68,-472.31 316.7,-424.05 362,-375.5 364.47,-372.86 367.19,-370.47 370.11,-368.32"/>
<polygon fill="midnightblue" stroke="midnightblue" points="372.18,-371.15 378.77,-362.85 368.45,-365.23 372.18,-371.15"/>
</g>
<!-- Node19&#45;&gt;Node6 -->
<g id="edge73" class="edge">
<title>Node19&#45;&gt;Node6</title>
<path fill="none" stroke="midnightblue" d="M310.13,-532.63C316.08,-529.48 321.55,-525.5 326,-520.5 385.18,-454.02 302.26,-389.48 362,-323.5 364.45,-320.79 367.19,-318.38 370.14,-316.23"/>
<polygon fill="midnightblue" stroke="midnightblue" points="372.22,-319.06 378.92,-310.86 368.57,-313.09 372.22,-319.06"/>
</g>
<!-- Node19&#45;&gt;Node7 -->
<g id="edge74" class="edge">
<title>Node19&#45;&gt;Node7</title>
<path fill="none" stroke="midnightblue" d="M310.31,-532.79C316.23,-529.61 321.64,-525.58 326,-520.5 398,-436.68 287.91,-356.48 362,-274.5 368.47,-267.34 376.99,-262.45 386.11,-259.15"/>
<polygon fill="midnightblue" stroke="midnightblue" points="387.2,-262.48 395.78,-256.26 385.19,-255.78 387.2,-262.48"/>
</g>
<!-- Node20&#45;&gt;Node5 -->
<g id="edge76" class="edge">
<title>Node20&#45;&gt;Node5</title>
<path fill="none" stroke="midnightblue" d="M309.65,-26.72C315.85,-29.98 321.5,-34.16 326,-39.5 407.97,-136.81 279.74,-226.43 362,-323.5 364.37,-326.3 367.04,-328.79 369.93,-331.01"/>
<polygon fill="midnightblue" stroke="midnightblue" points="368.3,-334.12 378.6,-336.57 372.07,-328.22 368.3,-334.12"/>
</g>
<!-- Node20&#45;&gt;Node6 -->
<g id="edge77" class="edge">
<title>Node20&#45;&gt;Node6</title>
<path fill="none" stroke="midnightblue" d="M309.51,-26.84C315.73,-30.08 321.43,-34.22 326,-39.5 394.59,-118.71 294.04,-192.74 362,-272.5 364.47,-275.4 367.25,-277.98 370.26,-280.3"/>
<polygon fill="midnightblue" stroke="midnightblue" points="368.41,-283.27 378.7,-285.79 372.23,-277.4 368.41,-283.27"/>
</g>
<!-- Node20&#45;&gt;Node7 -->
<g id="edge78" class="edge">
<title>Node20&#45;&gt;Node7</title>
<path fill="none" stroke="midnightblue" d="M309.8,-29.51C315.6,-32.27 321.12,-35.56 326,-39.5 391.65,-92.5 427.29,-191.78 440.03,-233.85"/>
<polygon fill="midnightblue" stroke="midnightblue" points="436.74,-235.07 442.9,-243.69 443.46,-233.11 436.74,-235.07"/>
</g>
<!-- Node21&#45;&gt;Node5 -->
<g id="edge80" class="edge">
<title>Node21&#45;&gt;Node5</title>
<path fill="none" stroke="midnightblue" d="M307.62,-75.67C314.58,-79.12 320.98,-83.63 326,-89.5 394.39,-169.46 292.91,-244.13 362,-323.5 364.41,-326.27 367.11,-328.73 370.02,-330.93"/>
<polygon fill="midnightblue" stroke="midnightblue" points="368.42,-334.06 378.75,-336.45 372.16,-328.14 368.42,-334.06"/>
</g>
<!-- Node21&#45;&gt;Node6 -->
<g id="edge81" class="edge">
<title>Node21&#45;&gt;Node6</title>
<path fill="none" stroke="midnightblue" d="M307.78,-76.06C314.63,-79.46 320.95,-83.84 326,-89.5 381.18,-151.36 306.96,-210.52 362,-272.5 364.53,-275.34 367.35,-277.89 370.4,-280.17"/>
<polygon fill="midnightblue" stroke="midnightblue" points="368.6,-283.18 378.92,-285.6 372.37,-277.27 368.6,-283.18"/>
</g>
<!-- Node21&#45;&gt;Node7 -->
<g id="edge82" class="edge">
<title>Node21&#45;&gt;Node7</title>
<path fill="none" stroke="midnightblue" d="M307.73,-79.24C314.19,-82.1 320.43,-85.48 326,-89.5 380.38,-128.71 419.95,-200.26 436.68,-234.39"/>
<polygon fill="midnightblue" stroke="midnightblue" points="433.66,-236.19 441.12,-243.71 439.97,-233.18 433.66,-236.19"/>
</g>
</g>
</svg>
