<?xml version="1.0" encoding="UTF-8" standalone="no"?>
<!DOCTYPE svg PUBLIC "-//W3C//DTD SVG 1.1//EN"
 "http://www.w3.org/Graphics/SVG/1.1/DTD/svg11.dtd">
<!-- Generated by graphviz version 2.43.0 (0)
 -->
<!-- Title: Parameters::get_param_value_or_default Pages: 1 -->
<svg width="505pt" height="617pt"
 viewBox="0.00 0.00 505.00 617.00" xmlns="http://www.w3.org/2000/svg" xmlns:xlink="http://www.w3.org/1999/xlink">
<g id="graph0" class="graph" transform="scale(1 1) rotate(0) translate(4 613)">
<title>Parameters::get_param_value_or_default</title>
<!-- Node1 -->
<g id="node1" class="node">
<title>Node1</title>
<g id="a_node1"><a xlink:title=" ">
<polygon fill="#bfbfbf" stroke="black" points="362,-284.5 362,-314.5 497,-314.5 497,-284.5 362,-284.5"/>
<text text-anchor="start" x="370" y="-302.5" font-family="serif" font-size="10.00">Parameters::get_param</text>
<text text-anchor="middle" x="429.5" y="-291.5" font-family="serif" font-size="10.00">_value_or_default</text>
</a>
</g>
</g>
<!-- Node2 -->
<g id="node2" class="node">
<title>Node2</title>
<g id="a_node2"><a xlink:href="classSolverUMFPACK.html#a83fe21379896c4df62b1df2947767d2e" target="_top" xlink:title="Create a direct solver based of the SolverType and a list of Parameters.">
<polygon fill="none" stroke="black" points="176.5,-578.5 176.5,-608.5 316.5,-608.5 316.5,-578.5 176.5,-578.5"/>
<text text-anchor="start" x="184.5" y="-596.5" font-family="serif" font-size="10.00">SolverUMFPACK::create</text>
<text text-anchor="middle" x="246.5" y="-585.5" font-family="serif" font-size="10.00">_solver</text>
</a>
</g>
</g>
<!-- Node1&#45;&gt;Node2 -->
<g id="edge1" class="edge">
<title>Node1&#45;&gt;Node2</title>
<path fill="none" stroke="midnightblue" d="M426.21,-324.79C420.04,-377.93 398.28,-501.85 326,-569.5 322.36,-572.91 318.25,-575.83 313.86,-578.34"/>
<polygon fill="midnightblue" stroke="midnightblue" points="429.72,-324.89 427.3,-314.57 422.76,-324.14 429.72,-324.89"/>
</g>
<!-- Node4 -->
<g id="node4" class="node">
<title>Node4</title>
<g id="a_node4"><a xlink:href="classPrecondHypreILU.html#a7e7defa37401cea9cac7183a5994b13b" target="_top" xlink:title="Create preconditioner based of the PreconditionerType and a list of Parameters.">
<polygon fill="none" stroke="black" points="173.5,-529.5 173.5,-559.5 319.5,-559.5 319.5,-529.5 173.5,-529.5"/>
<text text-anchor="start" x="181.5" y="-547.5" font-family="serif" font-size="10.00">PrecondHypreILU::create</text>
<text text-anchor="middle" x="246.5" y="-536.5" font-family="serif" font-size="10.00">_solver</text>
</a>
</g>
</g>
<!-- Node1&#45;&gt;Node4 -->
<g id="edge3" class="edge">
<title>Node1&#45;&gt;Node4</title>
<path fill="none" stroke="midnightblue" d="M423.84,-324.62C414.04,-370.36 386.97,-467.39 326,-520.5 322.02,-523.96 317.56,-526.93 312.83,-529.46"/>
<polygon fill="midnightblue" stroke="midnightblue" points="427.3,-325.16 425.87,-314.66 420.44,-323.76 427.3,-325.16"/>
</g>
<!-- Node5 -->
<g id="node5" class="node">
<title>Node5</title>
<g id="a_node5"><a xlink:href="classPrecondHypreSmoother.html#aadca5acda7af3396285f385654c24a1b" target="_top" xlink:title="Create preconditioner based of the PreconditionerType and a list of Parameters.">
<polygon fill="none" stroke="black" points="176.5,-480.5 176.5,-510.5 316.5,-510.5 316.5,-480.5 176.5,-480.5"/>
<text text-anchor="start" x="184.5" y="-498.5" font-family="serif" font-size="10.00">PrecondHypreSmoother</text>
<text text-anchor="middle" x="246.5" y="-487.5" font-family="serif" font-size="10.00">::create_solver</text>
</a>
</g>
</g>
<!-- Node1&#45;&gt;Node5 -->
<g id="edge5" class="edge">
<title>Node1&#45;&gt;Node5</title>
<path fill="none" stroke="midnightblue" d="M420.32,-324.3C406.71,-361.72 375.88,-432.38 326,-471.5 321.63,-474.93 316.76,-477.87 311.66,-480.39"/>
<polygon fill="midnightblue" stroke="midnightblue" points="423.68,-325.28 423.7,-314.68 417.08,-322.95 423.68,-325.28"/>
</g>
<!-- Node6 -->
<g id="node6" class="node">
<title>Node6</title>
<g id="a_node6"><a xlink:href="classPrecondHypreBoomerAMG.html#a9274064ab381792bf2f034344d2d621d" target="_top" xlink:title="Create preconditioner based of the PreconditionerType and a list of Parameters.">
<polygon fill="none" stroke="black" points="168,-431.5 168,-461.5 325,-461.5 325,-431.5 168,-431.5"/>
<text text-anchor="start" x="176" y="-449.5" font-family="serif" font-size="10.00">PrecondHypreBoomerAMG</text>
<text text-anchor="middle" x="246.5" y="-438.5" font-family="serif" font-size="10.00">::create_solver</text>
</a>
</g>
</g>
<!-- Node1&#45;&gt;Node6 -->
<g id="edge7" class="edge">
<title>Node1&#45;&gt;Node6</title>
<path fill="none" stroke="midnightblue" d="M414.56,-323.5C397.23,-351.28 365.11,-396.52 326,-422.5 320.9,-425.89 315.29,-428.82 309.5,-431.35"/>
<polygon fill="midnightblue" stroke="midnightblue" points="417.65,-325.16 419.86,-314.8 411.67,-321.52 417.65,-325.16"/>
</g>
<!-- Node7 -->
<g id="node7" class="node">
<title>Node7</title>
<g id="a_node7"><a xlink:href="classSolverHyprePCG.html#af4a480332bac2a5014c3e2a84f3403ba" target="_top" xlink:title="Create a iterative solver based of the SolverType and a list of Parameters.">
<polygon fill="none" stroke="black" points="176,-382.5 176,-412.5 317,-412.5 317,-382.5 176,-382.5"/>
<text text-anchor="start" x="184" y="-400.5" font-family="serif" font-size="10.00">SolverHyprePCG::create</text>
<text text-anchor="middle" x="246.5" y="-389.5" font-family="serif" font-size="10.00">_solver</text>
</a>
</g>
</g>
<!-- Node1&#45;&gt;Node7 -->
<g id="edge9" class="edge">
<title>Node1&#45;&gt;Node7</title>
<path fill="none" stroke="midnightblue" d="M403.22,-321.4C383.35,-337.67 354.38,-359.4 326,-373.5 319.24,-376.86 311.91,-379.86 304.54,-382.5"/>
<polygon fill="midnightblue" stroke="midnightblue" points="405.7,-323.89 411.15,-314.8 401.22,-318.51 405.7,-323.89"/>
</g>
<!-- Node8 -->
<g id="node8" class="node">
<title>Node8</title>
<g id="a_node8"><a xlink:href="classSolverHypreGMRES.html#a94293cedbdd903adcd5866ce3554ef10" target="_top" xlink:title="Create a iterative solver based of the SolverType and a list of Parameters.">
<polygon fill="none" stroke="black" points="167,-333.5 167,-363.5 326,-363.5 326,-333.5 167,-333.5"/>
<text text-anchor="start" x="175" y="-351.5" font-family="serif" font-size="10.00">SolverHypreGMRES::create</text>
<text text-anchor="middle" x="246.5" y="-340.5" font-family="serif" font-size="10.00">_solver</text>
</a>
</g>
</g>
<!-- Node1&#45;&gt;Node8 -->
<g id="edge11" class="edge">
<title>Node1&#45;&gt;Node8</title>
<path fill="none" stroke="midnightblue" d="M362.94,-317.25C343.32,-322.56 322.01,-328.33 303.1,-333.45"/>
<polygon fill="midnightblue" stroke="midnightblue" points="363.98,-320.59 372.72,-314.6 362.15,-313.84 363.98,-320.59"/>
</g>
<!-- Node9 -->
<g id="node9" class="node">
<title>Node9</title>
<g id="a_node9"><a xlink:href="classSolverHypreFGMRES.html#a54588ca870f9439ec8f4bccd7d8615a8" target="_top" xlink:title="Create a iterative solver based of the SolverType and a list of Parameters.">
<polygon fill="none" stroke="black" points="179.5,-284.5 179.5,-314.5 313.5,-314.5 313.5,-284.5 179.5,-284.5"/>
<text text-anchor="start" x="187.5" y="-302.5" font-family="serif" font-size="10.00">SolverHypreFGMRES::</text>
<text text-anchor="middle" x="246.5" y="-291.5" font-family="serif" font-size="10.00">create_solver</text>
</a>
</g>
</g>
<!-- Node1&#45;&gt;Node9 -->
<g id="edge13" class="edge">
<title>Node1&#45;&gt;Node9</title>
<path fill="none" stroke="midnightblue" d="M351.8,-299.5C339.13,-299.5 326.08,-299.5 313.68,-299.5"/>
<polygon fill="midnightblue" stroke="midnightblue" points="351.87,-303 361.87,-299.5 351.87,-296 351.87,-303"/>
</g>
<!-- Node10 -->
<g id="node10" class="node">
<title>Node10</title>
<g id="a_node10"><a xlink:href="classPrecondDSmoother.html#a286f01fb24a1d08cc00950b04e9e0bfc" target="_top" xlink:title="Create preconditioner based of the PreconditionerType and a list of Parameters.">
<polygon fill="none" stroke="black" points="169.5,-235.5 169.5,-265.5 323.5,-265.5 323.5,-235.5 169.5,-235.5"/>
<text text-anchor="start" x="177.5" y="-253.5" font-family="serif" font-size="10.00">PrecondDSmoother::create</text>
<text text-anchor="middle" x="246.5" y="-242.5" font-family="serif" font-size="10.00">_solver</text>
</a>
</g>
</g>
<!-- Node1&#45;&gt;Node10 -->
<g id="edge15" class="edge">
<title>Node1&#45;&gt;Node10</title>
<path fill="none" stroke="midnightblue" d="M362.94,-281.75C343.32,-276.44 322.01,-270.67 303.1,-265.55"/>
<polygon fill="midnightblue" stroke="midnightblue" points="362.15,-285.16 372.72,-284.4 363.98,-278.41 362.15,-285.16"/>
</g>
<!-- Node11 -->
<g id="node11" class="node">
<title>Node11</title>
<g id="a_node11"><a xlink:href="classSolverBICGSTAB.html#a088138ab2b4e2295192b98abd8e4eefc" target="_top" xlink:title="Create a iterative solver based of the SolverType and a list of Parameters.">
<polygon fill="none" stroke="black" points="176,-186.5 176,-216.5 317,-216.5 317,-186.5 176,-186.5"/>
<text text-anchor="start" x="184" y="-204.5" font-family="serif" font-size="10.00">SolverBICGSTAB::create</text>
<text text-anchor="middle" x="246.5" y="-193.5" font-family="serif" font-size="10.00">_solver</text>
</a>
</g>
</g>
<!-- Node1&#45;&gt;Node11 -->
<g id="edge17" class="edge">
<title>Node1&#45;&gt;Node11</title>
<path fill="none" stroke="midnightblue" d="M403.12,-278.01C383.2,-262.02 354.21,-240.6 326,-226.5 318.58,-222.79 310.49,-219.48 302.42,-216.57"/>
<polygon fill="midnightblue" stroke="midnightblue" points="401.11,-280.89 411.08,-284.5 405.54,-275.46 401.11,-280.89"/>
</g>
<!-- Node12 -->
<g id="node12" class="node">
<title>Node12</title>
<g id="a_node12"><a xlink:href="classSolverMINRES.html#ace4d6324acb77a33354204e692a2463f" target="_top" xlink:title=" ">
<polygon fill="none" stroke="black" points="181,-137.5 181,-167.5 312,-167.5 312,-137.5 181,-137.5"/>
<text text-anchor="start" x="189" y="-155.5" font-family="serif" font-size="10.00">SolverMINRES::create</text>
<text text-anchor="middle" x="246.5" y="-144.5" font-family="serif" font-size="10.00">_solver</text>
</a>
</g>
</g>
<!-- Node1&#45;&gt;Node12 -->
<g id="edge19" class="edge">
<title>Node1&#45;&gt;Node12</title>
<path fill="none" stroke="midnightblue" d="M414.46,-275.78C397.04,-248.3 364.82,-203.5 326,-177.5 320.3,-173.68 313.97,-170.41 307.46,-167.63"/>
<polygon fill="midnightblue" stroke="midnightblue" points="411.55,-277.72 419.79,-284.38 417.5,-274.03 411.55,-277.72"/>
</g>
<!-- Node13 -->
<g id="node13" class="node">
<title>Node13</title>
<g id="a_node13"><a xlink:href="classSolverCG.html#a22bb7e38585bc24764881aa0f5aa200c" target="_top" xlink:title=" ">
<polygon fill="none" stroke="black" points="177.5,-99 177.5,-118 315.5,-118 315.5,-99 177.5,-99"/>
<text text-anchor="middle" x="246.5" y="-106" font-family="serif" font-size="10.00">SolverCG::create_solver</text>
</a>
</g>
</g>
<!-- Node1&#45;&gt;Node13 -->
<g id="edge21" class="edge">
<title>Node1&#45;&gt;Node13</title>
<path fill="none" stroke="midnightblue" d="M420.6,-274.83C407.29,-237.31 376.75,-166.29 326,-128.5 320.13,-124.13 313.41,-120.71 306.43,-118.04"/>
<polygon fill="midnightblue" stroke="midnightblue" points="417.35,-276.14 423.9,-284.47 423.97,-273.87 417.35,-276.14"/>
</g>
<!-- Node14 -->
<g id="node14" class="node">
<title>Node14</title>
<g id="a_node14"><a xlink:href="classSolverGMRES.html#aea5f0ae2948f5e66d2ef5d508ce61f68" target="_top" xlink:title=" ">
<polygon fill="none" stroke="black" points="183,-49.5 183,-79.5 310,-79.5 310,-49.5 183,-49.5"/>
<text text-anchor="start" x="191" y="-67.5" font-family="serif" font-size="10.00">SolverGMRES::create</text>
<text text-anchor="middle" x="246.5" y="-56.5" font-family="serif" font-size="10.00">_solver</text>
</a>
</g>
</g>
<!-- Node1&#45;&gt;Node14 -->
<g id="edge23" class="edge">
<title>Node1&#45;&gt;Node14</title>
<path fill="none" stroke="midnightblue" d="M423.1,-274.44C412.35,-230.57 384.14,-139.73 326,-89.5 321.24,-85.39 315.79,-81.95 310.04,-79.07"/>
<polygon fill="midnightblue" stroke="midnightblue" points="419.72,-275.35 425.41,-284.29 426.53,-273.76 419.72,-275.35"/>
</g>
<!-- Node15 -->
<g id="node15" class="node">
<title>Node15</title>
<g id="a_node15"><a xlink:href="classNLSolverBase.html#a5fe7ec560c9c9e10591a08aaa123f2dd" target="_top" xlink:title="Create non linear solver based of the NLSolverType and a list of Parameters.">
<polygon fill="none" stroke="black" points="183,-0.5 183,-30.5 310,-30.5 310,-0.5 183,-0.5"/>
<text text-anchor="start" x="191" y="-18.5" font-family="serif" font-size="10.00">NLSolverBase::create</text>
<text text-anchor="middle" x="246.5" y="-7.5" font-family="serif" font-size="10.00">_solver</text>
</a>
</g>
</g>
<!-- Node1&#45;&gt;Node15 -->
<g id="edge25" class="edge">
<title>Node1&#45;&gt;Node15</title>
<path fill="none" stroke="midnightblue" d="M425.68,-274.23C418.58,-222.78 395.32,-105.22 326,-40.5 321.4,-36.21 316.06,-32.65 310.38,-29.7"/>
<polygon fill="midnightblue" stroke="midnightblue" points="422.24,-274.97 426.99,-284.45 429.19,-274.08 422.24,-274.97"/>
</g>
<!-- Node3 -->
<g id="node3" class="node">
<title>Node3</title>
<g id="a_node3"><a xlink:href="classSlothSolver.html#aa9c78d816c02f2d4ab70af64cb3f7791" target="_top" xlink:title="Create the linear solver depending on SolverType.">
<polygon fill="none" stroke="black" points="0,-314 0,-333 131,-333 131,-314 0,-314"/>
<text text-anchor="middle" x="65.5" y="-321" font-family="serif" font-size="10.00">SlothSolver::get_value</text>
</a>
</g>
</g>
<!-- Node2&#45;&gt;Node3 -->
<g id="edge2" class="edge">
<title>Node2&#45;&gt;Node3</title>
<path fill="none" stroke="midnightblue" d="M171.07,-572.89C169.66,-571.82 168.3,-570.69 167,-569.5 92.38,-501.39 71.88,-369.78 67.51,-333.16"/>
<polygon fill="midnightblue" stroke="midnightblue" points="169.33,-575.93 179.62,-578.45 173.14,-570.07 169.33,-575.93"/>
</g>
<!-- Node4&#45;&gt;Node3 -->
<g id="edge4" class="edge">
<title>Node4&#45;&gt;Node3</title>
<path fill="none" stroke="midnightblue" d="M171.87,-524.21C170.18,-523.04 168.56,-521.8 167,-520.5 104.04,-467.7 76.11,-365.51 68.64,-333.4"/>
<polygon fill="midnightblue" stroke="midnightblue" points="170.33,-527.36 180.7,-529.5 173.92,-521.36 170.33,-527.36"/>
</g>
<!-- Node5&#45;&gt;Node3 -->
<g id="edge6" class="edge">
<title>Node5&#45;&gt;Node3</title>
<path fill="none" stroke="midnightblue" d="M173.44,-475.77C171.21,-474.44 169.06,-473.02 167,-471.5 115.01,-433.15 81.16,-359.42 70.29,-333.11"/>
<polygon fill="midnightblue" stroke="midnightblue" points="171.87,-478.9 182.35,-480.49 175.15,-472.72 171.87,-478.9"/>
</g>
<!-- Node6&#45;&gt;Node3 -->
<g id="edge8" class="edge">
<title>Node6&#45;&gt;Node3</title>
<path fill="none" stroke="midnightblue" d="M176.27,-427.45C173.08,-425.92 169.97,-424.27 167,-422.5 125.76,-397.93 88.76,-352.95 73.68,-333.22"/>
<polygon fill="midnightblue" stroke="midnightblue" points="174.91,-430.67 185.47,-431.48 177.72,-424.26 174.91,-430.67"/>
</g>
<!-- Node7&#45;&gt;Node3 -->
<g id="edge10" class="edge">
<title>Node7&#45;&gt;Node3</title>
<path fill="none" stroke="midnightblue" d="M182.02,-379.08C176.9,-377.3 171.84,-375.43 167,-373.5 136.77,-361.45 103.21,-343.85 83.53,-333.06"/>
<polygon fill="midnightblue" stroke="midnightblue" points="181.29,-382.53 191.88,-382.4 183.52,-375.89 181.29,-382.53"/>
</g>
<!-- Node8&#45;&gt;Node3 -->
<g id="edge12" class="edge">
<title>Node8&#45;&gt;Node3</title>
<path fill="none" stroke="midnightblue" d="M156.88,-336.12C148.25,-334.92 139.6,-333.71 131.27,-332.55"/>
<polygon fill="midnightblue" stroke="midnightblue" points="156.6,-339.62 166.99,-337.53 157.57,-332.68 156.6,-339.62"/>
</g>
<!-- Node9&#45;&gt;Node3 -->
<g id="edge14" class="edge">
<title>Node9&#45;&gt;Node3</title>
<path fill="none" stroke="midnightblue" d="M169.28,-309.72C156.59,-311.42 143.54,-313.17 131.18,-314.83"/>
<polygon fill="midnightblue" stroke="midnightblue" points="169.91,-313.17 179.36,-308.37 168.98,-306.23 169.91,-313.17"/>
</g>
<!-- Node10&#45;&gt;Node3 -->
<g id="edge16" class="edge">
<title>Node10&#45;&gt;Node3</title>
<path fill="none" stroke="midnightblue" d="M184.91,-268.87C178.82,-271 172.76,-273.22 167,-275.5 137.52,-287.17 104.56,-303.59 84.69,-313.88"/>
<polygon fill="midnightblue" stroke="midnightblue" points="186.12,-272.16 194.47,-265.63 183.87,-265.53 186.12,-272.16"/>
</g>
<!-- Node11&#45;&gt;Node3 -->
<g id="edge18" class="edge">
<title>Node11&#45;&gt;Node3</title>
<path fill="none" stroke="midnightblue" d="M178.3,-220.55C174.39,-222.38 170.59,-224.36 167,-226.5 126.39,-250.73 89.34,-294.33 73.98,-313.73"/>
<polygon fill="midnightblue" stroke="midnightblue" points="179.76,-223.73 187.57,-216.56 177,-217.3 179.76,-223.73"/>
</g>
<!-- Node12&#45;&gt;Node3 -->
<g id="edge20" class="edge">
<title>Node12&#45;&gt;Node3</title>
<path fill="none" stroke="midnightblue" d="M174.9,-172.32C172.15,-173.92 169.5,-175.64 167,-177.5 115.84,-215.44 81.7,-287.48 70.51,-313.67"/>
<polygon fill="midnightblue" stroke="midnightblue" points="176.68,-175.34 183.96,-167.64 173.47,-169.12 176.68,-175.34"/>
</g>
<!-- Node13&#45;&gt;Node3 -->
<g id="edge22" class="edge">
<title>Node13&#45;&gt;Node3</title>
<path fill="none" stroke="midnightblue" d="M176.4,-122.29C173.08,-124.11 169.92,-126.17 167,-128.5 103.23,-179.25 75.85,-281.42 68.58,-313.57"/>
<polygon fill="midnightblue" stroke="midnightblue" points="177.95,-125.43 185.5,-118 174.96,-119.1 177.95,-125.43"/>
</g>
<!-- Node14&#45;&gt;Node3 -->
<g id="edge24" class="edge">
<title>Node14&#45;&gt;Node3</title>
<path fill="none" stroke="midnightblue" d="M173.99,-84.01C171.53,-85.69 169.18,-87.52 167,-89.5 95.61,-154.26 72.93,-278.41 67.77,-313.84"/>
<polygon fill="midnightblue" stroke="midnightblue" points="175.92,-86.94 182.75,-78.84 172.36,-80.91 175.92,-86.94"/>
</g>
</g>
</svg>
