<?xml version="1.0" encoding="UTF-8" standalone="no"?>
<!DOCTYPE svg PUBLIC "-//W3C//DTD SVG 1.1//EN"
 "http://www.w3.org/Graphics/SVG/1.1/DTD/svg11.dtd">
<!-- Generated by graphviz version 2.43.0 (0)
 -->
<!-- Title: PrecondHypreBoomerAMG::create_solver Pages: 1 -->
<svg width="393pt" height="225pt"
 viewBox="0.00 0.00 393.00 225.00" xmlns="http://www.w3.org/2000/svg" xmlns:xlink="http://www.w3.org/1999/xlink">
<g id="graph0" class="graph" transform="scale(1 1) rotate(0) translate(4 221)">
<title>PrecondHypreBoomerAMG::create_solver</title>
<!-- Node1 -->
<g id="node1" class="node">
<title>Node1</title>
<g id="a_node1"><a xlink:title="Create preconditioner based of the PreconditionerType and a list of Parameters.">
<polygon fill="#bfbfbf" stroke="black" points="0,-88 0,-118 157,-118 157,-88 0,-88"/>
<text text-anchor="start" x="8" y="-106" font-family="serif" font-size="10.00">PrecondHypreBoomerAMG</text>
<text text-anchor="middle" x="78.5" y="-95" font-family="serif" font-size="10.00">::create_solver</text>
</a>
</g>
</g>
<!-- Node2 -->
<g id="node2" class="node">
<title>Node2</title>
<g id="a_node2"><a xlink:href="classSlothInfo.html#a854d3cafdb9f5a77f1063a27d2a27e04" target="_top" xlink:title="Print information on Debug mode.">
<polygon fill="none" stroke="black" points="238,-197.5 238,-216.5 340,-216.5 340,-197.5 238,-197.5"/>
<text text-anchor="middle" x="289" y="-204.5" font-family="serif" font-size="10.00">SlothInfo::debug</text>
</a>
</g>
</g>
<!-- Node1&#45;&gt;Node2 -->
<g id="edge1" class="edge">
<title>Node1&#45;&gt;Node2</title>
<path fill="none" stroke="midnightblue" d="M94.94,-118.2C115.51,-137.54 153.89,-170.53 193,-188 203.92,-192.88 216.1,-196.51 228,-199.22"/>
<polygon fill="midnightblue" stroke="midnightblue" points="227.39,-202.66 237.89,-201.28 228.82,-195.81 227.39,-202.66"/>
</g>
<!-- Node3 -->
<g id="node3" class="node">
<title>Node3</title>
<g id="a_node3"><a xlink:href="classSolverBase.html#a52edc30e08c2552f8ceb3d9ea928b059" target="_top" xlink:title=" ">
<polygon fill="none" stroke="black" points="193,-137.5 193,-178.5 385,-178.5 385,-137.5 193,-137.5"/>
<text text-anchor="start" x="201" y="-166.5" font-family="serif" font-size="10.00">SolverBase&lt; mfem::HypreBoomer</text>
<text text-anchor="start" x="201" y="-155.5" font-family="serif" font-size="10.00">AMG, HyprePreconditionerType</text>
<text text-anchor="middle" x="289" y="-144.5" font-family="serif" font-size="10.00"> &gt;::get_description</text>
</a>
</g>
</g>
<!-- Node1&#45;&gt;Node3 -->
<g id="edge2" class="edge">
<title>Node1&#45;&gt;Node3</title>
<path fill="none" stroke="midnightblue" d="M136.47,-118.03C156.13,-123.21 178.63,-129.15 200.18,-134.83"/>
<polygon fill="midnightblue" stroke="midnightblue" points="199.43,-138.26 209.99,-137.42 201.22,-131.49 199.43,-138.26"/>
</g>
<!-- Node4 -->
<g id="node4" class="node">
<title>Node4</title>
<g id="a_node4"><a xlink:href="classParameters.html#ae3b314c5ebc3fde8684b0634b2406da6" target="_top" xlink:title=" ">
<polygon fill="none" stroke="black" points="221.5,-88 221.5,-118 356.5,-118 356.5,-88 221.5,-88"/>
<text text-anchor="start" x="229.5" y="-106" font-family="serif" font-size="10.00">Parameters::get_param</text>
<text text-anchor="middle" x="289" y="-95" font-family="serif" font-size="10.00">_value</text>
</a>
</g>
</g>
<!-- Node1&#45;&gt;Node4 -->
<g id="edge3" class="edge">
<title>Node1&#45;&gt;Node4</title>
<path fill="none" stroke="midnightblue" d="M157.14,-103C174.75,-103 193.45,-103 211.04,-103"/>
<polygon fill="midnightblue" stroke="midnightblue" points="211.25,-106.5 221.25,-103 211.25,-99.5 211.25,-106.5"/>
</g>
<!-- Node5 -->
<g id="node5" class="node">
<title>Node5</title>
<g id="a_node5"><a xlink:href="classParameters.html#a857c53fbe60d7bd2f91e91626f85b6d2" target="_top" xlink:title=" ">
<polygon fill="none" stroke="black" points="221.5,-39 221.5,-69 356.5,-69 356.5,-39 221.5,-39"/>
<text text-anchor="start" x="229.5" y="-57" font-family="serif" font-size="10.00">Parameters::get_param</text>
<text text-anchor="middle" x="289" y="-46" font-family="serif" font-size="10.00">_value_or_default</text>
</a>
</g>
</g>
<!-- Node1&#45;&gt;Node5 -->
<g id="edge4" class="edge">
<title>Node1&#45;&gt;Node5</title>
<path fill="none" stroke="midnightblue" d="M143.47,-87.97C165.89,-82.7 191.24,-76.74 214.38,-71.3"/>
<polygon fill="midnightblue" stroke="midnightblue" points="215.21,-74.7 224.15,-69.01 213.61,-67.89 215.21,-74.7"/>
</g>
<!-- Node6 -->
<g id="node6" class="node">
<title>Node6</title>
<g id="a_node6"><a xlink:href="UtilsForData_8hpp.html#a624f01f99bc5aadf3d7c3b7c8c7c4ac7" target="_top" xlink:title="Check the level of verbosity.">
<polygon fill="none" stroke="black" points="238.5,-0.5 238.5,-19.5 339.5,-19.5 339.5,-0.5 238.5,-0.5"/>
<text text-anchor="middle" x="289" y="-7.5" font-family="serif" font-size="10.00">verbose_at_least</text>
</a>
</g>
</g>
<!-- Node1&#45;&gt;Node6 -->
<g id="edge5" class="edge">
<title>Node1&#45;&gt;Node6</title>
<path fill="none" stroke="midnightblue" d="M98.38,-87.75C119.98,-71.08 157.02,-44.77 193,-30 204.08,-25.45 216.34,-21.88 228.26,-19.11"/>
<polygon fill="midnightblue" stroke="midnightblue" points="229.13,-22.5 238.16,-16.96 227.65,-15.66 229.13,-22.5"/>
</g>
</g>
</svg>
