<?xml version="1.0" encoding="UTF-8" standalone="no"?>
<!DOCTYPE svg PUBLIC "-//W3C//DTD SVG 1.1//EN"
 "http://www.w3.org/Graphics/SVG/1.1/DTD/svg11.dtd">
<!-- Generated by graphviz version 2.43.0 (0)
 -->
<!-- Title: SolverUMFPACK::create_solver Pages: 1 -->
<svg width="353pt" height="225pt"
 viewBox="0.00 0.00 353.00 225.00" xmlns="http://www.w3.org/2000/svg" xmlns:xlink="http://www.w3.org/1999/xlink">
<g id="graph0" class="graph" transform="scale(1 1) rotate(0) translate(4 221)">
<title>SolverUMFPACK::create_solver</title>
<!-- Node1 -->
<g id="node1" class="node">
<title>Node1</title>
<g id="a_node1"><a xlink:title="Create a direct solver based of the SolverType and a list of Parameters.">
<polygon fill="#bfbfbf" stroke="black" points="0,-88 0,-118 140,-118 140,-88 0,-88"/>
<text text-anchor="start" x="8" y="-106" font-family="serif" font-size="10.00">SolverUMFPACK::create</text>
<text text-anchor="middle" x="70" y="-95" font-family="serif" font-size="10.00">_solver</text>
</a>
</g>
</g>
<!-- Node2 -->
<g id="node2" class="node">
<title>Node2</title>
<g id="a_node2"><a xlink:href="classSlothInfo.html#a854d3cafdb9f5a77f1063a27d2a27e04" target="_top" xlink:title="Print information on Debug mode.">
<polygon fill="none" stroke="black" points="209.5,-197.5 209.5,-216.5 311.5,-216.5 311.5,-197.5 209.5,-197.5"/>
<text text-anchor="middle" x="260.5" y="-204.5" font-family="serif" font-size="10.00">SlothInfo::debug</text>
</a>
</g>
</g>
<!-- Node1&#45;&gt;Node2 -->
<g id="edge1" class="edge">
<title>Node1&#45;&gt;Node2</title>
<path fill="none" stroke="midnightblue" d="M85.12,-118.09C103.98,-137.31 139.29,-170.17 176,-188 183.32,-191.56 191.33,-194.46 199.4,-196.83"/>
<polygon fill="midnightblue" stroke="midnightblue" points="198.66,-200.25 209.22,-199.46 200.47,-193.49 198.66,-200.25"/>
</g>
<!-- Node3 -->
<g id="node3" class="node">
<title>Node3</title>
<g id="a_node3"><a xlink:href="classSolverBase.html#a52edc30e08c2552f8ceb3d9ea928b059" target="_top" xlink:title=" ">
<polygon fill="none" stroke="black" points="176,-137.5 176,-178.5 345,-178.5 345,-137.5 176,-137.5"/>
<text text-anchor="start" x="184" y="-166.5" font-family="serif" font-size="10.00">SolverBase&lt; mfem::UMFPack</text>
<text text-anchor="start" x="184" y="-155.5" font-family="serif" font-size="10.00">Solver, DirectSolverType</text>
<text text-anchor="middle" x="260.5" y="-144.5" font-family="serif" font-size="10.00"> &gt;::get_description</text>
</a>
</g>
</g>
<!-- Node1&#45;&gt;Node3 -->
<g id="edge2" class="edge">
<title>Node1&#45;&gt;Node3</title>
<path fill="none" stroke="midnightblue" d="M122.51,-118.03C140.04,-123.14 160.07,-128.99 179.31,-134.6"/>
<polygon fill="midnightblue" stroke="midnightblue" points="178.39,-137.98 188.97,-137.42 180.36,-131.26 178.39,-137.98"/>
</g>
<!-- Node4 -->
<g id="node4" class="node">
<title>Node4</title>
<g id="a_node4"><a xlink:href="classParameters.html#ae3b314c5ebc3fde8684b0634b2406da6" target="_top" xlink:title=" ">
<polygon fill="none" stroke="black" points="193,-88 193,-118 328,-118 328,-88 193,-88"/>
<text text-anchor="start" x="201" y="-106" font-family="serif" font-size="10.00">Parameters::get_param</text>
<text text-anchor="middle" x="260.5" y="-95" font-family="serif" font-size="10.00">_value</text>
</a>
</g>
</g>
<!-- Node1&#45;&gt;Node4 -->
<g id="edge3" class="edge">
<title>Node1&#45;&gt;Node4</title>
<path fill="none" stroke="midnightblue" d="M140.12,-103C153.99,-103 168.64,-103 182.74,-103"/>
<polygon fill="midnightblue" stroke="midnightblue" points="182.9,-106.5 192.9,-103 182.9,-99.5 182.9,-106.5"/>
</g>
<!-- Node5 -->
<g id="node5" class="node">
<title>Node5</title>
<g id="a_node5"><a xlink:href="classParameters.html#a857c53fbe60d7bd2f91e91626f85b6d2" target="_top" xlink:title=" ">
<polygon fill="none" stroke="black" points="193,-39 193,-69 328,-69 328,-39 193,-39"/>
<text text-anchor="start" x="201" y="-57" font-family="serif" font-size="10.00">Parameters::get_param</text>
<text text-anchor="middle" x="260.5" y="-46" font-family="serif" font-size="10.00">_value_or_default</text>
</a>
</g>
</g>
<!-- Node1&#45;&gt;Node5 -->
<g id="edge4" class="edge">
<title>Node1&#45;&gt;Node5</title>
<path fill="none" stroke="midnightblue" d="M128.84,-87.97C148.74,-82.79 171.2,-76.95 191.82,-71.59"/>
<polygon fill="midnightblue" stroke="midnightblue" points="192.97,-74.91 201.77,-69.01 191.21,-68.13 192.97,-74.91"/>
</g>
<!-- Node6 -->
<g id="node6" class="node">
<title>Node6</title>
<g id="a_node6"><a xlink:href="UtilsForData_8hpp.html#a624f01f99bc5aadf3d7c3b7c8c7c4ac7" target="_top" xlink:title="Check the level of verbosity.">
<polygon fill="none" stroke="black" points="210,-0.5 210,-19.5 311,-19.5 311,-0.5 210,-0.5"/>
<text text-anchor="middle" x="260.5" y="-7.5" font-family="serif" font-size="10.00">verbose_at_least</text>
</a>
</g>
</g>
<!-- Node1&#45;&gt;Node6 -->
<g id="edge5" class="edge">
<title>Node1&#45;&gt;Node6</title>
<path fill="none" stroke="midnightblue" d="M88.34,-87.86C108.2,-71.29 142.37,-45.07 176,-30 183.63,-26.58 191.92,-23.7 200.21,-21.29"/>
<polygon fill="midnightblue" stroke="midnightblue" points="201.18,-24.65 209.92,-18.66 199.35,-17.9 201.18,-24.65"/>
</g>
</g>
</svg>
