<?xml version="1.0" encoding="UTF-8" standalone="no"?>
<!DOCTYPE svg PUBLIC "-//W3C//DTD SVG 1.1//EN"
 "http://www.w3.org/Graphics/SVG/1.1/DTD/svg11.dtd">
<!-- Generated by graphviz version 2.43.0 (0)
 -->
<!-- Title: SolverLBFGS::create_solver Pages: 1 -->
<svg width="301pt" height="127pt"
 viewBox="0.00 0.00 301.00 126.50" xmlns="http://www.w3.org/2000/svg" xmlns:xlink="http://www.w3.org/1999/xlink">
<g id="graph0" class="graph" transform="scale(1 1) rotate(0) translate(4 122.5)">
<title>SolverLBFGS::create_solver</title>
<!-- Node1 -->
<g id="node1" class="node">
<title>Node1</title>
<g id="a_node1"><a xlink:title="Create non linear solver based of the NLSolverType and a list of Parameters.">
<polygon fill="#bfbfbf" stroke="black" points="0,-39 0,-69 122,-69 122,-39 0,-39"/>
<text text-anchor="start" x="8" y="-57" font-family="serif" font-size="10.00">SolverLBFGS::create</text>
<text text-anchor="middle" x="61" y="-46" font-family="serif" font-size="10.00">_solver</text>
</a>
</g>
</g>
<!-- Node2 -->
<g id="node2" class="node">
<title>Node2</title>
<g id="a_node2"><a xlink:href="classParameters.html#ae3b314c5ebc3fde8684b0634b2406da6" target="_top" xlink:title=" ">
<polygon fill="none" stroke="black" points="158,-88 158,-118 293,-118 293,-88 158,-88"/>
<text text-anchor="start" x="166" y="-106" font-family="serif" font-size="10.00">Parameters::get_param</text>
<text text-anchor="middle" x="225.5" y="-95" font-family="serif" font-size="10.00">_value</text>
</a>
</g>
</g>
<!-- Node1&#45;&gt;Node2 -->
<g id="edge1" class="edge">
<title>Node1&#45;&gt;Node2</title>
<path fill="none" stroke="midnightblue" d="M112.08,-69.1C128.69,-74.11 147.34,-79.73 164.6,-84.94"/>
<polygon fill="midnightblue" stroke="midnightblue" points="164,-88.41 174.58,-87.95 166.02,-81.71 164,-88.41"/>
</g>
<!-- Node3 -->
<g id="node3" class="node">
<title>Node3</title>
<g id="a_node3"><a xlink:href="classParameters.html#a857c53fbe60d7bd2f91e91626f85b6d2" target="_top" xlink:title=" ">
<polygon fill="none" stroke="black" points="158,-39 158,-69 293,-69 293,-39 158,-39"/>
<text text-anchor="start" x="166" y="-57" font-family="serif" font-size="10.00">Parameters::get_param</text>
<text text-anchor="middle" x="225.5" y="-46" font-family="serif" font-size="10.00">_value_or_default</text>
</a>
</g>
</g>
<!-- Node1&#45;&gt;Node3 -->
<g id="edge2" class="edge">
<title>Node1&#45;&gt;Node3</title>
<path fill="none" stroke="midnightblue" d="M122.05,-54C130.43,-54 139.14,-54 147.77,-54"/>
<polygon fill="midnightblue" stroke="midnightblue" points="147.86,-57.5 157.86,-54 147.86,-50.5 147.86,-57.5"/>
</g>
<!-- Node4 -->
<g id="node4" class="node">
<title>Node4</title>
<g id="a_node4"><a xlink:href="UtilsForData_8hpp.html#a624f01f99bc5aadf3d7c3b7c8c7c4ac7" target="_top" xlink:title="Check the level of verbosity.">
<polygon fill="none" stroke="black" points="175,-0.5 175,-19.5 276,-19.5 276,-0.5 175,-0.5"/>
<text text-anchor="middle" x="225.5" y="-7.5" font-family="serif" font-size="10.00">verbose_at_least</text>
</a>
</g>
</g>
<!-- Node1&#45;&gt;Node4 -->
<g id="edge3" class="edge">
<title>Node1&#45;&gt;Node4</title>
<path fill="none" stroke="midnightblue" d="M117.47,-38.98C137.67,-33.51 160.24,-27.4 179.43,-22.2"/>
<polygon fill="midnightblue" stroke="midnightblue" points="180.39,-25.57 189.13,-19.58 178.56,-18.81 180.39,-25.57"/>
</g>
</g>
</svg>
