<?xml version="1.0" encoding="UTF-8" standalone="no"?>
<!DOCTYPE svg PUBLIC "-//W3C//DTD SVG 1.1//EN"
 "http://www.w3.org/Graphics/SVG/1.1/DTD/svg11.dtd">
<!-- Generated by graphviz version 2.43.0 (0)
 -->
<!-- Title: Parameters::get_param_value Pages: 1 -->
<!--zoomable 715 -->
<svg id="main" version="1.1" xmlns="http://www.w3.org/2000/svg" xmlns:xlink="http://www.w3.org/1999/xlink" xml:space="preserve" onload="init(evt)">
<style type="text/css"><![CDATA[
.edge:hover path { stroke: red; }
.edge:hover polygon { stroke: red; fill: red; }
]]></style>
<script type="text/javascript"><![CDATA[
var edges = document.getElementsByTagName('g');
if (edges && edges.length) {
  for (var i=0;i<edges.length;i++) {
    if (edges[i].id.substr(0,4)=='edge') {
      edges[i].setAttribute('class','edge');
    }
  }
}
]]></script>
        <defs>
                <circle id="rim" cx="0" cy="0" r="7"/>
                <circle id="rim2" cx="0" cy="0" r="3.5"/>
                <g id="zoomPlus">
                        <use xlink:href="#rim" fill="#404040">
                                <set attributeName="fill" to="#808080" begin="zoomplus.mouseover" end="zoomplus.mouseout"/>
                        </use>
                        <path d="M-4,0h8M0,-4v8" fill="none" stroke="white" stroke-width="1.5" pointer-events="none"/>
                </g>
                <g id="zoomMin">
                        <use xlink:href="#rim" fill="#404040">
                                <set attributeName="fill" to="#808080" begin="zoomminus.mouseover" end="zoomminus.mouseout"/>
                        </use>
                        <path d="M-4,0h8" fill="none" stroke="white" stroke-width="1.5" pointer-events="none"/>
                </g>
                <g id="dirArrow">
                        <path fill="none" stroke="white" stroke-width="1.5" d="M0,-3.0v7 M-2.5,-0.5L0,-3.0L2.5,-0.5"/>
                </g>
               <g id="resetDef">
                       <use xlink:href="#rim2" fill="#404040">
                               <set attributeName="fill" to="#808080" begin="reset.mouseover" end="reset.mouseout"/>
                       </use>
               </g>
        </defs>

<script type="text/javascript">
var viewWidth = 505;
var viewHeight = 715;
var sectionId = 'dynsection-1';
</script>
<script xlink:href="svgpan.js"/>
<svg id="graph" class="graph">
<g id="viewport">
<title>Parameters::get_param_value</title>
<!-- Node1 -->
<g id="node1" class="node">
<title>Node1</title>
<g id="a_node1"><a xlink:title=" ">
<polygon fill="#bfbfbf" stroke="black" points="362,-333.5 362,-363.5 497,-363.5 497,-333.5 362,-333.5"/>
<text text-anchor="start" x="370" y="-351.5" font-family="serif" font-size="10.00">Parameters::get_param</text>
<text text-anchor="middle" x="429.5" y="-340.5" font-family="serif" font-size="10.00">_value</text>
</a>
</g>
</g>
<!-- Node2 -->
<g id="node2" class="node">
<title>Node2</title>
<g id="a_node2"><a xlink:href="classSolverUMFPACK.html#a83fe21379896c4df62b1df2947767d2e" target="_top" xlink:title="Create a direct solver based of the SolverType and a list of Parameters.">
<polygon fill="none" stroke="black" points="176.5,-676.5 176.5,-706.5 316.5,-706.5 316.5,-676.5 176.5,-676.5"/>
<text text-anchor="start" x="184.5" y="-694.5" font-family="serif" font-size="10.00">SolverUMFPACK::create</text>
<text text-anchor="middle" x="246.5" y="-683.5" font-family="serif" font-size="10.00">_solver</text>
</a>
</g>
</g>
<!-- Node1&#45;&gt;Node2 -->
<g id="edge1" class="edge">
<title>Node1&#45;&gt;Node2</title>
<path fill="none" stroke="midnightblue" d="M427.93,-373.72C425.18,-433.48 409.84,-584.84 326,-667.5 322.55,-670.9 318.63,-673.82 314.43,-676.33"/>
<polygon fill="midnightblue" stroke="midnightblue" points="431.43,-373.79 428.31,-363.67 424.43,-373.53 431.43,-373.79"/>
</g>
<!-- Node4 -->
<g id="node4" class="node">
<title>Node4</title>
<g id="a_node4"><a xlink:href="classPrecondHypreILU.html#a7e7defa37401cea9cac7183a5994b13b" target="_top" xlink:title="Create preconditioner based of the PreconditionerType and a list of Parameters.">
<polygon fill="none" stroke="black" points="173.5,-627.5 173.5,-657.5 319.5,-657.5 319.5,-627.5 173.5,-627.5"/>
<text text-anchor="start" x="181.5" y="-645.5" font-family="serif" font-size="10.00">PrecondHypreILU::create</text>
<text text-anchor="middle" x="246.5" y="-634.5" font-family="serif" font-size="10.00">_solver</text>
</a>
</g>
</g>
<!-- Node1&#45;&gt;Node4 -->
<g id="edge3" class="edge">
<title>Node1&#45;&gt;Node4</title>
<path fill="none" stroke="midnightblue" d="M426.21,-373.79C420.04,-426.93 398.28,-550.85 326,-618.5 322.36,-621.91 318.25,-624.83 313.86,-627.34"/>
<polygon fill="midnightblue" stroke="midnightblue" points="429.72,-373.89 427.3,-363.57 422.76,-373.14 429.72,-373.89"/>
</g>
<!-- Node5 -->
<g id="node5" class="node">
<title>Node5</title>
<g id="a_node5"><a xlink:href="classPrecondHypreSmoother.html#aadca5acda7af3396285f385654c24a1b" target="_top" xlink:title="Create preconditioner based of the PreconditionerType and a list of Parameters.">
<polygon fill="none" stroke="black" points="176.5,-578.5 176.5,-608.5 316.5,-608.5 316.5,-578.5 176.5,-578.5"/>
<text text-anchor="start" x="184.5" y="-596.5" font-family="serif" font-size="10.00">PrecondHypreSmoother</text>
<text text-anchor="middle" x="246.5" y="-585.5" font-family="serif" font-size="10.00">::create_solver</text>
</a>
</g>
</g>
<!-- Node1&#45;&gt;Node5 -->
<g id="edge5" class="edge">
<title>Node1&#45;&gt;Node5</title>
<path fill="none" stroke="midnightblue" d="M423.84,-373.62C414.04,-419.36 386.97,-516.39 326,-569.5 322.02,-572.96 317.56,-575.93 312.83,-578.46"/>
<polygon fill="midnightblue" stroke="midnightblue" points="427.3,-374.16 425.87,-363.66 420.44,-372.76 427.3,-374.16"/>
</g>
<!-- Node6 -->
<g id="node6" class="node">
<title>Node6</title>
<g id="a_node6"><a xlink:href="classPrecondHypreBoomerAMG.html#a9274064ab381792bf2f034344d2d621d" target="_top" xlink:title="Create preconditioner based of the PreconditionerType and a list of Parameters.">
<polygon fill="none" stroke="black" points="168,-529.5 168,-559.5 325,-559.5 325,-529.5 168,-529.5"/>
<text text-anchor="start" x="176" y="-547.5" font-family="serif" font-size="10.00">PrecondHypreBoomerAMG</text>
<text text-anchor="middle" x="246.5" y="-536.5" font-family="serif" font-size="10.00">::create_solver</text>
</a>
</g>
</g>
<!-- Node1&#45;&gt;Node6 -->
<g id="edge7" class="edge">
<title>Node1&#45;&gt;Node6</title>
<path fill="none" stroke="midnightblue" d="M420.32,-373.3C406.71,-410.72 375.88,-481.38 326,-520.5 321.63,-523.93 316.76,-526.87 311.66,-529.39"/>
<polygon fill="midnightblue" stroke="midnightblue" points="423.68,-374.28 423.7,-363.68 417.08,-371.95 423.68,-374.28"/>
</g>
<!-- Node7 -->
<g id="node7" class="node">
<title>Node7</title>
<g id="a_node7"><a xlink:href="classPrecondHypreDiagScale.html#addd6474561b2dc1caef97fbf187bae91" target="_top" xlink:title="Create preconditioner based of the PreconditionerType and a list of Parameters.">
<polygon fill="none" stroke="black" points="175.5,-480.5 175.5,-510.5 317.5,-510.5 317.5,-480.5 175.5,-480.5"/>
<text text-anchor="start" x="183.5" y="-498.5" font-family="serif" font-size="10.00">PrecondHypreDiagScale</text>
<text text-anchor="middle" x="246.5" y="-487.5" font-family="serif" font-size="10.00">::create_solver</text>
</a>
</g>
</g>
<!-- Node1&#45;&gt;Node7 -->
<g id="edge9" class="edge">
<title>Node1&#45;&gt;Node7</title>
<path fill="none" stroke="midnightblue" d="M414.56,-372.5C397.23,-400.28 365.11,-445.52 326,-471.5 320.9,-474.89 315.29,-477.82 309.5,-480.35"/>
<polygon fill="midnightblue" stroke="midnightblue" points="417.65,-374.16 419.86,-363.8 411.67,-370.52 417.65,-374.16"/>
</g>
<!-- Node8 -->
<g id="node8" class="node">
<title>Node8</title>
<g id="a_node8"><a xlink:href="classSolverHyprePCG.html#af4a480332bac2a5014c3e2a84f3403ba" target="_top" xlink:title="Create a iterative solver based of the SolverType and a list of Parameters.">
<polygon fill="none" stroke="black" points="176,-431.5 176,-461.5 317,-461.5 317,-431.5 176,-431.5"/>
<text text-anchor="start" x="184" y="-449.5" font-family="serif" font-size="10.00">SolverHyprePCG::create</text>
<text text-anchor="middle" x="246.5" y="-438.5" font-family="serif" font-size="10.00">_solver</text>
</a>
</g>
</g>
<!-- Node1&#45;&gt;Node8 -->
<g id="edge11" class="edge">
<title>Node1&#45;&gt;Node8</title>
<path fill="none" stroke="midnightblue" d="M403.22,-370.4C383.35,-386.67 354.38,-408.4 326,-422.5 319.24,-425.86 311.91,-428.86 304.54,-431.5"/>
<polygon fill="midnightblue" stroke="midnightblue" points="405.7,-372.89 411.15,-363.8 401.22,-367.51 405.7,-372.89"/>
</g>
<!-- Node9 -->
<g id="node9" class="node">
<title>Node9</title>
<g id="a_node9"><a xlink:href="classSolverHypreGMRES.html#a94293cedbdd903adcd5866ce3554ef10" target="_top" xlink:title="Create a iterative solver based of the SolverType and a list of Parameters.">
<polygon fill="none" stroke="black" points="167,-382.5 167,-412.5 326,-412.5 326,-382.5 167,-382.5"/>
<text text-anchor="start" x="175" y="-400.5" font-family="serif" font-size="10.00">SolverHypreGMRES::create</text>
<text text-anchor="middle" x="246.5" y="-389.5" font-family="serif" font-size="10.00">_solver</text>
</a>
</g>
</g>
<!-- Node1&#45;&gt;Node9 -->
<g id="edge13" class="edge">
<title>Node1&#45;&gt;Node9</title>
<path fill="none" stroke="midnightblue" d="M362.94,-366.25C343.32,-371.56 322.01,-377.33 303.1,-382.45"/>
<polygon fill="midnightblue" stroke="midnightblue" points="363.98,-369.59 372.72,-363.6 362.15,-362.84 363.98,-369.59"/>
</g>
<!-- Node10 -->
<g id="node10" class="node">
<title>Node10</title>
<g id="a_node10"><a xlink:href="classSolverHypreFGMRES.html#a54588ca870f9439ec8f4bccd7d8615a8" target="_top" xlink:title="Create a iterative solver based of the SolverType and a list of Parameters.">
<polygon fill="none" stroke="black" points="179.5,-333.5 179.5,-363.5 313.5,-363.5 313.5,-333.5 179.5,-333.5"/>
<text text-anchor="start" x="187.5" y="-351.5" font-family="serif" font-size="10.00">SolverHypreFGMRES::</text>
<text text-anchor="middle" x="246.5" y="-340.5" font-family="serif" font-size="10.00">create_solver</text>
</a>
</g>
</g>
<!-- Node1&#45;&gt;Node10 -->
<g id="edge15" class="edge">
<title>Node1&#45;&gt;Node10</title>
<path fill="none" stroke="midnightblue" d="M351.8,-348.5C339.13,-348.5 326.08,-348.5 313.68,-348.5"/>
<polygon fill="midnightblue" stroke="midnightblue" points="351.87,-352 361.87,-348.5 351.87,-345 351.87,-352"/>
</g>
<!-- Node11 -->
<g id="node11" class="node">
<title>Node11</title>
<g id="a_node11"><a xlink:href="classPrecondDSmoother.html#a286f01fb24a1d08cc00950b04e9e0bfc" target="_top" xlink:title="Create preconditioner based of the PreconditionerType and a list of Parameters.">
<polygon fill="none" stroke="black" points="169.5,-284.5 169.5,-314.5 323.5,-314.5 323.5,-284.5 169.5,-284.5"/>
<text text-anchor="start" x="177.5" y="-302.5" font-family="serif" font-size="10.00">PrecondDSmoother::create</text>
<text text-anchor="middle" x="246.5" y="-291.5" font-family="serif" font-size="10.00">_solver</text>
</a>
</g>
</g>
<!-- Node1&#45;&gt;Node11 -->
<g id="edge17" class="edge">
<title>Node1&#45;&gt;Node11</title>
<path fill="none" stroke="midnightblue" d="M362.94,-330.75C343.32,-325.44 322.01,-319.67 303.1,-314.55"/>
<polygon fill="midnightblue" stroke="midnightblue" points="362.15,-334.16 372.72,-333.4 363.98,-327.41 362.15,-334.16"/>
</g>
<!-- Node12 -->
<g id="node12" class="node">
<title>Node12</title>
<g id="a_node12"><a xlink:href="classSolverBICGSTAB.html#a088138ab2b4e2295192b98abd8e4eefc" target="_top" xlink:title="Create a iterative solver based of the SolverType and a list of Parameters.">
<polygon fill="none" stroke="black" points="176,-235.5 176,-265.5 317,-265.5 317,-235.5 176,-235.5"/>
<text text-anchor="start" x="184" y="-253.5" font-family="serif" font-size="10.00">SolverBICGSTAB::create</text>
<text text-anchor="middle" x="246.5" y="-242.5" font-family="serif" font-size="10.00">_solver</text>
</a>
</g>
</g>
<!-- Node1&#45;&gt;Node12 -->
<g id="edge19" class="edge">
<title>Node1&#45;&gt;Node12</title>
<path fill="none" stroke="midnightblue" d="M403.12,-327.01C383.2,-311.02 354.21,-289.6 326,-275.5 318.58,-271.79 310.49,-268.48 302.42,-265.57"/>
<polygon fill="midnightblue" stroke="midnightblue" points="401.11,-329.89 411.08,-333.5 405.54,-324.46 401.11,-329.89"/>
</g>
<!-- Node13 -->
<g id="node13" class="node">
<title>Node13</title>
<g id="a_node13"><a xlink:href="classSolverMINRES.html#ace4d6324acb77a33354204e692a2463f" target="_top" xlink:title=" ">
<polygon fill="none" stroke="black" points="181,-186.5 181,-216.5 312,-216.5 312,-186.5 181,-186.5"/>
<text text-anchor="start" x="189" y="-204.5" font-family="serif" font-size="10.00">SolverMINRES::create</text>
<text text-anchor="middle" x="246.5" y="-193.5" font-family="serif" font-size="10.00">_solver</text>
</a>
</g>
</g>
<!-- Node1&#45;&gt;Node13 -->
<g id="edge21" class="edge">
<title>Node1&#45;&gt;Node13</title>
<path fill="none" stroke="midnightblue" d="M414.46,-324.78C397.04,-297.3 364.82,-252.5 326,-226.5 320.3,-222.68 313.97,-219.41 307.46,-216.63"/>
<polygon fill="midnightblue" stroke="midnightblue" points="411.55,-326.72 419.79,-333.38 417.5,-323.03 411.55,-326.72"/>
</g>
<!-- Node14 -->
<g id="node14" class="node">
<title>Node14</title>
<g id="a_node14"><a xlink:href="classSolverCG.html#a22bb7e38585bc24764881aa0f5aa200c" target="_top" xlink:title=" ">
<polygon fill="none" stroke="black" points="177.5,-148 177.5,-167 315.5,-167 315.5,-148 177.5,-148"/>
<text text-anchor="middle" x="246.5" y="-155" font-family="serif" font-size="10.00">SolverCG::create_solver</text>
</a>
</g>
</g>
<!-- Node1&#45;&gt;Node14 -->
<g id="edge23" class="edge">
<title>Node1&#45;&gt;Node14</title>
<path fill="none" stroke="midnightblue" d="M420.6,-323.83C407.29,-286.31 376.75,-215.29 326,-177.5 320.13,-173.13 313.41,-169.71 306.43,-167.04"/>
<polygon fill="midnightblue" stroke="midnightblue" points="417.35,-325.14 423.9,-333.47 423.97,-322.87 417.35,-325.14"/>
</g>
<!-- Node15 -->
<g id="node15" class="node">
<title>Node15</title>
<g id="a_node15"><a xlink:href="classSolverGMRES.html#aea5f0ae2948f5e66d2ef5d508ce61f68" target="_top" xlink:title=" ">
<polygon fill="none" stroke="black" points="183,-98.5 183,-128.5 310,-128.5 310,-98.5 183,-98.5"/>
<text text-anchor="start" x="191" y="-116.5" font-family="serif" font-size="10.00">SolverGMRES::create</text>
<text text-anchor="middle" x="246.5" y="-105.5" font-family="serif" font-size="10.00">_solver</text>
</a>
</g>
</g>
<!-- Node1&#45;&gt;Node15 -->
<g id="edge25" class="edge">
<title>Node1&#45;&gt;Node15</title>
<path fill="none" stroke="midnightblue" d="M423.1,-323.44C412.35,-279.57 384.14,-188.73 326,-138.5 321.24,-134.39 315.79,-130.95 310.04,-128.07"/>
<polygon fill="midnightblue" stroke="midnightblue" points="419.72,-324.35 425.41,-333.29 426.53,-322.76 419.72,-324.35"/>
</g>
<!-- Node16 -->
<g id="node16" class="node">
<title>Node16</title>
<g id="a_node16"><a xlink:href="classSolverNewton.html#ac34b1de15feb99f5539ab9007cf37800" target="_top" xlink:title="Create non linear solver based of the NLSolverType and a list of Parameters.">
<polygon fill="none" stroke="black" points="183.5,-49.5 183.5,-79.5 309.5,-79.5 309.5,-49.5 183.5,-49.5"/>
<text text-anchor="start" x="191.5" y="-67.5" font-family="serif" font-size="10.00">SolverNewton::create</text>
<text text-anchor="middle" x="246.5" y="-56.5" font-family="serif" font-size="10.00">_solver</text>
</a>
</g>
</g>
<!-- Node1&#45;&gt;Node16 -->
<g id="edge27" class="edge">
<title>Node1&#45;&gt;Node16</title>
<path fill="none" stroke="midnightblue" d="M425.68,-323.23C418.58,-271.78 395.32,-154.22 326,-89.5 321.19,-85.01 315.58,-81.33 309.6,-78.3"/>
<polygon fill="midnightblue" stroke="midnightblue" points="422.24,-323.97 426.99,-333.45 429.19,-323.08 422.24,-323.97"/>
</g>
<!-- Node17 -->
<g id="node17" class="node">
<title>Node17</title>
<g id="a_node17"><a xlink:href="classSolverLBFGS.html#a507c2bb2c75c19d0304b42dc8f9159de" target="_top" xlink:title="Create non linear solver based of the NLSolverType and a list of Parameters.">
<polygon fill="none" stroke="black" points="185.5,-0.5 185.5,-30.5 307.5,-30.5 307.5,-0.5 185.5,-0.5"/>
<text text-anchor="start" x="193.5" y="-18.5" font-family="serif" font-size="10.00">SolverLBFGS::create</text>
<text text-anchor="middle" x="246.5" y="-7.5" font-family="serif" font-size="10.00">_solver</text>
</a>
</g>
</g>
<!-- Node1&#45;&gt;Node17 -->
<g id="edge29" class="edge">
<title>Node1&#45;&gt;Node17</title>
<path fill="none" stroke="midnightblue" d="M427.5,-323.02C423.83,-264.63 406.63,-120.09 326,-40.5 320.71,-35.28 314.33,-31.14 307.52,-27.87"/>
<polygon fill="midnightblue" stroke="midnightblue" points="424.02,-323.4 428.06,-333.19 431.01,-323.02 424.02,-323.4"/>
</g>
<!-- Node3 -->
<g id="node3" class="node">
<title>Node3</title>
<g id="a_node3"><a xlink:href="classSlothSolver.html#aa9c78d816c02f2d4ab70af64cb3f7791" target="_top" xlink:title="Create the linear solver depending on SolverType.">
<polygon fill="none" stroke="black" points="0,-339 0,-358 131,-358 131,-339 0,-339"/>
<text text-anchor="middle" x="65.5" y="-346" font-family="serif" font-size="10.00">SlothSolver::get_value</text>
</a>
</g>
</g>
<!-- Node2&#45;&gt;Node3 -->
<g id="edge2" class="edge">
<title>Node2&#45;&gt;Node3</title>
<path fill="none" stroke="midnightblue" d="M170.36,-670.56C169.2,-669.59 168.08,-668.57 167,-667.5 74.85,-576.13 67,-401.15 66.49,-358.2"/>
<polygon fill="midnightblue" stroke="midnightblue" points="168.36,-673.44 178.55,-676.35 172.41,-667.72 168.36,-673.44"/>
</g>
<!-- Node4&#45;&gt;Node3 -->
<g id="edge4" class="edge">
<title>Node4&#45;&gt;Node3</title>
<path fill="none" stroke="midnightblue" d="M170.54,-621.57C169.32,-620.59 168.13,-619.57 167,-618.5 86.54,-542.7 70.1,-396.56 67.11,-358.01"/>
<polygon fill="midnightblue" stroke="midnightblue" points="168.87,-624.67 179.12,-627.37 172.8,-618.87 168.87,-624.67"/>
</g>
<!-- Node5&#45;&gt;Node3 -->
<g id="edge6" class="edge">
<title>Node5&#45;&gt;Node3</title>
<path fill="none" stroke="midnightblue" d="M171.65,-573.2C170.04,-572.04 168.49,-570.8 167,-569.5 98.26,-509.17 73.84,-392.32 68,-358.12"/>
<polygon fill="midnightblue" stroke="midnightblue" points="169.81,-576.18 180.15,-578.5 173.51,-570.24 169.81,-576.18"/>
</g>
<!-- Node6&#45;&gt;Node3 -->
<g id="edge8" class="edge">
<title>Node6&#45;&gt;Node3</title>
<path fill="none" stroke="midnightblue" d="M172.54,-524.46C170.62,-523.22 168.77,-521.9 167,-520.5 109.77,-475.22 78.61,-387.74 69.42,-358.38"/>
<polygon fill="midnightblue" stroke="midnightblue" points="170.88,-527.55 181.31,-529.43 174.33,-521.46 170.88,-527.55"/>
</g>
<!-- Node7&#45;&gt;Node3 -->
<g id="edge10" class="edge">
<title>Node7&#45;&gt;Node3</title>
<path fill="none" stroke="midnightblue" d="M174.46,-476C171.88,-474.6 169.38,-473.1 167,-471.5 120.52,-440.3 84.56,-381.24 71.66,-358.12"/>
<polygon fill="midnightblue" stroke="midnightblue" points="172.94,-479.16 183.47,-480.4 176.02,-472.87 172.94,-479.16"/>
</g>
<!-- Node8&#45;&gt;Node3 -->
<g id="edge12" class="edge">
<title>Node8&#45;&gt;Node3</title>
<path fill="none" stroke="midnightblue" d="M178.61,-427.77C174.62,-426.13 170.72,-424.37 167,-422.5 130.99,-404.4 94.25,-373.54 76.86,-358.01"/>
<polygon fill="midnightblue" stroke="midnightblue" points="177.43,-431.07 188.01,-431.41 179.95,-424.54 177.43,-431.07"/>
</g>
<!-- Node9&#45;&gt;Node3 -->
<g id="edge14" class="edge">
<title>Node9&#45;&gt;Node3</title>
<path fill="none" stroke="midnightblue" d="M180.61,-379.74C153.77,-372.39 123.73,-364.17 101.21,-358"/>
<polygon fill="midnightblue" stroke="midnightblue" points="179.76,-383.13 190.33,-382.4 181.61,-376.38 179.76,-383.13"/>
</g>
<!-- Node10&#45;&gt;Node3 -->
<g id="edge16" class="edge">
<title>Node10&#45;&gt;Node3</title>
<path fill="none" stroke="midnightblue" d="M169.28,-348.5C156.59,-348.5 143.54,-348.5 131.18,-348.5"/>
<polygon fill="midnightblue" stroke="midnightblue" points="169.36,-352 179.36,-348.5 169.36,-345 169.36,-352"/>
</g>
<!-- Node11&#45;&gt;Node3 -->
<g id="edge18" class="edge">
<title>Node11&#45;&gt;Node3</title>
<path fill="none" stroke="midnightblue" d="M180.61,-317.26C153.77,-324.61 123.73,-332.83 101.21,-339"/>
<polygon fill="midnightblue" stroke="midnightblue" points="181.61,-320.62 190.33,-314.6 179.76,-313.87 181.61,-320.62"/>
</g>
<!-- Node12&#45;&gt;Node3 -->
<g id="edge20" class="edge">
<title>Node12&#45;&gt;Node3</title>
<path fill="none" stroke="midnightblue" d="M181.13,-269.12C176.27,-271.09 171.51,-273.22 167,-275.5 131.4,-293.51 94.77,-323.61 77.19,-338.92"/>
<polygon fill="midnightblue" stroke="midnightblue" points="182.46,-272.36 190.55,-265.51 179.96,-265.82 182.46,-272.36"/>
</g>
<!-- Node13&#45;&gt;Node3 -->
<g id="edge22" class="edge">
<title>Node13&#45;&gt;Node3</title>
<path fill="none" stroke="midnightblue" d="M176.24,-220.99C173.03,-222.68 169.93,-224.52 167,-226.5 120.87,-257.73 84.7,-316.14 71.71,-338.99"/>
<polygon fill="midnightblue" stroke="midnightblue" points="177.98,-224.03 185.5,-216.57 174.97,-217.71 177.98,-224.03"/>
</g>
<!-- Node14&#45;&gt;Node3 -->
<g id="edge24" class="edge">
<title>Node14&#45;&gt;Node3</title>
<path fill="none" stroke="midnightblue" d="M176.76,-171.38C173.33,-173.18 170.05,-175.21 167,-177.5 108.64,-221.36 78.02,-309.85 69.21,-338.97"/>
<polygon fill="midnightblue" stroke="midnightblue" points="178.47,-174.45 186.14,-167.15 175.58,-168.08 178.47,-174.45"/>
</g>
<!-- Node15&#45;&gt;Node3 -->
<g id="edge26" class="edge">
<title>Node15&#45;&gt;Node3</title>
<path fill="none" stroke="midnightblue" d="M174.09,-133.13C171.6,-134.78 169.22,-136.56 167,-138.5 101.16,-195.83 74.88,-305.92 68.27,-338.92"/>
<polygon fill="midnightblue" stroke="midnightblue" points="176.01,-136.06 182.92,-128.04 172.51,-130 176.01,-136.06"/>
</g>
<!-- Node16&#45;&gt;Node3 -->
<g id="edge28" class="edge">
<title>Node16&#45;&gt;Node3</title>
<path fill="none" stroke="midnightblue" d="M174.74,-83.33C172,-85.2 169.4,-87.25 167,-89.5 89.69,-162.18 71.03,-301.22 67.32,-338.89"/>
<polygon fill="midnightblue" stroke="midnightblue" points="176.52,-86.35 183.37,-78.27 172.97,-80.31 176.52,-86.35"/>
</g>
<!-- Node17&#45;&gt;Node3 -->
<g id="edge30" class="edge">
<title>Node17&#45;&gt;Node3</title>
<path fill="none" stroke="midnightblue" d="M176.53,-32.85C173.1,-35.1 169.89,-37.63 167,-40.5 77.99,-128.88 67.79,-297 66.64,-338.87"/>
<polygon fill="midnightblue" stroke="midnightblue" points="178.45,-35.79 185.46,-27.84 175.02,-29.68 178.45,-35.79"/>
</g>
</g>
</svg>
        <g id="navigator" transform="translate(0 0)" fill="#404254">
                <rect fill="#f2f5e9" fill-opacity="0.5" stroke="#606060" stroke-width=".5" x="0" y="0" width="60" height="60"/>
                <use id="zoomplus" xlink:href="#zoomPlus" x="17" y="9" onmousedown="handleZoom(evt,'in')"/>
                <use id="zoomminus" xlink:href="#zoomMin" x="42" y="9" onmousedown="handleZoom(evt,'out')"/>
                <use id="reset" xlink:href="#resetDef" x="30" y="36" onmousedown="handleReset()"/>
                <g id="arrowUp" xlink:href="#dirArrow" transform="translate(30 24)" onmousedown="handlePan(0,-1)">
                  <use xlink:href="#rim" fill="#404040">
                        <set attributeName="fill" to="#808080" begin="arrowUp.mouseover" end="arrowUp.mouseout"/>
                  </use>
                  <path fill="none" stroke="white" stroke-width="1.5" d="M0,-3.0v7 M-2.5,-0.5L0,-3.0L2.5,-0.5"/>
                </g>
                <g id="arrowRight" xlink:href="#dirArrow" transform="rotate(90) translate(36 -43)" onmousedown="handlePan(1,0)">
                  <use xlink:href="#rim" fill="#404040">
                        <set attributeName="fill" to="#808080" begin="arrowRight.mouseover" end="arrowRight.mouseout"/>
                  </use>
                  <path fill="none" stroke="white" stroke-width="1.5" d="M0,-3.0v7 M-2.5,-0.5L0,-3.0L2.5,-0.5"/>
                </g>
                <g id="arrowDown" xlink:href="#dirArrow" transform="rotate(180) translate(-30 -48)" onmousedown="handlePan(0,1)">
                  <use xlink:href="#rim" fill="#404040">
                        <set attributeName="fill" to="#808080" begin="arrowDown.mouseover" end="arrowDown.mouseout"/>
                  </use>
                  <path fill="none" stroke="white" stroke-width="1.5" d="M0,-3.0v7 M-2.5,-0.5L0,-3.0L2.5,-0.5"/>
                </g>
                <g id="arrowLeft" xlink:href="#dirArrow" transform="rotate(270) translate(-36 17)" onmousedown="handlePan(-1,0)">
                  <use xlink:href="#rim" fill="#404040">
                        <set attributeName="fill" to="#808080" begin="arrowLeft.mouseover" end="arrowLeft.mouseout"/>
                  </use>
                  <path fill="none" stroke="white" stroke-width="1.5" d="M0,-3.0v7 M-2.5,-0.5L0,-3.0L2.5,-0.5"/>
                </g>
        </g>
        <svg viewBox="0 0 15 15" width="100%" height="30px" preserveAspectRatio="xMaxYMin meet">
         <g id="arrow_out" transform="scale(0.3 0.3)">
          <a xlink:href="classParameters_ae3b314c5ebc3fde8684b0634b2406da6_icgraph_org.svg" target="_base">
           <rect id="button" ry="5" rx="5" y="6" x="6" height="38" width="38"
                fill="#f2f5e9" fill-opacity="0.5" stroke="#606060" stroke-width="1.0"/>
           <path id="arrow"
             d="M 11.500037,31.436501 C 11.940474,20.09759 22.043105,11.32322 32.158766,21.979434 L 37.068811,17.246167 C 37.068811,17.246167 37.088388,32 37.088388,32 L 22.160133,31.978069 C 22.160133,31.978069 26.997745,27.140456 26.997745,27.140456 C 18.528582,18.264221 13.291696,25.230495 11.500037,31.436501 z"
             style="fill:#404040;"/>
          </a>
         </g>
        </svg>
</svg>
