<?xml version="1.0" encoding="UTF-8" standalone="no"?>
<!DOCTYPE svg PUBLIC "-//W3C//DTD SVG 1.1//EN"
 "http://www.w3.org/Graphics/SVG/1.1/DTD/svg11.dtd">
<!-- Generated by graphviz version 2.43.0 (0)
 -->
<!-- Title: Coefficient.hpp Pages: 1 -->
<svg width="2287pt" height="364pt"
 viewBox="0.00 0.00 2286.54 364.00" xmlns="http://www.w3.org/2000/svg" xmlns:xlink="http://www.w3.org/1999/xlink">
<g id="graph0" class="graph" transform="scale(1 1) rotate(0) translate(4 360)">
<title>Coefficient.hpp</title>
<!-- Node1 -->
<g id="node1" class="node">
<title>Node1</title>
<g id="a_node1"><a xlink:title="Base class definining a coefficient from an analytical formula.">
<polygon fill="#bfbfbf" stroke="black" points="1373.54,-336.5 1373.54,-355.5 1467.54,-355.5 1467.54,-336.5 1373.54,-336.5"/>
<text text-anchor="middle" x="1420.54" y="-343.5" font-family="serif" font-size="10.00">Coefficient.hpp</text>
</a>
</g>
</g>
<!-- Node2 -->
<g id="node2" class="node">
<title>Node2</title>
<g id="a_node2"><a xlink:title=" ">
<polygon fill="none" stroke="#bfbfbf" points="136.04,-0.5 136.04,-19.5 197.04,-19.5 197.04,-0.5 136.04,-0.5"/>
<text text-anchor="middle" x="166.54" y="-7.5" font-family="serif" font-size="10.00">iostream</text>
</a>
</g>
</g>
<!-- Node1&#45;&gt;Node2 -->
<g id="edge1" class="edge">
<title>Node1&#45;&gt;Node2</title>
<path fill="none" stroke="midnightblue" d="M1373.4,-344.64C1154.66,-342.78 244.08,-333.1 121.54,-300 62.6,-284.08 0.54,-296.05 0.54,-235 0.54,-235 0.54,-235 0.54,-121 0.54,-90.9 -1.61,-77.42 19.54,-56 47.46,-27.72 92.62,-17.12 125.53,-13.19"/>
<polygon fill="midnightblue" stroke="midnightblue" points="126.16,-16.64 135.75,-12.14 125.44,-9.68 126.16,-16.64"/>
</g>
<!-- Node3 -->
<g id="node3" class="node">
<title>Node3</title>
<g id="a_node3"><a xlink:title=" ">
<polygon fill="none" stroke="#bfbfbf" points="1235.04,-56.5 1235.04,-75.5 1294.04,-75.5 1294.04,-56.5 1235.04,-56.5"/>
<text text-anchor="middle" x="1264.54" y="-63.5" font-family="serif" font-size="10.00">memory</text>
</a>
</g>
</g>
<!-- Node1&#45;&gt;Node3 -->
<g id="edge2" class="edge">
<title>Node1&#45;&gt;Node3</title>
<path fill="none" stroke="midnightblue" d="M1373.34,-345.57C1297.4,-343.75 1156.54,-327.85 1156.54,-235 1156.54,-235 1156.54,-235 1156.54,-177 1156.54,-131.21 1204.79,-97.49 1236.79,-80.16"/>
<polygon fill="midnightblue" stroke="midnightblue" points="1238.47,-83.23 1245.72,-75.51 1235.24,-77.02 1238.47,-83.23"/>
</g>
<!-- Node4 -->
<g id="node4" class="node">
<title>Node4</title>
<g id="a_node4"><a xlink:title=" ">
<polygon fill="none" stroke="#bfbfbf" points="2117.04,-224.5 2117.04,-243.5 2174.04,-243.5 2174.04,-224.5 2117.04,-224.5"/>
<text text-anchor="middle" x="2145.54" y="-231.5" font-family="serif" font-size="10.00">sstream</text>
</a>
</g>
</g>
<!-- Node1&#45;&gt;Node4 -->
<g id="edge3" class="edge">
<title>Node1&#45;&gt;Node4</title>
<path fill="none" stroke="midnightblue" d="M1467.82,-338.98C1578.92,-324.62 1865.11,-286.39 2102.54,-244 2103.99,-243.74 2105.47,-243.47 2106.97,-243.19"/>
<polygon fill="midnightblue" stroke="midnightblue" points="2107.76,-246.6 2116.9,-241.24 2106.42,-239.73 2107.76,-246.6"/>
</g>
<!-- Node5 -->
<g id="node5" class="node">
<title>Node5</title>
<g id="a_node5"><a xlink:title=" ">
<polygon fill="none" stroke="#bfbfbf" points="1183.04,-0.5 1183.04,-19.5 1230.04,-19.5 1230.04,-0.5 1183.04,-0.5"/>
<text text-anchor="middle" x="1206.54" y="-7.5" font-family="serif" font-size="10.00">string</text>
</a>
</g>
</g>
<!-- Node1&#45;&gt;Node5 -->
<g id="edge4" class="edge">
<title>Node1&#45;&gt;Node5</title>
<path fill="none" stroke="midnightblue" d="M1373.35,-342.55C1308.61,-338.21 1196.91,-326.96 1167.54,-300 1123.55,-259.63 1131.05,-226.59 1142.54,-168 1148.03,-139.99 1181.93,-64.32 1198.04,-29.27"/>
<polygon fill="midnightblue" stroke="midnightblue" points="1201.4,-30.34 1202.42,-19.8 1195.05,-27.4 1201.4,-30.34"/>
</g>
<!-- Node6 -->
<g id="node6" class="node">
<title>Node6</title>
<g id="a_node6"><a xlink:title=" ">
<polygon fill="none" stroke="#bfbfbf" points="29.04,-56.5 29.04,-75.5 100.04,-75.5 100.04,-56.5 29.04,-56.5"/>
<text text-anchor="middle" x="64.54" y="-63.5" font-family="serif" font-size="10.00">type_traits</text>
</a>
</g>
</g>
<!-- Node1&#45;&gt;Node6 -->
<g id="edge5" class="edge">
<title>Node1&#45;&gt;Node6</title>
<path fill="none" stroke="midnightblue" d="M1373.36,-344.84C1161.6,-343.89 304.16,-337.75 190.54,-300 142.33,-283.98 96.54,-285.79 96.54,-235 96.54,-235 96.54,-235 96.54,-177 96.54,-143.33 82.54,-106.08 73.06,-84.72"/>
<polygon fill="midnightblue" stroke="midnightblue" points="76.22,-83.21 68.85,-75.59 69.86,-86.14 76.22,-83.21"/>
</g>
<!-- Node7 -->
<g id="node7" class="node">
<title>Node7</title>
<g id="a_node7"><a xlink:title=" ">
<polygon fill="none" stroke="#bfbfbf" points="355.54,-0.5 355.54,-19.5 401.54,-19.5 401.54,-0.5 355.54,-0.5"/>
<text text-anchor="middle" x="378.54" y="-7.5" font-family="serif" font-size="10.00">utility</text>
</a>
</g>
</g>
<!-- Node1&#45;&gt;Node7 -->
<g id="edge6" class="edge">
<title>Node1&#45;&gt;Node7</title>
<path fill="none" stroke="midnightblue" d="M1373.24,-343.25C1149.09,-334.63 204.54,-294.78 204.54,-235 204.54,-235 204.54,-235 204.54,-121 204.54,-55.1 294.8,-27.07 345.3,-16.54"/>
<polygon fill="midnightblue" stroke="midnightblue" points="346.29,-19.91 355.43,-14.55 344.94,-13.04 346.29,-19.91"/>
</g>
<!-- Node8 -->
<g id="node8" class="node">
<title>Node8</title>
<g id="a_node8"><a xlink:title=" ">
<polygon fill="none" stroke="#bfbfbf" points="1814.54,-0.5 1814.54,-19.5 1862.54,-19.5 1862.54,-0.5 1814.54,-0.5"/>
<text text-anchor="middle" x="1838.54" y="-7.5" font-family="serif" font-size="10.00">vector</text>
</a>
</g>
</g>
<!-- Node1&#45;&gt;Node8 -->
<g id="edge7" class="edge">
<title>Node1&#45;&gt;Node8</title>
<path fill="none" stroke="midnightblue" d="M1467.57,-343.68C1641.81,-338.18 2240.54,-313.55 2240.54,-235 2240.54,-235 2240.54,-235 2240.54,-177 2240.54,-102.81 2192.2,-88.56 2125.54,-56 2025.99,-7.38 1985.51,-41.01 1872.66,-19.93"/>
<polygon fill="midnightblue" stroke="midnightblue" points="1873.09,-16.44 1862.6,-17.94 1871.73,-23.31 1873.09,-16.44"/>
</g>
<!-- Node9 -->
<g id="node9" class="node">
<title>Node9</title>
<g id="a_node9"><a xlink:href="FunctionCoefficient_8hpp.html" target="_top" xlink:title="Base class defining analytical expression, first and second derivatives of a Coefficient.">
<polygon fill="none" stroke="black" points="1541.04,-112.5 1541.04,-131.5 1742.04,-131.5 1742.04,-112.5 1541.04,-112.5"/>
<text text-anchor="middle" x="1641.54" y="-119.5" font-family="serif" font-size="10.00">Coefficients/FunctionCoefficient.hpp</text>
</a>
</g>
</g>
<!-- Node1&#45;&gt;Node9 -->
<g id="edge8" class="edge">
<title>Node1&#45;&gt;Node9</title>
<path fill="none" stroke="midnightblue" d="M1421.59,-336.13C1425.49,-307.39 1441.71,-215.85 1494.54,-168 1513.14,-151.15 1537.91,-140.61 1561.81,-134.01"/>
<polygon fill="midnightblue" stroke="midnightblue" points="1562.8,-137.37 1571.62,-131.5 1561.07,-130.59 1562.8,-137.37"/>
</g>
<!-- Node19 -->
<g id="node19" class="node">
<title>Node19</title>
<g id="a_node19"><a xlink:href="SlothBaseCoefficient_8hpp.html" target="_top" xlink:title="Base class definining a coefficient from an analytical formula.">
<polygon fill="none" stroke="black" points="1503.04,-280.5 1503.04,-299.5 1710.04,-299.5 1710.04,-280.5 1503.04,-280.5"/>
<text text-anchor="middle" x="1606.54" y="-287.5" font-family="serif" font-size="10.00">Coefficients/SlothBaseCoefficient.hpp</text>
</a>
</g>
</g>
<!-- Node1&#45;&gt;Node19 -->
<g id="edge22" class="edge">
<title>Node1&#45;&gt;Node19</title>
<path fill="none" stroke="midnightblue" d="M1450.01,-336.44C1481.71,-327.24 1532.27,-312.56 1567.31,-302.39"/>
<polygon fill="midnightblue" stroke="midnightblue" points="1568.57,-305.67 1577.2,-299.52 1566.62,-298.94 1568.57,-305.67"/>
</g>
<!-- Node21 -->
<g id="node21" class="node">
<title>Node21</title>
<g id="a_node21"><a xlink:href="Glossary_8hpp.html" target="_top" xlink:title="Glossary used to defined variables and properties in SLOTH.">
<polygon fill="none" stroke="black" points="2044.54,-112.5 2044.54,-131.5 2174.54,-131.5 2174.54,-112.5 2044.54,-112.5"/>
<text text-anchor="middle" x="2109.54" y="-119.5" font-family="serif" font-size="10.00">Glossary/Glossary.hpp</text>
</a>
</g>
</g>
<!-- Node1&#45;&gt;Node21 -->
<g id="edge91" class="edge">
<title>Node1&#45;&gt;Node21</title>
<path fill="none" stroke="midnightblue" d="M1467.73,-342.37C1626.91,-333 2136.82,-298.88 2183.54,-244 2213.15,-209.21 2160.96,-161.28 2129.99,-137.54"/>
<polygon fill="midnightblue" stroke="midnightblue" points="2132.02,-134.68 2121.9,-131.52 2127.83,-140.3 2132.02,-134.68"/>
</g>
<!-- Node22 -->
<g id="node22" class="node">
<title>Node22</title>
<g id="a_node22"><a xlink:href="TimeOptions_8hpp.html" target="_top" xlink:title="Options for Time discretization.">
<polygon fill="none" stroke="black" points="1184.54,-224.5 1184.54,-243.5 1332.54,-243.5 1332.54,-224.5 1184.54,-224.5"/>
<text text-anchor="middle" x="1258.54" y="-231.5" font-family="serif" font-size="10.00">Options/TimeOptions.hpp</text>
</a>
</g>
</g>
<!-- Node1&#45;&gt;Node22 -->
<g id="edge92" class="edge">
<title>Node1&#45;&gt;Node22</title>
<path fill="none" stroke="midnightblue" d="M1407.82,-336.37C1380.03,-317.49 1313.59,-272.38 1279.5,-249.24"/>
<polygon fill="midnightblue" stroke="midnightblue" points="1281.43,-246.31 1271.19,-243.59 1277.5,-252.1 1281.43,-246.31"/>
</g>
<!-- Node31 -->
<g id="node31" class="node">
<title>Node31</title>
<g id="a_node31"><a xlink:title=" ">
<polygon fill="none" stroke="#bfbfbf" points="2073.04,-0.5 2073.04,-19.5 2142.04,-19.5 2142.04,-0.5 2073.04,-0.5"/>
<text text-anchor="middle" x="2107.54" y="-7.5" font-family="serif" font-size="10.00">mfem.hpp</text>
</a>
</g>
</g>
<!-- Node1&#45;&gt;Node31 -->
<g id="edge93" class="edge">
<title>Node1&#45;&gt;Node31</title>
<path fill="none" stroke="midnightblue" d="M1467.81,-344C1604.34,-340.79 1997.52,-329.19 2122.54,-300 2195.68,-282.92 2278.54,-310.11 2278.54,-235 2278.54,-235 2278.54,-235 2278.54,-121 2278.54,-60.77 2202.57,-31.96 2151.91,-19.45"/>
<polygon fill="midnightblue" stroke="midnightblue" points="2152.68,-16.03 2142.14,-17.16 2151.08,-22.85 2152.68,-16.03"/>
</g>
<!-- Node9&#45;&gt;Node3 -->
<g id="edge15" class="edge">
<title>Node9&#45;&gt;Node3</title>
<path fill="none" stroke="midnightblue" d="M1581.8,-112.44C1504.15,-101.32 1370.66,-82.2 1304.34,-72.7"/>
<polygon fill="midnightblue" stroke="midnightblue" points="1304.68,-69.21 1294.29,-71.26 1303.69,-76.14 1304.68,-69.21"/>
</g>
<!-- Node9&#45;&gt;Node5 -->
<g id="edge19" class="edge">
<title>Node9&#45;&gt;Node5</title>
<path fill="none" stroke="midnightblue" d="M1630,-112.39C1608.32,-96.35 1561.98,-62.93 1543.54,-56 1488.37,-35.28 1314.23,-19.51 1240.28,-13.57"/>
<polygon fill="midnightblue" stroke="midnightblue" points="1240.37,-10.06 1230.12,-12.76 1239.82,-17.04 1240.37,-10.06"/>
</g>
<!-- Node9&#45;&gt;Node7 -->
<g id="edge20" class="edge">
<title>Node9&#45;&gt;Node7</title>
<path fill="none" stroke="midnightblue" d="M1540.79,-119.38C1238.46,-114.27 358.38,-97.58 337.54,-76 322.96,-60.91 341.76,-39.83 358.44,-25.81"/>
<polygon fill="midnightblue" stroke="midnightblue" points="360.65,-28.52 366.3,-19.56 356.29,-23.05 360.65,-28.52"/>
</g>
<!-- Node9&#45;&gt;Node8 -->
<g id="edge21" class="edge">
<title>Node9&#45;&gt;Node8</title>
<path fill="none" stroke="midnightblue" d="M1717.32,-112.49C1746.35,-106.17 1778.29,-95.16 1802.54,-76 1817.69,-64.03 1827.43,-43.84 1832.9,-29.13"/>
<polygon fill="midnightblue" stroke="midnightblue" points="1836.24,-30.18 1836.16,-19.59 1829.62,-27.92 1836.24,-30.18"/>
</g>
<!-- Node10 -->
<g id="node10" class="node">
<title>Node10</title>
<g id="a_node10"><a xlink:title=" ">
<polygon fill="none" stroke="#bfbfbf" points="1759.04,-56.5 1759.04,-75.5 1794.04,-75.5 1794.04,-56.5 1759.04,-56.5"/>
<text text-anchor="middle" x="1776.54" y="-63.5" font-family="serif" font-size="10.00">any</text>
</a>
</g>
</g>
<!-- Node9&#45;&gt;Node10 -->
<g id="edge9" class="edge">
<title>Node9&#45;&gt;Node10</title>
<path fill="none" stroke="midnightblue" d="M1662.93,-112.44C1686.29,-103.1 1723.78,-88.1 1749.25,-77.92"/>
<polygon fill="midnightblue" stroke="midnightblue" points="1750.71,-81.1 1758.69,-74.14 1748.11,-74.6 1750.71,-81.1"/>
</g>
<!-- Node11 -->
<g id="node11" class="node">
<title>Node11</title>
<g id="a_node11"><a xlink:title=" ">
<polygon fill="none" stroke="#bfbfbf" points="1486.54,-56.5 1486.54,-75.5 1534.54,-75.5 1534.54,-56.5 1486.54,-56.5"/>
<text text-anchor="middle" x="1510.54" y="-63.5" font-family="serif" font-size="10.00">cmath</text>
</a>
</g>
</g>
<!-- Node9&#45;&gt;Node11 -->
<g id="edge10" class="edge">
<title>Node9&#45;&gt;Node11</title>
<path fill="none" stroke="midnightblue" d="M1620.78,-112.44C1599.22,-103.56 1565.27,-89.56 1540.74,-79.45"/>
<polygon fill="midnightblue" stroke="midnightblue" points="1541.78,-76.09 1531.2,-75.52 1539.11,-82.56 1541.78,-76.09"/>
</g>
<!-- Node12 -->
<g id="node12" class="node">
<title>Node12</title>
<g id="a_node12"><a xlink:title=" ">
<polygon fill="none" stroke="#bfbfbf" points="1590.54,-56.5 1590.54,-75.5 1652.54,-75.5 1652.54,-56.5 1590.54,-56.5"/>
<text text-anchor="middle" x="1621.54" y="-63.5" font-family="serif" font-size="10.00">concepts</text>
</a>
</g>
</g>
<!-- Node9&#45;&gt;Node12 -->
<g id="edge11" class="edge">
<title>Node9&#45;&gt;Node12</title>
<path fill="none" stroke="midnightblue" d="M1638.23,-112.08C1635.55,-104.85 1631.69,-94.41 1628.35,-85.4"/>
<polygon fill="midnightblue" stroke="midnightblue" points="1631.53,-83.91 1624.78,-75.75 1624.97,-86.34 1631.53,-83.91"/>
</g>
<!-- Node13 -->
<g id="node13" class="node">
<title>Node13</title>
<g id="a_node13"><a xlink:title=" ">
<polygon fill="none" stroke="#bfbfbf" points="1326.54,-0.5 1326.54,-19.5 1394.54,-19.5 1394.54,-0.5 1326.54,-0.5"/>
<text text-anchor="middle" x="1360.54" y="-7.5" font-family="serif" font-size="10.00">functional</text>
</a>
</g>
</g>
<!-- Node9&#45;&gt;Node13 -->
<g id="edge12" class="edge">
<title>Node9&#45;&gt;Node13</title>
<path fill="none" stroke="midnightblue" d="M1663.42,-112.34C1690.5,-100.42 1730.82,-77.91 1711.54,-56 1691.55,-33.29 1494.56,-18.89 1404.75,-13.45"/>
<polygon fill="midnightblue" stroke="midnightblue" points="1404.8,-9.95 1394.61,-12.85 1404.38,-16.94 1404.8,-9.95"/>
</g>
<!-- Node14 -->
<g id="node14" class="node">
<title>Node14</title>
<g id="a_node14"><a xlink:title=" ">
<polygon fill="none" stroke="#bfbfbf" points="562.54,-0.5 562.54,-19.5 606.54,-19.5 606.54,-0.5 562.54,-0.5"/>
<text text-anchor="middle" x="584.54" y="-7.5" font-family="serif" font-size="10.00">limits</text>
</a>
</g>
</g>
<!-- Node9&#45;&gt;Node14 -->
<g id="edge13" class="edge">
<title>Node9&#45;&gt;Node14</title>
<path fill="none" stroke="midnightblue" d="M1540.87,-117.18C1414.2,-111.62 1190.15,-99.34 999.54,-76 948.48,-69.75 936.38,-63.85 885.54,-56 769.05,-38.02 735.74,-44.57 616.65,-19.96"/>
<polygon fill="midnightblue" stroke="midnightblue" points="617.29,-16.52 606.79,-17.89 615.86,-23.37 617.29,-16.52"/>
</g>
<!-- Node15 -->
<g id="node15" class="node">
<title>Node15</title>
<g id="a_node15"><a xlink:title=" ">
<polygon fill="none" stroke="#bfbfbf" points="1881.04,-0.5 1881.04,-19.5 1920.04,-19.5 1920.04,-0.5 1881.04,-0.5"/>
<text text-anchor="middle" x="1900.54" y="-7.5" font-family="serif" font-size="10.00">map</text>
</a>
</g>
</g>
<!-- Node9&#45;&gt;Node15 -->
<g id="edge14" class="edge">
<title>Node9&#45;&gt;Node15</title>
<path fill="none" stroke="midnightblue" d="M1708.52,-112.46C1744.65,-105.95 1789.16,-94.8 1825.54,-76 1849.56,-63.59 1872.31,-41.96 1886.33,-27.09"/>
<polygon fill="midnightblue" stroke="midnightblue" points="1888.99,-29.36 1893.17,-19.62 1883.83,-24.63 1888.99,-29.36"/>
</g>
<!-- Node16 -->
<g id="node16" class="node">
<title>Node16</title>
<g id="a_node16"><a xlink:title=" ">
<polygon fill="none" stroke="#bfbfbf" points="2040.54,-56.5 2040.54,-75.5 2098.54,-75.5 2098.54,-56.5 2040.54,-56.5"/>
<text text-anchor="middle" x="2069.54" y="-63.5" font-family="serif" font-size="10.00">optional</text>
</a>
</g>
</g>
<!-- Node9&#45;&gt;Node16 -->
<g id="edge16" class="edge">
<title>Node9&#45;&gt;Node16</title>
<path fill="none" stroke="midnightblue" d="M1709.35,-112.44C1799.89,-101.02 1957.3,-81.16 2030.29,-71.95"/>
<polygon fill="midnightblue" stroke="midnightblue" points="2030.95,-75.4 2040.43,-70.67 2030.07,-68.45 2030.95,-75.4"/>
</g>
<!-- Node17 -->
<g id="node17" class="node">
<title>Node17</title>
<g id="a_node17"><a xlink:title=" ">
<polygon fill="none" stroke="#bfbfbf" points="1670.54,-56.5 1670.54,-75.5 1702.54,-75.5 1702.54,-56.5 1670.54,-56.5"/>
<text text-anchor="middle" x="1686.54" y="-63.5" font-family="serif" font-size="10.00">set</text>
</a>
</g>
</g>
<!-- Node9&#45;&gt;Node17 -->
<g id="edge17" class="edge">
<title>Node9&#45;&gt;Node17</title>
<path fill="none" stroke="midnightblue" d="M1648.97,-112.08C1655.39,-104.38 1664.84,-93.03 1672.66,-83.65"/>
<polygon fill="midnightblue" stroke="midnightblue" points="1675.53,-85.67 1679.24,-75.75 1670.15,-81.19 1675.53,-85.67"/>
</g>
<!-- Node18 -->
<g id="node18" class="node">
<title>Node18</title>
<g id="a_node18"><a xlink:title=" ">
<polygon fill="none" stroke="#bfbfbf" points="1427.04,-56.5 1427.04,-75.5 1468.04,-75.5 1468.04,-56.5 1427.04,-56.5"/>
<text text-anchor="middle" x="1447.54" y="-63.5" font-family="serif" font-size="10.00">span</text>
</a>
</g>
</g>
<!-- Node9&#45;&gt;Node18 -->
<g id="edge18" class="edge">
<title>Node9&#45;&gt;Node18</title>
<path fill="none" stroke="midnightblue" d="M1609.42,-112.43C1578.25,-104.06 1529.38,-90.79 1477.83,-76.03"/>
<polygon fill="midnightblue" stroke="midnightblue" points="1478.75,-72.66 1468.17,-73.26 1476.82,-79.39 1478.75,-72.66"/>
</g>
<!-- Node19&#45;&gt;Node2 -->
<g id="edge23" class="edge">
<title>Node19&#45;&gt;Node2</title>
<path fill="none" stroke="midnightblue" d="M1502.76,-282.94C1236.75,-266.37 536.36,-215.83 320.54,-132 261.08,-108.91 206.07,-54.68 180.91,-27.35"/>
<polygon fill="midnightblue" stroke="midnightblue" points="183.39,-24.88 174.09,-19.8 178.2,-29.57 183.39,-24.88"/>
</g>
<!-- Node19&#45;&gt;Node3 -->
<g id="edge24" class="edge">
<title>Node19&#45;&gt;Node3</title>
<path fill="none" stroke="midnightblue" d="M1502.94,-284.55C1463.26,-278.79 1419.23,-267.11 1384.54,-244 1324.07,-203.73 1285.93,-121.61 1271.31,-85.14"/>
<polygon fill="midnightblue" stroke="midnightblue" points="1274.55,-83.82 1267.67,-75.76 1268.03,-86.35 1274.55,-83.82"/>
</g>
<!-- Node19&#45;&gt;Node4 -->
<g id="edge27" class="edge">
<title>Node19&#45;&gt;Node4</title>
<path fill="none" stroke="midnightblue" d="M1710.5,-283.08C1811.15,-276.53 1967.85,-264.14 2102.54,-244 2104,-243.78 2105.48,-243.54 2106.98,-243.29"/>
<polygon fill="midnightblue" stroke="midnightblue" points="2107.73,-246.71 2116.94,-241.47 2106.47,-239.83 2107.73,-246.71"/>
</g>
<!-- Node19&#45;&gt;Node5 -->
<g id="edge28" class="edge">
<title>Node19&#45;&gt;Node5</title>
<path fill="none" stroke="midnightblue" d="M1533.79,-280.49C1473.81,-268.94 1398.54,-241.91 1398.54,-179 1398.54,-179 1398.54,-179 1398.54,-121 1398.54,-48.82 1295.11,-23.34 1240.08,-14.89"/>
<polygon fill="midnightblue" stroke="midnightblue" points="1240.47,-11.41 1230.08,-13.46 1239.48,-18.34 1240.47,-11.41"/>
</g>
<!-- Node19&#45;&gt;Node8 -->
<g id="edge29" class="edge">
<title>Node19&#45;&gt;Node8</title>
<path fill="none" stroke="midnightblue" d="M1634.94,-280.37C1688.53,-262.45 1803.9,-215.75 1856.54,-132 1874.64,-103.2 1874.62,-88.78 1865.54,-56 1862.74,-45.92 1857.03,-35.83 1851.57,-27.77"/>
<polygon fill="midnightblue" stroke="midnightblue" points="1854.38,-25.69 1845.69,-19.64 1848.71,-29.79 1854.38,-25.69"/>
</g>
<!-- Node19&#45;&gt;Node9 -->
<g id="edge36" class="edge">
<title>Node19&#45;&gt;Node9</title>
<path fill="none" stroke="midnightblue" d="M1622.08,-280.3C1647.13,-265.27 1695.53,-231.8 1714.54,-188 1724.5,-165.05 1698.77,-146.98 1675.16,-135.77"/>
<polygon fill="midnightblue" stroke="midnightblue" points="1676.52,-132.55 1665.96,-131.68 1673.68,-138.94 1676.52,-132.55"/>
</g>
<!-- Node19&#45;&gt;Node16 -->
<g id="edge25" class="edge">
<title>Node19&#45;&gt;Node16</title>
<path fill="none" stroke="midnightblue" d="M1710.31,-282.39C1815.92,-274.78 1967.09,-261.09 1988.54,-244 2037.23,-205.18 2005.98,-166.81 2035.54,-112 2040.99,-101.89 2048.58,-91.6 2055.21,-83.42"/>
<polygon fill="midnightblue" stroke="midnightblue" points="2057.89,-85.66 2061.63,-75.75 2052.53,-81.17 2057.89,-85.66"/>
</g>
<!-- Node19&#45;&gt;Node18 -->
<g id="edge26" class="edge">
<title>Node19&#45;&gt;Node18</title>
<path fill="none" stroke="midnightblue" d="M1593.67,-280.49C1570.79,-264.75 1522.78,-228.95 1494.54,-188 1472.01,-155.34 1458.24,-110.38 1451.84,-85.48"/>
<polygon fill="midnightblue" stroke="midnightblue" points="1455.19,-84.45 1449.41,-75.57 1448.39,-86.11 1455.19,-84.45"/>
</g>
<!-- Node20 -->
<g id="node20" class="node">
<title>Node20</title>
<g id="a_node20"><a xlink:href="ConstantCoefficient_8hpp.html" target="_top" xlink:title="Constant coefficient.">
<polygon fill="none" stroke="black" points="1503.54,-168.5 1503.54,-187.5 1705.54,-187.5 1705.54,-168.5 1503.54,-168.5"/>
<text text-anchor="middle" x="1604.54" y="-175.5" font-family="serif" font-size="10.00">Coefficients/ConstantCoefficient.hpp</text>
</a>
</g>
</g>
<!-- Node19&#45;&gt;Node20 -->
<g id="edge30" class="edge">
<title>Node19&#45;&gt;Node20</title>
<path fill="none" stroke="midnightblue" d="M1606.38,-280.37C1606.06,-262.62 1605.31,-221.67 1604.87,-197.6"/>
<polygon fill="midnightblue" stroke="midnightblue" points="1608.37,-197.53 1604.69,-187.59 1601.38,-197.65 1608.37,-197.53"/>
</g>
<!-- Node19&#45;&gt;Node21 -->
<g id="edge37" class="edge">
<title>Node19&#45;&gt;Node21</title>
<path fill="none" stroke="midnightblue" d="M1710.13,-282.43C1825.67,-274.38 1999.95,-259.87 2026.54,-244 2066.51,-220.14 2091.71,-168.69 2102.86,-141.19"/>
<polygon fill="midnightblue" stroke="midnightblue" points="2106.21,-142.22 2106.55,-131.63 2099.68,-139.7 2106.21,-142.22"/>
</g>
<!-- Node19&#45;&gt;Node22 -->
<g id="edge41" class="edge">
<title>Node19&#45;&gt;Node22</title>
<path fill="none" stroke="midnightblue" d="M1551.4,-280.44C1489.54,-270.85 1389.3,-255.29 1323.65,-245.1"/>
<polygon fill="midnightblue" stroke="midnightblue" points="1323.84,-241.59 1313.42,-243.52 1322.77,-248.51 1323.84,-241.59"/>
</g>
<!-- Node19&#45;&gt;Node31 -->
<g id="edge90" class="edge">
<title>Node19&#45;&gt;Node31</title>
<path fill="none" stroke="midnightblue" d="M1710.21,-281.81C1832.12,-272.85 2021.86,-257.12 2052.54,-244 2122.97,-213.89 2151.48,-201.57 2183.54,-132 2202.26,-91.37 2156.88,-47.93 2128.43,-25.81"/>
<polygon fill="midnightblue" stroke="midnightblue" points="2130.33,-22.86 2120.23,-19.66 2126.13,-28.46 2130.33,-22.86"/>
</g>
<!-- Node20&#45;&gt;Node8 -->
<g id="edge34" class="edge">
<title>Node20&#45;&gt;Node8</title>
<path fill="none" stroke="midnightblue" d="M1705.68,-169.84C1760.07,-163.68 1819.43,-152.39 1836.54,-132 1860.75,-103.12 1852.02,-55.31 1844.62,-29.27"/>
<polygon fill="midnightblue" stroke="midnightblue" points="1847.91,-28.09 1841.63,-19.56 1841.22,-30.15 1847.91,-28.09"/>
</g>
<!-- Node20&#45;&gt;Node9 -->
<g id="edge35" class="edge">
<title>Node20&#45;&gt;Node9</title>
<path fill="none" stroke="midnightblue" d="M1610.65,-168.08C1615.82,-160.53 1623.38,-149.49 1629.73,-140.23"/>
<polygon fill="midnightblue" stroke="midnightblue" points="1632.78,-141.98 1635.54,-131.75 1627,-138.02 1632.78,-141.98"/>
</g>
<!-- Node20&#45;&gt;Node11 -->
<g id="edge31" class="edge">
<title>Node20&#45;&gt;Node11</title>
<path fill="none" stroke="midnightblue" d="M1582.45,-168.38C1566.22,-161 1544.77,-148.86 1531.54,-132 1521.02,-118.6 1515.7,-99.78 1513.05,-85.84"/>
<polygon fill="midnightblue" stroke="midnightblue" points="1516.49,-85.21 1511.45,-75.9 1509.58,-86.33 1516.49,-85.21"/>
</g>
<!-- Node20&#45;&gt;Node13 -->
<g id="edge32" class="edge">
<title>Node20&#45;&gt;Node13</title>
<path fill="none" stroke="midnightblue" d="M1646.89,-168.47C1719.22,-152.14 1853.98,-112.95 1802.54,-56 1776.2,-26.85 1511.89,-15.6 1405.02,-12.22"/>
<polygon fill="midnightblue" stroke="midnightblue" points="1404.99,-8.71 1394.88,-11.9 1404.77,-15.71 1404.99,-8.71"/>
</g>
<!-- Node20&#45;&gt;Node18 -->
<g id="edge33" class="edge">
<title>Node20&#45;&gt;Node18</title>
<path fill="none" stroke="midnightblue" d="M1584.31,-168.44C1566.09,-160.29 1538.96,-147.06 1517.54,-132 1496.9,-117.49 1476.07,-97.27 1462.56,-83.25"/>
<polygon fill="midnightblue" stroke="midnightblue" points="1464.93,-80.66 1455.51,-75.8 1459.85,-85.47 1464.93,-80.66"/>
</g>
<!-- Node21&#45;&gt;Node5 -->
<g id="edge40" class="edge">
<title>Node21&#45;&gt;Node5</title>
<path fill="none" stroke="midnightblue" d="M2112.48,-112.43C2116.65,-98.49 2122.28,-70.96 2107.54,-56 2076.7,-24.7 1361.38,-22.78 1317.54,-20 1291.67,-18.36 1262.45,-15.97 1240.49,-14.07"/>
<polygon fill="midnightblue" stroke="midnightblue" points="1240.6,-10.56 1230.34,-13.17 1239.99,-17.54 1240.6,-10.56"/>
</g>
<!-- Node21&#45;&gt;Node15 -->
<g id="edge38" class="edge">
<title>Node21&#45;&gt;Node15</title>
<path fill="none" stroke="midnightblue" d="M2119.45,-112.24C2133.27,-98.98 2155.07,-73.51 2140.54,-56 2114.09,-24.14 1988.27,-14.7 1930.12,-12.02"/>
<polygon fill="midnightblue" stroke="midnightblue" points="1930.23,-8.52 1920.09,-11.59 1929.93,-15.51 1930.23,-8.52"/>
</g>
<!-- Node21&#45;&gt;Node16 -->
<g id="edge39" class="edge">
<title>Node21&#45;&gt;Node16</title>
<path fill="none" stroke="midnightblue" d="M2102.93,-112.08C2097.28,-104.46 2088.99,-93.26 2082.09,-83.94"/>
<polygon fill="midnightblue" stroke="midnightblue" points="2084.78,-81.7 2076.02,-75.75 2079.16,-85.87 2084.78,-81.7"/>
</g>
<!-- Node22&#45;&gt;Node5 -->
<g id="edge42" class="edge">
<title>Node22&#45;&gt;Node5</title>
<path fill="none" stroke="midnightblue" d="M1265.18,-224.13C1284.74,-196.86 1338.55,-112.65 1302.54,-56 1288.9,-34.54 1262.03,-23.14 1240.18,-17.19"/>
<polygon fill="midnightblue" stroke="midnightblue" points="1240.79,-13.74 1230.25,-14.75 1239.12,-20.53 1240.79,-13.74"/>
</g>
<!-- Node23 -->
<g id="node23" class="node">
<title>Node23</title>
<g id="a_node23"><a xlink:href="Utils_8hpp.html" target="_top" xlink:title="List of all Utils files.">
<polygon fill="none" stroke="black" points="764.04,-168.5 764.04,-187.5 853.04,-187.5 853.04,-168.5 764.04,-168.5"/>
<text text-anchor="middle" x="808.54" y="-175.5" font-family="serif" font-size="10.00">Utils/Utils.hpp</text>
</a>
</g>
</g>
<!-- Node22&#45;&gt;Node23 -->
<g id="edge43" class="edge">
<title>Node22&#45;&gt;Node23</title>
<path fill="none" stroke="midnightblue" d="M1187.23,-224.44C1097.28,-213.65 944.54,-195.32 863.25,-185.57"/>
<polygon fill="midnightblue" stroke="midnightblue" points="863.56,-182.08 853.22,-184.36 862.73,-189.03 863.56,-182.08"/>
</g>
<!-- Node24 -->
<g id="node24" class="node">
<title>Node24</title>
<g id="a_node24"><a xlink:href="UtilsForData_8hpp.html" target="_top" xlink:title="Usefull methods for data.">
<polygon fill="none" stroke="black" points="1009.04,-56.5 1009.04,-75.5 1140.04,-75.5 1140.04,-56.5 1009.04,-56.5"/>
<text text-anchor="middle" x="1074.54" y="-63.5" font-family="serif" font-size="10.00">Utils/UtilsForData.hpp</text>
</a>
</g>
</g>
<!-- Node23&#45;&gt;Node24 -->
<g id="edge44" class="edge">
<title>Node23&#45;&gt;Node24</title>
<path fill="none" stroke="midnightblue" d="M853.23,-170.2C889.54,-163.58 941.45,-151.61 983.54,-132 1011.67,-118.89 1040.15,-96.81 1057.57,-82.08"/>
<polygon fill="midnightblue" stroke="midnightblue" points="1059.91,-84.69 1065.19,-75.5 1055.33,-79.39 1059.91,-84.69"/>
</g>
<!-- Node32 -->
<g id="node32" class="node">
<title>Node32</title>
<g id="a_node32"><a xlink:href="UtilsForDebug_8hpp.html" target="_top" xlink:title="Usefull methods for debug.">
<polygon fill="none" stroke="black" points="834.04,-112.5 834.04,-131.5 975.04,-131.5 975.04,-112.5 834.04,-112.5"/>
<text text-anchor="middle" x="904.54" y="-119.5" font-family="serif" font-size="10.00">Utils/UtilsForDebug.hpp</text>
</a>
</g>
</g>
<!-- Node23&#45;&gt;Node32 -->
<g id="edge58" class="edge">
<title>Node23&#45;&gt;Node32</title>
<path fill="none" stroke="midnightblue" d="M823.96,-168.32C839.08,-159.82 862.35,-146.73 880.01,-136.8"/>
<polygon fill="midnightblue" stroke="midnightblue" points="882.15,-139.61 889.15,-131.65 878.72,-133.51 882.15,-139.61"/>
</g>
<!-- Node35 -->
<g id="node35" class="node">
<title>Node35</title>
<g id="a_node35"><a xlink:href="UtilsForOptions_8hpp.html" target="_top" xlink:title="Usefull methods for Options.">
<polygon fill="none" stroke="black" points="548.54,-56.5 548.54,-75.5 694.54,-75.5 694.54,-56.5 548.54,-56.5"/>
<text text-anchor="middle" x="621.54" y="-63.5" font-family="serif" font-size="10.00">Utils/UtilsForOptions.hpp</text>
</a>
</g>
</g>
<!-- Node23&#45;&gt;Node35 -->
<g id="edge69" class="edge">
<title>Node23&#45;&gt;Node35</title>
<path fill="none" stroke="midnightblue" d="M793.86,-168.37C761.64,-149.41 684.44,-104 645.24,-80.94"/>
<polygon fill="midnightblue" stroke="midnightblue" points="646.54,-77.64 636.14,-75.59 642.99,-83.68 646.54,-77.64"/>
</g>
<!-- Node37 -->
<g id="node37" class="node">
<title>Node37</title>
<g id="a_node37"><a xlink:href="UtilsForPostProcessing_8hpp.html" target="_top" xlink:title="Usefull methods for post&#45;processing.">
<polygon fill="none" stroke="black" points="347.04,-56.5 347.04,-75.5 530.04,-75.5 530.04,-56.5 347.04,-56.5"/>
<text text-anchor="middle" x="438.54" y="-63.5" font-family="serif" font-size="10.00">Utils/UtilsForPostProcessing.hpp</text>
</a>
</g>
</g>
<!-- Node23&#45;&gt;Node37 -->
<g id="edge79" class="edge">
<title>Node23&#45;&gt;Node37</title>
<path fill="none" stroke="midnightblue" d="M779.81,-168.46C713.89,-148.86 551.71,-100.65 477.16,-78.48"/>
<polygon fill="midnightblue" stroke="midnightblue" points="477.83,-75.03 467.24,-75.53 475.83,-81.74 477.83,-75.03"/>
</g>
<!-- Node38 -->
<g id="node38" class="node">
<title>Node38</title>
<g id="a_node38"><a xlink:href="UtilsForVariants_8hpp.html" target="_top" xlink:title="manage std::Variants">
<polygon fill="none" stroke="black" points="329.54,-112.5 329.54,-131.5 477.54,-131.5 477.54,-112.5 329.54,-112.5"/>
<text text-anchor="middle" x="403.54" y="-119.5" font-family="serif" font-size="10.00">Utils/UtilsForVariants.hpp</text>
</a>
</g>
</g>
<!-- Node23&#45;&gt;Node38 -->
<g id="edge86" class="edge">
<title>Node23&#45;&gt;Node38</title>
<path fill="none" stroke="midnightblue" d="M764.04,-171.07C694.93,-161.85 561.05,-144 477.32,-132.84"/>
<polygon fill="midnightblue" stroke="midnightblue" points="477.74,-129.36 467.37,-131.51 476.82,-136.3 477.74,-129.36"/>
</g>
<!-- Node24&#45;&gt;Node2 -->
<g id="edge51" class="edge">
<title>Node24&#45;&gt;Node2</title>
<path fill="none" stroke="midnightblue" d="M1008.82,-61.71C825.34,-52.49 316.1,-26.63 240.54,-20 229.69,-19.05 217.98,-17.75 207.15,-16.44"/>
<polygon fill="midnightblue" stroke="midnightblue" points="207.45,-12.95 197.09,-15.18 206.58,-19.89 207.45,-12.95"/>
</g>
<!-- Node24&#45;&gt;Node5 -->
<g id="edge53" class="edge">
<title>Node24&#45;&gt;Node5</title>
<path fill="none" stroke="midnightblue" d="M1095.45,-56.44C1117.27,-47.52 1151.69,-33.44 1176.43,-23.32"/>
<polygon fill="midnightblue" stroke="midnightblue" points="1177.79,-26.54 1185.72,-19.52 1175.14,-20.06 1177.79,-26.54"/>
</g>
<!-- Node24&#45;&gt;Node7 -->
<g id="edge55" class="edge">
<title>Node24&#45;&gt;Node7</title>
<path fill="none" stroke="midnightblue" d="M1008.75,-59.9C863.47,-48.62 519.61,-21.95 411.6,-13.57"/>
<polygon fill="midnightblue" stroke="midnightblue" points="411.85,-10.07 401.61,-12.79 411.31,-17.05 411.85,-10.07"/>
</g>
<!-- Node24&#45;&gt;Node8 -->
<g id="edge56" class="edge">
<title>Node24&#45;&gt;Node8</title>
<path fill="none" stroke="midnightblue" d="M1140.34,-60.35C1296.7,-49.3 1686.28,-21.76 1804.19,-13.43"/>
<polygon fill="midnightblue" stroke="midnightblue" points="1804.69,-16.9 1814.42,-12.7 1804.2,-9.92 1804.69,-16.9"/>
</g>
<!-- Node24&#45;&gt;Node13 -->
<g id="edge50" class="edge">
<title>Node24&#45;&gt;Node13</title>
<path fill="none" stroke="midnightblue" d="M1119.85,-56.44C1173.72,-46.27 1262.99,-29.42 1316.35,-19.34"/>
<polygon fill="midnightblue" stroke="midnightblue" points="1317.03,-22.78 1326.2,-17.48 1315.73,-15.9 1317.03,-22.78"/>
</g>
<!-- Node24&#45;&gt;Node15 -->
<g id="edge52" class="edge">
<title>Node24&#45;&gt;Node15</title>
<path fill="none" stroke="midnightblue" d="M1140.31,-61.02C1166.79,-59.44 1197.61,-57.61 1225.54,-56 1509.25,-39.64 1586.73,-70.27 1870.54,-19.68"/>
<polygon fill="midnightblue" stroke="midnightblue" points="1871.51,-23.07 1880.73,-17.85 1870.27,-16.18 1871.51,-23.07"/>
</g>
<!-- Node25 -->
<g id="node25" class="node">
<title>Node25</title>
<g id="a_node25"><a xlink:title=" ">
<polygon fill="none" stroke="#bfbfbf" points="951.04,-0.5 951.04,-19.5 1010.04,-19.5 1010.04,-0.5 951.04,-0.5"/>
<text text-anchor="middle" x="980.54" y="-7.5" font-family="serif" font-size="10.00">unistd.h</text>
</a>
</g>
</g>
<!-- Node24&#45;&gt;Node25 -->
<g id="edge45" class="edge">
<title>Node24&#45;&gt;Node25</title>
<path fill="none" stroke="midnightblue" d="M1059.43,-56.32C1044.63,-47.82 1021.84,-34.73 1004.55,-24.8"/>
<polygon fill="midnightblue" stroke="midnightblue" points="1006.02,-21.6 995.6,-19.65 1002.53,-27.67 1006.02,-21.6"/>
</g>
<!-- Node26 -->
<g id="node26" class="node">
<title>Node26</title>
<g id="a_node26"><a xlink:title=" ">
<polygon fill="none" stroke="#bfbfbf" points="624.54,-0.5 624.54,-19.5 690.54,-19.5 690.54,-0.5 624.54,-0.5"/>
<text text-anchor="middle" x="657.54" y="-7.5" font-family="serif" font-size="10.00">algorithm</text>
</a>
</g>
</g>
<!-- Node24&#45;&gt;Node26 -->
<g id="edge46" class="edge">
<title>Node24&#45;&gt;Node26</title>
<path fill="none" stroke="midnightblue" d="M1008.92,-56.5C922.9,-45.36 774.35,-26.13 701.04,-16.63"/>
<polygon fill="midnightblue" stroke="midnightblue" points="701.15,-13.12 690.79,-15.31 700.26,-20.06 701.15,-13.12"/>
</g>
<!-- Node27 -->
<g id="node27" class="node">
<title>Node27</title>
<g id="a_node27"><a xlink:title=" ">
<polygon fill="none" stroke="#bfbfbf" points="1028.54,-0.5 1028.54,-19.5 1078.54,-19.5 1078.54,-0.5 1028.54,-0.5"/>
<text text-anchor="middle" x="1053.54" y="-7.5" font-family="serif" font-size="10.00">cctype</text>
</a>
</g>
</g>
<!-- Node24&#45;&gt;Node27 -->
<g id="edge47" class="edge">
<title>Node24&#45;&gt;Node27</title>
<path fill="none" stroke="midnightblue" d="M1071.07,-56.08C1068.23,-48.77 1064.11,-38.18 1060.58,-29.1"/>
<polygon fill="midnightblue" stroke="midnightblue" points="1063.83,-27.8 1056.94,-19.75 1057.3,-30.34 1063.83,-27.8"/>
</g>
<!-- Node28 -->
<g id="node28" class="node">
<title>Node28</title>
<g id="a_node28"><a xlink:title=" ">
<polygon fill="none" stroke="#bfbfbf" points="883.04,-0.5 883.04,-19.5 930.04,-19.5 930.04,-0.5 883.04,-0.5"/>
<text text-anchor="middle" x="906.54" y="-7.5" font-family="serif" font-size="10.00">cstdio</text>
</a>
</g>
</g>
<!-- Node24&#45;&gt;Node28 -->
<g id="edge48" class="edge">
<title>Node24&#45;&gt;Node28</title>
<path fill="none" stroke="midnightblue" d="M1047.92,-56.44C1018.61,-47.02 971.46,-31.87 939.76,-21.68"/>
<polygon fill="midnightblue" stroke="midnightblue" points="940.64,-18.29 930.05,-18.56 938.5,-24.95 940.64,-18.29"/>
</g>
<!-- Node29 -->
<g id="node29" class="node">
<title>Node29</title>
<g id="a_node29"><a xlink:title=" ">
<polygon fill="none" stroke="#bfbfbf" points="1096.54,-0.5 1096.54,-19.5 1164.54,-19.5 1164.54,-0.5 1096.54,-0.5"/>
<text text-anchor="middle" x="1130.54" y="-7.5" font-family="serif" font-size="10.00">filesystem</text>
</a>
</g>
</g>
<!-- Node24&#45;&gt;Node29 -->
<g id="edge49" class="edge">
<title>Node24&#45;&gt;Node29</title>
<path fill="none" stroke="midnightblue" d="M1083.53,-56.32C1091.73,-48.42 1104.04,-36.55 1114.01,-26.94"/>
<polygon fill="midnightblue" stroke="midnightblue" points="1116.61,-29.29 1121.38,-19.83 1111.75,-24.26 1116.61,-29.29"/>
</g>
<!-- Node30 -->
<g id="node30" class="node">
<title>Node30</title>
<g id="a_node30"><a xlink:title=" ">
<polygon fill="none" stroke="#bfbfbf" points="749.04,-0.5 749.04,-19.5 792.04,-19.5 792.04,-0.5 749.04,-0.5"/>
<text text-anchor="middle" x="770.54" y="-7.5" font-family="serif" font-size="10.00">tuple</text>
</a>
</g>
</g>
<!-- Node24&#45;&gt;Node30 -->
<g id="edge54" class="edge">
<title>Node24&#45;&gt;Node30</title>
<path fill="none" stroke="midnightblue" d="M1026.37,-56.44C963.58,-45.29 855.53,-26.1 802.2,-16.62"/>
<polygon fill="midnightblue" stroke="midnightblue" points="802.75,-13.17 792.29,-14.86 801.53,-20.06 802.75,-13.17"/>
</g>
<!-- Node24&#45;&gt;Node31 -->
<g id="edge57" class="edge">
<title>Node24&#45;&gt;Node31</title>
<path fill="none" stroke="midnightblue" d="M1140.31,-60.96C1166.79,-59.36 1197.61,-57.54 1225.54,-56 1309.33,-51.37 1894.86,-21.75 2062.68,-13.27"/>
<polygon fill="midnightblue" stroke="midnightblue" points="2063.08,-16.75 2072.89,-12.75 2062.73,-9.76 2063.08,-16.75"/>
</g>
<!-- Node32&#45;&gt;Node2 -->
<g id="edge64" class="edge">
<title>Node32&#45;&gt;Node2</title>
<path fill="none" stroke="midnightblue" d="M833.98,-119.25C695.97,-115.25 395.09,-103.58 295.54,-76 255.25,-64.84 212.73,-40.65 187.97,-25.13"/>
<polygon fill="midnightblue" stroke="midnightblue" points="189.7,-22.09 179.39,-19.66 185.93,-27.99 189.7,-22.09"/>
</g>
<!-- Node32&#45;&gt;Node5 -->
<g id="edge65" class="edge">
<title>Node32&#45;&gt;Node5</title>
<path fill="none" stroke="midnightblue" d="M975.15,-120C1026.22,-116.51 1095.32,-105.93 1148.54,-76 1168.84,-64.58 1185.71,-43.37 1195.93,-28.29"/>
<polygon fill="midnightblue" stroke="midnightblue" points="1198.9,-30.13 1201.4,-19.83 1193.03,-26.32 1198.9,-30.13"/>
</g>
<!-- Node32&#45;&gt;Node7 -->
<g id="edge66" class="edge">
<title>Node32&#45;&gt;Node7</title>
<path fill="none" stroke="midnightblue" d="M833.8,-120.97C682.83,-120.16 339.88,-114.1 304.54,-76 286.23,-56.26 318.43,-36.22 345.93,-23.71"/>
<polygon fill="midnightblue" stroke="midnightblue" points="347.6,-26.8 355.38,-19.61 344.81,-20.38 347.6,-26.8"/>
</g>
<!-- Node32&#45;&gt;Node13 -->
<g id="edge63" class="edge">
<title>Node32&#45;&gt;Node13</title>
<path fill="none" stroke="midnightblue" d="M975.07,-119.03C1073.73,-115.26 1247.11,-104.68 1302.54,-76 1323.45,-65.18 1340.38,-43.48 1350.43,-28.14"/>
<polygon fill="midnightblue" stroke="midnightblue" points="1353.46,-29.89 1355.78,-19.56 1347.52,-26.19 1353.46,-29.89"/>
</g>
<!-- Node32&#45;&gt;Node24 -->
<g id="edge67" class="edge">
<title>Node32&#45;&gt;Node24</title>
<path fill="none" stroke="midnightblue" d="M931.47,-112.44C960.2,-103.32 1005.87,-88.81 1037.86,-78.65"/>
<polygon fill="midnightblue" stroke="midnightblue" points="1039.25,-81.88 1047.73,-75.52 1037.14,-75.21 1039.25,-81.88"/>
</g>
<!-- Node32&#45;&gt;Node25 -->
<g id="edge60" class="edge">
<title>Node32&#45;&gt;Node25</title>
<path fill="none" stroke="midnightblue" d="M910.5,-112.37C923.04,-94.22 952.35,-51.8 968.8,-27.99"/>
<polygon fill="midnightblue" stroke="midnightblue" points="971.8,-29.81 974.6,-19.59 966.04,-25.83 971.8,-29.81"/>
</g>
<!-- Node32&#45;&gt;Node28 -->
<g id="edge61" class="edge">
<title>Node32&#45;&gt;Node28</title>
<path fill="none" stroke="midnightblue" d="M904.69,-112.37C905.02,-94.62 905.76,-53.67 906.2,-29.6"/>
<polygon fill="midnightblue" stroke="midnightblue" points="909.7,-29.65 906.38,-19.59 902.7,-29.53 909.7,-29.65"/>
</g>
<!-- Node32&#45;&gt;Node31 -->
<g id="edge68" class="edge">
<title>Node32&#45;&gt;Node31</title>
<path fill="none" stroke="midnightblue" d="M975.32,-121.29C1127.41,-121.06 1496.46,-116.02 1802.54,-76 1897.75,-63.55 2007.42,-37.15 2065.82,-22.11"/>
<polygon fill="midnightblue" stroke="midnightblue" points="2066.97,-25.43 2075.77,-19.53 2065.21,-18.65 2066.97,-25.43"/>
</g>
<!-- Node33 -->
<g id="node33" class="node">
<title>Node33</title>
<g id="a_node33"><a xlink:title=" ">
<polygon fill="none" stroke="#bfbfbf" points="712.54,-56.5 712.54,-75.5 802.54,-75.5 802.54,-56.5 712.54,-56.5"/>
<text text-anchor="middle" x="757.54" y="-63.5" font-family="serif" font-size="10.00">sys/resource.h</text>
</a>
</g>
</g>
<!-- Node32&#45;&gt;Node33 -->
<g id="edge59" class="edge">
<title>Node32&#45;&gt;Node33</title>
<path fill="none" stroke="midnightblue" d="M881.24,-112.44C856.73,-103.44 817.94,-89.19 790.34,-79.05"/>
<polygon fill="midnightblue" stroke="midnightblue" points="791.31,-75.68 780.72,-75.52 788.9,-82.25 791.31,-75.68"/>
</g>
<!-- Node34 -->
<g id="node34" class="node">
<title>Node34</title>
<g id="a_node34"><a xlink:title=" ">
<polygon fill="none" stroke="#bfbfbf" points="820.54,-56.5 820.54,-75.5 876.54,-75.5 876.54,-56.5 820.54,-56.5"/>
<text text-anchor="middle" x="848.54" y="-63.5" font-family="serif" font-size="10.00">fstream</text>
</a>
</g>
</g>
<!-- Node32&#45;&gt;Node34 -->
<g id="edge62" class="edge">
<title>Node32&#45;&gt;Node34</title>
<path fill="none" stroke="midnightblue" d="M895.54,-112.32C887.34,-104.42 875.03,-92.55 865.06,-82.94"/>
<polygon fill="midnightblue" stroke="midnightblue" points="867.33,-80.26 857.7,-75.83 862.47,-85.29 867.33,-80.26"/>
</g>
<!-- Node35&#45;&gt;Node2 -->
<g id="edge72" class="edge">
<title>Node35&#45;&gt;Node2</title>
<path fill="none" stroke="midnightblue" d="M548.84,-56.49C472.17,-47.5 347.84,-32.86 240.54,-20 229.73,-18.7 218.03,-17.29 207.2,-15.97"/>
<polygon fill="midnightblue" stroke="midnightblue" points="207.49,-12.48 197.14,-14.75 206.64,-19.43 207.49,-12.48"/>
</g>
<!-- Node35&#45;&gt;Node5 -->
<g id="edge74" class="edge">
<title>Node35&#45;&gt;Node5</title>
<path fill="none" stroke="midnightblue" d="M694.84,-56.83C697.78,-56.54 700.68,-56.27 703.54,-56 908.88,-36.87 965.35,-55.13 1172.87,-19.76"/>
<polygon fill="midnightblue" stroke="midnightblue" points="1173.61,-23.18 1182.86,-18.03 1172.42,-16.29 1173.61,-23.18"/>
</g>
<!-- Node35&#45;&gt;Node7 -->
<g id="edge76" class="edge">
<title>Node35&#45;&gt;Node7</title>
<path fill="none" stroke="midnightblue" d="M583.03,-56.44C535.73,-45.93 456.28,-28.28 411.61,-18.35"/>
<polygon fill="midnightblue" stroke="midnightblue" points="412.36,-14.93 401.83,-16.18 410.84,-21.76 412.36,-14.93"/>
</g>
<!-- Node35&#45;&gt;Node8 -->
<g id="edge78" class="edge">
<title>Node35&#45;&gt;Node8</title>
<path fill="none" stroke="midnightblue" d="M694.83,-56.7C697.77,-56.45 700.68,-56.21 703.54,-56 1137.18,-23.65 1665.87,-13.64 1804.14,-11.49"/>
<polygon fill="midnightblue" stroke="midnightblue" points="1804.2,-14.99 1814.14,-11.34 1804.09,-7.99 1804.2,-14.99"/>
</g>
<!-- Node35&#45;&gt;Node13 -->
<g id="edge71" class="edge">
<title>Node35&#45;&gt;Node13</title>
<path fill="none" stroke="midnightblue" d="M694.84,-56.8C697.78,-56.52 700.68,-56.25 703.54,-56 940.92,-35 1000.81,-36.77 1238.54,-20 1264.26,-18.19 1293.02,-16.07 1316.16,-14.34"/>
<polygon fill="midnightblue" stroke="midnightblue" points="1316.65,-17.82 1326.36,-13.58 1316.13,-10.84 1316.65,-17.82"/>
</g>
<!-- Node35&#45;&gt;Node14 -->
<g id="edge73" class="edge">
<title>Node35&#45;&gt;Node14</title>
<path fill="none" stroke="midnightblue" d="M615.43,-56.08C610.25,-48.53 602.69,-37.49 596.34,-28.23"/>
<polygon fill="midnightblue" stroke="midnightblue" points="599.07,-26.02 590.53,-19.75 593.3,-29.98 599.07,-26.02"/>
</g>
<!-- Node35&#45;&gt;Node26 -->
<g id="edge70" class="edge">
<title>Node35&#45;&gt;Node26</title>
<path fill="none" stroke="midnightblue" d="M627.48,-56.08C632.51,-48.53 639.87,-37.49 646.05,-28.23"/>
<polygon fill="midnightblue" stroke="midnightblue" points="649.07,-30.01 651.7,-19.75 643.24,-26.13 649.07,-30.01"/>
</g>
<!-- Node35&#45;&gt;Node30 -->
<g id="edge75" class="edge">
<title>Node35&#45;&gt;Node30</title>
<path fill="none" stroke="midnightblue" d="M645.15,-56.44C670.58,-47.23 711.17,-32.52 739.25,-22.34"/>
<polygon fill="midnightblue" stroke="midnightblue" points="740.76,-25.51 748.97,-18.82 738.38,-18.93 740.76,-25.51"/>
</g>
<!-- Node36 -->
<g id="node36" class="node">
<title>Node36</title>
<g id="a_node36"><a xlink:title=" ">
<polygon fill="none" stroke="#bfbfbf" points="250.04,-0.5 250.04,-19.5 303.04,-19.5 303.04,-0.5 250.04,-0.5"/>
<text text-anchor="middle" x="276.54" y="-7.5" font-family="serif" font-size="10.00">variant</text>
</a>
</g>
</g>
<!-- Node35&#45;&gt;Node36 -->
<g id="edge77" class="edge">
<title>Node35&#45;&gt;Node36</title>
<path fill="none" stroke="midnightblue" d="M566.87,-56.44C495.92,-45.34 374.04,-26.26 313.25,-16.75"/>
<polygon fill="midnightblue" stroke="midnightblue" points="313.75,-13.28 303.33,-15.19 312.67,-20.2 313.75,-13.28"/>
</g>
<!-- Node37&#45;&gt;Node2 -->
<g id="edge81" class="edge">
<title>Node37&#45;&gt;Node2</title>
<path fill="none" stroke="midnightblue" d="M395.44,-56.44C343.72,-46.18 257.69,-29.1 207.12,-19.06"/>
<polygon fill="midnightblue" stroke="midnightblue" points="207.68,-15.6 197.19,-17.09 206.32,-22.47 207.68,-15.6"/>
</g>
<!-- Node37&#45;&gt;Node5 -->
<g id="edge83" class="edge">
<title>Node37&#45;&gt;Node5</title>
<path fill="none" stroke="midnightblue" d="M530.18,-56.7C533.34,-56.46 536.46,-56.22 539.54,-56 817.72,-35.71 893.22,-64.68 1172.84,-19.72"/>
<polygon fill="midnightblue" stroke="midnightblue" points="1173.57,-23.15 1182.87,-18.09 1172.44,-16.24 1173.57,-23.15"/>
</g>
<!-- Node37&#45;&gt;Node7 -->
<g id="edge84" class="edge">
<title>Node37&#45;&gt;Node7</title>
<path fill="none" stroke="midnightblue" d="M428.9,-56.32C420.03,-48.34 406.66,-36.31 395.93,-26.65"/>
<polygon fill="midnightblue" stroke="midnightblue" points="398.13,-23.92 388.35,-19.83 393.44,-29.13 398.13,-23.92"/>
</g>
<!-- Node37&#45;&gt;Node8 -->
<g id="edge85" class="edge">
<title>Node37&#45;&gt;Node8</title>
<path fill="none" stroke="midnightblue" d="M530.18,-56.62C533.34,-56.4 536.46,-56.19 539.54,-56 1041.06,-24.99 1652.94,-13.88 1803.73,-11.51"/>
<polygon fill="midnightblue" stroke="midnightblue" points="1804.23,-15.01 1814.18,-11.35 1804.12,-8.01 1804.23,-15.01"/>
</g>
<!-- Node37&#45;&gt;Node14 -->
<g id="edge82" class="edge">
<title>Node37&#45;&gt;Node14</title>
<path fill="none" stroke="midnightblue" d="M461.67,-56.44C486.31,-47.33 525.45,-32.85 552.92,-22.69"/>
<polygon fill="midnightblue" stroke="midnightblue" points="554.3,-25.91 562.47,-19.16 551.87,-19.35 554.3,-25.91"/>
</g>
<!-- Node37&#45;&gt;Node26 -->
<g id="edge80" class="edge">
<title>Node37&#45;&gt;Node26</title>
<path fill="none" stroke="midnightblue" d="M473.24,-56.44C511.57,-46.99 573.32,-31.77 614.65,-21.58"/>
<polygon fill="midnightblue" stroke="midnightblue" points="615.56,-24.96 624.43,-19.16 613.88,-18.16 615.56,-24.96"/>
</g>
<!-- Node38&#45;&gt;Node3 -->
<g id="edge87" class="edge">
<title>Node38&#45;&gt;Node3</title>
<path fill="none" stroke="midnightblue" d="M477.58,-116.95C611.52,-109.52 902.93,-92.94 1148.54,-76 1173.94,-74.25 1202.44,-72.04 1224.84,-70.25"/>
<polygon fill="midnightblue" stroke="midnightblue" points="1225.3,-73.72 1234.99,-69.43 1224.74,-66.75 1225.3,-73.72"/>
</g>
<!-- Node38&#45;&gt;Node6 -->
<g id="edge88" class="edge">
<title>Node38&#45;&gt;Node6</title>
<path fill="none" stroke="midnightblue" d="M349.82,-112.44C283.68,-101.91 172.48,-84.19 110.24,-74.28"/>
<polygon fill="midnightblue" stroke="midnightblue" points="110.75,-70.82 100.32,-72.7 109.65,-77.73 110.75,-70.82"/>
</g>
<!-- Node38&#45;&gt;Node36 -->
<g id="edge89" class="edge">
<title>Node38&#45;&gt;Node36</title>
<path fill="none" stroke="midnightblue" d="M329.28,-113.82C305.34,-107.58 281.22,-96.28 266.54,-76 256.73,-62.46 261.42,-43.14 267.22,-29.08"/>
<polygon fill="midnightblue" stroke="midnightblue" points="270.43,-30.48 271.46,-19.93 264.08,-27.54 270.43,-30.48"/>
</g>
</g>
</svg>
