<?xml version="1.0" encoding="UTF-8" standalone="no"?>
<!DOCTYPE svg PUBLIC "-//W3C//DTD SVG 1.1//EN"
 "http://www.w3.org/Graphics/SVG/1.1/DTD/svg11.dtd">
<!-- Generated by graphviz version 2.43.0 (0)
 -->
<!-- Title: ConstantCoefficient.cpp Pages: 1 -->
<!--zoomable 196 -->
<svg id="main" version="1.1" xmlns="http://www.w3.org/2000/svg" xmlns:xlink="http://www.w3.org/1999/xlink" xml:space="preserve" onload="init(evt)">
<style type="text/css"><![CDATA[
.edge:hover path { stroke: red; }
.edge:hover polygon { stroke: red; fill: red; }
]]></style>
<script type="text/javascript"><![CDATA[
var edges = document.getElementsByTagName('g');
if (edges && edges.length) {
  for (var i=0;i<edges.length;i++) {
    if (edges[i].id.substr(0,4)=='edge') {
      edges[i].setAttribute('class','edge');
    }
  }
}
]]></script>
        <defs>
                <circle id="rim" cx="0" cy="0" r="7"/>
                <circle id="rim2" cx="0" cy="0" r="3.5"/>
                <g id="zoomPlus">
                        <use xlink:href="#rim" fill="#404040">
                                <set attributeName="fill" to="#808080" begin="zoomplus.mouseover" end="zoomplus.mouseout"/>
                        </use>
                        <path d="M-4,0h8M0,-4v8" fill="none" stroke="white" stroke-width="1.5" pointer-events="none"/>
                </g>
                <g id="zoomMin">
                        <use xlink:href="#rim" fill="#404040">
                                <set attributeName="fill" to="#808080" begin="zoomminus.mouseover" end="zoomminus.mouseout"/>
                        </use>
                        <path d="M-4,0h8" fill="none" stroke="white" stroke-width="1.5" pointer-events="none"/>
                </g>
                <g id="dirArrow">
                        <path fill="none" stroke="white" stroke-width="1.5" d="M0,-3.0v7 M-2.5,-0.5L0,-3.0L2.5,-0.5"/>
                </g>
               <g id="resetDef">
                       <use xlink:href="#rim2" fill="#404040">
                               <set attributeName="fill" to="#808080" begin="reset.mouseover" end="reset.mouseout"/>
                       </use>
               </g>
        </defs>

<script type="text/javascript">
var viewWidth = 855;
var viewHeight = 196;
var sectionId = 'dynsection-0';
</script>
<script xlink:href="svgpan.js"/>
<svg id="graph" class="graph">
<g id="viewport">
<title>ConstantCoefficient.cpp</title>
<!-- Node1 -->
<g id="node1" class="node">
<title>Node1</title>
<g id="a_node1"><a xlink:title="Constant coefficient.">
<polygon fill="#bfbfbf" stroke="black" points="311,-168.5 311,-187.5 449,-187.5 449,-168.5 311,-168.5"/>
<text text-anchor="middle" x="380" y="-175.5" font-family="serif" font-size="10.00">ConstantCoefficient.cpp</text>
</a>
</g>
</g>
<!-- Node2 -->
<g id="node2" class="node">
<title>Node2</title>
<g id="a_node2"><a xlink:href="ConstantCoefficient_8hpp.html" target="_top" xlink:title="Constant coefficient.">
<polygon fill="none" stroke="black" points="215,-112.5 215,-131.5 417,-131.5 417,-112.5 215,-112.5"/>
<text text-anchor="middle" x="316" y="-119.5" font-family="serif" font-size="10.00">Coefficients/ConstantCoefficient.hpp</text>
</a>
</g>
</g>
<!-- Node1&#45;&gt;Node2 -->
<g id="edge1" class="edge">
<title>Node1&#45;&gt;Node2</title>
<path fill="none" stroke="midnightblue" d="M369.72,-168.32C360.16,-160.26 345.72,-148.08 334.22,-138.37"/>
<polygon fill="midnightblue" stroke="midnightblue" points="336.37,-135.61 326.47,-131.83 331.86,-140.96 336.37,-135.61"/>
</g>
<!-- Node3 -->
<g id="node3" class="node">
<title>Node3</title>
<g id="a_node3"><a xlink:title=" ">
<polygon fill="none" stroke="#bfbfbf" points="0,-0.5 0,-19.5 48,-19.5 48,-0.5 0,-0.5"/>
<text text-anchor="middle" x="24" y="-7.5" font-family="serif" font-size="10.00">cmath</text>
</a>
</g>
</g>
<!-- Node1&#45;&gt;Node3 -->
<g id="edge20" class="edge">
<title>Node1&#45;&gt;Node3</title>
<path fill="none" stroke="midnightblue" d="M310.74,-169.52C270.28,-163.26 219.06,-151.99 177,-132 119.9,-104.86 64.71,-52.96 39.02,-26.84"/>
<polygon fill="midnightblue" stroke="midnightblue" points="41.49,-24.36 32.02,-19.62 36.46,-29.23 41.49,-24.36"/>
</g>
<!-- Node4 -->
<g id="node4" class="node">
<title>Node4</title>
<g id="a_node4"><a xlink:title=" ">
<polygon fill="none" stroke="#bfbfbf" points="66,-0.5 66,-19.5 134,-19.5 134,-0.5 66,-0.5"/>
<text text-anchor="middle" x="100" y="-7.5" font-family="serif" font-size="10.00">functional</text>
</a>
</g>
</g>
<!-- Node1&#45;&gt;Node4 -->
<g id="edge21" class="edge">
<title>Node1&#45;&gt;Node4</title>
<path fill="none" stroke="midnightblue" d="M311,-168.87C277.43,-162.57 237.61,-151.48 206,-132 162.38,-105.12 126.84,-54.62 110.2,-28.16"/>
<polygon fill="midnightblue" stroke="midnightblue" points="113.16,-26.29 104.95,-19.59 107.19,-29.95 113.16,-26.29"/>
</g>
<!-- Node5 -->
<g id="node5" class="node">
<title>Node5</title>
<g id="a_node5"><a xlink:title=" ">
<polygon fill="none" stroke="#bfbfbf" points="739.5,-0.5 739.5,-19.5 780.5,-19.5 780.5,-0.5 739.5,-0.5"/>
<text text-anchor="middle" x="760" y="-7.5" font-family="serif" font-size="10.00">span</text>
</a>
</g>
</g>
<!-- Node1&#45;&gt;Node5 -->
<g id="edge22" class="edge">
<title>Node1&#45;&gt;Node5</title>
<path fill="none" stroke="midnightblue" d="M399.63,-168.42C462.17,-141.1 656.99,-56 731.04,-23.65"/>
<polygon fill="midnightblue" stroke="midnightblue" points="732.5,-26.83 740.26,-19.62 729.69,-20.42 732.5,-26.83"/>
</g>
<!-- Node6 -->
<g id="node6" class="node">
<title>Node6</title>
<g id="a_node6"><a xlink:title=" ">
<polygon fill="none" stroke="#bfbfbf" points="799,-0.5 799,-19.5 847,-19.5 847,-0.5 799,-0.5"/>
<text text-anchor="middle" x="823" y="-7.5" font-family="serif" font-size="10.00">vector</text>
</a>
</g>
</g>
<!-- Node1&#45;&gt;Node6 -->
<g id="edge23" class="edge">
<title>Node1&#45;&gt;Node6</title>
<path fill="none" stroke="midnightblue" d="M407.72,-168.43C435.51,-159.71 479.45,-145.58 517,-132 619.16,-95.06 738.4,-46.23 792.97,-23.56"/>
<polygon fill="midnightblue" stroke="midnightblue" points="794.5,-26.72 802.38,-19.64 791.81,-20.25 794.5,-26.72"/>
</g>
<!-- Node7 -->
<g id="node7" class="node">
<title>Node7</title>
<g id="a_node7"><a xlink:href="FunctionCoefficient_8hpp.html" target="_top" xlink:title="Base class defining analytical expression, first and second derivatives of a Coefficient.">
<polygon fill="none" stroke="black" points="344.5,-56.5 344.5,-75.5 545.5,-75.5 545.5,-56.5 344.5,-56.5"/>
<text text-anchor="middle" x="445" y="-63.5" font-family="serif" font-size="10.00">Coefficients/FunctionCoefficient.hpp</text>
</a>
</g>
</g>
<!-- Node1&#45;&gt;Node7 -->
<g id="edge24" class="edge">
<title>Node1&#45;&gt;Node7</title>
<path fill="none" stroke="midnightblue" d="M391.87,-168.29C402.3,-160.04 417.15,-146.75 426,-132 434.6,-117.67 439.51,-99.2 442.17,-85.62"/>
<polygon fill="midnightblue" stroke="midnightblue" points="445.66,-86 443.91,-75.55 438.76,-84.81 445.66,-86"/>
</g>
<!-- Node2&#45;&gt;Node3 -->
<g id="edge2" class="edge">
<title>Node2&#45;&gt;Node3</title>
<path fill="none" stroke="midnightblue" d="M293.09,-112.37C241.49,-92.93 116.04,-45.67 56.46,-23.23"/>
<polygon fill="midnightblue" stroke="midnightblue" points="57.4,-19.84 46.81,-19.59 54.93,-26.39 57.4,-19.84"/>
</g>
<!-- Node2&#45;&gt;Node4 -->
<g id="edge3" class="edge">
<title>Node2&#45;&gt;Node4</title>
<path fill="none" stroke="midnightblue" d="M305.02,-112.28C287.72,-98.86 252.72,-72.91 220,-56 193.59,-42.35 162.07,-30.7 137.96,-22.67"/>
<polygon fill="midnightblue" stroke="midnightblue" points="139.04,-19.34 128.45,-19.56 136.87,-25.99 139.04,-19.34"/>
</g>
<!-- Node2&#45;&gt;Node5 -->
<g id="edge4" class="edge">
<title>Node2&#45;&gt;Node5</title>
<path fill="none" stroke="midnightblue" d="M371.23,-112.47C419.73,-104.52 492.01,-91.58 554,-76 617.4,-60.06 689.98,-35.69 729.84,-21.76"/>
<polygon fill="midnightblue" stroke="midnightblue" points="731.2,-24.99 739.47,-18.37 728.88,-18.39 731.2,-24.99"/>
</g>
<!-- Node2&#45;&gt;Node6 -->
<g id="edge5" class="edge">
<title>Node2&#45;&gt;Node6</title>
<path fill="none" stroke="midnightblue" d="M387.26,-112.48C445.63,-104.87 530.18,-92.39 603,-76 669.91,-60.94 746.34,-36.73 789.22,-22.49"/>
<polygon fill="midnightblue" stroke="midnightblue" points="790.48,-25.76 798.86,-19.27 788.27,-19.12 790.48,-25.76"/>
</g>
<!-- Node2&#45;&gt;Node7 -->
<g id="edge6" class="edge">
<title>Node2&#45;&gt;Node7</title>
<path fill="none" stroke="midnightblue" d="M336.44,-112.44C357.67,-103.56 391.1,-89.56 415.25,-79.45"/>
<polygon fill="midnightblue" stroke="midnightblue" points="416.78,-82.61 424.66,-75.52 414.08,-76.15 416.78,-82.61"/>
</g>
<!-- Node7&#45;&gt;Node3 -->
<g id="edge8" class="edge">
<title>Node7&#45;&gt;Node3</title>
<path fill="none" stroke="midnightblue" d="M344.28,-57.51C268.04,-50.87 160.67,-39.43 57.97,-19.92"/>
<polygon fill="midnightblue" stroke="midnightblue" points="58.53,-16.47 48.05,-18.01 57.21,-23.34 58.53,-16.47"/>
</g>
<!-- Node7&#45;&gt;Node4 -->
<g id="edge10" class="edge">
<title>Node7&#45;&gt;Node4</title>
<path fill="none" stroke="midnightblue" d="M380.31,-56.47C321.31,-48.45 231.5,-35.59 144.3,-20.15"/>
<polygon fill="midnightblue" stroke="midnightblue" points="144.69,-16.66 134.23,-18.35 143.46,-23.56 144.69,-16.66"/>
</g>
<!-- Node7&#45;&gt;Node5 -->
<g id="edge16" class="edge">
<title>Node7&#45;&gt;Node5</title>
<path fill="none" stroke="midnightblue" d="M517.85,-56.5C573.6,-49.31 652.49,-37.68 729.34,-20.14"/>
<polygon fill="midnightblue" stroke="midnightblue" points="730.24,-23.52 739.19,-17.85 728.66,-16.7 730.24,-23.52"/>
</g>
<!-- Node7&#45;&gt;Node6 -->
<g id="edge19" class="edge">
<title>Node7&#45;&gt;Node6</title>
<path fill="none" stroke="midnightblue" d="M536.72,-56.48C604.11,-49.42 697.99,-37.92 789,-19.96"/>
<polygon fill="midnightblue" stroke="midnightblue" points="789.82,-23.36 798.94,-17.97 788.45,-16.5 789.82,-23.36"/>
</g>
<!-- Node8 -->
<g id="node8" class="node">
<title>Node8</title>
<g id="a_node8"><a xlink:title=" ">
<polygon fill="none" stroke="#bfbfbf" points="486.5,-0.5 486.5,-19.5 521.5,-19.5 521.5,-0.5 486.5,-0.5"/>
<text text-anchor="middle" x="504" y="-7.5" font-family="serif" font-size="10.00">any</text>
</a>
</g>
</g>
<!-- Node7&#45;&gt;Node8 -->
<g id="edge7" class="edge">
<title>Node7&#45;&gt;Node8</title>
<path fill="none" stroke="midnightblue" d="M454.48,-56.32C463.2,-48.34 476.34,-36.31 486.9,-26.65"/>
<polygon fill="midnightblue" stroke="midnightblue" points="489.33,-29.17 494.35,-19.83 484.61,-24 489.33,-29.17"/>
</g>
<!-- Node9 -->
<g id="node9" class="node">
<title>Node9</title>
<g id="a_node9"><a xlink:title=" ">
<polygon fill="none" stroke="#bfbfbf" points="540,-0.5 540,-19.5 602,-19.5 602,-0.5 540,-0.5"/>
<text text-anchor="middle" x="571" y="-7.5" font-family="serif" font-size="10.00">concepts</text>
</a>
</g>
</g>
<!-- Node7&#45;&gt;Node9 -->
<g id="edge9" class="edge">
<title>Node7&#45;&gt;Node9</title>
<path fill="none" stroke="midnightblue" d="M464.97,-56.44C485.61,-47.6 518.06,-33.69 541.63,-23.59"/>
<polygon fill="midnightblue" stroke="midnightblue" points="543.32,-26.67 551.13,-19.52 540.56,-20.24 543.32,-26.67"/>
</g>
<!-- Node10 -->
<g id="node10" class="node">
<title>Node10</title>
<g id="a_node10"><a xlink:title=" ">
<polygon fill="none" stroke="#bfbfbf" points="620,-0.5 620,-19.5 664,-19.5 664,-0.5 620,-0.5"/>
<text text-anchor="middle" x="642" y="-7.5" font-family="serif" font-size="10.00">limits</text>
</a>
</g>
</g>
<!-- Node7&#45;&gt;Node10 -->
<g id="edge11" class="edge">
<title>Node7&#45;&gt;Node10</title>
<path fill="none" stroke="midnightblue" d="M477.18,-56.46C508.7,-48.05 558.32,-34.71 610.27,-20.17"/>
<polygon fill="midnightblue" stroke="midnightblue" points="611.32,-23.51 620,-17.44 609.42,-16.77 611.32,-23.51"/>
</g>
<!-- Node11 -->
<g id="node11" class="node">
<title>Node11</title>
<g id="a_node11"><a xlink:title=" ">
<polygon fill="none" stroke="#bfbfbf" points="682.5,-0.5 682.5,-19.5 721.5,-19.5 721.5,-0.5 682.5,-0.5"/>
<text text-anchor="middle" x="702" y="-7.5" font-family="serif" font-size="10.00">map</text>
</a>
</g>
</g>
<!-- Node7&#45;&gt;Node11 -->
<g id="edge12" class="edge">
<title>Node7&#45;&gt;Node11</title>
<path fill="none" stroke="midnightblue" d="M496.51,-56.44C540.77,-48.73 606.45,-36.42 672.66,-19.86"/>
<polygon fill="midnightblue" stroke="midnightblue" points="673.59,-23.23 682.42,-17.38 671.87,-16.45 673.59,-23.23"/>
</g>
<!-- Node12 -->
<g id="node12" class="node">
<title>Node12</title>
<g id="a_node12"><a xlink:title=" ">
<polygon fill="none" stroke="#bfbfbf" points="152.5,-0.5 152.5,-19.5 211.5,-19.5 211.5,-0.5 152.5,-0.5"/>
<text text-anchor="middle" x="182" y="-7.5" font-family="serif" font-size="10.00">memory</text>
</a>
</g>
</g>
<!-- Node7&#45;&gt;Node12 -->
<g id="edge13" class="edge">
<title>Node7&#45;&gt;Node12</title>
<path fill="none" stroke="midnightblue" d="M400.72,-56.49C357.6,-48.12 289.95,-34.76 221.84,-20.13"/>
<polygon fill="midnightblue" stroke="midnightblue" points="222.3,-16.65 211.79,-17.97 220.83,-23.5 222.3,-16.65"/>
</g>
<!-- Node13 -->
<g id="node13" class="node">
<title>Node13</title>
<g id="a_node13"><a xlink:title=" ">
<polygon fill="none" stroke="#bfbfbf" points="230,-0.5 230,-19.5 288,-19.5 288,-0.5 230,-0.5"/>
<text text-anchor="middle" x="259" y="-7.5" font-family="serif" font-size="10.00">optional</text>
</a>
</g>
</g>
<!-- Node7&#45;&gt;Node13 -->
<g id="edge14" class="edge">
<title>Node7&#45;&gt;Node13</title>
<path fill="none" stroke="midnightblue" d="M415.53,-56.44C383.74,-47.21 332.97,-32.48 297.92,-22.3"/>
<polygon fill="midnightblue" stroke="midnightblue" points="298.61,-18.85 288.03,-19.43 296.66,-25.58 298.61,-18.85"/>
</g>
<!-- Node14 -->
<g id="node14" class="node">
<title>Node14</title>
<g id="a_node14"><a xlink:title=" ">
<polygon fill="none" stroke="#bfbfbf" points="306,-0.5 306,-19.5 338,-19.5 338,-0.5 306,-0.5"/>
<text text-anchor="middle" x="322" y="-7.5" font-family="serif" font-size="10.00">set</text>
</a>
</g>
</g>
<!-- Node7&#45;&gt;Node14 -->
<g id="edge15" class="edge">
<title>Node7&#45;&gt;Node14</title>
<path fill="none" stroke="midnightblue" d="M425.51,-56.44C404.41,-47.18 370.67,-32.37 347.48,-22.19"/>
<polygon fill="midnightblue" stroke="midnightblue" points="348.82,-18.95 338.26,-18.14 346.01,-25.36 348.82,-18.95"/>
</g>
<!-- Node15 -->
<g id="node15" class="node">
<title>Node15</title>
<g id="a_node15"><a xlink:title=" ">
<polygon fill="none" stroke="#bfbfbf" points="356.5,-0.5 356.5,-19.5 403.5,-19.5 403.5,-0.5 356.5,-0.5"/>
<text text-anchor="middle" x="380" y="-7.5" font-family="serif" font-size="10.00">string</text>
</a>
</g>
</g>
<!-- Node7&#45;&gt;Node15 -->
<g id="edge17" class="edge">
<title>Node7&#45;&gt;Node15</title>
<path fill="none" stroke="midnightblue" d="M434.56,-56.32C424.85,-48.26 410.18,-36.08 398.5,-26.37"/>
<polygon fill="midnightblue" stroke="midnightblue" points="400.56,-23.53 390.63,-19.83 396.09,-28.92 400.56,-23.53"/>
</g>
<!-- Node16 -->
<g id="node16" class="node">
<title>Node16</title>
<g id="a_node16"><a xlink:title=" ">
<polygon fill="none" stroke="#bfbfbf" points="422,-0.5 422,-19.5 468,-19.5 468,-0.5 422,-0.5"/>
<text text-anchor="middle" x="445" y="-7.5" font-family="serif" font-size="10.00">utility</text>
</a>
</g>
</g>
<!-- Node7&#45;&gt;Node16 -->
<g id="edge18" class="edge">
<title>Node7&#45;&gt;Node16</title>
<path fill="none" stroke="midnightblue" d="M445,-56.08C445,-49.01 445,-38.86 445,-29.99"/>
<polygon fill="midnightblue" stroke="midnightblue" points="448.5,-29.75 445,-19.75 441.5,-29.75 448.5,-29.75"/>
</g>
</g>
</svg>
        <g id="navigator" transform="translate(0 0)" fill="#404254">
                <rect fill="#f2f5e9" fill-opacity="0.5" stroke="#606060" stroke-width=".5" x="0" y="0" width="60" height="60"/>
                <use id="zoomplus" xlink:href="#zoomPlus" x="17" y="9" onmousedown="handleZoom(evt,'in')"/>
                <use id="zoomminus" xlink:href="#zoomMin" x="42" y="9" onmousedown="handleZoom(evt,'out')"/>
                <use id="reset" xlink:href="#resetDef" x="30" y="36" onmousedown="handleReset()"/>
                <g id="arrowUp" xlink:href="#dirArrow" transform="translate(30 24)" onmousedown="handlePan(0,-1)">
                  <use xlink:href="#rim" fill="#404040">
                        <set attributeName="fill" to="#808080" begin="arrowUp.mouseover" end="arrowUp.mouseout"/>
                  </use>
                  <path fill="none" stroke="white" stroke-width="1.5" d="M0,-3.0v7 M-2.5,-0.5L0,-3.0L2.5,-0.5"/>
                </g>
                <g id="arrowRight" xlink:href="#dirArrow" transform="rotate(90) translate(36 -43)" onmousedown="handlePan(1,0)">
                  <use xlink:href="#rim" fill="#404040">
                        <set attributeName="fill" to="#808080" begin="arrowRight.mouseover" end="arrowRight.mouseout"/>
                  </use>
                  <path fill="none" stroke="white" stroke-width="1.5" d="M0,-3.0v7 M-2.5,-0.5L0,-3.0L2.5,-0.5"/>
                </g>
                <g id="arrowDown" xlink:href="#dirArrow" transform="rotate(180) translate(-30 -48)" onmousedown="handlePan(0,1)">
                  <use xlink:href="#rim" fill="#404040">
                        <set attributeName="fill" to="#808080" begin="arrowDown.mouseover" end="arrowDown.mouseout"/>
                  </use>
                  <path fill="none" stroke="white" stroke-width="1.5" d="M0,-3.0v7 M-2.5,-0.5L0,-3.0L2.5,-0.5"/>
                </g>
                <g id="arrowLeft" xlink:href="#dirArrow" transform="rotate(270) translate(-36 17)" onmousedown="handlePan(-1,0)">
                  <use xlink:href="#rim" fill="#404040">
                        <set attributeName="fill" to="#808080" begin="arrowLeft.mouseover" end="arrowLeft.mouseout"/>
                  </use>
                  <path fill="none" stroke="white" stroke-width="1.5" d="M0,-3.0v7 M-2.5,-0.5L0,-3.0L2.5,-0.5"/>
                </g>
        </g>
        <svg viewBox="0 0 15 15" width="100%" height="30px" preserveAspectRatio="xMaxYMin meet">
         <g id="arrow_out" transform="scale(0.3 0.3)">
          <a xlink:href="ConstantCoefficient_8cpp__incl_org.svg" target="_base">
           <rect id="button" ry="5" rx="5" y="6" x="6" height="38" width="38"
                fill="#f2f5e9" fill-opacity="0.5" stroke="#606060" stroke-width="1.0"/>
           <path id="arrow"
             d="M 11.500037,31.436501 C 11.940474,20.09759 22.043105,11.32322 32.158766,21.979434 L 37.068811,17.246167 C 37.068811,17.246167 37.088388,32 37.088388,32 L 22.160133,31.978069 C 22.160133,31.978069 26.997745,27.140456 26.997745,27.140456 C 18.528582,18.264221 13.291696,25.230495 11.500037,31.436501 z"
             style="fill:#404040;"/>
          </a>
         </g>
        </svg>
</svg>
