<?xml version="1.0" encoding="UTF-8" standalone="no"?>
<!DOCTYPE svg PUBLIC "-//W3C//DTD SVG 1.1//EN"
 "http://www.w3.org/Graphics/SVG/1.1/DTD/svg11.dtd">
<!-- Generated by graphviz version 2.43.0 (0)
 -->
<!-- Title: DiffusionOptions.hpp Pages: 1 -->
<svg width="1237pt" height="252pt"
 viewBox="0.00 0.00 1237.00 252.00" xmlns="http://www.w3.org/2000/svg" xmlns:xlink="http://www.w3.org/1999/xlink">
<g id="graph0" class="graph" transform="scale(1 1) rotate(0) translate(4 248)">
<title>DiffusionOptions.hpp</title>
<!-- Node1 -->
<g id="node1" class="node">
<title>Node1</title>
<g id="a_node1"><a xlink:title="Option for Mass Diffusion problems.">
<polygon fill="#bfbfbf" stroke="black" points="683,-224.5 683,-243.5 808,-243.5 808,-224.5 683,-224.5"/>
<text text-anchor="middle" x="745.5" y="-231.5" font-family="serif" font-size="10.00">DiffusionOptions.hpp</text>
</a>
</g>
</g>
<!-- Node2 -->
<g id="node2" class="node">
<title>Node2</title>
<g id="a_node2"><a xlink:href="Utils_8hpp.html" target="_top" xlink:title="List of all Utils files.">
<polygon fill="none" stroke="black" points="701,-168.5 701,-187.5 790,-187.5 790,-168.5 701,-168.5"/>
<text text-anchor="middle" x="745.5" y="-175.5" font-family="serif" font-size="10.00">Utils/Utils.hpp</text>
</a>
</g>
</g>
<!-- Node1&#45;&gt;Node2 -->
<g id="edge1" class="edge">
<title>Node1&#45;&gt;Node2</title>
<path fill="none" stroke="midnightblue" d="M745.5,-224.08C745.5,-217.01 745.5,-206.86 745.5,-197.99"/>
<polygon fill="midnightblue" stroke="midnightblue" points="749,-197.75 745.5,-187.75 742,-197.75 749,-197.75"/>
</g>
<!-- Node3 -->
<g id="node3" class="node">
<title>Node3</title>
<g id="a_node3"><a xlink:href="UtilsForData_8hpp.html" target="_top" xlink:title="Usefull methods for data.">
<polygon fill="none" stroke="black" points="409,-56.5 409,-75.5 540,-75.5 540,-56.5 409,-56.5"/>
<text text-anchor="middle" x="474.5" y="-63.5" font-family="serif" font-size="10.00">Utils/UtilsForData.hpp</text>
</a>
</g>
</g>
<!-- Node2&#45;&gt;Node3 -->
<g id="edge2" class="edge">
<title>Node2&#45;&gt;Node3</title>
<path fill="none" stroke="midnightblue" d="M724.24,-168.37C676.45,-148.97 560.41,-101.87 504.97,-79.37"/>
<polygon fill="midnightblue" stroke="midnightblue" points="506.25,-76.11 495.67,-75.59 503.62,-82.6 506.25,-76.11"/>
</g>
<!-- Node17 -->
<g id="node17" class="node">
<title>Node17</title>
<g id="a_node17"><a xlink:href="UtilsForDebug_8hpp.html" target="_top" xlink:title="Usefull methods for debug.">
<polygon fill="none" stroke="black" points="292,-112.5 292,-131.5 433,-131.5 433,-112.5 292,-112.5"/>
<text text-anchor="middle" x="362.5" y="-119.5" font-family="serif" font-size="10.00">Utils/UtilsForDebug.hpp</text>
</a>
</g>
</g>
<!-- Node2&#45;&gt;Node17 -->
<g id="edge16" class="edge">
<title>Node2&#45;&gt;Node17</title>
<path fill="none" stroke="midnightblue" d="M700.82,-170.7C635,-161.42 511.37,-143.99 433.18,-132.96"/>
<polygon fill="midnightblue" stroke="midnightblue" points="433.32,-129.45 422.93,-131.52 432.34,-136.38 433.32,-129.45"/>
</g>
<!-- Node20 -->
<g id="node20" class="node">
<title>Node20</title>
<g id="a_node20"><a xlink:href="UtilsForOptions_8hpp.html" target="_top" xlink:title="Usefull methods for Options.">
<polygon fill="none" stroke="black" points="672.5,-56.5 672.5,-75.5 818.5,-75.5 818.5,-56.5 672.5,-56.5"/>
<text text-anchor="middle" x="745.5" y="-63.5" font-family="serif" font-size="10.00">Utils/UtilsForOptions.hpp</text>
</a>
</g>
</g>
<!-- Node2&#45;&gt;Node20 -->
<g id="edge27" class="edge">
<title>Node2&#45;&gt;Node20</title>
<path fill="none" stroke="midnightblue" d="M745.5,-168.37C745.5,-150.62 745.5,-109.67 745.5,-85.6"/>
<polygon fill="midnightblue" stroke="midnightblue" points="749,-85.59 745.5,-75.59 742,-85.59 749,-85.59"/>
</g>
<!-- Node23 -->
<g id="node23" class="node">
<title>Node23</title>
<g id="a_node23"><a xlink:href="UtilsForPostProcessing_8hpp.html" target="_top" xlink:title="Usefull methods for post&#45;processing.">
<polygon fill="none" stroke="black" points="837,-56.5 837,-75.5 1020,-75.5 1020,-56.5 837,-56.5"/>
<text text-anchor="middle" x="928.5" y="-63.5" font-family="serif" font-size="10.00">Utils/UtilsForPostProcessing.hpp</text>
</a>
</g>
</g>
<!-- Node2&#45;&gt;Node23 -->
<g id="edge37" class="edge">
<title>Node2&#45;&gt;Node23</title>
<path fill="none" stroke="midnightblue" d="M759.86,-168.37C791.4,-149.41 866.94,-104 905.3,-80.94"/>
<polygon fill="midnightblue" stroke="midnightblue" points="907.44,-83.74 914.21,-75.59 903.83,-77.74 907.44,-83.74"/>
</g>
<!-- Node24 -->
<g id="node24" class="node">
<title>Node24</title>
<g id="a_node24"><a xlink:href="UtilsForVariants_8hpp.html" target="_top" xlink:title="manage std::Variants">
<polygon fill="none" stroke="black" points="1040.5,-56.5 1040.5,-75.5 1188.5,-75.5 1188.5,-56.5 1040.5,-56.5"/>
<text text-anchor="middle" x="1114.5" y="-63.5" font-family="serif" font-size="10.00">Utils/UtilsForVariants.hpp</text>
</a>
</g>
</g>
<!-- Node2&#45;&gt;Node24 -->
<g id="edge44" class="edge">
<title>Node2&#45;&gt;Node24</title>
<path fill="none" stroke="midnightblue" d="M774.15,-168.46C839.89,-148.86 1001.63,-100.65 1075.98,-78.48"/>
<polygon fill="midnightblue" stroke="midnightblue" points="1077.29,-81.75 1085.87,-75.53 1075.29,-75.04 1077.29,-81.75"/>
</g>
<!-- Node4 -->
<g id="node4" class="node">
<title>Node4</title>
<g id="a_node4"><a xlink:title=" ">
<polygon fill="none" stroke="#bfbfbf" points="87,-0.5 87,-19.5 146,-19.5 146,-0.5 87,-0.5"/>
<text text-anchor="middle" x="116.5" y="-7.5" font-family="serif" font-size="10.00">unistd.h</text>
</a>
</g>
</g>
<!-- Node3&#45;&gt;Node4 -->
<g id="edge3" class="edge">
<title>Node3&#45;&gt;Node4</title>
<path fill="none" stroke="midnightblue" d="M408.72,-56.48C334.17,-46.71 216.17,-30.84 156.42,-20.2"/>
<polygon fill="midnightblue" stroke="midnightblue" points="156.78,-16.7 146.31,-18.34 155.52,-23.59 156.78,-16.7"/>
</g>
<!-- Node5 -->
<g id="node5" class="node">
<title>Node5</title>
<g id="a_node5"><a xlink:title=" ">
<polygon fill="none" stroke="#bfbfbf" points="797.5,-0.5 797.5,-19.5 863.5,-19.5 863.5,-0.5 797.5,-0.5"/>
<text text-anchor="middle" x="830.5" y="-7.5" font-family="serif" font-size="10.00">algorithm</text>
</a>
</g>
</g>
<!-- Node3&#45;&gt;Node5 -->
<g id="edge4" class="edge">
<title>Node3&#45;&gt;Node5</title>
<path fill="none" stroke="midnightblue" d="M540.26,-56.91C601.7,-49.05 696.18,-36.19 787.14,-20.15"/>
<polygon fill="midnightblue" stroke="midnightblue" points="787.84,-23.58 797.07,-18.38 786.61,-16.69 787.84,-23.58"/>
</g>
<!-- Node6 -->
<g id="node6" class="node">
<title>Node6</title>
<g id="a_node6"><a xlink:title=" ">
<polygon fill="none" stroke="#bfbfbf" points="315.5,-0.5 315.5,-19.5 365.5,-19.5 365.5,-0.5 315.5,-0.5"/>
<text text-anchor="middle" x="340.5" y="-7.5" font-family="serif" font-size="10.00">cctype</text>
</a>
</g>
</g>
<!-- Node3&#45;&gt;Node6 -->
<g id="edge5" class="edge">
<title>Node3&#45;&gt;Node6</title>
<path fill="none" stroke="midnightblue" d="M453.27,-56.44C431.12,-47.52 396.18,-33.44 371.06,-23.32"/>
<polygon fill="midnightblue" stroke="midnightblue" points="372.22,-20.01 361.63,-19.52 369.6,-26.5 372.22,-20.01"/>
</g>
<!-- Node7 -->
<g id="node7" class="node">
<title>Node7</title>
<g id="a_node7"><a xlink:title=" ">
<polygon fill="none" stroke="#bfbfbf" points="164,-0.5 164,-19.5 211,-19.5 211,-0.5 164,-0.5"/>
<text text-anchor="middle" x="187.5" y="-7.5" font-family="serif" font-size="10.00">cstdio</text>
</a>
</g>
</g>
<!-- Node3&#45;&gt;Node7 -->
<g id="edge6" class="edge">
<title>Node3&#45;&gt;Node7</title>
<path fill="none" stroke="midnightblue" d="M417.96,-56.49C368.52,-48.71 294.59,-36.26 221.12,-19.97"/>
<polygon fill="midnightblue" stroke="midnightblue" points="221.75,-16.52 211.23,-17.75 220.22,-23.35 221.75,-16.52"/>
</g>
<!-- Node8 -->
<g id="node8" class="node">
<title>Node8</title>
<g id="a_node8"><a xlink:title=" ">
<polygon fill="none" stroke="#bfbfbf" points="229.5,-0.5 229.5,-19.5 297.5,-19.5 297.5,-0.5 229.5,-0.5"/>
<text text-anchor="middle" x="263.5" y="-7.5" font-family="serif" font-size="10.00">filesystem</text>
</a>
</g>
</g>
<!-- Node3&#45;&gt;Node8 -->
<g id="edge7" class="edge">
<title>Node3&#45;&gt;Node8</title>
<path fill="none" stroke="midnightblue" d="M441.07,-56.44C404.64,-47.12 346.27,-32.18 306.47,-22"/>
<polygon fill="midnightblue" stroke="midnightblue" points="307.33,-18.61 296.78,-19.52 305.6,-25.39 307.33,-18.61"/>
</g>
<!-- Node9 -->
<g id="node9" class="node">
<title>Node9</title>
<g id="a_node9"><a xlink:title=" ">
<polygon fill="none" stroke="#bfbfbf" points="383.5,-0.5 383.5,-19.5 451.5,-19.5 451.5,-0.5 383.5,-0.5"/>
<text text-anchor="middle" x="417.5" y="-7.5" font-family="serif" font-size="10.00">functional</text>
</a>
</g>
</g>
<!-- Node3&#45;&gt;Node9 -->
<g id="edge8" class="edge">
<title>Node3&#45;&gt;Node9</title>
<path fill="none" stroke="midnightblue" d="M465.34,-56.32C457,-48.42 444.47,-36.55 434.32,-26.94"/>
<polygon fill="midnightblue" stroke="midnightblue" points="436.49,-24.17 426.82,-19.83 431.68,-29.25 436.49,-24.17"/>
</g>
<!-- Node10 -->
<g id="node10" class="node">
<title>Node10</title>
<g id="a_node10"><a xlink:title=" ">
<polygon fill="none" stroke="#bfbfbf" points="588,-0.5 588,-19.5 649,-19.5 649,-0.5 588,-0.5"/>
<text text-anchor="middle" x="618.5" y="-7.5" font-family="serif" font-size="10.00">iostream</text>
</a>
</g>
</g>
<!-- Node3&#45;&gt;Node10 -->
<g id="edge9" class="edge">
<title>Node3&#45;&gt;Node10</title>
<path fill="none" stroke="midnightblue" d="M497.32,-56.44C521.33,-47.44 559.33,-33.19 586.37,-23.05"/>
<polygon fill="midnightblue" stroke="midnightblue" points="587.66,-26.3 595.79,-19.52 585.2,-19.75 587.66,-26.3"/>
</g>
<!-- Node11 -->
<g id="node11" class="node">
<title>Node11</title>
<g id="a_node11"><a xlink:title=" ">
<polygon fill="none" stroke="#bfbfbf" points="470,-0.5 470,-19.5 509,-19.5 509,-0.5 470,-0.5"/>
<text text-anchor="middle" x="489.5" y="-7.5" font-family="serif" font-size="10.00">map</text>
</a>
</g>
</g>
<!-- Node3&#45;&gt;Node11 -->
<g id="edge10" class="edge">
<title>Node3&#45;&gt;Node11</title>
<path fill="none" stroke="midnightblue" d="M476.98,-56.08C478.99,-48.85 481.89,-38.41 484.39,-29.4"/>
<polygon fill="midnightblue" stroke="midnightblue" points="487.76,-30.32 487.07,-19.75 481.02,-28.45 487.76,-30.32"/>
</g>
<!-- Node12 -->
<g id="node12" class="node">
<title>Node12</title>
<g id="a_node12"><a xlink:title=" ">
<polygon fill="none" stroke="#bfbfbf" points="732,-0.5 732,-19.5 779,-19.5 779,-0.5 732,-0.5"/>
<text text-anchor="middle" x="755.5" y="-7.5" font-family="serif" font-size="10.00">string</text>
</a>
</g>
</g>
<!-- Node3&#45;&gt;Node12 -->
<g id="edge11" class="edge">
<title>Node3&#45;&gt;Node12</title>
<path fill="none" stroke="midnightblue" d="M529.45,-56.43C577.62,-48.61 649.73,-36.13 721.63,-20.03"/>
<polygon fill="midnightblue" stroke="midnightblue" points="722.79,-23.36 731.77,-17.74 721.24,-16.53 722.79,-23.36"/>
</g>
<!-- Node13 -->
<g id="node13" class="node">
<title>Node13</title>
<g id="a_node13"><a xlink:title=" ">
<polygon fill="none" stroke="#bfbfbf" points="527,-0.5 527,-19.5 570,-19.5 570,-0.5 527,-0.5"/>
<text text-anchor="middle" x="548.5" y="-7.5" font-family="serif" font-size="10.00">tuple</text>
</a>
</g>
</g>
<!-- Node3&#45;&gt;Node13 -->
<g id="edge12" class="edge">
<title>Node3&#45;&gt;Node13</title>
<path fill="none" stroke="midnightblue" d="M486.39,-56.32C497.65,-48.11 514.79,-35.6 528.21,-25.81"/>
<polygon fill="midnightblue" stroke="midnightblue" points="530.38,-28.56 536.39,-19.83 526.25,-22.9 530.38,-28.56"/>
</g>
<!-- Node14 -->
<g id="node14" class="node">
<title>Node14</title>
<g id="a_node14"><a xlink:title=" ">
<polygon fill="none" stroke="#bfbfbf" points="667.5,-0.5 667.5,-19.5 713.5,-19.5 713.5,-0.5 667.5,-0.5"/>
<text text-anchor="middle" x="690.5" y="-7.5" font-family="serif" font-size="10.00">utility</text>
</a>
</g>
</g>
<!-- Node3&#45;&gt;Node14 -->
<g id="edge13" class="edge">
<title>Node3&#45;&gt;Node14</title>
<path fill="none" stroke="midnightblue" d="M510.9,-56.49C546.05,-48.18 601.03,-34.96 657.62,-20.17"/>
<polygon fill="midnightblue" stroke="midnightblue" points="658.67,-23.51 667.45,-17.58 656.89,-16.74 658.67,-23.51"/>
</g>
<!-- Node15 -->
<g id="node15" class="node">
<title>Node15</title>
<g id="a_node15"><a xlink:title=" ">
<polygon fill="none" stroke="#bfbfbf" points="881.5,-0.5 881.5,-19.5 929.5,-19.5 929.5,-0.5 881.5,-0.5"/>
<text text-anchor="middle" x="905.5" y="-7.5" font-family="serif" font-size="10.00">vector</text>
</a>
</g>
</g>
<!-- Node3&#45;&gt;Node15 -->
<g id="edge14" class="edge">
<title>Node3&#45;&gt;Node15</title>
<path fill="none" stroke="midnightblue" d="M540.11,-60.69C617.3,-54.92 749.38,-42.88 871.55,-19.91"/>
<polygon fill="midnightblue" stroke="midnightblue" points="872.28,-23.33 881.45,-18.02 870.97,-16.46 872.28,-23.33"/>
</g>
<!-- Node16 -->
<g id="node16" class="node">
<title>Node16</title>
<g id="a_node16"><a xlink:title=" ">
<polygon fill="none" stroke="#bfbfbf" points="0,-0.5 0,-19.5 69,-19.5 69,-0.5 0,-0.5"/>
<text text-anchor="middle" x="34.5" y="-7.5" font-family="serif" font-size="10.00">mfem.hpp</text>
</a>
</g>
</g>
<!-- Node3&#45;&gt;Node16 -->
<g id="edge15" class="edge">
<title>Node3&#45;&gt;Node16</title>
<path fill="none" stroke="midnightblue" d="M408.65,-57.07C405.56,-56.7 402.5,-56.35 399.5,-56 259.67,-39.79 221.4,-42.64 79.15,-20.14"/>
<polygon fill="midnightblue" stroke="midnightblue" points="79.61,-16.67 69.18,-18.55 78.5,-23.59 79.61,-16.67"/>
</g>
<!-- Node17&#45;&gt;Node3 -->
<g id="edge25" class="edge">
<title>Node17&#45;&gt;Node3</title>
<path fill="none" stroke="midnightblue" d="M380.49,-112.32C398.54,-103.62 426.55,-90.12 447.3,-80.11"/>
<polygon fill="midnightblue" stroke="midnightblue" points="449.06,-83.15 456.55,-75.65 446.02,-76.84 449.06,-83.15"/>
</g>
<!-- Node17&#45;&gt;Node4 -->
<g id="edge18" class="edge">
<title>Node17&#45;&gt;Node4</title>
<path fill="none" stroke="midnightblue" d="M291.74,-114C235.94,-107.16 163.92,-94.97 141.5,-76 127.82,-64.42 121.6,-44.46 118.79,-29.71"/>
<polygon fill="midnightblue" stroke="midnightblue" points="122.22,-29.01 117.23,-19.66 115.3,-30.08 122.22,-29.01"/>
</g>
<!-- Node17&#45;&gt;Node7 -->
<g id="edge19" class="edge">
<title>Node17&#45;&gt;Node7</title>
<path fill="none" stroke="midnightblue" d="M348.77,-112.37C318.61,-93.41 246.36,-48 209.68,-24.94"/>
<polygon fill="midnightblue" stroke="midnightblue" points="211.5,-21.95 201.17,-19.59 207.77,-27.88 211.5,-21.95"/>
</g>
<!-- Node17&#45;&gt;Node9 -->
<g id="edge21" class="edge">
<title>Node17&#45;&gt;Node9</title>
<path fill="none" stroke="midnightblue" d="M351.38,-112.46C336.44,-99.91 313.13,-75.83 325.5,-56 336.19,-38.87 355.51,-28.08 373.69,-21.38"/>
<polygon fill="midnightblue" stroke="midnightblue" points="374.96,-24.64 383.33,-18.15 372.73,-18.01 374.96,-24.64"/>
</g>
<!-- Node17&#45;&gt;Node10 -->
<g id="edge22" class="edge">
<title>Node17&#45;&gt;Node10</title>
<path fill="none" stroke="midnightblue" d="M433.12,-112.85C469.52,-106.51 513.67,-95.38 549.5,-76 572.01,-63.83 592.63,-42.46 605.35,-27.56"/>
<polygon fill="midnightblue" stroke="midnightblue" points="608.21,-29.59 611.88,-19.66 602.82,-25.14 608.21,-29.59"/>
</g>
<!-- Node17&#45;&gt;Node12 -->
<g id="edge23" class="edge">
<title>Node17&#45;&gt;Node12</title>
<path fill="none" stroke="midnightblue" d="M433.1,-112.94C483.56,-106.05 552.67,-94.29 611.5,-76 634.54,-68.84 693.94,-40.81 728.83,-23.99"/>
<polygon fill="midnightblue" stroke="midnightblue" points="730.49,-27.07 737.97,-19.57 727.44,-20.77 730.49,-27.07"/>
</g>
<!-- Node17&#45;&gt;Node14 -->
<g id="edge24" class="edge">
<title>Node17&#45;&gt;Node14</title>
<path fill="none" stroke="midnightblue" d="M429.1,-112.46C472.11,-105.62 528.76,-94.12 576.5,-76 611.17,-62.84 647.83,-40.14 669.94,-25.35"/>
<polygon fill="midnightblue" stroke="midnightblue" points="672.18,-28.07 678.48,-19.55 668.24,-22.28 672.18,-28.07"/>
</g>
<!-- Node17&#45;&gt;Node16 -->
<g id="edge26" class="edge">
<title>Node17&#45;&gt;Node16</title>
<path fill="none" stroke="midnightblue" d="M291.85,-115.97C242.96,-110.53 177.26,-99.27 123.5,-76 95.69,-63.96 68.22,-41.94 51.32,-26.89"/>
<polygon fill="midnightblue" stroke="midnightblue" points="53.24,-23.91 43.5,-19.75 48.52,-29.08 53.24,-23.91"/>
</g>
<!-- Node18 -->
<g id="node18" class="node">
<title>Node18</title>
<g id="a_node18"><a xlink:title=" ">
<polygon fill="none" stroke="#bfbfbf" points="150.5,-56.5 150.5,-75.5 240.5,-75.5 240.5,-56.5 150.5,-56.5"/>
<text text-anchor="middle" x="195.5" y="-63.5" font-family="serif" font-size="10.00">sys/resource.h</text>
</a>
</g>
</g>
<!-- Node17&#45;&gt;Node18 -->
<g id="edge17" class="edge">
<title>Node17&#45;&gt;Node18</title>
<path fill="none" stroke="midnightblue" d="M336.04,-112.44C307.82,-103.32 262.96,-88.81 231.53,-78.65"/>
<polygon fill="midnightblue" stroke="midnightblue" points="232.43,-75.26 221.84,-75.52 230.28,-81.92 232.43,-75.26"/>
</g>
<!-- Node19 -->
<g id="node19" class="node">
<title>Node19</title>
<g id="a_node19"><a xlink:title=" ">
<polygon fill="none" stroke="#bfbfbf" points="334.5,-56.5 334.5,-75.5 390.5,-75.5 390.5,-56.5 334.5,-56.5"/>
<text text-anchor="middle" x="362.5" y="-63.5" font-family="serif" font-size="10.00">fstream</text>
</a>
</g>
</g>
<!-- Node17&#45;&gt;Node19 -->
<g id="edge20" class="edge">
<title>Node17&#45;&gt;Node19</title>
<path fill="none" stroke="midnightblue" d="M362.5,-112.08C362.5,-105.01 362.5,-94.86 362.5,-85.99"/>
<polygon fill="midnightblue" stroke="midnightblue" points="366,-85.75 362.5,-75.75 359,-85.75 366,-85.75"/>
</g>
<!-- Node20&#45;&gt;Node5 -->
<g id="edge28" class="edge">
<title>Node20&#45;&gt;Node5</title>
<path fill="none" stroke="midnightblue" d="M759.16,-56.32C772.42,-47.9 792.77,-34.97 808.35,-25.07"/>
<polygon fill="midnightblue" stroke="midnightblue" points="810.31,-27.97 816.88,-19.65 806.56,-22.06 810.31,-27.97"/>
</g>
<!-- Node20&#45;&gt;Node9 -->
<g id="edge29" class="edge">
<title>Node20&#45;&gt;Node9</title>
<path fill="none" stroke="midnightblue" d="M686.9,-56.5C629.38,-47.96 539.23,-34.1 461.5,-20 461.4,-19.98 461.3,-19.96 461.2,-19.95"/>
<polygon fill="midnightblue" stroke="midnightblue" points="462.06,-16.55 451.58,-18.13 460.76,-23.42 462.06,-16.55"/>
</g>
<!-- Node20&#45;&gt;Node10 -->
<g id="edge30" class="edge">
<title>Node20&#45;&gt;Node10</title>
<path fill="none" stroke="midnightblue" d="M725.38,-56.44C704.48,-47.56 671.57,-33.56 647.78,-23.45"/>
<polygon fill="midnightblue" stroke="midnightblue" points="649.1,-20.21 638.53,-19.52 646.36,-26.65 649.1,-20.21"/>
</g>
<!-- Node20&#45;&gt;Node12 -->
<g id="edge32" class="edge">
<title>Node20&#45;&gt;Node12</title>
<path fill="none" stroke="midnightblue" d="M747.15,-56.08C748.48,-48.93 750.38,-38.64 752.04,-29.69"/>
<polygon fill="midnightblue" stroke="midnightblue" points="755.5,-30.22 753.88,-19.75 748.62,-28.95 755.5,-30.22"/>
</g>
<!-- Node20&#45;&gt;Node13 -->
<g id="edge33" class="edge">
<title>Node20&#45;&gt;Node13</title>
<path fill="none" stroke="midnightblue" d="M713.32,-56.46C681.8,-48.05 632.18,-34.71 579.95,-20.09"/>
<polygon fill="midnightblue" stroke="midnightblue" points="580.74,-16.68 570.17,-17.34 578.85,-23.42 580.74,-16.68"/>
</g>
<!-- Node20&#45;&gt;Node14 -->
<g id="edge34" class="edge">
<title>Node20&#45;&gt;Node14</title>
<path fill="none" stroke="midnightblue" d="M736.42,-56.08C728.33,-48.14 716.3,-36.34 706.59,-26.8"/>
<polygon fill="midnightblue" stroke="midnightblue" points="709,-24.26 699.41,-19.75 704.1,-29.25 709,-24.26"/>
</g>
<!-- Node20&#45;&gt;Node15 -->
<g id="edge36" class="edge">
<title>Node20&#45;&gt;Node15</title>
<path fill="none" stroke="midnightblue" d="M770.85,-56.44C798.09,-47.25 841.5,-32.6 871.64,-22.43"/>
<polygon fill="midnightblue" stroke="midnightblue" points="872.96,-25.68 881.31,-19.16 870.72,-19.04 872.96,-25.68"/>
</g>
<!-- Node21 -->
<g id="node21" class="node">
<title>Node21</title>
<g id="a_node21"><a xlink:title=" ">
<polygon fill="none" stroke="#bfbfbf" points="947.5,-0.5 947.5,-19.5 991.5,-19.5 991.5,-0.5 947.5,-0.5"/>
<text text-anchor="middle" x="969.5" y="-7.5" font-family="serif" font-size="10.00">limits</text>
</a>
</g>
</g>
<!-- Node20&#45;&gt;Node21 -->
<g id="edge31" class="edge">
<title>Node20&#45;&gt;Node21</title>
<path fill="none" stroke="midnightblue" d="M784.83,-56.48C821.88,-48.3 879.14,-35.3 937.44,-20.18"/>
<polygon fill="midnightblue" stroke="midnightblue" points="938.4,-23.55 947.19,-17.63 936.63,-16.77 938.4,-23.55"/>
</g>
<!-- Node22 -->
<g id="node22" class="node">
<title>Node22</title>
<g id="a_node22"><a xlink:title=" ">
<polygon fill="none" stroke="#bfbfbf" points="1010,-0.5 1010,-19.5 1063,-19.5 1063,-0.5 1010,-0.5"/>
<text text-anchor="middle" x="1036.5" y="-7.5" font-family="serif" font-size="10.00">variant</text>
</a>
</g>
</g>
<!-- Node20&#45;&gt;Node22 -->
<g id="edge35" class="edge">
<title>Node20&#45;&gt;Node22</title>
<path fill="none" stroke="midnightblue" d="M800.43,-56.45C850,-48.48 925.11,-35.76 999.76,-20.03"/>
<polygon fill="midnightblue" stroke="midnightblue" points="1000.76,-23.4 1009.81,-17.89 999.3,-16.55 1000.76,-23.4"/>
</g>
<!-- Node23&#45;&gt;Node5 -->
<g id="edge38" class="edge">
<title>Node23&#45;&gt;Node5</title>
<path fill="none" stroke="midnightblue" d="M912.75,-56.32C897.18,-47.74 873.12,-34.49 855.04,-24.52"/>
<polygon fill="midnightblue" stroke="midnightblue" points="856.65,-21.42 846.21,-19.65 853.28,-27.55 856.65,-21.42"/>
</g>
<!-- Node23&#45;&gt;Node10 -->
<g id="edge39" class="edge">
<title>Node23&#45;&gt;Node10</title>
<path fill="none" stroke="midnightblue" d="M871.71,-56.48C819.2,-48.4 738.77,-35.47 659.24,-20.05"/>
<polygon fill="midnightblue" stroke="midnightblue" points="659.52,-16.54 649.04,-18.06 658.18,-23.41 659.52,-16.54"/>
</g>
<!-- Node23&#45;&gt;Node12 -->
<g id="edge41" class="edge">
<title>Node23&#45;&gt;Node12</title>
<path fill="none" stroke="midnightblue" d="M901.09,-56.44C870.61,-46.93 821.38,-31.56 788.73,-21.37"/>
<polygon fill="midnightblue" stroke="midnightblue" points="789.76,-18.03 779.17,-18.39 787.67,-24.71 789.76,-18.03"/>
</g>
<!-- Node23&#45;&gt;Node14 -->
<g id="edge42" class="edge">
<title>Node23&#45;&gt;Node14</title>
<path fill="none" stroke="midnightblue" d="M886.74,-56.47C845.21,-47.85 779.76,-33.84 723.5,-20 723.4,-19.98 723.3,-19.95 723.2,-19.93"/>
<polygon fill="midnightblue" stroke="midnightblue" points="724.1,-16.54 713.54,-17.44 722.35,-23.32 724.1,-16.54"/>
</g>
<!-- Node23&#45;&gt;Node15 -->
<g id="edge43" class="edge">
<title>Node23&#45;&gt;Node15</title>
<path fill="none" stroke="midnightblue" d="M924.7,-56.08C921.59,-48.77 917.08,-38.18 913.21,-29.1"/>
<polygon fill="midnightblue" stroke="midnightblue" points="916.37,-27.58 909.23,-19.75 909.93,-30.32 916.37,-27.58"/>
</g>
<!-- Node23&#45;&gt;Node21 -->
<g id="edge40" class="edge">
<title>Node23&#45;&gt;Node21</title>
<path fill="none" stroke="midnightblue" d="M935.27,-56.08C941.06,-48.46 949.56,-37.26 956.64,-27.94"/>
<polygon fill="midnightblue" stroke="midnightblue" points="959.6,-29.83 962.86,-19.75 954.02,-25.6 959.6,-29.83"/>
</g>
<!-- Node24&#45;&gt;Node22 -->
<g id="edge47" class="edge">
<title>Node24&#45;&gt;Node22</title>
<path fill="none" stroke="midnightblue" d="M1101.97,-56.32C1089.91,-47.98 1071.47,-35.21 1057.23,-25.35"/>
<polygon fill="midnightblue" stroke="midnightblue" points="1059.22,-22.47 1049,-19.65 1055.23,-28.22 1059.22,-22.47"/>
</g>
<!-- Node25 -->
<g id="node25" class="node">
<title>Node25</title>
<g id="a_node25"><a xlink:title=" ">
<polygon fill="none" stroke="#bfbfbf" points="1170,-0.5 1170,-19.5 1229,-19.5 1229,-0.5 1170,-0.5"/>
<text text-anchor="middle" x="1199.5" y="-7.5" font-family="serif" font-size="10.00">memory</text>
</a>
</g>
</g>
<!-- Node24&#45;&gt;Node25 -->
<g id="edge45" class="edge">
<title>Node24&#45;&gt;Node25</title>
<path fill="none" stroke="midnightblue" d="M1128.16,-56.32C1141.42,-47.9 1161.77,-34.97 1177.35,-25.07"/>
<polygon fill="midnightblue" stroke="midnightblue" points="1179.31,-27.97 1185.88,-19.65 1175.56,-22.06 1179.31,-27.97"/>
</g>
<!-- Node26 -->
<g id="node26" class="node">
<title>Node26</title>
<g id="a_node26"><a xlink:title=" ">
<polygon fill="none" stroke="#bfbfbf" points="1081,-0.5 1081,-19.5 1152,-19.5 1152,-0.5 1081,-0.5"/>
<text text-anchor="middle" x="1116.5" y="-7.5" font-family="serif" font-size="10.00">type_traits</text>
</a>
</g>
</g>
<!-- Node24&#45;&gt;Node26 -->
<g id="edge46" class="edge">
<title>Node24&#45;&gt;Node26</title>
<path fill="none" stroke="midnightblue" d="M1114.83,-56.08C1115.09,-49.01 1115.47,-38.86 1115.8,-29.99"/>
<polygon fill="midnightblue" stroke="midnightblue" points="1119.3,-29.87 1116.18,-19.75 1112.31,-29.61 1119.3,-29.87"/>
</g>
</g>
</svg>
