<?xml version="1.0" encoding="UTF-8" standalone="no"?>
<!DOCTYPE svg PUBLIC "-//W3C//DTD SVG 1.1//EN"
 "http://www.w3.org/Graphics/SVG/1.1/DTD/svg11.dtd">
<!-- Generated by graphviz version 2.43.0 (0)
 -->
<!-- Title: Coefficients Pages: 1 -->
<svg width="176pt" height="167pt"
 viewBox="0.00 0.00 176.00 167.00" xmlns="http://www.w3.org/2000/svg" xmlns:xlink="http://www.w3.org/1999/xlink">
<g id="graph0" class="graph" transform="scale(1 1) rotate(0) translate(4 163)">
<title>Coefficients</title>
<g id="clust1" class="cluster">
<title>clusterdir_009f605b833ac4622acd6c3c0c26c0f0</title>
<g id="a_clust1"><a xlink:href="dir_009f605b833ac4622acd6c3c0c26c0f0.html" target="_top" xlink:title="include">
<polygon fill="#ddddee" stroke="black" points="8,-8 8,-151 160,-151 160,-8 8,-8"/>
<text text-anchor="middle" x="84" y="-139" font-family="serif" font-size="10.00">include</text>
</a>
</g>
</g>
<!-- dir_891ea87c6e6d1f8e94fb23e54b4dc7cd -->
<g id="node1" class="node">
<title>dir_891ea87c6e6d1f8e94fb23e54b4dc7cd</title>
<g id="a_node1"><a xlink:href="dir_891ea87c6e6d1f8e94fb23e54b4dc7cd.html" target="_top" xlink:title="Options">
<polygon fill="none" stroke="black" points="72,-52 16,-52 16,-16 72,-16 72,-52"/>
<text text-anchor="middle" x="44" y="-31.5" font-family="serif" font-size="10.00">Options</text>
</a>
</g>
</g>
<!-- dir_a2facb0d11b1e20399bcbb6ce73336f1 -->
<g id="node2" class="node">
<title>dir_a2facb0d11b1e20399bcbb6ce73336f1</title>
<g id="a_node2"><a xlink:href="dir_a2facb0d11b1e20399bcbb6ce73336f1.html" target="_top" xlink:title="Glossary">
<polygon fill="none" stroke="black" points="151.5,-52 90.5,-52 90.5,-16 151.5,-16 151.5,-52"/>
<text text-anchor="middle" x="121" y="-31.5" font-family="serif" font-size="10.00">Glossary</text>
</a>
</g>
</g>
<!-- dir_eb1bcaaac1032b67f9df3118ac8c5353 -->
<g id="node3" class="node">
<title>dir_eb1bcaaac1032b67f9df3118ac8c5353</title>
<g id="a_node3"><a xlink:href="dir_eb1bcaaac1032b67f9df3118ac8c5353.html" target="_top" xlink:title="Coefficients">
<polygon fill="#eeeeff" stroke="black" points="122,-124 46,-124 46,-88 122,-88 122,-124"/>
<text text-anchor="middle" x="84" y="-103.5" font-family="serif" font-size="10.00">Coefficients</text>
</a>
</g>
</g>
<!-- dir_eb1bcaaac1032b67f9df3118ac8c5353&#45;&gt;dir_891ea87c6e6d1f8e94fb23e54b4dc7cd -->
<g id="edge1" class="edge">
<title>dir_eb1bcaaac1032b67f9df3118ac8c5353&#45;&gt;dir_891ea87c6e6d1f8e94fb23e54b4dc7cd</title>
<path fill="none" stroke="black" d="M74.11,-87.7C69.51,-79.64 63.94,-69.89 58.85,-60.98"/>
<polygon fill="black" stroke="black" points="61.77,-59.05 53.77,-52.1 55.7,-62.52 61.77,-59.05"/>
<g id="a_edge1&#45;headlabel"><a xlink:href="dir_000012_000005.html" target="_top" xlink:title="2">
<text text-anchor="middle" x="66.02" y="-58.26" font-family="serif" font-size="10.00">2</text>
</a>
</g>
</g>
<!-- dir_eb1bcaaac1032b67f9df3118ac8c5353&#45;&gt;dir_a2facb0d11b1e20399bcbb6ce73336f1 -->
<g id="edge2" class="edge">
<title>dir_eb1bcaaac1032b67f9df3118ac8c5353&#45;&gt;dir_a2facb0d11b1e20399bcbb6ce73336f1</title>
<path fill="none" stroke="black" d="M93.15,-87.7C97.4,-79.64 102.56,-69.89 107.27,-60.98"/>
<polygon fill="black" stroke="black" points="110.38,-62.58 111.96,-52.1 104.19,-59.31 110.38,-62.58"/>
<g id="a_edge2&#45;headlabel"><a xlink:href="dir_000012_000018.html" target="_top" xlink:title="4">
<text text-anchor="middle" x="111.21" y="-64.59" font-family="serif" font-size="10.00">4</text>
</a>
</g>
</g>
</g>
</svg>
