<?xml version="1.0" encoding="UTF-8" standalone="no"?>
<!DOCTYPE svg PUBLIC "-//W3C//DTD SVG 1.1//EN"
 "http://www.w3.org/Graphics/SVG/1.1/DTD/svg11.dtd">
<!-- Generated by graphviz version 2.43.0 (0)
 -->
<!-- Title: Variables Pages: 1 -->
<svg width="270pt" height="311pt"
 viewBox="0.00 0.00 270.00 311.00" xmlns="http://www.w3.org/2000/svg" xmlns:xlink="http://www.w3.org/1999/xlink">
<g id="graph0" class="graph" transform="scale(1 1) rotate(0) translate(4 307)">
<title>Variables</title>
<g id="clust1" class="cluster">
<title>clusterdir_009f605b833ac4622acd6c3c0c26c0f0</title>
<g id="a_clust1"><a xlink:href="dir_009f605b833ac4622acd6c3c0c26c0f0.html" target="_top" xlink:title="include">
<polygon fill="#ddddee" stroke="black" points="8,-8 8,-295 254,-295 254,-8 8,-8"/>
<text text-anchor="middle" x="131" y="-283" font-family="serif" font-size="10.00">include</text>
</a>
</g>
</g>
<!-- dir_184b109a86d3f32ed165e8c995e7a4b9 -->
<g id="node1" class="node">
<title>dir_184b109a86d3f32ed165e8c995e7a4b9</title>
<g id="a_node1"><a xlink:href="dir_184b109a86d3f32ed165e8c995e7a4b9.html" target="_top" xlink:title="AnalyticalFunctions">
<polygon fill="none" stroke="black" points="133.5,-124 16.5,-124 16.5,-88 133.5,-88 133.5,-124"/>
<text text-anchor="middle" x="75" y="-103.5" font-family="serif" font-size="10.00">AnalyticalFunctions</text>
</a>
</g>
</g>
<!-- dir_97cd71bc012adc9145264269177778ae -->
<g id="node4" class="node">
<title>dir_97cd71bc012adc9145264269177778ae</title>
<g id="a_node4"><a xlink:href="dir_97cd71bc012adc9145264269177778ae.html" target="_top" xlink:title="Utils">
<polygon fill="none" stroke="black" points="226,-52 172,-52 172,-16 226,-16 226,-52"/>
<text text-anchor="middle" x="199" y="-31.5" font-family="serif" font-size="10.00">Utils</text>
</a>
</g>
</g>
<!-- dir_184b109a86d3f32ed165e8c995e7a4b9&#45;&gt;dir_97cd71bc012adc9145264269177778ae -->
<g id="edge7" class="edge">
<title>dir_184b109a86d3f32ed165e8c995e7a4b9&#45;&gt;dir_97cd71bc012adc9145264269177778ae</title>
<path fill="none" stroke="black" d="M105.33,-87.88C122.75,-78.04 144.73,-65.64 163.02,-55.31"/>
<polygon fill="black" stroke="black" points="164.95,-58.24 171.93,-50.28 161.5,-52.15 164.95,-58.24"/>
<g id="a_edge7&#45;headlabel"><a xlink:href="dir_000006_000030.html" target="_top" xlink:title="1">
<text text-anchor="middle" x="163.21" y="-59.98" font-family="serif" font-size="10.00">1</text>
</a>
</g>
</g>
<!-- dir_5df7af9f6474348e88015f5803315ff2 -->
<g id="node2" class="node">
<title>dir_5df7af9f6474348e88015f5803315ff2</title>
<g id="a_node2"><a xlink:href="dir_5df7af9f6474348e88015f5803315ff2.html" target="_top" xlink:title="Spatial">
<polygon fill="none" stroke="black" points="206,-124 152,-124 152,-88 206,-88 206,-124"/>
<text text-anchor="middle" x="179" y="-103.5" font-family="serif" font-size="10.00">Spatial</text>
</a>
</g>
</g>
<!-- dir_5df7af9f6474348e88015f5803315ff2&#45;&gt;dir_97cd71bc012adc9145264269177778ae -->
<g id="edge8" class="edge">
<title>dir_5df7af9f6474348e88015f5803315ff2&#45;&gt;dir_97cd71bc012adc9145264269177778ae</title>
<path fill="none" stroke="black" d="M183.94,-87.7C186.17,-79.9 188.85,-70.51 191.33,-61.83"/>
<polygon fill="black" stroke="black" points="194.73,-62.68 194.11,-52.1 188,-60.76 194.73,-62.68"/>
<g id="a_edge8&#45;headlabel"><a xlink:href="dir_000028_000030.html" target="_top" xlink:title="1">
<text text-anchor="middle" x="196.47" y="-64.42" font-family="serif" font-size="10.00">1</text>
</a>
</g>
</g>
<!-- dir_64fc8d0c977472725ead506290358a75 -->
<g id="node3" class="node">
<title>dir_64fc8d0c977472725ead506290358a75</title>
<g id="a_node3"><a xlink:href="dir_64fc8d0c977472725ead506290358a75.html" target="_top" xlink:title="BCs">
<polygon fill="none" stroke="black" points="226,-196 172,-196 172,-160 226,-160 226,-196"/>
<text text-anchor="middle" x="199" y="-175.5" font-family="serif" font-size="10.00">BCs</text>
</a>
</g>
</g>
<!-- dir_64fc8d0c977472725ead506290358a75&#45;&gt;dir_5df7af9f6474348e88015f5803315ff2 -->
<g id="edge1" class="edge">
<title>dir_64fc8d0c977472725ead506290358a75&#45;&gt;dir_5df7af9f6474348e88015f5803315ff2</title>
<path fill="none" stroke="black" d="M194.06,-159.7C191.83,-151.9 189.15,-142.51 186.67,-133.83"/>
<polygon fill="black" stroke="black" points="190,-132.76 183.89,-124.1 183.27,-134.68 190,-132.76"/>
<g id="a_edge1&#45;headlabel"><a xlink:href="dir_000009_000028.html" target="_top" xlink:title="2">
<text text-anchor="middle" x="193.72" y="-132.93" font-family="serif" font-size="10.00">2</text>
</a>
</g>
</g>
<!-- dir_64fc8d0c977472725ead506290358a75&#45;&gt;dir_97cd71bc012adc9145264269177778ae -->
<g id="edge2" class="edge">
<title>dir_64fc8d0c977472725ead506290358a75&#45;&gt;dir_97cd71bc012adc9145264269177778ae</title>
<path fill="none" stroke="black" d="M205.65,-159.63C209.2,-149.42 213.2,-136.17 215,-124 217.34,-108.17 217.34,-103.83 215,-88 213.72,-79.35 211.33,-70.15 208.78,-61.89"/>
<polygon fill="black" stroke="black" points="212.1,-60.78 205.65,-52.37 205.45,-62.96 212.1,-60.78"/>
<g id="a_edge2&#45;headlabel"><a xlink:href="dir_000009_000030.html" target="_top" xlink:title="2">
<text text-anchor="middle" x="215.92" y="-60.81" font-family="serif" font-size="10.00">2</text>
</a>
</g>
</g>
<!-- dir_c032d959549aafe62efcbd448707d983 -->
<g id="node5" class="node">
<title>dir_c032d959549aafe62efcbd448707d983</title>
<g id="a_node5"><a xlink:href="dir_c032d959549aafe62efcbd448707d983.html" target="_top" xlink:title="Variables">
<polygon fill="#eeeeff" stroke="black" points="207.5,-268 144.5,-268 144.5,-232 207.5,-232 207.5,-268"/>
<text text-anchor="middle" x="176" y="-247.5" font-family="serif" font-size="10.00">Variables</text>
</a>
</g>
</g>
<!-- dir_c032d959549aafe62efcbd448707d983&#45;&gt;dir_184b109a86d3f32ed165e8c995e7a4b9 -->
<g id="edge3" class="edge">
<title>dir_c032d959549aafe62efcbd448707d983&#45;&gt;dir_184b109a86d3f32ed165e8c995e7a4b9</title>
<path fill="none" stroke="black" d="M163.82,-231.87C146.22,-207.14 113.58,-161.24 93.15,-132.51"/>
<polygon fill="black" stroke="black" points="95.87,-130.31 87.23,-124.19 90.17,-134.37 95.87,-130.31"/>
<g id="a_edge3&#45;headlabel"><a xlink:href="dir_000032_000006.html" target="_top" xlink:title="1">
<text text-anchor="middle" x="100.27" y="-129.09" font-family="serif" font-size="10.00">1</text>
</a>
</g>
</g>
<!-- dir_c032d959549aafe62efcbd448707d983&#45;&gt;dir_5df7af9f6474348e88015f5803315ff2 -->
<g id="edge4" class="edge">
<title>dir_c032d959549aafe62efcbd448707d983&#45;&gt;dir_5df7af9f6474348e88015f5803315ff2</title>
<path fill="none" stroke="black" d="M170.59,-231.53C167.7,-221.29 164.45,-208.04 163,-196 161.08,-180.12 160.66,-175.83 163,-160 164.28,-151.35 166.67,-142.15 169.22,-133.89"/>
<polygon fill="black" stroke="black" points="172.55,-134.96 172.35,-124.37 165.9,-132.78 172.55,-134.96"/>
<g id="a_edge4&#45;headlabel"><a xlink:href="dir_000032_000028.html" target="_top" xlink:title="1">
<text text-anchor="middle" x="174.12" y="-136.77" font-family="serif" font-size="10.00">1</text>
</a>
</g>
</g>
<!-- dir_c032d959549aafe62efcbd448707d983&#45;&gt;dir_64fc8d0c977472725ead506290358a75 -->
<g id="edge5" class="edge">
<title>dir_c032d959549aafe62efcbd448707d983&#45;&gt;dir_64fc8d0c977472725ead506290358a75</title>
<path fill="none" stroke="black" d="M181.69,-231.7C184.25,-223.9 187.33,-214.51 190.18,-205.83"/>
<polygon fill="black" stroke="black" points="193.58,-206.7 193.38,-196.1 186.93,-204.51 193.58,-206.7"/>
<g id="a_edge5&#45;headlabel"><a xlink:href="dir_000032_000009.html" target="_top" xlink:title="1">
<text text-anchor="middle" x="195.16" y="-208.5" font-family="serif" font-size="10.00">1</text>
</a>
</g>
</g>
<!-- dir_c032d959549aafe62efcbd448707d983&#45;&gt;dir_97cd71bc012adc9145264269177778ae -->
<g id="edge6" class="edge">
<title>dir_c032d959549aafe62efcbd448707d983&#45;&gt;dir_97cd71bc012adc9145264269177778ae</title>
<path fill="none" stroke="black" d="M203.8,-231.87C215.77,-222.84 228.5,-210.59 235,-196 255.07,-151 231.91,-93.78 214.56,-61.08"/>
<polygon fill="black" stroke="black" points="217.53,-59.22 209.64,-52.15 211.4,-62.6 217.53,-59.22"/>
<g id="a_edge6&#45;headlabel"><a xlink:href="dir_000032_000030.html" target="_top" xlink:title="1">
<text text-anchor="middle" x="221.75" y="-58.5" font-family="serif" font-size="10.00">1</text>
</a>
</g>
</g>
</g>
</svg>
