<?xml version="1.0" encoding="UTF-8" standalone="no"?>
<!DOCTYPE svg PUBLIC "-//W3C//DTD SVG 1.1//EN"
 "http://www.w3.org/Graphics/SVG/1.1/DTD/svg11.dtd">
<!-- Generated by graphviz version 2.43.0 (0)
 -->
<!-- Title: Convergence Pages: 1 -->
<svg width="124pt" height="239pt"
 viewBox="0.00 0.00 124.00 239.00" xmlns="http://www.w3.org/2000/svg" xmlns:xlink="http://www.w3.org/1999/xlink">
<g id="graph0" class="graph" transform="scale(1 1) rotate(0) translate(4 235)">
<title>Convergence</title>
<g id="clust1" class="cluster">
<title>clusterdir_009f605b833ac4622acd6c3c0c26c0f0</title>
<g id="a_clust1"><a xlink:href="dir_009f605b833ac4622acd6c3c0c26c0f0.html" target="_top" xlink:title="include">
<polygon fill="#ddddee" stroke="black" points="8,-8 8,-223 108,-223 108,-8 8,-8"/>
<text text-anchor="middle" x="58" y="-211" font-family="serif" font-size="10.00">include</text>
</a>
</g>
</g>
<!-- dir_891ea87c6e6d1f8e94fb23e54b4dc7cd -->
<g id="node1" class="node">
<title>dir_891ea87c6e6d1f8e94fb23e54b4dc7cd</title>
<g id="a_node1"><a xlink:href="dir_891ea87c6e6d1f8e94fb23e54b4dc7cd.html" target="_top" xlink:title="Options">
<polygon fill="none" stroke="black" points="76,-124 20,-124 20,-88 76,-88 76,-124"/>
<text text-anchor="middle" x="48" y="-103.5" font-family="serif" font-size="10.00">Options</text>
</a>
</g>
</g>
<!-- dir_97cd71bc012adc9145264269177778ae -->
<g id="node2" class="node">
<title>dir_97cd71bc012adc9145264269177778ae</title>
<g id="a_node2"><a xlink:href="dir_97cd71bc012adc9145264269177778ae.html" target="_top" xlink:title="Utils">
<polygon fill="none" stroke="black" points="87,-52 33,-52 33,-16 87,-16 87,-52"/>
<text text-anchor="middle" x="60" y="-31.5" font-family="serif" font-size="10.00">Utils</text>
</a>
</g>
</g>
<!-- dir_891ea87c6e6d1f8e94fb23e54b4dc7cd&#45;&gt;dir_97cd71bc012adc9145264269177778ae -->
<g id="edge1" class="edge">
<title>dir_891ea87c6e6d1f8e94fb23e54b4dc7cd&#45;&gt;dir_97cd71bc012adc9145264269177778ae</title>
<path fill="none" stroke="black" d="M50.97,-87.7C52.29,-79.98 53.88,-70.71 55.35,-62.11"/>
<polygon fill="black" stroke="black" points="58.83,-62.55 57.07,-52.1 51.93,-61.37 58.83,-62.55"/>
<g id="a_edge1&#45;headlabel"><a xlink:href="dir_000005_000030.html" target="_top" xlink:title="12">
<text text-anchor="middle" x="61.02" y="-64.07" font-family="serif" font-size="10.00">12</text>
</a>
</g>
</g>
<!-- dir_e413f75bec04976993afadedd8ad09f5 -->
<g id="node3" class="node">
<title>dir_e413f75bec04976993afadedd8ad09f5</title>
<g id="a_node3"><a xlink:href="dir_e413f75bec04976993afadedd8ad09f5.html" target="_top" xlink:title="Convergence">
<polygon fill="#eeeeff" stroke="black" points="100,-196 16,-196 16,-160 100,-160 100,-196"/>
<text text-anchor="middle" x="58" y="-175.5" font-family="serif" font-size="10.00">Convergence</text>
</a>
</g>
</g>
<!-- dir_e413f75bec04976993afadedd8ad09f5&#45;&gt;dir_891ea87c6e6d1f8e94fb23e54b4dc7cd -->
<g id="edge2" class="edge">
<title>dir_e413f75bec04976993afadedd8ad09f5&#45;&gt;dir_891ea87c6e6d1f8e94fb23e54b4dc7cd</title>
<path fill="none" stroke="black" d="M55.53,-159.7C54.43,-151.98 53.1,-142.71 51.87,-134.11"/>
<polygon fill="black" stroke="black" points="55.32,-133.51 50.44,-124.1 48.39,-134.5 55.32,-133.51"/>
<g id="a_edge2&#45;headlabel"><a xlink:href="dir_000014_000005.html" target="_top" xlink:title="1">
<text text-anchor="middle" x="58.64" y="-134.17" font-family="serif" font-size="10.00">1</text>
</a>
</g>
</g>
<!-- dir_e413f75bec04976993afadedd8ad09f5&#45;&gt;dir_97cd71bc012adc9145264269177778ae -->
<g id="edge3" class="edge">
<title>dir_e413f75bec04976993afadedd8ad09f5&#45;&gt;dir_97cd71bc012adc9145264269177778ae</title>
<path fill="none" stroke="black" d="M69.47,-159.67C75.37,-149.69 81.96,-136.65 85,-124 88.73,-108.44 88.5,-103.61 85,-88 82.99,-79.01 79.27,-69.75 75.3,-61.53"/>
<polygon fill="black" stroke="black" points="78.32,-59.73 70.63,-52.44 72.09,-62.94 78.32,-59.73"/>
<g id="a_edge3&#45;headlabel"><a xlink:href="dir_000014_000030.html" target="_top" xlink:title="2">
<text text-anchor="middle" x="82.48" y="-59.13" font-family="serif" font-size="10.00">2</text>
</a>
</g>
</g>
</g>
</svg>
