<?xml version="1.0" encoding="UTF-8" standalone="no"?>
<!DOCTYPE svg PUBLIC "-//W3C//DTD SVG 1.1//EN"
 "http://www.w3.org/Graphics/SVG/1.1/DTD/svg11.dtd">
<!-- Generated by graphviz version 2.43.0 (0)
 -->
<!-- Title: Calphad Pages: 1 -->
<svg width="248pt" height="239pt"
 viewBox="0.00 0.00 248.00 239.00" xmlns="http://www.w3.org/2000/svg" xmlns:xlink="http://www.w3.org/1999/xlink">
<g id="graph0" class="graph" transform="scale(1 1) rotate(0) translate(4 235)">
<title>Calphad</title>
<g id="clust1" class="cluster">
<title>clusterdir_009f605b833ac4622acd6c3c0c26c0f0</title>
<g id="a_clust1"><a xlink:href="dir_009f605b833ac4622acd6c3c0c26c0f0.html" target="_top" xlink:title="include">
<polygon fill="#ddddee" stroke="black" points="8,-8 8,-223 232,-223 232,-8 8,-8"/>
<text text-anchor="middle" x="120" y="-211" font-family="serif" font-size="10.00">include</text>
</a>
</g>
</g>
<!-- dir_891ea87c6e6d1f8e94fb23e54b4dc7cd -->
<g id="node1" class="node">
<title>dir_891ea87c6e6d1f8e94fb23e54b4dc7cd</title>
<g id="a_node1"><a xlink:href="dir_891ea87c6e6d1f8e94fb23e54b4dc7cd.html" target="_top" xlink:title="Options">
<polygon fill="none" stroke="black" points="101,-52 45,-52 45,-16 101,-16 101,-52"/>
<text text-anchor="middle" x="73" y="-31.5" font-family="serif" font-size="10.00">Options</text>
</a>
</g>
</g>
<!-- dir_91c9bd6d2116d1df73605922efc3dea0 -->
<g id="node2" class="node">
<title>dir_91c9bd6d2116d1df73605922efc3dea0</title>
<g id="a_node2"><a xlink:href="dir_91c9bd6d2116d1df73605922efc3dea0.html" target="_top" xlink:title="Parameters">
<polygon fill="none" stroke="black" points="110,-124 36,-124 36,-88 110,-88 110,-124"/>
<text text-anchor="middle" x="73" y="-103.5" font-family="serif" font-size="10.00">Parameters</text>
</a>
</g>
</g>
<!-- dir_91c9bd6d2116d1df73605922efc3dea0&#45;&gt;dir_891ea87c6e6d1f8e94fb23e54b4dc7cd -->
<g id="edge3" class="edge">
<title>dir_91c9bd6d2116d1df73605922efc3dea0&#45;&gt;dir_891ea87c6e6d1f8e94fb23e54b4dc7cd</title>
<path fill="none" stroke="black" d="M73,-87.7C73,-79.98 73,-70.71 73,-62.11"/>
<polygon fill="black" stroke="black" points="76.5,-62.1 73,-52.1 69.5,-62.1 76.5,-62.1"/>
<g id="a_edge3&#45;headlabel"><a xlink:href="dir_000023_000005.html" target="_top" xlink:title="1">
<text text-anchor="middle" x="79.34" y="-63.2" font-family="serif" font-size="10.00">1</text>
</a>
</g>
</g>
<!-- dir_a2facb0d11b1e20399bcbb6ce73336f1 -->
<g id="node3" class="node">
<title>dir_a2facb0d11b1e20399bcbb6ce73336f1</title>
<g id="a_node3"><a xlink:href="dir_a2facb0d11b1e20399bcbb6ce73336f1.html" target="_top" xlink:title="Glossary">
<polygon fill="none" stroke="black" points="209.5,-52 148.5,-52 148.5,-16 209.5,-16 209.5,-52"/>
<text text-anchor="middle" x="179" y="-31.5" font-family="serif" font-size="10.00">Glossary</text>
</a>
</g>
</g>
<!-- dir_eb1bcaaac1032b67f9df3118ac8c5353 -->
<g id="node4" class="node">
<title>dir_eb1bcaaac1032b67f9df3118ac8c5353</title>
<g id="a_node4"><a xlink:href="dir_eb1bcaaac1032b67f9df3118ac8c5353.html" target="_top" xlink:title="Coefficients">
<polygon fill="none" stroke="black" points="204,-124 128,-124 128,-88 204,-88 204,-124"/>
<text text-anchor="middle" x="166" y="-103.5" font-family="serif" font-size="10.00">Coefficients</text>
</a>
</g>
</g>
<!-- dir_eb1bcaaac1032b67f9df3118ac8c5353&#45;&gt;dir_891ea87c6e6d1f8e94fb23e54b4dc7cd -->
<g id="edge1" class="edge">
<title>dir_eb1bcaaac1032b67f9df3118ac8c5353&#45;&gt;dir_891ea87c6e6d1f8e94fb23e54b4dc7cd</title>
<path fill="none" stroke="black" d="M143.01,-87.7C131.19,-78.8 116.61,-67.82 103.82,-58.2"/>
<polygon fill="black" stroke="black" points="105.82,-55.32 95.72,-52.1 101.61,-60.91 105.82,-55.32"/>
<g id="a_edge1&#45;headlabel"><a xlink:href="dir_000012_000005.html" target="_top" xlink:title="2">
<text text-anchor="middle" x="110.4" y="-52.71" font-family="serif" font-size="10.00">2</text>
</a>
</g>
</g>
<!-- dir_eb1bcaaac1032b67f9df3118ac8c5353&#45;&gt;dir_a2facb0d11b1e20399bcbb6ce73336f1 -->
<g id="edge2" class="edge">
<title>dir_eb1bcaaac1032b67f9df3118ac8c5353&#45;&gt;dir_a2facb0d11b1e20399bcbb6ce73336f1</title>
<path fill="none" stroke="black" d="M169.21,-87.7C170.65,-79.98 172.37,-70.71 173.96,-62.11"/>
<polygon fill="black" stroke="black" points="177.44,-62.58 175.82,-52.1 170.56,-61.3 177.44,-62.58"/>
<g id="a_edge2&#45;headlabel"><a xlink:href="dir_000012_000018.html" target="_top" xlink:title="4">
<text text-anchor="middle" x="179.57" y="-64.13" font-family="serif" font-size="10.00">4</text>
</a>
</g>
</g>
<!-- dir_7b434ec32f216829926927df16f0381b -->
<g id="node5" class="node">
<title>dir_7b434ec32f216829926927df16f0381b</title>
<g id="a_node5"><a xlink:href="dir_7b434ec32f216829926927df16f0381b.html" target="_top" xlink:title="Calphad">
<polygon fill="#eeeeff" stroke="black" points="148.5,-196 89.5,-196 89.5,-160 148.5,-160 148.5,-196"/>
<text text-anchor="middle" x="119" y="-175.5" font-family="serif" font-size="10.00">Calphad</text>
</a>
</g>
</g>
<!-- dir_7b434ec32f216829926927df16f0381b&#45;&gt;dir_891ea87c6e6d1f8e94fb23e54b4dc7cd -->
<g id="edge4" class="edge">
<title>dir_7b434ec32f216829926927df16f0381b&#45;&gt;dir_891ea87c6e6d1f8e94fb23e54b4dc7cd</title>
<path fill="none" stroke="black" d="M89.21,-168.64C67.73,-160.88 40.28,-146.98 27,-124 14.66,-102.65 30.09,-77.66 46.32,-59.6"/>
<polygon fill="black" stroke="black" points="48.89,-61.98 53.25,-52.32 43.82,-57.15 48.89,-61.98"/>
<g id="a_edge4&#45;headlabel"><a xlink:href="dir_000007_000005.html" target="_top" xlink:title="5">
<text text-anchor="middle" x="48.47" y="-64.04" font-family="serif" font-size="10.00">5</text>
</a>
</g>
</g>
<!-- dir_7b434ec32f216829926927df16f0381b&#45;&gt;dir_91c9bd6d2116d1df73605922efc3dea0 -->
<g id="edge5" class="edge">
<title>dir_7b434ec32f216829926927df16f0381b&#45;&gt;dir_91c9bd6d2116d1df73605922efc3dea0</title>
<path fill="none" stroke="black" d="M107.63,-159.7C102.28,-151.56 95.8,-141.69 89.89,-132.7"/>
<polygon fill="black" stroke="black" points="92.66,-130.54 84.24,-124.1 86.81,-134.38 92.66,-130.54"/>
<g id="a_edge5&#45;headlabel"><a xlink:href="dir_000007_000023.html" target="_top" xlink:title="8">
<text text-anchor="middle" x="97" y="-129.48" font-family="serif" font-size="10.00">8</text>
</a>
</g>
</g>
<!-- dir_7b434ec32f216829926927df16f0381b&#45;&gt;dir_a2facb0d11b1e20399bcbb6ce73336f1 -->
<g id="edge6" class="edge">
<title>dir_7b434ec32f216829926927df16f0381b&#45;&gt;dir_a2facb0d11b1e20399bcbb6ce73336f1</title>
<path fill="none" stroke="black" d="M148.51,-169.13C170.57,-161.54 199.2,-147.62 213,-124 224.76,-103.87 213.27,-78.93 200.56,-60.58"/>
<polygon fill="black" stroke="black" points="203.08,-58.1 194.32,-52.15 197.45,-62.27 203.08,-58.1"/>
<g id="a_edge6&#45;headlabel"><a xlink:href="dir_000007_000018.html" target="_top" xlink:title="1">
<text text-anchor="middle" x="207.5" y="-56.8" font-family="serif" font-size="10.00">1</text>
</a>
</g>
</g>
<!-- dir_7b434ec32f216829926927df16f0381b&#45;&gt;dir_eb1bcaaac1032b67f9df3118ac8c5353 -->
<g id="edge7" class="edge">
<title>dir_7b434ec32f216829926927df16f0381b&#45;&gt;dir_eb1bcaaac1032b67f9df3118ac8c5353</title>
<path fill="none" stroke="black" d="M130.62,-159.7C136.14,-151.47 142.85,-141.48 148.93,-132.42"/>
<polygon fill="black" stroke="black" points="151.85,-134.36 154.52,-124.1 146.04,-130.46 151.85,-134.36"/>
<g id="a_edge7&#45;headlabel"><a xlink:href="dir_000007_000012.html" target="_top" xlink:title="3">
<text text-anchor="middle" x="152.2" y="-136.42" font-family="serif" font-size="10.00">3</text>
</a>
</g>
</g>
</g>
</svg>
