<?xml version="1.0" encoding="UTF-8" standalone="no"?>
<!DOCTYPE svg PUBLIC "-//W3C//DTD SVG 1.1//EN"
 "http://www.w3.org/Graphics/SVG/1.1/DTD/svg11.dtd">
<!-- Generated by graphviz version 2.43.0 (0)
 -->
<!-- Title: ExprTkSloth.hpp Pages: 1 -->
<!--zoomable 140 -->
<svg id="main" version="1.1" xmlns="http://www.w3.org/2000/svg" xmlns:xlink="http://www.w3.org/1999/xlink" xml:space="preserve" onload="init(evt)">
<style type="text/css"><![CDATA[
.edge:hover path { stroke: red; }
.edge:hover polygon { stroke: red; fill: red; }
]]></style>
<script type="text/javascript"><![CDATA[
var edges = document.getElementsByTagName('g');
if (edges && edges.length) {
  for (var i=0;i<edges.length;i++) {
    if (edges[i].id.substr(0,4)=='edge') {
      edges[i].setAttribute('class','edge');
    }
  }
}
]]></script>
        <defs>
                <circle id="rim" cx="0" cy="0" r="7"/>
                <circle id="rim2" cx="0" cy="0" r="3.5"/>
                <g id="zoomPlus">
                        <use xlink:href="#rim" fill="#404040">
                                <set attributeName="fill" to="#808080" begin="zoomplus.mouseover" end="zoomplus.mouseout"/>
                        </use>
                        <path d="M-4,0h8M0,-4v8" fill="none" stroke="white" stroke-width="1.5" pointer-events="none"/>
                </g>
                <g id="zoomMin">
                        <use xlink:href="#rim" fill="#404040">
                                <set attributeName="fill" to="#808080" begin="zoomminus.mouseover" end="zoomminus.mouseout"/>
                        </use>
                        <path d="M-4,0h8" fill="none" stroke="white" stroke-width="1.5" pointer-events="none"/>
                </g>
                <g id="dirArrow">
                        <path fill="none" stroke="white" stroke-width="1.5" d="M0,-3.0v7 M-2.5,-0.5L0,-3.0L2.5,-0.5"/>
                </g>
               <g id="resetDef">
                       <use xlink:href="#rim2" fill="#404040">
                               <set attributeName="fill" to="#808080" begin="reset.mouseover" end="reset.mouseout"/>
                       </use>
               </g>
        </defs>

<script type="text/javascript">
var viewWidth = 987;
var viewHeight = 140;
var sectionId = 'dynsection-0';
</script>
<script xlink:href="svgpan.js"/>
<svg id="graph" class="graph">
<g id="viewport">
<title>ExprTkSloth.hpp</title>
<!-- Node1 -->
<g id="node1" class="node">
<title>Node1</title>
<g id="a_node1"><a xlink:title=" ">
<polygon fill="#bfbfbf" stroke="black" points="305.5,-112.5 305.5,-131.5 409.5,-131.5 409.5,-112.5 305.5,-112.5"/>
<text text-anchor="middle" x="357.5" y="-119.5" font-family="serif" font-size="10.00">ExprTkSloth.hpp</text>
</a>
</g>
</g>
<!-- Node2 -->
<g id="node2" class="node">
<title>Node2</title>
<g id="a_node2"><a xlink:title=" ">
<polygon fill="none" stroke="#bfbfbf" points="0,-56.5 0,-75.5 61,-75.5 61,-56.5 0,-56.5"/>
<text text-anchor="middle" x="30.5" y="-63.5" font-family="serif" font-size="10.00">iostream</text>
</a>
</g>
</g>
<!-- Node1&#45;&gt;Node2 -->
<g id="edge1" class="edge">
<title>Node1&#45;&gt;Node2</title>
<path fill="none" stroke="midnightblue" d="M305.42,-113.31C248.75,-104.8 155.53,-90.38 75.5,-76 74.22,-75.77 72.92,-75.53 71.61,-75.29"/>
<polygon fill="midnightblue" stroke="midnightblue" points="71.93,-71.79 61.45,-73.36 70.62,-78.67 71.93,-71.79"/>
</g>
<!-- Node3 -->
<g id="node3" class="node">
<title>Node3</title>
<g id="a_node3"><a xlink:title=" ">
<polygon fill="none" stroke="#bfbfbf" points="26,-0.5 26,-19.5 67,-19.5 67,-0.5 26,-0.5"/>
<text text-anchor="middle" x="46.5" y="-7.5" font-family="serif" font-size="10.00">span</text>
</a>
</g>
</g>
<!-- Node1&#45;&gt;Node3 -->
<g id="edge2" class="edge">
<title>Node1&#45;&gt;Node3</title>
<path fill="none" stroke="midnightblue" d="M305.09,-120.67C252.7,-118.3 171.27,-108.97 109.5,-76 88.14,-64.6 69.68,-43.39 58.36,-28.3"/>
<polygon fill="midnightblue" stroke="midnightblue" points="60.95,-25.91 52.27,-19.83 55.27,-30 60.95,-25.91"/>
</g>
<!-- Node4 -->
<g id="node4" class="node">
<title>Node4</title>
<g id="a_node4"><a xlink:title=" ">
<polygon fill="none" stroke="#bfbfbf" points="118,-56.5 118,-75.5 175,-75.5 175,-56.5 118,-56.5"/>
<text text-anchor="middle" x="146.5" y="-63.5" font-family="serif" font-size="10.00">sstream</text>
</a>
</g>
</g>
<!-- Node1&#45;&gt;Node4 -->
<g id="edge3" class="edge">
<title>Node1&#45;&gt;Node4</title>
<path fill="none" stroke="midnightblue" d="M324.07,-112.44C286.22,-102.76 224.69,-87.01 184.9,-76.83"/>
<polygon fill="midnightblue" stroke="midnightblue" points="185.6,-73.39 175.04,-74.3 183.86,-80.17 185.6,-73.39"/>
</g>
<!-- Node5 -->
<g id="node5" class="node">
<title>Node5</title>
<g id="a_node5"><a xlink:title=" ">
<polygon fill="none" stroke="#bfbfbf" points="826,-0.5 826,-19.5 873,-19.5 873,-0.5 826,-0.5"/>
<text text-anchor="middle" x="849.5" y="-7.5" font-family="serif" font-size="10.00">string</text>
</a>
</g>
</g>
<!-- Node1&#45;&gt;Node5 -->
<g id="edge4" class="edge">
<title>Node1&#45;&gt;Node5</title>
<path fill="none" stroke="midnightblue" d="M409.83,-119.07C506.16,-114.91 707.53,-103.16 771.5,-76 797.24,-65.07 821.03,-42.73 835.4,-27.32"/>
<polygon fill="midnightblue" stroke="midnightblue" points="838.28,-29.35 842.37,-19.58 833.08,-24.67 838.28,-29.35"/>
</g>
<!-- Node6 -->
<g id="node6" class="node">
<title>Node6</title>
<g id="a_node6"><a xlink:title=" ">
<polygon fill="none" stroke="#bfbfbf" points="231.5,-56.5 231.5,-75.5 329.5,-75.5 329.5,-56.5 231.5,-56.5"/>
<text text-anchor="middle" x="280.5" y="-63.5" font-family="serif" font-size="10.00">unordered_map</text>
</a>
</g>
</g>
<!-- Node1&#45;&gt;Node6 -->
<g id="edge5" class="edge">
<title>Node1&#45;&gt;Node6</title>
<path fill="none" stroke="midnightblue" d="M345.13,-112.32C333.34,-104.06 315.37,-91.45 301.36,-81.63"/>
<polygon fill="midnightblue" stroke="midnightblue" points="303.04,-78.53 292.84,-75.65 299.02,-84.26 303.04,-78.53"/>
</g>
<!-- Node7 -->
<g id="node7" class="node">
<title>Node7</title>
<g id="a_node7"><a xlink:title=" ">
<polygon fill="none" stroke="#bfbfbf" points="85.5,-0.5 85.5,-19.5 131.5,-19.5 131.5,-0.5 85.5,-0.5"/>
<text text-anchor="middle" x="108.5" y="-7.5" font-family="serif" font-size="10.00">utility</text>
</a>
</g>
</g>
<!-- Node1&#45;&gt;Node7 -->
<g id="edge6" class="edge">
<title>Node1&#45;&gt;Node7</title>
<path fill="none" stroke="midnightblue" d="M326.29,-112.49C298.49,-104.48 257.01,-91.41 222.5,-76 204.65,-68.03 159.51,-41.54 131.68,-24.94"/>
<polygon fill="midnightblue" stroke="midnightblue" points="133.35,-21.86 122.97,-19.73 129.76,-27.87 133.35,-21.86"/>
</g>
<!-- Node8 -->
<g id="node8" class="node">
<title>Node8</title>
<g id="a_node8"><a xlink:title=" ">
<polygon fill="none" stroke="#bfbfbf" points="149.5,-0.5 149.5,-19.5 197.5,-19.5 197.5,-0.5 149.5,-0.5"/>
<text text-anchor="middle" x="173.5" y="-7.5" font-family="serif" font-size="10.00">vector</text>
</a>
</g>
</g>
<!-- Node1&#45;&gt;Node8 -->
<g id="edge7" class="edge">
<title>Node1&#45;&gt;Node8</title>
<path fill="none" stroke="midnightblue" d="M357.5,-112.06C357,-98.11 353.93,-71.16 338.5,-56 338.5,-56 255.91,-33.48 207.59,-20.3"/>
<polygon fill="midnightblue" stroke="midnightblue" points="208.41,-16.89 197.85,-17.64 206.57,-23.65 208.41,-16.89"/>
</g>
<!-- Node9 -->
<g id="node9" class="node">
<title>Node9</title>
<g id="a_node9"><a xlink:href="FunctionCoefficient_8hpp.html" target="_top" xlink:title="Base class defining analytical expression, first and second derivatives of a Coefficient.">
<polygon fill="none" stroke="black" points="386,-56.5 386,-75.5 587,-75.5 587,-56.5 386,-56.5"/>
<text text-anchor="middle" x="486.5" y="-63.5" font-family="serif" font-size="10.00">Coefficients/FunctionCoefficient.hpp</text>
</a>
</g>
</g>
<!-- Node1&#45;&gt;Node9 -->
<g id="edge8" class="edge">
<title>Node1&#45;&gt;Node9</title>
<path fill="none" stroke="midnightblue" d="M377.94,-112.44C399.17,-103.56 432.6,-89.56 456.75,-79.45"/>
<polygon fill="midnightblue" stroke="midnightblue" points="458.28,-82.61 466.16,-75.52 455.58,-76.15 458.28,-82.61"/>
</g>
<!-- Node19 -->
<g id="node19" class="node">
<title>Node19</title>
<g id="a_node19"><a xlink:href="Glossary_8hpp.html" target="_top" xlink:title="Glossary used to defined variables and properties in SLOTH.">
<polygon fill="none" stroke="black" points="632.5,-56.5 632.5,-75.5 762.5,-75.5 762.5,-56.5 632.5,-56.5"/>
<text text-anchor="middle" x="697.5" y="-63.5" font-family="serif" font-size="10.00">Glossary/Glossary.hpp</text>
</a>
</g>
</g>
<!-- Node1&#45;&gt;Node19 -->
<g id="edge22" class="edge">
<title>Node1&#45;&gt;Node19</title>
<path fill="none" stroke="midnightblue" d="M409.51,-112.74C469.72,-103.18 568.9,-87.42 633.72,-77.13"/>
<polygon fill="midnightblue" stroke="midnightblue" points="634.49,-80.55 643.81,-75.53 633.39,-73.64 634.49,-80.55"/>
</g>
<!-- Node20 -->
<g id="node20" class="node">
<title>Node20</title>
<g id="a_node20"><a xlink:title=" ">
<polygon fill="none" stroke="#bfbfbf" points="819,-56.5 819,-75.5 892,-75.5 892,-56.5 819,-56.5"/>
<text text-anchor="middle" x="855.5" y="-63.5" font-family="serif" font-size="10.00">exprtk.hpp</text>
</a>
</g>
</g>
<!-- Node1&#45;&gt;Node20 -->
<g id="edge26" class="edge">
<title>Node1&#45;&gt;Node20</title>
<path fill="none" stroke="midnightblue" d="M409.61,-117.02C493.16,-110.35 662.15,-95.7 804.5,-76 805.95,-75.8 807.42,-75.59 808.9,-75.37"/>
<polygon fill="midnightblue" stroke="midnightblue" points="809.45,-78.83 818.78,-73.82 808.36,-71.91 809.45,-78.83"/>
</g>
<!-- Node21 -->
<g id="node21" class="node">
<title>Node21</title>
<g id="a_node21"><a xlink:title=" ">
<polygon fill="none" stroke="#bfbfbf" points="910,-56.5 910,-75.5 979,-75.5 979,-56.5 910,-56.5"/>
<text text-anchor="middle" x="944.5" y="-63.5" font-family="serif" font-size="10.00">mfem.hpp</text>
</a>
</g>
</g>
<!-- Node1&#45;&gt;Node21 -->
<g id="edge27" class="edge">
<title>Node1&#45;&gt;Node21</title>
<path fill="none" stroke="midnightblue" d="M409.88,-118.83C505.45,-114.39 714.62,-102.51 899.91,-76.07"/>
<polygon fill="midnightblue" stroke="midnightblue" points="900.44,-79.53 909.83,-74.64 899.43,-72.61 900.44,-79.53"/>
</g>
<!-- Node9&#45;&gt;Node3 -->
<g id="edge18" class="edge">
<title>Node9&#45;&gt;Node3</title>
<path fill="none" stroke="midnightblue" d="M385.88,-59.09C304.84,-53.14 187.97,-41.89 77.06,-19.73"/>
<polygon fill="midnightblue" stroke="midnightblue" points="77.53,-16.26 67.03,-17.7 76.13,-23.12 77.53,-16.26"/>
</g>
<!-- Node9&#45;&gt;Node5 -->
<g id="edge19" class="edge">
<title>Node9&#45;&gt;Node5</title>
<path fill="none" stroke="midnightblue" d="M571.79,-56.47C636.31,-49.3 727.21,-37.67 815.84,-19.89"/>
<polygon fill="midnightblue" stroke="midnightblue" points="816.69,-23.29 825.8,-17.86 815.3,-16.43 816.69,-23.29"/>
</g>
<!-- Node9&#45;&gt;Node7 -->
<g id="edge20" class="edge">
<title>Node9&#45;&gt;Node7</title>
<path fill="none" stroke="midnightblue" d="M392.27,-56.47C324.81,-49.49 231.74,-38.1 141.66,-19.99"/>
<polygon fill="midnightblue" stroke="midnightblue" points="142.32,-16.55 131.82,-17.98 140.92,-23.41 142.32,-16.55"/>
</g>
<!-- Node9&#45;&gt;Node8 -->
<g id="edge21" class="edge">
<title>Node9&#45;&gt;Node8</title>
<path fill="none" stroke="midnightblue" d="M420.79,-56.46C366.14,-48.9 286.17,-36.77 207.64,-20.06"/>
<polygon fill="midnightblue" stroke="midnightblue" points="208.09,-16.57 197.58,-17.89 206.62,-23.41 208.09,-16.57"/>
</g>
<!-- Node10 -->
<g id="node10" class="node">
<title>Node10</title>
<g id="a_node10"><a xlink:title=" ">
<polygon fill="none" stroke="#bfbfbf" points="572,-0.5 572,-19.5 607,-19.5 607,-0.5 572,-0.5"/>
<text text-anchor="middle" x="589.5" y="-7.5" font-family="serif" font-size="10.00">any</text>
</a>
</g>
</g>
<!-- Node9&#45;&gt;Node10 -->
<g id="edge9" class="edge">
<title>Node9&#45;&gt;Node10</title>
<path fill="none" stroke="midnightblue" d="M503.05,-56.32C519.49,-47.7 544.93,-34.36 563.97,-24.39"/>
<polygon fill="midnightblue" stroke="midnightblue" points="565.76,-27.4 572.99,-19.65 562.51,-21.2 565.76,-27.4"/>
</g>
<!-- Node11 -->
<g id="node11" class="node">
<title>Node11</title>
<g id="a_node11"><a xlink:title=" ">
<polygon fill="none" stroke="#bfbfbf" points="625.5,-0.5 625.5,-19.5 673.5,-19.5 673.5,-0.5 625.5,-0.5"/>
<text text-anchor="middle" x="649.5" y="-7.5" font-family="serif" font-size="10.00">cmath</text>
</a>
</g>
</g>
<!-- Node9&#45;&gt;Node11 -->
<g id="edge10" class="edge">
<title>Node9&#45;&gt;Node11</title>
<path fill="none" stroke="midnightblue" d="M512.33,-56.44C540.23,-47.2 584.82,-32.43 615.54,-22.25"/>
<polygon fill="midnightblue" stroke="midnightblue" points="617,-25.46 625.39,-18.99 614.79,-18.81 617,-25.46"/>
</g>
<!-- Node12 -->
<g id="node12" class="node">
<title>Node12</title>
<g id="a_node12"><a xlink:title=" ">
<polygon fill="none" stroke="#bfbfbf" points="215.5,-0.5 215.5,-19.5 277.5,-19.5 277.5,-0.5 215.5,-0.5"/>
<text text-anchor="middle" x="246.5" y="-7.5" font-family="serif" font-size="10.00">concepts</text>
</a>
</g>
</g>
<!-- Node9&#45;&gt;Node12 -->
<g id="edge11" class="edge">
<title>Node9&#45;&gt;Node12</title>
<path fill="none" stroke="midnightblue" d="M448.47,-56.44C404.6,-46.57 332.74,-30.4 287.61,-20.25"/>
<polygon fill="midnightblue" stroke="midnightblue" points="288.37,-16.83 277.85,-18.05 286.84,-23.66 288.37,-16.83"/>
</g>
<!-- Node13 -->
<g id="node13" class="node">
<title>Node13</title>
<g id="a_node13"><a xlink:title=" ">
<polygon fill="none" stroke="#bfbfbf" points="295.5,-0.5 295.5,-19.5 363.5,-19.5 363.5,-0.5 295.5,-0.5"/>
<text text-anchor="middle" x="329.5" y="-7.5" font-family="serif" font-size="10.00">functional</text>
</a>
</g>
</g>
<!-- Node9&#45;&gt;Node13 -->
<g id="edge12" class="edge">
<title>Node9&#45;&gt;Node13</title>
<path fill="none" stroke="midnightblue" d="M461.62,-56.44C435.21,-47.36 393.28,-32.94 363.76,-22.78"/>
<polygon fill="midnightblue" stroke="midnightblue" points="364.86,-19.46 354.26,-19.52 362.58,-26.08 364.86,-19.46"/>
</g>
<!-- Node14 -->
<g id="node14" class="node">
<title>Node14</title>
<g id="a_node14"><a xlink:title=" ">
<polygon fill="none" stroke="#bfbfbf" points="381.5,-0.5 381.5,-19.5 425.5,-19.5 425.5,-0.5 381.5,-0.5"/>
<text text-anchor="middle" x="403.5" y="-7.5" font-family="serif" font-size="10.00">limits</text>
</a>
</g>
</g>
<!-- Node9&#45;&gt;Node14 -->
<g id="edge13" class="edge">
<title>Node9&#45;&gt;Node14</title>
<path fill="none" stroke="midnightblue" d="M473.16,-56.32C460.34,-47.98 440.72,-35.21 425.56,-25.35"/>
<polygon fill="midnightblue" stroke="midnightblue" points="427.09,-22.17 416.8,-19.65 423.28,-28.04 427.09,-22.17"/>
</g>
<!-- Node15 -->
<g id="node15" class="node">
<title>Node15</title>
<g id="a_node15"><a xlink:title=" ">
<polygon fill="none" stroke="#bfbfbf" points="692,-0.5 692,-19.5 731,-19.5 731,-0.5 692,-0.5"/>
<text text-anchor="middle" x="711.5" y="-7.5" font-family="serif" font-size="10.00">map</text>
</a>
</g>
</g>
<!-- Node9&#45;&gt;Node15 -->
<g id="edge14" class="edge">
<title>Node9&#45;&gt;Node15</title>
<path fill="none" stroke="midnightblue" d="M527.64,-56.5C565.36,-48.49 622.93,-35.75 682.02,-19.96"/>
<polygon fill="midnightblue" stroke="midnightblue" points="683.16,-23.28 691.9,-17.3 681.34,-16.52 683.16,-23.28"/>
</g>
<!-- Node16 -->
<g id="node16" class="node">
<title>Node16</title>
<g id="a_node16"><a xlink:title=" ">
<polygon fill="none" stroke="#bfbfbf" points="444,-0.5 444,-19.5 503,-19.5 503,-0.5 444,-0.5"/>
<text text-anchor="middle" x="473.5" y="-7.5" font-family="serif" font-size="10.00">memory</text>
</a>
</g>
</g>
<!-- Node9&#45;&gt;Node16 -->
<g id="edge15" class="edge">
<title>Node9&#45;&gt;Node16</title>
<path fill="none" stroke="midnightblue" d="M484.35,-56.08C482.63,-48.93 480.15,-38.64 478,-29.69"/>
<polygon fill="midnightblue" stroke="midnightblue" points="481.35,-28.65 475.61,-19.75 474.54,-30.29 481.35,-28.65"/>
</g>
<!-- Node17 -->
<g id="node17" class="node">
<title>Node17</title>
<g id="a_node17"><a xlink:title=" ">
<polygon fill="none" stroke="#bfbfbf" points="749.5,-0.5 749.5,-19.5 807.5,-19.5 807.5,-0.5 749.5,-0.5"/>
<text text-anchor="middle" x="778.5" y="-7.5" font-family="serif" font-size="10.00">optional</text>
</a>
</g>
</g>
<!-- Node9&#45;&gt;Node17 -->
<g id="edge16" class="edge">
<title>Node9&#45;&gt;Node17</title>
<path fill="none" stroke="midnightblue" d="M539.7,-56.49C588.99,-48.39 664.59,-35.46 739.42,-20.13"/>
<polygon fill="midnightblue" stroke="midnightblue" points="740.41,-23.5 749.49,-18.05 738.99,-16.64 740.41,-23.5"/>
</g>
<!-- Node18 -->
<g id="node18" class="node">
<title>Node18</title>
<g id="a_node18"><a xlink:title=" ">
<polygon fill="none" stroke="#bfbfbf" points="521.5,-0.5 521.5,-19.5 553.5,-19.5 553.5,-0.5 521.5,-0.5"/>
<text text-anchor="middle" x="537.5" y="-7.5" font-family="serif" font-size="10.00">set</text>
</a>
</g>
</g>
<!-- Node9&#45;&gt;Node18 -->
<g id="edge17" class="edge">
<title>Node9&#45;&gt;Node18</title>
<path fill="none" stroke="midnightblue" d="M494.92,-56.08C502.35,-48.22 513.35,-36.57 522.31,-27.08"/>
<polygon fill="midnightblue" stroke="midnightblue" points="524.91,-29.42 529.24,-19.75 519.82,-24.62 524.91,-29.42"/>
</g>
<!-- Node19&#45;&gt;Node5 -->
<g id="edge25" class="edge">
<title>Node19&#45;&gt;Node5</title>
<path fill="none" stroke="midnightblue" d="M721.58,-56.44C747.04,-47.4 787.39,-33.06 815.96,-22.92"/>
<polygon fill="midnightblue" stroke="midnightblue" points="817.28,-26.16 825.53,-19.52 814.93,-19.57 817.28,-26.16"/>
</g>
<!-- Node19&#45;&gt;Node15 -->
<g id="edge23" class="edge">
<title>Node19&#45;&gt;Node15</title>
<path fill="none" stroke="midnightblue" d="M699.81,-56.08C701.67,-48.93 704.34,-38.64 706.65,-29.69"/>
<polygon fill="midnightblue" stroke="midnightblue" points="710.11,-30.31 709.23,-19.75 703.33,-28.55 710.11,-30.31"/>
</g>
<!-- Node19&#45;&gt;Node17 -->
<g id="edge24" class="edge">
<title>Node19&#45;&gt;Node17</title>
<path fill="none" stroke="midnightblue" d="M710.51,-56.32C723.03,-47.98 742.18,-35.21 756.97,-25.35"/>
<polygon fill="midnightblue" stroke="midnightblue" points="759.14,-28.11 765.52,-19.65 755.26,-22.29 759.14,-28.11"/>
</g>
</g>
</svg>
        <g id="navigator" transform="translate(0 0)" fill="#404254">
                <rect fill="#f2f5e9" fill-opacity="0.5" stroke="#606060" stroke-width=".5" x="0" y="0" width="60" height="60"/>
                <use id="zoomplus" xlink:href="#zoomPlus" x="17" y="9" onmousedown="handleZoom(evt,'in')"/>
                <use id="zoomminus" xlink:href="#zoomMin" x="42" y="9" onmousedown="handleZoom(evt,'out')"/>
                <use id="reset" xlink:href="#resetDef" x="30" y="36" onmousedown="handleReset()"/>
                <g id="arrowUp" xlink:href="#dirArrow" transform="translate(30 24)" onmousedown="handlePan(0,-1)">
                  <use xlink:href="#rim" fill="#404040">
                        <set attributeName="fill" to="#808080" begin="arrowUp.mouseover" end="arrowUp.mouseout"/>
                  </use>
                  <path fill="none" stroke="white" stroke-width="1.5" d="M0,-3.0v7 M-2.5,-0.5L0,-3.0L2.5,-0.5"/>
                </g>
                <g id="arrowRight" xlink:href="#dirArrow" transform="rotate(90) translate(36 -43)" onmousedown="handlePan(1,0)">
                  <use xlink:href="#rim" fill="#404040">
                        <set attributeName="fill" to="#808080" begin="arrowRight.mouseover" end="arrowRight.mouseout"/>
                  </use>
                  <path fill="none" stroke="white" stroke-width="1.5" d="M0,-3.0v7 M-2.5,-0.5L0,-3.0L2.5,-0.5"/>
                </g>
                <g id="arrowDown" xlink:href="#dirArrow" transform="rotate(180) translate(-30 -48)" onmousedown="handlePan(0,1)">
                  <use xlink:href="#rim" fill="#404040">
                        <set attributeName="fill" to="#808080" begin="arrowDown.mouseover" end="arrowDown.mouseout"/>
                  </use>
                  <path fill="none" stroke="white" stroke-width="1.5" d="M0,-3.0v7 M-2.5,-0.5L0,-3.0L2.5,-0.5"/>
                </g>
                <g id="arrowLeft" xlink:href="#dirArrow" transform="rotate(270) translate(-36 17)" onmousedown="handlePan(-1,0)">
                  <use xlink:href="#rim" fill="#404040">
                        <set attributeName="fill" to="#808080" begin="arrowLeft.mouseover" end="arrowLeft.mouseout"/>
                  </use>
                  <path fill="none" stroke="white" stroke-width="1.5" d="M0,-3.0v7 M-2.5,-0.5L0,-3.0L2.5,-0.5"/>
                </g>
        </g>
        <svg viewBox="0 0 15 15" width="100%" height="30px" preserveAspectRatio="xMaxYMin meet">
         <g id="arrow_out" transform="scale(0.3 0.3)">
          <a xlink:href="ExprTkSloth_8hpp__incl_org.svg" target="_base">
           <rect id="button" ry="5" rx="5" y="6" x="6" height="38" width="38"
                fill="#f2f5e9" fill-opacity="0.5" stroke="#606060" stroke-width="1.0"/>
           <path id="arrow"
             d="M 11.500037,31.436501 C 11.940474,20.09759 22.043105,11.32322 32.158766,21.979434 L 37.068811,17.246167 C 37.068811,17.246167 37.088388,32 37.088388,32 L 22.160133,31.978069 C 22.160133,31.978069 26.997745,27.140456 26.997745,27.140456 C 18.528582,18.264221 13.291696,25.230495 11.500037,31.436501 z"
             style="fill:#404040;"/>
          </a>
         </g>
        </svg>
</svg>
