<?xml version="1.0" encoding="UTF-8" standalone="no"?>
<!DOCTYPE svg PUBLIC "-//W3C//DTD SVG 1.1//EN"
 "http://www.w3.org/Graphics/SVG/1.1/DTD/svg11.dtd">
<!-- Generated by graphviz version 2.43.0 (0)
 -->
<!-- Title: FunctionCoefficient.cpp Pages: 1 -->
<!--zoomable 140 -->
<svg id="main" version="1.1" xmlns="http://www.w3.org/2000/svg" xmlns:xlink="http://www.w3.org/1999/xlink" xml:space="preserve" onload="init(evt)">
<style type="text/css"><![CDATA[
.edge:hover path { stroke: red; }
.edge:hover polygon { stroke: red; fill: red; }
]]></style>
<script type="text/javascript"><![CDATA[
var edges = document.getElementsByTagName('g');
if (edges && edges.length) {
  for (var i=0;i<edges.length;i++) {
    if (edges[i].id.substr(0,4)=='edge') {
      edges[i].setAttribute('class','edge');
    }
  }
}
]]></script>
        <defs>
                <circle id="rim" cx="0" cy="0" r="7"/>
                <circle id="rim2" cx="0" cy="0" r="3.5"/>
                <g id="zoomPlus">
                        <use xlink:href="#rim" fill="#404040">
                                <set attributeName="fill" to="#808080" begin="zoomplus.mouseover" end="zoomplus.mouseout"/>
                        </use>
                        <path d="M-4,0h8M0,-4v8" fill="none" stroke="white" stroke-width="1.5" pointer-events="none"/>
                </g>
                <g id="zoomMin">
                        <use xlink:href="#rim" fill="#404040">
                                <set attributeName="fill" to="#808080" begin="zoomminus.mouseover" end="zoomminus.mouseout"/>
                        </use>
                        <path d="M-4,0h8" fill="none" stroke="white" stroke-width="1.5" pointer-events="none"/>
                </g>
                <g id="dirArrow">
                        <path fill="none" stroke="white" stroke-width="1.5" d="M0,-3.0v7 M-2.5,-0.5L0,-3.0L2.5,-0.5"/>
                </g>
               <g id="resetDef">
                       <use xlink:href="#rim2" fill="#404040">
                               <set attributeName="fill" to="#808080" begin="reset.mouseover" end="reset.mouseout"/>
                       </use>
               </g>
        </defs>

<script type="text/javascript">
var viewWidth = 854;
var viewHeight = 140;
var sectionId = 'dynsection-0';
</script>
<script xlink:href="svgpan.js"/>
<svg id="graph" class="graph">
<g id="viewport">
<title>FunctionCoefficient.cpp</title>
<!-- Node1 -->
<g id="node1" class="node">
<title>Node1</title>
<g id="a_node1"><a xlink:title="Base class defining analytical expression, first and second derivatives of a Coefficient.">
<polygon fill="#bfbfbf" stroke="black" points="399,-112.5 399,-131.5 536,-131.5 536,-112.5 399,-112.5"/>
<text text-anchor="middle" x="467.5" y="-119.5" font-family="serif" font-size="10.00">FunctionCoefficient.cpp</text>
</a>
</g>
</g>
<!-- Node2 -->
<g id="node2" class="node">
<title>Node2</title>
<g id="a_node2"><a xlink:href="FunctionCoefficient_8hpp.html" target="_top" xlink:title="Base class defining analytical expression, first and second derivatives of a Coefficient.">
<polygon fill="none" stroke="black" points="303,-56.5 303,-75.5 504,-75.5 504,-56.5 303,-56.5"/>
<text text-anchor="middle" x="403.5" y="-63.5" font-family="serif" font-size="10.00">Coefficients/FunctionCoefficient.hpp</text>
</a>
</g>
</g>
<!-- Node1&#45;&gt;Node2 -->
<g id="edge1" class="edge">
<title>Node1&#45;&gt;Node2</title>
<path fill="none" stroke="midnightblue" d="M457.22,-112.32C447.66,-104.26 433.22,-92.08 421.72,-82.37"/>
<polygon fill="midnightblue" stroke="midnightblue" points="423.87,-79.61 413.97,-75.83 419.36,-84.96 423.87,-79.61"/>
</g>
<!-- Node3 -->
<g id="node3" class="node">
<title>Node3</title>
<g id="a_node3"><a xlink:title=" ">
<polygon fill="none" stroke="#bfbfbf" points="0,-0.5 0,-19.5 35,-19.5 35,-0.5 0,-0.5"/>
<text text-anchor="middle" x="17.5" y="-7.5" font-family="serif" font-size="10.00">any</text>
</a>
</g>
</g>
<!-- Node1&#45;&gt;Node3 -->
<g id="edge15" class="edge">
<title>Node1&#45;&gt;Node3</title>
<path fill="none" stroke="midnightblue" d="M398.78,-116.67C335.34,-111.35 239.06,-99.89 158.5,-76 115.5,-63.25 68.84,-39.62 41.43,-24.63"/>
<polygon fill="midnightblue" stroke="midnightblue" points="43.02,-21.51 32.58,-19.72 39.63,-27.63 43.02,-21.51"/>
</g>
<!-- Node4 -->
<g id="node4" class="node">
<title>Node4</title>
<g id="a_node4"><a xlink:title=" ">
<polygon fill="none" stroke="#bfbfbf" points="53.5,-0.5 53.5,-19.5 101.5,-19.5 101.5,-0.5 53.5,-0.5"/>
<text text-anchor="middle" x="77.5" y="-7.5" font-family="serif" font-size="10.00">cmath</text>
</a>
</g>
</g>
<!-- Node1&#45;&gt;Node4 -->
<g id="edge16" class="edge">
<title>Node1&#45;&gt;Node4</title>
<path fill="none" stroke="midnightblue" d="M398.88,-114.18C346.6,-107.74 273.33,-96 211.5,-76 170.75,-62.82 126.63,-39.48 100.56,-24.65"/>
<polygon fill="midnightblue" stroke="midnightblue" points="102.22,-21.57 91.81,-19.6 98.73,-27.63 102.22,-21.57"/>
</g>
<!-- Node5 -->
<g id="node5" class="node">
<title>Node5</title>
<g id="a_node5"><a xlink:title=" ">
<polygon fill="none" stroke="#bfbfbf" points="119.5,-0.5 119.5,-19.5 181.5,-19.5 181.5,-0.5 119.5,-0.5"/>
<text text-anchor="middle" x="150.5" y="-7.5" font-family="serif" font-size="10.00">concepts</text>
</a>
</g>
</g>
<!-- Node1&#45;&gt;Node5 -->
<g id="edge17" class="edge">
<title>Node1&#45;&gt;Node5</title>
<path fill="none" stroke="midnightblue" d="M398.56,-112.69C355.95,-106.04 300.77,-94.66 254.5,-76 222.51,-63.1 189.35,-40.49 169.32,-25.63"/>
<polygon fill="midnightblue" stroke="midnightblue" points="171.43,-22.83 161.34,-19.6 167.21,-28.42 171.43,-22.83"/>
</g>
<!-- Node6 -->
<g id="node6" class="node">
<title>Node6</title>
<g id="a_node6"><a xlink:title=" ">
<polygon fill="none" stroke="#bfbfbf" points="199.5,-0.5 199.5,-19.5 267.5,-19.5 267.5,-0.5 199.5,-0.5"/>
<text text-anchor="middle" x="233.5" y="-7.5" font-family="serif" font-size="10.00">functional</text>
</a>
</g>
</g>
<!-- Node1&#45;&gt;Node6 -->
<g id="edge18" class="edge">
<title>Node1&#45;&gt;Node6</title>
<path fill="none" stroke="midnightblue" d="M398.83,-116.93C360.34,-111.81 313.07,-100.55 277.5,-76 260.55,-64.3 248.28,-43.76 241.07,-28.9"/>
<polygon fill="midnightblue" stroke="midnightblue" points="244.21,-27.35 236.89,-19.69 237.84,-30.24 244.21,-27.35"/>
</g>
<!-- Node7 -->
<g id="node7" class="node">
<title>Node7</title>
<g id="a_node7"><a xlink:title=" ">
<polygon fill="none" stroke="#bfbfbf" points="285.5,-0.5 285.5,-19.5 329.5,-19.5 329.5,-0.5 285.5,-0.5"/>
<text text-anchor="middle" x="307.5" y="-7.5" font-family="serif" font-size="10.00">limits</text>
</a>
</g>
</g>
<!-- Node1&#45;&gt;Node7 -->
<g id="edge19" class="edge">
<title>Node1&#45;&gt;Node7</title>
<path fill="none" stroke="midnightblue" d="M398.88,-112.85C353.42,-105.88 299.65,-94.07 285.5,-76 274.54,-61.99 283.84,-42.22 293.51,-28.16"/>
<polygon fill="midnightblue" stroke="midnightblue" points="296.52,-29.98 299.7,-19.87 290.91,-25.79 296.52,-29.98"/>
</g>
<!-- Node8 -->
<g id="node8" class="node">
<title>Node8</title>
<g id="a_node8"><a xlink:title=" ">
<polygon fill="none" stroke="#bfbfbf" points="348,-0.5 348,-19.5 387,-19.5 387,-0.5 348,-0.5"/>
<text text-anchor="middle" x="367.5" y="-7.5" font-family="serif" font-size="10.00">map</text>
</a>
</g>
</g>
<!-- Node1&#45;&gt;Node8 -->
<g id="edge20" class="edge">
<title>Node1&#45;&gt;Node8</title>
<path fill="none" stroke="midnightblue" d="M401.86,-112.45C358.38,-105.28 306.97,-93.39 293.5,-76 276.46,-53.99 311.02,-33.68 338.44,-21.82"/>
<polygon fill="midnightblue" stroke="midnightblue" points="339.84,-25.03 347.75,-17.99 337.17,-18.56 339.84,-25.03"/>
</g>
<!-- Node9 -->
<g id="node9" class="node">
<title>Node9</title>
<g id="a_node9"><a xlink:title=" ">
<polygon fill="none" stroke="#bfbfbf" points="405,-0.5 405,-19.5 464,-19.5 464,-0.5 405,-0.5"/>
<text text-anchor="middle" x="434.5" y="-7.5" font-family="serif" font-size="10.00">memory</text>
</a>
</g>
</g>
<!-- Node1&#45;&gt;Node9 -->
<g id="edge21" class="edge">
<title>Node1&#45;&gt;Node9</title>
<path fill="none" stroke="midnightblue" d="M480.89,-112.47C498.19,-100.32 524.72,-77.16 512.5,-56 503.82,-40.98 488.01,-30.52 472.88,-23.5"/>
<polygon fill="midnightblue" stroke="midnightblue" points="474.19,-20.25 463.62,-19.56 471.45,-26.69 474.19,-20.25"/>
</g>
<!-- Node10 -->
<g id="node10" class="node">
<title>Node10</title>
<g id="a_node10"><a xlink:title=" ">
<polygon fill="none" stroke="#bfbfbf" points="482.5,-0.5 482.5,-19.5 540.5,-19.5 540.5,-0.5 482.5,-0.5"/>
<text text-anchor="middle" x="511.5" y="-7.5" font-family="serif" font-size="10.00">optional</text>
</a>
</g>
</g>
<!-- Node1&#45;&gt;Node10 -->
<g id="edge22" class="edge">
<title>Node1&#45;&gt;Node10</title>
<path fill="none" stroke="midnightblue" d="M487.41,-112.41C501.72,-105.04 519.96,-92.92 528.5,-76 536.12,-60.92 529.67,-42.1 522.64,-28.59"/>
<polygon fill="midnightblue" stroke="midnightblue" points="525.62,-26.76 517.61,-19.83 519.55,-30.24 525.62,-26.76"/>
</g>
<!-- Node11 -->
<g id="node11" class="node">
<title>Node11</title>
<g id="a_node11"><a xlink:title=" ">
<polygon fill="none" stroke="#bfbfbf" points="558.5,-0.5 558.5,-19.5 590.5,-19.5 590.5,-0.5 558.5,-0.5"/>
<text text-anchor="middle" x="574.5" y="-7.5" font-family="serif" font-size="10.00">set</text>
</a>
</g>
</g>
<!-- Node1&#45;&gt;Node11 -->
<g id="edge23" class="edge">
<title>Node1&#45;&gt;Node11</title>
<path fill="none" stroke="midnightblue" d="M489.52,-112.49C506.4,-105.02 529.3,-92.74 544.5,-76 556.63,-62.64 564.65,-43.53 569.32,-29.48"/>
<polygon fill="midnightblue" stroke="midnightblue" points="572.79,-30.1 572.36,-19.51 566.1,-28.06 572.79,-30.1"/>
</g>
<!-- Node12 -->
<g id="node12" class="node">
<title>Node12</title>
<g id="a_node12"><a xlink:title=" ">
<polygon fill="none" stroke="#bfbfbf" points="609,-0.5 609,-19.5 650,-19.5 650,-0.5 609,-0.5"/>
<text text-anchor="middle" x="629.5" y="-7.5" font-family="serif" font-size="10.00">span</text>
</a>
</g>
</g>
<!-- Node1&#45;&gt;Node12 -->
<g id="edge24" class="edge">
<title>Node1&#45;&gt;Node12</title>
<path fill="none" stroke="midnightblue" d="M492.58,-112.38C513.21,-104.64 542.66,-92.02 565.5,-76 585.25,-62.14 604.17,-41.75 616.24,-27.52"/>
<polygon fill="midnightblue" stroke="midnightblue" points="619.14,-29.5 622.82,-19.56 613.75,-25.04 619.14,-29.5"/>
</g>
<!-- Node13 -->
<g id="node13" class="node">
<title>Node13</title>
<g id="a_node13"><a xlink:title=" ">
<polygon fill="none" stroke="#bfbfbf" points="668,-0.5 668,-19.5 715,-19.5 715,-0.5 668,-0.5"/>
<text text-anchor="middle" x="691.5" y="-7.5" font-family="serif" font-size="10.00">string</text>
</a>
</g>
</g>
<!-- Node1&#45;&gt;Node13 -->
<g id="edge25" class="edge">
<title>Node1&#45;&gt;Node13</title>
<path fill="none" stroke="midnightblue" d="M496.84,-112.44C522.47,-104.48 560.34,-91.52 591.5,-76 621.07,-61.27 652.63,-39.65 672.21,-25.45"/>
<polygon fill="midnightblue" stroke="midnightblue" points="674.32,-28.24 680.31,-19.5 670.18,-22.6 674.32,-28.24"/>
</g>
<!-- Node14 -->
<g id="node14" class="node">
<title>Node14</title>
<g id="a_node14"><a xlink:title=" ">
<polygon fill="none" stroke="#bfbfbf" points="733.5,-0.5 733.5,-19.5 779.5,-19.5 779.5,-0.5 733.5,-0.5"/>
<text text-anchor="middle" x="756.5" y="-7.5" font-family="serif" font-size="10.00">utility</text>
</a>
</g>
</g>
<!-- Node1&#45;&gt;Node14 -->
<g id="edge26" class="edge">
<title>Node1&#45;&gt;Node14</title>
<path fill="none" stroke="midnightblue" d="M503.71,-112.46C535.71,-104.46 583.39,-91.45 623.5,-76 662.59,-60.94 705.81,-38.71 732.07,-24.54"/>
<polygon fill="midnightblue" stroke="midnightblue" points="733.82,-27.57 740.93,-19.72 730.47,-21.43 733.82,-27.57"/>
</g>
<!-- Node15 -->
<g id="node15" class="node">
<title>Node15</title>
<g id="a_node15"><a xlink:title=" ">
<polygon fill="none" stroke="#bfbfbf" points="797.5,-0.5 797.5,-19.5 845.5,-19.5 845.5,-0.5 797.5,-0.5"/>
<text text-anchor="middle" x="821.5" y="-7.5" font-family="serif" font-size="10.00">vector</text>
</a>
</g>
</g>
<!-- Node1&#45;&gt;Node15 -->
<g id="edge27" class="edge">
<title>Node1&#45;&gt;Node15</title>
<path fill="none" stroke="midnightblue" d="M512.88,-112.49C552.33,-104.6 610.8,-91.72 660.5,-76 708.22,-60.9 761.76,-38.05 793.5,-23.85"/>
<polygon fill="midnightblue" stroke="midnightblue" points="795.33,-26.86 803.01,-19.56 792.45,-20.48 795.33,-26.86"/>
</g>
<!-- Node2&#45;&gt;Node3 -->
<g id="edge2" class="edge">
<title>Node2&#45;&gt;Node3</title>
<path fill="none" stroke="midnightblue" d="M302.77,-57.72C232.77,-51.41 137.35,-40.33 44.88,-19.64"/>
<polygon fill="midnightblue" stroke="midnightblue" points="45.6,-16.22 35.08,-17.41 44.05,-23.04 45.6,-16.22"/>
</g>
<!-- Node2&#45;&gt;Node4 -->
<g id="edge3" class="edge">
<title>Node2&#45;&gt;Node4</title>
<path fill="none" stroke="midnightblue" d="M333.24,-56.49C275.96,-49.04 192.81,-37.03 111.48,-20.01"/>
<polygon fill="midnightblue" stroke="midnightblue" points="112.08,-16.56 101.57,-17.91 110.63,-23.4 112.08,-16.56"/>
</g>
<!-- Node2&#45;&gt;Node5 -->
<g id="edge4" class="edge">
<title>Node2&#45;&gt;Node5</title>
<path fill="none" stroke="midnightblue" d="M362.23,-56.45C321.4,-47.95 256.83,-34.41 191.93,-20.29"/>
<polygon fill="midnightblue" stroke="midnightblue" points="192.45,-16.82 181.93,-18.11 190.96,-23.66 192.45,-16.82"/>
</g>
<!-- Node2&#45;&gt;Node6 -->
<g id="edge5" class="edge">
<title>Node2&#45;&gt;Node6</title>
<path fill="none" stroke="midnightblue" d="M376.56,-56.44C347.84,-47.32 302.17,-32.81 270.18,-22.65"/>
<polygon fill="midnightblue" stroke="midnightblue" points="270.9,-19.21 260.31,-19.52 268.78,-25.88 270.9,-19.21"/>
</g>
<!-- Node2&#45;&gt;Node7 -->
<g id="edge6" class="edge">
<title>Node2&#45;&gt;Node7</title>
<path fill="none" stroke="midnightblue" d="M388.08,-56.32C372.96,-47.82 349.68,-34.73 332.03,-24.8"/>
<polygon fill="midnightblue" stroke="midnightblue" points="333.32,-21.51 322.89,-19.65 329.89,-27.61 333.32,-21.51"/>
</g>
<!-- Node2&#45;&gt;Node8 -->
<g id="edge7" class="edge">
<title>Node2&#45;&gt;Node8</title>
<path fill="none" stroke="midnightblue" d="M397.56,-56.08C392.52,-48.53 385.16,-37.49 378.99,-28.23"/>
<polygon fill="midnightblue" stroke="midnightblue" points="381.79,-26.13 373.33,-19.75 375.97,-30.01 381.79,-26.13"/>
</g>
<!-- Node2&#45;&gt;Node9 -->
<g id="edge8" class="edge">
<title>Node2&#45;&gt;Node9</title>
<path fill="none" stroke="midnightblue" d="M408.62,-56.08C412.91,-48.61 419.16,-37.72 424.44,-28.52"/>
<polygon fill="midnightblue" stroke="midnightblue" points="427.53,-30.17 429.48,-19.75 421.46,-26.68 427.53,-30.17"/>
</g>
<!-- Node2&#45;&gt;Node10 -->
<g id="edge9" class="edge">
<title>Node2&#45;&gt;Node10</title>
<path fill="none" stroke="midnightblue" d="M420.85,-56.32C438.17,-47.66 465.02,-34.24 485,-24.25"/>
<polygon fill="midnightblue" stroke="midnightblue" points="486.81,-27.26 494.19,-19.65 483.68,-21 486.81,-27.26"/>
</g>
<!-- Node2&#45;&gt;Node11 -->
<g id="edge10" class="edge">
<title>Node2&#45;&gt;Node11</title>
<path fill="none" stroke="midnightblue" d="M432.71,-56.43C460.32,-48.24 503.09,-35.31 548.64,-20.18"/>
<polygon fill="midnightblue" stroke="midnightblue" points="550.02,-23.41 558.4,-16.92 547.81,-16.77 550.02,-23.41"/>
</g>
<!-- Node2&#45;&gt;Node12 -->
<g id="edge11" class="edge">
<title>Node2&#45;&gt;Node12</title>
<path fill="none" stroke="midnightblue" d="M444.23,-56.47C481.91,-48.39 539.68,-35.55 598.98,-20"/>
<polygon fill="midnightblue" stroke="midnightblue" points="600.12,-23.32 608.89,-17.38 598.33,-16.55 600.12,-23.32"/>
</g>
<!-- Node2&#45;&gt;Node13 -->
<g id="edge12" class="edge">
<title>Node2&#45;&gt;Node13</title>
<path fill="none" stroke="midnightblue" d="M460.51,-56.47C510.16,-48.7 584.24,-36.27 657.86,-19.97"/>
<polygon fill="midnightblue" stroke="midnightblue" points="658.78,-23.35 667.77,-17.75 657.25,-16.52 658.78,-23.35"/>
</g>
<!-- Node2&#45;&gt;Node14 -->
<g id="edge13" class="edge">
<title>Node2&#45;&gt;Node14</title>
<path fill="none" stroke="midnightblue" d="M484.54,-56.48C547.17,-49.22 636.15,-37.48 723.35,-19.78"/>
<polygon fill="midnightblue" stroke="midnightblue" points="724.06,-23.2 733.15,-17.76 722.65,-16.35 724.06,-23.2"/>
</g>
<!-- Node2&#45;&gt;Node15 -->
<g id="edge14" class="edge">
<title>Node2&#45;&gt;Node15</title>
<path fill="none" stroke="midnightblue" d="M504.25,-57.38C579.85,-50.7 685.99,-39.26 787.63,-19.91"/>
<polygon fill="midnightblue" stroke="midnightblue" points="788.29,-23.34 797.45,-18.01 786.96,-16.47 788.29,-23.34"/>
</g>
</g>
</svg>
        <g id="navigator" transform="translate(0 0)" fill="#404254">
                <rect fill="#f2f5e9" fill-opacity="0.5" stroke="#606060" stroke-width=".5" x="0" y="0" width="60" height="60"/>
                <use id="zoomplus" xlink:href="#zoomPlus" x="17" y="9" onmousedown="handleZoom(evt,'in')"/>
                <use id="zoomminus" xlink:href="#zoomMin" x="42" y="9" onmousedown="handleZoom(evt,'out')"/>
                <use id="reset" xlink:href="#resetDef" x="30" y="36" onmousedown="handleReset()"/>
                <g id="arrowUp" xlink:href="#dirArrow" transform="translate(30 24)" onmousedown="handlePan(0,-1)">
                  <use xlink:href="#rim" fill="#404040">
                        <set attributeName="fill" to="#808080" begin="arrowUp.mouseover" end="arrowUp.mouseout"/>
                  </use>
                  <path fill="none" stroke="white" stroke-width="1.5" d="M0,-3.0v7 M-2.5,-0.5L0,-3.0L2.5,-0.5"/>
                </g>
                <g id="arrowRight" xlink:href="#dirArrow" transform="rotate(90) translate(36 -43)" onmousedown="handlePan(1,0)">
                  <use xlink:href="#rim" fill="#404040">
                        <set attributeName="fill" to="#808080" begin="arrowRight.mouseover" end="arrowRight.mouseout"/>
                  </use>
                  <path fill="none" stroke="white" stroke-width="1.5" d="M0,-3.0v7 M-2.5,-0.5L0,-3.0L2.5,-0.5"/>
                </g>
                <g id="arrowDown" xlink:href="#dirArrow" transform="rotate(180) translate(-30 -48)" onmousedown="handlePan(0,1)">
                  <use xlink:href="#rim" fill="#404040">
                        <set attributeName="fill" to="#808080" begin="arrowDown.mouseover" end="arrowDown.mouseout"/>
                  </use>
                  <path fill="none" stroke="white" stroke-width="1.5" d="M0,-3.0v7 M-2.5,-0.5L0,-3.0L2.5,-0.5"/>
                </g>
                <g id="arrowLeft" xlink:href="#dirArrow" transform="rotate(270) translate(-36 17)" onmousedown="handlePan(-1,0)">
                  <use xlink:href="#rim" fill="#404040">
                        <set attributeName="fill" to="#808080" begin="arrowLeft.mouseover" end="arrowLeft.mouseout"/>
                  </use>
                  <path fill="none" stroke="white" stroke-width="1.5" d="M0,-3.0v7 M-2.5,-0.5L0,-3.0L2.5,-0.5"/>
                </g>
        </g>
        <svg viewBox="0 0 15 15" width="100%" height="30px" preserveAspectRatio="xMaxYMin meet">
         <g id="arrow_out" transform="scale(0.3 0.3)">
          <a xlink:href="FunctionCoefficient_8cpp__incl_org.svg" target="_base">
           <rect id="button" ry="5" rx="5" y="6" x="6" height="38" width="38"
                fill="#f2f5e9" fill-opacity="0.5" stroke="#606060" stroke-width="1.0"/>
           <path id="arrow"
             d="M 11.500037,31.436501 C 11.940474,20.09759 22.043105,11.32322 32.158766,21.979434 L 37.068811,17.246167 C 37.068811,17.246167 37.088388,32 37.088388,32 L 22.160133,31.978069 C 22.160133,31.978069 26.997745,27.140456 26.997745,27.140456 C 18.528582,18.264221 13.291696,25.230495 11.500037,31.436501 z"
             style="fill:#404040;"/>
          </a>
         </g>
        </svg>
</svg>
