<?xml version="1.0" encoding="UTF-8" standalone="no"?>
<!DOCTYPE svg PUBLIC "-//W3C//DTD SVG 1.1//EN"
 "http://www.w3.org/Graphics/SVG/1.1/DTD/svg11.dtd">
<!-- Generated by graphviz version 2.43.0 (0)
 -->
<!-- Title: Graphical Class Hierarchy Pages: 1 -->
<svg width="496pt" height="148pt"
 viewBox="0.00 0.00 496.00 147.50" xmlns="http://www.w3.org/2000/svg" xmlns:xlink="http://www.w3.org/1999/xlink">
<g id="graph0" class="graph" transform="scale(1 1) rotate(0) translate(4 143.5)">
<title>Graphical Class Hierarchy</title>
<!-- Node65 -->
<g id="node1" class="node">
<title>Node65</title>
<g id="a_node1"><a xlink:title=" ">
<polygon fill="none" stroke="#bfbfbf" points="0,-76.5 0,-95.5 98,-95.5 98,-76.5 0,-76.5"/>
<text text-anchor="middle" x="49" y="-83.5" font-family="serif" font-size="10.00">mfem::Operator</text>
</a>
</g>
</g>
<!-- Node0 -->
<g id="node2" class="node">
<title>Node0</title>
<g id="a_node2"><a xlink:href="classOperatorBase.html" target="_top" xlink:title="Base class for building Steady and TimeDependent PhaseFieldOperators.">
<polygon fill="none" stroke="black" points="162,-114.5 162,-133.5 305,-133.5 305,-114.5 162,-114.5"/>
<text text-anchor="middle" x="233.5" y="-121.5" font-family="serif" font-size="10.00">OperatorBase&lt; T, DIM &gt;</text>
</a>
</g>
</g>
<!-- Node65&#45;&gt;Node0 -->
<g id="edge1" class="edge">
<title>Node65&#45;&gt;Node0</title>
<path fill="none" stroke="midnightblue" d="M100.8,-97.77C111.74,-100.22 123.24,-102.75 134,-105 149.43,-108.23 166.26,-111.55 181.57,-114.5"/>
<polygon fill="midnightblue" stroke="midnightblue" points="101.48,-94.33 90.96,-95.54 99.94,-101.16 101.48,-94.33"/>
</g>
<!-- Node69 -->
<g id="node5" class="node">
<title>Node69</title>
<g id="a_node5"><a xlink:href="classPhaseFieldReducedOperator.html" target="_top" xlink:title=" ">
<polygon fill="none" stroke="black" points="151.5,-76.5 151.5,-95.5 315.5,-95.5 315.5,-76.5 151.5,-76.5"/>
<text text-anchor="middle" x="233.5" y="-83.5" font-family="serif" font-size="10.00">PhaseFieldReducedOperator</text>
</a>
</g>
</g>
<!-- Node65&#45;&gt;Node69 -->
<g id="edge4" class="edge">
<title>Node65&#45;&gt;Node69</title>
<path fill="none" stroke="midnightblue" d="M108.6,-86C122.23,-86 136.97,-86 151.37,-86"/>
<polygon fill="midnightblue" stroke="midnightblue" points="108.43,-82.5 98.43,-86 108.43,-89.5 108.43,-82.5"/>
</g>
<!-- Node70 -->
<g id="node6" class="node">
<title>Node70</title>
<g id="a_node6"><a xlink:href="classSteadyPhaseFieldReducedOperator.html" target="_top" xlink:title=" ">
<polygon fill="none" stroke="black" points="134,-38.5 134,-57.5 333,-57.5 333,-38.5 134,-38.5"/>
<text text-anchor="middle" x="233.5" y="-45.5" font-family="serif" font-size="10.00">SteadyPhaseFieldReducedOperator</text>
</a>
</g>
</g>
<!-- Node65&#45;&gt;Node70 -->
<g id="edge5" class="edge">
<title>Node65&#45;&gt;Node70</title>
<path fill="none" stroke="midnightblue" d="M100.8,-74.23C111.74,-71.78 123.24,-69.25 134,-67 149.43,-63.77 166.26,-60.45 181.57,-57.5"/>
<polygon fill="midnightblue" stroke="midnightblue" points="99.94,-70.84 90.96,-76.46 101.48,-77.67 99.94,-70.84"/>
</g>
<!-- Node1 -->
<g id="node3" class="node">
<title>Node1</title>
<g id="a_node3"><a xlink:href="classSteadyOperator.html" target="_top" xlink:title="SteadyOperator class.">
<polygon fill="none" stroke="black" points="370,-109 370,-139 487,-139 487,-109 370,-109"/>
<text text-anchor="start" x="378" y="-127" font-family="serif" font-size="10.00">SteadyOperator&lt; T,</text>
<text text-anchor="middle" x="428.5" y="-116" font-family="serif" font-size="10.00"> DIM &gt;</text>
</a>
</g>
</g>
<!-- Node0&#45;&gt;Node1 -->
<g id="edge2" class="edge">
<title>Node0&#45;&gt;Node1</title>
<path fill="none" stroke="midnightblue" d="M315.32,-124C333.58,-124 352.61,-124 369.7,-124"/>
<polygon fill="midnightblue" stroke="midnightblue" points="315.27,-120.5 305.27,-124 315.27,-127.5 315.27,-120.5"/>
</g>
<!-- Node2 -->
<g id="node4" class="node">
<title>Node2</title>
<g id="a_node4"><a xlink:href="classTransientOperator.html" target="_top" xlink:title="TransientOperator class.">
<polygon fill="none" stroke="black" points="369,-28 369,-58 488,-58 488,-28 369,-28"/>
<text text-anchor="start" x="377" y="-46" font-family="serif" font-size="10.00">TransientOperator&lt;</text>
<text text-anchor="middle" x="428.5" y="-35" font-family="serif" font-size="10.00"> T, DIM &gt;</text>
</a>
</g>
</g>
<!-- Node0&#45;&gt;Node2 -->
<g id="edge3" class="edge">
<title>Node0&#45;&gt;Node2</title>
<path fill="none" stroke="midnightblue" d="M312.28,-111.98C319.39,-109.99 326.4,-107.68 333,-105 361.73,-93.34 390.99,-72.46 409.19,-58.17"/>
<polygon fill="midnightblue" stroke="midnightblue" points="311.35,-108.6 302.54,-114.49 313.1,-115.38 311.35,-108.6"/>
</g>
<!-- Node134 -->
<g id="node7" class="node">
<title>Node134</title>
<g id="a_node7"><a xlink:title=" ">
<polygon fill="none" stroke="#bfbfbf" points="143.5,-0.5 143.5,-19.5 323.5,-19.5 323.5,-0.5 143.5,-0.5"/>
<text text-anchor="middle" x="233.5" y="-7.5" font-family="serif" font-size="10.00">mfem::TimeDependentOperator</text>
</a>
</g>
</g>
<!-- Node134&#45;&gt;Node2 -->
<g id="edge6" class="edge">
<title>Node134&#45;&gt;Node2</title>
<path fill="none" stroke="midnightblue" d="M300.13,-21.22C322.45,-25.04 347.24,-29.28 368.97,-32.99"/>
<polygon fill="midnightblue" stroke="midnightblue" points="300.51,-17.74 290.06,-19.5 299.33,-24.64 300.51,-17.74"/>
</g>
</g>
</svg>
