<?xml version="1.0" encoding="UTF-8" standalone="no"?>
<!DOCTYPE svg PUBLIC "-//W3C//DTD SVG 1.1//EN"
 "http://www.w3.org/Graphics/SVG/1.1/DTD/svg11.dtd">
<!-- Generated by graphviz version 2.43.0 (0)
 -->
<!-- Title: Graphical Class Hierarchy Pages: 1 -->
<svg width="292pt" height="66pt"
 viewBox="0.00 0.00 292.00 66.00" xmlns="http://www.w3.org/2000/svg" xmlns:xlink="http://www.w3.org/1999/xlink">
<g id="graph0" class="graph" transform="scale(1 1) rotate(0) translate(4 62)">
<title>Graphical Class Hierarchy</title>
<!-- Node33 -->
<g id="node1" class="node">
<title>Node33</title>
<g id="a_node1"><a xlink:title=" ">
<polygon fill="none" stroke="#bfbfbf" points="0,-19.5 0,-38.5 106,-38.5 106,-19.5 0,-19.5"/>
<text text-anchor="middle" x="53" y="-26.5" font-family="serif" font-size="10.00">mfem::Coefficient</text>
</a>
</g>
</g>
<!-- Node0 -->
<g id="node2" class="node">
<title>Node0</title>
<g id="a_node2"><a xlink:href="classAxiCylindricalCoefficient.html" target="_top" xlink:title=" ">
<polygon fill="none" stroke="black" points="142,-38.5 142,-57.5 284,-57.5 284,-38.5 142,-38.5"/>
<text text-anchor="middle" x="213" y="-45.5" font-family="serif" font-size="10.00">AxiCylindricalCoefficient</text>
</a>
</g>
</g>
<!-- Node33&#45;&gt;Node0 -->
<g id="edge1" class="edge">
<title>Node33&#45;&gt;Node0</title>
<path fill="none" stroke="midnightblue" d="M116.26,-36.49C124.66,-37.5 133.32,-38.54 141.84,-39.56"/>
<polygon fill="midnightblue" stroke="midnightblue" points="116.52,-32.99 106.17,-35.27 115.68,-39.94 116.52,-32.99"/>
</g>
<!-- Node35 -->
<g id="node3" class="node">
<title>Node35</title>
<g id="a_node3"><a xlink:href="classMfemCoefficient.html" target="_top" xlink:title=" ">
<polygon fill="none" stroke="black" points="162.5,-0.5 162.5,-19.5 263.5,-19.5 263.5,-0.5 162.5,-0.5"/>
<text text-anchor="middle" x="213" y="-7.5" font-family="serif" font-size="10.00">MfemCoefficient</text>
</a>
</g>
</g>
<!-- Node33&#45;&gt;Node35 -->
<g id="edge2" class="edge">
<title>Node33&#45;&gt;Node35</title>
<path fill="none" stroke="midnightblue" d="M116.53,-21.48C131.73,-19.65 147.78,-17.72 162.29,-15.98"/>
<polygon fill="midnightblue" stroke="midnightblue" points="115.68,-18.06 106.17,-22.73 116.52,-25.01 115.68,-18.06"/>
</g>
</g>
</svg>
