<?xml version="1.0" encoding="UTF-8" standalone="no"?>
<!DOCTYPE svg PUBLIC "-//W3C//DTD SVG 1.1//EN"
 "http://www.w3.org/Graphics/SVG/1.1/DTD/svg11.dtd">
<!-- Generated by graphviz version 2.43.0 (0)
 -->
<!-- Title: InterDiffusionCoefficient.hpp Pages: 1 -->
<svg width="254pt" height="84pt"
 viewBox="0.00 0.00 254.00 84.00" xmlns="http://www.w3.org/2000/svg" xmlns:xlink="http://www.w3.org/1999/xlink">
<g id="graph0" class="graph" transform="scale(1 1) rotate(0) translate(4 80)">
<title>InterDiffusionCoefficient.hpp</title>
<!-- Node1 -->
<g id="node1" class="node">
<title>Node1</title>
<g id="a_node1"><a xlink:title="Class used to compute inter&#45;diffusion coefficients.">
<polygon fill="#bfbfbf" stroke="black" points="16.5,-56.5 16.5,-75.5 180.5,-75.5 180.5,-56.5 16.5,-56.5"/>
<text text-anchor="middle" x="98.5" y="-63.5" font-family="serif" font-size="10.00">InterDiffusionCoefficient.hpp</text>
</a>
</g>
</g>
<!-- Node2 -->
<g id="node2" class="node">
<title>Node2</title>
<g id="a_node2"><a xlink:href="sloth_8hpp.html" target="_top" xlink:title="List of SLOTH header files.">
<polygon fill="none" stroke="black" points="0,-0.5 0,-19.5 65,-19.5 65,-0.5 0,-0.5"/>
<text text-anchor="middle" x="32.5" y="-7.5" font-family="serif" font-size="10.00">sloth.hpp</text>
</a>
</g>
</g>
<!-- Node1&#45;&gt;Node2 -->
<g id="edge1" class="edge">
<title>Node1&#45;&gt;Node2</title>
<path fill="none" stroke="midnightblue" d="M79.95,-49.82C68.12,-40.15 53.21,-27.95 43.3,-19.83"/>
<polygon fill="midnightblue" stroke="midnightblue" points="77.94,-52.7 87.9,-56.32 82.37,-47.28 77.94,-52.7"/>
</g>
<!-- Node3 -->
<g id="node3" class="node">
<title>Node3</title>
<g id="a_node3"><a xlink:href="InterDiffusionCoefficient_8cpp.html" target="_top" xlink:title="Class used to compute inter&#45;diffusion coefficients.">
<polygon fill="none" stroke="black" points="83,-0.5 83,-19.5 246,-19.5 246,-0.5 83,-0.5"/>
<text text-anchor="middle" x="164.5" y="-7.5" font-family="serif" font-size="10.00">InterDiffusionCoefficient.cpp</text>
</a>
</g>
</g>
<!-- Node1&#45;&gt;Node3 -->
<g id="edge2" class="edge">
<title>Node1&#45;&gt;Node3</title>
<path fill="none" stroke="midnightblue" d="M117.05,-49.82C128.88,-40.15 143.79,-27.95 153.7,-19.83"/>
<polygon fill="midnightblue" stroke="midnightblue" points="114.63,-47.28 109.1,-56.32 119.06,-52.7 114.63,-47.28"/>
</g>
</g>
</svg>
