<?xml version="1.0" encoding="UTF-8" standalone="no"?>
<!DOCTYPE svg PUBLIC "-//W3C//DTD SVG 1.1//EN"
 "http://www.w3.org/Graphics/SVG/1.1/DTD/svg11.dtd">
<!-- Generated by graphviz version 2.43.0 (0)
 -->
<!-- Title: LSolver.cpp Pages: 1 -->
<svg width="4049pt" height="711pt"
 viewBox="0.00 0.00 4049.05 711.00" xmlns="http://www.w3.org/2000/svg" xmlns:xlink="http://www.w3.org/1999/xlink">
<g id="graph0" class="graph" transform="scale(1 1) rotate(0) translate(4 707)">
<title>LSolver.cpp</title>
<!-- Node1 -->
<g id="node1" class="node">
<title>Node1</title>
<g id="a_node1"><a xlink:title="Class used to manage Linear Solver objet.">
<polygon fill="#bfbfbf" stroke="black" points="2942.55,-683.5 2942.55,-702.5 3019.55,-702.5 3019.55,-683.5 2942.55,-683.5"/>
<text text-anchor="middle" x="2981.05" y="-690.5" font-family="serif" font-size="10.00">LSolver.cpp</text>
</a>
</g>
</g>
<!-- Node2 -->
<g id="node2" class="node">
<title>Node2</title>
<g id="a_node2"><a xlink:href="LSolver_8hpp.html" target="_top" xlink:title="Class used to manage Linear Solver objet.">
<polygon fill="none" stroke="black" points="3188.55,-627.5 3188.55,-646.5 3307.55,-646.5 3307.55,-627.5 3188.55,-627.5"/>
<text text-anchor="middle" x="3248.05" y="-634.5" font-family="serif" font-size="10.00">Solvers/LSolver.hpp</text>
</a>
</g>
</g>
<!-- Node1&#45;&gt;Node2 -->
<g id="edge1" class="edge">
<title>Node1&#45;&gt;Node2</title>
<path fill="none" stroke="midnightblue" d="M3019.59,-684.21C3066.03,-674.81 3144.25,-658.99 3196.02,-648.52"/>
<polygon fill="midnightblue" stroke="midnightblue" points="3196.89,-651.92 3206,-646.5 3195.5,-645.06 3196.89,-651.92"/>
</g>
<!-- Node3 -->
<g id="node3" class="node">
<title>Node3</title>
<g id="a_node3"><a xlink:title=" ">
<polygon fill="none" stroke="#bfbfbf" points="3555.55,-56.5 3555.55,-75.5 3614.55,-75.5 3614.55,-56.5 3555.55,-56.5"/>
<text text-anchor="middle" x="3585.05" y="-63.5" font-family="serif" font-size="10.00">memory</text>
</a>
</g>
</g>
<!-- Node1&#45;&gt;Node3 -->
<g id="edge165" class="edge">
<title>Node1&#45;&gt;Node3</title>
<path fill="none" stroke="midnightblue" d="M3019.56,-691.98C3205.67,-691.37 4003.05,-682.88 4003.05,-582 4003.05,-582 4003.05,-582 4003.05,-412 4003.05,-216.9 3728.84,-111.52 3624.61,-78.51"/>
<polygon fill="midnightblue" stroke="midnightblue" points="3625.37,-75.08 3614.78,-75.45 3623.29,-81.76 3625.37,-75.08"/>
</g>
<!-- Node4 -->
<g id="node4" class="node">
<title>Node4</title>
<g id="a_node4"><a xlink:href="Options_8hpp.html" target="_top" xlink:title="List of all Options files.">
<polygon fill="none" stroke="black" points="1636.05,-291.5 1636.05,-310.5 1758.05,-310.5 1758.05,-291.5 1636.05,-291.5"/>
<text text-anchor="middle" x="1697.05" y="-298.5" font-family="serif" font-size="10.00">Options/Options.hpp</text>
</a>
</g>
</g>
<!-- Node1&#45;&gt;Node4 -->
<g id="edge166" class="edge">
<title>Node1&#45;&gt;Node4</title>
<path fill="none" stroke="midnightblue" d="M2942.45,-691.98C2721.61,-691.7 1626.29,-688.25 1569.05,-647 1544.07,-628.99 1545.05,-612.8 1545.05,-582 1545.05,-582 1545.05,-582 1545.05,-412 1545.05,-358.44 1607.76,-328.3 1652.62,-313.59"/>
<polygon fill="midnightblue" stroke="midnightblue" points="1653.68,-316.93 1662.18,-310.6 1651.59,-310.25 1653.68,-316.93"/>
</g>
<!-- Node7 -->
<g id="node7" class="node">
<title>Node7</title>
<g id="a_node7"><a xlink:href="Utils_8hpp.html" target="_top" xlink:title="List of all Utils files.">
<polygon fill="none" stroke="black" points="2149.55,-168.5 2149.55,-187.5 2238.55,-187.5 2238.55,-168.5 2149.55,-168.5"/>
<text text-anchor="middle" x="2194.05" y="-175.5" font-family="serif" font-size="10.00">Utils/Utils.hpp</text>
</a>
</g>
</g>
<!-- Node1&#45;&gt;Node7 -->
<g id="edge170" class="edge">
<title>Node1&#45;&gt;Node7</title>
<path fill="none" stroke="midnightblue" d="M2942.2,-691.03C2716.41,-685.15 1583.05,-652.15 1583.05,-582 1583.05,-582 1583.05,-582 1583.05,-524 1583.05,-505.73 2172.05,-269.58 2183.05,-255 2195.45,-238.57 2196.89,-214.32 2196.09,-197.65"/>
<polygon fill="midnightblue" stroke="midnightblue" points="2199.56,-197.21 2195.28,-187.52 2192.59,-197.77 2199.56,-197.21"/>
</g>
<!-- Node20 -->
<g id="node20" class="node">
<title>Node20</title>
<g id="a_node20"><a xlink:title=" ">
<polygon fill="none" stroke="#bfbfbf" points="3569.55,-0.5 3569.55,-19.5 3638.55,-19.5 3638.55,-0.5 3569.55,-0.5"/>
<text text-anchor="middle" x="3604.05" y="-7.5" font-family="serif" font-size="10.00">mfem.hpp</text>
</a>
</g>
</g>
<!-- Node1&#45;&gt;Node20 -->
<g id="edge171" class="edge">
<title>Node1&#45;&gt;Node20</title>
<path fill="none" stroke="midnightblue" d="M3019.66,-692.19C3172.6,-692.65 3736,-691.22 3908.05,-647 3971.77,-630.62 4041.05,-647.79 4041.05,-582 4041.05,-582 4041.05,-582 4041.05,-121 4041.05,-40.76 3760.46,-18.48 3648.95,-12.8"/>
<polygon fill="midnightblue" stroke="midnightblue" points="3648.87,-9.29 3638.71,-12.3 3648.52,-16.28 3648.87,-9.29"/>
</g>
<!-- Node40 -->
<g id="node40" class="node">
<title>Node40</title>
<g id="a_node40"><a xlink:href="Parameter_8hpp.html" target="_top" xlink:title="Parameter class.">
<polygon fill="none" stroke="black" points="1279.05,-347.5 1279.05,-366.5 1431.05,-366.5 1431.05,-347.5 1279.05,-347.5"/>
<text text-anchor="middle" x="1355.05" y="-354.5" font-family="serif" font-size="10.00">Parameters/Parameter.hpp</text>
</a>
</g>
</g>
<!-- Node1&#45;&gt;Node40 -->
<g id="edge167" class="edge">
<title>Node1&#45;&gt;Node40</title>
<path fill="none" stroke="midnightblue" d="M2942.21,-691.54C2725.76,-688.89 1672.89,-674.63 1531.05,-647 1449.2,-631.06 1355.05,-665.39 1355.05,-582 1355.05,-582 1355.05,-582 1355.05,-468 1355.05,-435.95 1355.05,-398.64 1355.05,-376.75"/>
<polygon fill="midnightblue" stroke="midnightblue" points="1358.55,-376.56 1355.05,-366.56 1351.55,-376.56 1358.55,-376.56"/>
</g>
<!-- Node42 -->
<g id="node42" class="node">
<title>Node42</title>
<g id="a_node42"><a xlink:href="Parameters_8hpp.html" target="_top" xlink:title="Parameter class used to build and manage calculation parameter.">
<polygon fill="none" stroke="black" points="2879.05,-403.5 2879.05,-422.5 3037.05,-422.5 3037.05,-403.5 2879.05,-403.5"/>
<text text-anchor="middle" x="2958.05" y="-410.5" font-family="serif" font-size="10.00">Parameters/Parameters.hpp</text>
</a>
</g>
</g>
<!-- Node1&#45;&gt;Node42 -->
<g id="edge168" class="edge">
<title>Node1&#45;&gt;Node42</title>
<path fill="none" stroke="midnightblue" d="M3019.79,-690.74C3187.25,-684.9 3843.09,-657.88 3903.05,-591 4020.42,-460.07 3304.54,-424.76 3047.43,-416.37"/>
<polygon fill="midnightblue" stroke="midnightblue" points="3047.48,-412.87 3037.37,-416.05 3047.26,-419.86 3047.48,-412.87"/>
</g>
<!-- Node48 -->
<g id="node48" class="node">
<title>Node48</title>
<g id="a_node48"><a xlink:href="SlothSolver_8hpp.html" target="_top" xlink:title="Class to define a SlothSolver objet.">
<polygon fill="none" stroke="black" points="2816.05,-571.5 2816.05,-590.5 2954.05,-590.5 2954.05,-571.5 2816.05,-571.5"/>
<text text-anchor="middle" x="2885.05" y="-578.5" font-family="serif" font-size="10.00">Solvers/SlothSolver.hpp</text>
</a>
</g>
</g>
<!-- Node1&#45;&gt;Node48 -->
<g id="edge169" class="edge">
<title>Node1&#45;&gt;Node48</title>
<path fill="none" stroke="midnightblue" d="M2973.52,-683.37C2957.53,-665.05 2920,-622.05 2899.33,-598.36"/>
<polygon fill="midnightblue" stroke="midnightblue" points="2901.76,-595.82 2892.55,-590.59 2896.49,-600.43 2901.76,-595.82"/>
</g>
<!-- Node2&#45;&gt;Node3 -->
<g id="edge2" class="edge">
<title>Node2&#45;&gt;Node3</title>
<path fill="none" stroke="midnightblue" d="M3307.78,-632C3466.91,-620.55 3889.05,-584.64 3889.05,-526 3889.05,-526 3889.05,-526 3889.05,-412 3889.05,-249.5 3809.19,-210.64 3680.05,-112 3661.77,-98.04 3638.47,-86.92 3619.51,-79.22"/>
<polygon fill="midnightblue" stroke="midnightblue" points="3620.64,-75.9 3610.05,-75.52 3618.08,-82.42 3620.64,-75.9"/>
</g>
<!-- Node2&#45;&gt;Node4 -->
<g id="edge3" class="edge">
<title>Node2&#45;&gt;Node4</title>
<path fill="none" stroke="midnightblue" d="M3188.52,-635.93C2920.16,-635.13 1830.9,-626.23 1712.05,-535 1646.4,-484.61 1675.93,-366.4 1690.57,-320.59"/>
<polygon fill="midnightblue" stroke="midnightblue" points="1693.99,-321.41 1693.83,-310.82 1687.35,-319.2 1693.99,-321.41"/>
</g>
<!-- Node2&#45;&gt;Node7 -->
<g id="edge163" class="edge">
<title>Node2&#45;&gt;Node7</title>
<path fill="none" stroke="midnightblue" d="M3253.77,-627.26C3267.12,-605.67 3297.22,-549.04 3270.05,-515 3264.27,-507.75 2627.16,-371.5 2619.05,-367 2540.72,-323.57 2556.87,-264.63 2477.05,-224 2386.2,-177.76 2349.14,-203.75 2248.57,-188.82"/>
<polygon fill="midnightblue" stroke="midnightblue" points="2249.06,-185.36 2238.64,-187.25 2247.97,-192.27 2249.06,-185.36"/>
</g>
<!-- Node2&#45;&gt;Node20 -->
<g id="edge164" class="edge">
<title>Node2&#45;&gt;Node20</title>
<path fill="none" stroke="midnightblue" d="M3307.92,-636.4C3404.74,-635.79 3601.06,-629.36 3762.05,-591 3864.22,-566.65 3965.05,-575.03 3965.05,-470 3965.05,-470 3965.05,-470 3965.05,-121 3965.05,-75.87 3928.14,-74.66 3887.05,-56 3808.59,-20.37 3706.74,-12.36 3649.07,-10.9"/>
<polygon fill="midnightblue" stroke="midnightblue" points="3648.9,-7.39 3638.84,-10.7 3648.77,-14.39 3648.9,-7.39"/>
</g>
<!-- Node2&#45;&gt;Node40 -->
<g id="edge82" class="edge">
<title>Node2&#45;&gt;Node40</title>
<path fill="none" stroke="midnightblue" d="M3188.19,-635.31C2911.73,-631.97 1765.2,-616.71 1607.05,-591 1508.94,-575.05 1393.05,-625.4 1393.05,-526 1393.05,-526 1393.05,-526 1393.05,-468 1393.05,-433.81 1376.45,-396.76 1365.19,-375.57"/>
<polygon fill="midnightblue" stroke="midnightblue" points="1368.23,-373.83 1360.33,-366.77 1362.1,-377.22 1368.23,-373.83"/>
</g>
<!-- Node2&#45;&gt;Node42 -->
<g id="edge88" class="edge">
<title>Node2&#45;&gt;Node42</title>
<path fill="none" stroke="midnightblue" d="M3270.51,-627.38C3285.82,-620.18 3304.91,-608.29 3314.05,-591 3335.95,-549.57 3354.06,-523.33 3277.05,-459 3243.11,-430.65 3129.35,-420.15 3047.36,-416.27"/>
<polygon fill="midnightblue" stroke="midnightblue" points="3047.42,-412.77 3037.27,-415.82 3047.1,-419.76 3047.42,-412.77"/>
</g>
<!-- Node2&#45;&gt;Node48 -->
<g id="edge102" class="edge">
<title>Node2&#45;&gt;Node48</title>
<path fill="none" stroke="midnightblue" d="M3190.53,-627.44C3125.88,-617.83 3021.02,-602.23 2952.55,-592.04"/>
<polygon fill="midnightblue" stroke="midnightblue" points="2952.71,-588.53 2942.3,-590.52 2951.68,-595.45 2952.71,-588.53"/>
</g>
<!-- Node5 -->
<g id="node5" class="node">
<title>Node5</title>
<g id="a_node5"><a xlink:href="AnalyticalFunctionOptions_8hpp.html" target="_top" xlink:title="Options for Analytical functions.">
<polygon fill="none" stroke="black" points="508.55,-224.5 508.55,-254.5 663.55,-254.5 663.55,-224.5 508.55,-224.5"/>
<text text-anchor="start" x="516.55" y="-242.5" font-family="serif" font-size="10.00">Options/AnalyticalFunction</text>
<text text-anchor="middle" x="586.05" y="-231.5" font-family="serif" font-size="10.00">Options.hpp</text>
</a>
</g>
</g>
<!-- Node4&#45;&gt;Node5 -->
<g id="edge4" class="edge">
<title>Node4&#45;&gt;Node5</title>
<path fill="none" stroke="midnightblue" d="M1635.73,-297.41C1429.38,-288.68 768.17,-260.61 673.91,-254.79"/>
<polygon fill="midnightblue" stroke="midnightblue" points="674.04,-251.29 663.81,-254.05 673.53,-258.27 674.04,-251.29"/>
</g>
<!-- Node4&#45;&gt;Node7 -->
<g id="edge81" class="edge">
<title>Node4&#45;&gt;Node7</title>
<path fill="none" stroke="midnightblue" d="M1758.14,-298.27C1812.96,-294.72 1894.47,-284.4 1959.05,-255 1978.89,-245.97 1977.47,-233.57 1997.05,-224 2042.24,-201.92 2098.59,-190.46 2139.43,-184.65"/>
<polygon fill="midnightblue" stroke="midnightblue" points="2140.03,-188.1 2149.47,-183.29 2139.09,-181.16 2140.03,-188.1"/>
</g>
<!-- Node30 -->
<g id="node30" class="node">
<title>Node30</title>
<g id="a_node30"><a xlink:href="CalphadOptions_8hpp.html" target="_top" xlink:title="Options for Calphad problems.">
<polygon fill="none" stroke="black" points="2686.55,-230 2686.55,-249 2851.55,-249 2851.55,-230 2686.55,-230"/>
<text text-anchor="middle" x="2769.05" y="-237" font-family="serif" font-size="10.00">Options/CalphadOptions.hpp</text>
</a>
</g>
</g>
<!-- Node4&#45;&gt;Node30 -->
<g id="edge53" class="edge">
<title>Node4&#45;&gt;Node30</title>
<path fill="none" stroke="midnightblue" d="M1758.15,-296.61C1937.22,-286.67 2461.64,-257.56 2676.06,-245.66"/>
<polygon fill="midnightblue" stroke="midnightblue" points="2676.55,-249.14 2686.34,-245.09 2676.17,-242.15 2676.55,-249.14"/>
</g>
<!-- Node31 -->
<g id="node31" class="node">
<title>Node31</title>
<g id="a_node31"><a xlink:href="DiffusionOptions_8hpp.html" target="_top" xlink:title="Option for Mass Diffusion problems.">
<polygon fill="none" stroke="black" points="2006.05,-230 2006.05,-249 2174.05,-249 2174.05,-230 2006.05,-230"/>
<text text-anchor="middle" x="2090.05" y="-237" font-family="serif" font-size="10.00">Options/DiffusionOptions.hpp</text>
</a>
</g>
</g>
<!-- Node4&#45;&gt;Node31 -->
<g id="edge58" class="edge">
<title>Node4&#45;&gt;Node31</title>
<path fill="none" stroke="midnightblue" d="M1753.36,-291.48C1824.86,-280.65 1948.03,-262 2023.92,-250.51"/>
<polygon fill="midnightblue" stroke="midnightblue" points="2024.48,-253.97 2033.85,-249.01 2023.44,-247.05 2024.48,-253.97"/>
</g>
<!-- Node32 -->
<g id="node32" class="node">
<title>Node32</title>
<g id="a_node32"><a xlink:href="IntegratorsOptions_8hpp.html" target="_top" xlink:title="Options for Integrators.">
<polygon fill="none" stroke="black" points="681.55,-230 681.55,-249 860.55,-249 860.55,-230 681.55,-230"/>
<text text-anchor="middle" x="771.05" y="-237" font-family="serif" font-size="10.00">Options/IntegratorsOptions.hpp</text>
</a>
</g>
</g>
<!-- Node4&#45;&gt;Node32 -->
<g id="edge60" class="edge">
<title>Node4&#45;&gt;Node32</title>
<path fill="none" stroke="midnightblue" d="M1635.75,-297.41C1470.43,-290.3 1017.84,-270.02 869.05,-255 857.22,-253.81 844.63,-252.2 832.56,-250.49"/>
<polygon fill="midnightblue" stroke="midnightblue" points="832.96,-247.01 822.56,-249.04 831.95,-253.94 832.96,-247.01"/>
</g>
<!-- Node33 -->
<g id="node33" class="node">
<title>Node33</title>
<g id="a_node33"><a xlink:href="PhaseFieldOptions_8hpp.html" target="_top" xlink:title="Options for PhaseField problems.">
<polygon fill="none" stroke="black" points="1420.55,-230 1420.55,-249 1599.55,-249 1599.55,-230 1420.55,-230"/>
<text text-anchor="middle" x="1510.05" y="-237" font-family="serif" font-size="10.00">Options/PhaseFieldOptions.hpp</text>
</a>
</g>
</g>
<!-- Node4&#45;&gt;Node33 -->
<g id="edge63" class="edge">
<title>Node4&#45;&gt;Node33</title>
<path fill="none" stroke="midnightblue" d="M1670.26,-291.48C1637.76,-281.14 1582.84,-263.66 1546.51,-252.1"/>
<polygon fill="midnightblue" stroke="midnightblue" points="1547.38,-248.71 1536.79,-249.01 1545.26,-255.38 1547.38,-248.71"/>
</g>
<!-- Node34 -->
<g id="node34" class="node">
<title>Node34</title>
<g id="a_node34"><a xlink:href="PhysicalConvergenceOptions_8hpp.html" target="_top" xlink:title="Options for PhysicalConvergence objects.">
<polygon fill="none" stroke="black" points="878.55,-224.5 878.55,-254.5 1047.55,-254.5 1047.55,-224.5 878.55,-224.5"/>
<text text-anchor="start" x="886.55" y="-242.5" font-family="serif" font-size="10.00">Options/PhysicalConvergence</text>
<text text-anchor="middle" x="963.05" y="-231.5" font-family="serif" font-size="10.00">Options.hpp</text>
</a>
</g>
</g>
<!-- Node4&#45;&gt;Node34 -->
<g id="edge65" class="edge">
<title>Node4&#45;&gt;Node34</title>
<path fill="none" stroke="midnightblue" d="M1636.01,-297.39C1523.72,-292.23 1276.65,-279.16 1057.64,-255"/>
<polygon fill="midnightblue" stroke="midnightblue" points="1057.88,-251.5 1047.56,-253.87 1057.11,-258.46 1057.88,-251.5"/>
</g>
<!-- Node35 -->
<g id="node35" class="node">
<title>Node35</title>
<g id="a_node35"><a xlink:href="PhysicalPropertiesOptions_8hpp.html" target="_top" xlink:title="Options for physical properties.">
<polygon fill="none" stroke="black" points="1618.05,-224.5 1618.05,-254.5 1772.05,-254.5 1772.05,-224.5 1618.05,-224.5"/>
<text text-anchor="start" x="1626.05" y="-242.5" font-family="serif" font-size="10.00">Options/PhysicalProperties</text>
<text text-anchor="middle" x="1695.05" y="-231.5" font-family="serif" font-size="10.00">Options.hpp</text>
</a>
</g>
</g>
<!-- Node4&#45;&gt;Node35 -->
<g id="edge68" class="edge">
<title>Node4&#45;&gt;Node35</title>
<path fill="none" stroke="midnightblue" d="M1696.76,-291.48C1696.53,-284.47 1696.18,-274.19 1695.86,-264.7"/>
<polygon fill="midnightblue" stroke="midnightblue" points="1699.36,-264.4 1695.52,-254.52 1692.36,-264.63 1699.36,-264.4"/>
</g>
<!-- Node36 -->
<g id="node36" class="node">
<title>Node36</title>
<g id="a_node36"><a xlink:href="ProblemsOptions_8hpp.html" target="_top" xlink:title="Options for Problem objects.">
<polygon fill="none" stroke="black" points="1232.05,-230 1232.05,-249 1402.05,-249 1402.05,-230 1232.05,-230"/>
<text text-anchor="middle" x="1317.05" y="-237" font-family="serif" font-size="10.00">Options/ProblemsOptions.hpp</text>
</a>
</g>
</g>
<!-- Node4&#45;&gt;Node36 -->
<g id="edge70" class="edge">
<title>Node4&#45;&gt;Node36</title>
<path fill="none" stroke="midnightblue" d="M1642.61,-291.48C1573.61,-280.67 1454.86,-262.08 1381.44,-250.58"/>
<polygon fill="midnightblue" stroke="midnightblue" points="1381.82,-247.1 1371.39,-249.01 1380.73,-254.01 1381.82,-247.1"/>
</g>
<!-- Node37 -->
<g id="node37" class="node">
<title>Node37</title>
<g id="a_node37"><a xlink:href="SolversOptions_8hpp.html" target="_top" xlink:title="Options for solvers and preconditioners.">
<polygon fill="none" stroke="black" points="1790.05,-230 1790.05,-249 1950.05,-249 1950.05,-230 1790.05,-230"/>
<text text-anchor="middle" x="1870.05" y="-237" font-family="serif" font-size="10.00">Options/SolversOptions.hpp</text>
</a>
</g>
</g>
<!-- Node4&#45;&gt;Node37 -->
<g id="edge73" class="edge">
<title>Node4&#45;&gt;Node37</title>
<path fill="none" stroke="midnightblue" d="M1721.84,-291.48C1751.64,-281.22 1801.84,-263.96 1835.45,-252.4"/>
<polygon fill="midnightblue" stroke="midnightblue" points="1836.99,-255.57 1845.31,-249.01 1834.72,-248.95 1836.99,-255.57"/>
</g>
<!-- Node38 -->
<g id="node38" class="node">
<title>Node38</title>
<g id="a_node38"><a xlink:href="SpatialOptions_8hpp.html" target="_top" xlink:title="Options for Spatial discretization.">
<polygon fill="none" stroke="black" points="332.05,-230 332.05,-249 490.05,-249 490.05,-230 332.05,-230"/>
<text text-anchor="middle" x="411.05" y="-237" font-family="serif" font-size="10.00">Options/SpatialOptions.hpp</text>
</a>
</g>
</g>
<!-- Node4&#45;&gt;Node38 -->
<g id="edge75" class="edge">
<title>Node4&#45;&gt;Node38</title>
<path fill="none" stroke="midnightblue" d="M1635.89,-297.43C1591.74,-295.59 1530.72,-293.09 1477.05,-291 1042.42,-274.11 931.84,-298.44 499.05,-255 488.43,-253.93 477.14,-252.39 466.32,-250.7"/>
<polygon fill="midnightblue" stroke="midnightblue" points="466.56,-247.2 456.13,-249.05 465.44,-254.11 466.56,-247.2"/>
</g>
<!-- Node39 -->
<g id="node39" class="node">
<title>Node39</title>
<g id="a_node39"><a xlink:href="TimeOptions_8hpp.html" target="_top" xlink:title="Options for Time discretization.">
<polygon fill="none" stroke="black" points="1066.05,-230 1066.05,-249 1214.05,-249 1214.05,-230 1066.05,-230"/>
<text text-anchor="middle" x="1140.05" y="-237" font-family="serif" font-size="10.00">Options/TimeOptions.hpp</text>
</a>
</g>
</g>
<!-- Node4&#45;&gt;Node39 -->
<g id="edge78" class="edge">
<title>Node4&#45;&gt;Node39</title>
<path fill="none" stroke="midnightblue" d="M1635.89,-295.73C1545.43,-289.07 1370.72,-274.88 1223.05,-255 1214,-253.78 1204.43,-252.3 1195.13,-250.74"/>
<polygon fill="midnightblue" stroke="midnightblue" points="1195.63,-247.28 1185.18,-249.05 1194.45,-254.18 1195.63,-247.28"/>
</g>
<!-- Node6 -->
<g id="node6" class="node">
<title>Node6</title>
<g id="a_node6"><a xlink:title=" ">
<polygon fill="none" stroke="#bfbfbf" points="881.55,-0.5 881.55,-19.5 928.55,-19.5 928.55,-0.5 881.55,-0.5"/>
<text text-anchor="middle" x="905.05" y="-7.5" font-family="serif" font-size="10.00">string</text>
</a>
</g>
</g>
<!-- Node5&#45;&gt;Node6 -->
<g id="edge5" class="edge">
<title>Node5&#45;&gt;Node6</title>
<path fill="none" stroke="midnightblue" d="M606.01,-224.27C663.1,-183.55 826.73,-66.85 884.53,-25.64"/>
<polygon fill="midnightblue" stroke="midnightblue" points="886.75,-28.35 892.86,-19.69 882.69,-22.65 886.75,-28.35"/>
</g>
<!-- Node5&#45;&gt;Node7 -->
<g id="edge6" class="edge">
<title>Node5&#45;&gt;Node7</title>
<path fill="none" stroke="midnightblue" d="M663.8,-224.9C666.58,-224.57 669.34,-224.27 672.05,-224 965.3,-195.08 1902.04,-182.4 2139.12,-179.61"/>
<polygon fill="midnightblue" stroke="midnightblue" points="2139.26,-183.11 2149.22,-179.49 2139.18,-176.11 2139.26,-183.11"/>
</g>
<!-- Node8 -->
<g id="node8" class="node">
<title>Node8</title>
<g id="a_node8"><a xlink:href="UtilsForData_8hpp.html" target="_top" xlink:title="Usefull methods for data.">
<polygon fill="none" stroke="black" points="2855.55,-56.5 2855.55,-75.5 2986.55,-75.5 2986.55,-56.5 2855.55,-56.5"/>
<text text-anchor="middle" x="2921.05" y="-63.5" font-family="serif" font-size="10.00">Utils/UtilsForData.hpp</text>
</a>
</g>
</g>
<!-- Node7&#45;&gt;Node8 -->
<g id="edge7" class="edge">
<title>Node7&#45;&gt;Node8</title>
<path fill="none" stroke="midnightblue" d="M2238.67,-175.89C2358.95,-172.55 2687.85,-160.94 2792.05,-132 2832.33,-120.81 2874.85,-96.63 2899.62,-81.12"/>
<polygon fill="midnightblue" stroke="midnightblue" points="2901.65,-83.98 2908.2,-75.65 2897.88,-78.08 2901.65,-83.98"/>
</g>
<!-- Node21 -->
<g id="node21" class="node">
<title>Node21</title>
<g id="a_node21"><a xlink:href="UtilsForDebug_8hpp.html" target="_top" xlink:title="Usefull methods for debug.">
<polygon fill="none" stroke="black" points="2642.55,-112.5 2642.55,-131.5 2783.55,-131.5 2783.55,-112.5 2642.55,-112.5"/>
<text text-anchor="middle" x="2713.05" y="-119.5" font-family="serif" font-size="10.00">Utils/UtilsForDebug.hpp</text>
</a>
</g>
</g>
<!-- Node7&#45;&gt;Node21 -->
<g id="edge21" class="edge">
<title>Node7&#45;&gt;Node21</title>
<path fill="none" stroke="midnightblue" d="M2238.75,-172.35C2326.26,-163.24 2521.27,-142.95 2632.06,-131.43"/>
<polygon fill="midnightblue" stroke="midnightblue" points="2632.6,-134.89 2642.19,-130.37 2631.88,-127.93 2632.6,-134.89"/>
</g>
<!-- Node24 -->
<g id="node24" class="node">
<title>Node24</title>
<g id="a_node24"><a xlink:href="UtilsForOptions_8hpp.html" target="_top" xlink:title="Usefull methods for Options.">
<polygon fill="none" stroke="black" points="2155.05,-56.5 2155.05,-75.5 2301.05,-75.5 2301.05,-56.5 2155.05,-56.5"/>
<text text-anchor="middle" x="2228.05" y="-63.5" font-family="serif" font-size="10.00">Utils/UtilsForOptions.hpp</text>
</a>
</g>
</g>
<!-- Node7&#45;&gt;Node24 -->
<g id="edge32" class="edge">
<title>Node7&#45;&gt;Node24</title>
<path fill="none" stroke="midnightblue" d="M2207.84,-168.19C2218.88,-160.24 2233.55,-147.45 2240.05,-132 2246.37,-116.98 2241.98,-98.62 2236.83,-85.24"/>
<polygon fill="midnightblue" stroke="midnightblue" points="2239.9,-83.54 2232.71,-75.75 2233.48,-86.32 2239.9,-83.54"/>
</g>
<!-- Node27 -->
<g id="node27" class="node">
<title>Node27</title>
<g id="a_node27"><a xlink:href="UtilsForPostProcessing_8hpp.html" target="_top" xlink:title="Usefull methods for post&#45;processing.">
<polygon fill="none" stroke="black" points="2319.55,-56.5 2319.55,-75.5 2502.55,-75.5 2502.55,-56.5 2319.55,-56.5"/>
<text text-anchor="middle" x="2411.05" y="-63.5" font-family="serif" font-size="10.00">Utils/UtilsForPostProcessing.hpp</text>
</a>
</g>
</g>
<!-- Node7&#45;&gt;Node27 -->
<g id="edge42" class="edge">
<title>Node7&#45;&gt;Node27</title>
<path fill="none" stroke="midnightblue" d="M2211.08,-168.37C2248.87,-149.21 2339.96,-103.04 2384.98,-80.22"/>
<polygon fill="midnightblue" stroke="midnightblue" points="2386.77,-83.23 2394.1,-75.59 2383.6,-76.99 2386.77,-83.23"/>
</g>
<!-- Node28 -->
<g id="node28" class="node">
<title>Node28</title>
<g id="a_node28"><a xlink:href="UtilsForVariants_8hpp.html" target="_top" xlink:title="manage std::Variants">
<polygon fill="none" stroke="black" points="2083.05,-112.5 2083.05,-131.5 2231.05,-131.5 2231.05,-112.5 2083.05,-112.5"/>
<text text-anchor="middle" x="2157.05" y="-119.5" font-family="serif" font-size="10.00">Utils/UtilsForVariants.hpp</text>
</a>
</g>
</g>
<!-- Node7&#45;&gt;Node28 -->
<g id="edge49" class="edge">
<title>Node7&#45;&gt;Node28</title>
<path fill="none" stroke="midnightblue" d="M2187.94,-168.08C2182.77,-160.53 2175.2,-149.49 2168.86,-140.23"/>
<polygon fill="midnightblue" stroke="midnightblue" points="2171.59,-138.02 2163.05,-131.75 2165.81,-141.98 2171.59,-138.02"/>
</g>
<!-- Node8&#45;&gt;Node6 -->
<g id="edge16" class="edge">
<title>Node8&#45;&gt;Node6</title>
<path fill="none" stroke="midnightblue" d="M2855.5,-62.15C2810.16,-60.24 2748.45,-57.76 2694.05,-56 1985.77,-33.05 1119.43,-15.27 938.95,-11.67"/>
<polygon fill="midnightblue" stroke="midnightblue" points="938.82,-8.17 928.75,-11.47 938.68,-15.17 938.82,-8.17"/>
</g>
<!-- Node9 -->
<g id="node9" class="node">
<title>Node9</title>
<g id="a_node9"><a xlink:title=" ">
<polygon fill="none" stroke="#bfbfbf" points="2759.55,-0.5 2759.55,-19.5 2818.55,-19.5 2818.55,-0.5 2759.55,-0.5"/>
<text text-anchor="middle" x="2789.05" y="-7.5" font-family="serif" font-size="10.00">unistd.h</text>
</a>
</g>
</g>
<!-- Node8&#45;&gt;Node9 -->
<g id="edge8" class="edge">
<title>Node8&#45;&gt;Node9</title>
<path fill="none" stroke="midnightblue" d="M2900.13,-56.44C2878.31,-47.52 2843.9,-33.44 2819.16,-23.32"/>
<polygon fill="midnightblue" stroke="midnightblue" points="2820.45,-20.06 2809.87,-19.52 2817.8,-26.54 2820.45,-20.06"/>
</g>
<!-- Node10 -->
<g id="node10" class="node">
<title>Node10</title>
<g id="a_node10"><a xlink:title=" ">
<polygon fill="none" stroke="#bfbfbf" points="2220.05,-0.5 2220.05,-19.5 2286.05,-19.5 2286.05,-0.5 2220.05,-0.5"/>
<text text-anchor="middle" x="2253.05" y="-7.5" font-family="serif" font-size="10.00">algorithm</text>
</a>
</g>
</g>
<!-- Node8&#45;&gt;Node10 -->
<g id="edge9" class="edge">
<title>Node8&#45;&gt;Node10</title>
<path fill="none" stroke="midnightblue" d="M2855.24,-61.29C2744.71,-54.78 2514.83,-40.07 2321.05,-20 2313.06,-19.17 2304.55,-18.15 2296.36,-17.11"/>
<polygon fill="midnightblue" stroke="midnightblue" points="2296.58,-13.61 2286.21,-15.77 2295.67,-20.55 2296.58,-13.61"/>
</g>
<!-- Node11 -->
<g id="node11" class="node">
<title>Node11</title>
<g id="a_node11"><a xlink:title=" ">
<polygon fill="none" stroke="#bfbfbf" points="2837.05,-0.5 2837.05,-19.5 2887.05,-19.5 2887.05,-0.5 2837.05,-0.5"/>
<text text-anchor="middle" x="2862.05" y="-7.5" font-family="serif" font-size="10.00">cctype</text>
</a>
</g>
</g>
<!-- Node8&#45;&gt;Node11 -->
<g id="edge10" class="edge">
<title>Node8&#45;&gt;Node11</title>
<path fill="none" stroke="midnightblue" d="M2911.57,-56.32C2902.85,-48.34 2889.71,-36.31 2879.15,-26.65"/>
<polygon fill="midnightblue" stroke="midnightblue" points="2881.44,-24 2871.7,-19.83 2876.72,-29.17 2881.44,-24"/>
</g>
<!-- Node12 -->
<g id="node12" class="node">
<title>Node12</title>
<g id="a_node12"><a xlink:title=" ">
<polygon fill="none" stroke="#bfbfbf" points="3119.55,-0.5 3119.55,-19.5 3166.55,-19.5 3166.55,-0.5 3119.55,-0.5"/>
<text text-anchor="middle" x="3143.05" y="-7.5" font-family="serif" font-size="10.00">cstdio</text>
</a>
</g>
</g>
<!-- Node8&#45;&gt;Node12 -->
<g id="edge11" class="edge">
<title>Node8&#45;&gt;Node12</title>
<path fill="none" stroke="midnightblue" d="M2958.43,-56.48C2994.61,-48.14 3051.23,-34.89 3109.53,-20.07"/>
<polygon fill="midnightblue" stroke="midnightblue" points="3110.46,-23.45 3119.28,-17.58 3108.73,-16.66 3110.46,-23.45"/>
</g>
<!-- Node13 -->
<g id="node13" class="node">
<title>Node13</title>
<g id="a_node13"><a xlink:title=" ">
<polygon fill="none" stroke="#bfbfbf" points="3033.05,-0.5 3033.05,-19.5 3101.05,-19.5 3101.05,-0.5 3033.05,-0.5"/>
<text text-anchor="middle" x="3067.05" y="-7.5" font-family="serif" font-size="10.00">filesystem</text>
</a>
</g>
</g>
<!-- Node8&#45;&gt;Node13 -->
<g id="edge12" class="edge">
<title>Node8&#45;&gt;Node13</title>
<path fill="none" stroke="midnightblue" d="M2944.18,-56.44C2968.53,-47.44 3007.06,-33.19 3034.47,-23.05"/>
<polygon fill="midnightblue" stroke="midnightblue" points="3035.86,-26.27 3044.02,-19.52 3033.43,-19.7 3035.86,-26.27"/>
</g>
<!-- Node14 -->
<g id="node14" class="node">
<title>Node14</title>
<g id="a_node14"><a xlink:title=" ">
<polygon fill="none" stroke="#bfbfbf" points="2548.05,-0.5 2548.05,-19.5 2616.05,-19.5 2616.05,-0.5 2548.05,-0.5"/>
<text text-anchor="middle" x="2582.05" y="-7.5" font-family="serif" font-size="10.00">functional</text>
</a>
</g>
</g>
<!-- Node8&#45;&gt;Node14 -->
<g id="edge13" class="edge">
<title>Node8&#45;&gt;Node14</title>
<path fill="none" stroke="midnightblue" d="M2858.23,-56.48C2800.43,-48.41 2712.09,-35.48 2626.2,-20.13"/>
<polygon fill="midnightblue" stroke="midnightblue" points="2626.75,-16.67 2616.28,-18.34 2625.51,-23.56 2626.75,-16.67"/>
</g>
<!-- Node15 -->
<g id="node15" class="node">
<title>Node15</title>
<g id="a_node15"><a xlink:title=" ">
<polygon fill="none" stroke="#bfbfbf" points="2330.55,-0.5 2330.55,-19.5 2391.55,-19.5 2391.55,-0.5 2330.55,-0.5"/>
<text text-anchor="middle" x="2361.05" y="-7.5" font-family="serif" font-size="10.00">iostream</text>
</a>
</g>
</g>
<!-- Node8&#45;&gt;Node15 -->
<g id="edge14" class="edge">
<title>Node8&#45;&gt;Node15</title>
<path fill="none" stroke="midnightblue" d="M2855.44,-58.67C2738.66,-47.41 2497.99,-24.2 2401.94,-14.94"/>
<polygon fill="midnightblue" stroke="midnightblue" points="2402.06,-11.44 2391.77,-13.96 2401.38,-18.41 2402.06,-11.44"/>
</g>
<!-- Node16 -->
<g id="node16" class="node">
<title>Node16</title>
<g id="a_node16"><a xlink:title=" ">
<polygon fill="none" stroke="#bfbfbf" points="3203.55,-0.5 3203.55,-19.5 3242.55,-19.5 3242.55,-0.5 3203.55,-0.5"/>
<text text-anchor="middle" x="3223.05" y="-7.5" font-family="serif" font-size="10.00">map</text>
</a>
</g>
</g>
<!-- Node8&#45;&gt;Node16 -->
<g id="edge15" class="edge">
<title>Node8&#45;&gt;Node16</title>
<path fill="none" stroke="midnightblue" d="M2970.24,-56.43C3021.43,-47.49 3103.9,-32.97 3175.05,-20 3181.04,-18.91 3187.44,-17.72 3193.55,-16.58"/>
<polygon fill="midnightblue" stroke="midnightblue" points="3194.26,-20.01 3203.44,-14.72 3192.97,-13.13 3194.26,-20.01"/>
</g>
<!-- Node17 -->
<g id="node17" class="node">
<title>Node17</title>
<g id="a_node17"><a xlink:title=" ">
<polygon fill="none" stroke="#bfbfbf" points="2698.55,-0.5 2698.55,-19.5 2741.55,-19.5 2741.55,-0.5 2698.55,-0.5"/>
<text text-anchor="middle" x="2720.05" y="-7.5" font-family="serif" font-size="10.00">tuple</text>
</a>
</g>
</g>
<!-- Node8&#45;&gt;Node17 -->
<g id="edge17" class="edge">
<title>Node8&#45;&gt;Node17</title>
<path fill="none" stroke="midnightblue" d="M2887.21,-56.46C2854.68,-48.17 2803.87,-35.01 2751.46,-20.33"/>
<polygon fill="midnightblue" stroke="midnightblue" points="2752.23,-16.92 2741.65,-17.58 2750.33,-23.65 2752.23,-16.92"/>
</g>
<!-- Node18 -->
<g id="node18" class="node">
<title>Node18</title>
<g id="a_node18"><a xlink:title=" ">
<polygon fill="none" stroke="#bfbfbf" points="2634.05,-0.5 2634.05,-19.5 2680.05,-19.5 2680.05,-0.5 2634.05,-0.5"/>
<text text-anchor="middle" x="2657.05" y="-7.5" font-family="serif" font-size="10.00">utility</text>
</a>
</g>
</g>
<!-- Node8&#45;&gt;Node18 -->
<g id="edge18" class="edge">
<title>Node8&#45;&gt;Node18</title>
<path fill="none" stroke="midnightblue" d="M2870.56,-56.45C2825.6,-48.55 2757.85,-35.97 2690.06,-20.09"/>
<polygon fill="midnightblue" stroke="midnightblue" points="2690.6,-16.62 2680.06,-17.72 2688.99,-23.43 2690.6,-16.62"/>
</g>
<!-- Node19 -->
<g id="node19" class="node">
<title>Node19</title>
<g id="a_node19"><a xlink:title=" ">
<polygon fill="none" stroke="#bfbfbf" points="2905.05,-0.5 2905.05,-19.5 2953.05,-19.5 2953.05,-0.5 2905.05,-0.5"/>
<text text-anchor="middle" x="2929.05" y="-7.5" font-family="serif" font-size="10.00">vector</text>
</a>
</g>
</g>
<!-- Node8&#45;&gt;Node19 -->
<g id="edge19" class="edge">
<title>Node8&#45;&gt;Node19</title>
<path fill="none" stroke="midnightblue" d="M2922.37,-56.08C2923.43,-48.93 2924.96,-38.64 2926.28,-29.69"/>
<polygon fill="midnightblue" stroke="midnightblue" points="2929.75,-30.16 2927.75,-19.75 2922.83,-29.13 2929.75,-30.16"/>
</g>
<!-- Node8&#45;&gt;Node20 -->
<g id="edge20" class="edge">
<title>Node8&#45;&gt;Node20</title>
<path fill="none" stroke="midnightblue" d="M2986.85,-59.8C3124.94,-48.88 3441.89,-23.82 3559.26,-14.54"/>
<polygon fill="midnightblue" stroke="midnightblue" points="3559.64,-18.02 3569.33,-13.74 3559.09,-11.04 3559.64,-18.02"/>
</g>
<!-- Node21&#45;&gt;Node6 -->
<g id="edge28" class="edge">
<title>Node21&#45;&gt;Node6</title>
<path fill="none" stroke="midnightblue" d="M2642.12,-116.72C2533.44,-109.87 2319.27,-95.24 2138.05,-76 2071.61,-68.95 2055.61,-61.84 1989.05,-56 1576.17,-19.8 1072.2,-12.58 938.77,-11.27"/>
<polygon fill="midnightblue" stroke="midnightblue" points="938.78,-7.77 928.75,-11.18 938.72,-14.77 938.78,-7.77"/>
</g>
<!-- Node21&#45;&gt;Node8 -->
<g id="edge30" class="edge">
<title>Node21&#45;&gt;Node8</title>
<path fill="none" stroke="midnightblue" d="M2746.01,-112.44C2781.84,-103.14 2839.21,-88.25 2878.44,-78.06"/>
<polygon fill="midnightblue" stroke="midnightblue" points="2879.45,-81.42 2888.25,-75.52 2877.69,-74.64 2879.45,-81.42"/>
</g>
<!-- Node21&#45;&gt;Node9 -->
<g id="edge23" class="edge">
<title>Node21&#45;&gt;Node9</title>
<path fill="none" stroke="midnightblue" d="M2719.01,-112.37C2731.56,-94.22 2760.86,-51.8 2777.31,-27.99"/>
<polygon fill="midnightblue" stroke="midnightblue" points="2780.31,-29.81 2783.11,-19.59 2774.55,-25.83 2780.31,-29.81"/>
</g>
<!-- Node21&#45;&gt;Node12 -->
<g id="edge24" class="edge">
<title>Node21&#45;&gt;Node12</title>
<path fill="none" stroke="midnightblue" d="M2783.69,-114.78C2841.4,-108.51 2924.66,-96.7 2995.05,-76 3040.04,-62.77 3089.36,-39.11 3118.18,-24.28"/>
<polygon fill="midnightblue" stroke="midnightblue" points="3119.89,-27.34 3127.14,-19.62 3116.65,-21.13 3119.89,-27.34"/>
</g>
<!-- Node21&#45;&gt;Node14 -->
<g id="edge26" class="edge">
<title>Node21&#45;&gt;Node14</title>
<path fill="none" stroke="midnightblue" d="M2712.84,-112.27C2712.04,-98.59 2708.58,-72.03 2694.05,-56 2683.82,-44.72 2649.1,-31.74 2620.99,-22.63"/>
<polygon fill="midnightblue" stroke="midnightblue" points="2621.97,-19.27 2611.38,-19.58 2619.85,-25.94 2621.97,-19.27"/>
</g>
<!-- Node21&#45;&gt;Node15 -->
<g id="edge27" class="edge">
<title>Node21&#45;&gt;Node15</title>
<path fill="none" stroke="midnightblue" d="M2642.48,-116.64C2492.38,-107.21 2154.38,-85.02 2146.05,-76 2140.02,-69.47 2140.45,-62.9 2146.05,-56 2157,-42.53 2261.12,-25.46 2320.35,-16.72"/>
<polygon fill="midnightblue" stroke="midnightblue" points="2321.11,-20.15 2330.5,-15.24 2320.1,-13.22 2321.11,-20.15"/>
</g>
<!-- Node21&#45;&gt;Node18 -->
<g id="edge29" class="edge">
<title>Node21&#45;&gt;Node18</title>
<path fill="none" stroke="midnightblue" d="M2718.41,-112.47C2725.79,-99.51 2737.12,-74.44 2727.05,-56 2718.93,-41.13 2703.55,-30.43 2689.28,-23.22"/>
<polygon fill="midnightblue" stroke="midnightblue" points="2690.68,-20.01 2680.14,-18.96 2687.73,-26.36 2690.68,-20.01"/>
</g>
<!-- Node21&#45;&gt;Node20 -->
<g id="edge31" class="edge">
<title>Node21&#45;&gt;Node20</title>
<path fill="none" stroke="midnightblue" d="M2782.22,-112.46C2957.14,-90.87 3413.49,-34.53 3558.87,-16.58"/>
<polygon fill="midnightblue" stroke="midnightblue" points="3559.69,-20 3569.19,-15.3 3558.84,-13.06 3559.69,-20"/>
</g>
<!-- Node22 -->
<g id="node22" class="node">
<title>Node22</title>
<g id="a_node22"><a xlink:title=" ">
<polygon fill="none" stroke="#bfbfbf" points="2595.05,-56.5 2595.05,-75.5 2685.05,-75.5 2685.05,-56.5 2595.05,-56.5"/>
<text text-anchor="middle" x="2640.05" y="-63.5" font-family="serif" font-size="10.00">sys/resource.h</text>
</a>
</g>
</g>
<!-- Node21&#45;&gt;Node22 -->
<g id="edge22" class="edge">
<title>Node21&#45;&gt;Node22</title>
<path fill="none" stroke="midnightblue" d="M2701.32,-112.32C2690.21,-104.11 2673.31,-91.6 2660.07,-81.81"/>
<polygon fill="midnightblue" stroke="midnightblue" points="2662.11,-78.97 2651.99,-75.83 2657.95,-84.59 2662.11,-78.97"/>
</g>
<!-- Node23 -->
<g id="node23" class="node">
<title>Node23</title>
<g id="a_node23"><a xlink:title=" ">
<polygon fill="none" stroke="#bfbfbf" points="2521.05,-56.5 2521.05,-75.5 2577.05,-75.5 2577.05,-56.5 2521.05,-56.5"/>
<text text-anchor="middle" x="2549.05" y="-63.5" font-family="serif" font-size="10.00">fstream</text>
</a>
</g>
</g>
<!-- Node21&#45;&gt;Node23 -->
<g id="edge25" class="edge">
<title>Node21&#45;&gt;Node23</title>
<path fill="none" stroke="midnightblue" d="M2687.06,-112.44C2659.35,-103.32 2615.3,-88.81 2584.43,-78.65"/>
<polygon fill="midnightblue" stroke="midnightblue" points="2585.51,-75.32 2574.92,-75.52 2583.32,-81.97 2585.51,-75.32"/>
</g>
<!-- Node24&#45;&gt;Node6 -->
<g id="edge37" class="edge">
<title>Node24&#45;&gt;Node6</title>
<path fill="none" stroke="midnightblue" d="M2155.04,-60.71C2126.92,-59.13 2094.49,-57.38 2065.05,-56 1619.66,-35.07 1077.74,-16.71 938.77,-12.11"/>
<polygon fill="midnightblue" stroke="midnightblue" points="938.85,-8.61 928.74,-11.77 938.62,-15.6 938.85,-8.61"/>
</g>
<!-- Node24&#45;&gt;Node10 -->
<g id="edge33" class="edge">
<title>Node24&#45;&gt;Node10</title>
<path fill="none" stroke="midnightblue" d="M2232.18,-56.08C2235.56,-48.77 2240.47,-38.18 2244.67,-29.1"/>
<polygon fill="midnightblue" stroke="midnightblue" points="2247.97,-30.3 2249,-19.75 2241.62,-27.36 2247.97,-30.3"/>
</g>
<!-- Node24&#45;&gt;Node14 -->
<g id="edge34" class="edge">
<title>Node24&#45;&gt;Node14</title>
<path fill="none" stroke="midnightblue" d="M2284.14,-56.44C2354.32,-45.74 2473.07,-27.62 2537.41,-17.81"/>
<polygon fill="midnightblue" stroke="midnightblue" points="2538.27,-21.22 2547.63,-16.25 2537.22,-14.3 2538.27,-21.22"/>
</g>
<!-- Node24&#45;&gt;Node15 -->
<g id="edge35" class="edge">
<title>Node24&#45;&gt;Node15</title>
<path fill="none" stroke="midnightblue" d="M2249.12,-56.44C2271.11,-47.52 2305.78,-33.44 2330.71,-23.32"/>
<polygon fill="midnightblue" stroke="midnightblue" points="2332.13,-26.52 2340.07,-19.52 2329.49,-20.04 2332.13,-26.52"/>
</g>
<!-- Node24&#45;&gt;Node17 -->
<g id="edge38" class="edge">
<title>Node24&#45;&gt;Node17</title>
<path fill="none" stroke="midnightblue" d="M2301.36,-56.9C2304.3,-56.59 2307.2,-56.29 2310.05,-56 2475.17,-39.1 2521.11,-51.24 2688.6,-19.71"/>
<polygon fill="midnightblue" stroke="midnightblue" points="2689.33,-23.13 2698.5,-17.82 2688.02,-16.25 2689.33,-23.13"/>
</g>
<!-- Node24&#45;&gt;Node18 -->
<g id="edge39" class="edge">
<title>Node24&#45;&gt;Node18</title>
<path fill="none" stroke="midnightblue" d="M2301.36,-56.84C2402.92,-45.52 2578.35,-25.89 2623.81,-19.58"/>
<polygon fill="midnightblue" stroke="midnightblue" points="2624.4,-23.03 2633.74,-18.03 2623.32,-16.11 2624.4,-23.03"/>
</g>
<!-- Node24&#45;&gt;Node19 -->
<g id="edge41" class="edge">
<title>Node24&#45;&gt;Node19</title>
<path fill="none" stroke="midnightblue" d="M2301.35,-56.78C2304.29,-56.51 2307.2,-56.24 2310.05,-56 2566.74,-34.04 2636.84,-61.83 2894.97,-19.82"/>
<polygon fill="midnightblue" stroke="midnightblue" points="2895.73,-23.24 2905.03,-18.16 2894.59,-16.34 2895.73,-23.24"/>
</g>
<!-- Node25 -->
<g id="node25" class="node">
<title>Node25</title>
<g id="a_node25"><a xlink:title=" ">
<polygon fill="none" stroke="#bfbfbf" points="2971.05,-0.5 2971.05,-19.5 3015.05,-19.5 3015.05,-0.5 2971.05,-0.5"/>
<text text-anchor="middle" x="2993.05" y="-7.5" font-family="serif" font-size="10.00">limits</text>
</a>
</g>
</g>
<!-- Node24&#45;&gt;Node25 -->
<g id="edge36" class="edge">
<title>Node24&#45;&gt;Node25</title>
<path fill="none" stroke="midnightblue" d="M2301.35,-56.76C2304.29,-56.49 2307.2,-56.24 2310.05,-56 2595.9,-32.44 2674.13,-67.92 2960.56,-19.85"/>
<polygon fill="midnightblue" stroke="midnightblue" points="2961.57,-23.23 2970.84,-18.1 2960.4,-16.33 2961.57,-23.23"/>
</g>
<!-- Node26 -->
<g id="node26" class="node">
<title>Node26</title>
<g id="a_node26"><a xlink:title=" ">
<polygon fill="none" stroke="#bfbfbf" points="1986.55,-0.5 1986.55,-19.5 2039.55,-19.5 2039.55,-0.5 1986.55,-0.5"/>
<text text-anchor="middle" x="2013.05" y="-7.5" font-family="serif" font-size="10.00">variant</text>
</a>
</g>
</g>
<!-- Node24&#45;&gt;Node26 -->
<g id="edge40" class="edge">
<title>Node24&#45;&gt;Node26</title>
<path fill="none" stroke="midnightblue" d="M2193.98,-56.44C2154.58,-46.55 2089.96,-30.32 2049.55,-20.17"/>
<polygon fill="midnightblue" stroke="midnightblue" points="2050.38,-16.77 2039.83,-17.73 2048.67,-23.56 2050.38,-16.77"/>
</g>
<!-- Node27&#45;&gt;Node6 -->
<g id="edge46" class="edge">
<title>Node27&#45;&gt;Node6</title>
<path fill="none" stroke="midnightblue" d="M2319.41,-56.61C2316.25,-56.39 2313.13,-56.19 2310.05,-56 1763.49,-22.92 1095.76,-13.26 939.07,-11.38"/>
<polygon fill="midnightblue" stroke="midnightblue" points="938.73,-7.87 928.68,-11.25 938.64,-14.87 938.73,-7.87"/>
</g>
<!-- Node27&#45;&gt;Node10 -->
<g id="edge43" class="edge">
<title>Node27&#45;&gt;Node10</title>
<path fill="none" stroke="midnightblue" d="M2386.02,-56.44C2359.43,-47.36 2317.24,-32.94 2287.53,-22.78"/>
<polygon fill="midnightblue" stroke="midnightblue" points="2288.56,-19.44 2277.97,-19.52 2286.3,-26.06 2288.56,-19.44"/>
</g>
<!-- Node27&#45;&gt;Node15 -->
<g id="edge44" class="edge">
<title>Node27&#45;&gt;Node15</title>
<path fill="none" stroke="midnightblue" d="M2402.79,-56.08C2395.59,-48.3 2384.94,-36.8 2376.2,-27.37"/>
<polygon fill="midnightblue" stroke="midnightblue" points="2378.52,-24.71 2369.15,-19.75 2373.38,-29.47 2378.52,-24.71"/>
</g>
<!-- Node27&#45;&gt;Node18 -->
<g id="edge47" class="edge">
<title>Node27&#45;&gt;Node18</title>
<path fill="none" stroke="midnightblue" d="M2455.92,-56.47C2497.24,-48.42 2560.43,-35.58 2624.2,-20.08"/>
<polygon fill="midnightblue" stroke="midnightblue" points="2625.15,-23.45 2634.03,-17.67 2623.48,-16.66 2625.15,-23.45"/>
</g>
<!-- Node27&#45;&gt;Node19 -->
<g id="edge48" class="edge">
<title>Node27&#45;&gt;Node19</title>
<path fill="none" stroke="midnightblue" d="M2502.57,-56.71C2628.33,-45.29 2844.08,-25.6 2895.08,-19.46"/>
<polygon fill="midnightblue" stroke="midnightblue" points="2895.59,-22.92 2905.01,-18.08 2894.62,-15.99 2895.59,-22.92"/>
</g>
<!-- Node27&#45;&gt;Node25 -->
<g id="edge45" class="edge">
<title>Node27&#45;&gt;Node25</title>
<path fill="none" stroke="midnightblue" d="M2502.71,-56.8C2505.86,-56.53 2508.98,-56.26 2512.05,-56 2708.75,-39.37 2762.96,-55.61 2960.98,-19.84"/>
<polygon fill="midnightblue" stroke="midnightblue" points="2961.62,-23.28 2970.83,-18.04 2960.36,-16.39 2961.62,-23.28"/>
</g>
<!-- Node28&#45;&gt;Node3 -->
<g id="edge50" class="edge">
<title>Node28&#45;&gt;Node3</title>
<path fill="none" stroke="midnightblue" d="M2231.32,-118.19C2490.47,-108.39 3349.56,-75.91 3545.17,-68.51"/>
<polygon fill="midnightblue" stroke="midnightblue" points="3545.43,-72 3555.29,-68.13 3545.16,-65.01 3545.43,-72"/>
</g>
<!-- Node28&#45;&gt;Node26 -->
<g id="edge52" class="edge">
<title>Node28&#45;&gt;Node26</title>
<path fill="none" stroke="midnightblue" d="M2137.48,-112.36C2120.19,-104.26 2094.75,-91.14 2075.05,-76 2056.42,-61.67 2038.23,-41.69 2026.43,-27.67"/>
<polygon fill="midnightblue" stroke="midnightblue" points="2029.02,-25.31 2019.96,-19.82 2023.62,-29.76 2029.02,-25.31"/>
</g>
<!-- Node29 -->
<g id="node29" class="node">
<title>Node29</title>
<g id="a_node29"><a xlink:title=" ">
<polygon fill="none" stroke="#bfbfbf" points="1799.55,-56.5 1799.55,-75.5 1870.55,-75.5 1870.55,-56.5 1799.55,-56.5"/>
<text text-anchor="middle" x="1835.05" y="-63.5" font-family="serif" font-size="10.00">type_traits</text>
</a>
</g>
</g>
<!-- Node28&#45;&gt;Node29 -->
<g id="edge51" class="edge">
<title>Node28&#45;&gt;Node29</title>
<path fill="none" stroke="midnightblue" d="M2104.11,-112.47C2049.27,-103.58 1961.11,-89.14 1885.05,-76 1883.61,-75.75 1882.15,-75.5 1880.67,-75.24"/>
<polygon fill="midnightblue" stroke="midnightblue" points="1881.28,-71.79 1870.82,-73.5 1880.06,-78.69 1881.28,-71.79"/>
</g>
<!-- Node30&#45;&gt;Node6 -->
<g id="edge55" class="edge">
<title>Node30&#45;&gt;Node6</title>
<path fill="none" stroke="midnightblue" d="M2746.23,-229.91C2683.71,-206.78 2504.04,-142.79 2349.05,-112 2191.33,-80.67 2143.04,-122.3 1989.05,-76 1970.77,-70.5 1969.48,-60.98 1951.05,-56 1851.52,-29.12 1106.81,-14.54 938.7,-11.57"/>
<polygon fill="midnightblue" stroke="midnightblue" points="938.75,-8.07 928.69,-11.4 938.63,-15.07 938.75,-8.07"/>
</g>
<!-- Node30&#45;&gt;Node7 -->
<g id="edge57" class="edge">
<title>Node30&#45;&gt;Node7</title>
<path fill="none" stroke="midnightblue" d="M2686.67,-229.98C2567.48,-217.64 2350.15,-195.15 2248.81,-184.67"/>
<polygon fill="midnightblue" stroke="midnightblue" points="2249.09,-181.18 2238.78,-183.63 2248.37,-188.14 2249.09,-181.18"/>
</g>
<!-- Node30&#45;&gt;Node19 -->
<g id="edge56" class="edge">
<title>Node30&#45;&gt;Node19</title>
<path fill="none" stroke="midnightblue" d="M2792.98,-229.94C2841.76,-211.02 2951.73,-160.5 2995.05,-76 3006.08,-54.49 2981.41,-35.83 2959.16,-24.09"/>
<polygon fill="midnightblue" stroke="midnightblue" points="2960.71,-20.96 2950.2,-19.65 2957.6,-27.23 2960.71,-20.96"/>
</g>
<!-- Node30&#45;&gt;Node25 -->
<g id="edge54" class="edge">
<title>Node30&#45;&gt;Node25</title>
<path fill="none" stroke="midnightblue" d="M2802.41,-229.97C2831.68,-221.68 2874.81,-207.5 2909.05,-188 2943.07,-168.63 2951.42,-161.59 2977.05,-132 2996.11,-109.99 3003.2,-104.04 3011.05,-76 3015.53,-60.01 3009.52,-41.78 3003.27,-28.71"/>
<polygon fill="midnightblue" stroke="midnightblue" points="3006.36,-27.06 2998.61,-19.84 3000.16,-30.32 3006.36,-27.06"/>
</g>
<!-- Node31&#45;&gt;Node7 -->
<g id="edge59" class="edge">
<title>Node31&#45;&gt;Node7</title>
<path fill="none" stroke="midnightblue" d="M2104.95,-229.98C2122.02,-220.21 2150.21,-204.08 2170.31,-192.58"/>
<polygon fill="midnightblue" stroke="midnightblue" points="2172.24,-195.51 2179.18,-187.51 2168.76,-189.44 2172.24,-195.51"/>
</g>
<!-- Node32&#45;&gt;Node6 -->
<g id="edge61" class="edge">
<title>Node32&#45;&gt;Node6</title>
<path fill="none" stroke="midnightblue" d="M776.14,-229.86C795.91,-196.29 867.88,-74.11 894.8,-28.41"/>
<polygon fill="midnightblue" stroke="midnightblue" points="897.9,-30.04 899.96,-19.65 891.87,-26.49 897.9,-30.04"/>
</g>
<!-- Node32&#45;&gt;Node7 -->
<g id="edge62" class="edge">
<title>Node32&#45;&gt;Node7</title>
<path fill="none" stroke="midnightblue" d="M821.03,-229.99C836.39,-227.68 853.38,-225.42 869.05,-224 1360.37,-179.45 1957.8,-177.96 2139.24,-178.65"/>
<polygon fill="midnightblue" stroke="midnightblue" points="2139.31,-182.15 2149.33,-178.69 2139.34,-175.15 2139.31,-182.15"/>
</g>
<!-- Node33&#45;&gt;Node7 -->
<g id="edge64" class="edge">
<title>Node33&#45;&gt;Node7</title>
<path fill="none" stroke="midnightblue" d="M1563.66,-229.96C1578.35,-227.81 1594.29,-225.65 1609.05,-224 1803.33,-202.33 2035.08,-187.86 2138.94,-181.97"/>
<polygon fill="midnightblue" stroke="midnightblue" points="2139.4,-185.45 2149.18,-181.4 2139,-178.46 2139.4,-185.45"/>
</g>
<!-- Node34&#45;&gt;Node6 -->
<g id="edge66" class="edge">
<title>Node34&#45;&gt;Node6</title>
<path fill="none" stroke="midnightblue" d="M959.42,-224.27C949.36,-184.81 921.12,-74.02 909.81,-29.68"/>
<polygon fill="midnightblue" stroke="midnightblue" points="913.19,-28.75 907.33,-19.93 906.41,-30.48 913.19,-28.75"/>
</g>
<!-- Node34&#45;&gt;Node7 -->
<g id="edge67" class="edge">
<title>Node34&#45;&gt;Node7</title>
<path fill="none" stroke="midnightblue" d="M1047.8,-224.97C1050.92,-224.62 1054.01,-224.29 1057.05,-224 1471.7,-183.94 1974.7,-179.34 2139.16,-178.97"/>
<polygon fill="midnightblue" stroke="midnightblue" points="2139.51,-182.47 2149.5,-178.95 2139.49,-175.47 2139.51,-182.47"/>
</g>
<!-- Node35&#45;&gt;Node7 -->
<g id="edge69" class="edge">
<title>Node35&#45;&gt;Node7</title>
<path fill="none" stroke="midnightblue" d="M1772.37,-225.24C1775.3,-224.81 1778.2,-224.4 1781.05,-224 1908.91,-206.27 2059.84,-191.34 2139.1,-183.96"/>
<polygon fill="midnightblue" stroke="midnightblue" points="2139.7,-187.42 2149.33,-183.01 2139.05,-180.45 2139.7,-187.42"/>
</g>
<!-- Node36&#45;&gt;Node6 -->
<g id="edge71" class="edge">
<title>Node36&#45;&gt;Node6</title>
<path fill="none" stroke="midnightblue" d="M1301.4,-229.86C1238.82,-195.3 1006.21,-66.86 929.66,-24.59"/>
<polygon fill="midnightblue" stroke="midnightblue" points="931.16,-21.42 920.71,-19.65 927.78,-27.55 931.16,-21.42"/>
</g>
<!-- Node36&#45;&gt;Node7 -->
<g id="edge72" class="edge">
<title>Node36&#45;&gt;Node7</title>
<path fill="none" stroke="midnightblue" d="M1366.69,-229.93C1380.98,-227.72 1396.6,-225.53 1411.05,-224 1683.35,-195.24 2011.01,-183.9 2139.03,-180.35"/>
<polygon fill="midnightblue" stroke="midnightblue" points="2139.45,-183.84 2149.35,-180.07 2139.25,-176.85 2139.45,-183.84"/>
</g>
<!-- Node37&#45;&gt;Node7 -->
<g id="edge74" class="edge">
<title>Node37&#45;&gt;Node7</title>
<path fill="none" stroke="midnightblue" d="M1916.47,-229.98C1975.4,-219.15 2076.89,-200.52 2139.46,-189.02"/>
<polygon fill="midnightblue" stroke="midnightblue" points="2140.33,-192.42 2149.54,-187.17 2139.07,-185.54 2140.33,-192.42"/>
</g>
<!-- Node38&#45;&gt;Node6 -->
<g id="edge76" class="edge">
<title>Node38&#45;&gt;Node6</title>
<path fill="none" stroke="midnightblue" d="M429.51,-230C504.56,-195.44 786.99,-65.37 877.18,-23.83"/>
<polygon fill="midnightblue" stroke="midnightblue" points="878.88,-26.91 886.49,-19.55 875.95,-20.55 878.88,-26.91"/>
</g>
<!-- Node38&#45;&gt;Node7 -->
<g id="edge77" class="edge">
<title>Node38&#45;&gt;Node7</title>
<path fill="none" stroke="midnightblue" d="M455.66,-229.93C469.52,-227.6 484.87,-225.35 499.05,-224 828.38,-192.64 1885.98,-181.66 2139.2,-179.45"/>
<polygon fill="midnightblue" stroke="midnightblue" points="2139.29,-182.95 2149.26,-179.36 2139.23,-175.95 2139.29,-182.95"/>
</g>
<!-- Node39&#45;&gt;Node6 -->
<g id="edge79" class="edge">
<title>Node39&#45;&gt;Node6</title>
<path fill="none" stroke="midnightblue" d="M1131.13,-229.86C1096.01,-195.86 967.05,-71.02 921.29,-26.72"/>
<polygon fill="midnightblue" stroke="midnightblue" points="923.6,-24.09 913.98,-19.65 918.74,-29.12 923.6,-24.09"/>
</g>
<!-- Node39&#45;&gt;Node7 -->
<g id="edge80" class="edge">
<title>Node39&#45;&gt;Node7</title>
<path fill="none" stroke="midnightblue" d="M1182.98,-229.93C1195.82,-227.66 1209.96,-225.44 1223.05,-224 1570.33,-185.77 1990.96,-179.94 2139.18,-179.11"/>
<polygon fill="midnightblue" stroke="midnightblue" points="2139.39,-182.61 2149.37,-179.06 2139.36,-175.61 2139.39,-182.61"/>
</g>
<!-- Node40&#45;&gt;Node4 -->
<g id="edge87" class="edge">
<title>Node40&#45;&gt;Node4</title>
<path fill="none" stroke="midnightblue" d="M1409.24,-347.44C1470.03,-337.85 1568.54,-322.29 1633.06,-312.1"/>
<polygon fill="midnightblue" stroke="midnightblue" points="1633.78,-315.53 1643.11,-310.52 1632.69,-308.62 1633.78,-315.53"/>
</g>
<!-- Node40&#45;&gt;Node6 -->
<g id="edge83" class="edge">
<title>Node40&#45;&gt;Node6</title>
<path fill="none" stroke="midnightblue" d="M1278.91,-354.28C1026.2,-348.44 228.26,-328.66 176.05,-311 124.54,-293.58 76.05,-294.88 76.05,-240.5 76.05,-240.5 76.05,-240.5 76.05,-121 76.05,-90.2 75.29,-74.3 100.05,-56 162.79,-9.63 726.67,-9.9 871.35,-10.74"/>
<polygon fill="midnightblue" stroke="midnightblue" points="871.38,-14.24 881.4,-10.8 871.43,-7.24 871.38,-14.24"/>
</g>
<!-- Node40&#45;&gt;Node26 -->
<g id="edge86" class="edge">
<title>Node40&#45;&gt;Node26</title>
<path fill="none" stroke="midnightblue" d="M1279.03,-354.42C1026.09,-348.98 227.63,-330.32 209.05,-311 202.89,-304.59 206.55,-299.53 209.05,-291 278.08,-55.65 488.7,-149.66 731.05,-112 1219.56,-36.09 1822.15,-15.93 1975.97,-11.87"/>
<polygon fill="midnightblue" stroke="midnightblue" points="1976.35,-15.37 1986.26,-11.61 1976.17,-8.37 1976.35,-15.37"/>
</g>
<!-- Node40&#45;&gt;Node29 -->
<g id="edge84" class="edge">
<title>Node40&#45;&gt;Node29</title>
<path fill="none" stroke="midnightblue" d="M1278.95,-354.32C1051.25,-348.51 387.07,-325.59 323.05,-255 313.79,-244.79 313.83,-234.23 323.05,-224 423.88,-112.16 1546.7,-74.95 1789.1,-68.19"/>
<polygon fill="midnightblue" stroke="midnightblue" points="1789.42,-71.69 1799.32,-67.91 1789.23,-64.69 1789.42,-71.69"/>
</g>
<!-- Node41 -->
<g id="node41" class="node">
<title>Node41</title>
<g id="a_node41"><a xlink:title=" ">
<polygon fill="none" stroke="#bfbfbf" points="218.55,-291.5 218.55,-310.5 277.55,-310.5 277.55,-291.5 218.55,-291.5"/>
<text text-anchor="middle" x="248.05" y="-298.5" font-family="serif" font-size="10.00">typeinfo</text>
</a>
</g>
</g>
<!-- Node40&#45;&gt;Node41 -->
<g id="edge85" class="edge">
<title>Node40&#45;&gt;Node41</title>
<path fill="none" stroke="midnightblue" d="M1278.96,-354.36C1068.8,-349.57 483.3,-334.46 292.05,-311 290.6,-310.82 289.12,-310.62 287.64,-310.4"/>
<polygon fill="midnightblue" stroke="midnightblue" points="288.21,-306.95 277.77,-308.75 287.05,-313.85 288.21,-306.95"/>
</g>
<!-- Node42&#45;&gt;Node6 -->
<g id="edge96" class="edge">
<title>Node42&#45;&gt;Node6</title>
<path fill="none" stroke="midnightblue" d="M2915.13,-403.48C2882.83,-396.18 2837.97,-384.11 2801.05,-367 2697.27,-318.89 2688.57,-276.72 2587.05,-224 2486.41,-171.74 2452.29,-178.93 2349.05,-132 2331.68,-124.1 2329.33,-117.5 2311.05,-112 2157.06,-65.7 2105.04,-122.3 1951.05,-76 1932.77,-70.5 1931.47,-60.99 1913.05,-56 1817.4,-30.09 1103.29,-14.83 938.78,-11.63"/>
<polygon fill="midnightblue" stroke="midnightblue" points="938.82,-8.13 928.75,-11.44 938.68,-15.13 938.82,-8.13"/>
</g>
<!-- Node42&#45;&gt;Node10 -->
<g id="edge89" class="edge">
<title>Node42&#45;&gt;Node10</title>
<path fill="none" stroke="midnightblue" d="M2879.03,-406.01C2853.53,-399.87 2827.8,-388.34 2812.05,-367 2772.23,-313.06 2901.39,-276.78 2860.05,-224 2795.97,-142.19 2508.14,-131.39 2406.05,-112 2347.02,-100.79 2177.61,-121.23 2138.05,-76 2113.17,-47.55 2167.97,-28.8 2210.18,-19.04"/>
<polygon fill="midnightblue" stroke="midnightblue" points="2211.03,-22.44 2220.04,-16.87 2209.52,-15.6 2211.03,-22.44"/>
</g>
<!-- Node42&#45;&gt;Node16 -->
<g id="edge93" class="edge">
<title>Node42&#45;&gt;Node16</title>
<path fill="none" stroke="midnightblue" d="M3037.19,-412.26C3121.64,-410.66 3247.46,-402.2 3278.05,-367 3322.65,-315.69 3251.82,-94.75 3229.46,-29.32"/>
<polygon fill="midnightblue" stroke="midnightblue" points="3232.67,-27.9 3226.1,-19.59 3226.06,-30.19 3232.67,-27.9"/>
</g>
<!-- Node42&#45;&gt;Node18 -->
<g id="edge98" class="edge">
<title>Node42&#45;&gt;Node18</title>
<path fill="none" stroke="midnightblue" d="M2878.72,-404.01C2855.78,-397.59 2833.15,-386.38 2819.05,-367 2813.82,-359.81 2816.07,-355.37 2819.05,-347 2836.74,-297.3 2876.36,-304.7 2894.05,-255 2898.67,-242.02 2898.98,-236.86 2894.05,-224 2858.11,-130.26 2822.34,-117.58 2743.05,-56 2726.25,-42.95 2705.11,-31.83 2687.99,-23.91"/>
<polygon fill="midnightblue" stroke="midnightblue" points="2689,-20.52 2678.44,-19.62 2686.13,-26.91 2689,-20.52"/>
</g>
<!-- Node42&#45;&gt;Node19 -->
<g id="edge99" class="edge">
<title>Node42&#45;&gt;Node19</title>
<path fill="none" stroke="midnightblue" d="M2887.01,-403.49C2864.8,-397.1 2842.58,-386.05 2829.05,-367 2799.14,-324.89 2878.42,-326.28 2895.05,-311 2951.11,-259.49 3008.3,-89.04 3011.05,-76 3012.88,-67.3 3015.58,-63.65 3011.05,-56 3000.58,-38.31 2980.42,-27.12 2962.71,-20.31"/>
<polygon fill="midnightblue" stroke="midnightblue" points="2963.8,-16.99 2953.2,-16.97 2961.48,-23.59 2963.8,-16.99"/>
</g>
<!-- Node42&#45;&gt;Node25 -->
<g id="edge92" class="edge">
<title>Node42&#45;&gt;Node25</title>
<path fill="none" stroke="midnightblue" d="M3037.28,-411.55C3117.46,-409.22 3233.56,-400.02 3262.05,-367 3267.86,-360.27 3263.5,-355.77 3262.05,-347 3249.21,-269.2 3205.05,-257.85 3205.05,-179 3205.05,-179 3205.05,-179 3205.05,-121 3205.05,-80.92 3084.16,-38.65 3024.96,-20.35"/>
<polygon fill="midnightblue" stroke="midnightblue" points="3025.92,-16.98 3015.34,-17.42 3023.88,-23.68 3025.92,-16.98"/>
</g>
<!-- Node42&#45;&gt;Node29 -->
<g id="edge97" class="edge">
<title>Node42&#45;&gt;Node29</title>
<path fill="none" stroke="midnightblue" d="M2878.69,-404.2C2792.14,-395.13 2663.29,-379.77 2644.05,-367 2582.25,-325.99 2619.57,-265.42 2558.05,-224 2472.59,-166.45 2430.07,-208.22 2329.05,-188 2292.27,-180.64 2283.64,-176.27 2247.05,-168 2170.45,-150.69 2150.42,-150.31 2074.05,-132 2003.15,-115 1921.32,-92 1874.15,-78.41"/>
<polygon fill="midnightblue" stroke="midnightblue" points="1874.92,-74.99 1864.34,-75.58 1872.97,-81.72 1874.92,-74.99"/>
</g>
<!-- Node42&#45;&gt;Node40 -->
<g id="edge100" class="edge">
<title>Node42&#45;&gt;Node40</title>
<path fill="none" stroke="midnightblue" d="M2878.83,-409.33C2608.34,-400.22 1722.52,-370.38 1441.44,-360.91"/>
<polygon fill="midnightblue" stroke="midnightblue" points="1441.42,-357.41 1431.3,-360.57 1441.18,-364.4 1441.42,-357.41"/>
</g>
<!-- Node43 -->
<g id="node43" class="node">
<title>Node43</title>
<g id="a_node43"><a xlink:title=" ">
<polygon fill="none" stroke="#bfbfbf" points="3061.55,-347.5 3061.55,-366.5 3096.55,-366.5 3096.55,-347.5 3061.55,-347.5"/>
<text text-anchor="middle" x="3079.05" y="-354.5" font-family="serif" font-size="10.00">any</text>
</a>
</g>
</g>
<!-- Node42&#45;&gt;Node43 -->
<g id="edge90" class="edge">
<title>Node42&#45;&gt;Node43</title>
<path fill="none" stroke="midnightblue" d="M2977.22,-403.44C2997.42,-394.43 3029.4,-380.16 3052.13,-370.02"/>
<polygon fill="midnightblue" stroke="midnightblue" points="3053.83,-373.09 3061.54,-365.82 3050.98,-366.69 3053.83,-373.09"/>
</g>
<!-- Node44 -->
<g id="node44" class="node">
<title>Node44</title>
<g id="a_node44"><a xlink:title=" ">
<polygon fill="none" stroke="#bfbfbf" points="3115.05,-347.5 3115.05,-366.5 3177.05,-366.5 3177.05,-347.5 3115.05,-347.5"/>
<text text-anchor="middle" x="3146.05" y="-354.5" font-family="serif" font-size="10.00">concepts</text>
</a>
</g>
</g>
<!-- Node42&#45;&gt;Node44 -->
<g id="edge91" class="edge">
<title>Node42&#45;&gt;Node44</title>
<path fill="none" stroke="midnightblue" d="M2987.84,-403.44C3019.88,-394.24 3070.98,-379.56 3106.4,-369.39"/>
<polygon fill="midnightblue" stroke="midnightblue" points="3107.76,-372.64 3116.4,-366.52 3105.82,-365.91 3107.76,-372.64"/>
</g>
<!-- Node45 -->
<g id="node45" class="node">
<title>Node45</title>
<g id="a_node45"><a xlink:title=" ">
<polygon fill="none" stroke="#bfbfbf" points="3195.05,-347.5 3195.05,-366.5 3253.05,-366.5 3253.05,-347.5 3195.05,-347.5"/>
<text text-anchor="middle" x="3224.05" y="-354.5" font-family="serif" font-size="10.00">optional</text>
</a>
</g>
</g>
<!-- Node42&#45;&gt;Node45 -->
<g id="edge94" class="edge">
<title>Node42&#45;&gt;Node45</title>
<path fill="none" stroke="midnightblue" d="M3004.01,-403.46C3047.97,-395.17 3116.37,-381.96 3184.92,-367.18"/>
<polygon fill="midnightblue" stroke="midnightblue" points="3186,-370.53 3195.03,-364.99 3184.52,-363.69 3186,-370.53"/>
</g>
<!-- Node46 -->
<g id="node46" class="node">
<title>Node46</title>
<g id="a_node46"><a xlink:title=" ">
<polygon fill="none" stroke="#bfbfbf" points="2838.05,-347.5 2838.05,-366.5 2870.05,-366.5 2870.05,-347.5 2838.05,-347.5"/>
<text text-anchor="middle" x="2854.05" y="-354.5" font-family="serif" font-size="10.00">set</text>
</a>
</g>
</g>
<!-- Node42&#45;&gt;Node46 -->
<g id="edge95" class="edge">
<title>Node42&#45;&gt;Node46</title>
<path fill="none" stroke="midnightblue" d="M2941.34,-403.32C2924.64,-394.65 2898.74,-381.21 2879.49,-371.21"/>
<polygon fill="midnightblue" stroke="midnightblue" points="2880.86,-367.98 2870.38,-366.48 2877.64,-374.19 2880.86,-367.98"/>
</g>
<!-- Node47 -->
<g id="node47" class="node">
<title>Node47</title>
<g id="a_node47"><a xlink:href="Parameters_8tpp.html" target="_top" xlink:title=" ">
<polygon fill="none" stroke="black" points="2888.55,-347.5 2888.55,-366.5 3043.55,-366.5 3043.55,-347.5 2888.55,-347.5"/>
<text text-anchor="middle" x="2966.05" y="-354.5" font-family="serif" font-size="10.00">Parameters/Parameters.tpp</text>
</a>
</g>
</g>
<!-- Node42&#45;&gt;Node47 -->
<g id="edge101" class="edge">
<title>Node42&#45;&gt;Node47</title>
<path fill="none" stroke="midnightblue" d="M2959.37,-403.08C2960.43,-395.93 2961.96,-385.64 2963.28,-376.69"/>
<polygon fill="midnightblue" stroke="midnightblue" points="2966.75,-377.16 2964.75,-366.75 2959.83,-376.13 2966.75,-377.16"/>
</g>
<!-- Node48&#45;&gt;Node3 -->
<g id="edge103" class="edge">
<title>Node48&#45;&gt;Node3</title>
<path fill="none" stroke="midnightblue" d="M2954.26,-578.01C3138.13,-571.13 3631.59,-541.74 3731.05,-423 3822.28,-314.08 3752.64,-217.12 3657.05,-112 3645.01,-98.76 3628.2,-87.96 3613.85,-80.26"/>
<polygon fill="midnightblue" stroke="midnightblue" points="3615.34,-77.09 3604.85,-75.65 3612.15,-83.32 3615.34,-77.09"/>
</g>
<!-- Node48&#45;&gt;Node4 -->
<g id="edge104" class="edge">
<title>Node48&#45;&gt;Node4</title>
<path fill="none" stroke="midnightblue" d="M2816.03,-579.49C2620.11,-577.63 2063.11,-569.39 1884.05,-535 1797.64,-518.41 1697.05,-557.99 1697.05,-470 1697.05,-470 1697.05,-470 1697.05,-412 1697.05,-379.95 1697.05,-342.64 1697.05,-320.75"/>
<polygon fill="midnightblue" stroke="midnightblue" points="1700.55,-320.56 1697.05,-310.56 1693.55,-320.56 1700.55,-320.56"/>
</g>
<!-- Node48&#45;&gt;Node7 -->
<g id="edge161" class="edge">
<title>Node48&#45;&gt;Node7</title>
<path fill="none" stroke="midnightblue" d="M2815.81,-579.18C2665.61,-576.8 2314.17,-567.79 2200.05,-535 2149.59,-520.5 2126.84,-521.52 2096.05,-479 2046,-409.89 2070.99,-347.38 2135.05,-291 2164.62,-264.97 2194.58,-288.03 2216.05,-255 2227.81,-236.9 2216.84,-212.38 2206.62,-196.15"/>
<polygon fill="midnightblue" stroke="midnightblue" points="2209.37,-193.97 2200.86,-187.65 2203.58,-197.9 2209.37,-193.97"/>
</g>
<!-- Node48&#45;&gt;Node20 -->
<g id="edge162" class="edge">
<title>Node48&#45;&gt;Node20</title>
<path fill="none" stroke="midnightblue" d="M2954.25,-579.48C3066.83,-577.6 3296.24,-569.43 3487.05,-535 3574.95,-519.14 3600.35,-519.32 3680.05,-479 3834.16,-401.03 3927.05,-351.71 3927.05,-179 3927.05,-179 3927.05,-179 3927.05,-121 3927.05,-75.53 3889.28,-75.18 3848.05,-56 3783.15,-25.81 3699.69,-15.85 3649.11,-12.58"/>
<polygon fill="midnightblue" stroke="midnightblue" points="3649.03,-9.07 3638.84,-11.98 3648.62,-16.06 3649.03,-9.07"/>
</g>
<!-- Node48&#45;&gt;Node40 -->
<g id="edge105" class="edge">
<title>Node48&#45;&gt;Node40</title>
<path fill="none" stroke="midnightblue" d="M2815.82,-579.24C2576.39,-576.36 1792.1,-564.73 1683.05,-535 1555.52,-500.23 1422.66,-408.24 1374.19,-372.49"/>
<polygon fill="midnightblue" stroke="midnightblue" points="1376.25,-369.67 1366.14,-366.5 1372.07,-375.28 1376.25,-369.67"/>
</g>
<!-- Node48&#45;&gt;Node42 -->
<g id="edge106" class="edge">
<title>Node48&#45;&gt;Node42</title>
<path fill="none" stroke="midnightblue" d="M2954.4,-576.81C3059.58,-571.25 3249.47,-558.12 3270.05,-535 3285.21,-517.97 3276.69,-478.36 3255.05,-459 3225.06,-432.17 3123.3,-421.34 3047.2,-416.96"/>
<polygon fill="midnightblue" stroke="midnightblue" points="3047.29,-413.46 3037.11,-416.41 3046.9,-420.45 3047.29,-413.46"/>
</g>
<!-- Node49 -->
<g id="node49" class="node">
<title>Node49</title>
<g id="a_node49"><a xlink:href="DSolverBase_8hpp.html" target="_top" xlink:title="Direct solvers.">
<polygon fill="none" stroke="black" points="2404.05,-515.5 2404.05,-534.5 2550.05,-534.5 2550.05,-515.5 2404.05,-515.5"/>
<text text-anchor="middle" x="2477.05" y="-522.5" font-family="serif" font-size="10.00">Solvers/DSolverBase.hpp</text>
</a>
</g>
</g>
<!-- Node48&#45;&gt;Node49 -->
<g id="edge107" class="edge">
<title>Node48&#45;&gt;Node49</title>
<path fill="none" stroke="midnightblue" d="M2820.4,-571.44C2747.29,-561.77 2628.43,-546.04 2551.5,-535.85"/>
<polygon fill="midnightblue" stroke="midnightblue" points="2551.77,-532.36 2541.4,-534.52 2550.85,-539.3 2551.77,-532.36"/>
</g>
<!-- Node51 -->
<g id="node51" class="node">
<title>Node51</title>
<g id="a_node51"><a xlink:href="HPrecondBase_8hpp.html" target="_top" xlink:title="Base class for hypre preconditionners used in linear system involved in non linear algorithm.">
<polygon fill="none" stroke="black" points="2209.05,-515.5 2209.05,-534.5 2365.05,-534.5 2365.05,-515.5 2209.05,-515.5"/>
<text text-anchor="middle" x="2287.05" y="-522.5" font-family="serif" font-size="10.00">Solvers/HPrecondBase.hpp</text>
</a>
</g>
</g>
<!-- Node48&#45;&gt;Node51 -->
<g id="edge121" class="edge">
<title>Node48&#45;&gt;Node51</title>
<path fill="none" stroke="midnightblue" d="M2815.87,-573.75C2706.98,-563.92 2495.69,-544.84 2375.77,-534.01"/>
<polygon fill="midnightblue" stroke="midnightblue" points="2375.8,-530.5 2365.53,-533.09 2375.17,-537.47 2375.8,-530.5"/>
</g>
<!-- Node52 -->
<g id="node52" class="node">
<title>Node52</title>
<g id="a_node52"><a xlink:href="HSolverBase_8hpp.html" target="_top" xlink:title="Base class for Hypre solvers.">
<polygon fill="none" stroke="black" points="2568.05,-515.5 2568.05,-534.5 2714.05,-534.5 2714.05,-515.5 2568.05,-515.5"/>
<text text-anchor="middle" x="2641.05" y="-522.5" font-family="serif" font-size="10.00">Solvers/HSolverBase.hpp</text>
</a>
</g>
</g>
<!-- Node48&#45;&gt;Node52 -->
<g id="edge129" class="edge">
<title>Node48&#45;&gt;Node52</title>
<path fill="none" stroke="midnightblue" d="M2846.39,-571.44C2803.91,-562.04 2735.62,-546.93 2689.58,-536.74"/>
<polygon fill="midnightblue" stroke="midnightblue" points="2690.05,-533.26 2679.53,-534.52 2688.54,-540.09 2690.05,-533.26"/>
</g>
<!-- Node53 -->
<g id="node53" class="node">
<title>Node53</title>
<g id="a_node53"><a xlink:href="IPrecondBase_8hpp.html" target="_top" xlink:title="Base class for preconditionners used in linear system involved in non linear algorithm.">
<polygon fill="none" stroke="black" points="2891.55,-515.5 2891.55,-534.5 3042.55,-534.5 3042.55,-515.5 2891.55,-515.5"/>
<text text-anchor="middle" x="2967.05" y="-522.5" font-family="serif" font-size="10.00">Solvers/IPrecondBase.hpp</text>
</a>
</g>
</g>
<!-- Node48&#45;&gt;Node53 -->
<g id="edge137" class="edge">
<title>Node48&#45;&gt;Node53</title>
<path fill="none" stroke="midnightblue" d="M2898.23,-571.32C2910.9,-562.98 2930.28,-550.21 2945.26,-540.35"/>
<polygon fill="midnightblue" stroke="midnightblue" points="2947.48,-543.08 2953.91,-534.65 2943.63,-537.23 2947.48,-543.08"/>
</g>
<!-- Node54 -->
<g id="node54" class="node">
<title>Node54</title>
<g id="a_node54"><a xlink:href="ISolverBase_8hpp.html" target="_top" xlink:title="Base class for iterative solvers.">
<polygon fill="none" stroke="black" points="2732.55,-515.5 2732.55,-534.5 2873.55,-534.5 2873.55,-515.5 2732.55,-515.5"/>
<text text-anchor="middle" x="2803.05" y="-522.5" font-family="serif" font-size="10.00">Solvers/ISolverBase.hpp</text>
</a>
</g>
</g>
<!-- Node48&#45;&gt;Node54 -->
<g id="edge145" class="edge">
<title>Node48&#45;&gt;Node54</title>
<path fill="none" stroke="midnightblue" d="M2871.88,-571.32C2859.2,-562.98 2839.82,-550.21 2824.85,-540.35"/>
<polygon fill="midnightblue" stroke="midnightblue" points="2826.47,-537.23 2816.19,-534.65 2822.62,-543.08 2826.47,-537.23"/>
</g>
<!-- Node55 -->
<g id="node55" class="node">
<title>Node55</title>
<g id="a_node55"><a xlink:href="NLSolverBase_8hpp.html" target="_top" xlink:title="ase class for non linear solvers">
<polygon fill="none" stroke="black" points="3108.55,-515.5 3108.55,-534.5 3261.55,-534.5 3261.55,-515.5 3108.55,-515.5"/>
<text text-anchor="middle" x="3185.05" y="-522.5" font-family="serif" font-size="10.00">Solvers/NLSolverBase.hpp</text>
</a>
</g>
</g>
<!-- Node48&#45;&gt;Node55 -->
<g id="edge153" class="edge">
<title>Node48&#45;&gt;Node55</title>
<path fill="none" stroke="midnightblue" d="M2932.59,-571.44C2985.58,-561.9 3071.25,-546.48 3127.87,-536.29"/>
<polygon fill="midnightblue" stroke="midnightblue" points="3128.52,-539.73 3137.74,-534.52 3127.28,-532.84 3128.52,-539.73"/>
</g>
<!-- Node49&#45;&gt;Node3 -->
<g id="edge108" class="edge">
<title>Node49&#45;&gt;Node3</title>
<path fill="none" stroke="midnightblue" d="M2549.14,-515.46C2625.1,-506.09 2739.5,-490.81 2782.05,-479 2804.32,-472.82 2807.54,-464.23 2830.05,-459 2955.62,-429.81 3302.72,-495.89 3409.05,-423 3534.53,-336.98 3474.9,-243.12 3552.05,-112 3557.82,-102.19 3565.25,-91.9 3571.59,-83.65"/>
<polygon fill="midnightblue" stroke="midnightblue" points="3574.49,-85.63 3577.93,-75.6 3568.99,-81.3 3574.49,-85.63"/>
</g>
<!-- Node49&#45;&gt;Node4 -->
<g id="edge110" class="edge">
<title>Node49&#45;&gt;Node4</title>
<path fill="none" stroke="midnightblue" d="M2403.67,-517.12C2296.09,-506.83 2104.92,-487.71 2074.05,-479 2001.13,-458.42 1794.91,-352.9 1722.54,-315.31"/>
<polygon fill="midnightblue" stroke="midnightblue" points="1724.11,-312.19 1713.62,-310.68 1720.88,-318.4 1724.11,-312.19"/>
</g>
<!-- Node49&#45;&gt;Node6 -->
<g id="edge109" class="edge">
<title>Node49&#45;&gt;Node6</title>
<path fill="none" stroke="midnightblue" d="M2404,-517.6C2006.51,-482.77 121.42,-317.28 108.05,-311 68.09,-292.22 38.05,-284.66 38.05,-240.5 38.05,-240.5 38.05,-240.5 38.05,-121 38.05,-87.08 48.9,-73.35 78.05,-56 146.99,-14.98 724.2,-11.28 871.13,-11.01"/>
<polygon fill="midnightblue" stroke="midnightblue" points="871.34,-14.51 881.34,-10.99 871.33,-7.51 871.34,-14.51"/>
</g>
<!-- Node49&#45;&gt;Node7 -->
<g id="edge119" class="edge">
<title>Node49&#45;&gt;Node7</title>
<path fill="none" stroke="midnightblue" d="M2404.04,-516.39C2310.22,-506.26 2158.35,-488.52 2150.05,-479 2144.21,-472.3 2147.7,-467.57 2150.05,-459 2177.93,-357.34 2243.17,-356.66 2271.05,-255 2274.69,-241.71 2277.91,-235.95 2271.05,-224 2262.44,-208.99 2246.66,-198.5 2231.62,-191.46"/>
<polygon fill="midnightblue" stroke="midnightblue" points="2232.99,-188.24 2222.42,-187.51 2230.23,-194.67 2232.99,-188.24"/>
</g>
<!-- Node49&#45;&gt;Node20 -->
<g id="edge120" class="edge">
<title>Node49&#45;&gt;Node20</title>
<path fill="none" stroke="midnightblue" d="M2550.42,-515.77C2643.49,-505.11 2794.97,-486.96 2820.05,-479 2838.24,-473.22 2839.68,-464.18 2858.05,-459 2976.15,-425.7 3312.19,-498.33 3409.05,-423 3544.84,-317.39 3422.12,-188.32 3532.05,-56 3543.33,-42.42 3559.82,-31.7 3574.17,-24.13"/>
<polygon fill="midnightblue" stroke="midnightblue" points="3575.83,-27.21 3583.21,-19.62 3572.7,-20.95 3575.83,-27.21"/>
</g>
<!-- Node49&#45;&gt;Node42 -->
<g id="edge111" class="edge">
<title>Node49&#45;&gt;Node42</title>
<path fill="none" stroke="midnightblue" d="M2514.39,-515.46C2600.97,-495.66 2815.24,-446.66 2910.77,-424.81"/>
<polygon fill="midnightblue" stroke="midnightblue" points="2911.76,-428.18 2920.73,-422.53 2910.2,-421.35 2911.76,-428.18"/>
</g>
<!-- Node50 -->
<g id="node50" class="node">
<title>Node50</title>
<g id="a_node50"><a xlink:href="SolverBase_8hpp.html" target="_top" xlink:title="Base class for Hypre, Iterative, Direct and Non Linear Solvers.">
<polygon fill="none" stroke="black" points="2420.55,-459.5 2420.55,-478.5 2557.55,-478.5 2557.55,-459.5 2420.55,-459.5"/>
<text text-anchor="middle" x="2489.05" y="-466.5" font-family="serif" font-size="10.00">Solvers/SolverBase.hpp</text>
</a>
</g>
</g>
<!-- Node49&#45;&gt;Node50 -->
<g id="edge112" class="edge">
<title>Node49&#45;&gt;Node50</title>
<path fill="none" stroke="midnightblue" d="M2479.03,-515.08C2480.62,-507.93 2482.91,-497.64 2484.9,-488.69"/>
<polygon fill="midnightblue" stroke="midnightblue" points="2488.35,-489.27 2487.11,-478.75 2481.52,-487.75 2488.35,-489.27"/>
</g>
<!-- Node50&#45;&gt;Node3 -->
<g id="edge113" class="edge">
<title>Node50&#45;&gt;Node3</title>
<path fill="none" stroke="midnightblue" d="M2510.22,-459.37C2563.2,-438.03 2706.1,-381.93 2829.05,-347 3016.21,-293.83 3076.1,-326.52 3257.05,-255 3371.82,-209.64 3386.89,-171.42 3495.05,-112 3515.72,-100.65 3539.62,-88.75 3557.59,-80.05"/>
<polygon fill="midnightblue" stroke="midnightblue" points="3559.42,-83.05 3566.91,-75.56 3556.38,-76.74 3559.42,-83.05"/>
</g>
<!-- Node50&#45;&gt;Node4 -->
<g id="edge115" class="edge">
<title>Node50&#45;&gt;Node4</title>
<path fill="none" stroke="midnightblue" d="M2451.35,-459.47C2420.64,-451.85 2376.54,-439.37 2340.05,-423 2281.07,-396.55 2277.45,-367.22 2216.05,-347 2134.79,-320.24 1890.2,-308.45 1768.06,-304.13"/>
<polygon fill="midnightblue" stroke="midnightblue" points="1768.17,-300.63 1758.05,-303.78 1767.93,-307.62 1768.17,-300.63"/>
</g>
<!-- Node50&#45;&gt;Node6 -->
<g id="edge114" class="edge">
<title>Node50&#45;&gt;Node6</title>
<path fill="none" stroke="midnightblue" d="M2448.92,-459.47C2341.93,-437.09 2040.74,-376.37 1787.05,-347 1744.62,-342.09 281.34,-286.09 252.05,-255 191.41,-190.62 191.7,-120.65 252.05,-56 294.53,-10.5 742.67,-9.92 870.93,-10.7"/>
<polygon fill="midnightblue" stroke="midnightblue" points="871.29,-14.2 881.31,-10.77 871.34,-7.2 871.29,-14.2"/>
</g>
<!-- Node50&#45;&gt;Node7 -->
<g id="edge117" class="edge">
<title>Node50&#45;&gt;Node7</title>
<path fill="none" stroke="midnightblue" d="M2481.43,-459.41C2466.94,-442.68 2435.14,-404.14 2416.05,-367 2385.4,-307.38 2417.1,-269.7 2368.05,-224 2350.79,-207.92 2293.21,-195.13 2248.96,-187.36"/>
<polygon fill="midnightblue" stroke="midnightblue" points="2249.34,-183.88 2238.89,-185.64 2248.16,-190.78 2249.34,-183.88"/>
</g>
<!-- Node50&#45;&gt;Node20 -->
<g id="edge118" class="edge">
<title>Node50&#45;&gt;Node20</title>
<path fill="none" stroke="midnightblue" d="M2557.96,-465.22C2663.49,-460.33 2871.29,-448.22 3046.05,-423 3185.81,-402.83 3357.05,-499.21 3357.05,-358 3357.05,-358 3357.05,-358 3357.05,-300 3357.05,-189.12 3232.72,-140.04 3305.05,-56 3337.31,-18.52 3484.01,-11.84 3559.25,-10.92"/>
<polygon fill="midnightblue" stroke="midnightblue" points="3559.41,-14.42 3569.37,-10.82 3559.34,-7.42 3559.41,-14.42"/>
</g>
<!-- Node50&#45;&gt;Node42 -->
<g id="edge116" class="edge">
<title>Node50&#45;&gt;Node42</title>
<path fill="none" stroke="midnightblue" d="M2557.75,-460.09C2641.74,-450.42 2783.84,-434.06 2874.2,-423.65"/>
<polygon fill="midnightblue" stroke="midnightblue" points="2874.6,-427.13 2884.13,-422.51 2873.8,-420.18 2874.6,-427.13"/>
</g>
<!-- Node51&#45;&gt;Node3 -->
<g id="edge122" class="edge">
<title>Node51&#45;&gt;Node3</title>
<path fill="none" stroke="midnightblue" d="M2294.43,-515.13C2306.41,-501.25 2331.45,-474.42 2358.05,-459 2575.95,-332.71 3360.28,-125.19 3545.61,-77.15"/>
<polygon fill="midnightblue" stroke="midnightblue" points="3546.66,-80.49 3555.47,-74.6 3544.91,-73.71 3546.66,-80.49"/>
</g>
<!-- Node51&#45;&gt;Node4 -->
<g id="edge124" class="edge">
<title>Node51&#45;&gt;Node4</title>
<path fill="none" stroke="midnightblue" d="M2208.95,-523.12C2141.12,-520.06 2041.3,-510.01 1960.05,-479 1856.79,-439.59 1753.7,-353.1 1714.05,-317.64"/>
<polygon fill="midnightblue" stroke="midnightblue" points="1715.94,-314.62 1706.17,-310.51 1711.24,-319.81 1715.94,-314.62"/>
</g>
<!-- Node51&#45;&gt;Node6 -->
<g id="edge123" class="edge">
<title>Node51&#45;&gt;Node6</title>
<path fill="none" stroke="midnightblue" d="M2208.73,-518.25C2099.46,-510.13 1895.08,-494.53 1721.05,-479 1336.48,-444.68 0.05,-626.6 0.05,-240.5 0.05,-240.5 0.05,-240.5 0.05,-121 0.05,-90.2 -0.76,-74.24 24.05,-56 58.76,-30.47 713.46,-15.05 871.11,-11.69"/>
<polygon fill="midnightblue" stroke="midnightblue" points="871.26,-15.19 881.18,-11.48 871.11,-8.19 871.26,-15.19"/>
</g>
<!-- Node51&#45;&gt;Node7 -->
<g id="edge127" class="edge">
<title>Node51&#45;&gt;Node7</title>
<path fill="none" stroke="midnightblue" d="M2221.04,-515.5C2177.31,-508.35 2125.6,-496.48 2112.05,-479 2076.1,-432.64 2089.36,-401.1 2112.05,-347 2125.79,-314.25 2139.51,-310.72 2169.05,-291 2203.17,-268.22 2231.39,-289.2 2254.05,-255 2261.66,-243.51 2260.21,-236.32 2254.05,-224 2247.32,-210.54 2234.44,-200.07 2222.34,-192.62"/>
<polygon fill="midnightblue" stroke="midnightblue" points="2223.77,-189.41 2213.35,-187.52 2220.32,-195.5 2223.77,-189.41"/>
</g>
<!-- Node51&#45;&gt;Node20 -->
<g id="edge128" class="edge">
<title>Node51&#45;&gt;Node20</title>
<path fill="none" stroke="midnightblue" d="M2345.24,-515.46C2437.64,-502.1 2623.7,-476.03 2782.05,-459 2972.29,-438.54 3023.93,-462.92 3211.05,-423 3295.87,-404.9 3395.05,-444.73 3395.05,-358 3395.05,-358 3395.05,-358 3395.05,-238.5 3395.05,-141.67 3441.79,-120.45 3514.05,-56 3530,-41.77 3551.26,-30.87 3569.11,-23.36"/>
<polygon fill="midnightblue" stroke="midnightblue" points="3570.65,-26.51 3578.62,-19.53 3568.04,-20.02 3570.65,-26.51"/>
</g>
<!-- Node51&#45;&gt;Node42 -->
<g id="edge125" class="edge">
<title>Node51&#45;&gt;Node42</title>
<path fill="none" stroke="midnightblue" d="M2299.36,-515.37C2320.86,-500.82 2367.17,-471.74 2411.05,-459 2494.44,-434.8 2736.33,-422.25 2868.78,-417.03"/>
<polygon fill="midnightblue" stroke="midnightblue" points="2869.05,-420.52 2878.91,-416.63 2868.78,-413.52 2869.05,-420.52"/>
</g>
<!-- Node51&#45;&gt;Node50 -->
<g id="edge126" class="edge">
<title>Node51&#45;&gt;Node50</title>
<path fill="none" stroke="midnightblue" d="M2319.06,-515.44C2353.78,-506.16 2409.34,-491.31 2447.43,-481.13"/>
<polygon fill="midnightblue" stroke="midnightblue" points="2448.44,-484.48 2457.19,-478.52 2446.63,-477.72 2448.44,-484.48"/>
</g>
<!-- Node52&#45;&gt;Node3 -->
<g id="edge130" class="edge">
<title>Node52&#45;&gt;Node3</title>
<path fill="none" stroke="midnightblue" d="M2698.2,-515.48C2788.5,-502.21 2969.76,-476.33 3124.05,-459 3212.52,-449.06 3452.37,-477.13 3523.05,-423 3547.5,-404.28 3547.05,-388.8 3547.05,-358 3547.05,-358 3547.05,-358 3547.05,-177 3547.05,-142.81 3563.65,-105.76 3574.91,-84.57"/>
<polygon fill="midnightblue" stroke="midnightblue" points="3578,-86.22 3579.77,-75.77 3571.87,-82.83 3578,-86.22"/>
</g>
<!-- Node52&#45;&gt;Node4 -->
<g id="edge132" class="edge">
<title>Node52&#45;&gt;Node4</title>
<path fill="none" stroke="midnightblue" d="M2567.74,-515.87C2564.81,-515.57 2561.9,-515.28 2559.05,-515 2377.46,-497.04 2327.64,-520.97 2150.05,-479 1994.71,-442.29 1964.93,-404.56 1816.05,-347 1786.85,-335.71 1753.5,-323.12 1729.55,-314.14"/>
<polygon fill="midnightblue" stroke="midnightblue" points="1730.49,-310.76 1719.9,-310.53 1728.04,-317.31 1730.49,-310.76"/>
</g>
<!-- Node52&#45;&gt;Node6 -->
<g id="edge131" class="edge">
<title>Node52&#45;&gt;Node6</title>
<path fill="none" stroke="midnightblue" d="M2567.75,-515.82C2564.81,-515.54 2561.9,-515.26 2559.05,-515 2343.81,-495.21 2288.09,-509.09 2074.05,-479 1789.03,-438.93 1725.74,-381.98 1440.05,-347 1026.39,-296.35 917.91,-350.66 503.05,-311 462.21,-307.09 169.2,-281.7 138.05,-255 111.16,-231.95 114.05,-214.42 114.05,-179 114.05,-179 114.05,-179 114.05,-121 114.05,-90.2 113.31,-74.34 138.05,-56 197.52,-11.92 730.49,-10.45 871.14,-10.84"/>
<polygon fill="midnightblue" stroke="midnightblue" points="871.31,-14.34 881.32,-10.87 871.33,-7.34 871.31,-14.34"/>
</g>
<!-- Node52&#45;&gt;Node7 -->
<g id="edge135" class="edge">
<title>Node52&#45;&gt;Node7</title>
<path fill="none" stroke="midnightblue" d="M2574.57,-515.48C2517,-507.3 2438.74,-493.99 2411.05,-479 2349.96,-445.94 2331.3,-430 2302.05,-367 2275.16,-309.08 2324.68,-276.31 2288.05,-224 2277.02,-208.24 2258.94,-197.81 2241.56,-191"/>
<polygon fill="midnightblue" stroke="midnightblue" points="2242.63,-187.67 2232.03,-187.58 2240.26,-194.26 2242.63,-187.67"/>
</g>
<!-- Node52&#45;&gt;Node20 -->
<g id="edge136" class="edge">
<title>Node52&#45;&gt;Node20</title>
<path fill="none" stroke="midnightblue" d="M2675.15,-515.47C2733.08,-501.33 2854.63,-473.18 2959.05,-459 3017.1,-451.12 3438.16,-458.11 3485.05,-423 3509.7,-404.54 3509.05,-388.8 3509.05,-358 3509.05,-358 3509.05,-358 3509.05,-300 3509.05,-190.32 3490.53,-150.6 3546.05,-56 3553.66,-43.04 3566.57,-32.47 3578.28,-24.84"/>
<polygon fill="midnightblue" stroke="midnightblue" points="3580.17,-27.78 3586.89,-19.58 3576.53,-21.8 3580.17,-27.78"/>
</g>
<!-- Node52&#45;&gt;Node42 -->
<g id="edge133" class="edge">
<title>Node52&#45;&gt;Node42</title>
<path fill="none" stroke="midnightblue" d="M2665.66,-515.46C2721.72,-496.01 2859.04,-448.36 2923.54,-425.98"/>
<polygon fill="midnightblue" stroke="midnightblue" points="2924.94,-429.2 2933.24,-422.61 2922.64,-422.58 2924.94,-429.2"/>
</g>
<!-- Node52&#45;&gt;Node50 -->
<g id="edge134" class="edge">
<title>Node52&#45;&gt;Node50</title>
<path fill="none" stroke="midnightblue" d="M2616.97,-515.44C2591.51,-506.4 2551.16,-492.06 2522.59,-481.92"/>
<polygon fill="midnightblue" stroke="midnightblue" points="2523.62,-478.57 2513.02,-478.52 2521.27,-485.16 2523.62,-478.57"/>
</g>
<!-- Node53&#45;&gt;Node3 -->
<g id="edge138" class="edge">
<title>Node53&#45;&gt;Node3</title>
<path fill="none" stroke="midnightblue" d="M3042.66,-516.95C3208.16,-500.89 3591.44,-460.14 3637.05,-423 3660.93,-403.56 3661.05,-388.8 3661.05,-358 3661.05,-358 3661.05,-358 3661.05,-300 3661.05,-215.63 3615.46,-122.18 3594.9,-84.33"/>
<polygon fill="midnightblue" stroke="midnightblue" points="3597.95,-82.61 3590.04,-75.56 3591.82,-86 3597.95,-82.61"/>
</g>
<!-- Node53&#45;&gt;Node4 -->
<g id="edge140" class="edge">
<title>Node53&#45;&gt;Node4</title>
<path fill="none" stroke="midnightblue" d="M2891.52,-515.89C2888.32,-515.58 2885.15,-515.28 2882.05,-515 2672.97,-495.95 2618.13,-513.54 2411.05,-479 2382.29,-474.2 1931.41,-353.78 1903.05,-347 1850.59,-334.46 1790.27,-321.45 1748.52,-312.66"/>
<polygon fill="midnightblue" stroke="midnightblue" points="1749.09,-309.2 1738.59,-310.58 1747.66,-316.05 1749.09,-309.2"/>
</g>
<!-- Node53&#45;&gt;Node6 -->
<g id="edge139" class="edge">
<title>Node53&#45;&gt;Node6</title>
<path fill="none" stroke="midnightblue" d="M2891.52,-515.84C2888.32,-515.55 2885.16,-515.27 2882.05,-515 2637.09,-494.05 2574.08,-508.92 2330.05,-479 2166.42,-458.94 1763.61,-367.62 1600.05,-347 1529.48,-338.1 385.48,-289.08 323.05,-255 285.99,-234.77 266.05,-221.22 266.05,-179 266.05,-179 266.05,-179 266.05,-121 266.05,-59 739.28,-22.25 871.25,-13.2"/>
<polygon fill="midnightblue" stroke="midnightblue" points="871.81,-16.67 881.55,-12.51 871.34,-9.69 871.81,-16.67"/>
</g>
<!-- Node53&#45;&gt;Node7 -->
<g id="edge143" class="edge">
<title>Node53&#45;&gt;Node7</title>
<path fill="none" stroke="midnightblue" d="M2928.97,-515.42C2828.61,-492.2 2559.95,-425.91 2492.05,-367 2438.45,-320.5 2477.42,-267.1 2421.05,-224 2414.18,-218.74 2313.75,-200.18 2248.8,-188.6"/>
<polygon fill="midnightblue" stroke="midnightblue" points="2249.15,-185.11 2238.7,-186.81 2247.93,-192 2249.15,-185.11"/>
</g>
<!-- Node53&#45;&gt;Node20 -->
<g id="edge144" class="edge">
<title>Node53&#45;&gt;Node20</title>
<path fill="none" stroke="midnightblue" d="M3042.69,-518.79C3160.42,-510.39 3382.08,-493.35 3460.05,-479 3550.83,-462.29 3590.25,-483.4 3660.05,-423 3790.8,-309.87 3895.89,-191.94 3789.05,-56 3771.94,-34.22 3697.95,-21.67 3648.89,-15.6"/>
<polygon fill="midnightblue" stroke="midnightblue" points="3649.17,-12.11 3638.83,-14.4 3648.34,-19.06 3649.17,-12.11"/>
</g>
<!-- Node53&#45;&gt;Node42 -->
<g id="edge141" class="edge">
<title>Node53&#45;&gt;Node42</title>
<path fill="none" stroke="midnightblue" d="M2969,-515.12C2971.48,-502.56 2975.08,-478.92 2972.05,-459 2970.68,-450 2967.86,-440.33 2965.11,-432.26"/>
<polygon fill="midnightblue" stroke="midnightblue" points="2968.36,-430.98 2961.65,-422.78 2961.79,-433.37 2968.36,-430.98"/>
</g>
<!-- Node53&#45;&gt;Node50 -->
<g id="edge142" class="edge">
<title>Node53&#45;&gt;Node50</title>
<path fill="none" stroke="midnightblue" d="M2891.57,-515.47C2803.29,-505.5 2657.82,-489.07 2568.05,-478.92"/>
<polygon fill="midnightblue" stroke="midnightblue" points="2568.26,-475.43 2557.93,-477.78 2567.47,-482.38 2568.26,-475.43"/>
</g>
<!-- Node54&#45;&gt;Node3 -->
<g id="edge146" class="edge">
<title>Node54&#45;&gt;Node3</title>
<path fill="none" stroke="midnightblue" d="M2870.5,-515.48C2957.4,-504.35 3100.17,-485.53 3124.05,-479 3146.34,-472.9 3149.62,-464.57 3172.05,-459 3256.3,-438.07 3492.19,-475.86 3561.05,-423 3585.48,-404.25 3585.05,-388.8 3585.05,-358 3585.05,-358 3585.05,-358 3585.05,-177 3585.05,-144.95 3585.05,-107.64 3585.05,-85.75"/>
<polygon fill="midnightblue" stroke="midnightblue" points="3588.55,-85.56 3585.05,-75.56 3581.55,-85.56 3588.55,-85.56"/>
</g>
<!-- Node54&#45;&gt;Node4 -->
<g id="edge148" class="edge">
<title>Node54&#45;&gt;Node4</title>
<path fill="none" stroke="midnightblue" d="M2732.39,-515.98C2729.23,-515.64 2726.11,-515.32 2723.05,-515 2552.98,-497.44 2508.22,-509.81 2340.05,-479 2278.86,-467.79 1867.29,-350.67 1736.72,-313.35"/>
<polygon fill="midnightblue" stroke="midnightblue" points="1737.67,-309.99 1727.09,-310.6 1735.75,-316.72 1737.67,-309.99"/>
</g>
<!-- Node54&#45;&gt;Node6 -->
<g id="edge147" class="edge">
<title>Node54&#45;&gt;Node6</title>
<path fill="none" stroke="midnightblue" d="M2732.39,-515.92C2729.24,-515.6 2726.11,-515.29 2723.05,-515 2515.81,-495.36 2462.69,-504.24 2256.05,-479 2106.64,-460.75 2070.24,-449.39 1922.05,-423 1742.61,-391.04 1700.14,-367.68 1519.05,-347 1131.46,-302.74 1030.67,-345 642.05,-311 595.48,-306.93 266.74,-276.15 225.05,-255 183.28,-233.81 152.05,-225.84 152.05,-179 152.05,-179 152.05,-179 152.05,-121 152.05,-75.19 189.41,-72.76 232.05,-56 350.28,-9.52 751.56,-9.5 871.15,-10.58"/>
<polygon fill="midnightblue" stroke="midnightblue" points="871.47,-14.08 881.5,-10.68 871.54,-7.08 871.47,-14.08"/>
</g>
<!-- Node54&#45;&gt;Node7 -->
<g id="edge151" class="edge">
<title>Node54&#45;&gt;Node7</title>
<path fill="none" stroke="midnightblue" d="M2750.52,-515.48C2714.26,-508.46 2665.47,-496.75 2625.05,-479 2541.87,-442.47 2512.17,-436.83 2454.05,-367 2409.96,-314.02 2446.88,-268.27 2394.05,-224 2382.88,-214.64 2304.12,-198.83 2248.84,-188.66"/>
<polygon fill="midnightblue" stroke="midnightblue" points="2249.28,-185.19 2238.81,-186.83 2248.02,-192.07 2249.28,-185.19"/>
</g>
<!-- Node54&#45;&gt;Node20 -->
<g id="edge152" class="edge">
<title>Node54&#45;&gt;Node20</title>
<path fill="none" stroke="midnightblue" d="M2872.23,-515.48C2944.53,-506.54 3061.28,-492 3162.05,-479 3208.96,-472.95 3544.52,-448.97 3584.05,-423 3612.21,-404.5 3623.05,-391.69 3623.05,-358 3623.05,-358 3623.05,-358 3623.05,-300 3623.05,-191.56 3644.57,-162.29 3623.05,-56 3621.16,-46.65 3617.26,-36.83 3613.48,-28.75"/>
<polygon fill="midnightblue" stroke="midnightblue" points="3616.53,-27.01 3608.93,-19.63 3610.26,-30.14 3616.53,-27.01"/>
</g>
<!-- Node54&#45;&gt;Node42 -->
<g id="edge149" class="edge">
<title>Node54&#45;&gt;Node42</title>
<path fill="none" stroke="midnightblue" d="M2826.5,-515.39C2846.12,-507.57 2874.31,-494.85 2896.05,-479 2915.25,-465 2933.56,-444.64 2945.24,-430.45"/>
<polygon fill="midnightblue" stroke="midnightblue" points="2948.07,-432.51 2951.6,-422.52 2942.61,-428.13 2948.07,-432.51"/>
</g>
<!-- Node54&#45;&gt;Node50 -->
<g id="edge150" class="edge">
<title>Node54&#45;&gt;Node50</title>
<path fill="none" stroke="midnightblue" d="M2753.3,-515.44C2697.72,-505.89 2607.79,-490.42 2548.53,-480.23"/>
<polygon fill="midnightblue" stroke="midnightblue" points="2549.02,-476.76 2538.57,-478.52 2547.83,-483.66 2549.02,-476.76"/>
</g>
<!-- Node55&#45;&gt;Node3 -->
<g id="edge154" class="edge">
<title>Node55&#45;&gt;Node3</title>
<path fill="none" stroke="midnightblue" d="M3261.55,-521.27C3372.07,-516.51 3570.44,-504.62 3637.05,-479 3676.21,-463.94 3694.13,-460.45 3713.05,-423 3745.14,-359.5 3676.77,-171.03 3637.05,-112 3629.14,-100.24 3617.38,-89.7 3607.04,-81.79"/>
<polygon fill="midnightblue" stroke="midnightblue" points="3608.95,-78.85 3598.81,-75.79 3604.83,-84.51 3608.95,-78.85"/>
</g>
<!-- Node55&#45;&gt;Node4 -->
<g id="edge156" class="edge">
<title>Node55&#45;&gt;Node4</title>
<path fill="none" stroke="midnightblue" d="M3141.64,-515.49C2969.69,-481.83 2341.26,-359.18 2251.05,-347 2078.68,-323.73 1874.4,-310.92 1768.59,-305.38"/>
<polygon fill="midnightblue" stroke="midnightblue" points="1768.52,-301.87 1758.35,-304.85 1768.16,-308.86 1768.52,-301.87"/>
</g>
<!-- Node55&#45;&gt;Node6 -->
<g id="edge155" class="edge">
<title>Node55&#45;&gt;Node6</title>
<path fill="none" stroke="midnightblue" d="M3159.37,-515.45C3120.37,-502.58 3043.8,-477.73 2978.05,-459 2819.64,-413.87 2755.74,-458.9 2619.05,-367 2553.4,-322.86 2575.49,-272.57 2513.05,-224 2487.17,-203.87 2271.82,-120.1 2240.05,-112 2098.37,-75.9 2051.81,-122.09 1913.05,-76 1896.41,-70.47 1895.86,-61 1879.05,-56 1787.55,-28.8 1101.11,-14.6 939.19,-11.6"/>
<polygon fill="midnightblue" stroke="midnightblue" points="938.94,-8.1 928.88,-11.41 938.81,-15.1 938.94,-8.1"/>
</g>
<!-- Node55&#45;&gt;Node7 -->
<g id="edge159" class="edge">
<title>Node55&#45;&gt;Node7</title>
<path fill="none" stroke="midnightblue" d="M3153.4,-515.46C3103.87,-502.27 3004.93,-476.63 2920.05,-459 2832.87,-440.89 2599.48,-422.76 2530.05,-367 2472.93,-321.12 2507.99,-266.13 2448.05,-224 2439.93,-218.29 2321.25,-198.91 2249.03,-187.53"/>
<polygon fill="midnightblue" stroke="midnightblue" points="2249.15,-184.01 2238.73,-185.91 2248.06,-190.92 2249.15,-184.01"/>
</g>
<!-- Node55&#45;&gt;Node20 -->
<g id="edge160" class="edge">
<title>Node55&#45;&gt;Node20</title>
<path fill="none" stroke="midnightblue" d="M3261.67,-523.26C3380.68,-521.06 3603.7,-512.46 3675.05,-479 3706.92,-464.06 3711.57,-452.31 3731.05,-423 3824.38,-282.59 3933.83,-186.48 3827.05,-56 3804.99,-29.04 3707.44,-17.87 3648.92,-13.53"/>
<polygon fill="midnightblue" stroke="midnightblue" points="3649.04,-10.03 3638.82,-12.82 3648.55,-17.01 3649.04,-10.03"/>
</g>
<!-- Node55&#45;&gt;Node42 -->
<g id="edge157" class="edge">
<title>Node55&#45;&gt;Node42</title>
<path fill="none" stroke="midnightblue" d="M3200.79,-515.49C3221.94,-502.98 3255.05,-478.95 3238.05,-459 3213.8,-430.55 3119.8,-420.01 3047.33,-416.16"/>
<polygon fill="midnightblue" stroke="midnightblue" points="3047.41,-412.66 3037.25,-415.65 3047.06,-419.65 3047.41,-412.66"/>
</g>
<!-- Node55&#45;&gt;Node50 -->
<g id="edge158" class="edge">
<title>Node55&#45;&gt;Node50</title>
<path fill="none" stroke="midnightblue" d="M3108.24,-518.04C2975.07,-507.71 2702.7,-486.58 2568.03,-476.13"/>
<polygon fill="midnightblue" stroke="midnightblue" points="2568.03,-472.62 2557.79,-475.33 2567.49,-479.6 2568.03,-472.62"/>
</g>
</g>
</svg>
