<?xml version="1.0" encoding="UTF-8" standalone="no"?>
<!DOCTYPE svg PUBLIC "-//W3C//DTD SVG 1.1//EN"
 "http://www.w3.org/Graphics/SVG/1.1/DTD/svg11.dtd">
<!-- Generated by graphviz version 2.43.0 (0)
 -->
<!-- Title: Options.hpp Pages: 1 -->
<svg width="2034pt" height="319pt"
 viewBox="0.00 0.00 2033.50 319.00" xmlns="http://www.w3.org/2000/svg" xmlns:xlink="http://www.w3.org/1999/xlink">
<g id="graph0" class="graph" transform="scale(1 1) rotate(0) translate(4 315)">
<title>Options.hpp</title>
<!-- Node1 -->
<g id="node1" class="node">
<title>Node1</title>
<g id="a_node1"><a xlink:title="List of all Options files.">
<polygon fill="#bfbfbf" stroke="black" points="923,-291.5 923,-310.5 1003,-310.5 1003,-291.5 923,-291.5"/>
<text text-anchor="middle" x="963" y="-298.5" font-family="serif" font-size="10.00">Options.hpp</text>
</a>
</g>
</g>
<!-- Node2 -->
<g id="node2" class="node">
<title>Node2</title>
<g id="a_node2"><a xlink:href="AnalyticalFunctionOptions_8hpp.html" target="_top" xlink:title="Options for Analytical functions.">
<polygon fill="none" stroke="black" points="938.5,-224.5 938.5,-254.5 1093.5,-254.5 1093.5,-224.5 938.5,-224.5"/>
<text text-anchor="start" x="946.5" y="-242.5" font-family="serif" font-size="10.00">Options/AnalyticalFunction</text>
<text text-anchor="middle" x="1016" y="-231.5" font-family="serif" font-size="10.00">Options.hpp</text>
</a>
</g>
</g>
<!-- Node1&#45;&gt;Node2 -->
<g id="edge1" class="edge">
<title>Node1&#45;&gt;Node2</title>
<path fill="none" stroke="midnightblue" d="M970.59,-291.48C977.37,-283.87 987.59,-272.4 996.61,-262.26"/>
<polygon fill="midnightblue" stroke="midnightblue" points="999.47,-264.32 1003.51,-254.52 994.24,-259.66 999.47,-264.32"/>
</g>
<!-- Node4 -->
<g id="node4" class="node">
<title>Node4</title>
<g id="a_node4"><a xlink:href="Utils_8hpp.html" target="_top" xlink:title="List of all Utils files.">
<polygon fill="none" stroke="black" points="970.5,-168.5 970.5,-187.5 1059.5,-187.5 1059.5,-168.5 970.5,-168.5"/>
<text text-anchor="middle" x="1015" y="-175.5" font-family="serif" font-size="10.00">Utils/Utils.hpp</text>
</a>
</g>
</g>
<!-- Node1&#45;&gt;Node4 -->
<g id="edge78" class="edge">
<title>Node1&#45;&gt;Node4</title>
<path fill="none" stroke="midnightblue" d="M953.64,-291.22C939.33,-276.7 915.08,-247 929,-224 938.41,-208.46 955.15,-198.02 971.38,-191.15"/>
<polygon fill="midnightblue" stroke="midnightblue" points="972.75,-194.37 980.82,-187.51 970.23,-187.85 972.75,-194.37"/>
</g>
<!-- Node28 -->
<g id="node28" class="node">
<title>Node28</title>
<g id="a_node28"><a xlink:href="CalphadOptions_8hpp.html" target="_top" xlink:title="Options for Calphad problems.">
<polygon fill="none" stroke="black" points="1860.5,-230 1860.5,-249 2025.5,-249 2025.5,-230 1860.5,-230"/>
<text text-anchor="middle" x="1943" y="-237" font-family="serif" font-size="10.00">Options/CalphadOptions.hpp</text>
</a>
</g>
</g>
<!-- Node1&#45;&gt;Node28 -->
<g id="edge50" class="edge">
<title>Node1&#45;&gt;Node28</title>
<path fill="none" stroke="midnightblue" d="M1003.39,-299.47C1129.19,-297.5 1525.11,-288.84 1851,-255 1861.96,-253.86 1873.6,-252.3 1884.79,-250.63"/>
<polygon fill="midnightblue" stroke="midnightblue" points="1885.55,-254.05 1894.9,-249.06 1884.48,-247.13 1885.55,-254.05"/>
</g>
<!-- Node29 -->
<g id="node29" class="node">
<title>Node29</title>
<g id="a_node29"><a xlink:href="DiffusionOptions_8hpp.html" target="_top" xlink:title="Option for Mass Diffusion problems.">
<polygon fill="none" stroke="black" points="166,-230 166,-249 334,-249 334,-230 166,-230"/>
<text text-anchor="middle" x="250" y="-237" font-family="serif" font-size="10.00">Options/DiffusionOptions.hpp</text>
</a>
</g>
</g>
<!-- Node1&#45;&gt;Node29 -->
<g id="edge55" class="edge">
<title>Node1&#45;&gt;Node29</title>
<path fill="none" stroke="midnightblue" d="M922.64,-298.22C823.63,-293.61 560.94,-279.86 343,-255 332.19,-253.77 320.7,-252.19 309.63,-250.54"/>
<polygon fill="midnightblue" stroke="midnightblue" points="310.02,-247.06 299.61,-249.01 308.97,-253.98 310.02,-247.06"/>
</g>
<!-- Node30 -->
<g id="node30" class="node">
<title>Node30</title>
<g id="a_node30"><a xlink:href="IntegratorsOptions_8hpp.html" target="_top" xlink:title="Options for Integrators.">
<polygon fill="none" stroke="black" points="1111.5,-230 1111.5,-249 1290.5,-249 1290.5,-230 1111.5,-230"/>
<text text-anchor="middle" x="1201" y="-237" font-family="serif" font-size="10.00">Options/IntegratorsOptions.hpp</text>
</a>
</g>
</g>
<!-- Node1&#45;&gt;Node30 -->
<g id="edge57" class="edge">
<title>Node1&#45;&gt;Node30</title>
<path fill="none" stroke="midnightblue" d="M997.1,-291.48C1039.25,-280.94 1111.05,-262.99 1157.23,-251.44"/>
<polygon fill="midnightblue" stroke="midnightblue" points="1158.11,-254.83 1166.96,-249.01 1156.41,-248.04 1158.11,-254.83"/>
</g>
<!-- Node31 -->
<g id="node31" class="node">
<title>Node31</title>
<g id="a_node31"><a xlink:href="PhaseFieldOptions_8hpp.html" target="_top" xlink:title="Options for PhaseField problems.">
<polygon fill="none" stroke="black" points="352.5,-230 352.5,-249 531.5,-249 531.5,-230 352.5,-230"/>
<text text-anchor="middle" x="442" y="-237" font-family="serif" font-size="10.00">Options/PhaseFieldOptions.hpp</text>
</a>
</g>
</g>
<!-- Node1&#45;&gt;Node31 -->
<g id="edge60" class="edge">
<title>Node1&#45;&gt;Node31</title>
<path fill="none" stroke="midnightblue" d="M922.79,-296.24C847.68,-289.1 680.98,-272.71 541,-255 530.18,-253.63 518.71,-252.06 507.57,-250.47"/>
<polygon fill="midnightblue" stroke="midnightblue" points="507.85,-246.98 497.45,-249.01 506.85,-253.9 507.85,-246.98"/>
</g>
<!-- Node32 -->
<g id="node32" class="node">
<title>Node32</title>
<g id="a_node32"><a xlink:href="PhysicalConvergenceOptions_8hpp.html" target="_top" xlink:title="Options for PhysicalConvergence objects.">
<polygon fill="none" stroke="black" points="1308.5,-224.5 1308.5,-254.5 1477.5,-254.5 1477.5,-224.5 1308.5,-224.5"/>
<text text-anchor="start" x="1316.5" y="-242.5" font-family="serif" font-size="10.00">Options/PhysicalConvergence</text>
<text text-anchor="middle" x="1393" y="-231.5" font-family="serif" font-size="10.00">Options.hpp</text>
</a>
</g>
</g>
<!-- Node1&#45;&gt;Node32 -->
<g id="edge62" class="edge">
<title>Node1&#45;&gt;Node32</title>
<path fill="none" stroke="midnightblue" d="M1003.12,-294.89C1064.32,-287.04 1184.92,-271.33 1298.22,-255.09"/>
<polygon fill="midnightblue" stroke="midnightblue" points="1299.06,-258.51 1308.46,-253.62 1298.06,-251.58 1299.06,-258.51"/>
</g>
<!-- Node33 -->
<g id="node33" class="node">
<title>Node33</title>
<g id="a_node33"><a xlink:href="PhysicalPropertiesOptions_8hpp.html" target="_top" xlink:title="Options for physical properties.">
<polygon fill="none" stroke="black" points="550,-224.5 550,-254.5 704,-254.5 704,-224.5 550,-224.5"/>
<text text-anchor="start" x="558" y="-242.5" font-family="serif" font-size="10.00">Options/PhysicalProperties</text>
<text text-anchor="middle" x="627" y="-231.5" font-family="serif" font-size="10.00">Options.hpp</text>
</a>
</g>
</g>
<!-- Node1&#45;&gt;Node33 -->
<g id="edge65" class="edge">
<title>Node1&#45;&gt;Node33</title>
<path fill="none" stroke="midnightblue" d="M922.8,-292.88C871.61,-283.82 781.71,-267.9 714.42,-255.98"/>
<polygon fill="midnightblue" stroke="midnightblue" points="714.7,-252.48 704.24,-254.18 713.48,-259.37 714.7,-252.48"/>
</g>
<!-- Node34 -->
<g id="node34" class="node">
<title>Node34</title>
<g id="a_node34"><a xlink:href="ProblemsOptions_8hpp.html" target="_top" xlink:title="Options for Problem objects.">
<polygon fill="none" stroke="black" points="1496,-230 1496,-249 1666,-249 1666,-230 1496,-230"/>
<text text-anchor="middle" x="1581" y="-237" font-family="serif" font-size="10.00">Options/ProblemsOptions.hpp</text>
</a>
</g>
</g>
<!-- Node1&#45;&gt;Node34 -->
<g id="edge67" class="edge">
<title>Node1&#45;&gt;Node34</title>
<path fill="none" stroke="midnightblue" d="M1003.12,-297.45C1090.86,-291.67 1306.37,-276.41 1486,-255 1496.78,-253.71 1508.22,-252.15 1519.29,-250.52"/>
<polygon fill="midnightblue" stroke="midnightblue" points="1519.94,-253.96 1529.31,-249.02 1518.91,-247.04 1519.94,-253.96"/>
</g>
<!-- Node35 -->
<g id="node35" class="node">
<title>Node35</title>
<g id="a_node35"><a xlink:href="SolversOptions_8hpp.html" target="_top" xlink:title="Options for solvers and preconditioners.">
<polygon fill="none" stroke="black" points="722,-230 722,-249 882,-249 882,-230 722,-230"/>
<text text-anchor="middle" x="802" y="-237" font-family="serif" font-size="10.00">Options/SolversOptions.hpp</text>
</a>
</g>
</g>
<!-- Node1&#45;&gt;Node35 -->
<g id="edge70" class="edge">
<title>Node1&#45;&gt;Node35</title>
<path fill="none" stroke="midnightblue" d="M939.93,-291.48C912.32,-281.27 865.88,-264.11 834.6,-252.55"/>
<polygon fill="midnightblue" stroke="midnightblue" points="835.62,-249.19 825.02,-249.01 833.19,-255.76 835.62,-249.19"/>
</g>
<!-- Node36 -->
<g id="node36" class="node">
<title>Node36</title>
<g id="a_node36"><a xlink:href="SpatialOptions_8hpp.html" target="_top" xlink:title="Options for Spatial discretization.">
<polygon fill="none" stroke="black" points="1684,-230 1684,-249 1842,-249 1842,-230 1684,-230"/>
<text text-anchor="middle" x="1763" y="-237" font-family="serif" font-size="10.00">Options/SpatialOptions.hpp</text>
</a>
</g>
</g>
<!-- Node1&#45;&gt;Node36 -->
<g id="edge72" class="edge">
<title>Node1&#45;&gt;Node36</title>
<path fill="none" stroke="midnightblue" d="M1003.27,-298.87C1111.96,-295.51 1420.26,-283.96 1675,-255 1685.26,-253.83 1696.15,-252.29 1706.64,-250.65"/>
<polygon fill="midnightblue" stroke="midnightblue" points="1707.22,-254.1 1716.54,-249.05 1706.11,-247.19 1707.22,-254.1"/>
</g>
<!-- Node37 -->
<g id="node37" class="node">
<title>Node37</title>
<g id="a_node37"><a xlink:href="TimeOptions_8hpp.html" target="_top" xlink:title="Options for Time discretization.">
<polygon fill="none" stroke="black" points="0,-230 0,-249 148,-249 148,-230 0,-230"/>
<text text-anchor="middle" x="74" y="-237" font-family="serif" font-size="10.00">Options/TimeOptions.hpp</text>
</a>
</g>
</g>
<!-- Node1&#45;&gt;Node37 -->
<g id="edge75" class="edge">
<title>Node1&#45;&gt;Node37</title>
<path fill="none" stroke="midnightblue" d="M922.6,-299.42C804.44,-297.35 449.39,-288.59 157,-255 147.4,-253.9 137.23,-252.4 127.42,-250.78"/>
<polygon fill="midnightblue" stroke="midnightblue" points="127.81,-247.3 117.37,-249.06 126.64,-254.2 127.81,-247.3"/>
</g>
<!-- Node3 -->
<g id="node3" class="node">
<title>Node3</title>
<g id="a_node3"><a xlink:title=" ">
<polygon fill="none" stroke="#bfbfbf" points="1443.5,-0.5 1443.5,-19.5 1490.5,-19.5 1490.5,-0.5 1443.5,-0.5"/>
<text text-anchor="middle" x="1467" y="-7.5" font-family="serif" font-size="10.00">string</text>
</a>
</g>
</g>
<!-- Node2&#45;&gt;Node3 -->
<g id="edge2" class="edge">
<title>Node2&#45;&gt;Node3</title>
<path fill="none" stroke="midnightblue" d="M1067.53,-224.44C1145.34,-201.63 1295.39,-151.37 1405,-76 1424.58,-62.54 1442.82,-42.07 1454.37,-27.71"/>
<polygon fill="midnightblue" stroke="midnightblue" points="1457.25,-29.71 1460.66,-19.67 1451.74,-25.4 1457.25,-29.71"/>
</g>
<!-- Node2&#45;&gt;Node4 -->
<g id="edge3" class="edge">
<title>Node2&#45;&gt;Node4</title>
<path fill="none" stroke="midnightblue" d="M1015.76,-224.4C1015.63,-216.47 1015.46,-206.46 1015.32,-197.86"/>
<polygon fill="midnightblue" stroke="midnightblue" points="1018.81,-197.6 1015.15,-187.66 1011.81,-197.72 1018.81,-197.6"/>
</g>
<!-- Node5 -->
<g id="node5" class="node">
<title>Node5</title>
<g id="a_node5"><a xlink:href="UtilsForData_8hpp.html" target="_top" xlink:title="Usefull methods for data.">
<polygon fill="none" stroke="black" points="493.5,-56.5 493.5,-75.5 624.5,-75.5 624.5,-56.5 493.5,-56.5"/>
<text text-anchor="middle" x="559" y="-63.5" font-family="serif" font-size="10.00">Utils/UtilsForData.hpp</text>
</a>
</g>
</g>
<!-- Node4&#45;&gt;Node5 -->
<g id="edge4" class="edge">
<title>Node4&#45;&gt;Node5</title>
<path fill="none" stroke="midnightblue" d="M970.22,-176.28C878.31,-174.11 671.89,-165.54 611,-132 591.48,-121.25 576.61,-99.86 567.87,-84.55"/>
<polygon fill="midnightblue" stroke="midnightblue" points="570.84,-82.7 563.02,-75.55 564.68,-86.01 570.84,-82.7"/>
</g>
<!-- Node18 -->
<g id="node18" class="node">
<title>Node18</title>
<g id="a_node18"><a xlink:href="UtilsForDebug_8hpp.html" target="_top" xlink:title="Usefull methods for debug.">
<polygon fill="none" stroke="black" points="620.5,-112.5 620.5,-131.5 761.5,-131.5 761.5,-112.5 620.5,-112.5"/>
<text text-anchor="middle" x="691" y="-119.5" font-family="serif" font-size="10.00">Utils/UtilsForDebug.hpp</text>
</a>
</g>
</g>
<!-- Node4&#45;&gt;Node18 -->
<g id="edge18" class="edge">
<title>Node4&#45;&gt;Node18</title>
<path fill="none" stroke="midnightblue" d="M970.29,-169.55C913.6,-160.1 815.63,-143.77 752.08,-133.18"/>
<polygon fill="midnightblue" stroke="midnightblue" points="752.63,-129.72 742.19,-131.53 751.48,-136.63 752.63,-129.72"/>
</g>
<!-- Node21 -->
<g id="node21" class="node">
<title>Node21</title>
<g id="a_node21"><a xlink:href="UtilsForOptions_8hpp.html" target="_top" xlink:title="Usefull methods for Options.">
<polygon fill="none" stroke="black" points="939,-56.5 939,-75.5 1085,-75.5 1085,-56.5 939,-56.5"/>
<text text-anchor="middle" x="1012" y="-63.5" font-family="serif" font-size="10.00">Utils/UtilsForOptions.hpp</text>
</a>
</g>
</g>
<!-- Node4&#45;&gt;Node21 -->
<g id="edge29" class="edge">
<title>Node4&#45;&gt;Node21</title>
<path fill="none" stroke="midnightblue" d="M1014.76,-168.37C1014.28,-150.62 1013.16,-109.67 1012.51,-85.6"/>
<polygon fill="midnightblue" stroke="midnightblue" points="1016.01,-85.49 1012.23,-75.59 1009.01,-85.68 1016.01,-85.49"/>
</g>
<!-- Node24 -->
<g id="node24" class="node">
<title>Node24</title>
<g id="a_node24"><a xlink:href="UtilsForPostProcessing_8hpp.html" target="_top" xlink:title="Usefull methods for post&#45;processing.">
<polygon fill="none" stroke="black" points="1103.5,-56.5 1103.5,-75.5 1286.5,-75.5 1286.5,-56.5 1103.5,-56.5"/>
<text text-anchor="middle" x="1195" y="-63.5" font-family="serif" font-size="10.00">Utils/UtilsForPostProcessing.hpp</text>
</a>
</g>
</g>
<!-- Node4&#45;&gt;Node24 -->
<g id="edge39" class="edge">
<title>Node4&#45;&gt;Node24</title>
<path fill="none" stroke="midnightblue" d="M1029.12,-168.37C1060.14,-149.41 1134.45,-104 1172.19,-80.94"/>
<polygon fill="midnightblue" stroke="midnightblue" points="1174.23,-83.79 1180.94,-75.59 1170.58,-77.82 1174.23,-83.79"/>
</g>
<!-- Node25 -->
<g id="node25" class="node">
<title>Node25</title>
<g id="a_node25"><a xlink:href="UtilsForVariants_8hpp.html" target="_top" xlink:title="manage std::Variants">
<polygon fill="none" stroke="black" points="140,-56.5 140,-75.5 288,-75.5 288,-56.5 140,-56.5"/>
<text text-anchor="middle" x="214" y="-63.5" font-family="serif" font-size="10.00">Utils/UtilsForVariants.hpp</text>
</a>
</g>
</g>
<!-- Node4&#45;&gt;Node25 -->
<g id="edge46" class="edge">
<title>Node4&#45;&gt;Node25</title>
<path fill="none" stroke="midnightblue" d="M970.31,-173.35C892.03,-166.73 725.13,-151.58 585,-132 471.27,-116.11 338.99,-91.43 267.13,-77.5"/>
<polygon fill="midnightblue" stroke="midnightblue" points="267.46,-74 256.97,-75.53 266.12,-80.87 267.46,-74"/>
</g>
<!-- Node5&#45;&gt;Node3 -->
<g id="edge13" class="edge">
<title>Node5&#45;&gt;Node3</title>
<path fill="none" stroke="midnightblue" d="M624.78,-61.08C651.26,-59.5 682.08,-57.66 710,-56 989.53,-39.36 1327.12,-19.31 1433.34,-13"/>
<polygon fill="midnightblue" stroke="midnightblue" points="1433.68,-16.49 1443.45,-12.4 1433.26,-9.5 1433.68,-16.49"/>
</g>
<!-- Node6 -->
<g id="node6" class="node">
<title>Node6</title>
<g id="a_node6"><a xlink:title=" ">
<polygon fill="none" stroke="#bfbfbf" points="377.5,-0.5 377.5,-19.5 436.5,-19.5 436.5,-0.5 377.5,-0.5"/>
<text text-anchor="middle" x="407" y="-7.5" font-family="serif" font-size="10.00">unistd.h</text>
</a>
</g>
</g>
<!-- Node5&#45;&gt;Node6 -->
<g id="edge5" class="edge">
<title>Node5&#45;&gt;Node6</title>
<path fill="none" stroke="midnightblue" d="M534.92,-56.44C509.46,-47.4 469.11,-33.06 440.54,-22.92"/>
<polygon fill="midnightblue" stroke="midnightblue" points="441.57,-19.57 430.97,-19.52 439.22,-26.16 441.57,-19.57"/>
</g>
<!-- Node7 -->
<g id="node7" class="node">
<title>Node7</title>
<g id="a_node7"><a xlink:title=" ">
<polygon fill="none" stroke="#bfbfbf" points="1045,-0.5 1045,-19.5 1111,-19.5 1111,-0.5 1045,-0.5"/>
<text text-anchor="middle" x="1078" y="-7.5" font-family="serif" font-size="10.00">algorithm</text>
</a>
</g>
</g>
<!-- Node5&#45;&gt;Node7 -->
<g id="edge6" class="edge">
<title>Node5&#45;&gt;Node7</title>
<path fill="none" stroke="midnightblue" d="M624.88,-61.23C715.2,-55.52 882.68,-42.99 1034.61,-20.05"/>
<polygon fill="midnightblue" stroke="midnightblue" points="1035.24,-23.5 1044.59,-18.53 1034.18,-16.58 1035.24,-23.5"/>
</g>
<!-- Node8 -->
<g id="node8" class="node">
<title>Node8</title>
<g id="a_node8"><a xlink:title=" ">
<polygon fill="none" stroke="#bfbfbf" points="542,-0.5 542,-19.5 592,-19.5 592,-0.5 542,-0.5"/>
<text text-anchor="middle" x="567" y="-7.5" font-family="serif" font-size="10.00">cctype</text>
</a>
</g>
</g>
<!-- Node5&#45;&gt;Node8 -->
<g id="edge7" class="edge">
<title>Node5&#45;&gt;Node8</title>
<path fill="none" stroke="midnightblue" d="M560.32,-56.08C561.38,-48.93 562.91,-38.64 564.23,-29.69"/>
<polygon fill="midnightblue" stroke="midnightblue" points="567.7,-30.16 565.7,-19.75 560.78,-29.13 567.7,-30.16"/>
</g>
<!-- Node9 -->
<g id="node9" class="node">
<title>Node9</title>
<g id="a_node9"><a xlink:title=" ">
<polygon fill="none" stroke="#bfbfbf" points="241.5,-0.5 241.5,-19.5 288.5,-19.5 288.5,-0.5 241.5,-0.5"/>
<text text-anchor="middle" x="265" y="-7.5" font-family="serif" font-size="10.00">cstdio</text>
</a>
</g>
</g>
<!-- Node5&#45;&gt;Node9 -->
<g id="edge8" class="edge">
<title>Node5&#45;&gt;Node9</title>
<path fill="none" stroke="midnightblue" d="M498.82,-56.48C447.78,-48.85 372.46,-36.61 298.63,-20.2"/>
<polygon fill="midnightblue" stroke="midnightblue" points="299.22,-16.74 288.7,-17.96 297.68,-23.57 299.22,-16.74"/>
</g>
<!-- Node10 -->
<g id="node10" class="node">
<title>Node10</title>
<g id="a_node10"><a xlink:title=" ">
<polygon fill="none" stroke="#bfbfbf" points="610,-0.5 610,-19.5 678,-19.5 678,-0.5 610,-0.5"/>
<text text-anchor="middle" x="644" y="-7.5" font-family="serif" font-size="10.00">filesystem</text>
</a>
</g>
</g>
<!-- Node5&#45;&gt;Node10 -->
<g id="edge9" class="edge">
<title>Node5&#45;&gt;Node10</title>
<path fill="none" stroke="midnightblue" d="M572.66,-56.32C585.92,-47.9 606.27,-34.97 621.85,-25.07"/>
<polygon fill="midnightblue" stroke="midnightblue" points="623.81,-27.97 630.38,-19.65 620.06,-22.06 623.81,-27.97"/>
</g>
<!-- Node11 -->
<g id="node11" class="node">
<title>Node11</title>
<g id="a_node11"><a xlink:title=" ">
<polygon fill="none" stroke="#bfbfbf" points="754,-0.5 754,-19.5 822,-19.5 822,-0.5 754,-0.5"/>
<text text-anchor="middle" x="788" y="-7.5" font-family="serif" font-size="10.00">functional</text>
</a>
</g>
</g>
<!-- Node5&#45;&gt;Node11 -->
<g id="edge10" class="edge">
<title>Node5&#45;&gt;Node11</title>
<path fill="none" stroke="midnightblue" d="M595.29,-56.44C635.57,-46.94 700.59,-31.61 743.8,-21.42"/>
<polygon fill="midnightblue" stroke="midnightblue" points="744.82,-24.78 753.75,-19.08 743.22,-17.96 744.82,-24.78"/>
</g>
<!-- Node12 -->
<g id="node12" class="node">
<title>Node12</title>
<g id="a_node12"><a xlink:title=" ">
<polygon fill="none" stroke="#bfbfbf" points="901.5,-0.5 901.5,-19.5 962.5,-19.5 962.5,-0.5 901.5,-0.5"/>
<text text-anchor="middle" x="932" y="-7.5" font-family="serif" font-size="10.00">iostream</text>
</a>
</g>
</g>
<!-- Node5&#45;&gt;Node12 -->
<g id="edge11" class="edge">
<title>Node5&#45;&gt;Node12</title>
<path fill="none" stroke="midnightblue" d="M624.66,-57.84C689.85,-50.34 792.8,-37.45 891.62,-19.92"/>
<polygon fill="midnightblue" stroke="midnightblue" points="892.26,-23.36 901.48,-18.15 891.02,-16.47 892.26,-23.36"/>
</g>
<!-- Node13 -->
<g id="node13" class="node">
<title>Node13</title>
<g id="a_node13"><a xlink:title=" ">
<polygon fill="none" stroke="#bfbfbf" points="696.5,-0.5 696.5,-19.5 735.5,-19.5 735.5,-0.5 696.5,-0.5"/>
<text text-anchor="middle" x="716" y="-7.5" font-family="serif" font-size="10.00">map</text>
</a>
</g>
</g>
<!-- Node5&#45;&gt;Node13 -->
<g id="edge12" class="edge">
<title>Node5&#45;&gt;Node13</title>
<path fill="none" stroke="midnightblue" d="M583.88,-56.44C611.72,-46.87 656.81,-31.36 686.43,-21.17"/>
<polygon fill="midnightblue" stroke="midnightblue" points="687.89,-24.37 696.21,-17.81 685.62,-17.75 687.89,-24.37"/>
</g>
<!-- Node14 -->
<g id="node14" class="node">
<title>Node14</title>
<g id="a_node14"><a xlink:title=" ">
<polygon fill="none" stroke="#bfbfbf" points="840.5,-0.5 840.5,-19.5 883.5,-19.5 883.5,-0.5 840.5,-0.5"/>
<text text-anchor="middle" x="862" y="-7.5" font-family="serif" font-size="10.00">tuple</text>
</a>
</g>
</g>
<!-- Node5&#45;&gt;Node14 -->
<g id="edge14" class="edge">
<title>Node5&#45;&gt;Node14</title>
<path fill="none" stroke="midnightblue" d="M623.72,-56.5C676.82,-49.02 754.1,-36.99 830.6,-19.85"/>
<polygon fill="midnightblue" stroke="midnightblue" points="831.43,-23.25 840.41,-17.62 829.88,-16.42 831.43,-23.25"/>
</g>
<!-- Node15 -->
<g id="node15" class="node">
<title>Node15</title>
<g id="a_node15"><a xlink:title=" ">
<polygon fill="none" stroke="#bfbfbf" points="981,-0.5 981,-19.5 1027,-19.5 1027,-0.5 981,-0.5"/>
<text text-anchor="middle" x="1004" y="-7.5" font-family="serif" font-size="10.00">utility</text>
</a>
</g>
</g>
<!-- Node5&#45;&gt;Node15 -->
<g id="edge15" class="edge">
<title>Node5&#45;&gt;Node15</title>
<path fill="none" stroke="midnightblue" d="M624.76,-61.02C704.41,-55.49 842.7,-43.6 970.69,-19.74"/>
<polygon fill="midnightblue" stroke="midnightblue" points="971.5,-23.15 980.67,-17.85 970.19,-16.27 971.5,-23.15"/>
</g>
<!-- Node16 -->
<g id="node16" class="node">
<title>Node16</title>
<g id="a_node16"><a xlink:title=" ">
<polygon fill="none" stroke="#bfbfbf" points="1129,-0.5 1129,-19.5 1177,-19.5 1177,-0.5 1129,-0.5"/>
<text text-anchor="middle" x="1153" y="-7.5" font-family="serif" font-size="10.00">vector</text>
</a>
</g>
</g>
<!-- Node5&#45;&gt;Node16 -->
<g id="edge16" class="edge">
<title>Node5&#45;&gt;Node16</title>
<path fill="none" stroke="midnightblue" d="M624.74,-60.42C755.7,-51.2 1042.47,-30.49 1118.91,-19.69"/>
<polygon fill="midnightblue" stroke="midnightblue" points="1119.63,-23.12 1128.97,-18.11 1118.54,-16.21 1119.63,-23.12"/>
</g>
<!-- Node17 -->
<g id="node17" class="node">
<title>Node17</title>
<g id="a_node17"><a xlink:title=" ">
<polygon fill="none" stroke="#bfbfbf" points="454.5,-0.5 454.5,-19.5 523.5,-19.5 523.5,-0.5 454.5,-0.5"/>
<text text-anchor="middle" x="489" y="-7.5" font-family="serif" font-size="10.00">mfem.hpp</text>
</a>
</g>
</g>
<!-- Node5&#45;&gt;Node17 -->
<g id="edge17" class="edge">
<title>Node5&#45;&gt;Node17</title>
<path fill="none" stroke="midnightblue" d="M547.75,-56.32C537.2,-48.18 521.2,-35.84 508.56,-26.09"/>
<polygon fill="midnightblue" stroke="midnightblue" points="510.51,-23.17 500.45,-19.83 506.23,-28.71 510.51,-23.17"/>
</g>
<!-- Node18&#45;&gt;Node3 -->
<g id="edge25" class="edge">
<title>Node18&#45;&gt;Node3</title>
<path fill="none" stroke="midnightblue" d="M761.54,-118.28C898.37,-112.59 1195.16,-98.1 1295,-76 1348.1,-64.25 1406.71,-39.35 1439.97,-24.01"/>
<polygon fill="midnightblue" stroke="midnightblue" points="1441.87,-26.98 1449.44,-19.58 1438.9,-20.64 1441.87,-26.98"/>
</g>
<!-- Node18&#45;&gt;Node5 -->
<g id="edge27" class="edge">
<title>Node18&#45;&gt;Node5</title>
<path fill="none" stroke="midnightblue" d="M670.08,-112.44C648.26,-103.52 613.85,-89.44 589.11,-79.32"/>
<polygon fill="midnightblue" stroke="midnightblue" points="590.4,-76.06 579.82,-75.52 587.75,-82.54 590.4,-76.06"/>
</g>
<!-- Node18&#45;&gt;Node6 -->
<g id="edge20" class="edge">
<title>Node18&#45;&gt;Node6</title>
<path fill="none" stroke="midnightblue" d="M620.17,-116.41C576.02,-111.17 519.21,-99.96 474,-76 451.74,-64.2 431.8,-42.76 419.58,-27.74"/>
<polygon fill="midnightblue" stroke="midnightblue" points="422.24,-25.46 413.31,-19.76 416.74,-29.78 422.24,-25.46"/>
</g>
<!-- Node18&#45;&gt;Node9 -->
<g id="edge21" class="edge">
<title>Node18&#45;&gt;Node9</title>
<path fill="none" stroke="midnightblue" d="M627.92,-112.5C577.62,-105.01 505.64,-92.68 444,-76 390.26,-61.46 329.78,-37.93 294.67,-23.52"/>
<polygon fill="midnightblue" stroke="midnightblue" points="295.62,-20.13 285.04,-19.54 292.95,-26.6 295.62,-20.13"/>
</g>
<!-- Node18&#45;&gt;Node11 -->
<g id="edge23" class="edge">
<title>Node18&#45;&gt;Node11</title>
<path fill="none" stroke="midnightblue" d="M685.22,-112.21C677.29,-98.93 665.26,-73.42 677,-56 685.26,-43.74 718.61,-31.21 746.61,-22.5"/>
<polygon fill="midnightblue" stroke="midnightblue" points="747.69,-25.83 756.25,-19.58 745.66,-19.13 747.69,-25.83"/>
</g>
<!-- Node18&#45;&gt;Node12 -->
<g id="edge24" class="edge">
<title>Node18&#45;&gt;Node12</title>
<path fill="none" stroke="midnightblue" d="M690.87,-112.39C691.15,-98.38 693.86,-70.76 710,-56 768.59,-2.41 808.29,-34.45 891.61,-19.86"/>
<polygon fill="midnightblue" stroke="midnightblue" points="892.29,-23.3 901.44,-17.96 890.96,-16.42 892.29,-23.3"/>
</g>
<!-- Node18&#45;&gt;Node15 -->
<g id="edge26" class="edge">
<title>Node18&#45;&gt;Node15</title>
<path fill="none" stroke="midnightblue" d="M751.34,-112.44C792.02,-105.49 846.38,-93.86 892,-76 901.25,-72.38 951.1,-42.78 981.09,-24.8"/>
<polygon fill="midnightblue" stroke="midnightblue" points="982.92,-27.78 989.69,-19.63 979.32,-21.78 982.92,-27.78"/>
</g>
<!-- Node18&#45;&gt;Node17 -->
<g id="edge28" class="edge">
<title>Node18&#45;&gt;Node17</title>
<path fill="none" stroke="midnightblue" d="M620.41,-115.01C567.37,-108.88 501.05,-97.15 484,-76 473.59,-63.08 476.74,-43.64 481.34,-29.38"/>
<polygon fill="midnightblue" stroke="midnightblue" points="484.74,-30.28 484.93,-19.68 478.18,-27.84 484.74,-30.28"/>
</g>
<!-- Node19 -->
<g id="node19" class="node">
<title>Node19</title>
<g id="a_node19"><a xlink:title=" ">
<polygon fill="none" stroke="#bfbfbf" points="719,-56.5 719,-75.5 809,-75.5 809,-56.5 719,-56.5"/>
<text text-anchor="middle" x="764" y="-63.5" font-family="serif" font-size="10.00">sys/resource.h</text>
</a>
</g>
</g>
<!-- Node18&#45;&gt;Node19 -->
<g id="edge19" class="edge">
<title>Node18&#45;&gt;Node19</title>
<path fill="none" stroke="midnightblue" d="M702.73,-112.32C713.84,-104.11 730.74,-91.6 743.98,-81.81"/>
<polygon fill="midnightblue" stroke="midnightblue" points="746.1,-84.59 752.06,-75.83 741.94,-78.97 746.1,-84.59"/>
</g>
<!-- Node20 -->
<g id="node20" class="node">
<title>Node20</title>
<g id="a_node20"><a xlink:title=" ">
<polygon fill="none" stroke="#bfbfbf" points="827,-56.5 827,-75.5 883,-75.5 883,-56.5 827,-56.5"/>
<text text-anchor="middle" x="855" y="-63.5" font-family="serif" font-size="10.00">fstream</text>
</a>
</g>
</g>
<!-- Node18&#45;&gt;Node20 -->
<g id="edge22" class="edge">
<title>Node18&#45;&gt;Node20</title>
<path fill="none" stroke="midnightblue" d="M716.99,-112.44C744.7,-103.32 788.75,-88.81 819.62,-78.65"/>
<polygon fill="midnightblue" stroke="midnightblue" points="820.73,-81.97 829.14,-75.52 818.54,-75.32 820.73,-81.97"/>
</g>
<!-- Node21&#45;&gt;Node3 -->
<g id="edge34" class="edge">
<title>Node21&#45;&gt;Node3</title>
<path fill="none" stroke="midnightblue" d="M1083.85,-56.47C1183.38,-44.66 1359.27,-23.79 1432.99,-15.04"/>
<polygon fill="midnightblue" stroke="midnightblue" points="1433.59,-18.49 1443.11,-13.84 1432.76,-11.54 1433.59,-18.49"/>
</g>
<!-- Node21&#45;&gt;Node7 -->
<g id="edge30" class="edge">
<title>Node21&#45;&gt;Node7</title>
<path fill="none" stroke="midnightblue" d="M1022.6,-56.32C1032.46,-48.26 1047.35,-36.08 1059.22,-26.37"/>
<polygon fill="midnightblue" stroke="midnightblue" points="1061.68,-28.88 1067.2,-19.83 1057.25,-23.46 1061.68,-28.88"/>
</g>
<!-- Node21&#45;&gt;Node11 -->
<g id="edge31" class="edge">
<title>Node21&#45;&gt;Node11</title>
<path fill="none" stroke="midnightblue" d="M976.51,-56.44C937.33,-47 874.24,-31.79 831.97,-21.6"/>
<polygon fill="midnightblue" stroke="midnightblue" points="832.77,-18.19 822.23,-19.25 831.13,-25 832.77,-18.19"/>
</g>
<!-- Node21&#45;&gt;Node12 -->
<g id="edge32" class="edge">
<title>Node21&#45;&gt;Node12</title>
<path fill="none" stroke="midnightblue" d="M999.15,-56.32C986.78,-47.98 967.87,-35.21 953.26,-25.35"/>
<polygon fill="midnightblue" stroke="midnightblue" points="955.07,-22.35 944.82,-19.65 951.15,-28.15 955.07,-22.35"/>
</g>
<!-- Node21&#45;&gt;Node14 -->
<g id="edge35" class="edge">
<title>Node21&#45;&gt;Node14</title>
<path fill="none" stroke="midnightblue" d="M988.23,-56.44C962.52,-47.19 921.41,-32.39 893.13,-22.21"/>
<polygon fill="midnightblue" stroke="midnightblue" points="894.3,-18.91 883.71,-18.82 891.93,-25.5 894.3,-18.91"/>
</g>
<!-- Node21&#45;&gt;Node15 -->
<g id="edge36" class="edge">
<title>Node21&#45;&gt;Node15</title>
<path fill="none" stroke="midnightblue" d="M1010.68,-56.08C1009.62,-48.93 1008.09,-38.64 1006.77,-29.69"/>
<polygon fill="midnightblue" stroke="midnightblue" points="1010.22,-29.13 1005.3,-19.75 1003.3,-30.16 1010.22,-29.13"/>
</g>
<!-- Node21&#45;&gt;Node16 -->
<g id="edge38" class="edge">
<title>Node21&#45;&gt;Node16</title>
<path fill="none" stroke="midnightblue" d="M1034.34,-56.44C1057.75,-47.48 1094.74,-33.31 1121.19,-23.18"/>
<polygon fill="midnightblue" stroke="midnightblue" points="1122.68,-26.36 1130.76,-19.52 1120.17,-19.82 1122.68,-26.36"/>
</g>
<!-- Node22 -->
<g id="node22" class="node">
<title>Node22</title>
<g id="a_node22"><a xlink:title=" ">
<polygon fill="none" stroke="#bfbfbf" points="1195,-0.5 1195,-19.5 1239,-19.5 1239,-0.5 1195,-0.5"/>
<text text-anchor="middle" x="1217" y="-7.5" font-family="serif" font-size="10.00">limits</text>
</a>
</g>
</g>
<!-- Node21&#45;&gt;Node22 -->
<g id="edge33" class="edge">
<title>Node21&#45;&gt;Node22</title>
<path fill="none" stroke="midnightblue" d="M1046.41,-56.42C1079.58,-48.08 1131.41,-34.86 1185,-20.22"/>
<polygon fill="midnightblue" stroke="midnightblue" points="1185.95,-23.59 1194.67,-17.57 1184.1,-16.84 1185.95,-23.59"/>
</g>
<!-- Node23 -->
<g id="node23" class="node">
<title>Node23</title>
<g id="a_node23"><a xlink:title=" ">
<polygon fill="none" stroke="#bfbfbf" points="306.5,-0.5 306.5,-19.5 359.5,-19.5 359.5,-0.5 306.5,-0.5"/>
<text text-anchor="middle" x="333" y="-7.5" font-family="serif" font-size="10.00">variant</text>
</a>
</g>
</g>
<!-- Node21&#45;&gt;Node23 -->
<g id="edge37" class="edge">
<title>Node21&#45;&gt;Node23</title>
<path fill="none" stroke="midnightblue" d="M938.71,-59.43C923.28,-58.28 907.11,-57.09 892,-56 662.46,-39.51 600.2,-56.72 369.69,-20"/>
<polygon fill="midnightblue" stroke="midnightblue" points="370.08,-16.52 359.65,-18.39 368.96,-23.43 370.08,-16.52"/>
</g>
<!-- Node24&#45;&gt;Node3 -->
<g id="edge43" class="edge">
<title>Node24&#45;&gt;Node3</title>
<path fill="none" stroke="midnightblue" d="M1238.1,-56.44C1292.36,-45.67 1384.42,-27.39 1433.63,-17.62"/>
<polygon fill="midnightblue" stroke="midnightblue" points="1434.33,-21.06 1443.45,-15.67 1432.96,-14.19 1434.33,-21.06"/>
</g>
<!-- Node24&#45;&gt;Node7 -->
<g id="edge40" class="edge">
<title>Node24&#45;&gt;Node7</title>
<path fill="none" stroke="midnightblue" d="M1176.46,-56.44C1157.38,-47.64 1127.43,-33.81 1105.56,-23.72"/>
<polygon fill="midnightblue" stroke="midnightblue" points="1107,-20.53 1096.45,-19.52 1104.07,-26.88 1107,-20.53"/>
</g>
<!-- Node24&#45;&gt;Node12 -->
<g id="edge41" class="edge">
<title>Node24&#45;&gt;Node12</title>
<path fill="none" stroke="midnightblue" d="M1151.36,-56.49C1108.47,-48.06 1040.89,-34.6 972.63,-20.1"/>
<polygon fill="midnightblue" stroke="midnightblue" points="973.07,-16.61 962.56,-17.95 971.61,-23.46 973.07,-16.61"/>
</g>
<!-- Node24&#45;&gt;Node15 -->
<g id="edge44" class="edge">
<title>Node24&#45;&gt;Node15</title>
<path fill="none" stroke="midnightblue" d="M1164.74,-56.44C1129.98,-46.62 1073.15,-30.55 1037.21,-20.39"/>
<polygon fill="midnightblue" stroke="midnightblue" points="1037.79,-16.92 1027.21,-17.56 1035.88,-23.65 1037.79,-16.92"/>
</g>
<!-- Node24&#45;&gt;Node16 -->
<g id="edge45" class="edge">
<title>Node24&#45;&gt;Node16</title>
<path fill="none" stroke="midnightblue" d="M1188.06,-56.08C1182.07,-48.38 1173.25,-37.03 1165.95,-27.65"/>
<polygon fill="midnightblue" stroke="midnightblue" points="1168.71,-25.5 1159.81,-19.75 1163.18,-29.79 1168.71,-25.5"/>
</g>
<!-- Node24&#45;&gt;Node22 -->
<g id="edge42" class="edge">
<title>Node24&#45;&gt;Node22</title>
<path fill="none" stroke="midnightblue" d="M1198.63,-56.08C1201.61,-48.77 1205.93,-38.18 1209.62,-29.1"/>
<polygon fill="midnightblue" stroke="midnightblue" points="1212.9,-30.33 1213.43,-19.75 1206.42,-27.69 1212.9,-30.33"/>
</g>
<!-- Node25&#45;&gt;Node23 -->
<g id="edge49" class="edge">
<title>Node25&#45;&gt;Node23</title>
<path fill="none" stroke="midnightblue" d="M232.86,-56.44C252.27,-47.64 282.73,-33.81 304.96,-23.72"/>
<polygon fill="midnightblue" stroke="midnightblue" points="306.57,-26.84 314.23,-19.52 303.68,-20.46 306.57,-26.84"/>
</g>
<!-- Node26 -->
<g id="node26" class="node">
<title>Node26</title>
<g id="a_node26"><a xlink:title=" ">
<polygon fill="none" stroke="#bfbfbf" points="75.5,-0.5 75.5,-19.5 134.5,-19.5 134.5,-0.5 75.5,-0.5"/>
<text text-anchor="middle" x="105" y="-7.5" font-family="serif" font-size="10.00">memory</text>
</a>
</g>
</g>
<!-- Node25&#45;&gt;Node26 -->
<g id="edge47" class="edge">
<title>Node25&#45;&gt;Node26</title>
<path fill="none" stroke="midnightblue" d="M196.49,-56.32C178.93,-47.62 151.67,-34.12 131.47,-24.11"/>
<polygon fill="midnightblue" stroke="midnightblue" points="132.98,-20.96 122.47,-19.65 129.88,-27.23 132.98,-20.96"/>
</g>
<!-- Node27 -->
<g id="node27" class="node">
<title>Node27</title>
<g id="a_node27"><a xlink:title=" ">
<polygon fill="none" stroke="#bfbfbf" points="152.5,-0.5 152.5,-19.5 223.5,-19.5 223.5,-0.5 152.5,-0.5"/>
<text text-anchor="middle" x="188" y="-7.5" font-family="serif" font-size="10.00">type_traits</text>
</a>
</g>
</g>
<!-- Node25&#45;&gt;Node27 -->
<g id="edge48" class="edge">
<title>Node25&#45;&gt;Node27</title>
<path fill="none" stroke="midnightblue" d="M209.71,-56.08C206.15,-48.69 200.98,-37.95 196.58,-28.81"/>
<polygon fill="midnightblue" stroke="midnightblue" points="199.71,-27.24 192.21,-19.75 193.4,-30.28 199.71,-27.24"/>
</g>
<!-- Node28&#45;&gt;Node3 -->
<g id="edge52" class="edge">
<title>Node28&#45;&gt;Node3</title>
<path fill="none" stroke="midnightblue" d="M1927.42,-229.95C1877.78,-202.85 1718.55,-117.07 1582,-56 1554.77,-43.82 1523.17,-31.59 1500,-22.96"/>
<polygon fill="midnightblue" stroke="midnightblue" points="1501.21,-19.68 1490.62,-19.49 1498.78,-26.24 1501.21,-19.68"/>
</g>
<!-- Node28&#45;&gt;Node4 -->
<g id="edge54" class="edge">
<title>Node28&#45;&gt;Node4</title>
<path fill="none" stroke="midnightblue" d="M1894.9,-229.97C1880.79,-227.72 1865.31,-225.51 1851,-224 1557.56,-193.06 1203.82,-182.89 1069.92,-180.01"/>
<polygon fill="midnightblue" stroke="midnightblue" points="1069.61,-176.5 1059.54,-179.79 1069.46,-183.5 1069.61,-176.5"/>
</g>
<!-- Node28&#45;&gt;Node16 -->
<g id="edge53" class="edge">
<title>Node28&#45;&gt;Node16</title>
<path fill="none" stroke="midnightblue" d="M1902.01,-230C1857.84,-220.61 1785.59,-204.62 1724,-188 1669.96,-173.41 1301.48,-57.71 1186.92,-21.67"/>
<polygon fill="midnightblue" stroke="midnightblue" points="1187.84,-18.3 1177.25,-18.63 1185.74,-24.97 1187.84,-18.3"/>
</g>
<!-- Node28&#45;&gt;Node22 -->
<g id="edge51" class="edge">
<title>Node28&#45;&gt;Node22</title>
<path fill="none" stroke="midnightblue" d="M1916.64,-229.99C1835.07,-203.69 1579.51,-121.54 1367,-56 1326.27,-43.44 1279.17,-29.39 1248.78,-20.38"/>
<polygon fill="midnightblue" stroke="midnightblue" points="1249.73,-17.01 1239.14,-17.53 1247.74,-23.72 1249.73,-17.01"/>
</g>
<!-- Node29&#45;&gt;Node4 -->
<g id="edge56" class="edge">
<title>Node29&#45;&gt;Node4</title>
<path fill="none" stroke="midnightblue" d="M299.11,-229.94C313.24,-227.72 328.7,-225.53 343,-224 614.36,-194.94 684.59,-216.61 956,-188 957.3,-187.86 958.62,-187.72 959.95,-187.56"/>
<polygon fill="midnightblue" stroke="midnightblue" points="960.79,-190.99 970.28,-186.27 959.92,-184.04 960.79,-190.99"/>
</g>
<!-- Node30&#45;&gt;Node3 -->
<g id="edge58" class="edge">
<title>Node30&#45;&gt;Node3</title>
<path fill="none" stroke="midnightblue" d="M1227.86,-229.93C1254.66,-220.96 1296.68,-205.71 1331,-188 1371.2,-167.25 1379.9,-159.26 1416,-132 1446.43,-109.02 1465.11,-110.66 1481,-76 1487.9,-60.95 1482.67,-42.36 1476.74,-28.92"/>
<polygon fill="midnightblue" stroke="midnightblue" points="1479.81,-27.22 1472.26,-19.79 1473.53,-30.31 1479.81,-27.22"/>
</g>
<!-- Node30&#45;&gt;Node4 -->
<g id="edge59" class="edge">
<title>Node30&#45;&gt;Node4</title>
<path fill="none" stroke="midnightblue" d="M1174.35,-229.98C1142.03,-219.64 1087.4,-202.16 1051.27,-190.6"/>
<polygon fill="midnightblue" stroke="midnightblue" points="1052.19,-187.22 1041.6,-187.51 1050.06,-193.89 1052.19,-187.22"/>
</g>
<!-- Node31&#45;&gt;Node4 -->
<g id="edge61" class="edge">
<title>Node31&#45;&gt;Node4</title>
<path fill="none" stroke="midnightblue" d="M496.13,-229.98C510.68,-227.86 526.42,-225.7 541,-224 724.89,-202.58 772.17,-209.97 956,-188 957.3,-187.84 958.62,-187.68 959.95,-187.51"/>
<polygon fill="midnightblue" stroke="midnightblue" points="960.82,-190.93 970.26,-186.14 959.89,-183.99 960.82,-190.93"/>
</g>
<!-- Node32&#45;&gt;Node3 -->
<g id="edge63" class="edge">
<title>Node32&#45;&gt;Node3</title>
<path fill="none" stroke="midnightblue" d="M1421.27,-224.38C1451.6,-207.34 1497.61,-175.47 1514,-132 1525.94,-100.33 1533.07,-86.79 1519,-56 1513.22,-43.36 1501.95,-32.91 1491.37,-25.27"/>
<polygon fill="midnightblue" stroke="midnightblue" points="1493.04,-22.18 1482.78,-19.53 1489.15,-28 1493.04,-22.18"/>
</g>
<!-- Node32&#45;&gt;Node4 -->
<g id="edge64" class="edge">
<title>Node32&#45;&gt;Node4</title>
<path fill="none" stroke="midnightblue" d="M1308.17,-225.15C1235.18,-213.66 1132.04,-197.42 1069.56,-187.59"/>
<polygon fill="midnightblue" stroke="midnightblue" points="1069.93,-184.1 1059.51,-186.01 1068.84,-191.02 1069.93,-184.1"/>
</g>
<!-- Node33&#45;&gt;Node4 -->
<g id="edge66" class="edge">
<title>Node33&#45;&gt;Node4</title>
<path fill="none" stroke="midnightblue" d="M704.34,-225.38C707.27,-224.91 710.16,-224.45 713,-224 820.83,-206.92 848.03,-204.23 956,-188 957.3,-187.81 958.61,-187.61 959.93,-187.41"/>
<polygon fill="midnightblue" stroke="midnightblue" points="960.86,-190.81 970.23,-185.85 959.81,-183.89 960.86,-190.81"/>
</g>
<!-- Node34&#45;&gt;Node3 -->
<g id="edge68" class="edge">
<title>Node34&#45;&gt;Node3</title>
<path fill="none" stroke="midnightblue" d="M1581.03,-229.97C1580.71,-202.21 1576.42,-112.95 1536,-56 1526.25,-42.26 1510.86,-31.64 1497.08,-24.17"/>
<polygon fill="midnightblue" stroke="midnightblue" points="1498.4,-20.91 1487.9,-19.51 1495.23,-27.15 1498.4,-20.91"/>
</g>
<!-- Node34&#45;&gt;Node4 -->
<g id="edge69" class="edge">
<title>Node34&#45;&gt;Node4</title>
<path fill="none" stroke="midnightblue" d="M1528.81,-229.99C1514.92,-227.88 1499.91,-225.72 1486,-224 1335.64,-205.36 1157.44,-190.22 1069.58,-183.21"/>
<polygon fill="midnightblue" stroke="midnightblue" points="1069.82,-179.72 1059.57,-182.42 1069.27,-186.7 1069.82,-179.72"/>
</g>
<!-- Node35&#45;&gt;Node4 -->
<g id="edge71" class="edge">
<title>Node35&#45;&gt;Node4</title>
<path fill="none" stroke="midnightblue" d="M832.52,-229.98C869.92,-219.53 933.43,-201.79 974.79,-190.23"/>
<polygon fill="midnightblue" stroke="midnightblue" points="975.85,-193.57 984.54,-187.51 973.97,-186.83 975.85,-193.57"/>
</g>
<!-- Node36&#45;&gt;Node3 -->
<g id="edge73" class="edge">
<title>Node36&#45;&gt;Node3</title>
<path fill="none" stroke="midnightblue" d="M1754.53,-229.65C1727.43,-201.65 1639.66,-113.48 1555,-56 1536.43,-43.39 1513.87,-31.92 1496.24,-23.72"/>
<polygon fill="midnightblue" stroke="midnightblue" points="1497.56,-20.47 1487.01,-19.51 1494.66,-26.84 1497.56,-20.47"/>
</g>
<!-- Node36&#45;&gt;Node4 -->
<g id="edge74" class="edge">
<title>Node36&#45;&gt;Node4</title>
<path fill="none" stroke="midnightblue" d="M1716.53,-229.99C1703.16,-227.78 1688.53,-225.57 1675,-224 1451.25,-198 1182.96,-185.43 1069.7,-180.97"/>
<polygon fill="midnightblue" stroke="midnightblue" points="1069.68,-177.46 1059.55,-180.57 1069.41,-184.46 1069.68,-177.46"/>
</g>
<!-- Node37&#45;&gt;Node3 -->
<g id="edge76" class="edge">
<title>Node37&#45;&gt;Node3</title>
<path fill="none" stroke="midnightblue" d="M120.47,-229.97C132.36,-227.9 145.14,-225.78 157,-224 681.47,-145.46 834.42,-232.88 1341,-76 1379.82,-63.98 1420.97,-40.43 1445.3,-25.22"/>
<polygon fill="midnightblue" stroke="midnightblue" points="1447.5,-27.97 1454.06,-19.65 1443.74,-22.07 1447.5,-27.97"/>
</g>
<!-- Node37&#45;&gt;Node4 -->
<g id="edge77" class="edge">
<title>Node37&#45;&gt;Node4</title>
<path fill="none" stroke="midnightblue" d="M116.5,-230C129.45,-227.7 143.77,-225.45 157,-224 510.36,-185.33 602.24,-222.85 956,-188 957.31,-187.87 958.63,-187.73 959.96,-187.59"/>
<polygon fill="midnightblue" stroke="midnightblue" points="960.78,-191.01 970.29,-186.33 959.94,-184.06 960.78,-191.01"/>
</g>
</g>
</svg>
