<?xml version="1.0" encoding="UTF-8" standalone="no"?>
<!DOCTYPE svg PUBLIC "-//W3C//DTD SVG 1.1//EN"
 "http://www.w3.org/Graphics/SVG/1.1/DTD/svg11.dtd">
<!-- Generated by graphviz version 2.43.0 (0)
 -->
<!-- Title: postprocessing.hpp Pages: 1 -->
<svg width="520pt" height="252pt"
 viewBox="0.00 0.00 520.45 252.00" xmlns="http://www.w3.org/2000/svg" xmlns:xlink="http://www.w3.org/1999/xlink">
<g id="graph0" class="graph" transform="scale(1 1) rotate(0) translate(4 248)">
<title>postprocessing.hpp</title>
<!-- Node1 -->
<g id="node1" class="node">
<title>Node1</title>
<g id="a_node1"><a xlink:title="Post&#45;processing features.">
<polygon fill="#bfbfbf" stroke="black" points="78.95,-224.5 78.95,-243.5 195.95,-243.5 195.95,-224.5 78.95,-224.5"/>
<text text-anchor="middle" x="137.45" y="-231.5" font-family="serif" font-size="10.00">postprocessing.hpp</text>
</a>
</g>
</g>
<!-- Node2 -->
<g id="node2" class="node">
<title>Node2</title>
<g id="a_node2"><a xlink:href="MPIProblem_8hpp.html" target="_top" xlink:title="Class used to defined a MPI_Problem objet.">
<polygon fill="none" stroke="black" points="408.45,-112.5 408.45,-131.5 512.45,-131.5 512.45,-112.5 408.45,-112.5"/>
<text text-anchor="middle" x="460.45" y="-119.5" font-family="serif" font-size="10.00">MPIProblem.hpp</text>
</a>
</g>
</g>
<!-- Node1&#45;&gt;Node2 -->
<g id="edge1" class="edge">
<title>Node1&#45;&gt;Node2</title>
<path fill="none" stroke="midnightblue" d="M172.39,-221.1C237.92,-198.79 377.85,-151.13 435.17,-131.61"/>
<polygon fill="midnightblue" stroke="midnightblue" points="170.87,-217.92 162.53,-224.46 173.12,-224.55 170.87,-217.92"/>
</g>
<!-- Node4 -->
<g id="node4" class="node">
<title>Node4</title>
<g id="a_node4"><a xlink:href="sloth_8hpp.html" target="_top" xlink:title="List of SLOTH header files.">
<polygon fill="none" stroke="black" points="21.95,-0.5 21.95,-19.5 86.95,-19.5 86.95,-0.5 21.95,-0.5"/>
<text text-anchor="middle" x="54.45" y="-7.5" font-family="serif" font-size="10.00">sloth.hpp</text>
</a>
</g>
</g>
<!-- Node1&#45;&gt;Node4 -->
<g id="edge15" class="edge">
<title>Node1&#45;&gt;Node4</title>
<path fill="none" stroke="midnightblue" d="M106.79,-220.08C74.33,-204.52 24.89,-175 3.45,-132 -4.48,-116.09 3.37,-74.55 12.45,-56 19.69,-41.22 33.42,-27.94 43.21,-19.7"/>
<polygon fill="midnightblue" stroke="midnightblue" points="105.72,-223.44 116.27,-224.46 108.66,-217.08 105.72,-223.44"/>
</g>
<!-- Node5 -->
<g id="node5" class="node">
<title>Node5</title>
<g id="a_node5"><a xlink:href="Problem_8hpp.html" target="_top" xlink:title="Class used to defined a PDE Problem.">
<polygon fill="none" stroke="black" points="12.95,-112.5 12.95,-131.5 95.95,-131.5 95.95,-112.5 12.95,-112.5"/>
<text text-anchor="middle" x="54.45" y="-119.5" font-family="serif" font-size="10.00">Problem.hpp</text>
</a>
</g>
</g>
<!-- Node1&#45;&gt;Node5 -->
<g id="edge4" class="edge">
<title>Node1&#45;&gt;Node5</title>
<path fill="none" stroke="midnightblue" d="M124.83,-216.27C106.89,-192.49 74.67,-149.79 60.94,-131.59"/>
<polygon fill="midnightblue" stroke="midnightblue" points="122.12,-218.49 130.94,-224.37 127.71,-214.28 122.12,-218.49"/>
</g>
<!-- Node7 -->
<g id="node7" class="node">
<title>Node7</title>
<g id="a_node7"><a xlink:href="ProblemBase_8hpp.html" target="_top" xlink:title="Base class for building Problems.">
<polygon fill="none" stroke="black" points="125.95,-168.5 125.95,-187.5 232.95,-187.5 232.95,-168.5 125.95,-168.5"/>
<text text-anchor="middle" x="179.45" y="-175.5" font-family="serif" font-size="10.00">ProblemBase.hpp</text>
</a>
</g>
</g>
<!-- Node1&#45;&gt;Node7 -->
<g id="edge8" class="edge">
<title>Node1&#45;&gt;Node7</title>
<path fill="none" stroke="midnightblue" d="M150.56,-216.14C157.88,-206.74 166.69,-195.4 172.65,-187.75"/>
<polygon fill="midnightblue" stroke="midnightblue" points="147.77,-214.04 144.39,-224.08 153.29,-218.34 147.77,-214.04"/>
</g>
<!-- Node3 -->
<g id="node3" class="node">
<title>Node3</title>
<g id="a_node3"><a xlink:href="ListProblems_8hpp.html" target="_top" xlink:title=" ">
<polygon fill="none" stroke="black" points="125.95,-56.5 125.95,-75.5 232.95,-75.5 232.95,-56.5 125.95,-56.5"/>
<text text-anchor="middle" x="179.45" y="-63.5" font-family="serif" font-size="10.00">ListProblems.hpp</text>
</a>
</g>
</g>
<!-- Node2&#45;&gt;Node3 -->
<g id="edge2" class="edge">
<title>Node2&#45;&gt;Node3</title>
<path fill="none" stroke="midnightblue" d="M406.01,-110.54C352.9,-100.33 273.12,-85 223.77,-75.52"/>
<polygon fill="midnightblue" stroke="midnightblue" points="405.45,-113.99 415.93,-112.44 406.77,-107.12 405.45,-113.99"/>
</g>
<!-- Node3&#45;&gt;Node4 -->
<g id="edge3" class="edge">
<title>Node3&#45;&gt;Node4</title>
<path fill="none" stroke="midnightblue" d="M150.21,-52.37C126.8,-42.26 94.61,-28.35 74.17,-19.52"/>
<polygon fill="midnightblue" stroke="midnightblue" points="149.08,-55.69 159.65,-56.44 151.86,-49.26 149.08,-55.69"/>
</g>
<!-- Node5&#45;&gt;Node3 -->
<g id="edge5" class="edge">
<title>Node5&#45;&gt;Node3</title>
<path fill="none" stroke="midnightblue" d="M83.7,-108.37C107.1,-98.26 139.3,-84.35 159.74,-75.52"/>
<polygon fill="midnightblue" stroke="midnightblue" points="82.05,-105.26 74.26,-112.44 84.83,-111.69 82.05,-105.26"/>
</g>
<!-- Node6 -->
<g id="node6" class="node">
<title>Node6</title>
<g id="a_node6"><a xlink:href="Time_8hpp.html" target="_top" xlink:title="Main time loop.">
<polygon fill="none" stroke="black" points="21.95,-56.5 21.95,-75.5 86.95,-75.5 86.95,-56.5 21.95,-56.5"/>
<text text-anchor="middle" x="54.45" y="-63.5" font-family="serif" font-size="10.00">Time.hpp</text>
</a>
</g>
</g>
<!-- Node5&#45;&gt;Node6 -->
<g id="edge6" class="edge">
<title>Node5&#45;&gt;Node6</title>
<path fill="none" stroke="midnightblue" d="M54.45,-101.8C54.45,-92.91 54.45,-82.78 54.45,-75.75"/>
<polygon fill="midnightblue" stroke="midnightblue" points="50.95,-102.08 54.45,-112.08 57.95,-102.08 50.95,-102.08"/>
</g>
<!-- Node6&#45;&gt;Node4 -->
<g id="edge7" class="edge">
<title>Node6&#45;&gt;Node4</title>
<path fill="none" stroke="midnightblue" d="M54.45,-45.8C54.45,-36.91 54.45,-26.78 54.45,-19.75"/>
<polygon fill="midnightblue" stroke="midnightblue" points="50.95,-46.08 54.45,-56.08 57.95,-46.08 50.95,-46.08"/>
</g>
<!-- Node7&#45;&gt;Node2 -->
<g id="edge11" class="edge">
<title>Node7&#45;&gt;Node2</title>
<path fill="none" stroke="midnightblue" d="M233.9,-166.54C287.01,-156.33 366.79,-141 416.14,-131.52"/>
<polygon fill="midnightblue" stroke="midnightblue" points="233.14,-163.12 223.98,-168.44 234.46,-169.99 233.14,-163.12"/>
</g>
<!-- Node7&#45;&gt;Node5 -->
<g id="edge12" class="edge">
<title>Node7&#45;&gt;Node5</title>
<path fill="none" stroke="midnightblue" d="M150.21,-164.37C126.8,-154.26 94.61,-140.35 74.17,-131.52"/>
<polygon fill="midnightblue" stroke="midnightblue" points="149.08,-167.69 159.65,-168.44 151.86,-161.26 149.08,-167.69"/>
</g>
<!-- Node8 -->
<g id="node8" class="node">
<title>Node8</title>
<g id="a_node8"><a xlink:href="Calphad__problem_8hpp.html" target="_top" xlink:title="Class used to defined a Calphad_Problem objet.">
<polygon fill="none" stroke="black" points="113.95,-112.5 113.95,-131.5 244.95,-131.5 244.95,-112.5 113.95,-112.5"/>
<text text-anchor="middle" x="179.45" y="-119.5" font-family="serif" font-size="10.00">Calphad_problem.hpp</text>
</a>
</g>
</g>
<!-- Node7&#45;&gt;Node8 -->
<g id="edge9" class="edge">
<title>Node7&#45;&gt;Node8</title>
<path fill="none" stroke="midnightblue" d="M179.45,-157.8C179.45,-148.91 179.45,-138.78 179.45,-131.75"/>
<polygon fill="midnightblue" stroke="midnightblue" points="175.95,-158.08 179.45,-168.08 182.95,-158.08 175.95,-158.08"/>
</g>
<!-- Node9 -->
<g id="node9" class="node">
<title>Node9</title>
<g id="a_node9"><a xlink:href="PropertyProblem_8hpp.html" target="_top" xlink:title="Class used to compute primary variables as a function of auxialiary variables.">
<polygon fill="none" stroke="black" points="262.95,-112.5 262.95,-131.5 389.95,-131.5 389.95,-112.5 262.95,-112.5"/>
<text text-anchor="middle" x="326.45" y="-119.5" font-family="serif" font-size="10.00">PropertyProblem.hpp</text>
</a>
</g>
</g>
<!-- Node7&#45;&gt;Node9 -->
<g id="edge13" class="edge">
<title>Node7&#45;&gt;Node9</title>
<path fill="none" stroke="midnightblue" d="M212.38,-164.91C240.01,-154.75 278.8,-140.51 303.27,-131.52"/>
<polygon fill="midnightblue" stroke="midnightblue" points="210.93,-161.71 202.75,-168.44 213.34,-168.28 210.93,-161.71"/>
</g>
<!-- Node8&#45;&gt;Node3 -->
<g id="edge10" class="edge">
<title>Node8&#45;&gt;Node3</title>
<path fill="none" stroke="midnightblue" d="M179.45,-101.8C179.45,-92.91 179.45,-82.78 179.45,-75.75"/>
<polygon fill="midnightblue" stroke="midnightblue" points="175.95,-102.08 179.45,-112.08 182.95,-102.08 175.95,-102.08"/>
</g>
<!-- Node9&#45;&gt;Node3 -->
<g id="edge14" class="edge">
<title>Node9&#45;&gt;Node3</title>
<path fill="none" stroke="midnightblue" d="M293.53,-108.91C265.89,-98.75 227.11,-84.51 202.64,-75.52"/>
<polygon fill="midnightblue" stroke="midnightblue" points="292.57,-112.28 303.16,-112.44 294.98,-105.71 292.57,-112.28"/>
</g>
</g>
</svg>
