<?xml version="1.0" encoding="UTF-8" standalone="no"?>
<!DOCTYPE svg PUBLIC "-//W3C//DTD SVG 1.1//EN"
 "http://www.w3.org/Graphics/SVG/1.1/DTD/svg11.dtd">
<!-- Generated by graphviz version 2.43.0 (0)
 -->
<!-- Title: ProductFunctionCoefficients.cpp Pages: 1 -->
<svg width="999pt" height="207pt"
 viewBox="0.00 0.00 999.00 207.00" xmlns="http://www.w3.org/2000/svg" xmlns:xlink="http://www.w3.org/1999/xlink">
<g id="graph0" class="graph" transform="scale(1 1) rotate(0) translate(4 203)">
<title>ProductFunctionCoefficients.cpp</title>
<!-- Node1 -->
<g id="node1" class="node">
<title>Node1</title>
<g id="a_node1"><a xlink:title=" ">
<polygon fill="#bfbfbf" stroke="black" points="342.5,-179.5 342.5,-198.5 524.5,-198.5 524.5,-179.5 342.5,-179.5"/>
<text text-anchor="middle" x="433.5" y="-186.5" font-family="serif" font-size="10.00">ProductFunctionCoefficients.cpp</text>
</a>
</g>
</g>
<!-- Node2 -->
<g id="node2" class="node">
<title>Node2</title>
<g id="a_node2"><a xlink:href="ProductFunctionCoefficients_8hpp.html" target="_top" xlink:title=" ">
<polygon fill="none" stroke="black" points="351.5,-112.5 351.5,-142.5 515.5,-142.5 515.5,-112.5 351.5,-112.5"/>
<text text-anchor="start" x="359.5" y="-130.5" font-family="serif" font-size="10.00">Coefficients/ProductFunction</text>
<text text-anchor="middle" x="433.5" y="-119.5" font-family="serif" font-size="10.00">Coefficients.hpp</text>
</a>
</g>
</g>
<!-- Node1&#45;&gt;Node2 -->
<g id="edge1" class="edge">
<title>Node1&#45;&gt;Node2</title>
<path fill="none" stroke="midnightblue" d="M433.5,-179.48C433.5,-172.47 433.5,-162.19 433.5,-152.7"/>
<polygon fill="midnightblue" stroke="midnightblue" points="437,-152.52 433.5,-142.52 430,-152.52 437,-152.52"/>
</g>
<!-- Node3 -->
<g id="node3" class="node">
<title>Node3</title>
<g id="a_node3"><a xlink:title=" ">
<polygon fill="none" stroke="#bfbfbf" points="78,-0.5 78,-19.5 113,-19.5 113,-0.5 78,-0.5"/>
<text text-anchor="middle" x="95.5" y="-7.5" font-family="serif" font-size="10.00">any</text>
</a>
</g>
</g>
<!-- Node1&#45;&gt;Node3 -->
<g id="edge27" class="edge">
<title>Node1&#45;&gt;Node3</title>
<path fill="none" stroke="midnightblue" d="M364.07,-179.46C327.58,-172.99 282.98,-161.87 246.5,-143 188.2,-112.85 133.89,-55.53 109.3,-27.4"/>
<polygon fill="midnightblue" stroke="midnightblue" points="111.82,-24.97 102.65,-19.67 106.52,-29.54 111.82,-24.97"/>
</g>
<!-- Node4 -->
<g id="node4" class="node">
<title>Node4</title>
<g id="a_node4"><a xlink:title=" ">
<polygon fill="none" stroke="#bfbfbf" points="147.5,-0.5 147.5,-19.5 195.5,-19.5 195.5,-0.5 147.5,-0.5"/>
<text text-anchor="middle" x="171.5" y="-7.5" font-family="serif" font-size="10.00">cmath</text>
</a>
</g>
</g>
<!-- Node1&#45;&gt;Node4 -->
<g id="edge28" class="edge">
<title>Node1&#45;&gt;Node4</title>
<path fill="none" stroke="midnightblue" d="M382.56,-179.49C353.07,-172.87 316.22,-161.59 287.5,-143 239.85,-112.16 200.19,-56.42 182.07,-28.27"/>
<polygon fill="midnightblue" stroke="midnightblue" points="184.87,-26.15 176.59,-19.55 178.95,-29.87 184.87,-26.15"/>
</g>
<!-- Node5 -->
<g id="node5" class="node">
<title>Node5</title>
<g id="a_node5"><a xlink:title=" ">
<polygon fill="none" stroke="#bfbfbf" points="213.5,-0.5 213.5,-19.5 281.5,-19.5 281.5,-0.5 213.5,-0.5"/>
<text text-anchor="middle" x="247.5" y="-7.5" font-family="serif" font-size="10.00">functional</text>
</a>
</g>
</g>
<!-- Node1&#45;&gt;Node5 -->
<g id="edge29" class="edge">
<title>Node1&#45;&gt;Node5</title>
<path fill="none" stroke="midnightblue" d="M391.56,-179.43C367.62,-172.79 338.33,-161.51 317.5,-143 282.07,-111.51 261.55,-57.71 252.71,-29.51"/>
<polygon fill="midnightblue" stroke="midnightblue" points="256.01,-28.32 249.8,-19.74 249.3,-30.32 256.01,-28.32"/>
</g>
<!-- Node6 -->
<g id="node6" class="node">
<title>Node6</title>
<g id="a_node6"><a xlink:title=" ">
<polygon fill="none" stroke="#bfbfbf" points="325.5,-0.5 325.5,-19.5 369.5,-19.5 369.5,-0.5 325.5,-0.5"/>
<text text-anchor="middle" x="347.5" y="-7.5" font-family="serif" font-size="10.00">limits</text>
</a>
</g>
</g>
<!-- Node1&#45;&gt;Node6 -->
<g id="edge30" class="edge">
<title>Node1&#45;&gt;Node6</title>
<path fill="none" stroke="midnightblue" d="M387.14,-179.47C366.43,-173.1 343.92,-162.05 331.5,-143 308.58,-107.83 326.3,-56.01 338.48,-28.95"/>
<polygon fill="midnightblue" stroke="midnightblue" points="341.81,-30.11 342.94,-19.58 335.48,-27.11 341.81,-30.11"/>
</g>
<!-- Node7 -->
<g id="node7" class="node">
<title>Node7</title>
<g id="a_node7"><a xlink:title=" ">
<polygon fill="none" stroke="#bfbfbf" points="0,-0.5 0,-19.5 39,-19.5 39,-0.5 0,-0.5"/>
<text text-anchor="middle" x="19.5" y="-7.5" font-family="serif" font-size="10.00">map</text>
</a>
</g>
</g>
<!-- Node1&#45;&gt;Node7 -->
<g id="edge31" class="edge">
<title>Node1&#45;&gt;Node7</title>
<path fill="none" stroke="midnightblue" d="M342.29,-180.44C297,-174.29 242.32,-163.14 196.5,-143 129.78,-113.67 64.54,-55.1 35.38,-26.9"/>
<polygon fill="midnightblue" stroke="midnightblue" points="37.73,-24.3 28.14,-19.8 32.83,-29.3 37.73,-24.3"/>
</g>
<!-- Node8 -->
<g id="node8" class="node">
<title>Node8</title>
<g id="a_node8"><a xlink:title=" ">
<polygon fill="none" stroke="#bfbfbf" points="932,-0.5 932,-19.5 991,-19.5 991,-0.5 932,-0.5"/>
<text text-anchor="middle" x="961.5" y="-7.5" font-family="serif" font-size="10.00">memory</text>
</a>
</g>
</g>
<!-- Node1&#45;&gt;Node8 -->
<g id="edge32" class="edge">
<title>Node1&#45;&gt;Node8</title>
<path fill="none" stroke="midnightblue" d="M524.51,-183.57C585.84,-178.41 667.79,-167.23 736.5,-143 818.79,-113.98 904.66,-53.87 942.11,-25.91"/>
<polygon fill="midnightblue" stroke="midnightblue" points="944.69,-28.35 950.56,-19.53 940.47,-22.76 944.69,-28.35"/>
</g>
<!-- Node9 -->
<g id="node9" class="node">
<title>Node9</title>
<g id="a_node9"><a xlink:title=" ">
<polygon fill="none" stroke="#bfbfbf" points="628.5,-0.5 628.5,-19.5 686.5,-19.5 686.5,-0.5 628.5,-0.5"/>
<text text-anchor="middle" x="657.5" y="-7.5" font-family="serif" font-size="10.00">optional</text>
</a>
</g>
</g>
<!-- Node1&#45;&gt;Node9 -->
<g id="edge33" class="edge">
<title>Node1&#45;&gt;Node9</title>
<path fill="none" stroke="midnightblue" d="M483.99,-179.49C538.52,-167.25 622.41,-138.8 658.5,-76 666.58,-61.95 665.28,-43.21 662.58,-29.46"/>
<polygon fill="midnightblue" stroke="midnightblue" points="665.98,-28.62 660.27,-19.69 659.16,-30.23 665.98,-28.62"/>
</g>
<!-- Node10 -->
<g id="node10" class="node">
<title>Node10</title>
<g id="a_node10"><a xlink:title=" ">
<polygon fill="none" stroke="#bfbfbf" points="717.5,-0.5 717.5,-19.5 749.5,-19.5 749.5,-0.5 717.5,-0.5"/>
<text text-anchor="middle" x="733.5" y="-7.5" font-family="serif" font-size="10.00">set</text>
</a>
</g>
</g>
<!-- Node1&#45;&gt;Node10 -->
<g id="edge34" class="edge">
<title>Node1&#45;&gt;Node10</title>
<path fill="none" stroke="midnightblue" d="M510.72,-179.43C546.18,-173.08 587.74,-162.06 621.5,-143 670.43,-115.38 707.63,-57.7 724.13,-28.6"/>
<polygon fill="midnightblue" stroke="midnightblue" points="727.33,-30.04 729.09,-19.59 721.2,-26.66 727.33,-30.04"/>
</g>
<!-- Node11 -->
<g id="node11" class="node">
<title>Node11</title>
<g id="a_node11"><a xlink:title=" ">
<polygon fill="none" stroke="#bfbfbf" points="388,-0.5 388,-19.5 435,-19.5 435,-0.5 388,-0.5"/>
<text text-anchor="middle" x="411.5" y="-7.5" font-family="serif" font-size="10.00">string</text>
</a>
</g>
</g>
<!-- Node1&#45;&gt;Node11 -->
<g id="edge35" class="edge">
<title>Node1&#45;&gt;Node11</title>
<path fill="none" stroke="midnightblue" d="M395.53,-179.41C376.09,-172.88 354.12,-161.72 342.5,-143 317.17,-102.21 364.88,-51.15 393,-26.18"/>
<polygon fill="midnightblue" stroke="midnightblue" points="395.37,-28.76 400.67,-19.58 390.81,-23.45 395.37,-28.76"/>
</g>
<!-- Node12 -->
<g id="node12" class="node">
<title>Node12</title>
<g id="a_node12"><a xlink:title=" ">
<polygon fill="none" stroke="#bfbfbf" points="786.5,-0.5 786.5,-19.5 832.5,-19.5 832.5,-0.5 786.5,-0.5"/>
<text text-anchor="middle" x="809.5" y="-7.5" font-family="serif" font-size="10.00">utility</text>
</a>
</g>
</g>
<!-- Node1&#45;&gt;Node12 -->
<g id="edge36" class="edge">
<title>Node1&#45;&gt;Node12</title>
<path fill="none" stroke="midnightblue" d="M524.64,-180.11C566.15,-173.89 614.95,-162.8 655.5,-143 715.14,-113.87 770.45,-56.07 795.47,-27.62"/>
<polygon fill="midnightblue" stroke="midnightblue" points="798.34,-29.65 802.23,-19.79 793.04,-25.07 798.34,-29.65"/>
</g>
<!-- Node13 -->
<g id="node13" class="node">
<title>Node13</title>
<g id="a_node13"><a xlink:title=" ">
<polygon fill="none" stroke="#bfbfbf" points="861.5,-0.5 861.5,-19.5 909.5,-19.5 909.5,-0.5 861.5,-0.5"/>
<text text-anchor="middle" x="885.5" y="-7.5" font-family="serif" font-size="10.00">vector</text>
</a>
</g>
</g>
<!-- Node1&#45;&gt;Node13 -->
<g id="edge37" class="edge">
<title>Node1&#45;&gt;Node13</title>
<path fill="none" stroke="midnightblue" d="M524.59,-181.89C575.72,-176.11 639.83,-164.86 693.5,-143 765.03,-113.86 836.67,-54.76 868.46,-26.6"/>
<polygon fill="midnightblue" stroke="midnightblue" points="870.89,-29.12 876,-19.83 866.22,-23.91 870.89,-29.12"/>
</g>
<!-- Node14 -->
<g id="node14" class="node">
<title>Node14</title>
<g id="a_node14"><a xlink:href="FunctionCoefficient_8hpp.html" target="_top" xlink:title="Base class defining analytical expression, first and second derivatives of a Coefficient.">
<polygon fill="none" stroke="black" points="428,-56.5 428,-75.5 629,-75.5 629,-56.5 428,-56.5"/>
<text text-anchor="middle" x="528.5" y="-63.5" font-family="serif" font-size="10.00">Coefficients/FunctionCoefficient.hpp</text>
</a>
</g>
</g>
<!-- Node1&#45;&gt;Node14 -->
<g id="edge38" class="edge">
<title>Node1&#45;&gt;Node14</title>
<path fill="none" stroke="midnightblue" d="M470.16,-179.48C489.7,-172.92 512.19,-161.7 524.5,-143 535.6,-126.14 534.87,-102.34 532.49,-85.89"/>
<polygon fill="midnightblue" stroke="midnightblue" points="535.9,-85.07 530.69,-75.85 529.01,-86.31 535.9,-85.07"/>
</g>
<!-- Node2&#45;&gt;Node3 -->
<g id="edge2" class="edge">
<title>Node2&#45;&gt;Node3</title>
<path fill="none" stroke="midnightblue" d="M388.06,-112.47C356.41,-102.57 313.26,-88.85 275.5,-76 220.96,-57.44 157.73,-34.21 122.6,-21.14"/>
<polygon fill="midnightblue" stroke="midnightblue" points="123.65,-17.8 113.05,-17.58 121.2,-24.36 123.65,-17.8"/>
</g>
<!-- Node2&#45;&gt;Node4 -->
<g id="edge3" class="edge">
<title>Node2&#45;&gt;Node4</title>
<path fill="none" stroke="midnightblue" d="M401.64,-112.45C350.22,-89.79 249.74,-45.49 200.33,-23.71"/>
<polygon fill="midnightblue" stroke="midnightblue" points="201.44,-20.37 190.88,-19.54 198.62,-26.78 201.44,-20.37"/>
</g>
<!-- Node2&#45;&gt;Node5 -->
<g id="edge4" class="edge">
<title>Node2&#45;&gt;Node5</title>
<path fill="none" stroke="midnightblue" d="M410.69,-112.34C374.9,-90.11 305.92,-47.28 270.2,-25.09"/>
<polygon fill="midnightblue" stroke="midnightblue" points="271.8,-21.97 261.46,-19.67 268.11,-27.92 271.8,-21.97"/>
</g>
<!-- Node2&#45;&gt;Node6 -->
<g id="edge5" class="edge">
<title>Node2&#45;&gt;Node6</title>
<path fill="none" stroke="midnightblue" d="M422.95,-112.34C407.04,-90.96 376.93,-50.53 359.96,-27.73"/>
<polygon fill="midnightblue" stroke="midnightblue" points="362.73,-25.6 353.96,-19.67 357.12,-29.78 362.73,-25.6"/>
</g>
<!-- Node2&#45;&gt;Node7 -->
<g id="edge6" class="edge">
<title>Node2&#45;&gt;Node7</title>
<path fill="none" stroke="midnightblue" d="M366.46,-112.41C323.62,-103.02 267,-89.88 217.5,-76 156.9,-59 87.23,-35.09 48.8,-21.51"/>
<polygon fill="midnightblue" stroke="midnightblue" points="49.87,-18.18 39.28,-18.13 47.53,-24.78 49.87,-18.18"/>
</g>
<!-- Node2&#45;&gt;Node8 -->
<g id="edge7" class="edge">
<title>Node2&#45;&gt;Node8</title>
<path fill="none" stroke="midnightblue" d="M515.51,-118.2C583.81,-110.32 683.32,-96.6 768.5,-76 827.02,-61.85 893.08,-37.77 930.76,-23.22"/>
<polygon fill="midnightblue" stroke="midnightblue" points="932.1,-26.46 940.15,-19.57 929.57,-19.93 932.1,-26.46"/>
</g>
<!-- Node2&#45;&gt;Node9 -->
<g id="edge8" class="edge">
<title>Node2&#45;&gt;Node9</title>
<path fill="none" stroke="midnightblue" d="M515.69,-114.56C564.27,-105.94 619.67,-92.86 637.5,-76 650.09,-64.09 654.82,-44.48 656.56,-29.9"/>
<polygon fill="midnightblue" stroke="midnightblue" points="660.08,-29.79 657.41,-19.54 653.1,-29.22 660.08,-29.79"/>
</g>
<!-- Node2&#45;&gt;Node10 -->
<g id="edge9" class="edge">
<title>Node2&#45;&gt;Node10</title>
<path fill="none" stroke="midnightblue" d="M515.66,-117.95C559.79,-110.97 614.09,-98.41 658.5,-76 682.64,-63.82 705.37,-42.14 719.34,-27.19"/>
<polygon fill="midnightblue" stroke="midnightblue" points="722.03,-29.44 726.16,-19.68 716.85,-24.73 722.03,-29.44"/>
</g>
<!-- Node2&#45;&gt;Node11 -->
<g id="edge10" class="edge">
<title>Node2&#45;&gt;Node11</title>
<path fill="none" stroke="midnightblue" d="M428.46,-112.09C425.15,-102.08 420.98,-88.37 418.5,-76 415.43,-60.68 413.63,-43.04 412.63,-30"/>
<polygon fill="midnightblue" stroke="midnightblue" points="416.12,-29.65 411.95,-19.91 409.13,-30.12 416.12,-29.65"/>
</g>
<!-- Node2&#45;&gt;Node12 -->
<g id="edge11" class="edge">
<title>Node2&#45;&gt;Node12</title>
<path fill="none" stroke="midnightblue" d="M515.78,-116.39C566.32,-108.66 631.82,-95.88 687.5,-76 724.61,-62.75 764.31,-39.76 788.01,-24.97"/>
<polygon fill="midnightblue" stroke="midnightblue" points="789.98,-27.86 796.55,-19.56 786.23,-21.95 789.98,-27.86"/>
</g>
<!-- Node2&#45;&gt;Node13 -->
<g id="edge12" class="edge">
<title>Node2&#45;&gt;Node13</title>
<path fill="none" stroke="midnightblue" d="M515.76,-116.96C574.62,-108.99 655.34,-95.72 724.5,-76 772.89,-62.2 826.63,-38.76 858.17,-24.12"/>
<polygon fill="midnightblue" stroke="midnightblue" points="860.03,-27.11 867.59,-19.7 857.05,-20.78 860.03,-27.11"/>
</g>
<!-- Node2&#45;&gt;Node14 -->
<g id="edge13" class="edge">
<title>Node2&#45;&gt;Node14</title>
<path fill="none" stroke="midnightblue" d="M456.01,-112.4C471.1,-102.95 490.89,-90.56 505.97,-81.11"/>
<polygon fill="midnightblue" stroke="midnightblue" points="508.06,-83.93 514.68,-75.66 504.34,-78 508.06,-83.93"/>
</g>
<!-- Node14&#45;&gt;Node3 -->
<g id="edge14" class="edge">
<title>Node14&#45;&gt;Node3</title>
<path fill="none" stroke="midnightblue" d="M433.6,-56.5C354.42,-48.82 238.75,-36.24 138.5,-20 133.49,-19.19 128.19,-18.19 123.07,-17.16"/>
<polygon fill="midnightblue" stroke="midnightblue" points="123.51,-13.68 113.01,-15.04 122.07,-20.53 123.51,-13.68"/>
</g>
<!-- Node14&#45;&gt;Node4 -->
<g id="edge15" class="edge">
<title>Node14&#45;&gt;Node4</title>
<path fill="none" stroke="midnightblue" d="M445.77,-56.47C382.38,-49.25 292.63,-37.56 205.37,-19.95"/>
<polygon fill="midnightblue" stroke="midnightblue" points="206.06,-16.52 195.56,-17.95 204.66,-23.38 206.06,-16.52"/>
</g>
<!-- Node14&#45;&gt;Node5 -->
<g id="edge17" class="edge">
<title>Node14&#45;&gt;Node5</title>
<path fill="none" stroke="midnightblue" d="M483.97,-56.44C431.31,-46.32 344.18,-29.58 291.67,-19.49"/>
<polygon fill="midnightblue" stroke="midnightblue" points="292.13,-16.01 281.65,-17.56 290.81,-22.89 292.13,-16.01"/>
</g>
<!-- Node14&#45;&gt;Node6 -->
<g id="edge18" class="edge">
<title>Node14&#45;&gt;Node6</title>
<path fill="none" stroke="midnightblue" d="M499.82,-56.44C467.12,-46.69 413.79,-30.78 379.69,-20.6"/>
<polygon fill="midnightblue" stroke="midnightblue" points="380.35,-17.15 369.77,-17.64 378.35,-23.86 380.35,-17.15"/>
</g>
<!-- Node14&#45;&gt;Node7 -->
<g id="edge19" class="edge">
<title>Node14&#45;&gt;Node7</title>
<path fill="none" stroke="midnightblue" d="M427.71,-57.59C334.32,-50.15 191.67,-37.3 68.5,-20 62.35,-19.14 55.8,-18.05 49.56,-16.93"/>
<polygon fill="midnightblue" stroke="midnightblue" points="49.93,-13.44 39.46,-15.06 48.66,-20.33 49.93,-13.44"/>
</g>
<!-- Node14&#45;&gt;Node8 -->
<g id="edge20" class="edge">
<title>Node14&#45;&gt;Node8</title>
<path fill="none" stroke="midnightblue" d="M623.4,-56.5C702.58,-48.82 818.25,-36.24 918.5,-20 919.59,-19.82 920.7,-19.64 921.81,-19.44"/>
<polygon fill="midnightblue" stroke="midnightblue" points="922.77,-22.83 931.96,-17.55 921.49,-15.95 922.77,-22.83"/>
</g>
<!-- Node14&#45;&gt;Node9 -->
<g id="edge21" class="edge">
<title>Node14&#45;&gt;Node9</title>
<path fill="none" stroke="midnightblue" d="M548.94,-56.44C570.17,-47.56 603.6,-33.56 627.75,-23.45"/>
<polygon fill="midnightblue" stroke="midnightblue" points="629.28,-26.61 637.16,-19.52 626.58,-20.15 629.28,-26.61"/>
</g>
<!-- Node14&#45;&gt;Node10 -->
<g id="edge22" class="edge">
<title>Node14&#45;&gt;Node10</title>
<path fill="none" stroke="midnightblue" d="M560.98,-56.44C601.47,-45.78 669.87,-27.76 707.22,-17.92"/>
<polygon fill="midnightblue" stroke="midnightblue" points="708.54,-21.19 717.32,-15.26 706.76,-14.42 708.54,-21.19"/>
</g>
<!-- Node14&#45;&gt;Node11 -->
<g id="edge24" class="edge">
<title>Node14&#45;&gt;Node11</title>
<path fill="none" stroke="midnightblue" d="M509.96,-56.44C490.88,-47.64 460.93,-33.81 439.06,-23.72"/>
<polygon fill="midnightblue" stroke="midnightblue" points="440.5,-20.53 429.95,-19.52 437.57,-26.88 440.5,-20.53"/>
</g>
<!-- Node14&#45;&gt;Node12 -->
<g id="edge25" class="edge">
<title>Node14&#45;&gt;Node12</title>
<path fill="none" stroke="midnightblue" d="M573.03,-56.44C629.52,-45.59 725.66,-27.11 776.2,-17.4"/>
<polygon fill="midnightblue" stroke="midnightblue" points="777.1,-20.79 786.26,-15.47 775.78,-13.92 777.1,-20.79"/>
</g>
<!-- Node14&#45;&gt;Node13 -->
<g id="edge26" class="edge">
<title>Node14&#45;&gt;Node13</title>
<path fill="none" stroke="midnightblue" d="M595.84,-56.49C659.35,-48.18 757.13,-34.68 841.5,-20 844.73,-19.44 848.08,-18.82 851.43,-18.18"/>
<polygon fill="midnightblue" stroke="midnightblue" points="852.21,-21.59 861.34,-16.21 850.85,-14.72 852.21,-21.59"/>
</g>
<!-- Node15 -->
<g id="node15" class="node">
<title>Node15</title>
<g id="a_node15"><a xlink:title=" ">
<polygon fill="none" stroke="#bfbfbf" points="465.5,-0.5 465.5,-19.5 527.5,-19.5 527.5,-0.5 465.5,-0.5"/>
<text text-anchor="middle" x="496.5" y="-7.5" font-family="serif" font-size="10.00">concepts</text>
</a>
</g>
</g>
<!-- Node14&#45;&gt;Node15 -->
<g id="edge16" class="edge">
<title>Node14&#45;&gt;Node15</title>
<path fill="none" stroke="midnightblue" d="M523.22,-56.08C518.79,-48.61 512.34,-37.72 506.88,-28.52"/>
<polygon fill="midnightblue" stroke="midnightblue" points="509.79,-26.57 501.69,-19.75 503.77,-30.14 509.79,-26.57"/>
</g>
<!-- Node16 -->
<g id="node16" class="node">
<title>Node16</title>
<g id="a_node16"><a xlink:title=" ">
<polygon fill="none" stroke="#bfbfbf" points="546,-0.5 546,-19.5 587,-19.5 587,-0.5 546,-0.5"/>
<text text-anchor="middle" x="566.5" y="-7.5" font-family="serif" font-size="10.00">span</text>
</a>
</g>
</g>
<!-- Node14&#45;&gt;Node16 -->
<g id="edge23" class="edge">
<title>Node14&#45;&gt;Node16</title>
<path fill="none" stroke="midnightblue" d="M534.77,-56.08C540.14,-48.46 548.02,-37.26 554.58,-27.94"/>
<polygon fill="midnightblue" stroke="midnightblue" points="557.45,-29.94 560.34,-19.75 551.72,-25.91 557.45,-29.94"/>
</g>
</g>
</svg>
