<?xml version="1.0" encoding="UTF-8" standalone="no"?>
<!DOCTYPE svg PUBLIC "-//W3C//DTD SVG 1.1//EN"
 "http://www.w3.org/Graphics/SVG/1.1/DTD/svg11.dtd">
<!-- Generated by graphviz version 2.43.0 (0)
 -->
<!-- Title: PropertyProblem.tpp Pages: 1 -->
<svg width="135pt" height="196pt"
 viewBox="0.00 0.00 135.00 196.00" xmlns="http://www.w3.org/2000/svg" xmlns:xlink="http://www.w3.org/1999/xlink">
<g id="graph0" class="graph" transform="scale(1 1) rotate(0) translate(4 192)">
<title>PropertyProblem.tpp</title>
<!-- Node1 -->
<g id="node1" class="node">
<title>Node1</title>
<g id="a_node1"><a xlink:title=" ">
<polygon fill="#bfbfbf" stroke="black" points="1.5,-168.5 1.5,-187.5 125.5,-187.5 125.5,-168.5 1.5,-168.5"/>
<text text-anchor="middle" x="63.5" y="-175.5" font-family="serif" font-size="10.00">PropertyProblem.tpp</text>
</a>
</g>
</g>
<!-- Node2 -->
<g id="node2" class="node">
<title>Node2</title>
<g id="a_node2"><a xlink:href="PropertyProblem_8hpp.html" target="_top" xlink:title="Class used to compute primary variables as a function of auxialiary variables.">
<polygon fill="none" stroke="black" points="0,-112.5 0,-131.5 127,-131.5 127,-112.5 0,-112.5"/>
<text text-anchor="middle" x="63.5" y="-119.5" font-family="serif" font-size="10.00">PropertyProblem.hpp</text>
</a>
</g>
</g>
<!-- Node1&#45;&gt;Node2 -->
<g id="edge1" class="edge">
<title>Node1&#45;&gt;Node2</title>
<path fill="none" stroke="midnightblue" d="M63.5,-157.8C63.5,-148.91 63.5,-138.78 63.5,-131.75"/>
<polygon fill="midnightblue" stroke="midnightblue" points="60,-158.08 63.5,-168.08 67,-158.08 60,-158.08"/>
</g>
<!-- Node3 -->
<g id="node3" class="node">
<title>Node3</title>
<g id="a_node3"><a xlink:href="ListProblems_8hpp.html" target="_top" xlink:title=" ">
<polygon fill="none" stroke="black" points="10,-56.5 10,-75.5 117,-75.5 117,-56.5 10,-56.5"/>
<text text-anchor="middle" x="63.5" y="-63.5" font-family="serif" font-size="10.00">ListProblems.hpp</text>
</a>
</g>
</g>
<!-- Node2&#45;&gt;Node3 -->
<g id="edge2" class="edge">
<title>Node2&#45;&gt;Node3</title>
<path fill="none" stroke="midnightblue" d="M63.5,-101.8C63.5,-92.91 63.5,-82.78 63.5,-75.75"/>
<polygon fill="midnightblue" stroke="midnightblue" points="60,-102.08 63.5,-112.08 67,-102.08 60,-102.08"/>
</g>
<!-- Node4 -->
<g id="node4" class="node">
<title>Node4</title>
<g id="a_node4"><a xlink:href="sloth_8hpp.html" target="_top" xlink:title="List of SLOTH header files.">
<polygon fill="none" stroke="black" points="31,-0.5 31,-19.5 96,-19.5 96,-0.5 31,-0.5"/>
<text text-anchor="middle" x="63.5" y="-7.5" font-family="serif" font-size="10.00">sloth.hpp</text>
</a>
</g>
</g>
<!-- Node3&#45;&gt;Node4 -->
<g id="edge3" class="edge">
<title>Node3&#45;&gt;Node4</title>
<path fill="none" stroke="midnightblue" d="M63.5,-45.8C63.5,-36.91 63.5,-26.78 63.5,-19.75"/>
<polygon fill="midnightblue" stroke="midnightblue" points="60,-46.08 63.5,-56.08 67,-46.08 60,-46.08"/>
</g>
</g>
</svg>
