<?xml version="1.0" encoding="UTF-8" standalone="no"?>
<!DOCTYPE svg PUBLIC "-//W3C//DTD SVG 1.1//EN"
 "http://www.w3.org/Graphics/SVG/1.1/DTD/svg11.dtd">
<!-- Generated by graphviz version 2.43.0 (0)
 -->
<!-- Title: PropertyBase.hpp Pages: 1 -->
<svg width="352pt" height="140pt"
 viewBox="0.00 0.00 352.00 140.00" xmlns="http://www.w3.org/2000/svg" xmlns:xlink="http://www.w3.org/1999/xlink">
<g id="graph0" class="graph" transform="scale(1 1) rotate(0) translate(4 136)">
<title>PropertyBase.hpp</title>
<!-- Node1 -->
<g id="node1" class="node">
<title>Node1</title>
<g id="a_node1"><a xlink:title="Base class for Property objects.">
<polygon fill="#bfbfbf" stroke="black" points="99,-112.5 99,-131.5 208,-131.5 208,-112.5 99,-112.5"/>
<text text-anchor="middle" x="153.5" y="-119.5" font-family="serif" font-size="10.00">PropertyBase.hpp</text>
</a>
</g>
</g>
<!-- Node2 -->
<g id="node2" class="node">
<title>Node2</title>
<g id="a_node2"><a xlink:href="InterDiffusionCoefficient_8hpp.html" target="_top" xlink:title="Class used to compute inter&#45;diffusion coefficients.">
<polygon fill="none" stroke="black" points="16.5,-56.5 16.5,-75.5 180.5,-75.5 180.5,-56.5 16.5,-56.5"/>
<text text-anchor="middle" x="98.5" y="-63.5" font-family="serif" font-size="10.00">InterDiffusionCoefficient.hpp</text>
</a>
</g>
</g>
<!-- Node1&#45;&gt;Node2 -->
<g id="edge1" class="edge">
<title>Node1&#45;&gt;Node2</title>
<path fill="none" stroke="midnightblue" d="M137.21,-105C127.46,-95.43 115.45,-83.64 107.41,-75.75"/>
<polygon fill="midnightblue" stroke="midnightblue" points="134.83,-107.57 144.42,-112.08 139.73,-102.58 134.83,-107.57"/>
</g>
<!-- Node3 -->
<g id="node3" class="node">
<title>Node3</title>
<g id="a_node3"><a xlink:href="sloth_8hpp.html" target="_top" xlink:title="List of SLOTH header files.">
<polygon fill="none" stroke="black" points="0,-0.5 0,-19.5 65,-19.5 65,-0.5 0,-0.5"/>
<text text-anchor="middle" x="32.5" y="-7.5" font-family="serif" font-size="10.00">sloth.hpp</text>
</a>
</g>
</g>
<!-- Node1&#45;&gt;Node3 -->
<g id="edge4" class="edge">
<title>Node1&#45;&gt;Node3</title>
<path fill="none" stroke="midnightblue" d="M88.95,-117.95C59.14,-112.91 26.25,-101.4 7.5,-76 -5.57,-58.3 12.58,-32.91 24.16,-19.72"/>
<polygon fill="midnightblue" stroke="midnightblue" points="88.52,-121.43 98.92,-119.43 89.54,-114.5 88.52,-121.43"/>
</g>
<!-- Node4 -->
<g id="node4" class="node">
<title>Node4</title>
<g id="a_node4"><a xlink:href="InterDiffusionCoefficient_8cpp.html" target="_top" xlink:title="Class used to compute inter&#45;diffusion coefficients.">
<polygon fill="none" stroke="black" points="105,-0.5 105,-19.5 268,-19.5 268,-0.5 105,-0.5"/>
<text text-anchor="middle" x="186.5" y="-7.5" font-family="serif" font-size="10.00">InterDiffusionCoefficient.cpp</text>
</a>
</g>
</g>
<!-- Node1&#45;&gt;Node4 -->
<g id="edge5" class="edge">
<title>Node1&#45;&gt;Node4</title>
<path fill="none" stroke="midnightblue" d="M170.9,-104.82C178.13,-96.92 185.71,-86.79 189.5,-76 196.23,-56.81 192.01,-32.47 188.92,-19.71"/>
<polygon fill="midnightblue" stroke="midnightblue" points="168.17,-102.6 163.66,-112.19 173.17,-107.51 168.17,-102.6"/>
</g>
<!-- Node5 -->
<g id="node5" class="node">
<title>Node5</title>
<g id="a_node5"><a xlink:href="PropertyBase_8cpp.html" target="_top" xlink:title="Base class for Property objects.">
<polygon fill="none" stroke="black" points="237,-56.5 237,-75.5 344,-75.5 344,-56.5 237,-56.5"/>
<text text-anchor="middle" x="290.5" y="-63.5" font-family="serif" font-size="10.00">PropertyBase.cpp</text>
</a>
</g>
</g>
<!-- Node1&#45;&gt;Node5 -->
<g id="edge6" class="edge">
<title>Node1&#45;&gt;Node5</title>
<path fill="none" stroke="midnightblue" d="M184.52,-108.77C210.26,-98.63 246.19,-84.47 268.89,-75.52"/>
<polygon fill="midnightblue" stroke="midnightblue" points="183.23,-105.52 175.21,-112.44 185.79,-112.03 183.23,-105.52"/>
</g>
<!-- Node2&#45;&gt;Node3 -->
<g id="edge2" class="edge">
<title>Node2&#45;&gt;Node3</title>
<path fill="none" stroke="midnightblue" d="M79.95,-49.82C68.12,-40.15 53.21,-27.95 43.3,-19.83"/>
<polygon fill="midnightblue" stroke="midnightblue" points="77.94,-52.7 87.9,-56.32 82.37,-47.28 77.94,-52.7"/>
</g>
<!-- Node2&#45;&gt;Node4 -->
<g id="edge3" class="edge">
<title>Node2&#45;&gt;Node4</title>
<path fill="none" stroke="midnightblue" d="M121.48,-50.9C137.61,-41 158.68,-28.07 172.4,-19.65"/>
<polygon fill="midnightblue" stroke="midnightblue" points="119.33,-48.11 112.64,-56.32 122.99,-54.08 119.33,-48.11"/>
</g>
</g>
</svg>
