<?xml version="1.0" encoding="UTF-8" standalone="no"?>
<!DOCTYPE svg PUBLIC "-//W3C//DTD SVG 1.1//EN"
 "http://www.w3.org/Graphics/SVG/1.1/DTD/svg11.dtd">
<!-- Generated by graphviz version 2.43.0 (0)
 -->
<!-- Title: ReducedOperator.cpp Pages: 1 -->
<svg width="285pt" height="140pt"
 viewBox="0.00 0.00 285.43 140.00" xmlns="http://www.w3.org/2000/svg" xmlns:xlink="http://www.w3.org/1999/xlink">
<g id="graph0" class="graph" transform="scale(1 1) rotate(0) translate(4 136)">
<title>ReducedOperator.cpp</title>
<!-- Node1 -->
<g id="node1" class="node">
<title>Node1</title>
<g id="a_node1"><a xlink:title="UnSteady version of the linear system resulting from the NonLinear algorithm.">
<polygon fill="#bfbfbf" stroke="black" points="101.93,-112.5 101.93,-131.5 229.93,-131.5 229.93,-112.5 101.93,-112.5"/>
<text text-anchor="middle" x="165.93" y="-119.5" font-family="serif" font-size="10.00">ReducedOperator.cpp</text>
</a>
</g>
</g>
<!-- Node2 -->
<g id="node2" class="node">
<title>Node2</title>
<g id="a_node2"><a xlink:href="ReducedOperator_8hpp.html" target="_top" xlink:title="UnSteady version of the linear system resulting from the NonLinear algorithm.">
<polygon fill="none" stroke="black" points="13.93,-56.5 13.93,-75.5 197.93,-75.5 197.93,-56.5 13.93,-56.5"/>
<text text-anchor="middle" x="105.93" y="-63.5" font-family="serif" font-size="10.00">Operators/ReducedOperator.hpp</text>
</a>
</g>
</g>
<!-- Node1&#45;&gt;Node2 -->
<g id="edge1" class="edge">
<title>Node1&#45;&gt;Node2</title>
<path fill="none" stroke="midnightblue" d="M156.29,-112.32C147.42,-104.34 134.06,-92.31 123.32,-82.65"/>
<polygon fill="midnightblue" stroke="midnightblue" points="125.52,-79.92 115.75,-75.83 120.84,-85.13 125.52,-79.92"/>
</g>
<!-- Node3 -->
<g id="node3" class="node">
<title>Node3</title>
<g id="a_node3"><a xlink:title=" ">
<polygon fill="none" stroke="#bfbfbf" points="0.43,-0.5 0.43,-19.5 59.43,-19.5 59.43,-0.5 0.43,-0.5"/>
<text text-anchor="middle" x="29.93" y="-7.5" font-family="serif" font-size="10.00">memory</text>
</a>
</g>
</g>
<!-- Node1&#45;&gt;Node3 -->
<g id="edge5" class="edge">
<title>Node1&#45;&gt;Node3</title>
<path fill="none" stroke="midnightblue" d="M108.97,-112.49C67.96,-105.06 17.69,-92.82 4.93,-76 -6.08,-61.48 4.54,-41.53 15.13,-27.57"/>
<polygon fill="midnightblue" stroke="midnightblue" points="17.91,-29.71 21.54,-19.76 12.49,-25.28 17.91,-29.71"/>
</g>
<!-- Node4 -->
<g id="node4" class="node">
<title>Node4</title>
<g id="a_node4"><a xlink:title=" ">
<polygon fill="none" stroke="#bfbfbf" points="101.93,-0.5 101.93,-19.5 149.93,-19.5 149.93,-0.5 101.93,-0.5"/>
<text text-anchor="middle" x="125.93" y="-7.5" font-family="serif" font-size="10.00">vector</text>
</a>
</g>
</g>
<!-- Node1&#45;&gt;Node4 -->
<g id="edge6" class="edge">
<title>Node1&#45;&gt;Node4</title>
<path fill="none" stroke="midnightblue" d="M178.11,-112.48C194.17,-100.16 219.04,-76.58 206.93,-56 196.77,-38.73 177.32,-27.61 160.03,-20.75"/>
<polygon fill="midnightblue" stroke="midnightblue" points="160.78,-17.3 150.18,-17.19 158.39,-23.88 160.78,-17.3"/>
</g>
<!-- Node5 -->
<g id="node5" class="node">
<title>Node5</title>
<g id="a_node5"><a xlink:title=" ">
<polygon fill="none" stroke="#bfbfbf" points="208.43,-0.5 208.43,-19.5 277.43,-19.5 277.43,-0.5 208.43,-0.5"/>
<text text-anchor="middle" x="242.93" y="-7.5" font-family="serif" font-size="10.00">mfem.hpp</text>
</a>
</g>
</g>
<!-- Node1&#45;&gt;Node5 -->
<g id="edge7" class="edge">
<title>Node1&#45;&gt;Node5</title>
<path fill="none" stroke="midnightblue" d="M180.82,-112.48C193.45,-104.55 211.18,-91.61 221.93,-76 231.5,-62.11 236.91,-43.6 239.84,-29.88"/>
<polygon fill="midnightblue" stroke="midnightblue" points="243.35,-30.17 241.75,-19.7 236.47,-28.88 243.35,-30.17"/>
</g>
<!-- Node2&#45;&gt;Node3 -->
<g id="edge2" class="edge">
<title>Node2&#45;&gt;Node3</title>
<path fill="none" stroke="midnightblue" d="M93.72,-56.32C82.16,-48.11 64.56,-35.6 50.77,-25.81"/>
<polygon fill="midnightblue" stroke="midnightblue" points="52.54,-22.77 42.36,-19.83 48.49,-28.48 52.54,-22.77"/>
</g>
<!-- Node2&#45;&gt;Node4 -->
<g id="edge3" class="edge">
<title>Node2&#45;&gt;Node4</title>
<path fill="none" stroke="midnightblue" d="M109.23,-56.08C111.91,-48.85 115.78,-38.41 119.12,-29.4"/>
<polygon fill="midnightblue" stroke="midnightblue" points="122.5,-30.34 122.69,-19.75 115.93,-27.91 122.5,-30.34"/>
</g>
<!-- Node2&#45;&gt;Node5 -->
<g id="edge4" class="edge">
<title>Node2&#45;&gt;Node5</title>
<path fill="none" stroke="midnightblue" d="M127.64,-56.44C150.29,-47.52 186,-33.44 211.68,-23.32"/>
<polygon fill="midnightblue" stroke="midnightblue" points="213.3,-26.44 221.32,-19.52 210.74,-19.93 213.3,-26.44"/>
</g>
</g>
</svg>
