<?xml version="1.0" encoding="UTF-8" standalone="no"?>
<!DOCTYPE svg PUBLIC "-//W3C//DTD SVG 1.1//EN"
 "http://www.w3.org/Graphics/SVG/1.1/DTD/svg11.dtd">
<!-- Generated by graphviz version 2.43.0 (0)
 -->
<!-- Title: SlothNLFormIntegrator.tpp Pages: 1 -->
<svg width="2648pt" height="319pt"
 viewBox="0.00 0.00 2647.50 319.00" xmlns="http://www.w3.org/2000/svg" xmlns:xlink="http://www.w3.org/1999/xlink">
<g id="graph0" class="graph" transform="scale(1 1) rotate(0) translate(4 315)">
<title>SlothNLFormIntegrator.tpp</title>
<!-- Node1 -->
<g id="node1" class="node">
<title>Node1</title>
<g id="a_node1"><a xlink:title=" ">
<polygon fill="#bfbfbf" stroke="black" points="1185,-291.5 1185,-310.5 1342,-310.5 1342,-291.5 1185,-291.5"/>
<text text-anchor="middle" x="1263.5" y="-298.5" font-family="serif" font-size="10.00">SlothNLFormIntegrator.tpp</text>
</a>
</g>
</g>
<!-- Node2 -->
<g id="node2" class="node">
<title>Node2</title>
<g id="a_node2"><a xlink:href="SlothNLFormIntegrator_8hpp.html" target="_top" xlink:title="Class prodiving common methods to all NLFormIntegrators.">
<polygon fill="none" stroke="black" points="1183.5,-235.5 1183.5,-254.5 1343.5,-254.5 1343.5,-235.5 1183.5,-235.5"/>
<text text-anchor="middle" x="1263.5" y="-242.5" font-family="serif" font-size="10.00">SlothNLFormIntegrator.hpp</text>
</a>
</g>
</g>
<!-- Node1&#45;&gt;Node2 -->
<g id="edge1" class="edge">
<title>Node1&#45;&gt;Node2</title>
<path fill="none" stroke="midnightblue" d="M1263.5,-280.8C1263.5,-271.91 1263.5,-261.78 1263.5,-254.75"/>
<polygon fill="midnightblue" stroke="midnightblue" points="1260,-281.08 1263.5,-291.08 1267,-281.08 1260,-281.08"/>
</g>
<!-- Node3 -->
<g id="node3" class="node">
<title>Node3</title>
<g id="a_node3"><a xlink:href="AllenCahnGrainsNLFormIntegrator_8hpp.html" target="_top" xlink:title="VF for Allen&#45;Cahn equation solved in a polycrystal.">
<polygon fill="none" stroke="black" points="0,-179.5 0,-198.5 221,-198.5 221,-179.5 0,-179.5"/>
<text text-anchor="middle" x="110.5" y="-186.5" font-family="serif" font-size="10.00">AllenCahnGrainsNLFormIntegrator.hpp</text>
</a>
</g>
</g>
<!-- Node2&#45;&gt;Node3 -->
<g id="edge2" class="edge">
<title>Node2&#45;&gt;Node3</title>
<path fill="none" stroke="midnightblue" d="M1173.33,-240.91C994.42,-234.58 581.9,-219.05 235.5,-199 230.83,-198.73 226.06,-198.44 221.25,-198.14"/>
<polygon fill="midnightblue" stroke="midnightblue" points="1173.37,-244.41 1183.48,-241.26 1173.61,-237.41 1173.37,-244.41"/>
</g>
<!-- Node4 -->
<g id="node4" class="node">
<title>Node4</title>
<g id="a_node4"><a xlink:href="AllenCahnNLFormIntegrator_8hpp.html" target="_top" xlink:title="VF of the Allen Cahn equation.">
<polygon fill="none" stroke="black" points="1407,-118 1407,-137 1594,-137 1594,-118 1407,-118"/>
<text text-anchor="middle" x="1500.5" y="-125" font-family="serif" font-size="10.00">AllenCahnNLFormIntegrator.hpp</text>
</a>
</g>
</g>
<!-- Node2&#45;&gt;Node4 -->
<g id="edge3" class="edge">
<title>Node2&#45;&gt;Node4</title>
<path fill="none" stroke="midnightblue" d="M1305.04,-232.52C1331.1,-224.62 1365.04,-213.03 1393.5,-199 1430.81,-180.61 1470.71,-151.47 1489.5,-137.1"/>
<polygon fill="midnightblue" stroke="midnightblue" points="1303.7,-229.27 1295.11,-235.47 1305.69,-235.98 1303.7,-229.27"/>
</g>
<!-- Node5 -->
<g id="node5" class="node">
<title>Node5</title>
<g id="a_node5"><a xlink:href="ListIntegrators_8hpp.html" target="_top" xlink:title="List of header files contained in the Integrators directory.">
<polygon fill="none" stroke="black" points="1223.5,-56.5 1223.5,-75.5 1339.5,-75.5 1339.5,-56.5 1223.5,-56.5"/>
<text text-anchor="middle" x="1281.5" y="-63.5" font-family="serif" font-size="10.00">ListIntegrators.hpp</text>
</a>
</g>
</g>
<!-- Node2&#45;&gt;Node5 -->
<g id="edge23" class="edge">
<title>Node2&#45;&gt;Node5</title>
<path fill="none" stroke="midnightblue" d="M1315.46,-232.08C1332.81,-225.36 1350.3,-214.97 1360.5,-199 1374.67,-176.81 1358.58,-139.45 1339.5,-112 1328.52,-96.2 1310.31,-83.38 1297.22,-75.53"/>
<polygon fill="midnightblue" stroke="midnightblue" points="1314.16,-228.83 1305.89,-235.45 1316.48,-235.44 1314.16,-228.83"/>
</g>
<!-- Node6 -->
<g id="node6" class="node">
<title>Node6</title>
<g id="a_node6"><a xlink:href="BlockAllenCahnNLFormIntegrator_8hpp.html" target="_top" xlink:title="VF of the AllenCahn equations (splitted form)">
<polygon fill="none" stroke="black" points="1446,-179.5 1446,-198.5 1661,-198.5 1661,-179.5 1446,-179.5"/>
<text text-anchor="middle" x="1553.5" y="-186.5" font-family="serif" font-size="10.00">BlockAllenCahnNLFormIntegrator.hpp</text>
</a>
</g>
</g>
<!-- Node2&#45;&gt;Node6 -->
<g id="edge5" class="edge">
<title>Node2&#45;&gt;Node6</title>
<path fill="none" stroke="midnightblue" d="M1319.35,-233.6C1374.15,-223.4 1456.73,-208.02 1507.76,-198.52"/>
<polygon fill="midnightblue" stroke="midnightblue" points="1318.64,-230.17 1309.45,-235.44 1319.92,-237.05 1318.64,-230.17"/>
</g>
<!-- Node7 -->
<g id="node7" class="node">
<title>Node7</title>
<g id="a_node7"><a xlink:href="CahnHilliardNLFormIntegrator_8hpp.html" target="_top" xlink:title="VF of the CahnHilliard equations.">
<polygon fill="none" stroke="black" points="1954,-179.5 1954,-198.5 2153,-198.5 2153,-179.5 1954,-179.5"/>
<text text-anchor="middle" x="2053.5" y="-186.5" font-family="serif" font-size="10.00">CahnHilliardNLFormIntegrator.hpp</text>
</a>
</g>
</g>
<!-- Node2&#45;&gt;Node7 -->
<g id="edge7" class="edge">
<title>Node2&#45;&gt;Node7</title>
<path fill="none" stroke="midnightblue" d="M1353.93,-238.34C1483.61,-230.13 1729.91,-214.25 1939.5,-199 1944.15,-198.66 1948.91,-198.31 1953.72,-197.95"/>
<polygon fill="midnightblue" stroke="midnightblue" points="1353.41,-234.86 1343.65,-238.99 1353.85,-241.85 1353.41,-234.86"/>
</g>
<!-- Node8 -->
<g id="node8" class="node">
<title>Node8</title>
<g id="a_node8"><a xlink:href="DiffusionFluxNLFormIntegrator_8hpp.html" target="_top" xlink:title="inter&#45;diffusion integrator">
<polygon fill="none" stroke="black" points="2171.5,-179.5 2171.5,-198.5 2373.5,-198.5 2373.5,-179.5 2171.5,-179.5"/>
<text text-anchor="middle" x="2272.5" y="-186.5" font-family="serif" font-size="10.00">DiffusionFluxNLFormIntegrator.hpp</text>
</a>
</g>
</g>
<!-- Node2&#45;&gt;Node8 -->
<g id="edge9" class="edge">
<title>Node2&#45;&gt;Node8</title>
<path fill="none" stroke="midnightblue" d="M1354.14,-240.38C1516.22,-233.71 1866.38,-218.35 2161.5,-199 2164.78,-198.78 2168.11,-198.56 2171.48,-198.32"/>
<polygon fill="midnightblue" stroke="midnightblue" points="1353.59,-236.9 1343.74,-240.81 1353.88,-243.9 1353.59,-236.9"/>
</g>
<!-- Node10 -->
<g id="node10" class="node">
<title>Node10</title>
<g id="a_node10"><a xlink:href="DiffusionNLFormIntegrator_8hpp.html" target="_top" xlink:title="Nonlinear form integrator for diffusion&#45;type problems.">
<polygon fill="none" stroke="black" points="1718,-179.5 1718,-198.5 1897,-198.5 1897,-179.5 1718,-179.5"/>
<text text-anchor="middle" x="1807.5" y="-186.5" font-family="serif" font-size="10.00">DiffusionNLFormIntegrator.hpp</text>
</a>
</g>
</g>
<!-- Node2&#45;&gt;Node10 -->
<g id="edge12" class="edge">
<title>Node2&#45;&gt;Node10</title>
<path fill="none" stroke="midnightblue" d="M1353.76,-235.04C1455.92,-224.9 1621.14,-208.5 1721.51,-198.54"/>
<polygon fill="midnightblue" stroke="midnightblue" points="1353.37,-231.56 1343.77,-236.03 1354.07,-238.53 1353.37,-231.56"/>
</g>
<!-- Node11 -->
<g id="node11" class="node">
<title>Node11</title>
<g id="a_node11"><a xlink:href="FickNLFormIntegrator_8hpp.html" target="_top" xlink:title="FV for the mass diffusion equation.">
<polygon fill="none" stroke="black" points="1839,-118 1839,-137 1994,-137 1994,-118 1839,-118"/>
<text text-anchor="middle" x="1916.5" y="-125" font-family="serif" font-size="10.00">FickNLFormIntegrator.hpp</text>
</a>
</g>
</g>
<!-- Node2&#45;&gt;Node11 -->
<g id="edge17" class="edge">
<title>Node2&#45;&gt;Node11</title>
<path fill="none" stroke="midnightblue" d="M1353.65,-243.79C1520.86,-242.53 1865.79,-235.48 1905.5,-199 1922.65,-183.25 1920.54,-152.61 1918.21,-137.45"/>
<polygon fill="midnightblue" stroke="midnightblue" points="1353.6,-240.29 1343.63,-243.86 1353.65,-247.29 1353.6,-240.29"/>
</g>
<!-- Node12 -->
<g id="node12" class="node">
<title>Node12</title>
<g id="a_node12"><a xlink:href="FourierNLFormIntegrator_8hpp.html" target="_top" xlink:title="FV for the heat transfer equation.">
<polygon fill="none" stroke="black" points="1650,-118 1650,-137 1821,-137 1821,-118 1650,-118"/>
<text text-anchor="middle" x="1735.5" y="-125" font-family="serif" font-size="10.00">FourierNLFormIntegrator.hpp</text>
</a>
</g>
</g>
<!-- Node2&#45;&gt;Node12 -->
<g id="edge18" class="edge">
<title>Node2&#45;&gt;Node12</title>
<path fill="none" stroke="midnightblue" d="M1353.96,-241.23C1456.38,-236.84 1615.96,-225.82 1669.5,-199 1697.98,-184.73 1720.54,-152.81 1730.28,-137.3"/>
<polygon fill="midnightblue" stroke="midnightblue" points="1353.77,-237.73 1343.93,-241.65 1354.06,-244.73 1353.77,-237.73"/>
</g>
<!-- Node13 -->
<g id="node13" class="node">
<title>Node13</title>
<g id="a_node13"><a xlink:href="HeatTimeNLFormIntegrator_8hpp.html" target="_top" xlink:title="VF of the time derivative.">
<polygon fill="none" stroke="black" points="158.5,-118 158.5,-137 342.5,-137 342.5,-118 158.5,-118"/>
<text text-anchor="middle" x="250.5" y="-125" font-family="serif" font-size="10.00">HeatTimeNLFormIntegrator.hpp</text>
</a>
</g>
</g>
<!-- Node2&#45;&gt;Node13 -->
<g id="edge19" class="edge">
<title>Node2&#45;&gt;Node13</title>
<path fill="none" stroke="midnightblue" d="M1173.17,-242.84C934.35,-239.38 302.12,-227.55 267.5,-199 249.05,-183.78 248.62,-152.32 249.63,-137.11"/>
<polygon fill="midnightblue" stroke="midnightblue" points="1173.16,-246.34 1183.21,-242.98 1173.27,-239.34 1173.16,-246.34"/>
</g>
<!-- Node14 -->
<g id="node14" class="node">
<title>Node14</title>
<g id="a_node14"><a xlink:href="LatentHeatNLFormIntegrator_8hpp.html" target="_top" xlink:title="Latent heat contribution for heat transfer equation.">
<polygon fill="none" stroke="black" points="454,-179.5 454,-198.5 645,-198.5 645,-179.5 454,-179.5"/>
<text text-anchor="middle" x="549.5" y="-186.5" font-family="serif" font-size="10.00">LatentHeatNLFormIntegrator.hpp</text>
</a>
</g>
</g>
<!-- Node2&#45;&gt;Node14 -->
<g id="edge21" class="edge">
<title>Node2&#45;&gt;Node14</title>
<path fill="none" stroke="midnightblue" d="M1173.29,-237.48C1055.22,-228.91 841.84,-213.25 659.5,-199 654.82,-198.63 650.03,-198.26 645.19,-197.87"/>
<polygon fill="midnightblue" stroke="midnightblue" points="1173.14,-240.98 1183.37,-238.22 1173.65,-234 1173.14,-240.98"/>
</g>
<!-- Node15 -->
<g id="node15" class="node">
<title>Node15</title>
<g id="a_node15"><a xlink:href="MeltingBaseNLFormIntegrator_8hpp.html" target="_top" xlink:title="Base class for melting integrators.">
<polygon fill="none" stroke="black" points="739.5,-179.5 739.5,-198.5 937.5,-198.5 937.5,-179.5 739.5,-179.5"/>
<text text-anchor="middle" x="838.5" y="-186.5" font-family="serif" font-size="10.00">MeltingBaseNLFormIntegrator.hpp</text>
</a>
</g>
</g>
<!-- Node2&#45;&gt;Node15 -->
<g id="edge24" class="edge">
<title>Node2&#45;&gt;Node15</title>
<path fill="none" stroke="midnightblue" d="M1186.11,-234.17C1105.87,-223.97 981.71,-208.2 905.53,-198.52"/>
<polygon fill="midnightblue" stroke="midnightblue" points="1185.8,-237.66 1196.16,-235.44 1186.68,-230.71 1185.8,-237.66"/>
</g>
<!-- Node16 -->
<g id="node16" class="node">
<title>Node16</title>
<g id="a_node16"><a xlink:href="MeltingCalphadNLFormIntegrator_8hpp.html" target="_top" xlink:title="NonlinearFormIntegrator for ad&#45;hoc melting term based on temperature.">
<polygon fill="none" stroke="black" points="436.5,-118 436.5,-137 652.5,-137 652.5,-118 436.5,-118"/>
<text text-anchor="middle" x="544.5" y="-125" font-family="serif" font-size="10.00">MeltingCalphadNLFormIntegrator.hpp</text>
</a>
</g>
</g>
<!-- Node2&#45;&gt;Node16 -->
<g id="edge31" class="edge">
<title>Node2&#45;&gt;Node16</title>
<path fill="none" stroke="midnightblue" d="M1173.1,-244.61C1064.46,-243.49 877.32,-235.64 721.5,-199 660,-184.54 591.74,-152.41 561.04,-137.03"/>
<polygon fill="midnightblue" stroke="midnightblue" points="1173.33,-248.11 1183.36,-244.69 1173.39,-241.11 1173.33,-248.11"/>
</g>
<!-- Node17 -->
<g id="node17" class="node">
<title>Node17</title>
<g id="a_node17"><a xlink:href="MeltingConstantNLFormIntegrator_8hpp.html" target="_top" xlink:title="NonlinearFormIntegrator for ad&#45;hoc constant melting term.">
<polygon fill="none" stroke="black" points="671,-118 671,-137 890,-137 890,-118 671,-118"/>
<text text-anchor="middle" x="780.5" y="-125" font-family="serif" font-size="10.00">MeltingConstantNLFormIntegrator.hpp</text>
</a>
</g>
</g>
<!-- Node2&#45;&gt;Node17 -->
<g id="edge32" class="edge">
<title>Node2&#45;&gt;Node17</title>
<path fill="none" stroke="midnightblue" d="M1173.23,-242.9C1029.01,-240.18 759.78,-230.86 730.5,-199 711.71,-178.56 746.19,-150.85 766.76,-137.04"/>
<polygon fill="midnightblue" stroke="midnightblue" points="1173.33,-246.4 1183.39,-243.08 1173.46,-239.4 1173.33,-246.4"/>
</g>
<!-- Node18 -->
<g id="node18" class="node">
<title>Node18</title>
<g id="a_node18"><a xlink:href="MeltingTemperatureNLFormIntegrator_8hpp.html" target="_top" xlink:title="NonlinearFormIntegrator for ad&#45;hoc melting term based on temperature.">
<polygon fill="none" stroke="black" points="908,-112.5 908,-142.5 1073,-142.5 1073,-112.5 908,-112.5"/>
<text text-anchor="start" x="916" y="-130.5" font-family="serif" font-size="10.00">MeltingTemperatureNLForm</text>
<text text-anchor="middle" x="990.5" y="-119.5" font-family="serif" font-size="10.00">Integrator.hpp</text>
</a>
</g>
</g>
<!-- Node2&#45;&gt;Node18 -->
<g id="edge33" class="edge">
<title>Node2&#45;&gt;Node18</title>
<path fill="none" stroke="midnightblue" d="M1173.18,-241.72C1101.15,-237.78 1008.5,-227.18 984.5,-199 971.28,-183.48 977.73,-158.44 983.89,-142.76"/>
<polygon fill="midnightblue" stroke="midnightblue" points="1173.03,-245.22 1183.19,-242.24 1173.39,-238.23 1173.03,-245.22"/>
</g>
<!-- Node19 -->
<g id="node19" class="node">
<title>Node19</title>
<g id="a_node19"><a xlink:href="RobinNLFormIntegrator_8hpp.html" target="_top" xlink:title="Robin integrator.">
<polygon fill="none" stroke="black" points="993.5,-179.5 993.5,-198.5 1157.5,-198.5 1157.5,-179.5 993.5,-179.5"/>
<text text-anchor="middle" x="1075.5" y="-186.5" font-family="serif" font-size="10.00">RobinNLFormIntegrator.hpp</text>
</a>
</g>
</g>
<!-- Node2&#45;&gt;Node19 -->
<g id="edge34" class="edge">
<title>Node2&#45;&gt;Node19</title>
<path fill="none" stroke="midnightblue" d="M1223.7,-232.57C1188.23,-222.38 1137.13,-207.7 1105.15,-198.52"/>
<polygon fill="midnightblue" stroke="midnightblue" points="1223.13,-236.05 1233.71,-235.44 1225.07,-229.32 1223.13,-236.05"/>
</g>
<!-- Node21 -->
<g id="node21" class="node">
<title>Node21</title>
<g id="a_node21"><a xlink:href="TimeCHNLFormIntegrator_8hpp.html" target="_top" xlink:title="VF of the time derivative for CH equations.">
<polygon fill="none" stroke="black" points="1175.5,-179.5 1175.5,-198.5 1351.5,-198.5 1351.5,-179.5 1175.5,-179.5"/>
<text text-anchor="middle" x="1263.5" y="-186.5" font-family="serif" font-size="10.00">TimeCHNLFormIntegrator.hpp</text>
</a>
</g>
</g>
<!-- Node2&#45;&gt;Node21 -->
<g id="edge38" class="edge">
<title>Node2&#45;&gt;Node21</title>
<path fill="none" stroke="midnightblue" d="M1263.5,-224.8C1263.5,-215.91 1263.5,-205.78 1263.5,-198.75"/>
<polygon fill="midnightblue" stroke="midnightblue" points="1260,-225.08 1263.5,-235.08 1267,-225.08 1260,-225.08"/>
</g>
<!-- Node22 -->
<g id="node22" class="node">
<title>Node22</title>
<g id="a_node22"><a xlink:href="TimeNLFormIntegrator_8hpp.html" target="_top" xlink:title="VF of the time derivative.">
<polygon fill="none" stroke="black" points="277,-179.5 277,-198.5 436,-198.5 436,-179.5 277,-179.5"/>
<text text-anchor="middle" x="356.5" y="-186.5" font-family="serif" font-size="10.00">TimeNLFormIntegrator.hpp</text>
</a>
</g>
</g>
<!-- Node2&#45;&gt;Node22 -->
<g id="edge40" class="edge">
<title>Node2&#45;&gt;Node22</title>
<path fill="none" stroke="midnightblue" d="M1173.35,-240.43C1022.4,-234.15 709.04,-219.78 444.5,-199 441.74,-198.78 438.94,-198.55 436.11,-198.31"/>
<polygon fill="midnightblue" stroke="midnightblue" points="1173.36,-243.94 1183.49,-240.85 1173.65,-236.94 1173.36,-243.94"/>
</g>
<!-- Node23 -->
<g id="node23" class="node">
<title>Node23</title>
<g id="a_node23"><a xlink:href="OperatorBase_8hpp.html" target="_top" xlink:title="Base class for building Steady and TimeDependent PhaseFieldOperators.">
<polygon fill="none" stroke="black" points="2391.5,-179.5 2391.5,-198.5 2501.5,-198.5 2501.5,-179.5 2391.5,-179.5"/>
<text text-anchor="middle" x="2446.5" y="-186.5" font-family="serif" font-size="10.00">OperatorBase.hpp</text>
</a>
</g>
</g>
<!-- Node2&#45;&gt;Node23 -->
<g id="edge43" class="edge">
<title>Node2&#45;&gt;Node23</title>
<path fill="none" stroke="midnightblue" d="M1353.98,-243.41C1544.58,-241.5 2001.26,-233.39 2382.5,-199 2385.41,-198.74 2388.38,-198.44 2391.38,-198.11"/>
<polygon fill="midnightblue" stroke="midnightblue" points="1353.7,-239.91 1343.73,-243.51 1353.77,-246.91 1353.7,-239.91"/>
</g>
<!-- Node4&#45;&gt;Node5 -->
<g id="edge4" class="edge">
<title>Node4&#45;&gt;Node5</title>
<path fill="none" stroke="midnightblue" d="M1459.36,-115.32C1416.82,-103.76 1351.33,-85.97 1312.82,-75.51"/>
<polygon fill="midnightblue" stroke="midnightblue" points="1458.55,-118.73 1469.12,-117.98 1460.39,-111.98 1458.55,-118.73"/>
</g>
<!-- Node6&#45;&gt;Node5 -->
<g id="edge6" class="edge">
<title>Node6&#45;&gt;Node5</title>
<path fill="none" stroke="midnightblue" d="M1574.3,-173.28C1594.38,-157.31 1619.45,-131.49 1602.5,-112 1569.13,-73.62 1422.86,-67.01 1339.75,-66.43"/>
<polygon fill="midnightblue" stroke="midnightblue" points="1571.99,-170.64 1566.13,-179.48 1576.22,-176.22 1571.99,-170.64"/>
</g>
<!-- Node7&#45;&gt;Node5 -->
<g id="edge8" class="edge">
<title>Node7&#45;&gt;Node5</title>
<path fill="none" stroke="midnightblue" d="M2046.98,-170.03C2039.35,-151.9 2024.85,-124.83 2002.5,-112 1945.67,-79.38 1501.07,-70.03 1339.74,-67.69"/>
<polygon fill="midnightblue" stroke="midnightblue" points="2043.77,-171.45 2050.68,-179.49 2050.29,-168.9 2043.77,-171.45"/>
</g>
<!-- Node9 -->
<g id="node9" class="node">
<title>Node9</title>
<g id="a_node9"><a xlink:href="MassDiffusionFluxNLFormIntegrator_8hpp.html" target="_top" xlink:title="Class dedicated to the VF of diffusion flux (gradient of chemical potential) used in mass balance equ...">
<polygon fill="none" stroke="black" points="2102,-118 2102,-137 2331,-137 2331,-118 2102,-118"/>
<text text-anchor="middle" x="2216.5" y="-125" font-family="serif" font-size="10.00">MassDiffusionFluxNLFormIntegrator.hpp</text>
</a>
</g>
</g>
<!-- Node8&#45;&gt;Node9 -->
<g id="edge10" class="edge">
<title>Node8&#45;&gt;Node9</title>
<path fill="none" stroke="midnightblue" d="M2257.44,-172C2246.84,-160.74 2233.07,-146.1 2224.51,-137.01"/>
<polygon fill="midnightblue" stroke="midnightblue" points="2255.07,-174.59 2264.48,-179.48 2260.17,-169.79 2255.07,-174.59"/>
</g>
<!-- Node9&#45;&gt;Node5 -->
<g id="edge11" class="edge">
<title>Node9&#45;&gt;Node5</title>
<path fill="none" stroke="midnightblue" d="M2114.73,-117.09C2093.82,-115.28 2071.96,-113.5 2051.5,-112 1786.07,-92.58 1468.67,-76.19 1339.98,-69.83"/>
<polygon fill="midnightblue" stroke="midnightblue" points="2114.63,-120.59 2124.9,-117.97 2115.24,-113.62 2114.63,-120.59"/>
</g>
<!-- Node10&#45;&gt;Node11 -->
<g id="edge13" class="edge">
<title>Node10&#45;&gt;Node11</title>
<path fill="none" stroke="midnightblue" d="M1832.13,-174.56C1853.22,-163.04 1882.96,-146.81 1900.91,-137.01"/>
<polygon fill="midnightblue" stroke="midnightblue" points="1830.22,-171.61 1823.12,-179.48 1833.57,-177.76 1830.22,-171.61"/>
</g>
<!-- Node10&#45;&gt;Node12 -->
<g id="edge15" class="edge">
<title>Node10&#45;&gt;Node12</title>
<path fill="none" stroke="midnightblue" d="M1789.32,-172.97C1775.54,-161.59 1757.12,-146.37 1745.8,-137.01"/>
<polygon fill="midnightblue" stroke="midnightblue" points="1787.25,-175.8 1797.18,-179.48 1791.71,-170.41 1787.25,-175.8"/>
</g>
<!-- Node11&#45;&gt;Node5 -->
<g id="edge14" class="edge">
<title>Node11&#45;&gt;Node5</title>
<path fill="none" stroke="midnightblue" d="M1859.74,-116.34C1849.69,-114.74 1839.3,-113.22 1829.5,-112 1651.64,-89.91 1439.91,-76.02 1339.66,-70.18"/>
<polygon fill="midnightblue" stroke="midnightblue" points="1859.21,-119.8 1869.65,-117.96 1860.34,-112.89 1859.21,-119.8"/>
</g>
<!-- Node12&#45;&gt;Node5 -->
<g id="edge16" class="edge">
<title>Node12&#45;&gt;Node5</title>
<path fill="none" stroke="midnightblue" d="M1667.67,-116.5C1656.91,-114.96 1645.91,-113.42 1635.5,-112 1531.45,-97.84 1409.99,-82.71 1339.8,-74.09"/>
<polygon fill="midnightblue" stroke="midnightblue" points="1667.49,-120.01 1677.89,-117.97 1668.49,-113.08 1667.49,-120.01"/>
</g>
<!-- Node13&#45;&gt;Node5 -->
<g id="edge20" class="edge">
<title>Node13&#45;&gt;Node5</title>
<path fill="none" stroke="midnightblue" d="M316.03,-116.63C329.4,-114.87 343.38,-113.21 356.5,-112 683.5,-81.74 1077.53,-71.12 1223.47,-68.06"/>
<polygon fill="midnightblue" stroke="midnightblue" points="315.4,-113.18 305.96,-117.98 316.34,-120.12 315.4,-113.18"/>
</g>
<!-- Node14&#45;&gt;Node5 -->
<g id="edge22" class="edge">
<title>Node14&#45;&gt;Node5</title>
<path fill="none" stroke="midnightblue" d="M475.33,-176.29C456.71,-169.64 438.82,-159.24 427.5,-143 419.62,-131.7 418.02,-122 427.5,-112 454.88,-83.14 1035.27,-71.06 1223.28,-67.89"/>
<polygon fill="midnightblue" stroke="midnightblue" points="474.51,-179.7 485.1,-179.43 476.66,-173.04 474.51,-179.7"/>
</g>
<!-- Node15&#45;&gt;Node16 -->
<g id="edge25" class="edge">
<title>Node15&#45;&gt;Node16</title>
<path fill="none" stroke="midnightblue" d="M786.49,-177.47C729.51,-165.94 639.23,-147.67 586.54,-137.01"/>
<polygon fill="midnightblue" stroke="midnightblue" points="785.88,-180.92 796.38,-179.48 787.27,-174.06 785.88,-180.92"/>
</g>
<!-- Node15&#45;&gt;Node17 -->
<g id="edge27" class="edge">
<title>Node15&#45;&gt;Node17</title>
<path fill="none" stroke="midnightblue" d="M822.9,-172C811.92,-160.74 797.66,-146.1 788.79,-137.01"/>
<polygon fill="midnightblue" stroke="midnightblue" points="820.7,-174.76 830.19,-179.48 825.72,-169.87 820.7,-174.76"/>
</g>
<!-- Node15&#45;&gt;Node18 -->
<g id="edge29" class="edge">
<title>Node15&#45;&gt;Node18</title>
<path fill="none" stroke="midnightblue" d="M869.87,-175.72C894.54,-166.06 928.93,-152.6 954.68,-142.52"/>
<polygon fill="midnightblue" stroke="midnightblue" points="868.31,-172.57 860.28,-179.48 870.87,-179.09 868.31,-172.57"/>
</g>
<!-- Node16&#45;&gt;Node5 -->
<g id="edge26" class="edge">
<title>Node16&#45;&gt;Node5</title>
<path fill="none" stroke="midnightblue" d="M618.71,-116.73C632.9,-115.02 647.65,-113.36 661.5,-112 867.72,-91.75 1113.36,-76.56 1223.29,-70.23"/>
<polygon fill="midnightblue" stroke="midnightblue" points="618,-113.29 608.5,-117.97 618.85,-120.24 618,-113.29"/>
</g>
<!-- Node17&#45;&gt;Node5 -->
<g id="edge28" class="edge">
<title>Node17&#45;&gt;Node5</title>
<path fill="none" stroke="midnightblue" d="M859.74,-116.7C872.69,-115.12 885.97,-113.51 898.5,-112 1013.66,-98.16 1148.37,-82.44 1223.42,-73.73"/>
<polygon fill="midnightblue" stroke="midnightblue" points="858.94,-113.28 849.44,-117.97 859.79,-120.22 858.94,-113.28"/>
</g>
<!-- Node18&#45;&gt;Node5 -->
<g id="edge30" class="edge">
<title>Node18&#45;&gt;Node5</title>
<path fill="none" stroke="midnightblue" d="M1069.17,-110.41C1124.2,-99.16 1195.52,-84.58 1239.9,-75.51"/>
<polygon fill="midnightblue" stroke="midnightblue" points="1068.19,-107.04 1059.09,-112.47 1069.59,-113.9 1068.19,-107.04"/>
</g>
<!-- Node19&#45;&gt;Node5 -->
<g id="edge35" class="edge">
<title>Node19&#45;&gt;Node5</title>
<path fill="none" stroke="midnightblue" d="M1081.41,-169.92C1088,-152.56 1100.33,-126.83 1119.5,-112 1149.28,-88.96 1190.18,-77.71 1223.44,-72.22"/>
<polygon fill="midnightblue" stroke="midnightblue" points="1078.06,-168.89 1078.03,-179.48 1084.66,-171.22 1078.06,-168.89"/>
</g>
<!-- Node20 -->
<g id="node20" class="node">
<title>Node20</title>
<g id="a_node20"><a xlink:href="NeumannNLFormIntegrator_8hpp.html" target="_top" xlink:title="Neumann integrator.">
<polygon fill="none" stroke="black" points="1129,-118 1129,-137 1314,-137 1314,-118 1129,-118"/>
<text text-anchor="middle" x="1221.5" y="-125" font-family="serif" font-size="10.00">NeumannNLFormIntegrator.hpp</text>
</a>
</g>
</g>
<!-- Node19&#45;&gt;Node20 -->
<g id="edge36" class="edge">
<title>Node19&#45;&gt;Node20</title>
<path fill="none" stroke="midnightblue" d="M1105.85,-175.63C1134.21,-164.07 1175.81,-147.12 1200.62,-137.01"/>
<polygon fill="midnightblue" stroke="midnightblue" points="1104.36,-172.46 1096.42,-179.48 1107,-178.94 1104.36,-172.46"/>
</g>
<!-- Node20&#45;&gt;Node5 -->
<g id="edge37" class="edge">
<title>Node20&#45;&gt;Node5</title>
<path fill="none" stroke="midnightblue" d="M1237.31,-110.82C1248.71,-99.52 1263.66,-84.69 1272.92,-75.51"/>
<polygon fill="midnightblue" stroke="midnightblue" points="1234.73,-108.45 1230.1,-117.98 1239.66,-113.42 1234.73,-108.45"/>
</g>
<!-- Node21&#45;&gt;Node5 -->
<g id="edge39" class="edge">
<title>Node21&#45;&gt;Node5</title>
<path fill="none" stroke="midnightblue" d="M1291.33,-174.27C1303.24,-166.81 1315.9,-156.34 1322.5,-143 1328.61,-130.65 1327.48,-124.85 1322.5,-112 1316.62,-96.82 1302.98,-83.62 1293.04,-75.51"/>
<polygon fill="midnightblue" stroke="midnightblue" points="1289.38,-171.36 1282.48,-179.4 1292.89,-177.41 1289.38,-171.36"/>
</g>
<!-- Node22&#45;&gt;Node5 -->
<g id="edge42" class="edge">
<title>Node22&#45;&gt;Node5</title>
<path fill="none" stroke="midnightblue" d="M364.96,-170.4C374.78,-152.17 392.85,-124.62 417.5,-112 488.78,-75.5 1040.84,-68.58 1223.23,-67.29"/>
<polygon fill="midnightblue" stroke="midnightblue" points="361.79,-168.92 360.36,-179.42 368.02,-172.1 361.79,-168.92"/>
</g>
<!-- Node22&#45;&gt;Node13 -->
<g id="edge41" class="edge">
<title>Node22&#45;&gt;Node13</title>
<path fill="none" stroke="midnightblue" d="M332.55,-174.56C312.04,-163.04 283.12,-146.81 265.66,-137.01"/>
<polygon fill="midnightblue" stroke="midnightblue" points="330.88,-177.63 341.31,-179.48 334.31,-171.53 330.88,-177.63"/>
</g>
<!-- Node24 -->
<g id="node24" class="node">
<title>Node24</title>
<g id="a_node24"><a xlink:href="SteadyOperator_8hpp.html" target="_top" xlink:title="Steady Operator.">
<polygon fill="none" stroke="black" points="2367.5,-118 2367.5,-137 2487.5,-137 2487.5,-118 2367.5,-118"/>
<text text-anchor="middle" x="2427.5" y="-125" font-family="serif" font-size="10.00">SteadyOperator.hpp</text>
</a>
</g>
</g>
<!-- Node23&#45;&gt;Node24 -->
<g id="edge44" class="edge">
<title>Node23&#45;&gt;Node24</title>
<path fill="none" stroke="midnightblue" d="M2440.64,-169.66C2437.17,-158.77 2432.92,-145.49 2430.22,-137.01"/>
<polygon fill="midnightblue" stroke="midnightblue" points="2437.4,-171.01 2443.78,-179.48 2444.07,-168.88 2437.4,-171.01"/>
</g>
<!-- Node27 -->
<g id="node27" class="node">
<title>Node27</title>
<g id="a_node27"><a xlink:href="TransientOperator_8hpp.html" target="_top" xlink:title="Transient Operator.">
<polygon fill="none" stroke="black" points="2505.5,-118 2505.5,-137 2639.5,-137 2639.5,-118 2505.5,-118"/>
<text text-anchor="middle" x="2572.5" y="-125" font-family="serif" font-size="10.00">TransientOperator.hpp</text>
</a>
</g>
</g>
<!-- Node23&#45;&gt;Node27 -->
<g id="edge47" class="edge">
<title>Node23&#45;&gt;Node27</title>
<path fill="none" stroke="midnightblue" d="M2473.66,-175.17C2498.11,-163.63 2533.35,-146.99 2554.48,-137.01"/>
<polygon fill="midnightblue" stroke="midnightblue" points="2472.1,-172.04 2464.55,-179.48 2475.09,-178.37 2472.1,-172.04"/>
</g>
<!-- Node25 -->
<g id="node25" class="node">
<title>Node25</title>
<g id="a_node25"><a xlink:href="ListOperators_8hpp.html" target="_top" xlink:title=" ">
<polygon fill="none" stroke="black" points="2444.5,-56.5 2444.5,-75.5 2554.5,-75.5 2554.5,-56.5 2444.5,-56.5"/>
<text text-anchor="middle" x="2499.5" y="-63.5" font-family="serif" font-size="10.00">ListOperators.hpp</text>
</a>
</g>
</g>
<!-- Node24&#45;&gt;Node25 -->
<g id="edge45" class="edge">
<title>Node24&#45;&gt;Node25</title>
<path fill="none" stroke="midnightblue" d="M2445.68,-111.47C2459.46,-100.09 2477.88,-84.87 2489.2,-75.51"/>
<polygon fill="midnightblue" stroke="midnightblue" points="2443.29,-108.91 2437.82,-117.98 2447.75,-114.3 2443.29,-108.91"/>
</g>
<!-- Node26 -->
<g id="node26" class="node">
<title>Node26</title>
<g id="a_node26"><a xlink:href="sloth_8hpp.html" target="_top" xlink:title="List of SLOTH header files.">
<polygon fill="none" stroke="black" points="2467,-0.5 2467,-19.5 2532,-19.5 2532,-0.5 2467,-0.5"/>
<text text-anchor="middle" x="2499.5" y="-7.5" font-family="serif" font-size="10.00">sloth.hpp</text>
</a>
</g>
</g>
<!-- Node25&#45;&gt;Node26 -->
<g id="edge46" class="edge">
<title>Node25&#45;&gt;Node26</title>
<path fill="none" stroke="midnightblue" d="M2499.5,-45.8C2499.5,-36.91 2499.5,-26.78 2499.5,-19.75"/>
<polygon fill="midnightblue" stroke="midnightblue" points="2496,-46.08 2499.5,-56.08 2503,-46.08 2496,-46.08"/>
</g>
<!-- Node27&#45;&gt;Node25 -->
<g id="edge48" class="edge">
<title>Node27&#45;&gt;Node25</title>
<path fill="none" stroke="midnightblue" d="M2554.06,-111.47C2540.1,-100.09 2521.42,-84.87 2509.94,-75.51"/>
<polygon fill="midnightblue" stroke="midnightblue" points="2552.08,-114.37 2562.04,-117.98 2556.5,-108.94 2552.08,-114.37"/>
</g>
</g>
</svg>
