<?xml version="1.0" encoding="UTF-8" standalone="no"?>
<!DOCTYPE svg PUBLIC "-//W3C//DTD SVG 1.1//EN"
 "http://www.w3.org/Graphics/SVG/1.1/DTD/svg11.dtd">
<!-- Generated by graphviz version 2.43.0 (0)
 -->
<!-- Title: SlothGridFunction.cpp Pages: 1 -->
<svg width="233pt" height="140pt"
 viewBox="0.00 0.00 233.00 140.00" xmlns="http://www.w3.org/2000/svg" xmlns:xlink="http://www.w3.org/1999/xlink">
<g id="graph0" class="graph" transform="scale(1 1) rotate(0) translate(4 136)">
<title>SlothGridFunction.cpp</title>
<!-- Node1 -->
<g id="node1" class="node">
<title>Node1</title>
<g id="a_node1"><a xlink:title="Class dedicated to the calculation of the gradient of a GridFunction.">
<polygon fill="#bfbfbf" stroke="black" points="93,-112.5 93,-131.5 225,-131.5 225,-112.5 93,-112.5"/>
<text text-anchor="middle" x="159" y="-119.5" font-family="serif" font-size="10.00">SlothGridFunction.cpp</text>
</a>
</g>
</g>
<!-- Node2 -->
<g id="node2" class="node">
<title>Node2</title>
<g id="a_node2"><a xlink:href="SlothGridFunction_8hpp.html" target="_top" xlink:title="Class dedicated to the calculation of the gradient of a GridFunction.">
<polygon fill="none" stroke="black" points="0,-56.5 0,-75.5 194,-75.5 194,-56.5 0,-56.5"/>
<text text-anchor="middle" x="97" y="-63.5" font-family="serif" font-size="10.00">Integrators/SlothGridFunction.hpp</text>
</a>
</g>
</g>
<!-- Node1&#45;&gt;Node2 -->
<g id="edge1" class="edge">
<title>Node1&#45;&gt;Node2</title>
<path fill="none" stroke="midnightblue" d="M149.04,-112.32C139.87,-104.34 126.06,-92.31 114.97,-82.65"/>
<polygon fill="midnightblue" stroke="midnightblue" points="116.98,-79.76 107.14,-75.83 112.38,-85.04 116.98,-79.76"/>
</g>
<!-- Node3 -->
<g id="node3" class="node">
<title>Node3</title>
<g id="a_node3"><a xlink:title=" ">
<polygon fill="none" stroke="#bfbfbf" points="124.5,-0.5 124.5,-19.5 193.5,-19.5 193.5,-0.5 124.5,-0.5"/>
<text text-anchor="middle" x="159" y="-7.5" font-family="serif" font-size="10.00">mfem.hpp</text>
</a>
</g>
</g>
<!-- Node1&#45;&gt;Node3 -->
<g id="edge3" class="edge">
<title>Node1&#45;&gt;Node3</title>
<path fill="none" stroke="midnightblue" d="M171.78,-112.37C182.39,-104.36 196.73,-91.38 203,-76 210.64,-57.26 194.61,-38.39 179.8,-25.85"/>
<polygon fill="midnightblue" stroke="midnightblue" points="181.87,-23.02 171.86,-19.57 177.53,-28.52 181.87,-23.02"/>
</g>
<!-- Node2&#45;&gt;Node3 -->
<g id="edge2" class="edge">
<title>Node2&#45;&gt;Node3</title>
<path fill="none" stroke="midnightblue" d="M106.96,-56.32C116.13,-48.34 129.94,-36.31 141.03,-26.65"/>
<polygon fill="midnightblue" stroke="midnightblue" points="143.62,-29.04 148.86,-19.83 139.02,-23.76 143.62,-29.04"/>
</g>
</g>
</svg>
