<?xml version="1.0" encoding="UTF-8" standalone="no"?>
<!DOCTYPE svg PUBLIC "-//W3C//DTD SVG 1.1//EN"
 "http://www.w3.org/Graphics/SVG/1.1/DTD/svg11.dtd">
<!-- Generated by graphviz version 2.43.0 (0)
 -->
<!-- Title: SolverBase.hpp Pages: 1 -->
<svg width="1352pt" height="420pt"
 viewBox="0.00 0.00 1351.50 420.00" xmlns="http://www.w3.org/2000/svg" xmlns:xlink="http://www.w3.org/1999/xlink">
<g id="graph0" class="graph" transform="scale(1 1) rotate(0) translate(4 416)">
<title>SolverBase.hpp</title>
<!-- Node1 -->
<g id="node1" class="node">
<title>Node1</title>
<g id="a_node1"><a xlink:title="Base class for Hypre, Iterative, Direct and Non Linear Solvers.">
<polygon fill="#bfbfbf" stroke="black" points="650.5,-392.5 650.5,-411.5 747.5,-411.5 747.5,-392.5 650.5,-392.5"/>
<text text-anchor="middle" x="699" y="-399.5" font-family="serif" font-size="10.00">SolverBase.hpp</text>
</a>
</g>
</g>
<!-- Node2 -->
<g id="node2" class="node">
<title>Node2</title>
<g id="a_node2"><a xlink:href="DSolverBase_8hpp.html" target="_top" xlink:title="Direct solvers.">
<polygon fill="none" stroke="black" points="570.5,-336.5 570.5,-355.5 675.5,-355.5 675.5,-336.5 570.5,-336.5"/>
<text text-anchor="middle" x="623" y="-343.5" font-family="serif" font-size="10.00">DSolverBase.hpp</text>
</a>
</g>
</g>
<!-- Node1&#45;&gt;Node2 -->
<g id="edge1" class="edge">
<title>Node1&#45;&gt;Node2</title>
<path fill="none" stroke="midnightblue" d="M678.42,-386.38C664.69,-376.62 647.07,-364.11 635.43,-355.83"/>
<polygon fill="midnightblue" stroke="midnightblue" points="676.61,-389.38 686.79,-392.32 680.66,-383.68 676.61,-389.38"/>
</g>
<!-- Node14 -->
<g id="node14" class="node">
<title>Node14</title>
<g id="a_node14"><a xlink:href="DSolverBase_8cpp.html" target="_top" xlink:title="Direct solvers.">
<polygon fill="none" stroke="black" points="330,-280.5 330,-299.5 434,-299.5 434,-280.5 330,-280.5"/>
<text text-anchor="middle" x="382" y="-287.5" font-family="serif" font-size="10.00">DSolverBase.cpp</text>
</a>
</g>
</g>
<!-- Node1&#45;&gt;Node14 -->
<g id="edge49" class="edge">
<title>Node1&#45;&gt;Node14</title>
<path fill="none" stroke="midnightblue" d="M661.91,-389.37C634.25,-380.56 595.61,-367.97 562,-356 538.67,-347.69 533.24,-344.55 510,-336 474.41,-322.9 432.96,-308.48 407.09,-299.58"/>
<polygon fill="midnightblue" stroke="midnightblue" points="660.98,-392.75 671.57,-392.43 663.1,-386.07 660.98,-392.75"/>
</g>
<!-- Node15 -->
<g id="node15" class="node">
<title>Node15</title>
<g id="a_node15"><a xlink:href="HPrecondBase_8hpp.html" target="_top" xlink:title="Base class for hypre preconditionners used in linear system involved in non linear algorithm.">
<polygon fill="none" stroke="black" points="169,-336.5 169,-355.5 285,-355.5 285,-336.5 169,-336.5"/>
<text text-anchor="middle" x="227" y="-343.5" font-family="serif" font-size="10.00">HPrecondBase.hpp</text>
</a>
</g>
</g>
<!-- Node1&#45;&gt;Node15 -->
<g id="edge24" class="edge">
<title>Node1&#45;&gt;Node15</title>
<path fill="none" stroke="midnightblue" d="M640.14,-394.27C549.28,-383.87 375.91,-364.04 285.36,-353.68"/>
<polygon fill="midnightblue" stroke="midnightblue" points="639.93,-397.77 650.27,-395.42 640.73,-390.81 639.93,-397.77"/>
</g>
<!-- Node16 -->
<g id="node16" class="node">
<title>Node16</title>
<g id="a_node16"><a xlink:href="HPrecondBase_8cpp.html" target="_top" xlink:title="Base class for hypre preconditionners used in linear system involved in non linear algorithm.">
<polygon fill="none" stroke="black" points="0,-280.5 0,-299.5 114,-299.5 114,-280.5 0,-280.5"/>
<text text-anchor="middle" x="57" y="-287.5" font-family="serif" font-size="10.00">HPrecondBase.cpp</text>
</a>
</g>
</g>
<!-- Node1&#45;&gt;Node16 -->
<g id="edge50" class="edge">
<title>Node1&#45;&gt;Node16</title>
<path fill="none" stroke="midnightblue" d="M640.3,-399.61C519.63,-396.19 247.71,-385.37 160,-356 122.3,-343.38 84.43,-314.24 66.96,-299.65"/>
<polygon fill="midnightblue" stroke="midnightblue" points="640.36,-403.11 650.46,-399.89 640.56,-396.12 640.36,-403.11"/>
</g>
<!-- Node17 -->
<g id="node17" class="node">
<title>Node17</title>
<g id="a_node17"><a xlink:href="HSolverBase_8hpp.html" target="_top" xlink:title="Base class for Hypre solvers.">
<polygon fill="none" stroke="black" points="395,-336.5 395,-355.5 501,-355.5 501,-336.5 395,-336.5"/>
<text text-anchor="middle" x="448" y="-343.5" font-family="serif" font-size="10.00">HSolverBase.hpp</text>
</a>
</g>
</g>
<!-- Node1&#45;&gt;Node17 -->
<g id="edge28" class="edge">
<title>Node1&#45;&gt;Node17</title>
<path fill="none" stroke="midnightblue" d="M649.18,-390.28C601.75,-380.08 531.3,-364.92 487.59,-355.52"/>
<polygon fill="midnightblue" stroke="midnightblue" points="648.72,-393.76 659.23,-392.44 650.19,-386.92 648.72,-393.76"/>
</g>
<!-- Node18 -->
<g id="node18" class="node">
<title>Node18</title>
<g id="a_node18"><a xlink:href="HSolverBase_8cpp.html" target="_top" xlink:title="Base class for Hypre solvers.">
<polygon fill="none" stroke="black" points="170,-280.5 170,-299.5 274,-299.5 274,-280.5 170,-280.5"/>
<text text-anchor="middle" x="222" y="-287.5" font-family="serif" font-size="10.00">HSolverBase.cpp</text>
</a>
</g>
</g>
<!-- Node1&#45;&gt;Node18 -->
<g id="edge51" class="edge">
<title>Node1&#45;&gt;Node18</title>
<path fill="none" stroke="midnightblue" d="M640.07,-396.68C576.54,-391.06 472.82,-379.1 386,-356 330.95,-341.35 269.32,-313.68 239.73,-299.64"/>
<polygon fill="midnightblue" stroke="midnightblue" points="640.04,-400.19 650.3,-397.56 640.64,-393.21 640.04,-400.19"/>
</g>
<!-- Node19 -->
<g id="node19" class="node">
<title>Node19</title>
<g id="a_node19"><a xlink:href="IPrecondBase_8hpp.html" target="_top" xlink:title="Base class for preconditionners used in linear system involved in non linear algorithm.">
<polygon fill="none" stroke="black" points="883,-336.5 883,-355.5 993,-355.5 993,-336.5 883,-336.5"/>
<text text-anchor="middle" x="938" y="-343.5" font-family="serif" font-size="10.00">IPrecondBase.hpp</text>
</a>
</g>
</g>
<!-- Node1&#45;&gt;Node19 -->
<g id="edge32" class="edge">
<title>Node1&#45;&gt;Node19</title>
<path fill="none" stroke="midnightblue" d="M746.72,-390.22C791.89,-380.01 858.77,-364.9 900.31,-355.52"/>
<polygon fill="midnightblue" stroke="midnightblue" points="745.85,-386.83 736.87,-392.44 747.4,-393.65 745.85,-386.83"/>
</g>
<!-- Node20 -->
<g id="node20" class="node">
<title>Node20</title>
<g id="a_node20"><a xlink:href="IPrecondBase_8cpp.html" target="_top" xlink:title="Base class for preconditionners used in linear system involved in non linear algorithm.">
<polygon fill="none" stroke="black" points="1028.5,-280.5 1028.5,-299.5 1137.5,-299.5 1137.5,-280.5 1028.5,-280.5"/>
<text text-anchor="middle" x="1083" y="-287.5" font-family="serif" font-size="10.00">IPrecondBase.cpp</text>
</a>
</g>
</g>
<!-- Node1&#45;&gt;Node20 -->
<g id="edge52" class="edge">
<title>Node1&#45;&gt;Node20</title>
<path fill="none" stroke="midnightblue" d="M757.72,-401.26C820.65,-399.52 922.25,-390.84 1002,-356 1032.73,-342.58 1061.57,-314.35 1075.04,-299.91"/>
<polygon fill="midnightblue" stroke="midnightblue" points="757.5,-397.76 747.58,-401.49 757.66,-404.76 757.5,-397.76"/>
</g>
<!-- Node21 -->
<g id="node21" class="node">
<title>Node21</title>
<g id="a_node21"><a xlink:href="ISolverBase_8hpp.html" target="_top" xlink:title="Base class for iterative solvers.">
<polygon fill="none" stroke="black" points="701.5,-336.5 701.5,-355.5 802.5,-355.5 802.5,-336.5 701.5,-336.5"/>
<text text-anchor="middle" x="752" y="-343.5" font-family="serif" font-size="10.00">ISolverBase.hpp</text>
</a>
</g>
</g>
<!-- Node1&#45;&gt;Node21 -->
<g id="edge38" class="edge">
<title>Node1&#45;&gt;Node21</title>
<path fill="none" stroke="midnightblue" d="M714.98,-384.72C724.32,-375.2 735.75,-363.56 743.41,-355.75"/>
<polygon fill="midnightblue" stroke="midnightblue" points="712.26,-382.49 707.75,-392.08 717.25,-387.4 712.26,-382.49"/>
</g>
<!-- Node22 -->
<g id="node22" class="node">
<title>Node22</title>
<g id="a_node22"><a xlink:href="ISolverBase_8cpp.html" target="_top" xlink:title="Base class for iterative solvers.">
<polygon fill="none" stroke="black" points="834.5,-280.5 834.5,-299.5 933.5,-299.5 933.5,-280.5 834.5,-280.5"/>
<text text-anchor="middle" x="884" y="-287.5" font-family="serif" font-size="10.00">ISolverBase.cpp</text>
</a>
</g>
</g>
<!-- Node1&#45;&gt;Node22 -->
<g id="edge53" class="edge">
<title>Node1&#45;&gt;Node22</title>
<path fill="none" stroke="midnightblue" d="M738.26,-389.22C760.78,-381.54 789.04,-370.29 812,-356 838.31,-339.63 863.99,-313.21 876.36,-299.65"/>
<polygon fill="midnightblue" stroke="midnightblue" points="737.07,-385.93 728.68,-392.39 739.27,-392.57 737.07,-385.93"/>
</g>
<!-- Node23 -->
<g id="node23" class="node">
<title>Node23</title>
<g id="a_node23"><a xlink:href="NLSolverBase_8hpp.html" target="_top" xlink:title="ase class for non linear solvers">
<polygon fill="none" stroke="black" points="1109.5,-336.5 1109.5,-355.5 1222.5,-355.5 1222.5,-336.5 1109.5,-336.5"/>
<text text-anchor="middle" x="1166" y="-343.5" font-family="serif" font-size="10.00">NLSolverBase.hpp</text>
</a>
</g>
</g>
<!-- Node1&#45;&gt;Node23 -->
<g id="edge44" class="edge">
<title>Node1&#45;&gt;Node23</title>
<path fill="none" stroke="midnightblue" d="M757.73,-394.21C848.05,-383.77 1019.95,-363.89 1109.14,-353.58"/>
<polygon fill="midnightblue" stroke="midnightblue" points="757.19,-390.75 747.66,-395.37 757.99,-397.7 757.19,-390.75"/>
</g>
<!-- Node24 -->
<g id="node24" class="node">
<title>Node24</title>
<g id="a_node24"><a xlink:href="NLSolverBase_8cpp.html" target="_top" xlink:title="ase class for non linear solvers">
<polygon fill="none" stroke="black" points="1232.5,-280.5 1232.5,-299.5 1343.5,-299.5 1343.5,-280.5 1232.5,-280.5"/>
<text text-anchor="middle" x="1288" y="-287.5" font-family="serif" font-size="10.00">NLSolverBase.cpp</text>
</a>
</g>
</g>
<!-- Node1&#45;&gt;Node24 -->
<g id="edge54" class="edge">
<title>Node1&#45;&gt;Node24</title>
<path fill="none" stroke="midnightblue" d="M757.89,-401.56C878.79,-401.82 1150.52,-397.59 1232,-356 1256.94,-343.27 1275.45,-314.18 1283.53,-299.63"/>
<polygon fill="midnightblue" stroke="midnightblue" points="757.72,-398.06 747.71,-401.52 757.69,-405.06 757.72,-398.06"/>
</g>
<!-- Node3 -->
<g id="node3" class="node">
<title>Node3</title>
<g id="a_node3"><a xlink:href="NLSolver_8hpp.html" target="_top" xlink:title="Class used to manage a NonLinear Solver( Newton type)">
<polygon fill="none" stroke="black" points="652.5,-224.5 652.5,-243.5 739.5,-243.5 739.5,-224.5 652.5,-224.5"/>
<text text-anchor="middle" x="696" y="-231.5" font-family="serif" font-size="10.00">NLSolver.hpp</text>
</a>
</g>
</g>
<!-- Node2&#45;&gt;Node3 -->
<g id="edge2" class="edge">
<title>Node2&#45;&gt;Node3</title>
<path fill="none" stroke="midnightblue" d="M643.97,-330.08C653.91,-322.11 665.27,-311.57 673,-300 685.1,-281.89 691.62,-256.67 694.38,-243.61"/>
<polygon fill="midnightblue" stroke="midnightblue" points="641.55,-327.53 635.73,-336.38 645.8,-333.09 641.55,-327.53"/>
</g>
<!-- Node9 -->
<g id="node9" class="node">
<title>Node9</title>
<g id="a_node9"><a xlink:href="NLSolver_8cpp.html" target="_top" xlink:title="Class used to manage a NonLinear Solver( Newton type)">
<polygon fill="none" stroke="black" points="763,-168.5 763,-187.5 849,-187.5 849,-168.5 763,-168.5"/>
<text text-anchor="middle" x="806" y="-175.5" font-family="serif" font-size="10.00">NLSolver.cpp</text>
</a>
</g>
</g>
<!-- Node2&#45;&gt;Node9 -->
<g id="edge22" class="edge">
<title>Node2&#45;&gt;Node9</title>
<path fill="none" stroke="midnightblue" d="M646.28,-331.08C659.77,-322.66 676.83,-311.37 691,-300 736.89,-263.18 782.31,-208.67 799.15,-187.68"/>
<polygon fill="midnightblue" stroke="midnightblue" points="644.28,-328.2 637.6,-336.42 647.95,-334.16 644.28,-328.2"/>
</g>
<!-- Node10 -->
<g id="node10" class="node">
<title>Node10</title>
<g id="a_node10"><a xlink:href="SlothSolver_8hpp.html" target="_top" xlink:title="Class to define a SlothSolver objet.">
<polygon fill="none" stroke="black" points="566,-280.5 566,-299.5 664,-299.5 664,-280.5 566,-280.5"/>
<text text-anchor="middle" x="615" y="-287.5" font-family="serif" font-size="10.00">SlothSolver.hpp</text>
</a>
</g>
</g>
<!-- Node2&#45;&gt;Node10 -->
<g id="edge11" class="edge">
<title>Node2&#45;&gt;Node10</title>
<path fill="none" stroke="midnightblue" d="M620.2,-326.1C618.87,-317.14 617.35,-306.86 616.3,-299.75"/>
<polygon fill="midnightblue" stroke="midnightblue" points="616.75,-326.7 621.68,-336.08 623.68,-325.68 616.75,-326.7"/>
</g>
<!-- Node13 -->
<g id="node13" class="node">
<title>Node13</title>
<g id="a_node13"><a xlink:href="SlothSolver_8cpp.html" target="_top" xlink:title="Class to define a SlothSolver objet.">
<polygon fill="none" stroke="black" points="366,-224.5 366,-243.5 462,-243.5 462,-224.5 366,-224.5"/>
<text text-anchor="middle" x="414" y="-231.5" font-family="serif" font-size="10.00">SlothSolver.cpp</text>
</a>
</g>
</g>
<!-- Node2&#45;&gt;Node13 -->
<g id="edge23" class="edge">
<title>Node2&#45;&gt;Node13</title>
<path fill="none" stroke="midnightblue" d="M572.8,-333.9C545.91,-326.65 512.88,-315.6 486,-300 459.2,-284.45 433.73,-257.67 421.52,-243.84"/>
<polygon fill="midnightblue" stroke="midnightblue" points="572.22,-337.36 582.78,-336.49 573.98,-330.59 572.22,-337.36"/>
</g>
<!-- Node2&#45;&gt;Node14 -->
<g id="edge21" class="edge">
<title>Node2&#45;&gt;Node14</title>
<path fill="none" stroke="midnightblue" d="M574.88,-334.22C529.34,-324.01 461.89,-308.9 420.01,-299.52"/>
<polygon fill="midnightblue" stroke="midnightblue" points="574.29,-337.67 584.81,-336.44 575.82,-330.84 574.29,-337.67"/>
</g>
<!-- Node4 -->
<g id="node4" class="node">
<title>Node4</title>
<g id="a_node4"><a xlink:href="OperatorBase_8hpp.html" target="_top" xlink:title="Base class for building Steady and TimeDependent PhaseFieldOperators.">
<polygon fill="none" stroke="black" points="597,-168.5 597,-187.5 707,-187.5 707,-168.5 597,-168.5"/>
<text text-anchor="middle" x="652" y="-175.5" font-family="serif" font-size="10.00">OperatorBase.hpp</text>
</a>
</g>
</g>
<!-- Node3&#45;&gt;Node4 -->
<g id="edge3" class="edge">
<title>Node3&#45;&gt;Node4</title>
<path fill="none" stroke="midnightblue" d="M682.27,-216.14C674.6,-206.74 665.37,-195.4 659.13,-187.75"/>
<polygon fill="midnightblue" stroke="midnightblue" points="679.7,-218.54 688.73,-224.08 685.13,-214.12 679.7,-218.54"/>
</g>
<!-- Node5 -->
<g id="node5" class="node">
<title>Node5</title>
<g id="a_node5"><a xlink:href="SteadyOperator_8hpp.html" target="_top" xlink:title="Steady Operator.">
<polygon fill="none" stroke="black" points="616,-112.5 616,-131.5 736,-131.5 736,-112.5 616,-112.5"/>
<text text-anchor="middle" x="676" y="-119.5" font-family="serif" font-size="10.00">SteadyOperator.hpp</text>
</a>
</g>
</g>
<!-- Node3&#45;&gt;Node5 -->
<g id="edge9" class="edge">
<title>Node3&#45;&gt;Node5</title>
<path fill="none" stroke="midnightblue" d="M707.47,-215.92C714.88,-202.69 722.08,-183.99 716,-168 710.28,-152.95 696.97,-139.73 687.27,-131.57"/>
<polygon fill="midnightblue" stroke="midnightblue" points="704.48,-214.11 702.24,-224.47 710.45,-217.77 704.48,-214.11"/>
</g>
<!-- Node3&#45;&gt;Node9 -->
<g id="edge10" class="edge">
<title>Node3&#45;&gt;Node9</title>
<path fill="none" stroke="midnightblue" d="M722.76,-219.86C743.16,-209.85 770.67,-196.35 788.37,-187.65"/>
<polygon fill="midnightblue" stroke="midnightblue" points="721.11,-216.78 713.67,-224.32 724.19,-223.06 721.11,-216.78"/>
</g>
<!-- Node4&#45;&gt;Node5 -->
<g id="edge4" class="edge">
<title>Node4&#45;&gt;Node5</title>
<path fill="none" stroke="midnightblue" d="M660.14,-158.69C664.18,-149.59 668.88,-139.01 672.11,-131.75"/>
<polygon fill="midnightblue" stroke="midnightblue" points="656.83,-157.52 655.96,-168.08 663.22,-160.37 656.83,-157.52"/>
</g>
<!-- Node8 -->
<g id="node8" class="node">
<title>Node8</title>
<g id="a_node8"><a xlink:href="TransientOperator_8hpp.html" target="_top" xlink:title="Transient Operator.">
<polygon fill="none" stroke="black" points="464,-112.5 464,-131.5 598,-131.5 598,-112.5 464,-112.5"/>
<text text-anchor="middle" x="531" y="-119.5" font-family="serif" font-size="10.00">TransientOperator.hpp</text>
</a>
</g>
</g>
<!-- Node4&#45;&gt;Node8 -->
<g id="edge7" class="edge">
<title>Node4&#45;&gt;Node8</title>
<path fill="none" stroke="midnightblue" d="M623.69,-164.37C601.03,-154.26 569.87,-140.35 550.08,-131.52"/>
<polygon fill="midnightblue" stroke="midnightblue" points="622.27,-167.56 632.83,-168.44 625.12,-161.17 622.27,-167.56"/>
</g>
<!-- Node6 -->
<g id="node6" class="node">
<title>Node6</title>
<g id="a_node6"><a xlink:href="ListOperators_8hpp.html" target="_top" xlink:title=" ">
<polygon fill="none" stroke="black" points="548,-56.5 548,-75.5 658,-75.5 658,-56.5 548,-56.5"/>
<text text-anchor="middle" x="603" y="-63.5" font-family="serif" font-size="10.00">ListOperators.hpp</text>
</a>
</g>
</g>
<!-- Node5&#45;&gt;Node6 -->
<g id="edge5" class="edge">
<title>Node5&#45;&gt;Node6</title>
<path fill="none" stroke="midnightblue" d="M655.86,-106.1C642.72,-96.38 626.02,-84.03 614.94,-75.83"/>
<polygon fill="midnightblue" stroke="midnightblue" points="654.15,-109.19 664.27,-112.32 658.31,-103.56 654.15,-109.19"/>
</g>
<!-- Node7 -->
<g id="node7" class="node">
<title>Node7</title>
<g id="a_node7"><a xlink:href="sloth_8hpp.html" target="_top" xlink:title="List of SLOTH header files.">
<polygon fill="none" stroke="black" points="570.5,-0.5 570.5,-19.5 635.5,-19.5 635.5,-0.5 570.5,-0.5"/>
<text text-anchor="middle" x="603" y="-7.5" font-family="serif" font-size="10.00">sloth.hpp</text>
</a>
</g>
</g>
<!-- Node6&#45;&gt;Node7 -->
<g id="edge6" class="edge">
<title>Node6&#45;&gt;Node7</title>
<path fill="none" stroke="midnightblue" d="M603,-45.8C603,-36.91 603,-26.78 603,-19.75"/>
<polygon fill="midnightblue" stroke="midnightblue" points="599.5,-46.08 603,-56.08 606.5,-46.08 599.5,-46.08"/>
</g>
<!-- Node8&#45;&gt;Node6 -->
<g id="edge8" class="edge">
<title>Node8&#45;&gt;Node6</title>
<path fill="none" stroke="midnightblue" d="M550.87,-106.1C563.82,-96.38 580.3,-84.03 591.22,-75.83"/>
<polygon fill="midnightblue" stroke="midnightblue" points="548.47,-103.52 542.57,-112.32 552.67,-109.12 548.47,-103.52"/>
</g>
<!-- Node10&#45;&gt;Node3 -->
<g id="edge17" class="edge">
<title>Node10&#45;&gt;Node3</title>
<path fill="none" stroke="midnightblue" d="M636.57,-274.62C651.36,-264.76 670.51,-251.99 683.02,-243.65"/>
<polygon fill="midnightblue" stroke="midnightblue" points="634.39,-271.86 628.01,-280.32 638.28,-277.69 634.39,-271.86"/>
</g>
<!-- Node10&#45;&gt;Node9 -->
<g id="edge19" class="edge">
<title>Node10&#45;&gt;Node9</title>
<path fill="none" stroke="midnightblue" d="M618.71,-270.49C622.59,-255.85 630.12,-235.95 644,-224 677.17,-195.42 727.09,-184.89 762.74,-181.06"/>
<polygon fill="midnightblue" stroke="midnightblue" points="615.26,-269.91 616.41,-280.44 622.08,-271.49 615.26,-269.91"/>
</g>
<!-- Node11 -->
<g id="node11" class="node">
<title>Node11</title>
<g id="a_node11"><a xlink:href="LSolver_8hpp.html" target="_top" xlink:title="Class used to manage Linear Solver objet.">
<polygon fill="none" stroke="black" points="518,-224.5 518,-243.5 596,-243.5 596,-224.5 518,-224.5"/>
<text text-anchor="middle" x="557" y="-231.5" font-family="serif" font-size="10.00">LSolver.hpp</text>
</a>
</g>
</g>
<!-- Node10&#45;&gt;Node11 -->
<g id="edge12" class="edge">
<title>Node10&#45;&gt;Node11</title>
<path fill="none" stroke="midnightblue" d="M598.09,-273.25C587.8,-263.67 575.03,-251.79 566.49,-243.83"/>
<polygon fill="midnightblue" stroke="midnightblue" points="595.98,-276.07 605.68,-280.32 600.75,-270.95 595.98,-276.07"/>
</g>
<!-- Node12 -->
<g id="node12" class="node">
<title>Node12</title>
<g id="a_node12"><a xlink:href="LSolver_8cpp.html" target="_top" xlink:title="Class used to manage Linear Solver objet.">
<polygon fill="none" stroke="black" points="425.5,-168.5 425.5,-187.5 502.5,-187.5 502.5,-168.5 425.5,-168.5"/>
<text text-anchor="middle" x="464" y="-175.5" font-family="serif" font-size="10.00">LSolver.cpp</text>
</a>
</g>
</g>
<!-- Node10&#45;&gt;Node12 -->
<g id="edge18" class="edge">
<title>Node10&#45;&gt;Node12</title>
<path fill="none" stroke="midnightblue" d="M572.79,-277.22C552.06,-269.98 527.6,-259.15 509,-244 489.42,-228.05 474.74,-201.45 468.03,-187.75"/>
<polygon fill="midnightblue" stroke="midnightblue" points="571.73,-280.55 582.32,-280.39 573.93,-273.91 571.73,-280.55"/>
</g>
<!-- Node10&#45;&gt;Node13 -->
<g id="edge20" class="edge">
<title>Node10&#45;&gt;Node13</title>
<path fill="none" stroke="midnightblue" d="M573.42,-277.83C535.47,-267.63 480.19,-252.78 445.7,-243.52"/>
<polygon fill="midnightblue" stroke="midnightblue" points="572.59,-281.23 583.15,-280.44 574.4,-274.47 572.59,-281.23"/>
</g>
<!-- Node11&#45;&gt;Node4 -->
<g id="edge13" class="edge">
<title>Node11&#45;&gt;Node4</title>
<path fill="none" stroke="midnightblue" d="M581.32,-219.18C598.8,-209.24 621.83,-196.15 636.77,-187.65"/>
<polygon fill="midnightblue" stroke="midnightblue" points="579.23,-216.34 572.26,-224.32 582.69,-222.43 579.23,-216.34"/>
</g>
<!-- Node11&#45;&gt;Node5 -->
<g id="edge14" class="edge">
<title>Node11&#45;&gt;Node5</title>
<path fill="none" stroke="midnightblue" d="M562.14,-214.74C566.91,-200.55 575.22,-181.14 588,-168 604.87,-150.66 629.85,-138.77 648.89,-131.58"/>
<polygon fill="midnightblue" stroke="midnightblue" points="558.77,-213.79 559.17,-224.38 565.46,-215.85 558.77,-213.79"/>
</g>
<!-- Node11&#45;&gt;Node8 -->
<g id="edge15" class="edge">
<title>Node11&#45;&gt;Node8</title>
<path fill="none" stroke="midnightblue" d="M552.59,-214.35C546.9,-190.25 537.22,-149.31 533.03,-131.59"/>
<polygon fill="midnightblue" stroke="midnightblue" points="549.25,-215.44 554.96,-224.37 556.07,-213.83 549.25,-215.44"/>
</g>
<!-- Node11&#45;&gt;Node12 -->
<g id="edge16" class="edge">
<title>Node11&#45;&gt;Node12</title>
<path fill="none" stroke="midnightblue" d="M533.19,-219.18C516.08,-209.24 493.53,-196.15 478.9,-187.65"/>
<polygon fill="midnightblue" stroke="midnightblue" points="531.65,-222.33 542.06,-224.32 535.17,-216.28 531.65,-222.33"/>
</g>
<!-- Node15&#45;&gt;Node10 -->
<g id="edge25" class="edge">
<title>Node15&#45;&gt;Node10</title>
<path fill="none" stroke="midnightblue" d="M295.23,-335.5C372.7,-324.72 497.19,-307.4 565.75,-297.85"/>
<polygon fill="midnightblue" stroke="midnightblue" points="294.51,-332.07 285.09,-336.92 295.47,-339 294.51,-332.07"/>
</g>
<!-- Node15&#45;&gt;Node13 -->
<g id="edge27" class="edge">
<title>Node15&#45;&gt;Node13</title>
<path fill="none" stroke="midnightblue" d="M197.72,-332.03C173.26,-319.4 144.79,-299.35 161,-280 186.61,-249.44 299.8,-239.62 365.79,-236.47"/>
<polygon fill="midnightblue" stroke="midnightblue" points="196.28,-335.22 206.8,-336.48 199.37,-328.93 196.28,-335.22"/>
</g>
<!-- Node15&#45;&gt;Node16 -->
<g id="edge26" class="edge">
<title>Node15&#45;&gt;Node16</title>
<path fill="none" stroke="midnightblue" d="M190.18,-333.3C158.15,-323.13 112.48,-308.62 83.81,-299.52"/>
<polygon fill="midnightblue" stroke="midnightblue" points="189.47,-336.75 200.06,-336.44 191.59,-330.08 189.47,-336.75"/>
</g>
<!-- Node17&#45;&gt;Node10 -->
<g id="edge29" class="edge">
<title>Node17&#45;&gt;Node10</title>
<path fill="none" stroke="midnightblue" d="M484.17,-333.3C515.64,-323.13 560.49,-308.62 588.66,-299.52"/>
<polygon fill="midnightblue" stroke="midnightblue" points="482.9,-330.04 474.46,-336.44 485.05,-336.7 482.9,-330.04"/>
</g>
<!-- Node17&#45;&gt;Node13 -->
<g id="edge31" class="edge">
<title>Node17&#45;&gt;Node13</title>
<path fill="none" stroke="midnightblue" d="M385.01,-338.12C360.91,-332.07 335.71,-320.82 321,-300 302.13,-273.29 346.84,-253.89 380.6,-243.55"/>
<polygon fill="midnightblue" stroke="midnightblue" points="384.35,-341.56 394.88,-340.34 385.89,-334.73 384.35,-341.56"/>
</g>
<!-- Node17&#45;&gt;Node18 -->
<g id="edge30" class="edge">
<title>Node17&#45;&gt;Node18</title>
<path fill="none" stroke="midnightblue" d="M402.33,-334.09C359.64,-323.89 296.75,-308.86 257.64,-299.52"/>
<polygon fill="midnightblue" stroke="midnightblue" points="401.65,-337.52 412.19,-336.44 403.28,-330.72 401.65,-337.52"/>
</g>
<!-- Node19&#45;&gt;Node3 -->
<g id="edge33" class="edge">
<title>Node19&#45;&gt;Node3</title>
<path fill="none" stroke="midnightblue" d="M945.78,-326.52C950.44,-312.21 953.63,-292.74 943,-280 917.59,-249.54 803.47,-239.65 739.61,-236.47"/>
<polygon fill="midnightblue" stroke="midnightblue" points="942.36,-325.67 942.13,-336.26 948.92,-328.13 942.36,-325.67"/>
</g>
<!-- Node19&#45;&gt;Node9 -->
<g id="edge36" class="edge">
<title>Node19&#45;&gt;Node9</title>
<path fill="none" stroke="midnightblue" d="M951.23,-327.86C959.92,-314.36 968.28,-295.33 960,-280 933.03,-230.06 869.43,-200.82 832.95,-187.58"/>
<polygon fill="midnightblue" stroke="midnightblue" points="948.25,-326.01 945.36,-336.2 953.97,-330.04 948.25,-326.01"/>
</g>
<!-- Node19&#45;&gt;Node10 -->
<g id="edge34" class="edge">
<title>Node19&#45;&gt;Node10</title>
<path fill="none" stroke="midnightblue" d="M876.83,-334.77C815.13,-324.46 721.08,-308.73 664.09,-299.21"/>
<polygon fill="midnightblue" stroke="midnightblue" points="876.38,-338.25 886.82,-336.44 877.53,-331.34 876.38,-338.25"/>
</g>
<!-- Node19&#45;&gt;Node13 -->
<g id="edge37" class="edge">
<title>Node19&#45;&gt;Node13</title>
<path fill="none" stroke="midnightblue" d="M872.69,-340.27C779.74,-333.03 614.23,-318.11 557,-300 539.18,-294.36 536.84,-288.11 520,-280 491.36,-266.22 457.4,-252.2 435.79,-243.55"/>
<polygon fill="midnightblue" stroke="midnightblue" points="872.59,-343.77 882.82,-341.05 873.12,-336.79 872.59,-343.77"/>
</g>
<!-- Node19&#45;&gt;Node20 -->
<g id="edge35" class="edge">
<title>Node19&#45;&gt;Node20</title>
<path fill="none" stroke="midnightblue" d="M970.48,-332.91C997.74,-322.75 1035.99,-308.51 1060.13,-299.52"/>
<polygon fill="midnightblue" stroke="midnightblue" points="969.13,-329.67 960.98,-336.44 971.57,-336.23 969.13,-329.67"/>
</g>
<!-- Node21&#45;&gt;Node3 -->
<g id="edge39" class="edge">
<title>Node21&#45;&gt;Node3</title>
<path fill="none" stroke="midnightblue" d="M743,-327.32C730.81,-303.37 709.52,-261.55 700.37,-243.59"/>
<polygon fill="midnightblue" stroke="midnightblue" points="739.95,-329.04 747.61,-336.37 746.19,-325.87 739.95,-329.04"/>
</g>
<!-- Node21&#45;&gt;Node9 -->
<g id="edge42" class="edge">
<title>Node21&#45;&gt;Node9</title>
<path fill="none" stroke="midnightblue" d="M758.05,-326.39C769.7,-290.59 794.83,-213.34 803.21,-187.57"/>
<polygon fill="midnightblue" stroke="midnightblue" points="754.67,-325.48 754.9,-336.08 761.33,-327.65 754.67,-325.48"/>
</g>
<!-- Node21&#45;&gt;Node10 -->
<g id="edge40" class="edge">
<title>Node21&#45;&gt;Node10</title>
<path fill="none" stroke="midnightblue" d="M720.98,-332.77C695.24,-322.63 659.31,-308.47 636.61,-299.52"/>
<polygon fill="midnightblue" stroke="midnightblue" points="719.71,-336.03 730.29,-336.44 722.27,-329.52 719.71,-336.03"/>
</g>
<!-- Node21&#45;&gt;Node13 -->
<g id="edge43" class="edge">
<title>Node21&#45;&gt;Node13</title>
<path fill="none" stroke="midnightblue" d="M691.47,-335.43C634.62,-326.01 553.96,-311.42 524,-300 504.1,-292.41 452.18,-259.64 427.46,-243.73"/>
<polygon fill="midnightblue" stroke="midnightblue" points="691,-338.9 701.43,-337.07 692.13,-331.99 691,-338.9"/>
</g>
<!-- Node21&#45;&gt;Node22 -->
<g id="edge41" class="edge">
<title>Node21&#45;&gt;Node22</title>
<path fill="none" stroke="midnightblue" d="M782.22,-332.64C806.99,-322.5 841.4,-308.43 863.18,-299.52"/>
<polygon fill="midnightblue" stroke="midnightblue" points="780.85,-329.42 772.92,-336.44 783.5,-335.9 780.85,-329.42"/>
</g>
<!-- Node23&#45;&gt;Node3 -->
<g id="edge45" class="edge">
<title>Node23&#45;&gt;Node3</title>
<path fill="none" stroke="midnightblue" d="M1165.86,-326.06C1164.66,-311.16 1160.41,-291.13 1147,-280 1116.05,-254.3 846.75,-240.94 739.65,-236.61"/>
<polygon fill="midnightblue" stroke="midnightblue" points="1162.37,-326.37 1166.29,-336.21 1169.37,-326.07 1162.37,-326.37"/>
</g>
<!-- Node23&#45;&gt;Node9 -->
<g id="edge47" class="edge">
<title>Node23&#45;&gt;Node9</title>
<path fill="none" stroke="midnightblue" d="M1171.87,-326.76C1175.22,-312.59 1177,-293.18 1167,-280 1128.35,-229.06 936.34,-196.81 849.18,-184.58"/>
<polygon fill="midnightblue" stroke="midnightblue" points="1168.5,-325.82 1169.17,-336.39 1175.24,-327.71 1168.5,-325.82"/>
</g>
<!-- Node23&#45;&gt;Node10 -->
<g id="edge46" class="edge">
<title>Node23&#45;&gt;Node10</title>
<path fill="none" stroke="midnightblue" d="M1099.19,-338.45C986.93,-327.45 763.05,-305.51 664.04,-295.81"/>
<polygon fill="midnightblue" stroke="midnightblue" points="1099.07,-341.96 1109.37,-339.45 1099.76,-334.99 1099.07,-341.96"/>
</g>
<!-- Node23&#45;&gt;Node24 -->
<g id="edge48" class="edge">
<title>Node23&#45;&gt;Node24</title>
<path fill="none" stroke="midnightblue" d="M1194.54,-332.37C1217.39,-322.26 1248.81,-308.35 1268.76,-299.52"/>
<polygon fill="midnightblue" stroke="midnightblue" points="1193.06,-329.2 1185.33,-336.44 1195.89,-335.6 1193.06,-329.2"/>
</g>
</g>
</svg>
