<?xml version="1.0" encoding="UTF-8" standalone="no"?>
<!DOCTYPE svg PUBLIC "-//W3C//DTD SVG 1.1//EN"
 "http://www.w3.org/Graphics/SVG/1.1/DTD/svg11.dtd">
<!-- Generated by graphviz version 2.43.0 (0)
 -->
<!-- Title: SteadyReducedOperator.cpp Pages: 1 -->
<svg width="317pt" height="140pt"
 viewBox="0.00 0.00 316.95 140.00" xmlns="http://www.w3.org/2000/svg" xmlns:xlink="http://www.w3.org/1999/xlink">
<g id="graph0" class="graph" transform="scale(1 1) rotate(0) translate(4 136)">
<title>SteadyReducedOperator.cpp</title>
<!-- Node1 -->
<g id="node1" class="node">
<title>Node1</title>
<g id="a_node1"><a xlink:title="Steady version of the linear system resulting from the NonLinear algorithm.">
<polygon fill="#bfbfbf" stroke="black" points="110.45,-112.5 110.45,-131.5 274.45,-131.5 274.45,-112.5 110.45,-112.5"/>
<text text-anchor="middle" x="192.45" y="-119.5" font-family="serif" font-size="10.00">SteadyReducedOperator.cpp</text>
</a>
</g>
</g>
<!-- Node2 -->
<g id="node2" class="node">
<title>Node2</title>
<g id="a_node2"><a xlink:href="SteadyReducedOperator_8hpp.html" target="_top" xlink:title="Steady version of the linear system resulting from the NonLinear algorithm.">
<polygon fill="none" stroke="black" points="13.95,-56.5 13.95,-75.5 232.95,-75.5 232.95,-56.5 13.95,-56.5"/>
<text text-anchor="middle" x="123.45" y="-63.5" font-family="serif" font-size="10.00">Operators/SteadyReducedOperator.hpp</text>
</a>
</g>
</g>
<!-- Node1&#45;&gt;Node2 -->
<g id="edge1" class="edge">
<title>Node1&#45;&gt;Node2</title>
<path fill="none" stroke="midnightblue" d="M181.37,-112.32C170.97,-104.18 155.19,-91.84 142.73,-82.09"/>
<polygon fill="midnightblue" stroke="midnightblue" points="144.77,-79.24 134.74,-75.83 140.46,-84.75 144.77,-79.24"/>
</g>
<!-- Node3 -->
<g id="node3" class="node">
<title>Node3</title>
<g id="a_node3"><a xlink:title=" ">
<polygon fill="none" stroke="#bfbfbf" points="13.95,-0.5 13.95,-19.5 72.95,-19.5 72.95,-0.5 13.95,-0.5"/>
<text text-anchor="middle" x="43.45" y="-7.5" font-family="serif" font-size="10.00">memory</text>
</a>
</g>
</g>
<!-- Node1&#45;&gt;Node3 -->
<g id="edge5" class="edge">
<title>Node1&#45;&gt;Node3</title>
<path fill="none" stroke="midnightblue" d="M117.08,-112.49C71.15,-105.58 18.64,-93.98 4.45,-76 -8.11,-60.07 8.59,-39.76 23.87,-26.12"/>
<polygon fill="midnightblue" stroke="midnightblue" points="26.17,-28.76 31.57,-19.65 21.66,-23.41 26.17,-28.76"/>
</g>
<!-- Node4 -->
<g id="node4" class="node">
<title>Node4</title>
<g id="a_node4"><a xlink:title=" ">
<polygon fill="none" stroke="#bfbfbf" points="124.45,-0.5 124.45,-19.5 172.45,-19.5 172.45,-0.5 124.45,-0.5"/>
<text text-anchor="middle" x="148.45" y="-7.5" font-family="serif" font-size="10.00">vector</text>
</a>
</g>
</g>
<!-- Node1&#45;&gt;Node4 -->
<g id="edge6" class="edge">
<title>Node1&#45;&gt;Node4</title>
<path fill="none" stroke="midnightblue" d="M207.64,-112.34C226.84,-100.23 255.88,-77.32 242.45,-56 229.3,-35.12 203.48,-23.71 182.22,-17.62"/>
<polygon fill="midnightblue" stroke="midnightblue" points="183.09,-14.23 172.53,-15.1 181.33,-21 183.09,-14.23"/>
</g>
<!-- Node5 -->
<g id="node5" class="node">
<title>Node5</title>
<g id="a_node5"><a xlink:title=" ">
<polygon fill="none" stroke="#bfbfbf" points="239.95,-0.5 239.95,-19.5 308.95,-19.5 308.95,-0.5 239.95,-0.5"/>
<text text-anchor="middle" x="274.45" y="-7.5" font-family="serif" font-size="10.00">mfem.hpp</text>
</a>
</g>
</g>
<!-- Node1&#45;&gt;Node5 -->
<g id="edge7" class="edge">
<title>Node1&#45;&gt;Node5</title>
<path fill="none" stroke="midnightblue" d="M211.48,-112.46C226.17,-104.91 245.89,-92.53 257.45,-76 266.96,-62.41 271.15,-43.87 273,-30.06"/>
<polygon fill="midnightblue" stroke="midnightblue" points="276.51,-30.1 274.06,-19.79 269.55,-29.38 276.51,-30.1"/>
</g>
<!-- Node2&#45;&gt;Node3 -->
<g id="edge2" class="edge">
<title>Node2&#45;&gt;Node3</title>
<path fill="none" stroke="midnightblue" d="M110.6,-56.32C98.24,-47.98 79.32,-35.21 64.72,-25.35"/>
<polygon fill="midnightblue" stroke="midnightblue" points="66.52,-22.35 56.27,-19.65 62.6,-28.15 66.52,-22.35"/>
</g>
<!-- Node2&#45;&gt;Node4 -->
<g id="edge3" class="edge">
<title>Node2&#45;&gt;Node4</title>
<path fill="none" stroke="midnightblue" d="M127.58,-56.08C130.97,-48.77 135.87,-38.18 140.07,-29.1"/>
<polygon fill="midnightblue" stroke="midnightblue" points="143.38,-30.3 144.4,-19.75 137.02,-27.36 143.38,-30.3"/>
</g>
<!-- Node2&#45;&gt;Node5 -->
<g id="edge4" class="edge">
<title>Node2&#45;&gt;Node5</title>
<path fill="none" stroke="midnightblue" d="M147.38,-56.44C172.67,-47.4 212.75,-33.06 241.13,-22.92"/>
<polygon fill="midnightblue" stroke="midnightblue" points="242.4,-26.18 250.64,-19.52 240.04,-19.59 242.4,-26.18"/>
</g>
</g>
</svg>
