<?xml version="1.0" encoding="UTF-8" standalone="no"?>
<!DOCTYPE svg PUBLIC "-//W3C//DTD SVG 1.1//EN"
 "http://www.w3.org/Graphics/SVG/1.1/DTD/svg11.dtd">
<!-- Generated by graphviz version 2.43.0 (0)
 -->
<!-- Title: SumFunctionCoefficients.hpp Pages: 1 -->
<!--zoomable 140 -->
<svg id="main" version="1.1" xmlns="http://www.w3.org/2000/svg" xmlns:xlink="http://www.w3.org/1999/xlink" xml:space="preserve" onload="init(evt)">
<style type="text/css"><![CDATA[
.edge:hover path { stroke: red; }
.edge:hover polygon { stroke: red; fill: red; }
]]></style>
<script type="text/javascript"><![CDATA[
var edges = document.getElementsByTagName('g');
if (edges && edges.length) {
  for (var i=0;i<edges.length;i++) {
    if (edges[i].id.substr(0,4)=='edge') {
      edges[i].setAttribute('class','edge');
    }
  }
}
]]></script>
        <defs>
                <circle id="rim" cx="0" cy="0" r="7"/>
                <circle id="rim2" cx="0" cy="0" r="3.5"/>
                <g id="zoomPlus">
                        <use xlink:href="#rim" fill="#404040">
                                <set attributeName="fill" to="#808080" begin="zoomplus.mouseover" end="zoomplus.mouseout"/>
                        </use>
                        <path d="M-4,0h8M0,-4v8" fill="none" stroke="white" stroke-width="1.5" pointer-events="none"/>
                </g>
                <g id="zoomMin">
                        <use xlink:href="#rim" fill="#404040">
                                <set attributeName="fill" to="#808080" begin="zoomminus.mouseover" end="zoomminus.mouseout"/>
                        </use>
                        <path d="M-4,0h8" fill="none" stroke="white" stroke-width="1.5" pointer-events="none"/>
                </g>
                <g id="dirArrow">
                        <path fill="none" stroke="white" stroke-width="1.5" d="M0,-3.0v7 M-2.5,-0.5L0,-3.0L2.5,-0.5"/>
                </g>
               <g id="resetDef">
                       <use xlink:href="#rim2" fill="#404040">
                               <set attributeName="fill" to="#808080" begin="reset.mouseover" end="reset.mouseout"/>
                       </use>
               </g>
        </defs>

<script type="text/javascript">
var viewWidth = 854;
var viewHeight = 140;
var sectionId = 'dynsection-0';
</script>
<script xlink:href="svgpan.js"/>
<svg id="graph" class="graph">
<g id="viewport">
<title>SumFunctionCoefficients.hpp</title>
<!-- Node1 -->
<g id="node1" class="node">
<title>Node1</title>
<g id="a_node1"><a xlink:title=" ">
<polygon fill="#bfbfbf" stroke="black" points="349,-112.5 349,-131.5 516,-131.5 516,-112.5 349,-112.5"/>
<text text-anchor="middle" x="432.5" y="-119.5" font-family="serif" font-size="10.00">SumFunctionCoefficients.hpp</text>
</a>
</g>
</g>
<!-- Node2 -->
<g id="node2" class="node">
<title>Node2</title>
<g id="a_node2"><a xlink:title=" ">
<polygon fill="none" stroke="#bfbfbf" points="0,-0.5 0,-19.5 35,-19.5 35,-0.5 0,-0.5"/>
<text text-anchor="middle" x="17.5" y="-7.5" font-family="serif" font-size="10.00">any</text>
</a>
</g>
</g>
<!-- Node1&#45;&gt;Node2 -->
<g id="edge1" class="edge">
<title>Node1&#45;&gt;Node2</title>
<path fill="none" stroke="midnightblue" d="M356.67,-112.47C304.25,-105.46 233.29,-93.76 172.5,-76 125.49,-62.27 73.5,-38.6 43.26,-23.93"/>
<polygon fill="midnightblue" stroke="midnightblue" points="44.76,-20.77 34.24,-19.51 41.68,-27.05 44.76,-20.77"/>
</g>
<!-- Node3 -->
<g id="node3" class="node">
<title>Node3</title>
<g id="a_node3"><a xlink:title=" ">
<polygon fill="none" stroke="#bfbfbf" points="53.5,-0.5 53.5,-19.5 101.5,-19.5 101.5,-0.5 53.5,-0.5"/>
<text text-anchor="middle" x="77.5" y="-7.5" font-family="serif" font-size="10.00">cmath</text>
</a>
</g>
</g>
<!-- Node1&#45;&gt;Node3 -->
<g id="edge2" class="edge">
<title>Node1&#45;&gt;Node3</title>
<path fill="none" stroke="midnightblue" d="M380.11,-112.49C338.02,-104.96 277.69,-92.58 226.5,-76 181.87,-61.55 132.39,-38.46 103.16,-24.05"/>
<polygon fill="midnightblue" stroke="midnightblue" points="104.58,-20.84 94.06,-19.51 101.45,-27.11 104.58,-20.84"/>
</g>
<!-- Node4 -->
<g id="node4" class="node">
<title>Node4</title>
<g id="a_node4"><a xlink:title=" ">
<polygon fill="none" stroke="#bfbfbf" points="119.5,-0.5 119.5,-19.5 187.5,-19.5 187.5,-0.5 119.5,-0.5"/>
<text text-anchor="middle" x="153.5" y="-7.5" font-family="serif" font-size="10.00">functional</text>
</a>
</g>
</g>
<!-- Node1&#45;&gt;Node4 -->
<g id="edge3" class="edge">
<title>Node1&#45;&gt;Node4</title>
<path fill="none" stroke="midnightblue" d="M391.06,-112.47C357.56,-104.9 309.55,-92.47 269.5,-76 234.97,-61.8 197.78,-39.6 175.06,-25.18"/>
<polygon fill="midnightblue" stroke="midnightblue" points="176.85,-22.17 166.54,-19.7 173.06,-28.05 176.85,-22.17"/>
</g>
<!-- Node5 -->
<g id="node5" class="node">
<title>Node5</title>
<g id="a_node5"><a xlink:title=" ">
<polygon fill="none" stroke="#bfbfbf" points="205.5,-0.5 205.5,-19.5 249.5,-19.5 249.5,-0.5 205.5,-0.5"/>
<text text-anchor="middle" x="227.5" y="-7.5" font-family="serif" font-size="10.00">limits</text>
</a>
</g>
</g>
<!-- Node1&#45;&gt;Node5 -->
<g id="edge4" class="edge">
<title>Node1&#45;&gt;Node5</title>
<path fill="none" stroke="midnightblue" d="M393.42,-112.48C365.66,-105.35 328.2,-93.51 298.5,-76 276.36,-62.95 255.19,-42.11 241.82,-27.56"/>
<polygon fill="midnightblue" stroke="midnightblue" points="244.18,-24.95 234.9,-19.83 238.96,-29.61 244.18,-24.95"/>
</g>
<!-- Node6 -->
<g id="node6" class="node">
<title>Node6</title>
<g id="a_node6"><a xlink:title=" ">
<polygon fill="none" stroke="#bfbfbf" points="268,-0.5 268,-19.5 307,-19.5 307,-0.5 268,-0.5"/>
<text text-anchor="middle" x="287.5" y="-7.5" font-family="serif" font-size="10.00">map</text>
</a>
</g>
</g>
<!-- Node1&#45;&gt;Node6 -->
<g id="edge5" class="edge">
<title>Node1&#45;&gt;Node6</title>
<path fill="none" stroke="midnightblue" d="M387.06,-112.44C363.24,-105.93 335.03,-94.78 315.5,-76 302.51,-63.52 295.22,-44.01 291.35,-29.62"/>
<polygon fill="midnightblue" stroke="midnightblue" points="294.74,-28.74 289.03,-19.81 287.93,-30.35 294.74,-28.74"/>
</g>
<!-- Node7 -->
<g id="node7" class="node">
<title>Node7</title>
<g id="a_node7"><a xlink:title=" ">
<polygon fill="none" stroke="#bfbfbf" points="325,-0.5 325,-19.5 384,-19.5 384,-0.5 325,-0.5"/>
<text text-anchor="middle" x="354.5" y="-7.5" font-family="serif" font-size="10.00">memory</text>
</a>
</g>
</g>
<!-- Node1&#45;&gt;Node7 -->
<g id="edge6" class="edge">
<title>Node1&#45;&gt;Node7</title>
<path fill="none" stroke="midnightblue" d="M379.18,-112.43C357.84,-106.1 335.32,-95.1 322.5,-76 311.95,-60.29 324.86,-40.59 337.29,-27.02"/>
<polygon fill="midnightblue" stroke="midnightblue" points="339.86,-29.4 344.38,-19.81 334.87,-24.49 339.86,-29.4"/>
</g>
<!-- Node8 -->
<g id="node8" class="node">
<title>Node8</title>
<g id="a_node8"><a xlink:title=" ">
<polygon fill="none" stroke="#bfbfbf" points="482.5,-0.5 482.5,-19.5 540.5,-19.5 540.5,-0.5 482.5,-0.5"/>
<text text-anchor="middle" x="511.5" y="-7.5" font-family="serif" font-size="10.00">optional</text>
</a>
</g>
</g>
<!-- Node1&#45;&gt;Node8 -->
<g id="edge7" class="edge">
<title>Node1&#45;&gt;Node8</title>
<path fill="none" stroke="midnightblue" d="M484.78,-112.48C506.09,-106.15 528.69,-95.14 541.5,-76 551.8,-60.6 539.94,-41.1 528.22,-27.49"/>
<polygon fill="midnightblue" stroke="midnightblue" points="530.52,-24.82 521.15,-19.87 525.39,-29.58 530.52,-24.82"/>
</g>
<!-- Node9 -->
<g id="node9" class="node">
<title>Node9</title>
<g id="a_node9"><a xlink:title=" ">
<polygon fill="none" stroke="#bfbfbf" points="558.5,-0.5 558.5,-19.5 590.5,-19.5 590.5,-0.5 558.5,-0.5"/>
<text text-anchor="middle" x="574.5" y="-7.5" font-family="serif" font-size="10.00">set</text>
</a>
</g>
</g>
<!-- Node1&#45;&gt;Node9 -->
<g id="edge8" class="edge">
<title>Node1&#45;&gt;Node9</title>
<path fill="none" stroke="midnightblue" d="M489.79,-112.49C513.73,-106.16 539.99,-95.15 557.5,-76 568.93,-63.5 572.86,-44.27 574.12,-29.97"/>
<polygon fill="midnightblue" stroke="midnightblue" points="577.63,-29.94 574.66,-19.77 570.64,-29.58 577.63,-29.94"/>
</g>
<!-- Node10 -->
<g id="node10" class="node">
<title>Node10</title>
<g id="a_node10"><a xlink:title=" ">
<polygon fill="none" stroke="#bfbfbf" points="609,-0.5 609,-19.5 650,-19.5 650,-0.5 609,-0.5"/>
<text text-anchor="middle" x="629.5" y="-7.5" font-family="serif" font-size="10.00">span</text>
</a>
</g>
</g>
<!-- Node1&#45;&gt;Node10 -->
<g id="edge9" class="edge">
<title>Node1&#45;&gt;Node10</title>
<path fill="none" stroke="midnightblue" d="M485.47,-112.45C514.51,-105.9 550.06,-94.71 577.5,-76 595.72,-63.58 610.69,-42.87 619.82,-28.17"/>
<polygon fill="midnightblue" stroke="midnightblue" points="622.85,-29.91 624.94,-19.53 616.83,-26.34 622.85,-29.91"/>
</g>
<!-- Node11 -->
<g id="node11" class="node">
<title>Node11</title>
<g id="a_node11"><a xlink:title=" ">
<polygon fill="none" stroke="#bfbfbf" points="668,-0.5 668,-19.5 715,-19.5 715,-0.5 668,-0.5"/>
<text text-anchor="middle" x="691.5" y="-7.5" font-family="serif" font-size="10.00">string</text>
</a>
</g>
</g>
<!-- Node1&#45;&gt;Node11 -->
<g id="edge10" class="edge">
<title>Node1&#45;&gt;Node11</title>
<path fill="none" stroke="midnightblue" d="M484.45,-112.46C519.05,-105.53 564.88,-93.93 602.5,-76 629.56,-63.1 656.84,-41.64 673.93,-26.93"/>
<polygon fill="midnightblue" stroke="midnightblue" points="676.68,-29.17 681.88,-19.94 672.06,-23.91 676.68,-29.17"/>
</g>
<!-- Node12 -->
<g id="node12" class="node">
<title>Node12</title>
<g id="a_node12"><a xlink:title=" ">
<polygon fill="none" stroke="#bfbfbf" points="733.5,-0.5 733.5,-19.5 779.5,-19.5 779.5,-0.5 733.5,-0.5"/>
<text text-anchor="middle" x="756.5" y="-7.5" font-family="serif" font-size="10.00">utility</text>
</a>
</g>
</g>
<!-- Node1&#45;&gt;Node12 -->
<g id="edge11" class="edge">
<title>Node1&#45;&gt;Node12</title>
<path fill="none" stroke="midnightblue" d="M489.1,-112.47C530.02,-105.32 586.19,-93.44 633.5,-76 670.51,-62.36 710.36,-39.67 734.36,-25.02"/>
<polygon fill="midnightblue" stroke="midnightblue" points="736.37,-27.9 743.04,-19.66 732.69,-21.94 736.37,-27.9"/>
</g>
<!-- Node13 -->
<g id="node13" class="node">
<title>Node13</title>
<g id="a_node13"><a xlink:title=" ">
<polygon fill="none" stroke="#bfbfbf" points="797.5,-0.5 797.5,-19.5 845.5,-19.5 845.5,-0.5 797.5,-0.5"/>
<text text-anchor="middle" x="821.5" y="-7.5" font-family="serif" font-size="10.00">vector</text>
</a>
</g>
</g>
<!-- Node1&#45;&gt;Node13 -->
<g id="edge12" class="edge">
<title>Node1&#45;&gt;Node13</title>
<path fill="none" stroke="midnightblue" d="M497,-112.5C544.95,-105.27 611.63,-93.29 668.5,-76 714.4,-62.05 765.19,-38.81 795.18,-24.23"/>
<polygon fill="midnightblue" stroke="midnightblue" points="797.08,-27.2 804.51,-19.64 793.99,-20.91 797.08,-27.2"/>
</g>
<!-- Node14 -->
<g id="node14" class="node">
<title>Node14</title>
<g id="a_node14"><a xlink:href="FunctionCoefficient_8hpp.html" target="_top" xlink:title="Base class defining analytical expression, first and second derivatives of a Coefficient.">
<polygon fill="none" stroke="black" points="332,-56.5 332,-75.5 533,-75.5 533,-56.5 332,-56.5"/>
<text text-anchor="middle" x="432.5" y="-63.5" font-family="serif" font-size="10.00">Coefficients/FunctionCoefficient.hpp</text>
</a>
</g>
</g>
<!-- Node1&#45;&gt;Node14 -->
<g id="edge13" class="edge">
<title>Node1&#45;&gt;Node14</title>
<path fill="none" stroke="midnightblue" d="M432.5,-112.08C432.5,-105.01 432.5,-94.86 432.5,-85.99"/>
<polygon fill="midnightblue" stroke="midnightblue" points="436,-85.75 432.5,-75.75 429,-85.75 436,-85.75"/>
</g>
<!-- Node14&#45;&gt;Node2 -->
<g id="edge14" class="edge">
<title>Node14&#45;&gt;Node2</title>
<path fill="none" stroke="midnightblue" d="M331.87,-59.05C255.45,-53.2 147.8,-42.12 45,-19.65"/>
<polygon fill="midnightblue" stroke="midnightblue" points="45.59,-16.19 35.07,-17.44 44.07,-23.03 45.59,-16.19"/>
</g>
<!-- Node14&#45;&gt;Node3 -->
<g id="edge15" class="edge">
<title>Node14&#45;&gt;Node3</title>
<path fill="none" stroke="midnightblue" d="M350.62,-56.47C287.67,-49.25 198.42,-37.54 111.59,-20"/>
<polygon fill="midnightblue" stroke="midnightblue" points="112.06,-16.52 101.57,-17.94 110.66,-23.38 112.06,-16.52"/>
</g>
<!-- Node14&#45;&gt;Node4 -->
<g id="edge17" class="edge">
<title>Node14&#45;&gt;Node4</title>
<path fill="none" stroke="midnightblue" d="M386.33,-56.45C340.86,-47.97 269.15,-34.45 197.82,-20.24"/>
<polygon fill="midnightblue" stroke="midnightblue" points="198.25,-16.75 187.76,-18.23 196.88,-23.62 198.25,-16.75"/>
</g>
<!-- Node14&#45;&gt;Node5 -->
<g id="edge18" class="edge">
<title>Node14&#45;&gt;Node5</title>
<path fill="none" stroke="midnightblue" d="M398.09,-56.42C364.92,-48.08 313.09,-34.86 259.5,-20.22"/>
<polygon fill="midnightblue" stroke="midnightblue" points="260.4,-16.84 249.83,-17.57 258.55,-23.59 260.4,-16.84"/>
</g>
<!-- Node14&#45;&gt;Node6 -->
<g id="edge19" class="edge">
<title>Node14&#45;&gt;Node6</title>
<path fill="none" stroke="midnightblue" d="M409.52,-56.44C384.35,-47.07 343.91,-32.01 316.55,-21.82"/>
<polygon fill="midnightblue" stroke="midnightblue" points="317.71,-18.51 307.11,-18.3 315.26,-25.07 317.71,-18.51"/>
</g>
<!-- Node14&#45;&gt;Node7 -->
<g id="edge20" class="edge">
<title>Node14&#45;&gt;Node7</title>
<path fill="none" stroke="midnightblue" d="M419.97,-56.32C407.91,-47.98 389.47,-35.21 375.23,-25.35"/>
<polygon fill="midnightblue" stroke="midnightblue" points="377.22,-22.47 367,-19.65 373.23,-28.22 377.22,-22.47"/>
</g>
<!-- Node14&#45;&gt;Node8 -->
<g id="edge21" class="edge">
<title>Node14&#45;&gt;Node8</title>
<path fill="none" stroke="midnightblue" d="M445.19,-56.32C457.4,-47.98 476.08,-35.21 490.5,-25.35"/>
<polygon fill="midnightblue" stroke="midnightblue" points="492.56,-28.19 498.84,-19.65 488.61,-22.41 492.56,-28.19"/>
</g>
<!-- Node14&#45;&gt;Node9 -->
<g id="edge22" class="edge">
<title>Node14&#45;&gt;Node9</title>
<path fill="none" stroke="midnightblue" d="M455,-56.44C480.52,-46.74 522.05,-30.95 548.82,-20.77"/>
<polygon fill="midnightblue" stroke="midnightblue" points="550.19,-23.99 558.29,-17.16 547.7,-17.45 550.19,-23.99"/>
</g>
<!-- Node14&#45;&gt;Node10 -->
<g id="edge23" class="edge">
<title>Node14&#45;&gt;Node10</title>
<path fill="none" stroke="midnightblue" d="M465.22,-56.48C496.96,-48.14 546.74,-34.9 599.07,-20.06"/>
<polygon fill="midnightblue" stroke="midnightblue" points="600.21,-23.38 608.87,-17.27 598.29,-16.65 600.21,-23.38"/>
</g>
<!-- Node14&#45;&gt;Node11 -->
<g id="edge24" class="edge">
<title>Node14&#45;&gt;Node11</title>
<path fill="none" stroke="midnightblue" d="M480.33,-56.48C524.06,-48.46 590.75,-35.67 657.86,-20.02"/>
<polygon fill="midnightblue" stroke="midnightblue" points="658.83,-23.39 667.76,-17.69 657.22,-16.57 658.83,-23.39"/>
</g>
<!-- Node14&#45;&gt;Node12 -->
<g id="edge25" class="edge">
<title>Node14&#45;&gt;Node12</title>
<path fill="none" stroke="midnightblue" d="M501.99,-56.5C558.88,-49.02 641.61,-36.99 723.2,-19.84"/>
<polygon fill="midnightblue" stroke="midnightblue" points="724.09,-23.23 733.14,-17.72 722.63,-16.38 724.09,-23.23"/>
</g>
<!-- Node14&#45;&gt;Node13 -->
<g id="edge26" class="edge">
<title>Node14&#45;&gt;Node13</title>
<path fill="none" stroke="midnightblue" d="M529.41,-56.46C598.88,-49.48 694.76,-38.07 787.6,-19.93"/>
<polygon fill="midnightblue" stroke="midnightblue" points="788.31,-23.36 797.44,-17.98 786.95,-16.49 788.31,-23.36"/>
</g>
<!-- Node15 -->
<g id="node15" class="node">
<title>Node15</title>
<g id="a_node15"><a xlink:title=" ">
<polygon fill="none" stroke="#bfbfbf" points="402.5,-0.5 402.5,-19.5 464.5,-19.5 464.5,-0.5 402.5,-0.5"/>
<text text-anchor="middle" x="433.5" y="-7.5" font-family="serif" font-size="10.00">concepts</text>
</a>
</g>
</g>
<!-- Node14&#45;&gt;Node15 -->
<g id="edge16" class="edge">
<title>Node14&#45;&gt;Node15</title>
<path fill="none" stroke="midnightblue" d="M432.67,-56.08C432.8,-49.01 432.98,-38.86 433.15,-29.99"/>
<polygon fill="midnightblue" stroke="midnightblue" points="436.65,-29.81 433.34,-19.75 429.65,-29.68 436.65,-29.81"/>
</g>
</g>
</svg>
        <g id="navigator" transform="translate(0 0)" fill="#404254">
                <rect fill="#f2f5e9" fill-opacity="0.5" stroke="#606060" stroke-width=".5" x="0" y="0" width="60" height="60"/>
                <use id="zoomplus" xlink:href="#zoomPlus" x="17" y="9" onmousedown="handleZoom(evt,'in')"/>
                <use id="zoomminus" xlink:href="#zoomMin" x="42" y="9" onmousedown="handleZoom(evt,'out')"/>
                <use id="reset" xlink:href="#resetDef" x="30" y="36" onmousedown="handleReset()"/>
                <g id="arrowUp" xlink:href="#dirArrow" transform="translate(30 24)" onmousedown="handlePan(0,-1)">
                  <use xlink:href="#rim" fill="#404040">
                        <set attributeName="fill" to="#808080" begin="arrowUp.mouseover" end="arrowUp.mouseout"/>
                  </use>
                  <path fill="none" stroke="white" stroke-width="1.5" d="M0,-3.0v7 M-2.5,-0.5L0,-3.0L2.5,-0.5"/>
                </g>
                <g id="arrowRight" xlink:href="#dirArrow" transform="rotate(90) translate(36 -43)" onmousedown="handlePan(1,0)">
                  <use xlink:href="#rim" fill="#404040">
                        <set attributeName="fill" to="#808080" begin="arrowRight.mouseover" end="arrowRight.mouseout"/>
                  </use>
                  <path fill="none" stroke="white" stroke-width="1.5" d="M0,-3.0v7 M-2.5,-0.5L0,-3.0L2.5,-0.5"/>
                </g>
                <g id="arrowDown" xlink:href="#dirArrow" transform="rotate(180) translate(-30 -48)" onmousedown="handlePan(0,1)">
                  <use xlink:href="#rim" fill="#404040">
                        <set attributeName="fill" to="#808080" begin="arrowDown.mouseover" end="arrowDown.mouseout"/>
                  </use>
                  <path fill="none" stroke="white" stroke-width="1.5" d="M0,-3.0v7 M-2.5,-0.5L0,-3.0L2.5,-0.5"/>
                </g>
                <g id="arrowLeft" xlink:href="#dirArrow" transform="rotate(270) translate(-36 17)" onmousedown="handlePan(-1,0)">
                  <use xlink:href="#rim" fill="#404040">
                        <set attributeName="fill" to="#808080" begin="arrowLeft.mouseover" end="arrowLeft.mouseout"/>
                  </use>
                  <path fill="none" stroke="white" stroke-width="1.5" d="M0,-3.0v7 M-2.5,-0.5L0,-3.0L2.5,-0.5"/>
                </g>
        </g>
        <svg viewBox="0 0 15 15" width="100%" height="30px" preserveAspectRatio="xMaxYMin meet">
         <g id="arrow_out" transform="scale(0.3 0.3)">
          <a xlink:href="SumFunctionCoefficients_8hpp__incl_org.svg" target="_base">
           <rect id="button" ry="5" rx="5" y="6" x="6" height="38" width="38"
                fill="#f2f5e9" fill-opacity="0.5" stroke="#606060" stroke-width="1.0"/>
           <path id="arrow"
             d="M 11.500037,31.436501 C 11.940474,20.09759 22.043105,11.32322 32.158766,21.979434 L 37.068811,17.246167 C 37.068811,17.246167 37.088388,32 37.088388,32 L 22.160133,31.978069 C 22.160133,31.978069 26.997745,27.140456 26.997745,27.140456 C 18.528582,18.264221 13.291696,25.230495 11.500037,31.436501 z"
             style="fill:#404040;"/>
          </a>
         </g>
        </svg>
</svg>
