<?xml version="1.0" encoding="UTF-8" standalone="no"?>
<!DOCTYPE svg PUBLIC "-//W3C//DTD SVG 1.1//EN"
 "http://www.w3.org/Graphics/SVG/1.1/DTD/svg11.dtd">
<!-- Generated by graphviz version 2.43.0 (0)
 -->
<!-- Title: SumFunctionCoefficients.cpp Pages: 1 -->
<svg width="990pt" height="207pt"
 viewBox="0.00 0.00 990.00 207.00" xmlns="http://www.w3.org/2000/svg" xmlns:xlink="http://www.w3.org/1999/xlink">
<g id="graph0" class="graph" transform="scale(1 1) rotate(0) translate(4 203)">
<title>SumFunctionCoefficients.cpp</title>
<!-- Node1 -->
<g id="node1" class="node">
<title>Node1</title>
<g id="a_node1"><a xlink:title="Class defining analytical expression, first and second derivatives of a sum of FunctionCoefficient ob...">
<polygon fill="#bfbfbf" stroke="black" points="412,-179.5 412,-198.5 578,-198.5 578,-179.5 412,-179.5"/>
<text text-anchor="middle" x="495" y="-186.5" font-family="serif" font-size="10.00">SumFunctionCoefficients.cpp</text>
</a>
</g>
</g>
<!-- Node2 -->
<g id="node2" class="node">
<title>Node2</title>
<g id="a_node2"><a xlink:href="SumFunctionCoefficients_8hpp.html" target="_top" xlink:title=" ">
<polygon fill="none" stroke="black" points="472.5,-112.5 472.5,-142.5 619.5,-142.5 619.5,-112.5 472.5,-112.5"/>
<text text-anchor="start" x="480.5" y="-130.5" font-family="serif" font-size="10.00">Coefficients/SumFunction</text>
<text text-anchor="middle" x="546" y="-119.5" font-family="serif" font-size="10.00">Coefficients.hpp</text>
</a>
</g>
</g>
<!-- Node1&#45;&gt;Node2 -->
<g id="edge1" class="edge">
<title>Node1&#45;&gt;Node2</title>
<path fill="none" stroke="midnightblue" d="M502.31,-179.48C508.83,-171.87 518.66,-160.4 527.34,-150.26"/>
<polygon fill="midnightblue" stroke="midnightblue" points="530.13,-152.39 533.98,-142.52 524.81,-147.84 530.13,-152.39"/>
</g>
<!-- Node3 -->
<g id="node3" class="node">
<title>Node3</title>
<g id="a_node3"><a xlink:title=" ">
<polygon fill="none" stroke="#bfbfbf" points="301.5,-0.5 301.5,-19.5 336.5,-19.5 336.5,-0.5 301.5,-0.5"/>
<text text-anchor="middle" x="319" y="-7.5" font-family="serif" font-size="10.00">any</text>
</a>
</g>
</g>
<!-- Node1&#45;&gt;Node3 -->
<g id="edge28" class="edge">
<title>Node1&#45;&gt;Node3</title>
<path fill="none" stroke="midnightblue" d="M462.09,-179.43C440.46,-172.47 412.62,-160.83 393,-143 357.47,-110.71 334.96,-57.26 324.98,-29.31"/>
<polygon fill="midnightblue" stroke="midnightblue" points="328.22,-27.96 321.67,-19.64 321.6,-30.23 328.22,-27.96"/>
</g>
<!-- Node4 -->
<g id="node4" class="node">
<title>Node4</title>
<g id="a_node4"><a xlink:title=" ">
<polygon fill="none" stroke="#bfbfbf" points="0,-0.5 0,-19.5 48,-19.5 48,-0.5 0,-0.5"/>
<text text-anchor="middle" x="24" y="-7.5" font-family="serif" font-size="10.00">cmath</text>
</a>
</g>
</g>
<!-- Node1&#45;&gt;Node4 -->
<g id="edge29" class="edge">
<title>Node1&#45;&gt;Node4</title>
<path fill="none" stroke="midnightblue" d="M411.9,-183.82C355.78,-178.77 280.92,-167.61 219,-143 146.11,-114.03 72.95,-54.34 40.86,-26.25"/>
<polygon fill="midnightblue" stroke="midnightblue" points="43.08,-23.54 33.28,-19.52 38.44,-28.78 43.08,-23.54"/>
</g>
<!-- Node5 -->
<g id="node5" class="node">
<title>Node5</title>
<g id="a_node5"><a xlink:title=" ">
<polygon fill="none" stroke="#bfbfbf" points="66,-0.5 66,-19.5 134,-19.5 134,-0.5 66,-0.5"/>
<text text-anchor="middle" x="100" y="-7.5" font-family="serif" font-size="10.00">functional</text>
</a>
</g>
</g>
<!-- Node1&#45;&gt;Node5 -->
<g id="edge30" class="edge">
<title>Node1&#45;&gt;Node5</title>
<path fill="none" stroke="midnightblue" d="M411.86,-179.85C369.5,-173.52 318,-162.41 275,-143 209.05,-113.23 144.54,-54.87 115.7,-26.81"/>
<polygon fill="midnightblue" stroke="midnightblue" points="118.12,-24.28 108.54,-19.75 113.2,-29.26 118.12,-24.28"/>
</g>
<!-- Node6 -->
<g id="node6" class="node">
<title>Node6</title>
<g id="a_node6"><a xlink:title=" ">
<polygon fill="none" stroke="#bfbfbf" points="230,-0.5 230,-19.5 274,-19.5 274,-0.5 230,-0.5"/>
<text text-anchor="middle" x="252" y="-7.5" font-family="serif" font-size="10.00">limits</text>
</a>
</g>
</g>
<!-- Node1&#45;&gt;Node6 -->
<g id="edge31" class="edge">
<title>Node1&#45;&gt;Node6</title>
<path fill="none" stroke="midnightblue" d="M452.23,-179.46C425.26,-172.65 390.61,-161.17 364,-143 318.04,-111.62 279.97,-56.58 262.42,-28.52"/>
<polygon fill="midnightblue" stroke="midnightblue" points="265.3,-26.51 257.09,-19.8 259.32,-30.16 265.3,-26.51"/>
</g>
<!-- Node7 -->
<g id="node7" class="node">
<title>Node7</title>
<g id="a_node7"><a xlink:title=" ">
<polygon fill="none" stroke="#bfbfbf" points="156.5,-0.5 156.5,-19.5 195.5,-19.5 195.5,-0.5 156.5,-0.5"/>
<text text-anchor="middle" x="176" y="-7.5" font-family="serif" font-size="10.00">map</text>
</a>
</g>
</g>
<!-- Node1&#45;&gt;Node7 -->
<g id="edge32" class="edge">
<title>Node1&#45;&gt;Node7</title>
<path fill="none" stroke="midnightblue" d="M435.46,-179.44C401.37,-172.84 358.62,-161.59 324,-143 266.82,-112.3 213.61,-55.24 189.52,-27.29"/>
<polygon fill="midnightblue" stroke="midnightblue" points="192.14,-24.97 183,-19.61 186.8,-29.5 192.14,-24.97"/>
</g>
<!-- Node8 -->
<g id="node8" class="node">
<title>Node8</title>
<g id="a_node8"><a xlink:title=" ">
<polygon fill="none" stroke="#bfbfbf" points="634.5,-0.5 634.5,-19.5 693.5,-19.5 693.5,-0.5 634.5,-0.5"/>
<text text-anchor="middle" x="664" y="-7.5" font-family="serif" font-size="10.00">memory</text>
</a>
</g>
</g>
<!-- Node1&#45;&gt;Node8 -->
<g id="edge33" class="edge">
<title>Node1&#45;&gt;Node8</title>
<path fill="none" stroke="midnightblue" d="M578.04,-181C603.67,-174.7 629.69,-163.32 647,-143 674.26,-111 671.36,-57.81 667.4,-29.72"/>
<polygon fill="midnightblue" stroke="midnightblue" points="670.82,-28.97 665.78,-19.65 663.91,-30.08 670.82,-28.97"/>
</g>
<!-- Node9 -->
<g id="node9" class="node">
<title>Node9</title>
<g id="a_node9"><a xlink:title=" ">
<polygon fill="none" stroke="#bfbfbf" points="861,-0.5 861,-19.5 919,-19.5 919,-0.5 861,-0.5"/>
<text text-anchor="middle" x="890" y="-7.5" font-family="serif" font-size="10.00">optional</text>
</a>
</g>
</g>
<!-- Node1&#45;&gt;Node9 -->
<g id="edge34" class="edge">
<title>Node1&#45;&gt;Node9</title>
<path fill="none" stroke="midnightblue" d="M578.16,-182.41C624.86,-176.8 683.18,-165.55 731,-143 792.43,-114.03 849.96,-55.72 875.76,-27.31"/>
<polygon fill="midnightblue" stroke="midnightblue" points="878.39,-29.61 882.45,-19.82 873.17,-24.95 878.39,-29.61"/>
</g>
<!-- Node10 -->
<g id="node10" class="node">
<title>Node10</title>
<g id="a_node10"><a xlink:title=" ">
<polygon fill="none" stroke="#bfbfbf" points="950,-0.5 950,-19.5 982,-19.5 982,-0.5 950,-0.5"/>
<text text-anchor="middle" x="966" y="-7.5" font-family="serif" font-size="10.00">set</text>
</a>
</g>
</g>
<!-- Node1&#45;&gt;Node10 -->
<g id="edge35" class="edge">
<title>Node1&#45;&gt;Node10</title>
<path fill="none" stroke="midnightblue" d="M578.08,-183.7C633.96,-178.6 708.39,-167.43 770,-143 843.17,-113.99 916.75,-54.32 949.03,-26.25"/>
<polygon fill="midnightblue" stroke="midnightblue" points="951.48,-28.76 956.67,-19.52 946.85,-23.5 951.48,-28.76"/>
</g>
<!-- Node11 -->
<g id="node11" class="node">
<title>Node11</title>
<g id="a_node11"><a xlink:title=" ">
<polygon fill="none" stroke="#bfbfbf" points="354.5,-0.5 354.5,-19.5 395.5,-19.5 395.5,-0.5 354.5,-0.5"/>
<text text-anchor="middle" x="375" y="-7.5" font-family="serif" font-size="10.00">span</text>
</a>
</g>
</g>
<!-- Node1&#45;&gt;Node11 -->
<g id="edge36" class="edge">
<title>Node1&#45;&gt;Node11</title>
<path fill="none" stroke="midnightblue" d="M478.67,-179.26C450.59,-163.18 394.06,-125.93 372,-76 365.58,-61.47 367.12,-43.29 369.81,-29.85"/>
<polygon fill="midnightblue" stroke="midnightblue" points="373.27,-30.41 372.19,-19.87 366.47,-28.78 373.27,-30.41"/>
</g>
<!-- Node12 -->
<g id="node12" class="node">
<title>Node12</title>
<g id="a_node12"><a xlink:title=" ">
<polygon fill="none" stroke="#bfbfbf" points="569.5,-0.5 569.5,-19.5 616.5,-19.5 616.5,-0.5 569.5,-0.5"/>
<text text-anchor="middle" x="593" y="-7.5" font-family="serif" font-size="10.00">string</text>
</a>
</g>
</g>
<!-- Node1&#45;&gt;Node12 -->
<g id="edge37" class="edge">
<title>Node1&#45;&gt;Node12</title>
<path fill="none" stroke="midnightblue" d="M570.28,-179.42C592.48,-172.98 614.43,-161.92 628,-143 653.47,-107.5 624.13,-54.71 605.7,-27.92"/>
<polygon fill="midnightblue" stroke="midnightblue" points="608.41,-25.69 599.74,-19.6 602.72,-29.77 608.41,-25.69"/>
</g>
<!-- Node13 -->
<g id="node13" class="node">
<title>Node13</title>
<g id="a_node13"><a xlink:title=" ">
<polygon fill="none" stroke="#bfbfbf" points="715,-0.5 715,-19.5 761,-19.5 761,-0.5 715,-0.5"/>
<text text-anchor="middle" x="738" y="-7.5" font-family="serif" font-size="10.00">utility</text>
</a>
</g>
</g>
<!-- Node1&#45;&gt;Node13 -->
<g id="edge38" class="edge">
<title>Node1&#45;&gt;Node13</title>
<path fill="none" stroke="midnightblue" d="M578.42,-180.77C609.46,-174.6 643.34,-163.37 669,-143 706.19,-113.47 725.53,-58.39 733.49,-29.61"/>
<polygon fill="midnightblue" stroke="midnightblue" points="736.95,-30.21 736.07,-19.65 730.17,-28.45 736.95,-30.21"/>
</g>
<!-- Node14 -->
<g id="node14" class="node">
<title>Node14</title>
<g id="a_node14"><a xlink:title=" ">
<polygon fill="none" stroke="#bfbfbf" points="790,-0.5 790,-19.5 838,-19.5 838,-0.5 790,-0.5"/>
<text text-anchor="middle" x="814" y="-7.5" font-family="serif" font-size="10.00">vector</text>
</a>
</g>
</g>
<!-- Node1&#45;&gt;Node14 -->
<g id="edge39" class="edge">
<title>Node1&#45;&gt;Node14</title>
<path fill="none" stroke="midnightblue" d="M578.44,-181.25C616.64,-175.28 661.25,-164.06 697,-143 746.31,-113.95 785.97,-56.97 803.8,-28.32"/>
<polygon fill="midnightblue" stroke="midnightblue" points="806.79,-30.14 808.99,-19.77 800.81,-26.5 806.79,-30.14"/>
</g>
<!-- Node15 -->
<g id="node15" class="node">
<title>Node15</title>
<g id="a_node15"><a xlink:href="FunctionCoefficient_8hpp.html" target="_top" xlink:title="Base class defining analytical expression, first and second derivatives of a Coefficient.">
<polygon fill="none" stroke="black" points="394.5,-56.5 394.5,-75.5 595.5,-75.5 595.5,-56.5 394.5,-56.5"/>
<text text-anchor="middle" x="495" y="-63.5" font-family="serif" font-size="10.00">Coefficients/FunctionCoefficient.hpp</text>
</a>
</g>
</g>
<!-- Node1&#45;&gt;Node15 -->
<g id="edge40" class="edge">
<title>Node1&#45;&gt;Node15</title>
<path fill="none" stroke="midnightblue" d="M486.25,-179.29C478.44,-170.84 467.55,-157.25 463,-143 458.81,-129.88 458.81,-125.12 463,-112 466.34,-101.54 473.1,-91.43 479.55,-83.45"/>
<polygon fill="midnightblue" stroke="midnightblue" points="482.35,-85.56 486.25,-75.71 477.06,-80.98 482.35,-85.56"/>
</g>
<!-- Node2&#45;&gt;Node3 -->
<g id="edge2" class="edge">
<title>Node2&#45;&gt;Node3</title>
<path fill="none" stroke="midnightblue" d="M472.39,-115.39C439.68,-107.97 401.9,-95.79 372,-76 353.47,-63.74 338.2,-43 328.89,-28.25"/>
<polygon fill="midnightblue" stroke="midnightblue" points="331.82,-26.33 323.66,-19.57 325.82,-29.94 331.82,-26.33"/>
</g>
<!-- Node2&#45;&gt;Node4 -->
<g id="edge3" class="edge">
<title>Node2&#45;&gt;Node4</title>
<path fill="none" stroke="midnightblue" d="M472.46,-120.42C401.4,-113.48 291.14,-99.86 198,-76 145.12,-62.45 86.09,-38.4 52.16,-23.66"/>
<polygon fill="midnightblue" stroke="midnightblue" points="53.44,-20.4 42.88,-19.58 50.63,-26.81 53.44,-20.4"/>
</g>
<!-- Node2&#45;&gt;Node5 -->
<g id="edge4" class="edge">
<title>Node2&#45;&gt;Node5</title>
<path fill="none" stroke="midnightblue" d="M472.48,-117.97C413.9,-110.13 330.21,-96.56 259,-76 211.17,-62.19 158.11,-38.75 126.98,-24.11"/>
<polygon fill="midnightblue" stroke="midnightblue" points="128.21,-20.82 117.68,-19.69 125.21,-27.15 128.21,-20.82"/>
</g>
<!-- Node2&#45;&gt;Node6 -->
<g id="edge5" class="edge">
<title>Node2&#45;&gt;Node6</title>
<path fill="none" stroke="midnightblue" d="M472.15,-114.42C433.46,-106.48 385.95,-94.13 346,-76 317.12,-62.89 287.66,-40.81 269.6,-26.07"/>
<polygon fill="midnightblue" stroke="midnightblue" points="271.63,-23.21 261.7,-19.5 267.15,-28.59 271.63,-23.21"/>
</g>
<!-- Node2&#45;&gt;Node7 -->
<g id="edge6" class="edge">
<title>Node2&#45;&gt;Node7</title>
<path fill="none" stroke="midnightblue" d="M472.27,-115.87C424.35,-107.76 360.98,-94.76 307,-76 267.66,-62.33 224.95,-39.49 199.34,-24.84"/>
<polygon fill="midnightblue" stroke="midnightblue" points="200.81,-21.65 190.4,-19.67 197.3,-27.71 200.81,-21.65"/>
</g>
<!-- Node2&#45;&gt;Node8 -->
<g id="edge7" class="edge">
<title>Node2&#45;&gt;Node8</title>
<path fill="none" stroke="midnightblue" d="M571.41,-112.46C586.58,-103.32 605.62,-90.43 620,-76 634.09,-61.86 646.45,-42.63 654.46,-28.75"/>
<polygon fill="midnightblue" stroke="midnightblue" points="657.67,-30.19 659.48,-19.75 651.56,-26.78 657.67,-30.19"/>
</g>
<!-- Node2&#45;&gt;Node9 -->
<g id="edge8" class="edge">
<title>Node2&#45;&gt;Node9</title>
<path fill="none" stroke="midnightblue" d="M592.95,-112.42C625.38,-102.56 669.44,-88.89 708,-76 760.65,-58.4 821.26,-36.4 857.55,-23.04"/>
<polygon fill="midnightblue" stroke="midnightblue" points="858.95,-26.26 867.12,-19.51 856.53,-19.69 858.95,-26.26"/>
</g>
<!-- Node2&#45;&gt;Node10 -->
<g id="edge9" class="edge">
<title>Node2&#45;&gt;Node10</title>
<path fill="none" stroke="midnightblue" d="M606.01,-112.47C646.76,-102.75 701.79,-89.21 750,-76 819.14,-57.05 899.85,-31.96 940.23,-19.21"/>
<polygon fill="midnightblue" stroke="midnightblue" points="941.35,-22.53 949.82,-16.17 939.23,-15.85 941.35,-22.53"/>
</g>
<!-- Node2&#45;&gt;Node11 -->
<g id="edge10" class="edge">
<title>Node2&#45;&gt;Node11</title>
<path fill="none" stroke="midnightblue" d="M472.43,-120.51C441.07,-114.12 406.76,-101.33 385,-76 374.2,-63.43 372.43,-44.21 372.93,-29.93"/>
<polygon fill="midnightblue" stroke="midnightblue" points="376.43,-29.98 373.68,-19.75 369.45,-29.47 376.43,-29.98"/>
</g>
<!-- Node2&#45;&gt;Node12 -->
<g id="edge11" class="edge">
<title>Node2&#45;&gt;Node12</title>
<path fill="none" stroke="midnightblue" d="M570.59,-112.29C583.09,-103.59 597.09,-91.19 604,-76 610.74,-61.21 606.61,-42.82 601.6,-29.38"/>
<polygon fill="midnightblue" stroke="midnightblue" points="604.69,-27.69 597.59,-19.83 598.24,-30.4 604.69,-27.69"/>
</g>
<!-- Node2&#45;&gt;Node13 -->
<g id="edge12" class="edge">
<title>Node2&#45;&gt;Node13</title>
<path fill="none" stroke="midnightblue" d="M575.36,-112.37C594.86,-102.7 620.85,-89.28 643,-76 669.78,-59.94 699.26,-39.27 718.17,-25.6"/>
<polygon fill="midnightblue" stroke="midnightblue" points="720.28,-28.39 726.3,-19.68 716.16,-22.74 720.28,-28.39"/>
</g>
<!-- Node2&#45;&gt;Node14 -->
<g id="edge13" class="edge">
<title>Node2&#45;&gt;Node14</title>
<path fill="none" stroke="midnightblue" d="M582.31,-112.48C607.58,-102.59 642,-88.87 672,-76 712.12,-58.79 757.95,-37.51 786.43,-24.1"/>
<polygon fill="midnightblue" stroke="midnightblue" points="788.2,-27.13 795.74,-19.7 785.21,-20.8 788.2,-27.13"/>
</g>
<!-- Node2&#45;&gt;Node15 -->
<g id="edge14" class="edge">
<title>Node2&#45;&gt;Node15</title>
<path fill="none" stroke="midnightblue" d="M533.91,-112.4C526.43,-103.66 516.78,-92.41 508.97,-83.3"/>
<polygon fill="midnightblue" stroke="midnightblue" points="511.59,-80.97 502.42,-75.66 506.27,-85.53 511.59,-80.97"/>
</g>
<!-- Node15&#45;&gt;Node3 -->
<g id="edge15" class="edge">
<title>Node15&#45;&gt;Node3</title>
<path fill="none" stroke="midnightblue" d="M465.29,-56.48C436.9,-48.26 392.69,-35.23 346.22,-20.31"/>
<polygon fill="midnightblue" stroke="midnightblue" points="347.18,-16.94 336.59,-17.2 345.03,-23.6 347.18,-16.94"/>
</g>
<!-- Node15&#45;&gt;Node4 -->
<g id="edge16" class="edge">
<title>Node15&#45;&gt;Node4</title>
<path fill="none" stroke="midnightblue" d="M394.3,-59.36C307.53,-53.41 178.87,-42.01 58.2,-19.93"/>
<polygon fill="midnightblue" stroke="midnightblue" points="58.52,-16.43 48.05,-18.05 57.24,-23.32 58.52,-16.43"/>
</g>
<!-- Node15&#45;&gt;Node5 -->
<g id="edge18" class="edge">
<title>Node15&#45;&gt;Node5</title>
<path fill="none" stroke="midnightblue" d="M418.78,-56.49C348.14,-48.29 240.24,-34.94 147,-20 146.08,-19.85 145.16,-19.7 144.23,-19.55"/>
<polygon fill="midnightblue" stroke="midnightblue" points="144.55,-16.05 134.1,-17.78 143.35,-22.95 144.55,-16.05"/>
</g>
<!-- Node15&#45;&gt;Node6 -->
<g id="edge19" class="edge">
<title>Node15&#45;&gt;Node6</title>
<path fill="none" stroke="midnightblue" d="M456.45,-56.49C415.61,-47.47 349.25,-32.79 292,-20 289.36,-19.41 286.61,-18.8 283.86,-18.18"/>
<polygon fill="midnightblue" stroke="midnightblue" points="284.53,-14.74 274,-15.96 282.99,-21.57 284.53,-14.74"/>
</g>
<!-- Node15&#45;&gt;Node7 -->
<g id="edge20" class="edge">
<title>Node15&#45;&gt;Node7</title>
<path fill="none" stroke="midnightblue" d="M439.54,-56.47C384.12,-47.81 296.53,-33.75 221,-20 216.07,-19.1 210.84,-18.1 205.76,-17.1"/>
<polygon fill="midnightblue" stroke="midnightblue" points="206.18,-13.62 195.69,-15.09 204.81,-20.48 206.18,-13.62"/>
</g>
<!-- Node15&#45;&gt;Node8 -->
<g id="edge21" class="edge">
<title>Node15&#45;&gt;Node8</title>
<path fill="none" stroke="midnightblue" d="M521.78,-56.44C550.33,-47.32 595.73,-32.81 627.54,-22.65"/>
<polygon fill="midnightblue" stroke="midnightblue" points="628.89,-25.89 637.35,-19.52 626.76,-19.23 628.89,-25.89"/>
</g>
<!-- Node15&#45;&gt;Node9 -->
<g id="edge22" class="edge">
<title>Node15&#45;&gt;Node9</title>
<path fill="none" stroke="midnightblue" d="M576.01,-56.49C647.52,-48.53 754.5,-35.57 847,-20 848.27,-19.79 849.56,-19.56 850.86,-19.33"/>
<polygon fill="midnightblue" stroke="midnightblue" points="851.75,-22.72 860.91,-17.41 850.44,-15.85 851.75,-22.72"/>
</g>
<!-- Node15&#45;&gt;Node10 -->
<g id="edge23" class="edge">
<title>Node15&#45;&gt;Node10</title>
<path fill="none" stroke="midnightblue" d="M595.68,-58.23C683.76,-51.44 814.93,-39.18 928,-20 931.84,-19.35 935.86,-18.54 939.8,-17.67"/>
<polygon fill="midnightblue" stroke="midnightblue" points="940.89,-21.01 949.82,-15.32 939.29,-14.2 940.89,-21.01"/>
</g>
<!-- Node15&#45;&gt;Node11 -->
<g id="edge24" class="edge">
<title>Node15&#45;&gt;Node11</title>
<path fill="none" stroke="midnightblue" d="M475.99,-56.44C456.41,-47.64 425.69,-33.81 403.27,-23.72"/>
<polygon fill="midnightblue" stroke="midnightblue" points="404.48,-20.43 393.93,-19.52 401.61,-26.81 404.48,-20.43"/>
</g>
<!-- Node15&#45;&gt;Node12 -->
<g id="edge25" class="edge">
<title>Node15&#45;&gt;Node12</title>
<path fill="none" stroke="midnightblue" d="M510.75,-56.32C526.32,-47.74 550.38,-34.49 568.46,-24.52"/>
<polygon fill="midnightblue" stroke="midnightblue" points="570.22,-27.55 577.29,-19.65 566.85,-21.42 570.22,-27.55"/>
</g>
<!-- Node15&#45;&gt;Node13 -->
<g id="edge26" class="edge">
<title>Node15&#45;&gt;Node13</title>
<path fill="none" stroke="midnightblue" d="M535.93,-56.49C577.75,-47.71 644.52,-33.43 702,-20 702.91,-19.79 703.82,-19.57 704.75,-19.35"/>
<polygon fill="midnightblue" stroke="midnightblue" points="705.89,-22.68 714.79,-16.92 704.24,-15.87 705.89,-22.68"/>
</g>
<!-- Node15&#45;&gt;Node14 -->
<g id="edge27" class="edge">
<title>Node15&#45;&gt;Node14</title>
<path fill="none" stroke="midnightblue" d="M551.2,-56.47C606.86,-47.86 694.47,-33.9 770,-20 773.22,-19.41 776.57,-18.77 779.92,-18.11"/>
<polygon fill="midnightblue" stroke="midnightblue" points="780.71,-21.52 789.83,-16.12 779.33,-14.66 780.71,-21.52"/>
</g>
<!-- Node16 -->
<g id="node16" class="node">
<title>Node16</title>
<g id="a_node16"><a xlink:title=" ">
<polygon fill="none" stroke="#bfbfbf" points="464,-0.5 464,-19.5 526,-19.5 526,-0.5 464,-0.5"/>
<text text-anchor="middle" x="495" y="-7.5" font-family="serif" font-size="10.00">concepts</text>
</a>
</g>
</g>
<!-- Node15&#45;&gt;Node16 -->
<g id="edge17" class="edge">
<title>Node15&#45;&gt;Node16</title>
<path fill="none" stroke="midnightblue" d="M495,-56.08C495,-49.01 495,-38.86 495,-29.99"/>
<polygon fill="midnightblue" stroke="midnightblue" points="498.5,-29.75 495,-19.75 491.5,-29.75 498.5,-29.75"/>
</g>
</g>
</svg>
