<?xml version="1.0" encoding="UTF-8" standalone="no"?>
<!DOCTYPE svg PUBLIC "-//W3C//DTD SVG 1.1//EN"
 "http://www.w3.org/Graphics/SVG/1.1/DTD/svg11.dtd">
<!-- Generated by graphviz version 2.43.0 (0)
 -->
<!-- Title: TimeNLFormIntegrator.hpp Pages: 1 -->
<svg width="240pt" height="140pt"
 viewBox="0.00 0.00 239.50 140.00" xmlns="http://www.w3.org/2000/svg" xmlns:xlink="http://www.w3.org/1999/xlink">
<g id="graph0" class="graph" transform="scale(1 1) rotate(0) translate(4 136)">
<title>TimeNLFormIntegrator.hpp</title>
<!-- Node1 -->
<g id="node1" class="node">
<title>Node1</title>
<g id="a_node1"><a xlink:title="VF of the time derivative.">
<polygon fill="#bfbfbf" stroke="black" points="72.5,-112.5 72.5,-131.5 231.5,-131.5 231.5,-112.5 72.5,-112.5"/>
<text text-anchor="middle" x="152" y="-119.5" font-family="serif" font-size="10.00">TimeNLFormIntegrator.hpp</text>
</a>
</g>
</g>
<!-- Node2 -->
<g id="node2" class="node">
<title>Node2</title>
<g id="a_node2"><a xlink:href="HeatTimeNLFormIntegrator_8hpp.html" target="_top" xlink:title="VF of the time derivative.">
<polygon fill="none" stroke="black" points="0,-56.5 0,-75.5 184,-75.5 184,-56.5 0,-56.5"/>
<text text-anchor="middle" x="92" y="-63.5" font-family="serif" font-size="10.00">HeatTimeNLFormIntegrator.hpp</text>
</a>
</g>
</g>
<!-- Node1&#45;&gt;Node2 -->
<g id="edge1" class="edge">
<title>Node1&#45;&gt;Node2</title>
<path fill="none" stroke="midnightblue" d="M134.82,-105.54C124.12,-95.91 110.74,-83.87 101.82,-75.83"/>
<polygon fill="midnightblue" stroke="midnightblue" points="132.59,-108.24 142.36,-112.32 137.27,-103.03 132.59,-108.24"/>
</g>
<!-- Node3 -->
<g id="node3" class="node">
<title>Node3</title>
<g id="a_node3"><a xlink:href="ListIntegrators_8hpp.html" target="_top" xlink:title="List of header files contained in the Integrators directory.">
<polygon fill="none" stroke="black" points="94,-0.5 94,-19.5 210,-19.5 210,-0.5 94,-0.5"/>
<text text-anchor="middle" x="152" y="-7.5" font-family="serif" font-size="10.00">ListIntegrators.hpp</text>
</a>
</g>
</g>
<!-- Node1&#45;&gt;Node3 -->
<g id="edge3" class="edge">
<title>Node1&#45;&gt;Node3</title>
<path fill="none" stroke="midnightblue" d="M171.25,-105.75C179.63,-97.87 188.55,-87.5 193,-76 201.48,-54.1 178.92,-31.59 163.99,-19.66"/>
<polygon fill="midnightblue" stroke="midnightblue" points="168.76,-103.27 163.54,-112.49 173.37,-108.54 168.76,-103.27"/>
</g>
<!-- Node2&#45;&gt;Node3 -->
<g id="edge2" class="edge">
<title>Node2&#45;&gt;Node3</title>
<path fill="none" stroke="midnightblue" d="M109.18,-49.54C119.88,-39.91 133.26,-27.87 142.18,-19.83"/>
<polygon fill="midnightblue" stroke="midnightblue" points="106.73,-47.03 101.64,-56.32 111.41,-52.24 106.73,-47.03"/>
</g>
</g>
</svg>
