<?xml version="1.0" encoding="UTF-8" standalone="no"?>
<!DOCTYPE svg PUBLIC "-//W3C//DTD SVG 1.1//EN"
 "http://www.w3.org/Graphics/SVG/1.1/DTD/svg11.dtd">
<!-- Generated by graphviz version 2.43.0 (0)
 -->
<!-- Title: AllenCahnNLFormIntegrator.tpp Pages: 1 -->
<svg width="195pt" height="140pt"
 viewBox="0.00 0.00 195.00 140.00" xmlns="http://www.w3.org/2000/svg" xmlns:xlink="http://www.w3.org/1999/xlink">
<g id="graph0" class="graph" transform="scale(1 1) rotate(0) translate(4 136)">
<title>AllenCahnNLFormIntegrator.tpp</title>
<!-- Node1 -->
<g id="node1" class="node">
<title>Node1</title>
<g id="a_node1"><a xlink:title=" ">
<polygon fill="#bfbfbf" stroke="black" points="1.5,-112.5 1.5,-131.5 185.5,-131.5 185.5,-112.5 1.5,-112.5"/>
<text text-anchor="middle" x="93.5" y="-119.5" font-family="serif" font-size="10.00">AllenCahnNLFormIntegrator.tpp</text>
</a>
</g>
</g>
<!-- Node2 -->
<g id="node2" class="node">
<title>Node2</title>
<g id="a_node2"><a xlink:href="AllenCahnNLFormIntegrator_8hpp.html" target="_top" xlink:title="VF of the Allen Cahn equation.">
<polygon fill="none" stroke="black" points="0,-56.5 0,-75.5 187,-75.5 187,-56.5 0,-56.5"/>
<text text-anchor="middle" x="93.5" y="-63.5" font-family="serif" font-size="10.00">AllenCahnNLFormIntegrator.hpp</text>
</a>
</g>
</g>
<!-- Node1&#45;&gt;Node2 -->
<g id="edge1" class="edge">
<title>Node1&#45;&gt;Node2</title>
<path fill="none" stroke="midnightblue" d="M93.5,-101.8C93.5,-92.91 93.5,-82.78 93.5,-75.75"/>
<polygon fill="midnightblue" stroke="midnightblue" points="90,-102.08 93.5,-112.08 97,-102.08 90,-102.08"/>
</g>
<!-- Node3 -->
<g id="node3" class="node">
<title>Node3</title>
<g id="a_node3"><a xlink:href="ListIntegrators_8hpp.html" target="_top" xlink:title="List of header files contained in the Integrators directory.">
<polygon fill="none" stroke="black" points="35.5,-0.5 35.5,-19.5 151.5,-19.5 151.5,-0.5 35.5,-0.5"/>
<text text-anchor="middle" x="93.5" y="-7.5" font-family="serif" font-size="10.00">ListIntegrators.hpp</text>
</a>
</g>
</g>
<!-- Node2&#45;&gt;Node3 -->
<g id="edge2" class="edge">
<title>Node2&#45;&gt;Node3</title>
<path fill="none" stroke="midnightblue" d="M93.5,-45.8C93.5,-36.91 93.5,-26.78 93.5,-19.75"/>
<polygon fill="midnightblue" stroke="midnightblue" points="90,-46.08 93.5,-56.08 97,-46.08 90,-46.08"/>
</g>
</g>
</svg>
