<?xml version="1.0" encoding="UTF-8" standalone="no"?>
<!DOCTYPE svg PUBLIC "-//W3C//DTD SVG 1.1//EN"
 "http://www.w3.org/Graphics/SVG/1.1/DTD/svg11.dtd">
<!-- Generated by graphviz version 2.43.0 (0)
 -->
<!-- Title: AnalyticalFunctionOptions.hpp Pages: 1 -->
<!--zoomable 252 -->
<svg id="main" version="1.1" xmlns="http://www.w3.org/2000/svg" xmlns:xlink="http://www.w3.org/1999/xlink" xml:space="preserve" onload="init(evt)">
<style type="text/css"><![CDATA[
.edge:hover path { stroke: red; }
.edge:hover polygon { stroke: red; fill: red; }
]]></style>
<script type="text/javascript"><![CDATA[
var edges = document.getElementsByTagName('g');
if (edges && edges.length) {
  for (var i=0;i<edges.length;i++) {
    if (edges[i].id.substr(0,4)=='edge') {
      edges[i].setAttribute('class','edge');
    }
  }
}
]]></script>
        <defs>
                <circle id="rim" cx="0" cy="0" r="7"/>
                <circle id="rim2" cx="0" cy="0" r="3.5"/>
                <g id="zoomPlus">
                        <use xlink:href="#rim" fill="#404040">
                                <set attributeName="fill" to="#808080" begin="zoomplus.mouseover" end="zoomplus.mouseout"/>
                        </use>
                        <path d="M-4,0h8M0,-4v8" fill="none" stroke="white" stroke-width="1.5" pointer-events="none"/>
                </g>
                <g id="zoomMin">
                        <use xlink:href="#rim" fill="#404040">
                                <set attributeName="fill" to="#808080" begin="zoomminus.mouseover" end="zoomminus.mouseout"/>
                        </use>
                        <path d="M-4,0h8" fill="none" stroke="white" stroke-width="1.5" pointer-events="none"/>
                </g>
                <g id="dirArrow">
                        <path fill="none" stroke="white" stroke-width="1.5" d="M0,-3.0v7 M-2.5,-0.5L0,-3.0L2.5,-0.5"/>
                </g>
               <g id="resetDef">
                       <use xlink:href="#rim2" fill="#404040">
                               <set attributeName="fill" to="#808080" begin="reset.mouseover" end="reset.mouseout"/>
                       </use>
               </g>
        </defs>

<script type="text/javascript">
var viewWidth = 1236;
var viewHeight = 252;
var sectionId = 'dynsection-0';
</script>
<script xlink:href="svgpan.js"/>
<svg id="graph" class="graph">
<g id="viewport">
<title>AnalyticalFunctionOptions.hpp</title>
<!-- Node1 -->
<g id="node1" class="node">
<title>Node1</title>
<g id="a_node1"><a xlink:title="Options for Analytical functions.">
<polygon fill="#bfbfbf" stroke="black" points="85,-224.5 85,-243.5 260,-243.5 260,-224.5 85,-224.5"/>
<text text-anchor="middle" x="172.5" y="-231.5" font-family="serif" font-size="10.00">AnalyticalFunctionOptions.hpp</text>
</a>
</g>
</g>
<!-- Node2 -->
<g id="node2" class="node">
<title>Node2</title>
<g id="a_node2"><a xlink:title=" ">
<polygon fill="none" stroke="#bfbfbf" points="0,-0.5 0,-19.5 47,-19.5 47,-0.5 0,-0.5"/>
<text text-anchor="middle" x="23.5" y="-7.5" font-family="serif" font-size="10.00">string</text>
</a>
</g>
</g>
<!-- Node1&#45;&gt;Node2 -->
<g id="edge1" class="edge">
<title>Node1&#45;&gt;Node2</title>
<path fill="none" stroke="midnightblue" d="M162.23,-224.28C136.95,-202.22 71.39,-141.29 38.5,-76 31.17,-61.46 27.37,-43.28 25.43,-29.84"/>
<polygon fill="midnightblue" stroke="midnightblue" points="28.9,-29.36 24.2,-19.86 21.95,-30.21 28.9,-29.36"/>
</g>
<!-- Node3 -->
<g id="node3" class="node">
<title>Node3</title>
<g id="a_node3"><a xlink:href="Utils_8hpp.html" target="_top" xlink:title="List of all Utils files.">
<polygon fill="none" stroke="black" points="398,-168.5 398,-187.5 487,-187.5 487,-168.5 398,-168.5"/>
<text text-anchor="middle" x="442.5" y="-175.5" font-family="serif" font-size="10.00">Utils/Utils.hpp</text>
</a>
</g>
</g>
<!-- Node1&#45;&gt;Node3 -->
<g id="edge2" class="edge">
<title>Node1&#45;&gt;Node3</title>
<path fill="none" stroke="midnightblue" d="M215.28,-224.44C262.68,-214.96 339.13,-199.67 390.08,-189.48"/>
<polygon fill="midnightblue" stroke="midnightblue" points="390.8,-192.91 399.92,-187.52 389.43,-186.05 390.8,-192.91"/>
</g>
<!-- Node4 -->
<g id="node4" class="node">
<title>Node4</title>
<g id="a_node4"><a xlink:href="UtilsForData_8hpp.html" target="_top" xlink:title="Usefull methods for data.">
<polygon fill="none" stroke="black" points="511,-56.5 511,-75.5 642,-75.5 642,-56.5 511,-56.5"/>
<text text-anchor="middle" x="576.5" y="-63.5" font-family="serif" font-size="10.00">Utils/UtilsForData.hpp</text>
</a>
</g>
</g>
<!-- Node3&#45;&gt;Node4 -->
<g id="edge3" class="edge">
<title>Node3&#45;&gt;Node4</title>
<path fill="none" stroke="midnightblue" d="M453.01,-168.37C475.72,-149.73 529.56,-105.53 558.06,-82.13"/>
<polygon fill="midnightblue" stroke="midnightblue" points="560.53,-84.64 566.03,-75.59 556.08,-79.23 560.53,-84.64"/>
</g>
<!-- Node17 -->
<g id="node17" class="node">
<title>Node17</title>
<g id="a_node17"><a xlink:href="UtilsForDebug_8hpp.html" target="_top" xlink:title="Usefull methods for debug.">
<polygon fill="none" stroke="black" points="600,-112.5 600,-131.5 741,-131.5 741,-112.5 600,-112.5"/>
<text text-anchor="middle" x="670.5" y="-119.5" font-family="serif" font-size="10.00">Utils/UtilsForDebug.hpp</text>
</a>
</g>
</g>
<!-- Node3&#45;&gt;Node17 -->
<g id="edge17" class="edge">
<title>Node3&#45;&gt;Node17</title>
<path fill="none" stroke="midnightblue" d="M478.63,-168.44C518.15,-159.08 581.6,-144.06 624.61,-133.87"/>
<polygon fill="midnightblue" stroke="midnightblue" points="625.62,-137.23 634.54,-131.52 624,-130.42 625.62,-137.23"/>
</g>
<!-- Node20 -->
<g id="node20" class="node">
<title>Node20</title>
<g id="a_node20"><a xlink:href="UtilsForOptions_8hpp.html" target="_top" xlink:title="Usefull methods for Options.">
<polygon fill="none" stroke="black" points="270.5,-56.5 270.5,-75.5 416.5,-75.5 416.5,-56.5 270.5,-56.5"/>
<text text-anchor="middle" x="343.5" y="-63.5" font-family="serif" font-size="10.00">Utils/UtilsForOptions.hpp</text>
</a>
</g>
</g>
<!-- Node3&#45;&gt;Node20 -->
<g id="edge28" class="edge">
<title>Node3&#45;&gt;Node20</title>
<path fill="none" stroke="midnightblue" d="M434.73,-168.37C418.18,-149.97 379.2,-106.67 357.95,-83.05"/>
<polygon fill="midnightblue" stroke="midnightblue" points="360.52,-80.68 351.23,-75.59 355.32,-85.37 360.52,-80.68"/>
</g>
<!-- Node23 -->
<g id="node23" class="node">
<title>Node23</title>
<g id="a_node23"><a xlink:href="UtilsForPostProcessing_8hpp.html" target="_top" xlink:title="Usefull methods for post&#45;processing.">
<polygon fill="none" stroke="black" points="69,-56.5 69,-75.5 252,-75.5 252,-56.5 69,-56.5"/>
<text text-anchor="middle" x="160.5" y="-63.5" font-family="serif" font-size="10.00">Utils/UtilsForPostProcessing.hpp</text>
</a>
</g>
</g>
<!-- Node3&#45;&gt;Node23 -->
<g id="edge38" class="edge">
<title>Node3&#45;&gt;Node23</title>
<path fill="none" stroke="midnightblue" d="M420.37,-168.37C370.54,-148.93 249.39,-101.67 191.85,-79.23"/>
<polygon fill="midnightblue" stroke="midnightblue" points="193.11,-75.96 182.53,-75.59 190.57,-82.49 193.11,-75.96"/>
</g>
<!-- Node24 -->
<g id="node24" class="node">
<title>Node24</title>
<g id="a_node24"><a xlink:href="UtilsForVariants_8hpp.html" target="_top" xlink:title="manage std::Variants">
<polygon fill="none" stroke="black" points="1014.5,-56.5 1014.5,-75.5 1162.5,-75.5 1162.5,-56.5 1014.5,-56.5"/>
<text text-anchor="middle" x="1088.5" y="-63.5" font-family="serif" font-size="10.00">Utils/UtilsForVariants.hpp</text>
</a>
</g>
</g>
<!-- Node3&#45;&gt;Node24 -->
<g id="edge45" class="edge">
<title>Node3&#45;&gt;Node24</title>
<path fill="none" stroke="midnightblue" d="M487.08,-171.09C546.91,-163.02 656.42,-147.74 749.5,-132 851.72,-114.72 970.59,-91.11 1036.93,-77.62"/>
<polygon fill="midnightblue" stroke="midnightblue" points="1038.02,-80.97 1047.12,-75.54 1036.62,-74.11 1038.02,-80.97"/>
</g>
<!-- Node4&#45;&gt;Node2 -->
<g id="edge12" class="edge">
<title>Node4&#45;&gt;Node2</title>
<path fill="none" stroke="midnightblue" d="M510.84,-60.8C395.14,-53.16 158.43,-36.4 57.13,-19.72"/>
<polygon fill="midnightblue" stroke="midnightblue" points="57.63,-16.26 47.18,-18.01 56.44,-23.16 57.63,-16.26"/>
</g>
<!-- Node5 -->
<g id="node5" class="node">
<title>Node5</title>
<g id="a_node5"><a xlink:title=" ">
<polygon fill="none" stroke="#bfbfbf" points="851,-0.5 851,-19.5 910,-19.5 910,-0.5 851,-0.5"/>
<text text-anchor="middle" x="880.5" y="-7.5" font-family="serif" font-size="10.00">unistd.h</text>
</a>
</g>
</g>
<!-- Node4&#45;&gt;Node5 -->
<g id="edge4" class="edge">
<title>Node4&#45;&gt;Node5</title>
<path fill="none" stroke="midnightblue" d="M632.51,-56.47C684.06,-48.39 762.87,-35.49 840.74,-20.05"/>
<polygon fill="midnightblue" stroke="midnightblue" points="841.61,-23.45 850.73,-18.06 840.24,-16.59 841.61,-23.45"/>
</g>
<!-- Node6 -->
<g id="node6" class="node">
<title>Node6</title>
<g id="a_node6"><a xlink:title=" ">
<polygon fill="none" stroke="#bfbfbf" points="127.5,-0.5 127.5,-19.5 193.5,-19.5 193.5,-0.5 127.5,-0.5"/>
<text text-anchor="middle" x="160.5" y="-7.5" font-family="serif" font-size="10.00">algorithm</text>
</a>
</g>
</g>
<!-- Node4&#45;&gt;Node6 -->
<g id="edge5" class="edge">
<title>Node4&#45;&gt;Node6</title>
<path fill="none" stroke="midnightblue" d="M510.71,-58.92C437.92,-51.78 316.99,-38.7 203.79,-20.09"/>
<polygon fill="midnightblue" stroke="midnightblue" points="204.36,-16.64 193.92,-18.45 203.21,-23.54 204.36,-16.64"/>
</g>
<!-- Node7 -->
<g id="node7" class="node">
<title>Node7</title>
<g id="a_node7"><a xlink:title=" ">
<polygon fill="none" stroke="#bfbfbf" points="539.5,-0.5 539.5,-19.5 589.5,-19.5 589.5,-0.5 539.5,-0.5"/>
<text text-anchor="middle" x="564.5" y="-7.5" font-family="serif" font-size="10.00">cctype</text>
</a>
</g>
</g>
<!-- Node4&#45;&gt;Node7 -->
<g id="edge6" class="edge">
<title>Node4&#45;&gt;Node7</title>
<path fill="none" stroke="midnightblue" d="M574.52,-56.08C572.93,-48.93 570.64,-38.64 568.65,-29.69"/>
<polygon fill="midnightblue" stroke="midnightblue" points="572.03,-28.75 566.44,-19.75 565.2,-30.27 572.03,-28.75"/>
</g>
<!-- Node8 -->
<g id="node8" class="node">
<title>Node8</title>
<g id="a_node8"><a xlink:title=" ">
<polygon fill="none" stroke="#bfbfbf" points="1015,-0.5 1015,-19.5 1062,-19.5 1062,-0.5 1015,-0.5"/>
<text text-anchor="middle" x="1038.5" y="-7.5" font-family="serif" font-size="10.00">cstdio</text>
</a>
</g>
</g>
<!-- Node4&#45;&gt;Node8 -->
<g id="edge7" class="edge">
<title>Node4&#45;&gt;Node8</title>
<path fill="none" stroke="midnightblue" d="M642.02,-61.43C724.51,-56.2 870.63,-44.5 1004.77,-19.83"/>
<polygon fill="midnightblue" stroke="midnightblue" points="1005.63,-23.23 1014.81,-17.95 1004.34,-16.35 1005.63,-23.23"/>
</g>
<!-- Node9 -->
<g id="node9" class="node">
<title>Node9</title>
<g id="a_node9"><a xlink:title=" ">
<polygon fill="none" stroke="#bfbfbf" points="607.5,-0.5 607.5,-19.5 675.5,-19.5 675.5,-0.5 607.5,-0.5"/>
<text text-anchor="middle" x="641.5" y="-7.5" font-family="serif" font-size="10.00">filesystem</text>
</a>
</g>
</g>
<!-- Node4&#45;&gt;Node9 -->
<g id="edge8" class="edge">
<title>Node4&#45;&gt;Node9</title>
<path fill="none" stroke="midnightblue" d="M586.94,-56.32C596.65,-48.26 611.32,-36.08 623,-26.37"/>
<polygon fill="midnightblue" stroke="midnightblue" points="625.41,-28.92 630.87,-19.83 620.94,-23.53 625.41,-28.92"/>
</g>
<!-- Node10 -->
<g id="node10" class="node">
<title>Node10</title>
<g id="a_node10"><a xlink:title=" ">
<polygon fill="none" stroke="#bfbfbf" points="693.5,-0.5 693.5,-19.5 761.5,-19.5 761.5,-0.5 693.5,-0.5"/>
<text text-anchor="middle" x="727.5" y="-7.5" font-family="serif" font-size="10.00">functional</text>
</a>
</g>
</g>
<!-- Node4&#45;&gt;Node10 -->
<g id="edge9" class="edge">
<title>Node4&#45;&gt;Node10</title>
<path fill="none" stroke="midnightblue" d="M600.43,-56.44C625.72,-47.4 665.8,-33.06 694.18,-22.92"/>
<polygon fill="midnightblue" stroke="midnightblue" points="695.45,-26.18 703.69,-19.52 693.09,-19.59 695.45,-26.18"/>
</g>
<!-- Node11 -->
<g id="node11" class="node">
<title>Node11</title>
<g id="a_node11"><a xlink:title=" ">
<polygon fill="none" stroke="#bfbfbf" points="342,-0.5 342,-19.5 403,-19.5 403,-0.5 342,-0.5"/>
<text text-anchor="middle" x="372.5" y="-7.5" font-family="serif" font-size="10.00">iostream</text>
</a>
</g>
</g>
<!-- Node4&#45;&gt;Node11 -->
<g id="edge10" class="edge">
<title>Node4&#45;&gt;Node11</title>
<path fill="none" stroke="midnightblue" d="M544.18,-56.44C508.59,-47.03 451.35,-31.87 412.85,-21.68"/>
<polygon fill="midnightblue" stroke="midnightblue" points="413.57,-18.25 403.01,-19.08 411.78,-25.02 413.57,-18.25"/>
</g>
<!-- Node12 -->
<g id="node12" class="node">
<title>Node12</title>
<g id="a_node12"><a xlink:title=" ">
<polygon fill="none" stroke="#bfbfbf" points="482,-0.5 482,-19.5 521,-19.5 521,-0.5 482,-0.5"/>
<text text-anchor="middle" x="501.5" y="-7.5" font-family="serif" font-size="10.00">map</text>
</a>
</g>
</g>
<!-- Node4&#45;&gt;Node12 -->
<g id="edge11" class="edge">
<title>Node4&#45;&gt;Node12</title>
<path fill="none" stroke="midnightblue" d="M564.45,-56.32C553.04,-48.11 535.67,-35.6 522.07,-25.81"/>
<polygon fill="midnightblue" stroke="midnightblue" points="523.93,-22.84 513.77,-19.83 519.84,-28.52 523.93,-22.84"/>
</g>
<!-- Node13 -->
<g id="node13" class="node">
<title>Node13</title>
<g id="a_node13"><a xlink:title=" ">
<polygon fill="none" stroke="#bfbfbf" points="421,-0.5 421,-19.5 464,-19.5 464,-0.5 421,-0.5"/>
<text text-anchor="middle" x="442.5" y="-7.5" font-family="serif" font-size="10.00">tuple</text>
</a>
</g>
</g>
<!-- Node4&#45;&gt;Node13 -->
<g id="edge13" class="edge">
<title>Node4&#45;&gt;Node13</title>
<path fill="none" stroke="midnightblue" d="M555.27,-56.44C533.12,-47.52 498.18,-33.44 473.06,-23.32"/>
<polygon fill="midnightblue" stroke="midnightblue" points="474.22,-20.01 463.63,-19.52 471.6,-26.5 474.22,-20.01"/>
</g>
<!-- Node14 -->
<g id="node14" class="node">
<title>Node14</title>
<g id="a_node14"><a xlink:title=" ">
<polygon fill="none" stroke="#bfbfbf" points="277.5,-0.5 277.5,-19.5 323.5,-19.5 323.5,-0.5 277.5,-0.5"/>
<text text-anchor="middle" x="300.5" y="-7.5" font-family="serif" font-size="10.00">utility</text>
</a>
</g>
</g>
<!-- Node4&#45;&gt;Node14 -->
<g id="edge14" class="edge">
<title>Node4&#45;&gt;Node14</title>
<path fill="none" stroke="midnightblue" d="M522.42,-56.49C475.01,-48.7 404.05,-36.24 333.46,-20.05"/>
<polygon fill="midnightblue" stroke="midnightblue" points="334.04,-16.59 323.51,-17.74 332.46,-23.41 334.04,-16.59"/>
</g>
<!-- Node15 -->
<g id="node15" class="node">
<title>Node15</title>
<g id="a_node15"><a xlink:title=" ">
<polygon fill="none" stroke="#bfbfbf" points="211.5,-0.5 211.5,-19.5 259.5,-19.5 259.5,-0.5 211.5,-0.5"/>
<text text-anchor="middle" x="235.5" y="-7.5" font-family="serif" font-size="10.00">vector</text>
</a>
</g>
</g>
<!-- Node4&#45;&gt;Node15 -->
<g id="edge15" class="edge">
<title>Node4&#45;&gt;Node15</title>
<path fill="none" stroke="midnightblue" d="M510.9,-57.75C450.53,-50.55 358.38,-38.23 269.54,-20"/>
<polygon fill="midnightblue" stroke="midnightblue" points="270.07,-16.54 259.57,-17.93 268.65,-23.39 270.07,-16.54"/>
</g>
<!-- Node16 -->
<g id="node16" class="node">
<title>Node16</title>
<g id="a_node16"><a xlink:title=" ">
<polygon fill="none" stroke="#bfbfbf" points="928,-0.5 928,-19.5 997,-19.5 997,-0.5 928,-0.5"/>
<text text-anchor="middle" x="962.5" y="-7.5" font-family="serif" font-size="10.00">mfem.hpp</text>
</a>
</g>
</g>
<!-- Node4&#45;&gt;Node16 -->
<g id="edge16" class="edge">
<title>Node4&#45;&gt;Node16</title>
<path fill="none" stroke="midnightblue" d="M642.27,-57.75C709.13,-50.06 815.89,-36.91 918.08,-19.96"/>
<polygon fill="midnightblue" stroke="midnightblue" points="918.67,-23.41 927.96,-18.31 917.52,-16.51 918.67,-23.41"/>
</g>
<!-- Node17&#45;&gt;Node2 -->
<g id="edge24" class="edge">
<title>Node17&#45;&gt;Node2</title>
<path fill="none" stroke="midnightblue" d="M599.75,-119.54C448.55,-115.89 104.07,-104.52 59.5,-76 43.06,-65.48 33.48,-44.7 28.39,-29.45"/>
<polygon fill="midnightblue" stroke="midnightblue" points="31.65,-28.14 25.45,-19.56 24.94,-30.14 31.65,-28.14"/>
</g>
<!-- Node17&#45;&gt;Node4 -->
<g id="edge26" class="edge">
<title>Node17&#45;&gt;Node4</title>
<path fill="none" stroke="midnightblue" d="M655.4,-112.32C640.6,-103.82 617.81,-90.73 600.52,-80.8"/>
<polygon fill="midnightblue" stroke="midnightblue" points="601.98,-77.6 591.57,-75.65 598.49,-83.67 601.98,-77.6"/>
</g>
<!-- Node17&#45;&gt;Node5 -->
<g id="edge19" class="edge">
<title>Node17&#45;&gt;Node5</title>
<path fill="none" stroke="midnightblue" d="M676.33,-112.49C686.26,-98.63 707.8,-71.21 732.5,-56 750.68,-44.8 803.4,-30.15 840.72,-20.65"/>
<polygon fill="midnightblue" stroke="midnightblue" points="841.95,-23.95 850.8,-18.12 840.24,-17.17 841.95,-23.95"/>
</g>
<!-- Node17&#45;&gt;Node8 -->
<g id="edge20" class="edge">
<title>Node17&#45;&gt;Node8</title>
<path fill="none" stroke="midnightblue" d="M689.78,-112.35C709.28,-103.52 740.2,-89.26 766.5,-76 783.19,-67.59 785.85,-62.16 803.5,-56 886.65,-26.96 914.62,-39.11 1004.94,-19.91"/>
<polygon fill="midnightblue" stroke="midnightblue" points="1005.75,-23.31 1014.77,-17.75 1004.25,-16.47 1005.75,-23.31"/>
</g>
<!-- Node17&#45;&gt;Node10 -->
<g id="edge22" class="edge">
<title>Node17&#45;&gt;Node10</title>
<path fill="none" stroke="midnightblue" d="M672.88,-112.26C676.55,-99.46 684.25,-75.07 694.5,-56 699.82,-46.1 707.1,-35.93 713.47,-27.77"/>
<polygon fill="midnightblue" stroke="midnightblue" points="716.33,-29.79 719.88,-19.81 710.88,-25.4 716.33,-29.79"/>
</g>
<!-- Node17&#45;&gt;Node11 -->
<g id="edge23" class="edge">
<title>Node17&#45;&gt;Node11</title>
<path fill="none" stroke="midnightblue" d="M629.12,-112.49C594.44,-104.77 543.93,-92.14 501.5,-76 481.11,-68.24 428.84,-41 397.45,-24.35"/>
<polygon fill="midnightblue" stroke="midnightblue" points="398.91,-21.16 388.44,-19.55 395.62,-27.34 398.91,-21.16"/>
</g>
<!-- Node17&#45;&gt;Node14 -->
<g id="edge25" class="edge">
<title>Node17&#45;&gt;Node14</title>
<path fill="none" stroke="midnightblue" d="M601.97,-112.42C559.6,-105.68 504.68,-94.28 458.5,-76 442.55,-69.69 440.98,-63.39 425.5,-56 395.18,-41.53 358.89,-28.96 333.25,-20.81"/>
<polygon fill="midnightblue" stroke="midnightblue" points="334.22,-17.45 323.64,-17.8 332.13,-24.13 334.22,-17.45"/>
</g>
<!-- Node17&#45;&gt;Node16 -->
<g id="edge27" class="edge">
<title>Node17&#45;&gt;Node16</title>
<path fill="none" stroke="midnightblue" d="M680.9,-112.47C698.34,-98.58 735.08,-71.11 770.5,-56 783.97,-50.25 865.2,-32.09 917.59,-20.67"/>
<polygon fill="midnightblue" stroke="midnightblue" points="918.63,-24.03 927.66,-18.48 917.15,-17.19 918.63,-24.03"/>
</g>
<!-- Node18 -->
<g id="node18" class="node">
<title>Node18</title>
<g id="a_node18"><a xlink:title=" ">
<polygon fill="none" stroke="#bfbfbf" points="812.5,-56.5 812.5,-75.5 902.5,-75.5 902.5,-56.5 812.5,-56.5"/>
<text text-anchor="middle" x="857.5" y="-63.5" font-family="serif" font-size="10.00">sys/resource.h</text>
</a>
</g>
</g>
<!-- Node17&#45;&gt;Node18 -->
<g id="edge18" class="edge">
<title>Node17&#45;&gt;Node18</title>
<path fill="none" stroke="midnightblue" d="M700.13,-112.44C732,-103.24 782.83,-88.56 818.06,-78.39"/>
<polygon fill="midnightblue" stroke="midnightblue" points="819.37,-81.65 828.01,-75.52 817.43,-74.93 819.37,-81.65"/>
</g>
<!-- Node19 -->
<g id="node19" class="node">
<title>Node19</title>
<g id="a_node19"><a xlink:title=" ">
<polygon fill="none" stroke="#bfbfbf" points="920.5,-56.5 920.5,-75.5 976.5,-75.5 976.5,-56.5 920.5,-56.5"/>
<text text-anchor="middle" x="948.5" y="-63.5" font-family="serif" font-size="10.00">fstream</text>
</a>
</g>
</g>
<!-- Node17&#45;&gt;Node19 -->
<g id="edge21" class="edge">
<title>Node17&#45;&gt;Node19</title>
<path fill="none" stroke="midnightblue" d="M720.51,-112.47C767.16,-104.34 838.94,-91.36 910.2,-76.19"/>
<polygon fill="midnightblue" stroke="midnightblue" points="911.21,-79.56 920.25,-74.04 909.74,-72.71 911.21,-79.56"/>
</g>
<!-- Node20&#45;&gt;Node2 -->
<g id="edge33" class="edge">
<title>Node20&#45;&gt;Node2</title>
<path fill="none" stroke="midnightblue" d="M275.26,-56.47C219.15,-48.95 137.41,-36.88 57.01,-19.9"/>
<polygon fill="midnightblue" stroke="midnightblue" points="57.73,-16.47 47.22,-17.81 56.26,-23.32 57.73,-16.47"/>
</g>
<!-- Node20&#45;&gt;Node6 -->
<g id="edge29" class="edge">
<title>Node20&#45;&gt;Node6</title>
<path fill="none" stroke="midnightblue" d="M314.5,-56.44C283.32,-47.24 233.57,-32.56 199.09,-22.39"/>
<polygon fill="midnightblue" stroke="midnightblue" points="199.94,-18.99 189.36,-19.52 197.96,-25.7 199.94,-18.99"/>
</g>
<!-- Node20&#45;&gt;Node10 -->
<g id="edge30" class="edge">
<title>Node20&#45;&gt;Node10</title>
<path fill="none" stroke="midnightblue" d="M416.58,-56.97C483.49,-49.24 585.48,-36.55 683.22,-20.11"/>
<polygon fill="midnightblue" stroke="midnightblue" points="684,-23.53 693.28,-18.4 682.83,-16.63 684,-23.53"/>
</g>
<!-- Node20&#45;&gt;Node11 -->
<g id="edge31" class="edge">
<title>Node20&#45;&gt;Node11</title>
<path fill="none" stroke="midnightblue" d="M348.29,-56.08C352.26,-48.69 358.03,-37.95 362.93,-28.81"/>
<polygon fill="midnightblue" stroke="midnightblue" points="366.15,-30.22 367.8,-19.75 359.99,-26.91 366.15,-30.22"/>
</g>
<!-- Node20&#45;&gt;Node13 -->
<g id="edge34" class="edge">
<title>Node20&#45;&gt;Node13</title>
<path fill="none" stroke="midnightblue" d="M359.41,-56.32C375.14,-47.74 399.44,-34.49 417.71,-24.52"/>
<polygon fill="midnightblue" stroke="midnightblue" points="419.53,-27.52 426.63,-19.65 416.18,-21.37 419.53,-27.52"/>
</g>
<!-- Node20&#45;&gt;Node14 -->
<g id="edge35" class="edge">
<title>Node20&#45;&gt;Node14</title>
<path fill="none" stroke="midnightblue" d="M336.4,-56.08C330.26,-48.38 321.23,-37.03 313.76,-27.65"/>
<polygon fill="midnightblue" stroke="midnightblue" points="316.44,-25.39 307.47,-19.75 310.96,-29.75 316.44,-25.39"/>
</g>
<!-- Node20&#45;&gt;Node15 -->
<g id="edge37" class="edge">
<title>Node20&#45;&gt;Node15</title>
<path fill="none" stroke="midnightblue" d="M326.15,-56.32C308.83,-47.66 281.98,-34.24 262,-24.25"/>
<polygon fill="midnightblue" stroke="midnightblue" points="263.32,-21 252.81,-19.65 260.19,-27.26 263.32,-21"/>
</g>
<!-- Node21 -->
<g id="node21" class="node">
<title>Node21</title>
<g id="a_node21"><a xlink:title=" ">
<polygon fill="none" stroke="#bfbfbf" points="65.5,-0.5 65.5,-19.5 109.5,-19.5 109.5,-0.5 65.5,-0.5"/>
<text text-anchor="middle" x="87.5" y="-7.5" font-family="serif" font-size="10.00">limits</text>
</a>
</g>
</g>
<!-- Node20&#45;&gt;Node21 -->
<g id="edge32" class="edge">
<title>Node20&#45;&gt;Node21</title>
<path fill="none" stroke="midnightblue" d="M294.52,-56.45C250.99,-48.57 185.46,-36.02 119.89,-20.18"/>
<polygon fill="midnightblue" stroke="midnightblue" points="120.33,-16.69 109.79,-17.72 118.67,-23.49 120.33,-16.69"/>
</g>
<!-- Node22 -->
<g id="node22" class="node">
<title>Node22</title>
<g id="a_node22"><a xlink:title=" ">
<polygon fill="none" stroke="#bfbfbf" points="780,-0.5 780,-19.5 833,-19.5 833,-0.5 780,-0.5"/>
<text text-anchor="middle" x="806.5" y="-7.5" font-family="serif" font-size="10.00">variant</text>
</a>
</g>
</g>
<!-- Node20&#45;&gt;Node22 -->
<g id="edge36" class="edge">
<title>Node20&#45;&gt;Node22</title>
<path fill="none" stroke="midnightblue" d="M416.85,-60.41C500.09,-54.49 640.03,-42.4 769.74,-19.88"/>
<polygon fill="midnightblue" stroke="midnightblue" points="770.61,-23.28 779.85,-18.1 769.4,-16.39 770.61,-23.28"/>
</g>
<!-- Node23&#45;&gt;Node2 -->
<g id="edge42" class="edge">
<title>Node23&#45;&gt;Node2</title>
<path fill="none" stroke="midnightblue" d="M138.79,-56.44C116.15,-47.52 80.43,-33.44 54.75,-23.32"/>
<polygon fill="midnightblue" stroke="midnightblue" points="55.69,-19.93 45.11,-19.52 53.13,-26.44 55.69,-19.93"/>
</g>
<!-- Node23&#45;&gt;Node6 -->
<g id="edge39" class="edge">
<title>Node23&#45;&gt;Node6</title>
<path fill="none" stroke="midnightblue" d="M160.5,-56.08C160.5,-49.01 160.5,-38.86 160.5,-29.99"/>
<polygon fill="midnightblue" stroke="midnightblue" points="164,-29.75 160.5,-19.75 157,-29.75 164,-29.75"/>
</g>
<!-- Node23&#45;&gt;Node11 -->
<g id="edge40" class="edge">
<title>Node23&#45;&gt;Node11</title>
<path fill="none" stroke="midnightblue" d="M194.09,-56.44C231.55,-46.9 292.11,-31.48 332.12,-21.29"/>
<polygon fill="midnightblue" stroke="midnightblue" points="332.99,-24.68 341.82,-18.82 331.26,-17.89 332.99,-24.68"/>
</g>
<!-- Node23&#45;&gt;Node14 -->
<g id="edge43" class="edge">
<title>Node23&#45;&gt;Node14</title>
<path fill="none" stroke="midnightblue" d="M182.68,-56.44C205.93,-47.48 242.65,-33.31 268.92,-23.18"/>
<polygon fill="midnightblue" stroke="midnightblue" points="270.35,-26.38 278.42,-19.52 267.83,-19.85 270.35,-26.38"/>
</g>
<!-- Node23&#45;&gt;Node15 -->
<g id="edge44" class="edge">
<title>Node23&#45;&gt;Node15</title>
<path fill="none" stroke="midnightblue" d="M172.55,-56.32C183.96,-48.11 201.33,-35.6 214.93,-25.81"/>
<polygon fill="midnightblue" stroke="midnightblue" points="217.16,-28.52 223.23,-19.83 213.07,-22.84 217.16,-28.52"/>
</g>
<!-- Node23&#45;&gt;Node21 -->
<g id="edge41" class="edge">
<title>Node23&#45;&gt;Node21</title>
<path fill="none" stroke="midnightblue" d="M148.77,-56.32C137.66,-48.11 120.76,-35.6 107.52,-25.81"/>
<polygon fill="midnightblue" stroke="midnightblue" points="109.56,-22.97 99.44,-19.83 105.4,-28.59 109.56,-22.97"/>
</g>
<!-- Node24&#45;&gt;Node22 -->
<g id="edge48" class="edge">
<title>Node24&#45;&gt;Node22</title>
<path fill="none" stroke="midnightblue" d="M1035.28,-56.43C987.36,-48.47 914.8,-35.77 843.29,-20.28"/>
<polygon fill="midnightblue" stroke="midnightblue" points="843.72,-16.79 833.21,-18.08 842.23,-23.63 843.72,-16.79"/>
</g>
<!-- Node25 -->
<g id="node25" class="node">
<title>Node25</title>
<g id="a_node25"><a xlink:title=" ">
<polygon fill="none" stroke="#bfbfbf" points="1080,-0.5 1080,-19.5 1139,-19.5 1139,-0.5 1080,-0.5"/>
<text text-anchor="middle" x="1109.5" y="-7.5" font-family="serif" font-size="10.00">memory</text>
</a>
</g>
</g>
<!-- Node24&#45;&gt;Node25 -->
<g id="edge46" class="edge">
<title>Node24&#45;&gt;Node25</title>
<path fill="none" stroke="midnightblue" d="M1091.97,-56.08C1094.81,-48.77 1098.93,-38.18 1102.46,-29.1"/>
<polygon fill="midnightblue" stroke="midnightblue" points="1105.73,-30.34 1106.1,-19.75 1099.21,-27.8 1105.73,-30.34"/>
</g>
<!-- Node26 -->
<g id="node26" class="node">
<title>Node26</title>
<g id="a_node26"><a xlink:title=" ">
<polygon fill="none" stroke="#bfbfbf" points="1157,-0.5 1157,-19.5 1228,-19.5 1228,-0.5 1157,-0.5"/>
<text text-anchor="middle" x="1192.5" y="-7.5" font-family="serif" font-size="10.00">type_traits</text>
</a>
</g>
</g>
<!-- Node24&#45;&gt;Node26 -->
<g id="edge47" class="edge">
<title>Node24&#45;&gt;Node26</title>
<path fill="none" stroke="midnightblue" d="M1105.21,-56.32C1121.81,-47.7 1147.5,-34.36 1166.72,-24.39"/>
<polygon fill="midnightblue" stroke="midnightblue" points="1168.57,-27.37 1175.83,-19.65 1165.34,-21.16 1168.57,-27.37"/>
</g>
</g>
</svg>
        <g id="navigator" transform="translate(0 0)" fill="#404254">
                <rect fill="#f2f5e9" fill-opacity="0.5" stroke="#606060" stroke-width=".5" x="0" y="0" width="60" height="60"/>
                <use id="zoomplus" xlink:href="#zoomPlus" x="17" y="9" onmousedown="handleZoom(evt,'in')"/>
                <use id="zoomminus" xlink:href="#zoomMin" x="42" y="9" onmousedown="handleZoom(evt,'out')"/>
                <use id="reset" xlink:href="#resetDef" x="30" y="36" onmousedown="handleReset()"/>
                <g id="arrowUp" xlink:href="#dirArrow" transform="translate(30 24)" onmousedown="handlePan(0,-1)">
                  <use xlink:href="#rim" fill="#404040">
                        <set attributeName="fill" to="#808080" begin="arrowUp.mouseover" end="arrowUp.mouseout"/>
                  </use>
                  <path fill="none" stroke="white" stroke-width="1.5" d="M0,-3.0v7 M-2.5,-0.5L0,-3.0L2.5,-0.5"/>
                </g>
                <g id="arrowRight" xlink:href="#dirArrow" transform="rotate(90) translate(36 -43)" onmousedown="handlePan(1,0)">
                  <use xlink:href="#rim" fill="#404040">
                        <set attributeName="fill" to="#808080" begin="arrowRight.mouseover" end="arrowRight.mouseout"/>
                  </use>
                  <path fill="none" stroke="white" stroke-width="1.5" d="M0,-3.0v7 M-2.5,-0.5L0,-3.0L2.5,-0.5"/>
                </g>
                <g id="arrowDown" xlink:href="#dirArrow" transform="rotate(180) translate(-30 -48)" onmousedown="handlePan(0,1)">
                  <use xlink:href="#rim" fill="#404040">
                        <set attributeName="fill" to="#808080" begin="arrowDown.mouseover" end="arrowDown.mouseout"/>
                  </use>
                  <path fill="none" stroke="white" stroke-width="1.5" d="M0,-3.0v7 M-2.5,-0.5L0,-3.0L2.5,-0.5"/>
                </g>
                <g id="arrowLeft" xlink:href="#dirArrow" transform="rotate(270) translate(-36 17)" onmousedown="handlePan(-1,0)">
                  <use xlink:href="#rim" fill="#404040">
                        <set attributeName="fill" to="#808080" begin="arrowLeft.mouseover" end="arrowLeft.mouseout"/>
                  </use>
                  <path fill="none" stroke="white" stroke-width="1.5" d="M0,-3.0v7 M-2.5,-0.5L0,-3.0L2.5,-0.5"/>
                </g>
        </g>
        <svg viewBox="0 0 15 15" width="100%" height="30px" preserveAspectRatio="xMaxYMin meet">
         <g id="arrow_out" transform="scale(0.3 0.3)">
          <a xlink:href="AnalyticalFunctionOptions_8hpp__incl_org.svg" target="_base">
           <rect id="button" ry="5" rx="5" y="6" x="6" height="38" width="38"
                fill="#f2f5e9" fill-opacity="0.5" stroke="#606060" stroke-width="1.0"/>
           <path id="arrow"
             d="M 11.500037,31.436501 C 11.940474,20.09759 22.043105,11.32322 32.158766,21.979434 L 37.068811,17.246167 C 37.068811,17.246167 37.088388,32 37.088388,32 L 22.160133,31.978069 C 22.160133,31.978069 26.997745,27.140456 26.997745,27.140456 C 18.528582,18.264221 13.291696,25.230495 11.500037,31.436501 z"
             style="fill:#404040;"/>
          </a>
         </g>
        </svg>
</svg>
