<?xml version="1.0" encoding="UTF-8" standalone="no"?>
<!DOCTYPE svg PUBLIC "-//W3C//DTD SVG 1.1//EN"
 "http://www.w3.org/Graphics/SVG/1.1/DTD/svg11.dtd">
<!-- Generated by graphviz version 2.43.0 (0)
 -->
<!-- Title: AnalyticalFunctions.hpp Pages: 1 -->
<!--zoomable 420 -->
<svg id="main" version="1.1" xmlns="http://www.w3.org/2000/svg" xmlns:xlink="http://www.w3.org/1999/xlink" xml:space="preserve" onload="init(evt)">
<style type="text/css"><![CDATA[
.edge:hover path { stroke: red; }
.edge:hover polygon { stroke: red; fill: red; }
]]></style>
<script type="text/javascript"><![CDATA[
var edges = document.getElementsByTagName('g');
if (edges && edges.length) {
  for (var i=0;i<edges.length;i++) {
    if (edges[i].id.substr(0,4)=='edge') {
      edges[i].setAttribute('class','edge');
    }
  }
}
]]></script>
        <defs>
                <circle id="rim" cx="0" cy="0" r="7"/>
                <circle id="rim2" cx="0" cy="0" r="3.5"/>
                <g id="zoomPlus">
                        <use xlink:href="#rim" fill="#404040">
                                <set attributeName="fill" to="#808080" begin="zoomplus.mouseover" end="zoomplus.mouseout"/>
                        </use>
                        <path d="M-4,0h8M0,-4v8" fill="none" stroke="white" stroke-width="1.5" pointer-events="none"/>
                </g>
                <g id="zoomMin">
                        <use xlink:href="#rim" fill="#404040">
                                <set attributeName="fill" to="#808080" begin="zoomminus.mouseover" end="zoomminus.mouseout"/>
                        </use>
                        <path d="M-4,0h8" fill="none" stroke="white" stroke-width="1.5" pointer-events="none"/>
                </g>
                <g id="dirArrow">
                        <path fill="none" stroke="white" stroke-width="1.5" d="M0,-3.0v7 M-2.5,-0.5L0,-3.0L2.5,-0.5"/>
                </g>
               <g id="resetDef">
                       <use xlink:href="#rim2" fill="#404040">
                               <set attributeName="fill" to="#808080" begin="reset.mouseover" end="reset.mouseout"/>
                       </use>
               </g>
        </defs>

<script type="text/javascript">
var viewWidth = 899;
var viewHeight = 420;
var sectionId = 'dynsection-1';
</script>
<script xlink:href="svgpan.js"/>
<svg id="graph" class="graph">
<g id="viewport">
<title>AnalyticalFunctions.hpp</title>
<!-- Node1 -->
<g id="node1" class="node">
<title>Node1</title>
<g id="a_node1"><a xlink:title="List of Analytical functions used by phase&#45;field models.">
<polygon fill="#bfbfbf" stroke="black" points="95,-392.5 95,-411.5 235,-411.5 235,-392.5 95,-392.5"/>
<text text-anchor="middle" x="165" y="-399.5" font-family="serif" font-size="10.00">AnalyticalFunctions.hpp</text>
</a>
</g>
</g>
<!-- Node2 -->
<g id="node2" class="node">
<title>Node2</title>
<g id="a_node2"><a xlink:href="OperatorBase_8hpp.html" target="_top" xlink:title="Base class for building Steady and TimeDependent PhaseFieldOperators.">
<polygon fill="none" stroke="black" points="48,-224.5 48,-243.5 158,-243.5 158,-224.5 48,-224.5"/>
<text text-anchor="middle" x="103" y="-231.5" font-family="serif" font-size="10.00">OperatorBase.hpp</text>
</a>
</g>
</g>
<!-- Node1&#45;&gt;Node2 -->
<g id="edge1" class="edge">
<title>Node1&#45;&gt;Node2</title>
<path fill="none" stroke="midnightblue" d="M158.05,-382.39C144.68,-346.59 115.83,-269.34 106.2,-243.57"/>
<polygon fill="midnightblue" stroke="midnightblue" points="154.89,-383.93 161.67,-392.08 161.45,-381.48 154.89,-383.93"/>
</g>
<!-- Node3 -->
<g id="node3" class="node">
<title>Node3</title>
<g id="a_node3"><a xlink:href="SteadyOperator_8hpp.html" target="_top" xlink:title="Steady Operator.">
<polygon fill="none" stroke="black" points="152,-168.5 152,-187.5 272,-187.5 272,-168.5 152,-168.5"/>
<text text-anchor="middle" x="212" y="-175.5" font-family="serif" font-size="10.00">SteadyOperator.hpp</text>
</a>
</g>
</g>
<!-- Node1&#45;&gt;Node3 -->
<g id="edge7" class="edge">
<title>Node1&#45;&gt;Node3</title>
<path fill="none" stroke="midnightblue" d="M168.96,-382.3C178.62,-336.64 203.14,-220.85 210.12,-187.88"/>
<polygon fill="midnightblue" stroke="midnightblue" points="165.49,-381.79 166.84,-392.3 172.34,-383.24 165.49,-381.79"/>
</g>
<!-- Node6 -->
<g id="node6" class="node">
<title>Node6</title>
<g id="a_node6"><a xlink:href="TransientOperator_8hpp.html" target="_top" xlink:title="Transient Operator.">
<polygon fill="none" stroke="black" points="0,-168.5 0,-187.5 134,-187.5 134,-168.5 0,-168.5"/>
<text text-anchor="middle" x="67" y="-175.5" font-family="serif" font-size="10.00">TransientOperator.hpp</text>
</a>
</g>
</g>
<!-- Node1&#45;&gt;Node6 -->
<g id="edge8" class="edge">
<title>Node1&#45;&gt;Node6</title>
<path fill="none" stroke="midnightblue" d="M146.14,-385.45C116.55,-359.68 60.42,-304.92 39,-244 31.74,-223.37 48.12,-200 58.77,-187.68"/>
<polygon fill="midnightblue" stroke="midnightblue" points="144.18,-388.38 154.06,-392.2 148.72,-383.05 144.18,-388.38"/>
</g>
<!-- Node7 -->
<g id="node7" class="node">
<title>Node7</title>
<g id="a_node7"><a xlink:href="Variable_8hpp.html" target="_top" xlink:title="Variable class used to build and manage variables of model.">
<polygon fill="none" stroke="black" points="383.5,-336.5 383.5,-355.5 464.5,-355.5 464.5,-336.5 383.5,-336.5"/>
<text text-anchor="middle" x="424" y="-343.5" font-family="serif" font-size="10.00">Variable.hpp</text>
</a>
</g>
</g>
<!-- Node1&#45;&gt;Node7 -->
<g id="edge9" class="edge">
<title>Node1&#45;&gt;Node7</title>
<path fill="none" stroke="midnightblue" d="M216.1,-390.35C265.05,-380.14 337.95,-364.94 383.15,-355.52"/>
<polygon fill="midnightblue" stroke="midnightblue" points="215.11,-386.98 206.04,-392.44 216.54,-393.83 215.11,-386.98"/>
</g>
<!-- Node2&#45;&gt;Node3 -->
<g id="edge2" class="edge">
<title>Node2&#45;&gt;Node3</title>
<path fill="none" stroke="midnightblue" d="M129.52,-219.86C149.73,-209.85 176.99,-196.35 194.53,-187.65"/>
<polygon fill="midnightblue" stroke="midnightblue" points="127.92,-216.75 120.51,-224.32 131.03,-223.02 127.92,-216.75"/>
</g>
<!-- Node2&#45;&gt;Node6 -->
<g id="edge5" class="edge">
<title>Node2&#45;&gt;Node6</title>
<path fill="none" stroke="midnightblue" d="M91.38,-215.57C85.18,-206.27 77.83,-195.25 72.83,-187.75"/>
<polygon fill="midnightblue" stroke="midnightblue" points="88.6,-217.7 97.06,-224.08 94.42,-213.82 88.6,-217.7"/>
</g>
<!-- Node4 -->
<g id="node4" class="node">
<title>Node4</title>
<g id="a_node4"><a xlink:href="ListOperators_8hpp.html" target="_top" xlink:title=" ">
<polygon fill="none" stroke="black" points="157,-112.5 157,-131.5 267,-131.5 267,-112.5 157,-112.5"/>
<text text-anchor="middle" x="212" y="-119.5" font-family="serif" font-size="10.00">ListOperators.hpp</text>
</a>
</g>
</g>
<!-- Node3&#45;&gt;Node4 -->
<g id="edge3" class="edge">
<title>Node3&#45;&gt;Node4</title>
<path fill="none" stroke="midnightblue" d="M212,-157.8C212,-148.91 212,-138.78 212,-131.75"/>
<polygon fill="midnightblue" stroke="midnightblue" points="208.5,-158.08 212,-168.08 215.5,-158.08 208.5,-158.08"/>
</g>
<!-- Node5 -->
<g id="node5" class="node">
<title>Node5</title>
<g id="a_node5"><a xlink:href="sloth_8hpp.html" target="_top" xlink:title="List of SLOTH header files.">
<polygon fill="none" stroke="black" points="687.5,-0.5 687.5,-19.5 752.5,-19.5 752.5,-0.5 687.5,-0.5"/>
<text text-anchor="middle" x="720" y="-7.5" font-family="serif" font-size="10.00">sloth.hpp</text>
</a>
</g>
</g>
<!-- Node4&#45;&gt;Node5 -->
<g id="edge4" class="edge">
<title>Node4&#45;&gt;Node5</title>
<path fill="none" stroke="midnightblue" d="M224.86,-104.22C237.74,-88.8 259.04,-66.76 283,-56 355.36,-23.51 598.62,-14.11 687.3,-11.73"/>
<polygon fill="midnightblue" stroke="midnightblue" points="221.83,-102.41 218.3,-112.4 227.29,-106.79 221.83,-102.41"/>
</g>
<!-- Node6&#45;&gt;Node4 -->
<g id="edge6" class="edge">
<title>Node6&#45;&gt;Node4</title>
<path fill="none" stroke="midnightblue" d="M99.48,-164.91C126.74,-154.75 164.99,-140.51 189.13,-131.52"/>
<polygon fill="midnightblue" stroke="midnightblue" points="98.13,-161.67 89.98,-168.44 100.57,-168.23 98.13,-161.67"/>
</g>
<!-- Node7&#45;&gt;Node5 -->
<g id="edge29" class="edge">
<title>Node7&#45;&gt;Node5</title>
<path fill="none" stroke="midnightblue" d="M474.75,-343.72C595.71,-339.28 891,-319.78 891,-235 891,-235 891,-235 891,-121 891,-55.87 802.18,-27.48 752.57,-16.71"/>
<polygon fill="midnightblue" stroke="midnightblue" points="474.5,-340.22 464.63,-344.07 474.74,-347.22 474.5,-340.22"/>
</g>
<!-- Node8 -->
<g id="node8" class="node">
<title>Node8</title>
<g id="a_node8"><a xlink:href="postprocessing_8hpp.html" target="_top" xlink:title="Post&#45;processing features.">
<polygon fill="none" stroke="black" points="452.5,-224.5 452.5,-243.5 569.5,-243.5 569.5,-224.5 452.5,-224.5"/>
<text text-anchor="middle" x="511" y="-231.5" font-family="serif" font-size="10.00">postprocessing.hpp</text>
</a>
</g>
</g>
<!-- Node7&#45;&gt;Node8 -->
<g id="edge10" class="edge">
<title>Node7&#45;&gt;Node8</title>
<path fill="none" stroke="midnightblue" d="M437.23,-328.27C456.04,-304.49 489.81,-261.79 504.2,-243.59"/>
<polygon fill="midnightblue" stroke="midnightblue" points="434.28,-326.35 430.83,-336.37 439.78,-330.7 434.28,-326.35"/>
</g>
<!-- Node9 -->
<g id="node9" class="node">
<title>Node9</title>
<g id="a_node9"><a xlink:href="MPIProblem_8hpp.html" target="_top" xlink:title="Class used to defined a MPI_Problem objet.">
<polygon fill="none" stroke="black" points="325,-112.5 325,-131.5 429,-131.5 429,-112.5 325,-112.5"/>
<text text-anchor="middle" x="377" y="-119.5" font-family="serif" font-size="10.00">MPIProblem.hpp</text>
</a>
</g>
</g>
<!-- Node7&#45;&gt;Node9 -->
<g id="edge26" class="edge">
<title>Node7&#45;&gt;Node9</title>
<path fill="none" stroke="midnightblue" d="M420.04,-326.3C410.38,-280.64 385.86,-164.85 378.88,-131.88"/>
<polygon fill="midnightblue" stroke="midnightblue" points="416.66,-327.24 422.16,-336.3 423.51,-325.79 416.66,-327.24"/>
</g>
<!-- Node11 -->
<g id="node11" class="node">
<title>Node11</title>
<g id="a_node11"><a xlink:href="Problem_8hpp.html" target="_top" xlink:title="Class used to defined a PDE Problem.">
<polygon fill="none" stroke="black" points="741.5,-112.5 741.5,-131.5 824.5,-131.5 824.5,-112.5 741.5,-112.5"/>
<text text-anchor="middle" x="783" y="-119.5" font-family="serif" font-size="10.00">Problem.hpp</text>
</a>
</g>
</g>
<!-- Node7&#45;&gt;Node11 -->
<g id="edge27" class="edge">
<title>Node7&#45;&gt;Node11</title>
<path fill="none" stroke="midnightblue" d="M446.75,-330.93C514.61,-288.97 714.35,-165.45 769.02,-131.64"/>
<polygon fill="midnightblue" stroke="midnightblue" points="444.74,-328.06 438.07,-336.3 448.42,-334.01 444.74,-328.06"/>
</g>
<!-- Node13 -->
<g id="node13" class="node">
<title>Node13</title>
<g id="a_node13"><a xlink:href="ProblemBase_8hpp.html" target="_top" xlink:title="Base class for building Problems.">
<polygon fill="none" stroke="black" points="457.5,-168.5 457.5,-187.5 564.5,-187.5 564.5,-168.5 457.5,-168.5"/>
<text text-anchor="middle" x="511" y="-175.5" font-family="serif" font-size="10.00">ProblemBase.hpp</text>
</a>
</g>
</g>
<!-- Node7&#45;&gt;Node13 -->
<g id="edge28" class="edge">
<title>Node7&#45;&gt;Node13</title>
<path fill="none" stroke="midnightblue" d="M422.7,-326.19C421.88,-300.91 423.72,-255.52 444,-224 454.92,-207.03 474.75,-194.91 490.02,-187.56"/>
<polygon fill="midnightblue" stroke="midnightblue" points="419.21,-326.45 423.21,-336.26 426.2,-326.1 419.21,-326.45"/>
</g>
<!-- Node16 -->
<g id="node16" class="node">
<title>Node16</title>
<g id="a_node16"><a xlink:href="Variables_8hpp.html" target="_top" xlink:title="Variables class used to build and manage variables.">
<polygon fill="none" stroke="black" points="238,-280.5 238,-299.5 324,-299.5 324,-280.5 238,-280.5"/>
<text text-anchor="middle" x="281" y="-287.5" font-family="serif" font-size="10.00">Variables.hpp</text>
</a>
</g>
</g>
<!-- Node7&#45;&gt;Node16 -->
<g id="edge30" class="edge">
<title>Node7&#45;&gt;Node16</title>
<path fill="none" stroke="midnightblue" d="M391.97,-332.91C365.09,-322.75 327.36,-308.51 303.55,-299.52"/>
<polygon fill="midnightblue" stroke="midnightblue" points="390.75,-336.19 401.34,-336.44 393.22,-329.64 390.75,-336.19"/>
</g>
<!-- Node8&#45;&gt;Node5 -->
<g id="edge25" class="edge">
<title>Node8&#45;&gt;Node5</title>
<path fill="none" stroke="midnightblue" d="M572.73,-222.62C657.52,-206.95 803.07,-174.52 834,-132 848.24,-112.43 828.9,-71.61 815,-56 798.61,-37.6 773.09,-26.1 752.62,-19.33"/>
<polygon fill="midnightblue" stroke="midnightblue" points="571.91,-219.21 562.7,-224.45 573.17,-226.1 571.91,-219.21"/>
</g>
<!-- Node8&#45;&gt;Node9 -->
<g id="edge11" class="edge">
<title>Node8&#45;&gt;Node9</title>
<path fill="none" stroke="midnightblue" d="M490.13,-218.69C477.91,-210.1 462.3,-198.78 449,-188 425.45,-168.91 399.42,-144.53 386.04,-131.74"/>
<polygon fill="midnightblue" stroke="midnightblue" points="488.15,-221.57 498.36,-224.41 492.15,-215.83 488.15,-221.57"/>
</g>
<!-- Node8&#45;&gt;Node11 -->
<g id="edge14" class="edge">
<title>Node8&#45;&gt;Node11</title>
<path fill="none" stroke="midnightblue" d="M541.7,-220.59C597.42,-198.05 713.88,-150.95 761.76,-131.59"/>
<polygon fill="midnightblue" stroke="midnightblue" points="540.3,-217.37 532.34,-224.37 542.93,-223.86 540.3,-217.37"/>
</g>
<!-- Node8&#45;&gt;Node13 -->
<g id="edge18" class="edge">
<title>Node8&#45;&gt;Node13</title>
<path fill="none" stroke="midnightblue" d="M511,-213.8C511,-204.91 511,-194.78 511,-187.75"/>
<polygon fill="midnightblue" stroke="midnightblue" points="507.5,-214.08 511,-224.08 514.5,-214.08 507.5,-214.08"/>
</g>
<!-- Node10 -->
<g id="node10" class="node">
<title>Node10</title>
<g id="a_node10"><a xlink:href="ListProblems_8hpp.html" target="_top" xlink:title=" ">
<polygon fill="none" stroke="black" points="604.5,-56.5 604.5,-75.5 711.5,-75.5 711.5,-56.5 604.5,-56.5"/>
<text text-anchor="middle" x="658" y="-63.5" font-family="serif" font-size="10.00">ListProblems.hpp</text>
</a>
</g>
</g>
<!-- Node9&#45;&gt;Node10 -->
<g id="edge12" class="edge">
<title>Node9&#45;&gt;Node10</title>
<path fill="none" stroke="midnightblue" d="M431.45,-110.54C484.55,-100.33 564.34,-85 613.68,-75.52"/>
<polygon fill="midnightblue" stroke="midnightblue" points="430.69,-107.12 421.53,-112.44 432.01,-113.99 430.69,-107.12"/>
</g>
<!-- Node10&#45;&gt;Node5 -->
<g id="edge13" class="edge">
<title>Node10&#45;&gt;Node5</title>
<path fill="none" stroke="midnightblue" d="M675.75,-49.54C686.81,-39.91 700.63,-27.87 709.86,-19.83"/>
<polygon fill="midnightblue" stroke="midnightblue" points="673.2,-47.12 667.96,-56.32 677.8,-52.4 673.2,-47.12"/>
</g>
<!-- Node11&#45;&gt;Node10 -->
<g id="edge15" class="edge">
<title>Node11&#45;&gt;Node10</title>
<path fill="none" stroke="midnightblue" d="M753.76,-108.37C730.35,-98.26 698.16,-84.35 677.71,-75.52"/>
<polygon fill="midnightblue" stroke="midnightblue" points="752.63,-111.69 763.19,-112.44 755.4,-105.26 752.63,-111.69"/>
</g>
<!-- Node12 -->
<g id="node12" class="node">
<title>Node12</title>
<g id="a_node12"><a xlink:href="Time_8hpp.html" target="_top" xlink:title="Main time loop.">
<polygon fill="none" stroke="black" points="740.5,-56.5 740.5,-75.5 805.5,-75.5 805.5,-56.5 740.5,-56.5"/>
<text text-anchor="middle" x="773" y="-63.5" font-family="serif" font-size="10.00">Time.hpp</text>
</a>
</g>
</g>
<!-- Node11&#45;&gt;Node12 -->
<g id="edge16" class="edge">
<title>Node11&#45;&gt;Node12</title>
<path fill="none" stroke="midnightblue" d="M779.5,-102.1C777.84,-93.14 775.94,-82.86 774.62,-75.75"/>
<polygon fill="midnightblue" stroke="midnightblue" points="776.09,-102.89 781.35,-112.08 782.97,-101.61 776.09,-102.89"/>
</g>
<!-- Node12&#45;&gt;Node5 -->
<g id="edge17" class="edge">
<title>Node12&#45;&gt;Node5</title>
<path fill="none" stroke="midnightblue" d="M757.02,-48.72C747.68,-39.2 736.25,-27.56 728.59,-19.75"/>
<polygon fill="midnightblue" stroke="midnightblue" points="754.75,-51.4 764.25,-56.08 759.74,-46.49 754.75,-51.4"/>
</g>
<!-- Node13&#45;&gt;Node9 -->
<g id="edge21" class="edge">
<title>Node13&#45;&gt;Node9</title>
<path fill="none" stroke="midnightblue" d="M480.32,-164.64C455.18,-154.5 420.25,-140.43 398.13,-131.52"/>
<polygon fill="midnightblue" stroke="midnightblue" points="479.18,-167.95 489.77,-168.44 481.8,-161.46 479.18,-167.95"/>
</g>
<!-- Node13&#45;&gt;Node11 -->
<g id="edge22" class="edge">
<title>Node13&#45;&gt;Node11</title>
<path fill="none" stroke="midnightblue" d="M564.11,-166.46C616,-156.15 693.92,-140.69 741.44,-131.25"/>
<polygon fill="midnightblue" stroke="midnightblue" points="563.23,-163.06 554.1,-168.44 564.59,-169.93 563.23,-163.06"/>
</g>
<!-- Node14 -->
<g id="node14" class="node">
<title>Node14</title>
<g id="a_node14"><a xlink:href="Calphad__problem_8hpp.html" target="_top" xlink:title="Class used to defined a Calphad_Problem objet.">
<polygon fill="none" stroke="black" points="592.5,-112.5 592.5,-131.5 723.5,-131.5 723.5,-112.5 592.5,-112.5"/>
<text text-anchor="middle" x="658" y="-119.5" font-family="serif" font-size="10.00">Calphad_problem.hpp</text>
</a>
</g>
</g>
<!-- Node13&#45;&gt;Node14 -->
<g id="edge19" class="edge">
<title>Node13&#45;&gt;Node14</title>
<path fill="none" stroke="midnightblue" d="M543.92,-164.91C571.56,-154.75 610.34,-140.51 634.82,-131.52"/>
<polygon fill="midnightblue" stroke="midnightblue" points="542.47,-161.71 534.29,-168.44 544.89,-168.28 542.47,-161.71"/>
</g>
<!-- Node15 -->
<g id="node15" class="node">
<title>Node15</title>
<g id="a_node15"><a xlink:href="PropertyProblem_8hpp.html" target="_top" xlink:title="Class used to compute primary variables as a function of auxialiary variables.">
<polygon fill="none" stroke="black" points="447.5,-112.5 447.5,-131.5 574.5,-131.5 574.5,-112.5 447.5,-112.5"/>
<text text-anchor="middle" x="511" y="-119.5" font-family="serif" font-size="10.00">PropertyProblem.hpp</text>
</a>
</g>
</g>
<!-- Node13&#45;&gt;Node15 -->
<g id="edge23" class="edge">
<title>Node13&#45;&gt;Node15</title>
<path fill="none" stroke="midnightblue" d="M511,-157.8C511,-148.91 511,-138.78 511,-131.75"/>
<polygon fill="midnightblue" stroke="midnightblue" points="507.5,-158.08 511,-168.08 514.5,-158.08 507.5,-158.08"/>
</g>
<!-- Node14&#45;&gt;Node10 -->
<g id="edge20" class="edge">
<title>Node14&#45;&gt;Node10</title>
<path fill="none" stroke="midnightblue" d="M658,-101.8C658,-92.91 658,-82.78 658,-75.75"/>
<polygon fill="midnightblue" stroke="midnightblue" points="654.5,-102.08 658,-112.08 661.5,-102.08 654.5,-102.08"/>
</g>
<!-- Node15&#45;&gt;Node10 -->
<g id="edge24" class="edge">
<title>Node15&#45;&gt;Node10</title>
<path fill="none" stroke="midnightblue" d="M543.92,-108.91C571.56,-98.75 610.34,-84.51 634.82,-75.52"/>
<polygon fill="midnightblue" stroke="midnightblue" points="542.47,-105.71 534.29,-112.44 544.89,-112.28 542.47,-105.71"/>
</g>
<!-- Node16&#45;&gt;Node2 -->
<g id="edge31" class="edge">
<title>Node16&#45;&gt;Node2</title>
<path fill="none" stroke="midnightblue" d="M242.88,-277.44C209.32,-267.26 161.23,-252.66 131.07,-243.52"/>
<polygon fill="midnightblue" stroke="midnightblue" points="242.21,-280.89 252.8,-280.44 244.24,-274.19 242.21,-280.89"/>
</g>
<!-- Node16&#45;&gt;Node3 -->
<g id="edge32" class="edge">
<title>Node16&#45;&gt;Node3</title>
<path fill="none" stroke="midnightblue" d="M270.11,-271.64C255.12,-247.74 228.7,-205.63 217.39,-187.59"/>
<polygon fill="midnightblue" stroke="midnightblue" points="267.31,-273.76 275.59,-280.37 273.24,-270.04 267.31,-273.76"/>
</g>
<!-- Node16&#45;&gt;Node5 -->
<g id="edge35" class="edge">
<title>Node16&#45;&gt;Node5</title>
<path fill="none" stroke="midnightblue" d="M278.75,-270.13C275.6,-234.24 274.31,-155.82 316,-112 367.64,-57.72 600.45,-25.13 687.25,-14.69"/>
<polygon fill="midnightblue" stroke="midnightblue" points="275.28,-270.6 279.79,-280.19 282.24,-269.89 275.28,-270.6"/>
</g>
<!-- Node16&#45;&gt;Node6 -->
<g id="edge33" class="edge">
<title>Node16&#45;&gt;Node6</title>
<path fill="none" stroke="midnightblue" d="M258.24,-275.17C235.48,-261.54 199.3,-240.43 167,-224 140.02,-210.28 107.98,-196.24 87.57,-187.58"/>
<polygon fill="midnightblue" stroke="midnightblue" points="256.47,-278.19 266.84,-280.35 260.08,-272.19 256.47,-278.19"/>
</g>
<!-- Node16&#45;&gt;Node8 -->
<g id="edge34" class="edge">
<title>Node16&#45;&gt;Node8</title>
<path fill="none" stroke="midnightblue" d="M327.2,-278.15C370.66,-267.95 434.84,-252.88 474.73,-243.52"/>
<polygon fill="midnightblue" stroke="midnightblue" points="326.38,-274.75 317.44,-280.44 327.98,-281.57 326.38,-274.75"/>
</g>
</g>
</svg>
        <g id="navigator" transform="translate(0 0)" fill="#404254">
                <rect fill="#f2f5e9" fill-opacity="0.5" stroke="#606060" stroke-width=".5" x="0" y="0" width="60" height="60"/>
                <use id="zoomplus" xlink:href="#zoomPlus" x="17" y="9" onmousedown="handleZoom(evt,'in')"/>
                <use id="zoomminus" xlink:href="#zoomMin" x="42" y="9" onmousedown="handleZoom(evt,'out')"/>
                <use id="reset" xlink:href="#resetDef" x="30" y="36" onmousedown="handleReset()"/>
                <g id="arrowUp" xlink:href="#dirArrow" transform="translate(30 24)" onmousedown="handlePan(0,-1)">
                  <use xlink:href="#rim" fill="#404040">
                        <set attributeName="fill" to="#808080" begin="arrowUp.mouseover" end="arrowUp.mouseout"/>
                  </use>
                  <path fill="none" stroke="white" stroke-width="1.5" d="M0,-3.0v7 M-2.5,-0.5L0,-3.0L2.5,-0.5"/>
                </g>
                <g id="arrowRight" xlink:href="#dirArrow" transform="rotate(90) translate(36 -43)" onmousedown="handlePan(1,0)">
                  <use xlink:href="#rim" fill="#404040">
                        <set attributeName="fill" to="#808080" begin="arrowRight.mouseover" end="arrowRight.mouseout"/>
                  </use>
                  <path fill="none" stroke="white" stroke-width="1.5" d="M0,-3.0v7 M-2.5,-0.5L0,-3.0L2.5,-0.5"/>
                </g>
                <g id="arrowDown" xlink:href="#dirArrow" transform="rotate(180) translate(-30 -48)" onmousedown="handlePan(0,1)">
                  <use xlink:href="#rim" fill="#404040">
                        <set attributeName="fill" to="#808080" begin="arrowDown.mouseover" end="arrowDown.mouseout"/>
                  </use>
                  <path fill="none" stroke="white" stroke-width="1.5" d="M0,-3.0v7 M-2.5,-0.5L0,-3.0L2.5,-0.5"/>
                </g>
                <g id="arrowLeft" xlink:href="#dirArrow" transform="rotate(270) translate(-36 17)" onmousedown="handlePan(-1,0)">
                  <use xlink:href="#rim" fill="#404040">
                        <set attributeName="fill" to="#808080" begin="arrowLeft.mouseover" end="arrowLeft.mouseout"/>
                  </use>
                  <path fill="none" stroke="white" stroke-width="1.5" d="M0,-3.0v7 M-2.5,-0.5L0,-3.0L2.5,-0.5"/>
                </g>
        </g>
        <svg viewBox="0 0 15 15" width="100%" height="30px" preserveAspectRatio="xMaxYMin meet">
         <g id="arrow_out" transform="scale(0.3 0.3)">
          <a xlink:href="AnalyticalFunctions_8hpp__dep__incl_org.svg" target="_base">
           <rect id="button" ry="5" rx="5" y="6" x="6" height="38" width="38"
                fill="#f2f5e9" fill-opacity="0.5" stroke="#606060" stroke-width="1.0"/>
           <path id="arrow"
             d="M 11.500037,31.436501 C 11.940474,20.09759 22.043105,11.32322 32.158766,21.979434 L 37.068811,17.246167 C 37.068811,17.246167 37.088388,32 37.088388,32 L 22.160133,31.978069 C 22.160133,31.978069 26.997745,27.140456 26.997745,27.140456 C 18.528582,18.264221 13.291696,25.230495 11.500037,31.436501 z"
             style="fill:#404040;"/>
          </a>
         </g>
        </svg>
</svg>
