<?xml version="1.0" encoding="UTF-8" standalone="no"?>
<!DOCTYPE svg PUBLIC "-//W3C//DTD SVG 1.1//EN"
 "http://www.w3.org/Graphics/SVG/1.1/DTD/svg11.dtd">
<!-- Generated by graphviz version 2.43.0 (0)
 -->
<!-- Title: AxiCylindricalCoefficient.hpp Pages: 1 -->
<svg width="308pt" height="140pt"
 viewBox="0.00 0.00 308.00 140.00" xmlns="http://www.w3.org/2000/svg" xmlns:xlink="http://www.w3.org/1999/xlink">
<g id="graph0" class="graph" transform="scale(1 1) rotate(0) translate(4 136)">
<title>AxiCylindricalCoefficient.hpp</title>
<!-- Node1 -->
<g id="node1" class="node">
<title>Node1</title>
<g id="a_node1"><a xlink:title="Built a MFEM Coefficient for AxiCylindricalCoefficient.">
<polygon fill="#bfbfbf" stroke="black" points="55.5,-112.5 55.5,-131.5 220.5,-131.5 220.5,-112.5 55.5,-112.5"/>
<text text-anchor="middle" x="138" y="-119.5" font-family="serif" font-size="10.00">AxiCylindricalCoefficient.hpp</text>
</a>
</g>
</g>
<!-- Node2 -->
<g id="node2" class="node">
<title>Node2</title>
<g id="a_node2"><a xlink:href="ListCoefficients_8hpp.html" target="_top" xlink:title="List of header files contained in the Coefficients directory.">
<polygon fill="none" stroke="black" points="0,-56.5 0,-75.5 118,-75.5 118,-56.5 0,-56.5"/>
<text text-anchor="middle" x="59" y="-63.5" font-family="serif" font-size="10.00">ListCoefficients.hpp</text>
</a>
</g>
</g>
<!-- Node1&#45;&gt;Node2 -->
<g id="edge1" class="edge">
<title>Node1&#45;&gt;Node2</title>
<path fill="none" stroke="midnightblue" d="M116.97,-106.62C102.53,-96.76 83.86,-83.99 71.66,-75.65"/>
<polygon fill="midnightblue" stroke="midnightblue" points="115.08,-109.57 125.31,-112.32 119.03,-103.79 115.08,-109.57"/>
</g>
<!-- Node4 -->
<g id="node4" class="node">
<title>Node4</title>
<g id="a_node4"><a xlink:href="AxiCylindricalCoefficient_8cpp.html" target="_top" xlink:title="Built a MFEM Coefficient for AxiCylindricalCoefficient.">
<polygon fill="none" stroke="black" points="136,-56.5 136,-75.5 300,-75.5 300,-56.5 136,-56.5"/>
<text text-anchor="middle" x="218" y="-63.5" font-family="serif" font-size="10.00">AxiCylindricalCoefficient.cpp</text>
</a>
</g>
</g>
<!-- Node1&#45;&gt;Node4 -->
<g id="edge3" class="edge">
<title>Node1&#45;&gt;Node4</title>
<path fill="none" stroke="midnightblue" d="M159.3,-106.62C173.92,-96.76 192.83,-83.99 205.18,-75.65"/>
<polygon fill="midnightblue" stroke="midnightblue" points="157.18,-103.83 150.85,-112.32 161.1,-109.63 157.18,-103.83"/>
</g>
<!-- Node3 -->
<g id="node3" class="node">
<title>Node3</title>
<g id="a_node3"><a xlink:href="sloth_8hpp.html" target="_top" xlink:title="List of SLOTH header files.">
<polygon fill="none" stroke="black" points="26.5,-0.5 26.5,-19.5 91.5,-19.5 91.5,-0.5 26.5,-0.5"/>
<text text-anchor="middle" x="59" y="-7.5" font-family="serif" font-size="10.00">sloth.hpp</text>
</a>
</g>
</g>
<!-- Node2&#45;&gt;Node3 -->
<g id="edge2" class="edge">
<title>Node2&#45;&gt;Node3</title>
<path fill="none" stroke="midnightblue" d="M59,-45.8C59,-36.91 59,-26.78 59,-19.75"/>
<polygon fill="midnightblue" stroke="midnightblue" points="55.5,-46.08 59,-56.08 62.5,-46.08 55.5,-46.08"/>
</g>
</g>
</svg>
