<?xml version="1.0" encoding="UTF-8" standalone="no"?>
<!DOCTYPE svg PUBLIC "-//W3C//DTD SVG 1.1//EN"
 "http://www.w3.org/Graphics/SVG/1.1/DTD/svg11.dtd">
<!-- Generated by graphviz version 2.43.0 (0)
 -->
<!-- Title: BoundaryConditions.hpp Pages: 1 -->
<svg width="887pt" height="420pt"
 viewBox="0.00 0.00 887.00 420.00" xmlns="http://www.w3.org/2000/svg" xmlns:xlink="http://www.w3.org/1999/xlink">
<g id="graph0" class="graph" transform="scale(1 1) rotate(0) translate(4 416)">
<title>BoundaryConditions.hpp</title>
<!-- Node1 -->
<g id="node1" class="node">
<title>Node1</title>
<g id="a_node1"><a xlink:title="BoundaryConditions class used to build and manage boundary conditions.">
<polygon fill="#bfbfbf" stroke="black" points="519.5,-392.5 519.5,-411.5 664.5,-411.5 664.5,-392.5 519.5,-392.5"/>
<text text-anchor="middle" x="592" y="-399.5" font-family="serif" font-size="10.00">BoundaryConditions.hpp</text>
</a>
</g>
</g>
<!-- Node2 -->
<g id="node2" class="node">
<title>Node2</title>
<g id="a_node2"><a xlink:href="OperatorBase_8hpp.html" target="_top" xlink:title="Base class for building Steady and TimeDependent PhaseFieldOperators.">
<polygon fill="none" stroke="black" points="617,-224.5 617,-243.5 727,-243.5 727,-224.5 617,-224.5"/>
<text text-anchor="middle" x="672" y="-231.5" font-family="serif" font-size="10.00">OperatorBase.hpp</text>
</a>
</g>
</g>
<!-- Node1&#45;&gt;Node2 -->
<g id="edge1" class="edge">
<title>Node1&#45;&gt;Node2</title>
<path fill="none" stroke="midnightblue" d="M600.74,-382.86C617.9,-347.25 655.4,-269.45 667.87,-243.57"/>
<polygon fill="midnightblue" stroke="midnightblue" points="597.49,-381.55 596.3,-392.08 603.8,-384.59 597.49,-381.55"/>
</g>
<!-- Node7 -->
<g id="node7" class="node">
<title>Node7</title>
<g id="a_node7"><a xlink:href="Variable_8hpp.html" target="_top" xlink:title="Variable class used to build and manage variables of model.">
<polygon fill="none" stroke="black" points="472.5,-336.5 472.5,-355.5 553.5,-355.5 553.5,-336.5 472.5,-336.5"/>
<text text-anchor="middle" x="513" y="-343.5" font-family="serif" font-size="10.00">Variable.hpp</text>
</a>
</g>
</g>
<!-- Node1&#45;&gt;Node7 -->
<g id="edge7" class="edge">
<title>Node1&#45;&gt;Node7</title>
<path fill="none" stroke="midnightblue" d="M570.97,-386.62C556.53,-376.76 537.86,-363.99 525.66,-355.65"/>
<polygon fill="midnightblue" stroke="midnightblue" points="569.08,-389.57 579.31,-392.32 573.03,-383.79 569.08,-389.57"/>
</g>
<!-- Node3 -->
<g id="node3" class="node">
<title>Node3</title>
<g id="a_node3"><a xlink:href="SteadyOperator_8hpp.html" target="_top" xlink:title="Steady Operator.">
<polygon fill="none" stroke="black" points="579,-168.5 579,-187.5 699,-187.5 699,-168.5 579,-168.5"/>
<text text-anchor="middle" x="639" y="-175.5" font-family="serif" font-size="10.00">SteadyOperator.hpp</text>
</a>
</g>
</g>
<!-- Node2&#45;&gt;Node3 -->
<g id="edge2" class="edge">
<title>Node2&#45;&gt;Node3</title>
<path fill="none" stroke="midnightblue" d="M661.17,-215.27C655.53,-206.05 648.88,-195.17 644.35,-187.75"/>
<polygon fill="midnightblue" stroke="midnightblue" points="658.35,-217.38 666.55,-224.08 664.32,-213.73 658.35,-217.38"/>
</g>
<!-- Node6 -->
<g id="node6" class="node">
<title>Node6</title>
<g id="a_node6"><a xlink:href="TransientOperator_8hpp.html" target="_top" xlink:title="Transient Operator.">
<polygon fill="none" stroke="black" points="717,-168.5 717,-187.5 851,-187.5 851,-168.5 717,-168.5"/>
<text text-anchor="middle" x="784" y="-175.5" font-family="serif" font-size="10.00">TransientOperator.hpp</text>
</a>
</g>
</g>
<!-- Node2&#45;&gt;Node6 -->
<g id="edge5" class="edge">
<title>Node2&#45;&gt;Node6</title>
<path fill="none" stroke="midnightblue" d="M699.25,-219.86C720.02,-209.85 748.02,-196.35 766.05,-187.65"/>
<polygon fill="midnightblue" stroke="midnightblue" points="697.48,-216.83 689.99,-224.32 700.52,-223.13 697.48,-216.83"/>
</g>
<!-- Node4 -->
<g id="node4" class="node">
<title>Node4</title>
<g id="a_node4"><a xlink:href="ListOperators_8hpp.html" target="_top" xlink:title=" ">
<polygon fill="none" stroke="black" points="595,-112.5 595,-131.5 705,-131.5 705,-112.5 595,-112.5"/>
<text text-anchor="middle" x="650" y="-119.5" font-family="serif" font-size="10.00">ListOperators.hpp</text>
</a>
</g>
</g>
<!-- Node3&#45;&gt;Node4 -->
<g id="edge3" class="edge">
<title>Node3&#45;&gt;Node4</title>
<path fill="none" stroke="midnightblue" d="M642.85,-158.1C644.68,-149.14 646.77,-138.86 648.22,-131.75"/>
<polygon fill="midnightblue" stroke="midnightblue" points="639.38,-157.59 640.82,-168.08 646.24,-158.98 639.38,-157.59"/>
</g>
<!-- Node5 -->
<g id="node5" class="node">
<title>Node5</title>
<g id="a_node5"><a xlink:href="sloth_8hpp.html" target="_top" xlink:title="List of SLOTH header files.">
<polygon fill="none" stroke="black" points="503.5,-0.5 503.5,-19.5 568.5,-19.5 568.5,-0.5 503.5,-0.5"/>
<text text-anchor="middle" x="536" y="-7.5" font-family="serif" font-size="10.00">sloth.hpp</text>
</a>
</g>
</g>
<!-- Node4&#45;&gt;Node5 -->
<g id="edge4" class="edge">
<title>Node4&#45;&gt;Node5</title>
<path fill="none" stroke="midnightblue" d="M633.63,-105.21C609.2,-81.63 564.01,-38.03 544.9,-19.59"/>
<polygon fill="midnightblue" stroke="midnightblue" points="631.43,-107.94 641.05,-112.37 636.29,-102.91 631.43,-107.94"/>
</g>
<!-- Node6&#45;&gt;Node4 -->
<g id="edge6" class="edge">
<title>Node6&#45;&gt;Node4</title>
<path fill="none" stroke="midnightblue" d="M753.32,-164.64C728.18,-154.5 693.25,-140.43 671.13,-131.52"/>
<polygon fill="midnightblue" stroke="midnightblue" points="752.18,-167.95 762.77,-168.44 754.8,-161.46 752.18,-167.95"/>
</g>
<!-- Node7&#45;&gt;Node5 -->
<g id="edge27" class="edge">
<title>Node7&#45;&gt;Node5</title>
<path fill="none" stroke="midnightblue" d="M563.8,-340.43C664.32,-329.98 879,-300.04 879,-235 879,-235 879,-235 879,-121 879,-56.2 654.2,-24.22 568.58,-14.4"/>
<polygon fill="midnightblue" stroke="midnightblue" points="563.16,-336.98 553.57,-341.47 563.87,-343.94 563.16,-336.98"/>
</g>
<!-- Node8 -->
<g id="node8" class="node">
<title>Node8</title>
<g id="a_node8"><a xlink:href="postprocessing_8hpp.html" target="_top" xlink:title="Post&#45;processing features.">
<polygon fill="none" stroke="black" points="367.5,-224.5 367.5,-243.5 484.5,-243.5 484.5,-224.5 367.5,-224.5"/>
<text text-anchor="middle" x="426" y="-231.5" font-family="serif" font-size="10.00">postprocessing.hpp</text>
</a>
</g>
</g>
<!-- Node7&#45;&gt;Node8 -->
<g id="edge8" class="edge">
<title>Node7&#45;&gt;Node8</title>
<path fill="none" stroke="midnightblue" d="M499.77,-328.27C480.96,-304.49 447.19,-261.79 432.8,-243.59"/>
<polygon fill="midnightblue" stroke="midnightblue" points="497.22,-330.7 506.17,-336.37 502.72,-326.35 497.22,-330.7"/>
</g>
<!-- Node9 -->
<g id="node9" class="node">
<title>Node9</title>
<g id="a_node9"><a xlink:href="MPIProblem_8hpp.html" target="_top" xlink:title="Class used to defined a MPI_Problem objet.">
<polygon fill="none" stroke="black" points="0,-112.5 0,-131.5 104,-131.5 104,-112.5 0,-112.5"/>
<text text-anchor="middle" x="52" y="-119.5" font-family="serif" font-size="10.00">MPIProblem.hpp</text>
</a>
</g>
</g>
<!-- Node7&#45;&gt;Node9 -->
<g id="edge24" class="edge">
<title>Node7&#45;&gt;Node9</title>
<path fill="none" stroke="midnightblue" d="M477.89,-333.09C453.73,-324.58 421.05,-312.48 393,-300 263.51,-242.36 114.03,-158.45 66.97,-131.6"/>
<polygon fill="midnightblue" stroke="midnightblue" points="476.77,-336.4 487.36,-336.39 479.07,-329.79 476.77,-336.4"/>
</g>
<!-- Node11 -->
<g id="node11" class="node">
<title>Node11</title>
<g id="a_node11"><a xlink:href="Problem_8hpp.html" target="_top" xlink:title="Class used to defined a PDE Problem.">
<polygon fill="none" stroke="black" points="455.5,-112.5 455.5,-131.5 538.5,-131.5 538.5,-112.5 455.5,-112.5"/>
<text text-anchor="middle" x="497" y="-119.5" font-family="serif" font-size="10.00">Problem.hpp</text>
</a>
</g>
</g>
<!-- Node7&#45;&gt;Node11 -->
<g id="edge25" class="edge">
<title>Node7&#45;&gt;Node11</title>
<path fill="none" stroke="midnightblue" d="M511.65,-326.3C508.36,-280.64 500.02,-164.85 497.64,-131.88"/>
<polygon fill="midnightblue" stroke="midnightblue" points="508.16,-326.57 512.37,-336.3 515.14,-326.07 508.16,-326.57"/>
</g>
<!-- Node13 -->
<g id="node13" class="node">
<title>Node13</title>
<g id="a_node13"><a xlink:href="ProblemBase_8hpp.html" target="_top" xlink:title="Base class for building Problems.">
<polygon fill="none" stroke="black" points="281.5,-168.5 281.5,-187.5 388.5,-187.5 388.5,-168.5 281.5,-168.5"/>
<text text-anchor="middle" x="335" y="-175.5" font-family="serif" font-size="10.00">ProblemBase.hpp</text>
</a>
</g>
</g>
<!-- Node7&#45;&gt;Node13 -->
<g id="edge26" class="edge">
<title>Node7&#45;&gt;Node13</title>
<path fill="none" stroke="midnightblue" d="M482.31,-332.36C447.51,-316.55 391.31,-286.34 358,-244 344.53,-226.88 338.59,-201.25 336.28,-187.86"/>
<polygon fill="midnightblue" stroke="midnightblue" points="480.95,-335.59 491.52,-336.43 483.79,-329.18 480.95,-335.59"/>
</g>
<!-- Node16 -->
<g id="node16" class="node">
<title>Node16</title>
<g id="a_node16"><a xlink:href="Variables_8hpp.html" target="_top" xlink:title="Variables class used to build and manage variables.">
<polygon fill="none" stroke="black" points="544,-280.5 544,-299.5 630,-299.5 630,-280.5 544,-280.5"/>
<text text-anchor="middle" x="587" y="-287.5" font-family="serif" font-size="10.00">Variables.hpp</text>
</a>
</g>
</g>
<!-- Node7&#45;&gt;Node16 -->
<g id="edge28" class="edge">
<title>Node7&#45;&gt;Node16</title>
<path fill="none" stroke="midnightblue" d="M533.03,-330.38C546.41,-320.62 563.56,-308.11 574.89,-299.83"/>
<polygon fill="midnightblue" stroke="midnightblue" points="530.9,-327.6 524.89,-336.32 535.03,-333.26 530.9,-327.6"/>
</g>
<!-- Node8&#45;&gt;Node5 -->
<g id="edge23" class="edge">
<title>Node8&#45;&gt;Node5</title>
<path fill="none" stroke="midnightblue" d="M424.46,-214.06C422.64,-179.22 423.52,-104.16 459,-56 471.86,-38.55 493.68,-26.73 510.82,-19.6"/>
<polygon fill="midnightblue" stroke="midnightblue" points="420.98,-214.49 425.14,-224.23 427.97,-214.02 420.98,-214.49"/>
</g>
<!-- Node8&#45;&gt;Node9 -->
<g id="edge9" class="edge">
<title>Node8&#45;&gt;Node9</title>
<path fill="none" stroke="midnightblue" d="M387.15,-221.68C356.01,-212.6 311.19,-199.51 272,-188 203.41,-167.85 122.85,-144 80.82,-131.55"/>
<polygon fill="midnightblue" stroke="midnightblue" points="386.18,-225.04 396.76,-224.48 388.14,-218.32 386.18,-225.04"/>
</g>
<!-- Node8&#45;&gt;Node11 -->
<g id="edge12" class="edge">
<title>Node8&#45;&gt;Node11</title>
<path fill="none" stroke="midnightblue" d="M437,-215.96C452.39,-192.12 479.76,-149.71 491.45,-131.59"/>
<polygon fill="midnightblue" stroke="midnightblue" points="434.05,-214.07 431.57,-224.37 439.93,-217.86 434.05,-214.07"/>
</g>
<!-- Node8&#45;&gt;Node13 -->
<g id="edge16" class="edge">
<title>Node8&#45;&gt;Node13</title>
<path fill="none" stroke="midnightblue" d="M402.71,-219.18C385.96,-209.24 363.9,-196.15 349.58,-187.65"/>
<polygon fill="midnightblue" stroke="midnightblue" points="400.99,-222.23 411.38,-224.32 404.57,-216.21 400.99,-222.23"/>
</g>
<!-- Node10 -->
<g id="node10" class="node">
<title>Node10</title>
<g id="a_node10"><a xlink:href="ListProblems_8hpp.html" target="_top" xlink:title=" ">
<polygon fill="none" stroke="black" points="279.5,-56.5 279.5,-75.5 386.5,-75.5 386.5,-56.5 279.5,-56.5"/>
<text text-anchor="middle" x="333" y="-63.5" font-family="serif" font-size="10.00">ListProblems.hpp</text>
</a>
</g>
</g>
<!-- Node9&#45;&gt;Node10 -->
<g id="edge10" class="edge">
<title>Node9&#45;&gt;Node10</title>
<path fill="none" stroke="midnightblue" d="M106.45,-110.54C159.55,-100.33 239.34,-85 288.68,-75.52"/>
<polygon fill="midnightblue" stroke="midnightblue" points="105.69,-107.12 96.53,-112.44 107.01,-113.99 105.69,-107.12"/>
</g>
<!-- Node10&#45;&gt;Node5 -->
<g id="edge11" class="edge">
<title>Node10&#45;&gt;Node5</title>
<path fill="none" stroke="midnightblue" d="M374.99,-53.83C413.32,-43.63 469.15,-28.78 503.98,-19.52"/>
<polygon fill="midnightblue" stroke="midnightblue" points="373.93,-50.49 365.17,-56.44 375.73,-57.26 373.93,-50.49"/>
</g>
<!-- Node11&#45;&gt;Node10 -->
<g id="edge13" class="edge">
<title>Node11&#45;&gt;Node10</title>
<path fill="none" stroke="midnightblue" d="M461.48,-109.3C430.58,-99.13 386.53,-84.62 358.86,-75.52"/>
<polygon fill="midnightblue" stroke="midnightblue" points="460.42,-112.64 471.01,-112.44 462.61,-105.99 460.42,-112.64"/>
</g>
<!-- Node12 -->
<g id="node12" class="node">
<title>Node12</title>
<g id="a_node12"><a xlink:href="Time_8hpp.html" target="_top" xlink:title="Main time loop.">
<polygon fill="none" stroke="black" points="468.5,-56.5 468.5,-75.5 533.5,-75.5 533.5,-56.5 468.5,-56.5"/>
<text text-anchor="middle" x="501" y="-63.5" font-family="serif" font-size="10.00">Time.hpp</text>
</a>
</g>
</g>
<!-- Node11&#45;&gt;Node12 -->
<g id="edge14" class="edge">
<title>Node11&#45;&gt;Node12</title>
<path fill="none" stroke="midnightblue" d="M498.4,-102.1C499.06,-93.14 499.83,-82.86 500.35,-75.75"/>
<polygon fill="midnightblue" stroke="midnightblue" points="494.91,-101.85 497.66,-112.08 501.89,-102.37 494.91,-101.85"/>
</g>
<!-- Node12&#45;&gt;Node5 -->
<g id="edge15" class="edge">
<title>Node12&#45;&gt;Node5</title>
<path fill="none" stroke="midnightblue" d="M512.3,-47.57C518.32,-38.27 525.47,-27.25 530.33,-19.75"/>
<polygon fill="midnightblue" stroke="midnightblue" points="509.28,-45.79 506.78,-56.08 515.16,-49.6 509.28,-45.79"/>
</g>
<!-- Node13&#45;&gt;Node9 -->
<g id="edge19" class="edge">
<title>Node13&#45;&gt;Node9</title>
<path fill="none" stroke="midnightblue" d="M280.17,-166.54C226.68,-156.33 146.33,-141 96.63,-131.52"/>
<polygon fill="midnightblue" stroke="midnightblue" points="279.68,-170.01 290.16,-168.44 280.99,-163.13 279.68,-170.01"/>
</g>
<!-- Node13&#45;&gt;Node11 -->
<g id="edge20" class="edge">
<title>Node13&#45;&gt;Node11</title>
<path fill="none" stroke="midnightblue" d="M370.48,-165.17C400.99,-155 444.24,-140.59 471.45,-131.52"/>
<polygon fill="midnightblue" stroke="midnightblue" points="369.05,-161.96 360.67,-168.44 371.26,-168.6 369.05,-161.96"/>
</g>
<!-- Node14 -->
<g id="node14" class="node">
<title>Node14</title>
<g id="a_node14"><a xlink:href="Calphad__problem_8hpp.html" target="_top" xlink:title="Class used to defined a Calphad_Problem objet.">
<polygon fill="none" stroke="black" points="267.5,-112.5 267.5,-131.5 398.5,-131.5 398.5,-112.5 267.5,-112.5"/>
<text text-anchor="middle" x="333" y="-119.5" font-family="serif" font-size="10.00">Calphad_problem.hpp</text>
</a>
</g>
</g>
<!-- Node13&#45;&gt;Node14 -->
<g id="edge17" class="edge">
<title>Node13&#45;&gt;Node14</title>
<path fill="none" stroke="midnightblue" d="M334.29,-157.8C333.96,-148.91 333.58,-138.78 333.32,-131.75"/>
<polygon fill="midnightblue" stroke="midnightblue" points="330.8,-158.22 334.67,-168.08 337.8,-157.96 330.8,-158.22"/>
</g>
<!-- Node15 -->
<g id="node15" class="node">
<title>Node15</title>
<g id="a_node15"><a xlink:href="PropertyProblem_8hpp.html" target="_top" xlink:title="Class used to compute primary variables as a function of auxialiary variables.">
<polygon fill="none" stroke="black" points="122.5,-112.5 122.5,-131.5 249.5,-131.5 249.5,-112.5 122.5,-112.5"/>
<text text-anchor="middle" x="186" y="-119.5" font-family="serif" font-size="10.00">PropertyProblem.hpp</text>
</a>
</g>
</g>
<!-- Node13&#45;&gt;Node15 -->
<g id="edge21" class="edge">
<title>Node13&#45;&gt;Node15</title>
<path fill="none" stroke="midnightblue" d="M301.63,-164.91C273.62,-154.75 234.3,-140.51 209.5,-131.52"/>
<polygon fill="midnightblue" stroke="midnightblue" points="300.8,-168.33 311.39,-168.44 303.18,-161.75 300.8,-168.33"/>
</g>
<!-- Node14&#45;&gt;Node10 -->
<g id="edge18" class="edge">
<title>Node14&#45;&gt;Node10</title>
<path fill="none" stroke="midnightblue" d="M333,-101.8C333,-92.91 333,-82.78 333,-75.75"/>
<polygon fill="midnightblue" stroke="midnightblue" points="329.5,-102.08 333,-112.08 336.5,-102.08 329.5,-102.08"/>
</g>
<!-- Node15&#45;&gt;Node10 -->
<g id="edge22" class="edge">
<title>Node15&#45;&gt;Node10</title>
<path fill="none" stroke="midnightblue" d="M218.92,-108.91C246.56,-98.75 285.34,-84.51 309.82,-75.52"/>
<polygon fill="midnightblue" stroke="midnightblue" points="217.47,-105.71 209.29,-112.44 219.89,-112.28 217.47,-105.71"/>
</g>
<!-- Node16&#45;&gt;Node2 -->
<g id="edge29" class="edge">
<title>Node16&#45;&gt;Node2</title>
<path fill="none" stroke="midnightblue" d="M609.19,-274.9C624.78,-265 645.13,-252.07 658.38,-243.65"/>
<polygon fill="midnightblue" stroke="midnightblue" points="607.22,-272.01 600.66,-280.32 610.97,-277.92 607.22,-272.01"/>
</g>
<!-- Node16&#45;&gt;Node3 -->
<g id="edge30" class="edge">
<title>Node16&#45;&gt;Node3</title>
<path fill="none" stroke="midnightblue" d="M591.46,-270.41C595.02,-257.1 600.63,-238.96 608,-224 614.63,-210.55 624.88,-196.56 631.76,-187.82"/>
<polygon fill="midnightblue" stroke="midnightblue" points="588.02,-269.72 588.96,-280.28 594.81,-271.44 588.02,-269.72"/>
</g>
<!-- Node16&#45;&gt;Node5 -->
<g id="edge33" class="edge">
<title>Node16&#45;&gt;Node5</title>
<path fill="none" stroke="midnightblue" d="M583.59,-270.39C573.59,-215.88 544.62,-57.99 537.56,-19.52"/>
<polygon fill="midnightblue" stroke="midnightblue" points="580.17,-271.17 585.42,-280.38 587.06,-269.91 580.17,-271.17"/>
</g>
<!-- Node16&#45;&gt;Node6 -->
<g id="edge31" class="edge">
<title>Node16&#45;&gt;Node6</title>
<path fill="none" stroke="midnightblue" d="M639.96,-281.52C670.2,-275.26 707.62,-264 736,-244 757.33,-228.97 773,-201.47 779.98,-187.55"/>
<polygon fill="midnightblue" stroke="midnightblue" points="639.15,-278.11 630,-283.45 640.49,-284.98 639.15,-278.11"/>
</g>
<!-- Node16&#45;&gt;Node8 -->
<g id="edge32" class="edge">
<title>Node16&#45;&gt;Node8</title>
<path fill="none" stroke="midnightblue" d="M551.74,-277.17C521.42,-267 478.43,-252.59 451.39,-243.52"/>
<polygon fill="midnightblue" stroke="midnightblue" points="550.9,-280.58 561.49,-280.44 553.12,-273.95 550.9,-280.58"/>
</g>
</g>
</svg>
