<?xml version="1.0" encoding="UTF-8" standalone="no"?>
<!DOCTYPE svg PUBLIC "-//W3C//DTD SVG 1.1//EN"
 "http://www.w3.org/Graphics/SVG/1.1/DTD/svg11.dtd">
<!-- Generated by graphviz version 2.43.0 (0)
 -->
<!-- Title: CalphadUtils.hpp Pages: 1 -->
<!--zoomable 308 -->
<svg id="main" version="1.1" xmlns="http://www.w3.org/2000/svg" xmlns:xlink="http://www.w3.org/1999/xlink" xml:space="preserve" onload="init(evt)">
<style type="text/css"><![CDATA[
.edge:hover path { stroke: red; }
.edge:hover polygon { stroke: red; fill: red; }
]]></style>
<script type="text/javascript"><![CDATA[
var edges = document.getElementsByTagName('g');
if (edges && edges.length) {
  for (var i=0;i<edges.length;i++) {
    if (edges[i].id.substr(0,4)=='edge') {
      edges[i].setAttribute('class','edge');
    }
  }
}
]]></script>
        <defs>
                <circle id="rim" cx="0" cy="0" r="7"/>
                <circle id="rim2" cx="0" cy="0" r="3.5"/>
                <g id="zoomPlus">
                        <use xlink:href="#rim" fill="#404040">
                                <set attributeName="fill" to="#808080" begin="zoomplus.mouseover" end="zoomplus.mouseout"/>
                        </use>
                        <path d="M-4,0h8M0,-4v8" fill="none" stroke="white" stroke-width="1.5" pointer-events="none"/>
                </g>
                <g id="zoomMin">
                        <use xlink:href="#rim" fill="#404040">
                                <set attributeName="fill" to="#808080" begin="zoomminus.mouseover" end="zoomminus.mouseout"/>
                        </use>
                        <path d="M-4,0h8" fill="none" stroke="white" stroke-width="1.5" pointer-events="none"/>
                </g>
                <g id="dirArrow">
                        <path fill="none" stroke="white" stroke-width="1.5" d="M0,-3.0v7 M-2.5,-0.5L0,-3.0L2.5,-0.5"/>
                </g>
               <g id="resetDef">
                       <use xlink:href="#rim2" fill="#404040">
                               <set attributeName="fill" to="#808080" begin="reset.mouseover" end="reset.mouseout"/>
                       </use>
               </g>
        </defs>

<script type="text/javascript">
var viewWidth = 1493;
var viewHeight = 308;
var sectionId = 'dynsection-0';
</script>
<script xlink:href="svgpan.js"/>
<svg id="graph" class="graph">
<g id="viewport">
<title>CalphadUtils.hpp</title>
<!-- Node1 -->
<g id="node1" class="node">
<title>Node1</title>
<g id="a_node1"><a xlink:title="Class of methods usefull for to compute equilibrium state object.">
<polygon fill="#bfbfbf" stroke="black" points="208.83,-280.5 208.83,-299.5 314.83,-299.5 314.83,-280.5 208.83,-280.5"/>
<text text-anchor="middle" x="261.83" y="-287.5" font-family="serif" font-size="10.00">CalphadUtils.hpp</text>
</a>
</g>
</g>
<!-- Node2 -->
<g id="node2" class="node">
<title>Node2</title>
<g id="a_node2"><a xlink:title=" ">
<polygon fill="none" stroke="#bfbfbf" points="436.83,-0.5 436.83,-19.5 502.83,-19.5 502.83,-0.5 436.83,-0.5"/>
<text text-anchor="middle" x="469.83" y="-7.5" font-family="serif" font-size="10.00">algorithm</text>
</a>
</g>
</g>
<!-- Node1&#45;&gt;Node2 -->
<g id="edge1" class="edge">
<title>Node1&#45;&gt;Node2</title>
<path fill="none" stroke="midnightblue" d="M261.83,-280.44C261.83,-261.94 261.83,-216.81 261.83,-179 261.83,-179 261.83,-179 261.83,-121 261.83,-90.9 259.02,-76.74 280.83,-56 291.4,-45.95 373.97,-28.94 426.42,-18.96"/>
<polygon fill="midnightblue" stroke="midnightblue" points="427.3,-22.36 436.48,-17.06 426,-15.48 427.3,-22.36"/>
</g>
<!-- Node3 -->
<g id="node3" class="node">
<title>Node3</title>
<g id="a_node3"><a xlink:title=" ">
<polygon fill="none" stroke="#bfbfbf" points="1253.83,-224.5 1253.83,-243.5 1307.83,-243.5 1307.83,-224.5 1253.83,-224.5"/>
<text text-anchor="middle" x="1280.83" y="-231.5" font-family="serif" font-size="10.00">iterator</text>
</a>
</g>
</g>
<!-- Node1&#45;&gt;Node3 -->
<g id="edge2" class="edge">
<title>Node1&#45;&gt;Node3</title>
<path fill="none" stroke="midnightblue" d="M315.11,-287.74C491.99,-283.39 1058.68,-267.87 1239.83,-244 1241.09,-243.83 1242.37,-243.65 1243.66,-243.45"/>
<polygon fill="midnightblue" stroke="midnightblue" points="1244.38,-246.87 1253.6,-241.65 1243.14,-239.99 1244.38,-246.87"/>
</g>
<!-- Node4 -->
<g id="node4" class="node">
<title>Node4</title>
<g id="a_node4"><a xlink:title=" ">
<polygon fill="none" stroke="#bfbfbf" points="215.33,-0.5 215.33,-19.5 262.33,-19.5 262.33,-0.5 215.33,-0.5"/>
<text text-anchor="middle" x="238.83" y="-7.5" font-family="serif" font-size="10.00">string</text>
</a>
</g>
</g>
<!-- Node1&#45;&gt;Node4 -->
<g id="edge3" class="edge">
<title>Node1&#45;&gt;Node4</title>
<path fill="none" stroke="midnightblue" d="M208.75,-285.54C146.09,-280.39 46.97,-268.54 19.83,-244 -2.49,-223.81 0.83,-209.1 0.83,-179 0.83,-179 0.83,-179 0.83,-121 0.83,-32.18 139.12,-14.85 204.87,-11.63"/>
<polygon fill="midnightblue" stroke="midnightblue" points="205.29,-15.12 215.14,-11.22 205.01,-8.13 205.29,-15.12"/>
</g>
<!-- Node5 -->
<g id="node5" class="node">
<title>Node5</title>
<g id="a_node5"><a xlink:title=" ">
<polygon fill="none" stroke="#bfbfbf" points="841.33,-0.5 841.33,-19.5 884.33,-19.5 884.33,-0.5 841.33,-0.5"/>
<text text-anchor="middle" x="862.83" y="-7.5" font-family="serif" font-size="10.00">tuple</text>
</a>
</g>
</g>
<!-- Node1&#45;&gt;Node5 -->
<g id="edge4" class="edge">
<title>Node1&#45;&gt;Node5</title>
<path fill="none" stroke="midnightblue" d="M315.03,-288.57C517.13,-286.23 1225.83,-271.44 1225.83,-179 1225.83,-179 1225.83,-179 1225.83,-121 1225.83,-69.47 1177.81,-74.79 1129.83,-56 1034.03,-18.48 999.54,-41.35 894.47,-19.81"/>
<polygon fill="midnightblue" stroke="midnightblue" points="894.93,-16.33 884.42,-17.66 893.46,-23.17 894.93,-16.33"/>
</g>
<!-- Node6 -->
<g id="node6" class="node">
<title>Node6</title>
<g id="a_node6"><a xlink:title=" ">
<polygon fill="none" stroke="#bfbfbf" points="363.83,-0.5 363.83,-19.5 411.83,-19.5 411.83,-0.5 363.83,-0.5"/>
<text text-anchor="middle" x="387.83" y="-7.5" font-family="serif" font-size="10.00">vector</text>
</a>
</g>
</g>
<!-- Node1&#45;&gt;Node6 -->
<g id="edge5" class="edge">
<title>Node1&#45;&gt;Node6</title>
<path fill="none" stroke="midnightblue" d="M257.76,-280.3C242.97,-247.25 195.55,-127.72 247.83,-56 251.07,-51.55 313.43,-32.69 353.82,-20.84"/>
<polygon fill="midnightblue" stroke="midnightblue" points="354.95,-24.16 363.57,-17.99 352.99,-17.44 354.95,-24.16"/>
</g>
<!-- Node7 -->
<g id="node7" class="node">
<title>Node7</title>
<g id="a_node7"><a xlink:href="CalphadOptions_8hpp.html" target="_top" xlink:title="Options for Calphad problems.">
<polygon fill="none" stroke="black" points="29.33,-224.5 29.33,-243.5 194.33,-243.5 194.33,-224.5 29.33,-224.5"/>
<text text-anchor="middle" x="111.83" y="-231.5" font-family="serif" font-size="10.00">Options/CalphadOptions.hpp</text>
</a>
</g>
</g>
<!-- Node1&#45;&gt;Node7 -->
<g id="edge6" class="edge">
<title>Node1&#45;&gt;Node7</title>
<path fill="none" stroke="midnightblue" d="M238.06,-280.44C212.94,-271.4 173.12,-257.06 144.93,-246.92"/>
<polygon fill="midnightblue" stroke="midnightblue" points="146.08,-243.61 135.49,-243.52 143.71,-250.2 146.08,-243.61"/>
</g>
<!-- Node29 -->
<g id="node29" class="node">
<title>Node29</title>
<g id="a_node29"><a xlink:href="CalphadUtils_8tpp.html" target="_top" xlink:title=" ">
<polygon fill="none" stroke="black" points="1325.33,-224.5 1325.33,-243.5 1474.33,-243.5 1474.33,-224.5 1325.33,-224.5"/>
<text text-anchor="middle" x="1399.83" y="-231.5" font-family="serif" font-size="10.00">Calphad/CalphadUtils.tpp</text>
</a>
</g>
</g>
<!-- Node1&#45;&gt;Node29 -->
<g id="edge57" class="edge">
<title>Node1&#45;&gt;Node29</title>
<path fill="none" stroke="midnightblue" d="M314.87,-287.96C468.18,-284.71 925.26,-273.15 1315.13,-244.08"/>
<polygon fill="midnightblue" stroke="midnightblue" points="1315.49,-247.56 1325.2,-243.33 1314.96,-240.58 1315.49,-247.56"/>
</g>
<!-- Node7&#45;&gt;Node4 -->
<g id="edge8" class="edge">
<title>Node7&#45;&gt;Node4</title>
<path fill="none" stroke="midnightblue" d="M107.34,-224.18C93.85,-196.33 56.96,-108.99 95.83,-56 120.7,-22.11 171.11,-13.07 204.94,-11.01"/>
<polygon fill="midnightblue" stroke="midnightblue" points="205.44,-14.5 215.28,-10.57 205.14,-7.5 205.44,-14.5"/>
</g>
<!-- Node7&#45;&gt;Node6 -->
<g id="edge9" class="edge">
<title>Node7&#45;&gt;Node6</title>
<path fill="none" stroke="midnightblue" d="M113.55,-224.44C120.19,-192.3 145.1,-79.4 171.83,-56 231.88,-3.42 271.13,-36.26 353.96,-19.91"/>
<polygon fill="midnightblue" stroke="midnightblue" points="354.7,-23.33 363.73,-17.79 353.22,-16.48 354.7,-23.33"/>
</g>
<!-- Node8 -->
<g id="node8" class="node">
<title>Node8</title>
<g id="a_node8"><a xlink:title=" ">
<polygon fill="none" stroke="#bfbfbf" points="301.83,-0.5 301.83,-19.5 345.83,-19.5 345.83,-0.5 301.83,-0.5"/>
<text text-anchor="middle" x="323.83" y="-7.5" font-family="serif" font-size="10.00">limits</text>
</a>
</g>
</g>
<!-- Node7&#45;&gt;Node8 -->
<g id="edge7" class="edge">
<title>Node7&#45;&gt;Node8</title>
<path fill="none" stroke="midnightblue" d="M109.84,-224.25C103.94,-195.88 89.59,-105.34 133.83,-56 144.39,-44.22 240.55,-25.7 291.87,-16.53"/>
<polygon fill="midnightblue" stroke="midnightblue" points="292.56,-19.96 301.8,-14.77 291.34,-13.07 292.56,-19.96"/>
</g>
<!-- Node9 -->
<g id="node9" class="node">
<title>Node9</title>
<g id="a_node9"><a xlink:href="Utils_8hpp.html" target="_top" xlink:title="List of all Utils files.">
<polygon fill="none" stroke="black" points="663.33,-168.5 663.33,-187.5 752.33,-187.5 752.33,-168.5 663.33,-168.5"/>
<text text-anchor="middle" x="707.83" y="-175.5" font-family="serif" font-size="10.00">Utils/Utils.hpp</text>
</a>
</g>
</g>
<!-- Node7&#45;&gt;Node9 -->
<g id="edge10" class="edge">
<title>Node7&#45;&gt;Node9</title>
<path fill="none" stroke="midnightblue" d="M194.39,-225.52C318.11,-214.31 548.25,-193.46 653.17,-183.95"/>
<polygon fill="midnightblue" stroke="midnightblue" points="653.58,-187.43 663.22,-183.04 652.95,-180.46 653.58,-187.43"/>
</g>
<!-- Node10 -->
<g id="node10" class="node">
<title>Node10</title>
<g id="a_node10"><a xlink:href="UtilsForData_8hpp.html" target="_top" xlink:title="Usefull methods for data.">
<polygon fill="none" stroke="black" points="990.33,-56.5 990.33,-75.5 1121.33,-75.5 1121.33,-56.5 990.33,-56.5"/>
<text text-anchor="middle" x="1055.83" y="-63.5" font-family="serif" font-size="10.00">Utils/UtilsForData.hpp</text>
</a>
</g>
</g>
<!-- Node9&#45;&gt;Node10 -->
<g id="edge11" class="edge">
<title>Node9&#45;&gt;Node10</title>
<path fill="none" stroke="midnightblue" d="M752.39,-171.56C797.71,-165.19 869.52,-152.78 928.83,-132 967.38,-118.49 1008.97,-95.41 1033.69,-80.7"/>
<polygon fill="midnightblue" stroke="midnightblue" points="1035.54,-83.67 1042.29,-75.51 1031.92,-77.68 1035.54,-83.67"/>
</g>
<!-- Node20 -->
<g id="node20" class="node">
<title>Node20</title>
<g id="a_node20"><a xlink:href="UtilsForDebug_8hpp.html" target="_top" xlink:title="Usefull methods for debug.">
<polygon fill="none" stroke="black" points="779.33,-112.5 779.33,-131.5 920.33,-131.5 920.33,-112.5 779.33,-112.5"/>
<text text-anchor="middle" x="849.83" y="-119.5" font-family="serif" font-size="10.00">Utils/UtilsForDebug.hpp</text>
</a>
</g>
</g>
<!-- Node9&#45;&gt;Node20 -->
<g id="edge25" class="edge">
<title>Node9&#45;&gt;Node20</title>
<path fill="none" stroke="midnightblue" d="M730.33,-168.44C753.91,-159.48 791.15,-145.31 817.8,-135.18"/>
<polygon fill="midnightblue" stroke="midnightblue" points="819.33,-138.34 827.44,-131.52 816.85,-131.8 819.33,-138.34"/>
</g>
<!-- Node23 -->
<g id="node23" class="node">
<title>Node23</title>
<g id="a_node23"><a xlink:href="UtilsForOptions_8hpp.html" target="_top" xlink:title="Usefull methods for Options.">
<polygon fill="none" stroke="black" points="491.83,-56.5 491.83,-75.5 637.83,-75.5 637.83,-56.5 491.83,-56.5"/>
<text text-anchor="middle" x="564.83" y="-63.5" font-family="serif" font-size="10.00">Utils/UtilsForOptions.hpp</text>
</a>
</g>
</g>
<!-- Node9&#45;&gt;Node23 -->
<g id="edge36" class="edge">
<title>Node9&#45;&gt;Node23</title>
<path fill="none" stroke="midnightblue" d="M696.61,-168.37C672.28,-149.65 614.43,-105.15 584.11,-81.83"/>
<polygon fill="midnightblue" stroke="midnightblue" points="586.06,-78.91 576,-75.59 581.79,-84.46 586.06,-78.91"/>
</g>
<!-- Node25 -->
<g id="node25" class="node">
<title>Node25</title>
<g id="a_node25"><a xlink:href="UtilsForPostProcessing_8hpp.html" target="_top" xlink:title="Usefull methods for post&#45;processing.">
<polygon fill="none" stroke="black" points="290.33,-56.5 290.33,-75.5 473.33,-75.5 473.33,-56.5 290.33,-56.5"/>
<text text-anchor="middle" x="381.83" y="-63.5" font-family="serif" font-size="10.00">Utils/UtilsForPostProcessing.hpp</text>
</a>
</g>
</g>
<!-- Node9&#45;&gt;Node25 -->
<g id="edge46" class="edge">
<title>Node9&#45;&gt;Node25</title>
<path fill="none" stroke="midnightblue" d="M682.52,-168.46C624.75,-148.97 483.07,-101.16 416.92,-78.84"/>
<polygon fill="midnightblue" stroke="midnightblue" points="417.94,-75.49 407.35,-75.61 415.71,-82.12 417.94,-75.49"/>
</g>
<!-- Node26 -->
<g id="node26" class="node">
<title>Node26</title>
<g id="a_node26"><a xlink:href="UtilsForVariants_8hpp.html" target="_top" xlink:title="manage std::Variants">
<polygon fill="none" stroke="black" points="1276.83,-56.5 1276.83,-75.5 1424.83,-75.5 1424.83,-56.5 1276.83,-56.5"/>
<text text-anchor="middle" x="1350.83" y="-63.5" font-family="serif" font-size="10.00">Utils/UtilsForVariants.hpp</text>
</a>
</g>
</g>
<!-- Node9&#45;&gt;Node26 -->
<g id="edge53" class="edge">
<title>Node9&#45;&gt;Node26</title>
<path fill="none" stroke="midnightblue" d="M752.54,-169.35C865.53,-150.02 1162.67,-99.19 1290.71,-77.28"/>
<polygon fill="midnightblue" stroke="midnightblue" points="1291.47,-80.71 1300.74,-75.57 1290.29,-73.81 1291.47,-80.71"/>
</g>
<!-- Node10&#45;&gt;Node2 -->
<g id="edge13" class="edge">
<title>Node10&#45;&gt;Node2</title>
<path fill="none" stroke="midnightblue" d="M990,-56.95C986.9,-56.62 983.83,-56.3 980.83,-56 778.53,-35.88 726.65,-44.44 524.83,-20 520.94,-19.53 516.91,-18.98 512.88,-18.4"/>
<polygon fill="midnightblue" stroke="midnightblue" points="513.34,-14.93 502.92,-16.87 512.28,-21.85 513.34,-14.93"/>
</g>
<!-- Node10&#45;&gt;Node4 -->
<g id="edge20" class="edge">
<title>Node10&#45;&gt;Node4</title>
<path fill="none" stroke="midnightblue" d="M990.01,-56.85C986.91,-56.54 983.84,-56.26 980.83,-56 675.76,-29.74 597.22,-53.22 292.83,-20 286.26,-19.28 279.27,-18.29 272.58,-17.23"/>
<polygon fill="midnightblue" stroke="midnightblue" points="272.85,-13.72 262.41,-15.52 271.69,-20.63 272.85,-13.72"/>
</g>
<!-- Node10&#45;&gt;Node5 -->
<g id="edge21" class="edge">
<title>Node10&#45;&gt;Node5</title>
<path fill="none" stroke="midnightblue" d="M1024.74,-56.48C994.09,-48.05 945.64,-34.67 894.43,-20.15"/>
<polygon fill="midnightblue" stroke="midnightblue" points="895.08,-16.69 884.5,-17.33 893.17,-23.43 895.08,-16.69"/>
</g>
<!-- Node10&#45;&gt;Node6 -->
<g id="edge23" class="edge">
<title>Node10&#45;&gt;Node6</title>
<path fill="none" stroke="midnightblue" d="M990,-56.9C986.9,-56.58 983.83,-56.28 980.83,-56 735.58,-33.32 671.61,-55.14 427.83,-20 425.88,-19.72 423.87,-19.39 421.86,-19.03"/>
<polygon fill="midnightblue" stroke="midnightblue" points="422.32,-15.56 411.83,-17.04 420.96,-22.42 422.32,-15.56"/>
</g>
<!-- Node11 -->
<g id="node11" class="node">
<title>Node11</title>
<g id="a_node11"><a xlink:title=" ">
<polygon fill="none" stroke="#bfbfbf" points="764.33,-0.5 764.33,-19.5 823.33,-19.5 823.33,-0.5 764.33,-0.5"/>
<text text-anchor="middle" x="793.83" y="-7.5" font-family="serif" font-size="10.00">unistd.h</text>
</a>
</g>
</g>
<!-- Node10&#45;&gt;Node11 -->
<g id="edge12" class="edge">
<title>Node10&#45;&gt;Node11</title>
<path fill="none" stroke="midnightblue" d="M1011.11,-56.48C967.95,-48.16 900.52,-34.88 833.55,-20.33"/>
<polygon fill="midnightblue" stroke="midnightblue" points="834.2,-16.89 823.68,-18.17 832.7,-23.72 834.2,-16.89"/>
</g>
<!-- Node12 -->
<g id="node12" class="node">
<title>Node12</title>
<g id="a_node12"><a xlink:title=" ">
<polygon fill="none" stroke="#bfbfbf" points="902.83,-0.5 902.83,-19.5 952.83,-19.5 952.83,-0.5 902.83,-0.5"/>
<text text-anchor="middle" x="927.83" y="-7.5" font-family="serif" font-size="10.00">cctype</text>
</a>
</g>
</g>
<!-- Node10&#45;&gt;Node12 -->
<g id="edge14" class="edge">
<title>Node10&#45;&gt;Node12</title>
<path fill="none" stroke="midnightblue" d="M1035.55,-56.44C1014.48,-47.56 981.31,-33.56 957.35,-23.45"/>
<polygon fill="midnightblue" stroke="midnightblue" points="958.59,-20.18 948.02,-19.52 955.87,-26.63 958.59,-20.18"/>
</g>
<!-- Node13 -->
<g id="node13" class="node">
<title>Node13</title>
<g id="a_node13"><a xlink:title=" ">
<polygon fill="none" stroke="#bfbfbf" points="1185.33,-0.5 1185.33,-19.5 1232.33,-19.5 1232.33,-0.5 1185.33,-0.5"/>
<text text-anchor="middle" x="1208.83" y="-7.5" font-family="serif" font-size="10.00">cstdio</text>
</a>
</g>
</g>
<!-- Node10&#45;&gt;Node13 -->
<g id="edge15" class="edge">
<title>Node10&#45;&gt;Node13</title>
<path fill="none" stroke="midnightblue" d="M1080.07,-56.44C1105.85,-47.35 1146.79,-32.9 1175.58,-22.74"/>
<polygon fill="midnightblue" stroke="midnightblue" points="1176.94,-25.97 1185.2,-19.34 1174.61,-19.37 1176.94,-25.97"/>
</g>
<!-- Node14 -->
<g id="node14" class="node">
<title>Node14</title>
<g id="a_node14"><a xlink:title=" ">
<polygon fill="none" stroke="#bfbfbf" points="970.83,-0.5 970.83,-19.5 1038.83,-19.5 1038.83,-0.5 970.83,-0.5"/>
<text text-anchor="middle" x="1004.83" y="-7.5" font-family="serif" font-size="10.00">filesystem</text>
</a>
</g>
</g>
<!-- Node10&#45;&gt;Node14 -->
<g id="edge16" class="edge">
<title>Node10&#45;&gt;Node14</title>
<path fill="none" stroke="midnightblue" d="M1047.41,-56.08C1039.98,-48.22 1028.98,-36.57 1020.02,-27.08"/>
<polygon fill="midnightblue" stroke="midnightblue" points="1022.51,-24.62 1013.1,-19.75 1017.42,-29.42 1022.51,-24.62"/>
</g>
<!-- Node15 -->
<g id="node15" class="node">
<title>Node15</title>
<g id="a_node15"><a xlink:title=" ">
<polygon fill="none" stroke="#bfbfbf" points="677.83,-0.5 677.83,-19.5 745.83,-19.5 745.83,-0.5 677.83,-0.5"/>
<text text-anchor="middle" x="711.83" y="-7.5" font-family="serif" font-size="10.00">functional</text>
</a>
</g>
</g>
<!-- Node10&#45;&gt;Node15 -->
<g id="edge17" class="edge">
<title>Node10&#45;&gt;Node15</title>
<path fill="none" stroke="midnightblue" d="M991.36,-56.46C932.56,-48.43 843.04,-35.56 756.1,-20.15"/>
<polygon fill="midnightblue" stroke="midnightblue" points="756.52,-16.67 746.06,-18.35 755.29,-23.56 756.52,-16.67"/>
</g>
<!-- Node16 -->
<g id="node16" class="node">
<title>Node16</title>
<g id="a_node16"><a xlink:title=" ">
<polygon fill="none" stroke="#bfbfbf" points="534.33,-0.5 534.33,-19.5 595.33,-19.5 595.33,-0.5 534.33,-0.5"/>
<text text-anchor="middle" x="564.83" y="-7.5" font-family="serif" font-size="10.00">iostream</text>
</a>
</g>
</g>
<!-- Node10&#45;&gt;Node16 -->
<g id="edge18" class="edge">
<title>Node10&#45;&gt;Node16</title>
<path fill="none" stroke="midnightblue" d="M989.99,-57.01C986.9,-56.66 983.83,-56.32 980.83,-56 817.18,-38.35 772.34,-46.16 605.86,-19.97"/>
<polygon fill="midnightblue" stroke="midnightblue" points="606.19,-16.48 595.77,-18.36 605.09,-23.39 606.19,-16.48"/>
</g>
<!-- Node17 -->
<g id="node17" class="node">
<title>Node17</title>
<g id="a_node17"><a xlink:title=" ">
<polygon fill="none" stroke="#bfbfbf" points="1128.33,-0.5 1128.33,-19.5 1167.33,-19.5 1167.33,-0.5 1128.33,-0.5"/>
<text text-anchor="middle" x="1147.83" y="-7.5" font-family="serif" font-size="10.00">map</text>
</a>
</g>
</g>
<!-- Node10&#45;&gt;Node17 -->
<g id="edge19" class="edge">
<title>Node10&#45;&gt;Node17</title>
<path fill="none" stroke="midnightblue" d="M1070.61,-56.32C1085.1,-47.82 1107.4,-34.73 1124.32,-24.8"/>
<polygon fill="midnightblue" stroke="midnightblue" points="1126.23,-27.74 1133.09,-19.65 1122.69,-21.7 1126.23,-27.74"/>
</g>
<!-- Node18 -->
<g id="node18" class="node">
<title>Node18</title>
<g id="a_node18"><a xlink:title=" ">
<polygon fill="none" stroke="#bfbfbf" points="613.83,-0.5 613.83,-19.5 659.83,-19.5 659.83,-0.5 613.83,-0.5"/>
<text text-anchor="middle" x="636.83" y="-7.5" font-family="serif" font-size="10.00">utility</text>
</a>
</g>
</g>
<!-- Node10&#45;&gt;Node18 -->
<g id="edge22" class="edge">
<title>Node10&#45;&gt;Node18</title>
<path fill="none" stroke="midnightblue" d="M989.98,-57.08C986.89,-56.71 983.83,-56.35 980.83,-56 845.45,-40.07 807.55,-46.65 670.21,-20"/>
<polygon fill="midnightblue" stroke="midnightblue" points="670.63,-16.51 660.15,-18.02 669.28,-23.38 670.63,-16.51"/>
</g>
<!-- Node19 -->
<g id="node19" class="node">
<title>Node19</title>
<g id="a_node19"><a xlink:title=" ">
<polygon fill="none" stroke="#bfbfbf" points="1250.33,-0.5 1250.33,-19.5 1319.33,-19.5 1319.33,-0.5 1250.33,-0.5"/>
<text text-anchor="middle" x="1284.83" y="-7.5" font-family="serif" font-size="10.00">mfem.hpp</text>
</a>
</g>
</g>
<!-- Node10&#45;&gt;Node19 -->
<g id="edge24" class="edge">
<title>Node10&#45;&gt;Node19</title>
<path fill="none" stroke="midnightblue" d="M1092.12,-56.44C1132.28,-46.97 1197.04,-31.7 1240.26,-21.51"/>
<polygon fill="midnightblue" stroke="midnightblue" points="1241.28,-24.86 1250.21,-19.16 1239.68,-18.05 1241.28,-24.86"/>
</g>
<!-- Node20&#45;&gt;Node4 -->
<g id="edge32" class="edge">
<title>Node20&#45;&gt;Node4</title>
<path fill="none" stroke="midnightblue" d="M779.23,-118.9C636.3,-114.14 322.69,-100.98 280.83,-76 263.21,-65.48 251.66,-44.38 245.22,-29.06"/>
<polygon fill="midnightblue" stroke="midnightblue" points="248.42,-27.65 241.56,-19.58 241.89,-30.17 248.42,-27.65"/>
</g>
<!-- Node20&#45;&gt;Node10 -->
<g id="edge34" class="edge">
<title>Node20&#45;&gt;Node10</title>
<path fill="none" stroke="midnightblue" d="M882.47,-112.44C917.88,-103.16 974.54,-88.31 1013.38,-78.13"/>
<polygon fill="midnightblue" stroke="midnightblue" points="1014.56,-81.44 1023.34,-75.52 1012.78,-74.67 1014.56,-81.44"/>
</g>
<!-- Node20&#45;&gt;Node11 -->
<g id="edge27" class="edge">
<title>Node20&#45;&gt;Node11</title>
<path fill="none" stroke="midnightblue" d="M855.19,-112.47C862.58,-99.51 873.9,-74.44 863.83,-56 856.01,-41.68 841.47,-31.24 827.66,-24.04"/>
<polygon fill="midnightblue" stroke="midnightblue" points="828.83,-20.72 818.3,-19.56 825.81,-27.03 828.83,-20.72"/>
</g>
<!-- Node20&#45;&gt;Node13 -->
<g id="edge28" class="edge">
<title>Node20&#45;&gt;Node13</title>
<path fill="none" stroke="midnightblue" d="M920.35,-119.82C978.8,-116.5 1062.85,-106.23 1129.83,-76 1155.24,-64.53 1179.18,-42.7 1193.91,-27.52"/>
<polygon fill="midnightblue" stroke="midnightblue" points="1196.8,-29.56 1201.1,-19.87 1191.7,-24.76 1196.8,-29.56"/>
</g>
<!-- Node20&#45;&gt;Node15 -->
<g id="edge30" class="edge">
<title>Node20&#45;&gt;Node15</title>
<path fill="none" stroke="midnightblue" d="M849.66,-112.23C848.91,-98.51 845.53,-71.88 830.83,-56 819.95,-44.24 783.17,-31.36 753.35,-22.4"/>
<polygon fill="midnightblue" stroke="midnightblue" points="754.13,-18.98 743.55,-19.52 752.16,-25.7 754.13,-18.98"/>
</g>
<!-- Node20&#45;&gt;Node16 -->
<g id="edge31" class="edge">
<title>Node20&#45;&gt;Node16</title>
<path fill="none" stroke="midnightblue" d="M810.36,-112.42C777.29,-104.66 729.16,-92 688.83,-76 669.26,-68.24 619.39,-41.21 589.19,-24.55"/>
<polygon fill="midnightblue" stroke="midnightblue" points="590.58,-21.32 580.14,-19.54 587.19,-27.45 590.58,-21.32"/>
</g>
<!-- Node20&#45;&gt;Node18 -->
<g id="edge33" class="edge">
<title>Node20&#45;&gt;Node18</title>
<path fill="none" stroke="midnightblue" d="M817.37,-112.49C791,-104.89 753.31,-92.41 722.83,-76 697.01,-62.1 670.58,-40.86 653.96,-26.48"/>
<polygon fill="midnightblue" stroke="midnightblue" points="656.03,-23.64 646.22,-19.66 651.41,-28.9 656.03,-23.64"/>
</g>
<!-- Node20&#45;&gt;Node19 -->
<g id="edge35" class="edge">
<title>Node20&#45;&gt;Node19</title>
<path fill="none" stroke="midnightblue" d="M920.6,-117.48C984.44,-112.72 1080.25,-101.65 1159.83,-76 1198.26,-63.61 1239.11,-40.17 1263.28,-25.08"/>
<polygon fill="midnightblue" stroke="midnightblue" points="1265.41,-27.88 1271.97,-19.56 1261.65,-21.97 1265.41,-27.88"/>
</g>
<!-- Node21 -->
<g id="node21" class="node">
<title>Node21</title>
<g id="a_node21"><a xlink:title=" ">
<polygon fill="none" stroke="#bfbfbf" points="731.83,-56.5 731.83,-75.5 821.83,-75.5 821.83,-56.5 731.83,-56.5"/>
<text text-anchor="middle" x="776.83" y="-63.5" font-family="serif" font-size="10.00">sys/resource.h</text>
</a>
</g>
</g>
<!-- Node20&#45;&gt;Node21 -->
<g id="edge26" class="edge">
<title>Node20&#45;&gt;Node21</title>
<path fill="none" stroke="midnightblue" d="M838.1,-112.32C826.99,-104.11 810.09,-91.6 796.85,-81.81"/>
<polygon fill="midnightblue" stroke="midnightblue" points="798.89,-78.97 788.77,-75.83 794.73,-84.59 798.89,-78.97"/>
</g>
<!-- Node22 -->
<g id="node22" class="node">
<title>Node22</title>
<g id="a_node22"><a xlink:title=" ">
<polygon fill="none" stroke="#bfbfbf" points="915.83,-56.5 915.83,-75.5 971.83,-75.5 971.83,-56.5 915.83,-56.5"/>
<text text-anchor="middle" x="943.83" y="-63.5" font-family="serif" font-size="10.00">fstream</text>
</a>
</g>
</g>
<!-- Node20&#45;&gt;Node22 -->
<g id="edge29" class="edge">
<title>Node20&#45;&gt;Node22</title>
<path fill="none" stroke="midnightblue" d="M864.93,-112.32C879.73,-103.82 902.53,-90.73 919.81,-80.8"/>
<polygon fill="midnightblue" stroke="midnightblue" points="921.84,-83.67 928.77,-75.65 918.35,-77.6 921.84,-83.67"/>
</g>
<!-- Node23&#45;&gt;Node2 -->
<g id="edge37" class="edge">
<title>Node23&#45;&gt;Node2</title>
<path fill="none" stroke="midnightblue" d="M549.57,-56.32C534.61,-47.82 511.58,-34.73 494.1,-24.8"/>
<polygon fill="midnightblue" stroke="midnightblue" points="495.48,-21.55 485.06,-19.65 492.02,-27.64 495.48,-21.55"/>
</g>
<!-- Node23&#45;&gt;Node4 -->
<g id="edge41" class="edge">
<title>Node23&#45;&gt;Node4</title>
<path fill="none" stroke="midnightblue" d="M513.19,-56.48C458.48,-47.44 369.56,-32.74 292.83,-20 286.31,-18.92 279.34,-17.76 272.66,-16.64"/>
<polygon fill="midnightblue" stroke="midnightblue" points="272.93,-13.14 262.49,-14.95 271.78,-20.05 272.93,-13.14"/>
</g>
<!-- Node23&#45;&gt;Node5 -->
<g id="edge42" class="edge">
<title>Node23&#45;&gt;Node5</title>
<path fill="none" stroke="midnightblue" d="M627.81,-56.48C679.84,-48.97 755.77,-36.91 831.09,-19.93"/>
<polygon fill="midnightblue" stroke="midnightblue" points="832.27,-23.26 841.23,-17.62 830.71,-16.43 832.27,-23.26"/>
</g>
<!-- Node23&#45;&gt;Node6 -->
<g id="edge45" class="edge">
<title>Node23&#45;&gt;Node6</title>
<path fill="none" stroke="midnightblue" d="M536.79,-56.44C505.6,-46.93 455.23,-31.56 421.83,-21.37"/>
<polygon fill="midnightblue" stroke="midnightblue" points="422.63,-17.96 412.05,-18.39 420.59,-24.65 422.63,-17.96"/>
</g>
<!-- Node23&#45;&gt;Node8 -->
<g id="edge40" class="edge">
<title>Node23&#45;&gt;Node8</title>
<path fill="none" stroke="midnightblue" d="M520.37,-56.43C479.89,-48.42 418.25,-35.68 356.11,-20.19"/>
<polygon fill="midnightblue" stroke="midnightblue" points="356.68,-16.73 346.13,-17.68 354.97,-23.51 356.68,-16.73"/>
</g>
<!-- Node23&#45;&gt;Node15 -->
<g id="edge38" class="edge">
<title>Node23&#45;&gt;Node15</title>
<path fill="none" stroke="midnightblue" d="M588.12,-56.44C612.64,-47.44 651.43,-33.19 679.03,-23.05"/>
<polygon fill="midnightblue" stroke="midnightblue" points="680.47,-26.25 688.65,-19.52 678.05,-19.68 680.47,-26.25"/>
</g>
<!-- Node23&#45;&gt;Node16 -->
<g id="edge39" class="edge">
<title>Node23&#45;&gt;Node16</title>
<path fill="none" stroke="midnightblue" d="M564.83,-56.08C564.83,-49.01 564.83,-38.86 564.83,-29.99"/>
<polygon fill="midnightblue" stroke="midnightblue" points="568.33,-29.75 564.83,-19.75 561.33,-29.75 568.33,-29.75"/>
</g>
<!-- Node23&#45;&gt;Node18 -->
<g id="edge43" class="edge">
<title>Node23&#45;&gt;Node18</title>
<path fill="none" stroke="midnightblue" d="M576.4,-56.32C587.25,-48.18 603.71,-35.84 616.71,-26.09"/>
<polygon fill="midnightblue" stroke="midnightblue" points="619.15,-28.63 625.05,-19.83 614.95,-23.03 619.15,-28.63"/>
</g>
<!-- Node24 -->
<g id="node24" class="node">
<title>Node24</title>
<g id="a_node24"><a xlink:title=" ">
<polygon fill="none" stroke="#bfbfbf" points="1057.33,-0.5 1057.33,-19.5 1110.33,-19.5 1110.33,-0.5 1057.33,-0.5"/>
<text text-anchor="middle" x="1083.83" y="-7.5" font-family="serif" font-size="10.00">variant</text>
</a>
</g>
</g>
<!-- Node23&#45;&gt;Node24 -->
<g id="edge44" class="edge">
<title>Node23&#45;&gt;Node24</title>
<path fill="none" stroke="midnightblue" d="M637.96,-59.56C748.73,-51.09 955,-34.4 1047.07,-19.82"/>
<polygon fill="midnightblue" stroke="midnightblue" points="1047.9,-23.23 1057.19,-18.14 1046.75,-16.32 1047.9,-23.23"/>
</g>
<!-- Node25&#45;&gt;Node2 -->
<g id="edge47" class="edge">
<title>Node25&#45;&gt;Node2</title>
<path fill="none" stroke="midnightblue" d="M395.97,-56.32C409.7,-47.9 430.77,-34.97 446.9,-25.07"/>
<polygon fill="midnightblue" stroke="midnightblue" points="449.03,-27.87 455.73,-19.65 445.37,-21.9 449.03,-27.87"/>
</g>
<!-- Node25&#45;&gt;Node4 -->
<g id="edge50" class="edge">
<title>Node25&#45;&gt;Node4</title>
<path fill="none" stroke="midnightblue" d="M359.17,-56.44C335.43,-47.48 297.92,-33.31 271.09,-23.18"/>
<polygon fill="midnightblue" stroke="midnightblue" points="271.98,-19.77 261.38,-19.52 269.5,-26.32 271.98,-19.77"/>
</g>
<!-- Node25&#45;&gt;Node6 -->
<g id="edge52" class="edge">
<title>Node25&#45;&gt;Node6</title>
<path fill="none" stroke="midnightblue" d="M382.82,-56.08C383.62,-48.93 384.76,-38.64 385.75,-29.69"/>
<polygon fill="midnightblue" stroke="midnightblue" points="389.23,-30.08 386.86,-19.75 382.28,-29.3 389.23,-30.08"/>
</g>
<!-- Node25&#45;&gt;Node8 -->
<g id="edge49" class="edge">
<title>Node25&#45;&gt;Node8</title>
<path fill="none" stroke="midnightblue" d="M372.51,-56.32C363.94,-48.34 351.02,-36.31 340.64,-26.65"/>
<polygon fill="midnightblue" stroke="midnightblue" points="343.02,-24.09 333.32,-19.83 338.25,-29.21 343.02,-24.09"/>
</g>
<!-- Node25&#45;&gt;Node16 -->
<g id="edge48" class="edge">
<title>Node25&#45;&gt;Node16</title>
<path fill="none" stroke="midnightblue" d="M410.83,-56.44C442.02,-47.24 491.76,-32.56 526.24,-22.39"/>
<polygon fill="midnightblue" stroke="midnightblue" points="527.37,-25.7 535.97,-19.52 525.39,-18.99 527.37,-25.7"/>
</g>
<!-- Node25&#45;&gt;Node18 -->
<g id="edge51" class="edge">
<title>Node25&#45;&gt;Node18</title>
<path fill="none" stroke="midnightblue" d="M428.37,-56.5C473.43,-48.04 543.57,-34.31 603.83,-20 603.93,-19.98 604.03,-19.95 604.14,-19.93"/>
<polygon fill="midnightblue" stroke="midnightblue" points="604.96,-23.33 613.8,-17.49 603.25,-16.54 604.96,-23.33"/>
</g>
<!-- Node26&#45;&gt;Node24 -->
<g id="edge56" class="edge">
<title>Node26&#45;&gt;Node24</title>
<path fill="none" stroke="midnightblue" d="M1302.22,-56.45C1257.36,-48.36 1188.68,-35.48 1120.58,-20.3"/>
<polygon fill="midnightblue" stroke="midnightblue" points="1121.07,-16.82 1110.54,-18.05 1119.53,-23.65 1121.07,-16.82"/>
</g>
<!-- Node27 -->
<g id="node27" class="node">
<title>Node27</title>
<g id="a_node27"><a xlink:title=" ">
<polygon fill="none" stroke="#bfbfbf" points="1426.33,-0.5 1426.33,-19.5 1485.33,-19.5 1485.33,-0.5 1426.33,-0.5"/>
<text text-anchor="middle" x="1455.83" y="-7.5" font-family="serif" font-size="10.00">memory</text>
</a>
</g>
</g>
<!-- Node26&#45;&gt;Node27 -->
<g id="edge54" class="edge">
<title>Node26&#45;&gt;Node27</title>
<path fill="none" stroke="midnightblue" d="M1367.7,-56.32C1384.54,-47.66 1410.64,-34.24 1430.07,-24.25"/>
<polygon fill="midnightblue" stroke="midnightblue" points="1431.71,-27.34 1439,-19.65 1428.51,-21.12 1431.71,-27.34"/>
</g>
<!-- Node28 -->
<g id="node28" class="node">
<title>Node28</title>
<g id="a_node28"><a xlink:title=" ">
<polygon fill="none" stroke="#bfbfbf" points="1337.33,-0.5 1337.33,-19.5 1408.33,-19.5 1408.33,-0.5 1337.33,-0.5"/>
<text text-anchor="middle" x="1372.83" y="-7.5" font-family="serif" font-size="10.00">type_traits</text>
</a>
</g>
</g>
<!-- Node26&#45;&gt;Node28 -->
<g id="edge55" class="edge">
<title>Node26&#45;&gt;Node28</title>
<path fill="none" stroke="midnightblue" d="M1354.46,-56.08C1357.44,-48.77 1361.76,-38.18 1365.46,-29.1"/>
<polygon fill="midnightblue" stroke="midnightblue" points="1368.73,-30.33 1369.27,-19.75 1362.25,-27.69 1368.73,-30.33"/>
</g>
</g>
</svg>
        <g id="navigator" transform="translate(0 0)" fill="#404254">
                <rect fill="#f2f5e9" fill-opacity="0.5" stroke="#606060" stroke-width=".5" x="0" y="0" width="60" height="60"/>
                <use id="zoomplus" xlink:href="#zoomPlus" x="17" y="9" onmousedown="handleZoom(evt,'in')"/>
                <use id="zoomminus" xlink:href="#zoomMin" x="42" y="9" onmousedown="handleZoom(evt,'out')"/>
                <use id="reset" xlink:href="#resetDef" x="30" y="36" onmousedown="handleReset()"/>
                <g id="arrowUp" xlink:href="#dirArrow" transform="translate(30 24)" onmousedown="handlePan(0,-1)">
                  <use xlink:href="#rim" fill="#404040">
                        <set attributeName="fill" to="#808080" begin="arrowUp.mouseover" end="arrowUp.mouseout"/>
                  </use>
                  <path fill="none" stroke="white" stroke-width="1.5" d="M0,-3.0v7 M-2.5,-0.5L0,-3.0L2.5,-0.5"/>
                </g>
                <g id="arrowRight" xlink:href="#dirArrow" transform="rotate(90) translate(36 -43)" onmousedown="handlePan(1,0)">
                  <use xlink:href="#rim" fill="#404040">
                        <set attributeName="fill" to="#808080" begin="arrowRight.mouseover" end="arrowRight.mouseout"/>
                  </use>
                  <path fill="none" stroke="white" stroke-width="1.5" d="M0,-3.0v7 M-2.5,-0.5L0,-3.0L2.5,-0.5"/>
                </g>
                <g id="arrowDown" xlink:href="#dirArrow" transform="rotate(180) translate(-30 -48)" onmousedown="handlePan(0,1)">
                  <use xlink:href="#rim" fill="#404040">
                        <set attributeName="fill" to="#808080" begin="arrowDown.mouseover" end="arrowDown.mouseout"/>
                  </use>
                  <path fill="none" stroke="white" stroke-width="1.5" d="M0,-3.0v7 M-2.5,-0.5L0,-3.0L2.5,-0.5"/>
                </g>
                <g id="arrowLeft" xlink:href="#dirArrow" transform="rotate(270) translate(-36 17)" onmousedown="handlePan(-1,0)">
                  <use xlink:href="#rim" fill="#404040">
                        <set attributeName="fill" to="#808080" begin="arrowLeft.mouseover" end="arrowLeft.mouseout"/>
                  </use>
                  <path fill="none" stroke="white" stroke-width="1.5" d="M0,-3.0v7 M-2.5,-0.5L0,-3.0L2.5,-0.5"/>
                </g>
        </g>
        <svg viewBox="0 0 15 15" width="100%" height="30px" preserveAspectRatio="xMaxYMin meet">
         <g id="arrow_out" transform="scale(0.3 0.3)">
          <a xlink:href="CalphadUtils_8hpp__incl_org.svg" target="_base">
           <rect id="button" ry="5" rx="5" y="6" x="6" height="38" width="38"
                fill="#f2f5e9" fill-opacity="0.5" stroke="#606060" stroke-width="1.0"/>
           <path id="arrow"
             d="M 11.500037,31.436501 C 11.940474,20.09759 22.043105,11.32322 32.158766,21.979434 L 37.068811,17.246167 C 37.068811,17.246167 37.088388,32 37.088388,32 L 22.160133,31.978069 C 22.160133,31.978069 26.997745,27.140456 26.997745,27.140456 C 18.528582,18.264221 13.291696,25.230495 11.500037,31.436501 z"
             style="fill:#404040;"/>
          </a>
         </g>
        </svg>
</svg>
