<?xml version="1.0" encoding="UTF-8" standalone="no"?>
<!DOCTYPE svg PUBLIC "-//W3C//DTD SVG 1.1//EN"
 "http://www.w3.org/Graphics/SVG/1.1/DTD/svg11.dtd">
<!-- Generated by graphviz version 2.43.0 (0)
 -->
<!-- Title: CalphadBase.hpp Pages: 1 -->
<svg width="581pt" height="196pt"
 viewBox="0.00 0.00 580.50 196.00" xmlns="http://www.w3.org/2000/svg" xmlns:xlink="http://www.w3.org/1999/xlink">
<g id="graph0" class="graph" transform="scale(1 1) rotate(0) translate(4 192)">
<title>CalphadBase.hpp</title>
<!-- Node1 -->
<g id="node1" class="node">
<title>Node1</title>
<g id="a_node1"><a xlink:title="Base class for Calphad objets.">
<polygon fill="#bfbfbf" stroke="black" points="198.5,-168.5 198.5,-187.5 305.5,-187.5 305.5,-168.5 198.5,-168.5"/>
<text text-anchor="middle" x="252" y="-175.5" font-family="serif" font-size="10.00">CalphadBase.hpp</text>
</a>
</g>
</g>
<!-- Node2 -->
<g id="node2" class="node">
<title>Node2</title>
<g id="a_node2"><a xlink:href="AnalyticalIdealSolution_8hpp.html" target="_top" xlink:title="Analytical thermodynamic description for an ideal solution.">
<polygon fill="none" stroke="black" points="0,-56.5 0,-75.5 158,-75.5 158,-56.5 0,-56.5"/>
<text text-anchor="middle" x="79" y="-63.5" font-family="serif" font-size="10.00">AnalyticalIdealSolution.hpp</text>
</a>
</g>
</g>
<!-- Node1&#45;&gt;Node2 -->
<g id="edge1" class="edge">
<title>Node1&#45;&gt;Node2</title>
<path fill="none" stroke="midnightblue" d="M226.59,-163.53C210.68,-154.9 189.88,-143.24 172,-132 141.81,-113.02 107.82,-88.39 90.5,-75.58"/>
<polygon fill="midnightblue" stroke="midnightblue" points="225.33,-166.83 235.79,-168.49 228.65,-160.66 225.33,-166.83"/>
</g>
<!-- Node3 -->
<g id="node3" class="node">
<title>Node3</title>
<g id="a_node3"><a xlink:href="sloth_8hpp.html" target="_top" xlink:title="List of SLOTH header files.">
<polygon fill="none" stroke="black" points="153.5,-0.5 153.5,-19.5 218.5,-19.5 218.5,-0.5 153.5,-0.5"/>
<text text-anchor="middle" x="186" y="-7.5" font-family="serif" font-size="10.00">sloth.hpp</text>
</a>
</g>
</g>
<!-- Node1&#45;&gt;Node3 -->
<g id="edge7" class="edge">
<title>Node1&#45;&gt;Node3</title>
<path fill="none" stroke="midnightblue" d="M231.23,-161.73C222.06,-153.88 212,-143.53 206,-132 186.14,-93.85 185.17,-40.57 185.64,-19.79"/>
<polygon fill="midnightblue" stroke="midnightblue" points="229.29,-164.66 239.28,-168.21 233.68,-159.21 229.29,-164.66"/>
</g>
<!-- Node4 -->
<g id="node4" class="node">
<title>Node4</title>
<g id="a_node4"><a xlink:href="CalphadInformedNeuralNetwork_8hpp.html" target="_top" xlink:title="Calphad&#45;informed neuronal network used to predict Calphad contributions.">
<polygon fill="none" stroke="black" points="214.5,-112.5 214.5,-131.5 423.5,-131.5 423.5,-112.5 214.5,-112.5"/>
<text text-anchor="middle" x="319" y="-119.5" font-family="serif" font-size="10.00">CalphadInformedNeuralNetwork.hpp</text>
</a>
</g>
</g>
<!-- Node1&#45;&gt;Node4 -->
<g id="edge3" class="edge">
<title>Node1&#45;&gt;Node4</title>
<path fill="none" stroke="midnightblue" d="M270.83,-161.82C282.84,-152.15 297.97,-139.95 308.04,-131.83"/>
<polygon fill="midnightblue" stroke="midnightblue" points="268.35,-159.32 262.76,-168.32 272.75,-164.77 268.35,-159.32"/>
</g>
<!-- Node5 -->
<g id="node5" class="node">
<title>Node5</title>
<g id="a_node5"><a xlink:href="Calphad__problem_8hpp.html" target="_top" xlink:title="Class used to defined a Calphad_Problem objet.">
<polygon fill="none" stroke="black" points="441.5,-112.5 441.5,-131.5 572.5,-131.5 572.5,-112.5 441.5,-112.5"/>
<text text-anchor="middle" x="507" y="-119.5" font-family="serif" font-size="10.00">Calphad_problem.hpp</text>
</a>
</g>
</g>
<!-- Node1&#45;&gt;Node5 -->
<g id="edge4" class="edge">
<title>Node1&#45;&gt;Node5</title>
<path fill="none" stroke="midnightblue" d="M302.31,-166.35C350.5,-156.14 422.28,-140.94 466.78,-131.52"/>
<polygon fill="midnightblue" stroke="midnightblue" points="301.46,-162.95 292.41,-168.44 302.91,-169.8 301.46,-162.95"/>
</g>
<!-- Node2&#45;&gt;Node3 -->
<g id="edge2" class="edge">
<title>Node2&#45;&gt;Node3</title>
<path fill="none" stroke="midnightblue" d="M105.3,-51.73C125.11,-41.73 151.71,-28.31 168.85,-19.65"/>
<polygon fill="midnightblue" stroke="midnightblue" points="103.54,-48.69 96.19,-56.32 106.7,-54.94 103.54,-48.69"/>
</g>
<!-- Node6 -->
<g id="node6" class="node">
<title>Node6</title>
<g id="a_node6"><a xlink:href="ListProblems_8hpp.html" target="_top" xlink:title=" ">
<polygon fill="none" stroke="black" points="333.5,-56.5 333.5,-75.5 440.5,-75.5 440.5,-56.5 333.5,-56.5"/>
<text text-anchor="middle" x="387" y="-63.5" font-family="serif" font-size="10.00">ListProblems.hpp</text>
</a>
</g>
</g>
<!-- Node5&#45;&gt;Node6 -->
<g id="edge5" class="edge">
<title>Node5&#45;&gt;Node6</title>
<path fill="none" stroke="midnightblue" d="M478.63,-108.23C456.18,-98.13 425.46,-84.31 405.93,-75.52"/>
<polygon fill="midnightblue" stroke="midnightblue" points="477.43,-111.53 487.99,-112.44 480.3,-105.15 477.43,-111.53"/>
</g>
<!-- Node6&#45;&gt;Node3 -->
<g id="edge6" class="edge">
<title>Node6&#45;&gt;Node3</title>
<path fill="none" stroke="midnightblue" d="M345.42,-53.83C307.47,-43.63 252.19,-28.78 217.7,-19.52"/>
<polygon fill="midnightblue" stroke="midnightblue" points="344.59,-57.23 355.15,-56.44 346.4,-50.47 344.59,-57.23"/>
</g>
</g>
</svg>
