<?xml version="1.0" encoding="UTF-8" standalone="no"?>
<!DOCTYPE svg PUBLIC "-//W3C//DTD SVG 1.1//EN"
 "http://www.w3.org/Graphics/SVG/1.1/DTD/svg11.dtd">
<!-- Generated by graphviz version 2.43.0 (0)
 -->
<!-- Title: CalphadUtils.hpp Pages: 1 -->
<svg width="593pt" height="252pt"
 viewBox="0.00 0.00 593.11 252.00" xmlns="http://www.w3.org/2000/svg" xmlns:xlink="http://www.w3.org/1999/xlink">
<g id="graph0" class="graph" transform="scale(1 1) rotate(0) translate(4 248)">
<title>CalphadUtils.hpp</title>
<!-- Node1 -->
<g id="node1" class="node">
<title>Node1</title>
<g id="a_node1"><a xlink:title="Class of methods usefull for to compute equilibrium state object.">
<polygon fill="#bfbfbf" stroke="black" points="321,-224.5 321,-243.5 427,-243.5 427,-224.5 321,-224.5"/>
<text text-anchor="middle" x="374" y="-231.5" font-family="serif" font-size="10.00">CalphadUtils.hpp</text>
</a>
</g>
</g>
<!-- Node2 -->
<g id="node2" class="node">
<title>Node2</title>
<g id="a_node2"><a xlink:href="AnalyticalIdealSolution_8hpp.html" target="_top" xlink:title="Analytical thermodynamic description for an ideal solution.">
<polygon fill="none" stroke="black" points="0,-112.5 0,-131.5 158,-131.5 158,-112.5 0,-112.5"/>
<text text-anchor="middle" x="79" y="-119.5" font-family="serif" font-size="10.00">AnalyticalIdealSolution.hpp</text>
</a>
</g>
</g>
<!-- Node1&#45;&gt;Node2 -->
<g id="edge1" class="edge">
<title>Node1&#45;&gt;Node2</title>
<path fill="none" stroke="midnightblue" d="M328.07,-221.92C296.42,-213.78 253.64,-201.78 217,-188 171.64,-170.94 120.61,-145.06 95.2,-131.68"/>
<polygon fill="midnightblue" stroke="midnightblue" points="327.37,-225.35 337.93,-224.42 329.09,-218.57 327.37,-225.35"/>
</g>
<!-- Node4 -->
<g id="node4" class="node">
<title>Node4</title>
<g id="a_node4"><a xlink:href="CalphadBase_8hpp.html" target="_top" xlink:title="Base class for Calphad objets.">
<polygon fill="none" stroke="black" points="226.5,-168.5 226.5,-187.5 333.5,-187.5 333.5,-168.5 226.5,-168.5"/>
<text text-anchor="middle" x="280" y="-175.5" font-family="serif" font-size="10.00">CalphadBase.hpp</text>
</a>
</g>
</g>
<!-- Node1&#45;&gt;Node4 -->
<g id="edge3" class="edge">
<title>Node1&#45;&gt;Node4</title>
<path fill="none" stroke="midnightblue" d="M349.94,-219.18C332.64,-209.24 309.85,-196.15 295.07,-187.65"/>
<polygon fill="midnightblue" stroke="midnightblue" points="348.48,-222.38 358.9,-224.32 351.97,-216.31 348.48,-222.38"/>
</g>
<!-- Node5 -->
<g id="node5" class="node">
<title>Node5</title>
<g id="a_node5"><a xlink:href="CalphadInformedNeuralNetwork_8hpp.html" target="_top" xlink:title="Calphad&#45;informed neuronal network used to predict Calphad contributions.">
<polygon fill="none" stroke="black" points="363.5,-112.5 363.5,-131.5 572.5,-131.5 572.5,-112.5 363.5,-112.5"/>
<text text-anchor="middle" x="468" y="-119.5" font-family="serif" font-size="10.00">CalphadInformedNeuralNetwork.hpp</text>
</a>
</g>
</g>
<!-- Node1&#45;&gt;Node5 -->
<g id="edge10" class="edge">
<title>Node1&#45;&gt;Node5</title>
<path fill="none" stroke="midnightblue" d="M388.03,-216.59C408.29,-192.87 445.04,-149.87 460.66,-131.59"/>
<polygon fill="midnightblue" stroke="midnightblue" points="385.21,-214.49 381.38,-224.37 390.53,-219.04 385.21,-214.49"/>
</g>
<!-- Node8 -->
<g id="node8" class="node">
<title>Node8</title>
<g id="a_node8"><a xlink:href="KKS_8hpp.html" target="_top" xlink:title="All needed for Calphad calculation including KKS model.">
<polygon fill="none" stroke="black" points="458,-56.5 458,-75.5 520,-75.5 520,-56.5 458,-56.5"/>
<text text-anchor="middle" x="489" y="-63.5" font-family="serif" font-size="10.00">KKS.hpp</text>
</a>
</g>
</g>
<!-- Node1&#45;&gt;Node8 -->
<g id="edge11" class="edge">
<title>Node1&#45;&gt;Node8</title>
<path fill="none" stroke="midnightblue" d="M432.76,-222.07C481.83,-209.5 548.79,-183.56 581,-132 598.46,-104.05 553.08,-84.74 520.02,-74.8"/>
<polygon fill="midnightblue" stroke="midnightblue" points="431.77,-218.7 422.89,-224.48 433.44,-225.5 431.77,-218.7"/>
</g>
<!-- Node3 -->
<g id="node3" class="node">
<title>Node3</title>
<g id="a_node3"><a xlink:href="sloth_8hpp.html" target="_top" xlink:title="List of SLOTH header files.">
<polygon fill="none" stroke="black" points="197.5,-0.5 197.5,-19.5 262.5,-19.5 262.5,-0.5 197.5,-0.5"/>
<text text-anchor="middle" x="230" y="-7.5" font-family="serif" font-size="10.00">sloth.hpp</text>
</a>
</g>
</g>
<!-- Node2&#45;&gt;Node3 -->
<g id="edge2" class="edge">
<title>Node2&#45;&gt;Node3</title>
<path fill="none" stroke="midnightblue" d="M99.02,-106.42C130.96,-83.15 192.46,-38.35 218.21,-19.59"/>
<polygon fill="midnightblue" stroke="midnightblue" points="96.87,-103.65 90.85,-112.37 100.99,-109.31 96.87,-103.65"/>
</g>
<!-- Node4&#45;&gt;Node2 -->
<g id="edge4" class="edge">
<title>Node4&#45;&gt;Node2</title>
<path fill="none" stroke="midnightblue" d="M238.42,-165.83C200.47,-155.63 145.19,-140.78 110.7,-131.52"/>
<polygon fill="midnightblue" stroke="midnightblue" points="237.59,-169.23 248.15,-168.44 239.4,-162.47 237.59,-169.23"/>
</g>
<!-- Node4&#45;&gt;Node3 -->
<g id="edge9" class="edge">
<title>Node4&#45;&gt;Node3</title>
<path fill="none" stroke="midnightblue" d="M243.29,-164.27C228.66,-157.18 213.35,-146.74 205,-132 183.55,-94.11 211.84,-40.23 224.47,-19.54"/>
<polygon fill="midnightblue" stroke="midnightblue" points="242.16,-167.6 252.72,-168.45 245,-161.2 242.16,-167.6"/>
</g>
<!-- Node4&#45;&gt;Node5 -->
<g id="edge5" class="edge">
<title>Node4&#45;&gt;Node5</title>
<path fill="none" stroke="midnightblue" d="M319.8,-165.57C355.27,-155.38 406.37,-140.7 438.35,-131.52"/>
<polygon fill="midnightblue" stroke="midnightblue" points="318.43,-162.32 309.79,-168.44 320.37,-169.05 318.43,-162.32"/>
</g>
<!-- Node6 -->
<g id="node6" class="node">
<title>Node6</title>
<g id="a_node6"><a xlink:href="Calphad__problem_8hpp.html" target="_top" xlink:title="Class used to defined a Calphad_Problem objet.">
<polygon fill="none" stroke="black" points="214.5,-112.5 214.5,-131.5 345.5,-131.5 345.5,-112.5 214.5,-112.5"/>
<text text-anchor="middle" x="280" y="-119.5" font-family="serif" font-size="10.00">Calphad_problem.hpp</text>
</a>
</g>
</g>
<!-- Node4&#45;&gt;Node6 -->
<g id="edge6" class="edge">
<title>Node4&#45;&gt;Node6</title>
<path fill="none" stroke="midnightblue" d="M280,-157.8C280,-148.91 280,-138.78 280,-131.75"/>
<polygon fill="midnightblue" stroke="midnightblue" points="276.5,-158.08 280,-168.08 283.5,-158.08 276.5,-158.08"/>
</g>
<!-- Node7 -->
<g id="node7" class="node">
<title>Node7</title>
<g id="a_node7"><a xlink:href="ListProblems_8hpp.html" target="_top" xlink:title=" ">
<polygon fill="none" stroke="black" points="220.5,-56.5 220.5,-75.5 327.5,-75.5 327.5,-56.5 220.5,-56.5"/>
<text text-anchor="middle" x="274" y="-63.5" font-family="serif" font-size="10.00">ListProblems.hpp</text>
</a>
</g>
</g>
<!-- Node6&#45;&gt;Node7 -->
<g id="edge7" class="edge">
<title>Node6&#45;&gt;Node7</title>
<path fill="none" stroke="midnightblue" d="M277.9,-102.1C276.9,-93.14 275.76,-82.86 274.97,-75.75"/>
<polygon fill="midnightblue" stroke="midnightblue" points="274.43,-102.53 279.01,-112.08 281.38,-101.76 274.43,-102.53"/>
</g>
<!-- Node7&#45;&gt;Node3 -->
<g id="edge8" class="edge">
<title>Node7&#45;&gt;Node3</title>
<path fill="none" stroke="midnightblue" d="M260.27,-48.14C252.6,-38.74 243.37,-27.4 237.13,-19.75"/>
<polygon fill="midnightblue" stroke="midnightblue" points="257.7,-50.54 266.73,-56.08 263.13,-46.12 257.7,-50.54"/>
</g>
<!-- Node8&#45;&gt;Node3 -->
<g id="edge12" class="edge">
<title>Node8&#45;&gt;Node3</title>
<path fill="none" stroke="midnightblue" d="M447.66,-56.38C396.24,-45.66 309.53,-27.58 262.57,-17.79"/>
<polygon fill="midnightblue" stroke="midnightblue" points="447.25,-59.87 457.76,-58.49 448.68,-53.02 447.25,-59.87"/>
</g>
</g>
</svg>
