<?xml version="1.0" encoding="UTF-8" standalone="no"?>
<!DOCTYPE svg PUBLIC "-//W3C//DTD SVG 1.1//EN"
 "http://www.w3.org/Graphics/SVG/1.1/DTD/svg11.dtd">
<!-- Generated by graphviz version 2.43.0 (0)
 -->
<!-- Title: CalphadOptions.cpp Pages: 1 -->
<svg width="1470pt" height="308pt"
 viewBox="0.00 0.00 1469.50 308.00" xmlns="http://www.w3.org/2000/svg" xmlns:xlink="http://www.w3.org/1999/xlink">
<g id="graph0" class="graph" transform="scale(1 1) rotate(0) translate(4 304)">
<title>CalphadOptions.cpp</title>
<!-- Node1 -->
<g id="node1" class="node">
<title>Node1</title>
<g id="a_node1"><a xlink:title="Options for Calphad problems.">
<polygon fill="#bfbfbf" stroke="black" points="1076,-280.5 1076,-299.5 1197,-299.5 1197,-280.5 1076,-280.5"/>
<text text-anchor="middle" x="1136.5" y="-287.5" font-family="serif" font-size="10.00">CalphadOptions.cpp</text>
</a>
</g>
</g>
<!-- Node2 -->
<g id="node2" class="node">
<title>Node2</title>
<g id="a_node2"><a xlink:href="CalphadOptions_8hpp.html" target="_top" xlink:title="Options for Calphad problems.">
<polygon fill="none" stroke="black" points="1054,-224.5 1054,-243.5 1219,-243.5 1219,-224.5 1054,-224.5"/>
<text text-anchor="middle" x="1136.5" y="-231.5" font-family="serif" font-size="10.00">Options/CalphadOptions.hpp</text>
</a>
</g>
</g>
<!-- Node1&#45;&gt;Node2 -->
<g id="edge1" class="edge">
<title>Node1&#45;&gt;Node2</title>
<path fill="none" stroke="midnightblue" d="M1136.5,-280.08C1136.5,-273.01 1136.5,-262.86 1136.5,-253.99"/>
<polygon fill="midnightblue" stroke="midnightblue" points="1140,-253.75 1136.5,-243.75 1133,-253.75 1140,-253.75"/>
</g>
<!-- Node3 -->
<g id="node3" class="node">
<title>Node3</title>
<g id="a_node3"><a xlink:title=" ">
<polygon fill="none" stroke="#bfbfbf" points="1059.5,-0.5 1059.5,-19.5 1103.5,-19.5 1103.5,-0.5 1059.5,-0.5"/>
<text text-anchor="middle" x="1081.5" y="-7.5" font-family="serif" font-size="10.00">limits</text>
</a>
</g>
</g>
<!-- Node1&#45;&gt;Node3 -->
<g id="edge52" class="edge">
<title>Node1&#45;&gt;Node3</title>
<path fill="none" stroke="midnightblue" d="M1189.78,-280.5C1214.35,-274.13 1242.26,-263.09 1261.5,-244 1283.36,-222.31 1285.5,-209.8 1285.5,-179 1285.5,-179 1285.5,-179 1285.5,-121 1285.5,-43.91 1171.26,-20.6 1113.76,-13.75"/>
<polygon fill="midnightblue" stroke="midnightblue" points="1114.04,-10.26 1103.72,-12.65 1113.28,-17.22 1114.04,-10.26"/>
</g>
<!-- Node4 -->
<g id="node4" class="node">
<title>Node4</title>
<g id="a_node4"><a xlink:title=" ">
<polygon fill="none" stroke="#bfbfbf" points="833,-0.5 833,-19.5 880,-19.5 880,-0.5 833,-0.5"/>
<text text-anchor="middle" x="856.5" y="-7.5" font-family="serif" font-size="10.00">string</text>
</a>
</g>
</g>
<!-- Node1&#45;&gt;Node4 -->
<g id="edge53" class="edge">
<title>Node1&#45;&gt;Node4</title>
<path fill="none" stroke="midnightblue" d="M1098.4,-280.35C1078.83,-273.8 1056.62,-262.63 1044.5,-244 998.92,-173.9 1090.22,-120.9 1037.5,-56 1032.8,-50.21 941.05,-29.43 890.03,-18.25"/>
<polygon fill="midnightblue" stroke="midnightblue" points="890.63,-14.8 880.11,-16.08 889.13,-21.64 890.63,-14.8"/>
</g>
<!-- Node5 -->
<g id="node5" class="node">
<title>Node5</title>
<g id="a_node5"><a xlink:title=" ">
<polygon fill="none" stroke="#bfbfbf" points="913.5,-0.5 913.5,-19.5 961.5,-19.5 961.5,-0.5 913.5,-0.5"/>
<text text-anchor="middle" x="937.5" y="-7.5" font-family="serif" font-size="10.00">vector</text>
</a>
</g>
</g>
<!-- Node1&#45;&gt;Node5 -->
<g id="edge54" class="edge">
<title>Node1&#45;&gt;Node5</title>
<path fill="none" stroke="midnightblue" d="M1174.47,-280.41C1193.91,-273.88 1215.88,-262.72 1227.5,-244 1248.6,-210.03 1268.24,-158.15 1130.5,-56 1083.34,-21.03 1013.3,-12.68 971.83,-11.01"/>
<polygon fill="midnightblue" stroke="midnightblue" points="971.78,-7.51 961.69,-10.71 971.58,-14.5 971.78,-7.51"/>
</g>
<!-- Node6 -->
<g id="node6" class="node">
<title>Node6</title>
<g id="a_node6"><a xlink:href="Utils_8hpp.html" target="_top" xlink:title="List of all Utils files.">
<polygon fill="none" stroke="black" points="893,-168.5 893,-187.5 982,-187.5 982,-168.5 893,-168.5"/>
<text text-anchor="middle" x="937.5" y="-175.5" font-family="serif" font-size="10.00">Utils/Utils.hpp</text>
</a>
</g>
</g>
<!-- Node1&#45;&gt;Node6 -->
<g id="edge55" class="edge">
<title>Node1&#45;&gt;Node6</title>
<path fill="none" stroke="midnightblue" d="M1102.35,-280.47C1076.33,-273.09 1040.2,-260.94 1011.5,-244 988.64,-230.51 966.29,-209.47 952.24,-195.01"/>
<polygon fill="midnightblue" stroke="midnightblue" points="954.76,-192.58 945.34,-187.74 949.68,-197.4 954.76,-192.58"/>
</g>
<!-- Node2&#45;&gt;Node3 -->
<g id="edge2" class="edge">
<title>Node2&#45;&gt;Node3</title>
<path fill="none" stroke="midnightblue" d="M1140.07,-224.23C1150.44,-197.22 1178,-113.71 1147.5,-56 1140.02,-41.85 1125.88,-31.32 1112.6,-24.01"/>
<polygon fill="midnightblue" stroke="midnightblue" points="1114.14,-20.87 1103.63,-19.47 1110.97,-27.11 1114.14,-20.87"/>
</g>
<!-- Node2&#45;&gt;Node4 -->
<g id="edge3" class="edge">
<title>Node2&#45;&gt;Node4</title>
<path fill="none" stroke="midnightblue" d="M1136.13,-224.37C1134.41,-195.58 1124.76,-102.02 1071.5,-56 1068.05,-53.02 950.03,-29.43 890.35,-17.65"/>
<polygon fill="midnightblue" stroke="midnightblue" points="890.75,-14.16 880.27,-15.66 889.4,-21.03 890.75,-14.16"/>
</g>
<!-- Node2&#45;&gt;Node5 -->
<g id="edge4" class="edge">
<title>Node2&#45;&gt;Node5</title>
<path fill="none" stroke="midnightblue" d="M1138.15,-224.26C1142.97,-195.91 1154.02,-105.43 1109.5,-56 1091.29,-35.77 1016.54,-22.06 971.79,-15.48"/>
<polygon fill="midnightblue" stroke="midnightblue" points="972.05,-11.98 961.65,-14.04 971.06,-18.91 972.05,-11.98"/>
</g>
<!-- Node2&#45;&gt;Node6 -->
<g id="edge5" class="edge">
<title>Node2&#45;&gt;Node6</title>
<path fill="none" stroke="midnightblue" d="M1104.97,-224.44C1070.91,-215.2 1016.49,-200.44 978.98,-190.26"/>
<polygon fill="midnightblue" stroke="midnightblue" points="979.45,-186.76 968.88,-187.52 977.62,-193.51 979.45,-186.76"/>
</g>
<!-- Node7 -->
<g id="node7" class="node">
<title>Node7</title>
<g id="a_node7"><a xlink:href="UtilsForData_8hpp.html" target="_top" xlink:title="Usefull methods for data.">
<polygon fill="none" stroke="black" points="198,-56.5 198,-75.5 329,-75.5 329,-56.5 198,-56.5"/>
<text text-anchor="middle" x="263.5" y="-63.5" font-family="serif" font-size="10.00">Utils/UtilsForData.hpp</text>
</a>
</g>
</g>
<!-- Node6&#45;&gt;Node7 -->
<g id="edge6" class="edge">
<title>Node6&#45;&gt;Node7</title>
<path fill="none" stroke="midnightblue" d="M892.72,-175.82C758.59,-172.01 366.23,-158.68 315.5,-132 295.77,-121.63 280.94,-100.16 272.27,-84.73"/>
<polygon fill="midnightblue" stroke="midnightblue" points="275.23,-82.85 267.47,-75.65 269.04,-86.12 275.23,-82.85"/>
</g>
<!-- Node19 -->
<g id="node19" class="node">
<title>Node19</title>
<g id="a_node19"><a xlink:href="UtilsForDebug_8hpp.html" target="_top" xlink:title="Usefull methods for debug.">
<polygon fill="none" stroke="black" points="325,-112.5 325,-131.5 466,-131.5 466,-112.5 325,-112.5"/>
<text text-anchor="middle" x="395.5" y="-119.5" font-family="serif" font-size="10.00">Utils/UtilsForDebug.hpp</text>
</a>
</g>
</g>
<!-- Node6&#45;&gt;Node19 -->
<g id="edge20" class="edge">
<title>Node6&#45;&gt;Node19</title>
<path fill="none" stroke="midnightblue" d="M892.68,-172.54C801.35,-163.43 592.52,-142.63 476.67,-131.09"/>
<polygon fill="midnightblue" stroke="midnightblue" points="476.74,-127.58 466.44,-130.07 476.05,-134.54 476.74,-127.58"/>
</g>
<!-- Node22 -->
<g id="node22" class="node">
<title>Node22</title>
<g id="a_node22"><a xlink:href="UtilsForOptions_8hpp.html" target="_top" xlink:title="Usefull methods for Options.">
<polygon fill="none" stroke="black" points="643.5,-56.5 643.5,-75.5 789.5,-75.5 789.5,-56.5 643.5,-56.5"/>
<text text-anchor="middle" x="716.5" y="-63.5" font-family="serif" font-size="10.00">Utils/UtilsForOptions.hpp</text>
</a>
</g>
</g>
<!-- Node6&#45;&gt;Node22 -->
<g id="edge31" class="edge">
<title>Node6&#45;&gt;Node22</title>
<path fill="none" stroke="midnightblue" d="M920.16,-168.37C881.59,-149.17 788.51,-102.84 742.77,-80.07"/>
<polygon fill="midnightblue" stroke="midnightblue" points="744.27,-76.91 733.76,-75.59 741.15,-83.18 744.27,-76.91"/>
</g>
<!-- Node24 -->
<g id="node24" class="node">
<title>Node24</title>
<g id="a_node24"><a xlink:href="UtilsForPostProcessing_8hpp.html" target="_top" xlink:title="Usefull methods for post&#45;processing.">
<polygon fill="none" stroke="black" points="846,-56.5 846,-75.5 1029,-75.5 1029,-56.5 846,-56.5"/>
<text text-anchor="middle" x="937.5" y="-63.5" font-family="serif" font-size="10.00">Utils/UtilsForPostProcessing.hpp</text>
</a>
</g>
</g>
<!-- Node6&#45;&gt;Node24 -->
<g id="edge41" class="edge">
<title>Node6&#45;&gt;Node24</title>
<path fill="none" stroke="midnightblue" d="M937.5,-168.37C937.5,-150.62 937.5,-109.67 937.5,-85.6"/>
<polygon fill="midnightblue" stroke="midnightblue" points="941,-85.59 937.5,-75.59 934,-85.59 941,-85.59"/>
</g>
<!-- Node25 -->
<g id="node25" class="node">
<title>Node25</title>
<g id="a_node25"><a xlink:href="UtilsForVariants_8hpp.html" target="_top" xlink:title="manage std::Variants">
<polygon fill="none" stroke="black" points="1313.5,-56.5 1313.5,-75.5 1461.5,-75.5 1461.5,-56.5 1313.5,-56.5"/>
<text text-anchor="middle" x="1387.5" y="-63.5" font-family="serif" font-size="10.00">Utils/UtilsForVariants.hpp</text>
</a>
</g>
</g>
<!-- Node6&#45;&gt;Node25 -->
<g id="edge48" class="edge">
<title>Node6&#45;&gt;Node25</title>
<path fill="none" stroke="midnightblue" d="M972.44,-168.46C1053.26,-148.7 1253.09,-99.86 1342.73,-77.94"/>
<polygon fill="midnightblue" stroke="midnightblue" points="1343.7,-81.31 1352.59,-75.53 1342.04,-74.51 1343.7,-81.31"/>
</g>
<!-- Node7&#45;&gt;Node4 -->
<g id="edge15" class="edge">
<title>Node7&#45;&gt;Node4</title>
<path fill="none" stroke="midnightblue" d="M329.04,-61.68C431.47,-56.02 635.59,-42.84 807.5,-20 812.39,-19.35 817.53,-18.54 822.57,-17.68"/>
<polygon fill="midnightblue" stroke="midnightblue" points="823.43,-21.08 832.65,-15.87 822.19,-14.19 823.43,-21.08"/>
</g>
<!-- Node7&#45;&gt;Node5 -->
<g id="edge18" class="edge">
<title>Node7&#45;&gt;Node5</title>
<path fill="none" stroke="midnightblue" d="M329.02,-61.2C466.61,-53.06 781.73,-33.61 888.5,-20 893.34,-19.38 898.43,-18.6 903.41,-17.76"/>
<polygon fill="midnightblue" stroke="midnightblue" points="904.18,-21.18 913.41,-15.97 902.95,-14.29 904.18,-21.18"/>
</g>
<!-- Node8 -->
<g id="node8" class="node">
<title>Node8</title>
<g id="a_node8"><a xlink:title=" ">
<polygon fill="none" stroke="#bfbfbf" points="152,-0.5 152,-19.5 211,-19.5 211,-0.5 152,-0.5"/>
<text text-anchor="middle" x="181.5" y="-7.5" font-family="serif" font-size="10.00">unistd.h</text>
</a>
</g>
</g>
<!-- Node7&#45;&gt;Node8 -->
<g id="edge7" class="edge">
<title>Node7&#45;&gt;Node8</title>
<path fill="none" stroke="midnightblue" d="M250.33,-56.32C237.65,-47.98 218.27,-35.21 203.29,-25.35"/>
<polygon fill="midnightblue" stroke="midnightblue" points="204.92,-22.23 194.64,-19.65 201.07,-28.08 204.92,-22.23"/>
</g>
<!-- Node9 -->
<g id="node9" class="node">
<title>Node9</title>
<g id="a_node9"><a xlink:title=" ">
<polygon fill="none" stroke="#bfbfbf" points="732.5,-0.5 732.5,-19.5 798.5,-19.5 798.5,-0.5 732.5,-0.5"/>
<text text-anchor="middle" x="765.5" y="-7.5" font-family="serif" font-size="10.00">algorithm</text>
</a>
</g>
</g>
<!-- Node7&#45;&gt;Node9 -->
<g id="edge8" class="edge">
<title>Node7&#45;&gt;Node9</title>
<path fill="none" stroke="midnightblue" d="M329.31,-60.92C416.85,-54.97 576.57,-42.29 722.09,-20.06"/>
<polygon fill="midnightblue" stroke="midnightblue" points="722.75,-23.5 732.09,-18.52 721.68,-16.59 722.75,-23.5"/>
</g>
<!-- Node10 -->
<g id="node10" class="node">
<title>Node10</title>
<g id="a_node10"><a xlink:title=" ">
<polygon fill="none" stroke="#bfbfbf" points="373.5,-0.5 373.5,-19.5 423.5,-19.5 423.5,-0.5 373.5,-0.5"/>
<text text-anchor="middle" x="398.5" y="-7.5" font-family="serif" font-size="10.00">cctype</text>
</a>
</g>
</g>
<!-- Node7&#45;&gt;Node10 -->
<g id="edge9" class="edge">
<title>Node7&#45;&gt;Node10</title>
<path fill="none" stroke="midnightblue" d="M284.89,-56.44C307.21,-47.52 342.4,-33.44 367.71,-23.32"/>
<polygon fill="midnightblue" stroke="midnightblue" points="369.22,-26.48 377.21,-19.52 366.62,-19.98 369.22,-26.48"/>
</g>
<!-- Node11 -->
<g id="node11" class="node">
<title>Node11</title>
<g id="a_node11"><a xlink:title=" ">
<polygon fill="none" stroke="#bfbfbf" points="0,-0.5 0,-19.5 47,-19.5 47,-0.5 0,-0.5"/>
<text text-anchor="middle" x="23.5" y="-7.5" font-family="serif" font-size="10.00">cstdio</text>
</a>
</g>
</g>
<!-- Node7&#45;&gt;Node11 -->
<g id="edge10" class="edge">
<title>Node7&#45;&gt;Node11</title>
<path fill="none" stroke="midnightblue" d="M220.3,-56.46C180.25,-48.36 118.79,-35.47 57.12,-20.3"/>
<polygon fill="midnightblue" stroke="midnightblue" points="57.77,-16.86 47.22,-17.85 56.09,-23.65 57.77,-16.86"/>
</g>
<!-- Node12 -->
<g id="node12" class="node">
<title>Node12</title>
<g id="a_node12"><a xlink:title=" ">
<polygon fill="none" stroke="#bfbfbf" points="229.5,-0.5 229.5,-19.5 297.5,-19.5 297.5,-0.5 229.5,-0.5"/>
<text text-anchor="middle" x="263.5" y="-7.5" font-family="serif" font-size="10.00">filesystem</text>
</a>
</g>
</g>
<!-- Node7&#45;&gt;Node12 -->
<g id="edge11" class="edge">
<title>Node7&#45;&gt;Node12</title>
<path fill="none" stroke="midnightblue" d="M263.5,-56.08C263.5,-49.01 263.5,-38.86 263.5,-29.99"/>
<polygon fill="midnightblue" stroke="midnightblue" points="267,-29.75 263.5,-19.75 260,-29.75 267,-29.75"/>
</g>
<!-- Node13 -->
<g id="node13" class="node">
<title>Node13</title>
<g id="a_node13"><a xlink:title=" ">
<polygon fill="none" stroke="#bfbfbf" points="441.5,-0.5 441.5,-19.5 509.5,-19.5 509.5,-0.5 441.5,-0.5"/>
<text text-anchor="middle" x="475.5" y="-7.5" font-family="serif" font-size="10.00">functional</text>
</a>
</g>
</g>
<!-- Node7&#45;&gt;Node13 -->
<g id="edge12" class="edge">
<title>Node7&#45;&gt;Node13</title>
<path fill="none" stroke="midnightblue" d="M297.09,-56.44C333.69,-47.12 392.34,-32.18 432.33,-22"/>
<polygon fill="midnightblue" stroke="midnightblue" points="433.24,-25.38 442.07,-19.52 431.51,-18.59 433.24,-25.38"/>
</g>
<!-- Node14 -->
<g id="node14" class="node">
<title>Node14</title>
<g id="a_node14"><a xlink:title=" ">
<polygon fill="none" stroke="#bfbfbf" points="589,-0.5 589,-19.5 650,-19.5 650,-0.5 589,-0.5"/>
<text text-anchor="middle" x="619.5" y="-7.5" font-family="serif" font-size="10.00">iostream</text>
</a>
</g>
</g>
<!-- Node7&#45;&gt;Node14 -->
<g id="edge13" class="edge">
<title>Node7&#45;&gt;Node14</title>
<path fill="none" stroke="midnightblue" d="M329.11,-57.21C390.94,-49.51 486.38,-36.73 578.88,-19.98"/>
<polygon fill="midnightblue" stroke="midnightblue" points="579.77,-23.37 588.98,-18.13 578.51,-16.49 579.77,-23.37"/>
</g>
<!-- Node15 -->
<g id="node15" class="node">
<title>Node15</title>
<g id="a_node15"><a xlink:title=" ">
<polygon fill="none" stroke="#bfbfbf" points="316,-0.5 316,-19.5 355,-19.5 355,-0.5 316,-0.5"/>
<text text-anchor="middle" x="335.5" y="-7.5" font-family="serif" font-size="10.00">map</text>
</a>
</g>
</g>
<!-- Node7&#45;&gt;Node15 -->
<g id="edge14" class="edge">
<title>Node7&#45;&gt;Node15</title>
<path fill="none" stroke="midnightblue" d="M275.07,-56.32C285.92,-48.18 302.38,-35.84 315.38,-26.09"/>
<polygon fill="midnightblue" stroke="midnightblue" points="317.82,-28.63 323.72,-19.83 313.62,-23.03 317.82,-28.63"/>
</g>
<!-- Node16 -->
<g id="node16" class="node">
<title>Node16</title>
<g id="a_node16"><a xlink:title=" ">
<polygon fill="none" stroke="#bfbfbf" points="528,-0.5 528,-19.5 571,-19.5 571,-0.5 528,-0.5"/>
<text text-anchor="middle" x="549.5" y="-7.5" font-family="serif" font-size="10.00">tuple</text>
</a>
</g>
</g>
<!-- Node7&#45;&gt;Node16 -->
<g id="edge16" class="edge">
<title>Node7&#45;&gt;Node16</title>
<path fill="none" stroke="midnightblue" d="M322.1,-56.5C371.79,-48.87 445.1,-36.64 518.07,-19.88"/>
<polygon fill="midnightblue" stroke="midnightblue" points="518.95,-23.27 527.9,-17.59 517.37,-16.45 518.95,-23.27"/>
</g>
<!-- Node17 -->
<g id="node17" class="node">
<title>Node17</title>
<g id="a_node17"><a xlink:title=" ">
<polygon fill="none" stroke="#bfbfbf" points="668.5,-0.5 668.5,-19.5 714.5,-19.5 714.5,-0.5 668.5,-0.5"/>
<text text-anchor="middle" x="691.5" y="-7.5" font-family="serif" font-size="10.00">utility</text>
</a>
</g>
</g>
<!-- Node7&#45;&gt;Node17 -->
<g id="edge17" class="edge">
<title>Node7&#45;&gt;Node17</title>
<path fill="none" stroke="midnightblue" d="M329.31,-60.59C406.02,-54.77 536.67,-42.7 658.31,-19.73"/>
<polygon fill="midnightblue" stroke="midnightblue" points="659.01,-23.16 668.17,-17.84 657.69,-16.28 659.01,-23.16"/>
</g>
<!-- Node18 -->
<g id="node18" class="node">
<title>Node18</title>
<g id="a_node18"><a xlink:title=" ">
<polygon fill="none" stroke="#bfbfbf" points="65,-0.5 65,-19.5 134,-19.5 134,-0.5 65,-0.5"/>
<text text-anchor="middle" x="99.5" y="-7.5" font-family="serif" font-size="10.00">mfem.hpp</text>
</a>
</g>
</g>
<!-- Node7&#45;&gt;Node18 -->
<g id="edge19" class="edge">
<title>Node7&#45;&gt;Node18</title>
<path fill="none" stroke="midnightblue" d="M237.51,-56.44C209.8,-47.32 165.75,-32.81 134.88,-22.65"/>
<polygon fill="midnightblue" stroke="midnightblue" points="135.96,-19.32 125.36,-19.52 133.77,-25.97 135.96,-19.32"/>
</g>
<!-- Node19&#45;&gt;Node4 -->
<g id="edge27" class="edge">
<title>Node19&#45;&gt;Node4</title>
<path fill="none" stroke="midnightblue" d="M466.08,-119.14C565.84,-115.51 742.2,-105.07 798.5,-76 819.42,-65.2 836.35,-43.49 846.4,-28.14"/>
<polygon fill="midnightblue" stroke="midnightblue" points="849.43,-29.9 851.74,-19.56 843.49,-26.2 849.43,-29.9"/>
</g>
<!-- Node19&#45;&gt;Node7 -->
<g id="edge29" class="edge">
<title>Node19&#45;&gt;Node7</title>
<path fill="none" stroke="midnightblue" d="M374.58,-112.44C352.76,-103.52 318.35,-89.44 293.61,-79.32"/>
<polygon fill="midnightblue" stroke="midnightblue" points="294.9,-76.06 284.32,-75.52 292.25,-82.54 294.9,-76.06"/>
</g>
<!-- Node19&#45;&gt;Node8 -->
<g id="edge22" class="edge">
<title>Node19&#45;&gt;Node8</title>
<path fill="none" stroke="midnightblue" d="M324.97,-114.44C272.36,-108 206.6,-96.14 188.5,-76 177.49,-63.74 176.71,-44.48 178.11,-30.1"/>
<polygon fill="midnightblue" stroke="midnightblue" points="181.62,-30.23 179.54,-19.85 174.69,-29.27 181.62,-30.23"/>
</g>
<!-- Node19&#45;&gt;Node11 -->
<g id="edge23" class="edge">
<title>Node19&#45;&gt;Node11</title>
<path fill="none" stroke="midnightblue" d="M324.95,-114.64C273.32,-108.51 202.16,-96.97 142.5,-76 106.19,-63.24 67.73,-40.27 44.67,-25.33"/>
<polygon fill="midnightblue" stroke="midnightblue" points="46.34,-22.24 36.06,-19.67 42.49,-28.09 46.34,-22.24"/>
</g>
<!-- Node19&#45;&gt;Node13 -->
<g id="edge25" class="edge">
<title>Node19&#45;&gt;Node13</title>
<path fill="none" stroke="midnightblue" d="M389.86,-112.3C382.1,-99.13 370.3,-73.78 381.5,-56 392.59,-38.4 412.67,-27.53 431.44,-20.9"/>
<polygon fill="midnightblue" stroke="midnightblue" points="432.63,-24.2 441.08,-17.81 430.49,-17.53 432.63,-24.2"/>
</g>
<!-- Node19&#45;&gt;Node14 -->
<g id="edge26" class="edge">
<title>Node19&#45;&gt;Node14</title>
<path fill="none" stroke="midnightblue" d="M396.13,-112.38C397.62,-98.37 402.67,-70.74 419.5,-56 419.5,-56 520.14,-33.36 578.64,-20.19"/>
<polygon fill="midnightblue" stroke="midnightblue" points="579.7,-23.54 588.69,-17.93 578.16,-16.71 579.7,-23.54"/>
</g>
<!-- Node19&#45;&gt;Node17 -->
<g id="edge28" class="edge">
<title>Node19&#45;&gt;Node17</title>
<path fill="none" stroke="midnightblue" d="M400.5,-112.15C409.1,-97.79 428.16,-69.68 452.5,-56 533.53,-10.47 567.79,-40.25 658.5,-20 658.6,-19.98 658.7,-19.95 658.8,-19.93"/>
<polygon fill="midnightblue" stroke="midnightblue" points="659.6,-23.34 668.49,-17.57 657.94,-16.54 659.6,-23.34"/>
</g>
<!-- Node19&#45;&gt;Node18 -->
<g id="edge30" class="edge">
<title>Node19&#45;&gt;Node18</title>
<path fill="none" stroke="midnightblue" d="M324.96,-115.68C280.29,-110.15 222.35,-98.9 175.5,-76 151.02,-64.03 127.99,-42.31 113.84,-27.29"/>
<polygon fill="midnightblue" stroke="midnightblue" points="116.26,-24.76 106.93,-19.74 111.1,-29.48 116.26,-24.76"/>
</g>
<!-- Node20 -->
<g id="node20" class="node">
<title>Node20</title>
<g id="a_node20"><a xlink:title=" ">
<polygon fill="none" stroke="#bfbfbf" points="461.5,-56.5 461.5,-75.5 551.5,-75.5 551.5,-56.5 461.5,-56.5"/>
<text text-anchor="middle" x="506.5" y="-63.5" font-family="serif" font-size="10.00">sys/resource.h</text>
</a>
</g>
</g>
<!-- Node19&#45;&gt;Node20 -->
<g id="edge21" class="edge">
<title>Node19&#45;&gt;Node20</title>
<path fill="none" stroke="midnightblue" d="M413.33,-112.32C431.22,-103.62 458.98,-90.12 479.55,-80.11"/>
<polygon fill="midnightblue" stroke="midnightblue" points="481.25,-83.18 488.71,-75.65 478.19,-76.88 481.25,-83.18"/>
</g>
<!-- Node21 -->
<g id="node21" class="node">
<title>Node21</title>
<g id="a_node21"><a xlink:title=" ">
<polygon fill="none" stroke="#bfbfbf" points="569.5,-56.5 569.5,-75.5 625.5,-75.5 625.5,-56.5 569.5,-56.5"/>
<text text-anchor="middle" x="597.5" y="-63.5" font-family="serif" font-size="10.00">fstream</text>
</a>
</g>
</g>
<!-- Node19&#45;&gt;Node21 -->
<g id="edge24" class="edge">
<title>Node19&#45;&gt;Node21</title>
<path fill="none" stroke="midnightblue" d="M427.51,-112.44C463.35,-102.86 521.4,-87.34 559.52,-77.15"/>
<polygon fill="midnightblue" stroke="midnightblue" points="560.47,-80.52 569.23,-74.56 558.66,-73.76 560.47,-80.52"/>
</g>
<!-- Node22&#45;&gt;Node3 -->
<g id="edge35" class="edge">
<title>Node22&#45;&gt;Node3</title>
<path fill="none" stroke="midnightblue" d="M774.34,-56.44C852.05,-44.95 987.55,-24.9 1049.25,-15.77"/>
<polygon fill="midnightblue" stroke="midnightblue" points="1049.81,-19.23 1059.19,-14.3 1048.79,-12.3 1049.81,-19.23"/>
</g>
<!-- Node22&#45;&gt;Node4 -->
<g id="edge36" class="edge">
<title>Node22&#45;&gt;Node4</title>
<path fill="none" stroke="midnightblue" d="M738.68,-56.44C761.93,-47.48 798.65,-33.31 824.92,-23.18"/>
<polygon fill="midnightblue" stroke="midnightblue" points="826.35,-26.38 834.42,-19.52 823.83,-19.85 826.35,-26.38"/>
</g>
<!-- Node22&#45;&gt;Node5 -->
<g id="edge40" class="edge">
<title>Node22&#45;&gt;Node5</title>
<path fill="none" stroke="midnightblue" d="M751.52,-56.44C793.15,-46.27 862.15,-29.41 903.38,-19.34"/>
<polygon fill="midnightblue" stroke="midnightblue" points="904.34,-22.7 913.23,-16.93 902.68,-15.9 904.34,-22.7"/>
</g>
<!-- Node22&#45;&gt;Node9 -->
<g id="edge32" class="edge">
<title>Node22&#45;&gt;Node9</title>
<path fill="none" stroke="midnightblue" d="M724.59,-56.08C731.66,-48.3 742.09,-36.8 750.65,-27.37"/>
<polygon fill="midnightblue" stroke="midnightblue" points="753.43,-29.51 757.56,-19.75 748.25,-24.8 753.43,-29.51"/>
</g>
<!-- Node22&#45;&gt;Node13 -->
<g id="edge33" class="edge">
<title>Node22&#45;&gt;Node13</title>
<path fill="none" stroke="midnightblue" d="M678.31,-56.44C635.13,-46.77 564.92,-31.04 519.47,-20.85"/>
<polygon fill="midnightblue" stroke="midnightblue" points="520.14,-17.41 509.61,-18.64 518.6,-24.25 520.14,-17.41"/>
</g>
<!-- Node22&#45;&gt;Node14 -->
<g id="edge34" class="edge">
<title>Node22&#45;&gt;Node14</title>
<path fill="none" stroke="midnightblue" d="M700.92,-56.32C685.5,-47.74 661.69,-34.49 643.79,-24.52"/>
<polygon fill="midnightblue" stroke="midnightblue" points="645.49,-21.46 635.05,-19.65 642.08,-27.58 645.49,-21.46"/>
</g>
<!-- Node22&#45;&gt;Node16 -->
<g id="edge37" class="edge">
<title>Node22&#45;&gt;Node16</title>
<path fill="none" stroke="midnightblue" d="M690.04,-56.44C660.33,-46.84 612.16,-31.26 580.66,-21.07"/>
<polygon fill="midnightblue" stroke="midnightblue" points="581.65,-17.72 571.06,-17.97 579.5,-24.38 581.65,-17.72"/>
</g>
<!-- Node22&#45;&gt;Node17 -->
<g id="edge38" class="edge">
<title>Node22&#45;&gt;Node17</title>
<path fill="none" stroke="midnightblue" d="M712.37,-56.08C708.99,-48.77 704.08,-38.18 699.88,-29.1"/>
<polygon fill="midnightblue" stroke="midnightblue" points="702.93,-27.36 695.55,-19.75 696.58,-30.3 702.93,-27.36"/>
</g>
<!-- Node23 -->
<g id="node23" class="node">
<title>Node23</title>
<g id="a_node23"><a xlink:title=" ">
<polygon fill="none" stroke="#bfbfbf" points="1200,-0.5 1200,-19.5 1253,-19.5 1253,-0.5 1200,-0.5"/>
<text text-anchor="middle" x="1226.5" y="-7.5" font-family="serif" font-size="10.00">variant</text>
</a>
</g>
</g>
<!-- Node22&#45;&gt;Node23 -->
<g id="edge39" class="edge">
<title>Node22&#45;&gt;Node23</title>
<path fill="none" stroke="midnightblue" d="M789.57,-57.26C900.24,-45.54 1106.31,-23.73 1189.88,-14.88"/>
<polygon fill="midnightblue" stroke="midnightblue" points="1190.34,-18.35 1199.91,-13.82 1189.6,-11.39 1190.34,-18.35"/>
</g>
<!-- Node24&#45;&gt;Node3 -->
<g id="edge44" class="edge">
<title>Node24&#45;&gt;Node3</title>
<path fill="none" stroke="midnightblue" d="M960.32,-56.44C984.47,-47.39 1022.78,-33.02 1049.85,-22.87"/>
<polygon fill="midnightblue" stroke="midnightblue" points="1051.13,-26.13 1059.26,-19.34 1048.67,-19.57 1051.13,-26.13"/>
</g>
<!-- Node24&#45;&gt;Node4 -->
<g id="edge45" class="edge">
<title>Node24&#45;&gt;Node4</title>
<path fill="none" stroke="midnightblue" d="M924.49,-56.32C911.97,-47.98 892.82,-35.21 878.03,-25.35"/>
<polygon fill="midnightblue" stroke="midnightblue" points="879.74,-22.29 869.48,-19.65 875.86,-28.11 879.74,-22.29"/>
</g>
<!-- Node24&#45;&gt;Node5 -->
<g id="edge47" class="edge">
<title>Node24&#45;&gt;Node5</title>
<path fill="none" stroke="midnightblue" d="M937.5,-56.08C937.5,-49.01 937.5,-38.86 937.5,-29.99"/>
<polygon fill="midnightblue" stroke="midnightblue" points="941,-29.75 937.5,-19.75 934,-29.75 941,-29.75"/>
</g>
<!-- Node24&#45;&gt;Node9 -->
<g id="edge42" class="edge">
<title>Node24&#45;&gt;Node9</title>
<path fill="none" stroke="midnightblue" d="M910.25,-56.44C881.06,-47.28 834.58,-32.69 802.19,-22.52"/>
<polygon fill="midnightblue" stroke="midnightblue" points="803.22,-19.17 792.63,-19.52 801.12,-25.85 803.22,-19.17"/>
</g>
<!-- Node24&#45;&gt;Node14 -->
<g id="edge43" class="edge">
<title>Node24&#45;&gt;Node14</title>
<path fill="none" stroke="midnightblue" d="M878.2,-56.47C824,-48.43 741.39,-35.57 659.96,-19.99"/>
<polygon fill="midnightblue" stroke="midnightblue" points="660.52,-16.53 650.03,-18.07 659.19,-23.4 660.52,-16.53"/>
</g>
<!-- Node24&#45;&gt;Node17 -->
<g id="edge46" class="edge">
<title>Node24&#45;&gt;Node17</title>
<path fill="none" stroke="midnightblue" d="M892.63,-56.47C851.31,-48.42 788.12,-35.58 724.35,-20.08"/>
<polygon fill="midnightblue" stroke="midnightblue" points="725.07,-16.66 714.52,-17.67 723.4,-23.45 725.07,-16.66"/>
</g>
<!-- Node25&#45;&gt;Node23 -->
<g id="edge51" class="edge">
<title>Node25&#45;&gt;Node23</title>
<path fill="none" stroke="midnightblue" d="M1361.99,-56.44C1334.9,-47.36 1291.91,-32.94 1261.63,-22.78"/>
<polygon fill="midnightblue" stroke="midnightblue" points="1262.49,-19.38 1251.89,-19.52 1260.26,-26.01 1262.49,-19.38"/>
</g>
<!-- Node26 -->
<g id="node26" class="node">
<title>Node26</title>
<g id="a_node26"><a xlink:title=" ">
<polygon fill="none" stroke="#bfbfbf" points="1399,-0.5 1399,-19.5 1458,-19.5 1458,-0.5 1399,-0.5"/>
<text text-anchor="middle" x="1428.5" y="-7.5" font-family="serif" font-size="10.00">memory</text>
</a>
</g>
</g>
<!-- Node25&#45;&gt;Node26 -->
<g id="edge49" class="edge">
<title>Node25&#45;&gt;Node26</title>
<path fill="none" stroke="midnightblue" d="M1394.27,-56.08C1400.06,-48.46 1408.56,-37.26 1415.64,-27.94"/>
<polygon fill="midnightblue" stroke="midnightblue" points="1418.6,-29.83 1421.86,-19.75 1413.02,-25.6 1418.6,-29.83"/>
</g>
<!-- Node27 -->
<g id="node27" class="node">
<title>Node27</title>
<g id="a_node27"><a xlink:title=" ">
<polygon fill="none" stroke="#bfbfbf" points="1310,-0.5 1310,-19.5 1381,-19.5 1381,-0.5 1310,-0.5"/>
<text text-anchor="middle" x="1345.5" y="-7.5" font-family="serif" font-size="10.00">type_traits</text>
</a>
</g>
</g>
<!-- Node25&#45;&gt;Node27 -->
<g id="edge50" class="edge">
<title>Node25&#45;&gt;Node27</title>
<path fill="none" stroke="midnightblue" d="M1380.56,-56.08C1374.57,-48.38 1365.75,-37.03 1358.45,-27.65"/>
<polygon fill="midnightblue" stroke="midnightblue" points="1361.21,-25.5 1352.31,-19.75 1355.68,-29.79 1361.21,-25.5"/>
</g>
</g>
</svg>
