<?xml version="1.0" encoding="UTF-8" standalone="no"?>
<!DOCTYPE svg PUBLIC "-//W3C//DTD SVG 1.1//EN"
 "http://www.w3.org/Graphics/SVG/1.1/DTD/svg11.dtd">
<!-- Generated by graphviz version 2.43.0 (0)
 -->
<!-- Title: CalphadOptions.hpp Pages: 1 -->
<!--zoomable 252 -->
<svg id="main" version="1.1" xmlns="http://www.w3.org/2000/svg" xmlns:xlink="http://www.w3.org/1999/xlink" xml:space="preserve" onload="init(evt)">
<style type="text/css"><![CDATA[
.edge:hover path { stroke: red; }
.edge:hover polygon { stroke: red; fill: red; }
]]></style>
<script type="text/javascript"><![CDATA[
var edges = document.getElementsByTagName('g');
if (edges && edges.length) {
  for (var i=0;i<edges.length;i++) {
    if (edges[i].id.substr(0,4)=='edge') {
      edges[i].setAttribute('class','edge');
    }
  }
}
]]></script>
        <defs>
                <circle id="rim" cx="0" cy="0" r="7"/>
                <circle id="rim2" cx="0" cy="0" r="3.5"/>
                <g id="zoomPlus">
                        <use xlink:href="#rim" fill="#404040">
                                <set attributeName="fill" to="#808080" begin="zoomplus.mouseover" end="zoomplus.mouseout"/>
                        </use>
                        <path d="M-4,0h8M0,-4v8" fill="none" stroke="white" stroke-width="1.5" pointer-events="none"/>
                </g>
                <g id="zoomMin">
                        <use xlink:href="#rim" fill="#404040">
                                <set attributeName="fill" to="#808080" begin="zoomminus.mouseover" end="zoomminus.mouseout"/>
                        </use>
                        <path d="M-4,0h8" fill="none" stroke="white" stroke-width="1.5" pointer-events="none"/>
                </g>
                <g id="dirArrow">
                        <path fill="none" stroke="white" stroke-width="1.5" d="M0,-3.0v7 M-2.5,-0.5L0,-3.0L2.5,-0.5"/>
                </g>
               <g id="resetDef">
                       <use xlink:href="#rim2" fill="#404040">
                               <set attributeName="fill" to="#808080" begin="reset.mouseover" end="reset.mouseout"/>
                       </use>
               </g>
        </defs>

<script type="text/javascript">
var viewWidth = 1326;
var viewHeight = 252;
var sectionId = 'dynsection-0';
</script>
<script xlink:href="svgpan.js"/>
<svg id="graph" class="graph">
<g id="viewport">
<title>CalphadOptions.hpp</title>
<!-- Node1 -->
<g id="node1" class="node">
<title>Node1</title>
<g id="a_node1"><a xlink:title="Options for Calphad problems.">
<polygon fill="#bfbfbf" stroke="black" points="172,-224.5 172,-243.5 294,-243.5 294,-224.5 172,-224.5"/>
<text text-anchor="middle" x="233" y="-231.5" font-family="serif" font-size="10.00">CalphadOptions.hpp</text>
</a>
</g>
</g>
<!-- Node2 -->
<g id="node2" class="node">
<title>Node2</title>
<g id="a_node2"><a xlink:title=" ">
<polygon fill="none" stroke="#bfbfbf" points="324,-0.5 324,-19.5 368,-19.5 368,-0.5 324,-0.5"/>
<text text-anchor="middle" x="346" y="-7.5" font-family="serif" font-size="10.00">limits</text>
</a>
</g>
</g>
<!-- Node1&#45;&gt;Node2 -->
<g id="edge1" class="edge">
<title>Node1&#45;&gt;Node2</title>
<path fill="none" stroke="midnightblue" d="M223.98,-224.34C215.93,-215.93 204.7,-202.36 200,-188 181.75,-132.24 165.16,-103.2 200,-56 213.57,-37.62 275.01,-23.59 313.74,-16.39"/>
<polygon fill="midnightblue" stroke="midnightblue" points="314.78,-19.76 324,-14.54 313.54,-12.87 314.78,-19.76"/>
</g>
<!-- Node3 -->
<g id="node3" class="node">
<title>Node3</title>
<g id="a_node3"><a xlink:title=" ">
<polygon fill="none" stroke="#bfbfbf" points="386.5,-0.5 386.5,-19.5 433.5,-19.5 433.5,-0.5 386.5,-0.5"/>
<text text-anchor="middle" x="410" y="-7.5" font-family="serif" font-size="10.00">string</text>
</a>
</g>
</g>
<!-- Node1&#45;&gt;Node3 -->
<g id="edge2" class="edge">
<title>Node1&#45;&gt;Node3</title>
<path fill="none" stroke="midnightblue" d="M230.05,-224.43C221.05,-196.57 197,-107.45 238,-56 275.9,-8.43 311.8,-33.73 376.46,-19.87"/>
<polygon fill="midnightblue" stroke="midnightblue" points="377.31,-23.26 386.22,-17.53 375.68,-16.46 377.31,-23.26"/>
</g>
<!-- Node4 -->
<g id="node4" class="node">
<title>Node4</title>
<g id="a_node4"><a xlink:title=" ">
<polygon fill="none" stroke="#bfbfbf" points="452,-0.5 452,-19.5 500,-19.5 500,-0.5 452,-0.5"/>
<text text-anchor="middle" x="476" y="-7.5" font-family="serif" font-size="10.00">vector</text>
</a>
</g>
</g>
<!-- Node1&#45;&gt;Node4 -->
<g id="edge3" class="edge">
<title>Node1&#45;&gt;Node4</title>
<path fill="none" stroke="midnightblue" d="M234.04,-224.46C237.99,-195.92 254.65,-103.08 309,-56 353.34,-17.6 380.71,-34.26 442.12,-20.04"/>
<polygon fill="midnightblue" stroke="midnightblue" points="443.01,-23.43 451.85,-17.6 441.3,-16.64 443.01,-23.43"/>
</g>
<!-- Node5 -->
<g id="node5" class="node">
<title>Node5</title>
<g id="a_node5"><a xlink:href="Utils_8hpp.html" target="_top" xlink:title="List of all Utils files.">
<polygon fill="none" stroke="black" points="448.5,-168.5 448.5,-187.5 537.5,-187.5 537.5,-168.5 448.5,-168.5"/>
<text text-anchor="middle" x="493" y="-175.5" font-family="serif" font-size="10.00">Utils/Utils.hpp</text>
</a>
</g>
</g>
<!-- Node1&#45;&gt;Node5 -->
<g id="edge4" class="edge">
<title>Node1&#45;&gt;Node5</title>
<path fill="none" stroke="midnightblue" d="M274.2,-224.44C319.65,-215 392.84,-199.8 441.91,-189.61"/>
<polygon fill="midnightblue" stroke="midnightblue" points="442.92,-192.98 451.99,-187.52 441.49,-186.12 442.92,-192.98"/>
</g>
<!-- Node6 -->
<g id="node6" class="node">
<title>Node6</title>
<g id="a_node6"><a xlink:href="UtilsForData_8hpp.html" target="_top" xlink:title="Usefull methods for data.">
<polygon fill="none" stroke="black" points="980.5,-56.5 980.5,-75.5 1111.5,-75.5 1111.5,-56.5 980.5,-56.5"/>
<text text-anchor="middle" x="1046" y="-63.5" font-family="serif" font-size="10.00">Utils/UtilsForData.hpp</text>
</a>
</g>
</g>
<!-- Node5&#45;&gt;Node6 -->
<g id="edge5" class="edge">
<title>Node5&#45;&gt;Node6</title>
<path fill="none" stroke="midnightblue" d="M537.69,-177.4C645.31,-177.68 915.72,-174.04 994,-132 1013.63,-121.46 1028.48,-100.03 1037.19,-84.65"/>
<polygon fill="midnightblue" stroke="midnightblue" points="1040.4,-86.07 1042.01,-75.6 1034.22,-82.78 1040.4,-86.07"/>
</g>
<!-- Node18 -->
<g id="node18" class="node">
<title>Node18</title>
<g id="a_node18"><a xlink:href="UtilsForDebug_8hpp.html" target="_top" xlink:title="Usefull methods for debug.">
<polygon fill="none" stroke="black" points="843.5,-112.5 843.5,-131.5 984.5,-131.5 984.5,-112.5 843.5,-112.5"/>
<text text-anchor="middle" x="914" y="-119.5" font-family="serif" font-size="10.00">Utils/UtilsForDebug.hpp</text>
</a>
</g>
</g>
<!-- Node5&#45;&gt;Node18 -->
<g id="edge19" class="edge">
<title>Node5&#45;&gt;Node18</title>
<path fill="none" stroke="midnightblue" d="M537.66,-171.27C609,-162.12 749.58,-144.09 837.27,-132.84"/>
<polygon fill="midnightblue" stroke="midnightblue" points="837.95,-136.28 847.43,-131.54 837.06,-129.34 837.95,-136.28"/>
</g>
<!-- Node21 -->
<g id="node21" class="node">
<title>Node21</title>
<g id="a_node21"><a xlink:href="UtilsForOptions_8hpp.html" target="_top" xlink:title="Usefull methods for Options.">
<polygon fill="none" stroke="black" points="520,-56.5 520,-75.5 666,-75.5 666,-56.5 520,-56.5"/>
<text text-anchor="middle" x="593" y="-63.5" font-family="serif" font-size="10.00">Utils/UtilsForOptions.hpp</text>
</a>
</g>
</g>
<!-- Node5&#45;&gt;Node21 -->
<g id="edge30" class="edge">
<title>Node5&#45;&gt;Node21</title>
<path fill="none" stroke="midnightblue" d="M500.85,-168.37C517.57,-149.97 556.94,-106.67 578.41,-83.05"/>
<polygon fill="midnightblue" stroke="midnightblue" points="581.05,-85.35 585.19,-75.59 575.87,-80.64 581.05,-85.35"/>
</g>
<!-- Node23 -->
<g id="node23" class="node">
<title>Node23</title>
<g id="a_node23"><a xlink:href="UtilsForPostProcessing_8hpp.html" target="_top" xlink:title="Usefull methods for post&#45;processing.">
<polygon fill="none" stroke="black" points="318.5,-56.5 318.5,-75.5 501.5,-75.5 501.5,-56.5 318.5,-56.5"/>
<text text-anchor="middle" x="410" y="-63.5" font-family="serif" font-size="10.00">Utils/UtilsForPostProcessing.hpp</text>
</a>
</g>
</g>
<!-- Node5&#45;&gt;Node23 -->
<g id="edge40" class="edge">
<title>Node5&#45;&gt;Node23</title>
<path fill="none" stroke="midnightblue" d="M486.49,-168.37C472.73,-150.14 440.5,-107.43 422.58,-83.68"/>
<polygon fill="midnightblue" stroke="midnightblue" points="425.3,-81.47 416.48,-75.59 419.71,-85.68 425.3,-81.47"/>
</g>
<!-- Node24 -->
<g id="node24" class="node">
<title>Node24</title>
<g id="a_node24"><a xlink:href="UtilsForVariants_8hpp.html" target="_top" xlink:title="manage std::Variants">
<polygon fill="none" stroke="black" points="0,-56.5 0,-75.5 148,-75.5 148,-56.5 0,-56.5"/>
<text text-anchor="middle" x="74" y="-63.5" font-family="serif" font-size="10.00">Utils/UtilsForVariants.hpp</text>
</a>
</g>
</g>
<!-- Node5&#45;&gt;Node24 -->
<g id="edge47" class="edge">
<title>Node5&#45;&gt;Node24</title>
<path fill="none" stroke="midnightblue" d="M460.47,-168.46C385.36,-148.74 199.91,-100.05 116.2,-78.08"/>
<polygon fill="midnightblue" stroke="midnightblue" points="117.07,-74.69 106.51,-75.53 115.29,-81.46 117.07,-74.69"/>
</g>
<!-- Node6&#45;&gt;Node3 -->
<g id="edge14" class="edge">
<title>Node6&#45;&gt;Node3</title>
<path fill="none" stroke="midnightblue" d="M980.4,-61.7C850.09,-54.88 561.72,-38.47 443.56,-19.69"/>
<polygon fill="midnightblue" stroke="midnightblue" points="444.11,-16.23 433.67,-18.04 442.96,-23.14 444.11,-16.23"/>
</g>
<!-- Node6&#45;&gt;Node4 -->
<g id="edge17" class="edge">
<title>Node6&#45;&gt;Node4</title>
<path fill="none" stroke="midnightblue" d="M980.12,-60.99C861.26,-53.51 614.37,-36.81 509.98,-19.8"/>
<polygon fill="midnightblue" stroke="midnightblue" points="510.48,-16.34 500.04,-18.1 509.3,-23.24 510.48,-16.34"/>
</g>
<!-- Node7 -->
<g id="node7" class="node">
<title>Node7</title>
<g id="a_node7"><a xlink:title=" ">
<polygon fill="none" stroke="#bfbfbf" points="1106.5,-0.5 1106.5,-19.5 1165.5,-19.5 1165.5,-0.5 1106.5,-0.5"/>
<text text-anchor="middle" x="1136" y="-7.5" font-family="serif" font-size="10.00">unistd.h</text>
</a>
</g>
</g>
<!-- Node6&#45;&gt;Node7 -->
<g id="edge6" class="edge">
<title>Node6&#45;&gt;Node7</title>
<path fill="none" stroke="midnightblue" d="M1060.46,-56.32C1074.5,-47.9 1096.05,-34.97 1112.54,-25.07"/>
<polygon fill="midnightblue" stroke="midnightblue" points="1114.8,-27.8 1121.58,-19.65 1111.2,-21.8 1114.8,-27.8"/>
</g>
<!-- Node8 -->
<g id="node8" class="node">
<title>Node8</title>
<g id="a_node8"><a xlink:title=" ">
<polygon fill="none" stroke="#bfbfbf" points="518,-0.5 518,-19.5 584,-19.5 584,-0.5 518,-0.5"/>
<text text-anchor="middle" x="551" y="-7.5" font-family="serif" font-size="10.00">algorithm</text>
</a>
</g>
</g>
<!-- Node6&#45;&gt;Node8 -->
<g id="edge7" class="edge">
<title>Node6&#45;&gt;Node8</title>
<path fill="none" stroke="midnightblue" d="M980.23,-60.67C894.06,-54.5 738.12,-41.65 594.58,-19.91"/>
<polygon fill="midnightblue" stroke="midnightblue" points="594.69,-16.39 584.27,-18.33 593.62,-23.31 594.69,-16.39"/>
</g>
<!-- Node9 -->
<g id="node9" class="node">
<title>Node9</title>
<g id="a_node9"><a xlink:title=" ">
<polygon fill="none" stroke="#bfbfbf" points="952,-0.5 952,-19.5 1002,-19.5 1002,-0.5 952,-0.5"/>
<text text-anchor="middle" x="977" y="-7.5" font-family="serif" font-size="10.00">cctype</text>
</a>
</g>
</g>
<!-- Node6&#45;&gt;Node9 -->
<g id="edge8" class="edge">
<title>Node6&#45;&gt;Node9</title>
<path fill="none" stroke="midnightblue" d="M1034.91,-56.32C1024.51,-48.18 1008.74,-35.84 996.28,-26.09"/>
<polygon fill="midnightblue" stroke="midnightblue" points="998.32,-23.24 988.29,-19.83 994.01,-28.75 998.32,-23.24"/>
</g>
<!-- Node10 -->
<g id="node10" class="node">
<title>Node10</title>
<g id="a_node10"><a xlink:title=" ">
<polygon fill="none" stroke="#bfbfbf" points="1183.5,-0.5 1183.5,-19.5 1230.5,-19.5 1230.5,-0.5 1183.5,-0.5"/>
<text text-anchor="middle" x="1207" y="-7.5" font-family="serif" font-size="10.00">cstdio</text>
</a>
</g>
</g>
<!-- Node6&#45;&gt;Node10 -->
<g id="edge9" class="edge">
<title>Node6&#45;&gt;Node10</title>
<path fill="none" stroke="midnightblue" d="M1071.51,-56.44C1099.15,-47.17 1143.37,-32.34 1173.72,-22.16"/>
<polygon fill="midnightblue" stroke="midnightblue" points="1175.07,-25.4 1183.44,-18.9 1172.85,-18.76 1175.07,-25.4"/>
</g>
<!-- Node11 -->
<g id="node11" class="node">
<title>Node11</title>
<g id="a_node11"><a xlink:title=" ">
<polygon fill="none" stroke="#bfbfbf" points="1020,-0.5 1020,-19.5 1088,-19.5 1088,-0.5 1020,-0.5"/>
<text text-anchor="middle" x="1054" y="-7.5" font-family="serif" font-size="10.00">filesystem</text>
</a>
</g>
</g>
<!-- Node6&#45;&gt;Node11 -->
<g id="edge10" class="edge">
<title>Node6&#45;&gt;Node11</title>
<path fill="none" stroke="midnightblue" d="M1047.32,-56.08C1048.38,-48.93 1049.91,-38.64 1051.23,-29.69"/>
<polygon fill="midnightblue" stroke="midnightblue" points="1054.7,-30.16 1052.7,-19.75 1047.78,-29.13 1054.7,-30.16"/>
</g>
<!-- Node12 -->
<g id="node12" class="node">
<title>Node12</title>
<g id="a_node12"><a xlink:title=" ">
<polygon fill="none" stroke="#bfbfbf" points="808,-0.5 808,-19.5 876,-19.5 876,-0.5 808,-0.5"/>
<text text-anchor="middle" x="842" y="-7.5" font-family="serif" font-size="10.00">functional</text>
</a>
</g>
</g>
<!-- Node6&#45;&gt;Node12 -->
<g id="edge11" class="edge">
<title>Node6&#45;&gt;Node12</title>
<path fill="none" stroke="midnightblue" d="M1013.68,-56.44C978.61,-47.16 922.5,-32.31 884.04,-22.13"/>
<polygon fill="midnightblue" stroke="midnightblue" points="884.74,-18.69 874.17,-19.52 882.94,-25.46 884.74,-18.69"/>
</g>
<!-- Node13 -->
<g id="node13" class="node">
<title>Node13</title>
<g id="a_node13"><a xlink:title=" ">
<polygon fill="none" stroke="#bfbfbf" points="602.5,-0.5 602.5,-19.5 663.5,-19.5 663.5,-0.5 602.5,-0.5"/>
<text text-anchor="middle" x="633" y="-7.5" font-family="serif" font-size="10.00">iostream</text>
</a>
</g>
</g>
<!-- Node6&#45;&gt;Node13 -->
<g id="edge12" class="edge">
<title>Node6&#45;&gt;Node13</title>
<path fill="none" stroke="midnightblue" d="M980.35,-59.11C907.73,-52.14 787.1,-39.21 673.43,-19.9"/>
<polygon fill="midnightblue" stroke="midnightblue" points="673.96,-16.44 663.51,-18.2 672.77,-23.34 673.96,-16.44"/>
</g>
<!-- Node14 -->
<g id="node14" class="node">
<title>Node14</title>
<g id="a_node14"><a xlink:title=" ">
<polygon fill="none" stroke="#bfbfbf" points="894.5,-0.5 894.5,-19.5 933.5,-19.5 933.5,-0.5 894.5,-0.5"/>
<text text-anchor="middle" x="914" y="-7.5" font-family="serif" font-size="10.00">map</text>
</a>
</g>
</g>
<!-- Node6&#45;&gt;Node14 -->
<g id="edge13" class="edge">
<title>Node6&#45;&gt;Node14</title>
<path fill="none" stroke="midnightblue" d="M1025.08,-56.44C1002.88,-47.36 967.63,-32.94 942.81,-22.78"/>
<polygon fill="midnightblue" stroke="midnightblue" points="944.11,-19.54 933.53,-18.99 941.46,-26.01 944.11,-19.54"/>
</g>
<!-- Node15 -->
<g id="node15" class="node">
<title>Node15</title>
<g id="a_node15"><a xlink:title=" ">
<polygon fill="none" stroke="#bfbfbf" points="746.5,-0.5 746.5,-19.5 789.5,-19.5 789.5,-0.5 746.5,-0.5"/>
<text text-anchor="middle" x="768" y="-7.5" font-family="serif" font-size="10.00">tuple</text>
</a>
</g>
</g>
<!-- Node6&#45;&gt;Node15 -->
<g id="edge15" class="edge">
<title>Node6&#45;&gt;Node15</title>
<path fill="none" stroke="midnightblue" d="M989.75,-56.44C941.72,-48.74 870.65,-36.46 799.62,-19.94"/>
<polygon fill="midnightblue" stroke="midnightblue" points="800.14,-16.46 789.61,-17.58 798.54,-23.28 800.14,-16.46"/>
</g>
<!-- Node16 -->
<g id="node16" class="node">
<title>Node16</title>
<g id="a_node16"><a xlink:title=" ">
<polygon fill="none" stroke="#bfbfbf" points="682,-0.5 682,-19.5 728,-19.5 728,-0.5 682,-0.5"/>
<text text-anchor="middle" x="705" y="-7.5" font-family="serif" font-size="10.00">utility</text>
</a>
</g>
</g>
<!-- Node6&#45;&gt;Node16 -->
<g id="edge16" class="edge">
<title>Node6&#45;&gt;Node16</title>
<path fill="none" stroke="midnightblue" d="M980.4,-57.75C920.03,-50.55 827.88,-38.23 738.4,-19.84"/>
<polygon fill="midnightblue" stroke="midnightblue" points="738.85,-16.36 728.35,-17.74 737.43,-23.21 738.85,-16.36"/>
</g>
<!-- Node17 -->
<g id="node17" class="node">
<title>Node17</title>
<g id="a_node17"><a xlink:title=" ">
<polygon fill="none" stroke="#bfbfbf" points="1248.5,-0.5 1248.5,-19.5 1317.5,-19.5 1317.5,-0.5 1248.5,-0.5"/>
<text text-anchor="middle" x="1283" y="-7.5" font-family="serif" font-size="10.00">mfem.hpp</text>
</a>
</g>
</g>
<!-- Node6&#45;&gt;Node17 -->
<g id="edge18" class="edge">
<title>Node6&#45;&gt;Node17</title>
<path fill="none" stroke="midnightblue" d="M1083.55,-56.44C1125.57,-46.87 1193.6,-31.37 1238.32,-21.18"/>
<polygon fill="midnightblue" stroke="midnightblue" points="1239.35,-24.54 1248.32,-18.9 1237.79,-17.71 1239.35,-24.54"/>
</g>
<!-- Node18&#45;&gt;Node3 -->
<g id="edge26" class="edge">
<title>Node18&#45;&gt;Node3</title>
<path fill="none" stroke="midnightblue" d="M843.25,-121.01C691.32,-120.31 344.7,-114.45 309,-76 302.95,-69.49 304.16,-63.46 309,-56 316.88,-43.86 350.5,-30.42 376.81,-21.41"/>
<polygon fill="midnightblue" stroke="midnightblue" points="378.09,-24.67 386.47,-18.19 375.88,-18.03 378.09,-24.67"/>
</g>
<!-- Node18&#45;&gt;Node6 -->
<g id="edge28" class="edge">
<title>Node18&#45;&gt;Node6</title>
<path fill="none" stroke="midnightblue" d="M934.92,-112.44C956.74,-103.52 991.15,-89.44 1015.89,-79.32"/>
<polygon fill="midnightblue" stroke="midnightblue" points="1017.25,-82.54 1025.18,-75.52 1014.6,-76.06 1017.25,-82.54"/>
</g>
<!-- Node18&#45;&gt;Node7 -->
<g id="edge21" class="edge">
<title>Node18&#45;&gt;Node7</title>
<path fill="none" stroke="midnightblue" d="M984.7,-113.73C1036.81,-106.93 1101.83,-94.93 1121,-76 1133.1,-64.06 1136.25,-44.44 1136.74,-29.88"/>
<polygon fill="midnightblue" stroke="midnightblue" points="1140.24,-29.51 1136.69,-19.53 1133.24,-29.55 1140.24,-29.51"/>
</g>
<!-- Node18&#45;&gt;Node10 -->
<g id="edge22" class="edge">
<title>Node18&#45;&gt;Node10</title>
<path fill="none" stroke="midnightblue" d="M984.66,-117.28C1031.05,-112.41 1091.83,-101.29 1140,-76 1162.31,-64.29 1182.24,-42.83 1194.44,-27.78"/>
<polygon fill="midnightblue" stroke="midnightblue" points="1197.29,-29.81 1200.7,-19.78 1191.78,-25.5 1197.29,-29.81"/>
</g>
<!-- Node18&#45;&gt;Node12 -->
<g id="edge24" class="edge">
<title>Node18&#45;&gt;Node12</title>
<path fill="none" stroke="midnightblue" d="M919.56,-112.35C927.21,-99.24 938.88,-73.97 928,-56 918.59,-40.46 901.85,-30.02 885.62,-23.15"/>
<polygon fill="midnightblue" stroke="midnightblue" points="886.77,-19.85 876.18,-19.51 884.25,-26.37 886.77,-19.85"/>
</g>
<!-- Node18&#45;&gt;Node13 -->
<g id="edge25" class="edge">
<title>Node18&#45;&gt;Node13</title>
<path fill="none" stroke="midnightblue" d="M908.97,-112.2C900.32,-97.93 881.2,-69.92 857,-56 787.45,-15.99 756.85,-35.55 673.44,-19.94"/>
<polygon fill="midnightblue" stroke="midnightblue" points="674.05,-16.49 663.56,-17.97 672.68,-23.35 674.05,-16.49"/>
</g>
<!-- Node18&#45;&gt;Node16 -->
<g id="edge27" class="edge">
<title>Node18&#45;&gt;Node16</title>
<path fill="none" stroke="midnightblue" d="M913.36,-112.41C911.83,-98.43 906.75,-70.83 890,-56 838.03,-9.97 805.28,-37.14 738,-20 737.9,-19.97 737.8,-19.95 737.7,-19.92"/>
<polygon fill="midnightblue" stroke="midnightblue" points="738.61,-16.54 728.05,-17.39 736.84,-23.32 738.61,-16.54"/>
</g>
<!-- Node18&#45;&gt;Node17 -->
<g id="edge29" class="edge">
<title>Node18&#45;&gt;Node17</title>
<path fill="none" stroke="midnightblue" d="M984.61,-114.83C1036.28,-108.8 1107.45,-97.29 1167,-76 1202.54,-63.29 1239.99,-40.31 1262.42,-25.36"/>
<polygon fill="midnightblue" stroke="midnightblue" points="1264.48,-28.19 1270.79,-19.68 1260.55,-22.39 1264.48,-28.19"/>
</g>
<!-- Node19 -->
<g id="node19" class="node">
<title>Node19</title>
<g id="a_node19"><a xlink:title=" ">
<polygon fill="none" stroke="#bfbfbf" points="684,-56.5 684,-75.5 774,-75.5 774,-56.5 684,-56.5"/>
<text text-anchor="middle" x="729" y="-63.5" font-family="serif" font-size="10.00">sys/resource.h</text>
</a>
</g>
</g>
<!-- Node18&#45;&gt;Node19 -->
<g id="edge20" class="edge">
<title>Node18&#45;&gt;Node19</title>
<path fill="none" stroke="midnightblue" d="M884.69,-112.44C853.16,-103.24 802.87,-88.56 768.01,-78.39"/>
<polygon fill="midnightblue" stroke="midnightblue" points="768.76,-74.96 758.18,-75.52 766.8,-81.68 768.76,-74.96"/>
</g>
<!-- Node20 -->
<g id="node20" class="node">
<title>Node20</title>
<g id="a_node20"><a xlink:title=" ">
<polygon fill="none" stroke="#bfbfbf" points="792,-56.5 792,-75.5 848,-75.5 848,-56.5 792,-56.5"/>
<text text-anchor="middle" x="820" y="-63.5" font-family="serif" font-size="10.00">fstream</text>
</a>
</g>
</g>
<!-- Node18&#45;&gt;Node20 -->
<g id="edge23" class="edge">
<title>Node18&#45;&gt;Node20</title>
<path fill="none" stroke="midnightblue" d="M898.9,-112.32C884.1,-103.82 861.31,-90.73 844.02,-80.8"/>
<polygon fill="midnightblue" stroke="midnightblue" points="845.48,-77.6 835.07,-75.65 841.99,-83.67 845.48,-77.6"/>
</g>
<!-- Node21&#45;&gt;Node2 -->
<g id="edge34" class="edge">
<title>Node21&#45;&gt;Node2</title>
<path fill="none" stroke="midnightblue" d="M547.91,-56.49C506.4,-48.44 442.91,-35.62 378.29,-19.93"/>
<polygon fill="midnightblue" stroke="midnightblue" points="378.87,-16.47 368.33,-17.49 377.21,-23.27 378.87,-16.47"/>
</g>
<!-- Node21&#45;&gt;Node3 -->
<g id="edge35" class="edge">
<title>Node21&#45;&gt;Node3</title>
<path fill="none" stroke="midnightblue" d="M564,-56.44C531.16,-46.75 477.75,-30.99 443.25,-20.81"/>
<polygon fill="midnightblue" stroke="midnightblue" points="444.21,-17.44 433.62,-17.97 442.22,-24.16 444.21,-17.44"/>
</g>
<!-- Node21&#45;&gt;Node4 -->
<g id="edge39" class="edge">
<title>Node21&#45;&gt;Node4</title>
<path fill="none" stroke="midnightblue" d="M574.46,-56.44C555.38,-47.64 525.43,-33.81 503.56,-23.72"/>
<polygon fill="midnightblue" stroke="midnightblue" points="505,-20.53 494.45,-19.52 502.07,-26.88 505,-20.53"/>
</g>
<!-- Node21&#45;&gt;Node8 -->
<g id="edge31" class="edge">
<title>Node21&#45;&gt;Node8</title>
<path fill="none" stroke="midnightblue" d="M586.06,-56.08C580.07,-48.38 571.25,-37.03 563.95,-27.65"/>
<polygon fill="midnightblue" stroke="midnightblue" points="566.71,-25.5 557.81,-19.75 561.18,-29.79 566.71,-25.5"/>
</g>
<!-- Node21&#45;&gt;Node12 -->
<g id="edge32" class="edge">
<title>Node21&#45;&gt;Node12</title>
<path fill="none" stroke="midnightblue" d="M632.45,-56.44C677.55,-46.66 751.17,-30.7 798.06,-20.53"/>
<polygon fill="midnightblue" stroke="midnightblue" points="798.9,-23.93 807.93,-18.39 797.42,-17.09 798.9,-23.93"/>
</g>
<!-- Node21&#45;&gt;Node13 -->
<g id="edge33" class="edge">
<title>Node21&#45;&gt;Node13</title>
<path fill="none" stroke="midnightblue" d="M599.61,-56.08C605.26,-48.46 613.54,-37.26 620.45,-27.94"/>
<polygon fill="midnightblue" stroke="midnightblue" points="623.38,-29.87 626.52,-19.75 617.75,-25.7 623.38,-29.87"/>
</g>
<!-- Node21&#45;&gt;Node15 -->
<g id="edge36" class="edge">
<title>Node21&#45;&gt;Node15</title>
<path fill="none" stroke="midnightblue" d="M620.73,-56.44C652.35,-46.69 703.91,-30.78 736.88,-20.6"/>
<polygon fill="midnightblue" stroke="midnightblue" points="737.95,-23.94 746.47,-17.64 735.88,-17.25 737.95,-23.94"/>
</g>
<!-- Node21&#45;&gt;Node16 -->
<g id="edge37" class="edge">
<title>Node21&#45;&gt;Node16</title>
<path fill="none" stroke="midnightblue" d="M610.99,-56.32C629.04,-47.62 657.05,-34.12 677.8,-24.11"/>
<polygon fill="midnightblue" stroke="midnightblue" points="679.56,-27.15 687.05,-19.65 676.52,-20.84 679.56,-27.15"/>
</g>
<!-- Node22 -->
<g id="node22" class="node">
<title>Node22</title>
<g id="a_node22"><a xlink:title=" ">
<polygon fill="none" stroke="#bfbfbf" points="211.5,-0.5 211.5,-19.5 264.5,-19.5 264.5,-0.5 211.5,-0.5"/>
<text text-anchor="middle" x="238" y="-7.5" font-family="serif" font-size="10.00">variant</text>
</a>
</g>
</g>
<!-- Node21&#45;&gt;Node22 -->
<g id="edge38" class="edge">
<title>Node21&#45;&gt;Node22</title>
<path fill="none" stroke="midnightblue" d="M536.75,-56.44C463.38,-45.28 337.06,-26.07 274.83,-16.6"/>
<polygon fill="midnightblue" stroke="midnightblue" points="275.11,-13.1 264.7,-15.06 274.06,-20.03 275.11,-13.1"/>
</g>
<!-- Node23&#45;&gt;Node2 -->
<g id="edge43" class="edge">
<title>Node23&#45;&gt;Node2</title>
<path fill="none" stroke="midnightblue" d="M399.72,-56.32C390.16,-48.26 375.72,-36.08 364.22,-26.37"/>
<polygon fill="midnightblue" stroke="midnightblue" points="366.37,-23.61 356.47,-19.83 361.86,-28.96 366.37,-23.61"/>
</g>
<!-- Node23&#45;&gt;Node3 -->
<g id="edge44" class="edge">
<title>Node23&#45;&gt;Node3</title>
<path fill="none" stroke="midnightblue" d="M410,-56.08C410,-49.01 410,-38.86 410,-29.99"/>
<polygon fill="midnightblue" stroke="midnightblue" points="413.5,-29.75 410,-19.75 406.5,-29.75 413.5,-29.75"/>
</g>
<!-- Node23&#45;&gt;Node4 -->
<g id="edge46" class="edge">
<title>Node23&#45;&gt;Node4</title>
<path fill="none" stroke="midnightblue" d="M420.6,-56.32C430.46,-48.26 445.35,-36.08 457.22,-26.37"/>
<polygon fill="midnightblue" stroke="midnightblue" points="459.68,-28.88 465.2,-19.83 455.25,-23.46 459.68,-28.88"/>
</g>
<!-- Node23&#45;&gt;Node8 -->
<g id="edge41" class="edge">
<title>Node23&#45;&gt;Node8</title>
<path fill="none" stroke="midnightblue" d="M432.34,-56.44C455.75,-47.48 492.74,-33.31 519.19,-23.18"/>
<polygon fill="midnightblue" stroke="midnightblue" points="520.68,-26.36 528.76,-19.52 518.17,-19.82 520.68,-26.36"/>
</g>
<!-- Node23&#45;&gt;Node13 -->
<g id="edge42" class="edge">
<title>Node23&#45;&gt;Node13</title>
<path fill="none" stroke="midnightblue" d="M445.34,-56.44C485.39,-46.75 550.55,-30.97 592.59,-20.79"/>
<polygon fill="midnightblue" stroke="midnightblue" points="593.59,-24.14 602.49,-18.39 591.95,-17.34 593.59,-24.14"/>
</g>
<!-- Node23&#45;&gt;Node16 -->
<g id="edge45" class="edge">
<title>Node23&#45;&gt;Node16</title>
<path fill="none" stroke="midnightblue" d="M470.68,-56.46C521.91,-48.84 597.38,-36.62 671.66,-20.12"/>
<polygon fill="midnightblue" stroke="midnightblue" points="672.67,-23.48 681.65,-17.87 671.13,-16.65 672.67,-23.48"/>
</g>
<!-- Node24&#45;&gt;Node22 -->
<g id="edge50" class="edge">
<title>Node24&#45;&gt;Node22</title>
<path fill="none" stroke="midnightblue" d="M99.99,-56.44C127.7,-47.32 171.75,-32.81 202.62,-22.65"/>
<polygon fill="midnightblue" stroke="midnightblue" points="203.73,-25.97 212.14,-19.52 201.54,-19.32 203.73,-25.97"/>
</g>
<!-- Node25 -->
<g id="node25" class="node">
<title>Node25</title>
<g id="a_node25"><a xlink:title=" ">
<polygon fill="none" stroke="#bfbfbf" points="3.5,-0.5 3.5,-19.5 62.5,-19.5 62.5,-0.5 3.5,-0.5"/>
<text text-anchor="middle" x="33" y="-7.5" font-family="serif" font-size="10.00">memory</text>
</a>
</g>
</g>
<!-- Node24&#45;&gt;Node25 -->
<g id="edge48" class="edge">
<title>Node24&#45;&gt;Node25</title>
<path fill="none" stroke="midnightblue" d="M67.23,-56.08C61.44,-48.46 52.94,-37.26 45.86,-27.94"/>
<polygon fill="midnightblue" stroke="midnightblue" points="48.48,-25.6 39.64,-19.75 42.9,-29.83 48.48,-25.6"/>
</g>
<!-- Node26 -->
<g id="node26" class="node">
<title>Node26</title>
<g id="a_node26"><a xlink:title=" ">
<polygon fill="none" stroke="#bfbfbf" points="80.5,-0.5 80.5,-19.5 151.5,-19.5 151.5,-0.5 80.5,-0.5"/>
<text text-anchor="middle" x="116" y="-7.5" font-family="serif" font-size="10.00">type_traits</text>
</a>
</g>
</g>
<!-- Node24&#45;&gt;Node26 -->
<g id="edge49" class="edge">
<title>Node24&#45;&gt;Node26</title>
<path fill="none" stroke="midnightblue" d="M80.94,-56.08C86.93,-48.38 95.75,-37.03 103.05,-27.65"/>
<polygon fill="midnightblue" stroke="midnightblue" points="105.82,-29.79 109.19,-19.75 100.29,-25.5 105.82,-29.79"/>
</g>
</g>
</svg>
        <g id="navigator" transform="translate(0 0)" fill="#404254">
                <rect fill="#f2f5e9" fill-opacity="0.5" stroke="#606060" stroke-width=".5" x="0" y="0" width="60" height="60"/>
                <use id="zoomplus" xlink:href="#zoomPlus" x="17" y="9" onmousedown="handleZoom(evt,'in')"/>
                <use id="zoomminus" xlink:href="#zoomMin" x="42" y="9" onmousedown="handleZoom(evt,'out')"/>
                <use id="reset" xlink:href="#resetDef" x="30" y="36" onmousedown="handleReset()"/>
                <g id="arrowUp" xlink:href="#dirArrow" transform="translate(30 24)" onmousedown="handlePan(0,-1)">
                  <use xlink:href="#rim" fill="#404040">
                        <set attributeName="fill" to="#808080" begin="arrowUp.mouseover" end="arrowUp.mouseout"/>
                  </use>
                  <path fill="none" stroke="white" stroke-width="1.5" d="M0,-3.0v7 M-2.5,-0.5L0,-3.0L2.5,-0.5"/>
                </g>
                <g id="arrowRight" xlink:href="#dirArrow" transform="rotate(90) translate(36 -43)" onmousedown="handlePan(1,0)">
                  <use xlink:href="#rim" fill="#404040">
                        <set attributeName="fill" to="#808080" begin="arrowRight.mouseover" end="arrowRight.mouseout"/>
                  </use>
                  <path fill="none" stroke="white" stroke-width="1.5" d="M0,-3.0v7 M-2.5,-0.5L0,-3.0L2.5,-0.5"/>
                </g>
                <g id="arrowDown" xlink:href="#dirArrow" transform="rotate(180) translate(-30 -48)" onmousedown="handlePan(0,1)">
                  <use xlink:href="#rim" fill="#404040">
                        <set attributeName="fill" to="#808080" begin="arrowDown.mouseover" end="arrowDown.mouseout"/>
                  </use>
                  <path fill="none" stroke="white" stroke-width="1.5" d="M0,-3.0v7 M-2.5,-0.5L0,-3.0L2.5,-0.5"/>
                </g>
                <g id="arrowLeft" xlink:href="#dirArrow" transform="rotate(270) translate(-36 17)" onmousedown="handlePan(-1,0)">
                  <use xlink:href="#rim" fill="#404040">
                        <set attributeName="fill" to="#808080" begin="arrowLeft.mouseover" end="arrowLeft.mouseout"/>
                  </use>
                  <path fill="none" stroke="white" stroke-width="1.5" d="M0,-3.0v7 M-2.5,-0.5L0,-3.0L2.5,-0.5"/>
                </g>
        </g>
        <svg viewBox="0 0 15 15" width="100%" height="30px" preserveAspectRatio="xMaxYMin meet">
         <g id="arrow_out" transform="scale(0.3 0.3)">
          <a xlink:href="CalphadOptions_8hpp__incl_org.svg" target="_base">
           <rect id="button" ry="5" rx="5" y="6" x="6" height="38" width="38"
                fill="#f2f5e9" fill-opacity="0.5" stroke="#606060" stroke-width="1.0"/>
           <path id="arrow"
             d="M 11.500037,31.436501 C 11.940474,20.09759 22.043105,11.32322 32.158766,21.979434 L 37.068811,17.246167 C 37.068811,17.246167 37.088388,32 37.088388,32 L 22.160133,31.978069 C 22.160133,31.978069 26.997745,27.140456 26.997745,27.140456 C 18.528582,18.264221 13.291696,25.230495 11.500037,31.436501 z"
             style="fill:#404040;"/>
          </a>
         </g>
        </svg>
</svg>
