<?xml version="1.0" encoding="UTF-8" standalone="no"?>
<!DOCTYPE svg PUBLIC "-//W3C//DTD SVG 1.1//EN"
 "http://www.w3.org/Graphics/SVG/1.1/DTD/svg11.dtd">
<!-- Generated by graphviz version 2.43.0 (0)
 -->
<!-- Title: SlothInfo::debug Pages: 1 -->
<!--zoomable 970 -->
<svg id="main" version="1.1" xmlns="http://www.w3.org/2000/svg" xmlns:xlink="http://www.w3.org/1999/xlink" xml:space="preserve" onload="init(evt)">
<style type="text/css"><![CDATA[
.edge:hover path { stroke: red; }
.edge:hover polygon { stroke: red; fill: red; }
]]></style>
<script type="text/javascript"><![CDATA[
var edges = document.getElementsByTagName('g');
if (edges && edges.length) {
  for (var i=0;i<edges.length;i++) {
    if (edges[i].id.substr(0,4)=='edge') {
      edges[i].setAttribute('class','edge');
    }
  }
}
]]></script>
        <defs>
                <circle id="rim" cx="0" cy="0" r="7"/>
                <circle id="rim2" cx="0" cy="0" r="3.5"/>
                <g id="zoomPlus">
                        <use xlink:href="#rim" fill="#404040">
                                <set attributeName="fill" to="#808080" begin="zoomplus.mouseover" end="zoomplus.mouseout"/>
                        </use>
                        <path d="M-4,0h8M0,-4v8" fill="none" stroke="white" stroke-width="1.5" pointer-events="none"/>
                </g>
                <g id="zoomMin">
                        <use xlink:href="#rim" fill="#404040">
                                <set attributeName="fill" to="#808080" begin="zoomminus.mouseover" end="zoomminus.mouseout"/>
                        </use>
                        <path d="M-4,0h8" fill="none" stroke="white" stroke-width="1.5" pointer-events="none"/>
                </g>
                <g id="dirArrow">
                        <path fill="none" stroke="white" stroke-width="1.5" d="M0,-3.0v7 M-2.5,-0.5L0,-3.0L2.5,-0.5"/>
                </g>
               <g id="resetDef">
                       <use xlink:href="#rim2" fill="#404040">
                               <set attributeName="fill" to="#808080" begin="reset.mouseover" end="reset.mouseout"/>
                       </use>
               </g>
        </defs>

<script type="text/javascript">
var viewWidth = 505;
var viewHeight = 970;
var sectionId = 'dynsection-0';
</script>
<script xlink:href="svgpan.js"/>
<svg id="graph" class="graph">
<g id="viewport">
<title>SlothInfo::debug</title>
<!-- Node1 -->
<g id="node1" class="node">
<title>Node1</title>
<g id="a_node1"><a xlink:title="Print information on Debug mode.">
<polygon fill="#bfbfbf" stroke="black" points="395,-505.5 395,-524.5 497,-524.5 497,-505.5 395,-505.5"/>
<text text-anchor="middle" x="446" y="-512.5" font-family="serif" font-size="10.00">SlothInfo::debug</text>
</a>
</g>
</g>
<!-- Node2 -->
<g id="node2" class="node">
<title>Node2</title>
<g id="a_node2"><a xlink:href="classSolverUMFPACK.html#a83fe21379896c4df62b1df2947767d2e" target="_top" xlink:title="Create a direct solver based of the SolverType and a list of Parameters.">
<polygon fill="none" stroke="black" points="209.5,-696 209.5,-726 349.5,-726 349.5,-696 209.5,-696"/>
<text text-anchor="start" x="217.5" y="-714" font-family="serif" font-size="10.00">SolverUMFPACK::create</text>
<text text-anchor="middle" x="279.5" y="-703" font-family="serif" font-size="10.00">_solver</text>
</a>
</g>
</g>
<!-- Node1&#45;&gt;Node2 -->
<g id="edge1" class="edge">
<title>Node1&#45;&gt;Node2</title>
<path fill="none" stroke="midnightblue" d="M440.51,-535.01C431.45,-570.82 407.54,-645.96 359,-687 354.97,-690.4 350.47,-693.33 345.71,-695.83"/>
<polygon fill="midnightblue" stroke="midnightblue" points="444.02,-535.4 442.95,-524.86 437.21,-533.77 444.02,-535.4"/>
</g>
<!-- Node4 -->
<g id="node4" class="node">
<title>Node4</title>
<g id="a_node4"><a xlink:href="classPrecondHypreILU.html#a7e7defa37401cea9cac7183a5994b13b" target="_top" xlink:title="Create preconditioner based of the PreconditionerType and a list of Parameters.">
<polygon fill="none" stroke="black" points="206.5,-647 206.5,-677 352.5,-677 352.5,-647 206.5,-647"/>
<text text-anchor="start" x="214.5" y="-665" font-family="serif" font-size="10.00">PrecondHypreILU::create</text>
<text text-anchor="middle" x="279.5" y="-654" font-family="serif" font-size="10.00">_solver</text>
</a>
</g>
</g>
<!-- Node1&#45;&gt;Node4 -->
<g id="edge3" class="edge">
<title>Node1&#45;&gt;Node4</title>
<path fill="none" stroke="midnightblue" d="M436.79,-533.79C424.04,-560.81 396.94,-610.42 359,-638 354.27,-641.44 349.05,-644.39 343.6,-646.92"/>
<polygon fill="midnightblue" stroke="midnightblue" points="440,-535.18 440.97,-524.63 433.63,-532.28 440,-535.18"/>
</g>
<!-- Node5 -->
<g id="node5" class="node">
<title>Node5</title>
<g id="a_node5"><a xlink:href="classPrecondHypreSmoother.html#aadca5acda7af3396285f385654c24a1b" target="_top" xlink:title="Create preconditioner based of the PreconditionerType and a list of Parameters.">
<polygon fill="none" stroke="black" points="209.5,-598 209.5,-628 349.5,-628 349.5,-598 209.5,-598"/>
<text text-anchor="start" x="217.5" y="-616" font-family="serif" font-size="10.00">PrecondHypreSmoother</text>
<text text-anchor="middle" x="279.5" y="-605" font-family="serif" font-size="10.00">::create_solver</text>
</a>
</g>
</g>
<!-- Node1&#45;&gt;Node5 -->
<g id="edge5" class="edge">
<title>Node1&#45;&gt;Node5</title>
<path fill="none" stroke="midnightblue" d="M429.39,-532.05C413.24,-548.74 386.58,-573.81 359,-589 352.88,-592.37 346.23,-595.33 339.48,-597.91"/>
<polygon fill="midnightblue" stroke="midnightblue" points="432.09,-534.28 436.42,-524.61 427.01,-529.47 432.09,-534.28"/>
</g>
<!-- Node6 -->
<g id="node6" class="node">
<title>Node6</title>
<g id="a_node6"><a xlink:href="classPrecondHypreBoomerAMG.html#a9274064ab381792bf2f034344d2d621d" target="_top" xlink:title="Create preconditioner based of the PreconditionerType and a list of Parameters.">
<polygon fill="none" stroke="black" points="201,-549 201,-579 358,-579 358,-549 201,-549"/>
<text text-anchor="start" x="209" y="-567" font-family="serif" font-size="10.00">PrecondHypreBoomerAMG</text>
<text text-anchor="middle" x="279.5" y="-556" font-family="serif" font-size="10.00">::create_solver</text>
</a>
</g>
</g>
<!-- Node1&#45;&gt;Node6 -->
<g id="edge7" class="edge">
<title>Node1&#45;&gt;Node6</title>
<path fill="none" stroke="midnightblue" d="M403.19,-527.45C381.22,-534 354.12,-542.07 330.98,-548.96"/>
<polygon fill="midnightblue" stroke="midnightblue" points="404.31,-530.77 412.89,-524.56 402.31,-524.06 404.31,-530.77"/>
</g>
<!-- Node7 -->
<g id="node7" class="node">
<title>Node7</title>
<g id="a_node7"><a xlink:href="classPrecondHypreDiagScale.html#addd6474561b2dc1caef97fbf187bae91" target="_top" xlink:title="Create preconditioner based of the PreconditionerType and a list of Parameters.">
<polygon fill="none" stroke="black" points="208.5,-500 208.5,-530 350.5,-530 350.5,-500 208.5,-500"/>
<text text-anchor="start" x="216.5" y="-518" font-family="serif" font-size="10.00">PrecondHypreDiagScale</text>
<text text-anchor="middle" x="279.5" y="-507" font-family="serif" font-size="10.00">::create_solver</text>
</a>
</g>
</g>
<!-- Node1&#45;&gt;Node7 -->
<g id="edge9" class="edge">
<title>Node1&#45;&gt;Node7</title>
<path fill="none" stroke="midnightblue" d="M384.43,-515C373.47,-515 361.95,-515 350.73,-515"/>
<polygon fill="midnightblue" stroke="midnightblue" points="384.75,-518.5 394.75,-515 384.75,-511.5 384.75,-518.5"/>
</g>
<!-- Node8 -->
<g id="node8" class="node">
<title>Node8</title>
<g id="a_node8"><a xlink:href="classSolverHyprePCG.html#af4a480332bac2a5014c3e2a84f3403ba" target="_top" xlink:title="Create a iterative solver based of the SolverType and a list of Parameters.">
<polygon fill="none" stroke="black" points="209,-451 209,-481 350,-481 350,-451 209,-451"/>
<text text-anchor="start" x="217" y="-469" font-family="serif" font-size="10.00">SolverHyprePCG::create</text>
<text text-anchor="middle" x="279.5" y="-458" font-family="serif" font-size="10.00">_solver</text>
</a>
</g>
</g>
<!-- Node1&#45;&gt;Node8 -->
<g id="edge11" class="edge">
<title>Node1&#45;&gt;Node8</title>
<path fill="none" stroke="midnightblue" d="M403.19,-502.55C381.22,-496 354.12,-487.93 330.98,-481.04"/>
<polygon fill="midnightblue" stroke="midnightblue" points="402.31,-505.94 412.89,-505.44 404.31,-499.23 402.31,-505.94"/>
</g>
<!-- Node9 -->
<g id="node9" class="node">
<title>Node9</title>
<g id="a_node9"><a xlink:href="classSolverHypreGMRES.html#a94293cedbdd903adcd5866ce3554ef10" target="_top" xlink:title="Create a iterative solver based of the SolverType and a list of Parameters.">
<polygon fill="none" stroke="black" points="200,-402 200,-432 359,-432 359,-402 200,-402"/>
<text text-anchor="start" x="208" y="-420" font-family="serif" font-size="10.00">SolverHypreGMRES::create</text>
<text text-anchor="middle" x="279.5" y="-409" font-family="serif" font-size="10.00">_solver</text>
</a>
</g>
</g>
<!-- Node1&#45;&gt;Node9 -->
<g id="edge13" class="edge">
<title>Node1&#45;&gt;Node9</title>
<path fill="none" stroke="midnightblue" d="M428.78,-497.73C412.52,-481.33 386.09,-457.01 359,-442 352.24,-438.26 344.85,-434.98 337.38,-432.14"/>
<polygon fill="midnightblue" stroke="midnightblue" points="426.42,-500.33 435.9,-505.07 431.45,-495.46 426.42,-500.33"/>
</g>
<!-- Node10 -->
<g id="node10" class="node">
<title>Node10</title>
<g id="a_node10"><a xlink:href="classSolverHypreFGMRES.html#a54588ca870f9439ec8f4bccd7d8615a8" target="_top" xlink:title="Create a iterative solver based of the SolverType and a list of Parameters.">
<polygon fill="none" stroke="black" points="212.5,-353 212.5,-383 346.5,-383 346.5,-353 212.5,-353"/>
<text text-anchor="start" x="220.5" y="-371" font-family="serif" font-size="10.00">SolverHypreFGMRES::</text>
<text text-anchor="middle" x="279.5" y="-360" font-family="serif" font-size="10.00">create_solver</text>
</a>
</g>
</g>
<!-- Node1&#45;&gt;Node10 -->
<g id="edge15" class="edge">
<title>Node1&#45;&gt;Node10</title>
<path fill="none" stroke="midnightblue" d="M436.54,-496.07C423.62,-469.26 396.46,-420.46 359,-393 353.69,-389.11 347.76,-385.81 341.59,-383.02"/>
<polygon fill="midnightblue" stroke="midnightblue" points="433.53,-497.89 440.92,-505.48 439.87,-494.93 433.53,-497.89"/>
</g>
<!-- Node11 -->
<g id="node11" class="node">
<title>Node11</title>
<g id="a_node11"><a xlink:href="classPrecondDSmoother.html#a286f01fb24a1d08cc00950b04e9e0bfc" target="_top" xlink:title="Create preconditioner based of the PreconditionerType and a list of Parameters.">
<polygon fill="none" stroke="black" points="202.5,-931 202.5,-961 356.5,-961 356.5,-931 202.5,-931"/>
<text text-anchor="start" x="210.5" y="-949" font-family="serif" font-size="10.00">PrecondDSmoother::create</text>
<text text-anchor="middle" x="279.5" y="-938" font-family="serif" font-size="10.00">_solver</text>
</a>
</g>
</g>
<!-- Node1&#45;&gt;Node11 -->
<g id="edge17" class="edge">
<title>Node1&#45;&gt;Node11</title>
<path fill="none" stroke="midnightblue" d="M443.42,-535.08C437.22,-608.87 412.23,-863.84 359,-922 355.82,-925.47 352.16,-928.44 348.2,-930.99"/>
<polygon fill="midnightblue" stroke="midnightblue" points="446.93,-535.1 444.25,-524.85 439.95,-534.53 446.93,-535.1"/>
</g>
<!-- Node12 -->
<g id="node12" class="node">
<title>Node12</title>
<g id="a_node12"><a xlink:href="classSolverBICGSTAB.html#a088138ab2b4e2295192b98abd8e4eefc" target="_top" xlink:title="Create a iterative solver based of the SolverType and a list of Parameters.">
<polygon fill="none" stroke="black" points="209,-882 209,-912 350,-912 350,-882 209,-882"/>
<text text-anchor="start" x="217" y="-900" font-family="serif" font-size="10.00">SolverBICGSTAB::create</text>
<text text-anchor="middle" x="279.5" y="-889" font-family="serif" font-size="10.00">_solver</text>
</a>
</g>
</g>
<!-- Node1&#45;&gt;Node12 -->
<g id="edge19" class="edge">
<title>Node1&#45;&gt;Node12</title>
<path fill="none" stroke="midnightblue" d="M442.82,-534.8C435.01,-602.41 406.31,-822.72 359,-873 355.78,-876.43 352.08,-879.37 348.09,-881.89"/>
<polygon fill="midnightblue" stroke="midnightblue" points="446.32,-534.99 443.97,-524.66 439.37,-534.21 446.32,-534.99"/>
</g>
<!-- Node13 -->
<g id="node13" class="node">
<title>Node13</title>
<g id="a_node13"><a xlink:href="classSolverMINRES.html#ace4d6324acb77a33354204e692a2463f" target="_top" xlink:title=" ">
<polygon fill="none" stroke="black" points="214,-833 214,-863 345,-863 345,-833 214,-833"/>
<text text-anchor="start" x="222" y="-851" font-family="serif" font-size="10.00">SolverMINRES::create</text>
<text text-anchor="middle" x="279.5" y="-840" font-family="serif" font-size="10.00">_solver</text>
</a>
</g>
</g>
<!-- Node1&#45;&gt;Node13 -->
<g id="edge21" class="edge">
<title>Node1&#45;&gt;Node13</title>
<path fill="none" stroke="midnightblue" d="M445.52,-534.85C445.82,-588.86 439.08,-739.99 359,-823 355.03,-827.12 350.38,-830.56 345.37,-833.43"/>
<polygon fill="midnightblue" stroke="midnightblue" points="449.02,-534.54 445.37,-524.59 442.02,-534.64 449.02,-534.54"/>
</g>
<!-- Node14 -->
<g id="node14" class="node">
<title>Node14</title>
<g id="a_node14"><a xlink:href="classSolverCG.html#a22bb7e38585bc24764881aa0f5aa200c" target="_top" xlink:title=" ">
<polygon fill="none" stroke="black" points="210.5,-794.5 210.5,-813.5 348.5,-813.5 348.5,-794.5 210.5,-794.5"/>
<text text-anchor="middle" x="279.5" y="-801.5" font-family="serif" font-size="10.00">SolverCG::create_solver</text>
</a>
</g>
</g>
<!-- Node1&#45;&gt;Node14 -->
<g id="edge23" class="edge">
<title>Node1&#45;&gt;Node14</title>
<path fill="none" stroke="midnightblue" d="M444.91,-534.67C443.55,-584.44 432.8,-716.25 359,-785 354.9,-788.82 350.16,-791.92 345.08,-794.41"/>
<polygon fill="midnightblue" stroke="midnightblue" points="448.41,-534.66 445.08,-524.6 441.41,-534.54 448.41,-534.66"/>
</g>
<!-- Node15 -->
<g id="node15" class="node">
<title>Node15</title>
<g id="a_node15"><a xlink:href="classSolverGMRES.html#aea5f0ae2948f5e66d2ef5d508ce61f68" target="_top" xlink:title=" ">
<polygon fill="none" stroke="black" points="216,-745 216,-775 343,-775 343,-745 216,-745"/>
<text text-anchor="start" x="224" y="-763" font-family="serif" font-size="10.00">SolverGMRES::create</text>
<text text-anchor="middle" x="279.5" y="-752" font-family="serif" font-size="10.00">_solver</text>
</a>
</g>
</g>
<!-- Node1&#45;&gt;Node15 -->
<g id="edge25" class="edge">
<title>Node1&#45;&gt;Node15</title>
<path fill="none" stroke="midnightblue" d="M443.05,-534.57C437.74,-577.43 419.11,-680.21 359,-736 354.4,-740.27 349.07,-743.77 343.39,-746.66"/>
<polygon fill="midnightblue" stroke="midnightblue" points="446.54,-534.92 444.18,-524.59 439.58,-534.14 446.54,-534.92"/>
</g>
<!-- Node16 -->
<g id="node16" class="node">
<title>Node16</title>
<g id="a_node16"><a xlink:href="classLSolver.html#aea68e9ca2bd547b8eb0ebf98c428aa9a" target="_top" xlink:title="Construct a new LSolver::LSolver object with a preconditionner.">
<polygon fill="none" stroke="black" points="229,-314.5 229,-333.5 330,-333.5 330,-314.5 229,-314.5"/>
<text text-anchor="middle" x="279.5" y="-321.5" font-family="serif" font-size="10.00">LSolver::LSolver</text>
</a>
</g>
</g>
<!-- Node1&#45;&gt;Node16 -->
<g id="edge27" class="edge">
<title>Node1&#45;&gt;Node16</title>
<path fill="none" stroke="midnightblue" d="M440.79,-495.38C432.07,-459.62 408.54,-383.83 359,-344 350.78,-337.39 340.64,-332.94 330.41,-329.94"/>
<polygon fill="midnightblue" stroke="midnightblue" points="437.46,-496.53 443.12,-505.49 444.29,-494.96 437.46,-496.53"/>
</g>
<!-- Node17 -->
<g id="node17" class="node">
<title>Node17</title>
<g id="a_node17"><a xlink:href="structSetPrecondSolver.html#aa4e37e62a935fea0c1926352c0ecd1d2" target="_top" xlink:title="Main function.">
<polygon fill="none" stroke="black" points="0,-232.5 0,-251.5 164,-251.5 164,-232.5 0,-232.5"/>
<text text-anchor="middle" x="82" y="-239.5" font-family="serif" font-size="10.00">SetPrecondSolver::operator()</text>
</a>
</g>
</g>
<!-- Node1&#45;&gt;Node17 -->
<g id="edge28" class="edge">
<title>Node1&#45;&gt;Node17</title>
<path fill="none" stroke="midnightblue" d="M442.91,-495.23C437.38,-453.34 418.46,-355.41 359,-305 354.54,-301.22 203.88,-268.18 127.08,-251.52"/>
<polygon fill="midnightblue" stroke="midnightblue" points="439.44,-495.74 444.11,-505.25 446.39,-494.91 439.44,-495.74"/>
</g>
<!-- Node18 -->
<g id="node18" class="node">
<title>Node18</title>
<g id="a_node18"><a xlink:href="structSetPrecondNLSolver.html#a3579c089c95ed6ddc8ee6678327d2712" target="_top" xlink:title="Main function.">
<polygon fill="none" stroke="black" points="20.5,-181 20.5,-211 143.5,-211 143.5,-181 20.5,-181"/>
<text text-anchor="start" x="28.5" y="-199" font-family="serif" font-size="10.00">SetPrecondNLSolver</text>
<text text-anchor="middle" x="82" y="-188" font-family="serif" font-size="10.00">::operator()</text>
</a>
</g>
</g>
<!-- Node1&#45;&gt;Node18 -->
<g id="edge29" class="edge">
<title>Node1&#45;&gt;Node18</title>
<path fill="none" stroke="midnightblue" d="M443.21,-495.32C436.68,-428.2 411.66,-210.18 359,-169 326.38,-143.5 213,-164.45 142.11,-180.95"/>
<polygon fill="midnightblue" stroke="midnightblue" points="439.74,-495.76 444.16,-505.39 446.71,-495.1 439.74,-495.76"/>
</g>
<!-- Node19 -->
<g id="node19" class="node">
<title>Node19</title>
<g id="a_node19"><a xlink:href="structUtilsSolvers.html#a840e1af50b97b7df296c16477f372d3d" target="_top" xlink:title="Print the name of the Preconditioner.">
<polygon fill="none" stroke="black" points="225.5,-178 225.5,-208 333.5,-208 333.5,-178 225.5,-178"/>
<text text-anchor="start" x="233.5" y="-196" font-family="serif" font-size="10.00">UtilsSolvers::print</text>
<text text-anchor="middle" x="279.5" y="-185" font-family="serif" font-size="10.00">_prec_name</text>
</a>
</g>
</g>
<!-- Node1&#45;&gt;Node19 -->
<g id="edge30" class="edge">
<title>Node1&#45;&gt;Node19</title>
<path fill="none" stroke="midnightblue" d="M445.27,-495.16C444.9,-442.46 436.47,-297.55 359,-218 352.01,-210.83 342.98,-205.71 333.54,-202.06"/>
<polygon fill="midnightblue" stroke="midnightblue" points="441.77,-495.46 445.25,-505.47 448.77,-495.48 441.77,-495.46"/>
</g>
<!-- Node20 -->
<g id="node20" class="node">
<title>Node20</title>
<g id="a_node20"><a xlink:href="structUtilsSolvers.html#ad4e84303433eca9ff539ea48b744d9d4" target="_top" xlink:title="Print the name of the Solver.">
<polygon fill="none" stroke="black" points="225.5,-227 225.5,-257 333.5,-257 333.5,-227 225.5,-227"/>
<text text-anchor="start" x="233.5" y="-245" font-family="serif" font-size="10.00">UtilsSolvers::print</text>
<text text-anchor="middle" x="279.5" y="-234" font-family="serif" font-size="10.00">_solver_name</text>
</a>
</g>
</g>
<!-- Node1&#45;&gt;Node20 -->
<g id="edge33" class="edge">
<title>Node1&#45;&gt;Node20</title>
<path fill="none" stroke="midnightblue" d="M443.49,-495.07C439,-449.44 421.8,-336.38 359,-272 351.97,-264.79 343.03,-259.29 333.71,-255.1"/>
<polygon fill="midnightblue" stroke="midnightblue" points="440.02,-495.49 444.38,-505.14 446.99,-494.87 440.02,-495.49"/>
</g>
<!-- Node21 -->
<g id="node21" class="node">
<title>Node21</title>
<g id="a_node21"><a xlink:href="classSpatialDiscretization.html#a8400a265a094312b4d57708d44f9d627" target="_top" xlink:title="Set the FE_Collection, the FE_Space and associated size.">
<polygon fill="none" stroke="black" points="204.5,-79 204.5,-109 354.5,-109 354.5,-79 204.5,-79"/>
<text text-anchor="start" x="212.5" y="-97" font-family="serif" font-size="10.00">SpatialDiscretization</text>
<text text-anchor="middle" x="279.5" y="-86" font-family="serif" font-size="10.00">::set_finite_element_space</text>
</a>
</g>
</g>
<!-- Node1&#45;&gt;Node21 -->
<g id="edge36" class="edge">
<title>Node1&#45;&gt;Node21</title>
<path fill="none" stroke="midnightblue" d="M442.73,-495.21C434.41,-425.59 403.75,-193.14 359,-135 350.37,-123.79 337.81,-115.34 325.25,-109.12"/>
<polygon fill="midnightblue" stroke="midnightblue" points="439.27,-495.73 443.91,-505.26 446.22,-494.92 439.27,-495.73"/>
</g>
<!-- Node3 -->
<g id="node3" class="node">
<title>Node3</title>
<g id="a_node3"><a xlink:href="classSlothSolver.html#aa9c78d816c02f2d4ab70af64cb3f7791" target="_top" xlink:title="Create the linear solver depending on SolverType.">
<polygon fill="none" stroke="black" points="16.5,-652.5 16.5,-671.5 147.5,-671.5 147.5,-652.5 16.5,-652.5"/>
<text text-anchor="middle" x="82" y="-659.5" font-family="serif" font-size="10.00">SlothSolver::get_value</text>
</a>
</g>
</g>
<!-- Node2&#45;&gt;Node3 -->
<g id="edge2" class="edge">
<title>Node2&#45;&gt;Node3</title>
<path fill="none" stroke="midnightblue" d="M208.66,-693.5C179.13,-686.09 145.89,-677.76 121.01,-671.53"/>
<polygon fill="midnightblue" stroke="midnightblue" points="207.96,-696.93 218.51,-695.97 209.67,-690.14 207.96,-696.93"/>
</g>
<!-- Node4&#45;&gt;Node3 -->
<g id="edge4" class="edge">
<title>Node4&#45;&gt;Node3</title>
<path fill="none" stroke="midnightblue" d="M196.22,-662C179.96,-662 163.1,-662 147.53,-662"/>
<polygon fill="midnightblue" stroke="midnightblue" points="196.26,-665.5 206.26,-662 196.26,-658.5 196.26,-665.5"/>
</g>
<!-- Node5&#45;&gt;Node3 -->
<g id="edge6" class="edge">
<title>Node5&#45;&gt;Node3</title>
<path fill="none" stroke="midnightblue" d="M208.66,-630.5C179.13,-637.91 145.89,-646.24 121.01,-652.47"/>
<polygon fill="midnightblue" stroke="midnightblue" points="209.67,-633.86 218.51,-628.03 207.96,-627.07 209.67,-633.86"/>
</g>
<!-- Node6&#45;&gt;Node3 -->
<g id="edge8" class="edge">
<title>Node6&#45;&gt;Node3</title>
<path fill="none" stroke="midnightblue" d="M215.46,-582.53C210.17,-584.55 204.95,-586.71 200,-589 160.01,-607.49 117.07,-637.11 96.07,-652.31"/>
<polygon fill="midnightblue" stroke="midnightblue" points="216.83,-585.75 225.03,-579.04 214.44,-579.18 216.83,-585.75"/>
</g>
<!-- Node7&#45;&gt;Node3 -->
<g id="edge10" class="edge">
<title>Node7&#45;&gt;Node3</title>
<path fill="none" stroke="midnightblue" d="M210.44,-534.25C206.82,-536.02 203.32,-537.93 200,-540 149.69,-571.35 105.93,-629.19 89.71,-652.19"/>
<polygon fill="midnightblue" stroke="midnightblue" points="211.9,-537.44 219.6,-530.16 209.05,-531.04 211.9,-537.44"/>
</g>
<!-- Node8&#45;&gt;Node3 -->
<g id="edge12" class="edge">
<title>Node8&#45;&gt;Node3</title>
<path fill="none" stroke="midnightblue" d="M207.89,-485.82C205.15,-487.41 202.5,-489.14 200,-491 139.1,-536.3 99.11,-623.09 86.93,-652.21"/>
<polygon fill="midnightblue" stroke="midnightblue" points="209.68,-488.83 216.95,-481.13 206.46,-482.62 209.68,-488.83"/>
</g>
<!-- Node9&#45;&gt;Node3 -->
<g id="edge14" class="edge">
<title>Node9&#45;&gt;Node3</title>
<path fill="none" stroke="midnightblue" d="M206.37,-437.28C204.15,-438.75 202.02,-440.32 200,-442 127.91,-502.13 93.97,-618.39 85.3,-652.42"/>
<polygon fill="midnightblue" stroke="midnightblue" points="208.39,-440.16 215.32,-432.14 204.9,-434.09 208.39,-440.16"/>
</g>
<!-- Node10&#45;&gt;Node3 -->
<g id="edge16" class="edge">
<title>Node10&#45;&gt;Node3</title>
<path fill="none" stroke="midnightblue" d="M205.45,-388.61C203.55,-389.98 201.73,-391.44 200,-393 116.65,-468.26 90.08,-613.44 84.32,-652.26"/>
<polygon fill="midnightblue" stroke="midnightblue" points="207.57,-391.42 214.22,-383.17 203.88,-385.47 207.57,-391.42"/>
</g>
<!-- Node11&#45;&gt;Node3 -->
<g id="edge18" class="edge">
<title>Node11&#45;&gt;Node3</title>
<path fill="none" stroke="midnightblue" d="M204.13,-925.33C202.7,-924.28 201.32,-923.17 200,-922 118.3,-850 90.61,-709.73 84.44,-671.71"/>
<polygon fill="midnightblue" stroke="midnightblue" points="202.43,-928.4 212.75,-930.81 206.18,-922.49 202.43,-928.4"/>
</g>
<!-- Node12&#45;&gt;Node3 -->
<g id="edge20" class="edge">
<title>Node12&#45;&gt;Node3</title>
<path fill="none" stroke="midnightblue" d="M204.93,-876.63C203.22,-875.49 201.58,-874.28 200,-873 129.68,-816.07 94.73,-704.99 85.53,-671.67"/>
<polygon fill="midnightblue" stroke="midnightblue" points="203.43,-879.82 213.83,-881.84 206.97,-873.77 203.43,-879.82"/>
</g>
<!-- Node13&#45;&gt;Node3 -->
<g id="edge22" class="edge">
<title>Node13&#45;&gt;Node3</title>
<path fill="none" stroke="midnightblue" d="M208.42,-828.35C205.49,-826.71 202.67,-824.93 200,-823 141.17,-780.52 100.13,-699.4 87.28,-671.61"/>
<polygon fill="midnightblue" stroke="midnightblue" points="206.96,-831.54 217.46,-832.91 210.1,-825.29 206.96,-831.54"/>
</g>
<!-- Node14&#45;&gt;Node3 -->
<g id="edge24" class="edge">
<title>Node14&#45;&gt;Node3</title>
<path fill="none" stroke="midnightblue" d="M212.22,-790.94C207.97,-789.2 203.86,-787.23 200,-785 148.2,-755.07 104.98,-695.26 89.31,-671.78"/>
<polygon fill="midnightblue" stroke="midnightblue" points="211.07,-794.25 221.66,-794.39 213.47,-787.67 211.07,-794.25"/>
</g>
<!-- Node15&#45;&gt;Node3 -->
<g id="edge26" class="edge">
<title>Node15&#45;&gt;Node3</title>
<path fill="none" stroke="midnightblue" d="M212.81,-741.37C208.42,-739.68 204.12,-737.89 200,-736 159.59,-717.45 116.48,-687.07 95.68,-671.64"/>
<polygon fill="midnightblue" stroke="midnightblue" points="211.89,-744.76 222.49,-744.89 214.29,-738.18 211.89,-744.76"/>
</g>
<!-- Node19&#45;&gt;Node17 -->
<g id="edge31" class="edge">
<title>Node19&#45;&gt;Node17</title>
<path fill="none" stroke="midnightblue" d="M215.44,-208.81C184.3,-216.61 147.77,-225.77 120.97,-232.48"/>
<polygon fill="midnightblue" stroke="midnightblue" points="216.49,-212.15 225.34,-206.32 214.79,-205.36 216.49,-212.15"/>
</g>
<!-- Node19&#45;&gt;Node18 -->
<g id="edge32" class="edge">
<title>Node19&#45;&gt;Node18</title>
<path fill="none" stroke="midnightblue" d="M215.05,-193.97C192.16,-194.32 166.4,-194.72 143.75,-195.07"/>
<polygon fill="midnightblue" stroke="midnightblue" points="215.39,-197.47 225.34,-193.82 215.28,-190.47 215.39,-197.47"/>
</g>
<!-- Node20&#45;&gt;Node17 -->
<g id="edge34" class="edge">
<title>Node20&#45;&gt;Node17</title>
<path fill="none" stroke="midnightblue" d="M214.91,-242C198.69,-242 181.03,-242 164.07,-242"/>
<polygon fill="midnightblue" stroke="midnightblue" points="215.34,-245.5 225.34,-242 215.34,-238.5 215.34,-245.5"/>
</g>
<!-- Node20&#45;&gt;Node18 -->
<g id="edge35" class="edge">
<title>Node20&#45;&gt;Node18</title>
<path fill="none" stroke="midnightblue" d="M215.35,-227.14C192.39,-221.74 166.5,-215.65 143.75,-210.29"/>
<polygon fill="midnightblue" stroke="midnightblue" points="214.8,-230.61 225.34,-229.49 216.4,-223.79 214.8,-230.61"/>
</g>
<!-- Node22 -->
<g id="node22" class="node">
<title>Node22</title>
<g id="a_node22"><a xlink:href="structspecialized__spatial__constructor_3_01T_00_011_01_4.html#a9d28d9d2735b1b9d2ca88de45cfda15b" target="_top" xlink:title="operator() specialized for a mesh built from GMSH file">
<polygon fill="none" stroke="black" points="22.5,-120.5 22.5,-161.5 141.5,-161.5 141.5,-120.5 22.5,-120.5"/>
<text text-anchor="start" x="30.5" y="-149.5" font-family="serif" font-size="10.00">specialized_spatial</text>
<text text-anchor="start" x="30.5" y="-138.5" font-family="serif" font-size="10.00">_constructor&lt; T, 1 &gt;</text>
<text text-anchor="middle" x="82" y="-127.5" font-family="serif" font-size="10.00">::operator()</text>
</a>
</g>
</g>
<!-- Node21&#45;&gt;Node22 -->
<g id="edge37" class="edge">
<title>Node21&#45;&gt;Node22</title>
<path fill="none" stroke="midnightblue" d="M206.18,-111.39C184.98,-116.48 162.06,-121.99 141.81,-126.86"/>
<polygon fill="midnightblue" stroke="midnightblue" points="207.2,-114.74 216.11,-109 205.56,-107.93 207.2,-114.74"/>
</g>
<!-- Node23 -->
<g id="node23" class="node">
<title>Node23</title>
<g id="a_node23"><a xlink:href="structspecialized__spatial__constructor_3_01T_00_012_01_4.html#a367e7535f528d675144feb9ec420a28b" target="_top" xlink:title="operator() specialized for a mesh built from GMSH file">
<polygon fill="none" stroke="black" points="22.5,-60.5 22.5,-101.5 141.5,-101.5 141.5,-60.5 22.5,-60.5"/>
<text text-anchor="start" x="30.5" y="-89.5" font-family="serif" font-size="10.00">specialized_spatial</text>
<text text-anchor="start" x="30.5" y="-78.5" font-family="serif" font-size="10.00">_constructor&lt; T, 2 &gt;</text>
<text text-anchor="middle" x="82" y="-67.5" font-family="serif" font-size="10.00">::operator()</text>
</a>
</g>
</g>
<!-- Node21&#45;&gt;Node23 -->
<g id="edge38" class="edge">
<title>Node21&#45;&gt;Node23</title>
<path fill="none" stroke="midnightblue" d="M194,-88.38C176.34,-87.21 158.09,-85.99 141.62,-84.9"/>
<polygon fill="midnightblue" stroke="midnightblue" points="194.1,-91.9 204.31,-89.07 194.57,-84.91 194.1,-91.9"/>
</g>
<!-- Node24 -->
<g id="node24" class="node">
<title>Node24</title>
<g id="a_node24"><a xlink:href="structspecialized__spatial__constructor_3_01T_00_013_01_4.html#ac2e4126ca21896e53bd7800cf989d462" target="_top" xlink:title="operator() specialized for a mesh built from GMSH file">
<polygon fill="none" stroke="black" points="22.5,-0.5 22.5,-41.5 141.5,-41.5 141.5,-0.5 22.5,-0.5"/>
<text text-anchor="start" x="30.5" y="-29.5" font-family="serif" font-size="10.00">specialized_spatial</text>
<text text-anchor="start" x="30.5" y="-18.5" font-family="serif" font-size="10.00">_constructor&lt; T, 3 &gt;</text>
<text text-anchor="middle" x="82" y="-7.5" font-family="serif" font-size="10.00">::operator()</text>
</a>
</g>
</g>
<!-- Node21&#45;&gt;Node24 -->
<g id="edge39" class="edge">
<title>Node21&#45;&gt;Node24</title>
<path fill="none" stroke="midnightblue" d="M228.92,-75.32C208.78,-67.75 185.29,-58.94 164,-51 155.85,-47.96 147.24,-44.76 138.79,-41.62"/>
<polygon fill="midnightblue" stroke="midnightblue" points="227.92,-78.69 238.51,-78.93 230.38,-72.13 227.92,-78.69"/>
</g>
</g>
</svg>
        <g id="navigator" transform="translate(0 0)" fill="#404254">
                <rect fill="#f2f5e9" fill-opacity="0.5" stroke="#606060" stroke-width=".5" x="0" y="0" width="60" height="60"/>
                <use id="zoomplus" xlink:href="#zoomPlus" x="17" y="9" onmousedown="handleZoom(evt,'in')"/>
                <use id="zoomminus" xlink:href="#zoomMin" x="42" y="9" onmousedown="handleZoom(evt,'out')"/>
                <use id="reset" xlink:href="#resetDef" x="30" y="36" onmousedown="handleReset()"/>
                <g id="arrowUp" xlink:href="#dirArrow" transform="translate(30 24)" onmousedown="handlePan(0,-1)">
                  <use xlink:href="#rim" fill="#404040">
                        <set attributeName="fill" to="#808080" begin="arrowUp.mouseover" end="arrowUp.mouseout"/>
                  </use>
                  <path fill="none" stroke="white" stroke-width="1.5" d="M0,-3.0v7 M-2.5,-0.5L0,-3.0L2.5,-0.5"/>
                </g>
                <g id="arrowRight" xlink:href="#dirArrow" transform="rotate(90) translate(36 -43)" onmousedown="handlePan(1,0)">
                  <use xlink:href="#rim" fill="#404040">
                        <set attributeName="fill" to="#808080" begin="arrowRight.mouseover" end="arrowRight.mouseout"/>
                  </use>
                  <path fill="none" stroke="white" stroke-width="1.5" d="M0,-3.0v7 M-2.5,-0.5L0,-3.0L2.5,-0.5"/>
                </g>
                <g id="arrowDown" xlink:href="#dirArrow" transform="rotate(180) translate(-30 -48)" onmousedown="handlePan(0,1)">
                  <use xlink:href="#rim" fill="#404040">
                        <set attributeName="fill" to="#808080" begin="arrowDown.mouseover" end="arrowDown.mouseout"/>
                  </use>
                  <path fill="none" stroke="white" stroke-width="1.5" d="M0,-3.0v7 M-2.5,-0.5L0,-3.0L2.5,-0.5"/>
                </g>
                <g id="arrowLeft" xlink:href="#dirArrow" transform="rotate(270) translate(-36 17)" onmousedown="handlePan(-1,0)">
                  <use xlink:href="#rim" fill="#404040">
                        <set attributeName="fill" to="#808080" begin="arrowLeft.mouseover" end="arrowLeft.mouseout"/>
                  </use>
                  <path fill="none" stroke="white" stroke-width="1.5" d="M0,-3.0v7 M-2.5,-0.5L0,-3.0L2.5,-0.5"/>
                </g>
        </g>
        <svg viewBox="0 0 15 15" width="100%" height="30px" preserveAspectRatio="xMaxYMin meet">
         <g id="arrow_out" transform="scale(0.3 0.3)">
          <a xlink:href="classSlothInfo_a854d3cafdb9f5a77f1063a27d2a27e04_icgraph_org.svg" target="_base">
           <rect id="button" ry="5" rx="5" y="6" x="6" height="38" width="38"
                fill="#f2f5e9" fill-opacity="0.5" stroke="#606060" stroke-width="1.0"/>
           <path id="arrow"
             d="M 11.500037,31.436501 C 11.940474,20.09759 22.043105,11.32322 32.158766,21.979434 L 37.068811,17.246167 C 37.068811,17.246167 37.088388,32 37.088388,32 L 22.160133,31.978069 C 22.160133,31.978069 26.997745,27.140456 26.997745,27.140456 C 18.528582,18.264221 13.291696,25.230495 11.500037,31.436501 z"
             style="fill:#404040;"/>
          </a>
         </g>
        </svg>
</svg>
