<?xml version="1.0" encoding="UTF-8" standalone="no"?>
<!DOCTYPE svg PUBLIC "-//W3C//DTD SVG 1.1//EN"
 "http://www.w3.org/Graphics/SVG/1.1/DTD/svg11.dtd">
<!-- Generated by graphviz version 2.43.0 (0)
 -->
<!-- Title: PrecondHypreILU::create_solver Pages: 1 -->
<svg width="363pt" height="187pt"
 viewBox="0.00 0.00 363.00 186.50" xmlns="http://www.w3.org/2000/svg" xmlns:xlink="http://www.w3.org/1999/xlink">
<g id="graph0" class="graph" transform="scale(1 1) rotate(0) translate(4 182.5)">
<title>PrecondHypreILU::create_solver</title>
<!-- Node1 -->
<g id="node1" class="node">
<title>Node1</title>
<g id="a_node1"><a xlink:title="Create preconditioner based of the PreconditionerType and a list of Parameters.">
<polygon fill="#bfbfbf" stroke="black" points="0,-76.5 0,-106.5 146,-106.5 146,-76.5 0,-76.5"/>
<text text-anchor="start" x="8" y="-94.5" font-family="serif" font-size="10.00">PrecondHypreILU::create</text>
<text text-anchor="middle" x="73" y="-83.5" font-family="serif" font-size="10.00">_solver</text>
</a>
</g>
</g>
<!-- Node2 -->
<g id="node2" class="node">
<title>Node2</title>
<g id="a_node2"><a xlink:href="classSlothInfo.html#a854d3cafdb9f5a77f1063a27d2a27e04" target="_top" xlink:title="Print information on Debug mode.">
<polygon fill="none" stroke="black" points="217.5,-159 217.5,-178 319.5,-178 319.5,-159 217.5,-159"/>
<text text-anchor="middle" x="268.5" y="-166" font-family="serif" font-size="10.00">SlothInfo::debug</text>
</a>
</g>
</g>
<!-- Node1&#45;&gt;Node2 -->
<g id="edge1" class="edge">
<title>Node1&#45;&gt;Node2</title>
<path fill="none" stroke="midnightblue" d="M97.56,-106.6C118.86,-119.66 151.48,-138.16 182,-149.5 189.99,-152.47 198.58,-155.05 207.13,-157.27"/>
<polygon fill="midnightblue" stroke="midnightblue" points="206.56,-160.73 217.1,-159.71 208.22,-153.93 206.56,-160.73"/>
</g>
<!-- Node3 -->
<g id="node3" class="node">
<title>Node3</title>
<g id="a_node3"><a xlink:href="classSolverBase.html#a52edc30e08c2552f8ceb3d9ea928b059" target="_top" xlink:title=" ">
<polygon fill="none" stroke="black" points="182,-99 182,-140 355,-140 355,-99 182,-99"/>
<text text-anchor="start" x="190" y="-128" font-family="serif" font-size="10.00">SolverBase&lt; mfem::HypreILU,</text>
<text text-anchor="start" x="190" y="-117" font-family="serif" font-size="10.00"> HyprePreconditionerType</text>
<text text-anchor="middle" x="268.5" y="-106" font-family="serif" font-size="10.00"> &gt;::get_description</text>
</a>
</g>
</g>
<!-- Node1&#45;&gt;Node3 -->
<g id="edge2" class="edge">
<title>Node1&#45;&gt;Node3</title>
<path fill="none" stroke="midnightblue" d="M146.05,-101.93C154.47,-103.14 163.16,-104.4 171.83,-105.66"/>
<polygon fill="midnightblue" stroke="midnightblue" points="171.59,-109.16 181.99,-107.13 172.59,-102.23 171.59,-109.16"/>
</g>
<!-- Node4 -->
<g id="node4" class="node">
<title>Node4</title>
<g id="a_node4"><a xlink:href="classParameters.html#ae3b314c5ebc3fde8684b0634b2406da6" target="_top" xlink:title=" ">
<polygon fill="none" stroke="black" points="201,-49.5 201,-79.5 336,-79.5 336,-49.5 201,-49.5"/>
<text text-anchor="start" x="209" y="-67.5" font-family="serif" font-size="10.00">Parameters::get_param</text>
<text text-anchor="middle" x="268.5" y="-56.5" font-family="serif" font-size="10.00">_value</text>
</a>
</g>
</g>
<!-- Node1&#45;&gt;Node4 -->
<g id="edge3" class="edge">
<title>Node1&#45;&gt;Node4</title>
<path fill="none" stroke="midnightblue" d="M146.05,-81.45C160.63,-79.41 176.01,-77.27 190.75,-75.21"/>
<polygon fill="midnightblue" stroke="midnightblue" points="191.41,-78.65 200.83,-73.8 190.44,-71.72 191.41,-78.65"/>
</g>
<!-- Node5 -->
<g id="node5" class="node">
<title>Node5</title>
<g id="a_node5"><a xlink:href="classParameters.html#a857c53fbe60d7bd2f91e91626f85b6d2" target="_top" xlink:title=" ">
<polygon fill="none" stroke="black" points="201,-0.5 201,-30.5 336,-30.5 336,-0.5 201,-0.5"/>
<text text-anchor="start" x="209" y="-18.5" font-family="serif" font-size="10.00">Parameters::get_param</text>
<text text-anchor="middle" x="268.5" y="-7.5" font-family="serif" font-size="10.00">_value_or_default</text>
</a>
</g>
</g>
<!-- Node1&#45;&gt;Node5 -->
<g id="edge4" class="edge">
<title>Node1&#45;&gt;Node5</title>
<path fill="none" stroke="midnightblue" d="M102.8,-76.38C124.25,-65.5 154.47,-50.95 182,-40.5 188.31,-38.1 194.96,-35.8 201.65,-33.62"/>
<polygon fill="midnightblue" stroke="midnightblue" points="202.95,-36.88 211.43,-30.53 200.84,-30.2 202.95,-36.88"/>
</g>
</g>
</svg>
