<?xml version="1.0" encoding="UTF-8" standalone="no"?>
<!DOCTYPE svg PUBLIC "-//W3C//DTD SVG 1.1//EN"
 "http://www.w3.org/Graphics/SVG/1.1/DTD/svg11.dtd">
<!-- Generated by graphviz version 2.43.0 (0)
 -->
<!-- Title: FickNLFormIntegrator&lt; VARS &gt; Pages: 1 -->
<svg width="240pt" height="252pt"
 viewBox="0.00 0.00 239.50 252.00" xmlns="http://www.w3.org/2000/svg" xmlns:xlink="http://www.w3.org/1999/xlink">
<g id="graph0" class="graph" transform="scale(1 1) rotate(0) translate(4 248)">
<title>FickNLFormIntegrator&lt; VARS &gt;</title>
<!-- Node1 -->
<g id="node1" class="node">
<title>Node1</title>
<g id="a_node1"><a xlink:title="Nonlinear form integrator for the right&#45;hand side of the mass diffusion equation (Fick&#39;s law).">
<polygon fill="#bfbfbf" stroke="black" points="64.5,-0.5 64.5,-30.5 196.5,-30.5 196.5,-0.5 64.5,-0.5"/>
<text text-anchor="start" x="72.5" y="-18.5" font-family="serif" font-size="10.00">FickNLFormIntegrator</text>
<text text-anchor="middle" x="130.5" y="-7.5" font-family="serif" font-size="10.00">&lt; VARS &gt;</text>
</a>
</g>
</g>
<!-- Node2 -->
<g id="node2" class="node">
<title>Node2</title>
<g id="a_node2"><a xlink:href="classDiffusionNLFormIntegrator.html" target="_top" xlink:title="Nonlinear form integrator for diffusion&#45;type problems.">
<polygon fill="none" stroke="black" points="52,-68.5 52,-98.5 209,-98.5 209,-68.5 52,-68.5"/>
<text text-anchor="start" x="60" y="-86.5" font-family="serif" font-size="10.00">DiffusionNLFormIntegrator</text>
<text text-anchor="middle" x="130.5" y="-75.5" font-family="serif" font-size="10.00">&lt; VARS &gt;</text>
</a>
</g>
</g>
<!-- Node2&#45;&gt;Node1 -->
<g id="edge1" class="edge">
<title>Node2&#45;&gt;Node1</title>
<path fill="none" stroke="midnightblue" d="M130.5,-58.03C130.5,-48.86 130.5,-38.74 130.5,-30.79"/>
<polygon fill="midnightblue" stroke="midnightblue" points="127,-58.18 130.5,-68.18 134,-58.18 127,-58.18"/>
</g>
<!-- Node3 -->
<g id="node3" class="node">
<title>Node3</title>
<g id="a_node3"><a xlink:href="classSlothNLFormIntegrator.html" target="_top" xlink:title="Class prodiving common methods to all NLFormIntegrators.">
<polygon fill="none" stroke="black" points="0,-146.5 0,-176.5 137,-176.5 137,-146.5 0,-146.5"/>
<text text-anchor="start" x="8" y="-164.5" font-family="serif" font-size="10.00">SlothNLFormIntegrator</text>
<text text-anchor="middle" x="68.5" y="-153.5" font-family="serif" font-size="10.00">&lt; VARS &gt;</text>
</a>
</g>
</g>
<!-- Node3&#45;&gt;Node2 -->
<g id="edge2" class="edge">
<title>Node3&#45;&gt;Node2</title>
<path fill="none" stroke="midnightblue" d="M86.61,-138.31C97.03,-125.53 109.81,-109.86 118.89,-98.73"/>
<polygon fill="midnightblue" stroke="midnightblue" points="83.77,-136.24 80.16,-146.2 89.2,-140.67 83.77,-136.24"/>
</g>
<!-- Node4 -->
<g id="node4" class="node">
<title>Node4</title>
<g id="a_node4"><a xlink:href="classParameters.html" target="_top" xlink:title=" ">
<polygon fill="none" stroke="black" points="31.5,-224.5 31.5,-243.5 105.5,-243.5 105.5,-224.5 31.5,-224.5"/>
<text text-anchor="middle" x="68.5" y="-231.5" font-family="serif" font-size="10.00">Parameters</text>
</a>
</g>
</g>
<!-- Node4&#45;&gt;Node3 -->
<g id="edge3" class="edge">
<title>Node4&#45;&gt;Node3</title>
<path fill="none" stroke="#9a32cd" stroke-dasharray="5,2" d="M68.5,-214.24C68.5,-202.41 68.5,-187.38 68.5,-176.58"/>
<polygon fill="#9a32cd" stroke="#9a32cd" points="65,-214.36 68.5,-224.36 72,-214.36 65,-214.36"/>
<text text-anchor="middle" x="92" y="-198" font-family="serif" font-size="10.00"> params_</text>
</g>
<!-- Node5 -->
<g id="node5" class="node">
<title>Node5</title>
<g id="a_node5"><a xlink:href="classCoefficients.html" target="_top" xlink:title="Class used to manage a collection of Coefficient.">
<polygon fill="none" stroke="black" points="155.5,-152 155.5,-171 231.5,-171 231.5,-152 155.5,-152"/>
<text text-anchor="middle" x="193.5" y="-159" font-family="serif" font-size="10.00">Coefficients</text>
</a>
</g>
</g>
<!-- Node5&#45;&gt;Node2 -->
<g id="edge4" class="edge">
<title>Node5&#45;&gt;Node2</title>
<path fill="none" stroke="#9a32cd" stroke-dasharray="5,2" d="M179.62,-143.75C168.37,-130.19 152.71,-111.3 142.12,-98.52"/>
<polygon fill="#9a32cd" stroke="#9a32cd" points="177.2,-146.32 186.27,-151.78 182.59,-141.85 177.2,-146.32"/>
<text text-anchor="middle" x="189.5" y="-120" font-family="serif" font-size="10.00"> diffusion</text>
</g>
</g>
</svg>
