<?xml version="1.0" encoding="UTF-8" standalone="no"?>
<!DOCTYPE svg PUBLIC "-//W3C//DTD SVG 1.1//EN"
 "http://www.w3.org/Graphics/SVG/1.1/DTD/svg11.dtd">
<!-- Generated by graphviz version 2.43.0 (0)
 -->
<!-- Title: Parameters::get_param_value Pages: 1 -->
<!--zoomable 666 -->
<svg id="main" version="1.1" xmlns="http://www.w3.org/2000/svg" xmlns:xlink="http://www.w3.org/1999/xlink" xml:space="preserve" onload="init(evt)">
<style type="text/css"><![CDATA[
.edge:hover path { stroke: red; }
.edge:hover polygon { stroke: red; fill: red; }
]]></style>
<script type="text/javascript"><![CDATA[
var edges = document.getElementsByTagName('g');
if (edges && edges.length) {
  for (var i=0;i<edges.length;i++) {
    if (edges[i].id.substr(0,4)=='edge') {
      edges[i].setAttribute('class','edge');
    }
  }
}
]]></script>
        <defs>
                <circle id="rim" cx="0" cy="0" r="7"/>
                <circle id="rim2" cx="0" cy="0" r="3.5"/>
                <g id="zoomPlus">
                        <use xlink:href="#rim" fill="#404040">
                                <set attributeName="fill" to="#808080" begin="zoomplus.mouseover" end="zoomplus.mouseout"/>
                        </use>
                        <path d="M-4,0h8M0,-4v8" fill="none" stroke="white" stroke-width="1.5" pointer-events="none"/>
                </g>
                <g id="zoomMin">
                        <use xlink:href="#rim" fill="#404040">
                                <set attributeName="fill" to="#808080" begin="zoomminus.mouseover" end="zoomminus.mouseout"/>
                        </use>
                        <path d="M-4,0h8" fill="none" stroke="white" stroke-width="1.5" pointer-events="none"/>
                </g>
                <g id="dirArrow">
                        <path fill="none" stroke="white" stroke-width="1.5" d="M0,-3.0v7 M-2.5,-0.5L0,-3.0L2.5,-0.5"/>
                </g>
               <g id="resetDef">
                       <use xlink:href="#rim2" fill="#404040">
                               <set attributeName="fill" to="#808080" begin="reset.mouseover" end="reset.mouseout"/>
                       </use>
               </g>
        </defs>

<script type="text/javascript">
var viewWidth = 505;
var viewHeight = 666;
var sectionId = 'dynsection-1';
</script>
<script xlink:href="svgpan.js"/>
<svg id="graph" class="graph">
<g id="viewport">
<title>Parameters::get_param_value</title>
<!-- Node1 -->
<g id="node1" class="node">
<title>Node1</title>
<g id="a_node1"><a xlink:title=" ">
<polygon fill="#bfbfbf" stroke="black" points="362,-308.5 362,-338.5 497,-338.5 497,-308.5 362,-308.5"/>
<text text-anchor="start" x="370" y="-326.5" font-family="serif" font-size="10.00">Parameters::get_param</text>
<text text-anchor="middle" x="429.5" y="-315.5" font-family="serif" font-size="10.00">_value</text>
</a>
</g>
</g>
<!-- Node2 -->
<g id="node2" class="node">
<title>Node2</title>
<g id="a_node2"><a xlink:href="classSolverUMFPACK.html#a83fe21379896c4df62b1df2947767d2e" target="_top" xlink:title="Create a direct solver based of the SolverType and a list of Parameters.">
<polygon fill="none" stroke="black" points="176.5,-627.5 176.5,-657.5 316.5,-657.5 316.5,-627.5 176.5,-627.5"/>
<text text-anchor="start" x="184.5" y="-645.5" font-family="serif" font-size="10.00">SolverUMFPACK::create</text>
<text text-anchor="middle" x="246.5" y="-634.5" font-family="serif" font-size="10.00">_solver</text>
</a>
</g>
</g>
<!-- Node1&#45;&gt;Node2 -->
<g id="edge1" class="edge">
<title>Node1&#45;&gt;Node2</title>
<path fill="none" stroke="midnightblue" d="M427.15,-348.74C422.76,-405.32 404.17,-543.22 326,-618.5 322.41,-621.96 318.33,-624.92 313.97,-627.46"/>
<polygon fill="midnightblue" stroke="midnightblue" points="430.66,-348.77 427.86,-338.55 423.68,-348.29 430.66,-348.77"/>
</g>
<!-- Node4 -->
<g id="node4" class="node">
<title>Node4</title>
<g id="a_node4"><a xlink:href="classPrecondHypreILU.html#a7e7defa37401cea9cac7183a5994b13b" target="_top" xlink:title="Create preconditioner based of the PreconditionerType and a list of Parameters.">
<polygon fill="none" stroke="black" points="173.5,-578.5 173.5,-608.5 319.5,-608.5 319.5,-578.5 173.5,-578.5"/>
<text text-anchor="start" x="181.5" y="-596.5" font-family="serif" font-size="10.00">PrecondHypreILU::create</text>
<text text-anchor="middle" x="246.5" y="-585.5" font-family="serif" font-size="10.00">_solver</text>
</a>
</g>
</g>
<!-- Node1&#45;&gt;Node4 -->
<g id="edge3" class="edge">
<title>Node1&#45;&gt;Node4</title>
<path fill="none" stroke="midnightblue" d="M425.12,-348.96C417.15,-398.68 392.61,-509.12 326,-569.5 322.2,-572.95 317.91,-575.9 313.36,-578.42"/>
<polygon fill="midnightblue" stroke="midnightblue" points="428.62,-349.17 426.65,-338.76 421.7,-348.13 428.62,-349.17"/>
</g>
<!-- Node5 -->
<g id="node5" class="node">
<title>Node5</title>
<g id="a_node5"><a xlink:href="classPrecondHypreSmoother.html#aadca5acda7af3396285f385654c24a1b" target="_top" xlink:title="Create preconditioner based of the PreconditionerType and a list of Parameters.">
<polygon fill="none" stroke="black" points="176.5,-529.5 176.5,-559.5 316.5,-559.5 316.5,-529.5 176.5,-529.5"/>
<text text-anchor="start" x="184.5" y="-547.5" font-family="serif" font-size="10.00">PrecondHypreSmoother</text>
<text text-anchor="middle" x="246.5" y="-536.5" font-family="serif" font-size="10.00">::create_solver</text>
</a>
</g>
</g>
<!-- Node1&#45;&gt;Node5 -->
<g id="edge5" class="edge">
<title>Node1&#45;&gt;Node5</title>
<path fill="none" stroke="midnightblue" d="M422.29,-348.53C410.63,-390.35 381.49,-474.34 326,-520.5 321.84,-523.96 317.18,-526.93 312.27,-529.46"/>
<polygon fill="midnightblue" stroke="midnightblue" points="425.74,-349.19 424.95,-338.63 418.98,-347.38 425.74,-349.19"/>
</g>
<!-- Node6 -->
<g id="node6" class="node">
<title>Node6</title>
<g id="a_node6"><a xlink:href="classPrecondHypreBoomerAMG.html#a9274064ab381792bf2f034344d2d621d" target="_top" xlink:title="Create preconditioner based of the PreconditionerType and a list of Parameters.">
<polygon fill="none" stroke="black" points="168,-480.5 168,-510.5 325,-510.5 325,-480.5 168,-480.5"/>
<text text-anchor="start" x="176" y="-498.5" font-family="serif" font-size="10.00">PrecondHypreBoomerAMG</text>
<text text-anchor="middle" x="246.5" y="-487.5" font-family="serif" font-size="10.00">::create_solver</text>
</a>
</g>
</g>
<!-- Node1&#45;&gt;Node6 -->
<g id="edge7" class="edge">
<title>Node1&#45;&gt;Node6</title>
<path fill="none" stroke="midnightblue" d="M417.93,-347.92C402.47,-380.79 370.6,-438.92 326,-471.5 321.28,-474.95 316.06,-477.9 310.62,-480.44"/>
<polygon fill="midnightblue" stroke="midnightblue" points="421.22,-349.13 422.2,-338.58 414.86,-346.22 421.22,-349.13"/>
</g>
<!-- Node7 -->
<g id="node7" class="node">
<title>Node7</title>
<g id="a_node7"><a xlink:href="classPrecondHypreDiagScale.html#addd6474561b2dc1caef97fbf187bae91" target="_top" xlink:title="Create preconditioner based of the PreconditionerType and a list of Parameters.">
<polygon fill="none" stroke="black" points="175.5,-431.5 175.5,-461.5 317.5,-461.5 317.5,-431.5 175.5,-431.5"/>
<text text-anchor="start" x="183.5" y="-449.5" font-family="serif" font-size="10.00">PrecondHypreDiagScale</text>
<text text-anchor="middle" x="246.5" y="-438.5" font-family="serif" font-size="10.00">::create_solver</text>
</a>
</g>
</g>
<!-- Node1&#45;&gt;Node7 -->
<g id="edge9" class="edge">
<title>Node1&#45;&gt;Node7</title>
<path fill="none" stroke="midnightblue" d="M410.32,-346.51C391.46,-368.92 360.02,-402.46 326,-422.5 320.23,-425.9 313.93,-428.86 307.49,-431.43"/>
<polygon fill="midnightblue" stroke="midnightblue" points="413.25,-348.46 416.91,-338.52 407.85,-344.01 413.25,-348.46"/>
</g>
<!-- Node8 -->
<g id="node8" class="node">
<title>Node8</title>
<g id="a_node8"><a xlink:href="classSolverHyprePCG.html#af4a480332bac2a5014c3e2a84f3403ba" target="_top" xlink:title="Create a iterative solver based of the SolverType and a list of Parameters.">
<polygon fill="none" stroke="black" points="176,-382.5 176,-412.5 317,-412.5 317,-382.5 176,-382.5"/>
<text text-anchor="start" x="184" y="-400.5" font-family="serif" font-size="10.00">SolverHyprePCG::create</text>
<text text-anchor="middle" x="246.5" y="-389.5" font-family="serif" font-size="10.00">_solver</text>
</a>
</g>
</g>
<!-- Node1&#45;&gt;Node8 -->
<g id="edge11" class="edge">
<title>Node1&#45;&gt;Node8</title>
<path fill="none" stroke="midnightblue" d="M391.73,-343.18C372.48,-353.04 348.32,-364.71 326,-373.5 317.91,-376.69 309.22,-379.72 300.67,-382.48"/>
<polygon fill="midnightblue" stroke="midnightblue" points="393.48,-346.21 400.76,-338.51 390.27,-340 393.48,-346.21"/>
</g>
<!-- Node9 -->
<g id="node9" class="node">
<title>Node9</title>
<g id="a_node9"><a xlink:href="classSolverHypreGMRES.html#a94293cedbdd903adcd5866ce3554ef10" target="_top" xlink:title="Create a iterative solver based of the SolverType and a list of Parameters.">
<polygon fill="none" stroke="black" points="167,-333.5 167,-363.5 326,-363.5 326,-333.5 167,-333.5"/>
<text text-anchor="start" x="175" y="-351.5" font-family="serif" font-size="10.00">SolverHypreGMRES::create</text>
<text text-anchor="middle" x="246.5" y="-340.5" font-family="serif" font-size="10.00">_solver</text>
</a>
</g>
</g>
<!-- Node1&#45;&gt;Node9 -->
<g id="edge13" class="edge">
<title>Node1&#45;&gt;Node9</title>
<path fill="none" stroke="midnightblue" d="M351.7,-334.11C343.28,-335.27 334.69,-336.46 326.25,-337.62"/>
<polygon fill="midnightblue" stroke="midnightblue" points="352.45,-337.54 361.87,-332.7 351.49,-330.6 352.45,-337.54"/>
</g>
<!-- Node10 -->
<g id="node10" class="node">
<title>Node10</title>
<g id="a_node10"><a xlink:href="classSolverHypreFGMRES.html#a54588ca870f9439ec8f4bccd7d8615a8" target="_top" xlink:title="Create a iterative solver based of the SolverType and a list of Parameters.">
<polygon fill="none" stroke="black" points="179.5,-284.5 179.5,-314.5 313.5,-314.5 313.5,-284.5 179.5,-284.5"/>
<text text-anchor="start" x="187.5" y="-302.5" font-family="serif" font-size="10.00">SolverHypreFGMRES::</text>
<text text-anchor="middle" x="246.5" y="-291.5" font-family="serif" font-size="10.00">create_solver</text>
</a>
</g>
</g>
<!-- Node1&#45;&gt;Node10 -->
<g id="edge15" class="edge">
<title>Node1&#45;&gt;Node10</title>
<path fill="none" stroke="midnightblue" d="M351.8,-313.33C339.13,-311.65 326.08,-309.92 313.68,-308.28"/>
<polygon fill="midnightblue" stroke="midnightblue" points="351.5,-316.82 361.87,-314.67 352.42,-309.88 351.5,-316.82"/>
</g>
<!-- Node11 -->
<g id="node11" class="node">
<title>Node11</title>
<g id="a_node11"><a xlink:href="classPrecondDSmoother.html#a286f01fb24a1d08cc00950b04e9e0bfc" target="_top" xlink:title="Create preconditioner based of the PreconditionerType and a list of Parameters.">
<polygon fill="none" stroke="black" points="169.5,-235.5 169.5,-265.5 323.5,-265.5 323.5,-235.5 169.5,-235.5"/>
<text text-anchor="start" x="177.5" y="-253.5" font-family="serif" font-size="10.00">PrecondDSmoother::create</text>
<text text-anchor="middle" x="246.5" y="-242.5" font-family="serif" font-size="10.00">_solver</text>
</a>
</g>
</g>
<!-- Node1&#45;&gt;Node11 -->
<g id="edge17" class="edge">
<title>Node1&#45;&gt;Node11</title>
<path fill="none" stroke="midnightblue" d="M389.69,-303.87C370.74,-294.66 347.44,-283.9 326,-275.5 317.08,-272.01 307.45,-268.63 298.09,-265.55"/>
<polygon fill="midnightblue" stroke="midnightblue" points="388.38,-307.13 398.9,-308.39 391.46,-300.84 388.38,-307.13"/>
</g>
<!-- Node12 -->
<g id="node12" class="node">
<title>Node12</title>
<g id="a_node12"><a xlink:href="classSolverBICGSTAB.html#a088138ab2b4e2295192b98abd8e4eefc" target="_top" xlink:title="Create a iterative solver based of the SolverType and a list of Parameters.">
<polygon fill="none" stroke="black" points="176,-186.5 176,-216.5 317,-216.5 317,-186.5 176,-186.5"/>
<text text-anchor="start" x="184" y="-204.5" font-family="serif" font-size="10.00">SolverBICGSTAB::create</text>
<text text-anchor="middle" x="246.5" y="-193.5" font-family="serif" font-size="10.00">_solver</text>
</a>
</g>
</g>
<!-- Node1&#45;&gt;Node12 -->
<g id="edge19" class="edge">
<title>Node1&#45;&gt;Node12</title>
<path fill="none" stroke="midnightblue" d="M409.54,-300.32C390.5,-278.44 359.3,-246.15 326,-226.5 319.59,-222.72 312.55,-219.44 305.4,-216.62"/>
<polygon fill="midnightblue" stroke="midnightblue" points="407.06,-302.81 416.21,-308.14 412.38,-298.27 407.06,-302.81"/>
</g>
<!-- Node13 -->
<g id="node13" class="node">
<title>Node13</title>
<g id="a_node13"><a xlink:href="classSolverMINRES.html#ace4d6324acb77a33354204e692a2463f" target="_top" xlink:title=" ">
<polygon fill="none" stroke="black" points="181,-137.5 181,-167.5 312,-167.5 312,-137.5 181,-137.5"/>
<text text-anchor="start" x="189" y="-155.5" font-family="serif" font-size="10.00">SolverMINRES::create</text>
<text text-anchor="middle" x="246.5" y="-144.5" font-family="serif" font-size="10.00">_solver</text>
</a>
</g>
</g>
<!-- Node1&#45;&gt;Node13 -->
<g id="edge21" class="edge">
<title>Node1&#45;&gt;Node13</title>
<path fill="none" stroke="midnightblue" d="M417.55,-298.99C401.84,-266.55 369.88,-209.73 326,-177.5 320.7,-173.61 314.77,-170.3 308.6,-167.51"/>
<polygon fill="midnightblue" stroke="midnightblue" points="414.47,-300.66 421.9,-308.22 420.8,-297.68 414.47,-300.66"/>
</g>
<!-- Node14 -->
<g id="node14" class="node">
<title>Node14</title>
<g id="a_node14"><a xlink:href="classSolverCG.html#a22bb7e38585bc24764881aa0f5aa200c" target="_top" xlink:title=" ">
<polygon fill="none" stroke="black" points="177.5,-99 177.5,-118 315.5,-118 315.5,-99 177.5,-99"/>
<text text-anchor="middle" x="246.5" y="-106" font-family="serif" font-size="10.00">SolverCG::create_solver</text>
</a>
</g>
</g>
<!-- Node1&#45;&gt;Node14 -->
<g id="edge23" class="edge">
<title>Node1&#45;&gt;Node14</title>
<path fill="none" stroke="midnightblue" d="M422.45,-298.43C411.02,-256.62 382.2,-172.86 326,-128.5 320.48,-124.14 314.12,-120.73 307.46,-118.05"/>
<polygon fill="midnightblue" stroke="midnightblue" points="419.12,-299.56 425.04,-308.34 425.9,-297.78 419.12,-299.56"/>
</g>
<!-- Node15 -->
<g id="node15" class="node">
<title>Node15</title>
<g id="a_node15"><a xlink:href="classSolverGMRES.html#aea5f0ae2948f5e66d2ef5d508ce61f68" target="_top" xlink:title=" ">
<polygon fill="none" stroke="black" points="183,-49.5 183,-79.5 310,-79.5 310,-49.5 183,-49.5"/>
<text text-anchor="start" x="191" y="-67.5" font-family="serif" font-size="10.00">SolverGMRES::create</text>
<text text-anchor="middle" x="246.5" y="-56.5" font-family="serif" font-size="10.00">_solver</text>
</a>
</g>
</g>
<!-- Node1&#45;&gt;Node15 -->
<g id="edge25" class="edge">
<title>Node1&#45;&gt;Node15</title>
<path fill="none" stroke="midnightblue" d="M424.48,-298.34C415.56,-250.66 389.6,-146.77 326,-89.5 321.32,-85.29 315.94,-81.79 310.22,-78.87"/>
<polygon fill="midnightblue" stroke="midnightblue" points="421.08,-299.18 426.27,-308.42 427.97,-297.96 421.08,-299.18"/>
</g>
<!-- Node16 -->
<g id="node16" class="node">
<title>Node16</title>
<g id="a_node16"><a xlink:href="classNLSolverBase.html#a5fe7ec560c9c9e10591a08aaa123f2dd" target="_top" xlink:title="Create non linear solver based of the NLSolverType and a list of Parameters.">
<polygon fill="none" stroke="black" points="183,-0.5 183,-30.5 310,-30.5 310,-0.5 183,-0.5"/>
<text text-anchor="start" x="191" y="-18.5" font-family="serif" font-size="10.00">NLSolverBase::create</text>
<text text-anchor="middle" x="246.5" y="-7.5" font-family="serif" font-size="10.00">_solver</text>
</a>
</g>
</g>
<!-- Node1&#45;&gt;Node16 -->
<g id="edge27" class="edge">
<title>Node1&#45;&gt;Node16</title>
<path fill="none" stroke="midnightblue" d="M426.65,-298.22C421.28,-243.34 400.88,-112.51 326,-40.5 321.36,-36.04 315.93,-32.37 310.12,-29.36"/>
<polygon fill="midnightblue" stroke="midnightblue" points="423.19,-298.78 427.56,-308.43 430.16,-298.16 423.19,-298.78"/>
</g>
<!-- Node3 -->
<g id="node3" class="node">
<title>Node3</title>
<g id="a_node3"><a xlink:href="classSlothSolver.html#aa9c78d816c02f2d4ab70af64cb3f7791" target="_top" xlink:title="Create the linear solver depending on SolverType.">
<polygon fill="none" stroke="black" points="0,-339 0,-358 131,-358 131,-339 0,-339"/>
<text text-anchor="middle" x="65.5" y="-346" font-family="serif" font-size="10.00">SlothSolver::get_value</text>
</a>
</g>
</g>
<!-- Node2&#45;&gt;Node3 -->
<g id="edge2" class="edge">
<title>Node2&#45;&gt;Node3</title>
<path fill="none" stroke="midnightblue" d="M170.54,-621.57C169.32,-620.59 168.13,-619.57 167,-618.5 86.54,-542.7 70.1,-396.56 67.11,-358.01"/>
<polygon fill="midnightblue" stroke="midnightblue" points="168.87,-624.67 179.12,-627.37 172.8,-618.87 168.87,-624.67"/>
</g>
<!-- Node4&#45;&gt;Node3 -->
<g id="edge4" class="edge">
<title>Node4&#45;&gt;Node3</title>
<path fill="none" stroke="midnightblue" d="M171.65,-573.2C170.04,-572.04 168.49,-570.8 167,-569.5 98.26,-509.17 73.84,-392.32 68,-358.12"/>
<polygon fill="midnightblue" stroke="midnightblue" points="169.81,-576.18 180.15,-578.5 173.51,-570.24 169.81,-576.18"/>
</g>
<!-- Node5&#45;&gt;Node3 -->
<g id="edge6" class="edge">
<title>Node5&#45;&gt;Node3</title>
<path fill="none" stroke="midnightblue" d="M172.54,-524.46C170.62,-523.22 168.77,-521.9 167,-520.5 109.77,-475.22 78.61,-387.74 69.42,-358.38"/>
<polygon fill="midnightblue" stroke="midnightblue" points="170.88,-527.55 181.31,-529.43 174.33,-521.46 170.88,-527.55"/>
</g>
<!-- Node6&#45;&gt;Node3 -->
<g id="edge8" class="edge">
<title>Node6&#45;&gt;Node3</title>
<path fill="none" stroke="midnightblue" d="M174.46,-476C171.88,-474.6 169.38,-473.1 167,-471.5 120.52,-440.3 84.56,-381.24 71.66,-358.12"/>
<polygon fill="midnightblue" stroke="midnightblue" points="172.94,-479.16 183.47,-480.4 176.02,-472.87 172.94,-479.16"/>
</g>
<!-- Node7&#45;&gt;Node3 -->
<g id="edge10" class="edge">
<title>Node7&#45;&gt;Node3</title>
<path fill="none" stroke="midnightblue" d="M178.61,-427.77C174.62,-426.13 170.72,-424.37 167,-422.5 130.99,-404.4 94.25,-373.54 76.86,-358.01"/>
<polygon fill="midnightblue" stroke="midnightblue" points="177.43,-431.07 188.01,-431.41 179.95,-424.54 177.43,-431.07"/>
</g>
<!-- Node8&#45;&gt;Node3 -->
<g id="edge12" class="edge">
<title>Node8&#45;&gt;Node3</title>
<path fill="none" stroke="midnightblue" d="M180.61,-379.74C153.77,-372.39 123.73,-364.17 101.21,-358"/>
<polygon fill="midnightblue" stroke="midnightblue" points="179.76,-383.13 190.33,-382.4 181.61,-376.38 179.76,-383.13"/>
</g>
<!-- Node9&#45;&gt;Node3 -->
<g id="edge14" class="edge">
<title>Node9&#45;&gt;Node3</title>
<path fill="none" stroke="midnightblue" d="M156.88,-348.5C148.25,-348.5 139.6,-348.5 131.27,-348.5"/>
<polygon fill="midnightblue" stroke="midnightblue" points="156.99,-352 166.99,-348.5 156.99,-345 156.99,-352"/>
</g>
<!-- Node10&#45;&gt;Node3 -->
<g id="edge16" class="edge">
<title>Node10&#45;&gt;Node3</title>
<path fill="none" stroke="midnightblue" d="M180.61,-317.26C153.77,-324.61 123.73,-332.83 101.21,-339"/>
<polygon fill="midnightblue" stroke="midnightblue" points="181.61,-320.62 190.33,-314.6 179.76,-313.87 181.61,-320.62"/>
</g>
<!-- Node11&#45;&gt;Node3 -->
<g id="edge18" class="edge">
<title>Node11&#45;&gt;Node3</title>
<path fill="none" stroke="midnightblue" d="M181.13,-269.12C176.27,-271.09 171.51,-273.22 167,-275.5 131.4,-293.51 94.77,-323.61 77.19,-338.92"/>
<polygon fill="midnightblue" stroke="midnightblue" points="182.46,-272.36 190.55,-265.51 179.96,-265.82 182.46,-272.36"/>
</g>
<!-- Node12&#45;&gt;Node3 -->
<g id="edge20" class="edge">
<title>Node12&#45;&gt;Node3</title>
<path fill="none" stroke="midnightblue" d="M176.24,-220.99C173.03,-222.68 169.93,-224.52 167,-226.5 120.87,-257.73 84.7,-316.14 71.71,-338.99"/>
<polygon fill="midnightblue" stroke="midnightblue" points="177.98,-224.03 185.5,-216.57 174.97,-217.71 177.98,-224.03"/>
</g>
<!-- Node13&#45;&gt;Node3 -->
<g id="edge22" class="edge">
<title>Node13&#45;&gt;Node3</title>
<path fill="none" stroke="midnightblue" d="M174.12,-172.48C171.64,-174.03 169.25,-175.7 167,-177.5 110.22,-222.84 78.77,-309.61 69.46,-338.71"/>
<polygon fill="midnightblue" stroke="midnightblue" points="175.81,-175.54 182.88,-167.65 172.43,-169.41 175.81,-175.54"/>
</g>
<!-- Node14&#45;&gt;Node3 -->
<g id="edge24" class="edge">
<title>Node14&#45;&gt;Node3</title>
<path fill="none" stroke="midnightblue" d="M175.32,-122.67C172.39,-124.4 169.59,-126.34 167,-128.5 97.07,-186.91 73.48,-304.37 67.92,-338.81"/>
<polygon fill="midnightblue" stroke="midnightblue" points="177.13,-125.69 184.51,-118.08 174,-119.43 177.13,-125.69"/>
</g>
<!-- Node15&#45;&gt;Node3 -->
<g id="edge26" class="edge">
<title>Node15&#45;&gt;Node3</title>
<path fill="none" stroke="midnightblue" d="M174.06,-83.8C171.57,-85.54 169.2,-87.43 167,-89.5 89.69,-162.18 71.03,-301.22 67.32,-338.89"/>
<polygon fill="midnightblue" stroke="midnightblue" points="176.19,-86.6 182.98,-78.47 172.6,-80.6 176.19,-86.6"/>
</g>
</g>
</svg>
        <g id="navigator" transform="translate(0 0)" fill="#404254">
                <rect fill="#f2f5e9" fill-opacity="0.5" stroke="#606060" stroke-width=".5" x="0" y="0" width="60" height="60"/>
                <use id="zoomplus" xlink:href="#zoomPlus" x="17" y="9" onmousedown="handleZoom(evt,'in')"/>
                <use id="zoomminus" xlink:href="#zoomMin" x="42" y="9" onmousedown="handleZoom(evt,'out')"/>
                <use id="reset" xlink:href="#resetDef" x="30" y="36" onmousedown="handleReset()"/>
                <g id="arrowUp" xlink:href="#dirArrow" transform="translate(30 24)" onmousedown="handlePan(0,-1)">
                  <use xlink:href="#rim" fill="#404040">
                        <set attributeName="fill" to="#808080" begin="arrowUp.mouseover" end="arrowUp.mouseout"/>
                  </use>
                  <path fill="none" stroke="white" stroke-width="1.5" d="M0,-3.0v7 M-2.5,-0.5L0,-3.0L2.5,-0.5"/>
                </g>
                <g id="arrowRight" xlink:href="#dirArrow" transform="rotate(90) translate(36 -43)" onmousedown="handlePan(1,0)">
                  <use xlink:href="#rim" fill="#404040">
                        <set attributeName="fill" to="#808080" begin="arrowRight.mouseover" end="arrowRight.mouseout"/>
                  </use>
                  <path fill="none" stroke="white" stroke-width="1.5" d="M0,-3.0v7 M-2.5,-0.5L0,-3.0L2.5,-0.5"/>
                </g>
                <g id="arrowDown" xlink:href="#dirArrow" transform="rotate(180) translate(-30 -48)" onmousedown="handlePan(0,1)">
                  <use xlink:href="#rim" fill="#404040">
                        <set attributeName="fill" to="#808080" begin="arrowDown.mouseover" end="arrowDown.mouseout"/>
                  </use>
                  <path fill="none" stroke="white" stroke-width="1.5" d="M0,-3.0v7 M-2.5,-0.5L0,-3.0L2.5,-0.5"/>
                </g>
                <g id="arrowLeft" xlink:href="#dirArrow" transform="rotate(270) translate(-36 17)" onmousedown="handlePan(-1,0)">
                  <use xlink:href="#rim" fill="#404040">
                        <set attributeName="fill" to="#808080" begin="arrowLeft.mouseover" end="arrowLeft.mouseout"/>
                  </use>
                  <path fill="none" stroke="white" stroke-width="1.5" d="M0,-3.0v7 M-2.5,-0.5L0,-3.0L2.5,-0.5"/>
                </g>
        </g>
        <svg viewBox="0 0 15 15" width="100%" height="30px" preserveAspectRatio="xMaxYMin meet">
         <g id="arrow_out" transform="scale(0.3 0.3)">
          <a xlink:href="classParameters_ae3b314c5ebc3fde8684b0634b2406da6_icgraph_org.svg" target="_base">
           <rect id="button" ry="5" rx="5" y="6" x="6" height="38" width="38"
                fill="#f2f5e9" fill-opacity="0.5" stroke="#606060" stroke-width="1.0"/>
           <path id="arrow"
             d="M 11.500037,31.436501 C 11.940474,20.09759 22.043105,11.32322 32.158766,21.979434 L 37.068811,17.246167 C 37.068811,17.246167 37.088388,32 37.088388,32 L 22.160133,31.978069 C 22.160133,31.978069 26.997745,27.140456 26.997745,27.140456 C 18.528582,18.264221 13.291696,25.230495 11.500037,31.436501 z"
             style="fill:#404040;"/>
          </a>
         </g>
        </svg>
</svg>
