<?xml version="1.0" encoding="UTF-8" standalone="no"?>
<!DOCTYPE svg PUBLIC "-//W3C//DTD SVG 1.1//EN"
 "http://www.w3.org/Graphics/SVG/1.1/DTD/svg11.dtd">
<!-- Generated by graphviz version 2.43.0 (0)
 -->
<!-- Title: SolverHypreGMRES::create_solver Pages: 1 -->
<svg width="409pt" height="214pt"
 viewBox="0.00 0.00 409.00 214.00" xmlns="http://www.w3.org/2000/svg" xmlns:xlink="http://www.w3.org/1999/xlink">
<g id="graph0" class="graph" transform="scale(1 1) rotate(0) translate(4 210)">
<title>SolverHypreGMRES::create_solver</title>
<!-- Node1 -->
<g id="node1" class="node">
<title>Node1</title>
<g id="a_node1"><a xlink:title="Create a iterative solver based of the SolverType and a list of Parameters.">
<polygon fill="#bfbfbf" stroke="black" points="0,-88 0,-118 159,-118 159,-88 0,-88"/>
<text text-anchor="start" x="8" y="-106" font-family="serif" font-size="10.00">SolverHypreGMRES::create</text>
<text text-anchor="middle" x="79.5" y="-95" font-family="serif" font-size="10.00">_solver</text>
</a>
</g>
</g>
<!-- Node2 -->
<g id="node2" class="node">
<title>Node2</title>
<g id="a_node2"><a xlink:href="classSlothInfo.html#a854d3cafdb9f5a77f1063a27d2a27e04" target="_top" xlink:title="Print information on Debug mode.">
<polygon fill="none" stroke="black" points="247,-186.5 247,-205.5 349,-205.5 349,-186.5 247,-186.5"/>
<text text-anchor="middle" x="298" y="-193.5" font-family="serif" font-size="10.00">SlothInfo::debug</text>
</a>
</g>
</g>
<!-- Node1&#45;&gt;Node2 -->
<g id="edge1" class="edge">
<title>Node1&#45;&gt;Node2</title>
<path fill="none" stroke="midnightblue" d="M98.69,-118.01C120.29,-135.02 158.06,-162.29 195,-177 208.13,-182.23 222.79,-186.04 236.81,-188.8"/>
<polygon fill="midnightblue" stroke="midnightblue" points="236.41,-192.29 246.88,-190.64 237.67,-185.4 236.41,-192.29"/>
</g>
<!-- Node3 -->
<g id="node3" class="node">
<title>Node3</title>
<g id="a_node3"><a xlink:href="classSolverBase.html#a52edc30e08c2552f8ceb3d9ea928b059" target="_top" xlink:title=" ">
<polygon fill="none" stroke="black" points="195,-137 195,-167 401,-167 401,-137 195,-137"/>
<text text-anchor="start" x="203" y="-155" font-family="serif" font-size="10.00">SolverBase&lt; mfem::HypreGMRES,</text>
<text text-anchor="middle" x="298" y="-144" font-family="serif" font-size="10.00"> HypreSolverType &gt;::get_description</text>
</a>
</g>
</g>
<!-- Node1&#45;&gt;Node3 -->
<g id="edge2" class="edge">
<title>Node1&#45;&gt;Node3</title>
<path fill="none" stroke="midnightblue" d="M146.93,-118.03C170.31,-123.33 196.76,-129.31 220.88,-134.77"/>
<polygon fill="midnightblue" stroke="midnightblue" points="220.17,-138.2 230.7,-136.99 221.72,-131.37 220.17,-138.2"/>
</g>
<!-- Node4 -->
<g id="node4" class="node">
<title>Node4</title>
<g id="a_node4"><a xlink:href="classParameters.html#ae3b314c5ebc3fde8684b0634b2406da6" target="_top" xlink:title=" ">
<polygon fill="none" stroke="black" points="230.5,-88 230.5,-118 365.5,-118 365.5,-88 230.5,-88"/>
<text text-anchor="start" x="238.5" y="-106" font-family="serif" font-size="10.00">Parameters::get_param</text>
<text text-anchor="middle" x="298" y="-95" font-family="serif" font-size="10.00">_value</text>
</a>
</g>
</g>
<!-- Node1&#45;&gt;Node4 -->
<g id="edge3" class="edge">
<title>Node1&#45;&gt;Node4</title>
<path fill="none" stroke="midnightblue" d="M159.27,-103C179.14,-103 200.45,-103 220.22,-103"/>
<polygon fill="midnightblue" stroke="midnightblue" points="220.4,-106.5 230.4,-103 220.4,-99.5 220.4,-106.5"/>
</g>
<!-- Node5 -->
<g id="node5" class="node">
<title>Node5</title>
<g id="a_node5"><a xlink:href="classParameters.html#a857c53fbe60d7bd2f91e91626f85b6d2" target="_top" xlink:title=" ">
<polygon fill="none" stroke="black" points="230.5,-39 230.5,-69 365.5,-69 365.5,-39 230.5,-39"/>
<text text-anchor="start" x="238.5" y="-57" font-family="serif" font-size="10.00">Parameters::get_param</text>
<text text-anchor="middle" x="298" y="-46" font-family="serif" font-size="10.00">_value_or_default</text>
</a>
</g>
</g>
<!-- Node1&#45;&gt;Node5 -->
<g id="edge4" class="edge">
<title>Node1&#45;&gt;Node5</title>
<path fill="none" stroke="midnightblue" d="M146.93,-87.97C170.31,-82.67 196.76,-76.69 220.88,-71.23"/>
<polygon fill="midnightblue" stroke="midnightblue" points="221.72,-74.63 230.7,-69.01 220.17,-67.8 221.72,-74.63"/>
</g>
<!-- Node6 -->
<g id="node6" class="node">
<title>Node6</title>
<g id="a_node6"><a xlink:href="UtilsForData_8hpp.html#a624f01f99bc5aadf3d7c3b7c8c7c4ac7" target="_top" xlink:title="Check the level of verbosity.">
<polygon fill="none" stroke="black" points="247.5,-0.5 247.5,-19.5 348.5,-19.5 348.5,-0.5 247.5,-0.5"/>
<text text-anchor="middle" x="298" y="-7.5" font-family="serif" font-size="10.00">verbose_at_least</text>
</a>
</g>
</g>
<!-- Node1&#45;&gt;Node6 -->
<g id="edge5" class="edge">
<title>Node1&#45;&gt;Node6</title>
<path fill="none" stroke="midnightblue" d="M99.14,-87.97C120.86,-71.23 158.45,-44.63 195,-30 208.28,-24.69 223.11,-20.75 237.27,-17.84"/>
<polygon fill="midnightblue" stroke="midnightblue" points="238.26,-21.21 247.42,-15.9 236.94,-14.34 238.26,-21.21"/>
</g>
</g>
</svg>
