<?xml version="1.0" encoding="UTF-8" standalone="no"?>
<!DOCTYPE svg PUBLIC "-//W3C//DTD SVG 1.1//EN"
 "http://www.w3.org/Graphics/SVG/1.1/DTD/svg11.dtd">
<!-- Generated by graphviz version 2.43.0 (0)
 -->
<!-- Title: Parameters::get_param_value_or_default Pages: 1 -->
<!--zoomable 666 -->
<svg id="main" version="1.1" xmlns="http://www.w3.org/2000/svg" xmlns:xlink="http://www.w3.org/1999/xlink" xml:space="preserve" onload="init(evt)">
<style type="text/css"><![CDATA[
.edge:hover path { stroke: red; }
.edge:hover polygon { stroke: red; fill: red; }
]]></style>
<script type="text/javascript"><![CDATA[
var edges = document.getElementsByTagName('g');
if (edges && edges.length) {
  for (var i=0;i<edges.length;i++) {
    if (edges[i].id.substr(0,4)=='edge') {
      edges[i].setAttribute('class','edge');
    }
  }
}
]]></script>
        <defs>
                <circle id="rim" cx="0" cy="0" r="7"/>
                <circle id="rim2" cx="0" cy="0" r="3.5"/>
                <g id="zoomPlus">
                        <use xlink:href="#rim" fill="#404040">
                                <set attributeName="fill" to="#808080" begin="zoomplus.mouseover" end="zoomplus.mouseout"/>
                        </use>
                        <path d="M-4,0h8M0,-4v8" fill="none" stroke="white" stroke-width="1.5" pointer-events="none"/>
                </g>
                <g id="zoomMin">
                        <use xlink:href="#rim" fill="#404040">
                                <set attributeName="fill" to="#808080" begin="zoomminus.mouseover" end="zoomminus.mouseout"/>
                        </use>
                        <path d="M-4,0h8" fill="none" stroke="white" stroke-width="1.5" pointer-events="none"/>
                </g>
                <g id="dirArrow">
                        <path fill="none" stroke="white" stroke-width="1.5" d="M0,-3.0v7 M-2.5,-0.5L0,-3.0L2.5,-0.5"/>
                </g>
               <g id="resetDef">
                       <use xlink:href="#rim2" fill="#404040">
                               <set attributeName="fill" to="#808080" begin="reset.mouseover" end="reset.mouseout"/>
                       </use>
               </g>
        </defs>

<script type="text/javascript">
var viewWidth = 505;
var viewHeight = 666;
var sectionId = 'dynsection-2';
</script>
<script xlink:href="svgpan.js"/>
<svg id="graph" class="graph">
<g id="viewport">
<title>Parameters::get_param_value_or_default</title>
<!-- Node1 -->
<g id="node1" class="node">
<title>Node1</title>
<g id="a_node1"><a xlink:title=" ">
<polygon fill="#bfbfbf" stroke="black" points="362,-308.5 362,-338.5 497,-338.5 497,-308.5 362,-308.5"/>
<text text-anchor="start" x="370" y="-326.5" font-family="serif" font-size="10.00">Parameters::get_param</text>
<text text-anchor="middle" x="429.5" y="-315.5" font-family="serif" font-size="10.00">_value_or_default</text>
</a>
</g>
</g>
<!-- Node2 -->
<g id="node2" class="node">
<title>Node2</title>
<g id="a_node2"><a xlink:href="classSolverUMFPACK.html#a83fe21379896c4df62b1df2947767d2e" target="_top" xlink:title="Create a direct solver based of the SolverType and a list of Parameters.">
<polygon fill="none" stroke="black" points="176.5,-627.5 176.5,-657.5 316.5,-657.5 316.5,-627.5 176.5,-627.5"/>
<text text-anchor="start" x="184.5" y="-645.5" font-family="serif" font-size="10.00">SolverUMFPACK::create</text>
<text text-anchor="middle" x="246.5" y="-634.5" font-family="serif" font-size="10.00">_solver</text>
</a>
</g>
</g>
<!-- Node1&#45;&gt;Node2 -->
<g id="edge1" class="edge">
<title>Node1&#45;&gt;Node2</title>
<path fill="none" stroke="midnightblue" d="M427.15,-348.74C422.76,-405.32 404.17,-543.22 326,-618.5 322.41,-621.96 318.33,-624.92 313.97,-627.46"/>
<polygon fill="midnightblue" stroke="midnightblue" points="430.66,-348.77 427.86,-338.55 423.68,-348.29 430.66,-348.77"/>
</g>
<!-- Node4 -->
<g id="node4" class="node">
<title>Node4</title>
<g id="a_node4"><a xlink:href="classPrecondHypreILU.html#a7e7defa37401cea9cac7183a5994b13b" target="_top" xlink:title="Create preconditioner based of the PreconditionerType and a list of Parameters.">
<polygon fill="none" stroke="black" points="173.5,-578.5 173.5,-608.5 319.5,-608.5 319.5,-578.5 173.5,-578.5"/>
<text text-anchor="start" x="181.5" y="-596.5" font-family="serif" font-size="10.00">PrecondHypreILU::create</text>
<text text-anchor="middle" x="246.5" y="-585.5" font-family="serif" font-size="10.00">_solver</text>
</a>
</g>
</g>
<!-- Node1&#45;&gt;Node4 -->
<g id="edge3" class="edge">
<title>Node1&#45;&gt;Node4</title>
<path fill="none" stroke="midnightblue" d="M425.12,-348.96C417.15,-398.68 392.61,-509.12 326,-569.5 322.2,-572.95 317.91,-575.9 313.36,-578.42"/>
<polygon fill="midnightblue" stroke="midnightblue" points="428.62,-349.17 426.65,-338.76 421.7,-348.13 428.62,-349.17"/>
</g>
<!-- Node5 -->
<g id="node5" class="node">
<title>Node5</title>
<g id="a_node5"><a xlink:href="classPrecondHypreSmoother.html#aadca5acda7af3396285f385654c24a1b" target="_top" xlink:title="Create preconditioner based of the PreconditionerType and a list of Parameters.">
<polygon fill="none" stroke="black" points="176.5,-529.5 176.5,-559.5 316.5,-559.5 316.5,-529.5 176.5,-529.5"/>
<text text-anchor="start" x="184.5" y="-547.5" font-family="serif" font-size="10.00">PrecondHypreSmoother</text>
<text text-anchor="middle" x="246.5" y="-536.5" font-family="serif" font-size="10.00">::create_solver</text>
</a>
</g>
</g>
<!-- Node1&#45;&gt;Node5 -->
<g id="edge5" class="edge">
<title>Node1&#45;&gt;Node5</title>
<path fill="none" stroke="midnightblue" d="M422.29,-348.53C410.63,-390.35 381.49,-474.34 326,-520.5 321.84,-523.96 317.18,-526.93 312.27,-529.46"/>
<polygon fill="midnightblue" stroke="midnightblue" points="425.74,-349.19 424.95,-338.63 418.98,-347.38 425.74,-349.19"/>
</g>
<!-- Node6 -->
<g id="node6" class="node">
<title>Node6</title>
<g id="a_node6"><a xlink:href="classPrecondHypreBoomerAMG.html#a9274064ab381792bf2f034344d2d621d" target="_top" xlink:title="Create preconditioner based of the PreconditionerType and a list of Parameters.">
<polygon fill="none" stroke="black" points="168,-480.5 168,-510.5 325,-510.5 325,-480.5 168,-480.5"/>
<text text-anchor="start" x="176" y="-498.5" font-family="serif" font-size="10.00">PrecondHypreBoomerAMG</text>
<text text-anchor="middle" x="246.5" y="-487.5" font-family="serif" font-size="10.00">::create_solver</text>
</a>
</g>
</g>
<!-- Node1&#45;&gt;Node6 -->
<g id="edge7" class="edge">
<title>Node1&#45;&gt;Node6</title>
<path fill="none" stroke="midnightblue" d="M417.93,-347.92C402.47,-380.79 370.6,-438.92 326,-471.5 321.28,-474.95 316.06,-477.9 310.62,-480.44"/>
<polygon fill="midnightblue" stroke="midnightblue" points="421.22,-349.13 422.2,-338.58 414.86,-346.22 421.22,-349.13"/>
</g>
<!-- Node7 -->
<g id="node7" class="node">
<title>Node7</title>
<g id="a_node7"><a xlink:href="classSolverHyprePCG.html#af4a480332bac2a5014c3e2a84f3403ba" target="_top" xlink:title="Create a iterative solver based of the SolverType and a list of Parameters.">
<polygon fill="none" stroke="black" points="176,-431.5 176,-461.5 317,-461.5 317,-431.5 176,-431.5"/>
<text text-anchor="start" x="184" y="-449.5" font-family="serif" font-size="10.00">SolverHyprePCG::create</text>
<text text-anchor="middle" x="246.5" y="-438.5" font-family="serif" font-size="10.00">_solver</text>
</a>
</g>
</g>
<!-- Node1&#45;&gt;Node7 -->
<g id="edge9" class="edge">
<title>Node1&#45;&gt;Node7</title>
<path fill="none" stroke="midnightblue" d="M410.32,-346.51C391.46,-368.92 360.02,-402.46 326,-422.5 320.23,-425.9 313.93,-428.86 307.49,-431.43"/>
<polygon fill="midnightblue" stroke="midnightblue" points="413.25,-348.46 416.91,-338.52 407.85,-344.01 413.25,-348.46"/>
</g>
<!-- Node8 -->
<g id="node8" class="node">
<title>Node8</title>
<g id="a_node8"><a xlink:href="classSolverHypreGMRES.html#a94293cedbdd903adcd5866ce3554ef10" target="_top" xlink:title="Create a iterative solver based of the SolverType and a list of Parameters.">
<polygon fill="none" stroke="black" points="167,-382.5 167,-412.5 326,-412.5 326,-382.5 167,-382.5"/>
<text text-anchor="start" x="175" y="-400.5" font-family="serif" font-size="10.00">SolverHypreGMRES::create</text>
<text text-anchor="middle" x="246.5" y="-389.5" font-family="serif" font-size="10.00">_solver</text>
</a>
</g>
</g>
<!-- Node1&#45;&gt;Node8 -->
<g id="edge11" class="edge">
<title>Node1&#45;&gt;Node8</title>
<path fill="none" stroke="midnightblue" d="M391.73,-343.18C372.48,-353.04 348.32,-364.71 326,-373.5 317.91,-376.69 309.22,-379.72 300.67,-382.48"/>
<polygon fill="midnightblue" stroke="midnightblue" points="393.48,-346.21 400.76,-338.51 390.27,-340 393.48,-346.21"/>
</g>
<!-- Node9 -->
<g id="node9" class="node">
<title>Node9</title>
<g id="a_node9"><a xlink:href="classSolverHypreFGMRES.html#a54588ca870f9439ec8f4bccd7d8615a8" target="_top" xlink:title="Create a iterative solver based of the SolverType and a list of Parameters.">
<polygon fill="none" stroke="black" points="179.5,-333.5 179.5,-363.5 313.5,-363.5 313.5,-333.5 179.5,-333.5"/>
<text text-anchor="start" x="187.5" y="-351.5" font-family="serif" font-size="10.00">SolverHypreFGMRES::</text>
<text text-anchor="middle" x="246.5" y="-340.5" font-family="serif" font-size="10.00">create_solver</text>
</a>
</g>
</g>
<!-- Node1&#45;&gt;Node9 -->
<g id="edge13" class="edge">
<title>Node1&#45;&gt;Node9</title>
<path fill="none" stroke="midnightblue" d="M351.8,-334.09C339.13,-335.84 326.08,-337.65 313.68,-339.36"/>
<polygon fill="midnightblue" stroke="midnightblue" points="352.45,-337.54 361.87,-332.7 351.49,-330.6 352.45,-337.54"/>
</g>
<!-- Node10 -->
<g id="node10" class="node">
<title>Node10</title>
<g id="a_node10"><a xlink:href="classPrecondDSmoother.html#a286f01fb24a1d08cc00950b04e9e0bfc" target="_top" xlink:title="Create preconditioner based of the PreconditionerType and a list of Parameters.">
<polygon fill="none" stroke="black" points="169.5,-284.5 169.5,-314.5 323.5,-314.5 323.5,-284.5 169.5,-284.5"/>
<text text-anchor="start" x="177.5" y="-302.5" font-family="serif" font-size="10.00">PrecondDSmoother::create</text>
<text text-anchor="middle" x="246.5" y="-291.5" font-family="serif" font-size="10.00">_solver</text>
</a>
</g>
</g>
<!-- Node1&#45;&gt;Node10 -->
<g id="edge15" class="edge">
<title>Node1&#45;&gt;Node10</title>
<path fill="none" stroke="midnightblue" d="M351.88,-313.34C342.57,-312.11 333.07,-310.85 323.77,-309.61"/>
<polygon fill="midnightblue" stroke="midnightblue" points="351.5,-316.82 361.87,-314.67 352.42,-309.88 351.5,-316.82"/>
</g>
<!-- Node11 -->
<g id="node11" class="node">
<title>Node11</title>
<g id="a_node11"><a xlink:href="classSolverBICGSTAB.html#a088138ab2b4e2295192b98abd8e4eefc" target="_top" xlink:title="Create a iterative solver based of the SolverType and a list of Parameters.">
<polygon fill="none" stroke="black" points="176,-235.5 176,-265.5 317,-265.5 317,-235.5 176,-235.5"/>
<text text-anchor="start" x="184" y="-253.5" font-family="serif" font-size="10.00">SolverBICGSTAB::create</text>
<text text-anchor="middle" x="246.5" y="-242.5" font-family="serif" font-size="10.00">_solver</text>
</a>
</g>
</g>
<!-- Node1&#45;&gt;Node11 -->
<g id="edge17" class="edge">
<title>Node1&#45;&gt;Node11</title>
<path fill="none" stroke="midnightblue" d="M389.69,-303.87C370.74,-294.66 347.44,-283.9 326,-275.5 317.08,-272.01 307.45,-268.63 298.09,-265.55"/>
<polygon fill="midnightblue" stroke="midnightblue" points="388.38,-307.13 398.9,-308.39 391.46,-300.84 388.38,-307.13"/>
</g>
<!-- Node12 -->
<g id="node12" class="node">
<title>Node12</title>
<g id="a_node12"><a xlink:href="classSolverMINRES.html#ace4d6324acb77a33354204e692a2463f" target="_top" xlink:title=" ">
<polygon fill="none" stroke="black" points="181,-186.5 181,-216.5 312,-216.5 312,-186.5 181,-186.5"/>
<text text-anchor="start" x="189" y="-204.5" font-family="serif" font-size="10.00">SolverMINRES::create</text>
<text text-anchor="middle" x="246.5" y="-193.5" font-family="serif" font-size="10.00">_solver</text>
</a>
</g>
</g>
<!-- Node1&#45;&gt;Node12 -->
<g id="edge19" class="edge">
<title>Node1&#45;&gt;Node12</title>
<path fill="none" stroke="midnightblue" d="M409.54,-300.32C390.5,-278.44 359.3,-246.15 326,-226.5 319.59,-222.72 312.55,-219.44 305.4,-216.62"/>
<polygon fill="midnightblue" stroke="midnightblue" points="407.06,-302.81 416.21,-308.14 412.38,-298.27 407.06,-302.81"/>
</g>
<!-- Node13 -->
<g id="node13" class="node">
<title>Node13</title>
<g id="a_node13"><a xlink:href="classSolverCG.html#a22bb7e38585bc24764881aa0f5aa200c" target="_top" xlink:title=" ">
<polygon fill="none" stroke="black" points="177.5,-148 177.5,-167 315.5,-167 315.5,-148 177.5,-148"/>
<text text-anchor="middle" x="246.5" y="-155" font-family="serif" font-size="10.00">SolverCG::create_solver</text>
</a>
</g>
</g>
<!-- Node1&#45;&gt;Node13 -->
<g id="edge21" class="edge">
<title>Node1&#45;&gt;Node13</title>
<path fill="none" stroke="midnightblue" d="M418.06,-299.11C402.74,-266.33 371.04,-208.59 326,-177.5 319.63,-173.11 312.38,-169.68 304.91,-167"/>
<polygon fill="midnightblue" stroke="midnightblue" points="414.96,-300.76 422.28,-308.42 421.34,-297.87 414.96,-300.76"/>
</g>
<!-- Node14 -->
<g id="node14" class="node">
<title>Node14</title>
<g id="a_node14"><a xlink:href="classSolverGMRES.html#aea5f0ae2948f5e66d2ef5d508ce61f68" target="_top" xlink:title=" ">
<polygon fill="none" stroke="black" points="183,-98.5 183,-128.5 310,-128.5 310,-98.5 183,-98.5"/>
<text text-anchor="start" x="191" y="-116.5" font-family="serif" font-size="10.00">SolverGMRES::create</text>
<text text-anchor="middle" x="246.5" y="-105.5" font-family="serif" font-size="10.00">_solver</text>
</a>
</g>
</g>
<!-- Node1&#45;&gt;Node14 -->
<g id="edge23" class="edge">
<title>Node1&#45;&gt;Node14</title>
<path fill="none" stroke="midnightblue" d="M421.34,-298.62C408.66,-258.97 378.53,-181.55 326,-138.5 321.24,-134.6 315.87,-131.31 310.22,-128.52"/>
<polygon fill="midnightblue" stroke="midnightblue" points="418.03,-299.77 424.32,-308.29 424.72,-297.71 418.03,-299.77"/>
</g>
<!-- Node15 -->
<g id="node15" class="node">
<title>Node15</title>
<g id="a_node15"><a xlink:href="classSolverNewton.html#ac34b1de15feb99f5539ab9007cf37800" target="_top" xlink:title="Create non linear solver based of the NLSolverType and a list of Parameters.">
<polygon fill="none" stroke="black" points="183.5,-49.5 183.5,-79.5 309.5,-79.5 309.5,-49.5 183.5,-49.5"/>
<text text-anchor="start" x="191.5" y="-67.5" font-family="serif" font-size="10.00">SolverNewton::create</text>
<text text-anchor="middle" x="246.5" y="-56.5" font-family="serif" font-size="10.00">_solver</text>
</a>
</g>
</g>
<!-- Node1&#45;&gt;Node15 -->
<g id="edge25" class="edge">
<title>Node1&#45;&gt;Node15</title>
<path fill="none" stroke="midnightblue" d="M424.48,-298.34C415.56,-250.66 389.6,-146.77 326,-89.5 321.22,-85.19 315.69,-81.63 309.83,-78.68"/>
<polygon fill="midnightblue" stroke="midnightblue" points="421.08,-299.18 426.27,-308.42 427.97,-297.96 421.08,-299.18"/>
</g>
<!-- Node16 -->
<g id="node16" class="node">
<title>Node16</title>
<g id="a_node16"><a xlink:href="classSolverLBFGS.html#a507c2bb2c75c19d0304b42dc8f9159de" target="_top" xlink:title="Create non linear solver based of the NLSolverType and a list of Parameters.">
<polygon fill="none" stroke="black" points="185.5,-0.5 185.5,-30.5 307.5,-30.5 307.5,-0.5 185.5,-0.5"/>
<text text-anchor="start" x="193.5" y="-18.5" font-family="serif" font-size="10.00">SolverLBFGS::create</text>
<text text-anchor="middle" x="246.5" y="-7.5" font-family="serif" font-size="10.00">_solver</text>
</a>
</g>
</g>
<!-- Node1&#45;&gt;Node16 -->
<g id="edge27" class="edge">
<title>Node1&#45;&gt;Node16</title>
<path fill="none" stroke="midnightblue" d="M426.65,-298.22C421.28,-243.34 400.88,-112.51 326,-40.5 320.74,-35.44 314.46,-31.41 307.78,-28.19"/>
<polygon fill="midnightblue" stroke="midnightblue" points="423.19,-298.78 427.56,-308.43 430.16,-298.16 423.19,-298.78"/>
</g>
<!-- Node3 -->
<g id="node3" class="node">
<title>Node3</title>
<g id="a_node3"><a xlink:href="classSlothSolver.html#aa9c78d816c02f2d4ab70af64cb3f7791" target="_top" xlink:title="Create the linear solver depending on SolverType.">
<polygon fill="none" stroke="black" points="0,-314 0,-333 131,-333 131,-314 0,-314"/>
<text text-anchor="middle" x="65.5" y="-321" font-family="serif" font-size="10.00">SlothSolver::get_value</text>
</a>
</g>
</g>
<!-- Node2&#45;&gt;Node3 -->
<g id="edge2" class="edge">
<title>Node2&#45;&gt;Node3</title>
<path fill="none" stroke="midnightblue" d="M170.5,-621.61C169.29,-620.62 168.12,-619.58 167,-618.5 80.54,-534.73 68.45,-373.73 66.77,-333.03"/>
<polygon fill="midnightblue" stroke="midnightblue" points="168.79,-624.69 179.01,-627.48 172.77,-618.92 168.79,-624.69"/>
</g>
<!-- Node4&#45;&gt;Node3 -->
<g id="edge4" class="edge">
<title>Node4&#45;&gt;Node3</title>
<path fill="none" stroke="midnightblue" d="M171.07,-572.89C169.66,-571.82 168.3,-570.69 167,-569.5 92.38,-501.39 71.88,-369.78 67.51,-333.16"/>
<polygon fill="midnightblue" stroke="midnightblue" points="169.33,-575.93 179.62,-578.45 173.14,-570.07 169.33,-575.93"/>
</g>
<!-- Node5&#45;&gt;Node3 -->
<g id="edge6" class="edge">
<title>Node5&#45;&gt;Node3</title>
<path fill="none" stroke="midnightblue" d="M171.87,-524.21C170.18,-523.04 168.56,-521.8 167,-520.5 104.04,-467.7 76.11,-365.51 68.64,-333.4"/>
<polygon fill="midnightblue" stroke="midnightblue" points="170.33,-527.36 180.7,-529.5 173.92,-521.36 170.33,-527.36"/>
</g>
<!-- Node6&#45;&gt;Node3 -->
<g id="edge8" class="edge">
<title>Node6&#45;&gt;Node3</title>
<path fill="none" stroke="midnightblue" d="M173.44,-475.77C171.21,-474.44 169.06,-473.02 167,-471.5 115.01,-433.15 81.16,-359.42 70.29,-333.11"/>
<polygon fill="midnightblue" stroke="midnightblue" points="171.87,-478.9 182.35,-480.49 175.15,-472.72 171.87,-478.9"/>
</g>
<!-- Node7&#45;&gt;Node3 -->
<g id="edge10" class="edge">
<title>Node7&#45;&gt;Node3</title>
<path fill="none" stroke="midnightblue" d="M176.27,-427.45C173.08,-425.92 169.97,-424.27 167,-422.5 125.76,-397.93 88.76,-352.95 73.68,-333.22"/>
<polygon fill="midnightblue" stroke="midnightblue" points="174.91,-430.67 185.47,-431.48 177.72,-424.26 174.91,-430.67"/>
</g>
<!-- Node8&#45;&gt;Node3 -->
<g id="edge12" class="edge">
<title>Node8&#45;&gt;Node3</title>
<path fill="none" stroke="midnightblue" d="M182.02,-379.08C176.9,-377.3 171.84,-375.43 167,-373.5 136.77,-361.45 103.21,-343.85 83.53,-333.06"/>
<polygon fill="midnightblue" stroke="midnightblue" points="181.29,-382.53 191.88,-382.4 183.52,-375.89 181.29,-382.53"/>
</g>
<!-- Node9&#45;&gt;Node3 -->
<g id="edge14" class="edge">
<title>Node9&#45;&gt;Node3</title>
<path fill="none" stroke="midnightblue" d="M169.28,-337.85C156.59,-336.08 143.54,-334.26 131.18,-332.53"/>
<polygon fill="midnightblue" stroke="midnightblue" points="168.97,-341.35 179.36,-339.26 169.94,-334.41 168.97,-341.35"/>
</g>
<!-- Node10&#45;&gt;Node3 -->
<g id="edge16" class="edge">
<title>Node10&#45;&gt;Node3</title>
<path fill="none" stroke="midnightblue" d="M159.41,-311.04C149.86,-312.32 140.25,-313.61 131.04,-314.85"/>
<polygon fill="midnightblue" stroke="midnightblue" points="159.88,-314.51 169.33,-309.71 158.95,-307.57 159.88,-314.51"/>
</g>
<!-- Node11&#45;&gt;Node3 -->
<g id="edge18" class="edge">
<title>Node11&#45;&gt;Node3</title>
<path fill="none" stroke="midnightblue" d="M184.91,-268.87C178.82,-271 172.76,-273.22 167,-275.5 137.52,-287.17 104.56,-303.59 84.69,-313.88"/>
<polygon fill="midnightblue" stroke="midnightblue" points="186.12,-272.16 194.47,-265.63 183.87,-265.53 186.12,-272.16"/>
</g>
<!-- Node12&#45;&gt;Node3 -->
<g id="edge20" class="edge">
<title>Node12&#45;&gt;Node3</title>
<path fill="none" stroke="midnightblue" d="M178.3,-220.55C174.39,-222.38 170.59,-224.36 167,-226.5 126.39,-250.73 89.34,-294.33 73.98,-313.73"/>
<polygon fill="midnightblue" stroke="midnightblue" points="179.76,-223.73 187.57,-216.56 177,-217.3 179.76,-223.73"/>
</g>
<!-- Node13&#45;&gt;Node3 -->
<g id="edge22" class="edge">
<title>Node13&#45;&gt;Node3</title>
<path fill="none" stroke="midnightblue" d="M178.22,-171.03C174.28,-172.91 170.5,-175.06 167,-177.5 114.49,-214.1 80.96,-287.61 70.24,-313.89"/>
<polygon fill="midnightblue" stroke="midnightblue" points="179.76,-174.18 187.64,-167.09 177.07,-167.72 179.76,-174.18"/>
</g>
<!-- Node14&#45;&gt;Node3 -->
<g id="edge24" class="edge">
<title>Node14&#45;&gt;Node3</title>
<path fill="none" stroke="midnightblue" d="M173.55,-133.7C171.27,-135.19 169.07,-136.79 167,-138.5 106.99,-188.1 77.27,-283.23 68.97,-313.79"/>
<polygon fill="midnightblue" stroke="midnightblue" points="175.77,-136.46 182.75,-128.48 172.32,-130.37 175.77,-136.46"/>
</g>
<!-- Node15&#45;&gt;Node3 -->
<g id="edge26" class="edge">
<title>Node15&#45;&gt;Node3</title>
<path fill="none" stroke="midnightblue" d="M174.41,-83.73C171.79,-85.49 169.31,-87.41 167,-89.5 95.61,-154.26 72.93,-278.41 67.77,-313.84"/>
<polygon fill="midnightblue" stroke="midnightblue" points="176.26,-86.7 183.14,-78.64 172.74,-80.65 176.26,-86.7"/>
</g>
<!-- Node16&#45;&gt;Node3 -->
<g id="edge28" class="edge">
<title>Node16&#45;&gt;Node3</title>
<path fill="none" stroke="midnightblue" d="M176.42,-33.07C173.04,-35.26 169.87,-37.73 167,-40.5 84.01,-120.81 69.39,-274.01 66.96,-313.84"/>
<polygon fill="midnightblue" stroke="midnightblue" points="178.17,-36.1 185.19,-28.16 174.75,-29.99 178.17,-36.1"/>
</g>
</g>
</svg>
        <g id="navigator" transform="translate(0 0)" fill="#404254">
                <rect fill="#f2f5e9" fill-opacity="0.5" stroke="#606060" stroke-width=".5" x="0" y="0" width="60" height="60"/>
                <use id="zoomplus" xlink:href="#zoomPlus" x="17" y="9" onmousedown="handleZoom(evt,'in')"/>
                <use id="zoomminus" xlink:href="#zoomMin" x="42" y="9" onmousedown="handleZoom(evt,'out')"/>
                <use id="reset" xlink:href="#resetDef" x="30" y="36" onmousedown="handleReset()"/>
                <g id="arrowUp" xlink:href="#dirArrow" transform="translate(30 24)" onmousedown="handlePan(0,-1)">
                  <use xlink:href="#rim" fill="#404040">
                        <set attributeName="fill" to="#808080" begin="arrowUp.mouseover" end="arrowUp.mouseout"/>
                  </use>
                  <path fill="none" stroke="white" stroke-width="1.5" d="M0,-3.0v7 M-2.5,-0.5L0,-3.0L2.5,-0.5"/>
                </g>
                <g id="arrowRight" xlink:href="#dirArrow" transform="rotate(90) translate(36 -43)" onmousedown="handlePan(1,0)">
                  <use xlink:href="#rim" fill="#404040">
                        <set attributeName="fill" to="#808080" begin="arrowRight.mouseover" end="arrowRight.mouseout"/>
                  </use>
                  <path fill="none" stroke="white" stroke-width="1.5" d="M0,-3.0v7 M-2.5,-0.5L0,-3.0L2.5,-0.5"/>
                </g>
                <g id="arrowDown" xlink:href="#dirArrow" transform="rotate(180) translate(-30 -48)" onmousedown="handlePan(0,1)">
                  <use xlink:href="#rim" fill="#404040">
                        <set attributeName="fill" to="#808080" begin="arrowDown.mouseover" end="arrowDown.mouseout"/>
                  </use>
                  <path fill="none" stroke="white" stroke-width="1.5" d="M0,-3.0v7 M-2.5,-0.5L0,-3.0L2.5,-0.5"/>
                </g>
                <g id="arrowLeft" xlink:href="#dirArrow" transform="rotate(270) translate(-36 17)" onmousedown="handlePan(-1,0)">
                  <use xlink:href="#rim" fill="#404040">
                        <set attributeName="fill" to="#808080" begin="arrowLeft.mouseover" end="arrowLeft.mouseout"/>
                  </use>
                  <path fill="none" stroke="white" stroke-width="1.5" d="M0,-3.0v7 M-2.5,-0.5L0,-3.0L2.5,-0.5"/>
                </g>
        </g>
        <svg viewBox="0 0 15 15" width="100%" height="30px" preserveAspectRatio="xMaxYMin meet">
         <g id="arrow_out" transform="scale(0.3 0.3)">
          <a xlink:href="classParameters_a857c53fbe60d7bd2f91e91626f85b6d2_icgraph_org.svg" target="_base">
           <rect id="button" ry="5" rx="5" y="6" x="6" height="38" width="38"
                fill="#f2f5e9" fill-opacity="0.5" stroke="#606060" stroke-width="1.0"/>
           <path id="arrow"
             d="M 11.500037,31.436501 C 11.940474,20.09759 22.043105,11.32322 32.158766,21.979434 L 37.068811,17.246167 C 37.068811,17.246167 37.088388,32 37.088388,32 L 22.160133,31.978069 C 22.160133,31.978069 26.997745,27.140456 26.997745,27.140456 C 18.528582,18.264221 13.291696,25.230495 11.500037,31.436501 z"
             style="fill:#404040;"/>
          </a>
         </g>
        </svg>
</svg>
