<?xml version="1.0" encoding="UTF-8" standalone="no"?>
<!DOCTYPE svg PUBLIC "-//W3C//DTD SVG 1.1//EN"
 "http://www.w3.org/Graphics/SVG/1.1/DTD/svg11.dtd">
<!-- Generated by graphviz version 2.43.0 (0)
 -->
<!-- Title: ExprTkCoefficient Pages: 1 -->
<svg width="241pt" height="85pt"
 viewBox="0.00 0.00 241.00 85.00" xmlns="http://www.w3.org/2000/svg" xmlns:xlink="http://www.w3.org/1999/xlink">
<g id="graph0" class="graph" transform="scale(1 1) rotate(0) translate(4 81)">
<title>ExprTkCoefficient</title>
<!-- Node1 -->
<g id="node1" class="node">
<title>Node1</title>
<g id="a_node1"><a xlink:title="Base class definining a coefficient from an analytical formula.">
<polygon fill="#bfbfbf" stroke="black" points="4,-0.5 4,-19.5 112,-19.5 112,-0.5 4,-0.5"/>
<text text-anchor="middle" x="58" y="-7.5" font-family="serif" font-size="10.00">ExprTkCoefficient</text>
</a>
</g>
</g>
<!-- Node1&#45;&gt;Node1 -->
<g id="edge2" class="edge">
<title>Node1&#45;&gt;Node1</title>
<path fill="none" stroke="#9a32cd" stroke-dasharray="5,2" d="M121.96,-13.97C126.93,-13.09 130,-11.77 130,-10 130,-7.24 122.53,-5.57 112.01,-4.98"/>
<polygon fill="#9a32cd" stroke="#9a32cd" points="121.58,-10.49 112.01,-15.02 122.32,-17.45 121.58,-10.49"/>
<text text-anchor="middle" x="181.5" y="-7.5" font-family="serif" font-size="10.00"> ~ExprTkCoefficient</text>
</g>
<!-- Node2 -->
<g id="node2" class="node">
<title>Node2</title>
<g id="a_node2"><a xlink:href="classFunctionCoefficient.html" target="_top" xlink:title="Base class defining analytical expression, first and second derivatives of a Coefficient.">
<polygon fill="none" stroke="black" points="0,-57.5 0,-76.5 116,-76.5 116,-57.5 0,-57.5"/>
<text text-anchor="middle" x="58" y="-64.5" font-family="serif" font-size="10.00">FunctionCoefficient</text>
</a>
</g>
</g>
<!-- Node2&#45;&gt;Node1 -->
<g id="edge1" class="edge">
<title>Node2&#45;&gt;Node1</title>
<path fill="none" stroke="midnightblue" d="M58,-47.12C58,-37.82 58,-27.06 58,-19.71"/>
<polygon fill="midnightblue" stroke="midnightblue" points="54.5,-47.41 58,-57.41 61.5,-47.41 54.5,-47.41"/>
</g>
</g>
</svg>
