<?xml version="1.0" encoding="UTF-8" standalone="no"?>
<!DOCTYPE svg PUBLIC "-//W3C//DTD SVG 1.1//EN"
 "http://www.w3.org/Graphics/SVG/1.1/DTD/svg11.dtd">
<!-- Generated by graphviz version 2.43.0 (0)
 -->
<!-- Title: PrecondHypreSmoother::create_solver Pages: 1 -->
<svg width="388pt" height="187pt"
 viewBox="0.00 0.00 388.00 186.50" xmlns="http://www.w3.org/2000/svg" xmlns:xlink="http://www.w3.org/1999/xlink">
<g id="graph0" class="graph" transform="scale(1 1) rotate(0) translate(4 182.5)">
<title>PrecondHypreSmoother::create_solver</title>
<!-- Node1 -->
<g id="node1" class="node">
<title>Node1</title>
<g id="a_node1"><a xlink:title="Create preconditioner based of the PreconditionerType and a list of Parameters.">
<polygon fill="#bfbfbf" stroke="black" points="0,-76.5 0,-106.5 140,-106.5 140,-76.5 0,-76.5"/>
<text text-anchor="start" x="8" y="-94.5" font-family="serif" font-size="10.00">PrecondHypreSmoother</text>
<text text-anchor="middle" x="70" y="-83.5" font-family="serif" font-size="10.00">::create_solver</text>
</a>
</g>
</g>
<!-- Node2 -->
<g id="node2" class="node">
<title>Node2</title>
<g id="a_node2"><a xlink:href="classSlothInfo.html#a854d3cafdb9f5a77f1063a27d2a27e04" target="_top" xlink:title="Print information on Debug mode.">
<polygon fill="none" stroke="black" points="227,-159 227,-178 329,-178 329,-159 227,-159"/>
<text text-anchor="middle" x="278" y="-166" font-family="serif" font-size="10.00">SlothInfo::debug</text>
</a>
</g>
</g>
<!-- Node1&#45;&gt;Node2 -->
<g id="edge1" class="edge">
<title>Node1&#45;&gt;Node2</title>
<path fill="none" stroke="midnightblue" d="M93.35,-106.62C113.95,-119.86 145.82,-138.64 176,-149.5 188.97,-154.17 203.31,-157.75 217.01,-160.47"/>
<polygon fill="midnightblue" stroke="midnightblue" points="216.37,-163.91 226.84,-162.31 217.66,-157.03 216.37,-163.91"/>
</g>
<!-- Node3 -->
<g id="node3" class="node">
<title>Node3</title>
<g id="a_node3"><a xlink:href="classSolverBase.html#a52edc30e08c2552f8ceb3d9ea928b059" target="_top" xlink:title=" ">
<polygon fill="none" stroke="black" points="176,-99 176,-140 380,-140 380,-99 176,-99"/>
<text text-anchor="start" x="184" y="-128" font-family="serif" font-size="10.00">SolverBase&lt; mfem::HypreSmoother,</text>
<text text-anchor="start" x="184" y="-117" font-family="serif" font-size="10.00"> HyprePreconditionerType &gt;</text>
<text text-anchor="middle" x="278" y="-106" font-family="serif" font-size="10.00">::get_description</text>
</a>
</g>
</g>
<!-- Node1&#45;&gt;Node3 -->
<g id="edge2" class="edge">
<title>Node1&#45;&gt;Node3</title>
<path fill="none" stroke="midnightblue" d="M140.17,-100.9C148.4,-102.02 156.96,-103.18 165.6,-104.36"/>
<polygon fill="midnightblue" stroke="midnightblue" points="165.38,-107.86 175.76,-105.74 166.32,-100.92 165.38,-107.86"/>
</g>
<!-- Node4 -->
<g id="node4" class="node">
<title>Node4</title>
<g id="a_node4"><a xlink:href="classParameters.html#ae3b314c5ebc3fde8684b0634b2406da6" target="_top" xlink:title=" ">
<polygon fill="none" stroke="black" points="210.5,-49.5 210.5,-79.5 345.5,-79.5 345.5,-49.5 210.5,-49.5"/>
<text text-anchor="start" x="218.5" y="-67.5" font-family="serif" font-size="10.00">Parameters::get_param</text>
<text text-anchor="middle" x="278" y="-56.5" font-family="serif" font-size="10.00">_value</text>
</a>
</g>
</g>
<!-- Node1&#45;&gt;Node4 -->
<g id="edge3" class="edge">
<title>Node1&#45;&gt;Node4</title>
<path fill="none" stroke="midnightblue" d="M140.17,-82.43C159.48,-79.9 180.57,-77.14 200.29,-74.55"/>
<polygon fill="midnightblue" stroke="midnightblue" points="201,-77.99 210.46,-73.22 200.09,-71.05 201,-77.99"/>
</g>
<!-- Node5 -->
<g id="node5" class="node">
<title>Node5</title>
<g id="a_node5"><a xlink:href="classParameters.html#a857c53fbe60d7bd2f91e91626f85b6d2" target="_top" xlink:title=" ">
<polygon fill="none" stroke="black" points="210.5,-0.5 210.5,-30.5 345.5,-30.5 345.5,-0.5 210.5,-0.5"/>
<text text-anchor="start" x="218.5" y="-18.5" font-family="serif" font-size="10.00">Parameters::get_param</text>
<text text-anchor="middle" x="278" y="-7.5" font-family="serif" font-size="10.00">_value_or_default</text>
</a>
</g>
</g>
<!-- Node1&#45;&gt;Node5 -->
<g id="edge4" class="edge">
<title>Node1&#45;&gt;Node5</title>
<path fill="none" stroke="midnightblue" d="M97.95,-76.46C118.77,-65.33 148.56,-50.44 176,-40.5 183.87,-37.65 192.21,-35.01 200.58,-32.6"/>
<polygon fill="midnightblue" stroke="midnightblue" points="201.69,-35.92 210.39,-29.88 199.82,-29.18 201.69,-35.92"/>
</g>
</g>
</svg>
