<?xml version="1.0" encoding="UTF-8" standalone="no"?>
<!DOCTYPE svg PUBLIC "-//W3C//DTD SVG 1.1//EN"
 "http://www.w3.org/Graphics/SVG/1.1/DTD/svg11.dtd">
<!-- Generated by graphviz version 2.43.0 (0)
 -->
<!-- Title: SolverGMRES::create_solver Pages: 1 -->
<svg width="366pt" height="225pt"
 viewBox="0.00 0.00 366.00 225.00" xmlns="http://www.w3.org/2000/svg" xmlns:xlink="http://www.w3.org/1999/xlink">
<g id="graph0" class="graph" transform="scale(1 1) rotate(0) translate(4 221)">
<title>SolverGMRES::create_solver</title>
<!-- Node1 -->
<g id="node1" class="node">
<title>Node1</title>
<g id="a_node1"><a xlink:title=" ">
<polygon fill="#bfbfbf" stroke="black" points="0,-88 0,-118 127,-118 127,-88 0,-88"/>
<text text-anchor="start" x="8" y="-106" font-family="serif" font-size="10.00">SolverGMRES::create</text>
<text text-anchor="middle" x="63.5" y="-95" font-family="serif" font-size="10.00">_solver</text>
</a>
</g>
</g>
<!-- Node2 -->
<g id="node2" class="node">
<title>Node2</title>
<g id="a_node2"><a xlink:href="classSlothInfo.html#a854d3cafdb9f5a77f1063a27d2a27e04" target="_top" xlink:title="Print information on Debug mode.">
<polygon fill="none" stroke="black" points="209.5,-197.5 209.5,-216.5 311.5,-216.5 311.5,-197.5 209.5,-197.5"/>
<text text-anchor="middle" x="260.5" y="-204.5" font-family="serif" font-size="10.00">SlothInfo::debug</text>
</a>
</g>
</g>
<!-- Node1&#45;&gt;Node2 -->
<g id="edge1" class="edge">
<title>Node1&#45;&gt;Node2</title>
<path fill="none" stroke="midnightblue" d="M77.47,-118.28C94.86,-137.71 127.66,-170.79 163,-188 174.27,-193.49 187,-197.39 199.44,-200.16"/>
<polygon fill="midnightblue" stroke="midnightblue" points="198.82,-203.61 209.32,-202.16 200.21,-196.75 198.82,-203.61"/>
</g>
<!-- Node3 -->
<g id="node3" class="node">
<title>Node3</title>
<g id="a_node3"><a xlink:href="classSolverBase.html#a52edc30e08c2552f8ceb3d9ea928b059" target="_top" xlink:title=" ">
<polygon fill="none" stroke="black" points="163,-137.5 163,-178.5 358,-178.5 358,-137.5 163,-137.5"/>
<text text-anchor="start" x="171" y="-166.5" font-family="serif" font-size="10.00">SolverBase&lt; mfem::GMRESSolver,</text>
<text text-anchor="start" x="171" y="-155.5" font-family="serif" font-size="10.00"> IterativeSolverType &gt;::get</text>
<text text-anchor="middle" x="260.5" y="-144.5" font-family="serif" font-size="10.00">_description</text>
</a>
</g>
</g>
<!-- Node1&#45;&gt;Node3 -->
<g id="edge2" class="edge">
<title>Node1&#45;&gt;Node3</title>
<path fill="none" stroke="midnightblue" d="M117.78,-118.03C136,-123.17 156.84,-129.04 176.82,-134.68"/>
<polygon fill="midnightblue" stroke="midnightblue" points="175.97,-138.08 186.54,-137.42 177.87,-131.34 175.97,-138.08"/>
</g>
<!-- Node4 -->
<g id="node4" class="node">
<title>Node4</title>
<g id="a_node4"><a xlink:href="classParameters.html#ae3b314c5ebc3fde8684b0634b2406da6" target="_top" xlink:title=" ">
<polygon fill="none" stroke="black" points="193,-88 193,-118 328,-118 328,-88 193,-88"/>
<text text-anchor="start" x="201" y="-106" font-family="serif" font-size="10.00">Parameters::get_param</text>
<text text-anchor="middle" x="260.5" y="-95" font-family="serif" font-size="10.00">_value</text>
</a>
</g>
</g>
<!-- Node1&#45;&gt;Node4 -->
<g id="edge3" class="edge">
<title>Node1&#45;&gt;Node4</title>
<path fill="none" stroke="midnightblue" d="M127,-103C144.77,-103 164.32,-103 182.82,-103"/>
<polygon fill="midnightblue" stroke="midnightblue" points="182.98,-106.5 192.98,-103 182.98,-99.5 182.98,-106.5"/>
</g>
<!-- Node5 -->
<g id="node5" class="node">
<title>Node5</title>
<g id="a_node5"><a xlink:href="classParameters.html#a857c53fbe60d7bd2f91e91626f85b6d2" target="_top" xlink:title=" ">
<polygon fill="none" stroke="black" points="193,-39 193,-69 328,-69 328,-39 193,-39"/>
<text text-anchor="start" x="201" y="-57" font-family="serif" font-size="10.00">Parameters::get_param</text>
<text text-anchor="middle" x="260.5" y="-46" font-family="serif" font-size="10.00">_value_or_default</text>
</a>
</g>
</g>
<!-- Node1&#45;&gt;Node5 -->
<g id="edge4" class="edge">
<title>Node1&#45;&gt;Node5</title>
<path fill="none" stroke="midnightblue" d="M124.33,-87.97C145.11,-82.74 168.58,-76.85 190.07,-71.45"/>
<polygon fill="midnightblue" stroke="midnightblue" points="190.94,-74.84 199.78,-69.01 189.23,-68.05 190.94,-74.84"/>
</g>
<!-- Node6 -->
<g id="node6" class="node">
<title>Node6</title>
<g id="a_node6"><a xlink:href="UtilsForData_8hpp.html#a624f01f99bc5aadf3d7c3b7c8c7c4ac7" target="_top" xlink:title="Check the level of verbosity.">
<polygon fill="none" stroke="black" points="210,-0.5 210,-19.5 311,-19.5 311,-0.5 210,-0.5"/>
<text text-anchor="middle" x="260.5" y="-7.5" font-family="serif" font-size="10.00">verbose_at_least</text>
</a>
</g>
</g>
<!-- Node1&#45;&gt;Node6 -->
<g id="edge5" class="edge">
<title>Node1&#45;&gt;Node6</title>
<path fill="none" stroke="midnightblue" d="M80.17,-87.93C98.53,-71.17 130.56,-44.53 163,-30 174.46,-24.87 187.28,-21.03 199.73,-18.18"/>
<polygon fill="midnightblue" stroke="midnightblue" points="200.56,-21.58 209.62,-16.09 199.11,-14.73 200.56,-21.58"/>
</g>
</g>
</svg>
