<?xml version="1.0" encoding="UTF-8" standalone="no"?>
<!DOCTYPE svg PUBLIC "-//W3C//DTD SVG 1.1//EN"
 "http://www.w3.org/Graphics/SVG/1.1/DTD/svg11.dtd">
<!-- Generated by graphviz version 2.43.0 (0)
 -->
<!-- Title: DiffusionNLFormIntegrator&lt; VARS &gt; Pages: 1 -->
<svg width="308pt" height="173pt"
 viewBox="0.00 0.00 307.50 173.00" xmlns="http://www.w3.org/2000/svg" xmlns:xlink="http://www.w3.org/1999/xlink">
<g id="graph0" class="graph" transform="scale(1 1) rotate(0) translate(4 169)">
<title>DiffusionNLFormIntegrator&lt; VARS &gt;</title>
<!-- Node1 -->
<g id="node1" class="node">
<title>Node1</title>
<g id="a_node1"><a xlink:title="Nonlinear form integrator for diffusion&#45;type problems.">
<polygon fill="#bfbfbf" stroke="black" points="66.5,-67.5 66.5,-97.5 223.5,-97.5 223.5,-67.5 66.5,-67.5"/>
<text text-anchor="start" x="74.5" y="-85.5" font-family="serif" font-size="10.00">DiffusionNLFormIntegrator</text>
<text text-anchor="middle" x="145" y="-74.5" font-family="serif" font-size="10.00">&lt; VARS &gt;</text>
</a>
</g>
</g>
<!-- Node3 -->
<g id="node3" class="node">
<title>Node3</title>
<g id="a_node3"><a xlink:href="classFickNLFormIntegrator.html" target="_top" xlink:title="Nonlinear form integrator for the right&#45;hand side of the mass diffusion equation (Fick&#39;s law).">
<polygon fill="none" stroke="black" points="0,-0.5 0,-30.5 132,-30.5 132,-0.5 0,-0.5"/>
<text text-anchor="start" x="8" y="-18.5" font-family="serif" font-size="10.00">FickNLFormIntegrator</text>
<text text-anchor="middle" x="66" y="-7.5" font-family="serif" font-size="10.00">&lt; VARS &gt;</text>
</a>
</g>
</g>
<!-- Node1&#45;&gt;Node3 -->
<g id="edge2" class="edge">
<title>Node1&#45;&gt;Node3</title>
<path fill="none" stroke="midnightblue" d="M119.94,-60.88C107.94,-51.01 93.87,-39.43 83.11,-30.58"/>
<polygon fill="midnightblue" stroke="midnightblue" points="117.91,-63.75 127.86,-67.4 122.36,-58.34 117.91,-63.75"/>
</g>
<!-- Node4 -->
<g id="node4" class="node">
<title>Node4</title>
<g id="a_node4"><a xlink:href="classFourierNLFormIntegrator.html" target="_top" xlink:title="Nonlinear form integrator for the right&#45;hand side of the heat transfer equation (Fourier&#39;s law).">
<polygon fill="none" stroke="black" points="150.5,-0.5 150.5,-30.5 299.5,-30.5 299.5,-0.5 150.5,-0.5"/>
<text text-anchor="start" x="158.5" y="-18.5" font-family="serif" font-size="10.00">FourierNLFormIntegrator</text>
<text text-anchor="middle" x="225" y="-7.5" font-family="serif" font-size="10.00">&lt; VARS &gt;</text>
</a>
</g>
</g>
<!-- Node1&#45;&gt;Node4 -->
<g id="edge3" class="edge">
<title>Node1&#45;&gt;Node4</title>
<path fill="none" stroke="midnightblue" d="M170.37,-60.88C182.53,-51.01 196.78,-39.43 207.68,-30.58"/>
<polygon fill="midnightblue" stroke="midnightblue" points="167.91,-58.37 162.36,-67.4 172.33,-63.81 167.91,-58.37"/>
</g>
<!-- Node2 -->
<g id="node2" class="node">
<title>Node2</title>
<g id="a_node2"><a xlink:href="classSlothNLFormIntegrator.html" target="_top" xlink:title="Class prodiving common methods to all NLFormIntegrators.">
<polygon fill="none" stroke="black" points="76.5,-134.5 76.5,-164.5 213.5,-164.5 213.5,-134.5 76.5,-134.5"/>
<text text-anchor="start" x="84.5" y="-152.5" font-family="serif" font-size="10.00">SlothNLFormIntegrator</text>
<text text-anchor="middle" x="145" y="-141.5" font-family="serif" font-size="10.00">&lt; VARS &gt;</text>
</a>
</g>
</g>
<!-- Node2&#45;&gt;Node1 -->
<g id="edge1" class="edge">
<title>Node2&#45;&gt;Node1</title>
<path fill="none" stroke="midnightblue" d="M145,-124.11C145,-115.15 145,-105.32 145,-97.58"/>
<polygon fill="midnightblue" stroke="midnightblue" points="141.5,-124.4 145,-134.4 148.5,-124.4 141.5,-124.4"/>
</g>
</g>
</svg>
