<?xml version="1.0" encoding="UTF-8" standalone="no"?>
<!DOCTYPE svg PUBLIC "-//W3C//DTD SVG 1.1//EN"
 "http://www.w3.org/Graphics/SVG/1.1/DTD/svg11.dtd">
<!-- Generated by graphviz version 2.43.0 (0)
 -->
<!-- Title: LatentHeatNLFormIntegrator&lt; VARS &gt; Pages: 1 -->
<svg width="240pt" height="184pt"
 viewBox="0.00 0.00 239.50 184.00" xmlns="http://www.w3.org/2000/svg" xmlns:xlink="http://www.w3.org/1999/xlink">
<g id="graph0" class="graph" transform="scale(1 1) rotate(0) translate(4 180)">
<title>LatentHeatNLFormIntegrator&lt; VARS &gt;</title>
<!-- Node1 -->
<g id="node1" class="node">
<title>Node1</title>
<g id="a_node1"><a xlink:title="Latent heat contribution for heat transfer equations.">
<polygon fill="#bfbfbf" stroke="black" points="46,-0.5 46,-30.5 215,-30.5 215,-0.5 46,-0.5"/>
<text text-anchor="start" x="54" y="-18.5" font-family="serif" font-size="10.00">LatentHeatNLFormIntegrator</text>
<text text-anchor="middle" x="130.5" y="-7.5" font-family="serif" font-size="10.00">&lt; VARS &gt;</text>
</a>
</g>
</g>
<!-- Node2 -->
<g id="node2" class="node">
<title>Node2</title>
<g id="a_node2"><a xlink:href="classSlothNLFormIntegrator.html" target="_top" xlink:title="Class prodiving common methods to all NLFormIntegrators.">
<polygon fill="none" stroke="black" points="0,-78.5 0,-108.5 137,-108.5 137,-78.5 0,-78.5"/>
<text text-anchor="start" x="8" y="-96.5" font-family="serif" font-size="10.00">SlothNLFormIntegrator</text>
<text text-anchor="middle" x="68.5" y="-85.5" font-family="serif" font-size="10.00">&lt; VARS &gt;</text>
</a>
</g>
</g>
<!-- Node2&#45;&gt;Node1 -->
<g id="edge1" class="edge">
<title>Node2&#45;&gt;Node1</title>
<path fill="none" stroke="midnightblue" d="M86.61,-70.31C97.03,-57.53 109.81,-41.86 118.89,-30.73"/>
<polygon fill="midnightblue" stroke="midnightblue" points="83.77,-68.24 80.16,-78.2 89.2,-72.67 83.77,-68.24"/>
</g>
<!-- Node3 -->
<g id="node3" class="node">
<title>Node3</title>
<g id="a_node3"><a xlink:href="classParameters.html" target="_top" xlink:title=" ">
<polygon fill="none" stroke="black" points="31.5,-156.5 31.5,-175.5 105.5,-175.5 105.5,-156.5 31.5,-156.5"/>
<text text-anchor="middle" x="68.5" y="-163.5" font-family="serif" font-size="10.00">Parameters</text>
</a>
</g>
</g>
<!-- Node3&#45;&gt;Node2 -->
<g id="edge2" class="edge">
<title>Node3&#45;&gt;Node2</title>
<path fill="none" stroke="#9a32cd" stroke-dasharray="5,2" d="M68.5,-146.24C68.5,-134.41 68.5,-119.38 68.5,-108.58"/>
<polygon fill="#9a32cd" stroke="#9a32cd" points="65,-146.36 68.5,-156.36 72,-146.36 65,-146.36"/>
<text text-anchor="middle" x="92" y="-130" font-family="serif" font-size="10.00"> params_</text>
</g>
<!-- Node4 -->
<g id="node4" class="node">
<title>Node4</title>
<g id="a_node4"><a xlink:href="classCoefficients.html" target="_top" xlink:title="Class used to manage a collection of Coefficient.">
<polygon fill="none" stroke="black" points="155.5,-84 155.5,-103 231.5,-103 231.5,-84 155.5,-84"/>
<text text-anchor="middle" x="193.5" y="-91" font-family="serif" font-size="10.00">Coefficients</text>
</a>
</g>
</g>
<!-- Node4&#45;&gt;Node1 -->
<g id="edge3" class="edge">
<title>Node4&#45;&gt;Node1</title>
<path fill="none" stroke="#9a32cd" stroke-dasharray="5,2" d="M179.62,-75.75C168.37,-62.19 152.71,-43.3 142.12,-30.52"/>
<polygon fill="#9a32cd" stroke="#9a32cd" points="177.2,-78.32 186.27,-83.78 182.59,-73.85 177.2,-78.32"/>
<text text-anchor="middle" x="188" y="-52" font-family="serif" font-size="10.00"> mobility</text>
</g>
</g>
</svg>
