<?xml version="1.0" encoding="UTF-8" standalone="no"?>
<!DOCTYPE svg PUBLIC "-//W3C//DTD SVG 1.1//EN"
 "http://www.w3.org/Graphics/SVG/1.1/DTD/svg11.dtd">
<!-- Generated by graphviz version 2.43.0 (0)
 -->
<!-- Title: SlothNLFormIntegrator&lt; VARS &gt; Pages: 1 -->
<!--zoomable 480 -->
<svg id="main" version="1.1" xmlns="http://www.w3.org/2000/svg" xmlns:xlink="http://www.w3.org/1999/xlink" xml:space="preserve" onload="init(evt)">
<style type="text/css"><![CDATA[
.edge:hover path { stroke: red; }
.edge:hover polygon { stroke: red; fill: red; }
]]></style>
<script type="text/javascript"><![CDATA[
var edges = document.getElementsByTagName('g');
if (edges && edges.length) {
  for (var i=0;i<edges.length;i++) {
    if (edges[i].id.substr(0,4)=='edge') {
      edges[i].setAttribute('class','edge');
    }
  }
}
]]></script>
        <defs>
                <circle id="rim" cx="0" cy="0" r="7"/>
                <circle id="rim2" cx="0" cy="0" r="3.5"/>
                <g id="zoomPlus">
                        <use xlink:href="#rim" fill="#404040">
                                <set attributeName="fill" to="#808080" begin="zoomplus.mouseover" end="zoomplus.mouseout"/>
                        </use>
                        <path d="M-4,0h8M0,-4v8" fill="none" stroke="white" stroke-width="1.5" pointer-events="none"/>
                </g>
                <g id="zoomMin">
                        <use xlink:href="#rim" fill="#404040">
                                <set attributeName="fill" to="#808080" begin="zoomminus.mouseover" end="zoomminus.mouseout"/>
                        </use>
                        <path d="M-4,0h8" fill="none" stroke="white" stroke-width="1.5" pointer-events="none"/>
                </g>
                <g id="dirArrow">
                        <path fill="none" stroke="white" stroke-width="1.5" d="M0,-3.0v7 M-2.5,-0.5L0,-3.0L2.5,-0.5"/>
                </g>
               <g id="resetDef">
                       <use xlink:href="#rim2" fill="#404040">
                               <set attributeName="fill" to="#808080" begin="reset.mouseover" end="reset.mouseout"/>
                       </use>
               </g>
        </defs>

<script type="text/javascript">
var viewWidth = 615;
var viewHeight = 480;
var sectionId = 'dynsection-0';
</script>
<script xlink:href="svgpan.js"/>
<svg id="graph" class="graph">
<g id="viewport">
<title>SlothNLFormIntegrator&lt; VARS &gt;</title>
<!-- Node1 -->
<g id="node1" class="node">
<title>Node1</title>
<g id="a_node1"><a xlink:title="Class prodiving common methods to all NLFormIntegrators.">
<polygon fill="#bfbfbf" stroke="black" points="0,-220.5 0,-250.5 137,-250.5 137,-220.5 0,-220.5"/>
<text text-anchor="start" x="8" y="-238.5" font-family="serif" font-size="10.00">SlothNLFormIntegrator</text>
<text text-anchor="middle" x="68.5" y="-227.5" font-family="serif" font-size="10.00">&lt; VARS &gt;</text>
</a>
</g>
</g>
<!-- Node2 -->
<g id="node2" class="node">
<title>Node2</title>
<g id="a_node2"><a xlink:href="classAllenCahnNLFormIntegrator.html" target="_top" xlink:title="Class dedicated to the VF of the RHS of the AllenCahn equation (see TimeDerivative integrator for the...">
<polygon fill="none" stroke="black" points="187,-441.5 187,-471.5 351,-471.5 351,-441.5 187,-441.5"/>
<text text-anchor="start" x="195" y="-459.5" font-family="serif" font-size="10.00">AllenCahnNLFormIntegrator</text>
<text text-anchor="middle" x="269" y="-448.5" font-family="serif" font-size="10.00">&lt; VARS &gt;</text>
</a>
</g>
</g>
<!-- Node1&#45;&gt;Node2 -->
<g id="edge1" class="edge">
<title>Node1&#45;&gt;Node2</title>
<path fill="none" stroke="midnightblue" d="M75.44,-260.26C86.85,-302.32 115.93,-387.54 173,-432.5 177.28,-435.87 181.97,-438.77 186.9,-441.27"/>
<polygon fill="midnightblue" stroke="midnightblue" points="78.82,-259.34 72.91,-250.55 72.04,-261.1 78.82,-259.34"/>
</g>
<!-- Node3 -->
<g id="node3" class="node">
<title>Node3</title>
<g id="a_node3"><a xlink:href="classBlockAllenCahnNLFormIntegrator.html" target="_top" xlink:title="Class dedicated to the VF of the AllenCahn equation (splitted form)">
<polygon fill="none" stroke="black" points="173,-392.5 173,-422.5 365,-422.5 365,-392.5 173,-392.5"/>
<text text-anchor="start" x="181" y="-410.5" font-family="serif" font-size="10.00">BlockAllenCahnNLFormIntegrator</text>
<text text-anchor="middle" x="269" y="-399.5" font-family="serif" font-size="10.00">&lt; VARS &gt;</text>
</a>
</g>
</g>
<!-- Node1&#45;&gt;Node3 -->
<g id="edge2" class="edge">
<title>Node1&#45;&gt;Node3</title>
<path fill="none" stroke="midnightblue" d="M80.01,-260.24C95.43,-293.48 127.39,-352.03 173,-383.5 178.04,-386.98 183.54,-389.95 189.28,-392.5"/>
<polygon fill="midnightblue" stroke="midnightblue" points="83.05,-258.47 75.76,-250.79 76.67,-261.35 83.05,-258.47"/>
</g>
<!-- Node4 -->
<g id="node4" class="node">
<title>Node4</title>
<g id="a_node4"><a xlink:href="classCahnHilliardNLFormIntegrator.html" target="_top" xlink:title="Class dedicated to the VF of the RHS of the Cahn&#45;Hilliard equation (splitted form) (see SplitTimeDeri...">
<polygon fill="none" stroke="black" points="181,-343.5 181,-373.5 357,-373.5 357,-343.5 181,-343.5"/>
<text text-anchor="start" x="189" y="-361.5" font-family="serif" font-size="10.00">CahnHilliardNLFormIntegrator</text>
<text text-anchor="middle" x="269" y="-350.5" font-family="serif" font-size="10.00">&lt; VARS &gt;</text>
</a>
</g>
</g>
<!-- Node1&#45;&gt;Node4 -->
<g id="edge3" class="edge">
<title>Node1&#45;&gt;Node4</title>
<path fill="none" stroke="midnightblue" d="M87.45,-258.57C106.34,-281.25 138.12,-315.2 173,-334.5 179.25,-337.96 186.01,-340.93 192.94,-343.48"/>
<polygon fill="midnightblue" stroke="midnightblue" points="90.13,-256.31 81.09,-250.77 84.7,-260.73 90.13,-256.31"/>
</g>
<!-- Node5 -->
<g id="node5" class="node">
<title>Node5</title>
<g id="a_node5"><a xlink:href="classDiffusionFluxNLFormIntegrator.html" target="_top" xlink:title="Class dedicated to the VF of an inter&#45;diffusion equation.">
<polygon fill="none" stroke="black" points="179.5,-294.5 179.5,-324.5 358.5,-324.5 358.5,-294.5 179.5,-294.5"/>
<text text-anchor="start" x="187.5" y="-312.5" font-family="serif" font-size="10.00">DiffusionFluxNLFormIntegrator</text>
<text text-anchor="middle" x="269" y="-301.5" font-family="serif" font-size="10.00">&lt; VARS &gt;</text>
</a>
</g>
</g>
<!-- Node1&#45;&gt;Node5 -->
<g id="edge4" class="edge">
<title>Node1&#45;&gt;Node5</title>
<path fill="none" stroke="midnightblue" d="M106.06,-255.41C125.53,-265.43 150.11,-277.18 173,-285.5 182.03,-288.78 191.71,-291.79 201.3,-294.47"/>
<polygon fill="midnightblue" stroke="midnightblue" points="107.44,-252.18 96.95,-250.65 104.2,-258.38 107.44,-252.18"/>
</g>
<!-- Node8 -->
<g id="node8" class="node">
<title>Node8</title>
<g id="a_node8"><a xlink:href="classDiffusionNLFormIntegrator.html" target="_top" xlink:title="Nonlinear form integrator for diffusion&#45;type problems.">
<polygon fill="none" stroke="black" points="190.5,-245.5 190.5,-275.5 347.5,-275.5 347.5,-245.5 190.5,-245.5"/>
<text text-anchor="start" x="198.5" y="-263.5" font-family="serif" font-size="10.00">DiffusionNLFormIntegrator</text>
<text text-anchor="middle" x="269" y="-252.5" font-family="serif" font-size="10.00">&lt; VARS &gt;</text>
</a>
</g>
</g>
<!-- Node1&#45;&gt;Node8 -->
<g id="edge7" class="edge">
<title>Node1&#45;&gt;Node8</title>
<path fill="none" stroke="midnightblue" d="M147.4,-245.31C161.5,-247.09 176.21,-248.94 190.3,-250.71"/>
<polygon fill="midnightblue" stroke="midnightblue" points="147.62,-241.81 137.26,-244.03 146.74,-248.76 147.62,-241.81"/>
</g>
<!-- Node11 -->
<g id="node11" class="node">
<title>Node11</title>
<g id="a_node11"><a xlink:href="classLatentHeatNLFormIntegrator.html" target="_top" xlink:title="Latent heat contribution for heat transfer equations.">
<polygon fill="none" stroke="black" points="184.5,-196.5 184.5,-226.5 353.5,-226.5 353.5,-196.5 184.5,-196.5"/>
<text text-anchor="start" x="192.5" y="-214.5" font-family="serif" font-size="10.00">LatentHeatNLFormIntegrator</text>
<text text-anchor="middle" x="269" y="-203.5" font-family="serif" font-size="10.00">&lt; VARS &gt;</text>
</a>
</g>
</g>
<!-- Node1&#45;&gt;Node11 -->
<g id="edge10" class="edge">
<title>Node1&#45;&gt;Node11</title>
<path fill="none" stroke="midnightblue" d="M147.35,-226.09C159.51,-224.62 172.11,-223.09 184.39,-221.61"/>
<polygon fill="midnightblue" stroke="midnightblue" points="146.76,-222.63 137.26,-227.31 147.61,-229.58 146.76,-222.63"/>
</g>
<!-- Node12 -->
<g id="node12" class="node">
<title>Node12</title>
<g id="a_node12"><a xlink:href="classMeltingBaseNLFormIntegrator.html" target="_top" xlink:title="Base class for melting integrators.">
<polygon fill="none" stroke="black" points="181,-147.5 181,-177.5 357,-177.5 357,-147.5 181,-147.5"/>
<text text-anchor="start" x="189" y="-165.5" font-family="serif" font-size="10.00">MeltingBaseNLFormIntegrator</text>
<text text-anchor="middle" x="269" y="-154.5" font-family="serif" font-size="10.00">&lt; VARS &gt;</text>
</a>
</g>
</g>
<!-- Node1&#45;&gt;Node12 -->
<g id="edge11" class="edge">
<title>Node1&#45;&gt;Node12</title>
<path fill="none" stroke="midnightblue" d="M107.43,-215.94C126.72,-206.51 150.74,-195.52 173,-187.5 183.03,-183.89 193.82,-180.55 204.41,-177.57"/>
<polygon fill="midnightblue" stroke="midnightblue" points="105.77,-212.86 98.36,-220.43 108.88,-219.13 105.77,-212.86"/>
</g>
<!-- Node16 -->
<g id="node16" class="node">
<title>Node16</title>
<g id="a_node16"><a xlink:href="classRobinNLFormIntegrator.html" target="_top" xlink:title="Class dedicated to the Robin boundary condition integrator.">
<polygon fill="none" stroke="black" points="198.5,-98.5 198.5,-128.5 339.5,-128.5 339.5,-98.5 198.5,-98.5"/>
<text text-anchor="start" x="206.5" y="-116.5" font-family="serif" font-size="10.00">RobinNLFormIntegrator</text>
<text text-anchor="middle" x="269" y="-105.5" font-family="serif" font-size="10.00">&lt; VARS &gt;</text>
</a>
</g>
</g>
<!-- Node1&#45;&gt;Node16 -->
<g id="edge15" class="edge">
<title>Node1&#45;&gt;Node16</title>
<path fill="none" stroke="midnightblue" d="M88.16,-212.32C107.22,-190.16 138.79,-157.42 173,-138.5 180.91,-134.13 189.62,-130.49 198.45,-127.48"/>
<polygon fill="midnightblue" stroke="midnightblue" points="85.25,-210.34 81.49,-220.24 90.61,-214.85 85.25,-210.34"/>
</g>
<!-- Node18 -->
<g id="node18" class="node">
<title>Node18</title>
<g id="a_node18"><a xlink:href="classTimeCHNLFormIntegrator.html" target="_top" xlink:title="Class dedicated to the VF of the time&#45;derivative (eg. LHS of Cahn&#45;Hilliard and Allen&#45;Cahn equations u...">
<polygon fill="none" stroke="black" points="192.5,-49.5 192.5,-79.5 345.5,-79.5 345.5,-49.5 192.5,-49.5"/>
<text text-anchor="start" x="200.5" y="-67.5" font-family="serif" font-size="10.00">TimeCHNLFormIntegrator</text>
<text text-anchor="middle" x="269" y="-56.5" font-family="serif" font-size="10.00">&lt; VARS &gt;</text>
</a>
</g>
</g>
<!-- Node1&#45;&gt;Node18 -->
<g id="edge17" class="edge">
<title>Node1&#45;&gt;Node18</title>
<path fill="none" stroke="midnightblue" d="M80.14,-211.16C95.72,-178.44 127.86,-120.76 173,-89.5 178.89,-85.42 185.4,-82.01 192.18,-79.15"/>
<polygon fill="midnightblue" stroke="midnightblue" points="76.86,-209.91 75.85,-220.46 83.22,-212.85 76.86,-209.91"/>
</g>
<!-- Node19 -->
<g id="node19" class="node">
<title>Node19</title>
<g id="a_node19"><a xlink:href="classTimeNLFormIntegrator.html" target="_top" xlink:title="Class dedicated to the VF of the time&#45;derivative (eg. LHS of Allen&#45;Cahn equation)">
<polygon fill="none" stroke="black" points="200.5,-0.5 200.5,-30.5 337.5,-30.5 337.5,-0.5 200.5,-0.5"/>
<text text-anchor="start" x="208.5" y="-18.5" font-family="serif" font-size="10.00">TimeNLFormIntegrator</text>
<text text-anchor="middle" x="269" y="-7.5" font-family="serif" font-size="10.00">&lt; VARS &gt;</text>
</a>
</g>
</g>
<!-- Node1&#45;&gt;Node19 -->
<g id="edge18" class="edge">
<title>Node1&#45;&gt;Node19</title>
<path fill="none" stroke="midnightblue" d="M75.72,-210.48C87.43,-168.73 116.76,-85.06 173,-40.5 181.02,-34.14 190.5,-29.4 200.31,-25.85"/>
<polygon fill="midnightblue" stroke="midnightblue" points="72.28,-209.81 73.06,-220.37 79.04,-211.62 72.28,-209.81"/>
</g>
<!-- Node6 -->
<g id="node6" class="node">
<title>Node6</title>
<g id="a_node6"><a xlink:href="classMassDiffusionFluxNLFormIntegrator.html" target="_top" xlink:title="Class dedicated to the VF of diffusion flux (gradient of chemical potential) used in mass balance equ...">
<polygon fill="none" stroke="black" points="401,-392.5 401,-422.5 607,-422.5 607,-392.5 401,-392.5"/>
<text text-anchor="start" x="409" y="-410.5" font-family="serif" font-size="10.00">MassDiffusionFluxNLFormIntegrator</text>
<text text-anchor="middle" x="504" y="-399.5" font-family="serif" font-size="10.00">&lt; VARS &gt;</text>
</a>
</g>
</g>
<!-- Node5&#45;&gt;Node6 -->
<g id="edge5" class="edge">
<title>Node5&#45;&gt;Node6</title>
<path fill="none" stroke="midnightblue" d="M355.87,-329.02C359.03,-330.7 362.09,-332.52 365,-334.5 387.35,-349.7 378.46,-368.6 401,-383.5 406.24,-386.96 411.91,-389.93 417.82,-392.46"/>
<polygon fill="midnightblue" stroke="midnightblue" points="357.25,-325.8 346.72,-324.67 354.24,-332.12 357.25,-325.8"/>
</g>
<!-- Node7 -->
<g id="node7" class="node">
<title>Node7</title>
<g id="a_node7"><a xlink:href="classThermalDiffusionFluxNLFormIntegrator.html" target="_top" xlink:title="Class dedicated to the VF of thermal diffusion flux used in energy balance equation.">
<polygon fill="none" stroke="black" points="419,-343.5 419,-373.5 589,-373.5 589,-343.5 419,-343.5"/>
<text text-anchor="start" x="427" y="-361.5" font-family="serif" font-size="10.00">ThermalDiffusionFluxNLForm</text>
<text text-anchor="middle" x="504" y="-350.5" font-family="serif" font-size="10.00">Integrator&lt; VARS &gt;</text>
</a>
</g>
</g>
<!-- Node5&#45;&gt;Node7 -->
<g id="edge6" class="edge">
<title>Node5&#45;&gt;Node7</title>
<path fill="none" stroke="midnightblue" d="M351.37,-326.61C377.52,-332.11 406.27,-338.16 431.64,-343.49"/>
<polygon fill="midnightblue" stroke="midnightblue" points="352,-323.17 341.49,-324.53 350.56,-330.02 352,-323.17"/>
</g>
<!-- Node9 -->
<g id="node9" class="node">
<title>Node9</title>
<g id="a_node9"><a xlink:href="classFickNLFormIntegrator.html" target="_top" xlink:title="Nonlinear form integrator for the right&#45;hand side of the mass diffusion equation (Fick&#39;s law).">
<polygon fill="none" stroke="black" points="438,-294.5 438,-324.5 570,-324.5 570,-294.5 438,-294.5"/>
<text text-anchor="start" x="446" y="-312.5" font-family="serif" font-size="10.00">FickNLFormIntegrator</text>
<text text-anchor="middle" x="504" y="-301.5" font-family="serif" font-size="10.00">&lt; VARS &gt;</text>
</a>
</g>
</g>
<!-- Node8&#45;&gt;Node9 -->
<g id="edge8" class="edge">
<title>Node8&#45;&gt;Node9</title>
<path fill="none" stroke="midnightblue" d="M351.38,-277.61C379.73,-283.58 411.14,-290.18 437.99,-295.83"/>
<polygon fill="midnightblue" stroke="midnightblue" points="352,-274.17 341.49,-275.53 350.56,-281.02 352,-274.17"/>
</g>
<!-- Node10 -->
<g id="node10" class="node">
<title>Node10</title>
<g id="a_node10"><a xlink:href="classFourierNLFormIntegrator.html" target="_top" xlink:title="Nonlinear form integrator for the right&#45;hand side of the heat transfer equation (Fourier&#39;s law).">
<polygon fill="none" stroke="black" points="429.5,-245.5 429.5,-275.5 578.5,-275.5 578.5,-245.5 429.5,-245.5"/>
<text text-anchor="start" x="437.5" y="-263.5" font-family="serif" font-size="10.00">FourierNLFormIntegrator</text>
<text text-anchor="middle" x="504" y="-252.5" font-family="serif" font-size="10.00">&lt; VARS &gt;</text>
</a>
</g>
</g>
<!-- Node8&#45;&gt;Node10 -->
<g id="edge9" class="edge">
<title>Node8&#45;&gt;Node10</title>
<path fill="none" stroke="midnightblue" d="M357.59,-260.5C381.21,-260.5 406.53,-260.5 429.3,-260.5"/>
<polygon fill="midnightblue" stroke="midnightblue" points="357.59,-257 347.59,-260.5 357.59,-264 357.59,-257"/>
</g>
<!-- Node13 -->
<g id="node13" class="node">
<title>Node13</title>
<g id="a_node13"><a xlink:href="classMeltingCalphadNLFormIntegrator.html" target="_top" xlink:title="Class dedicated to the VF of Calphad melting contribution found in Allen&#45;Cahn&#45;type equations.">
<polygon fill="none" stroke="black" points="407,-196.5 407,-226.5 601,-226.5 601,-196.5 407,-196.5"/>
<text text-anchor="start" x="415" y="-214.5" font-family="serif" font-size="10.00">MeltingCalphadNLFormIntegrator</text>
<text text-anchor="middle" x="504" y="-203.5" font-family="serif" font-size="10.00">&lt; VARS &gt;</text>
</a>
</g>
</g>
<!-- Node12&#45;&gt;Node13 -->
<g id="edge12" class="edge">
<title>Node12&#45;&gt;Node13</title>
<path fill="none" stroke="midnightblue" d="M351.37,-179.61C377.52,-185.11 406.27,-191.16 431.64,-196.49"/>
<polygon fill="midnightblue" stroke="midnightblue" points="352,-176.17 341.49,-177.53 350.56,-183.02 352,-176.17"/>
</g>
<!-- Node14 -->
<g id="node14" class="node">
<title>Node14</title>
<g id="a_node14"><a xlink:href="classMeltingConstantNLFormIntegrator.html" target="_top" xlink:title="Class dedicated to the VF of an ad&#45;hoc constant melting contribution found in Allen&#45;Cahn&#45;type equatio...">
<polygon fill="none" stroke="black" points="405.5,-147.5 405.5,-177.5 602.5,-177.5 602.5,-147.5 405.5,-147.5"/>
<text text-anchor="start" x="413.5" y="-165.5" font-family="serif" font-size="10.00">MeltingConstantNLFormIntegrator</text>
<text text-anchor="middle" x="504" y="-154.5" font-family="serif" font-size="10.00">&lt; VARS &gt;</text>
</a>
</g>
</g>
<!-- Node12&#45;&gt;Node14 -->
<g id="edge13" class="edge">
<title>Node12&#45;&gt;Node14</title>
<path fill="none" stroke="midnightblue" d="M367.16,-162.5C379.82,-162.5 392.78,-162.5 405.45,-162.5"/>
<polygon fill="midnightblue" stroke="midnightblue" points="367.09,-159 357.09,-162.5 367.09,-166 367.09,-159"/>
</g>
<!-- Node15 -->
<g id="node15" class="node">
<title>Node15</title>
<g id="a_node15"><a xlink:href="classMeltingTemperatureNLFormIntegrator.html" target="_top" xlink:title="Class dedicated to the VF of an ad&#45;hoc temperature melting contribution found in Allen&#45;Cahn&#45;type equa...">
<polygon fill="none" stroke="black" points="421.5,-98.5 421.5,-128.5 586.5,-128.5 586.5,-98.5 421.5,-98.5"/>
<text text-anchor="start" x="429.5" y="-116.5" font-family="serif" font-size="10.00">MeltingTemperatureNLForm</text>
<text text-anchor="middle" x="504" y="-105.5" font-family="serif" font-size="10.00">Integrator&lt; VARS &gt;</text>
</a>
</g>
</g>
<!-- Node12&#45;&gt;Node15 -->
<g id="edge14" class="edge">
<title>Node12&#45;&gt;Node15</title>
<path fill="none" stroke="midnightblue" d="M351.37,-145.39C377.52,-139.89 406.27,-133.84 431.64,-128.51"/>
<polygon fill="midnightblue" stroke="midnightblue" points="350.56,-141.98 341.49,-147.47 352,-148.83 350.56,-141.98"/>
</g>
<!-- Node17 -->
<g id="node17" class="node">
<title>Node17</title>
<g id="a_node17"><a xlink:href="classNeumannNLFormIntegrator.html" target="_top" xlink:title="Class dedicated to the Neumann boundary condiiton integrator.">
<polygon fill="none" stroke="black" points="423,-49.5 423,-79.5 585,-79.5 585,-49.5 423,-49.5"/>
<text text-anchor="start" x="431" y="-67.5" font-family="serif" font-size="10.00">NeumannNLFormIntegrator</text>
<text text-anchor="middle" x="504" y="-56.5" font-family="serif" font-size="10.00">&lt; VARS &gt;</text>
</a>
</g>
</g>
<!-- Node16&#45;&gt;Node17 -->
<g id="edge16" class="edge">
<title>Node16&#45;&gt;Node17</title>
<path fill="none" stroke="midnightblue" d="M349.6,-96.76C376.11,-91.18 405.47,-85.01 431.35,-79.57"/>
<polygon fill="midnightblue" stroke="midnightblue" points="348.66,-93.38 339.59,-98.86 350.1,-100.23 348.66,-93.38"/>
</g>
<!-- Node20 -->
<g id="node20" class="node">
<title>Node20</title>
<g id="a_node20"><a xlink:href="classHeatTimeNLFormIntegrator.html" target="_top" xlink:title="Class dedicated to the VF of the time&#45;derivativefor heat transfer equation.">
<polygon fill="none" stroke="black" points="423.5,-0.5 423.5,-30.5 584.5,-30.5 584.5,-0.5 423.5,-0.5"/>
<text text-anchor="start" x="431.5" y="-18.5" font-family="serif" font-size="10.00">HeatTimeNLFormIntegrator</text>
<text text-anchor="middle" x="504" y="-7.5" font-family="serif" font-size="10.00">&lt; VARS &gt;</text>
</a>
</g>
</g>
<!-- Node19&#45;&gt;Node20 -->
<g id="edge19" class="edge">
<title>Node19&#45;&gt;Node20</title>
<path fill="none" stroke="midnightblue" d="M347.92,-15.5C372.13,-15.5 398.85,-15.5 423.18,-15.5"/>
<polygon fill="midnightblue" stroke="midnightblue" points="347.71,-12 337.71,-15.5 347.71,-19 347.71,-12"/>
</g>
</g>
</svg>
        <g id="navigator" transform="translate(0 0)" fill="#404254">
                <rect fill="#f2f5e9" fill-opacity="0.5" stroke="#606060" stroke-width=".5" x="0" y="0" width="60" height="60"/>
                <use id="zoomplus" xlink:href="#zoomPlus" x="17" y="9" onmousedown="handleZoom(evt,'in')"/>
                <use id="zoomminus" xlink:href="#zoomMin" x="42" y="9" onmousedown="handleZoom(evt,'out')"/>
                <use id="reset" xlink:href="#resetDef" x="30" y="36" onmousedown="handleReset()"/>
                <g id="arrowUp" xlink:href="#dirArrow" transform="translate(30 24)" onmousedown="handlePan(0,-1)">
                  <use xlink:href="#rim" fill="#404040">
                        <set attributeName="fill" to="#808080" begin="arrowUp.mouseover" end="arrowUp.mouseout"/>
                  </use>
                  <path fill="none" stroke="white" stroke-width="1.5" d="M0,-3.0v7 M-2.5,-0.5L0,-3.0L2.5,-0.5"/>
                </g>
                <g id="arrowRight" xlink:href="#dirArrow" transform="rotate(90) translate(36 -43)" onmousedown="handlePan(1,0)">
                  <use xlink:href="#rim" fill="#404040">
                        <set attributeName="fill" to="#808080" begin="arrowRight.mouseover" end="arrowRight.mouseout"/>
                  </use>
                  <path fill="none" stroke="white" stroke-width="1.5" d="M0,-3.0v7 M-2.5,-0.5L0,-3.0L2.5,-0.5"/>
                </g>
                <g id="arrowDown" xlink:href="#dirArrow" transform="rotate(180) translate(-30 -48)" onmousedown="handlePan(0,1)">
                  <use xlink:href="#rim" fill="#404040">
                        <set attributeName="fill" to="#808080" begin="arrowDown.mouseover" end="arrowDown.mouseout"/>
                  </use>
                  <path fill="none" stroke="white" stroke-width="1.5" d="M0,-3.0v7 M-2.5,-0.5L0,-3.0L2.5,-0.5"/>
                </g>
                <g id="arrowLeft" xlink:href="#dirArrow" transform="rotate(270) translate(-36 17)" onmousedown="handlePan(-1,0)">
                  <use xlink:href="#rim" fill="#404040">
                        <set attributeName="fill" to="#808080" begin="arrowLeft.mouseover" end="arrowLeft.mouseout"/>
                  </use>
                  <path fill="none" stroke="white" stroke-width="1.5" d="M0,-3.0v7 M-2.5,-0.5L0,-3.0L2.5,-0.5"/>
                </g>
        </g>
        <svg viewBox="0 0 15 15" width="100%" height="30px" preserveAspectRatio="xMaxYMin meet">
         <g id="arrow_out" transform="scale(0.3 0.3)">
          <a xlink:href="classSlothNLFormIntegrator__inherit__graph_org.svg" target="_base">
           <rect id="button" ry="5" rx="5" y="6" x="6" height="38" width="38"
                fill="#f2f5e9" fill-opacity="0.5" stroke="#606060" stroke-width="1.0"/>
           <path id="arrow"
             d="M 11.500037,31.436501 C 11.940474,20.09759 22.043105,11.32322 32.158766,21.979434 L 37.068811,17.246167 C 37.068811,17.246167 37.088388,32 37.088388,32 L 22.160133,31.978069 C 22.160133,31.978069 26.997745,27.140456 26.997745,27.140456 C 18.528582,18.264221 13.291696,25.230495 11.500037,31.436501 z"
             style="fill:#404040;"/>
          </a>
         </g>
        </svg>
</svg>
