<?xml version="1.0" encoding="UTF-8" standalone="no"?>
<!DOCTYPE svg PUBLIC "-//W3C//DTD SVG 1.1//EN"
 "http://www.w3.org/Graphics/SVG/1.1/DTD/svg11.dtd">
<!-- Generated by graphviz version 2.43.0 (0)
 -->
<!-- Title: NeumannNLFormIntegrator&lt; VARS &gt; Pages: 1 -->
<svg width="260pt" height="263pt"
 viewBox="0.00 0.00 259.50 263.00" xmlns="http://www.w3.org/2000/svg" xmlns:xlink="http://www.w3.org/1999/xlink">
<g id="graph0" class="graph" transform="scale(1 1) rotate(0) translate(4 259)">
<title>NeumannNLFormIntegrator&lt; VARS &gt;</title>
<!-- Node1 -->
<g id="node1" class="node">
<title>Node1</title>
<g id="a_node1"><a xlink:title="Class dedicated to the Neumann boundary condiiton integrator.">
<polygon fill="#bfbfbf" stroke="black" points="47.5,-0.5 47.5,-30.5 209.5,-30.5 209.5,-0.5 47.5,-0.5"/>
<text text-anchor="start" x="55.5" y="-18.5" font-family="serif" font-size="10.00">NeumannNLFormIntegrator</text>
<text text-anchor="middle" x="128.5" y="-7.5" font-family="serif" font-size="10.00">&lt; VARS &gt;</text>
</a>
</g>
</g>
<!-- Node2 -->
<g id="node2" class="node">
<title>Node2</title>
<g id="a_node2"><a xlink:href="classRobinNLFormIntegrator.html" target="_top" xlink:title="Class dedicated to the Robin boundary condition integrator.">
<polygon fill="none" stroke="black" points="58,-68.5 58,-98.5 199,-98.5 199,-68.5 58,-68.5"/>
<text text-anchor="start" x="66" y="-86.5" font-family="serif" font-size="10.00">RobinNLFormIntegrator</text>
<text text-anchor="middle" x="128.5" y="-75.5" font-family="serif" font-size="10.00">&lt; VARS &gt;</text>
</a>
</g>
</g>
<!-- Node2&#45;&gt;Node1 -->
<g id="edge1" class="edge">
<title>Node2&#45;&gt;Node1</title>
<path fill="none" stroke="midnightblue" d="M128.5,-58.03C128.5,-48.86 128.5,-38.74 128.5,-30.79"/>
<polygon fill="midnightblue" stroke="midnightblue" points="125,-58.18 128.5,-68.18 132,-58.18 125,-58.18"/>
</g>
<!-- Node3 -->
<g id="node3" class="node">
<title>Node3</title>
<g id="a_node3"><a xlink:href="classSlothNLFormIntegrator.html" target="_top" xlink:title="Class prodiving common methods to all NLFormIntegrators.">
<polygon fill="none" stroke="black" points="0,-157.5 0,-187.5 137,-187.5 137,-157.5 0,-157.5"/>
<text text-anchor="start" x="8" y="-175.5" font-family="serif" font-size="10.00">SlothNLFormIntegrator</text>
<text text-anchor="middle" x="68.5" y="-164.5" font-family="serif" font-size="10.00">&lt; VARS &gt;</text>
</a>
</g>
</g>
<!-- Node3&#45;&gt;Node2 -->
<g id="edge2" class="edge">
<title>Node3&#45;&gt;Node2</title>
<path fill="none" stroke="midnightblue" d="M84.1,-148.88C95.07,-132.97 109.4,-112.19 118.78,-98.6"/>
<polygon fill="midnightblue" stroke="midnightblue" points="81.2,-146.91 78.41,-157.13 86.97,-150.89 81.2,-146.91"/>
</g>
<!-- Node4 -->
<g id="node4" class="node">
<title>Node4</title>
<g id="a_node4"><a xlink:href="classParameters.html" target="_top" xlink:title=" ">
<polygon fill="none" stroke="black" points="31.5,-235.5 31.5,-254.5 105.5,-254.5 105.5,-235.5 31.5,-235.5"/>
<text text-anchor="middle" x="68.5" y="-242.5" font-family="serif" font-size="10.00">Parameters</text>
</a>
</g>
</g>
<!-- Node4&#45;&gt;Node3 -->
<g id="edge3" class="edge">
<title>Node4&#45;&gt;Node3</title>
<path fill="none" stroke="#9a32cd" stroke-dasharray="5,2" d="M68.5,-225.24C68.5,-213.41 68.5,-198.38 68.5,-187.58"/>
<polygon fill="#9a32cd" stroke="#9a32cd" points="65,-225.36 68.5,-235.36 72,-225.36 65,-225.36"/>
<text text-anchor="middle" x="92" y="-209" font-family="serif" font-size="10.00"> params_</text>
</g>
<!-- Node5 -->
<g id="node5" class="node">
<title>Node5</title>
<g id="a_node5"><a xlink:href="classCoefficient.html" target="_top" xlink:title="Base class definining a coefficient from an analytical formula.">
<polygon fill="none" stroke="black" points="155,-163 155,-182 226,-182 226,-163 155,-163"/>
<text text-anchor="middle" x="190.5" y="-170" font-family="serif" font-size="10.00">Coefficient</text>
</a>
</g>
</g>
<!-- Node5&#45;&gt;Node2 -->
<g id="edge4" class="edge">
<title>Node5&#45;&gt;Node2</title>
<path fill="none" stroke="#9a32cd" stroke-dasharray="5,2" d="M178.22,-154.27C166.59,-137.95 149.33,-113.73 138.51,-98.55"/>
<polygon fill="#9a32cd" stroke="#9a32cd" points="175.67,-156.73 184.33,-162.84 181.38,-152.67 175.67,-156.73"/>
<text text-anchor="middle" x="187.5" y="-131" font-family="serif" font-size="10.00"> robin_a</text>
<text text-anchor="middle" x="187.5" y="-120" font-family="serif" font-size="10.00">robin_b</text>
</g>
<!-- Node6 -->
<g id="node6" class="node">
<title>Node6</title>
<g id="a_node6"><a xlink:href="classSlothBaseCoefficient.html" target="_top" xlink:title="Base class defining a coefficient from an analytical formula.">
<polygon fill="none" stroke="black" points="129.5,-235.5 129.5,-254.5 251.5,-254.5 251.5,-235.5 129.5,-235.5"/>
<text text-anchor="middle" x="190.5" y="-242.5" font-family="serif" font-size="10.00">SlothBaseCoefficient</text>
</a>
</g>
</g>
<!-- Node6&#45;&gt;Node5 -->
<g id="edge5" class="edge">
<title>Node6&#45;&gt;Node5</title>
<path fill="none" stroke="midnightblue" d="M190.5,-224.94C190.5,-211.03 190.5,-192.82 190.5,-182.22"/>
<polygon fill="midnightblue" stroke="midnightblue" points="187,-225.36 190.5,-235.36 194,-225.36 187,-225.36"/>
</g>
</g>
</svg>
