<?xml version="1.0" encoding="UTF-8" standalone="no"?>
<!DOCTYPE svg PUBLIC "-//W3C//DTD SVG 1.1//EN"
 "http://www.w3.org/Graphics/SVG/1.1/DTD/svg11.dtd">
<!-- Generated by graphviz version 2.43.0 (0)
 -->
<!-- Title: OperatorBase&lt; T, DIM &gt; Pages: 1 -->
<svg width="262pt" height="95pt"
 viewBox="0.00 0.00 262.00 95.00" xmlns="http://www.w3.org/2000/svg" xmlns:xlink="http://www.w3.org/1999/xlink">
<g id="graph0" class="graph" transform="scale(1 1) rotate(0) translate(4 91)">
<title>OperatorBase&lt; T, DIM &gt;</title>
<!-- Node1 -->
<g id="node1" class="node">
<title>Node1</title>
<g id="a_node1"><a xlink:title="Base class for building Steady and TimeDependent PhaseFieldOperators.">
<polygon fill="#bfbfbf" stroke="black" points="55,-67.5 55,-86.5 198,-86.5 198,-67.5 55,-67.5"/>
<text text-anchor="middle" x="126.5" y="-74.5" font-family="serif" font-size="10.00">OperatorBase&lt; T, DIM &gt;</text>
</a>
</g>
</g>
<!-- Node2 -->
<g id="node2" class="node">
<title>Node2</title>
<g id="a_node2"><a xlink:href="classSteadyOperator.html" target="_top" xlink:title="SteadyOperator class.">
<polygon fill="none" stroke="black" points="0,-0.5 0,-30.5 117,-30.5 117,-0.5 0,-0.5"/>
<text text-anchor="start" x="8" y="-18.5" font-family="serif" font-size="10.00">SteadyOperator&lt; T,</text>
<text text-anchor="middle" x="58.5" y="-7.5" font-family="serif" font-size="10.00"> DIM &gt;</text>
</a>
</g>
</g>
<!-- Node1&#45;&gt;Node2 -->
<g id="edge1" class="edge">
<title>Node1&#45;&gt;Node2</title>
<path fill="none" stroke="midnightblue" d="M108.95,-60.65C98.32,-51.35 84.87,-39.57 74.53,-30.52"/>
<polygon fill="midnightblue" stroke="midnightblue" points="106.93,-63.52 116.76,-67.48 111.54,-58.26 106.93,-63.52"/>
</g>
<!-- Node3 -->
<g id="node3" class="node">
<title>Node3</title>
<g id="a_node3"><a xlink:href="classTransientOperator.html" target="_top" xlink:title="TransientOperator class.">
<polygon fill="none" stroke="black" points="135,-0.5 135,-30.5 254,-30.5 254,-0.5 135,-0.5"/>
<text text-anchor="start" x="143" y="-18.5" font-family="serif" font-size="10.00">TransientOperator&lt;</text>
<text text-anchor="middle" x="194.5" y="-7.5" font-family="serif" font-size="10.00"> T, DIM &gt;</text>
</a>
</g>
</g>
<!-- Node1&#45;&gt;Node3 -->
<g id="edge2" class="edge">
<title>Node1&#45;&gt;Node3</title>
<path fill="none" stroke="midnightblue" d="M144.05,-60.65C154.68,-51.35 168.13,-39.57 178.47,-30.52"/>
<polygon fill="midnightblue" stroke="midnightblue" points="141.46,-58.26 136.24,-67.48 146.07,-63.52 141.46,-58.26"/>
</g>
</g>
</svg>
