<?xml version="1.0" encoding="UTF-8" standalone="no"?>
<!DOCTYPE svg PUBLIC "-//W3C//DTD SVG 1.1//EN"
 "http://www.w3.org/Graphics/SVG/1.1/DTD/svg11.dtd">
<!-- Generated by graphviz version 2.43.0 (0)
 -->
<!-- Title: MeltingBaseNLFormIntegrator&lt; VARS &gt; Pages: 1 -->
<svg width="590pt" height="137pt"
 viewBox="0.00 0.00 590.00 137.00" xmlns="http://www.w3.org/2000/svg" xmlns:xlink="http://www.w3.org/1999/xlink">
<g id="graph0" class="graph" transform="scale(1 1) rotate(0) translate(4 133)">
<title>MeltingBaseNLFormIntegrator&lt; VARS &gt;</title>
<!-- Node1 -->
<g id="node1" class="node">
<title>Node1</title>
<g id="a_node1"><a xlink:title="Base class for melting integrators.">
<polygon fill="#bfbfbf" stroke="black" points="173,-49.5 173,-79.5 349,-79.5 349,-49.5 173,-49.5"/>
<text text-anchor="start" x="181" y="-67.5" font-family="serif" font-size="10.00">MeltingBaseNLFormIntegrator</text>
<text text-anchor="middle" x="261" y="-56.5" font-family="serif" font-size="10.00">&lt; VARS &gt;</text>
</a>
</g>
</g>
<!-- Node3 -->
<g id="node3" class="node">
<title>Node3</title>
<g id="a_node3"><a xlink:href="classMeltingCalphadNLFormIntegrator.html" target="_top" xlink:title="Class dedicated to the VF of Calphad melting contribution found in Allen&#45;Cahn&#45;type equations.">
<polygon fill="none" stroke="black" points="386.5,-98.5 386.5,-128.5 580.5,-128.5 580.5,-98.5 386.5,-98.5"/>
<text text-anchor="start" x="394.5" y="-116.5" font-family="serif" font-size="10.00">MeltingCalphadNLFormIntegrator</text>
<text text-anchor="middle" x="483.5" y="-105.5" font-family="serif" font-size="10.00">&lt; VARS &gt;</text>
</a>
</g>
</g>
<!-- Node1&#45;&gt;Node3 -->
<g id="edge2" class="edge">
<title>Node1&#45;&gt;Node3</title>
<path fill="none" stroke="midnightblue" d="M339.66,-81.76C364.23,-87.22 391.17,-93.21 414.97,-98.49"/>
<polygon fill="midnightblue" stroke="midnightblue" points="340.18,-78.29 329.66,-79.53 338.66,-85.12 340.18,-78.29"/>
</g>
<!-- Node4 -->
<g id="node4" class="node">
<title>Node4</title>
<g id="a_node4"><a xlink:href="classMeltingConstantNLFormIntegrator.html" target="_top" xlink:title="Class dedicated to the VF of an ad&#45;hoc constant melting contribution found in Allen&#45;Cahn&#45;type equatio...">
<polygon fill="none" stroke="black" points="385,-49.5 385,-79.5 582,-79.5 582,-49.5 385,-49.5"/>
<text text-anchor="start" x="393" y="-67.5" font-family="serif" font-size="10.00">MeltingConstantNLFormIntegrator</text>
<text text-anchor="middle" x="483.5" y="-56.5" font-family="serif" font-size="10.00">&lt; VARS &gt;</text>
</a>
</g>
</g>
<!-- Node1&#45;&gt;Node4 -->
<g id="edge3" class="edge">
<title>Node1&#45;&gt;Node4</title>
<path fill="none" stroke="midnightblue" d="M359.35,-64.5C367.77,-64.5 376.29,-64.5 384.71,-64.5"/>
<polygon fill="midnightblue" stroke="midnightblue" points="359.15,-61 349.15,-64.5 359.15,-68 359.15,-61"/>
</g>
<!-- Node5 -->
<g id="node5" class="node">
<title>Node5</title>
<g id="a_node5"><a xlink:href="classMeltingTemperatureNLFormIntegrator.html" target="_top" xlink:title="Class dedicated to the VF of an ad&#45;hoc temperature melting contribution found in Allen&#45;Cahn&#45;type equa...">
<polygon fill="none" stroke="black" points="401,-0.5 401,-30.5 566,-30.5 566,-0.5 401,-0.5"/>
<text text-anchor="start" x="409" y="-18.5" font-family="serif" font-size="10.00">MeltingTemperatureNLForm</text>
<text text-anchor="middle" x="483.5" y="-7.5" font-family="serif" font-size="10.00">Integrator&lt; VARS &gt;</text>
</a>
</g>
</g>
<!-- Node1&#45;&gt;Node5 -->
<g id="edge4" class="edge">
<title>Node1&#45;&gt;Node5</title>
<path fill="none" stroke="midnightblue" d="M339.66,-47.24C364.23,-41.78 391.17,-35.79 414.97,-30.51"/>
<polygon fill="midnightblue" stroke="midnightblue" points="338.66,-43.88 329.66,-49.47 340.18,-50.71 338.66,-43.88"/>
</g>
<!-- Node2 -->
<g id="node2" class="node">
<title>Node2</title>
<g id="a_node2"><a xlink:href="classSlothNLFormIntegrator.html" target="_top" xlink:title="Class prodiving common methods to all NLFormIntegrators.">
<polygon fill="none" stroke="black" points="0,-49.5 0,-79.5 137,-79.5 137,-49.5 0,-49.5"/>
<text text-anchor="start" x="8" y="-67.5" font-family="serif" font-size="10.00">SlothNLFormIntegrator</text>
<text text-anchor="middle" x="68.5" y="-56.5" font-family="serif" font-size="10.00">&lt; VARS &gt;</text>
</a>
</g>
</g>
<!-- Node2&#45;&gt;Node1 -->
<g id="edge1" class="edge">
<title>Node2&#45;&gt;Node1</title>
<path fill="none" stroke="midnightblue" d="M147.35,-64.5C155.75,-64.5 164.35,-64.5 172.86,-64.5"/>
<polygon fill="midnightblue" stroke="midnightblue" points="147.2,-61 137.2,-64.5 147.2,-68 147.2,-61"/>
</g>
</g>
</svg>
