<?xml version="1.0" encoding="UTF-8" standalone="no"?>
<!DOCTYPE svg PUBLIC "-//W3C//DTD SVG 1.1//EN"
 "http://www.w3.org/Graphics/SVG/1.1/DTD/svg11.dtd">
<!-- Generated by graphviz version 2.43.0 (0)
 -->
<!-- Title: MeltingConstantNLFormIntegrator&lt; VARS &gt; Pages: 1 -->
<svg width="296pt" height="263pt"
 viewBox="0.00 0.00 295.50 263.00" xmlns="http://www.w3.org/2000/svg" xmlns:xlink="http://www.w3.org/1999/xlink">
<g id="graph0" class="graph" transform="scale(1 1) rotate(0) translate(4 259)">
<title>MeltingConstantNLFormIntegrator&lt; VARS &gt;</title>
<!-- Node1 -->
<g id="node1" class="node">
<title>Node1</title>
<g id="a_node1"><a xlink:title="Class dedicated to the VF of an ad&#45;hoc constant melting contribution found in Allen&#45;Cahn&#45;type equatio...">
<polygon fill="#bfbfbf" stroke="black" points="32,-0.5 32,-30.5 229,-30.5 229,-0.5 32,-0.5"/>
<text text-anchor="start" x="40" y="-18.5" font-family="serif" font-size="10.00">MeltingConstantNLFormIntegrator</text>
<text text-anchor="middle" x="130.5" y="-7.5" font-family="serif" font-size="10.00">&lt; VARS &gt;</text>
</a>
</g>
</g>
<!-- Node2 -->
<g id="node2" class="node">
<title>Node2</title>
<g id="a_node2"><a xlink:href="classMeltingBaseNLFormIntegrator.html" target="_top" xlink:title="Base class for melting integrators.">
<polygon fill="none" stroke="black" points="42.5,-68.5 42.5,-98.5 218.5,-98.5 218.5,-68.5 42.5,-68.5"/>
<text text-anchor="start" x="50.5" y="-86.5" font-family="serif" font-size="10.00">MeltingBaseNLFormIntegrator</text>
<text text-anchor="middle" x="130.5" y="-75.5" font-family="serif" font-size="10.00">&lt; VARS &gt;</text>
</a>
</g>
</g>
<!-- Node2&#45;&gt;Node1 -->
<g id="edge1" class="edge">
<title>Node2&#45;&gt;Node1</title>
<path fill="none" stroke="midnightblue" d="M130.5,-58.03C130.5,-48.86 130.5,-38.74 130.5,-30.79"/>
<polygon fill="midnightblue" stroke="midnightblue" points="127,-58.18 130.5,-68.18 134,-58.18 127,-58.18"/>
</g>
<!-- Node3 -->
<g id="node3" class="node">
<title>Node3</title>
<g id="a_node3"><a xlink:href="classSlothNLFormIntegrator.html" target="_top" xlink:title="Class prodiving common methods to all NLFormIntegrators.">
<polygon fill="none" stroke="black" points="0,-157.5 0,-187.5 137,-187.5 137,-157.5 0,-157.5"/>
<text text-anchor="start" x="8" y="-175.5" font-family="serif" font-size="10.00">SlothNLFormIntegrator</text>
<text text-anchor="middle" x="68.5" y="-164.5" font-family="serif" font-size="10.00">&lt; VARS &gt;</text>
</a>
</g>
</g>
<!-- Node3&#45;&gt;Node2 -->
<g id="edge2" class="edge">
<title>Node3&#45;&gt;Node2</title>
<path fill="none" stroke="midnightblue" d="M84.62,-148.88C95.96,-132.97 110.77,-112.19 120.45,-98.6"/>
<polygon fill="midnightblue" stroke="midnightblue" points="81.69,-146.96 78.74,-157.13 87.39,-151.02 81.69,-146.96"/>
</g>
<!-- Node4 -->
<g id="node4" class="node">
<title>Node4</title>
<g id="a_node4"><a xlink:href="classParameters.html" target="_top" xlink:title=" ">
<polygon fill="none" stroke="black" points="31.5,-235.5 31.5,-254.5 105.5,-254.5 105.5,-235.5 31.5,-235.5"/>
<text text-anchor="middle" x="68.5" y="-242.5" font-family="serif" font-size="10.00">Parameters</text>
</a>
</g>
</g>
<!-- Node4&#45;&gt;Node3 -->
<g id="edge3" class="edge">
<title>Node4&#45;&gt;Node3</title>
<path fill="none" stroke="#9a32cd" stroke-dasharray="5,2" d="M68.5,-225.24C68.5,-213.41 68.5,-198.38 68.5,-187.58"/>
<polygon fill="#9a32cd" stroke="#9a32cd" points="65,-225.36 68.5,-235.36 72,-225.36 65,-225.36"/>
<text text-anchor="middle" x="92" y="-209" font-family="serif" font-size="10.00"> params_</text>
</g>
<!-- Node5 -->
<g id="node5" class="node">
<title>Node5</title>
<g id="a_node5"><a xlink:href="classCoefficients.html" target="_top" xlink:title="Class used to manage a collection of Coefficient.">
<polygon fill="none" stroke="black" points="155.5,-163 155.5,-182 231.5,-182 231.5,-163 155.5,-163"/>
<text text-anchor="middle" x="193.5" y="-170" font-family="serif" font-size="10.00">Coefficients</text>
</a>
</g>
</g>
<!-- Node5&#45;&gt;Node2 -->
<g id="edge4" class="edge">
<title>Node5&#45;&gt;Node2</title>
<path fill="none" stroke="#9a32cd" stroke-dasharray="5,2" d="M181.35,-154.72C169.53,-138.4 151.77,-113.87 140.67,-98.55"/>
<polygon fill="#9a32cd" stroke="#9a32cd" points="178.53,-156.79 187.23,-162.84 184.2,-152.69 178.53,-156.79"/>
<text text-anchor="middle" x="228" y="-131" font-family="serif" font-size="10.00"> interpolation_potential</text>
<text text-anchor="middle" x="228" y="-120" font-family="serif" font-size="10.00">mobility</text>
</g>
</g>
</svg>
