<?xml version="1.0" encoding="UTF-8" standalone="no"?>
<!DOCTYPE svg PUBLIC "-//W3C//DTD SVG 1.1//EN"
 "http://www.w3.org/Graphics/SVG/1.1/DTD/svg11.dtd">
<!-- Generated by graphviz version 2.43.0 (0)
 -->
<!-- Title: SolverHyprePCG::create_solver Pages: 1 -->
<svg width="362pt" height="187pt"
 viewBox="0.00 0.00 362.00 186.50" xmlns="http://www.w3.org/2000/svg" xmlns:xlink="http://www.w3.org/1999/xlink">
<g id="graph0" class="graph" transform="scale(1 1) rotate(0) translate(4 182.5)">
<title>SolverHyprePCG::create_solver</title>
<!-- Node1 -->
<g id="node1" class="node">
<title>Node1</title>
<g id="a_node1"><a xlink:title="Create a iterative solver based of the SolverType and a list of Parameters.">
<polygon fill="#bfbfbf" stroke="black" points="0,-76.5 0,-106.5 141,-106.5 141,-76.5 0,-76.5"/>
<text text-anchor="start" x="8" y="-94.5" font-family="serif" font-size="10.00">SolverHyprePCG::create</text>
<text text-anchor="middle" x="70.5" y="-83.5" font-family="serif" font-size="10.00">_solver</text>
</a>
</g>
</g>
<!-- Node2 -->
<g id="node2" class="node">
<title>Node2</title>
<g id="a_node2"><a xlink:href="classSlothInfo.html#a854d3cafdb9f5a77f1063a27d2a27e04" target="_top" xlink:title="Print information on Debug mode.">
<polygon fill="none" stroke="black" points="214.5,-159 214.5,-178 316.5,-178 316.5,-159 214.5,-159"/>
<text text-anchor="middle" x="265.5" y="-166" font-family="serif" font-size="10.00">SlothInfo::debug</text>
</a>
</g>
</g>
<!-- Node1&#45;&gt;Node2 -->
<g id="edge1" class="edge">
<title>Node1&#45;&gt;Node2</title>
<path fill="none" stroke="midnightblue" d="M94.45,-106.67C115.22,-119.76 147.05,-138.29 177,-149.5 185.66,-152.74 195.02,-155.5 204.29,-157.83"/>
<polygon fill="midnightblue" stroke="midnightblue" points="203.73,-161.3 214.27,-160.19 205.34,-154.49 203.73,-161.3"/>
</g>
<!-- Node3 -->
<g id="node3" class="node">
<title>Node3</title>
<g id="a_node3"><a xlink:href="classSolverBase.html#a52edc30e08c2552f8ceb3d9ea928b059" target="_top" xlink:title=" ">
<polygon fill="none" stroke="black" points="177,-99 177,-140 354,-140 354,-99 177,-99"/>
<text text-anchor="start" x="185" y="-128" font-family="serif" font-size="10.00">SolverBase&lt; mfem::HyprePCG,</text>
<text text-anchor="start" x="185" y="-117" font-family="serif" font-size="10.00"> HypreSolverType &gt;::get</text>
<text text-anchor="middle" x="265.5" y="-106" font-family="serif" font-size="10.00">_description</text>
</a>
</g>
</g>
<!-- Node1&#45;&gt;Node3 -->
<g id="edge2" class="edge">
<title>Node1&#45;&gt;Node3</title>
<path fill="none" stroke="midnightblue" d="M141.18,-101.61C149.48,-102.81 158.07,-104.06 166.68,-105.31"/>
<polygon fill="midnightblue" stroke="midnightblue" points="166.37,-108.8 176.77,-106.77 167.38,-101.87 166.37,-108.8"/>
</g>
<!-- Node4 -->
<g id="node4" class="node">
<title>Node4</title>
<g id="a_node4"><a xlink:href="classParameters.html#ae3b314c5ebc3fde8684b0634b2406da6" target="_top" xlink:title=" ">
<polygon fill="none" stroke="black" points="198,-49.5 198,-79.5 333,-79.5 333,-49.5 198,-49.5"/>
<text text-anchor="start" x="206" y="-67.5" font-family="serif" font-size="10.00">Parameters::get_param</text>
<text text-anchor="middle" x="265.5" y="-56.5" font-family="serif" font-size="10.00">_value</text>
</a>
</g>
</g>
<!-- Node1&#45;&gt;Node4 -->
<g id="edge3" class="edge">
<title>Node1&#45;&gt;Node4</title>
<path fill="none" stroke="midnightblue" d="M141.18,-81.75C156.32,-79.63 172.43,-77.38 187.83,-75.23"/>
<polygon fill="midnightblue" stroke="midnightblue" points="188.41,-78.68 197.83,-73.83 187.44,-71.75 188.41,-78.68"/>
</g>
<!-- Node5 -->
<g id="node5" class="node">
<title>Node5</title>
<g id="a_node5"><a xlink:href="classParameters.html#a857c53fbe60d7bd2f91e91626f85b6d2" target="_top" xlink:title=" ">
<polygon fill="none" stroke="black" points="198,-0.5 198,-30.5 333,-30.5 333,-0.5 198,-0.5"/>
<text text-anchor="start" x="206" y="-18.5" font-family="serif" font-size="10.00">Parameters::get_param</text>
<text text-anchor="middle" x="265.5" y="-7.5" font-family="serif" font-size="10.00">_value_or_default</text>
</a>
</g>
</g>
<!-- Node1&#45;&gt;Node5 -->
<g id="edge4" class="edge">
<title>Node1&#45;&gt;Node5</title>
<path fill="none" stroke="midnightblue" d="M99.57,-76.29C120.5,-65.36 150.01,-50.79 177,-40.5 183.35,-38.08 190.03,-35.77 196.76,-33.59"/>
<polygon fill="midnightblue" stroke="midnightblue" points="198.11,-36.84 206.61,-30.51 196.03,-30.16 198.11,-36.84"/>
</g>
</g>
</svg>
