<?xml version="1.0" encoding="UTF-8" standalone="no"?>
<!DOCTYPE svg PUBLIC "-//W3C//DTD SVG 1.1//EN"
 "http://www.w3.org/Graphics/SVG/1.1/DTD/svg11.dtd">
<!-- Generated by graphviz version 2.43.0 (0)
 -->
<!-- Title: SlothNLFormIntegrator&lt; VARS &gt; Pages: 1 -->
<!--zoomable 529 -->
<svg id="main" version="1.1" xmlns="http://www.w3.org/2000/svg" xmlns:xlink="http://www.w3.org/1999/xlink" xml:space="preserve" onload="init(evt)">
<style type="text/css"><![CDATA[
.edge:hover path { stroke: red; }
.edge:hover polygon { stroke: red; fill: red; }
]]></style>
<script type="text/javascript"><![CDATA[
var edges = document.getElementsByTagName('g');
if (edges && edges.length) {
  for (var i=0;i<edges.length;i++) {
    if (edges[i].id.substr(0,4)=='edge') {
      edges[i].setAttribute('class','edge');
    }
  }
}
]]></script>
        <defs>
                <circle id="rim" cx="0" cy="0" r="7"/>
                <circle id="rim2" cx="0" cy="0" r="3.5"/>
                <g id="zoomPlus">
                        <use xlink:href="#rim" fill="#404040">
                                <set attributeName="fill" to="#808080" begin="zoomplus.mouseover" end="zoomplus.mouseout"/>
                        </use>
                        <path d="M-4,0h8M0,-4v8" fill="none" stroke="white" stroke-width="1.5" pointer-events="none"/>
                </g>
                <g id="zoomMin">
                        <use xlink:href="#rim" fill="#404040">
                                <set attributeName="fill" to="#808080" begin="zoomminus.mouseover" end="zoomminus.mouseout"/>
                        </use>
                        <path d="M-4,0h8" fill="none" stroke="white" stroke-width="1.5" pointer-events="none"/>
                </g>
                <g id="dirArrow">
                        <path fill="none" stroke="white" stroke-width="1.5" d="M0,-3.0v7 M-2.5,-0.5L0,-3.0L2.5,-0.5"/>
                </g>
               <g id="resetDef">
                       <use xlink:href="#rim2" fill="#404040">
                               <set attributeName="fill" to="#808080" begin="reset.mouseover" end="reset.mouseout"/>
                       </use>
               </g>
        </defs>

<script type="text/javascript">
var viewWidth = 632;
var viewHeight = 529;
var sectionId = 'dynsection-0';
</script>
<script xlink:href="svgpan.js"/>
<svg id="graph" class="graph">
<g id="viewport">
<title>SlothNLFormIntegrator&lt; VARS &gt;</title>
<!-- Node1 -->
<g id="node1" class="node">
<title>Node1</title>
<g id="a_node1"><a xlink:title="Class prodiving common methods to all NLFormIntegrators.">
<polygon fill="#bfbfbf" stroke="black" points="0,-245.5 0,-275.5 137,-275.5 137,-245.5 0,-245.5"/>
<text text-anchor="start" x="8" y="-263.5" font-family="serif" font-size="10.00">SlothNLFormIntegrator</text>
<text text-anchor="middle" x="68.5" y="-252.5" font-family="serif" font-size="10.00">&lt; VARS &gt;</text>
</a>
</g>
</g>
<!-- Node2 -->
<g id="node2" class="node">
<title>Node2</title>
<g id="a_node2"><a xlink:href="classAllenCahnGrainNLFormIntegrator.html" target="_top" xlink:title="Class dedicated to the FV of the Allen Cahn equation.">
<polygon fill="none" stroke="black" points="173,-490.5 173,-520.5 382,-520.5 382,-490.5 173,-490.5"/>
<text text-anchor="start" x="181" y="-508.5" font-family="serif" font-size="10.00">AllenCahnGrainNLFormIntegrator</text>
<text text-anchor="middle" x="277.5" y="-497.5" font-family="serif" font-size="10.00">&lt; VARS, SCHEME, ENERGY, MOBI &gt;</text>
</a>
</g>
</g>
<!-- Node1&#45;&gt;Node2 -->
<g id="edge1" class="edge">
<title>Node1&#45;&gt;Node2</title>
<path fill="none" stroke="midnightblue" d="M73.87,-285.7C83.26,-331.98 109.88,-430.43 173,-481.5 177.16,-484.86 181.7,-487.78 186.49,-490.29"/>
<polygon fill="midnightblue" stroke="midnightblue" points="77.26,-284.79 71.93,-275.63 70.38,-286.11 77.26,-284.79"/>
</g>
<!-- Node3 -->
<g id="node3" class="node">
<title>Node3</title>
<g id="a_node3"><a xlink:href="classAllenCahnNLFormIntegrator.html" target="_top" xlink:title="Class dedicated to the VF of the RHS of the AllenCahn equation (see TimeDerivative integrator for the...">
<polygon fill="none" stroke="black" points="195.5,-441.5 195.5,-471.5 359.5,-471.5 359.5,-441.5 195.5,-441.5"/>
<text text-anchor="start" x="203.5" y="-459.5" font-family="serif" font-size="10.00">AllenCahnNLFormIntegrator</text>
<text text-anchor="middle" x="277.5" y="-448.5" font-family="serif" font-size="10.00">&lt; VARS &gt;</text>
</a>
</g>
</g>
<!-- Node1&#45;&gt;Node3 -->
<g id="edge2" class="edge">
<title>Node1&#45;&gt;Node3</title>
<path fill="none" stroke="midnightblue" d="M77.4,-285.45C90.75,-323.37 121.46,-395.04 173,-432.5 179.79,-437.43 187.43,-441.37 195.42,-444.51"/>
<polygon fill="midnightblue" stroke="midnightblue" points="80.63,-284.05 74.1,-275.71 74,-286.3 80.63,-284.05"/>
</g>
<!-- Node4 -->
<g id="node4" class="node">
<title>Node4</title>
<g id="a_node4"><a xlink:href="classBlockAllenCahnNLFormIntegrator.html" target="_top" xlink:title="Class dedicated to the VF of the AllenCahn equation (splitted form)">
<polygon fill="none" stroke="black" points="181.5,-392.5 181.5,-422.5 373.5,-422.5 373.5,-392.5 181.5,-392.5"/>
<text text-anchor="start" x="189.5" y="-410.5" font-family="serif" font-size="10.00">BlockAllenCahnNLFormIntegrator</text>
<text text-anchor="middle" x="277.5" y="-399.5" font-family="serif" font-size="10.00">&lt; VARS &gt;</text>
</a>
</g>
</g>
<!-- Node1&#45;&gt;Node4 -->
<g id="edge3" class="edge">
<title>Node1&#45;&gt;Node4</title>
<path fill="none" stroke="midnightblue" d="M83.06,-284.52C100.25,-312.72 132.59,-358.75 173,-383.5 178.66,-386.97 184.78,-389.94 191.11,-392.47"/>
<polygon fill="midnightblue" stroke="midnightblue" points="85.93,-282.51 77.81,-275.7 79.91,-286.09 85.93,-282.51"/>
</g>
<!-- Node5 -->
<g id="node5" class="node">
<title>Node5</title>
<g id="a_node5"><a xlink:href="classCahnHilliardNLFormIntegrator.html" target="_top" xlink:title="Class dedicated to the VF of the RHS of the Cahn&#45;Hilliard equation (splitted form) (see SplitTimeDeri...">
<polygon fill="none" stroke="black" points="189.5,-343.5 189.5,-373.5 365.5,-373.5 365.5,-343.5 189.5,-343.5"/>
<text text-anchor="start" x="197.5" y="-361.5" font-family="serif" font-size="10.00">CahnHilliardNLFormIntegrator</text>
<text text-anchor="middle" x="277.5" y="-350.5" font-family="serif" font-size="10.00">&lt; VARS &gt;</text>
</a>
</g>
</g>
<!-- Node1&#45;&gt;Node5 -->
<g id="edge4" class="edge">
<title>Node1&#45;&gt;Node5</title>
<path fill="none" stroke="midnightblue" d="M93.81,-282.13C113.76,-298.79 143.45,-321.15 173,-334.5 180.56,-337.92 188.67,-340.87 196.89,-343.43"/>
<polygon fill="midnightblue" stroke="midnightblue" points="96.03,-279.42 86.14,-275.61 91.49,-284.75 96.03,-279.42"/>
</g>
<!-- Node6 -->
<g id="node6" class="node">
<title>Node6</title>
<g id="a_node6"><a xlink:href="classDiffusionFluxNLFormIntegrator.html" target="_top" xlink:title="Class dedicated to the VF of an inter&#45;diffusion equation.">
<polygon fill="none" stroke="black" points="188,-294.5 188,-324.5 367,-324.5 367,-294.5 188,-294.5"/>
<text text-anchor="start" x="196" y="-312.5" font-family="serif" font-size="10.00">DiffusionFluxNLFormIntegrator</text>
<text text-anchor="middle" x="277.5" y="-301.5" font-family="serif" font-size="10.00">&lt; VARS &gt;</text>
</a>
</g>
</g>
<!-- Node1&#45;&gt;Node6 -->
<g id="edge5" class="edge">
<title>Node1&#45;&gt;Node6</title>
<path fill="none" stroke="midnightblue" d="M141.07,-277.88C151.77,-280.45 162.67,-283.05 173,-285.5 185.39,-288.43 198.61,-291.53 211.33,-294.48"/>
<polygon fill="midnightblue" stroke="midnightblue" points="141.86,-274.47 131.32,-275.53 140.23,-281.27 141.86,-274.47"/>
</g>
<!-- Node9 -->
<g id="node9" class="node">
<title>Node9</title>
<g id="a_node9"><a xlink:href="classDiffusionNLFormIntegrator.html" target="_top" xlink:title="Nonlinear form integrator for diffusion&#45;type problems.">
<polygon fill="none" stroke="black" points="199,-245.5 199,-275.5 356,-275.5 356,-245.5 199,-245.5"/>
<text text-anchor="start" x="207" y="-263.5" font-family="serif" font-size="10.00">DiffusionNLFormIntegrator</text>
<text text-anchor="middle" x="277.5" y="-252.5" font-family="serif" font-size="10.00">&lt; VARS &gt;</text>
</a>
</g>
</g>
<!-- Node1&#45;&gt;Node9 -->
<g id="edge8" class="edge">
<title>Node1&#45;&gt;Node9</title>
<path fill="none" stroke="midnightblue" d="M147.59,-260.5C164.37,-260.5 182.11,-260.5 198.87,-260.5"/>
<polygon fill="midnightblue" stroke="midnightblue" points="147.28,-257 137.28,-260.5 147.28,-264 147.28,-257"/>
</g>
<!-- Node12 -->
<g id="node12" class="node">
<title>Node12</title>
<g id="a_node12"><a xlink:href="classLatentHeatNLFormIntegrator.html" target="_top" xlink:title="Latent heat contribution for heat transfer equations.">
<polygon fill="none" stroke="black" points="193,-196.5 193,-226.5 362,-226.5 362,-196.5 193,-196.5"/>
<text text-anchor="start" x="201" y="-214.5" font-family="serif" font-size="10.00">LatentHeatNLFormIntegrator</text>
<text text-anchor="middle" x="277.5" y="-203.5" font-family="serif" font-size="10.00">&lt; VARS &gt;</text>
</a>
</g>
</g>
<!-- Node1&#45;&gt;Node12 -->
<g id="edge11" class="edge">
<title>Node1&#45;&gt;Node12</title>
<path fill="none" stroke="midnightblue" d="M143.02,-243.1C165.92,-237.68 190.96,-231.75 213.11,-226.51"/>
<polygon fill="midnightblue" stroke="midnightblue" points="141.94,-239.76 133.01,-245.47 143.55,-246.57 141.94,-239.76"/>
</g>
<!-- Node13 -->
<g id="node13" class="node">
<title>Node13</title>
<g id="a_node13"><a xlink:href="classMeltingBaseNLFormIntegrator.html" target="_top" xlink:title="Base class for melting integrators.">
<polygon fill="none" stroke="black" points="189.5,-147.5 189.5,-177.5 365.5,-177.5 365.5,-147.5 189.5,-147.5"/>
<text text-anchor="start" x="197.5" y="-165.5" font-family="serif" font-size="10.00">MeltingBaseNLFormIntegrator</text>
<text text-anchor="middle" x="277.5" y="-154.5" font-family="serif" font-size="10.00">&lt; VARS &gt;</text>
</a>
</g>
</g>
<!-- Node1&#45;&gt;Node13 -->
<g id="edge12" class="edge">
<title>Node1&#45;&gt;Node13</title>
<path fill="none" stroke="midnightblue" d="M94.25,-238.96C114.25,-222.6 143.78,-200.75 173,-187.5 181.5,-183.65 190.68,-180.34 199.93,-177.51"/>
<polygon fill="midnightblue" stroke="midnightblue" points="92,-236.28 86.56,-245.36 96.48,-241.66 92,-236.28"/>
</g>
<!-- Node17 -->
<g id="node17" class="node">
<title>Node17</title>
<g id="a_node17"><a xlink:href="classRobinNLFormIntegrator.html" target="_top" xlink:title="Class dedicated to the Robin boundary condition integrator.">
<polygon fill="none" stroke="black" points="207,-98.5 207,-128.5 348,-128.5 348,-98.5 207,-98.5"/>
<text text-anchor="start" x="215" y="-116.5" font-family="serif" font-size="10.00">RobinNLFormIntegrator</text>
<text text-anchor="middle" x="277.5" y="-105.5" font-family="serif" font-size="10.00">&lt; VARS &gt;</text>
</a>
</g>
</g>
<!-- Node1&#45;&gt;Node17 -->
<g id="edge16" class="edge">
<title>Node1&#45;&gt;Node17</title>
<path fill="none" stroke="midnightblue" d="M83.14,-236.73C100.42,-208.83 132.84,-163.24 173,-138.5 183.31,-132.15 195.12,-127.41 206.98,-123.88"/>
<polygon fill="midnightblue" stroke="midnightblue" points="80.04,-235.09 77.87,-245.46 86.04,-238.71 80.04,-235.09"/>
</g>
<!-- Node19 -->
<g id="node19" class="node">
<title>Node19</title>
<g id="a_node19"><a xlink:href="classTimeCHNLFormIntegrator.html" target="_top" xlink:title="Class dedicated to the VF of the time&#45;derivative (eg. LHS of Cahn&#45;Hilliard and Allen&#45;Cahn equations u...">
<polygon fill="none" stroke="black" points="201,-49.5 201,-79.5 354,-79.5 354,-49.5 201,-49.5"/>
<text text-anchor="start" x="209" y="-67.5" font-family="serif" font-size="10.00">TimeCHNLFormIntegrator</text>
<text text-anchor="middle" x="277.5" y="-56.5" font-family="serif" font-size="10.00">&lt; VARS &gt;</text>
</a>
</g>
</g>
<!-- Node1&#45;&gt;Node19 -->
<g id="edge18" class="edge">
<title>Node1&#45;&gt;Node19</title>
<path fill="none" stroke="midnightblue" d="M77.49,-235.75C90.95,-198.12 121.81,-126.97 173,-89.5 181.35,-83.39 191.01,-78.75 200.99,-75.24"/>
<polygon fill="midnightblue" stroke="midnightblue" points="74.11,-234.82 74.15,-245.42 80.72,-237.11 74.11,-234.82"/>
</g>
<!-- Node20 -->
<g id="node20" class="node">
<title>Node20</title>
<g id="a_node20"><a xlink:href="classTimeNLFormIntegrator.html" target="_top" xlink:title="Class dedicated to the VF of the time&#45;derivative (eg. LHS of Allen&#45;Cahn equation)">
<polygon fill="none" stroke="black" points="209,-0.5 209,-30.5 346,-30.5 346,-0.5 209,-0.5"/>
<text text-anchor="start" x="217" y="-18.5" font-family="serif" font-size="10.00">TimeNLFormIntegrator</text>
<text text-anchor="middle" x="277.5" y="-7.5" font-family="serif" font-size="10.00">&lt; VARS &gt;</text>
</a>
</g>
</g>
<!-- Node1&#45;&gt;Node20 -->
<g id="edge19" class="edge">
<title>Node1&#45;&gt;Node20</title>
<path fill="none" stroke="midnightblue" d="M73.95,-235.47C83.48,-189.49 110.31,-91.62 173,-40.5 183.32,-32.09 196.02,-26.43 208.94,-22.64"/>
<polygon fill="midnightblue" stroke="midnightblue" points="70.48,-234.99 71.98,-245.47 77.34,-236.34 70.48,-234.99"/>
</g>
<!-- Node7 -->
<g id="node7" class="node">
<title>Node7</title>
<g id="a_node7"><a xlink:href="classMassDiffusionFluxNLFormIntegrator.html" target="_top" xlink:title="Class dedicated to the VF of diffusion flux (gradient of chemical potential) used in mass balance equ...">
<polygon fill="none" stroke="black" points="418,-392.5 418,-422.5 624,-422.5 624,-392.5 418,-392.5"/>
<text text-anchor="start" x="426" y="-410.5" font-family="serif" font-size="10.00">MassDiffusionFluxNLFormIntegrator</text>
<text text-anchor="middle" x="521" y="-399.5" font-family="serif" font-size="10.00">&lt; VARS &gt;</text>
</a>
</g>
</g>
<!-- Node6&#45;&gt;Node7 -->
<g id="edge6" class="edge">
<title>Node6&#45;&gt;Node7</title>
<path fill="none" stroke="midnightblue" d="M372.26,-328.8C375.63,-330.54 378.89,-332.43 382,-334.5 404.5,-349.47 395.46,-368.6 418,-383.5 423.24,-386.96 428.91,-389.93 434.82,-392.46"/>
<polygon fill="midnightblue" stroke="midnightblue" points="373.66,-325.58 363.11,-324.55 370.71,-331.93 373.66,-325.58"/>
</g>
<!-- Node8 -->
<g id="node8" class="node">
<title>Node8</title>
<g id="a_node8"><a xlink:href="classThermalDiffusionFluxNLFormIntegrator.html" target="_top" xlink:title="Class dedicated to the VF of thermal diffusion flux used in energy balance equation.">
<polygon fill="none" stroke="black" points="436,-343.5 436,-373.5 606,-373.5 606,-343.5 436,-343.5"/>
<text text-anchor="start" x="444" y="-361.5" font-family="serif" font-size="10.00">ThermalDiffusionFluxNLForm</text>
<text text-anchor="middle" x="521" y="-350.5" font-family="serif" font-size="10.00">Integrator&lt; VARS &gt;</text>
</a>
</g>
</g>
<!-- Node6&#45;&gt;Node8 -->
<g id="edge7" class="edge">
<title>Node6&#45;&gt;Node8</title>
<path fill="none" stroke="midnightblue" d="M362.48,-326.54C389.68,-332.06 419.63,-338.13 446.04,-343.49"/>
<polygon fill="midnightblue" stroke="midnightblue" points="363.1,-323.09 352.6,-324.53 361.7,-329.95 363.1,-323.09"/>
</g>
<!-- Node10 -->
<g id="node10" class="node">
<title>Node10</title>
<g id="a_node10"><a xlink:href="classFickNLFormIntegrator.html" target="_top" xlink:title="Nonlinear form integrator for the right&#45;hand side of the mass diffusion equation (Fick&#39;s law).">
<polygon fill="none" stroke="black" points="455,-294.5 455,-324.5 587,-324.5 587,-294.5 455,-294.5"/>
<text text-anchor="start" x="463" y="-312.5" font-family="serif" font-size="10.00">FickNLFormIntegrator</text>
<text text-anchor="middle" x="521" y="-301.5" font-family="serif" font-size="10.00">&lt; VARS &gt;</text>
</a>
</g>
</g>
<!-- Node9&#45;&gt;Node10 -->
<g id="edge9" class="edge">
<title>Node9&#45;&gt;Node10</title>
<path fill="none" stroke="midnightblue" d="M362.68,-277.58C392.82,-283.7 426.32,-290.49 454.63,-296.24"/>
<polygon fill="midnightblue" stroke="midnightblue" points="363.1,-274.09 352.6,-275.53 361.7,-280.95 363.1,-274.09"/>
</g>
<!-- Node11 -->
<g id="node11" class="node">
<title>Node11</title>
<g id="a_node11"><a xlink:href="classFourierNLFormIntegrator.html" target="_top" xlink:title="Nonlinear form integrator for the right&#45;hand side of the heat transfer equation (Fourier&#39;s law).">
<polygon fill="none" stroke="black" points="446.5,-245.5 446.5,-275.5 595.5,-275.5 595.5,-245.5 446.5,-245.5"/>
<text text-anchor="start" x="454.5" y="-263.5" font-family="serif" font-size="10.00">FourierNLFormIntegrator</text>
<text text-anchor="middle" x="521" y="-252.5" font-family="serif" font-size="10.00">&lt; VARS &gt;</text>
</a>
</g>
</g>
<!-- Node9&#45;&gt;Node11 -->
<g id="edge10" class="edge">
<title>Node9&#45;&gt;Node11</title>
<path fill="none" stroke="midnightblue" d="M366.52,-260.5C392.64,-260.5 420.97,-260.5 446.1,-260.5"/>
<polygon fill="midnightblue" stroke="midnightblue" points="366.24,-257 356.24,-260.5 366.24,-264 366.24,-257"/>
</g>
<!-- Node14 -->
<g id="node14" class="node">
<title>Node14</title>
<g id="a_node14"><a xlink:href="classMeltingCalphadNLFormIntegrator.html" target="_top" xlink:title="Class dedicated to the VF of Calphad melting contribution found in Allen&#45;Cahn&#45;type equations.">
<polygon fill="none" stroke="black" points="424,-196.5 424,-226.5 618,-226.5 618,-196.5 424,-196.5"/>
<text text-anchor="start" x="432" y="-214.5" font-family="serif" font-size="10.00">MeltingCalphadNLFormIntegrator</text>
<text text-anchor="middle" x="521" y="-203.5" font-family="serif" font-size="10.00">&lt; VARS &gt;</text>
</a>
</g>
</g>
<!-- Node13&#45;&gt;Node14 -->
<g id="edge13" class="edge">
<title>Node13&#45;&gt;Node14</title>
<path fill="none" stroke="midnightblue" d="M362.48,-179.54C389.68,-185.06 419.63,-191.13 446.04,-196.49"/>
<polygon fill="midnightblue" stroke="midnightblue" points="363.1,-176.09 352.6,-177.53 361.7,-182.95 363.1,-176.09"/>
</g>
<!-- Node15 -->
<g id="node15" class="node">
<title>Node15</title>
<g id="a_node15"><a xlink:href="classMeltingConstantNLFormIntegrator.html" target="_top" xlink:title="Class dedicated to the VF of an ad&#45;hoc constant melting contribution found in Allen&#45;Cahn&#45;type equatio...">
<polygon fill="none" stroke="black" points="422.5,-147.5 422.5,-177.5 619.5,-177.5 619.5,-147.5 422.5,-147.5"/>
<text text-anchor="start" x="430.5" y="-165.5" font-family="serif" font-size="10.00">MeltingConstantNLFormIntegrator</text>
<text text-anchor="middle" x="521" y="-154.5" font-family="serif" font-size="10.00">&lt; VARS &gt;</text>
</a>
</g>
</g>
<!-- Node13&#45;&gt;Node15 -->
<g id="edge14" class="edge">
<title>Node13&#45;&gt;Node15</title>
<path fill="none" stroke="midnightblue" d="M375.69,-162.5C391.04,-162.5 406.93,-162.5 422.29,-162.5"/>
<polygon fill="midnightblue" stroke="midnightblue" points="375.69,-159 365.69,-162.5 375.69,-166 375.69,-159"/>
</g>
<!-- Node16 -->
<g id="node16" class="node">
<title>Node16</title>
<g id="a_node16"><a xlink:href="classMeltingTemperatureNLFormIntegrator.html" target="_top" xlink:title="Class dedicated to the VF of an ad&#45;hoc temperature melting contribution found in Allen&#45;Cahn&#45;type equa...">
<polygon fill="none" stroke="black" points="438.5,-98.5 438.5,-128.5 603.5,-128.5 603.5,-98.5 438.5,-98.5"/>
<text text-anchor="start" x="446.5" y="-116.5" font-family="serif" font-size="10.00">MeltingTemperatureNLForm</text>
<text text-anchor="middle" x="521" y="-105.5" font-family="serif" font-size="10.00">Integrator&lt; VARS &gt;</text>
</a>
</g>
</g>
<!-- Node13&#45;&gt;Node16 -->
<g id="edge15" class="edge">
<title>Node13&#45;&gt;Node16</title>
<path fill="none" stroke="midnightblue" d="M362.48,-145.46C389.68,-139.94 419.63,-133.87 446.04,-128.51"/>
<polygon fill="midnightblue" stroke="midnightblue" points="361.7,-142.05 352.6,-147.47 363.1,-148.91 361.7,-142.05"/>
</g>
<!-- Node18 -->
<g id="node18" class="node">
<title>Node18</title>
<g id="a_node18"><a xlink:href="classNeumannNLFormIntegrator.html" target="_top" xlink:title="Class dedicated to the Neumann boundary condiiton integrator.">
<polygon fill="none" stroke="black" points="440,-49.5 440,-79.5 602,-79.5 602,-49.5 440,-49.5"/>
<text text-anchor="start" x="448" y="-67.5" font-family="serif" font-size="10.00">NeumannNLFormIntegrator</text>
<text text-anchor="middle" x="521" y="-56.5" font-family="serif" font-size="10.00">&lt; VARS &gt;</text>
</a>
</g>
</g>
<!-- Node17&#45;&gt;Node18 -->
<g id="edge17" class="edge">
<title>Node17&#45;&gt;Node18</title>
<path fill="none" stroke="midnightblue" d="M357.9,-97.39C386.24,-91.64 418.03,-85.19 445.91,-79.53"/>
<polygon fill="midnightblue" stroke="midnightblue" points="357.13,-93.97 348.03,-99.39 358.52,-100.83 357.13,-93.97"/>
</g>
<!-- Node21 -->
<g id="node21" class="node">
<title>Node21</title>
<g id="a_node21"><a xlink:href="classHeatTimeNLFormIntegrator.html" target="_top" xlink:title="Class dedicated to the VF of the time&#45;derivativefor heat transfer equation.">
<polygon fill="none" stroke="black" points="440.5,-0.5 440.5,-30.5 601.5,-30.5 601.5,-0.5 440.5,-0.5"/>
<text text-anchor="start" x="448.5" y="-18.5" font-family="serif" font-size="10.00">HeatTimeNLFormIntegrator</text>
<text text-anchor="middle" x="521" y="-7.5" font-family="serif" font-size="10.00">&lt; VARS &gt;</text>
</a>
</g>
</g>
<!-- Node20&#45;&gt;Node21 -->
<g id="edge20" class="edge">
<title>Node20&#45;&gt;Node21</title>
<path fill="none" stroke="midnightblue" d="M356.24,-15.5C383.17,-15.5 413.38,-15.5 440.45,-15.5"/>
<polygon fill="midnightblue" stroke="midnightblue" points="356.09,-12 346.09,-15.5 356.09,-19 356.09,-12"/>
</g>
</g>
</svg>
        <g id="navigator" transform="translate(0 0)" fill="#404254">
                <rect fill="#f2f5e9" fill-opacity="0.5" stroke="#606060" stroke-width=".5" x="0" y="0" width="60" height="60"/>
                <use id="zoomplus" xlink:href="#zoomPlus" x="17" y="9" onmousedown="handleZoom(evt,'in')"/>
                <use id="zoomminus" xlink:href="#zoomMin" x="42" y="9" onmousedown="handleZoom(evt,'out')"/>
                <use id="reset" xlink:href="#resetDef" x="30" y="36" onmousedown="handleReset()"/>
                <g id="arrowUp" xlink:href="#dirArrow" transform="translate(30 24)" onmousedown="handlePan(0,-1)">
                  <use xlink:href="#rim" fill="#404040">
                        <set attributeName="fill" to="#808080" begin="arrowUp.mouseover" end="arrowUp.mouseout"/>
                  </use>
                  <path fill="none" stroke="white" stroke-width="1.5" d="M0,-3.0v7 M-2.5,-0.5L0,-3.0L2.5,-0.5"/>
                </g>
                <g id="arrowRight" xlink:href="#dirArrow" transform="rotate(90) translate(36 -43)" onmousedown="handlePan(1,0)">
                  <use xlink:href="#rim" fill="#404040">
                        <set attributeName="fill" to="#808080" begin="arrowRight.mouseover" end="arrowRight.mouseout"/>
                  </use>
                  <path fill="none" stroke="white" stroke-width="1.5" d="M0,-3.0v7 M-2.5,-0.5L0,-3.0L2.5,-0.5"/>
                </g>
                <g id="arrowDown" xlink:href="#dirArrow" transform="rotate(180) translate(-30 -48)" onmousedown="handlePan(0,1)">
                  <use xlink:href="#rim" fill="#404040">
                        <set attributeName="fill" to="#808080" begin="arrowDown.mouseover" end="arrowDown.mouseout"/>
                  </use>
                  <path fill="none" stroke="white" stroke-width="1.5" d="M0,-3.0v7 M-2.5,-0.5L0,-3.0L2.5,-0.5"/>
                </g>
                <g id="arrowLeft" xlink:href="#dirArrow" transform="rotate(270) translate(-36 17)" onmousedown="handlePan(-1,0)">
                  <use xlink:href="#rim" fill="#404040">
                        <set attributeName="fill" to="#808080" begin="arrowLeft.mouseover" end="arrowLeft.mouseout"/>
                  </use>
                  <path fill="none" stroke="white" stroke-width="1.5" d="M0,-3.0v7 M-2.5,-0.5L0,-3.0L2.5,-0.5"/>
                </g>
        </g>
        <svg viewBox="0 0 15 15" width="100%" height="30px" preserveAspectRatio="xMaxYMin meet">
         <g id="arrow_out" transform="scale(0.3 0.3)">
          <a xlink:href="classSlothNLFormIntegrator__inherit__graph_org.svg" target="_base">
           <rect id="button" ry="5" rx="5" y="6" x="6" height="38" width="38"
                fill="#f2f5e9" fill-opacity="0.5" stroke="#606060" stroke-width="1.0"/>
           <path id="arrow"
             d="M 11.500037,31.436501 C 11.940474,20.09759 22.043105,11.32322 32.158766,21.979434 L 37.068811,17.246167 C 37.068811,17.246167 37.088388,32 37.088388,32 L 22.160133,31.978069 C 22.160133,31.978069 26.997745,27.140456 26.997745,27.140456 C 18.528582,18.264221 13.291696,25.230495 11.500037,31.436501 z"
             style="fill:#404040;"/>
          </a>
         </g>
        </svg>
</svg>
