<?xml version="1.0" encoding="UTF-8" standalone="no"?>
<!DOCTYPE svg PUBLIC "-//W3C//DTD SVG 1.1//EN"
 "http://www.w3.org/Graphics/SVG/1.1/DTD/svg11.dtd">
<!-- Generated by graphviz version 2.43.0 (0)
 -->
<!-- Title: PrecondHypreDiagScale::create_solver Pages: 1 -->
<svg width="368pt" height="138pt"
 viewBox="0.00 0.00 368.00 137.50" xmlns="http://www.w3.org/2000/svg" xmlns:xlink="http://www.w3.org/1999/xlink">
<g id="graph0" class="graph" transform="scale(1 1) rotate(0) translate(4 133.5)">
<title>PrecondHypreDiagScale::create_solver</title>
<!-- Node1 -->
<g id="node1" class="node">
<title>Node1</title>
<g id="a_node1"><a xlink:title="Create preconditioner based of the PreconditionerType and a list of Parameters.">
<polygon fill="#bfbfbf" stroke="black" points="0,-55.5 0,-85.5 142,-85.5 142,-55.5 0,-55.5"/>
<text text-anchor="start" x="8" y="-73.5" font-family="serif" font-size="10.00">PrecondHypreDiagScale</text>
<text text-anchor="middle" x="71" y="-62.5" font-family="serif" font-size="10.00">::create_solver</text>
</a>
</g>
</g>
<!-- Node2 -->
<g id="node2" class="node">
<title>Node2</title>
<g id="a_node2"><a xlink:href="classSlothInfo.html#a854d3cafdb9f5a77f1063a27d2a27e04" target="_top" xlink:title="Print information on Debug mode.">
<polygon fill="none" stroke="black" points="218,-110 218,-129 320,-129 320,-110 218,-110"/>
<text text-anchor="middle" x="269" y="-117" font-family="serif" font-size="10.00">SlothInfo::debug</text>
</a>
</g>
</g>
<!-- Node1&#45;&gt;Node2 -->
<g id="edge1" class="edge">
<title>Node1&#45;&gt;Node2</title>
<path fill="none" stroke="midnightblue" d="M122.5,-85.55C140,-90.56 159.8,-96.01 178,-100.5 188.22,-103.02 199.15,-105.51 209.74,-107.8"/>
<polygon fill="midnightblue" stroke="midnightblue" points="209.24,-111.28 219.75,-109.94 210.71,-104.43 209.24,-111.28"/>
</g>
<!-- Node3 -->
<g id="node3" class="node">
<title>Node3</title>
<g id="a_node3"><a xlink:href="classSolverBase.html#a52edc30e08c2552f8ceb3d9ea928b059" target="_top" xlink:title=" ">
<polygon fill="none" stroke="black" points="178,-50 178,-91 360,-91 360,-50 178,-50"/>
<text text-anchor="start" x="186" y="-79" font-family="serif" font-size="10.00">SolverBase&lt; mfem::HypreDiag</text>
<text text-anchor="start" x="186" y="-68" font-family="serif" font-size="10.00">Scale, HyprePreconditionerType</text>
<text text-anchor="middle" x="269" y="-57" font-family="serif" font-size="10.00"> &gt;::get_description</text>
</a>
</g>
</g>
<!-- Node1&#45;&gt;Node3 -->
<g id="edge2" class="edge">
<title>Node1&#45;&gt;Node3</title>
<path fill="none" stroke="midnightblue" d="M142.21,-70.5C150.5,-70.5 159.08,-70.5 167.68,-70.5"/>
<polygon fill="midnightblue" stroke="midnightblue" points="167.77,-74 177.77,-70.5 167.77,-67 167.77,-74"/>
</g>
<!-- Node4 -->
<g id="node4" class="node">
<title>Node4</title>
<g id="a_node4"><a xlink:href="classParameters.html#ae3b314c5ebc3fde8684b0634b2406da6" target="_top" xlink:title=" ">
<polygon fill="none" stroke="black" points="201.5,-0.5 201.5,-30.5 336.5,-30.5 336.5,-0.5 201.5,-0.5"/>
<text text-anchor="start" x="209.5" y="-18.5" font-family="serif" font-size="10.00">Parameters::get_param</text>
<text text-anchor="middle" x="269" y="-7.5" font-family="serif" font-size="10.00">_value</text>
</a>
</g>
</g>
<!-- Node1&#45;&gt;Node4 -->
<g id="edge3" class="edge">
<title>Node1&#45;&gt;Node4</title>
<path fill="none" stroke="midnightblue" d="M124.82,-55.5C141.8,-50.69 160.69,-45.35 178,-40.5 186.4,-38.15 195.23,-35.68 203.96,-33.25"/>
<polygon fill="midnightblue" stroke="midnightblue" points="205.04,-36.58 213.73,-30.53 203.16,-29.84 205.04,-36.58"/>
</g>
</g>
</svg>
