<?xml version="1.0" encoding="UTF-8" standalone="no"?>
<!DOCTYPE svg PUBLIC "-//W3C//DTD SVG 1.1//EN"
 "http://www.w3.org/Graphics/SVG/1.1/DTD/svg11.dtd">
<!-- Generated by graphviz version 2.43.0 (0)
 -->
<!-- Title: PrecondHypreILU::create_solver Pages: 1 -->
<svg width="363pt" height="225pt"
 viewBox="0.00 0.00 363.00 225.00" xmlns="http://www.w3.org/2000/svg" xmlns:xlink="http://www.w3.org/1999/xlink">
<g id="graph0" class="graph" transform="scale(1 1) rotate(0) translate(4 221)">
<title>PrecondHypreILU::create_solver</title>
<!-- Node1 -->
<g id="node1" class="node">
<title>Node1</title>
<g id="a_node1"><a xlink:title="Create preconditioner based of the PreconditionerType and a list of Parameters.">
<polygon fill="#bfbfbf" stroke="black" points="0,-88 0,-118 146,-118 146,-88 0,-88"/>
<text text-anchor="start" x="8" y="-106" font-family="serif" font-size="10.00">PrecondHypreILU::create</text>
<text text-anchor="middle" x="73" y="-95" font-family="serif" font-size="10.00">_solver</text>
</a>
</g>
</g>
<!-- Node2 -->
<g id="node2" class="node">
<title>Node2</title>
<g id="a_node2"><a xlink:href="classSlothInfo.html#a854d3cafdb9f5a77f1063a27d2a27e04" target="_top" xlink:title="Print information on Debug mode.">
<polygon fill="none" stroke="black" points="217.5,-197.5 217.5,-216.5 319.5,-216.5 319.5,-197.5 217.5,-197.5"/>
<text text-anchor="middle" x="268.5" y="-204.5" font-family="serif" font-size="10.00">SlothInfo::debug</text>
</a>
</g>
</g>
<!-- Node1&#45;&gt;Node2 -->
<g id="edge1" class="edge">
<title>Node1&#45;&gt;Node2</title>
<path fill="none" stroke="midnightblue" d="M88.6,-118.1C108.07,-137.34 144.49,-170.21 182,-188 189.99,-191.79 198.75,-194.83 207.54,-197.28"/>
<polygon fill="midnightblue" stroke="midnightblue" points="206.86,-200.72 217.42,-199.8 208.59,-193.94 206.86,-200.72"/>
</g>
<!-- Node3 -->
<g id="node3" class="node">
<title>Node3</title>
<g id="a_node3"><a xlink:href="classSolverBase.html#a52edc30e08c2552f8ceb3d9ea928b059" target="_top" xlink:title=" ">
<polygon fill="none" stroke="black" points="182,-137.5 182,-178.5 355,-178.5 355,-137.5 182,-137.5"/>
<text text-anchor="start" x="190" y="-166.5" font-family="serif" font-size="10.00">SolverBase&lt; mfem::HypreILU,</text>
<text text-anchor="start" x="190" y="-155.5" font-family="serif" font-size="10.00"> HyprePreconditionerType</text>
<text text-anchor="middle" x="268.5" y="-144.5" font-family="serif" font-size="10.00"> &gt;::get_description</text>
</a>
</g>
</g>
<!-- Node1&#45;&gt;Node3 -->
<g id="edge2" class="edge">
<title>Node1&#45;&gt;Node3</title>
<path fill="none" stroke="midnightblue" d="M126.87,-118.03C144.95,-123.17 165.62,-129.04 185.45,-134.68"/>
<polygon fill="midnightblue" stroke="midnightblue" points="184.53,-138.05 195.1,-137.42 186.44,-131.32 184.53,-138.05"/>
</g>
<!-- Node4 -->
<g id="node4" class="node">
<title>Node4</title>
<g id="a_node4"><a xlink:href="classParameters.html#ae3b314c5ebc3fde8684b0634b2406da6" target="_top" xlink:title=" ">
<polygon fill="none" stroke="black" points="201,-88 201,-118 336,-118 336,-88 201,-88"/>
<text text-anchor="start" x="209" y="-106" font-family="serif" font-size="10.00">Parameters::get_param</text>
<text text-anchor="middle" x="268.5" y="-95" font-family="serif" font-size="10.00">_value</text>
</a>
</g>
</g>
<!-- Node1&#45;&gt;Node4 -->
<g id="edge3" class="edge">
<title>Node1&#45;&gt;Node4</title>
<path fill="none" stroke="midnightblue" d="M146.05,-103C160.63,-103 176.01,-103 190.75,-103"/>
<polygon fill="midnightblue" stroke="midnightblue" points="190.83,-106.5 200.83,-103 190.83,-99.5 190.83,-106.5"/>
</g>
<!-- Node5 -->
<g id="node5" class="node">
<title>Node5</title>
<g id="a_node5"><a xlink:href="classParameters.html#a857c53fbe60d7bd2f91e91626f85b6d2" target="_top" xlink:title=" ">
<polygon fill="none" stroke="black" points="201,-39 201,-69 336,-69 336,-39 201,-39"/>
<text text-anchor="start" x="209" y="-57" font-family="serif" font-size="10.00">Parameters::get_param</text>
<text text-anchor="middle" x="268.5" y="-46" font-family="serif" font-size="10.00">_value_or_default</text>
</a>
</g>
</g>
<!-- Node1&#45;&gt;Node5 -->
<g id="edge4" class="edge">
<title>Node1&#45;&gt;Node5</title>
<path fill="none" stroke="midnightblue" d="M133.37,-87.97C153.9,-82.77 177.07,-76.9 198.31,-71.52"/>
<polygon fill="midnightblue" stroke="midnightblue" points="199.41,-74.85 208.24,-69.01 197.69,-68.07 199.41,-74.85"/>
</g>
<!-- Node6 -->
<g id="node6" class="node">
<title>Node6</title>
<g id="a_node6"><a xlink:href="UtilsForData_8hpp.html#a624f01f99bc5aadf3d7c3b7c8c7c4ac7" target="_top" xlink:title="Check the level of verbosity.">
<polygon fill="none" stroke="black" points="218,-0.5 218,-19.5 319,-19.5 319,-0.5 218,-0.5"/>
<text text-anchor="middle" x="268.5" y="-7.5" font-family="serif" font-size="10.00">verbose_at_least</text>
</a>
</g>
</g>
<!-- Node1&#45;&gt;Node6 -->
<g id="edge5" class="edge">
<title>Node1&#45;&gt;Node6</title>
<path fill="none" stroke="midnightblue" d="M91.9,-87.86C112.39,-71.27 147.58,-45.05 182,-30 190.12,-26.45 198.96,-23.48 207.77,-21.01"/>
<polygon fill="midnightblue" stroke="midnightblue" points="208.88,-24.34 217.68,-18.44 207.12,-17.57 208.88,-24.34"/>
</g>
</g>
</svg>
