<?xml version="1.0" encoding="UTF-8" standalone="no"?>
<!DOCTYPE svg PUBLIC "-//W3C//DTD SVG 1.1//EN"
 "http://www.w3.org/Graphics/SVG/1.1/DTD/svg11.dtd">
<!-- Generated by graphviz version 2.43.0 (0)
 -->
<!-- Title: BlockAllenCahnNLFormIntegrator&lt; VARS &gt; Pages: 1 -->
<svg width="285pt" height="206pt"
 viewBox="0.00 0.00 284.50 206.00" xmlns="http://www.w3.org/2000/svg" xmlns:xlink="http://www.w3.org/1999/xlink">
<g id="graph0" class="graph" transform="scale(1 1) rotate(0) translate(4 202)">
<title>BlockAllenCahnNLFormIntegrator&lt; VARS &gt;</title>
<!-- Node1 -->
<g id="node1" class="node">
<title>Node1</title>
<g id="a_node1"><a xlink:title="Class dedicated to the VF of the AllenCahn equation (splitted form)">
<polygon fill="#bfbfbf" stroke="black" points="34.5,-0.5 34.5,-30.5 226.5,-30.5 226.5,-0.5 34.5,-0.5"/>
<text text-anchor="start" x="42.5" y="-18.5" font-family="serif" font-size="10.00">BlockAllenCahnNLFormIntegrator</text>
<text text-anchor="middle" x="130.5" y="-7.5" font-family="serif" font-size="10.00">&lt; VARS &gt;</text>
</a>
</g>
</g>
<!-- Node2 -->
<g id="node2" class="node">
<title>Node2</title>
<g id="a_node2"><a xlink:href="classSlothNLFormIntegrator.html" target="_top" xlink:title="Class prodiving common methods to all NLFormIntegrators.">
<polygon fill="none" stroke="black" points="0,-100.5 0,-130.5 137,-130.5 137,-100.5 0,-100.5"/>
<text text-anchor="start" x="8" y="-118.5" font-family="serif" font-size="10.00">SlothNLFormIntegrator</text>
<text text-anchor="middle" x="68.5" y="-107.5" font-family="serif" font-size="10.00">&lt; VARS &gt;</text>
</a>
</g>
</g>
<!-- Node2&#45;&gt;Node1 -->
<g id="edge1" class="edge">
<title>Node2&#45;&gt;Node1</title>
<path fill="none" stroke="midnightblue" d="M82.83,-91.84C94.81,-72.91 111.51,-46.51 121.63,-30.51"/>
<polygon fill="midnightblue" stroke="midnightblue" points="79.77,-90.14 77.38,-100.46 85.69,-93.88 79.77,-90.14"/>
</g>
<!-- Node3 -->
<g id="node3" class="node">
<title>Node3</title>
<g id="a_node3"><a xlink:href="classParameters.html" target="_top" xlink:title=" ">
<polygon fill="none" stroke="black" points="31.5,-178.5 31.5,-197.5 105.5,-197.5 105.5,-178.5 31.5,-178.5"/>
<text text-anchor="middle" x="68.5" y="-185.5" font-family="serif" font-size="10.00">Parameters</text>
</a>
</g>
</g>
<!-- Node3&#45;&gt;Node2 -->
<g id="edge2" class="edge">
<title>Node3&#45;&gt;Node2</title>
<path fill="none" stroke="#9a32cd" stroke-dasharray="5,2" d="M68.5,-168.24C68.5,-156.41 68.5,-141.38 68.5,-130.58"/>
<polygon fill="#9a32cd" stroke="#9a32cd" points="65,-168.36 68.5,-178.36 72,-168.36 65,-168.36"/>
<text text-anchor="middle" x="92" y="-152" font-family="serif" font-size="10.00"> params_</text>
</g>
<!-- Node4 -->
<g id="node4" class="node">
<title>Node4</title>
<g id="a_node4"><a xlink:href="classCoefficients.html" target="_top" xlink:title="Class used to manage a collection of Coefficient.">
<polygon fill="none" stroke="black" points="155.5,-106 155.5,-125 231.5,-125 231.5,-106 155.5,-106"/>
<text text-anchor="middle" x="193.5" y="-113" font-family="serif" font-size="10.00">Coefficients</text>
</a>
</g>
</g>
<!-- Node4&#45;&gt;Node1 -->
<g id="edge3" class="edge">
<title>Node4&#45;&gt;Node1</title>
<path fill="none" stroke="#9a32cd" stroke-dasharray="5,2" d="M182.42,-97.27C170.25,-78.33 150.91,-48.25 139.59,-30.64"/>
<polygon fill="#9a32cd" stroke="#9a32cd" points="179.56,-99.28 187.91,-105.8 185.45,-95.5 179.56,-99.28"/>
<text text-anchor="middle" x="223.5" y="-74" font-family="serif" font-size="10.00"> double_well_energy</text>
<text text-anchor="middle" x="223.5" y="-63" font-family="serif" font-size="10.00">lambda</text>
<text text-anchor="middle" x="223.5" y="-52" font-family="serif" font-size="10.00">mobility</text>
</g>
</g>
</svg>
