<?xml version="1.0" encoding="UTF-8" standalone="no"?>
<!DOCTYPE svg PUBLIC "-//W3C//DTD SVG 1.1//EN"
 "http://www.w3.org/Graphics/SVG/1.1/DTD/svg11.dtd">
<!-- Generated by graphviz version 2.43.0 (0)
 -->
<!-- Title: SolverNewton::create_solver Pages: 1 -->
<svg width="305pt" height="127pt"
 viewBox="0.00 0.00 305.00 126.50" xmlns="http://www.w3.org/2000/svg" xmlns:xlink="http://www.w3.org/1999/xlink">
<g id="graph0" class="graph" transform="scale(1 1) rotate(0) translate(4 122.5)">
<title>SolverNewton::create_solver</title>
<!-- Node1 -->
<g id="node1" class="node">
<title>Node1</title>
<g id="a_node1"><a xlink:title="Create non linear solver based of the NLSolverType and a list of Parameters.">
<polygon fill="#bfbfbf" stroke="black" points="0,-39 0,-69 126,-69 126,-39 0,-39"/>
<text text-anchor="start" x="8" y="-57" font-family="serif" font-size="10.00">SolverNewton::create</text>
<text text-anchor="middle" x="63" y="-46" font-family="serif" font-size="10.00">_solver</text>
</a>
</g>
</g>
<!-- Node2 -->
<g id="node2" class="node">
<title>Node2</title>
<g id="a_node2"><a xlink:href="classParameters.html#ae3b314c5ebc3fde8684b0634b2406da6" target="_top" xlink:title=" ">
<polygon fill="none" stroke="black" points="162,-88 162,-118 297,-118 297,-88 162,-88"/>
<text text-anchor="start" x="170" y="-106" font-family="serif" font-size="10.00">Parameters::get_param</text>
<text text-anchor="middle" x="229.5" y="-95" font-family="serif" font-size="10.00">_value</text>
</a>
</g>
</g>
<!-- Node1&#45;&gt;Node2 -->
<g id="edge1" class="edge">
<title>Node1&#45;&gt;Node2</title>
<path fill="none" stroke="midnightblue" d="M114.7,-69.1C131.66,-74.16 150.74,-79.84 168.36,-85.08"/>
<polygon fill="midnightblue" stroke="midnightblue" points="167.39,-88.45 177.97,-87.95 169.39,-81.74 167.39,-88.45"/>
</g>
<!-- Node3 -->
<g id="node3" class="node">
<title>Node3</title>
<g id="a_node3"><a xlink:href="classParameters.html#a857c53fbe60d7bd2f91e91626f85b6d2" target="_top" xlink:title=" ">
<polygon fill="none" stroke="black" points="162,-39 162,-69 297,-69 297,-39 162,-39"/>
<text text-anchor="start" x="170" y="-57" font-family="serif" font-size="10.00">Parameters::get_param</text>
<text text-anchor="middle" x="229.5" y="-46" font-family="serif" font-size="10.00">_value_or_default</text>
</a>
</g>
</g>
<!-- Node1&#45;&gt;Node3 -->
<g id="edge2" class="edge">
<title>Node1&#45;&gt;Node3</title>
<path fill="none" stroke="midnightblue" d="M126.19,-54C134.56,-54 143.23,-54 151.81,-54"/>
<polygon fill="midnightblue" stroke="midnightblue" points="151.83,-57.5 161.83,-54 151.83,-50.5 151.83,-57.5"/>
</g>
<!-- Node4 -->
<g id="node4" class="node">
<title>Node4</title>
<g id="a_node4"><a xlink:href="UtilsForData_8hpp.html#a624f01f99bc5aadf3d7c3b7c8c7c4ac7" target="_top" xlink:title="Check the level of verbosity.">
<polygon fill="none" stroke="black" points="179,-0.5 179,-19.5 280,-19.5 280,-0.5 179,-0.5"/>
<text text-anchor="middle" x="229.5" y="-7.5" font-family="serif" font-size="10.00">verbose_at_least</text>
</a>
</g>
</g>
<!-- Node1&#45;&gt;Node4 -->
<g id="edge3" class="edge">
<title>Node1&#45;&gt;Node4</title>
<path fill="none" stroke="midnightblue" d="M120.15,-38.98C140.6,-33.51 163.45,-27.4 182.88,-22.2"/>
<polygon fill="midnightblue" stroke="midnightblue" points="183.93,-25.54 192.69,-19.58 182.13,-18.78 183.93,-25.54"/>
</g>
</g>
</svg>
