<?xml version="1.0" encoding="UTF-8" standalone="no"?>
<!DOCTYPE svg PUBLIC "-//W3C//DTD SVG 1.1//EN"
 "http://www.w3.org/Graphics/SVG/1.1/DTD/svg11.dtd">
<!-- Generated by graphviz version 2.43.0 (0)
 -->
<!-- Title: RobinNLFormIntegrator&lt; VARS &gt; Pages: 1 -->
<svg width="260pt" height="195pt"
 viewBox="0.00 0.00 259.50 195.00" xmlns="http://www.w3.org/2000/svg" xmlns:xlink="http://www.w3.org/1999/xlink">
<g id="graph0" class="graph" transform="scale(1 1) rotate(0) translate(4 191)">
<title>RobinNLFormIntegrator&lt; VARS &gt;</title>
<!-- Node1 -->
<g id="node1" class="node">
<title>Node1</title>
<g id="a_node1"><a xlink:title="Class dedicated to the Robin boundary condition integrator.">
<polygon fill="#bfbfbf" stroke="black" points="58,-0.5 58,-30.5 199,-30.5 199,-0.5 58,-0.5"/>
<text text-anchor="start" x="66" y="-18.5" font-family="serif" font-size="10.00">RobinNLFormIntegrator</text>
<text text-anchor="middle" x="128.5" y="-7.5" font-family="serif" font-size="10.00">&lt; VARS &gt;</text>
</a>
</g>
</g>
<!-- Node2 -->
<g id="node2" class="node">
<title>Node2</title>
<g id="a_node2"><a xlink:href="classSlothNLFormIntegrator.html" target="_top" xlink:title="Class prodiving common methods to all NLFormIntegrators.">
<polygon fill="none" stroke="black" points="0,-89.5 0,-119.5 137,-119.5 137,-89.5 0,-89.5"/>
<text text-anchor="start" x="8" y="-107.5" font-family="serif" font-size="10.00">SlothNLFormIntegrator</text>
<text text-anchor="middle" x="68.5" y="-96.5" font-family="serif" font-size="10.00">&lt; VARS &gt;</text>
</a>
</g>
</g>
<!-- Node2&#45;&gt;Node1 -->
<g id="edge1" class="edge">
<title>Node2&#45;&gt;Node1</title>
<path fill="none" stroke="midnightblue" d="M84.1,-80.88C95.07,-64.97 109.4,-44.19 118.78,-30.6"/>
<polygon fill="midnightblue" stroke="midnightblue" points="81.2,-78.91 78.41,-89.13 86.97,-82.89 81.2,-78.91"/>
</g>
<!-- Node3 -->
<g id="node3" class="node">
<title>Node3</title>
<g id="a_node3"><a xlink:href="classParameters.html" target="_top" xlink:title=" ">
<polygon fill="none" stroke="black" points="31.5,-167.5 31.5,-186.5 105.5,-186.5 105.5,-167.5 31.5,-167.5"/>
<text text-anchor="middle" x="68.5" y="-174.5" font-family="serif" font-size="10.00">Parameters</text>
</a>
</g>
</g>
<!-- Node3&#45;&gt;Node2 -->
<g id="edge2" class="edge">
<title>Node3&#45;&gt;Node2</title>
<path fill="none" stroke="#9a32cd" stroke-dasharray="5,2" d="M68.5,-157.24C68.5,-145.41 68.5,-130.38 68.5,-119.58"/>
<polygon fill="#9a32cd" stroke="#9a32cd" points="65,-157.36 68.5,-167.36 72,-157.36 65,-157.36"/>
<text text-anchor="middle" x="92" y="-141" font-family="serif" font-size="10.00"> params_</text>
</g>
<!-- Node4 -->
<g id="node4" class="node">
<title>Node4</title>
<g id="a_node4"><a xlink:href="classCoefficient.html" target="_top" xlink:title="Base class definining a coefficient from an analytical formula.">
<polygon fill="none" stroke="black" points="155,-95 155,-114 226,-114 226,-95 155,-95"/>
<text text-anchor="middle" x="190.5" y="-102" font-family="serif" font-size="10.00">Coefficient</text>
</a>
</g>
</g>
<!-- Node4&#45;&gt;Node1 -->
<g id="edge3" class="edge">
<title>Node4&#45;&gt;Node1</title>
<path fill="none" stroke="#9a32cd" stroke-dasharray="5,2" d="M178.22,-86.27C166.59,-69.95 149.33,-45.73 138.51,-30.55"/>
<polygon fill="#9a32cd" stroke="#9a32cd" points="175.67,-88.73 184.33,-94.84 181.38,-84.67 175.67,-88.73"/>
<text text-anchor="middle" x="187.5" y="-63" font-family="serif" font-size="10.00"> robin_a</text>
<text text-anchor="middle" x="187.5" y="-52" font-family="serif" font-size="10.00">robin_b</text>
</g>
<!-- Node5 -->
<g id="node5" class="node">
<title>Node5</title>
<g id="a_node5"><a xlink:href="classSlothBaseCoefficient.html" target="_top" xlink:title="Base class defining a coefficient from an analytical formula.">
<polygon fill="none" stroke="black" points="129.5,-167.5 129.5,-186.5 251.5,-186.5 251.5,-167.5 129.5,-167.5"/>
<text text-anchor="middle" x="190.5" y="-174.5" font-family="serif" font-size="10.00">SlothBaseCoefficient</text>
</a>
</g>
</g>
<!-- Node5&#45;&gt;Node4 -->
<g id="edge4" class="edge">
<title>Node5&#45;&gt;Node4</title>
<path fill="none" stroke="midnightblue" d="M190.5,-156.94C190.5,-143.03 190.5,-124.82 190.5,-114.22"/>
<polygon fill="midnightblue" stroke="midnightblue" points="187,-157.36 190.5,-167.36 194,-157.36 187,-157.36"/>
</g>
</g>
</svg>
