<?xml version="1.0" encoding="UTF-8" standalone="no"?>
<!DOCTYPE svg PUBLIC "-//W3C//DTD SVG 1.1//EN"
 "http://www.w3.org/Graphics/SVG/1.1/DTD/svg11.dtd">
<!-- Generated by graphviz version 2.43.0 (0)
 -->
<!-- Title: TimeNLFormIntegrator&lt; VARS &gt; Pages: 1 -->
<svg width="245pt" height="195pt"
 viewBox="0.00 0.00 244.50 195.00" xmlns="http://www.w3.org/2000/svg" xmlns:xlink="http://www.w3.org/1999/xlink">
<g id="graph0" class="graph" transform="scale(1 1) rotate(0) translate(4 191)">
<title>TimeNLFormIntegrator&lt; VARS &gt;</title>
<!-- Node1 -->
<g id="node1" class="node">
<title>Node1</title>
<g id="a_node1"><a xlink:title="Class dedicated to the VF of the time&#45;derivative (eg. LHS of Allen&#45;Cahn equation)">
<polygon fill="#bfbfbf" stroke="black" points="62,-0.5 62,-30.5 199,-30.5 199,-0.5 62,-0.5"/>
<text text-anchor="start" x="70" y="-18.5" font-family="serif" font-size="10.00">TimeNLFormIntegrator</text>
<text text-anchor="middle" x="130.5" y="-7.5" font-family="serif" font-size="10.00">&lt; VARS &gt;</text>
</a>
</g>
</g>
<!-- Node2 -->
<g id="node2" class="node">
<title>Node2</title>
<g id="a_node2"><a xlink:href="classSlothNLFormIntegrator.html" target="_top" xlink:title="Class prodiving common methods to all NLFormIntegrators.">
<polygon fill="none" stroke="black" points="0,-89.5 0,-119.5 137,-119.5 137,-89.5 0,-89.5"/>
<text text-anchor="start" x="8" y="-107.5" font-family="serif" font-size="10.00">SlothNLFormIntegrator</text>
<text text-anchor="middle" x="68.5" y="-96.5" font-family="serif" font-size="10.00">&lt; VARS &gt;</text>
</a>
</g>
</g>
<!-- Node2&#45;&gt;Node1 -->
<g id="edge1" class="edge">
<title>Node2&#45;&gt;Node1</title>
<path fill="none" stroke="midnightblue" d="M84.62,-80.88C95.96,-64.97 110.77,-44.19 120.45,-30.6"/>
<polygon fill="midnightblue" stroke="midnightblue" points="81.69,-78.96 78.74,-89.13 87.39,-83.02 81.69,-78.96"/>
</g>
<!-- Node3 -->
<g id="node3" class="node">
<title>Node3</title>
<g id="a_node3"><a xlink:href="classParameters.html" target="_top" xlink:title=" ">
<polygon fill="none" stroke="black" points="31.5,-167.5 31.5,-186.5 105.5,-186.5 105.5,-167.5 31.5,-167.5"/>
<text text-anchor="middle" x="68.5" y="-174.5" font-family="serif" font-size="10.00">Parameters</text>
</a>
</g>
</g>
<!-- Node3&#45;&gt;Node2 -->
<g id="edge2" class="edge">
<title>Node3&#45;&gt;Node2</title>
<path fill="none" stroke="#9a32cd" stroke-dasharray="5,2" d="M68.5,-157.24C68.5,-145.41 68.5,-130.38 68.5,-119.58"/>
<polygon fill="#9a32cd" stroke="#9a32cd" points="65,-157.36 68.5,-167.36 72,-157.36 65,-157.36"/>
<text text-anchor="middle" x="92" y="-141" font-family="serif" font-size="10.00"> params_</text>
</g>
<!-- Node4 -->
<g id="node4" class="node">
<title>Node4</title>
<g id="a_node4"><a xlink:href="classCoefficients.html" target="_top" xlink:title="Class used to manage a collection of Coefficient.">
<polygon fill="none" stroke="black" points="155.5,-95 155.5,-114 231.5,-114 231.5,-95 155.5,-95"/>
<text text-anchor="middle" x="193.5" y="-102" font-family="serif" font-size="10.00">Coefficients</text>
</a>
</g>
</g>
<!-- Node4&#45;&gt;Node1 -->
<g id="edge3" class="edge">
<title>Node4&#45;&gt;Node1</title>
<path fill="none" stroke="#9a32cd" stroke-dasharray="5,2" d="M181.35,-86.72C169.53,-70.4 151.77,-45.87 140.67,-30.55"/>
<polygon fill="#9a32cd" stroke="#9a32cd" points="178.53,-88.79 187.23,-94.84 184.2,-84.69 178.53,-88.79"/>
<text text-anchor="middle" x="202.5" y="-63" font-family="serif" font-size="10.00"> coefficient_A</text>
<text text-anchor="middle" x="202.5" y="-52" font-family="serif" font-size="10.00">coefficient_B</text>
</g>
</g>
</svg>
