<?xml version="1.0" encoding="UTF-8" standalone="no"?>
<!DOCTYPE svg PUBLIC "-//W3C//DTD SVG 1.1//EN"
 "http://www.w3.org/Graphics/SVG/1.1/DTD/svg11.dtd">
<!-- Generated by graphviz version 2.43.0 (0)
 -->
<!-- Title: SolverHypreFGMRES::create_solver Pages: 1 -->
<svg width="384pt" height="214pt"
 viewBox="0.00 0.00 384.00 214.00" xmlns="http://www.w3.org/2000/svg" xmlns:xlink="http://www.w3.org/1999/xlink">
<g id="graph0" class="graph" transform="scale(1 1) rotate(0) translate(4 210)">
<title>SolverHypreFGMRES::create_solver</title>
<!-- Node1 -->
<g id="node1" class="node">
<title>Node1</title>
<g id="a_node1"><a xlink:title="Create a iterative solver based of the SolverType and a list of Parameters.">
<polygon fill="#bfbfbf" stroke="black" points="0,-88 0,-118 134,-118 134,-88 0,-88"/>
<text text-anchor="start" x="8" y="-106" font-family="serif" font-size="10.00">SolverHypreFGMRES::</text>
<text text-anchor="middle" x="67" y="-95" font-family="serif" font-size="10.00">create_solver</text>
</a>
</g>
</g>
<!-- Node2 -->
<g id="node2" class="node">
<title>Node2</title>
<g id="a_node2"><a xlink:href="classSlothInfo.html#a854d3cafdb9f5a77f1063a27d2a27e04" target="_top" xlink:title="Print information on Debug mode.">
<polygon fill="none" stroke="black" points="222,-186.5 222,-205.5 324,-205.5 324,-186.5 222,-186.5"/>
<text text-anchor="middle" x="273" y="-193.5" font-family="serif" font-size="10.00">SlothInfo::debug</text>
</a>
</g>
</g>
<!-- Node1&#45;&gt;Node2 -->
<g id="edge1" class="edge">
<title>Node1&#45;&gt;Node2</title>
<path fill="none" stroke="midnightblue" d="M83.9,-118.08C102.86,-135.15 136.23,-162.49 170,-177 183.05,-182.61 197.74,-186.56 211.82,-189.35"/>
<polygon fill="midnightblue" stroke="midnightblue" points="211.47,-192.85 221.93,-191.19 212.72,-185.96 211.47,-192.85"/>
</g>
<!-- Node3 -->
<g id="node3" class="node">
<title>Node3</title>
<g id="a_node3"><a xlink:href="classSolverBase.html#a52edc30e08c2552f8ceb3d9ea928b059" target="_top" xlink:title=" ">
<polygon fill="none" stroke="black" points="170,-137 170,-167 376,-167 376,-137 170,-137"/>
<text text-anchor="start" x="178" y="-155" font-family="serif" font-size="10.00">SolverBase&lt; mfem::HypreFGMRES,</text>
<text text-anchor="middle" x="273" y="-144" font-family="serif" font-size="10.00"> HypreSolverType &gt;::get_description</text>
</a>
</g>
</g>
<!-- Node1&#45;&gt;Node3 -->
<g id="edge2" class="edge">
<title>Node1&#45;&gt;Node3</title>
<path fill="none" stroke="midnightblue" d="M128.93,-118.03C142.44,-121.34 156.7,-124.81 170,-128 179.06,-130.18 188.57,-132.44 198,-134.67"/>
<polygon fill="midnightblue" stroke="midnightblue" points="197.24,-138.09 207.77,-136.98 198.85,-131.28 197.24,-138.09"/>
</g>
<!-- Node4 -->
<g id="node4" class="node">
<title>Node4</title>
<g id="a_node4"><a xlink:href="classParameters.html#ae3b314c5ebc3fde8684b0634b2406da6" target="_top" xlink:title=" ">
<polygon fill="none" stroke="black" points="205.5,-88 205.5,-118 340.5,-118 340.5,-88 205.5,-88"/>
<text text-anchor="start" x="213.5" y="-106" font-family="serif" font-size="10.00">Parameters::get_param</text>
<text text-anchor="middle" x="273" y="-95" font-family="serif" font-size="10.00">_value</text>
</a>
</g>
</g>
<!-- Node1&#45;&gt;Node4 -->
<g id="edge3" class="edge">
<title>Node1&#45;&gt;Node4</title>
<path fill="none" stroke="midnightblue" d="M134.23,-103C153.74,-103 175.25,-103 195.35,-103"/>
<polygon fill="midnightblue" stroke="midnightblue" points="195.4,-106.5 205.4,-103 195.4,-99.5 195.4,-106.5"/>
</g>
<!-- Node5 -->
<g id="node5" class="node">
<title>Node5</title>
<g id="a_node5"><a xlink:href="classParameters.html#a857c53fbe60d7bd2f91e91626f85b6d2" target="_top" xlink:title=" ">
<polygon fill="none" stroke="black" points="205.5,-39 205.5,-69 340.5,-69 340.5,-39 205.5,-39"/>
<text text-anchor="start" x="213.5" y="-57" font-family="serif" font-size="10.00">Parameters::get_param</text>
<text text-anchor="middle" x="273" y="-46" font-family="serif" font-size="10.00">_value_or_default</text>
</a>
</g>
</g>
<!-- Node1&#45;&gt;Node5 -->
<g id="edge4" class="edge">
<title>Node1&#45;&gt;Node5</title>
<path fill="none" stroke="midnightblue" d="M130.59,-87.97C152.43,-82.72 177.11,-76.79 199.67,-71.37"/>
<polygon fill="midnightblue" stroke="midnightblue" points="200.62,-74.74 209.53,-69.01 198.98,-67.94 200.62,-74.74"/>
</g>
<!-- Node6 -->
<g id="node6" class="node">
<title>Node6</title>
<g id="a_node6"><a xlink:href="UtilsForData_8hpp.html#a624f01f99bc5aadf3d7c3b7c8c7c4ac7" target="_top" xlink:title="Check the level of verbosity.">
<polygon fill="none" stroke="black" points="222.5,-0.5 222.5,-19.5 323.5,-19.5 323.5,-0.5 222.5,-0.5"/>
<text text-anchor="middle" x="273" y="-7.5" font-family="serif" font-size="10.00">verbose_at_least</text>
</a>
</g>
</g>
<!-- Node1&#45;&gt;Node6 -->
<g id="edge5" class="edge">
<title>Node1&#45;&gt;Node6</title>
<path fill="none" stroke="midnightblue" d="M84.31,-87.89C103.38,-71.08 136.61,-44.41 170,-30 183.2,-24.3 198.06,-20.22 212.27,-17.29"/>
<polygon fill="midnightblue" stroke="midnightblue" points="213.3,-20.66 222.47,-15.35 212,-13.78 213.3,-20.66"/>
</g>
</g>
</svg>
