<?xml version="1.0" encoding="UTF-8" standalone="no"?>
<!DOCTYPE svg PUBLIC "-//W3C//DTD SVG 1.1//EN"
 "http://www.w3.org/Graphics/SVG/1.1/DTD/svg11.dtd">
<!-- Generated by graphviz version 2.43.0 (0)
 -->
<!-- Title: TransientOperator&lt; T, DIM &gt; Pages: 1 -->
<svg width="382pt" height="195pt"
 viewBox="0.00 0.00 381.50 195.00" xmlns="http://www.w3.org/2000/svg" xmlns:xlink="http://www.w3.org/1999/xlink">
<g id="graph0" class="graph" transform="scale(1 1) rotate(0) translate(4 191)">
<title>TransientOperator&lt; T, DIM &gt;</title>
<!-- Node1 -->
<g id="node1" class="node">
<title>Node1</title>
<g id="a_node1"><a xlink:title="TransientOperator class.">
<polygon fill="#bfbfbf" stroke="black" points="146,-0.5 146,-30.5 265,-30.5 265,-0.5 146,-0.5"/>
<text text-anchor="start" x="154" y="-18.5" font-family="serif" font-size="10.00">TransientOperator&lt;</text>
<text text-anchor="middle" x="205.5" y="-7.5" font-family="serif" font-size="10.00"> T, DIM &gt;</text>
</a>
</g>
</g>
<!-- Node2 -->
<g id="node2" class="node">
<title>Node2</title>
<g id="a_node2"><a xlink:href="classOperatorBase.html" target="_top" xlink:title="Base class for building Steady and TimeDependent PhaseFieldOperators.">
<polygon fill="none" stroke="black" points="48,-78.5 48,-97.5 191,-97.5 191,-78.5 48,-78.5"/>
<text text-anchor="middle" x="119.5" y="-85.5" font-family="serif" font-size="10.00">OperatorBase&lt; T, DIM &gt;</text>
</a>
</g>
</g>
<!-- Node2&#45;&gt;Node1 -->
<g id="edge1" class="edge">
<title>Node2&#45;&gt;Node1</title>
<path fill="none" stroke="midnightblue" d="M138.06,-71.78C152.98,-59.55 173.79,-42.5 188.33,-30.58"/>
<polygon fill="midnightblue" stroke="midnightblue" points="135.56,-69.31 130.05,-78.36 140,-74.72 135.56,-69.31"/>
</g>
<!-- Node3 -->
<g id="node3" class="node">
<title>Node3</title>
<g id="a_node3"><a xlink:href="classParameter.html" target="_top" xlink:title=" ">
<polygon fill="none" stroke="black" points="0,-167.5 0,-186.5 69,-186.5 69,-167.5 0,-167.5"/>
<text text-anchor="middle" x="34.5" y="-174.5" font-family="serif" font-size="10.00">Parameter</text>
</a>
</g>
</g>
<!-- Node3&#45;&gt;Node2 -->
<g id="edge2" class="edge">
<title>Node3&#45;&gt;Node2</title>
<path fill="none" stroke="#9a32cd" stroke-dasharray="5,2" d="M38.06,-157.34C41.39,-144.34 47.55,-127.36 58.5,-116 66.54,-107.66 77.61,-101.72 88.11,-97.57"/>
<polygon fill="#9a32cd" stroke="#9a32cd" points="34.64,-156.6 35.88,-167.12 41.47,-158.12 34.64,-156.6"/>
<text text-anchor="middle" x="87" y="-130" font-family="serif" font-size="10.00"> default_p_</text>
</g>
<!-- Node4 -->
<g id="node4" class="node">
<title>Node4</title>
<g id="a_node4"><a xlink:href="classNLSolver.html" target="_top" xlink:title=" ">
<polygon fill="none" stroke="black" points="87,-167.5 87,-186.5 152,-186.5 152,-167.5 87,-167.5"/>
<text text-anchor="middle" x="119.5" y="-174.5" font-family="serif" font-size="10.00">NLSolver</text>
</a>
</g>
</g>
<!-- Node4&#45;&gt;Node2 -->
<g id="edge3" class="edge">
<title>Node4&#45;&gt;Node2</title>
<path fill="none" stroke="#9a32cd" stroke-dasharray="5,2" d="M119.5,-157.19C119.5,-138.74 119.5,-111.41 119.5,-97.62"/>
<polygon fill="#9a32cd" stroke="#9a32cd" points="116,-157.34 119.5,-167.34 123,-157.34 116,-157.34"/>
<text text-anchor="middle" x="150" y="-130" font-family="serif" font-size="10.00"> rhs_solver_</text>
</g>
<!-- Node5 -->
<g id="node5" class="node">
<title>Node5</title>
<g id="a_node5"><a xlink:href="classParameters.html" target="_top" xlink:title=" ">
<polygon fill="none" stroke="black" points="170.5,-167.5 170.5,-186.5 244.5,-186.5 244.5,-167.5 170.5,-167.5"/>
<text text-anchor="middle" x="207.5" y="-174.5" font-family="serif" font-size="10.00">Parameters</text>
</a>
</g>
</g>
<!-- Node5&#45;&gt;Node2 -->
<g id="edge4" class="edge">
<title>Node5&#45;&gt;Node2</title>
<path fill="none" stroke="#9a32cd" stroke-dasharray="5,2" d="M204.27,-156.88C201.18,-143.9 195.33,-127.13 184.5,-116 176.32,-107.59 165.14,-101.69 154.35,-97.6"/>
<polygon fill="#9a32cd" stroke="#9a32cd" points="200.92,-157.97 206.32,-167.08 207.78,-156.59 200.92,-157.97"/>
<text text-anchor="middle" x="250" y="-141" font-family="serif" font-size="10.00"> default_params_</text>
<text text-anchor="middle" x="250" y="-130" font-family="serif" font-size="10.00">nl_solver_params_</text>
<text text-anchor="middle" x="250" y="-119" font-family="serif" font-size="10.00">params_</text>
</g>
<!-- Node6 -->
<g id="node6" class="node">
<title>Node6</title>
<g id="a_node6"><a xlink:href="classPhaseFieldReducedOperator.html" target="_top" xlink:title=" ">
<polygon fill="none" stroke="black" points="209.5,-78.5 209.5,-97.5 373.5,-97.5 373.5,-78.5 209.5,-78.5"/>
<text text-anchor="middle" x="291.5" y="-85.5" font-family="serif" font-size="10.00">PhaseFieldReducedOperator</text>
</a>
</g>
</g>
<!-- Node6&#45;&gt;Node1 -->
<g id="edge5" class="edge">
<title>Node6&#45;&gt;Node1</title>
<path fill="none" stroke="#9a32cd" stroke-dasharray="5,2" d="M272.94,-71.78C258.02,-59.55 237.21,-42.5 222.67,-30.58"/>
<polygon fill="#9a32cd" stroke="#9a32cd" points="271,-74.72 280.95,-78.36 275.44,-69.31 271,-74.72"/>
<text text-anchor="middle" x="293.5" y="-52" font-family="serif" font-size="10.00"> reduced_oper</text>
</g>
</g>
</svg>
