<?xml version="1.0" encoding="UTF-8" standalone="no"?>
<!DOCTYPE svg PUBLIC "-//W3C//DTD SVG 1.1//EN"
 "http://www.w3.org/Graphics/SVG/1.1/DTD/svg11.dtd">
<!-- Generated by graphviz version 2.43.0 (0)
 -->
<!-- Title: SolverCG::create_solver Pages: 1 -->
<svg width="352pt" height="225pt"
 viewBox="0.00 0.00 352.00 225.00" xmlns="http://www.w3.org/2000/svg" xmlns:xlink="http://www.w3.org/1999/xlink">
<g id="graph0" class="graph" transform="scale(1 1) rotate(0) translate(4 221)">
<title>SolverCG::create_solver</title>
<!-- Node1 -->
<g id="node1" class="node">
<title>Node1</title>
<g id="a_node1"><a xlink:title=" ">
<polygon fill="#bfbfbf" stroke="black" points="0,-93.5 0,-112.5 138,-112.5 138,-93.5 0,-93.5"/>
<text text-anchor="middle" x="69" y="-100.5" font-family="serif" font-size="10.00">SolverCG::create_solver</text>
</a>
</g>
</g>
<!-- Node2 -->
<g id="node2" class="node">
<title>Node2</title>
<g id="a_node2"><a xlink:href="classSlothInfo.html#a854d3cafdb9f5a77f1063a27d2a27e04" target="_top" xlink:title="Print information on Debug mode.">
<polygon fill="none" stroke="black" points="208,-197.5 208,-216.5 310,-216.5 310,-197.5 208,-197.5"/>
<text text-anchor="middle" x="259" y="-204.5" font-family="serif" font-size="10.00">SlothInfo::debug</text>
</a>
</g>
</g>
<!-- Node1&#45;&gt;Node2 -->
<g id="edge1" class="edge">
<title>Node1&#45;&gt;Node2</title>
<path fill="none" stroke="midnightblue" d="M78.7,-112.6C95.38,-130.37 133.76,-168.37 174,-188 181.53,-191.67 189.8,-194.65 198.11,-197.06"/>
<polygon fill="midnightblue" stroke="midnightblue" points="197.28,-200.46 207.84,-199.63 199.07,-193.69 197.28,-200.46"/>
</g>
<!-- Node3 -->
<g id="node3" class="node">
<title>Node3</title>
<g id="a_node3"><a xlink:href="classSolverBase.html#a52edc30e08c2552f8ceb3d9ea928b059" target="_top" xlink:title=" ">
<polygon fill="none" stroke="black" points="174,-137.5 174,-178.5 344,-178.5 344,-137.5 174,-137.5"/>
<text text-anchor="start" x="182" y="-166.5" font-family="serif" font-size="10.00">SolverBase&lt; mfem::CGSolver,</text>
<text text-anchor="start" x="182" y="-155.5" font-family="serif" font-size="10.00"> IterativeSolverType &gt;::</text>
<text text-anchor="middle" x="259" y="-144.5" font-family="serif" font-size="10.00">get_description</text>
</a>
</g>
</g>
<!-- Node1&#45;&gt;Node3 -->
<g id="edge2" class="edge">
<title>Node1&#45;&gt;Node3</title>
<path fill="none" stroke="midnightblue" d="M102.75,-112.58C123.64,-118.69 151.69,-126.9 178.19,-134.65"/>
<polygon fill="midnightblue" stroke="midnightblue" points="177.29,-138.03 187.87,-137.48 179.26,-131.32 177.29,-138.03"/>
</g>
<!-- Node4 -->
<g id="node4" class="node">
<title>Node4</title>
<g id="a_node4"><a xlink:href="classParameters.html#ae3b314c5ebc3fde8684b0634b2406da6" target="_top" xlink:title=" ">
<polygon fill="none" stroke="black" points="191.5,-88 191.5,-118 326.5,-118 326.5,-88 191.5,-88"/>
<text text-anchor="start" x="199.5" y="-106" font-family="serif" font-size="10.00">Parameters::get_param</text>
<text text-anchor="middle" x="259" y="-95" font-family="serif" font-size="10.00">_value</text>
</a>
</g>
</g>
<!-- Node1&#45;&gt;Node4 -->
<g id="edge3" class="edge">
<title>Node1&#45;&gt;Node4</title>
<path fill="none" stroke="midnightblue" d="M138.14,-103C152.09,-103 166.87,-103 181.1,-103"/>
<polygon fill="midnightblue" stroke="midnightblue" points="181.35,-106.5 191.35,-103 181.35,-99.5 181.35,-106.5"/>
</g>
<!-- Node5 -->
<g id="node5" class="node">
<title>Node5</title>
<g id="a_node5"><a xlink:href="classParameters.html#a857c53fbe60d7bd2f91e91626f85b6d2" target="_top" xlink:title=" ">
<polygon fill="none" stroke="black" points="191.5,-39 191.5,-69 326.5,-69 326.5,-39 191.5,-39"/>
<text text-anchor="start" x="199.5" y="-57" font-family="serif" font-size="10.00">Parameters::get_param</text>
<text text-anchor="middle" x="259" y="-46" font-family="serif" font-size="10.00">_value_or_default</text>
</a>
</g>
</g>
<!-- Node1&#45;&gt;Node5 -->
<g id="edge4" class="edge">
<title>Node1&#45;&gt;Node5</title>
<path fill="none" stroke="midnightblue" d="M106.69,-93.44C130.5,-87.23 162.22,-78.96 190.48,-71.6"/>
<polygon fill="midnightblue" stroke="midnightblue" points="191.51,-74.95 200.31,-69.04 189.75,-68.17 191.51,-74.95"/>
</g>
<!-- Node6 -->
<g id="node6" class="node">
<title>Node6</title>
<g id="a_node6"><a xlink:href="UtilsForData_8hpp.html#a624f01f99bc5aadf3d7c3b7c8c7c4ac7" target="_top" xlink:title="Check the level of verbosity.">
<polygon fill="none" stroke="black" points="208.5,-0.5 208.5,-19.5 309.5,-19.5 309.5,-0.5 208.5,-0.5"/>
<text text-anchor="middle" x="259" y="-7.5" font-family="serif" font-size="10.00">verbose_at_least</text>
</a>
</g>
</g>
<!-- Node1&#45;&gt;Node6 -->
<g id="edge5" class="edge">
<title>Node1&#45;&gt;Node6</title>
<path fill="none" stroke="midnightblue" d="M80.68,-93.39C98.64,-77.74 136.58,-46.84 174,-30 181.66,-26.55 190,-23.65 198.35,-21.23"/>
<polygon fill="midnightblue" stroke="midnightblue" points="199.36,-24.58 208.11,-18.6 197.54,-17.82 199.36,-24.58"/>
</g>
</g>
</svg>
