<?xml version="1.0" encoding="UTF-8" standalone="no"?>
<!DOCTYPE svg PUBLIC "-//W3C//DTD SVG 1.1//EN"
 "http://www.w3.org/Graphics/SVG/1.1/DTD/svg11.dtd">
<!-- Generated by graphviz version 2.43.0 (0)
 -->
<!-- Title: SolverBICGSTAB::create_solver Pages: 1 -->
<svg width="394pt" height="225pt"
 viewBox="0.00 0.00 394.00 225.00" xmlns="http://www.w3.org/2000/svg" xmlns:xlink="http://www.w3.org/1999/xlink">
<g id="graph0" class="graph" transform="scale(1 1) rotate(0) translate(4 221)">
<title>SolverBICGSTAB::create_solver</title>
<!-- Node1 -->
<g id="node1" class="node">
<title>Node1</title>
<g id="a_node1"><a xlink:title="Create a iterative solver based of the SolverType and a list of Parameters.">
<polygon fill="#bfbfbf" stroke="black" points="0,-88 0,-118 141,-118 141,-88 0,-88"/>
<text text-anchor="start" x="8" y="-106" font-family="serif" font-size="10.00">SolverBICGSTAB::create</text>
<text text-anchor="middle" x="70.5" y="-95" font-family="serif" font-size="10.00">_solver</text>
</a>
</g>
</g>
<!-- Node2 -->
<g id="node2" class="node">
<title>Node2</title>
<g id="a_node2"><a xlink:href="classSlothInfo.html#a854d3cafdb9f5a77f1063a27d2a27e04" target="_top" xlink:title="Print information on Debug mode.">
<polygon fill="none" stroke="black" points="230.5,-197.5 230.5,-216.5 332.5,-216.5 332.5,-197.5 230.5,-197.5"/>
<text text-anchor="middle" x="281.5" y="-204.5" font-family="serif" font-size="10.00">SlothInfo::debug</text>
</a>
</g>
</g>
<!-- Node1&#45;&gt;Node2 -->
<g id="edge1" class="edge">
<title>Node1&#45;&gt;Node2</title>
<path fill="none" stroke="midnightblue" d="M85.59,-118.33C104.43,-137.81 139.8,-170.94 177,-188 190.43,-194.16 205.69,-198.32 220.3,-201.13"/>
<polygon fill="midnightblue" stroke="midnightblue" points="219.83,-204.6 230.28,-202.87 221.03,-197.71 219.83,-204.6"/>
</g>
<!-- Node3 -->
<g id="node3" class="node">
<title>Node3</title>
<g id="a_node3"><a xlink:href="classSolverBase.html#a52edc30e08c2552f8ceb3d9ea928b059" target="_top" xlink:title=" ">
<polygon fill="none" stroke="black" points="177,-137.5 177,-178.5 386,-178.5 386,-137.5 177,-137.5"/>
<text text-anchor="start" x="185" y="-166.5" font-family="serif" font-size="10.00">SolverBase&lt; mfem::BiCGSTABSolver,</text>
<text text-anchor="start" x="185" y="-155.5" font-family="serif" font-size="10.00"> IterativeSolverType &gt;::get</text>
<text text-anchor="middle" x="281.5" y="-144.5" font-family="serif" font-size="10.00">_description</text>
</a>
</g>
</g>
<!-- Node1&#45;&gt;Node3 -->
<g id="edge2" class="edge">
<title>Node1&#45;&gt;Node3</title>
<path fill="none" stroke="midnightblue" d="M128.61,-118.03C148.31,-123.21 170.87,-129.15 192.46,-134.83"/>
<polygon fill="midnightblue" stroke="midnightblue" points="191.74,-138.26 202.3,-137.42 193.52,-131.49 191.74,-138.26"/>
</g>
<!-- Node4 -->
<g id="node4" class="node">
<title>Node4</title>
<g id="a_node4"><a xlink:href="classParameters.html#ae3b314c5ebc3fde8684b0634b2406da6" target="_top" xlink:title=" ">
<polygon fill="none" stroke="black" points="214,-88 214,-118 349,-118 349,-88 214,-88"/>
<text text-anchor="start" x="222" y="-106" font-family="serif" font-size="10.00">Parameters::get_param</text>
<text text-anchor="middle" x="281.5" y="-95" font-family="serif" font-size="10.00">_value</text>
</a>
</g>
</g>
<!-- Node1&#45;&gt;Node4 -->
<g id="edge3" class="edge">
<title>Node1&#45;&gt;Node4</title>
<path fill="none" stroke="midnightblue" d="M141.09,-103C161.11,-103 183.05,-103 203.48,-103"/>
<polygon fill="midnightblue" stroke="midnightblue" points="203.69,-106.5 213.69,-103 203.69,-99.5 203.69,-106.5"/>
</g>
<!-- Node5 -->
<g id="node5" class="node">
<title>Node5</title>
<g id="a_node5"><a xlink:href="classParameters.html#a857c53fbe60d7bd2f91e91626f85b6d2" target="_top" xlink:title=" ">
<polygon fill="none" stroke="black" points="214,-39 214,-69 349,-69 349,-39 214,-39"/>
<text text-anchor="start" x="222" y="-57" font-family="serif" font-size="10.00">Parameters::get_param</text>
<text text-anchor="middle" x="281.5" y="-46" font-family="serif" font-size="10.00">_value_or_default</text>
</a>
</g>
</g>
<!-- Node1&#45;&gt;Node5 -->
<g id="edge4" class="edge">
<title>Node1&#45;&gt;Node5</title>
<path fill="none" stroke="midnightblue" d="M135.63,-87.97C158.1,-82.7 183.51,-76.74 206.7,-71.3"/>
<polygon fill="midnightblue" stroke="midnightblue" points="207.56,-74.7 216.49,-69.01 205.96,-67.88 207.56,-74.7"/>
</g>
<!-- Node6 -->
<g id="node6" class="node">
<title>Node6</title>
<g id="a_node6"><a xlink:href="UtilsForData_8hpp.html#a624f01f99bc5aadf3d7c3b7c8c7c4ac7" target="_top" xlink:title="Check the level of verbosity.">
<polygon fill="none" stroke="black" points="231,-0.5 231,-19.5 332,-19.5 332,-0.5 231,-0.5"/>
<text text-anchor="middle" x="281.5" y="-7.5" font-family="serif" font-size="10.00">verbose_at_least</text>
</a>
</g>
</g>
<!-- Node1&#45;&gt;Node6 -->
<g id="edge5" class="edge">
<title>Node1&#45;&gt;Node6</title>
<path fill="none" stroke="midnightblue" d="M88.46,-87.89C108.26,-71.09 142.71,-44.42 177,-30 190.71,-24.24 206.14,-20.12 220.82,-17.18"/>
<polygon fill="midnightblue" stroke="midnightblue" points="221.64,-20.59 230.83,-15.33 220.36,-13.7 221.64,-20.59"/>
</g>
</g>
</svg>
