<?xml version="1.0" encoding="UTF-8" standalone="no"?>
<!DOCTYPE svg PUBLIC "-//W3C//DTD SVG 1.1//EN"
 "http://www.w3.org/Graphics/SVG/1.1/DTD/svg11.dtd">
<!-- Generated by graphviz version 2.43.0 (0)
 -->
<!-- Title: SolverMINRES::create_solver Pages: 1 -->
<svg width="375pt" height="187pt"
 viewBox="0.00 0.00 375.00 186.50" xmlns="http://www.w3.org/2000/svg" xmlns:xlink="http://www.w3.org/1999/xlink">
<g id="graph0" class="graph" transform="scale(1 1) rotate(0) translate(4 182.5)">
<title>SolverMINRES::create_solver</title>
<!-- Node1 -->
<g id="node1" class="node">
<title>Node1</title>
<g id="a_node1"><a xlink:title=" ">
<polygon fill="#bfbfbf" stroke="black" points="0,-76.5 0,-106.5 131,-106.5 131,-76.5 0,-76.5"/>
<text text-anchor="start" x="8" y="-94.5" font-family="serif" font-size="10.00">SolverMINRES::create</text>
<text text-anchor="middle" x="65.5" y="-83.5" font-family="serif" font-size="10.00">_solver</text>
</a>
</g>
</g>
<!-- Node2 -->
<g id="node2" class="node">
<title>Node2</title>
<g id="a_node2"><a xlink:href="classSlothInfo.html#a854d3cafdb9f5a77f1063a27d2a27e04" target="_top" xlink:title="Print information on Debug mode.">
<polygon fill="none" stroke="black" points="216,-159 216,-178 318,-178 318,-159 216,-159"/>
<text text-anchor="middle" x="267" y="-166" font-family="serif" font-size="10.00">SlothInfo::debug</text>
</a>
</g>
</g>
<!-- Node1&#45;&gt;Node2 -->
<g id="edge1" class="edge">
<title>Node1&#45;&gt;Node2</title>
<path fill="none" stroke="midnightblue" d="M87.8,-106.63C107.46,-119.88 137.93,-138.67 167,-149.5 179.29,-154.08 192.86,-157.6 205.91,-160.3"/>
<polygon fill="midnightblue" stroke="midnightblue" points="205.28,-163.74 215.76,-162.2 206.61,-156.87 205.28,-163.74"/>
</g>
<!-- Node3 -->
<g id="node3" class="node">
<title>Node3</title>
<g id="a_node3"><a xlink:href="classSolverBase.html#a52edc30e08c2552f8ceb3d9ea928b059" target="_top" xlink:title=" ">
<polygon fill="none" stroke="black" points="167,-99 167,-140 367,-140 367,-99 167,-99"/>
<text text-anchor="start" x="175" y="-128" font-family="serif" font-size="10.00">SolverBase&lt; mfem::MINRESSolver,</text>
<text text-anchor="start" x="175" y="-117" font-family="serif" font-size="10.00"> IterativeSolverType &gt;::get</text>
<text text-anchor="middle" x="267" y="-106" font-family="serif" font-size="10.00">_description</text>
</a>
</g>
</g>
<!-- Node1&#45;&gt;Node3 -->
<g id="edge2" class="edge">
<title>Node1&#45;&gt;Node3</title>
<path fill="none" stroke="midnightblue" d="M131.27,-100.59C139.45,-101.74 147.99,-102.94 156.62,-104.15"/>
<polygon fill="midnightblue" stroke="midnightblue" points="156.39,-107.65 166.78,-105.57 157.37,-100.72 156.39,-107.65"/>
</g>
<!-- Node4 -->
<g id="node4" class="node">
<title>Node4</title>
<g id="a_node4"><a xlink:href="classParameters.html#ae3b314c5ebc3fde8684b0634b2406da6" target="_top" xlink:title=" ">
<polygon fill="none" stroke="black" points="199.5,-49.5 199.5,-79.5 334.5,-79.5 334.5,-49.5 199.5,-49.5"/>
<text text-anchor="start" x="207.5" y="-67.5" font-family="serif" font-size="10.00">Parameters::get_param</text>
<text text-anchor="middle" x="267" y="-56.5" font-family="serif" font-size="10.00">_value</text>
</a>
</g>
</g>
<!-- Node1&#45;&gt;Node4 -->
<g id="edge3" class="edge">
<title>Node1&#45;&gt;Node4</title>
<path fill="none" stroke="midnightblue" d="M131.27,-82.73C149.69,-80.24 169.93,-77.5 189.01,-74.92"/>
<polygon fill="midnightblue" stroke="midnightblue" points="189.72,-78.36 199.16,-73.55 188.78,-71.42 189.72,-78.36"/>
</g>
<!-- Node5 -->
<g id="node5" class="node">
<title>Node5</title>
<g id="a_node5"><a xlink:href="classParameters.html#a857c53fbe60d7bd2f91e91626f85b6d2" target="_top" xlink:title=" ">
<polygon fill="none" stroke="black" points="199.5,-0.5 199.5,-30.5 334.5,-30.5 334.5,-0.5 199.5,-0.5"/>
<text text-anchor="start" x="207.5" y="-18.5" font-family="serif" font-size="10.00">Parameters::get_param</text>
<text text-anchor="middle" x="267" y="-7.5" font-family="serif" font-size="10.00">_value_or_default</text>
</a>
</g>
</g>
<!-- Node1&#45;&gt;Node5 -->
<g id="edge4" class="edge">
<title>Node1&#45;&gt;Node5</title>
<path fill="none" stroke="midnightblue" d="M92.23,-76.43C112.12,-65.29 140.62,-50.39 167,-40.5 174.24,-37.79 181.88,-35.28 189.58,-32.97"/>
<polygon fill="midnightblue" stroke="midnightblue" points="190.7,-36.29 199.34,-30.17 188.76,-29.57 190.7,-36.29"/>
</g>
</g>
</svg>
