<?xml version="1.0" encoding="UTF-8" standalone="no"?>
<!DOCTYPE svg PUBLIC "-//W3C//DTD SVG 1.1//EN"
 "http://www.w3.org/Graphics/SVG/1.1/DTD/svg11.dtd">
<!-- Generated by graphviz version 2.43.0 (0)
 -->
<!-- Title: Coefficients.hpp Pages: 1 -->
<!--zoomable 319 -->
<svg id="main" version="1.1" xmlns="http://www.w3.org/2000/svg" xmlns:xlink="http://www.w3.org/1999/xlink" xml:space="preserve" onload="init(evt)">
<style type="text/css"><![CDATA[
.edge:hover path { stroke: red; }
.edge:hover polygon { stroke: red; fill: red; }
]]></style>
<script type="text/javascript"><![CDATA[
var edges = document.getElementsByTagName('g');
if (edges && edges.length) {
  for (var i=0;i<edges.length;i++) {
    if (edges[i].id.substr(0,4)=='edge') {
      edges[i].setAttribute('class','edge');
    }
  }
}
]]></script>
        <defs>
                <circle id="rim" cx="0" cy="0" r="7"/>
                <circle id="rim2" cx="0" cy="0" r="3.5"/>
                <g id="zoomPlus">
                        <use xlink:href="#rim" fill="#404040">
                                <set attributeName="fill" to="#808080" begin="zoomplus.mouseover" end="zoomplus.mouseout"/>
                        </use>
                        <path d="M-4,0h8M0,-4v8" fill="none" stroke="white" stroke-width="1.5" pointer-events="none"/>
                </g>
                <g id="zoomMin">
                        <use xlink:href="#rim" fill="#404040">
                                <set attributeName="fill" to="#808080" begin="zoomminus.mouseover" end="zoomminus.mouseout"/>
                        </use>
                        <path d="M-4,0h8" fill="none" stroke="white" stroke-width="1.5" pointer-events="none"/>
                </g>
                <g id="dirArrow">
                        <path fill="none" stroke="white" stroke-width="1.5" d="M0,-3.0v7 M-2.5,-0.5L0,-3.0L2.5,-0.5"/>
                </g>
               <g id="resetDef">
                       <use xlink:href="#rim2" fill="#404040">
                               <set attributeName="fill" to="#808080" begin="reset.mouseover" end="reset.mouseout"/>
                       </use>
               </g>
        </defs>

<script type="text/javascript">
var viewWidth = 3205;
var viewHeight = 319;
var sectionId = 'dynsection-1';
</script>
<script xlink:href="svgpan.js"/>
<svg id="graph" class="graph">
<g id="viewport">
<title>Coefficients.hpp</title>
<!-- Node1 -->
<g id="node1" class="node">
<title>Node1</title>
<g id="a_node1"><a xlink:title="Coefficients class used to build and manage a collection of Coefficient.">
<polygon fill="#bfbfbf" stroke="black" points="2010,-291.5 2010,-310.5 2109,-310.5 2109,-291.5 2010,-291.5"/>
<text text-anchor="middle" x="2059.5" y="-298.5" font-family="serif" font-size="10.00">Coefficients.hpp</text>
</a>
</g>
</g>
<!-- Node2 -->
<g id="node2" class="node">
<title>Node2</title>
<g id="a_node2"><a xlink:href="MfemCoefficient_8hpp.html" target="_top" xlink:title="Built a MFEM Coefficient from a SLOTH Coefficient.">
<polygon fill="none" stroke="black" points="1177.5,-235.5 1177.5,-254.5 1301.5,-254.5 1301.5,-235.5 1177.5,-235.5"/>
<text text-anchor="middle" x="1239.5" y="-242.5" font-family="serif" font-size="10.00">MfemCoefficient.hpp</text>
</a>
</g>
</g>
<!-- Node1&#45;&gt;Node2 -->
<g id="edge1" class="edge">
<title>Node1&#45;&gt;Node2</title>
<path fill="none" stroke="midnightblue" d="M1999.6,-297.75C1872.46,-292.67 1566.29,-278.87 1310.5,-255 1307.65,-254.73 1304.75,-254.44 1301.81,-254.14"/>
<polygon fill="midnightblue" stroke="midnightblue" points="1999.76,-301.26 2009.9,-298.15 2000.04,-294.26 1999.76,-301.26"/>
</g>
<!-- Node3 -->
<g id="node3" class="node">
<title>Node3</title>
<g id="a_node3"><a xlink:href="SlothNLFormIntegrator_8hpp.html" target="_top" xlink:title="Class prodiving common methods to all NLFormIntegrators.">
<polygon fill="none" stroke="black" points="1319.5,-235.5 1319.5,-254.5 1479.5,-254.5 1479.5,-235.5 1319.5,-235.5"/>
<text text-anchor="middle" x="1399.5" y="-242.5" font-family="serif" font-size="10.00">SlothNLFormIntegrator.hpp</text>
</a>
</g>
</g>
<!-- Node1&#45;&gt;Node3 -->
<g id="edge2" class="edge">
<title>Node1&#45;&gt;Node3</title>
<path fill="none" stroke="midnightblue" d="M1999.87,-295.12C1880.9,-285.39 1613.97,-263.55 1479.76,-252.57"/>
<polygon fill="midnightblue" stroke="midnightblue" points="1999.64,-298.61 2009.89,-295.94 2000.21,-291.64 1999.64,-298.61"/>
</g>
<!-- Node24 -->
<g id="node24" class="node">
<title>Node24</title>
<g id="a_node24"><a xlink:href="OperatorBase_8hpp.html" target="_top" xlink:title="Base class for building Steady and TimeDependent PhaseFieldOperators.">
<polygon fill="none" stroke="black" points="2556.5,-179.5 2556.5,-198.5 2666.5,-198.5 2666.5,-179.5 2556.5,-179.5"/>
<text text-anchor="middle" x="2611.5" y="-186.5" font-family="serif" font-size="10.00">OperatorBase.hpp</text>
</a>
</g>
</g>
<!-- Node1&#45;&gt;Node24 -->
<g id="edge50" class="edge">
<title>Node1&#45;&gt;Node24</title>
<path fill="none" stroke="midnightblue" d="M2061.12,-280.85C2063.48,-265.84 2069.28,-245.75 2083.5,-235 2124.75,-203.82 2496.09,-204.6 2547.5,-199 2550.4,-198.68 2553.37,-198.34 2556.37,-197.97"/>
<polygon fill="midnightblue" stroke="midnightblue" points="2057.6,-280.76 2059.9,-291.1 2064.55,-281.59 2057.6,-280.76"/>
</g>
<!-- Node29 -->
<g id="node29" class="node">
<title>Node29</title>
<g id="a_node29"><a xlink:href="ProblemBase_8hpp.html" target="_top" xlink:title="Base class for building Problems.">
<polygon fill="none" stroke="black" points="2845,-179.5 2845,-198.5 2952,-198.5 2952,-179.5 2845,-179.5"/>
<text text-anchor="middle" x="2898.5" y="-186.5" font-family="serif" font-size="10.00">ProblemBase.hpp</text>
</a>
</g>
</g>
<!-- Node1&#45;&gt;Node29 -->
<g id="edge51" class="edge">
<title>Node1&#45;&gt;Node29</title>
<path fill="none" stroke="midnightblue" d="M2069.22,-282.6C2078.96,-267.07 2095.5,-245.25 2116.5,-235 2132.88,-227 2670.82,-200.81 2844.8,-192.53"/>
<polygon fill="midnightblue" stroke="midnightblue" points="2066.16,-280.91 2064.06,-291.3 2072.18,-284.49 2066.16,-280.91"/>
</g>
<!-- Node36 -->
<g id="node36" class="node">
<title>Node36</title>
<g id="a_node36"><a xlink:href="Coefficients_8cpp.html" target="_top" xlink:title="Coefficients class used to build and manage a collection of Coefficient.">
<polygon fill="none" stroke="black" points="2125.5,-235.5 2125.5,-254.5 2223.5,-254.5 2223.5,-235.5 2125.5,-235.5"/>
<text text-anchor="middle" x="2174.5" y="-242.5" font-family="serif" font-size="10.00">Coefficients.cpp</text>
</a>
</g>
</g>
<!-- Node1&#45;&gt;Node36 -->
<g id="edge63" class="edge">
<title>Node1&#45;&gt;Node36</title>
<path fill="none" stroke="midnightblue" d="M2086.98,-287.1C2108.47,-277.01 2137.72,-263.27 2156.36,-254.52"/>
<polygon fill="midnightblue" stroke="midnightblue" points="2085.29,-284.02 2077.72,-291.44 2088.26,-290.36 2085.29,-284.02"/>
</g>
<!-- Node4 -->
<g id="node4" class="node">
<title>Node4</title>
<g id="a_node4"><a xlink:href="AllenCahnGrainsNLFormIntegrator_8hpp.html" target="_top" xlink:title="VF for Allen&#45;Cahn equation solved in a polycrystal.">
<polygon fill="none" stroke="black" points="1841,-179.5 1841,-198.5 2062,-198.5 2062,-179.5 1841,-179.5"/>
<text text-anchor="middle" x="1951.5" y="-186.5" font-family="serif" font-size="10.00">AllenCahnGrainsNLFormIntegrator.hpp</text>
</a>
</g>
</g>
<!-- Node3&#45;&gt;Node4 -->
<g id="edge3" class="edge">
<title>Node3&#45;&gt;Node4</title>
<path fill="none" stroke="midnightblue" d="M1489.89,-235.16C1593.48,-225.02 1762.07,-208.53 1864.3,-198.53"/>
<polygon fill="midnightblue" stroke="midnightblue" points="1489.38,-231.69 1479.77,-236.15 1490.06,-238.66 1489.38,-231.69"/>
</g>
<!-- Node5 -->
<g id="node5" class="node">
<title>Node5</title>
<g id="a_node5"><a xlink:href="AllenCahnNLFormIntegrator_8hpp.html" target="_top" xlink:title="VF of the Allen Cahn equation.">
<polygon fill="none" stroke="black" points="2118,-179.5 2118,-198.5 2305,-198.5 2305,-179.5 2118,-179.5"/>
<text text-anchor="middle" x="2211.5" y="-186.5" font-family="serif" font-size="10.00">AllenCahnNLFormIntegrator.hpp</text>
</a>
</g>
</g>
<!-- Node3&#45;&gt;Node5 -->
<g id="edge4" class="edge">
<title>Node3&#45;&gt;Node5</title>
<path fill="none" stroke="midnightblue" d="M1489.85,-238.82C1624.02,-230.99 1883.82,-215.32 2104.5,-199 2108.87,-198.68 2113.34,-198.34 2117.85,-197.99"/>
<polygon fill="midnightblue" stroke="midnightblue" points="1489.4,-235.34 1479.62,-239.41 1489.81,-242.33 1489.4,-235.34"/>
</g>
<!-- Node6 -->
<g id="node6" class="node">
<title>Node6</title>
<g id="a_node6"><a xlink:href="ListIntegrators_8hpp.html" target="_top" xlink:title="List of header files contained in the Integrators directory.">
<polygon fill="none" stroke="black" points="1183.5,-56.5 1183.5,-75.5 1299.5,-75.5 1299.5,-56.5 1183.5,-56.5"/>
<text text-anchor="middle" x="1241.5" y="-63.5" font-family="serif" font-size="10.00">ListIntegrators.hpp</text>
</a>
</g>
</g>
<!-- Node3&#45;&gt;Node6 -->
<g id="edge24" class="edge">
<title>Node3&#45;&gt;Node6</title>
<path fill="none" stroke="midnightblue" d="M1489.7,-244.63C1663.61,-244.91 2031.67,-240.52 2070.5,-199 2076.57,-192.51 2075.5,-186.35 2070.5,-179 2024.8,-111.87 1979.72,-129.87 1900.5,-112 1786.89,-86.38 1438.68,-73.09 1299.69,-68.69"/>
<polygon fill="midnightblue" stroke="midnightblue" points="1489.55,-241.13 1479.54,-244.61 1489.53,-248.13 1489.55,-241.13"/>
</g>
<!-- Node7 -->
<g id="node7" class="node">
<title>Node7</title>
<g id="a_node7"><a xlink:href="BlockAllenCahnNLFormIntegrator_8hpp.html" target="_top" xlink:title="VF of the AllenCahn equations (splitted form)">
<polygon fill="none" stroke="black" points="2323,-179.5 2323,-198.5 2538,-198.5 2538,-179.5 2323,-179.5"/>
<text text-anchor="middle" x="2430.5" y="-186.5" font-family="serif" font-size="10.00">BlockAllenCahnNLFormIntegrator.hpp</text>
</a>
</g>
</g>
<!-- Node3&#45;&gt;Node7 -->
<g id="edge6" class="edge">
<title>Node3&#45;&gt;Node7</title>
<path fill="none" stroke="midnightblue" d="M1489.77,-240.41C1653.97,-233.69 2012.49,-218.14 2314.5,-199 2317.22,-198.83 2319.98,-198.65 2322.76,-198.46"/>
<polygon fill="midnightblue" stroke="midnightblue" points="1489.56,-236.91 1479.71,-240.82 1489.85,-243.91 1489.56,-236.91"/>
</g>
<!-- Node8 -->
<g id="node8" class="node">
<title>Node8</title>
<g id="a_node8"><a xlink:href="CahnHilliardNLFormIntegrator_8hpp.html" target="_top" xlink:title="VF of the CahnHilliard equations.">
<polygon fill="none" stroke="black" points="0,-179.5 0,-198.5 199,-198.5 199,-179.5 0,-179.5"/>
<text text-anchor="middle" x="99.5" y="-186.5" font-family="serif" font-size="10.00">CahnHilliardNLFormIntegrator.hpp</text>
</a>
</g>
</g>
<!-- Node3&#45;&gt;Node8 -->
<g id="edge8" class="edge">
<title>Node3&#45;&gt;Node8</title>
<path fill="none" stroke="midnightblue" d="M1309.31,-234.97C819.84,-202.67 694.38,-226.98 208.5,-199 205.47,-198.83 202.39,-198.64 199.28,-198.44"/>
<polygon fill="midnightblue" stroke="midnightblue" points="1309.26,-238.48 1319.47,-235.65 1309.72,-231.49 1309.26,-238.48"/>
</g>
<!-- Node9 -->
<g id="node9" class="node">
<title>Node9</title>
<g id="a_node9"><a xlink:href="DiffusionFluxNLFormIntegrator_8hpp.html" target="_top" xlink:title="inter&#45;diffusion integrator">
<polygon fill="none" stroke="black" points="217.5,-179.5 217.5,-198.5 419.5,-198.5 419.5,-179.5 217.5,-179.5"/>
<text text-anchor="middle" x="318.5" y="-186.5" font-family="serif" font-size="10.00">DiffusionFluxNLFormIntegrator.hpp</text>
</a>
</g>
</g>
<!-- Node3&#45;&gt;Node9 -->
<g id="edge10" class="edge">
<title>Node3&#45;&gt;Node9</title>
<path fill="none" stroke="midnightblue" d="M1309.33,-234.96C919.67,-207.61 819.59,-222.02 433.5,-199 429,-198.73 424.41,-198.44 419.77,-198.13"/>
<polygon fill="midnightblue" stroke="midnightblue" points="1309.24,-238.47 1319.47,-235.68 1309.74,-231.48 1309.24,-238.47"/>
</g>
<!-- Node11 -->
<g id="node11" class="node">
<title>Node11</title>
<g id="a_node11"><a xlink:href="DiffusionNLFormIntegrator_8hpp.html" target="_top" xlink:title="Nonlinear form integrator for diffusion&#45;type problems.">
<polygon fill="none" stroke="black" points="476,-179.5 476,-198.5 655,-198.5 655,-179.5 476,-179.5"/>
<text text-anchor="middle" x="565.5" y="-186.5" font-family="serif" font-size="10.00">DiffusionNLFormIntegrator.hpp</text>
</a>
</g>
</g>
<!-- Node3&#45;&gt;Node11 -->
<g id="edge13" class="edge">
<title>Node3&#45;&gt;Node11</title>
<path fill="none" stroke="midnightblue" d="M1309.24,-234.94C1024.32,-212.79 950.78,-219.06 669.5,-199 664.8,-198.66 659.98,-198.3 655.12,-197.93"/>
<polygon fill="midnightblue" stroke="midnightblue" points="1309.22,-238.45 1319.46,-235.74 1309.77,-231.47 1309.22,-238.45"/>
</g>
<!-- Node12 -->
<g id="node12" class="node">
<title>Node12</title>
<g id="a_node12"><a xlink:href="FickNLFormIntegrator_8hpp.html" target="_top" xlink:title="FV for the mass diffusion equation.">
<polygon fill="none" stroke="black" points="375,-118 375,-137 530,-137 530,-118 375,-118"/>
<text text-anchor="middle" x="452.5" y="-125" font-family="serif" font-size="10.00">FickNLFormIntegrator.hpp</text>
</a>
</g>
</g>
<!-- Node3&#45;&gt;Node12 -->
<g id="edge18" class="edge">
<title>Node3&#45;&gt;Node12</title>
<path fill="none" stroke="midnightblue" d="M1309.46,-235.21C1203.87,-231.42 500.7,-228.32 466.5,-199 448.5,-183.57 449.51,-152.21 451.22,-137.06"/>
<polygon fill="midnightblue" stroke="midnightblue" points="1309.31,-238.7 1319.47,-235.68 1309.64,-231.71 1309.31,-238.7"/>
</g>
<!-- Node13 -->
<g id="node13" class="node">
<title>Node13</title>
<g id="a_node13"><a xlink:href="FourierNLFormIntegrator_8hpp.html" target="_top" xlink:title="FV for the heat transfer equation.">
<polygon fill="none" stroke="black" points="548,-118 548,-137 719,-137 719,-118 548,-118"/>
<text text-anchor="middle" x="633.5" y="-125" font-family="serif" font-size="10.00">FourierNLFormIntegrator.hpp</text>
</a>
</g>
</g>
<!-- Node3&#45;&gt;Node13 -->
<g id="edge19" class="edge">
<title>Node3&#45;&gt;Node13</title>
<path fill="none" stroke="midnightblue" d="M1309.45,-235.01C1166.19,-225.33 848.27,-242.04 729.5,-199 692.37,-185.54 657.2,-152.92 641.74,-137.22"/>
<polygon fill="midnightblue" stroke="midnightblue" points="1309.23,-238.51 1319.46,-235.76 1309.75,-231.53 1309.23,-238.51"/>
</g>
<!-- Node14 -->
<g id="node14" class="node">
<title>Node14</title>
<g id="a_node14"><a xlink:href="HeatTimeNLFormIntegrator_8hpp.html" target="_top" xlink:title="VF of the time derivative.">
<polygon fill="none" stroke="black" points="737.5,-118 737.5,-137 921.5,-137 921.5,-118 737.5,-118"/>
<text text-anchor="middle" x="829.5" y="-125" font-family="serif" font-size="10.00">HeatTimeNLFormIntegrator.hpp</text>
</a>
</g>
</g>
<!-- Node3&#45;&gt;Node14 -->
<g id="edge20" class="edge">
<title>Node3&#45;&gt;Node14</title>
<path fill="none" stroke="midnightblue" d="M1309.24,-235.16C1211.52,-230.92 781.31,-243.53 739.5,-199 715.38,-173.32 767.98,-149.36 802.5,-137.08"/>
<polygon fill="midnightblue" stroke="midnightblue" points="1309.27,-238.66 1319.46,-235.76 1309.68,-231.68 1309.27,-238.66"/>
</g>
<!-- Node15 -->
<g id="node15" class="node">
<title>Node15</title>
<g id="a_node15"><a xlink:href="LatentHeatNLFormIntegrator_8hpp.html" target="_top" xlink:title="Latent heat contribution for heat transfer equation.">
<polygon fill="none" stroke="black" points="926,-179.5 926,-198.5 1117,-198.5 1117,-179.5 926,-179.5"/>
<text text-anchor="middle" x="1021.5" y="-186.5" font-family="serif" font-size="10.00">LatentHeatNLFormIntegrator.hpp</text>
</a>
</g>
</g>
<!-- Node3&#45;&gt;Node15 -->
<g id="edge22" class="edge">
<title>Node3&#45;&gt;Node15</title>
<path fill="none" stroke="midnightblue" d="M1329.36,-233.98C1257.95,-223.78 1148.46,-208.14 1081.12,-198.52"/>
<polygon fill="midnightblue" stroke="midnightblue" points="1329.21,-237.49 1339.6,-235.44 1330.2,-230.56 1329.21,-237.49"/>
</g>
<!-- Node16 -->
<g id="node16" class="node">
<title>Node16</title>
<g id="a_node16"><a xlink:href="MeltingBaseNLFormIntegrator_8hpp.html" target="_top" xlink:title="Base class for melting integrators.">
<polygon fill="none" stroke="black" points="1173.5,-179.5 1173.5,-198.5 1371.5,-198.5 1371.5,-179.5 1173.5,-179.5"/>
<text text-anchor="middle" x="1272.5" y="-186.5" font-family="serif" font-size="10.00">MeltingBaseNLFormIntegrator.hpp</text>
</a>
</g>
</g>
<!-- Node3&#45;&gt;Node16 -->
<g id="edge25" class="edge">
<title>Node3&#45;&gt;Node16</title>
<path fill="none" stroke="midnightblue" d="M1370.11,-231.5C1346.3,-221.38 1313.39,-207.39 1292.53,-198.52"/>
<polygon fill="midnightblue" stroke="midnightblue" points="1368.8,-234.75 1379.38,-235.44 1371.54,-228.31 1368.8,-234.75"/>
</g>
<!-- Node17 -->
<g id="node17" class="node">
<title>Node17</title>
<g id="a_node17"><a xlink:href="MeltingCalphadNLFormIntegrator_8hpp.html" target="_top" xlink:title="NonlinearFormIntegrator for ad&#45;hoc melting term based on temperature.">
<polygon fill="none" stroke="black" points="1015.5,-118 1015.5,-137 1231.5,-137 1231.5,-118 1015.5,-118"/>
<text text-anchor="middle" x="1123.5" y="-125" font-family="serif" font-size="10.00">MeltingCalphadNLFormIntegrator.hpp</text>
</a>
</g>
</g>
<!-- Node3&#45;&gt;Node17 -->
<g id="edge32" class="edge">
<title>Node3&#45;&gt;Node17</title>
<path fill="none" stroke="midnightblue" d="M1309.45,-234.54C1253.41,-227.19 1187.72,-215.46 1164.5,-199 1142.55,-183.44 1130.6,-152.14 1125.89,-137.04"/>
<polygon fill="midnightblue" stroke="midnightblue" points="1309.06,-238.02 1319.43,-235.82 1309.95,-231.08 1309.06,-238.02"/>
</g>
<!-- Node18 -->
<g id="node18" class="node">
<title>Node18</title>
<g id="a_node18"><a xlink:href="MeltingConstantNLFormIntegrator_8hpp.html" target="_top" xlink:title="NonlinearFormIntegrator for ad&#45;hoc constant melting term.">
<polygon fill="none" stroke="black" points="1250,-118 1250,-137 1469,-137 1469,-118 1250,-118"/>
<text text-anchor="middle" x="1359.5" y="-125" font-family="serif" font-size="10.00">MeltingConstantNLFormIntegrator.hpp</text>
</a>
</g>
</g>
<!-- Node3&#45;&gt;Node18 -->
<g id="edge33" class="edge">
<title>Node3&#45;&gt;Node18</title>
<path fill="none" stroke="midnightblue" d="M1394.75,-225.79C1391.19,-212.67 1386,-194.59 1380.5,-179 1375.25,-164.14 1367.98,-147.32 1363.52,-137.32"/>
<polygon fill="midnightblue" stroke="midnightblue" points="1391.38,-226.73 1397.33,-235.49 1398.14,-224.93 1391.38,-226.73"/>
</g>
<!-- Node19 -->
<g id="node19" class="node">
<title>Node19</title>
<g id="a_node19"><a xlink:href="MeltingTemperatureNLFormIntegrator_8hpp.html" target="_top" xlink:title="NonlinearFormIntegrator for ad&#45;hoc melting term based on temperature.">
<polygon fill="none" stroke="black" points="1487,-112.5 1487,-142.5 1652,-142.5 1652,-112.5 1487,-112.5"/>
<text text-anchor="start" x="1495" y="-130.5" font-family="serif" font-size="10.00">MeltingTemperatureNLForm</text>
<text text-anchor="middle" x="1569.5" y="-119.5" font-family="serif" font-size="10.00">Integrator.hpp</text>
</a>
</g>
</g>
<!-- Node3&#45;&gt;Node19 -->
<g id="edge34" class="edge">
<title>Node3&#45;&gt;Node19</title>
<path fill="none" stroke="midnightblue" d="M1411.21,-226.94C1421.72,-212.63 1438.27,-192.45 1456.5,-179 1477.77,-163.31 1504.69,-151.04 1526.91,-142.52"/>
<polygon fill="midnightblue" stroke="midnightblue" points="1408.16,-225.18 1405.22,-235.36 1413.87,-229.24 1408.16,-225.18"/>
</g>
<!-- Node20 -->
<g id="node20" class="node">
<title>Node20</title>
<g id="a_node20"><a xlink:href="RobinNLFormIntegrator_8hpp.html" target="_top" xlink:title="Robin integrator.">
<polygon fill="none" stroke="black" points="1465.5,-179.5 1465.5,-198.5 1629.5,-198.5 1629.5,-179.5 1465.5,-179.5"/>
<text text-anchor="middle" x="1547.5" y="-186.5" font-family="serif" font-size="10.00">RobinNLFormIntegrator.hpp</text>
</a>
</g>
</g>
<!-- Node3&#45;&gt;Node20 -->
<g id="edge35" class="edge">
<title>Node3&#45;&gt;Node20</title>
<path fill="none" stroke="midnightblue" d="M1432.65,-231.91C1460.47,-221.75 1499.52,-207.51 1524.16,-198.52"/>
<polygon fill="midnightblue" stroke="midnightblue" points="1431.15,-228.73 1422.95,-235.44 1433.54,-235.3 1431.15,-228.73"/>
</g>
<!-- Node22 -->
<g id="node22" class="node">
<title>Node22</title>
<g id="a_node22"><a xlink:href="TimeCHNLFormIntegrator_8hpp.html" target="_top" xlink:title="VF of the time derivative for CH equations.">
<polygon fill="none" stroke="black" points="1647.5,-179.5 1647.5,-198.5 1823.5,-198.5 1823.5,-179.5 1647.5,-179.5"/>
<text text-anchor="middle" x="1735.5" y="-186.5" font-family="serif" font-size="10.00">TimeCHNLFormIntegrator.hpp</text>
</a>
</g>
</g>
<!-- Node3&#45;&gt;Node22 -->
<g id="edge39" class="edge">
<title>Node3&#45;&gt;Node22</title>
<path fill="none" stroke="midnightblue" d="M1462.63,-233.85C1526.12,-223.65 1622.89,-208.1 1682.51,-198.52"/>
<polygon fill="midnightblue" stroke="midnightblue" points="1462.06,-230.4 1452.74,-235.44 1463.17,-237.31 1462.06,-230.4"/>
</g>
<!-- Node23 -->
<g id="node23" class="node">
<title>Node23</title>
<g id="a_node23"><a xlink:href="TimeNLFormIntegrator_8hpp.html" target="_top" xlink:title="VF of the time derivative.">
<polygon fill="none" stroke="black" points="749,-179.5 749,-198.5 908,-198.5 908,-179.5 749,-179.5"/>
<text text-anchor="middle" x="828.5" y="-186.5" font-family="serif" font-size="10.00">TimeNLFormIntegrator.hpp</text>
</a>
</g>
</g>
<!-- Node3&#45;&gt;Node23 -->
<g id="edge41" class="edge">
<title>Node3&#45;&gt;Node23</title>
<path fill="none" stroke="midnightblue" d="M1309.35,-234.9C1133.79,-218.07 1088.27,-215.63 916.5,-199 913.75,-198.73 910.95,-198.46 908.12,-198.18"/>
<polygon fill="midnightblue" stroke="midnightblue" points="1309.16,-238.4 1319.45,-235.87 1309.83,-231.43 1309.16,-238.4"/>
</g>
<!-- Node3&#45;&gt;Node24 -->
<g id="edge44" class="edge">
<title>Node3&#45;&gt;Node24</title>
<path fill="none" stroke="midnightblue" d="M1489.85,-243.54C1683.89,-241.88 2154.72,-234.23 2547.5,-199 2550.41,-198.74 2553.38,-198.44 2556.38,-198.11"/>
<polygon fill="midnightblue" stroke="midnightblue" points="1489.68,-240.04 1479.71,-243.63 1489.73,-247.04 1489.68,-240.04"/>
</g>
<!-- Node5&#45;&gt;Node6 -->
<g id="edge5" class="edge">
<title>Node5&#45;&gt;Node6</title>
<path fill="none" stroke="midnightblue" d="M2195.69,-172.26C2176.16,-153.98 2141.03,-124.71 2104.5,-112 2029,-85.73 1481.08,-72.01 1299.66,-68.15"/>
<polygon fill="midnightblue" stroke="midnightblue" points="2193.42,-174.94 2203.06,-179.34 2198.27,-169.89 2193.42,-174.94"/>
</g>
<!-- Node7&#45;&gt;Node6 -->
<g id="edge7" class="edge">
<title>Node7&#45;&gt;Node6</title>
<path fill="none" stroke="midnightblue" d="M2396.13,-176.3C2343.07,-158.83 2237.71,-126.42 2145.5,-112 1981.52,-86.35 1472.59,-72.39 1299.68,-68.29"/>
<polygon fill="midnightblue" stroke="midnightblue" points="2395.12,-179.66 2405.72,-179.49 2397.33,-173.01 2395.12,-179.66"/>
</g>
<!-- Node8&#45;&gt;Node6 -->
<g id="edge9" class="edge">
<title>Node8&#45;&gt;Node6</title>
<path fill="none" stroke="midnightblue" d="M98.39,-169.16C98.49,-151.41 101.8,-125.58 118.5,-112 160.1,-78.16 958.66,-69.25 1183.21,-67.41"/>
<polygon fill="midnightblue" stroke="midnightblue" points="94.9,-169.32 98.67,-179.21 101.89,-169.12 94.9,-169.32"/>
</g>
<!-- Node10 -->
<g id="node10" class="node">
<title>Node10</title>
<g id="a_node10"><a xlink:href="MassDiffusionFluxNLFormIntegrator_8hpp.html" target="_top" xlink:title="Class dedicated to the VF of diffusion flux (gradient of chemical potential) used in mass balance equ...">
<polygon fill="none" stroke="black" points="128,-118 128,-137 357,-137 357,-118 128,-118"/>
<text text-anchor="middle" x="242.5" y="-125" font-family="serif" font-size="10.00">MassDiffusionFluxNLFormIntegrator.hpp</text>
</a>
</g>
</g>
<!-- Node9&#45;&gt;Node10 -->
<g id="edge11" class="edge">
<title>Node9&#45;&gt;Node10</title>
<path fill="none" stroke="midnightblue" d="M299.72,-173.29C285.14,-161.88 265.44,-146.46 253.37,-137.01"/>
<polygon fill="midnightblue" stroke="midnightblue" points="297.58,-176.07 307.61,-179.48 301.89,-170.55 297.58,-176.07"/>
</g>
<!-- Node10&#45;&gt;Node6 -->
<g id="edge12" class="edge">
<title>Node10&#45;&gt;Node6</title>
<path fill="none" stroke="midnightblue" d="M318.02,-116.8C333.7,-115.01 350.12,-113.3 365.5,-112 673.16,-85.99 1042.96,-72.95 1183.5,-68.66"/>
<polygon fill="midnightblue" stroke="midnightblue" points="317.38,-113.35 307.85,-117.98 318.19,-120.3 317.38,-113.35"/>
</g>
<!-- Node11&#45;&gt;Node12 -->
<g id="edge14" class="edge">
<title>Node11&#45;&gt;Node12</title>
<path fill="none" stroke="midnightblue" d="M540.26,-174.71C518.38,-163.19 487.36,-146.86 468.66,-137.01"/>
<polygon fill="midnightblue" stroke="midnightblue" points="538.83,-177.91 549.31,-179.48 542.09,-171.72 538.83,-177.91"/>
</g>
<!-- Node11&#45;&gt;Node13 -->
<g id="edge16" class="edge">
<title>Node11&#45;&gt;Node13</title>
<path fill="none" stroke="midnightblue" d="M583.04,-172.65C596.01,-161.31 613.18,-146.28 623.78,-137.01"/>
<polygon fill="midnightblue" stroke="midnightblue" points="580.46,-170.26 575.24,-179.48 585.07,-175.52 580.46,-170.26"/>
</g>
<!-- Node12&#45;&gt;Node6 -->
<g id="edge15" class="edge">
<title>Node12&#45;&gt;Node6</title>
<path fill="none" stroke="midnightblue" d="M507.89,-116.3C518.05,-114.67 528.57,-113.15 538.5,-112 776.91,-84.35 1062.93,-72.65 1183.45,-68.69"/>
<polygon fill="midnightblue" stroke="midnightblue" points="507.2,-112.86 497.9,-117.95 508.34,-119.77 507.2,-112.86"/>
</g>
<!-- Node13&#45;&gt;Node6 -->
<g id="edge17" class="edge">
<title>Node13&#45;&gt;Node6</title>
<path fill="none" stroke="midnightblue" d="M695.22,-116.49C706.28,-114.87 717.72,-113.29 728.5,-112 892.94,-92.26 1088.02,-77.52 1183.29,-70.89"/>
<polygon fill="midnightblue" stroke="midnightblue" points="694.56,-113.05 685.19,-118 695.6,-119.98 694.56,-113.05"/>
</g>
<!-- Node14&#45;&gt;Node6 -->
<g id="edge21" class="edge">
<title>Node14&#45;&gt;Node6</title>
<path fill="none" stroke="midnightblue" d="M898.49,-116.54C978.29,-105.01 1108.3,-86.24 1183.25,-75.41"/>
<polygon fill="midnightblue" stroke="midnightblue" points="897.93,-113.08 888.53,-117.98 898.93,-120.01 897.93,-113.08"/>
</g>
<!-- Node15&#45;&gt;Node6 -->
<g id="edge23" class="edge">
<title>Node15&#45;&gt;Node6</title>
<path fill="none" stroke="midnightblue" d="M1010.77,-170.58C1001.94,-153.75 992.89,-128.46 1006.5,-112 1028.53,-85.35 1121.31,-74.33 1183.49,-69.88"/>
<polygon fill="midnightblue" stroke="midnightblue" points="1007.79,-172.41 1015.78,-179.38 1013.88,-168.95 1007.79,-172.41"/>
</g>
<!-- Node16&#45;&gt;Node17 -->
<g id="edge26" class="edge">
<title>Node16&#45;&gt;Node17</title>
<path fill="none" stroke="midnightblue" d="M1241.53,-175.63C1212.58,-164.07 1170.13,-147.12 1144.81,-137.01"/>
<polygon fill="midnightblue" stroke="midnightblue" points="1240.57,-179.02 1251.15,-179.48 1243.16,-172.52 1240.57,-179.02"/>
</g>
<!-- Node16&#45;&gt;Node18 -->
<g id="edge28" class="edge">
<title>Node16&#45;&gt;Node18</title>
<path fill="none" stroke="midnightblue" d="M1293.54,-173.61C1310.27,-162.17 1333.11,-146.55 1347.06,-137.01"/>
<polygon fill="midnightblue" stroke="midnightblue" points="1291.24,-170.94 1284.96,-179.48 1295.2,-176.72 1291.24,-170.94"/>
</g>
<!-- Node16&#45;&gt;Node19 -->
<g id="edge30" class="edge">
<title>Node16&#45;&gt;Node19</title>
<path fill="none" stroke="midnightblue" d="M1325.03,-177.48C1373.58,-167.75 1446.06,-153.23 1499.5,-142.52"/>
<polygon fill="midnightblue" stroke="midnightblue" points="1324.17,-174.08 1315.05,-179.48 1325.55,-180.94 1324.17,-174.08"/>
</g>
<!-- Node17&#45;&gt;Node6 -->
<g id="edge27" class="edge">
<title>Node17&#45;&gt;Node6</title>
<path fill="none" stroke="midnightblue" d="M1149.55,-113.37C1172.42,-101.83 1205.01,-85.4 1224.62,-75.51"/>
<polygon fill="midnightblue" stroke="midnightblue" points="1147.76,-110.35 1140.41,-117.98 1150.91,-116.6 1147.76,-110.35"/>
</g>
<!-- Node18&#45;&gt;Node6 -->
<g id="edge29" class="edge">
<title>Node18&#45;&gt;Node6</title>
<path fill="none" stroke="midnightblue" d="M1333.45,-113.37C1310.58,-101.83 1277.99,-85.4 1258.38,-75.51"/>
<polygon fill="midnightblue" stroke="midnightblue" points="1332.09,-116.6 1342.59,-117.98 1335.24,-110.35 1332.09,-116.6"/>
</g>
<!-- Node19&#45;&gt;Node6 -->
<g id="edge31" class="edge">
<title>Node19&#45;&gt;Node6</title>
<path fill="none" stroke="midnightblue" d="M1481.98,-110.62C1419.8,-99.34 1338.72,-84.64 1288.39,-75.51"/>
<polygon fill="midnightblue" stroke="midnightblue" points="1481.72,-114.13 1492.18,-112.47 1482.97,-107.25 1481.72,-114.13"/>
</g>
<!-- Node20&#45;&gt;Node6 -->
<g id="edge36" class="edge">
<title>Node20&#45;&gt;Node6</title>
<path fill="none" stroke="midnightblue" d="M1635.56,-178.31C1726.43,-167.89 1856,-151.65 1863.5,-143 1872.53,-132.59 1872.88,-122.09 1863.5,-112 1825.57,-71.22 1446.83,-66.92 1299.6,-66.81"/>
<polygon fill="midnightblue" stroke="midnightblue" points="1635.05,-174.85 1625.51,-179.46 1635.85,-181.8 1635.05,-174.85"/>
</g>
<!-- Node21 -->
<g id="node21" class="node">
<title>Node21</title>
<g id="a_node21"><a xlink:href="NeumannNLFormIntegrator_8hpp.html" target="_top" xlink:title="Neumann integrator.">
<polygon fill="none" stroke="black" points="1670,-118 1670,-137 1855,-137 1855,-118 1670,-118"/>
<text text-anchor="middle" x="1762.5" y="-125" font-family="serif" font-size="10.00">NeumannNLFormIntegrator.hpp</text>
</a>
</g>
</g>
<!-- Node20&#45;&gt;Node21 -->
<g id="edge37" class="edge">
<title>Node20&#45;&gt;Node21</title>
<path fill="none" stroke="midnightblue" d="M1588.15,-176.75C1629.92,-165.19 1694.02,-147.45 1731.75,-137.01"/>
<polygon fill="midnightblue" stroke="midnightblue" points="1587.01,-173.43 1578.3,-179.48 1588.88,-180.18 1587.01,-173.43"/>
</g>
<!-- Node21&#45;&gt;Node6 -->
<g id="edge38" class="edge">
<title>Node21&#45;&gt;Node6</title>
<path fill="none" stroke="midnightblue" d="M1695.08,-116.58C1683.55,-114.98 1671.69,-113.4 1660.5,-112 1531.82,-95.95 1380.46,-80.55 1299.52,-72.6"/>
<polygon fill="midnightblue" stroke="midnightblue" points="1694.71,-120.07 1705.09,-117.99 1695.68,-113.13 1694.71,-120.07"/>
</g>
<!-- Node22&#45;&gt;Node6 -->
<g id="edge40" class="edge">
<title>Node22&#45;&gt;Node6</title>
<path fill="none" stroke="midnightblue" d="M1797.95,-177.39C1850.34,-165.94 1912.07,-144.79 1881.5,-112 1842.29,-69.94 1449.91,-66.45 1299.63,-66.68"/>
<polygon fill="midnightblue" stroke="midnightblue" points="1797.04,-174.01 1787.97,-179.49 1798.47,-180.86 1797.04,-174.01"/>
</g>
<!-- Node23&#45;&gt;Node6 -->
<g id="edge43" class="edge">
<title>Node23&#45;&gt;Node6</title>
<path fill="none" stroke="midnightblue" d="M857.88,-175.26C878.31,-166.34 906.13,-154.1 930.5,-143 959.99,-129.57 965.64,-121.9 996.5,-112 1058.68,-92.06 1132.75,-79.98 1183.04,-73.44"/>
<polygon fill="midnightblue" stroke="midnightblue" points="856.27,-172.14 848.5,-179.34 859.06,-178.56 856.27,-172.14"/>
</g>
<!-- Node23&#45;&gt;Node14 -->
<g id="edge42" class="edge">
<title>Node23&#45;&gt;Node14</title>
<path fill="none" stroke="midnightblue" d="M828.81,-169.32C829,-158.5 829.22,-145.4 829.36,-137.01"/>
<polygon fill="midnightblue" stroke="midnightblue" points="825.31,-169.42 828.64,-179.48 832.31,-169.54 825.31,-169.42"/>
</g>
<!-- Node25 -->
<g id="node25" class="node">
<title>Node25</title>
<g id="a_node25"><a xlink:href="SteadyOperator_8hpp.html" target="_top" xlink:title="Steady Operator.">
<polygon fill="none" stroke="black" points="2406.5,-118 2406.5,-137 2526.5,-137 2526.5,-118 2406.5,-118"/>
<text text-anchor="middle" x="2466.5" y="-125" font-family="serif" font-size="10.00">SteadyOperator.hpp</text>
</a>
</g>
</g>
<!-- Node24&#45;&gt;Node25 -->
<g id="edge45" class="edge">
<title>Node24&#45;&gt;Node25</title>
<path fill="none" stroke="midnightblue" d="M2581.36,-175.63C2553.19,-164.07 2511.88,-147.12 2487.24,-137.01"/>
<polygon fill="midnightblue" stroke="midnightblue" points="2580.14,-178.92 2590.73,-179.48 2582.8,-172.44 2580.14,-178.92"/>
</g>
<!-- Node28 -->
<g id="node28" class="node">
<title>Node28</title>
<g id="a_node28"><a xlink:href="TransientOperator_8hpp.html" target="_top" xlink:title="Transient Operator.">
<polygon fill="none" stroke="black" points="2544.5,-118 2544.5,-137 2678.5,-137 2678.5,-118 2544.5,-118"/>
<text text-anchor="middle" x="2611.5" y="-125" font-family="serif" font-size="10.00">TransientOperator.hpp</text>
</a>
</g>
</g>
<!-- Node24&#45;&gt;Node28 -->
<g id="edge48" class="edge">
<title>Node24&#45;&gt;Node28</title>
<path fill="none" stroke="midnightblue" d="M2611.5,-169.32C2611.5,-158.5 2611.5,-145.4 2611.5,-137.01"/>
<polygon fill="midnightblue" stroke="midnightblue" points="2608,-169.48 2611.5,-179.48 2615,-169.48 2608,-169.48"/>
</g>
<!-- Node26 -->
<g id="node26" class="node">
<title>Node26</title>
<g id="a_node26"><a xlink:href="ListOperators_8hpp.html" target="_top" xlink:title=" ">
<polygon fill="none" stroke="black" points="2556.5,-56.5 2556.5,-75.5 2666.5,-75.5 2666.5,-56.5 2556.5,-56.5"/>
<text text-anchor="middle" x="2611.5" y="-63.5" font-family="serif" font-size="10.00">ListOperators.hpp</text>
</a>
</g>
</g>
<!-- Node25&#45;&gt;Node26 -->
<g id="edge46" class="edge">
<title>Node25&#45;&gt;Node26</title>
<path fill="none" stroke="midnightblue" d="M2496.64,-114.13C2524.81,-102.57 2566.12,-85.62 2590.76,-75.51"/>
<polygon fill="midnightblue" stroke="midnightblue" points="2495.2,-110.94 2487.27,-117.98 2497.86,-117.42 2495.2,-110.94"/>
</g>
<!-- Node27 -->
<g id="node27" class="node">
<title>Node27</title>
<g id="a_node27"><a xlink:href="sloth_8hpp.html" target="_top" xlink:title="List of SLOTH header files.">
<polygon fill="none" stroke="black" points="2904,-0.5 2904,-19.5 2969,-19.5 2969,-0.5 2904,-0.5"/>
<text text-anchor="middle" x="2936.5" y="-7.5" font-family="serif" font-size="10.00">sloth.hpp</text>
</a>
</g>
</g>
<!-- Node26&#45;&gt;Node27 -->
<g id="edge47" class="edge">
<title>Node26&#45;&gt;Node27</title>
<path fill="none" stroke="midnightblue" d="M2673.22,-54.75C2741.7,-43.37 2849.64,-25.43 2903.56,-16.47"/>
<polygon fill="midnightblue" stroke="midnightblue" points="2672.29,-51.35 2663,-56.44 2673.44,-58.26 2672.29,-51.35"/>
</g>
<!-- Node28&#45;&gt;Node26 -->
<g id="edge49" class="edge">
<title>Node28&#45;&gt;Node26</title>
<path fill="none" stroke="midnightblue" d="M2611.5,-107.82C2611.5,-97 2611.5,-83.9 2611.5,-75.51"/>
<polygon fill="midnightblue" stroke="midnightblue" points="2608,-107.98 2611.5,-117.98 2615,-107.98 2608,-107.98"/>
</g>
<!-- Node30 -->
<g id="node30" class="node">
<title>Node30</title>
<g id="a_node30"><a xlink:href="Calphad__problem_8hpp.html" target="_top" xlink:title="Class used to defined a Calphad_Problem objet.">
<polygon fill="none" stroke="black" points="2697,-118 2697,-137 2828,-137 2828,-118 2697,-118"/>
<text text-anchor="middle" x="2762.5" y="-125" font-family="serif" font-size="10.00">Calphad_problem.hpp</text>
</a>
</g>
</g>
<!-- Node29&#45;&gt;Node30 -->
<g id="edge52" class="edge">
<title>Node29&#45;&gt;Node30</title>
<path fill="none" stroke="midnightblue" d="M2869.53,-175.33C2843.13,-163.78 2804.86,-147.03 2781.95,-137.01"/>
<polygon fill="midnightblue" stroke="midnightblue" points="2868.45,-178.67 2879.01,-179.48 2871.26,-172.26 2868.45,-178.67"/>
</g>
<!-- Node32 -->
<g id="node32" class="node">
<title>Node32</title>
<g id="a_node32"><a xlink:href="MPIProblem_8hpp.html" target="_top" xlink:title="Class used to defined a MPI_Problem objet.">
<polygon fill="none" stroke="black" points="2846.5,-118 2846.5,-137 2950.5,-137 2950.5,-118 2846.5,-118"/>
<text text-anchor="middle" x="2898.5" y="-125" font-family="serif" font-size="10.00">MPIProblem.hpp</text>
</a>
</g>
</g>
<!-- Node29&#45;&gt;Node32 -->
<g id="edge55" class="edge">
<title>Node29&#45;&gt;Node32</title>
<path fill="none" stroke="midnightblue" d="M2898.5,-169.32C2898.5,-158.5 2898.5,-145.4 2898.5,-137.01"/>
<polygon fill="midnightblue" stroke="midnightblue" points="2895,-169.48 2898.5,-179.48 2902,-169.48 2895,-169.48"/>
</g>
<!-- Node33 -->
<g id="node33" class="node">
<title>Node33</title>
<g id="a_node33"><a xlink:href="Problem_8hpp.html" target="_top" xlink:title="Class used to defined a PDE Problem.">
<polygon fill="none" stroke="black" points="3114,-118 3114,-137 3197,-137 3197,-118 3114,-118"/>
<text text-anchor="middle" x="3155.5" y="-125" font-family="serif" font-size="10.00">Problem.hpp</text>
</a>
</g>
</g>
<!-- Node29&#45;&gt;Node33 -->
<g id="edge57" class="edge">
<title>Node29&#45;&gt;Node33</title>
<path fill="none" stroke="midnightblue" d="M2951.91,-177.43C2993.85,-168.88 3053.63,-156.14 3105.5,-143 3112.6,-141.2 3120.21,-139.09 3127.3,-137.04"/>
<polygon fill="midnightblue" stroke="midnightblue" points="2951.02,-174.04 2941.92,-179.46 2952.41,-180.9 2951.02,-174.04"/>
</g>
<!-- Node35 -->
<g id="node35" class="node">
<title>Node35</title>
<g id="a_node35"><a xlink:href="PropertyProblem_8hpp.html" target="_top" xlink:title="Class used to compute primary variables as a function of auxialiary variables.">
<polygon fill="none" stroke="black" points="2969,-118 2969,-137 3096,-137 3096,-118 2969,-118"/>
<text text-anchor="middle" x="3032.5" y="-125" font-family="serif" font-size="10.00">PropertyProblem.hpp</text>
</a>
</g>
</g>
<!-- Node29&#45;&gt;Node35 -->
<g id="edge61" class="edge">
<title>Node29&#45;&gt;Node35</title>
<path fill="none" stroke="midnightblue" d="M2927.04,-175.33C2953.05,-163.78 2990.76,-147.03 3013.34,-137.01"/>
<polygon fill="midnightblue" stroke="midnightblue" points="2925.42,-172.22 2917.7,-179.48 2928.26,-178.62 2925.42,-172.22"/>
</g>
<!-- Node31 -->
<g id="node31" class="node">
<title>Node31</title>
<g id="a_node31"><a xlink:href="ListProblems_8hpp.html" target="_top" xlink:title=" ">
<polygon fill="none" stroke="black" points="2883,-56.5 2883,-75.5 2990,-75.5 2990,-56.5 2883,-56.5"/>
<text text-anchor="middle" x="2936.5" y="-63.5" font-family="serif" font-size="10.00">ListProblems.hpp</text>
</a>
</g>
</g>
<!-- Node30&#45;&gt;Node31 -->
<g id="edge53" class="edge">
<title>Node30&#45;&gt;Node31</title>
<path fill="none" stroke="midnightblue" d="M2796.91,-114.73C2830.74,-103.17 2881.53,-85.8 2911.62,-75.51"/>
<polygon fill="midnightblue" stroke="midnightblue" points="2795.76,-111.43 2787.43,-117.98 2798.02,-118.05 2795.76,-111.43"/>
</g>
<!-- Node31&#45;&gt;Node27 -->
<g id="edge54" class="edge">
<title>Node31&#45;&gt;Node27</title>
<path fill="none" stroke="midnightblue" d="M2936.5,-45.8C2936.5,-36.91 2936.5,-26.78 2936.5,-19.75"/>
<polygon fill="midnightblue" stroke="midnightblue" points="2933,-46.08 2936.5,-56.08 2940,-46.08 2933,-46.08"/>
</g>
<!-- Node32&#45;&gt;Node31 -->
<g id="edge56" class="edge">
<title>Node32&#45;&gt;Node31</title>
<path fill="none" stroke="midnightblue" d="M2909.35,-109.51C2916.45,-98.39 2925.43,-84.34 2931.07,-75.51"/>
<polygon fill="midnightblue" stroke="midnightblue" points="2906.38,-107.66 2903.94,-117.98 2912.28,-111.43 2906.38,-107.66"/>
</g>
<!-- Node33&#45;&gt;Node31 -->
<g id="edge58" class="edge">
<title>Node33&#45;&gt;Node31</title>
<path fill="none" stroke="midnightblue" d="M3116.61,-115.13C3112.86,-114.06 3109.11,-113 3105.5,-112 3058.4,-98.9 3003.7,-84.48 2969.59,-75.58"/>
<polygon fill="midnightblue" stroke="midnightblue" points="3115.87,-118.56 3126.45,-117.96 3117.8,-111.83 3115.87,-118.56"/>
</g>
<!-- Node34 -->
<g id="node34" class="node">
<title>Node34</title>
<g id="a_node34"><a xlink:href="Time_8hpp.html" target="_top" xlink:title="Main time loop.">
<polygon fill="none" stroke="black" points="3084,-56.5 3084,-75.5 3149,-75.5 3149,-56.5 3084,-56.5"/>
<text text-anchor="middle" x="3116.5" y="-63.5" font-family="serif" font-size="10.00">Time.hpp</text>
</a>
</g>
</g>
<!-- Node33&#45;&gt;Node34 -->
<g id="edge59" class="edge">
<title>Node33&#45;&gt;Node34</title>
<path fill="none" stroke="midnightblue" d="M3144.36,-109.51C3137.07,-98.39 3127.87,-84.34 3122.08,-75.51"/>
<polygon fill="midnightblue" stroke="midnightblue" points="3141.5,-111.53 3149.91,-117.98 3147.36,-107.69 3141.5,-111.53"/>
</g>
<!-- Node34&#45;&gt;Node27 -->
<g id="edge60" class="edge">
<title>Node34&#45;&gt;Node27</title>
<path fill="none" stroke="midnightblue" d="M3078.39,-53.57C3044.44,-43.38 2995.51,-28.7 2964.89,-19.52"/>
<polygon fill="midnightblue" stroke="midnightblue" points="3077.39,-56.92 3087.98,-56.44 3079.41,-50.22 3077.39,-56.92"/>
</g>
<!-- Node35&#45;&gt;Node31 -->
<g id="edge62" class="edge">
<title>Node35&#45;&gt;Node31</title>
<path fill="none" stroke="midnightblue" d="M3010.05,-112.59C2991.53,-101.1 2965.83,-85.18 2950.23,-75.51"/>
<polygon fill="midnightblue" stroke="midnightblue" points="3008.4,-115.68 3018.75,-117.98 3012.09,-109.73 3008.4,-115.68"/>
</g>
</g>
</svg>
        <g id="navigator" transform="translate(0 0)" fill="#404254">
                <rect fill="#f2f5e9" fill-opacity="0.5" stroke="#606060" stroke-width=".5" x="0" y="0" width="60" height="60"/>
                <use id="zoomplus" xlink:href="#zoomPlus" x="17" y="9" onmousedown="handleZoom(evt,'in')"/>
                <use id="zoomminus" xlink:href="#zoomMin" x="42" y="9" onmousedown="handleZoom(evt,'out')"/>
                <use id="reset" xlink:href="#resetDef" x="30" y="36" onmousedown="handleReset()"/>
                <g id="arrowUp" xlink:href="#dirArrow" transform="translate(30 24)" onmousedown="handlePan(0,-1)">
                  <use xlink:href="#rim" fill="#404040">
                        <set attributeName="fill" to="#808080" begin="arrowUp.mouseover" end="arrowUp.mouseout"/>
                  </use>
                  <path fill="none" stroke="white" stroke-width="1.5" d="M0,-3.0v7 M-2.5,-0.5L0,-3.0L2.5,-0.5"/>
                </g>
                <g id="arrowRight" xlink:href="#dirArrow" transform="rotate(90) translate(36 -43)" onmousedown="handlePan(1,0)">
                  <use xlink:href="#rim" fill="#404040">
                        <set attributeName="fill" to="#808080" begin="arrowRight.mouseover" end="arrowRight.mouseout"/>
                  </use>
                  <path fill="none" stroke="white" stroke-width="1.5" d="M0,-3.0v7 M-2.5,-0.5L0,-3.0L2.5,-0.5"/>
                </g>
                <g id="arrowDown" xlink:href="#dirArrow" transform="rotate(180) translate(-30 -48)" onmousedown="handlePan(0,1)">
                  <use xlink:href="#rim" fill="#404040">
                        <set attributeName="fill" to="#808080" begin="arrowDown.mouseover" end="arrowDown.mouseout"/>
                  </use>
                  <path fill="none" stroke="white" stroke-width="1.5" d="M0,-3.0v7 M-2.5,-0.5L0,-3.0L2.5,-0.5"/>
                </g>
                <g id="arrowLeft" xlink:href="#dirArrow" transform="rotate(270) translate(-36 17)" onmousedown="handlePan(-1,0)">
                  <use xlink:href="#rim" fill="#404040">
                        <set attributeName="fill" to="#808080" begin="arrowLeft.mouseover" end="arrowLeft.mouseout"/>
                  </use>
                  <path fill="none" stroke="white" stroke-width="1.5" d="M0,-3.0v7 M-2.5,-0.5L0,-3.0L2.5,-0.5"/>
                </g>
        </g>
        <svg viewBox="0 0 15 15" width="100%" height="30px" preserveAspectRatio="xMaxYMin meet">
         <g id="arrow_out" transform="scale(0.3 0.3)">
          <a xlink:href="Coefficients_8hpp__dep__incl_org.svg" target="_base">
           <rect id="button" ry="5" rx="5" y="6" x="6" height="38" width="38"
                fill="#f2f5e9" fill-opacity="0.5" stroke="#606060" stroke-width="1.0"/>
           <path id="arrow"
             d="M 11.500037,31.436501 C 11.940474,20.09759 22.043105,11.32322 32.158766,21.979434 L 37.068811,17.246167 C 37.068811,17.246167 37.088388,32 37.088388,32 L 22.160133,31.978069 C 22.160133,31.978069 26.997745,27.140456 26.997745,27.140456 C 18.528582,18.264221 13.291696,25.230495 11.500037,31.436501 z"
             style="fill:#404040;"/>
          </a>
         </g>
        </svg>
</svg>
