<?xml version="1.0" encoding="UTF-8" standalone="no"?>
<!DOCTYPE svg PUBLIC "-//W3C//DTD SVG 1.1//EN"
 "http://www.w3.org/Graphics/SVG/1.1/DTD/svg11.dtd">
<!-- Generated by graphviz version 2.43.0 (0)
 -->
<!-- Title: Coefficient.hpp Pages: 1 -->
<svg width="3391pt" height="375pt"
 viewBox="0.00 0.00 3391.00 375.00" xmlns="http://www.w3.org/2000/svg" xmlns:xlink="http://www.w3.org/1999/xlink">
<g id="graph0" class="graph" transform="scale(1 1) rotate(0) translate(4 371)">
<title>Coefficient.hpp</title>
<!-- Node1 -->
<g id="node1" class="node">
<title>Node1</title>
<g id="a_node1"><a xlink:title="Base class definining a coefficient from an analytical formula.">
<polygon fill="#bfbfbf" stroke="black" points="2966,-347.5 2966,-366.5 3060,-366.5 3060,-347.5 2966,-347.5"/>
<text text-anchor="middle" x="3013" y="-354.5" font-family="serif" font-size="10.00">Coefficient.hpp</text>
</a>
</g>
</g>
<!-- Node2 -->
<g id="node2" class="node">
<title>Node2</title>
<g id="a_node2"><a xlink:href="KKS_8hpp.html" target="_top" xlink:title="All needed for Calphad calculation including KKS model.">
<polygon fill="none" stroke="black" points="3041,-291.5 3041,-310.5 3103,-310.5 3103,-291.5 3041,-291.5"/>
<text text-anchor="middle" x="3072" y="-298.5" font-family="serif" font-size="10.00">KKS.hpp</text>
</a>
</g>
</g>
<!-- Node1&#45;&gt;Node2 -->
<g id="edge1" class="edge">
<title>Node1&#45;&gt;Node2</title>
<path fill="none" stroke="midnightblue" d="M3029.89,-340.54C3040.41,-330.91 3053.57,-318.87 3062.35,-310.83"/>
<polygon fill="midnightblue" stroke="midnightblue" points="3027.49,-337.99 3022.48,-347.32 3032.22,-343.15 3027.49,-337.99"/>
</g>
<!-- Node4 -->
<g id="node4" class="node">
<title>Node4</title>
<g id="a_node4"><a xlink:href="Coefficients_8hpp.html" target="_top" xlink:title="Coefficients class used to build and manage a collection of Coefficient.">
<polygon fill="none" stroke="black" points="2815.5,-291.5 2815.5,-310.5 2914.5,-310.5 2914.5,-291.5 2815.5,-291.5"/>
<text text-anchor="middle" x="2865" y="-298.5" font-family="serif" font-size="10.00">Coefficients.hpp</text>
</a>
</g>
</g>
<!-- Node1&#45;&gt;Node4 -->
<g id="edge3" class="edge">
<title>Node1&#45;&gt;Node4</title>
<path fill="none" stroke="midnightblue" d="M2979.85,-343.91C2952.03,-333.75 2912.98,-319.51 2888.34,-310.52"/>
<polygon fill="midnightblue" stroke="midnightblue" points="2978.96,-347.3 2989.55,-347.44 2981.35,-340.73 2978.96,-347.3"/>
</g>
<!-- Node6 -->
<g id="node6" class="node">
<title>Node6</title>
<g id="a_node6"><a xlink:href="SlothNLFormIntegrator_8hpp.html" target="_top" xlink:title="Class prodiving common methods to all NLFormIntegrators.">
<polygon fill="none" stroke="black" points="1409,-235.5 1409,-254.5 1569,-254.5 1569,-235.5 1409,-235.5"/>
<text text-anchor="middle" x="1489" y="-242.5" font-family="serif" font-size="10.00">SlothNLFormIntegrator.hpp</text>
</a>
</g>
</g>
<!-- Node1&#45;&gt;Node6 -->
<g id="edge67" class="edge">
<title>Node1&#45;&gt;Node6</title>
<path fill="none" stroke="midnightblue" d="M2955.73,-351.87C2722.08,-335 1840.47,-271.37 1569.04,-251.78"/>
<polygon fill="midnightblue" stroke="midnightblue" points="2955.49,-355.36 2965.72,-352.59 2956,-348.38 2955.49,-355.36"/>
</g>
<!-- Node38 -->
<g id="node38" class="node">
<title>Node38</title>
<g id="a_node38"><a xlink:href="Coefficients_8cpp.html" target="_top" xlink:title="Coefficients class used to build and manage a collection of Coefficient.">
<polygon fill="none" stroke="black" points="3000,-235.5 3000,-254.5 3098,-254.5 3098,-235.5 3000,-235.5"/>
<text text-anchor="middle" x="3049" y="-242.5" font-family="serif" font-size="10.00">Coefficients.cpp</text>
</a>
</g>
</g>
<!-- Node1&#45;&gt;Node38 -->
<g id="edge69" class="edge">
<title>Node1&#45;&gt;Node38</title>
<path fill="none" stroke="midnightblue" d="M3018.03,-337.41C3021.66,-324.35 3026.81,-306.51 3032,-291 3036.29,-278.17 3041.96,-263.56 3045.54,-254.56"/>
<polygon fill="midnightblue" stroke="midnightblue" points="3014.64,-336.53 3015.37,-347.1 3021.39,-338.38 3014.64,-336.53"/>
</g>
<!-- Node39 -->
<g id="node39" class="node">
<title>Node39</title>
<g id="a_node39"><a xlink:href="Coefficient_8cpp.html" target="_top" xlink:title="Base class definining a coefficient from an analytical formula.">
<polygon fill="none" stroke="black" points="3121,-291.5 3121,-310.5 3213,-310.5 3213,-291.5 3121,-291.5"/>
<text text-anchor="middle" x="3167" y="-298.5" font-family="serif" font-size="10.00">Coefficient.cpp</text>
</a>
</g>
</g>
<!-- Node1&#45;&gt;Node39 -->
<g id="edge68" class="edge">
<title>Node1&#45;&gt;Node39</title>
<path fill="none" stroke="midnightblue" d="M3047.11,-344.04C3076.09,-333.88 3116.96,-319.55 3142.71,-310.52"/>
<polygon fill="midnightblue" stroke="midnightblue" points="3045.68,-340.83 3037.4,-347.44 3048,-347.44 3045.68,-340.83"/>
</g>
<!-- Node3 -->
<g id="node3" class="node">
<title>Node3</title>
<g id="a_node3"><a xlink:href="sloth_8hpp.html" target="_top" xlink:title="List of SLOTH header files.">
<polygon fill="none" stroke="black" points="2935.5,-0.5 2935.5,-19.5 3000.5,-19.5 3000.5,-0.5 2935.5,-0.5"/>
<text text-anchor="middle" x="2968" y="-7.5" font-family="serif" font-size="10.00">sloth.hpp</text>
</a>
</g>
</g>
<!-- Node2&#45;&gt;Node3 -->
<g id="edge2" class="edge">
<title>Node2&#45;&gt;Node3</title>
<path fill="none" stroke="midnightblue" d="M3113.03,-289.89C3197.5,-268.5 3383,-218.31 3383,-190 3383,-190 3383,-190 3383,-126.5 3383,-47.23 3098.4,-20.04 3000.56,-13.04"/>
<polygon fill="midnightblue" stroke="midnightblue" points="3112.09,-286.52 3103.24,-292.35 3113.8,-293.31 3112.09,-286.52"/>
</g>
<!-- Node5 -->
<g id="node5" class="node">
<title>Node5</title>
<g id="a_node5"><a xlink:href="MfemCoefficient_8hpp.html" target="_top" xlink:title="Built a MFEM Coefficient from a SLOTH Coefficient.">
<polygon fill="none" stroke="black" points="2858,-235.5 2858,-254.5 2982,-254.5 2982,-235.5 2858,-235.5"/>
<text text-anchor="middle" x="2920" y="-242.5" font-family="serif" font-size="10.00">MfemCoefficient.hpp</text>
</a>
</g>
</g>
<!-- Node4&#45;&gt;Node5 -->
<g id="edge4" class="edge">
<title>Node4&#45;&gt;Node5</title>
<path fill="none" stroke="midnightblue" d="M2881.29,-284C2891.04,-274.43 2903.05,-262.64 2911.09,-254.75"/>
<polygon fill="midnightblue" stroke="midnightblue" points="2878.77,-281.58 2874.08,-291.08 2883.67,-286.57 2878.77,-281.58"/>
</g>
<!-- Node4&#45;&gt;Node6 -->
<g id="edge5" class="edge">
<title>Node4&#45;&gt;Node6</title>
<path fill="none" stroke="midnightblue" d="M2805.14,-297.65C2584.93,-289.01 1819.59,-258.97 1569.06,-249.14"/>
<polygon fill="midnightblue" stroke="midnightblue" points="2805.08,-301.15 2815.21,-298.05 2805.36,-294.16 2805.08,-301.15"/>
</g>
<!-- Node27 -->
<g id="node27" class="node">
<title>Node27</title>
<g id="a_node27"><a xlink:href="OperatorBase_8hpp.html" target="_top" xlink:title="Base class for building Steady and TimeDependent PhaseFieldOperators.">
<polygon fill="none" stroke="black" points="2737,-179.5 2737,-198.5 2847,-198.5 2847,-179.5 2737,-179.5"/>
<text text-anchor="middle" x="2792" y="-186.5" font-family="serif" font-size="10.00">OperatorBase.hpp</text>
</a>
</g>
</g>
<!-- Node4&#45;&gt;Node27 -->
<g id="edge53" class="edge">
<title>Node4&#45;&gt;Node27</title>
<path fill="none" stroke="midnightblue" d="M2844.53,-284.96C2834.8,-276.96 2823.66,-266.43 2816,-255 2803.8,-236.82 2796.82,-211.64 2793.8,-198.6"/>
<polygon fill="midnightblue" stroke="midnightblue" points="2842.56,-287.87 2852.58,-291.3 2846.88,-282.36 2842.56,-287.87"/>
</g>
<!-- Node31 -->
<g id="node31" class="node">
<title>Node31</title>
<g id="a_node31"><a xlink:href="ProblemBase_8hpp.html" target="_top" xlink:title="Base class for building Problems.">
<polygon fill="none" stroke="black" points="2967.5,-179.5 2967.5,-198.5 3074.5,-198.5 3074.5,-179.5 2967.5,-179.5"/>
<text text-anchor="middle" x="3021" y="-186.5" font-family="serif" font-size="10.00">ProblemBase.hpp</text>
</a>
</g>
</g>
<!-- Node4&#45;&gt;Node31 -->
<g id="edge54" class="edge">
<title>Node4&#45;&gt;Node31</title>
<path fill="none" stroke="midnightblue" d="M2853.48,-282.75C2845.62,-268.61 2838.38,-248.75 2849,-235 2863.48,-216.25 2922.43,-203.81 2967.32,-196.85"/>
<polygon fill="midnightblue" stroke="midnightblue" points="2850.62,-284.77 2858.81,-291.48 2856.59,-281.12 2850.62,-284.77"/>
</g>
<!-- Node4&#45;&gt;Node38 -->
<g id="edge66" class="edge">
<title>Node4&#45;&gt;Node38</title>
<path fill="none" stroke="midnightblue" d="M2903.95,-288.57C2938.66,-278.38 2988.68,-263.7 3019.98,-254.52"/>
<polygon fill="midnightblue" stroke="midnightblue" points="2902.77,-285.27 2894.16,-291.44 2904.74,-291.99 2902.77,-285.27"/>
</g>
<!-- Node7 -->
<g id="node7" class="node">
<title>Node7</title>
<g id="a_node7"><a xlink:href="AllenCahnGrainsNLFormIntegrator_8hpp.html" target="_top" xlink:title="VF for Allen&#45;Cahn equation solved in a polycrystal.">
<polygon fill="none" stroke="black" points="2073.5,-179.5 2073.5,-198.5 2294.5,-198.5 2294.5,-179.5 2073.5,-179.5"/>
<text text-anchor="middle" x="2184" y="-186.5" font-family="serif" font-size="10.00">AllenCahnGrainsNLFormIntegrator.hpp</text>
</a>
</g>
</g>
<!-- Node6&#45;&gt;Node7 -->
<g id="edge6" class="edge">
<title>Node6&#45;&gt;Node7</title>
<path fill="none" stroke="midnightblue" d="M1579.16,-237C1706.25,-227.12 1937.8,-209.13 2074.58,-198.5"/>
<polygon fill="midnightblue" stroke="midnightblue" points="1578.76,-233.51 1569.06,-237.78 1579.31,-240.49 1578.76,-233.51"/>
</g>
<!-- Node8 -->
<g id="node8" class="node">
<title>Node8</title>
<g id="a_node8"><a xlink:href="AllenCahnNLFormIntegrator_8hpp.html" target="_top" xlink:title="VF of the Allen Cahn equation.">
<polygon fill="none" stroke="black" points="922.5,-179.5 922.5,-198.5 1109.5,-198.5 1109.5,-179.5 922.5,-179.5"/>
<text text-anchor="middle" x="1016" y="-186.5" font-family="serif" font-size="10.00">AllenCahnNLFormIntegrator.hpp</text>
</a>
</g>
</g>
<!-- Node6&#45;&gt;Node8 -->
<g id="edge7" class="edge">
<title>Node6&#45;&gt;Node8</title>
<path fill="none" stroke="midnightblue" d="M1404.22,-234.32C1315,-224.14 1175.91,-208.26 1090.69,-198.53"/>
<polygon fill="midnightblue" stroke="midnightblue" points="1403.98,-237.82 1414.31,-235.47 1404.77,-230.86 1403.98,-237.82"/>
</g>
<!-- Node9 -->
<g id="node9" class="node">
<title>Node9</title>
<g id="a_node9"><a xlink:href="ListIntegrators_8hpp.html" target="_top" xlink:title="List of header files contained in the Integrators directory.">
<polygon fill="none" stroke="black" points="1113,-56.5 1113,-75.5 1229,-75.5 1229,-56.5 1113,-56.5"/>
<text text-anchor="middle" x="1171" y="-63.5" font-family="serif" font-size="10.00">ListIntegrators.hpp</text>
</a>
</g>
</g>
<!-- Node6&#45;&gt;Node9 -->
<g id="edge27" class="edge">
<title>Node6&#45;&gt;Node9</title>
<path fill="none" stroke="midnightblue" d="M1398.58,-243.52C1244.67,-241.76 945.23,-233.84 913,-199 877.68,-160.82 1067.69,-98.21 1142.11,-75.54"/>
<polygon fill="midnightblue" stroke="midnightblue" points="1398.91,-247.03 1408.95,-243.64 1398.99,-240.03 1398.91,-247.03"/>
</g>
<!-- Node10 -->
<g id="node10" class="node">
<title>Node10</title>
<g id="a_node10"><a xlink:href="BlockAllenCahnNLFormIntegrator_8hpp.html" target="_top" xlink:title="VF of the AllenCahn equations (splitted form)">
<polygon fill="none" stroke="black" points="1127.5,-179.5 1127.5,-198.5 1342.5,-198.5 1342.5,-179.5 1127.5,-179.5"/>
<text text-anchor="middle" x="1235" y="-186.5" font-family="serif" font-size="10.00">BlockAllenCahnNLFormIntegrator.hpp</text>
</a>
</g>
</g>
<!-- Node6&#45;&gt;Node10 -->
<g id="edge9" class="edge">
<title>Node6&#45;&gt;Node10</title>
<path fill="none" stroke="midnightblue" d="M1438.88,-233.35C1390.88,-223.14 1319.38,-207.94 1275.06,-198.52"/>
<polygon fill="midnightblue" stroke="midnightblue" points="1438.24,-236.79 1448.75,-235.44 1439.7,-229.94 1438.24,-236.79"/>
</g>
<!-- Node11 -->
<g id="node11" class="node">
<title>Node11</title>
<g id="a_node11"><a xlink:href="CahnHilliardNLFormIntegrator_8hpp.html" target="_top" xlink:title="VF of the CahnHilliard equations.">
<polygon fill="none" stroke="black" points="1635.5,-179.5 1635.5,-198.5 1834.5,-198.5 1834.5,-179.5 1635.5,-179.5"/>
<text text-anchor="middle" x="1735" y="-186.5" font-family="serif" font-size="10.00">CahnHilliardNLFormIntegrator.hpp</text>
</a>
</g>
</g>
<!-- Node6&#45;&gt;Node11 -->
<g id="edge11" class="edge">
<title>Node6&#45;&gt;Node11</title>
<path fill="none" stroke="midnightblue" d="M1537.83,-233.28C1584.32,-223.08 1653.36,-207.92 1696.2,-198.52"/>
<polygon fill="midnightblue" stroke="midnightblue" points="1537,-229.88 1527.98,-235.44 1538.5,-236.72 1537,-229.88"/>
</g>
<!-- Node12 -->
<g id="node12" class="node">
<title>Node12</title>
<g id="a_node12"><a xlink:href="DiffusionFluxNLFormIntegrator_8hpp.html" target="_top" xlink:title="inter&#45;diffusion integrator">
<polygon fill="none" stroke="black" points="1853,-179.5 1853,-198.5 2055,-198.5 2055,-179.5 1853,-179.5"/>
<text text-anchor="middle" x="1954" y="-186.5" font-family="serif" font-size="10.00">DiffusionFluxNLFormIntegrator.hpp</text>
</a>
</g>
</g>
<!-- Node6&#45;&gt;Node12 -->
<g id="edge13" class="edge">
<title>Node6&#45;&gt;Node12</title>
<path fill="none" stroke="midnightblue" d="M1572.61,-234.29C1660.33,-224.1 1796.88,-208.25 1880.58,-198.53"/>
<polygon fill="midnightblue" stroke="midnightblue" points="1571.95,-230.84 1562.42,-235.47 1572.76,-237.8 1571.95,-230.84"/>
</g>
<!-- Node14 -->
<g id="node14" class="node">
<title>Node14</title>
<g id="a_node14"><a xlink:href="DiffusionNLFormIntegrator_8hpp.html" target="_top" xlink:title="Nonlinear form integrator for diffusion&#45;type problems.">
<polygon fill="none" stroke="black" points="1399.5,-179.5 1399.5,-198.5 1578.5,-198.5 1578.5,-179.5 1399.5,-179.5"/>
<text text-anchor="middle" x="1489" y="-186.5" font-family="serif" font-size="10.00">DiffusionNLFormIntegrator.hpp</text>
</a>
</g>
</g>
<!-- Node6&#45;&gt;Node14 -->
<g id="edge16" class="edge">
<title>Node6&#45;&gt;Node14</title>
<path fill="none" stroke="midnightblue" d="M1489,-224.8C1489,-215.91 1489,-205.78 1489,-198.75"/>
<polygon fill="midnightblue" stroke="midnightblue" points="1485.5,-225.08 1489,-235.08 1492.5,-225.08 1485.5,-225.08"/>
</g>
<!-- Node15 -->
<g id="node15" class="node">
<title>Node15</title>
<g id="a_node15"><a xlink:href="FickNLFormIntegrator_8hpp.html" target="_top" xlink:title="FV for the mass diffusion equation.">
<polygon fill="none" stroke="black" points="1442.5,-118 1442.5,-137 1597.5,-137 1597.5,-118 1442.5,-118"/>
<text text-anchor="middle" x="1520" y="-125" font-family="serif" font-size="10.00">FickNLFormIntegrator.hpp</text>
</a>
</g>
</g>
<!-- Node6&#45;&gt;Node15 -->
<g id="edge21" class="edge">
<title>Node6&#45;&gt;Node15</title>
<path fill="none" stroke="midnightblue" d="M1541.7,-232.13C1559.15,-225.42 1576.73,-215.02 1587,-199 1603.22,-173.7 1564.49,-149.5 1539.39,-137.1"/>
<polygon fill="midnightblue" stroke="midnightblue" points="1540.36,-228.89 1532.07,-235.49 1542.66,-235.5 1540.36,-228.89"/>
</g>
<!-- Node16 -->
<g id="node16" class="node">
<title>Node16</title>
<g id="a_node16"><a xlink:href="FourierNLFormIntegrator_8hpp.html" target="_top" xlink:title="FV for the heat transfer equation.">
<polygon fill="none" stroke="black" points="1253.5,-118 1253.5,-137 1424.5,-137 1424.5,-118 1253.5,-118"/>
<text text-anchor="middle" x="1339" y="-125" font-family="serif" font-size="10.00">FourierNLFormIntegrator.hpp</text>
</a>
</g>
</g>
<!-- Node6&#45;&gt;Node16 -->
<g id="edge22" class="edge">
<title>Node6&#45;&gt;Node16</title>
<path fill="none" stroke="midnightblue" d="M1450.84,-231.97C1431.28,-224.55 1407.88,-213.62 1390,-199 1368.25,-181.21 1351.18,-152.05 1343.48,-137.44"/>
<polygon fill="midnightblue" stroke="midnightblue" points="1449.78,-235.31 1460.38,-235.43 1452.17,-228.73 1449.78,-235.31"/>
</g>
<!-- Node17 -->
<g id="node17" class="node">
<title>Node17</title>
<g id="a_node17"><a xlink:href="HeatTimeNLFormIntegrator_8hpp.html" target="_top" xlink:title="VF of the time derivative.">
<polygon fill="none" stroke="black" points="2218,-118 2218,-137 2402,-137 2402,-118 2218,-118"/>
<text text-anchor="middle" x="2310" y="-125" font-family="serif" font-size="10.00">HeatTimeNLFormIntegrator.hpp</text>
</a>
</g>
</g>
<!-- Node6&#45;&gt;Node17 -->
<g id="edge23" class="edge">
<title>Node6&#45;&gt;Node17</title>
<path fill="none" stroke="midnightblue" d="M1579.41,-242.13C1786.06,-237.42 2277.2,-223.69 2303,-199 2319.7,-183.01 2315.65,-152.48 2312.32,-137.4"/>
<polygon fill="midnightblue" stroke="midnightblue" points="1579.11,-238.63 1569.19,-242.36 1579.27,-245.63 1579.11,-238.63"/>
</g>
<!-- Node18 -->
<g id="node18" class="node">
<title>Node18</title>
<g id="a_node18"><a xlink:href="LatentHeatNLFormIntegrator_8hpp.html" target="_top" xlink:title="Latent heat contribution for heat transfer equation.">
<polygon fill="none" stroke="black" points="2527.5,-179.5 2527.5,-198.5 2718.5,-198.5 2718.5,-179.5 2527.5,-179.5"/>
<text text-anchor="middle" x="2623" y="-186.5" font-family="serif" font-size="10.00">LatentHeatNLFormIntegrator.hpp</text>
</a>
</g>
</g>
<!-- Node6&#45;&gt;Node18 -->
<g id="edge25" class="edge">
<title>Node6&#45;&gt;Node18</title>
<path fill="none" stroke="midnightblue" d="M1579.28,-241.32C1758.41,-235.72 2171.41,-221.42 2518,-199 2521.1,-198.8 2524.26,-198.59 2527.44,-198.36"/>
<polygon fill="midnightblue" stroke="midnightblue" points="1579,-237.83 1569.12,-241.64 1579.22,-244.82 1579,-237.83"/>
</g>
<!-- Node19 -->
<g id="node19" class="node">
<title>Node19</title>
<g id="a_node19"><a xlink:href="MeltingBaseNLFormIntegrator_8hpp.html" target="_top" xlink:title="Base class for melting integrators.">
<polygon fill="none" stroke="black" points="217,-179.5 217,-198.5 415,-198.5 415,-179.5 217,-179.5"/>
<text text-anchor="middle" x="316" y="-186.5" font-family="serif" font-size="10.00">MeltingBaseNLFormIntegrator.hpp</text>
</a>
</g>
</g>
<!-- Node6&#45;&gt;Node19 -->
<g id="edge28" class="edge">
<title>Node6&#45;&gt;Node19</title>
<path fill="none" stroke="midnightblue" d="M1398.72,-241.3C1215.69,-235.56 787.85,-220.9 429,-199 424.48,-198.72 419.86,-198.43 415.2,-198.11"/>
<polygon fill="midnightblue" stroke="midnightblue" points="1398.73,-244.8 1408.83,-241.61 1398.95,-237.8 1398.73,-244.8"/>
</g>
<!-- Node20 -->
<g id="node20" class="node">
<title>Node20</title>
<g id="a_node20"><a xlink:href="MeltingCalphadNLFormIntegrator_8hpp.html" target="_top" xlink:title="NonlinearFormIntegrator for ad&#45;hoc melting term based on temperature.">
<polygon fill="none" stroke="black" points="0,-118 0,-137 216,-137 216,-118 0,-118"/>
<text text-anchor="middle" x="108" y="-125" font-family="serif" font-size="10.00">MeltingCalphadNLFormIntegrator.hpp</text>
</a>
</g>
</g>
<!-- Node6&#45;&gt;Node20 -->
<g id="edge35" class="edge">
<title>Node6&#45;&gt;Node20</title>
<path fill="none" stroke="midnightblue" d="M1398.48,-243.8C1125.1,-242.79 319.8,-236.62 208,-199 169.35,-185.99 132.42,-152.84 116.38,-137.08"/>
<polygon fill="midnightblue" stroke="midnightblue" points="1398.75,-247.3 1408.76,-243.84 1398.77,-240.3 1398.75,-247.3"/>
</g>
<!-- Node21 -->
<g id="node21" class="node">
<title>Node21</title>
<g id="a_node21"><a xlink:href="MeltingConstantNLFormIntegrator_8hpp.html" target="_top" xlink:title="NonlinearFormIntegrator for ad&#45;hoc constant melting term.">
<polygon fill="none" stroke="black" points="234.5,-118 234.5,-137 453.5,-137 453.5,-118 234.5,-118"/>
<text text-anchor="middle" x="344" y="-125" font-family="serif" font-size="10.00">MeltingConstantNLFormIntegrator.hpp</text>
</a>
</g>
</g>
<!-- Node6&#45;&gt;Node21 -->
<g id="edge36" class="edge">
<title>Node6&#45;&gt;Node21</title>
<path fill="none" stroke="midnightblue" d="M1398.57,-244.53C1186.3,-245.04 661.26,-241.77 491,-199 438.29,-185.76 381.96,-152.72 357.09,-137.03"/>
<polygon fill="midnightblue" stroke="midnightblue" points="1398.75,-248.03 1408.74,-244.5 1398.73,-241.03 1398.75,-248.03"/>
</g>
<!-- Node22 -->
<g id="node22" class="node">
<title>Node22</title>
<g id="a_node22"><a xlink:href="MeltingTemperatureNLFormIntegrator_8hpp.html" target="_top" xlink:title="NonlinearFormIntegrator for ad&#45;hoc melting term based on temperature.">
<polygon fill="none" stroke="black" points="471.5,-112.5 471.5,-142.5 636.5,-142.5 636.5,-112.5 471.5,-112.5"/>
<text text-anchor="start" x="479.5" y="-130.5" font-family="serif" font-size="10.00">MeltingTemperatureNLForm</text>
<text text-anchor="middle" x="554" y="-119.5" font-family="serif" font-size="10.00">Integrator.hpp</text>
</a>
</g>
</g>
<!-- Node6&#45;&gt;Node22 -->
<g id="edge37" class="edge">
<title>Node6&#45;&gt;Node22</title>
<path fill="none" stroke="midnightblue" d="M1398.92,-243.23C1160.8,-240.77 530.78,-231.22 500,-199 482.75,-180.94 508.95,-157.51 530.53,-142.73"/>
<polygon fill="midnightblue" stroke="midnightblue" points="1398.9,-246.73 1408.93,-243.34 1398.97,-239.73 1398.9,-246.73"/>
</g>
<!-- Node23 -->
<g id="node23" class="node">
<title>Node23</title>
<g id="a_node23"><a xlink:href="RobinNLFormIntegrator_8hpp.html" target="_top" xlink:title="Robin integrator.">
<polygon fill="none" stroke="black" points="509,-179.5 509,-198.5 673,-198.5 673,-179.5 509,-179.5"/>
<text text-anchor="middle" x="591" y="-186.5" font-family="serif" font-size="10.00">RobinNLFormIntegrator.hpp</text>
</a>
</g>
</g>
<!-- Node6&#45;&gt;Node23 -->
<g id="edge38" class="edge">
<title>Node6&#45;&gt;Node23</title>
<path fill="none" stroke="midnightblue" d="M1398.71,-240.23C1249.43,-233.71 941.85,-219.09 682,-199 679.15,-198.78 676.25,-198.55 673.33,-198.3"/>
<polygon fill="midnightblue" stroke="midnightblue" points="1398.6,-243.73 1408.75,-240.67 1398.91,-236.74 1398.6,-243.73"/>
</g>
<!-- Node25 -->
<g id="node25" class="node">
<title>Node25</title>
<g id="a_node25"><a xlink:href="TimeCHNLFormIntegrator_8hpp.html" target="_top" xlink:title="VF of the time derivative for CH equations.">
<polygon fill="none" stroke="black" points="691,-179.5 691,-198.5 867,-198.5 867,-179.5 691,-179.5"/>
<text text-anchor="middle" x="779" y="-186.5" font-family="serif" font-size="10.00">TimeCHNLFormIntegrator.hpp</text>
</a>
</g>
</g>
<!-- Node6&#45;&gt;Node25 -->
<g id="edge42" class="edge">
<title>Node6&#45;&gt;Node25</title>
<path fill="none" stroke="midnightblue" d="M1398.68,-237.72C1279.91,-229.36 1064.75,-213.91 881,-199 876.48,-198.63 871.85,-198.25 867.18,-197.86"/>
<polygon fill="midnightblue" stroke="midnightblue" points="1398.59,-241.22 1408.81,-238.43 1399.08,-234.24 1398.59,-241.22"/>
</g>
<!-- Node26 -->
<g id="node26" class="node">
<title>Node26</title>
<g id="a_node26"><a xlink:href="TimeNLFormIntegrator_8hpp.html" target="_top" xlink:title="VF of the time derivative.">
<polygon fill="none" stroke="black" points="2350.5,-179.5 2350.5,-198.5 2509.5,-198.5 2509.5,-179.5 2350.5,-179.5"/>
<text text-anchor="middle" x="2430" y="-186.5" font-family="serif" font-size="10.00">TimeNLFormIntegrator.hpp</text>
</a>
</g>
</g>
<!-- Node6&#45;&gt;Node26 -->
<g id="edge44" class="edge">
<title>Node6&#45;&gt;Node26</title>
<path fill="none" stroke="midnightblue" d="M1579.58,-240.49C1734.78,-234.18 2061.43,-219.64 2337,-199 2341.37,-198.67 2345.85,-198.31 2350.37,-197.94"/>
<polygon fill="midnightblue" stroke="midnightblue" points="1579.01,-237.01 1569.16,-240.91 1579.3,-244 1579.01,-237.01"/>
</g>
<!-- Node6&#45;&gt;Node27 -->
<g id="edge47" class="edge">
<title>Node6&#45;&gt;Node27</title>
<path fill="none" stroke="midnightblue" d="M1579.29,-243.85C1783.91,-242.81 2298.48,-236.36 2727,-199 2730.18,-198.72 2733.44,-198.4 2736.72,-198.04"/>
<polygon fill="midnightblue" stroke="midnightblue" points="1579.18,-240.35 1569.19,-243.89 1579.21,-247.35 1579.18,-240.35"/>
</g>
<!-- Node8&#45;&gt;Node9 -->
<g id="edge8" class="edge">
<title>Node8&#45;&gt;Node9</title>
<path fill="none" stroke="midnightblue" d="M1035.08,-173.1C1067.85,-147.52 1133.8,-96.04 1159.95,-75.62"/>
<polygon fill="midnightblue" stroke="midnightblue" points="1032.88,-170.39 1027.15,-179.3 1037.18,-175.9 1032.88,-170.39"/>
</g>
<!-- Node10&#45;&gt;Node9 -->
<g id="edge10" class="edge">
<title>Node10&#45;&gt;Node9</title>
<path fill="none" stroke="midnightblue" d="M1225.69,-170.4C1211.76,-144.05 1185.99,-95.34 1175.56,-75.62"/>
<polygon fill="midnightblue" stroke="midnightblue" points="1222.63,-172.09 1230.4,-179.3 1228.82,-168.82 1222.63,-172.09"/>
</g>
<!-- Node11&#45;&gt;Node9 -->
<g id="edge12" class="edge">
<title>Node11&#45;&gt;Node9</title>
<path fill="none" stroke="midnightblue" d="M1715.8,-173.06C1691.67,-155.18 1648.26,-125.9 1606,-112 1537.48,-89.47 1331.05,-75.59 1229.17,-69.94"/>
<polygon fill="midnightblue" stroke="midnightblue" points="1713.98,-176.07 1724.07,-179.3 1718.2,-170.49 1713.98,-176.07"/>
</g>
<!-- Node13 -->
<g id="node13" class="node">
<title>Node13</title>
<g id="a_node13"><a xlink:href="MassDiffusionFluxNLFormIntegrator_8hpp.html" target="_top" xlink:title="Class dedicated to the VF of diffusion flux (gradient of chemical potential) used in mass balance equ...">
<polygon fill="none" stroke="black" points="1801.5,-118 1801.5,-137 2030.5,-137 2030.5,-118 1801.5,-118"/>
<text text-anchor="middle" x="1916" y="-125" font-family="serif" font-size="10.00">MassDiffusionFluxNLFormIntegrator.hpp</text>
</a>
</g>
</g>
<!-- Node12&#45;&gt;Node13 -->
<g id="edge14" class="edge">
<title>Node12&#45;&gt;Node13</title>
<path fill="none" stroke="midnightblue" d="M1943.15,-171.01C1936.05,-159.89 1927.07,-145.84 1921.43,-137.01"/>
<polygon fill="midnightblue" stroke="midnightblue" points="1940.22,-172.93 1948.56,-179.48 1946.12,-169.16 1940.22,-172.93"/>
</g>
<!-- Node13&#45;&gt;Node9 -->
<g id="edge15" class="edge">
<title>Node13&#45;&gt;Node9</title>
<path fill="none" stroke="midnightblue" d="M1799.28,-117.18C1637.69,-104.27 1351.94,-81.45 1229.43,-71.67"/>
<polygon fill="midnightblue" stroke="midnightblue" points="1799.01,-120.67 1809.26,-117.98 1799.57,-113.69 1799.01,-120.67"/>
</g>
<!-- Node14&#45;&gt;Node15 -->
<g id="edge17" class="edge">
<title>Node14&#45;&gt;Node15</title>
<path fill="none" stroke="midnightblue" d="M1498.2,-170.33C1503.94,-159.33 1511.06,-145.66 1515.57,-137.01"/>
<polygon fill="midnightblue" stroke="midnightblue" points="1494.96,-168.99 1493.44,-179.48 1501.17,-172.22 1494.96,-168.99"/>
</g>
<!-- Node14&#45;&gt;Node16 -->
<g id="edge19" class="edge">
<title>Node14&#45;&gt;Node16</title>
<path fill="none" stroke="midnightblue" d="M1458.2,-175.78C1429.05,-164.22 1386.05,-147.16 1360.45,-137.01"/>
<polygon fill="midnightblue" stroke="midnightblue" points="1456.92,-179.04 1467.51,-179.48 1459.5,-172.53 1456.92,-179.04"/>
</g>
<!-- Node15&#45;&gt;Node9 -->
<g id="edge18" class="edge">
<title>Node15&#45;&gt;Node9</title>
<path fill="none" stroke="midnightblue" d="M1459.93,-116.26C1392.4,-104.75 1283.97,-86.26 1220.91,-75.51"/>
<polygon fill="midnightblue" stroke="midnightblue" points="1459.55,-119.74 1470,-117.98 1460.73,-112.84 1459.55,-119.74"/>
</g>
<!-- Node16&#45;&gt;Node9 -->
<g id="edge20" class="edge">
<title>Node16&#45;&gt;Node9</title>
<path fill="none" stroke="midnightblue" d="M1305.35,-114.58C1272.7,-103.02 1223.95,-85.75 1195.03,-75.51"/>
<polygon fill="midnightblue" stroke="midnightblue" points="1304.33,-117.94 1314.93,-117.98 1306.67,-111.34 1304.33,-117.94"/>
</g>
<!-- Node17&#45;&gt;Node9 -->
<g id="edge24" class="edge">
<title>Node17&#45;&gt;Node9</title>
<path fill="none" stroke="midnightblue" d="M2207.82,-120.99C2157.06,-118.27 2094.8,-114.94 2039,-112 1734.05,-95.94 1368.8,-77.15 1229.16,-69.98"/>
<polygon fill="midnightblue" stroke="midnightblue" points="2207.64,-124.49 2217.81,-121.53 2208.01,-117.5 2207.64,-124.49"/>
</g>
<!-- Node18&#45;&gt;Node9 -->
<g id="edge26" class="edge">
<title>Node18&#45;&gt;Node9</title>
<path fill="none" stroke="midnightblue" d="M2597.8,-174.57C2562.39,-156.46 2495.35,-125.01 2434,-112 2315.48,-86.87 1461.28,-71.6 1229.11,-67.89"/>
<polygon fill="midnightblue" stroke="midnightblue" points="2596.43,-177.8 2606.92,-179.29 2599.65,-171.58 2596.43,-177.8"/>
</g>
<!-- Node19&#45;&gt;Node20 -->
<g id="edge29" class="edge">
<title>Node19&#45;&gt;Node20</title>
<path fill="none" stroke="midnightblue" d="M276.41,-176.68C236,-165.11 174.17,-147.43 137.75,-137.01"/>
<polygon fill="midnightblue" stroke="midnightblue" points="275.62,-180.09 286.2,-179.48 277.55,-173.36 275.62,-180.09"/>
</g>
<!-- Node19&#45;&gt;Node21 -->
<g id="edge31" class="edge">
<title>Node19&#45;&gt;Node21</title>
<path fill="none" stroke="midnightblue" d="M324.31,-170.33C329.49,-159.33 335.92,-145.66 340,-137.01"/>
<polygon fill="midnightblue" stroke="midnightblue" points="321.1,-168.94 320.01,-179.48 327.44,-171.92 321.1,-168.94"/>
</g>
<!-- Node19&#45;&gt;Node22 -->
<g id="edge33" class="edge">
<title>Node19&#45;&gt;Node22</title>
<path fill="none" stroke="midnightblue" d="M360.07,-176.98C398.94,-167.27 455.8,-153.05 497.91,-142.52"/>
<polygon fill="midnightblue" stroke="midnightblue" points="358.95,-173.65 350.1,-179.48 360.65,-180.45 358.95,-173.65"/>
</g>
<!-- Node20&#45;&gt;Node9 -->
<g id="edge30" class="edge">
<title>Node20&#45;&gt;Node9</title>
<path fill="none" stroke="midnightblue" d="M179.74,-116.74C194.68,-114.95 210.34,-113.26 225,-112 560.43,-83.28 964.45,-71.71 1112.77,-68.24"/>
<polygon fill="midnightblue" stroke="midnightblue" points="179.04,-113.3 169.54,-117.99 179.89,-120.25 179.04,-113.3"/>
</g>
<!-- Node21&#45;&gt;Node9 -->
<g id="edge32" class="edge">
<title>Node21&#45;&gt;Node9</title>
<path fill="none" stroke="midnightblue" d="M417.65,-116.77C432.33,-115.02 447.64,-113.34 462,-112 703.01,-89.56 991.17,-75.08 1112.55,-69.54"/>
<polygon fill="midnightblue" stroke="midnightblue" points="417.12,-113.31 407.62,-117.99 417.96,-120.26 417.12,-113.31"/>
</g>
<!-- Node22&#45;&gt;Node9 -->
<g id="edge34" class="edge">
<title>Node22&#45;&gt;Node9</title>
<path fill="none" stroke="midnightblue" d="M646.96,-111.81C822.07,-90.74 1017.6,-76.77 1112.87,-70.59"/>
<polygon fill="midnightblue" stroke="midnightblue" points="646.3,-108.37 636.79,-113.05 647.14,-115.32 646.3,-108.37"/>
</g>
<!-- Node23&#45;&gt;Node9 -->
<g id="edge39" class="edge">
<title>Node23&#45;&gt;Node9</title>
<path fill="none" stroke="midnightblue" d="M677.88,-178.19C740.41,-170.12 818.69,-157.66 848,-143 866,-134 862.92,-120.83 881,-112 920.78,-92.59 1040.15,-78.8 1112.75,-71.94"/>
<polygon fill="midnightblue" stroke="midnightblue" points="677.07,-174.76 667.59,-179.5 677.96,-181.71 677.07,-174.76"/>
</g>
<!-- Node24 -->
<g id="node24" class="node">
<title>Node24</title>
<g id="a_node24"><a xlink:href="NeumannNLFormIntegrator_8hpp.html" target="_top" xlink:title="Neumann integrator.">
<polygon fill="none" stroke="black" points="654.5,-118 654.5,-137 839.5,-137 839.5,-118 654.5,-118"/>
<text text-anchor="middle" x="747" y="-125" font-family="serif" font-size="10.00">NeumannNLFormIntegrator.hpp</text>
</a>
</g>
</g>
<!-- Node23&#45;&gt;Node24 -->
<g id="edge40" class="edge">
<title>Node23&#45;&gt;Node24</title>
<path fill="none" stroke="midnightblue" d="M623.03,-175.78C653.35,-164.22 698.07,-147.16 724.69,-137.01"/>
<polygon fill="midnightblue" stroke="midnightblue" points="621.45,-172.64 613.35,-179.48 623.94,-179.18 621.45,-172.64"/>
</g>
<!-- Node24&#45;&gt;Node9 -->
<g id="edge41" class="edge">
<title>Node24&#45;&gt;Node9</title>
<path fill="none" stroke="midnightblue" d="M817.82,-116.56C900.54,-104.95 1035.85,-85.97 1112.75,-75.17"/>
<polygon fill="midnightblue" stroke="midnightblue" points="817.17,-113.12 807.75,-117.98 818.14,-120.05 817.17,-113.12"/>
</g>
<!-- Node25&#45;&gt;Node9 -->
<g id="edge43" class="edge">
<title>Node25&#45;&gt;Node9</title>
<path fill="none" stroke="midnightblue" d="M810.44,-175.64C830.92,-167.22 858.01,-155.39 881,-143 903.35,-130.95 905.4,-121.39 929,-112 988.96,-88.15 1062.38,-76.78 1112.52,-71.46"/>
<polygon fill="midnightblue" stroke="midnightblue" points="808.91,-172.48 800.96,-179.49 811.55,-178.97 808.91,-172.48"/>
</g>
<!-- Node26&#45;&gt;Node9 -->
<g id="edge46" class="edge">
<title>Node26&#45;&gt;Node9</title>
<path fill="none" stroke="midnightblue" d="M2431.12,-169.15C2431.03,-151.39 2427.72,-125.55 2411,-112 2364.61,-74.41 1468.19,-68.18 1229.16,-67.18"/>
<polygon fill="midnightblue" stroke="midnightblue" points="2427.62,-169.11 2430.84,-179.21 2434.62,-169.31 2427.62,-169.11"/>
</g>
<!-- Node26&#45;&gt;Node17 -->
<g id="edge45" class="edge">
<title>Node26&#45;&gt;Node17</title>
<path fill="none" stroke="midnightblue" d="M2403.82,-175.02C2380.55,-163.48 2347.2,-146.94 2327.16,-137.01"/>
<polygon fill="midnightblue" stroke="midnightblue" points="2402.29,-178.17 2412.81,-179.48 2405.4,-171.9 2402.29,-178.17"/>
</g>
<!-- Node28 -->
<g id="node28" class="node">
<title>Node28</title>
<g id="a_node28"><a xlink:href="SteadyOperator_8hpp.html" target="_top" xlink:title="Steady Operator.">
<polygon fill="none" stroke="black" points="2564,-118 2564,-137 2684,-137 2684,-118 2564,-118"/>
<text text-anchor="middle" x="2624" y="-125" font-family="serif" font-size="10.00">SteadyOperator.hpp</text>
</a>
</g>
</g>
<!-- Node27&#45;&gt;Node28 -->
<g id="edge48" class="edge">
<title>Node27&#45;&gt;Node28</title>
<path fill="none" stroke="midnightblue" d="M2758.35,-176.08C2725.7,-164.52 2676.95,-147.25 2648.03,-137.01"/>
<polygon fill="midnightblue" stroke="midnightblue" points="2757.33,-179.44 2767.93,-179.48 2759.67,-172.84 2757.33,-179.44"/>
</g>
<!-- Node30 -->
<g id="node30" class="node">
<title>Node30</title>
<g id="a_node30"><a xlink:href="TransientOperator_8hpp.html" target="_top" xlink:title="Transient Operator.">
<polygon fill="none" stroke="black" points="2702,-118 2702,-137 2836,-137 2836,-118 2702,-118"/>
<text text-anchor="middle" x="2769" y="-125" font-family="serif" font-size="10.00">TransientOperator.hpp</text>
</a>
</g>
</g>
<!-- Node27&#45;&gt;Node30 -->
<g id="edge51" class="edge">
<title>Node27&#45;&gt;Node30</title>
<path fill="none" stroke="midnightblue" d="M2785.04,-170C2780.81,-159.05 2775.6,-145.57 2772.29,-137.01"/>
<polygon fill="midnightblue" stroke="midnightblue" points="2781.83,-171.41 2788.7,-179.48 2788.36,-168.89 2781.83,-171.41"/>
</g>
<!-- Node29 -->
<g id="node29" class="node">
<title>Node29</title>
<g id="a_node29"><a xlink:href="ListOperators_8hpp.html" target="_top" xlink:title=" ">
<polygon fill="none" stroke="black" points="2714,-56.5 2714,-75.5 2824,-75.5 2824,-56.5 2714,-56.5"/>
<text text-anchor="middle" x="2769" y="-63.5" font-family="serif" font-size="10.00">ListOperators.hpp</text>
</a>
</g>
</g>
<!-- Node28&#45;&gt;Node29 -->
<g id="edge49" class="edge">
<title>Node28&#45;&gt;Node29</title>
<path fill="none" stroke="midnightblue" d="M2654.14,-114.13C2682.31,-102.57 2723.62,-85.62 2748.26,-75.51"/>
<polygon fill="midnightblue" stroke="midnightblue" points="2652.7,-110.94 2644.77,-117.98 2655.36,-117.42 2652.7,-110.94"/>
</g>
<!-- Node29&#45;&gt;Node3 -->
<g id="edge50" class="edge">
<title>Node29&#45;&gt;Node3</title>
<path fill="none" stroke="midnightblue" d="M2810.65,-53.7C2848.21,-43.51 2902.61,-28.74 2936.62,-19.52"/>
<polygon fill="midnightblue" stroke="midnightblue" points="2809.27,-50.45 2800.53,-56.44 2811.1,-57.2 2809.27,-50.45"/>
</g>
<!-- Node30&#45;&gt;Node29 -->
<g id="edge52" class="edge">
<title>Node30&#45;&gt;Node29</title>
<path fill="none" stroke="midnightblue" d="M2769,-107.82C2769,-97 2769,-83.9 2769,-75.51"/>
<polygon fill="midnightblue" stroke="midnightblue" points="2765.5,-107.98 2769,-117.98 2772.5,-107.98 2765.5,-107.98"/>
</g>
<!-- Node32 -->
<g id="node32" class="node">
<title>Node32</title>
<g id="a_node32"><a xlink:href="Calphad__problem_8hpp.html" target="_top" xlink:title="Class used to defined a Calphad_Problem objet.">
<polygon fill="none" stroke="black" points="2955.5,-118 2955.5,-137 3086.5,-137 3086.5,-118 2955.5,-118"/>
<text text-anchor="middle" x="3021" y="-125" font-family="serif" font-size="10.00">Calphad_problem.hpp</text>
</a>
</g>
</g>
<!-- Node31&#45;&gt;Node32 -->
<g id="edge55" class="edge">
<title>Node31&#45;&gt;Node32</title>
<path fill="none" stroke="midnightblue" d="M3021,-169.32C3021,-158.5 3021,-145.4 3021,-137.01"/>
<polygon fill="midnightblue" stroke="midnightblue" points="3017.5,-169.48 3021,-179.48 3024.5,-169.48 3017.5,-169.48"/>
</g>
<!-- Node34 -->
<g id="node34" class="node">
<title>Node34</title>
<g id="a_node34"><a xlink:href="MPIProblem_8hpp.html" target="_top" xlink:title="Class used to defined a MPI_Problem objet.">
<polygon fill="none" stroke="black" points="3105,-118 3105,-137 3209,-137 3209,-118 3105,-118"/>
<text text-anchor="middle" x="3157" y="-125" font-family="serif" font-size="10.00">MPIProblem.hpp</text>
</a>
</g>
</g>
<!-- Node31&#45;&gt;Node34 -->
<g id="edge58" class="edge">
<title>Node31&#45;&gt;Node34</title>
<path fill="none" stroke="midnightblue" d="M3049.97,-175.33C3076.37,-163.78 3114.64,-147.03 3137.55,-137.01"/>
<polygon fill="midnightblue" stroke="midnightblue" points="3048.24,-172.26 3040.49,-179.48 3051.05,-178.67 3048.24,-172.26"/>
</g>
<!-- Node35 -->
<g id="node35" class="node">
<title>Node35</title>
<g id="a_node35"><a xlink:href="Problem_8hpp.html" target="_top" xlink:title="Class used to defined a PDE Problem.">
<polygon fill="none" stroke="black" points="2854.5,-118 2854.5,-137 2937.5,-137 2937.5,-118 2854.5,-118"/>
<text text-anchor="middle" x="2896" y="-125" font-family="serif" font-size="10.00">Problem.hpp</text>
</a>
</g>
</g>
<!-- Node31&#45;&gt;Node35 -->
<g id="edge60" class="edge">
<title>Node31&#45;&gt;Node35</title>
<path fill="none" stroke="midnightblue" d="M2994.06,-175.17C2969.8,-163.63 2934.84,-146.99 2913.88,-137.01"/>
<polygon fill="midnightblue" stroke="midnightblue" points="2992.56,-178.34 3003.09,-179.48 2995.57,-172.02 2992.56,-178.34"/>
</g>
<!-- Node37 -->
<g id="node37" class="node">
<title>Node37</title>
<g id="a_node37"><a xlink:href="PropertyProblem_8hpp.html" target="_top" xlink:title="Class used to compute primary variables as a function of auxialiary variables.">
<polygon fill="none" stroke="black" points="3227.5,-118 3227.5,-137 3354.5,-137 3354.5,-118 3227.5,-118"/>
<text text-anchor="middle" x="3291" y="-125" font-family="serif" font-size="10.00">PropertyProblem.hpp</text>
</a>
</g>
</g>
<!-- Node31&#45;&gt;Node37 -->
<g id="edge64" class="edge">
<title>Node31&#45;&gt;Node37</title>
<path fill="none" stroke="midnightblue" d="M3069.74,-177.26C3122.12,-165.72 3204.3,-147.61 3252.39,-137.01"/>
<polygon fill="midnightblue" stroke="midnightblue" points="3068.7,-173.9 3059.68,-179.48 3070.2,-180.74 3068.7,-173.9"/>
</g>
<!-- Node33 -->
<g id="node33" class="node">
<title>Node33</title>
<g id="a_node33"><a xlink:href="ListProblems_8hpp.html" target="_top" xlink:title=" ">
<polygon fill="none" stroke="black" points="2967.5,-56.5 2967.5,-75.5 3074.5,-75.5 3074.5,-56.5 2967.5,-56.5"/>
<text text-anchor="middle" x="3021" y="-63.5" font-family="serif" font-size="10.00">ListProblems.hpp</text>
</a>
</g>
</g>
<!-- Node32&#45;&gt;Node33 -->
<g id="edge56" class="edge">
<title>Node32&#45;&gt;Node33</title>
<path fill="none" stroke="midnightblue" d="M3021,-107.82C3021,-97 3021,-83.9 3021,-75.51"/>
<polygon fill="midnightblue" stroke="midnightblue" points="3017.5,-107.98 3021,-117.98 3024.5,-107.98 3017.5,-107.98"/>
</g>
<!-- Node33&#45;&gt;Node3 -->
<g id="edge57" class="edge">
<title>Node33&#45;&gt;Node3</title>
<path fill="none" stroke="midnightblue" d="M3005.02,-48.72C2995.68,-39.2 2984.25,-27.56 2976.59,-19.75"/>
<polygon fill="midnightblue" stroke="midnightblue" points="3002.75,-51.4 3012.25,-56.08 3007.74,-46.49 3002.75,-51.4"/>
</g>
<!-- Node34&#45;&gt;Node33 -->
<g id="edge59" class="edge">
<title>Node34&#45;&gt;Node33</title>
<path fill="none" stroke="midnightblue" d="M3128.03,-113.83C3101.63,-102.28 3063.36,-85.53 3040.45,-75.51"/>
<polygon fill="midnightblue" stroke="midnightblue" points="3126.95,-117.17 3137.51,-117.98 3129.76,-110.76 3126.95,-117.17"/>
</g>
<!-- Node35&#45;&gt;Node33 -->
<g id="edge61" class="edge">
<title>Node35&#45;&gt;Node33</title>
<path fill="none" stroke="midnightblue" d="M2922.94,-113.67C2947.2,-102.13 2982.16,-85.49 3003.12,-75.51"/>
<polygon fill="midnightblue" stroke="midnightblue" points="2921.43,-110.52 2913.91,-117.98 2924.44,-116.84 2921.43,-110.52"/>
</g>
<!-- Node36 -->
<g id="node36" class="node">
<title>Node36</title>
<g id="a_node36"><a xlink:href="Time_8hpp.html" target="_top" xlink:title="Main time loop.">
<polygon fill="none" stroke="black" points="2873.5,-56.5 2873.5,-75.5 2938.5,-75.5 2938.5,-56.5 2873.5,-56.5"/>
<text text-anchor="middle" x="2906" y="-63.5" font-family="serif" font-size="10.00">Time.hpp</text>
</a>
</g>
</g>
<!-- Node35&#45;&gt;Node36 -->
<g id="edge62" class="edge">
<title>Node35&#45;&gt;Node36</title>
<path fill="none" stroke="midnightblue" d="M2899.14,-107.82C2900.96,-97 2903.16,-83.9 2904.57,-75.51"/>
<polygon fill="midnightblue" stroke="midnightblue" points="2895.64,-107.53 2897.43,-117.98 2902.54,-108.69 2895.64,-107.53"/>
</g>
<!-- Node36&#45;&gt;Node3 -->
<g id="edge63" class="edge">
<title>Node36&#45;&gt;Node3</title>
<path fill="none" stroke="midnightblue" d="M2923.75,-49.54C2934.81,-39.91 2948.63,-27.87 2957.86,-19.83"/>
<polygon fill="midnightblue" stroke="midnightblue" points="2921.2,-47.12 2915.96,-56.32 2925.8,-52.4 2921.2,-47.12"/>
</g>
<!-- Node37&#45;&gt;Node33 -->
<g id="edge65" class="edge">
<title>Node37&#45;&gt;Node33</title>
<path fill="none" stroke="midnightblue" d="M3242.26,-115.76C3189.88,-104.22 3107.7,-86.11 3059.61,-75.51"/>
<polygon fill="midnightblue" stroke="midnightblue" points="3241.8,-119.24 3252.32,-117.98 3243.3,-112.4 3241.8,-119.24"/>
</g>
</g>
</svg>
