<?xml version="1.0" encoding="UTF-8" standalone="no"?>
<!DOCTYPE svg PUBLIC "-//W3C//DTD SVG 1.1//EN"
 "http://www.w3.org/Graphics/SVG/1.1/DTD/svg11.dtd">
<!-- Generated by graphviz version 2.43.0 (0)
 -->
<!-- Title: Coefficient.hpp Pages: 1 -->
<svg width="3222pt" height="375pt"
 viewBox="0.00 0.00 3221.50 375.00" xmlns="http://www.w3.org/2000/svg" xmlns:xlink="http://www.w3.org/1999/xlink">
<g id="graph0" class="graph" transform="scale(1 1) rotate(0) translate(4 371)">
<title>Coefficient.hpp</title>
<!-- Node1 -->
<g id="node1" class="node">
<title>Node1</title>
<g id="a_node1"><a xlink:title="Base class definining a coefficient from an analytical formula.">
<polygon fill="#bfbfbf" stroke="black" points="1551,-347.5 1551,-366.5 1645,-366.5 1645,-347.5 1551,-347.5"/>
<text text-anchor="middle" x="1598" y="-354.5" font-family="serif" font-size="10.00">Coefficient.hpp</text>
</a>
</g>
</g>
<!-- Node2 -->
<g id="node2" class="node">
<title>Node2</title>
<g id="a_node2"><a xlink:href="KKS_8hpp.html" target="_top" xlink:title="All needed for Calphad calculation including KKS model.">
<polygon fill="none" stroke="black" points="626,-291.5 626,-310.5 688,-310.5 688,-291.5 626,-291.5"/>
<text text-anchor="middle" x="657" y="-298.5" font-family="serif" font-size="10.00">KKS.hpp</text>
</a>
</g>
</g>
<!-- Node1&#45;&gt;Node2 -->
<g id="edge1" class="edge">
<title>Node1&#45;&gt;Node2</title>
<path fill="none" stroke="midnightblue" d="M1540.48,-352.7C1362.28,-342.47 823.27,-311.54 688.03,-303.78"/>
<polygon fill="midnightblue" stroke="midnightblue" points="1540.51,-356.21 1550.69,-353.29 1540.91,-349.22 1540.51,-356.21"/>
</g>
<!-- Node4 -->
<g id="node4" class="node">
<title>Node4</title>
<g id="a_node4"><a xlink:href="Coefficients_8hpp.html" target="_top" xlink:title="Coefficients class used to build and manage a collection of Coefficient.">
<polygon fill="none" stroke="black" points="1035.5,-291.5 1035.5,-310.5 1134.5,-310.5 1134.5,-291.5 1035.5,-291.5"/>
<text text-anchor="middle" x="1085" y="-298.5" font-family="serif" font-size="10.00">Coefficients.hpp</text>
</a>
</g>
</g>
<!-- Node1&#45;&gt;Node4 -->
<g id="edge3" class="edge">
<title>Node1&#45;&gt;Node4</title>
<path fill="none" stroke="midnightblue" d="M1540.61,-349.96C1439.32,-339.3 1230.53,-317.32 1134.86,-307.25"/>
<polygon fill="midnightblue" stroke="midnightblue" points="1540.35,-353.45 1550.66,-351.02 1541.08,-346.49 1540.35,-353.45"/>
</g>
<!-- Node9 -->
<g id="node9" class="node">
<title>Node9</title>
<g id="a_node9"><a xlink:href="SlothNLFormIntegrator_8hpp.html" target="_top" xlink:title="Class prodiving common methods to all NLFormIntegrators.">
<polygon fill="none" stroke="black" points="1691,-235.5 1691,-254.5 1851,-254.5 1851,-235.5 1691,-235.5"/>
<text text-anchor="middle" x="1771" y="-242.5" font-family="serif" font-size="10.00">SlothNLFormIntegrator.hpp</text>
</a>
</g>
</g>
<!-- Node1&#45;&gt;Node9 -->
<g id="edge70" class="edge">
<title>Node1&#45;&gt;Node9</title>
<path fill="none" stroke="midnightblue" d="M1600.37,-337.16C1603.15,-322.65 1609.16,-303.09 1622,-291 1642.27,-271.92 1670.34,-260.91 1696.67,-254.56"/>
<polygon fill="midnightblue" stroke="midnightblue" points="1596.91,-336.64 1598.8,-347.07 1603.82,-337.74 1596.91,-336.64"/>
</g>
<!-- Node40 -->
<g id="node40" class="node">
<title>Node40</title>
<g id="a_node40"><a xlink:href="Coefficients_8cpp.html" target="_top" xlink:title="Coefficients class used to build and manage a collection of Coefficient.">
<polygon fill="none" stroke="black" points="1869,-235.5 1869,-254.5 1967,-254.5 1967,-235.5 1869,-235.5"/>
<text text-anchor="middle" x="1918" y="-242.5" font-family="serif" font-size="10.00">Coefficients.cpp</text>
</a>
</g>
</g>
<!-- Node1&#45;&gt;Node40 -->
<g id="edge72" class="edge">
<title>Node1&#45;&gt;Node40</title>
<path fill="none" stroke="midnightblue" d="M1608.32,-338.65C1618.29,-323.53 1634.83,-302.29 1655,-291 1659.66,-288.4 1793.85,-266.23 1868.7,-254.01"/>
<polygon fill="midnightblue" stroke="midnightblue" points="1605.35,-336.81 1602.99,-347.14 1611.28,-340.53 1605.35,-336.81"/>
</g>
<!-- Node41 -->
<g id="node41" class="node">
<title>Node41</title>
<g id="a_node41"><a xlink:href="Coefficient_8cpp.html" target="_top" xlink:title="Base class definining a coefficient from an analytical formula.">
<polygon fill="none" stroke="black" points="1664,-291.5 1664,-310.5 1756,-310.5 1756,-291.5 1664,-291.5"/>
<text text-anchor="middle" x="1710" y="-298.5" font-family="serif" font-size="10.00">Coefficient.cpp</text>
</a>
</g>
</g>
<!-- Node1&#45;&gt;Node41 -->
<g id="edge71" class="edge">
<title>Node1&#45;&gt;Node41</title>
<path fill="none" stroke="midnightblue" d="M1625.25,-342.86C1646.02,-332.85 1674.02,-319.35 1692.05,-310.65"/>
<polygon fill="midnightblue" stroke="midnightblue" points="1623.48,-339.83 1615.99,-347.32 1626.52,-346.13 1623.48,-339.83"/>
</g>
<!-- Node3 -->
<g id="node3" class="node">
<title>Node3</title>
<g id="a_node3"><a xlink:href="sloth_8hpp.html" target="_top" xlink:title="List of SLOTH header files.">
<polygon fill="none" stroke="black" points="414.5,-0.5 414.5,-19.5 479.5,-19.5 479.5,-0.5 414.5,-0.5"/>
<text text-anchor="middle" x="447" y="-7.5" font-family="serif" font-size="10.00">sloth.hpp</text>
</a>
</g>
</g>
<!-- Node2&#45;&gt;Node3 -->
<g id="edge2" class="edge">
<title>Node2&#45;&gt;Node3</title>
<path fill="none" stroke="midnightblue" d="M615.55,-297.46C471.3,-288.1 0,-252.69 0,-190 0,-190 0,-190 0,-126.5 0,-40.84 311.63,-17.7 414.49,-12.4"/>
<polygon fill="midnightblue" stroke="midnightblue" points="615.55,-300.97 625.75,-298.12 616,-293.99 615.55,-300.97"/>
</g>
<!-- Node5 -->
<g id="node5" class="node">
<title>Node5</title>
<g id="a_node5"><a xlink:href="AxiCylindricalCoefficient_8hpp.html" target="_top" xlink:title="Built a MFEM Coefficient for AxiCylindricalCoefficient.">
<polygon fill="none" stroke="black" points="474.5,-235.5 474.5,-254.5 639.5,-254.5 639.5,-235.5 474.5,-235.5"/>
<text text-anchor="middle" x="557" y="-242.5" font-family="serif" font-size="10.00">AxiCylindricalCoefficient.hpp</text>
</a>
</g>
</g>
<!-- Node4&#45;&gt;Node5 -->
<g id="edge4" class="edge">
<title>Node4&#45;&gt;Node5</title>
<path fill="none" stroke="midnightblue" d="M1025.37,-293.9C930.92,-284.24 746.68,-265.4 639.58,-254.45"/>
<polygon fill="midnightblue" stroke="midnightblue" points="1025.02,-297.38 1035.33,-294.92 1025.74,-290.42 1025.02,-297.38"/>
</g>
<!-- Node8 -->
<g id="node8" class="node">
<title>Node8</title>
<g id="a_node8"><a xlink:href="MfemCoefficient_8hpp.html" target="_top" xlink:title="Built a MFEM Coefficient from a SLOTH Coefficient.">
<polygon fill="none" stroke="black" points="1023,-235.5 1023,-254.5 1147,-254.5 1147,-235.5 1023,-235.5"/>
<text text-anchor="middle" x="1085" y="-242.5" font-family="serif" font-size="10.00">MfemCoefficient.hpp</text>
</a>
</g>
</g>
<!-- Node4&#45;&gt;Node8 -->
<g id="edge8" class="edge">
<title>Node4&#45;&gt;Node8</title>
<path fill="none" stroke="midnightblue" d="M1085,-280.8C1085,-271.91 1085,-261.78 1085,-254.75"/>
<polygon fill="midnightblue" stroke="midnightblue" points="1081.5,-281.08 1085,-291.08 1088.5,-281.08 1081.5,-281.08"/>
</g>
<!-- Node4&#45;&gt;Node9 -->
<g id="edge9" class="edge">
<title>Node4&#45;&gt;Node9</title>
<path fill="none" stroke="midnightblue" d="M1144.64,-295.31C1268.09,-285.59 1551.7,-263.26 1690.93,-252.3"/>
<polygon fill="midnightblue" stroke="midnightblue" points="1144.31,-291.82 1134.61,-296.09 1144.86,-298.8 1144.31,-291.82"/>
</g>
<!-- Node29 -->
<g id="node29" class="node">
<title>Node29</title>
<g id="a_node29"><a xlink:href="OperatorBase_8hpp.html" target="_top" xlink:title="Base class for building Steady and TimeDependent PhaseFieldOperators.">
<polygon fill="none" stroke="black" points="591,-179.5 591,-198.5 701,-198.5 701,-179.5 591,-179.5"/>
<text text-anchor="middle" x="646" y="-186.5" font-family="serif" font-size="10.00">OperatorBase.hpp</text>
</a>
</g>
</g>
<!-- Node4&#45;&gt;Node29 -->
<g id="edge56" class="edge">
<title>Node4&#45;&gt;Node29</title>
<path fill="none" stroke="midnightblue" d="M1041.03,-288.98C953.43,-267.03 758.81,-218.27 680.06,-198.53"/>
<polygon fill="midnightblue" stroke="midnightblue" points="1040.37,-292.42 1050.92,-291.46 1042.07,-285.63 1040.37,-292.42"/>
</g>
<!-- Node33 -->
<g id="node33" class="node">
<title>Node33</title>
<g id="a_node33"><a xlink:href="ProblemBase_8hpp.html" target="_top" xlink:title="Base class for building Problems.">
<polygon fill="none" stroke="black" points="239.5,-179.5 239.5,-198.5 346.5,-198.5 346.5,-179.5 239.5,-179.5"/>
<text text-anchor="middle" x="293" y="-186.5" font-family="serif" font-size="10.00">ProblemBase.hpp</text>
</a>
</g>
</g>
<!-- Node4&#45;&gt;Node33 -->
<g id="edge57" class="edge">
<title>Node4&#45;&gt;Node33</title>
<path fill="none" stroke="midnightblue" d="M1025.16,-297.86C891.21,-292.7 570.67,-278.28 465,-255 406.39,-242.09 341.1,-213.08 310.55,-198.59"/>
<polygon fill="midnightblue" stroke="midnightblue" points="1025.12,-301.36 1035.25,-298.24 1025.39,-294.36 1025.12,-301.36"/>
</g>
<!-- Node4&#45;&gt;Node40 -->
<g id="edge69" class="edge">
<title>Node4&#45;&gt;Node40</title>
<path fill="none" stroke="midnightblue" d="M1144.71,-298.49C1274.94,-294.75 1594.14,-283.28 1860,-255 1862.94,-254.69 1865.96,-254.33 1869,-253.94"/>
<polygon fill="midnightblue" stroke="midnightblue" points="1144.45,-294.99 1134.55,-298.77 1144.64,-301.99 1144.45,-294.99"/>
</g>
<!-- Node6 -->
<g id="node6" class="node">
<title>Node6</title>
<g id="a_node6"><a xlink:href="ListCoefficients_8hpp.html" target="_top" xlink:title="List of header files contained in the Coefficients directory.">
<polygon fill="none" stroke="black" points="498,-56.5 498,-75.5 616,-75.5 616,-56.5 498,-56.5"/>
<text text-anchor="middle" x="557" y="-63.5" font-family="serif" font-size="10.00">ListCoefficients.hpp</text>
</a>
</g>
</g>
<!-- Node5&#45;&gt;Node6 -->
<g id="edge5" class="edge">
<title>Node5&#45;&gt;Node6</title>
<path fill="none" stroke="midnightblue" d="M557,-225.35C557,-187.6 557,-103.36 557,-75.87"/>
<polygon fill="midnightblue" stroke="midnightblue" points="553.5,-225.46 557,-235.46 560.5,-225.46 553.5,-225.46"/>
</g>
<!-- Node7 -->
<g id="node7" class="node">
<title>Node7</title>
<g id="a_node7"><a xlink:href="AxiCylindricalCoefficient_8cpp.html" target="_top" xlink:title="Built a MFEM Coefficient for AxiCylindricalCoefficient.">
<polygon fill="none" stroke="black" points="365,-179.5 365,-198.5 529,-198.5 529,-179.5 365,-179.5"/>
<text text-anchor="middle" x="447" y="-186.5" font-family="serif" font-size="10.00">AxiCylindricalCoefficient.cpp</text>
</a>
</g>
</g>
<!-- Node5&#45;&gt;Node7 -->
<g id="edge7" class="edge">
<title>Node5&#45;&gt;Node7</title>
<path fill="none" stroke="midnightblue" d="M530.24,-230.86C509.84,-220.85 482.33,-207.35 464.63,-198.65"/>
<polygon fill="midnightblue" stroke="midnightblue" points="528.81,-234.06 539.33,-235.32 531.89,-227.78 528.81,-234.06"/>
</g>
<!-- Node6&#45;&gt;Node3 -->
<g id="edge6" class="edge">
<title>Node6&#45;&gt;Node3</title>
<path fill="none" stroke="midnightblue" d="M530.24,-51.86C509.84,-41.85 482.33,-28.35 464.63,-19.65"/>
<polygon fill="midnightblue" stroke="midnightblue" points="528.81,-55.06 539.33,-56.32 531.89,-48.78 528.81,-55.06"/>
</g>
<!-- Node10 -->
<g id="node10" class="node">
<title>Node10</title>
<g id="a_node10"><a xlink:href="AllenCahnNLFormIntegrator_8hpp.html" target="_top" xlink:title="VF of the Allen Cahn equation.">
<polygon fill="none" stroke="black" points="950.5,-179.5 950.5,-198.5 1137.5,-198.5 1137.5,-179.5 950.5,-179.5"/>
<text text-anchor="middle" x="1044" y="-186.5" font-family="serif" font-size="10.00">AllenCahnNLFormIntegrator.hpp</text>
</a>
</g>
</g>
<!-- Node9&#45;&gt;Node10 -->
<g id="edge10" class="edge">
<title>Node9&#45;&gt;Node10</title>
<path fill="none" stroke="midnightblue" d="M1680.55,-237.95C1558.97,-229.71 1336.12,-214.23 1146,-199 1143.25,-198.78 1140.47,-198.55 1137.65,-198.32"/>
<polygon fill="midnightblue" stroke="midnightblue" points="1680.35,-241.44 1690.56,-238.62 1680.82,-234.46 1680.35,-241.44"/>
</g>
<!-- Node11 -->
<g id="node11" class="node">
<title>Node11</title>
<g id="a_node11"><a xlink:href="ListIntegrators_8hpp.html" target="_top" xlink:title="List of header files contained in the Integrators directory.">
<polygon fill="none" stroke="black" points="1994,-56.5 1994,-75.5 2110,-75.5 2110,-56.5 1994,-56.5"/>
<text text-anchor="middle" x="2052" y="-63.5" font-family="serif" font-size="10.00">ListIntegrators.hpp</text>
</a>
</g>
</g>
<!-- Node9&#45;&gt;Node11 -->
<g id="edge30" class="edge">
<title>Node9&#45;&gt;Node11</title>
<path fill="none" stroke="midnightblue" d="M1680.87,-242.4C1471.12,-238.25 966.13,-225.53 941,-199 934.89,-192.55 935.56,-186.03 941,-179 1014.1,-84.68 1083.05,-130.13 1201,-112 1354.36,-88.43 1827.7,-73.27 1993.72,-68.57"/>
<polygon fill="midnightblue" stroke="midnightblue" points="1680.87,-245.9 1690.94,-242.6 1681.01,-238.91 1680.87,-245.9"/>
</g>
<!-- Node12 -->
<g id="node12" class="node">
<title>Node12</title>
<g id="a_node12"><a xlink:href="BlockAllenCahnNLFormIntegrator_8hpp.html" target="_top" xlink:title="VF of the AllenCahn equations (splitted form)">
<polygon fill="none" stroke="black" points="1155.5,-179.5 1155.5,-198.5 1370.5,-198.5 1370.5,-179.5 1155.5,-179.5"/>
<text text-anchor="middle" x="1263" y="-186.5" font-family="serif" font-size="10.00">BlockAllenCahnNLFormIntegrator.hpp</text>
</a>
</g>
</g>
<!-- Node9&#45;&gt;Node12 -->
<g id="edge12" class="edge">
<title>Node9&#45;&gt;Node12</title>
<path fill="none" stroke="midnightblue" d="M1680.83,-234.41C1585.03,-224.23 1435.02,-208.29 1343.21,-198.53"/>
<polygon fill="midnightblue" stroke="midnightblue" points="1680.47,-237.9 1690.79,-235.47 1681.21,-230.94 1680.47,-237.9"/>
</g>
<!-- Node13 -->
<g id="node13" class="node">
<title>Node13</title>
<g id="a_node13"><a xlink:href="CahnHilliardNLFormIntegrator_8hpp.html" target="_top" xlink:title="VF of the CahnHilliard equations.">
<polygon fill="none" stroke="black" points="1388.5,-179.5 1388.5,-198.5 1587.5,-198.5 1587.5,-179.5 1388.5,-179.5"/>
<text text-anchor="middle" x="1488" y="-186.5" font-family="serif" font-size="10.00">CahnHilliardNLFormIntegrator.hpp</text>
</a>
</g>
</g>
<!-- Node9&#45;&gt;Node13 -->
<g id="edge14" class="edge">
<title>Node9&#45;&gt;Node13</title>
<path fill="none" stroke="midnightblue" d="M1716.17,-233.54C1662.68,-223.33 1582.33,-208 1532.63,-198.52"/>
<polygon fill="midnightblue" stroke="midnightblue" points="1715.68,-237.01 1726.16,-235.44 1716.99,-230.13 1715.68,-237.01"/>
</g>
<!-- Node14 -->
<g id="node14" class="node">
<title>Node14</title>
<g id="a_node14"><a xlink:href="DiffusionFluxNLFormIntegrator_8hpp.html" target="_top" xlink:title="inter&#45;diffusion integrator">
<polygon fill="none" stroke="black" points="1606,-179.5 1606,-198.5 1808,-198.5 1808,-179.5 1606,-179.5"/>
<text text-anchor="middle" x="1707" y="-186.5" font-family="serif" font-size="10.00">DiffusionFluxNLFormIntegrator.hpp</text>
</a>
</g>
</g>
<!-- Node9&#45;&gt;Node14 -->
<g id="edge16" class="edge">
<title>Node9&#45;&gt;Node14</title>
<path fill="none" stroke="midnightblue" d="M1753.01,-228.82C1741.54,-219.15 1727.09,-206.95 1717.47,-198.83"/>
<polygon fill="midnightblue" stroke="midnightblue" points="1750.82,-231.55 1760.72,-235.32 1755.33,-226.2 1750.82,-231.55"/>
</g>
<!-- Node16 -->
<g id="node16" class="node">
<title>Node16</title>
<g id="a_node16"><a xlink:href="DiffusionNLFormIntegrator_8hpp.html" target="_top" xlink:title="Nonlinear form integrator for diffusion&#45;type problems.">
<polygon fill="none" stroke="black" points="1864.5,-179.5 1864.5,-198.5 2043.5,-198.5 2043.5,-179.5 1864.5,-179.5"/>
<text text-anchor="middle" x="1954" y="-186.5" font-family="serif" font-size="10.00">DiffusionNLFormIntegrator.hpp</text>
</a>
</g>
</g>
<!-- Node9&#45;&gt;Node16 -->
<g id="edge19" class="edge">
<title>Node9&#45;&gt;Node16</title>
<path fill="none" stroke="midnightblue" d="M1809.74,-232.57C1844.26,-222.38 1894.01,-207.7 1925.14,-198.52"/>
<polygon fill="midnightblue" stroke="midnightblue" points="1808.6,-229.26 1800,-235.44 1810.58,-235.97 1808.6,-229.26"/>
</g>
<!-- Node17 -->
<g id="node17" class="node">
<title>Node17</title>
<g id="a_node17"><a xlink:href="FickNLFormIntegrator_8hpp.html" target="_top" xlink:title="FV for the mass diffusion equation.">
<polygon fill="none" stroke="black" points="1695.5,-118 1695.5,-137 1850.5,-137 1850.5,-118 1695.5,-118"/>
<text text-anchor="middle" x="1773" y="-125" font-family="serif" font-size="10.00">FickNLFormIntegrator.hpp</text>
</a>
</g>
</g>
<!-- Node9&#45;&gt;Node17 -->
<g id="edge24" class="edge">
<title>Node9&#45;&gt;Node17</title>
<path fill="none" stroke="midnightblue" d="M1792.71,-229.07C1802.06,-221.31 1811.97,-210.95 1817,-199 1827.07,-175.06 1801.23,-149.93 1784.99,-137.12"/>
<polygon fill="midnightblue" stroke="midnightblue" points="1790.56,-226.31 1784.79,-235.19 1794.84,-231.85 1790.56,-226.31"/>
</g>
<!-- Node18 -->
<g id="node18" class="node">
<title>Node18</title>
<g id="a_node18"><a xlink:href="FourierNLFormIntegrator_8hpp.html" target="_top" xlink:title="FV for the heat transfer equation.">
<polygon fill="none" stroke="black" points="1868.5,-118 1868.5,-137 2039.5,-137 2039.5,-118 1868.5,-118"/>
<text text-anchor="middle" x="1954" y="-125" font-family="serif" font-size="10.00">FourierNLFormIntegrator.hpp</text>
</a>
</g>
</g>
<!-- Node9&#45;&gt;Node18 -->
<g id="edge25" class="edge">
<title>Node9&#45;&gt;Node18</title>
<path fill="none" stroke="midnightblue" d="M1848.37,-234.15C1929.53,-223.45 2046.32,-206.83 2053,-199 2076.76,-171.15 2022.84,-148.67 1985.62,-137.07"/>
<polygon fill="midnightblue" stroke="midnightblue" points="1847.62,-230.72 1838.16,-235.49 1848.53,-237.66 1847.62,-230.72"/>
</g>
<!-- Node19 -->
<g id="node19" class="node">
<title>Node19</title>
<g id="a_node19"><a xlink:href="HeatTimeNLFormIntegrator_8hpp.html" target="_top" xlink:title="VF of the time derivative.">
<polygon fill="none" stroke="black" points="2058,-118 2058,-137 2242,-137 2242,-118 2058,-118"/>
<text text-anchor="middle" x="2150" y="-125" font-family="serif" font-size="10.00">HeatTimeNLFormIntegrator.hpp</text>
</a>
</g>
</g>
<!-- Node9&#45;&gt;Node19 -->
<g id="edge26" class="edge">
<title>Node9&#45;&gt;Node19</title>
<path fill="none" stroke="midnightblue" d="M1851.63,-234.18C1933.07,-223.89 2049.56,-207.99 2069,-199 2101.15,-184.14 2130.2,-152.5 2143.04,-137.18"/>
<polygon fill="midnightblue" stroke="midnightblue" points="1850.87,-230.75 1841.39,-235.47 1851.74,-237.7 1850.87,-230.75"/>
</g>
<!-- Node20 -->
<g id="node20" class="node">
<title>Node20</title>
<g id="a_node20"><a xlink:href="LatentHeatNLFormIntegrator_8hpp.html" target="_top" xlink:title="Latent heat contribution for heat transfer equation.">
<polygon fill="none" stroke="black" points="2314.5,-179.5 2314.5,-198.5 2505.5,-198.5 2505.5,-179.5 2314.5,-179.5"/>
<text text-anchor="middle" x="2410" y="-186.5" font-family="serif" font-size="10.00">LatentHeatNLFormIntegrator.hpp</text>
</a>
</g>
</g>
<!-- Node9&#45;&gt;Node20 -->
<g id="edge28" class="edge">
<title>Node9&#45;&gt;Node20</title>
<path fill="none" stroke="midnightblue" d="M1861.23,-234.9C2059.74,-216.94 2111.11,-215.3 2306,-199 2308.71,-198.77 2311.46,-198.54 2314.23,-198.31"/>
<polygon fill="midnightblue" stroke="midnightblue" points="1860.69,-231.44 1851.05,-235.83 1861.32,-238.41 1860.69,-231.44"/>
</g>
<!-- Node21 -->
<g id="node21" class="node">
<title>Node21</title>
<g id="a_node21"><a xlink:href="MeltingBaseNLFormIntegrator_8hpp.html" target="_top" xlink:title="Base class for melting integrators.">
<polygon fill="none" stroke="black" points="2562,-179.5 2562,-198.5 2760,-198.5 2760,-179.5 2562,-179.5"/>
<text text-anchor="middle" x="2661" y="-186.5" font-family="serif" font-size="10.00">MeltingBaseNLFormIntegrator.hpp</text>
</a>
</g>
</g>
<!-- Node9&#45;&gt;Node21 -->
<g id="edge31" class="edge">
<title>Node9&#45;&gt;Node21</title>
<path fill="none" stroke="midnightblue" d="M1861.08,-234.95C2166.98,-211.75 2245.75,-218.94 2548,-199 2552.52,-198.7 2557.13,-198.38 2561.8,-198.05"/>
<polygon fill="midnightblue" stroke="midnightblue" points="1860.74,-231.47 1851.04,-235.72 1861.27,-238.45 1860.74,-231.47"/>
</g>
<!-- Node22 -->
<g id="node22" class="node">
<title>Node22</title>
<g id="a_node22"><a xlink:href="MeltingCalphadNLFormIntegrator_8hpp.html" target="_top" xlink:title="NonlinearFormIntegrator for ad&#45;hoc melting term based on temperature.">
<polygon fill="none" stroke="black" points="2336,-118 2336,-137 2552,-137 2552,-118 2336,-118"/>
<text text-anchor="middle" x="2444" y="-125" font-family="serif" font-size="10.00">MeltingCalphadNLFormIntegrator.hpp</text>
</a>
</g>
</g>
<!-- Node9&#45;&gt;Node22 -->
<g id="edge38" class="edge">
<title>Node9&#45;&gt;Node22</title>
<path fill="none" stroke="midnightblue" d="M1861.18,-235.2C1951.84,-231.48 2491.15,-224.2 2515,-199 2536.73,-176.04 2491.68,-150.09 2463.82,-137.01"/>
<polygon fill="midnightblue" stroke="midnightblue" points="1860.84,-231.71 1851.04,-235.73 1861.21,-238.7 1860.84,-231.71"/>
</g>
<!-- Node23 -->
<g id="node23" class="node">
<title>Node23</title>
<g id="a_node23"><a xlink:href="MeltingConstantNLFormIntegrator_8hpp.html" target="_top" xlink:title="NonlinearFormIntegrator for ad&#45;hoc constant melting term.">
<polygon fill="none" stroke="black" points="2570.5,-118 2570.5,-137 2789.5,-137 2789.5,-118 2570.5,-118"/>
<text text-anchor="middle" x="2680" y="-125" font-family="serif" font-size="10.00">MeltingConstantNLFormIntegrator.hpp</text>
</a>
</g>
</g>
<!-- Node9&#45;&gt;Node23 -->
<g id="edge39" class="edge">
<title>Node9&#45;&gt;Node23</title>
<path fill="none" stroke="midnightblue" d="M1861.06,-235.22C1972,-231.7 2735.31,-234.05 2769,-199 2793.31,-173.7 2740.79,-149.5 2706.52,-137.1"/>
<polygon fill="midnightblue" stroke="midnightblue" points="1860.87,-231.73 1851.03,-235.67 1861.18,-238.72 1860.87,-231.73"/>
</g>
<!-- Node24 -->
<g id="node24" class="node">
<title>Node24</title>
<g id="a_node24"><a xlink:href="MeltingTemperatureNLFormIntegrator_8hpp.html" target="_top" xlink:title="NonlinearFormIntegrator for ad&#45;hoc melting term based on temperature.">
<polygon fill="none" stroke="black" points="2807.5,-112.5 2807.5,-142.5 2972.5,-142.5 2972.5,-112.5 2807.5,-112.5"/>
<text text-anchor="start" x="2815.5" y="-130.5" font-family="serif" font-size="10.00">MeltingTemperatureNLForm</text>
<text text-anchor="middle" x="2890" y="-119.5" font-family="serif" font-size="10.00">Integrator.hpp</text>
</a>
</g>
</g>
<!-- Node9&#45;&gt;Node24 -->
<g id="edge40" class="edge">
<title>Node9&#45;&gt;Node24</title>
<path fill="none" stroke="midnightblue" d="M1861.13,-235.07C2000.54,-227.97 2690.75,-230.28 2786,-199 2821.65,-187.29 2856.34,-159.49 2875.27,-142.51"/>
<polygon fill="midnightblue" stroke="midnightblue" points="1860.81,-231.58 1851.03,-235.67 1861.22,-238.57 1860.81,-231.58"/>
</g>
<!-- Node25 -->
<g id="node25" class="node">
<title>Node25</title>
<g id="a_node25"><a xlink:href="RobinNLFormIntegrator_8hpp.html" target="_top" xlink:title="Robin integrator.">
<polygon fill="none" stroke="black" points="2919,-179.5 2919,-198.5 3083,-198.5 3083,-179.5 2919,-179.5"/>
<text text-anchor="middle" x="3001" y="-186.5" font-family="serif" font-size="10.00">RobinNLFormIntegrator.hpp</text>
</a>
</g>
</g>
<!-- Node9&#45;&gt;Node25 -->
<g id="edge41" class="edge">
<title>Node9&#45;&gt;Node25</title>
<path fill="none" stroke="midnightblue" d="M1861.04,-234.98C2310.7,-204.61 2425.85,-222.49 2872,-199 2887.13,-198.2 2903.25,-197.2 2918.79,-196.16"/>
<polygon fill="midnightblue" stroke="midnightblue" points="1860.77,-231.49 1851.03,-235.66 1861.25,-238.47 1860.77,-231.49"/>
</g>
<!-- Node27 -->
<g id="node27" class="node">
<title>Node27</title>
<g id="a_node27"><a xlink:href="TimeCHNLFormIntegrator_8hpp.html" target="_top" xlink:title="VF of the time derivative for CH equations.">
<polygon fill="none" stroke="black" points="719,-179.5 719,-198.5 895,-198.5 895,-179.5 719,-179.5"/>
<text text-anchor="middle" x="807" y="-186.5" font-family="serif" font-size="10.00">TimeCHNLFormIntegrator.hpp</text>
</a>
</g>
</g>
<!-- Node9&#45;&gt;Node27 -->
<g id="edge45" class="edge">
<title>Node9&#45;&gt;Node27</title>
<path fill="none" stroke="midnightblue" d="M1680.64,-240.35C1523.61,-233.77 1190.22,-218.74 909,-199 904.48,-198.68 899.84,-198.34 895.17,-197.98"/>
<polygon fill="midnightblue" stroke="midnightblue" points="1680.59,-243.85 1690.72,-240.77 1680.88,-236.86 1680.59,-243.85"/>
</g>
<!-- Node28 -->
<g id="node28" class="node">
<title>Node28</title>
<g id="a_node28"><a xlink:href="TimeNLFormIntegrator_8hpp.html" target="_top" xlink:title="VF of the time derivative.">
<polygon fill="none" stroke="black" points="2137.5,-179.5 2137.5,-198.5 2296.5,-198.5 2296.5,-179.5 2137.5,-179.5"/>
<text text-anchor="middle" x="2217" y="-186.5" font-family="serif" font-size="10.00">TimeNLFormIntegrator.hpp</text>
</a>
</g>
</g>
<!-- Node9&#45;&gt;Node28 -->
<g id="edge47" class="edge">
<title>Node9&#45;&gt;Node28</title>
<path fill="none" stroke="midnightblue" d="M1851.7,-234.23C1935.89,-224.04 2066.55,-208.22 2146.66,-198.52"/>
<polygon fill="midnightblue" stroke="midnightblue" points="1851.18,-230.77 1841.67,-235.44 1852.02,-237.72 1851.18,-230.77"/>
</g>
<!-- Node9&#45;&gt;Node29 -->
<g id="edge50" class="edge">
<title>Node9&#45;&gt;Node29</title>
<path fill="none" stroke="midnightblue" d="M1680.84,-243.13C1497.58,-240.72 1068.59,-231.74 710,-199 707.09,-198.73 704.12,-198.43 701.12,-198.1"/>
<polygon fill="midnightblue" stroke="midnightblue" points="1680.92,-246.63 1690.96,-243.26 1681.01,-239.63 1680.92,-246.63"/>
</g>
<!-- Node10&#45;&gt;Node11 -->
<g id="edge11" class="edge">
<title>Node10&#45;&gt;Node11</title>
<path fill="none" stroke="midnightblue" d="M1080.81,-176.45C1137.39,-159.23 1249.44,-127.22 1347,-112 1584.81,-74.9 1872.32,-68.24 1993.58,-67.15"/>
<polygon fill="midnightblue" stroke="midnightblue" points="1079.76,-173.11 1071.23,-179.39 1081.82,-179.8 1079.76,-173.11"/>
</g>
<!-- Node12&#45;&gt;Node11 -->
<g id="edge13" class="edge">
<title>Node12&#45;&gt;Node11</title>
<path fill="none" stroke="midnightblue" d="M1285.92,-174.37C1317.24,-156.51 1375.73,-125.84 1430,-112 1535.7,-85.05 1860.36,-72.65 1993.8,-68.59"/>
<polygon fill="midnightblue" stroke="midnightblue" points="1284.01,-171.44 1277.1,-179.47 1287.51,-177.49 1284.01,-171.44"/>
</g>
<!-- Node13&#45;&gt;Node11 -->
<g id="edge15" class="edge">
<title>Node13&#45;&gt;Node11</title>
<path fill="none" stroke="midnightblue" d="M1467.23,-173.28C1446.89,-157.14 1421.34,-131 1439,-112 1476.3,-71.87 1848.28,-67.16 1993.94,-66.87"/>
<polygon fill="midnightblue" stroke="midnightblue" points="1465.13,-176.08 1475.21,-179.34 1469.36,-170.5 1465.13,-176.08"/>
</g>
<!-- Node15 -->
<g id="node15" class="node">
<title>Node15</title>
<g id="a_node15"><a xlink:href="MassDiffusionFluxNLFormIntegrator_8hpp.html" target="_top" xlink:title="Class dedicated to the VF of diffusion flux (gradient of chemical potential) used in mass balance equ...">
<polygon fill="none" stroke="black" points="1448.5,-118 1448.5,-137 1677.5,-137 1677.5,-118 1448.5,-118"/>
<text text-anchor="middle" x="1563" y="-125" font-family="serif" font-size="10.00">MassDiffusionFluxNLFormIntegrator.hpp</text>
</a>
</g>
</g>
<!-- Node14&#45;&gt;Node15 -->
<g id="edge17" class="edge">
<title>Node14&#45;&gt;Node15</title>
<path fill="none" stroke="midnightblue" d="M1677.07,-175.63C1649.09,-164.07 1608.06,-147.12 1583.59,-137.01"/>
<polygon fill="midnightblue" stroke="midnightblue" points="1675.79,-178.89 1686.37,-179.48 1678.46,-172.42 1675.79,-178.89"/>
</g>
<!-- Node15&#45;&gt;Node11 -->
<g id="edge18" class="edge">
<title>Node15&#45;&gt;Node11</title>
<path fill="none" stroke="midnightblue" d="M1643.28,-116.73C1741.88,-104.73 1906.76,-84.67 1993.92,-74.07"/>
<polygon fill="midnightblue" stroke="midnightblue" points="1642.57,-113.29 1633.06,-117.98 1643.41,-120.24 1642.57,-113.29"/>
</g>
<!-- Node16&#45;&gt;Node17 -->
<g id="edge20" class="edge">
<title>Node16&#45;&gt;Node17</title>
<path fill="none" stroke="midnightblue" d="M1918.2,-176.23C1883.02,-164.67 1830.18,-147.3 1798.88,-137.01"/>
<polygon fill="midnightblue" stroke="midnightblue" points="1917.47,-179.68 1928.07,-179.48 1919.66,-173.03 1917.47,-179.68"/>
</g>
<!-- Node16&#45;&gt;Node18 -->
<g id="edge22" class="edge">
<title>Node16&#45;&gt;Node18</title>
<path fill="none" stroke="midnightblue" d="M1954,-169.32C1954,-158.5 1954,-145.4 1954,-137.01"/>
<polygon fill="midnightblue" stroke="midnightblue" points="1950.5,-169.48 1954,-179.48 1957.5,-169.48 1950.5,-169.48"/>
</g>
<!-- Node17&#45;&gt;Node11 -->
<g id="edge21" class="edge">
<title>Node17&#45;&gt;Node11</title>
<path fill="none" stroke="midnightblue" d="M1823.03,-115.83C1877.14,-104.29 1962.31,-86.13 2012.1,-75.51"/>
<polygon fill="midnightblue" stroke="midnightblue" points="1822.02,-112.47 1812.97,-117.98 1823.48,-119.31 1822.02,-112.47"/>
</g>
<!-- Node18&#45;&gt;Node11 -->
<g id="edge23" class="edge">
<title>Node18&#45;&gt;Node11</title>
<path fill="none" stroke="midnightblue" d="M1976.66,-112.74C1995.59,-101.25 2021.99,-85.22 2037.99,-75.51"/>
<polygon fill="midnightblue" stroke="midnightblue" points="1974.77,-109.79 1968.04,-117.98 1978.41,-115.78 1974.77,-109.79"/>
</g>
<!-- Node19&#45;&gt;Node11 -->
<g id="edge27" class="edge">
<title>Node19&#45;&gt;Node11</title>
<path fill="none" stroke="midnightblue" d="M2127.34,-112.74C2108.41,-101.25 2082.01,-85.22 2066.01,-75.51"/>
<polygon fill="midnightblue" stroke="midnightblue" points="2125.59,-115.78 2135.96,-117.98 2129.23,-109.79 2125.59,-115.78"/>
</g>
<!-- Node20&#45;&gt;Node11 -->
<g id="edge29" class="edge">
<title>Node20&#45;&gt;Node11</title>
<path fill="none" stroke="midnightblue" d="M2385,-174.48C2345.66,-153.24 2273.14,-114.22 2267,-112 2215.55,-93.37 2154.22,-81.48 2110.26,-74.64"/>
<polygon fill="midnightblue" stroke="midnightblue" points="2383.76,-177.79 2394.22,-179.46 2387.09,-171.63 2383.76,-177.79"/>
</g>
<!-- Node21&#45;&gt;Node22 -->
<g id="edge32" class="edge">
<title>Node21&#45;&gt;Node22</title>
<path fill="none" stroke="midnightblue" d="M2620.23,-176.82C2578.08,-165.26 2513.2,-147.47 2475.03,-137.01"/>
<polygon fill="midnightblue" stroke="midnightblue" points="2619.34,-180.21 2629.91,-179.48 2621.19,-173.46 2619.34,-180.21"/>
</g>
<!-- Node21&#45;&gt;Node23 -->
<g id="edge34" class="edge">
<title>Node21&#45;&gt;Node23</title>
<path fill="none" stroke="midnightblue" d="M2666.86,-169.66C2670.33,-158.77 2674.58,-145.49 2677.28,-137.01"/>
<polygon fill="midnightblue" stroke="midnightblue" points="2663.43,-168.88 2663.72,-179.48 2670.1,-171.01 2663.43,-168.88"/>
</g>
<!-- Node21&#45;&gt;Node24 -->
<g id="edge36" class="edge">
<title>Node21&#45;&gt;Node24</title>
<path fill="none" stroke="midnightblue" d="M2703.88,-176.86C2741.27,-167.14 2795.68,-153.01 2836.03,-142.52"/>
<polygon fill="midnightblue" stroke="midnightblue" points="2702.61,-173.57 2693.81,-179.48 2704.37,-180.35 2702.61,-173.57"/>
</g>
<!-- Node22&#45;&gt;Node11 -->
<g id="edge33" class="edge">
<title>Node22&#45;&gt;Node11</title>
<path fill="none" stroke="midnightblue" d="M2377.93,-116.47C2302.18,-104.97 2179.33,-86.33 2108.06,-75.51"/>
<polygon fill="midnightblue" stroke="midnightblue" points="2377.42,-119.93 2387.84,-117.98 2378.47,-113.01 2377.42,-119.93"/>
</g>
<!-- Node23&#45;&gt;Node11 -->
<g id="edge35" class="edge">
<title>Node23&#45;&gt;Node11</title>
<path fill="none" stroke="midnightblue" d="M2603.22,-116.77C2589.18,-115.09 2574.66,-113.44 2561,-112 2397.78,-94.85 2204.65,-78.98 2110.07,-71.51"/>
<polygon fill="midnightblue" stroke="midnightblue" points="2602.98,-120.26 2613.33,-117.98 2603.82,-113.31 2602.98,-120.26"/>
</g>
<!-- Node24&#45;&gt;Node11 -->
<g id="edge37" class="edge">
<title>Node24&#45;&gt;Node11</title>
<path fill="none" stroke="midnightblue" d="M2797.15,-111.86C2535.52,-83.7 2234.67,-72.34 2110.28,-68.57"/>
<polygon fill="midnightblue" stroke="midnightblue" points="2796.9,-115.36 2807.22,-112.96 2797.66,-108.4 2796.9,-115.36"/>
</g>
<!-- Node25&#45;&gt;Node11 -->
<g id="edge42" class="edge">
<title>Node25&#45;&gt;Node11</title>
<path fill="none" stroke="midnightblue" d="M3002.08,-169.19C3001.97,-151.47 2998.64,-125.65 2982,-112 2948.24,-84.3 2308.64,-71.3 2110.2,-67.92"/>
<polygon fill="midnightblue" stroke="midnightblue" points="2998.58,-169.14 3001.82,-179.23 3005.58,-169.33 2998.58,-169.14"/>
</g>
<!-- Node26 -->
<g id="node26" class="node">
<title>Node26</title>
<g id="a_node26"><a xlink:href="NeumannNLFormIntegrator_8hpp.html" target="_top" xlink:title="Neumann integrator.">
<polygon fill="none" stroke="black" points="3028.5,-118 3028.5,-137 3213.5,-137 3213.5,-118 3028.5,-118"/>
<text text-anchor="middle" x="3121" y="-125" font-family="serif" font-size="10.00">NeumannNLFormIntegrator.hpp</text>
</a>
</g>
</g>
<!-- Node25&#45;&gt;Node26 -->
<g id="edge43" class="edge">
<title>Node25&#45;&gt;Node26</title>
<path fill="none" stroke="midnightblue" d="M3027.18,-175.02C3050.45,-163.48 3083.8,-146.94 3103.84,-137.01"/>
<polygon fill="midnightblue" stroke="midnightblue" points="3025.6,-171.9 3018.19,-179.48 3028.71,-178.17 3025.6,-171.9"/>
</g>
<!-- Node26&#45;&gt;Node11 -->
<g id="edge44" class="edge">
<title>Node26&#45;&gt;Node11</title>
<path fill="none" stroke="midnightblue" d="M3055.47,-116.61C3042.1,-114.85 3028.12,-113.2 3015,-112 2672.9,-80.67 2260.33,-70.65 2110.2,-67.91"/>
<polygon fill="midnightblue" stroke="midnightblue" points="3055.17,-120.1 3065.54,-117.96 3056.1,-113.16 3055.17,-120.1"/>
</g>
<!-- Node27&#45;&gt;Node11 -->
<g id="edge46" class="edge">
<title>Node27&#45;&gt;Node11</title>
<path fill="none" stroke="midnightblue" d="M826.54,-173.21C855.48,-151.34 906.62,-112.84 909,-112 1011.51,-75.76 1775.11,-68.59 1993.7,-67.28"/>
<polygon fill="midnightblue" stroke="midnightblue" points="824.22,-170.58 818.35,-179.41 828.44,-176.17 824.22,-170.58"/>
</g>
<!-- Node28&#45;&gt;Node11 -->
<g id="edge49" class="edge">
<title>Node28&#45;&gt;Node11</title>
<path fill="none" stroke="midnightblue" d="M2233.82,-171.6C2248.53,-155.27 2265.45,-130.08 2251,-112 2233.64,-90.28 2162.73,-78.27 2110.48,-72.24"/>
<polygon fill="midnightblue" stroke="midnightblue" points="2230.89,-169.61 2226.51,-179.26 2235.95,-174.44 2230.89,-169.61"/>
</g>
<!-- Node28&#45;&gt;Node19 -->
<g id="edge48" class="edge">
<title>Node28&#45;&gt;Node19</title>
<path fill="none" stroke="midnightblue" d="M2199.71,-172.65C2186.94,-161.31 2170.02,-146.28 2159.58,-137.01"/>
<polygon fill="midnightblue" stroke="midnightblue" points="2197.6,-175.45 2207.4,-179.48 2202.25,-170.22 2197.6,-175.45"/>
</g>
<!-- Node30 -->
<g id="node30" class="node">
<title>Node30</title>
<g id="a_node30"><a xlink:href="SteadyOperator_8hpp.html" target="_top" xlink:title="Steady Operator.">
<polygon fill="none" stroke="black" points="585,-118 585,-137 705,-137 705,-118 585,-118"/>
<text text-anchor="middle" x="645" y="-125" font-family="serif" font-size="10.00">SteadyOperator.hpp</text>
</a>
</g>
</g>
<!-- Node29&#45;&gt;Node30 -->
<g id="edge51" class="edge">
<title>Node29&#45;&gt;Node30</title>
<path fill="none" stroke="midnightblue" d="M645.69,-169.32C645.5,-158.5 645.28,-145.4 645.14,-137.01"/>
<polygon fill="midnightblue" stroke="midnightblue" points="642.19,-169.54 645.86,-179.48 649.19,-169.42 642.19,-169.54"/>
</g>
<!-- Node32 -->
<g id="node32" class="node">
<title>Node32</title>
<g id="a_node32"><a xlink:href="TransientOperator_8hpp.html" target="_top" xlink:title="Transient Operator.">
<polygon fill="none" stroke="black" points="723,-118 723,-137 857,-137 857,-118 723,-118"/>
<text text-anchor="middle" x="790" y="-125" font-family="serif" font-size="10.00">TransientOperator.hpp</text>
</a>
</g>
</g>
<!-- Node29&#45;&gt;Node32 -->
<g id="edge54" class="edge">
<title>Node29&#45;&gt;Node32</title>
<path fill="none" stroke="midnightblue" d="M675.93,-175.63C703.91,-164.07 744.94,-147.12 769.41,-137.01"/>
<polygon fill="midnightblue" stroke="midnightblue" points="674.54,-172.42 666.63,-179.48 677.21,-178.89 674.54,-172.42"/>
</g>
<!-- Node31 -->
<g id="node31" class="node">
<title>Node31</title>
<g id="a_node31"><a xlink:href="ListOperators_8hpp.html" target="_top" xlink:title=" ">
<polygon fill="none" stroke="black" points="634,-56.5 634,-75.5 744,-75.5 744,-56.5 634,-56.5"/>
<text text-anchor="middle" x="689" y="-63.5" font-family="serif" font-size="10.00">ListOperators.hpp</text>
</a>
</g>
</g>
<!-- Node30&#45;&gt;Node31 -->
<g id="edge52" class="edge">
<title>Node30&#45;&gt;Node31</title>
<path fill="none" stroke="midnightblue" d="M657.32,-109.84C665.58,-98.67 676.11,-84.43 682.71,-75.51"/>
<polygon fill="midnightblue" stroke="midnightblue" points="654.44,-107.85 651.3,-117.98 660.06,-112.02 654.44,-107.85"/>
</g>
<!-- Node31&#45;&gt;Node3 -->
<g id="edge53" class="edge">
<title>Node31&#45;&gt;Node3</title>
<path fill="none" stroke="midnightblue" d="M640.85,-54.26C593.1,-43.6 521.23,-27.56 479.73,-18.3"/>
<polygon fill="midnightblue" stroke="midnightblue" points="640.13,-57.68 650.65,-56.44 641.66,-50.85 640.13,-57.68"/>
</g>
<!-- Node32&#45;&gt;Node31 -->
<g id="edge55" class="edge">
<title>Node32&#45;&gt;Node31</title>
<path fill="none" stroke="midnightblue" d="M766.65,-112.74C747.14,-101.25 719.93,-85.22 703.44,-75.51"/>
<polygon fill="midnightblue" stroke="midnightblue" points="765.14,-115.91 775.53,-117.98 768.69,-109.88 765.14,-115.91"/>
</g>
<!-- Node34 -->
<g id="node34" class="node">
<title>Node34</title>
<g id="a_node34"><a xlink:href="Calphad__problem_8hpp.html" target="_top" xlink:title="Class used to defined a Calphad_Problem objet.">
<polygon fill="none" stroke="black" points="28.5,-118 28.5,-137 159.5,-137 159.5,-118 28.5,-118"/>
<text text-anchor="middle" x="94" y="-125" font-family="serif" font-size="10.00">Calphad_problem.hpp</text>
</a>
</g>
</g>
<!-- Node33&#45;&gt;Node34 -->
<g id="edge58" class="edge">
<title>Node33&#45;&gt;Node34</title>
<path fill="none" stroke="midnightblue" d="M254.63,-176.53C215.96,-164.96 157.16,-147.38 122.46,-137.01"/>
<polygon fill="midnightblue" stroke="midnightblue" points="253.9,-179.96 264.49,-179.48 255.91,-173.26 253.9,-179.96"/>
</g>
<!-- Node36 -->
<g id="node36" class="node">
<title>Node36</title>
<g id="a_node36"><a xlink:href="MPIProblem_8hpp.html" target="_top" xlink:title="Class used to defined a MPI_Problem objet.">
<polygon fill="none" stroke="black" points="178,-118 178,-137 282,-137 282,-118 178,-118"/>
<text text-anchor="middle" x="230" y="-125" font-family="serif" font-size="10.00">MPIProblem.hpp</text>
</a>
</g>
</g>
<!-- Node33&#45;&gt;Node36 -->
<g id="edge61" class="edge">
<title>Node33&#45;&gt;Node36</title>
<path fill="none" stroke="midnightblue" d="M276.4,-172.32C264.43,-161.02 248.73,-146.19 239.01,-137.01"/>
<polygon fill="midnightblue" stroke="midnightblue" points="274.3,-175.15 283.97,-179.48 279.11,-170.06 274.3,-175.15"/>
</g>
<!-- Node37 -->
<g id="node37" class="node">
<title>Node37</title>
<g id="a_node37"><a xlink:href="Problem_8hpp.html" target="_top" xlink:title="Class used to defined a PDE Problem.">
<polygon fill="none" stroke="black" points="445.5,-118 445.5,-137 528.5,-137 528.5,-118 445.5,-118"/>
<text text-anchor="middle" x="487" y="-125" font-family="serif" font-size="10.00">Problem.hpp</text>
</a>
</g>
</g>
<!-- Node33&#45;&gt;Node37 -->
<g id="edge63" class="edge">
<title>Node33&#45;&gt;Node37</title>
<path fill="none" stroke="midnightblue" d="M330.4,-176.53C368.11,-164.96 425.43,-147.38 459.26,-137.01"/>
<polygon fill="midnightblue" stroke="midnightblue" points="329.33,-173.2 320.8,-179.48 331.38,-179.89 329.33,-173.2"/>
</g>
<!-- Node39 -->
<g id="node39" class="node">
<title>Node39</title>
<g id="a_node39"><a xlink:href="PropertyProblem_8hpp.html" target="_top" xlink:title="Class used to compute primary variables as a function of auxialiary variables.">
<polygon fill="none" stroke="black" points="300.5,-118 300.5,-137 427.5,-137 427.5,-118 300.5,-118"/>
<text text-anchor="middle" x="364" y="-125" font-family="serif" font-size="10.00">PropertyProblem.hpp</text>
</a>
</g>
</g>
<!-- Node33&#45;&gt;Node39 -->
<g id="edge67" class="edge">
<title>Node33&#45;&gt;Node39</title>
<path fill="none" stroke="midnightblue" d="M310.93,-172.97C324.51,-161.59 342.68,-146.37 353.85,-137.01"/>
<polygon fill="midnightblue" stroke="midnightblue" points="308.59,-170.37 303.17,-179.48 313.09,-175.73 308.59,-170.37"/>
</g>
<!-- Node35 -->
<g id="node35" class="node">
<title>Node35</title>
<g id="a_node35"><a xlink:href="ListProblems_8hpp.html" target="_top" xlink:title=" ">
<polygon fill="none" stroke="black" points="289.5,-56.5 289.5,-75.5 396.5,-75.5 396.5,-56.5 289.5,-56.5"/>
<text text-anchor="middle" x="343" y="-63.5" font-family="serif" font-size="10.00">ListProblems.hpp</text>
</a>
</g>
</g>
<!-- Node34&#45;&gt;Node35 -->
<g id="edge59" class="edge">
<title>Node34&#45;&gt;Node35</title>
<path fill="none" stroke="midnightblue" d="M139.56,-115.61C187.89,-104.07 263.23,-86.06 307.39,-75.51"/>
<polygon fill="midnightblue" stroke="midnightblue" points="138.59,-112.25 129.68,-117.98 140.22,-119.06 138.59,-112.25"/>
</g>
<!-- Node35&#45;&gt;Node3 -->
<g id="edge60" class="edge">
<title>Node35&#45;&gt;Node3</title>
<path fill="none" stroke="midnightblue" d="M368.83,-51.59C388.06,-41.61 413.74,-28.27 430.33,-19.65"/>
<polygon fill="midnightblue" stroke="midnightblue" points="366.97,-48.61 359.71,-56.32 370.2,-54.82 366.97,-48.61"/>
</g>
<!-- Node36&#45;&gt;Node35 -->
<g id="edge62" class="edge">
<title>Node36&#45;&gt;Node35</title>
<path fill="none" stroke="midnightblue" d="M255.24,-113.21C277.12,-101.69 308.14,-85.36 326.84,-75.51"/>
<polygon fill="midnightblue" stroke="midnightblue" points="253.41,-110.22 246.19,-117.98 256.67,-116.41 253.41,-110.22"/>
</g>
<!-- Node37&#45;&gt;Node35 -->
<g id="edge64" class="edge">
<title>Node37&#45;&gt;Node35</title>
<path fill="none" stroke="midnightblue" d="M457.07,-114.13C429.09,-102.57 388.06,-85.62 363.59,-75.51"/>
<polygon fill="midnightblue" stroke="midnightblue" points="455.79,-117.39 466.37,-117.98 458.46,-110.92 455.79,-117.39"/>
</g>
<!-- Node38 -->
<g id="node38" class="node">
<title>Node38</title>
<g id="a_node38"><a xlink:href="Time_8hpp.html" target="_top" xlink:title="Main time loop.">
<polygon fill="none" stroke="black" points="414.5,-56.5 414.5,-75.5 479.5,-75.5 479.5,-56.5 414.5,-56.5"/>
<text text-anchor="middle" x="447" y="-63.5" font-family="serif" font-size="10.00">Time.hpp</text>
</a>
</g>
</g>
<!-- Node37&#45;&gt;Node38 -->
<g id="edge65" class="edge">
<title>Node37&#45;&gt;Node38</title>
<path fill="none" stroke="midnightblue" d="M475.57,-109.51C468.1,-98.39 458.66,-84.34 452.72,-75.51"/>
<polygon fill="midnightblue" stroke="midnightblue" points="472.79,-111.63 481.27,-117.98 478.59,-107.72 472.79,-111.63"/>
</g>
<!-- Node38&#45;&gt;Node3 -->
<g id="edge66" class="edge">
<title>Node38&#45;&gt;Node3</title>
<path fill="none" stroke="midnightblue" d="M447,-45.8C447,-36.91 447,-26.78 447,-19.75"/>
<polygon fill="midnightblue" stroke="midnightblue" points="443.5,-46.08 447,-56.08 450.5,-46.08 443.5,-46.08"/>
</g>
<!-- Node39&#45;&gt;Node35 -->
<g id="edge68" class="edge">
<title>Node39&#45;&gt;Node35</title>
<path fill="none" stroke="midnightblue" d="M357.65,-108.5C353.78,-97.55 349.03,-84.07 346,-75.51"/>
<polygon fill="midnightblue" stroke="midnightblue" points="354.36,-109.71 360.99,-117.98 360.96,-107.38 354.36,-109.71"/>
</g>
</g>
</svg>
