<?xml version="1.0" encoding="UTF-8" standalone="no"?>
<!DOCTYPE svg PUBLIC "-//W3C//DTD SVG 1.1//EN"
 "http://www.w3.org/Graphics/SVG/1.1/DTD/svg11.dtd">
<!-- Generated by graphviz version 2.43.0 (0)
 -->
<!-- Title: Coefficients.hpp Pages: 1 -->
<!--zoomable 319 -->
<svg id="main" version="1.1" xmlns="http://www.w3.org/2000/svg" xmlns:xlink="http://www.w3.org/1999/xlink" xml:space="preserve" onload="init(evt)">
<style type="text/css"><![CDATA[
.edge:hover path { stroke: red; }
.edge:hover polygon { stroke: red; fill: red; }
]]></style>
<script type="text/javascript"><![CDATA[
var edges = document.getElementsByTagName('g');
if (edges && edges.length) {
  for (var i=0;i<edges.length;i++) {
    if (edges[i].id.substr(0,4)=='edge') {
      edges[i].setAttribute('class','edge');
    }
  }
}
]]></script>
        <defs>
                <circle id="rim" cx="0" cy="0" r="7"/>
                <circle id="rim2" cx="0" cy="0" r="3.5"/>
                <g id="zoomPlus">
                        <use xlink:href="#rim" fill="#404040">
                                <set attributeName="fill" to="#808080" begin="zoomplus.mouseover" end="zoomplus.mouseout"/>
                        </use>
                        <path d="M-4,0h8M0,-4v8" fill="none" stroke="white" stroke-width="1.5" pointer-events="none"/>
                </g>
                <g id="zoomMin">
                        <use xlink:href="#rim" fill="#404040">
                                <set attributeName="fill" to="#808080" begin="zoomminus.mouseover" end="zoomminus.mouseout"/>
                        </use>
                        <path d="M-4,0h8" fill="none" stroke="white" stroke-width="1.5" pointer-events="none"/>
                </g>
                <g id="dirArrow">
                        <path fill="none" stroke="white" stroke-width="1.5" d="M0,-3.0v7 M-2.5,-0.5L0,-3.0L2.5,-0.5"/>
                </g>
               <g id="resetDef">
                       <use xlink:href="#rim2" fill="#404040">
                               <set attributeName="fill" to="#808080" begin="reset.mouseover" end="reset.mouseout"/>
                       </use>
               </g>
        </defs>

<script type="text/javascript">
var viewWidth = 3174;
var viewHeight = 319;
var sectionId = 'dynsection-1';
</script>
<script xlink:href="svgpan.js"/>
<svg id="graph" class="graph">
<g id="viewport">
<title>Coefficients.hpp</title>
<!-- Node1 -->
<g id="node1" class="node">
<title>Node1</title>
<g id="a_node1"><a xlink:title="Coefficients class used to build and manage a collection of Coefficient.">
<polygon fill="#bfbfbf" stroke="black" points="1476,-291.5 1476,-310.5 1575,-310.5 1575,-291.5 1476,-291.5"/>
<text text-anchor="middle" x="1525.5" y="-298.5" font-family="serif" font-size="10.00">Coefficients.hpp</text>
</a>
</g>
</g>
<!-- Node2 -->
<g id="node2" class="node">
<title>Node2</title>
<g id="a_node2"><a xlink:href="AxiCylindricalCoefficient_8hpp.html" target="_top" xlink:title="Built a MFEM Coefficient for AxiCylindricalCoefficient.">
<polygon fill="none" stroke="black" points="556,-235.5 556,-254.5 721,-254.5 721,-235.5 556,-235.5"/>
<text text-anchor="middle" x="638.5" y="-242.5" font-family="serif" font-size="10.00">AxiCylindricalCoefficient.hpp</text>
</a>
</g>
</g>
<!-- Node1&#45;&gt;Node2 -->
<g id="edge1" class="edge">
<title>Node1&#45;&gt;Node2</title>
<path fill="none" stroke="midnightblue" d="M1465.67,-296.36C1311.16,-286.95 898.48,-261.83 721.25,-251.04"/>
<polygon fill="midnightblue" stroke="midnightblue" points="1465.72,-299.87 1475.91,-296.98 1466.14,-292.88 1465.72,-299.87"/>
</g>
<!-- Node6 -->
<g id="node6" class="node">
<title>Node6</title>
<g id="a_node6"><a xlink:href="MfemCoefficient_8hpp.html" target="_top" xlink:title="Built a MFEM Coefficient from a SLOTH Coefficient.">
<polygon fill="none" stroke="black" points="1868.5,-235.5 1868.5,-254.5 1992.5,-254.5 1992.5,-235.5 1868.5,-235.5"/>
<text text-anchor="middle" x="1930.5" y="-242.5" font-family="serif" font-size="10.00">MfemCoefficient.hpp</text>
</a>
</g>
</g>
<!-- Node1&#45;&gt;Node6 -->
<g id="edge5" class="edge">
<title>Node1&#45;&gt;Node6</title>
<path fill="none" stroke="midnightblue" d="M1585.51,-292C1661.45,-281.87 1791.61,-264.52 1868.49,-254.27"/>
<polygon fill="midnightblue" stroke="midnightblue" points="1584.61,-288.59 1575.16,-293.38 1585.54,-295.53 1584.61,-288.59"/>
</g>
<!-- Node7 -->
<g id="node7" class="node">
<title>Node7</title>
<g id="a_node7"><a xlink:href="SlothNLFormIntegrator_8hpp.html" target="_top" xlink:title="Class prodiving common methods to all NLFormIntegrators.">
<polygon fill="none" stroke="black" points="1690.5,-235.5 1690.5,-254.5 1850.5,-254.5 1850.5,-235.5 1690.5,-235.5"/>
<text text-anchor="middle" x="1770.5" y="-242.5" font-family="serif" font-size="10.00">SlothNLFormIntegrator.hpp</text>
</a>
</g>
</g>
<!-- Node1&#45;&gt;Node7 -->
<g id="edge6" class="edge">
<title>Node1&#45;&gt;Node7</title>
<path fill="none" stroke="midnightblue" d="M1574.13,-289.28C1620.43,-279.08 1689.19,-263.92 1731.86,-254.52"/>
<polygon fill="midnightblue" stroke="midnightblue" points="1573.33,-285.87 1564.32,-291.44 1574.84,-292.71 1573.33,-285.87"/>
</g>
<!-- Node27 -->
<g id="node27" class="node">
<title>Node27</title>
<g id="a_node27"><a xlink:href="OperatorBase_8hpp.html" target="_top" xlink:title="Base class for building Steady and TimeDependent PhaseFieldOperators.">
<polygon fill="none" stroke="black" points="738.5,-179.5 738.5,-198.5 848.5,-198.5 848.5,-179.5 738.5,-179.5"/>
<text text-anchor="middle" x="793.5" y="-186.5" font-family="serif" font-size="10.00">OperatorBase.hpp</text>
</a>
</g>
</g>
<!-- Node1&#45;&gt;Node27 -->
<g id="edge53" class="edge">
<title>Node1&#45;&gt;Node27</title>
<path fill="none" stroke="midnightblue" d="M1465.71,-291.02C1326.67,-270.12 983.2,-218.51 848.74,-198.3"/>
<polygon fill="midnightblue" stroke="midnightblue" points="1465.35,-294.5 1475.76,-292.53 1466.39,-287.58 1465.35,-294.5"/>
</g>
<!-- Node31 -->
<g id="node31" class="node">
<title>Node31</title>
<g id="a_node31"><a xlink:href="ProblemBase_8hpp.html" target="_top" xlink:title="Base class for building Problems.">
<polygon fill="none" stroke="black" points="234,-179.5 234,-198.5 341,-198.5 341,-179.5 234,-179.5"/>
<text text-anchor="middle" x="287.5" y="-186.5" font-family="serif" font-size="10.00">ProblemBase.hpp</text>
</a>
</g>
</g>
<!-- Node1&#45;&gt;Node31 -->
<g id="edge54" class="edge">
<title>Node1&#45;&gt;Node31</title>
<path fill="none" stroke="midnightblue" d="M1465.82,-298.81C1282.01,-294.9 726.17,-281.18 547.5,-255 460.72,-242.29 360.77,-213.05 314.1,-198.52"/>
<polygon fill="midnightblue" stroke="midnightblue" points="1465.76,-302.31 1475.84,-299.02 1465.91,-295.31 1465.76,-302.31"/>
</g>
<!-- Node38 -->
<g id="node38" class="node">
<title>Node38</title>
<g id="a_node38"><a xlink:href="Coefficients_8cpp.html" target="_top" xlink:title="Coefficients class used to build and manage a collection of Coefficient.">
<polygon fill="none" stroke="black" points="2010.5,-235.5 2010.5,-254.5 2108.5,-254.5 2108.5,-235.5 2010.5,-235.5"/>
<text text-anchor="middle" x="2059.5" y="-242.5" font-family="serif" font-size="10.00">Coefficients.cpp</text>
</a>
</g>
</g>
<!-- Node1&#45;&gt;Node38 -->
<g id="edge66" class="edge">
<title>Node1&#45;&gt;Node38</title>
<path fill="none" stroke="midnightblue" d="M1585.34,-295.5C1675.68,-288.44 1852.19,-273.62 2001.5,-255 2004.43,-254.63 2007.44,-254.24 2010.48,-253.82"/>
<polygon fill="midnightblue" stroke="midnightblue" points="1584.99,-292.01 1575.29,-296.28 1585.53,-298.99 1584.99,-292.01"/>
</g>
<!-- Node3 -->
<g id="node3" class="node">
<title>Node3</title>
<g id="a_node3"><a xlink:href="ListCoefficients_8hpp.html" target="_top" xlink:title="List of header files contained in the Coefficients directory.">
<polygon fill="none" stroke="black" points="408.5,-56.5 408.5,-75.5 526.5,-75.5 526.5,-56.5 408.5,-56.5"/>
<text text-anchor="middle" x="467.5" y="-63.5" font-family="serif" font-size="10.00">ListCoefficients.hpp</text>
</a>
</g>
</g>
<!-- Node2&#45;&gt;Node3 -->
<g id="edge2" class="edge">
<title>Node2&#45;&gt;Node3</title>
<path fill="none" stroke="midnightblue" d="M599.48,-231.7C581.77,-224.5 561.66,-213.85 547.5,-199 518.38,-168.47 532.67,-147.26 509.5,-112 500.23,-97.89 486.4,-84.05 477.18,-75.53"/>
<polygon fill="midnightblue" stroke="midnightblue" points="598.43,-235.05 609.02,-235.35 600.93,-228.51 598.43,-235.05"/>
</g>
<!-- Node5 -->
<g id="node5" class="node">
<title>Node5</title>
<g id="a_node5"><a xlink:href="AxiCylindricalCoefficient_8cpp.html" target="_top" xlink:title="Built a MFEM Coefficient for AxiCylindricalCoefficient.">
<polygon fill="none" stroke="black" points="556.5,-179.5 556.5,-198.5 720.5,-198.5 720.5,-179.5 556.5,-179.5"/>
<text text-anchor="middle" x="638.5" y="-186.5" font-family="serif" font-size="10.00">AxiCylindricalCoefficient.cpp</text>
</a>
</g>
</g>
<!-- Node2&#45;&gt;Node5 -->
<g id="edge4" class="edge">
<title>Node2&#45;&gt;Node5</title>
<path fill="none" stroke="midnightblue" d="M638.5,-224.8C638.5,-215.91 638.5,-205.78 638.5,-198.75"/>
<polygon fill="midnightblue" stroke="midnightblue" points="635,-225.08 638.5,-235.08 642,-225.08 635,-225.08"/>
</g>
<!-- Node4 -->
<g id="node4" class="node">
<title>Node4</title>
<g id="a_node4"><a xlink:href="sloth_8hpp.html" target="_top" xlink:title="List of SLOTH header files.">
<polygon fill="none" stroke="black" points="369,-0.5 369,-19.5 434,-19.5 434,-0.5 369,-0.5"/>
<text text-anchor="middle" x="401.5" y="-7.5" font-family="serif" font-size="10.00">sloth.hpp</text>
</a>
</g>
</g>
<!-- Node3&#45;&gt;Node4 -->
<g id="edge3" class="edge">
<title>Node3&#45;&gt;Node4</title>
<path fill="none" stroke="midnightblue" d="M448.95,-49.82C437.12,-40.15 422.21,-27.95 412.3,-19.83"/>
<polygon fill="midnightblue" stroke="midnightblue" points="446.94,-52.7 456.9,-56.32 451.37,-47.28 446.94,-52.7"/>
</g>
<!-- Node8 -->
<g id="node8" class="node">
<title>Node8</title>
<g id="a_node8"><a xlink:href="AllenCahnNLFormIntegrator_8hpp.html" target="_top" xlink:title="VF of the Allen Cahn equation.">
<polygon fill="none" stroke="black" points="2746,-179.5 2746,-198.5 2933,-198.5 2933,-179.5 2746,-179.5"/>
<text text-anchor="middle" x="2839.5" y="-186.5" font-family="serif" font-size="10.00">AllenCahnNLFormIntegrator.hpp</text>
</a>
</g>
</g>
<!-- Node7&#45;&gt;Node8 -->
<g id="edge7" class="edge">
<title>Node7&#45;&gt;Node8</title>
<path fill="none" stroke="midnightblue" d="M1860.63,-234.97C2248.55,-207.72 2348.24,-223.07 2732.5,-199 2736.87,-198.73 2741.34,-198.43 2745.86,-198.11"/>
<polygon fill="midnightblue" stroke="midnightblue" points="1860.26,-231.48 1850.53,-235.68 1860.76,-238.47 1860.26,-231.48"/>
</g>
<!-- Node9 -->
<g id="node9" class="node">
<title>Node9</title>
<g id="a_node9"><a xlink:href="ListIntegrators_8hpp.html" target="_top" xlink:title="List of header files contained in the Integrators directory.">
<polygon fill="none" stroke="black" points="1954.5,-56.5 1954.5,-75.5 2070.5,-75.5 2070.5,-56.5 1954.5,-56.5"/>
<text text-anchor="middle" x="2012.5" y="-63.5" font-family="serif" font-size="10.00">ListIntegrators.hpp</text>
</a>
</g>
</g>
<!-- Node7&#45;&gt;Node9 -->
<g id="edge27" class="edge">
<title>Node7&#45;&gt;Node9</title>
<path fill="none" stroke="midnightblue" d="M1860.55,-235.13C1990.17,-229.62 2625.2,-251.15 2699.5,-199 2721.52,-183.54 2717.29,-169.4 2722.5,-143 2725.17,-129.48 2731.93,-122.05 2722.5,-112 2700.3,-88.35 2236.21,-73.21 2070.59,-68.54"/>
<polygon fill="midnightblue" stroke="midnightblue" points="1860.33,-231.64 1850.53,-235.69 1860.71,-238.63 1860.33,-231.64"/>
</g>
<!-- Node10 -->
<g id="node10" class="node">
<title>Node10</title>
<g id="a_node10"><a xlink:href="BlockAllenCahnNLFormIntegrator_8hpp.html" target="_top" xlink:title="VF of the AllenCahn equations (splitted form)">
<polygon fill="none" stroke="black" points="2951,-179.5 2951,-198.5 3166,-198.5 3166,-179.5 2951,-179.5"/>
<text text-anchor="middle" x="3058.5" y="-186.5" font-family="serif" font-size="10.00">BlockAllenCahnNLFormIntegrator.hpp</text>
</a>
</g>
</g>
<!-- Node7&#45;&gt;Node10 -->
<g id="edge9" class="edge">
<title>Node7&#45;&gt;Node10</title>
<path fill="none" stroke="midnightblue" d="M1860.52,-234.98C2341.7,-203.07 2464.92,-225.45 2942.5,-199 2945.32,-198.84 2948.19,-198.68 2951.07,-198.5"/>
<polygon fill="midnightblue" stroke="midnightblue" points="1860.28,-231.49 1850.53,-235.65 1860.74,-238.48 1860.28,-231.49"/>
</g>
<!-- Node11 -->
<g id="node11" class="node">
<title>Node11</title>
<g id="a_node11"><a xlink:href="CahnHilliardNLFormIntegrator_8hpp.html" target="_top" xlink:title="VF of the CahnHilliard equations.">
<polygon fill="none" stroke="black" points="867,-179.5 867,-198.5 1066,-198.5 1066,-179.5 867,-179.5"/>
<text text-anchor="middle" x="966.5" y="-186.5" font-family="serif" font-size="10.00">CahnHilliardNLFormIntegrator.hpp</text>
</a>
</g>
</g>
<!-- Node7&#45;&gt;Node11 -->
<g id="edge11" class="edge">
<title>Node7&#45;&gt;Node11</title>
<path fill="none" stroke="midnightblue" d="M1680.36,-238.68C1547.8,-230.73 1292.48,-214.98 1075.5,-199 1072.47,-198.78 1069.39,-198.55 1066.29,-198.31"/>
<polygon fill="midnightblue" stroke="midnightblue" points="1680.28,-242.18 1690.47,-239.28 1680.69,-235.19 1680.28,-242.18"/>
</g>
<!-- Node12 -->
<g id="node12" class="node">
<title>Node12</title>
<g id="a_node12"><a xlink:href="DiffusionFluxNLFormIntegrator_8hpp.html" target="_top" xlink:title="inter&#45;diffusion integrator">
<polygon fill="none" stroke="black" points="1084.5,-179.5 1084.5,-198.5 1286.5,-198.5 1286.5,-179.5 1084.5,-179.5"/>
<text text-anchor="middle" x="1185.5" y="-186.5" font-family="serif" font-size="10.00">DiffusionFluxNLFormIntegrator.hpp</text>
</a>
</g>
</g>
<!-- Node7&#45;&gt;Node12 -->
<g id="edge13" class="edge">
<title>Node7&#45;&gt;Node12</title>
<path fill="none" stroke="midnightblue" d="M1680.37,-235.68C1571.07,-225.59 1387.83,-208.68 1277.64,-198.51"/>
<polygon fill="midnightblue" stroke="midnightblue" points="1680.11,-239.17 1690.38,-236.6 1680.75,-232.2 1680.11,-239.17"/>
</g>
<!-- Node14 -->
<g id="node14" class="node">
<title>Node14</title>
<g id="a_node14"><a xlink:href="DiffusionNLFormIntegrator_8hpp.html" target="_top" xlink:title="Nonlinear form integrator for diffusion&#45;type problems.">
<polygon fill="none" stroke="black" points="1525,-179.5 1525,-198.5 1704,-198.5 1704,-179.5 1525,-179.5"/>
<text text-anchor="middle" x="1614.5" y="-186.5" font-family="serif" font-size="10.00">DiffusionNLFormIntegrator.hpp</text>
</a>
</g>
</g>
<!-- Node7&#45;&gt;Node14 -->
<g id="edge16" class="edge">
<title>Node7&#45;&gt;Node14</title>
<path fill="none" stroke="midnightblue" d="M1736.33,-232.17C1706.96,-222 1665.3,-207.59 1639.1,-198.52"/>
<polygon fill="midnightblue" stroke="midnightblue" points="1735.19,-235.48 1745.78,-235.44 1737.48,-228.86 1735.19,-235.48"/>
</g>
<!-- Node15 -->
<g id="node15" class="node">
<title>Node15</title>
<g id="a_node15"><a xlink:href="FickNLFormIntegrator_8hpp.html" target="_top" xlink:title="FV for the mass diffusion equation.">
<polygon fill="none" stroke="black" points="1419,-118 1419,-137 1574,-137 1574,-118 1419,-118"/>
<text text-anchor="middle" x="1496.5" y="-125" font-family="serif" font-size="10.00">FickNLFormIntegrator.hpp</text>
</a>
</g>
</g>
<!-- Node7&#45;&gt;Node15 -->
<g id="edge21" class="edge">
<title>Node7&#45;&gt;Node15</title>
<path fill="none" stroke="midnightblue" d="M1680.36,-238.06C1617.34,-232.09 1540.35,-220.55 1516.5,-199 1498.75,-182.96 1496.29,-152.46 1496.23,-137.39"/>
<polygon fill="midnightblue" stroke="midnightblue" points="1680.07,-241.55 1690.34,-238.97 1680.7,-234.57 1680.07,-241.55"/>
</g>
<!-- Node16 -->
<g id="node16" class="node">
<title>Node16</title>
<g id="a_node16"><a xlink:href="FourierNLFormIntegrator_8hpp.html" target="_top" xlink:title="FV for the heat transfer equation.">
<polygon fill="none" stroke="black" points="1592,-118 1592,-137 1763,-137 1763,-118 1592,-118"/>
<text text-anchor="middle" x="1677.5" y="-125" font-family="serif" font-size="10.00">FourierNLFormIntegrator.hpp</text>
</a>
</g>
</g>
<!-- Node7&#45;&gt;Node16 -->
<g id="edge22" class="edge">
<title>Node7&#45;&gt;Node16</title>
<path fill="none" stroke="midnightblue" d="M1757.21,-227.5C1737.21,-202.66 1700.06,-156.52 1684.57,-137.28"/>
<polygon fill="midnightblue" stroke="midnightblue" points="1754.51,-229.72 1763.51,-235.32 1759.96,-225.33 1754.51,-229.72"/>
</g>
<!-- Node17 -->
<g id="node17" class="node">
<title>Node17</title>
<g id="a_node17"><a xlink:href="HeatTimeNLFormIntegrator_8hpp.html" target="_top" xlink:title="VF of the time derivative.">
<polygon fill="none" stroke="black" points="1781.5,-118 1781.5,-137 1965.5,-137 1965.5,-118 1781.5,-118"/>
<text text-anchor="middle" x="1873.5" y="-125" font-family="serif" font-size="10.00">HeatTimeNLFormIntegrator.hpp</text>
</a>
</g>
</g>
<!-- Node7&#45;&gt;Node17 -->
<g id="edge23" class="edge">
<title>Node7&#45;&gt;Node17</title>
<path fill="none" stroke="midnightblue" d="M1772.31,-225.15C1774.47,-211.19 1779.19,-192.37 1789.5,-179 1804.98,-158.92 1830.9,-145.11 1849.86,-137.07"/>
<polygon fill="midnightblue" stroke="midnightblue" points="1768.83,-224.74 1771.07,-235.09 1775.78,-225.6 1768.83,-224.74"/>
</g>
<!-- Node18 -->
<g id="node18" class="node">
<title>Node18</title>
<g id="a_node18"><a xlink:href="LatentHeatNLFormIntegrator_8hpp.html" target="_top" xlink:title="Latent heat contribution for heat transfer equation.">
<polygon fill="none" stroke="black" points="1975,-179.5 1975,-198.5 2166,-198.5 2166,-179.5 1975,-179.5"/>
<text text-anchor="middle" x="2070.5" y="-186.5" font-family="serif" font-size="10.00">LatentHeatNLFormIntegrator.hpp</text>
</a>
</g>
</g>
<!-- Node7&#45;&gt;Node18 -->
<g id="edge25" class="edge">
<title>Node7&#45;&gt;Node18</title>
<path fill="none" stroke="midnightblue" d="M1827.92,-233.66C1884.62,-223.46 1970.29,-208.04 2023.19,-198.52"/>
<polygon fill="midnightblue" stroke="midnightblue" points="1827.26,-230.23 1818.04,-235.44 1828.5,-237.12 1827.26,-230.23"/>
</g>
<!-- Node19 -->
<g id="node19" class="node">
<title>Node19</title>
<g id="a_node19"><a xlink:href="MeltingBaseNLFormIntegrator_8hpp.html" target="_top" xlink:title="Base class for melting integrators.">
<polygon fill="none" stroke="black" points="2222.5,-179.5 2222.5,-198.5 2420.5,-198.5 2420.5,-179.5 2222.5,-179.5"/>
<text text-anchor="middle" x="2321.5" y="-186.5" font-family="serif" font-size="10.00">MeltingBaseNLFormIntegrator.hpp</text>
</a>
</g>
</g>
<!-- Node7&#45;&gt;Node19 -->
<g id="edge28" class="edge">
<title>Node7&#45;&gt;Node19</title>
<path fill="none" stroke="midnightblue" d="M1860.74,-234.88C1996.73,-221.4 2142.18,-207.29 2232.92,-198.53"/>
<polygon fill="midnightblue" stroke="midnightblue" points="1860.16,-231.42 1850.55,-235.89 1860.85,-238.39 1860.16,-231.42"/>
</g>
<!-- Node20 -->
<g id="node20" class="node">
<title>Node20</title>
<g id="a_node20"><a xlink:href="MeltingCalphadNLFormIntegrator_8hpp.html" target="_top" xlink:title="NonlinearFormIntegrator for ad&#45;hoc melting term based on temperature.">
<polygon fill="none" stroke="black" points="2059.5,-118 2059.5,-137 2275.5,-137 2275.5,-118 2059.5,-118"/>
<text text-anchor="middle" x="2167.5" y="-125" font-family="serif" font-size="10.00">MeltingCalphadNLFormIntegrator.hpp</text>
</a>
</g>
</g>
<!-- Node7&#45;&gt;Node20 -->
<g id="edge35" class="edge">
<title>Node7&#45;&gt;Node20</title>
<path fill="none" stroke="midnightblue" d="M1860.99,-234.69C1979.56,-222.39 2172.89,-201.92 2175.5,-199 2190.94,-181.74 2179.39,-151.81 2172.16,-137.13"/>
<polygon fill="midnightblue" stroke="midnightblue" points="1860.4,-231.23 1850.82,-235.75 1861.13,-238.2 1860.4,-231.23"/>
</g>
<!-- Node21 -->
<g id="node21" class="node">
<title>Node21</title>
<g id="a_node21"><a xlink:href="MeltingConstantNLFormIntegrator_8hpp.html" target="_top" xlink:title="NonlinearFormIntegrator for ad&#45;hoc constant melting term.">
<polygon fill="none" stroke="black" points="2294,-118 2294,-137 2513,-137 2513,-118 2294,-118"/>
<text text-anchor="middle" x="2403.5" y="-125" font-family="serif" font-size="10.00">MeltingConstantNLFormIntegrator.hpp</text>
</a>
</g>
</g>
<!-- Node7&#45;&gt;Node21 -->
<g id="edge36" class="edge">
<title>Node7&#45;&gt;Node21</title>
<path fill="none" stroke="midnightblue" d="M1860.74,-235.16C1958.3,-230.92 2387.76,-243.46 2429.5,-199 2446.11,-181.31 2424.86,-152.11 2411.99,-137.46"/>
<polygon fill="midnightblue" stroke="midnightblue" points="1860.32,-231.68 1850.54,-235.76 1860.73,-238.66 1860.32,-231.68"/>
</g>
<!-- Node22 -->
<g id="node22" class="node">
<title>Node22</title>
<g id="a_node22"><a xlink:href="MeltingTemperatureNLFormIntegrator_8hpp.html" target="_top" xlink:title="NonlinearFormIntegrator for ad&#45;hoc melting term based on temperature.">
<polygon fill="none" stroke="black" points="2531,-112.5 2531,-142.5 2696,-142.5 2696,-112.5 2531,-112.5"/>
<text text-anchor="start" x="2539" y="-130.5" font-family="serif" font-size="10.00">MeltingTemperatureNLForm</text>
<text text-anchor="middle" x="2613.5" y="-119.5" font-family="serif" font-size="10.00">Integrator.hpp</text>
</a>
</g>
</g>
<!-- Node7&#45;&gt;Node22 -->
<g id="edge37" class="edge">
<title>Node7&#45;&gt;Node22</title>
<path fill="none" stroke="midnightblue" d="M1860.71,-234.95C2121.88,-214.97 2195.26,-257.92 2446.5,-199 2473.69,-192.62 2543.46,-161.2 2583.69,-142.52"/>
<polygon fill="midnightblue" stroke="midnightblue" points="1860.23,-231.48 1850.54,-235.76 1860.78,-238.46 1860.23,-231.48"/>
</g>
<!-- Node23 -->
<g id="node23" class="node">
<title>Node23</title>
<g id="a_node23"><a xlink:href="RobinNLFormIntegrator_8hpp.html" target="_top" xlink:title="Robin integrator.">
<polygon fill="none" stroke="black" points="1304.5,-179.5 1304.5,-198.5 1468.5,-198.5 1468.5,-179.5 1304.5,-179.5"/>
<text text-anchor="middle" x="1386.5" y="-186.5" font-family="serif" font-size="10.00">RobinNLFormIntegrator.hpp</text>
</a>
</g>
</g>
<!-- Node7&#45;&gt;Node23 -->
<g id="edge38" class="edge">
<title>Node7&#45;&gt;Node23</title>
<path fill="none" stroke="midnightblue" d="M1699.69,-234.04C1627.16,-223.84 1515.62,-208.16 1447.06,-198.52"/>
<polygon fill="midnightblue" stroke="midnightblue" points="1699.26,-237.52 1709.65,-235.44 1700.24,-230.59 1699.26,-237.52"/>
</g>
<!-- Node25 -->
<g id="node25" class="node">
<title>Node25</title>
<g id="a_node25"><a xlink:href="TimeCHNLFormIntegrator_8hpp.html" target="_top" xlink:title="VF of the time derivative for CH equations.">
<polygon fill="none" stroke="black" points="2514.5,-179.5 2514.5,-198.5 2690.5,-198.5 2690.5,-179.5 2514.5,-179.5"/>
<text text-anchor="middle" x="2602.5" y="-186.5" font-family="serif" font-size="10.00">TimeCHNLFormIntegrator.hpp</text>
</a>
</g>
</g>
<!-- Node7&#45;&gt;Node25 -->
<g id="edge42" class="edge">
<title>Node7&#45;&gt;Node25</title>
<path fill="none" stroke="midnightblue" d="M1860.76,-234.94C2145.68,-212.8 2219.24,-219.3 2500.5,-199 2505.02,-198.67 2509.65,-198.32 2514.33,-197.96"/>
<polygon fill="midnightblue" stroke="midnightblue" points="1860.24,-231.47 1850.54,-235.74 1860.78,-238.45 1860.24,-231.47"/>
</g>
<!-- Node26 -->
<g id="node26" class="node">
<title>Node26</title>
<g id="a_node26"><a xlink:href="TimeNLFormIntegrator_8hpp.html" target="_top" xlink:title="VF of the time derivative.">
<polygon fill="none" stroke="black" points="1798,-179.5 1798,-198.5 1957,-198.5 1957,-179.5 1798,-179.5"/>
<text text-anchor="middle" x="1877.5" y="-186.5" font-family="serif" font-size="10.00">TimeNLFormIntegrator.hpp</text>
</a>
</g>
</g>
<!-- Node7&#45;&gt;Node26 -->
<g id="edge44" class="edge">
<title>Node7&#45;&gt;Node26</title>
<path fill="none" stroke="midnightblue" d="M1796.8,-230.73C1816.61,-220.73 1843.21,-207.31 1860.35,-198.65"/>
<polygon fill="midnightblue" stroke="midnightblue" points="1795.04,-227.69 1787.69,-235.32 1798.2,-233.94 1795.04,-227.69"/>
</g>
<!-- Node7&#45;&gt;Node27 -->
<g id="edge47" class="edge">
<title>Node7&#45;&gt;Node27</title>
<path fill="none" stroke="midnightblue" d="M1680.39,-242.19C1516.5,-238.31 1158.81,-227.14 858.5,-199 855.32,-198.7 852.07,-198.36 848.78,-197.99"/>
<polygon fill="midnightblue" stroke="midnightblue" points="1680.35,-245.69 1690.43,-242.42 1680.51,-238.69 1680.35,-245.69"/>
</g>
<!-- Node8&#45;&gt;Node9 -->
<g id="edge8" class="edge">
<title>Node8&#45;&gt;Node9</title>
<path fill="none" stroke="midnightblue" d="M2830.6,-170.42C2820.31,-152.21 2801.53,-124.67 2776.5,-112 2714.16,-80.43 2238.34,-70.36 2070.71,-67.77"/>
<polygon fill="midnightblue" stroke="midnightblue" points="2827.61,-172.27 2835.42,-179.43 2833.78,-168.96 2827.61,-172.27"/>
</g>
<!-- Node10&#45;&gt;Node9 -->
<g id="edge10" class="edge">
<title>Node10&#45;&gt;Node9</title>
<path fill="none" stroke="midnightblue" d="M3027.18,-175.88C2980.25,-158.32 2888.53,-126.35 2807.5,-112 2665.85,-86.91 2229.06,-72.87 2070.65,-68.5"/>
<polygon fill="midnightblue" stroke="midnightblue" points="3026.18,-179.24 3036.77,-179.5 3028.65,-172.69 3026.18,-179.24"/>
</g>
<!-- Node11&#45;&gt;Node9 -->
<g id="edge12" class="edge">
<title>Node11&#45;&gt;Node9</title>
<path fill="none" stroke="midnightblue" d="M947.05,-172.79C928.29,-156.36 905.12,-130.11 922.5,-112 958.46,-74.53 1733.21,-68.23 1954.16,-67.2"/>
<polygon fill="midnightblue" stroke="midnightblue" points="945.02,-175.66 954.94,-179.38 949.51,-170.28 945.02,-175.66"/>
</g>
<!-- Node13 -->
<g id="node13" class="node">
<title>Node13</title>
<g id="a_node13"><a xlink:href="MassDiffusionFluxNLFormIntegrator_8hpp.html" target="_top" xlink:title="Class dedicated to the VF of diffusion flux (gradient of chemical potential) used in mass balance equ...">
<polygon fill="none" stroke="black" points="931,-118 931,-137 1160,-137 1160,-118 931,-118"/>
<text text-anchor="middle" x="1045.5" y="-125" font-family="serif" font-size="10.00">MassDiffusionFluxNLFormIntegrator.hpp</text>
</a>
</g>
</g>
<!-- Node12&#45;&gt;Node13 -->
<g id="edge14" class="edge">
<title>Node12&#45;&gt;Node13</title>
<path fill="none" stroke="midnightblue" d="M1156.04,-175.48C1128.85,-163.92 1089.21,-147.08 1065.52,-137.01"/>
<polygon fill="midnightblue" stroke="midnightblue" points="1154.87,-178.78 1165.44,-179.48 1157.61,-172.34 1154.87,-178.78"/>
</g>
<!-- Node13&#45;&gt;Node9 -->
<g id="edge15" class="edge">
<title>Node13&#45;&gt;Node9</title>
<path fill="none" stroke="midnightblue" d="M1121.91,-116.8C1137.63,-115.02 1154.09,-113.31 1169.5,-112 1463.94,-86.95 1817.5,-73.45 1954.41,-68.84"/>
<polygon fill="midnightblue" stroke="midnightblue" points="1121.24,-113.35 1111.71,-117.98 1122.04,-120.31 1121.24,-113.35"/>
</g>
<!-- Node14&#45;&gt;Node15 -->
<g id="edge17" class="edge">
<title>Node14&#45;&gt;Node15</title>
<path fill="none" stroke="midnightblue" d="M1588.45,-174.87C1565.58,-163.33 1532.99,-146.9 1513.38,-137.01"/>
<polygon fill="midnightblue" stroke="midnightblue" points="1587.09,-178.1 1597.59,-179.48 1590.24,-171.85 1587.09,-178.1"/>
</g>
<!-- Node14&#45;&gt;Node16 -->
<g id="edge19" class="edge">
<title>Node14&#45;&gt;Node16</title>
<path fill="none" stroke="midnightblue" d="M1631.1,-172.32C1643.07,-161.02 1658.77,-146.19 1668.49,-137.01"/>
<polygon fill="midnightblue" stroke="midnightblue" points="1628.39,-170.06 1623.53,-179.48 1633.2,-175.15 1628.39,-170.06"/>
</g>
<!-- Node15&#45;&gt;Node9 -->
<g id="edge18" class="edge">
<title>Node15&#45;&gt;Node9</title>
<path fill="none" stroke="midnightblue" d="M1554.64,-116.31C1564.27,-114.77 1574.15,-113.27 1583.5,-112 1715.78,-94.06 1871.83,-79.28 1954.43,-71.97"/>
<polygon fill="midnightblue" stroke="midnightblue" points="1554.05,-112.86 1544.74,-117.92 1555.17,-119.77 1554.05,-112.86"/>
</g>
<!-- Node16&#45;&gt;Node9 -->
<g id="edge20" class="edge">
<title>Node16&#45;&gt;Node9</title>
<path fill="none" stroke="midnightblue" d="M1735.56,-116.19C1800.41,-104.67 1904.18,-86.24 1964.59,-75.51"/>
<polygon fill="midnightblue" stroke="midnightblue" points="1734.73,-112.78 1725.5,-117.98 1735.96,-119.67 1734.73,-112.78"/>
</g>
<!-- Node17&#45;&gt;Node9 -->
<g id="edge24" class="edge">
<title>Node17&#45;&gt;Node9</title>
<path fill="none" stroke="midnightblue" d="M1902.75,-113.98C1929.75,-102.42 1969.1,-85.58 1992.62,-75.51"/>
<polygon fill="midnightblue" stroke="midnightblue" points="1901.23,-110.82 1893.42,-117.98 1903.99,-117.26 1901.23,-110.82"/>
</g>
<!-- Node18&#45;&gt;Node9 -->
<g id="edge26" class="edge">
<title>Node18&#45;&gt;Node9</title>
<path fill="none" stroke="midnightblue" d="M2061.9,-170.05C2049.23,-143.62 2026.04,-95.26 2016.63,-75.62"/>
<polygon fill="midnightblue" stroke="midnightblue" points="2058.85,-171.79 2066.33,-179.3 2065.16,-168.77 2058.85,-171.79"/>
</g>
<!-- Node19&#45;&gt;Node20 -->
<g id="edge29" class="edge">
<title>Node19&#45;&gt;Node20</title>
<path fill="none" stroke="midnightblue" d="M2289.88,-175.78C2259.95,-164.22 2215.81,-147.16 2189.52,-137.01"/>
<polygon fill="midnightblue" stroke="midnightblue" points="2288.85,-179.14 2299.44,-179.48 2291.37,-172.61 2288.85,-179.14"/>
</g>
<!-- Node19&#45;&gt;Node21 -->
<g id="edge31" class="edge">
<title>Node19&#45;&gt;Node21</title>
<path fill="none" stroke="midnightblue" d="M2341.77,-173.29C2357.5,-161.88 2378.75,-146.46 2391.77,-137.01"/>
<polygon fill="midnightblue" stroke="midnightblue" points="2339.29,-170.77 2333.25,-179.48 2343.4,-176.43 2339.29,-170.77"/>
</g>
<!-- Node19&#45;&gt;Node22 -->
<g id="edge33" class="edge">
<title>Node19&#45;&gt;Node22</title>
<path fill="none" stroke="midnightblue" d="M2373.15,-177.48C2420.88,-167.75 2492.14,-153.23 2544.68,-142.52"/>
<polygon fill="midnightblue" stroke="midnightblue" points="2372.44,-174.05 2363.34,-179.48 2373.83,-180.91 2372.44,-174.05"/>
</g>
<!-- Node20&#45;&gt;Node9 -->
<g id="edge30" class="edge">
<title>Node20&#45;&gt;Node9</title>
<path fill="none" stroke="midnightblue" d="M2135.67,-114.28C2105.55,-102.72 2061.12,-85.66 2034.67,-75.51"/>
<polygon fill="midnightblue" stroke="midnightblue" points="2134.7,-117.66 2145.29,-117.98 2137.21,-111.12 2134.7,-117.66"/>
</g>
<!-- Node21&#45;&gt;Node9 -->
<g id="edge32" class="edge">
<title>Node21&#45;&gt;Node9</title>
<path fill="none" stroke="midnightblue" d="M2337.13,-116.4C2261.54,-104.9 2139.36,-86.3 2068.42,-75.51"/>
<polygon fill="midnightblue" stroke="midnightblue" points="2337.07,-119.93 2347.48,-117.98 2338.12,-113.01 2337.07,-119.93"/>
</g>
<!-- Node22&#45;&gt;Node9 -->
<g id="edge34" class="edge">
<title>Node22&#45;&gt;Node9</title>
<path fill="none" stroke="midnightblue" d="M2520.64,-111.82C2351.78,-91.26 2163.79,-77.18 2070.77,-70.81"/>
<polygon fill="midnightblue" stroke="midnightblue" points="2520.36,-115.31 2530.71,-113.06 2521.21,-108.36 2520.36,-115.31"/>
</g>
<!-- Node23&#45;&gt;Node9 -->
<g id="edge39" class="edge">
<title>Node23&#45;&gt;Node9</title>
<path fill="none" stroke="midnightblue" d="M1386.82,-169.17C1388.22,-151.42 1393.33,-125.59 1410.5,-112 1452.51,-78.74 1811.55,-69.9 1954.31,-67.69"/>
<polygon fill="midnightblue" stroke="midnightblue" points="1383.32,-169.06 1386.34,-179.22 1390.31,-169.39 1383.32,-169.06"/>
</g>
<!-- Node24 -->
<g id="node24" class="node">
<title>Node24</title>
<g id="a_node24"><a xlink:href="NeumannNLFormIntegrator_8hpp.html" target="_top" xlink:title="Neumann integrator.">
<polygon fill="none" stroke="black" points="1178,-118 1178,-137 1363,-137 1363,-118 1178,-118"/>
<text text-anchor="middle" x="1270.5" y="-125" font-family="serif" font-size="10.00">NeumannNLFormIntegrator.hpp</text>
</a>
</g>
</g>
<!-- Node23&#45;&gt;Node24 -->
<g id="edge40" class="edge">
<title>Node23&#45;&gt;Node24</title>
<path fill="none" stroke="midnightblue" d="M1360.9,-174.87C1338.41,-163.33 1306.37,-146.9 1287.09,-137.01"/>
<polygon fill="midnightblue" stroke="midnightblue" points="1359.38,-178.03 1369.88,-179.48 1362.58,-171.8 1359.38,-178.03"/>
</g>
<!-- Node24&#45;&gt;Node9 -->
<g id="edge41" class="edge">
<title>Node24&#45;&gt;Node9</title>
<path fill="none" stroke="midnightblue" d="M1337.79,-116.62C1350.62,-114.93 1363.96,-113.3 1376.5,-112 1588.72,-90 1841.92,-75.62 1954.08,-69.85"/>
<polygon fill="midnightblue" stroke="midnightblue" points="1337.07,-113.19 1327.63,-117.99 1338.01,-120.12 1337.07,-113.19"/>
</g>
<!-- Node25&#45;&gt;Node9 -->
<g id="edge43" class="edge">
<title>Node25&#45;&gt;Node9</title>
<path fill="none" stroke="midnightblue" d="M2659.65,-176.08C2677.37,-169.41 2695,-159.05 2705.5,-143 2713.04,-131.47 2714.92,-122.05 2705.5,-112 2662.53,-66.14 2229.86,-65.13 2070.78,-66.34"/>
<polygon fill="midnightblue" stroke="midnightblue" points="2658.17,-172.89 2649.83,-179.42 2660.43,-179.51 2658.17,-172.89"/>
</g>
<!-- Node26&#45;&gt;Node9 -->
<g id="edge46" class="edge">
<title>Node26&#45;&gt;Node9</title>
<path fill="none" stroke="midnightblue" d="M1918.62,-175.93C1937.44,-168.77 1958.96,-158.09 1974.5,-143 1994.61,-123.47 2005.8,-91.07 2010.23,-75.66"/>
<polygon fill="midnightblue" stroke="midnightblue" points="1917.3,-172.68 1909.07,-179.36 1919.66,-179.27 1917.3,-172.68"/>
</g>
<!-- Node26&#45;&gt;Node17 -->
<g id="edge45" class="edge">
<title>Node26&#45;&gt;Node17</title>
<path fill="none" stroke="midnightblue" d="M1876.24,-169.32C1875.52,-158.5 1874.64,-145.4 1874.07,-137.01"/>
<polygon fill="midnightblue" stroke="midnightblue" points="1872.76,-169.73 1876.93,-179.48 1879.75,-169.26 1872.76,-169.73"/>
</g>
<!-- Node28 -->
<g id="node28" class="node">
<title>Node28</title>
<g id="a_node28"><a xlink:href="SteadyOperator_8hpp.html" target="_top" xlink:title="Steady Operator.">
<polygon fill="none" stroke="black" points="733.5,-118 733.5,-137 853.5,-137 853.5,-118 733.5,-118"/>
<text text-anchor="middle" x="793.5" y="-125" font-family="serif" font-size="10.00">SteadyOperator.hpp</text>
</a>
</g>
</g>
<!-- Node27&#45;&gt;Node28 -->
<g id="edge48" class="edge">
<title>Node27&#45;&gt;Node28</title>
<path fill="none" stroke="midnightblue" d="M793.5,-169.32C793.5,-158.5 793.5,-145.4 793.5,-137.01"/>
<polygon fill="midnightblue" stroke="midnightblue" points="790,-169.48 793.5,-179.48 797,-169.48 790,-169.48"/>
</g>
<!-- Node30 -->
<g id="node30" class="node">
<title>Node30</title>
<g id="a_node30"><a xlink:href="TransientOperator_8hpp.html" target="_top" xlink:title="Transient Operator.">
<polygon fill="none" stroke="black" points="581.5,-118 581.5,-137 715.5,-137 715.5,-118 581.5,-118"/>
<text text-anchor="middle" x="648.5" y="-125" font-family="serif" font-size="10.00">TransientOperator.hpp</text>
</a>
</g>
</g>
<!-- Node27&#45;&gt;Node30 -->
<g id="edge51" class="edge">
<title>Node27&#45;&gt;Node30</title>
<path fill="none" stroke="midnightblue" d="M763.36,-175.63C735.19,-164.07 693.88,-147.12 669.24,-137.01"/>
<polygon fill="midnightblue" stroke="midnightblue" points="762.14,-178.92 772.73,-179.48 764.8,-172.44 762.14,-178.92"/>
</g>
<!-- Node29 -->
<g id="node29" class="node">
<title>Node29</title>
<g id="a_node29"><a xlink:href="ListOperators_8hpp.html" target="_top" xlink:title=" ">
<polygon fill="none" stroke="black" points="593.5,-56.5 593.5,-75.5 703.5,-75.5 703.5,-56.5 593.5,-56.5"/>
<text text-anchor="middle" x="648.5" y="-63.5" font-family="serif" font-size="10.00">ListOperators.hpp</text>
</a>
</g>
</g>
<!-- Node28&#45;&gt;Node29 -->
<g id="edge49" class="edge">
<title>Node28&#45;&gt;Node29</title>
<path fill="none" stroke="midnightblue" d="M763.36,-114.13C735.19,-102.57 693.88,-85.62 669.24,-75.51"/>
<polygon fill="midnightblue" stroke="midnightblue" points="762.14,-117.42 772.73,-117.98 764.8,-110.94 762.14,-117.42"/>
</g>
<!-- Node29&#45;&gt;Node4 -->
<g id="edge50" class="edge">
<title>Node29&#45;&gt;Node4</title>
<path fill="none" stroke="midnightblue" d="M599.3,-54.24C550.26,-43.52 476.36,-27.37 434.14,-18.14"/>
<polygon fill="midnightblue" stroke="midnightblue" points="598.85,-57.73 609.36,-56.44 600.34,-50.89 598.85,-57.73"/>
</g>
<!-- Node30&#45;&gt;Node29 -->
<g id="edge52" class="edge">
<title>Node30&#45;&gt;Node29</title>
<path fill="none" stroke="midnightblue" d="M648.5,-107.82C648.5,-97 648.5,-83.9 648.5,-75.51"/>
<polygon fill="midnightblue" stroke="midnightblue" points="645,-107.98 648.5,-117.98 652,-107.98 645,-107.98"/>
</g>
<!-- Node32 -->
<g id="node32" class="node">
<title>Node32</title>
<g id="a_node32"><a xlink:href="Calphad__problem_8hpp.html" target="_top" xlink:title="Class used to defined a Calphad_Problem objet.">
<polygon fill="none" stroke="black" points="369,-118 369,-137 500,-137 500,-118 369,-118"/>
<text text-anchor="middle" x="434.5" y="-125" font-family="serif" font-size="10.00">Calphad_problem.hpp</text>
</a>
</g>
</g>
<!-- Node31&#45;&gt;Node32 -->
<g id="edge55" class="edge">
<title>Node31&#45;&gt;Node32</title>
<path fill="none" stroke="midnightblue" d="M318.06,-175.63C346.62,-164.07 388.5,-147.12 413.48,-137.01"/>
<polygon fill="midnightblue" stroke="midnightblue" points="316.52,-172.48 308.56,-179.48 319.14,-178.97 316.52,-172.48"/>
</g>
<!-- Node34 -->
<g id="node34" class="node">
<title>Node34</title>
<g id="a_node34"><a xlink:href="MPIProblem_8hpp.html" target="_top" xlink:title="Class used to defined a MPI_Problem objet.">
<polygon fill="none" stroke="black" points="101.5,-118 101.5,-137 205.5,-137 205.5,-118 101.5,-118"/>
<text text-anchor="middle" x="153.5" y="-125" font-family="serif" font-size="10.00">MPIProblem.hpp</text>
</a>
</g>
</g>
<!-- Node31&#45;&gt;Node34 -->
<g id="edge58" class="edge">
<title>Node31&#45;&gt;Node34</title>
<path fill="none" stroke="midnightblue" d="M258.96,-175.33C232.95,-163.78 195.24,-147.03 172.66,-137.01"/>
<polygon fill="midnightblue" stroke="midnightblue" points="257.74,-178.62 268.3,-179.48 260.58,-172.22 257.74,-178.62"/>
</g>
<!-- Node35 -->
<g id="node35" class="node">
<title>Node35</title>
<g id="a_node35"><a xlink:href="Problem_8hpp.html" target="_top" xlink:title="Class used to defined a PDE Problem.">
<polygon fill="none" stroke="black" points="0,-118 0,-137 83,-137 83,-118 0,-118"/>
<text text-anchor="middle" x="41.5" y="-125" font-family="serif" font-size="10.00">Problem.hpp</text>
</a>
</g>
</g>
<!-- Node31&#45;&gt;Node35 -->
<g id="edge60" class="edge">
<title>Node31&#45;&gt;Node35</title>
<path fill="none" stroke="midnightblue" d="M237.86,-177.27C198.35,-168.55 141.72,-155.67 92.5,-143 85.37,-141.16 77.71,-139.06 70.56,-137.03"/>
<polygon fill="midnightblue" stroke="midnightblue" points="237.25,-180.72 247.77,-179.44 238.75,-173.88 237.25,-180.72"/>
</g>
<!-- Node37 -->
<g id="node37" class="node">
<title>Node37</title>
<g id="a_node37"><a xlink:href="PropertyProblem_8hpp.html" target="_top" xlink:title="Class used to compute primary variables as a function of auxialiary variables.">
<polygon fill="none" stroke="black" points="224,-118 224,-137 351,-137 351,-118 224,-118"/>
<text text-anchor="middle" x="287.5" y="-125" font-family="serif" font-size="10.00">PropertyProblem.hpp</text>
</a>
</g>
</g>
<!-- Node31&#45;&gt;Node37 -->
<g id="edge64" class="edge">
<title>Node31&#45;&gt;Node37</title>
<path fill="none" stroke="midnightblue" d="M287.5,-169.32C287.5,-158.5 287.5,-145.4 287.5,-137.01"/>
<polygon fill="midnightblue" stroke="midnightblue" points="284,-169.48 287.5,-179.48 291,-169.48 284,-169.48"/>
</g>
<!-- Node33 -->
<g id="node33" class="node">
<title>Node33</title>
<g id="a_node33"><a xlink:href="ListProblems_8hpp.html" target="_top" xlink:title=" ">
<polygon fill="none" stroke="black" points="234,-56.5 234,-75.5 341,-75.5 341,-56.5 234,-56.5"/>
<text text-anchor="middle" x="287.5" y="-63.5" font-family="serif" font-size="10.00">ListProblems.hpp</text>
</a>
</g>
</g>
<!-- Node32&#45;&gt;Node33 -->
<g id="edge56" class="edge">
<title>Node32&#45;&gt;Node33</title>
<path fill="none" stroke="midnightblue" d="M403.94,-114.13C375.38,-102.57 333.5,-85.62 308.52,-75.51"/>
<polygon fill="midnightblue" stroke="midnightblue" points="402.86,-117.47 413.44,-117.98 405.48,-110.98 402.86,-117.47"/>
</g>
<!-- Node33&#45;&gt;Node4 -->
<g id="edge57" class="edge">
<title>Node33&#45;&gt;Node4</title>
<path fill="none" stroke="midnightblue" d="M314.74,-52.1C336.04,-42.01 365.04,-28.27 383.52,-19.52"/>
<polygon fill="midnightblue" stroke="midnightblue" points="313.1,-49 305.56,-56.44 316.1,-55.33 313.1,-49"/>
</g>
<!-- Node34&#45;&gt;Node33 -->
<g id="edge59" class="edge">
<title>Node34&#45;&gt;Node33</title>
<path fill="none" stroke="midnightblue" d="M182.04,-113.83C208.05,-102.28 245.76,-85.53 268.34,-75.51"/>
<polygon fill="midnightblue" stroke="midnightblue" points="180.42,-110.72 172.7,-117.98 183.26,-117.12 180.42,-110.72"/>
</g>
<!-- Node35&#45;&gt;Node33 -->
<g id="edge61" class="edge">
<title>Node35&#45;&gt;Node33</title>
<path fill="none" stroke="midnightblue" d="M80.5,-115.2C84.54,-114.09 88.6,-113 92.5,-112 146,-98.23 208.27,-84.21 247.77,-75.56"/>
<polygon fill="midnightblue" stroke="midnightblue" points="79.25,-111.91 70.56,-117.97 81.13,-118.65 79.25,-111.91"/>
</g>
<!-- Node36 -->
<g id="node36" class="node">
<title>Node36</title>
<g id="a_node36"><a xlink:href="Time_8hpp.html" target="_top" xlink:title="Main time loop.">
<polygon fill="none" stroke="black" points="80,-56.5 80,-75.5 145,-75.5 145,-56.5 80,-56.5"/>
<text text-anchor="middle" x="112.5" y="-63.5" font-family="serif" font-size="10.00">Time.hpp</text>
</a>
</g>
</g>
<!-- Node35&#45;&gt;Node36 -->
<g id="edge62" class="edge">
<title>Node35&#45;&gt;Node36</title>
<path fill="none" stroke="midnightblue" d="M59.43,-111.47C73.01,-100.09 91.18,-84.87 102.35,-75.51"/>
<polygon fill="midnightblue" stroke="midnightblue" points="57.09,-108.87 51.67,-117.98 61.59,-114.23 57.09,-108.87"/>
</g>
<!-- Node36&#45;&gt;Node4 -->
<g id="edge63" class="edge">
<title>Node36&#45;&gt;Node4</title>
<path fill="none" stroke="midnightblue" d="M155.05,-57.05C213.13,-46.2 316.02,-26.97 368.59,-17.15"/>
<polygon fill="midnightblue" stroke="midnightblue" points="154.28,-53.63 145.09,-58.91 155.56,-60.51 154.28,-53.63"/>
</g>
<!-- Node37&#45;&gt;Node33 -->
<g id="edge65" class="edge">
<title>Node37&#45;&gt;Node33</title>
<path fill="none" stroke="midnightblue" d="M287.5,-107.82C287.5,-97 287.5,-83.9 287.5,-75.51"/>
<polygon fill="midnightblue" stroke="midnightblue" points="284,-107.98 287.5,-117.98 291,-107.98 284,-107.98"/>
</g>
</g>
</svg>
        <g id="navigator" transform="translate(0 0)" fill="#404254">
                <rect fill="#f2f5e9" fill-opacity="0.5" stroke="#606060" stroke-width=".5" x="0" y="0" width="60" height="60"/>
                <use id="zoomplus" xlink:href="#zoomPlus" x="17" y="9" onmousedown="handleZoom(evt,'in')"/>
                <use id="zoomminus" xlink:href="#zoomMin" x="42" y="9" onmousedown="handleZoom(evt,'out')"/>
                <use id="reset" xlink:href="#resetDef" x="30" y="36" onmousedown="handleReset()"/>
                <g id="arrowUp" xlink:href="#dirArrow" transform="translate(30 24)" onmousedown="handlePan(0,-1)">
                  <use xlink:href="#rim" fill="#404040">
                        <set attributeName="fill" to="#808080" begin="arrowUp.mouseover" end="arrowUp.mouseout"/>
                  </use>
                  <path fill="none" stroke="white" stroke-width="1.5" d="M0,-3.0v7 M-2.5,-0.5L0,-3.0L2.5,-0.5"/>
                </g>
                <g id="arrowRight" xlink:href="#dirArrow" transform="rotate(90) translate(36 -43)" onmousedown="handlePan(1,0)">
                  <use xlink:href="#rim" fill="#404040">
                        <set attributeName="fill" to="#808080" begin="arrowRight.mouseover" end="arrowRight.mouseout"/>
                  </use>
                  <path fill="none" stroke="white" stroke-width="1.5" d="M0,-3.0v7 M-2.5,-0.5L0,-3.0L2.5,-0.5"/>
                </g>
                <g id="arrowDown" xlink:href="#dirArrow" transform="rotate(180) translate(-30 -48)" onmousedown="handlePan(0,1)">
                  <use xlink:href="#rim" fill="#404040">
                        <set attributeName="fill" to="#808080" begin="arrowDown.mouseover" end="arrowDown.mouseout"/>
                  </use>
                  <path fill="none" stroke="white" stroke-width="1.5" d="M0,-3.0v7 M-2.5,-0.5L0,-3.0L2.5,-0.5"/>
                </g>
                <g id="arrowLeft" xlink:href="#dirArrow" transform="rotate(270) translate(-36 17)" onmousedown="handlePan(-1,0)">
                  <use xlink:href="#rim" fill="#404040">
                        <set attributeName="fill" to="#808080" begin="arrowLeft.mouseover" end="arrowLeft.mouseout"/>
                  </use>
                  <path fill="none" stroke="white" stroke-width="1.5" d="M0,-3.0v7 M-2.5,-0.5L0,-3.0L2.5,-0.5"/>
                </g>
        </g>
        <svg viewBox="0 0 15 15" width="100%" height="30px" preserveAspectRatio="xMaxYMin meet">
         <g id="arrow_out" transform="scale(0.3 0.3)">
          <a xlink:href="Coefficients_8hpp__dep__incl_org.svg" target="_base">
           <rect id="button" ry="5" rx="5" y="6" x="6" height="38" width="38"
                fill="#f2f5e9" fill-opacity="0.5" stroke="#606060" stroke-width="1.0"/>
           <path id="arrow"
             d="M 11.500037,31.436501 C 11.940474,20.09759 22.043105,11.32322 32.158766,21.979434 L 37.068811,17.246167 C 37.068811,17.246167 37.088388,32 37.088388,32 L 22.160133,31.978069 C 22.160133,31.978069 26.997745,27.140456 26.997745,27.140456 C 18.528582,18.264221 13.291696,25.230495 11.500037,31.436501 z"
             style="fill:#404040;"/>
          </a>
         </g>
        </svg>
</svg>
