<?xml version="1.0" encoding="UTF-8" standalone="no"?>
<!DOCTYPE svg PUBLIC "-//W3C//DTD SVG 1.1//EN"
 "http://www.w3.org/Graphics/SVG/1.1/DTD/svg11.dtd">
<!-- Generated by graphviz version 2.43.0 (0)
 -->
<!-- Title: CommonCoefficients.hpp Pages: 1 -->
<svg width="819pt" height="252pt"
 viewBox="0.00 0.00 818.50 252.00" xmlns="http://www.w3.org/2000/svg" xmlns:xlink="http://www.w3.org/1999/xlink">
<g id="graph0" class="graph" transform="scale(1 1) rotate(0) translate(4 248)">
<title>CommonCoefficients.hpp</title>
<!-- Node1 -->
<g id="node1" class="node">
<title>Node1</title>
<g id="a_node1"><a xlink:title="List of common coefficients.">
<polygon fill="#bfbfbf" stroke="black" points="547.5,-224.5 547.5,-243.5 692.5,-243.5 692.5,-224.5 547.5,-224.5"/>
<text text-anchor="middle" x="620" y="-231.5" font-family="serif" font-size="10.00">CommonCoefficients.hpp</text>
</a>
</g>
</g>
<!-- Node2 -->
<g id="node2" class="node">
<title>Node2</title>
<g id="a_node2"><a xlink:href="CalphadBase_8hpp.html" target="_top" xlink:title="Base class for Calphad objets.">
<polygon fill="none" stroke="black" points="265.5,-168.5 265.5,-187.5 372.5,-187.5 372.5,-168.5 265.5,-168.5"/>
<text text-anchor="middle" x="319" y="-175.5" font-family="serif" font-size="10.00">CalphadBase.hpp</text>
</a>
</g>
</g>
<!-- Node1&#45;&gt;Node2 -->
<g id="edge1" class="edge">
<title>Node1&#45;&gt;Node2</title>
<path fill="none" stroke="midnightblue" d="M562.39,-222.66C505.5,-212.46 419.55,-197.04 366.47,-187.52"/>
<polygon fill="midnightblue" stroke="midnightblue" points="561.84,-226.12 572.31,-224.44 563.08,-219.23 561.84,-226.12"/>
</g>
<!-- Node8 -->
<g id="node8" class="node">
<title>Node8</title>
<g id="a_node8"><a xlink:href="KKS_8hpp.html" target="_top" xlink:title="All needed for Calphad calculation including KKS model.">
<polygon fill="none" stroke="black" points="500,-56.5 500,-75.5 562,-75.5 562,-56.5 500,-56.5"/>
<text text-anchor="middle" x="531" y="-63.5" font-family="serif" font-size="10.00">KKS.hpp</text>
</a>
</g>
</g>
<!-- Node1&#45;&gt;Node8 -->
<g id="edge9" class="edge">
<title>Node1&#45;&gt;Node8</title>
<path fill="none" stroke="midnightblue" d="M617.15,-214.5C612.64,-189.59 602.13,-144.61 581,-112 571.22,-96.91 555.11,-83.69 543.83,-75.55"/>
<polygon fill="midnightblue" stroke="midnightblue" points="613.7,-215.14 618.81,-224.42 620.61,-213.98 613.7,-215.14"/>
</g>
<!-- Node9 -->
<g id="node9" class="node">
<title>Node9</title>
<g id="a_node9"><a xlink:href="ListCoefficients_8hpp.html" target="_top" xlink:title="List of header files contained in the Coefficients directory.">
<polygon fill="none" stroke="black" points="580,-56.5 580,-75.5 698,-75.5 698,-56.5 580,-56.5"/>
<text text-anchor="middle" x="639" y="-63.5" font-family="serif" font-size="10.00">ListCoefficients.hpp</text>
</a>
</g>
</g>
<!-- Node1&#45;&gt;Node9 -->
<g id="edge11" class="edge">
<title>Node1&#45;&gt;Node9</title>
<path fill="none" stroke="midnightblue" d="M622.18,-213.93C626.3,-177.92 635.08,-101.23 638.02,-75.57"/>
<polygon fill="midnightblue" stroke="midnightblue" points="618.68,-213.74 621.02,-224.08 625.64,-214.54 618.68,-213.74"/>
</g>
<!-- Node10 -->
<g id="node10" class="node">
<title>Node10</title>
<g id="a_node10"><a xlink:href="CommonCoefficients_8cpp.html" target="_top" xlink:title=" ">
<polygon fill="none" stroke="black" points="667.5,-168.5 667.5,-187.5 810.5,-187.5 810.5,-168.5 667.5,-168.5"/>
<text text-anchor="middle" x="739" y="-175.5" font-family="serif" font-size="10.00">CommonCoefficients.cpp</text>
</a>
</g>
</g>
<!-- Node1&#45;&gt;Node10 -->
<g id="edge13" class="edge">
<title>Node1&#45;&gt;Node10</title>
<path fill="none" stroke="midnightblue" d="M648.14,-220.23C670.4,-210.13 700.86,-196.31 720.23,-187.52"/>
<polygon fill="midnightblue" stroke="midnightblue" points="646.52,-217.12 638.86,-224.44 649.41,-223.5 646.52,-217.12"/>
</g>
<!-- Node3 -->
<g id="node3" class="node">
<title>Node3</title>
<g id="a_node3"><a xlink:href="AnalyticalIdealSolution_8hpp.html" target="_top" xlink:title="Analytical thermodynamic description for an ideal solution.">
<polygon fill="none" stroke="black" points="0,-112.5 0,-131.5 158,-131.5 158,-112.5 0,-112.5"/>
<text text-anchor="middle" x="79" y="-119.5" font-family="serif" font-size="10.00">AnalyticalIdealSolution.hpp</text>
</a>
</g>
</g>
<!-- Node2&#45;&gt;Node3 -->
<g id="edge2" class="edge">
<title>Node2&#45;&gt;Node3</title>
<path fill="none" stroke="midnightblue" d="M271.08,-166.22C225.73,-156.01 158.56,-140.9 116.85,-131.52"/>
<polygon fill="midnightblue" stroke="midnightblue" points="270.45,-169.66 280.97,-168.44 271.98,-162.83 270.45,-169.66"/>
</g>
<!-- Node4 -->
<g id="node4" class="node">
<title>Node4</title>
<g id="a_node4"><a xlink:href="sloth_8hpp.html" target="_top" xlink:title="List of SLOTH header files.">
<polygon fill="none" stroke="black" points="395.5,-0.5 395.5,-19.5 460.5,-19.5 460.5,-0.5 395.5,-0.5"/>
<text text-anchor="middle" x="428" y="-7.5" font-family="serif" font-size="10.00">sloth.hpp</text>
</a>
</g>
</g>
<!-- Node2&#45;&gt;Node4 -->
<g id="edge8" class="edge">
<title>Node2&#45;&gt;Node4</title>
<path fill="none" stroke="midnightblue" d="M261.1,-166.04C224.61,-156.28 187.43,-139.24 205,-112 247.5,-46.1 344.57,-22.73 395.48,-14.81"/>
<polygon fill="midnightblue" stroke="midnightblue" points="260.28,-169.45 270.83,-168.49 261.99,-162.66 260.28,-169.45"/>
</g>
<!-- Node5 -->
<g id="node5" class="node">
<title>Node5</title>
<g id="a_node5"><a xlink:href="CalphadInformedNeuralNetwork_8hpp.html" target="_top" xlink:title="Calphad&#45;informed neuronal network used to predict Calphad contributions.">
<polygon fill="none" stroke="black" points="214.5,-112.5 214.5,-131.5 423.5,-131.5 423.5,-112.5 214.5,-112.5"/>
<text text-anchor="middle" x="319" y="-119.5" font-family="serif" font-size="10.00">CalphadInformedNeuralNetwork.hpp</text>
</a>
</g>
</g>
<!-- Node2&#45;&gt;Node5 -->
<g id="edge4" class="edge">
<title>Node2&#45;&gt;Node5</title>
<path fill="none" stroke="midnightblue" d="M319,-157.8C319,-148.91 319,-138.78 319,-131.75"/>
<polygon fill="midnightblue" stroke="midnightblue" points="315.5,-158.08 319,-168.08 322.5,-158.08 315.5,-158.08"/>
</g>
<!-- Node6 -->
<g id="node6" class="node">
<title>Node6</title>
<g id="a_node6"><a xlink:href="Calphad__problem_8hpp.html" target="_top" xlink:title="Class used to defined a Calphad_Problem objet.">
<polygon fill="none" stroke="black" points="441.5,-112.5 441.5,-131.5 572.5,-131.5 572.5,-112.5 441.5,-112.5"/>
<text text-anchor="middle" x="507" y="-119.5" font-family="serif" font-size="10.00">Calphad_problem.hpp</text>
</a>
</g>
</g>
<!-- Node2&#45;&gt;Node6 -->
<g id="edge5" class="edge">
<title>Node2&#45;&gt;Node6</title>
<path fill="none" stroke="midnightblue" d="M358.8,-165.57C394.27,-155.38 445.37,-140.7 477.35,-131.52"/>
<polygon fill="midnightblue" stroke="midnightblue" points="357.43,-162.32 348.79,-168.44 359.37,-169.05 357.43,-162.32"/>
</g>
<!-- Node3&#45;&gt;Node4 -->
<g id="edge3" class="edge">
<title>Node3&#45;&gt;Node4</title>
<path fill="none" stroke="midnightblue" d="M95.91,-105.71C113.57,-90.62 142.75,-68.09 172,-56 247.9,-24.62 345.27,-15.12 395.22,-12.24"/>
<polygon fill="midnightblue" stroke="midnightblue" points="93.43,-103.23 88.21,-112.45 98.04,-108.5 93.43,-103.23"/>
</g>
<!-- Node7 -->
<g id="node7" class="node">
<title>Node7</title>
<g id="a_node7"><a xlink:href="ListProblems_8hpp.html" target="_top" xlink:title=" ">
<polygon fill="none" stroke="black" points="374.5,-56.5 374.5,-75.5 481.5,-75.5 481.5,-56.5 374.5,-56.5"/>
<text text-anchor="middle" x="428" y="-63.5" font-family="serif" font-size="10.00">ListProblems.hpp</text>
</a>
</g>
</g>
<!-- Node6&#45;&gt;Node7 -->
<g id="edge6" class="edge">
<title>Node6&#45;&gt;Node7</title>
<path fill="none" stroke="midnightblue" d="M485.97,-106.62C471.53,-96.76 452.86,-83.99 440.66,-75.65"/>
<polygon fill="midnightblue" stroke="midnightblue" points="484.08,-109.57 494.31,-112.32 488.03,-103.79 484.08,-109.57"/>
</g>
<!-- Node7&#45;&gt;Node4 -->
<g id="edge7" class="edge">
<title>Node7&#45;&gt;Node4</title>
<path fill="none" stroke="midnightblue" d="M428,-45.8C428,-36.91 428,-26.78 428,-19.75"/>
<polygon fill="midnightblue" stroke="midnightblue" points="424.5,-46.08 428,-56.08 431.5,-46.08 424.5,-46.08"/>
</g>
<!-- Node8&#45;&gt;Node4 -->
<g id="edge10" class="edge">
<title>Node8&#45;&gt;Node4</title>
<path fill="none" stroke="midnightblue" d="M505.42,-51.59C486.38,-41.61 460.94,-28.27 444.51,-19.65"/>
<polygon fill="midnightblue" stroke="midnightblue" points="503.97,-54.78 514.45,-56.32 507.22,-48.58 503.97,-54.78"/>
</g>
<!-- Node9&#45;&gt;Node4 -->
<g id="edge12" class="edge">
<title>Node9&#45;&gt;Node4</title>
<path fill="none" stroke="midnightblue" d="M595.8,-53.94C555.69,-43.68 496.87,-28.63 460.58,-19.34"/>
<polygon fill="midnightblue" stroke="midnightblue" points="595.01,-57.35 605.57,-56.44 596.75,-50.57 595.01,-57.35"/>
</g>
</g>
</svg>
