<?xml version="1.0" encoding="UTF-8" standalone="no"?>
<!DOCTYPE svg PUBLIC "-//W3C//DTD SVG 1.1//EN"
 "http://www.w3.org/Graphics/SVG/1.1/DTD/svg11.dtd">
<!-- Generated by graphviz version 2.43.0 (0)
 -->
<!-- Title: CommonCoefficients.cpp Pages: 1 -->
<svg width="855pt" height="196pt"
 viewBox="0.00 0.00 854.50 196.00" xmlns="http://www.w3.org/2000/svg" xmlns:xlink="http://www.w3.org/1999/xlink">
<g id="graph0" class="graph" transform="scale(1 1) rotate(0) translate(4 192)">
<title>CommonCoefficients.cpp</title>
<!-- Node1 -->
<g id="node1" class="node">
<title>Node1</title>
<g id="a_node1"><a xlink:title=" ">
<polygon fill="#bfbfbf" stroke="black" points="311.5,-168.5 311.5,-187.5 454.5,-187.5 454.5,-168.5 311.5,-168.5"/>
<text text-anchor="middle" x="383" y="-175.5" font-family="serif" font-size="10.00">CommonCoefficients.cpp</text>
</a>
</g>
</g>
<!-- Node2 -->
<g id="node2" class="node">
<title>Node2</title>
<g id="a_node2"><a xlink:href="CommonCoefficients_8hpp.html" target="_top" xlink:title="List of common coefficients.">
<polygon fill="none" stroke="black" points="345.5,-112.5 345.5,-131.5 552.5,-131.5 552.5,-112.5 345.5,-112.5"/>
<text text-anchor="middle" x="449" y="-119.5" font-family="serif" font-size="10.00">Coefficients/CommonCoefficients.hpp</text>
</a>
</g>
</g>
<!-- Node1&#45;&gt;Node2 -->
<g id="edge1" class="edge">
<title>Node1&#45;&gt;Node2</title>
<path fill="none" stroke="midnightblue" d="M393.6,-168.32C403.46,-160.26 418.35,-148.08 430.22,-138.37"/>
<polygon fill="midnightblue" stroke="midnightblue" points="432.68,-140.88 438.2,-131.83 428.25,-135.46 432.68,-140.88"/>
</g>
<!-- Node3 -->
<g id="node3" class="node">
<title>Node3</title>
<g id="a_node3"><a xlink:title=" ">
<polygon fill="none" stroke="#bfbfbf" points="165,-56.5 165,-75.5 231,-75.5 231,-56.5 165,-56.5"/>
<text text-anchor="middle" x="198" y="-63.5" font-family="serif" font-size="10.00">algorithm</text>
</a>
</g>
</g>
<!-- Node1&#45;&gt;Node3 -->
<g id="edge22" class="edge">
<title>Node1&#45;&gt;Node3</title>
<path fill="none" stroke="midnightblue" d="M368.48,-168.37C336.6,-149.41 260.23,-104 221.45,-80.94"/>
<polygon fill="midnightblue" stroke="midnightblue" points="222.83,-77.69 212.45,-75.59 219.26,-83.71 222.83,-77.69"/>
</g>
<!-- Node4 -->
<g id="node4" class="node">
<title>Node4</title>
<g id="a_node4"><a xlink:title=" ">
<polygon fill="none" stroke="#bfbfbf" points="86,-0.5 86,-19.5 134,-19.5 134,-0.5 86,-0.5"/>
<text text-anchor="middle" x="110" y="-7.5" font-family="serif" font-size="10.00">cmath</text>
</a>
</g>
</g>
<!-- Node1&#45;&gt;Node4 -->
<g id="edge23" class="edge">
<title>Node1&#45;&gt;Node4</title>
<path fill="none" stroke="midnightblue" d="M348.9,-168.45C301.36,-155.18 214.44,-125.8 156,-76 140.27,-62.59 127.22,-42.68 119.09,-28.43"/>
<polygon fill="midnightblue" stroke="midnightblue" points="122.14,-26.71 114.27,-19.62 116,-30.07 122.14,-26.71"/>
</g>
<!-- Node5 -->
<g id="node5" class="node">
<title>Node5</title>
<g id="a_node5"><a xlink:title=" ">
<polygon fill="none" stroke="#bfbfbf" points="0,-0.5 0,-19.5 68,-19.5 68,-0.5 0,-0.5"/>
<text text-anchor="middle" x="34" y="-7.5" font-family="serif" font-size="10.00">functional</text>
</a>
</g>
</g>
<!-- Node1&#45;&gt;Node5 -->
<g id="edge24" class="edge">
<title>Node1&#45;&gt;Node5</title>
<path fill="none" stroke="midnightblue" d="M330.04,-168.47C294.44,-161.53 247.07,-149.9 208,-132 145.59,-103.4 81.72,-52.22 51.68,-26.56"/>
<polygon fill="midnightblue" stroke="midnightblue" points="53.66,-23.64 43.8,-19.75 49.08,-28.94 53.66,-23.64"/>
</g>
<!-- Node6 -->
<g id="node6" class="node">
<title>Node6</title>
<g id="a_node6"><a xlink:title=" ">
<polygon fill="none" stroke="#bfbfbf" points="621.5,-56.5 621.5,-75.5 680.5,-75.5 680.5,-56.5 621.5,-56.5"/>
<text text-anchor="middle" x="651" y="-63.5" font-family="serif" font-size="10.00">numeric</text>
</a>
</g>
</g>
<!-- Node1&#45;&gt;Node6 -->
<g id="edge25" class="edge">
<title>Node1&#45;&gt;Node6</title>
<path fill="none" stroke="midnightblue" d="M440.13,-168.43C476.26,-161.62 523.27,-150.16 562,-132 589.44,-119.13 616.99,-97.3 634.02,-82.53"/>
<polygon fill="midnightblue" stroke="midnightblue" points="636.75,-84.79 641.9,-75.53 632.1,-79.55 636.75,-84.79"/>
</g>
<!-- Node7 -->
<g id="node7" class="node">
<title>Node7</title>
<g id="a_node7"><a xlink:title=" ">
<polygon fill="none" stroke="#bfbfbf" points="805.5,-0.5 805.5,-19.5 846.5,-19.5 846.5,-0.5 805.5,-0.5"/>
<text text-anchor="middle" x="826" y="-7.5" font-family="serif" font-size="10.00">span</text>
</a>
</g>
</g>
<!-- Node1&#45;&gt;Node7 -->
<g id="edge26" class="edge">
<title>Node1&#45;&gt;Node7</title>
<path fill="none" stroke="midnightblue" d="M454.56,-170.84C504.45,-164.88 571.85,-153.46 628,-132 699.16,-104.8 773.23,-51.76 807.08,-25.9"/>
<polygon fill="midnightblue" stroke="midnightblue" points="809.39,-28.54 815.16,-19.65 805.11,-23 809.39,-28.54"/>
</g>
<!-- Node8 -->
<g id="node8" class="node">
<title>Node8</title>
<g id="a_node8"><a xlink:title=" ">
<polygon fill="none" stroke="#bfbfbf" points="739,-0.5 739,-19.5 787,-19.5 787,-0.5 739,-0.5"/>
<text text-anchor="middle" x="763" y="-7.5" font-family="serif" font-size="10.00">vector</text>
</a>
</g>
</g>
<!-- Node1&#45;&gt;Node8 -->
<g id="edge27" class="edge">
<title>Node1&#45;&gt;Node8</title>
<path fill="none" stroke="midnightblue" d="M447.11,-168.43C489.23,-161.53 545.03,-149.98 592,-132 638.85,-114.07 649.27,-105.28 690,-76 710.96,-60.93 732.79,-40.81 747.05,-26.97"/>
<polygon fill="midnightblue" stroke="midnightblue" points="749.84,-29.14 754.51,-19.63 744.93,-24.15 749.84,-29.14"/>
</g>
<!-- Node9 -->
<g id="node9" class="node">
<title>Node9</title>
<g id="a_node9"><a xlink:href="FunctionCoefficient_8hpp.html" target="_top" xlink:title="Base class defining analytical expression, first and second derivatives of a Coefficient.">
<polygon fill="none" stroke="black" points="325.5,-56.5 325.5,-75.5 526.5,-75.5 526.5,-56.5 325.5,-56.5"/>
<text text-anchor="middle" x="426" y="-63.5" font-family="serif" font-size="10.00">Coefficients/FunctionCoefficient.hpp</text>
</a>
</g>
</g>
<!-- Node1&#45;&gt;Node9 -->
<g id="edge28" class="edge">
<title>Node1&#45;&gt;Node9</title>
<path fill="none" stroke="midnightblue" d="M368.94,-168.45C350.78,-156.27 322.97,-133.09 336,-112 345.67,-96.35 362.62,-85.96 379.22,-79.15"/>
<polygon fill="midnightblue" stroke="midnightblue" points="380.75,-82.32 388.9,-75.54 378.31,-75.76 380.75,-82.32"/>
</g>
<!-- Node2&#45;&gt;Node3 -->
<g id="edge2" class="edge">
<title>Node2&#45;&gt;Node3</title>
<path fill="none" stroke="midnightblue" d="M409.23,-112.44C363.38,-102.58 288.3,-86.43 241.09,-76.27"/>
<polygon fill="midnightblue" stroke="midnightblue" points="241.69,-72.82 231.17,-74.14 240.21,-79.66 241.69,-72.82"/>
</g>
<!-- Node2&#45;&gt;Node4 -->
<g id="edge3" class="edge">
<title>Node2&#45;&gt;Node4</title>
<path fill="none" stroke="midnightblue" d="M420.91,-112.48C393.77,-104.01 351.64,-90.27 316,-76 296.43,-68.17 292.78,-63.27 273,-56 269.9,-54.86 190.75,-33.12 143.9,-20.28"/>
<polygon fill="midnightblue" stroke="midnightblue" points="144.72,-16.88 134.15,-17.61 142.87,-23.63 144.72,-16.88"/>
</g>
<!-- Node2&#45;&gt;Node5 -->
<g id="edge4" class="edge">
<title>Node2&#45;&gt;Node5</title>
<path fill="none" stroke="midnightblue" d="M399.94,-112.49C363.93,-105.29 314.29,-93.34 273,-76 257.19,-69.36 255.93,-62.36 240,-56 232.46,-52.99 136.5,-32.55 78.25,-20.28"/>
<polygon fill="midnightblue" stroke="midnightblue" points="78.7,-16.8 68.19,-18.16 77.26,-23.65 78.7,-16.8"/>
</g>
<!-- Node2&#45;&gt;Node6 -->
<g id="edge5" class="edge">
<title>Node2&#45;&gt;Node6</title>
<path fill="none" stroke="midnightblue" d="M481.01,-112.44C516.44,-102.97 573.58,-87.7 611.71,-77.5"/>
<polygon fill="midnightblue" stroke="midnightblue" points="612.69,-80.87 621.44,-74.9 610.88,-74.1 612.69,-80.87"/>
</g>
<!-- Node2&#45;&gt;Node7 -->
<g id="edge6" class="edge">
<title>Node2&#45;&gt;Node7</title>
<path fill="none" stroke="midnightblue" d="M474.74,-112.45C499.84,-103.91 538.94,-90.07 572,-76 590.66,-68.06 593.78,-62.46 613,-56 688.66,-30.59 713.69,-39.22 795.68,-19.83"/>
<polygon fill="midnightblue" stroke="midnightblue" points="796.53,-23.23 805.42,-17.46 794.87,-16.43 796.53,-23.23"/>
</g>
<!-- Node2&#45;&gt;Node8 -->
<g id="edge7" class="edge">
<title>Node2&#45;&gt;Node8</title>
<path fill="none" stroke="midnightblue" d="M465.66,-112.4C498.06,-95.72 567.44,-60.2 579,-56 640.92,-33.48 661.33,-36.72 729,-20.15"/>
<polygon fill="midnightblue" stroke="midnightblue" points="730.02,-23.5 738.87,-17.68 728.32,-16.71 730.02,-23.5"/>
</g>
<!-- Node2&#45;&gt;Node9 -->
<g id="edge8" class="edge">
<title>Node2&#45;&gt;Node9</title>
<path fill="none" stroke="midnightblue" d="M445.2,-112.08C442.09,-104.77 437.58,-94.18 433.71,-85.1"/>
<polygon fill="midnightblue" stroke="midnightblue" points="436.87,-83.58 429.73,-75.75 430.43,-86.32 436.87,-83.58"/>
</g>
<!-- Node9&#45;&gt;Node4 -->
<g id="edge10" class="edge">
<title>Node9&#45;&gt;Node4</title>
<path fill="none" stroke="midnightblue" d="M359.29,-56.48C304.07,-48.94 223.39,-36.85 144.22,-20.07"/>
<polygon fill="midnightblue" stroke="midnightblue" points="144.59,-16.57 134.08,-17.89 143.12,-23.41 144.59,-16.57"/>
</g>
<!-- Node9&#45;&gt;Node5 -->
<g id="edge12" class="edge">
<title>Node9&#45;&gt;Node5</title>
<path fill="none" stroke="midnightblue" d="M346.04,-56.49C277.48,-48.78 175.88,-36.37 78.26,-20.1"/>
<polygon fill="midnightblue" stroke="midnightblue" points="78.66,-16.62 68.22,-18.41 77.5,-23.52 78.66,-16.62"/>
</g>
<!-- Node9&#45;&gt;Node7 -->
<g id="edge18" class="edge">
<title>Node9&#45;&gt;Node7</title>
<path fill="none" stroke="midnightblue" d="M526.87,-57.41C599.21,-50.87 699.01,-39.63 795.53,-19.74"/>
<polygon fill="midnightblue" stroke="midnightblue" points="796.39,-23.14 805.46,-17.66 794.96,-16.29 796.39,-23.14"/>
</g>
<!-- Node9&#45;&gt;Node8 -->
<g id="edge21" class="edge">
<title>Node9&#45;&gt;Node8</title>
<path fill="none" stroke="midnightblue" d="M500.46,-56.5C559.93,-49.13 645.51,-37.23 729.02,-19.99"/>
<polygon fill="midnightblue" stroke="midnightblue" points="729.86,-23.39 738.93,-17.92 728.43,-16.54 729.86,-23.39"/>
</g>
<!-- Node10 -->
<g id="node10" class="node">
<title>Node10</title>
<g id="a_node10"><a xlink:title=" ">
<polygon fill="none" stroke="#bfbfbf" points="408.5,-0.5 408.5,-19.5 443.5,-19.5 443.5,-0.5 408.5,-0.5"/>
<text text-anchor="middle" x="426" y="-7.5" font-family="serif" font-size="10.00">any</text>
</a>
</g>
</g>
<!-- Node9&#45;&gt;Node10 -->
<g id="edge9" class="edge">
<title>Node9&#45;&gt;Node10</title>
<path fill="none" stroke="midnightblue" d="M426,-56.08C426,-49.01 426,-38.86 426,-29.99"/>
<polygon fill="midnightblue" stroke="midnightblue" points="429.5,-29.75 426,-19.75 422.5,-29.75 429.5,-29.75"/>
</g>
<!-- Node11 -->
<g id="node11" class="node">
<title>Node11</title>
<g id="a_node11"><a xlink:title=" ">
<polygon fill="none" stroke="#bfbfbf" points="462,-0.5 462,-19.5 524,-19.5 524,-0.5 462,-0.5"/>
<text text-anchor="middle" x="493" y="-7.5" font-family="serif" font-size="10.00">concepts</text>
</a>
</g>
</g>
<!-- Node9&#45;&gt;Node11 -->
<g id="edge11" class="edge">
<title>Node9&#45;&gt;Node11</title>
<path fill="none" stroke="midnightblue" d="M436.76,-56.32C446.77,-48.26 461.89,-36.08 473.93,-26.37"/>
<polygon fill="midnightblue" stroke="midnightblue" points="476.45,-28.83 482.04,-19.83 472.06,-23.38 476.45,-28.83"/>
</g>
<!-- Node12 -->
<g id="node12" class="node">
<title>Node12</title>
<g id="a_node12"><a xlink:title=" ">
<polygon fill="none" stroke="#bfbfbf" points="542,-0.5 542,-19.5 586,-19.5 586,-0.5 542,-0.5"/>
<text text-anchor="middle" x="564" y="-7.5" font-family="serif" font-size="10.00">limits</text>
</a>
</g>
</g>
<!-- Node9&#45;&gt;Node12 -->
<g id="edge13" class="edge">
<title>Node9&#45;&gt;Node12</title>
<path fill="none" stroke="midnightblue" d="M447.87,-56.44C470.78,-47.48 506.98,-33.31 532.87,-23.18"/>
<polygon fill="midnightblue" stroke="midnightblue" points="534.2,-26.42 542.24,-19.52 531.65,-19.9 534.2,-26.42"/>
</g>
<!-- Node13 -->
<g id="node13" class="node">
<title>Node13</title>
<g id="a_node13"><a xlink:title=" ">
<polygon fill="none" stroke="#bfbfbf" points="604.5,-0.5 604.5,-19.5 643.5,-19.5 643.5,-0.5 604.5,-0.5"/>
<text text-anchor="middle" x="624" y="-7.5" font-family="serif" font-size="10.00">map</text>
</a>
</g>
</g>
<!-- Node9&#45;&gt;Node13 -->
<g id="edge14" class="edge">
<title>Node9&#45;&gt;Node13</title>
<path fill="none" stroke="midnightblue" d="M459.78,-56.44C491.97,-48.18 542.02,-35.1 594.54,-20.04"/>
<polygon fill="midnightblue" stroke="midnightblue" points="595.74,-23.34 604.38,-17.21 593.8,-16.61 595.74,-23.34"/>
</g>
<!-- Node14 -->
<g id="node14" class="node">
<title>Node14</title>
<g id="a_node14"><a xlink:title=" ">
<polygon fill="none" stroke="#bfbfbf" points="661.5,-0.5 661.5,-19.5 720.5,-19.5 720.5,-0.5 661.5,-0.5"/>
<text text-anchor="middle" x="691" y="-7.5" font-family="serif" font-size="10.00">memory</text>
</a>
</g>
</g>
<!-- Node9&#45;&gt;Node14 -->
<g id="edge15" class="edge">
<title>Node9&#45;&gt;Node14</title>
<path fill="none" stroke="midnightblue" d="M471.76,-56.44C515.52,-48.14 583.62,-34.93 651.19,-20.34"/>
<polygon fill="midnightblue" stroke="midnightblue" points="652.12,-23.72 661.15,-18.18 650.64,-16.88 652.12,-23.72"/>
</g>
<!-- Node15 -->
<g id="node15" class="node">
<title>Node15</title>
<g id="a_node15"><a xlink:title=" ">
<polygon fill="none" stroke="#bfbfbf" points="152,-0.5 152,-19.5 210,-19.5 210,-0.5 152,-0.5"/>
<text text-anchor="middle" x="181" y="-7.5" font-family="serif" font-size="10.00">optional</text>
</a>
</g>
</g>
<!-- Node9&#45;&gt;Node15 -->
<g id="edge16" class="edge">
<title>Node9&#45;&gt;Node15</title>
<path fill="none" stroke="midnightblue" d="M385.49,-56.43C345.77,-47.96 283.22,-34.51 219.8,-20.15"/>
<polygon fill="midnightblue" stroke="midnightblue" points="220.56,-16.73 210.03,-17.93 219.01,-23.56 220.56,-16.73"/>
</g>
<!-- Node16 -->
<g id="node16" class="node">
<title>Node16</title>
<g id="a_node16"><a xlink:title=" ">
<polygon fill="none" stroke="#bfbfbf" points="228,-0.5 228,-19.5 260,-19.5 260,-0.5 228,-0.5"/>
<text text-anchor="middle" x="244" y="-7.5" font-family="serif" font-size="10.00">set</text>
</a>
</g>
</g>
<!-- Node9&#45;&gt;Node16 -->
<g id="edge17" class="edge">
<title>Node9&#45;&gt;Node16</title>
<path fill="none" stroke="midnightblue" d="M393.94,-56.48C364.07,-48.4 318.1,-35.58 269.78,-20.1"/>
<polygon fill="midnightblue" stroke="midnightblue" points="270.68,-16.71 260.08,-16.97 268.52,-23.37 270.68,-16.71"/>
</g>
<!-- Node17 -->
<g id="node17" class="node">
<title>Node17</title>
<g id="a_node17"><a xlink:title=" ">
<polygon fill="none" stroke="#bfbfbf" points="278.5,-0.5 278.5,-19.5 325.5,-19.5 325.5,-0.5 278.5,-0.5"/>
<text text-anchor="middle" x="302" y="-7.5" font-family="serif" font-size="10.00">string</text>
</a>
</g>
</g>
<!-- Node9&#45;&gt;Node17 -->
<g id="edge19" class="edge">
<title>Node9&#45;&gt;Node17</title>
<path fill="none" stroke="midnightblue" d="M406.35,-56.44C386.04,-47.6 354.1,-33.69 330.9,-23.59"/>
<polygon fill="midnightblue" stroke="midnightblue" points="332.12,-20.3 321.56,-19.52 329.33,-26.72 332.12,-20.3"/>
</g>
<!-- Node18 -->
<g id="node18" class="node">
<title>Node18</title>
<g id="a_node18"><a xlink:title=" ">
<polygon fill="none" stroke="#bfbfbf" points="344,-0.5 344,-19.5 390,-19.5 390,-0.5 344,-0.5"/>
<text text-anchor="middle" x="367" y="-7.5" font-family="serif" font-size="10.00">utility</text>
</a>
</g>
</g>
<!-- Node9&#45;&gt;Node18 -->
<g id="edge20" class="edge">
<title>Node9&#45;&gt;Node18</title>
<path fill="none" stroke="midnightblue" d="M416.52,-56.32C407.8,-48.34 394.66,-36.31 384.1,-26.65"/>
<polygon fill="midnightblue" stroke="midnightblue" points="386.39,-24 376.65,-19.83 381.67,-29.17 386.39,-24"/>
</g>
</g>
</svg>
