<?xml version="1.0" encoding="UTF-8" standalone="no"?>
<!DOCTYPE svg PUBLIC "-//W3C//DTD SVG 1.1//EN"
 "http://www.w3.org/Graphics/SVG/1.1/DTD/svg11.dtd">
<!-- Generated by graphviz version 2.43.0 (0)
 -->
<!-- Title: CommonCoefficients.hpp Pages: 1 -->
<!--zoomable 140 -->
<svg id="main" version="1.1" xmlns="http://www.w3.org/2000/svg" xmlns:xlink="http://www.w3.org/1999/xlink" xml:space="preserve" onload="init(evt)">
<style type="text/css"><![CDATA[
.edge:hover path { stroke: red; }
.edge:hover polygon { stroke: red; fill: red; }
]]></style>
<script type="text/javascript"><![CDATA[
var edges = document.getElementsByTagName('g');
if (edges && edges.length) {
  for (var i=0;i<edges.length;i++) {
    if (edges[i].id.substr(0,4)=='edge') {
      edges[i].setAttribute('class','edge');
    }
  }
}
]]></script>
        <defs>
                <circle id="rim" cx="0" cy="0" r="7"/>
                <circle id="rim2" cx="0" cy="0" r="3.5"/>
                <g id="zoomPlus">
                        <use xlink:href="#rim" fill="#404040">
                                <set attributeName="fill" to="#808080" begin="zoomplus.mouseover" end="zoomplus.mouseout"/>
                        </use>
                        <path d="M-4,0h8M0,-4v8" fill="none" stroke="white" stroke-width="1.5" pointer-events="none"/>
                </g>
                <g id="zoomMin">
                        <use xlink:href="#rim" fill="#404040">
                                <set attributeName="fill" to="#808080" begin="zoomminus.mouseover" end="zoomminus.mouseout"/>
                        </use>
                        <path d="M-4,0h8" fill="none" stroke="white" stroke-width="1.5" pointer-events="none"/>
                </g>
                <g id="dirArrow">
                        <path fill="none" stroke="white" stroke-width="1.5" d="M0,-3.0v7 M-2.5,-0.5L0,-3.0L2.5,-0.5"/>
                </g>
               <g id="resetDef">
                       <use xlink:href="#rim2" fill="#404040">
                               <set attributeName="fill" to="#808080" begin="reset.mouseover" end="reset.mouseout"/>
                       </use>
               </g>
        </defs>

<script type="text/javascript">
var viewWidth = 855;
var viewHeight = 140;
var sectionId = 'dynsection-0';
</script>
<script xlink:href="svgpan.js"/>
<svg id="graph" class="graph">
<g id="viewport">
<title>CommonCoefficients.hpp</title>
<!-- Node1 -->
<g id="node1" class="node">
<title>Node1</title>
<g id="a_node1"><a xlink:title="List of common coefficients.">
<polygon fill="#bfbfbf" stroke="black" points="107.5,-112.5 107.5,-131.5 252.5,-131.5 252.5,-112.5 107.5,-112.5"/>
<text text-anchor="middle" x="180" y="-119.5" font-family="serif" font-size="10.00">CommonCoefficients.hpp</text>
</a>
</g>
</g>
<!-- Node2 -->
<g id="node2" class="node">
<title>Node2</title>
<g id="a_node2"><a xlink:title=" ">
<polygon fill="none" stroke="#bfbfbf" points="10,-56.5 10,-75.5 76,-75.5 76,-56.5 10,-56.5"/>
<text text-anchor="middle" x="43" y="-63.5" font-family="serif" font-size="10.00">algorithm</text>
</a>
</g>
</g>
<!-- Node1&#45;&gt;Node2 -->
<g id="edge1" class="edge">
<title>Node1&#45;&gt;Node2</title>
<path fill="none" stroke="midnightblue" d="M158.29,-112.44C135.65,-103.52 99.93,-89.44 74.25,-79.32"/>
<polygon fill="midnightblue" stroke="midnightblue" points="75.19,-75.93 64.61,-75.52 72.63,-82.44 75.19,-75.93"/>
</g>
<!-- Node3 -->
<g id="node3" class="node">
<title>Node3</title>
<g id="a_node3"><a xlink:title=" ">
<polygon fill="none" stroke="#bfbfbf" points="0,-0.5 0,-19.5 48,-19.5 48,-0.5 0,-0.5"/>
<text text-anchor="middle" x="24" y="-7.5" font-family="serif" font-size="10.00">cmath</text>
</a>
</g>
</g>
<!-- Node1&#45;&gt;Node3 -->
<g id="edge2" class="edge">
<title>Node1&#45;&gt;Node3</title>
<path fill="none" stroke="midnightblue" d="M167.76,-112.37C141.1,-93.57 77.56,-48.77 44.61,-25.53"/>
<polygon fill="midnightblue" stroke="midnightblue" points="46.37,-22.49 36.18,-19.59 42.34,-28.21 46.37,-22.49"/>
</g>
<!-- Node4 -->
<g id="node4" class="node">
<title>Node4</title>
<g id="a_node4"><a xlink:title=" ">
<polygon fill="none" stroke="#bfbfbf" points="66,-0.5 66,-19.5 134,-19.5 134,-0.5 66,-0.5"/>
<text text-anchor="middle" x="100" y="-7.5" font-family="serif" font-size="10.00">functional</text>
</a>
</g>
</g>
<!-- Node1&#45;&gt;Node4 -->
<g id="edge3" class="edge">
<title>Node1&#45;&gt;Node4</title>
<path fill="none" stroke="midnightblue" d="M173.72,-112.37C160.52,-94.22 129.67,-51.8 112.36,-27.99"/>
<polygon fill="midnightblue" stroke="midnightblue" points="114.96,-25.62 106.25,-19.59 109.3,-29.74 114.96,-25.62"/>
</g>
<!-- Node5 -->
<g id="node5" class="node">
<title>Node5</title>
<g id="a_node5"><a xlink:title=" ">
<polygon fill="none" stroke="#bfbfbf" points="483.5,-56.5 483.5,-75.5 542.5,-75.5 542.5,-56.5 483.5,-56.5"/>
<text text-anchor="middle" x="513" y="-63.5" font-family="serif" font-size="10.00">numeric</text>
</a>
</g>
</g>
<!-- Node1&#45;&gt;Node5 -->
<g id="edge4" class="edge">
<title>Node1&#45;&gt;Node5</title>
<path fill="none" stroke="midnightblue" d="M246.17,-112.47C303.85,-104.68 389.95,-92.19 473.29,-76.22"/>
<polygon fill="midnightblue" stroke="midnightblue" points="474.03,-79.64 483.18,-74.3 472.7,-72.77 474.03,-79.64"/>
</g>
<!-- Node6 -->
<g id="node6" class="node">
<title>Node6</title>
<g id="a_node6"><a xlink:title=" ">
<polygon fill="none" stroke="#bfbfbf" points="152.5,-0.5 152.5,-19.5 193.5,-19.5 193.5,-0.5 152.5,-0.5"/>
<text text-anchor="middle" x="173" y="-7.5" font-family="serif" font-size="10.00">span</text>
</a>
</g>
</g>
<!-- Node1&#45;&gt;Node6 -->
<g id="edge5" class="edge">
<title>Node1&#45;&gt;Node6</title>
<path fill="none" stroke="midnightblue" d="M179.45,-112.37C178.32,-94.62 175.72,-53.67 174.18,-29.6"/>
<polygon fill="midnightblue" stroke="midnightblue" points="177.67,-29.35 173.55,-19.59 170.69,-29.79 177.67,-29.35"/>
</g>
<!-- Node7 -->
<g id="node7" class="node">
<title>Node7</title>
<g id="a_node7"><a xlink:title=" ">
<polygon fill="none" stroke="#bfbfbf" points="212,-0.5 212,-19.5 260,-19.5 260,-0.5 212,-0.5"/>
<text text-anchor="middle" x="236" y="-7.5" font-family="serif" font-size="10.00">vector</text>
</a>
</g>
</g>
<!-- Node1&#45;&gt;Node7 -->
<g id="edge6" class="edge">
<title>Node1&#45;&gt;Node7</title>
<path fill="none" stroke="midnightblue" d="M184.39,-112.37C193.55,-94.38 214.85,-52.55 227.03,-28.63"/>
<polygon fill="midnightblue" stroke="midnightblue" points="230.21,-30.09 231.63,-19.59 223.97,-26.92 230.21,-30.09"/>
</g>
<!-- Node8 -->
<g id="node8" class="node">
<title>Node8</title>
<g id="a_node8"><a xlink:href="FunctionCoefficient_8hpp.html" target="_top" xlink:title="Base class defining analytical expression, first and second derivatives of a Coefficient.">
<polygon fill="none" stroke="black" points="264.5,-56.5 264.5,-75.5 465.5,-75.5 465.5,-56.5 264.5,-56.5"/>
<text text-anchor="middle" x="365" y="-63.5" font-family="serif" font-size="10.00">Coefficients/FunctionCoefficient.hpp</text>
</a>
</g>
</g>
<!-- Node1&#45;&gt;Node8 -->
<g id="edge7" class="edge">
<title>Node1&#45;&gt;Node8</title>
<path fill="none" stroke="midnightblue" d="M209.31,-112.44C240.84,-103.24 291.13,-88.56 325.99,-78.39"/>
<polygon fill="midnightblue" stroke="midnightblue" points="327.2,-81.68 335.82,-75.52 325.24,-74.96 327.2,-81.68"/>
</g>
<!-- Node8&#45;&gt;Node3 -->
<g id="edge9" class="edge">
<title>Node8&#45;&gt;Node3</title>
<path fill="none" stroke="midnightblue" d="M288.92,-56.49C228.69,-49.15 142.31,-37.31 58.06,-20.01"/>
<polygon fill="midnightblue" stroke="midnightblue" points="58.57,-16.54 48.07,-17.93 57.15,-23.39 58.57,-16.54"/>
</g>
<!-- Node8&#45;&gt;Node4 -->
<g id="edge11" class="edge">
<title>Node8&#45;&gt;Node4</title>
<path fill="none" stroke="midnightblue" d="M322.42,-56.45C279.82,-47.88 212.12,-34.21 144.27,-20.25"/>
<polygon fill="midnightblue" stroke="midnightblue" points="144.76,-16.78 134.26,-18.19 143.35,-23.64 144.76,-16.78"/>
</g>
<!-- Node8&#45;&gt;Node6 -->
<g id="edge17" class="edge">
<title>Node8&#45;&gt;Node6</title>
<path fill="none" stroke="midnightblue" d="M333.59,-56.48C302.89,-48.11 254.59,-34.82 203.54,-20.11"/>
<polygon fill="midnightblue" stroke="midnightblue" points="204.22,-16.67 193.64,-17.25 202.28,-23.39 204.22,-16.67"/>
</g>
<!-- Node8&#45;&gt;Node7 -->
<g id="edge20" class="edge">
<title>Node8&#45;&gt;Node7</title>
<path fill="none" stroke="midnightblue" d="M344.56,-56.44C323.33,-47.56 289.9,-33.56 265.75,-23.45"/>
<polygon fill="midnightblue" stroke="midnightblue" points="266.92,-20.15 256.34,-19.52 264.22,-26.61 266.92,-20.15"/>
</g>
<!-- Node9 -->
<g id="node9" class="node">
<title>Node9</title>
<g id="a_node9"><a xlink:title=" ">
<polygon fill="none" stroke="#bfbfbf" points="669.5,-0.5 669.5,-19.5 704.5,-19.5 704.5,-0.5 669.5,-0.5"/>
<text text-anchor="middle" x="687" y="-7.5" font-family="serif" font-size="10.00">any</text>
</a>
</g>
</g>
<!-- Node8&#45;&gt;Node9 -->
<g id="edge8" class="edge">
<title>Node8&#45;&gt;Node9</title>
<path fill="none" stroke="midnightblue" d="M445.54,-56.47C502.8,-49.54 581.58,-38.25 659.42,-19.76"/>
<polygon fill="midnightblue" stroke="midnightblue" points="660.51,-23.09 669.41,-17.34 658.86,-16.29 660.51,-23.09"/>
</g>
<!-- Node10 -->
<g id="node10" class="node">
<title>Node10</title>
<g id="a_node10"><a xlink:title=" ">
<polygon fill="none" stroke="#bfbfbf" points="723,-0.5 723,-19.5 785,-19.5 785,-0.5 723,-0.5"/>
<text text-anchor="middle" x="754" y="-7.5" font-family="serif" font-size="10.00">concepts</text>
</a>
</g>
</g>
<!-- Node8&#45;&gt;Node10 -->
<g id="edge10" class="edge">
<title>Node8&#45;&gt;Node10</title>
<path fill="none" stroke="midnightblue" d="M448.19,-56.48C516.75,-48.95 616.7,-36.8 712.73,-20.09"/>
<polygon fill="midnightblue" stroke="midnightblue" points="713.37,-23.53 722.61,-18.35 712.16,-16.64 713.37,-23.53"/>
</g>
<!-- Node11 -->
<g id="node11" class="node">
<title>Node11</title>
<g id="a_node11"><a xlink:title=" ">
<polygon fill="none" stroke="#bfbfbf" points="803,-0.5 803,-19.5 847,-19.5 847,-0.5 803,-0.5"/>
<text text-anchor="middle" x="825" y="-7.5" font-family="serif" font-size="10.00">limits</text>
</a>
</g>
</g>
<!-- Node8&#45;&gt;Node11 -->
<g id="edge12" class="edge">
<title>Node8&#45;&gt;Node11</title>
<path fill="none" stroke="midnightblue" d="M465.62,-56.53C567.41,-47.61 718.92,-33.26 792.86,-19.85"/>
<polygon fill="midnightblue" stroke="midnightblue" points="793.6,-23.28 802.77,-17.97 792.29,-16.4 793.6,-23.28"/>
</g>
<!-- Node12 -->
<g id="node12" class="node">
<title>Node12</title>
<g id="a_node12"><a xlink:title=" ">
<polygon fill="none" stroke="#bfbfbf" points="278.5,-0.5 278.5,-19.5 317.5,-19.5 317.5,-0.5 278.5,-0.5"/>
<text text-anchor="middle" x="298" y="-7.5" font-family="serif" font-size="10.00">map</text>
</a>
</g>
</g>
<!-- Node8&#45;&gt;Node12 -->
<g id="edge13" class="edge">
<title>Node8&#45;&gt;Node12</title>
<path fill="none" stroke="midnightblue" d="M354.24,-56.32C344.23,-48.26 329.11,-36.08 317.07,-26.37"/>
<polygon fill="midnightblue" stroke="midnightblue" points="318.94,-23.38 308.96,-19.83 314.55,-28.83 318.94,-23.38"/>
</g>
<!-- Node13 -->
<g id="node13" class="node">
<title>Node13</title>
<g id="a_node13"><a xlink:title=" ">
<polygon fill="none" stroke="#bfbfbf" points="335.5,-0.5 335.5,-19.5 394.5,-19.5 394.5,-0.5 335.5,-0.5"/>
<text text-anchor="middle" x="365" y="-7.5" font-family="serif" font-size="10.00">memory</text>
</a>
</g>
</g>
<!-- Node8&#45;&gt;Node13 -->
<g id="edge14" class="edge">
<title>Node8&#45;&gt;Node13</title>
<path fill="none" stroke="midnightblue" d="M365,-56.08C365,-49.01 365,-38.86 365,-29.99"/>
<polygon fill="midnightblue" stroke="midnightblue" points="368.5,-29.75 365,-19.75 361.5,-29.75 368.5,-29.75"/>
</g>
<!-- Node14 -->
<g id="node14" class="node">
<title>Node14</title>
<g id="a_node14"><a xlink:title=" ">
<polygon fill="none" stroke="#bfbfbf" points="413,-0.5 413,-19.5 471,-19.5 471,-0.5 413,-0.5"/>
<text text-anchor="middle" x="442" y="-7.5" font-family="serif" font-size="10.00">optional</text>
</a>
</g>
</g>
<!-- Node8&#45;&gt;Node14 -->
<g id="edge15" class="edge">
<title>Node8&#45;&gt;Node14</title>
<path fill="none" stroke="midnightblue" d="M377.37,-56.32C389.16,-48.06 407.13,-35.45 421.14,-25.63"/>
<polygon fill="midnightblue" stroke="midnightblue" points="423.48,-28.26 429.66,-19.65 419.46,-22.53 423.48,-28.26"/>
</g>
<!-- Node15 -->
<g id="node15" class="node">
<title>Node15</title>
<g id="a_node15"><a xlink:title=" ">
<polygon fill="none" stroke="#bfbfbf" points="489,-0.5 489,-19.5 521,-19.5 521,-0.5 489,-0.5"/>
<text text-anchor="middle" x="505" y="-7.5" font-family="serif" font-size="10.00">set</text>
</a>
</g>
</g>
<!-- Node8&#45;&gt;Node15 -->
<g id="edge16" class="edge">
<title>Node8&#45;&gt;Node15</title>
<path fill="none" stroke="midnightblue" d="M387.18,-56.44C412.21,-46.79 452.84,-31.12 479.25,-20.93"/>
<polygon fill="midnightblue" stroke="midnightblue" points="480.54,-24.19 488.61,-17.32 478.02,-17.66 480.54,-24.19"/>
</g>
<!-- Node16 -->
<g id="node16" class="node">
<title>Node16</title>
<g id="a_node16"><a xlink:title=" ">
<polygon fill="none" stroke="#bfbfbf" points="539.5,-0.5 539.5,-19.5 586.5,-19.5 586.5,-0.5 539.5,-0.5"/>
<text text-anchor="middle" x="563" y="-7.5" font-family="serif" font-size="10.00">string</text>
</a>
</g>
</g>
<!-- Node8&#45;&gt;Node16 -->
<g id="edge18" class="edge">
<title>Node8&#45;&gt;Node16</title>
<path fill="none" stroke="midnightblue" d="M396.37,-56.44C432.65,-46.55 492.15,-30.32 529.36,-20.17"/>
<polygon fill="midnightblue" stroke="midnightblue" points="530.5,-23.49 539.23,-17.48 528.66,-16.74 530.5,-23.49"/>
</g>
<!-- Node17 -->
<g id="node17" class="node">
<title>Node17</title>
<g id="a_node17"><a xlink:title=" ">
<polygon fill="none" stroke="#bfbfbf" points="605,-0.5 605,-19.5 651,-19.5 651,-0.5 605,-0.5"/>
<text text-anchor="middle" x="628" y="-7.5" font-family="serif" font-size="10.00">utility</text>
</a>
</g>
</g>
<!-- Node8&#45;&gt;Node17 -->
<g id="edge19" class="edge">
<title>Node8&#45;&gt;Node17</title>
<path fill="none" stroke="midnightblue" d="M415.27,-56.43C460.04,-48.52 527.5,-35.94 595.03,-20.08"/>
<polygon fill="midnightblue" stroke="midnightblue" points="596.06,-23.43 604.99,-17.72 594.45,-16.62 596.06,-23.43"/>
</g>
</g>
</svg>
        <g id="navigator" transform="translate(0 0)" fill="#404254">
                <rect fill="#f2f5e9" fill-opacity="0.5" stroke="#606060" stroke-width=".5" x="0" y="0" width="60" height="60"/>
                <use id="zoomplus" xlink:href="#zoomPlus" x="17" y="9" onmousedown="handleZoom(evt,'in')"/>
                <use id="zoomminus" xlink:href="#zoomMin" x="42" y="9" onmousedown="handleZoom(evt,'out')"/>
                <use id="reset" xlink:href="#resetDef" x="30" y="36" onmousedown="handleReset()"/>
                <g id="arrowUp" xlink:href="#dirArrow" transform="translate(30 24)" onmousedown="handlePan(0,-1)">
                  <use xlink:href="#rim" fill="#404040">
                        <set attributeName="fill" to="#808080" begin="arrowUp.mouseover" end="arrowUp.mouseout"/>
                  </use>
                  <path fill="none" stroke="white" stroke-width="1.5" d="M0,-3.0v7 M-2.5,-0.5L0,-3.0L2.5,-0.5"/>
                </g>
                <g id="arrowRight" xlink:href="#dirArrow" transform="rotate(90) translate(36 -43)" onmousedown="handlePan(1,0)">
                  <use xlink:href="#rim" fill="#404040">
                        <set attributeName="fill" to="#808080" begin="arrowRight.mouseover" end="arrowRight.mouseout"/>
                  </use>
                  <path fill="none" stroke="white" stroke-width="1.5" d="M0,-3.0v7 M-2.5,-0.5L0,-3.0L2.5,-0.5"/>
                </g>
                <g id="arrowDown" xlink:href="#dirArrow" transform="rotate(180) translate(-30 -48)" onmousedown="handlePan(0,1)">
                  <use xlink:href="#rim" fill="#404040">
                        <set attributeName="fill" to="#808080" begin="arrowDown.mouseover" end="arrowDown.mouseout"/>
                  </use>
                  <path fill="none" stroke="white" stroke-width="1.5" d="M0,-3.0v7 M-2.5,-0.5L0,-3.0L2.5,-0.5"/>
                </g>
                <g id="arrowLeft" xlink:href="#dirArrow" transform="rotate(270) translate(-36 17)" onmousedown="handlePan(-1,0)">
                  <use xlink:href="#rim" fill="#404040">
                        <set attributeName="fill" to="#808080" begin="arrowLeft.mouseover" end="arrowLeft.mouseout"/>
                  </use>
                  <path fill="none" stroke="white" stroke-width="1.5" d="M0,-3.0v7 M-2.5,-0.5L0,-3.0L2.5,-0.5"/>
                </g>
        </g>
        <svg viewBox="0 0 15 15" width="100%" height="30px" preserveAspectRatio="xMaxYMin meet">
         <g id="arrow_out" transform="scale(0.3 0.3)">
          <a xlink:href="CommonCoefficients_8hpp__incl_org.svg" target="_base">
           <rect id="button" ry="5" rx="5" y="6" x="6" height="38" width="38"
                fill="#f2f5e9" fill-opacity="0.5" stroke="#606060" stroke-width="1.0"/>
           <path id="arrow"
             d="M 11.500037,31.436501 C 11.940474,20.09759 22.043105,11.32322 32.158766,21.979434 L 37.068811,17.246167 C 37.068811,17.246167 37.088388,32 37.088388,32 L 22.160133,31.978069 C 22.160133,31.978069 26.997745,27.140456 26.997745,27.140456 C 18.528582,18.264221 13.291696,25.230495 11.500037,31.436501 z"
             style="fill:#404040;"/>
          </a>
         </g>
        </svg>
</svg>
