<?xml version="1.0" encoding="UTF-8" standalone="no"?>
<!DOCTYPE svg PUBLIC "-//W3C//DTD SVG 1.1//EN"
 "http://www.w3.org/Graphics/SVG/1.1/DTD/svg11.dtd">
<!-- Generated by graphviz version 2.43.0 (0)
 -->
<!-- Title: ConstantCoefficient.hpp Pages: 1 -->
<svg width="855pt" height="140pt"
 viewBox="0.00 0.00 855.00 140.00" xmlns="http://www.w3.org/2000/svg" xmlns:xlink="http://www.w3.org/1999/xlink">
<g id="graph0" class="graph" transform="scale(1 1) rotate(0) translate(4 136)">
<title>ConstantCoefficient.hpp</title>
<!-- Node1 -->
<g id="node1" class="node">
<title>Node1</title>
<g id="a_node1"><a xlink:title="Constant coefficient.">
<polygon fill="#bfbfbf" stroke="black" points="103,-112.5 103,-131.5 243,-131.5 243,-112.5 103,-112.5"/>
<text text-anchor="middle" x="173" y="-119.5" font-family="serif" font-size="10.00">ConstantCoefficient.hpp</text>
</a>
</g>
</g>
<!-- Node2 -->
<g id="node2" class="node">
<title>Node2</title>
<g id="a_node2"><a xlink:title=" ">
<polygon fill="none" stroke="#bfbfbf" points="0,-0.5 0,-19.5 48,-19.5 48,-0.5 0,-0.5"/>
<text text-anchor="middle" x="24" y="-7.5" font-family="serif" font-size="10.00">cmath</text>
</a>
</g>
</g>
<!-- Node1&#45;&gt;Node2 -->
<g id="edge1" class="edge">
<title>Node1&#45;&gt;Node2</title>
<path fill="none" stroke="midnightblue" d="M161.31,-112.37C135.85,-93.57 75.16,-48.77 43.69,-25.53"/>
<polygon fill="midnightblue" stroke="midnightblue" points="45.76,-22.72 35.64,-19.59 41.6,-28.35 45.76,-22.72"/>
</g>
<!-- Node3 -->
<g id="node3" class="node">
<title>Node3</title>
<g id="a_node3"><a xlink:title=" ">
<polygon fill="none" stroke="#bfbfbf" points="66,-0.5 66,-19.5 134,-19.5 134,-0.5 66,-0.5"/>
<text text-anchor="middle" x="100" y="-7.5" font-family="serif" font-size="10.00">functional</text>
</a>
</g>
</g>
<!-- Node1&#45;&gt;Node3 -->
<g id="edge2" class="edge">
<title>Node1&#45;&gt;Node3</title>
<path fill="none" stroke="midnightblue" d="M167.27,-112.37C155.22,-94.22 127.08,-51.8 111.28,-27.99"/>
<polygon fill="midnightblue" stroke="midnightblue" points="114.15,-25.99 105.7,-19.59 108.31,-29.86 114.15,-25.99"/>
</g>
<!-- Node4 -->
<g id="node4" class="node">
<title>Node4</title>
<g id="a_node4"><a xlink:title=" ">
<polygon fill="none" stroke="#bfbfbf" points="152.5,-0.5 152.5,-19.5 193.5,-19.5 193.5,-0.5 152.5,-0.5"/>
<text text-anchor="middle" x="173" y="-7.5" font-family="serif" font-size="10.00">span</text>
</a>
</g>
</g>
<!-- Node1&#45;&gt;Node4 -->
<g id="edge3" class="edge">
<title>Node1&#45;&gt;Node4</title>
<path fill="none" stroke="midnightblue" d="M173,-112.37C173,-94.62 173,-53.67 173,-29.6"/>
<polygon fill="midnightblue" stroke="midnightblue" points="176.5,-29.59 173,-19.59 169.5,-29.59 176.5,-29.59"/>
</g>
<!-- Node5 -->
<g id="node5" class="node">
<title>Node5</title>
<g id="a_node5"><a xlink:title=" ">
<polygon fill="none" stroke="#bfbfbf" points="212,-0.5 212,-19.5 260,-19.5 260,-0.5 212,-0.5"/>
<text text-anchor="middle" x="236" y="-7.5" font-family="serif" font-size="10.00">vector</text>
</a>
</g>
</g>
<!-- Node1&#45;&gt;Node5 -->
<g id="edge4" class="edge">
<title>Node1&#45;&gt;Node5</title>
<path fill="none" stroke="midnightblue" d="M177.94,-112.37C188.29,-94.3 212.42,-52.18 226.09,-28.31"/>
<polygon fill="midnightblue" stroke="midnightblue" points="229.15,-30.01 231.08,-19.59 223.07,-26.53 229.15,-30.01"/>
</g>
<!-- Node6 -->
<g id="node6" class="node">
<title>Node6</title>
<g id="a_node6"><a xlink:href="FunctionCoefficient_8hpp.html" target="_top" xlink:title="Base class defining analytical expression, first and second derivatives of a Coefficient.">
<polygon fill="none" stroke="black" points="302.5,-56.5 302.5,-75.5 503.5,-75.5 503.5,-56.5 302.5,-56.5"/>
<text text-anchor="middle" x="403" y="-63.5" font-family="serif" font-size="10.00">Coefficients/FunctionCoefficient.hpp</text>
</a>
</g>
</g>
<!-- Node1&#45;&gt;Node6 -->
<g id="edge5" class="edge">
<title>Node1&#45;&gt;Node6</title>
<path fill="none" stroke="midnightblue" d="M209.44,-112.44C249.4,-103.06 313.59,-87.99 356.98,-77.8"/>
<polygon fill="midnightblue" stroke="midnightblue" points="357.79,-81.21 366.73,-75.52 356.19,-74.39 357.79,-81.21"/>
</g>
<!-- Node6&#45;&gt;Node2 -->
<g id="edge7" class="edge">
<title>Node6&#45;&gt;Node2</title>
<path fill="none" stroke="midnightblue" d="M310.65,-56.46C243.09,-49.41 149.11,-37.92 58.01,-19.96"/>
<polygon fill="midnightblue" stroke="midnightblue" points="58.55,-16.5 48.06,-17.97 57.18,-23.36 58.55,-16.5"/>
</g>
<!-- Node6&#45;&gt;Node3 -->
<g id="edge9" class="edge">
<title>Node6&#45;&gt;Node3</title>
<path fill="none" stroke="midnightblue" d="M350.61,-56.49C300.19,-48.17 221.55,-34.86 144.17,-20.17"/>
<polygon fill="midnightblue" stroke="midnightblue" points="144.72,-16.72 134.25,-18.28 143.41,-23.59 144.72,-16.72"/>
</g>
<!-- Node6&#45;&gt;Node4 -->
<g id="edge15" class="edge">
<title>Node6&#45;&gt;Node4</title>
<path fill="none" stroke="midnightblue" d="M361.04,-56.45C322.49,-48.4 263.58,-35.6 203.29,-19.93"/>
<polygon fill="midnightblue" stroke="midnightblue" points="204.16,-16.54 193.6,-17.39 202.39,-23.31 204.16,-16.54"/>
</g>
<!-- Node6&#45;&gt;Node5 -->
<g id="edge18" class="edge">
<title>Node6&#45;&gt;Node5</title>
<path fill="none" stroke="midnightblue" d="M376.54,-56.44C347.66,-47.1 301.34,-32.13 269.84,-21.94"/>
<polygon fill="midnightblue" stroke="midnightblue" points="270.76,-18.56 260.17,-18.82 268.61,-25.22 270.76,-18.56"/>
</g>
<!-- Node7 -->
<g id="node7" class="node">
<title>Node7</title>
<g id="a_node7"><a xlink:title=" ">
<polygon fill="none" stroke="#bfbfbf" points="669.5,-0.5 669.5,-19.5 704.5,-19.5 704.5,-0.5 669.5,-0.5"/>
<text text-anchor="middle" x="687" y="-7.5" font-family="serif" font-size="10.00">any</text>
</a>
</g>
</g>
<!-- Node6&#45;&gt;Node7 -->
<g id="edge6" class="edge">
<title>Node6&#45;&gt;Node7</title>
<path fill="none" stroke="midnightblue" d="M467.19,-56.46C517.17,-49.2 588.37,-37.51 659.38,-19.82"/>
<polygon fill="midnightblue" stroke="midnightblue" points="660.56,-23.13 669.39,-17.29 658.84,-16.35 660.56,-23.13"/>
</g>
<!-- Node8 -->
<g id="node8" class="node">
<title>Node8</title>
<g id="a_node8"><a xlink:title=" ">
<polygon fill="none" stroke="#bfbfbf" points="723,-0.5 723,-19.5 785,-19.5 785,-0.5 723,-0.5"/>
<text text-anchor="middle" x="754" y="-7.5" font-family="serif" font-size="10.00">concepts</text>
</a>
</g>
</g>
<!-- Node6&#45;&gt;Node8 -->
<g id="edge8" class="edge">
<title>Node6&#45;&gt;Node8</title>
<path fill="none" stroke="midnightblue" d="M472.73,-56.48C533.65,-48.69 624.65,-36.17 712.71,-20.12"/>
<polygon fill="midnightblue" stroke="midnightblue" points="713.4,-23.56 722.6,-18.31 712.14,-16.67 713.4,-23.56"/>
</g>
<!-- Node9 -->
<g id="node9" class="node">
<title>Node9</title>
<g id="a_node9"><a xlink:title=" ">
<polygon fill="none" stroke="#bfbfbf" points="803,-0.5 803,-19.5 847,-19.5 847,-0.5 803,-0.5"/>
<text text-anchor="middle" x="825" y="-7.5" font-family="serif" font-size="10.00">limits</text>
</a>
</g>
</g>
<!-- Node6&#45;&gt;Node9 -->
<g id="edge10" class="edge">
<title>Node6&#45;&gt;Node9</title>
<path fill="none" stroke="midnightblue" d="M503.77,-58.08C580.68,-51.71 689.32,-40.38 792.77,-19.95"/>
<polygon fill="midnightblue" stroke="midnightblue" points="793.64,-23.34 802.76,-17.94 792.27,-16.48 793.64,-23.34"/>
</g>
<!-- Node10 -->
<g id="node10" class="node">
<title>Node10</title>
<g id="a_node10"><a xlink:title=" ">
<polygon fill="none" stroke="#bfbfbf" points="278.5,-0.5 278.5,-19.5 317.5,-19.5 317.5,-0.5 278.5,-0.5"/>
<text text-anchor="middle" x="298" y="-7.5" font-family="serif" font-size="10.00">map</text>
</a>
</g>
</g>
<!-- Node6&#45;&gt;Node10 -->
<g id="edge11" class="edge">
<title>Node6&#45;&gt;Node10</title>
<path fill="none" stroke="midnightblue" d="M386.13,-56.32C369.29,-47.66 343.19,-34.24 323.76,-24.25"/>
<polygon fill="midnightblue" stroke="midnightblue" points="325.32,-21.12 314.83,-19.65 322.12,-27.34 325.32,-21.12"/>
</g>
<!-- Node11 -->
<g id="node11" class="node">
<title>Node11</title>
<g id="a_node11"><a xlink:title=" ">
<polygon fill="none" stroke="#bfbfbf" points="335.5,-0.5 335.5,-19.5 394.5,-19.5 394.5,-0.5 335.5,-0.5"/>
<text text-anchor="middle" x="365" y="-7.5" font-family="serif" font-size="10.00">memory</text>
</a>
</g>
</g>
<!-- Node6&#45;&gt;Node11 -->
<g id="edge12" class="edge">
<title>Node6&#45;&gt;Node11</title>
<path fill="none" stroke="midnightblue" d="M396.73,-56.08C391.36,-48.46 383.48,-37.26 376.92,-27.94"/>
<polygon fill="midnightblue" stroke="midnightblue" points="379.78,-25.91 371.16,-19.75 374.05,-29.94 379.78,-25.91"/>
</g>
<!-- Node12 -->
<g id="node12" class="node">
<title>Node12</title>
<g id="a_node12"><a xlink:title=" ">
<polygon fill="none" stroke="#bfbfbf" points="413,-0.5 413,-19.5 471,-19.5 471,-0.5 413,-0.5"/>
<text text-anchor="middle" x="442" y="-7.5" font-family="serif" font-size="10.00">optional</text>
</a>
</g>
</g>
<!-- Node6&#45;&gt;Node12 -->
<g id="edge13" class="edge">
<title>Node6&#45;&gt;Node12</title>
<path fill="none" stroke="midnightblue" d="M409.44,-56.08C414.95,-48.46 423.03,-37.26 429.76,-27.94"/>
<polygon fill="midnightblue" stroke="midnightblue" points="432.66,-29.91 435.68,-19.75 426.99,-25.81 432.66,-29.91"/>
</g>
<!-- Node13 -->
<g id="node13" class="node">
<title>Node13</title>
<g id="a_node13"><a xlink:title=" ">
<polygon fill="none" stroke="#bfbfbf" points="489,-0.5 489,-19.5 521,-19.5 521,-0.5 489,-0.5"/>
<text text-anchor="middle" x="505" y="-7.5" font-family="serif" font-size="10.00">set</text>
</a>
</g>
</g>
<!-- Node6&#45;&gt;Node13 -->
<g id="edge14" class="edge">
<title>Node6&#45;&gt;Node13</title>
<path fill="none" stroke="midnightblue" d="M419.39,-56.32C435.77,-47.65 461.17,-34.21 480.05,-24.21"/>
<polygon fill="midnightblue" stroke="midnightblue" points="481.79,-27.25 488.99,-19.48 478.51,-21.06 481.79,-27.25"/>
</g>
<!-- Node14 -->
<g id="node14" class="node">
<title>Node14</title>
<g id="a_node14"><a xlink:title=" ">
<polygon fill="none" stroke="#bfbfbf" points="539.5,-0.5 539.5,-19.5 586.5,-19.5 586.5,-0.5 539.5,-0.5"/>
<text text-anchor="middle" x="563" y="-7.5" font-family="serif" font-size="10.00">string</text>
</a>
</g>
</g>
<!-- Node6&#45;&gt;Node14 -->
<g id="edge16" class="edge">
<title>Node6&#45;&gt;Node14</title>
<path fill="none" stroke="midnightblue" d="M428.35,-56.44C455.74,-47.2 499.51,-32.43 529.67,-22.25"/>
<polygon fill="midnightblue" stroke="midnightblue" points="530.98,-25.5 539.33,-18.99 528.74,-18.87 530.98,-25.5"/>
</g>
<!-- Node15 -->
<g id="node15" class="node">
<title>Node15</title>
<g id="a_node15"><a xlink:title=" ">
<polygon fill="none" stroke="#bfbfbf" points="605,-0.5 605,-19.5 651,-19.5 651,-0.5 605,-0.5"/>
<text text-anchor="middle" x="628" y="-7.5" font-family="serif" font-size="10.00">utility</text>
</a>
</g>
</g>
<!-- Node6&#45;&gt;Node15 -->
<g id="edge17" class="edge">
<title>Node6&#45;&gt;Node15</title>
<path fill="none" stroke="midnightblue" d="M441.94,-56.46C478.95,-48.23 536.39,-35.14 595.14,-20.14"/>
<polygon fill="midnightblue" stroke="midnightblue" points="596.15,-23.49 604.96,-17.61 594.41,-16.71 596.15,-23.49"/>
</g>
</g>
</svg>
