<?xml version="1.0" encoding="UTF-8" standalone="no"?>
<!DOCTYPE svg PUBLIC "-//W3C//DTD SVG 1.1//EN"
 "http://www.w3.org/Graphics/SVG/1.1/DTD/svg11.dtd">
<!-- Generated by graphviz version 2.43.0 (0)
 -->
<!-- Title: Coupling.hpp Pages: 1 -->
<svg width="987pt" height="196pt"
 viewBox="0.00 0.00 986.50 196.00" xmlns="http://www.w3.org/2000/svg" xmlns:xlink="http://www.w3.org/1999/xlink">
<g id="graph0" class="graph" transform="scale(1 1) rotate(0) translate(4 192)">
<title>Coupling.hpp</title>
<!-- Node1 -->
<g id="node1" class="node">
<title>Node1</title>
<g id="a_node1"><a xlink:title="Class to define a Coupling object.">
<polygon fill="#bfbfbf" stroke="black" points="171.5,-168.5 171.5,-187.5 257.5,-187.5 257.5,-168.5 171.5,-168.5"/>
<text text-anchor="middle" x="214.5" y="-175.5" font-family="serif" font-size="10.00">Coupling.hpp</text>
</a>
</g>
</g>
<!-- Node2 -->
<g id="node2" class="node">
<title>Node2</title>
<g id="a_node2"><a xlink:title=" ">
<polygon fill="none" stroke="#bfbfbf" points="0,-0.5 0,-19.5 47,-19.5 47,-0.5 0,-0.5"/>
<text text-anchor="middle" x="23.5" y="-7.5" font-family="serif" font-size="10.00">string</text>
</a>
</g>
</g>
<!-- Node1&#45;&gt;Node2 -->
<g id="edge1" class="edge">
<title>Node1&#45;&gt;Node2</title>
<path fill="none" stroke="midnightblue" d="M204.5,-168.31C173.82,-141.64 80.7,-60.72 41.36,-26.52"/>
<polygon fill="midnightblue" stroke="midnightblue" points="43.24,-23.52 33.4,-19.61 38.65,-28.81 43.24,-23.52"/>
</g>
<!-- Node3 -->
<g id="node3" class="node">
<title>Node3</title>
<g id="a_node3"><a xlink:title=" ">
<polygon fill="none" stroke="#bfbfbf" points="65,-0.5 65,-19.5 108,-19.5 108,-0.5 65,-0.5"/>
<text text-anchor="middle" x="86.5" y="-7.5" font-family="serif" font-size="10.00">tuple</text>
</a>
</g>
</g>
<!-- Node1&#45;&gt;Node3 -->
<g id="edge2" class="edge">
<title>Node1&#45;&gt;Node3</title>
<path fill="none" stroke="midnightblue" d="M207.62,-168.08C187.12,-141.49 126.24,-62.54 99.43,-27.76"/>
<polygon fill="midnightblue" stroke="midnightblue" points="101.98,-25.35 93.11,-19.57 96.44,-29.62 101.98,-25.35"/>
</g>
<!-- Node4 -->
<g id="node4" class="node">
<title>Node4</title>
<g id="a_node4"><a xlink:title=" ">
<polygon fill="none" stroke="#bfbfbf" points="126.5,-0.5 126.5,-19.5 172.5,-19.5 172.5,-0.5 126.5,-0.5"/>
<text text-anchor="middle" x="149.5" y="-7.5" font-family="serif" font-size="10.00">utility</text>
</a>
</g>
</g>
<!-- Node1&#45;&gt;Node4 -->
<g id="edge3" class="edge">
<title>Node1&#45;&gt;Node4</title>
<path fill="none" stroke="midnightblue" d="M211.01,-168.08C200.73,-141.83 170.47,-64.55 156.59,-29.12"/>
<polygon fill="midnightblue" stroke="midnightblue" points="159.76,-27.6 152.85,-19.57 153.24,-30.16 159.76,-27.6"/>
</g>
<!-- Node5 -->
<g id="node5" class="node">
<title>Node5</title>
<g id="a_node5"><a xlink:title=" ">
<polygon fill="none" stroke="#bfbfbf" points="190.5,-0.5 190.5,-19.5 238.5,-19.5 238.5,-0.5 190.5,-0.5"/>
<text text-anchor="middle" x="214.5" y="-7.5" font-family="serif" font-size="10.00">vector</text>
</a>
</g>
</g>
<!-- Node1&#45;&gt;Node5 -->
<g id="edge4" class="edge">
<title>Node1&#45;&gt;Node5</title>
<path fill="none" stroke="midnightblue" d="M214.5,-168.08C214.5,-141.95 214.5,-65.21 214.5,-29.58"/>
<polygon fill="midnightblue" stroke="midnightblue" points="218,-29.57 214.5,-19.57 211,-29.57 218,-29.57"/>
</g>
<!-- Node6 -->
<g id="node6" class="node">
<title>Node6</title>
<g id="a_node6"><a xlink:href="UtilsForDebug_8hpp.html" target="_top" xlink:title="Usefull methods for debug.">
<polygon fill="none" stroke="black" points="388,-112.5 388,-131.5 529,-131.5 529,-112.5 388,-112.5"/>
<text text-anchor="middle" x="458.5" y="-119.5" font-family="serif" font-size="10.00">Utils/UtilsForDebug.hpp</text>
</a>
</g>
</g>
<!-- Node1&#45;&gt;Node6 -->
<g id="edge5" class="edge">
<title>Node1&#45;&gt;Node6</title>
<path fill="none" stroke="midnightblue" d="M253.16,-168.44C295.64,-159.04 363.93,-143.93 409.97,-133.74"/>
<polygon fill="midnightblue" stroke="midnightblue" points="411.01,-137.09 420.02,-131.52 409.5,-130.26 411.01,-137.09"/>
</g>
<!-- Node18 -->
<g id="node18" class="node">
<title>Node18</title>
<g id="a_node18"><a xlink:title=" ">
<polygon fill="none" stroke="#bfbfbf" points="861,-0.5 861,-19.5 930,-19.5 930,-0.5 861,-0.5"/>
<text text-anchor="middle" x="895.5" y="-7.5" font-family="serif" font-size="10.00">mfem.hpp</text>
</a>
</g>
</g>
<!-- Node1&#45;&gt;Node18 -->
<g id="edge29" class="edge">
<title>Node1&#45;&gt;Node18</title>
<path fill="none" stroke="midnightblue" d="M257.75,-175.35C355.43,-170.37 599.2,-150.79 786.5,-76 819.65,-62.76 854.5,-40.24 875.62,-25.5"/>
<polygon fill="midnightblue" stroke="midnightblue" points="877.92,-28.16 884.04,-19.51 873.86,-22.45 877.92,-28.16"/>
</g>
<!-- Node19 -->
<g id="node19" class="node">
<title>Node19</title>
<g id="a_node19"><a xlink:href="Coupling_8tpp.html" target="_top" xlink:title=" ">
<polygon fill="none" stroke="black" points="840.5,-112.5 840.5,-131.5 978.5,-131.5 978.5,-112.5 840.5,-112.5"/>
<text text-anchor="middle" x="909.5" y="-119.5" font-family="serif" font-size="10.00">Couplings/Coupling.tpp</text>
</a>
</g>
</g>
<!-- Node1&#45;&gt;Node19 -->
<g id="edge30" class="edge">
<title>Node1&#45;&gt;Node19</title>
<path fill="none" stroke="midnightblue" d="M257.58,-174.35C357.59,-168.08 613.24,-151.4 826.5,-132 827.62,-131.9 828.75,-131.79 829.88,-131.69"/>
<polygon fill="midnightblue" stroke="midnightblue" points="830.61,-135.13 840.23,-130.69 829.94,-128.17 830.61,-135.13"/>
</g>
<!-- Node6&#45;&gt;Node2 -->
<g id="edge12" class="edge">
<title>Node6&#45;&gt;Node2</title>
<path fill="none" stroke="midnightblue" d="M405.12,-112.49C357.84,-104.52 287.11,-91.52 226.5,-76 165.69,-60.43 96.34,-36.95 56.47,-22.89"/>
<polygon fill="midnightblue" stroke="midnightblue" points="57.58,-19.57 46.99,-19.52 55.24,-26.17 57.58,-19.57"/>
</g>
<!-- Node6&#45;&gt;Node4 -->
<g id="edge13" class="edge">
<title>Node6&#45;&gt;Node4</title>
<path fill="none" stroke="midnightblue" d="M408.25,-112.5C370,-105.17 316.45,-93.07 271.5,-76 234.86,-62.09 195.31,-39.47 171.48,-24.92"/>
<polygon fill="midnightblue" stroke="midnightblue" points="173.21,-21.87 162.87,-19.59 169.53,-27.83 173.21,-21.87"/>
</g>
<!-- Node7 -->
<g id="node7" class="node">
<title>Node7</title>
<g id="a_node7"><a xlink:title=" ">
<polygon fill="none" stroke="#bfbfbf" points="618.5,-56.5 618.5,-75.5 708.5,-75.5 708.5,-56.5 618.5,-56.5"/>
<text text-anchor="middle" x="663.5" y="-63.5" font-family="serif" font-size="10.00">sys/resource.h</text>
</a>
</g>
</g>
<!-- Node6&#45;&gt;Node7 -->
<g id="edge6" class="edge">
<title>Node6&#45;&gt;Node7</title>
<path fill="none" stroke="midnightblue" d="M490.98,-112.44C526.22,-103.16 582.6,-88.31 621.26,-78.13"/>
<polygon fill="midnightblue" stroke="midnightblue" points="622.39,-81.45 631.17,-75.52 620.61,-74.68 622.39,-81.45"/>
</g>
<!-- Node8 -->
<g id="node8" class="node">
<title>Node8</title>
<g id="a_node8"><a xlink:title=" ">
<polygon fill="none" stroke="#bfbfbf" points="784,-0.5 784,-19.5 843,-19.5 843,-0.5 784,-0.5"/>
<text text-anchor="middle" x="813.5" y="-7.5" font-family="serif" font-size="10.00">unistd.h</text>
</a>
</g>
</g>
<!-- Node6&#45;&gt;Node8 -->
<g id="edge7" class="edge">
<title>Node6&#45;&gt;Node8</title>
<path fill="none" stroke="midnightblue" d="M529.13,-116.79C582.48,-111.72 656.66,-100.55 717.5,-76 747.49,-63.89 777.66,-41.37 795.96,-26.28"/>
<polygon fill="midnightblue" stroke="midnightblue" points="798.56,-28.67 803.94,-19.55 794.04,-23.32 798.56,-28.67"/>
</g>
<!-- Node9 -->
<g id="node9" class="node">
<title>Node9</title>
<g id="a_node9"><a xlink:title=" ">
<polygon fill="none" stroke="#bfbfbf" points="257,-0.5 257,-19.5 304,-19.5 304,-0.5 257,-0.5"/>
<text text-anchor="middle" x="280.5" y="-7.5" font-family="serif" font-size="10.00">cstdio</text>
</a>
</g>
</g>
<!-- Node6&#45;&gt;Node9 -->
<g id="edge8" class="edge">
<title>Node6&#45;&gt;Node9</title>
<path fill="none" stroke="midnightblue" d="M444.28,-112.42C429.36,-103.41 405.23,-88.78 384.5,-76 356.24,-58.58 323.82,-38.26 302.8,-25.05"/>
<polygon fill="midnightblue" stroke="midnightblue" points="304.59,-22.04 294.26,-19.68 300.86,-27.96 304.59,-22.04"/>
</g>
<!-- Node10 -->
<g id="node10" class="node">
<title>Node10</title>
<g id="a_node10"><a xlink:title=" ">
<polygon fill="none" stroke="#bfbfbf" points="280.5,-56.5 280.5,-75.5 336.5,-75.5 336.5,-56.5 280.5,-56.5"/>
<text text-anchor="middle" x="308.5" y="-63.5" font-family="serif" font-size="10.00">fstream</text>
</a>
</g>
</g>
<!-- Node6&#45;&gt;Node10 -->
<g id="edge9" class="edge">
<title>Node6&#45;&gt;Node10</title>
<path fill="none" stroke="midnightblue" d="M434.73,-112.44C409.61,-103.4 369.79,-89.06 341.6,-78.92"/>
<polygon fill="midnightblue" stroke="midnightblue" points="342.75,-75.61 332.16,-75.52 340.38,-82.2 342.75,-75.61"/>
</g>
<!-- Node11 -->
<g id="node11" class="node">
<title>Node11</title>
<g id="a_node11"><a xlink:title=" ">
<polygon fill="none" stroke="#bfbfbf" points="618.5,-0.5 618.5,-19.5 686.5,-19.5 686.5,-0.5 618.5,-0.5"/>
<text text-anchor="middle" x="652.5" y="-7.5" font-family="serif" font-size="10.00">functional</text>
</a>
</g>
</g>
<!-- Node6&#45;&gt;Node11 -->
<g id="edge10" class="edge">
<title>Node6&#45;&gt;Node11</title>
<path fill="none" stroke="midnightblue" d="M473.72,-112.37C507.3,-93.33 587.92,-47.62 628.43,-24.65"/>
<polygon fill="midnightblue" stroke="midnightblue" points="630.38,-27.57 637.35,-19.59 626.92,-21.48 630.38,-27.57"/>
</g>
<!-- Node12 -->
<g id="node12" class="node">
<title>Node12</title>
<g id="a_node12"><a xlink:title=" ">
<polygon fill="none" stroke="#bfbfbf" points="705,-0.5 705,-19.5 766,-19.5 766,-0.5 705,-0.5"/>
<text text-anchor="middle" x="735.5" y="-7.5" font-family="serif" font-size="10.00">iostream</text>
</a>
</g>
</g>
<!-- Node6&#45;&gt;Node12 -->
<g id="edge11" class="edge">
<title>Node6&#45;&gt;Node12</title>
<path fill="none" stroke="midnightblue" d="M481.25,-112.38C503.85,-103.68 539.37,-89.61 569.5,-76 587.61,-67.82 591.22,-63.8 609.5,-56 639.11,-43.36 673.59,-31.22 698.99,-22.74"/>
<polygon fill="midnightblue" stroke="midnightblue" points="700.2,-26.03 708.59,-19.56 698,-19.38 700.2,-26.03"/>
</g>
<!-- Node13 -->
<g id="node13" class="node">
<title>Node13</title>
<g id="a_node13"><a xlink:href="UtilsForData_8hpp.html" target="_top" xlink:title="Usefull methods for data.">
<polygon fill="none" stroke="black" points="393,-56.5 393,-75.5 524,-75.5 524,-56.5 393,-56.5"/>
<text text-anchor="middle" x="458.5" y="-63.5" font-family="serif" font-size="10.00">Utils/UtilsForData.hpp</text>
</a>
</g>
</g>
<!-- Node6&#45;&gt;Node13 -->
<g id="edge14" class="edge">
<title>Node6&#45;&gt;Node13</title>
<path fill="none" stroke="midnightblue" d="M458.5,-112.08C458.5,-105.01 458.5,-94.86 458.5,-85.99"/>
<polygon fill="midnightblue" stroke="midnightblue" points="462,-85.75 458.5,-75.75 455,-85.75 462,-85.75"/>
</g>
<!-- Node6&#45;&gt;Node18 -->
<g id="edge28" class="edge">
<title>Node6&#45;&gt;Node18</title>
<path fill="none" stroke="midnightblue" d="M529.02,-115.38C588.67,-109.37 675.94,-97.64 749.5,-76 761.49,-72.47 828.96,-41.7 867.85,-23.79"/>
<polygon fill="midnightblue" stroke="midnightblue" points="869.46,-26.9 877.07,-19.53 866.52,-20.54 869.46,-26.9"/>
</g>
<!-- Node13&#45;&gt;Node2 -->
<g id="edge23" class="edge">
<title>Node13&#45;&gt;Node2</title>
<path fill="none" stroke="midnightblue" d="M392.71,-58.97C299.91,-50.25 134.13,-33.83 57.38,-20.05"/>
<polygon fill="midnightblue" stroke="midnightblue" points="57.64,-16.53 47.16,-18.12 56.34,-23.41 57.64,-16.53"/>
</g>
<!-- Node13&#45;&gt;Node3 -->
<g id="edge24" class="edge">
<title>Node13&#45;&gt;Node3</title>
<path fill="none" stroke="midnightblue" d="M392.95,-59.32C326.08,-52.86 219.25,-40.69 117.87,-19.77"/>
<polygon fill="midnightblue" stroke="midnightblue" points="118.58,-16.34 108.07,-17.72 117.14,-23.19 118.58,-16.34"/>
</g>
<!-- Node13&#45;&gt;Node4 -->
<g id="edge25" class="edge">
<title>Node13&#45;&gt;Node4</title>
<path fill="none" stroke="midnightblue" d="M392.9,-56.48C338.83,-48.96 260,-36.9 182.74,-20.08"/>
<polygon fill="midnightblue" stroke="midnightblue" points="183.36,-16.63 172.84,-17.89 181.85,-23.47 183.36,-16.63"/>
</g>
<!-- Node13&#45;&gt;Node5 -->
<g id="edge26" class="edge">
<title>Node13&#45;&gt;Node5</title>
<path fill="none" stroke="midnightblue" d="M415.1,-56.49C374.42,-48.34 311.69,-35.35 248.36,-20.11"/>
<polygon fill="midnightblue" stroke="midnightblue" points="249.15,-16.7 238.61,-17.74 247.5,-23.5 249.15,-16.7"/>
</g>
<!-- Node13&#45;&gt;Node8 -->
<g id="edge15" class="edge">
<title>Node13&#45;&gt;Node8</title>
<path fill="none" stroke="midnightblue" d="M524.05,-57.47C586.1,-49.94 682.03,-37.27 773.68,-20.22"/>
<polygon fill="midnightblue" stroke="midnightblue" points="774.5,-23.62 783.68,-18.33 773.21,-16.74 774.5,-23.62"/>
</g>
<!-- Node13&#45;&gt;Node9 -->
<g id="edge18" class="edge">
<title>Node13&#45;&gt;Node9</title>
<path fill="none" stroke="midnightblue" d="M430.3,-56.44C398.67,-46.85 347.42,-31.3 313.84,-21.11"/>
<polygon fill="midnightblue" stroke="midnightblue" points="314.61,-17.69 304.03,-18.14 312.58,-24.39 314.61,-17.69"/>
</g>
<!-- Node13&#45;&gt;Node11 -->
<g id="edge20" class="edge">
<title>Node13&#45;&gt;Node11</title>
<path fill="none" stroke="midnightblue" d="M489.24,-56.44C522.44,-47.2 575.49,-32.44 612.06,-22.26"/>
<polygon fill="midnightblue" stroke="midnightblue" points="613.21,-25.57 621.9,-19.52 611.33,-18.83 613.21,-25.57"/>
</g>
<!-- Node13&#45;&gt;Node12 -->
<g id="edge21" class="edge">
<title>Node13&#45;&gt;Node12</title>
<path fill="none" stroke="midnightblue" d="M506.26,-56.42C552.03,-48.09 623.33,-34.82 694.86,-20.08"/>
<polygon fill="midnightblue" stroke="midnightblue" points="695.87,-23.44 704.95,-17.99 694.45,-16.59 695.87,-23.44"/>
</g>
<!-- Node14 -->
<g id="node14" class="node">
<title>Node14</title>
<g id="a_node14"><a xlink:title=" ">
<polygon fill="none" stroke="#bfbfbf" points="534.5,-0.5 534.5,-19.5 600.5,-19.5 600.5,-0.5 534.5,-0.5"/>
<text text-anchor="middle" x="567.5" y="-7.5" font-family="serif" font-size="10.00">algorithm</text>
</a>
</g>
</g>
<!-- Node13&#45;&gt;Node14 -->
<g id="edge16" class="edge">
<title>Node13&#45;&gt;Node14</title>
<path fill="none" stroke="midnightblue" d="M476.01,-56.32C493.57,-47.62 520.83,-34.12 541.03,-24.11"/>
<polygon fill="midnightblue" stroke="midnightblue" points="542.62,-27.23 550.03,-19.65 539.52,-20.96 542.62,-27.23"/>
</g>
<!-- Node15 -->
<g id="node15" class="node">
<title>Node15</title>
<g id="a_node15"><a xlink:title=" ">
<polygon fill="none" stroke="#bfbfbf" points="322.5,-0.5 322.5,-19.5 372.5,-19.5 372.5,-0.5 322.5,-0.5"/>
<text text-anchor="middle" x="347.5" y="-7.5" font-family="serif" font-size="10.00">cctype</text>
</a>
</g>
</g>
<!-- Node13&#45;&gt;Node15 -->
<g id="edge17" class="edge">
<title>Node13&#45;&gt;Node15</title>
<path fill="none" stroke="midnightblue" d="M440.67,-56.32C422.78,-47.62 395.02,-34.12 374.45,-24.11"/>
<polygon fill="midnightblue" stroke="midnightblue" points="375.81,-20.88 365.29,-19.65 372.75,-27.18 375.81,-20.88"/>
</g>
<!-- Node16 -->
<g id="node16" class="node">
<title>Node16</title>
<g id="a_node16"><a xlink:title=" ">
<polygon fill="none" stroke="#bfbfbf" points="390.5,-0.5 390.5,-19.5 458.5,-19.5 458.5,-0.5 390.5,-0.5"/>
<text text-anchor="middle" x="424.5" y="-7.5" font-family="serif" font-size="10.00">filesystem</text>
</a>
</g>
</g>
<!-- Node13&#45;&gt;Node16 -->
<g id="edge19" class="edge">
<title>Node13&#45;&gt;Node16</title>
<path fill="none" stroke="midnightblue" d="M452.89,-56.08C448.13,-48.53 441.18,-37.49 435.35,-28.23"/>
<polygon fill="midnightblue" stroke="midnightblue" points="438.3,-26.35 430.01,-19.75 432.38,-30.08 438.3,-26.35"/>
</g>
<!-- Node17 -->
<g id="node17" class="node">
<title>Node17</title>
<g id="a_node17"><a xlink:title=" ">
<polygon fill="none" stroke="#bfbfbf" points="477,-0.5 477,-19.5 516,-19.5 516,-0.5 477,-0.5"/>
<text text-anchor="middle" x="496.5" y="-7.5" font-family="serif" font-size="10.00">map</text>
</a>
</g>
</g>
<!-- Node13&#45;&gt;Node17 -->
<g id="edge22" class="edge">
<title>Node13&#45;&gt;Node17</title>
<path fill="none" stroke="midnightblue" d="M464.77,-56.08C470.14,-48.46 478.02,-37.26 484.58,-27.94"/>
<polygon fill="midnightblue" stroke="midnightblue" points="487.45,-29.94 490.34,-19.75 481.72,-25.91 487.45,-29.94"/>
</g>
<!-- Node13&#45;&gt;Node18 -->
<g id="edge27" class="edge">
<title>Node13&#45;&gt;Node18</title>
<path fill="none" stroke="midnightblue" d="M524.29,-59.36C600.57,-52.41 730.3,-39.28 850.69,-20.17"/>
<polygon fill="midnightblue" stroke="midnightblue" points="851.5,-23.59 860.82,-18.55 850.39,-16.68 851.5,-23.59"/>
</g>
</g>
</svg>
