<?xml version="1.0" encoding="UTF-8" standalone="no"?>
<!DOCTYPE svg PUBLIC "-//W3C//DTD SVG 1.1//EN"
 "http://www.w3.org/Graphics/SVG/1.1/DTD/svg11.dtd">
<!-- Generated by graphviz version 2.43.0 (0)
 -->
<!-- Title: DiffusionFluxNLFormIntegrator.hpp Pages: 1 -->
<svg width="237pt" height="140pt"
 viewBox="0.00 0.00 237.00 140.00" xmlns="http://www.w3.org/2000/svg" xmlns:xlink="http://www.w3.org/1999/xlink">
<g id="graph0" class="graph" transform="scale(1 1) rotate(0) translate(4 136)">
<title>DiffusionFluxNLFormIntegrator.hpp</title>
<!-- Node1 -->
<g id="node1" class="node">
<title>Node1</title>
<g id="a_node1"><a xlink:title="inter&#45;diffusion integrator">
<polygon fill="#bfbfbf" stroke="black" points="13.5,-112.5 13.5,-131.5 215.5,-131.5 215.5,-112.5 13.5,-112.5"/>
<text text-anchor="middle" x="114.5" y="-119.5" font-family="serif" font-size="10.00">DiffusionFluxNLFormIntegrator.hpp</text>
</a>
</g>
</g>
<!-- Node2 -->
<g id="node2" class="node">
<title>Node2</title>
<g id="a_node2"><a xlink:href="MassDiffusionFluxNLFormIntegrator_8hpp.html" target="_top" xlink:title="Class dedicated to the VF of diffusion flux (gradient of chemical potential) used in mass balance equ...">
<polygon fill="none" stroke="black" points="0,-56.5 0,-75.5 229,-75.5 229,-56.5 0,-56.5"/>
<text text-anchor="middle" x="114.5" y="-63.5" font-family="serif" font-size="10.00">MassDiffusionFluxNLFormIntegrator.hpp</text>
</a>
</g>
</g>
<!-- Node1&#45;&gt;Node2 -->
<g id="edge1" class="edge">
<title>Node1&#45;&gt;Node2</title>
<path fill="none" stroke="midnightblue" d="M114.5,-101.8C114.5,-92.91 114.5,-82.78 114.5,-75.75"/>
<polygon fill="midnightblue" stroke="midnightblue" points="111,-102.08 114.5,-112.08 118,-102.08 111,-102.08"/>
</g>
<!-- Node3 -->
<g id="node3" class="node">
<title>Node3</title>
<g id="a_node3"><a xlink:href="ListIntegrators_8hpp.html" target="_top" xlink:title="List of header files contained in the Integrators directory.">
<polygon fill="none" stroke="black" points="56.5,-0.5 56.5,-19.5 172.5,-19.5 172.5,-0.5 56.5,-0.5"/>
<text text-anchor="middle" x="114.5" y="-7.5" font-family="serif" font-size="10.00">ListIntegrators.hpp</text>
</a>
</g>
</g>
<!-- Node2&#45;&gt;Node3 -->
<g id="edge2" class="edge">
<title>Node2&#45;&gt;Node3</title>
<path fill="none" stroke="midnightblue" d="M114.5,-45.8C114.5,-36.91 114.5,-26.78 114.5,-19.75"/>
<polygon fill="midnightblue" stroke="midnightblue" points="111,-46.08 114.5,-56.08 118,-46.08 111,-46.08"/>
</g>
</g>
</svg>
