<?xml version="1.0" encoding="UTF-8" standalone="no"?>
<!DOCTYPE svg PUBLIC "-//W3C//DTD SVG 1.1//EN"
 "http://www.w3.org/Graphics/SVG/1.1/DTD/svg11.dtd">
<!-- Generated by graphviz version 2.43.0 (0)
 -->
<!-- Title: DiffusionNLFormIntegrator.hpp Pages: 1 -->
<svg width="352pt" height="140pt"
 viewBox="0.00 0.00 352.00 140.00" xmlns="http://www.w3.org/2000/svg" xmlns:xlink="http://www.w3.org/1999/xlink">
<g id="graph0" class="graph" transform="scale(1 1) rotate(0) translate(4 136)">
<title>DiffusionNLFormIntegrator.hpp</title>
<!-- Node1 -->
<g id="node1" class="node">
<title>Node1</title>
<g id="a_node1"><a xlink:title="Nonlinear form integrator for diffusion&#45;type problems.">
<polygon fill="#bfbfbf" stroke="black" points="78,-112.5 78,-131.5 257,-131.5 257,-112.5 78,-112.5"/>
<text text-anchor="middle" x="167.5" y="-119.5" font-family="serif" font-size="10.00">DiffusionNLFormIntegrator.hpp</text>
</a>
</g>
</g>
<!-- Node2 -->
<g id="node2" class="node">
<title>Node2</title>
<g id="a_node2"><a xlink:href="FickNLFormIntegrator_8hpp.html" target="_top" xlink:title="FV for the mass diffusion equation.">
<polygon fill="none" stroke="black" points="0,-56.5 0,-75.5 155,-75.5 155,-56.5 0,-56.5"/>
<text text-anchor="middle" x="77.5" y="-63.5" font-family="serif" font-size="10.00">FickNLFormIntegrator.hpp</text>
</a>
</g>
</g>
<!-- Node1&#45;&gt;Node2 -->
<g id="edge1" class="edge">
<title>Node1&#45;&gt;Node2</title>
<path fill="none" stroke="midnightblue" d="M144.46,-107.18C127.9,-97.24 106.08,-84.15 91.92,-75.65"/>
<polygon fill="midnightblue" stroke="midnightblue" points="142.66,-110.18 153.04,-112.32 146.27,-104.18 142.66,-110.18"/>
</g>
<!-- Node4 -->
<g id="node4" class="node">
<title>Node4</title>
<g id="a_node4"><a xlink:href="FourierNLFormIntegrator_8hpp.html" target="_top" xlink:title="FV for the heat transfer equation.">
<polygon fill="none" stroke="black" points="173,-56.5 173,-75.5 344,-75.5 344,-56.5 173,-56.5"/>
<text text-anchor="middle" x="258.5" y="-63.5" font-family="serif" font-size="10.00">FourierNLFormIntegrator.hpp</text>
</a>
</g>
</g>
<!-- Node1&#45;&gt;Node4 -->
<g id="edge3" class="edge">
<title>Node1&#45;&gt;Node4</title>
<path fill="none" stroke="midnightblue" d="M190.79,-107.18C207.54,-97.24 229.6,-84.15 243.92,-75.65"/>
<polygon fill="midnightblue" stroke="midnightblue" points="188.93,-104.21 182.12,-112.32 192.51,-110.23 188.93,-104.21"/>
</g>
<!-- Node3 -->
<g id="node3" class="node">
<title>Node3</title>
<g id="a_node3"><a xlink:href="ListIntegrators_8hpp.html" target="_top" xlink:title="List of header files contained in the Integrators directory.">
<polygon fill="none" stroke="black" points="109.5,-0.5 109.5,-19.5 225.5,-19.5 225.5,-0.5 109.5,-0.5"/>
<text text-anchor="middle" x="167.5" y="-7.5" font-family="serif" font-size="10.00">ListIntegrators.hpp</text>
</a>
</g>
</g>
<!-- Node2&#45;&gt;Node3 -->
<g id="edge2" class="edge">
<title>Node2&#45;&gt;Node3</title>
<path fill="none" stroke="midnightblue" d="M100.54,-51.18C117.1,-41.24 138.92,-28.15 153.08,-19.65"/>
<polygon fill="midnightblue" stroke="midnightblue" points="98.73,-48.18 91.96,-56.32 102.34,-54.18 98.73,-48.18"/>
</g>
<!-- Node4&#45;&gt;Node3 -->
<g id="edge4" class="edge">
<title>Node4&#45;&gt;Node3</title>
<path fill="none" stroke="midnightblue" d="M235.21,-51.18C218.46,-41.24 196.4,-28.15 182.08,-19.65"/>
<polygon fill="midnightblue" stroke="midnightblue" points="233.49,-54.23 243.88,-56.32 237.07,-48.21 233.49,-54.23"/>
</g>
</g>
</svg>
