<?xml version="1.0" encoding="UTF-8" standalone="no"?>
<!DOCTYPE svg PUBLIC "-//W3C//DTD SVG 1.1//EN"
 "http://www.w3.org/Graphics/SVG/1.1/DTD/svg11.dtd">
<!-- Generated by graphviz version 2.43.0 (0)
 -->
<!-- Title: Couplings Pages: 1 -->
<svg width="108pt" height="167pt"
 viewBox="0.00 0.00 108.00 167.00" xmlns="http://www.w3.org/2000/svg" xmlns:xlink="http://www.w3.org/1999/xlink">
<g id="graph0" class="graph" transform="scale(1 1) rotate(0) translate(4 163)">
<title>Couplings</title>
<g id="clust1" class="cluster">
<title>clusterdir_009f605b833ac4622acd6c3c0c26c0f0</title>
<g id="a_clust1"><a xlink:href="dir_009f605b833ac4622acd6c3c0c26c0f0.html" target="_top" xlink:title="include">
<polygon fill="#ddddee" stroke="black" points="8,-8 8,-151 92,-151 92,-8 8,-8"/>
<text text-anchor="middle" x="50" y="-139" font-family="serif" font-size="10.00">include</text>
</a>
</g>
</g>
<!-- dir_97cd71bc012adc9145264269177778ae -->
<g id="node1" class="node">
<title>dir_97cd71bc012adc9145264269177778ae</title>
<g id="a_node1"><a xlink:href="dir_97cd71bc012adc9145264269177778ae.html" target="_top" xlink:title="Utils">
<polygon fill="none" stroke="black" points="77,-52 23,-52 23,-16 77,-16 77,-52"/>
<text text-anchor="middle" x="50" y="-31.5" font-family="serif" font-size="10.00">Utils</text>
</a>
</g>
</g>
<!-- dir_6a0e15dd18d578a57902bf4501958f48 -->
<g id="node2" class="node">
<title>dir_6a0e15dd18d578a57902bf4501958f48</title>
<g id="a_node2"><a xlink:href="dir_6a0e15dd18d578a57902bf4501958f48.html" target="_top" xlink:title="Couplings">
<polygon fill="#eeeeff" stroke="black" points="84,-124 16,-124 16,-88 84,-88 84,-124"/>
<text text-anchor="middle" x="50" y="-103.5" font-family="serif" font-size="10.00">Couplings</text>
</a>
</g>
</g>
<!-- dir_6a0e15dd18d578a57902bf4501958f48&#45;&gt;dir_97cd71bc012adc9145264269177778ae -->
<g id="edge1" class="edge">
<title>dir_6a0e15dd18d578a57902bf4501958f48&#45;&gt;dir_97cd71bc012adc9145264269177778ae</title>
<path fill="none" stroke="black" d="M50,-87.7C50,-79.98 50,-70.71 50,-62.11"/>
<polygon fill="black" stroke="black" points="53.5,-62.1 50,-52.1 46.5,-62.1 53.5,-62.1"/>
<g id="a_edge1&#45;headlabel"><a xlink:href="dir_000015_000030.html" target="_top" xlink:title="1">
<text text-anchor="middle" x="56.34" y="-63.2" font-family="serif" font-size="10.00">1</text>
</a>
</g>
</g>
</g>
</svg>
