<?xml version="1.0" encoding="UTF-8" standalone="no"?>
<!DOCTYPE svg PUBLIC "-//W3C//DTD SVG 1.1//EN"
 "http://www.w3.org/Graphics/SVG/1.1/DTD/svg11.dtd">
<!-- Generated by graphviz version 2.43.0 (0)
 -->
<!-- Title: Coefficients Pages: 1 -->
<svg width="116pt" height="151pt"
 viewBox="0.00 0.00 116.00 151.00" xmlns="http://www.w3.org/2000/svg" xmlns:xlink="http://www.w3.org/1999/xlink">
<g id="graph0" class="graph" transform="scale(1 1) rotate(0) translate(4 147)">
<title>Coefficients</title>
<g id="clust1" class="cluster">
<title>clusterdir_3dd30a497388ee684638f120a124721c</title>
<g id="a_clust1"><a xlink:href="dir_3dd30a497388ee684638f120a124721c.html" target="_top" xlink:title="src">
<polygon fill="#ddddee" stroke="black" points="8,-64 8,-135 100,-135 100,-64 8,-64"/>
<text text-anchor="middle" x="54" y="-123" font-family="serif" font-size="10.00">src</text>
</a>
</g>
</g>
<!-- dir_8a42496a073d17392e87943d742b62eb -->
<g id="node1" class="node">
<title>dir_8a42496a073d17392e87943d742b62eb</title>
<g id="a_node1"><a xlink:href="dir_8a42496a073d17392e87943d742b62eb.html" target="_top" xlink:title="Coefficients">
<polygon fill="#eeeeff" stroke="black" points="92,-108 16,-108 16,-72 92,-72 92,-108"/>
<text text-anchor="middle" x="54" y="-87.5" font-family="serif" font-size="10.00">Coefficients</text>
</a>
</g>
</g>
<!-- dir_009f605b833ac4622acd6c3c0c26c0f0 -->
<g id="node2" class="node">
<title>dir_009f605b833ac4622acd6c3c0c26c0f0</title>
<g id="a_node2"><a xlink:href="dir_009f605b833ac4622acd6c3c0c26c0f0.html" target="_top" xlink:title="include">
<polygon fill="none" stroke="red" points="81,-36 27,-36 27,0 81,0 81,-36"/>
<text text-anchor="middle" x="54" y="-15.5" font-family="serif" font-size="10.00">include</text>
</a>
</g>
</g>
<!-- dir_8a42496a073d17392e87943d742b62eb&#45;&gt;dir_009f605b833ac4622acd6c3c0c26c0f0 -->
<g id="edge1" class="edge">
<title>dir_8a42496a073d17392e87943d742b62eb&#45;&gt;dir_009f605b833ac4622acd6c3c0c26c0f0</title>
<path fill="none" stroke="black" d="M54,-71.7C54,-63.98 54,-54.71 54,-46.11"/>
<polygon fill="black" stroke="black" points="57.5,-46.1 54,-36.1 50.5,-46.1 57.5,-46.1"/>
<g id="a_edge1&#45;headlabel"><a xlink:href="dir_000011_000001.html" target="_top" xlink:title="25">
<text text-anchor="middle" x="60.34" y="-47.2" font-family="serif" font-size="10.00">25</text>
</a>
</g>
</g>
</g>
</svg>
