<?xml version="1.0" encoding="UTF-8" standalone="no"?>
<!DOCTYPE svg PUBLIC "-//W3C//DTD SVG 1.1//EN"
 "http://www.w3.org/Graphics/SVG/1.1/DTD/svg11.dtd">
<!-- Generated by graphviz version 2.43.0 (0)
 -->
<!-- Title: Problems Pages: 1 -->
<svg width="373pt" height="239pt"
 viewBox="0.00 0.00 373.00 239.00" xmlns="http://www.w3.org/2000/svg" xmlns:xlink="http://www.w3.org/1999/xlink">
<g id="graph0" class="graph" transform="scale(1 1) rotate(0) translate(4 235)">
<title>Problems</title>
<g id="clust1" class="cluster">
<title>clusterdir_009f605b833ac4622acd6c3c0c26c0f0</title>
<g id="a_clust1"><a xlink:href="dir_009f605b833ac4622acd6c3c0c26c0f0.html" target="_top" xlink:title="include">
<polygon fill="#ddddee" stroke="black" points="8,-8 8,-223 357,-223 357,-8 8,-8"/>
<text text-anchor="middle" x="182.5" y="-211" font-family="serif" font-size="10.00">include</text>
</a>
</g>
</g>
<!-- dir_7b434ec32f216829926927df16f0381b -->
<g id="node1" class="node">
<title>dir_7b434ec32f216829926927df16f0381b</title>
<g id="a_node1"><a xlink:href="dir_7b434ec32f216829926927df16f0381b.html" target="_top" xlink:title="Calphad">
<polygon fill="none" stroke="black" points="206.5,-124 147.5,-124 147.5,-88 206.5,-88 206.5,-124"/>
<text text-anchor="middle" x="177" y="-103.5" font-family="serif" font-size="10.00">Calphad</text>
</a>
</g>
</g>
<!-- dir_91c9bd6d2116d1df73605922efc3dea0 -->
<g id="node2" class="node">
<title>dir_91c9bd6d2116d1df73605922efc3dea0</title>
<g id="a_node2"><a xlink:href="dir_91c9bd6d2116d1df73605922efc3dea0.html" target="_top" xlink:title="Parameters">
<polygon fill="none" stroke="black" points="120,-52 46,-52 46,-16 120,-16 120,-52"/>
<text text-anchor="middle" x="83" y="-31.5" font-family="serif" font-size="10.00">Parameters</text>
</a>
</g>
</g>
<!-- dir_7b434ec32f216829926927df16f0381b&#45;&gt;dir_91c9bd6d2116d1df73605922efc3dea0 -->
<g id="edge9" class="edge">
<title>dir_7b434ec32f216829926927df16f0381b&#45;&gt;dir_91c9bd6d2116d1df73605922efc3dea0</title>
<path fill="none" stroke="black" d="M153.76,-87.7C141.81,-78.8 127.08,-67.82 114.15,-58.2"/>
<polygon fill="black" stroke="black" points="116.08,-55.27 105.97,-52.1 111.9,-60.88 116.08,-55.27"/>
<g id="a_edge9&#45;headlabel"><a xlink:href="dir_000007_000023.html" target="_top" xlink:title="8">
<text text-anchor="middle" x="120.66" y="-52.64" font-family="serif" font-size="10.00">8</text>
</a>
</g>
</g>
<!-- dir_eb1bcaaac1032b67f9df3118ac8c5353 -->
<g id="node6" class="node">
<title>dir_eb1bcaaac1032b67f9df3118ac8c5353</title>
<g id="a_node6"><a xlink:href="dir_eb1bcaaac1032b67f9df3118ac8c5353.html" target="_top" xlink:title="Coefficients">
<polygon fill="none" stroke="black" points="335,-52 259,-52 259,-16 335,-16 335,-52"/>
<text text-anchor="middle" x="297" y="-31.5" font-family="serif" font-size="10.00">Coefficients</text>
</a>
</g>
</g>
<!-- dir_7b434ec32f216829926927df16f0381b&#45;&gt;dir_eb1bcaaac1032b67f9df3118ac8c5353 -->
<g id="edge10" class="edge">
<title>dir_7b434ec32f216829926927df16f0381b&#45;&gt;dir_eb1bcaaac1032b67f9df3118ac8c5353</title>
<path fill="none" stroke="black" d="M206.36,-87.88C222.05,-78.72 241.56,-67.34 258.45,-57.48"/>
<polygon fill="black" stroke="black" points="260.66,-60.25 267.53,-52.19 257.13,-54.21 260.66,-60.25"/>
<g id="a_edge10&#45;headlabel"><a xlink:href="dir_000007_000012.html" target="_top" xlink:title="3">
<text text-anchor="middle" x="258.98" y="-62.02" font-family="serif" font-size="10.00">3</text>
</a>
</g>
</g>
<!-- dir_c032d959549aafe62efcbd448707d983 -->
<g id="node3" class="node">
<title>dir_c032d959549aafe62efcbd448707d983</title>
<g id="a_node3"><a xlink:href="dir_c032d959549aafe62efcbd448707d983.html" target="_top" xlink:title="Variables">
<polygon fill="none" stroke="black" points="227.5,-52 164.5,-52 164.5,-16 227.5,-16 227.5,-52"/>
<text text-anchor="middle" x="196" y="-31.5" font-family="serif" font-size="10.00">Variables</text>
</a>
</g>
</g>
<!-- dir_d1fdbacf2952101c0cb04843585fddf6 -->
<g id="node4" class="node">
<title>dir_d1fdbacf2952101c0cb04843585fddf6</title>
<g id="a_node4"><a xlink:href="dir_d1fdbacf2952101c0cb04843585fddf6.html" target="_top" xlink:title="PostProcessing">
<polygon fill="none" stroke="black" points="129.5,-124 36.5,-124 36.5,-88 129.5,-88 129.5,-124"/>
<text text-anchor="middle" x="83" y="-103.5" font-family="serif" font-size="10.00">PostProcessing</text>
</a>
</g>
</g>
<!-- dir_d1fdbacf2952101c0cb04843585fddf6&#45;&gt;dir_91c9bd6d2116d1df73605922efc3dea0 -->
<g id="edge1" class="edge">
<title>dir_d1fdbacf2952101c0cb04843585fddf6&#45;&gt;dir_91c9bd6d2116d1df73605922efc3dea0</title>
<path fill="none" stroke="black" d="M83,-87.7C83,-79.98 83,-70.71 83,-62.11"/>
<polygon fill="black" stroke="black" points="86.5,-62.1 83,-52.1 79.5,-62.1 86.5,-62.1"/>
<g id="a_edge1&#45;headlabel"><a xlink:href="dir_000024_000023.html" target="_top" xlink:title="1">
<text text-anchor="middle" x="89.34" y="-63.2" font-family="serif" font-size="10.00">1</text>
</a>
</g>
</g>
<!-- dir_d1fdbacf2952101c0cb04843585fddf6&#45;&gt;dir_c032d959549aafe62efcbd448707d983 -->
<g id="edge2" class="edge">
<title>dir_d1fdbacf2952101c0cb04843585fddf6&#45;&gt;dir_c032d959549aafe62efcbd448707d983</title>
<path fill="none" stroke="black" d="M110.64,-87.88C125.42,-78.72 143.79,-67.34 159.7,-57.48"/>
<polygon fill="black" stroke="black" points="161.59,-60.43 168.25,-52.19 157.91,-54.48 161.59,-60.43"/>
<g id="a_edge2&#45;headlabel"><a xlink:href="dir_000024_000032.html" target="_top" xlink:title="2">
<text text-anchor="middle" x="160.03" y="-62.24" font-family="serif" font-size="10.00">2</text>
</a>
</g>
</g>
<!-- dir_e413f75bec04976993afadedd8ad09f5 -->
<g id="node5" class="node">
<title>dir_e413f75bec04976993afadedd8ad09f5</title>
<g id="a_node5"><a xlink:href="dir_e413f75bec04976993afadedd8ad09f5.html" target="_top" xlink:title="Convergence">
<polygon fill="none" stroke="black" points="329,-124 245,-124 245,-88 329,-88 329,-124"/>
<text text-anchor="middle" x="287" y="-103.5" font-family="serif" font-size="10.00">Convergence</text>
</a>
</g>
</g>
<!-- dir_965ceb73a91008e75bf87a86c0811e42 -->
<g id="node7" class="node">
<title>dir_965ceb73a91008e75bf87a86c0811e42</title>
<g id="a_node7"><a xlink:href="dir_965ceb73a91008e75bf87a86c0811e42.html" target="_top" xlink:title="Problems">
<polygon fill="#eeeeff" stroke="black" points="233.5,-196 168.5,-196 168.5,-160 233.5,-160 233.5,-196"/>
<text text-anchor="middle" x="201" y="-175.5" font-family="serif" font-size="10.00">Problems</text>
</a>
</g>
</g>
<!-- dir_965ceb73a91008e75bf87a86c0811e42&#45;&gt;dir_7b434ec32f216829926927df16f0381b -->
<g id="edge3" class="edge">
<title>dir_965ceb73a91008e75bf87a86c0811e42&#45;&gt;dir_7b434ec32f216829926927df16f0381b</title>
<path fill="none" stroke="black" d="M195.07,-159.7C192.39,-151.9 189.17,-142.51 186.2,-133.83"/>
<polygon fill="black" stroke="black" points="189.42,-132.43 182.86,-124.1 182.8,-134.7 189.42,-132.43"/>
<g id="a_edge3&#45;headlabel"><a xlink:href="dir_000010_000007.html" target="_top" xlink:title="1">
<text text-anchor="middle" x="193.27" y="-132.41" font-family="serif" font-size="10.00">1</text>
</a>
</g>
</g>
<!-- dir_965ceb73a91008e75bf87a86c0811e42&#45;&gt;dir_91c9bd6d2116d1df73605922efc3dea0 -->
<g id="edge4" class="edge">
<title>dir_965ceb73a91008e75bf87a86c0811e42&#45;&gt;dir_91c9bd6d2116d1df73605922efc3dea0</title>
<path fill="none" stroke="black" d="M168.43,-177.68C127.96,-176.54 60.31,-167.69 28,-124 12.39,-102.89 31.94,-77.25 51.92,-58.92"/>
<polygon fill="black" stroke="black" points="54.3,-61.49 59.53,-52.28 49.69,-56.22 54.3,-61.49"/>
<g id="a_edge4&#45;headlabel"><a xlink:href="dir_000010_000023.html" target="_top" xlink:title="5">
<text text-anchor="middle" x="53.46" y="-63.49" font-family="serif" font-size="10.00">5</text>
</a>
</g>
</g>
<!-- dir_965ceb73a91008e75bf87a86c0811e42&#45;&gt;dir_c032d959549aafe62efcbd448707d983 -->
<g id="edge5" class="edge">
<title>dir_965ceb73a91008e75bf87a86c0811e42&#45;&gt;dir_c032d959549aafe62efcbd448707d983</title>
<path fill="none" stroke="black" d="M207.42,-159.91C213.34,-141.98 220.55,-112.97 216,-88 214.39,-79.2 211.4,-69.95 208.21,-61.7"/>
<polygon fill="black" stroke="black" points="211.35,-60.12 204.31,-52.21 204.88,-62.79 211.35,-60.12"/>
<g id="a_edge5&#45;headlabel"><a xlink:href="dir_000010_000032.html" target="_top" xlink:title="3">
<text text-anchor="middle" x="215.35" y="-59.87" font-family="serif" font-size="10.00">3</text>
</a>
</g>
</g>
<!-- dir_965ceb73a91008e75bf87a86c0811e42&#45;&gt;dir_d1fdbacf2952101c0cb04843585fddf6 -->
<g id="edge6" class="edge">
<title>dir_965ceb73a91008e75bf87a86c0811e42&#45;&gt;dir_d1fdbacf2952101c0cb04843585fddf6</title>
<path fill="none" stroke="black" d="M172.13,-159.88C156.71,-150.72 137.52,-139.34 120.9,-129.48"/>
<polygon fill="black" stroke="black" points="122.36,-126.28 111.98,-124.19 118.79,-132.3 122.36,-126.28"/>
<g id="a_edge6&#45;headlabel"><a xlink:href="dir_000010_000024.html" target="_top" xlink:title="3">
<text text-anchor="middle" x="126.9" y="-123.17" font-family="serif" font-size="10.00">3</text>
</a>
</g>
</g>
<!-- dir_965ceb73a91008e75bf87a86c0811e42&#45;&gt;dir_e413f75bec04976993afadedd8ad09f5 -->
<g id="edge7" class="edge">
<title>dir_965ceb73a91008e75bf87a86c0811e42&#45;&gt;dir_e413f75bec04976993afadedd8ad09f5</title>
<path fill="none" stroke="black" d="M222.26,-159.7C233.09,-150.88 246.42,-140.03 258.16,-130.47"/>
<polygon fill="black" stroke="black" points="260.44,-133.13 265.99,-124.1 256.02,-127.7 260.44,-133.13"/>
<g id="a_edge7&#45;headlabel"><a xlink:href="dir_000010_000014.html" target="_top" xlink:title="7">
<text text-anchor="middle" x="259.44" y="-135.1" font-family="serif" font-size="10.00">7</text>
</a>
</g>
</g>
<!-- dir_965ceb73a91008e75bf87a86c0811e42&#45;&gt;dir_eb1bcaaac1032b67f9df3118ac8c5353 -->
<g id="edge8" class="edge">
<title>dir_965ceb73a91008e75bf87a86c0811e42&#45;&gt;dir_eb1bcaaac1032b67f9df3118ac8c5353</title>
<path fill="none" stroke="black" d="M233.7,-174.55C266.29,-170.18 314.72,-157.97 338,-124 351.74,-103.95 337.38,-78.56 322,-60.04"/>
<polygon fill="black" stroke="black" points="324.42,-57.5 315.19,-52.3 319.17,-62.12 324.42,-57.5"/>
<g id="a_edge8&#45;headlabel"><a xlink:href="dir_000010_000012.html" target="_top" xlink:title="1">
<text text-anchor="middle" x="328.93" y="-55.82" font-family="serif" font-size="10.00">1</text>
</a>
</g>
</g>
</g>
</svg>
