<?xml version="1.0" encoding="UTF-8" standalone="no"?>
<!DOCTYPE svg PUBLIC "-//W3C//DTD SVG 1.1//EN"
 "http://www.w3.org/Graphics/SVG/1.1/DTD/svg11.dtd">
<!-- Generated by graphviz version 2.43.0 (0)
 -->
<!-- Title: Options Pages: 1 -->
<svg width="96pt" height="151pt"
 viewBox="0.00 0.00 96.00 151.00" xmlns="http://www.w3.org/2000/svg" xmlns:xlink="http://www.w3.org/1999/xlink">
<g id="graph0" class="graph" transform="scale(1 1) rotate(0) translate(4 147)">
<title>Options</title>
<g id="clust1" class="cluster">
<title>clusterdir_3dd30a497388ee684638f120a124721c</title>
<g id="a_clust1"><a xlink:href="dir_3dd30a497388ee684638f120a124721c.html" target="_top" xlink:title="src">
<polygon fill="#ddddee" stroke="black" points="8,-64 8,-135 80,-135 80,-64 8,-64"/>
<text text-anchor="middle" x="44" y="-123" font-family="serif" font-size="10.00">src</text>
</a>
</g>
</g>
<!-- dir_83dd5854fc335ec3e5105b5fca62266a -->
<g id="node1" class="node">
<title>dir_83dd5854fc335ec3e5105b5fca62266a</title>
<g id="a_node1"><a xlink:href="dir_83dd5854fc335ec3e5105b5fca62266a.html" target="_top" xlink:title="Options">
<polygon fill="#eeeeff" stroke="black" points="72,-108 16,-108 16,-72 72,-72 72,-108"/>
<text text-anchor="middle" x="44" y="-87.5" font-family="serif" font-size="10.00">Options</text>
</a>
</g>
</g>
<!-- dir_009f605b833ac4622acd6c3c0c26c0f0 -->
<g id="node2" class="node">
<title>dir_009f605b833ac4622acd6c3c0c26c0f0</title>
<g id="a_node2"><a xlink:href="dir_009f605b833ac4622acd6c3c0c26c0f0.html" target="_top" xlink:title="include">
<polygon fill="none" stroke="red" points="71,-36 17,-36 17,0 71,0 71,-36"/>
<text text-anchor="middle" x="44" y="-15.5" font-family="serif" font-size="10.00">include</text>
</a>
</g>
</g>
<!-- dir_83dd5854fc335ec3e5105b5fca62266a&#45;&gt;dir_009f605b833ac4622acd6c3c0c26c0f0 -->
<g id="edge1" class="edge">
<title>dir_83dd5854fc335ec3e5105b5fca62266a&#45;&gt;dir_009f605b833ac4622acd6c3c0c26c0f0</title>
<path fill="none" stroke="black" d="M44,-71.7C44,-63.98 44,-54.71 44,-46.11"/>
<polygon fill="black" stroke="black" points="47.5,-46.1 44,-36.1 40.5,-46.1 47.5,-46.1"/>
<g id="a_edge1&#45;headlabel"><a xlink:href="dir_000004_000001.html" target="_top" xlink:title="12">
<text text-anchor="middle" x="50.34" y="-47.2" font-family="serif" font-size="10.00">12</text>
</a>
</g>
</g>
</g>
</svg>
