<?xml version="1.0" encoding="UTF-8" standalone="no"?>
<!DOCTYPE svg PUBLIC "-//W3C//DTD SVG 1.1//EN"
 "http://www.w3.org/Graphics/SVG/1.1/DTD/svg11.dtd">
<!-- Generated by graphviz version 2.43.0 (0)
 -->
<!-- Title: PostProcessing Pages: 1 -->
<svg width="236pt" height="311pt"
 viewBox="0.00 0.00 236.00 311.00" xmlns="http://www.w3.org/2000/svg" xmlns:xlink="http://www.w3.org/1999/xlink">
<g id="graph0" class="graph" transform="scale(1 1) rotate(0) translate(4 307)">
<title>PostProcessing</title>
<g id="clust1" class="cluster">
<title>clusterdir_009f605b833ac4622acd6c3c0c26c0f0</title>
<g id="a_clust1"><a xlink:href="dir_009f605b833ac4622acd6c3c0c26c0f0.html" target="_top" xlink:title="include">
<polygon fill="#ddddee" stroke="black" points="8,-8 8,-295 220,-295 220,-8 8,-8"/>
<text text-anchor="middle" x="114" y="-283" font-family="serif" font-size="10.00">include</text>
</a>
</g>
</g>
<!-- dir_5df7af9f6474348e88015f5803315ff2 -->
<g id="node1" class="node">
<title>dir_5df7af9f6474348e88015f5803315ff2</title>
<g id="a_node1"><a xlink:href="dir_5df7af9f6474348e88015f5803315ff2.html" target="_top" xlink:title="Spatial">
<polygon fill="none" stroke="black" points="153,-124 99,-124 99,-88 153,-88 153,-124"/>
<text text-anchor="middle" x="126" y="-103.5" font-family="serif" font-size="10.00">Spatial</text>
</a>
</g>
</g>
<!-- dir_97cd71bc012adc9145264269177778ae -->
<g id="node3" class="node">
<title>dir_97cd71bc012adc9145264269177778ae</title>
<g id="a_node3"><a xlink:href="dir_97cd71bc012adc9145264269177778ae.html" target="_top" xlink:title="Utils">
<polygon fill="none" stroke="black" points="199,-52 145,-52 145,-16 199,-16 199,-52"/>
<text text-anchor="middle" x="172" y="-31.5" font-family="serif" font-size="10.00">Utils</text>
</a>
</g>
</g>
<!-- dir_5df7af9f6474348e88015f5803315ff2&#45;&gt;dir_97cd71bc012adc9145264269177778ae -->
<g id="edge7" class="edge">
<title>dir_5df7af9f6474348e88015f5803315ff2&#45;&gt;dir_97cd71bc012adc9145264269177778ae</title>
<path fill="none" stroke="black" d="M137.37,-87.7C142.72,-79.56 149.2,-69.69 155.11,-60.7"/>
<polygon fill="black" stroke="black" points="158.19,-62.38 160.76,-52.1 152.34,-58.54 158.19,-62.38"/>
<g id="a_edge7&#45;headlabel"><a xlink:href="dir_000028_000030.html" target="_top" xlink:title="1">
<text text-anchor="middle" x="158.59" y="-64.45" font-family="serif" font-size="10.00">1</text>
</a>
</g>
</g>
<!-- dir_91c9bd6d2116d1df73605922efc3dea0 -->
<g id="node2" class="node">
<title>dir_91c9bd6d2116d1df73605922efc3dea0</title>
<g id="a_node2"><a xlink:href="dir_91c9bd6d2116d1df73605922efc3dea0.html" target="_top" xlink:title="Parameters">
<polygon fill="none" stroke="black" points="110,-196 36,-196 36,-160 110,-160 110,-196"/>
<text text-anchor="middle" x="73" y="-175.5" font-family="serif" font-size="10.00">Parameters</text>
</a>
</g>
</g>
<!-- dir_c032d959549aafe62efcbd448707d983 -->
<g id="node4" class="node">
<title>dir_c032d959549aafe62efcbd448707d983</title>
<g id="a_node4"><a xlink:href="dir_c032d959549aafe62efcbd448707d983.html" target="_top" xlink:title="Variables">
<polygon fill="none" stroke="black" points="191.5,-196 128.5,-196 128.5,-160 191.5,-160 191.5,-196"/>
<text text-anchor="middle" x="160" y="-175.5" font-family="serif" font-size="10.00">Variables</text>
</a>
</g>
</g>
<!-- dir_c032d959549aafe62efcbd448707d983&#45;&gt;dir_5df7af9f6474348e88015f5803315ff2 -->
<g id="edge1" class="edge">
<title>dir_c032d959549aafe62efcbd448707d983&#45;&gt;dir_5df7af9f6474348e88015f5803315ff2</title>
<path fill="none" stroke="black" d="M151.6,-159.7C147.73,-151.73 143.05,-142.1 138.76,-133.26"/>
<polygon fill="black" stroke="black" points="141.83,-131.57 134.31,-124.1 135.53,-134.63 141.83,-131.57"/>
<g id="a_edge1&#45;headlabel"><a xlink:href="dir_000032_000028.html" target="_top" xlink:title="1">
<text text-anchor="middle" x="145.95" y="-131.06" font-family="serif" font-size="10.00">1</text>
</a>
</g>
</g>
<!-- dir_c032d959549aafe62efcbd448707d983&#45;&gt;dir_97cd71bc012adc9145264269177778ae -->
<g id="edge2" class="edge">
<title>dir_c032d959549aafe62efcbd448707d983&#45;&gt;dir_97cd71bc012adc9145264269177778ae</title>
<path fill="none" stroke="black" d="M161.45,-159.87C163.49,-135.67 167.25,-91.21 169.69,-62.39"/>
<polygon fill="black" stroke="black" points="173.19,-62.45 170.55,-52.19 166.22,-61.86 173.19,-62.45"/>
<g id="a_edge2&#45;headlabel"><a xlink:href="dir_000032_000030.html" target="_top" xlink:title="1">
<text text-anchor="middle" x="175.72" y="-63.77" font-family="serif" font-size="10.00">1</text>
</a>
</g>
</g>
<!-- dir_d1fdbacf2952101c0cb04843585fddf6 -->
<g id="node5" class="node">
<title>dir_d1fdbacf2952101c0cb04843585fddf6</title>
<g id="a_node5"><a xlink:href="dir_d1fdbacf2952101c0cb04843585fddf6.html" target="_top" xlink:title="PostProcessing">
<polygon fill="#eeeeff" stroke="black" points="162.5,-268 69.5,-268 69.5,-232 162.5,-232 162.5,-268"/>
<text text-anchor="middle" x="116" y="-247.5" font-family="serif" font-size="10.00">PostProcessing</text>
</a>
</g>
</g>
<!-- dir_d1fdbacf2952101c0cb04843585fddf6&#45;&gt;dir_5df7af9f6474348e88015f5803315ff2 -->
<g id="edge3" class="edge">
<title>dir_d1fdbacf2952101c0cb04843585fddf6&#45;&gt;dir_5df7af9f6474348e88015f5803315ff2</title>
<path fill="none" stroke="black" d="M69.37,-232.57C52.98,-224.28 36.33,-212.42 27,-196 19.09,-182.09 18.78,-173.73 27,-160 40.44,-137.56 66.98,-124.09 89.2,-116.34"/>
<polygon fill="black" stroke="black" points="90.28,-119.67 98.72,-113.27 88.13,-113.01 90.28,-119.67"/>
<g id="a_edge3&#45;headlabel"><a xlink:href="dir_000024_000028.html" target="_top" xlink:title="1">
<text text-anchor="middle" x="87.73" y="-120.98" font-family="serif" font-size="10.00">1</text>
</a>
</g>
</g>
<!-- dir_d1fdbacf2952101c0cb04843585fddf6&#45;&gt;dir_91c9bd6d2116d1df73605922efc3dea0 -->
<g id="edge4" class="edge">
<title>dir_d1fdbacf2952101c0cb04843585fddf6&#45;&gt;dir_91c9bd6d2116d1df73605922efc3dea0</title>
<path fill="none" stroke="black" d="M105.37,-231.7C100.37,-223.56 94.31,-213.69 88.79,-204.7"/>
<polygon fill="black" stroke="black" points="91.72,-202.79 83.51,-196.1 85.76,-206.46 91.72,-202.79"/>
<g id="a_edge4&#45;headlabel"><a xlink:href="dir_000024_000023.html" target="_top" xlink:title="1">
<text text-anchor="middle" x="96.02" y="-201.87" font-family="serif" font-size="10.00">1</text>
</a>
</g>
</g>
<!-- dir_d1fdbacf2952101c0cb04843585fddf6&#45;&gt;dir_97cd71bc012adc9145264269177778ae -->
<g id="edge5" class="edge">
<title>dir_d1fdbacf2952101c0cb04843585fddf6&#45;&gt;dir_97cd71bc012adc9145264269177778ae</title>
<path fill="none" stroke="black" d="M161.03,-231.86C176.55,-223.53 192.22,-211.81 201,-196 224.83,-153.06 203.23,-94.66 186.71,-61.29"/>
<polygon fill="black" stroke="black" points="189.7,-59.46 182.01,-52.18 183.48,-62.67 189.7,-59.46"/>
<g id="a_edge5&#45;headlabel"><a xlink:href="dir_000024_000030.html" target="_top" xlink:title="1">
<text text-anchor="middle" x="193.87" y="-58.86" font-family="serif" font-size="10.00">1</text>
</a>
</g>
</g>
<!-- dir_d1fdbacf2952101c0cb04843585fddf6&#45;&gt;dir_c032d959549aafe62efcbd448707d983 -->
<g id="edge6" class="edge">
<title>dir_d1fdbacf2952101c0cb04843585fddf6&#45;&gt;dir_c032d959549aafe62efcbd448707d983</title>
<path fill="none" stroke="black" d="M126.88,-231.7C131.99,-223.56 138.2,-213.69 143.84,-204.7"/>
<polygon fill="black" stroke="black" points="146.89,-206.43 149.25,-196.1 140.96,-202.71 146.89,-206.43"/>
<g id="a_edge6&#45;headlabel"><a xlink:href="dir_000024_000032.html" target="_top" xlink:title="2">
<text text-anchor="middle" x="147.38" y="-208.49" font-family="serif" font-size="10.00">2</text>
</a>
</g>
</g>
</g>
</svg>
