<?xml version="1.0" encoding="UTF-8" standalone="no"?>
<!DOCTYPE svg PUBLIC "-//W3C//DTD SVG 1.1//EN"
 "http://www.w3.org/Graphics/SVG/1.1/DTD/svg11.dtd">
<!-- Generated by graphviz version 2.43.0 (0)
 -->
<!-- Title: Convergence Pages: 1 -->
<svg width="124pt" height="151pt"
 viewBox="0.00 0.00 124.00 151.00" xmlns="http://www.w3.org/2000/svg" xmlns:xlink="http://www.w3.org/1999/xlink">
<g id="graph0" class="graph" transform="scale(1 1) rotate(0) translate(4 147)">
<title>Convergence</title>
<g id="clust1" class="cluster">
<title>clusterdir_3dd30a497388ee684638f120a124721c</title>
<g id="a_clust1"><a xlink:href="dir_3dd30a497388ee684638f120a124721c.html" target="_top" xlink:title="src">
<polygon fill="#ddddee" stroke="black" points="8,-64 8,-135 108,-135 108,-64 8,-64"/>
<text text-anchor="middle" x="58" y="-123" font-family="serif" font-size="10.00">src</text>
</a>
</g>
</g>
<!-- dir_9f289637254a65b252396b5ee3daef70 -->
<g id="node1" class="node">
<title>dir_9f289637254a65b252396b5ee3daef70</title>
<g id="a_node1"><a xlink:href="dir_9f289637254a65b252396b5ee3daef70.html" target="_top" xlink:title="Convergence">
<polygon fill="#eeeeff" stroke="black" points="100,-108 16,-108 16,-72 100,-72 100,-108"/>
<text text-anchor="middle" x="58" y="-87.5" font-family="serif" font-size="10.00">Convergence</text>
</a>
</g>
</g>
<!-- dir_009f605b833ac4622acd6c3c0c26c0f0 -->
<g id="node2" class="node">
<title>dir_009f605b833ac4622acd6c3c0c26c0f0</title>
<g id="a_node2"><a xlink:href="dir_009f605b833ac4622acd6c3c0c26c0f0.html" target="_top" xlink:title="include">
<polygon fill="none" stroke="red" points="85,-36 31,-36 31,0 85,0 85,-36"/>
<text text-anchor="middle" x="58" y="-15.5" font-family="serif" font-size="10.00">include</text>
</a>
</g>
</g>
<!-- dir_9f289637254a65b252396b5ee3daef70&#45;&gt;dir_009f605b833ac4622acd6c3c0c26c0f0 -->
<g id="edge1" class="edge">
<title>dir_9f289637254a65b252396b5ee3daef70&#45;&gt;dir_009f605b833ac4622acd6c3c0c26c0f0</title>
<path fill="none" stroke="black" d="M58,-71.7C58,-63.98 58,-54.71 58,-46.11"/>
<polygon fill="black" stroke="black" points="61.5,-46.1 58,-36.1 54.5,-46.1 61.5,-46.1"/>
<g id="a_edge1&#45;headlabel"><a xlink:href="dir_000013_000001.html" target="_top" xlink:title="3">
<text text-anchor="middle" x="64.34" y="-47.2" font-family="serif" font-size="10.00">3</text>
</a>
</g>
</g>
</g>
</svg>
