<?xml version="1.0" encoding="UTF-8" standalone="no"?>
<!DOCTYPE svg PUBLIC "-//W3C//DTD SVG 1.1//EN"
 "http://www.w3.org/Graphics/SVG/1.1/DTD/svg11.dtd">
<!-- Generated by graphviz version 2.43.0 (0)
 -->
<!-- Title: Solvers Pages: 1 -->
<svg width="154pt" height="311pt"
 viewBox="0.00 0.00 154.00 311.00" xmlns="http://www.w3.org/2000/svg" xmlns:xlink="http://www.w3.org/1999/xlink">
<g id="graph0" class="graph" transform="scale(1 1) rotate(0) translate(4 307)">
<title>Solvers</title>
<g id="clust1" class="cluster">
<title>clusterdir_009f605b833ac4622acd6c3c0c26c0f0</title>
<g id="a_clust1"><a xlink:href="dir_009f605b833ac4622acd6c3c0c26c0f0.html" target="_top" xlink:title="include">
<polygon fill="#ddddee" stroke="black" points="8,-8 8,-295 138,-295 138,-8 8,-8"/>
<text text-anchor="middle" x="73" y="-283" font-family="serif" font-size="10.00">include</text>
</a>
</g>
</g>
<!-- dir_891ea87c6e6d1f8e94fb23e54b4dc7cd -->
<g id="node1" class="node">
<title>dir_891ea87c6e6d1f8e94fb23e54b4dc7cd</title>
<g id="a_node1"><a xlink:href="dir_891ea87c6e6d1f8e94fb23e54b4dc7cd.html" target="_top" xlink:title="Options">
<polygon fill="none" stroke="black" points="101,-124 45,-124 45,-88 101,-88 101,-124"/>
<text text-anchor="middle" x="73" y="-103.5" font-family="serif" font-size="10.00">Options</text>
</a>
</g>
</g>
<!-- dir_97cd71bc012adc9145264269177778ae -->
<g id="node3" class="node">
<title>dir_97cd71bc012adc9145264269177778ae</title>
<g id="a_node3"><a xlink:href="dir_97cd71bc012adc9145264269177778ae.html" target="_top" xlink:title="Utils">
<polygon fill="none" stroke="black" points="115,-52 61,-52 61,-16 115,-16 115,-52"/>
<text text-anchor="middle" x="88" y="-31.5" font-family="serif" font-size="10.00">Utils</text>
</a>
</g>
</g>
<!-- dir_891ea87c6e6d1f8e94fb23e54b4dc7cd&#45;&gt;dir_97cd71bc012adc9145264269177778ae -->
<g id="edge5" class="edge">
<title>dir_891ea87c6e6d1f8e94fb23e54b4dc7cd&#45;&gt;dir_97cd71bc012adc9145264269177778ae</title>
<path fill="none" stroke="black" d="M76.71,-87.7C78.36,-79.98 80.35,-70.71 82.19,-62.11"/>
<polygon fill="black" stroke="black" points="85.66,-62.62 84.33,-52.1 78.82,-61.15 85.66,-62.62"/>
<g id="a_edge5&#45;headlabel"><a xlink:href="dir_000005_000030.html" target="_top" xlink:title="12">
<text text-anchor="middle" x="87.68" y="-64.23" font-family="serif" font-size="10.00">12</text>
</a>
</g>
</g>
<!-- dir_91c9bd6d2116d1df73605922efc3dea0 -->
<g id="node2" class="node">
<title>dir_91c9bd6d2116d1df73605922efc3dea0</title>
<g id="a_node2"><a xlink:href="dir_91c9bd6d2116d1df73605922efc3dea0.html" target="_top" xlink:title="Parameters">
<polygon fill="none" stroke="black" points="110,-196 36,-196 36,-160 110,-160 110,-196"/>
<text text-anchor="middle" x="73" y="-175.5" font-family="serif" font-size="10.00">Parameters</text>
</a>
</g>
</g>
<!-- dir_91c9bd6d2116d1df73605922efc3dea0&#45;&gt;dir_891ea87c6e6d1f8e94fb23e54b4dc7cd -->
<g id="edge4" class="edge">
<title>dir_91c9bd6d2116d1df73605922efc3dea0&#45;&gt;dir_891ea87c6e6d1f8e94fb23e54b4dc7cd</title>
<path fill="none" stroke="black" d="M73,-159.7C73,-151.98 73,-142.71 73,-134.11"/>
<polygon fill="black" stroke="black" points="76.5,-134.1 73,-124.1 69.5,-134.1 76.5,-134.1"/>
<g id="a_edge4&#45;headlabel"><a xlink:href="dir_000023_000005.html" target="_top" xlink:title="1">
<text text-anchor="middle" x="79.34" y="-135.2" font-family="serif" font-size="10.00">1</text>
</a>
</g>
</g>
<!-- dir_e75be19162f41df736fc69975279409b -->
<g id="node4" class="node">
<title>dir_e75be19162f41df736fc69975279409b</title>
<g id="a_node4"><a xlink:href="dir_e75be19162f41df736fc69975279409b.html" target="_top" xlink:title="Solvers">
<polygon fill="#eeeeff" stroke="black" points="100,-268 46,-268 46,-232 100,-232 100,-268"/>
<text text-anchor="middle" x="73" y="-247.5" font-family="serif" font-size="10.00">Solvers</text>
</a>
</g>
</g>
<!-- dir_e75be19162f41df736fc69975279409b&#45;&gt;dir_891ea87c6e6d1f8e94fb23e54b4dc7cd -->
<g id="edge1" class="edge">
<title>dir_e75be19162f41df736fc69975279409b&#45;&gt;dir_891ea87c6e6d1f8e94fb23e54b4dc7cd</title>
<path fill="none" stroke="black" d="M52.18,-231.62C42.54,-222.2 32.11,-209.7 27,-196 21.4,-181.01 21.4,-174.99 27,-160 30.88,-149.62 37.8,-139.93 45.12,-131.74"/>
<polygon fill="black" stroke="black" points="47.78,-134.03 52.18,-124.38 42.73,-129.18 47.78,-134.03"/>
<g id="a_edge1&#45;headlabel"><a xlink:href="dir_000017_000005.html" target="_top" xlink:title="10">
<text text-anchor="middle" x="47.35" y="-136.09" font-family="serif" font-size="10.00">10</text>
</a>
</g>
</g>
<!-- dir_e75be19162f41df736fc69975279409b&#45;&gt;dir_91c9bd6d2116d1df73605922efc3dea0 -->
<g id="edge2" class="edge">
<title>dir_e75be19162f41df736fc69975279409b&#45;&gt;dir_91c9bd6d2116d1df73605922efc3dea0</title>
<path fill="none" stroke="black" d="M73,-231.7C73,-223.98 73,-214.71 73,-206.11"/>
<polygon fill="black" stroke="black" points="76.5,-206.1 73,-196.1 69.5,-206.1 76.5,-206.1"/>
<g id="a_edge2&#45;headlabel"><a xlink:href="dir_000017_000023.html" target="_top" xlink:title="12">
<text text-anchor="middle" x="79.34" y="-207.2" font-family="serif" font-size="10.00">12</text>
</a>
</g>
</g>
<!-- dir_e75be19162f41df736fc69975279409b&#45;&gt;dir_97cd71bc012adc9145264269177778ae -->
<g id="edge3" class="edge">
<title>dir_e75be19162f41df736fc69975279409b&#45;&gt;dir_97cd71bc012adc9145264269177778ae</title>
<path fill="none" stroke="black" d="M93.82,-231.62C103.46,-222.2 113.89,-209.7 119,-196 135.97,-150.57 116.62,-94.3 101.78,-61.74"/>
<polygon fill="black" stroke="black" points="104.81,-59.97 97.36,-52.43 98.49,-62.97 104.81,-59.97"/>
<g id="a_edge3&#45;headlabel"><a xlink:href="dir_000017_000030.html" target="_top" xlink:title="10">
<text text-anchor="middle" x="108.92" y="-59.5" font-family="serif" font-size="10.00">10</text>
</a>
</g>
</g>
</g>
</svg>
