<?xml version="1.0" encoding="UTF-8" standalone="no"?>
<!DOCTYPE svg PUBLIC "-//W3C//DTD SVG 1.1//EN"
 "http://www.w3.org/Graphics/SVG/1.1/DTD/svg11.dtd">
<!-- Generated by graphviz version 2.43.0 (0)
 -->
<!-- Title: Integrators Pages: 1 -->
<svg width="248pt" height="311pt"
 viewBox="0.00 0.00 248.00 311.00" xmlns="http://www.w3.org/2000/svg" xmlns:xlink="http://www.w3.org/1999/xlink">
<g id="graph0" class="graph" transform="scale(1 1) rotate(0) translate(4 307)">
<title>Integrators</title>
<g id="clust1" class="cluster">
<title>clusterdir_009f605b833ac4622acd6c3c0c26c0f0</title>
<g id="a_clust1"><a xlink:href="dir_009f605b833ac4622acd6c3c0c26c0f0.html" target="_top" xlink:title="include">
<polygon fill="#ddddee" stroke="black" points="8,-8 8,-295 232,-295 232,-8 8,-8"/>
<text text-anchor="middle" x="120" y="-283" font-family="serif" font-size="10.00">include</text>
</a>
</g>
</g>
<!-- dir_891ea87c6e6d1f8e94fb23e54b4dc7cd -->
<g id="node1" class="node">
<title>dir_891ea87c6e6d1f8e94fb23e54b4dc7cd</title>
<g id="a_node1"><a xlink:href="dir_891ea87c6e6d1f8e94fb23e54b4dc7cd.html" target="_top" xlink:title="Options">
<polygon fill="none" stroke="black" points="132,-124 76,-124 76,-88 132,-88 132,-124"/>
<text text-anchor="middle" x="104" y="-103.5" font-family="serif" font-size="10.00">Options</text>
</a>
</g>
</g>
<!-- dir_97cd71bc012adc9145264269177778ae -->
<g id="node3" class="node">
<title>dir_97cd71bc012adc9145264269177778ae</title>
<g id="a_node3"><a xlink:href="dir_97cd71bc012adc9145264269177778ae.html" target="_top" xlink:title="Utils">
<polygon fill="none" stroke="black" points="193,-52 139,-52 139,-16 193,-16 193,-52"/>
<text text-anchor="middle" x="166" y="-31.5" font-family="serif" font-size="10.00">Utils</text>
</a>
</g>
</g>
<!-- dir_891ea87c6e6d1f8e94fb23e54b4dc7cd&#45;&gt;dir_97cd71bc012adc9145264269177778ae -->
<g id="edge7" class="edge">
<title>dir_891ea87c6e6d1f8e94fb23e54b4dc7cd&#45;&gt;dir_97cd71bc012adc9145264269177778ae</title>
<path fill="none" stroke="black" d="M119.33,-87.7C126.76,-79.3 135.82,-69.07 143.98,-59.86"/>
<polygon fill="black" stroke="black" points="146.84,-61.91 150.85,-52.1 141.6,-57.27 146.84,-61.91"/>
<g id="a_edge7&#45;headlabel"><a xlink:href="dir_000005_000030.html" target="_top" xlink:title="12">
<text text-anchor="middle" x="146.58" y="-63.98" font-family="serif" font-size="10.00">12</text>
</a>
</g>
</g>
<!-- dir_91c9bd6d2116d1df73605922efc3dea0 -->
<g id="node2" class="node">
<title>dir_91c9bd6d2116d1df73605922efc3dea0</title>
<g id="a_node2"><a xlink:href="dir_91c9bd6d2116d1df73605922efc3dea0.html" target="_top" xlink:title="Parameters">
<polygon fill="none" stroke="black" points="110,-196 36,-196 36,-160 110,-160 110,-196"/>
<text text-anchor="middle" x="73" y="-175.5" font-family="serif" font-size="10.00">Parameters</text>
</a>
</g>
</g>
<!-- dir_91c9bd6d2116d1df73605922efc3dea0&#45;&gt;dir_891ea87c6e6d1f8e94fb23e54b4dc7cd -->
<g id="edge2" class="edge">
<title>dir_91c9bd6d2116d1df73605922efc3dea0&#45;&gt;dir_891ea87c6e6d1f8e94fb23e54b4dc7cd</title>
<path fill="none" stroke="black" d="M80.66,-159.7C84.19,-151.73 88.46,-142.1 92.37,-133.26"/>
<polygon fill="black" stroke="black" points="95.58,-134.67 96.43,-124.1 89.18,-131.83 95.58,-134.67"/>
<g id="a_edge2&#45;headlabel"><a xlink:href="dir_000023_000005.html" target="_top" xlink:title="1">
<text text-anchor="middle" x="96.72" y="-136.6" font-family="serif" font-size="10.00">1</text>
</a>
</g>
</g>
<!-- dir_eb1bcaaac1032b67f9df3118ac8c5353 -->
<g id="node4" class="node">
<title>dir_eb1bcaaac1032b67f9df3118ac8c5353</title>
<g id="a_node4"><a xlink:href="dir_eb1bcaaac1032b67f9df3118ac8c5353.html" target="_top" xlink:title="Coefficients">
<polygon fill="none" stroke="black" points="204,-196 128,-196 128,-160 204,-160 204,-196"/>
<text text-anchor="middle" x="166" y="-175.5" font-family="serif" font-size="10.00">Coefficients</text>
</a>
</g>
</g>
<!-- dir_eb1bcaaac1032b67f9df3118ac8c5353&#45;&gt;dir_891ea87c6e6d1f8e94fb23e54b4dc7cd -->
<g id="edge1" class="edge">
<title>dir_eb1bcaaac1032b67f9df3118ac8c5353&#45;&gt;dir_891ea87c6e6d1f8e94fb23e54b4dc7cd</title>
<path fill="none" stroke="black" d="M150.67,-159.7C143.24,-151.3 134.18,-141.07 126.02,-131.86"/>
<polygon fill="black" stroke="black" points="128.4,-129.27 119.15,-124.1 123.16,-133.91 128.4,-129.27"/>
<g id="a_edge1&#45;headlabel"><a xlink:href="dir_000012_000005.html" target="_top" xlink:title="2">
<text text-anchor="middle" x="132.91" y="-127.58" font-family="serif" font-size="10.00">2</text>
</a>
</g>
</g>
<!-- dir_3f3ce32f10c2af7ad8f9b7c5f5af7ee0 -->
<g id="node5" class="node">
<title>dir_3f3ce32f10c2af7ad8f9b7c5f5af7ee0</title>
<g id="a_node5"><a xlink:href="dir_3f3ce32f10c2af7ad8f9b7c5f5af7ee0.html" target="_top" xlink:title="Integrators">
<polygon fill="#eeeeff" stroke="black" points="156,-268 82,-268 82,-232 156,-232 156,-268"/>
<text text-anchor="middle" x="119" y="-247.5" font-family="serif" font-size="10.00">Integrators</text>
</a>
</g>
</g>
<!-- dir_3f3ce32f10c2af7ad8f9b7c5f5af7ee0&#45;&gt;dir_891ea87c6e6d1f8e94fb23e54b4dc7cd -->
<g id="edge3" class="edge">
<title>dir_3f3ce32f10c2af7ad8f9b7c5f5af7ee0&#45;&gt;dir_891ea87c6e6d1f8e94fb23e54b4dc7cd</title>
<path fill="none" stroke="black" d="M81.86,-237.82C61.81,-229.68 38.81,-216.43 27,-196 18.99,-182.15 19.56,-174.16 27,-160 35.5,-143.82 51.43,-131.62 66.6,-123.03"/>
<polygon fill="black" stroke="black" points="68.66,-125.9 75.87,-118.14 65.4,-119.71 68.66,-125.9"/>
<g id="a_edge3&#45;headlabel"><a xlink:href="dir_000002_000005.html" target="_top" xlink:title="5">
<text text-anchor="middle" x="66.8" y="-127.59" font-family="serif" font-size="10.00">5</text>
</a>
</g>
</g>
<!-- dir_3f3ce32f10c2af7ad8f9b7c5f5af7ee0&#45;&gt;dir_91c9bd6d2116d1df73605922efc3dea0 -->
<g id="edge4" class="edge">
<title>dir_3f3ce32f10c2af7ad8f9b7c5f5af7ee0&#45;&gt;dir_91c9bd6d2116d1df73605922efc3dea0</title>
<path fill="none" stroke="black" d="M107.63,-231.7C102.28,-223.56 95.8,-213.69 89.89,-204.7"/>
<polygon fill="black" stroke="black" points="92.66,-202.54 84.24,-196.1 86.81,-206.38 92.66,-202.54"/>
<g id="a_edge4&#45;headlabel"><a xlink:href="dir_000002_000023.html" target="_top" xlink:title="30">
<text text-anchor="middle" x="97" y="-201.48" font-family="serif" font-size="10.00">30</text>
</a>
</g>
</g>
<!-- dir_3f3ce32f10c2af7ad8f9b7c5f5af7ee0&#45;&gt;dir_97cd71bc012adc9145264269177778ae -->
<g id="edge5" class="edge">
<title>dir_3f3ce32f10c2af7ad8f9b7c5f5af7ee0&#45;&gt;dir_97cd71bc012adc9145264269177778ae</title>
<path fill="none" stroke="black" d="M156.45,-238.22C177.04,-230.16 200.81,-216.87 213,-196 238.62,-152.15 207.51,-93.32 185.08,-60.27"/>
<polygon fill="black" stroke="black" points="187.93,-58.24 179.33,-52.06 182.2,-62.26 187.93,-58.24"/>
<g id="a_edge5&#45;headlabel"><a xlink:href="dir_000002_000030.html" target="_top" xlink:title="16">
<text text-anchor="middle" x="192.32" y="-57.05" font-family="serif" font-size="10.00">16</text>
</a>
</g>
</g>
<!-- dir_3f3ce32f10c2af7ad8f9b7c5f5af7ee0&#45;&gt;dir_eb1bcaaac1032b67f9df3118ac8c5353 -->
<g id="edge6" class="edge">
<title>dir_3f3ce32f10c2af7ad8f9b7c5f5af7ee0&#45;&gt;dir_eb1bcaaac1032b67f9df3118ac8c5353</title>
<path fill="none" stroke="black" d="M130.62,-231.7C136.14,-223.47 142.85,-213.48 148.93,-204.42"/>
<polygon fill="black" stroke="black" points="151.85,-206.36 154.52,-196.1 146.04,-202.46 151.85,-206.36"/>
<g id="a_edge6&#45;headlabel"><a xlink:href="dir_000002_000012.html" target="_top" xlink:title="11">
<text text-anchor="middle" x="152.2" y="-208.42" font-family="serif" font-size="10.00">11</text>
</a>
</g>
</g>
</g>
</svg>
