<?xml version="1.0" encoding="UTF-8" standalone="no"?>
<!DOCTYPE svg PUBLIC "-//W3C//DTD SVG 1.1//EN"
 "http://www.w3.org/Graphics/SVG/1.1/DTD/svg11.dtd">
<!-- Generated by graphviz version 2.43.0 (0)
 -->
<!-- Title: src Pages: 1 -->
<!--zoomable 175 -->
<svg id="main" version="1.1" xmlns="http://www.w3.org/2000/svg" xmlns:xlink="http://www.w3.org/1999/xlink" xml:space="preserve" onload="init(evt)">
<style type="text/css"><![CDATA[
.edge:hover path { stroke: red; }
.edge:hover polygon { stroke: red; fill: red; }
]]></style>
<script type="text/javascript"><![CDATA[
var edges = document.getElementsByTagName('g');
if (edges && edges.length) {
  for (var i=0;i<edges.length;i++) {
    if (edges[i].id.substr(0,4)=='edge') {
      edges[i].setAttribute('class','edge');
    }
  }
}
]]></script>
        <defs>
                <circle id="rim" cx="0" cy="0" r="7"/>
                <circle id="rim2" cx="0" cy="0" r="3.5"/>
                <g id="zoomPlus">
                        <use xlink:href="#rim" fill="#404040">
                                <set attributeName="fill" to="#808080" begin="zoomplus.mouseover" end="zoomplus.mouseout"/>
                        </use>
                        <path d="M-4,0h8M0,-4v8" fill="none" stroke="white" stroke-width="1.5" pointer-events="none"/>
                </g>
                <g id="zoomMin">
                        <use xlink:href="#rim" fill="#404040">
                                <set attributeName="fill" to="#808080" begin="zoomminus.mouseover" end="zoomminus.mouseout"/>
                        </use>
                        <path d="M-4,0h8" fill="none" stroke="white" stroke-width="1.5" pointer-events="none"/>
                </g>
                <g id="dirArrow">
                        <path fill="none" stroke="white" stroke-width="1.5" d="M0,-3.0v7 M-2.5,-0.5L0,-3.0L2.5,-0.5"/>
                </g>
               <g id="resetDef">
                       <use xlink:href="#rim2" fill="#404040">
                               <set attributeName="fill" to="#808080" begin="reset.mouseover" end="reset.mouseout"/>
                       </use>
               </g>
        </defs>

<script type="text/javascript">
var viewWidth = 946;
var viewHeight = 175;
var sectionId = 'dynsection-0';
</script>
<script xlink:href="svgpan.js"/>
<svg id="graph" class="graph">
<g id="viewport">
<title>src</title>
<g id="clust1" class="cluster">
<title>clusterdir_dc43877d82dd332f9fb2071fcca799d6</title>
<g id="a_clust1"><a xlink:href="dir_dc43877d82dd332f9fb2071fcca799d6.html" target="_top" xlink:title="kernel">
<polygon fill="#ddddee" stroke="black" points="8,-8 8,-159 930,-159 930,-8 8,-8"/>
<text text-anchor="middle" x="469" y="-147" font-family="serif" font-size="10.00">kernel</text>
</a>
</g>
</g>
<g id="clust2" class="cluster">
<title>clusterdir_3dd30a497388ee684638f120a124721c</title>
<g id="a_clust2"><a xlink:href="dir_3dd30a497388ee684638f120a124721c.html" target="_top">
<polygon fill="#eeeeff" stroke="black" points="16,-80 16,-132 922,-132 922,-80 16,-80"/>
</a>
</g>
</g>
<!-- dir_009f605b833ac4622acd6c3c0c26c0f0 -->
<g id="node1" class="node">
<title>dir_009f605b833ac4622acd6c3c0c26c0f0</title>
<g id="a_node1"><a xlink:href="dir_009f605b833ac4622acd6c3c0c26c0f0.html" target="_top" xlink:title="include">
<polygon fill="none" stroke="red" points="435,-52 381,-52 381,-16 435,-16 435,-52"/>
<text text-anchor="middle" x="408" y="-31.5" font-family="serif" font-size="10.00">include</text>
</a>
</g>
</g>
<!-- dir_3dd30a497388ee684638f120a124721c -->
<g id="node2" class="node">
<title>dir_3dd30a497388ee684638f120a124721c</title>
<text text-anchor="middle" x="887" y="-103.5" font-family="serif" font-size="10.00">src</text>
</g>
<!-- dir_adac2b7b46c913f593542b2cdbfaea6c -->
<g id="node3" class="node">
<title>dir_adac2b7b46c913f593542b2cdbfaea6c</title>
<g id="a_node3"><a xlink:href="dir_adac2b7b46c913f593542b2cdbfaea6c.html" target="_top" xlink:title="BCs">
<polygon fill="white" stroke="black" points="842,-124 788,-124 788,-88 842,-88 842,-124"/>
<text text-anchor="middle" x="815" y="-103.5" font-family="serif" font-size="10.00">BCs</text>
</a>
</g>
</g>
<!-- dir_adac2b7b46c913f593542b2cdbfaea6c&#45;&gt;dir_009f605b833ac4622acd6c3c0c26c0f0 -->
<g id="edge7" class="edge">
<title>dir_adac2b7b46c913f593542b2cdbfaea6c&#45;&gt;dir_009f605b833ac4622acd6c3c0c26c0f0</title>
<path fill="none" stroke="black" d="M793.88,-87.84C789.21,-84.78 784.12,-81.95 779,-80 718.5,-56.96 526.91,-42.5 445.35,-37.24"/>
<polygon fill="black" stroke="black" points="445.25,-33.73 435.05,-36.59 444.81,-40.71 445.25,-33.73"/>
<g id="a_edge7&#45;headlabel"><a xlink:href="dir_000008_000001.html" target="_top" xlink:title="2">
<text text-anchor="middle" x="449.02" y="-28.62" font-family="serif" font-size="10.00">2</text>
</a>
</g>
</g>
<!-- dir_8a42496a073d17392e87943d742b62eb -->
<g id="node4" class="node">
<title>dir_8a42496a073d17392e87943d742b62eb</title>
<g id="a_node4"><a xlink:href="dir_8a42496a073d17392e87943d742b62eb.html" target="_top" xlink:title="Coefficients">
<polygon fill="white" stroke="black" points="770,-124 694,-124 694,-88 770,-88 770,-124"/>
<text text-anchor="middle" x="732" y="-103.5" font-family="serif" font-size="10.00">Coefficients</text>
</a>
</g>
</g>
<!-- dir_8a42496a073d17392e87943d742b62eb&#45;&gt;dir_009f605b833ac4622acd6c3c0c26c0f0 -->
<g id="edge6" class="edge">
<title>dir_8a42496a073d17392e87943d742b62eb&#45;&gt;dir_009f605b833ac4622acd6c3c0c26c0f0</title>
<path fill="none" stroke="black" d="M703.58,-87.98C697.6,-84.95 691.22,-82.09 685,-80 602.11,-52.07 499.25,-41.19 445.19,-37.17"/>
<polygon fill="black" stroke="black" points="445.27,-33.67 435.05,-36.46 444.78,-40.65 445.27,-33.67"/>
<g id="a_edge6&#45;headlabel"><a xlink:href="dir_000011_000001.html" target="_top" xlink:title="25">
<text text-anchor="middle" x="449.06" y="-28.59" font-family="serif" font-size="10.00">25</text>
</a>
</g>
</g>
<!-- dir_9f289637254a65b252396b5ee3daef70 -->
<g id="node5" class="node">
<title>dir_9f289637254a65b252396b5ee3daef70</title>
<g id="a_node5"><a xlink:href="dir_9f289637254a65b252396b5ee3daef70.html" target="_top" xlink:title="Convergence">
<polygon fill="white" stroke="black" points="676,-124 592,-124 592,-88 676,-88 676,-124"/>
<text text-anchor="middle" x="634" y="-103.5" font-family="serif" font-size="10.00">Convergence</text>
</a>
</g>
</g>
<!-- dir_9f289637254a65b252396b5ee3daef70&#45;&gt;dir_009f605b833ac4622acd6c3c0c26c0f0 -->
<g id="edge4" class="edge">
<title>dir_9f289637254a65b252396b5ee3daef70&#45;&gt;dir_009f605b833ac4622acd6c3c0c26c0f0</title>
<path fill="none" stroke="black" d="M601.79,-87.98C595.64,-85.09 589.2,-82.29 583,-80 536.66,-62.89 481.12,-49.8 445.23,-42.26"/>
<polygon fill="black" stroke="black" points="445.7,-38.79 435.2,-40.2 444.29,-45.64 445.7,-38.79"/>
<g id="a_edge4&#45;headlabel"><a xlink:href="dir_000013_000001.html" target="_top" xlink:title="3">
<text text-anchor="middle" x="449.8" y="-34.23" font-family="serif" font-size="10.00">3</text>
</a>
</g>
</g>
<!-- dir_450ff2474cf56579db1cfaa39241c497 -->
<g id="node6" class="node">
<title>dir_450ff2474cf56579db1cfaa39241c497</title>
<g id="a_node6"><a xlink:href="dir_450ff2474cf56579db1cfaa39241c497.html" target="_top" xlink:title="Integrators">
<polygon fill="white" stroke="black" points="574,-124 500,-124 500,-88 574,-88 574,-124"/>
<text text-anchor="middle" x="537" y="-103.5" font-family="serif" font-size="10.00">Integrators</text>
</a>
</g>
</g>
<!-- dir_450ff2474cf56579db1cfaa39241c497&#45;&gt;dir_009f605b833ac4622acd6c3c0c26c0f0 -->
<g id="edge3" class="edge">
<title>dir_450ff2474cf56579db1cfaa39241c497&#45;&gt;dir_009f605b833ac4622acd6c3c0c26c0f0</title>
<path fill="none" stroke="black" d="M505.33,-87.78C500.53,-85.17 495.63,-82.52 491,-80 475.76,-71.73 458.93,-62.6 444.44,-54.75"/>
<polygon fill="black" stroke="black" points="445.75,-51.48 435.29,-49.79 442.42,-57.63 445.75,-51.48"/>
<g id="a_edge3&#45;headlabel"><a xlink:href="dir_000027_000001.html" target="_top" xlink:title="1">
<text text-anchor="middle" x="450.27" y="-48.19" font-family="serif" font-size="10.00">1</text>
</a>
</g>
</g>
<!-- dir_10ae7a5a42bc5411fad8e9c7ce29b2d3 -->
<g id="node7" class="node">
<title>dir_10ae7a5a42bc5411fad8e9c7ce29b2d3</title>
<g id="a_node7"><a xlink:href="dir_10ae7a5a42bc5411fad8e9c7ce29b2d3.html" target="_top" xlink:title="Operators">
<polygon fill="white" stroke="black" points="482,-124 414,-124 414,-88 482,-88 482,-124"/>
<text text-anchor="middle" x="448" y="-103.5" font-family="serif" font-size="10.00">Operators</text>
</a>
</g>
</g>
<!-- dir_10ae7a5a42bc5411fad8e9c7ce29b2d3&#45;&gt;dir_009f605b833ac4622acd6c3c0c26c0f0 -->
<g id="edge9" class="edge">
<title>dir_10ae7a5a42bc5411fad8e9c7ce29b2d3&#45;&gt;dir_009f605b833ac4622acd6c3c0c26c0f0</title>
<path fill="none" stroke="black" d="M438.11,-87.7C433.51,-79.64 427.94,-69.89 422.85,-60.98"/>
<polygon fill="black" stroke="black" points="425.77,-59.05 417.77,-52.1 419.7,-62.52 425.77,-59.05"/>
<g id="a_edge9&#45;headlabel"><a xlink:href="dir_000025_000001.html" target="_top" xlink:title="2">
<text text-anchor="middle" x="430.02" y="-58.26" font-family="serif" font-size="10.00">2</text>
</a>
</g>
</g>
<!-- dir_83dd5854fc335ec3e5105b5fca62266a -->
<g id="node8" class="node">
<title>dir_83dd5854fc335ec3e5105b5fca62266a</title>
<g id="a_node8"><a xlink:href="dir_83dd5854fc335ec3e5105b5fca62266a.html" target="_top" xlink:title="Options">
<polygon fill="white" stroke="black" points="396,-124 340,-124 340,-88 396,-88 396,-124"/>
<text text-anchor="middle" x="368" y="-103.5" font-family="serif" font-size="10.00">Options</text>
</a>
</g>
</g>
<!-- dir_83dd5854fc335ec3e5105b5fca62266a&#45;&gt;dir_009f605b833ac4622acd6c3c0c26c0f0 -->
<g id="edge2" class="edge">
<title>dir_83dd5854fc335ec3e5105b5fca62266a&#45;&gt;dir_009f605b833ac4622acd6c3c0c26c0f0</title>
<path fill="none" stroke="black" d="M377.89,-87.7C382.49,-79.64 388.06,-69.89 393.15,-60.98"/>
<polygon fill="black" stroke="black" points="396.3,-62.52 398.23,-52.1 390.23,-59.05 396.3,-62.52"/>
<g id="a_edge2&#45;headlabel"><a xlink:href="dir_000004_000001.html" target="_top" xlink:title="12">
<text text-anchor="middle" x="396.99" y="-64.55" font-family="serif" font-size="10.00">12</text>
</a>
</g>
</g>
<!-- dir_ddaeb2457f50bb9e8e11e82a0003a358 -->
<g id="node9" class="node">
<title>dir_ddaeb2457f50bb9e8e11e82a0003a358</title>
<g id="a_node9"><a xlink:href="dir_ddaeb2457f50bb9e8e11e82a0003a358.html" target="_top" xlink:title="Parameters">
<polygon fill="white" stroke="black" points="322,-124 248,-124 248,-88 322,-88 322,-124"/>
<text text-anchor="middle" x="285" y="-103.5" font-family="serif" font-size="10.00">Parameters</text>
</a>
</g>
</g>
<!-- dir_ddaeb2457f50bb9e8e11e82a0003a358&#45;&gt;dir_009f605b833ac4622acd6c3c0c26c0f0 -->
<g id="edge5" class="edge">
<title>dir_ddaeb2457f50bb9e8e11e82a0003a358&#45;&gt;dir_009f605b833ac4622acd6c3c0c26c0f0</title>
<path fill="none" stroke="black" d="M315.09,-87.88C332.17,-78.16 353.67,-65.92 371.68,-55.67"/>
<polygon fill="black" stroke="black" points="373.78,-58.5 380.74,-50.51 370.32,-52.42 373.78,-58.5"/>
<g id="a_edge5&#45;headlabel"><a xlink:href="dir_000022_000001.html" target="_top" xlink:title="3">
<text text-anchor="middle" x="372.06" y="-60.25" font-family="serif" font-size="10.00">3</text>
</a>
</g>
</g>
<!-- dir_f84871a516b250a305c76ba67515122f -->
<g id="node10" class="node">
<title>dir_f84871a516b250a305c76ba67515122f</title>
<g id="a_node10"><a xlink:href="dir_f84871a516b250a305c76ba67515122f.html" target="_top" xlink:title="Property">
<polygon fill="white" stroke="black" points="229.5,-124 168.5,-124 168.5,-88 229.5,-88 229.5,-124"/>
<text text-anchor="middle" x="199" y="-103.5" font-family="serif" font-size="10.00">Property</text>
</a>
</g>
</g>
<!-- dir_f84871a516b250a305c76ba67515122f&#45;&gt;dir_009f605b833ac4622acd6c3c0c26c0f0 -->
<g id="edge1" class="edge">
<title>dir_f84871a516b250a305c76ba67515122f&#45;&gt;dir_009f605b833ac4622acd6c3c0c26c0f0</title>
<path fill="none" stroke="black" d="M223.77,-87.94C228.67,-85.02 233.89,-82.22 239,-80 282.42,-61.16 335.62,-48.58 370.59,-41.62"/>
<polygon fill="black" stroke="black" points="371.67,-44.98 380.83,-39.64 370.35,-38.1 371.67,-44.98"/>
<g id="a_edge1&#45;headlabel"><a xlink:href="dir_000019_000001.html" target="_top" xlink:title="9">
<text text-anchor="middle" x="368.68" y="-45.95" font-family="serif" font-size="10.00">9</text>
</a>
</g>
</g>
<!-- dir_3a14019a673c347dd6913ed2743b2b2a -->
<g id="node11" class="node">
<title>dir_3a14019a673c347dd6913ed2743b2b2a</title>
<g id="a_node11"><a xlink:href="dir_3a14019a673c347dd6913ed2743b2b2a.html" target="_top" xlink:title="Solvers">
<polygon fill="white" stroke="black" points="150,-124 96,-124 96,-88 150,-88 150,-124"/>
<text text-anchor="middle" x="123" y="-103.5" font-family="serif" font-size="10.00">Solvers</text>
</a>
</g>
</g>
<!-- dir_3a14019a673c347dd6913ed2743b2b2a&#45;&gt;dir_009f605b833ac4622acd6c3c0c26c0f0 -->
<g id="edge10" class="edge">
<title>dir_3a14019a673c347dd6913ed2743b2b2a&#45;&gt;dir_009f605b833ac4622acd6c3c0c26c0f0</title>
<path fill="none" stroke="black" d="M145.25,-87.83C149.93,-84.84 154.97,-82.05 160,-80 230.98,-51.08 320.92,-40.67 370.65,-36.98"/>
<polygon fill="black" stroke="black" points="371.19,-40.45 380.93,-36.27 370.71,-33.47 371.19,-40.45"/>
<g id="a_edge10&#45;headlabel"><a xlink:href="dir_000016_000001.html" target="_top" xlink:title="55">
<text text-anchor="middle" x="367.8" y="-41.03" font-family="serif" font-size="10.00">55</text>
</a>
</g>
</g>
<!-- dir_c2517379bbb53098e455110d7a450492 -->
<g id="node12" class="node">
<title>dir_c2517379bbb53098e455110d7a450492</title>
<g id="a_node12"><a xlink:href="dir_c2517379bbb53098e455110d7a450492.html" target="_top" xlink:title="Utils">
<polygon fill="white" stroke="black" points="78,-124 24,-124 24,-88 78,-88 78,-124"/>
<text text-anchor="middle" x="51" y="-103.5" font-family="serif" font-size="10.00">Utils</text>
</a>
</g>
</g>
<!-- dir_c2517379bbb53098e455110d7a450492&#45;&gt;dir_009f605b833ac4622acd6c3c0c26c0f0 -->
<g id="edge8" class="edge">
<title>dir_c2517379bbb53098e455110d7a450492&#45;&gt;dir_009f605b833ac4622acd6c3c0c26c0f0</title>
<path fill="none" stroke="black" d="M72.15,-87.92C76.82,-84.85 81.9,-82 87,-80 184.14,-41.97 308.91,-35.42 370.36,-34.7"/>
<polygon fill="black" stroke="black" points="370.75,-38.2 380.73,-34.63 370.7,-31.2 370.75,-38.2"/>
<g id="a_edge8&#45;headlabel"><a xlink:href="dir_000031_000001.html" target="_top" xlink:title="1">
<text text-anchor="middle" x="367.18" y="-38.56" font-family="serif" font-size="10.00">1</text>
</a>
</g>
</g>
</g>
</svg>
        <g id="navigator" transform="translate(0 0)" fill="#404254">
                <rect fill="#f2f5e9" fill-opacity="0.5" stroke="#606060" stroke-width=".5" x="0" y="0" width="60" height="60"/>
                <use id="zoomplus" xlink:href="#zoomPlus" x="17" y="9" onmousedown="handleZoom(evt,'in')"/>
                <use id="zoomminus" xlink:href="#zoomMin" x="42" y="9" onmousedown="handleZoom(evt,'out')"/>
                <use id="reset" xlink:href="#resetDef" x="30" y="36" onmousedown="handleReset()"/>
                <g id="arrowUp" xlink:href="#dirArrow" transform="translate(30 24)" onmousedown="handlePan(0,-1)">
                  <use xlink:href="#rim" fill="#404040">
                        <set attributeName="fill" to="#808080" begin="arrowUp.mouseover" end="arrowUp.mouseout"/>
                  </use>
                  <path fill="none" stroke="white" stroke-width="1.5" d="M0,-3.0v7 M-2.5,-0.5L0,-3.0L2.5,-0.5"/>
                </g>
                <g id="arrowRight" xlink:href="#dirArrow" transform="rotate(90) translate(36 -43)" onmousedown="handlePan(1,0)">
                  <use xlink:href="#rim" fill="#404040">
                        <set attributeName="fill" to="#808080" begin="arrowRight.mouseover" end="arrowRight.mouseout"/>
                  </use>
                  <path fill="none" stroke="white" stroke-width="1.5" d="M0,-3.0v7 M-2.5,-0.5L0,-3.0L2.5,-0.5"/>
                </g>
                <g id="arrowDown" xlink:href="#dirArrow" transform="rotate(180) translate(-30 -48)" onmousedown="handlePan(0,1)">
                  <use xlink:href="#rim" fill="#404040">
                        <set attributeName="fill" to="#808080" begin="arrowDown.mouseover" end="arrowDown.mouseout"/>
                  </use>
                  <path fill="none" stroke="white" stroke-width="1.5" d="M0,-3.0v7 M-2.5,-0.5L0,-3.0L2.5,-0.5"/>
                </g>
                <g id="arrowLeft" xlink:href="#dirArrow" transform="rotate(270) translate(-36 17)" onmousedown="handlePan(-1,0)">
                  <use xlink:href="#rim" fill="#404040">
                        <set attributeName="fill" to="#808080" begin="arrowLeft.mouseover" end="arrowLeft.mouseout"/>
                  </use>
                  <path fill="none" stroke="white" stroke-width="1.5" d="M0,-3.0v7 M-2.5,-0.5L0,-3.0L2.5,-0.5"/>
                </g>
        </g>
        <svg viewBox="0 0 15 15" width="100%" height="30px" preserveAspectRatio="xMaxYMin meet">
         <g id="arrow_out" transform="scale(0.3 0.3)">
          <a xlink:href="dir_3dd30a497388ee684638f120a124721c_dep_org.svg" target="_base">
           <rect id="button" ry="5" rx="5" y="6" x="6" height="38" width="38"
                fill="#f2f5e9" fill-opacity="0.5" stroke="#606060" stroke-width="1.0"/>
           <path id="arrow"
             d="M 11.500037,31.436501 C 11.940474,20.09759 22.043105,11.32322 32.158766,21.979434 L 37.068811,17.246167 C 37.068811,17.246167 37.088388,32 37.088388,32 L 22.160133,31.978069 C 22.160133,31.978069 26.997745,27.140456 26.997745,27.140456 C 18.528582,18.264221 13.291696,25.230495 11.500037,31.436501 z"
             style="fill:#404040;"/>
          </a>
         </g>
        </svg>
</svg>
