<?xml version="1.0" encoding="UTF-8" standalone="no"?>
<!DOCTYPE svg PUBLIC "-//W3C//DTD SVG 1.1//EN"
 "http://www.w3.org/Graphics/SVG/1.1/DTD/svg11.dtd">
<!-- Generated by graphviz version 2.43.0 (0)
 -->
<!-- Title: Problems Pages: 1 -->
<svg width="394pt" height="311pt"
 viewBox="0.00 0.00 394.00 311.00" xmlns="http://www.w3.org/2000/svg" xmlns:xlink="http://www.w3.org/1999/xlink">
<g id="graph0" class="graph" transform="scale(1 1) rotate(0) translate(4 307)">
<title>Problems</title>
<g id="clust1" class="cluster">
<title>clusterdir_009f605b833ac4622acd6c3c0c26c0f0</title>
<g id="a_clust1"><a xlink:href="dir_009f605b833ac4622acd6c3c0c26c0f0.html" target="_top" xlink:title="include">
<polygon fill="#ddddee" stroke="black" points="8,-8 8,-295 378,-295 378,-8 8,-8"/>
<text text-anchor="middle" x="193" y="-283" font-family="serif" font-size="10.00">include</text>
</a>
</g>
</g>
<!-- dir_7b434ec32f216829926927df16f0381b -->
<g id="node1" class="node">
<title>dir_7b434ec32f216829926927df16f0381b</title>
<g id="a_node1"><a xlink:href="dir_7b434ec32f216829926927df16f0381b.html" target="_top" xlink:title="Calphad">
<polygon fill="none" stroke="black" points="95.5,-196 36.5,-196 36.5,-160 95.5,-160 95.5,-196"/>
<text text-anchor="middle" x="66" y="-175.5" font-family="serif" font-size="10.00">Calphad</text>
</a>
</g>
</g>
<!-- dir_891ea87c6e6d1f8e94fb23e54b4dc7cd -->
<g id="node2" class="node">
<title>dir_891ea87c6e6d1f8e94fb23e54b4dc7cd</title>
<g id="a_node2"><a xlink:href="dir_891ea87c6e6d1f8e94fb23e54b4dc7cd.html" target="_top" xlink:title="Options">
<polygon fill="none" stroke="black" points="195,-52 139,-52 139,-16 195,-16 195,-52"/>
<text text-anchor="middle" x="167" y="-31.5" font-family="serif" font-size="10.00">Options</text>
</a>
</g>
</g>
<!-- dir_7b434ec32f216829926927df16f0381b&#45;&gt;dir_891ea87c6e6d1f8e94fb23e54b4dc7cd -->
<g id="edge12" class="edge">
<title>dir_7b434ec32f216829926927df16f0381b&#45;&gt;dir_891ea87c6e6d1f8e94fb23e54b4dc7cd</title>
<path fill="none" stroke="black" d="M78.01,-159.55C84.93,-149.32 93.68,-136.07 101,-124 110.49,-108.35 110.5,-102.99 121,-88 127.74,-78.37 135.94,-68.48 143.53,-59.88"/>
<polygon fill="black" stroke="black" points="146.18,-62.16 150.27,-52.39 140.98,-57.48 146.18,-62.16"/>
<g id="a_edge12&#45;headlabel"><a xlink:href="dir_000007_000005.html" target="_top" xlink:title="5">
<text text-anchor="middle" x="145.88" y="-64.24" font-family="serif" font-size="10.00">5</text>
</a>
</g>
</g>
<!-- dir_91c9bd6d2116d1df73605922efc3dea0 -->
<g id="node3" class="node">
<title>dir_91c9bd6d2116d1df73605922efc3dea0</title>
<g id="a_node3"><a xlink:href="dir_91c9bd6d2116d1df73605922efc3dea0.html" target="_top" xlink:title="Parameters">
<polygon fill="none" stroke="black" points="204,-124 130,-124 130,-88 204,-88 204,-124"/>
<text text-anchor="middle" x="167" y="-103.5" font-family="serif" font-size="10.00">Parameters</text>
</a>
</g>
</g>
<!-- dir_7b434ec32f216829926927df16f0381b&#45;&gt;dir_91c9bd6d2116d1df73605922efc3dea0 -->
<g id="edge13" class="edge">
<title>dir_7b434ec32f216829926927df16f0381b&#45;&gt;dir_91c9bd6d2116d1df73605922efc3dea0</title>
<path fill="none" stroke="black" d="M90.71,-159.88C103.67,-150.89 119.73,-139.76 133.77,-130.03"/>
<polygon fill="black" stroke="black" points="135.97,-132.76 142.2,-124.19 131.98,-127.01 135.97,-132.76"/>
<g id="a_edge13&#45;headlabel"><a xlink:href="dir_000007_000023.html" target="_top" xlink:title="8">
<text text-anchor="middle" x="134.64" y="-134.64" font-family="serif" font-size="10.00">8</text>
</a>
</g>
</g>
<!-- dir_eb1bcaaac1032b67f9df3118ac8c5353 -->
<g id="node7" class="node">
<title>dir_eb1bcaaac1032b67f9df3118ac8c5353</title>
<g id="a_node7"><a xlink:href="dir_eb1bcaaac1032b67f9df3118ac8c5353.html" target="_top" xlink:title="Coefficients">
<polygon fill="none" stroke="black" points="92,-124 16,-124 16,-88 92,-88 92,-124"/>
<text text-anchor="middle" x="54" y="-103.5" font-family="serif" font-size="10.00">Coefficients</text>
</a>
</g>
</g>
<!-- dir_7b434ec32f216829926927df16f0381b&#45;&gt;dir_eb1bcaaac1032b67f9df3118ac8c5353 -->
<g id="edge14" class="edge">
<title>dir_7b434ec32f216829926927df16f0381b&#45;&gt;dir_eb1bcaaac1032b67f9df3118ac8c5353</title>
<path fill="none" stroke="black" d="M63.03,-159.7C61.71,-151.98 60.12,-142.71 58.65,-134.11"/>
<polygon fill="black" stroke="black" points="62.07,-133.37 56.93,-124.1 55.17,-134.55 62.07,-133.37"/>
<g id="a_edge14&#45;headlabel"><a xlink:href="dir_000007_000009.html" target="_top" xlink:title="3">
<text text-anchor="middle" x="65.48" y="-133.93" font-family="serif" font-size="10.00">3</text>
</a>
</g>
</g>
<!-- dir_91c9bd6d2116d1df73605922efc3dea0&#45;&gt;dir_891ea87c6e6d1f8e94fb23e54b4dc7cd -->
<g id="edge11" class="edge">
<title>dir_91c9bd6d2116d1df73605922efc3dea0&#45;&gt;dir_891ea87c6e6d1f8e94fb23e54b4dc7cd</title>
<path fill="none" stroke="black" d="M167,-87.7C167,-79.98 167,-70.71 167,-62.11"/>
<polygon fill="black" stroke="black" points="170.5,-62.1 167,-52.1 163.5,-62.1 170.5,-62.1"/>
<g id="a_edge11&#45;headlabel"><a xlink:href="dir_000023_000005.html" target="_top" xlink:title="1">
<text text-anchor="middle" x="173.34" y="-63.2" font-family="serif" font-size="10.00">1</text>
</a>
</g>
</g>
<!-- dir_c032d959549aafe62efcbd448707d983 -->
<g id="node4" class="node">
<title>dir_c032d959549aafe62efcbd448707d983</title>
<g id="a_node4"><a xlink:href="dir_c032d959549aafe62efcbd448707d983.html" target="_top" xlink:title="Variables">
<polygon fill="none" stroke="black" points="285.5,-124 222.5,-124 222.5,-88 285.5,-88 285.5,-124"/>
<text text-anchor="middle" x="254" y="-103.5" font-family="serif" font-size="10.00">Variables</text>
</a>
</g>
</g>
<!-- dir_d1fdbacf2952101c0cb04843585fddf6 -->
<g id="node5" class="node">
<title>dir_d1fdbacf2952101c0cb04843585fddf6</title>
<g id="a_node5"><a xlink:href="dir_d1fdbacf2952101c0cb04843585fddf6.html" target="_top" xlink:title="PostProcessing">
<polygon fill="none" stroke="black" points="227.5,-196 134.5,-196 134.5,-160 227.5,-160 227.5,-196"/>
<text text-anchor="middle" x="181" y="-175.5" font-family="serif" font-size="10.00">PostProcessing</text>
</a>
</g>
</g>
<!-- dir_d1fdbacf2952101c0cb04843585fddf6&#45;&gt;dir_91c9bd6d2116d1df73605922efc3dea0 -->
<g id="edge2" class="edge">
<title>dir_d1fdbacf2952101c0cb04843585fddf6&#45;&gt;dir_91c9bd6d2116d1df73605922efc3dea0</title>
<path fill="none" stroke="black" d="M177.54,-159.7C176,-151.98 174.14,-142.71 172.42,-134.11"/>
<polygon fill="black" stroke="black" points="175.81,-133.22 170.42,-124.1 168.95,-134.6 175.81,-133.22"/>
<g id="a_edge2&#45;headlabel"><a xlink:href="dir_000024_000023.html" target="_top" xlink:title="1">
<text text-anchor="middle" x="179.3" y="-133.69" font-family="serif" font-size="10.00">1</text>
</a>
</g>
</g>
<!-- dir_d1fdbacf2952101c0cb04843585fddf6&#45;&gt;dir_c032d959549aafe62efcbd448707d983 -->
<g id="edge3" class="edge">
<title>dir_d1fdbacf2952101c0cb04843585fddf6&#45;&gt;dir_c032d959549aafe62efcbd448707d983</title>
<path fill="none" stroke="black" d="M199.04,-159.7C208.06,-151.05 219.12,-140.45 228.94,-131.03"/>
<polygon fill="black" stroke="black" points="231.37,-133.55 236.16,-124.1 226.52,-128.5 231.37,-133.55"/>
<g id="a_edge3&#45;headlabel"><a xlink:href="dir_000024_000032.html" target="_top" xlink:title="2">
<text text-anchor="middle" x="230.74" y="-135.59" font-family="serif" font-size="10.00">2</text>
</a>
</g>
</g>
<!-- dir_e413f75bec04976993afadedd8ad09f5 -->
<g id="node6" class="node">
<title>dir_e413f75bec04976993afadedd8ad09f5</title>
<g id="a_node6"><a xlink:href="dir_e413f75bec04976993afadedd8ad09f5.html" target="_top" xlink:title="Convergence">
<polygon fill="none" stroke="black" points="350,-196 266,-196 266,-160 350,-160 350,-196"/>
<text text-anchor="middle" x="308" y="-175.5" font-family="serif" font-size="10.00">Convergence</text>
</a>
</g>
</g>
<!-- dir_e413f75bec04976993afadedd8ad09f5&#45;&gt;dir_891ea87c6e6d1f8e94fb23e54b4dc7cd -->
<g id="edge15" class="edge">
<title>dir_e413f75bec04976993afadedd8ad09f5&#45;&gt;dir_891ea87c6e6d1f8e94fb23e54b4dc7cd</title>
<path fill="none" stroke="black" d="M310.19,-159.67C311.67,-140.18 311.02,-108.57 295,-88 273.25,-60.08 234.22,-46.74 204.95,-40.45"/>
<polygon fill="black" stroke="black" points="205.54,-37 195.05,-38.51 204.19,-43.87 205.54,-37"/>
<g id="a_edge15&#45;headlabel"><a xlink:href="dir_000014_000005.html" target="_top" xlink:title="1">
<text text-anchor="middle" x="209.61" y="-32.41" font-family="serif" font-size="10.00">1</text>
</a>
</g>
</g>
<!-- dir_eb1bcaaac1032b67f9df3118ac8c5353&#45;&gt;dir_891ea87c6e6d1f8e94fb23e54b4dc7cd -->
<g id="edge1" class="edge">
<title>dir_eb1bcaaac1032b67f9df3118ac8c5353&#45;&gt;dir_891ea87c6e6d1f8e94fb23e54b4dc7cd</title>
<path fill="none" stroke="black" d="M81.64,-87.88C96.42,-78.72 114.79,-67.34 130.7,-57.48"/>
<polygon fill="black" stroke="black" points="132.59,-60.43 139.25,-52.19 128.91,-54.48 132.59,-60.43"/>
<g id="a_edge1&#45;headlabel"><a xlink:href="dir_000009_000005.html" target="_top" xlink:title="2">
<text text-anchor="middle" x="131.03" y="-62.24" font-family="serif" font-size="10.00">2</text>
</a>
</g>
</g>
<!-- dir_965ceb73a91008e75bf87a86c0811e42 -->
<g id="node8" class="node">
<title>dir_965ceb73a91008e75bf87a86c0811e42</title>
<g id="a_node8"><a xlink:href="dir_965ceb73a91008e75bf87a86c0811e42.html" target="_top" xlink:title="Problems">
<polygon fill="#eeeeff" stroke="black" points="213.5,-268 148.5,-268 148.5,-232 213.5,-232 213.5,-268"/>
<text text-anchor="middle" x="181" y="-247.5" font-family="serif" font-size="10.00">Problems</text>
</a>
</g>
</g>
<!-- dir_965ceb73a91008e75bf87a86c0811e42&#45;&gt;dir_7b434ec32f216829926927df16f0381b -->
<g id="edge4" class="edge">
<title>dir_965ceb73a91008e75bf87a86c0811e42&#45;&gt;dir_7b434ec32f216829926927df16f0381b</title>
<path fill="none" stroke="black" d="M152.87,-231.88C137.83,-222.72 119.13,-211.34 102.94,-201.48"/>
<polygon fill="black" stroke="black" points="104.6,-198.4 94.24,-196.19 100.96,-204.38 104.6,-198.4"/>
<g id="a_edge4&#45;headlabel"><a xlink:href="dir_000012_000007.html" target="_top" xlink:title="1">
<text text-anchor="middle" x="109.15" y="-195.34" font-family="serif" font-size="10.00">1</text>
</a>
</g>
</g>
<!-- dir_965ceb73a91008e75bf87a86c0811e42&#45;&gt;dir_891ea87c6e6d1f8e94fb23e54b4dc7cd -->
<g id="edge5" class="edge">
<title>dir_965ceb73a91008e75bf87a86c0811e42&#45;&gt;dir_891ea87c6e6d1f8e94fb23e54b4dc7cd</title>
<path fill="none" stroke="black" d="M213.78,-243.98C260.25,-236.11 341.61,-219.33 359,-196 368.56,-183.17 363.92,-175.22 359,-160 346.86,-122.44 338.34,-112 307,-88 276.73,-64.82 235.18,-50.8 205.21,-43.06"/>
<polygon fill="black" stroke="black" points="205.68,-39.57 195.14,-40.57 204.01,-46.36 205.68,-39.57"/>
<g id="a_edge5&#45;headlabel"><a xlink:href="dir_000012_000005.html" target="_top" xlink:title="1">
<text text-anchor="middle" x="209.85" y="-35.17" font-family="serif" font-size="10.00">1</text>
</a>
</g>
</g>
<!-- dir_965ceb73a91008e75bf87a86c0811e42&#45;&gt;dir_91c9bd6d2116d1df73605922efc3dea0 -->
<g id="edge6" class="edge">
<title>dir_965ceb73a91008e75bf87a86c0811e42&#45;&gt;dir_91c9bd6d2116d1df73605922efc3dea0</title>
<path fill="none" stroke="black" d="M155.62,-231.95C144.29,-222.79 132.12,-210.4 126,-196 119.74,-181.28 120.83,-175.14 126,-160 129.44,-149.93 135.66,-140.28 142.23,-132.05"/>
<polygon fill="black" stroke="black" points="145,-134.2 148.83,-124.32 139.68,-129.65 145,-134.2"/>
<g id="a_edge6&#45;headlabel"><a xlink:href="dir_000012_000023.html" target="_top" xlink:title="5">
<text text-anchor="middle" x="144.82" y="-136.28" font-family="serif" font-size="10.00">5</text>
</a>
</g>
</g>
<!-- dir_965ceb73a91008e75bf87a86c0811e42&#45;&gt;dir_c032d959549aafe62efcbd448707d983 -->
<g id="edge7" class="edge">
<title>dir_965ceb73a91008e75bf87a86c0811e42&#45;&gt;dir_c032d959549aafe62efcbd448707d983</title>
<path fill="none" stroke="black" d="M205.09,-231.95C216.5,-222.62 229.29,-210.09 237,-196 247.42,-176.97 251.54,-152.61 253.14,-134.19"/>
<polygon fill="black" stroke="black" points="256.63,-134.32 253.81,-124.11 249.65,-133.86 256.63,-134.32"/>
<g id="a_edge7&#45;headlabel"><a xlink:href="dir_000012_000032.html" target="_top" xlink:title="3">
<text text-anchor="middle" x="259.23" y="-135.6" font-family="serif" font-size="10.00">3</text>
</a>
</g>
</g>
<!-- dir_965ceb73a91008e75bf87a86c0811e42&#45;&gt;dir_d1fdbacf2952101c0cb04843585fddf6 -->
<g id="edge8" class="edge">
<title>dir_965ceb73a91008e75bf87a86c0811e42&#45;&gt;dir_d1fdbacf2952101c0cb04843585fddf6</title>
<path fill="none" stroke="black" d="M181,-231.7C181,-223.98 181,-214.71 181,-206.11"/>
<polygon fill="black" stroke="black" points="184.5,-206.1 181,-196.1 177.5,-206.1 184.5,-206.1"/>
<g id="a_edge8&#45;headlabel"><a xlink:href="dir_000012_000024.html" target="_top" xlink:title="3">
<text text-anchor="middle" x="187.34" y="-207.2" font-family="serif" font-size="10.00">3</text>
</a>
</g>
</g>
<!-- dir_965ceb73a91008e75bf87a86c0811e42&#45;&gt;dir_e413f75bec04976993afadedd8ad09f5 -->
<g id="edge9" class="edge">
<title>dir_965ceb73a91008e75bf87a86c0811e42&#45;&gt;dir_e413f75bec04976993afadedd8ad09f5</title>
<path fill="none" stroke="black" d="M212.07,-231.88C228.83,-222.64 249.71,-211.13 267.7,-201.21"/>
<polygon fill="black" stroke="black" points="269.74,-204.08 276.81,-196.19 266.37,-197.95 269.74,-204.08"/>
<g id="a_edge9&#45;headlabel"><a xlink:href="dir_000012_000014.html" target="_top" xlink:title="7">
<text text-anchor="middle" x="267.97" y="-205.8" font-family="serif" font-size="10.00">7</text>
</a>
</g>
</g>
<!-- dir_965ceb73a91008e75bf87a86c0811e42&#45;&gt;dir_eb1bcaaac1032b67f9df3118ac8c5353 -->
<g id="edge10" class="edge">
<title>dir_965ceb73a91008e75bf87a86c0811e42&#45;&gt;dir_eb1bcaaac1032b67f9df3118ac8c5353</title>
<path fill="none" stroke="black" d="M148.25,-248.1C112.04,-245.15 55.23,-234.24 28,-196 14.68,-177.29 24.28,-151.8 35.39,-132.89"/>
<polygon fill="black" stroke="black" points="38.5,-134.52 40.87,-124.19 32.58,-130.79 38.5,-134.52"/>
<g id="a_edge10&#45;headlabel"><a xlink:href="dir_000012_000009.html" target="_top" xlink:title="1">
<text text-anchor="middle" x="38.99" y="-136.57" font-family="serif" font-size="10.00">1</text>
</a>
</g>
</g>
</g>
</svg>
