<?xml version="1.0" encoding="UTF-8" standalone="no"?>
<!DOCTYPE svg PUBLIC "-//W3C//DTD SVG 1.1//EN"
 "http://www.w3.org/Graphics/SVG/1.1/DTD/svg11.dtd">
<!-- Generated by graphviz version 2.43.0 (0)
 -->
<!-- Title: Sloth Pages: 1 -->
<!--zoomable 455 -->
<svg id="main" version="1.1" xmlns="http://www.w3.org/2000/svg" xmlns:xlink="http://www.w3.org/1999/xlink" xml:space="preserve" onload="init(evt)">
<style type="text/css"><![CDATA[
.edge:hover path { stroke: red; }
.edge:hover polygon { stroke: red; fill: red; }
]]></style>
<script type="text/javascript"><![CDATA[
var edges = document.getElementsByTagName('g');
if (edges && edges.length) {
  for (var i=0;i<edges.length;i++) {
    if (edges[i].id.substr(0,4)=='edge') {
      edges[i].setAttribute('class','edge');
    }
  }
}
]]></script>
        <defs>
                <circle id="rim" cx="0" cy="0" r="7"/>
                <circle id="rim2" cx="0" cy="0" r="3.5"/>
                <g id="zoomPlus">
                        <use xlink:href="#rim" fill="#404040">
                                <set attributeName="fill" to="#808080" begin="zoomplus.mouseover" end="zoomplus.mouseout"/>
                        </use>
                        <path d="M-4,0h8M0,-4v8" fill="none" stroke="white" stroke-width="1.5" pointer-events="none"/>
                </g>
                <g id="zoomMin">
                        <use xlink:href="#rim" fill="#404040">
                                <set attributeName="fill" to="#808080" begin="zoomminus.mouseover" end="zoomminus.mouseout"/>
                        </use>
                        <path d="M-4,0h8" fill="none" stroke="white" stroke-width="1.5" pointer-events="none"/>
                </g>
                <g id="dirArrow">
                        <path fill="none" stroke="white" stroke-width="1.5" d="M0,-3.0v7 M-2.5,-0.5L0,-3.0L2.5,-0.5"/>
                </g>
               <g id="resetDef">
                       <use xlink:href="#rim2" fill="#404040">
                               <set attributeName="fill" to="#808080" begin="reset.mouseover" end="reset.mouseout"/>
                       </use>
               </g>
        </defs>

<script type="text/javascript">
var viewWidth = 500;
var viewHeight = 455;
var sectionId = 'dynsection-0';
</script>
<script xlink:href="svgpan.js"/>
<svg id="graph" class="graph">
<g id="viewport">
<title>Sloth</title>
<g id="clust1" class="cluster">
<title>clusterdir_009f605b833ac4622acd6c3c0c26c0f0</title>
<g id="a_clust1"><a xlink:href="dir_009f605b833ac4622acd6c3c0c26c0f0.html" target="_top" xlink:title="include">
<polygon fill="#ddddee" stroke="black" points="8,-8 8,-439 484,-439 484,-8 8,-8"/>
<text text-anchor="middle" x="246" y="-427" font-family="serif" font-size="10.00">include</text>
</a>
</g>
</g>
<!-- dir_5df7af9f6474348e88015f5803315ff2 -->
<g id="node1" class="node">
<title>dir_5df7af9f6474348e88015f5803315ff2</title>
<g id="a_node1"><a xlink:href="dir_5df7af9f6474348e88015f5803315ff2.html" target="_top" xlink:title="Spatial">
<polygon fill="none" stroke="black" points="297,-52 243,-52 243,-16 297,-16 297,-52"/>
<text text-anchor="middle" x="270" y="-31.5" font-family="serif" font-size="10.00">Spatial</text>
</a>
</g>
</g>
<!-- dir_6a0e15dd18d578a57902bf4501958f48 -->
<g id="node2" class="node">
<title>dir_6a0e15dd18d578a57902bf4501958f48</title>
<g id="a_node2"><a xlink:href="dir_6a0e15dd18d578a57902bf4501958f48.html" target="_top" xlink:title="Couplings">
<polygon fill="none" stroke="black" points="104,-340 36,-340 36,-304 104,-304 104,-340"/>
<text text-anchor="middle" x="70" y="-319.5" font-family="serif" font-size="10.00">Couplings</text>
</a>
</g>
</g>
<!-- dir_7b434ec32f216829926927df16f0381b -->
<g id="node3" class="node">
<title>dir_7b434ec32f216829926927df16f0381b</title>
<g id="a_node3"><a xlink:href="dir_7b434ec32f216829926927df16f0381b.html" target="_top" xlink:title="Calphad">
<polygon fill="none" stroke="black" points="181.5,-196 122.5,-196 122.5,-160 181.5,-160 181.5,-196"/>
<text text-anchor="middle" x="152" y="-175.5" font-family="serif" font-size="10.00">Calphad</text>
</a>
</g>
</g>
<!-- dir_eb1bcaaac1032b67f9df3118ac8c5353 -->
<g id="node10" class="node">
<title>dir_eb1bcaaac1032b67f9df3118ac8c5353</title>
<g id="a_node10"><a xlink:href="dir_eb1bcaaac1032b67f9df3118ac8c5353.html" target="_top" xlink:title="Coefficients">
<polygon fill="none" stroke="black" points="179,-124 103,-124 103,-88 179,-88 179,-124"/>
<text text-anchor="middle" x="141" y="-103.5" font-family="serif" font-size="10.00">Coefficients</text>
</a>
</g>
</g>
<!-- dir_7b434ec32f216829926927df16f0381b&#45;&gt;dir_eb1bcaaac1032b67f9df3118ac8c5353 -->
<g id="edge23" class="edge">
<title>dir_7b434ec32f216829926927df16f0381b&#45;&gt;dir_eb1bcaaac1032b67f9df3118ac8c5353</title>
<path fill="none" stroke="black" d="M149.28,-159.7C148.07,-151.98 146.61,-142.71 145.26,-134.11"/>
<polygon fill="black" stroke="black" points="148.7,-133.44 143.69,-124.1 141.78,-134.53 148.7,-133.44"/>
<g id="a_edge23&#45;headlabel"><a xlink:href="dir_000007_000012.html" target="_top" xlink:title="3">
<text text-anchor="middle" x="152.06" y="-134.05" font-family="serif" font-size="10.00">3</text>
</a>
</g>
</g>
<!-- dir_8adae1f873bcbbb5a35ca5b0e1951c17 -->
<g id="node4" class="node">
<title>dir_8adae1f873bcbbb5a35ca5b0e1951c17</title>
<g id="a_node4"><a xlink:href="dir_8adae1f873bcbbb5a35ca5b0e1951c17.html" target="_top" xlink:title="Time">
<polygon fill="none" stroke="black" points="216,-340 162,-340 162,-304 216,-304 216,-340"/>
<text text-anchor="middle" x="189" y="-319.5" font-family="serif" font-size="10.00">Time</text>
</a>
</g>
</g>
<!-- dir_965ceb73a91008e75bf87a86c0811e42 -->
<g id="node5" class="node">
<title>dir_965ceb73a91008e75bf87a86c0811e42</title>
<g id="a_node5"><a xlink:href="dir_965ceb73a91008e75bf87a86c0811e42.html" target="_top" xlink:title="Problems">
<polygon fill="none" stroke="black" points="235.5,-268 170.5,-268 170.5,-232 235.5,-232 235.5,-268"/>
<text text-anchor="middle" x="203" y="-247.5" font-family="serif" font-size="10.00">Problems</text>
</a>
</g>
</g>
<!-- dir_8adae1f873bcbbb5a35ca5b0e1951c17&#45;&gt;dir_965ceb73a91008e75bf87a86c0811e42 -->
<g id="edge24" class="edge">
<title>dir_8adae1f873bcbbb5a35ca5b0e1951c17&#45;&gt;dir_965ceb73a91008e75bf87a86c0811e42</title>
<path fill="none" stroke="black" d="M192.46,-303.7C194,-295.98 195.86,-286.71 197.58,-278.11"/>
<polygon fill="black" stroke="black" points="201.05,-278.6 199.58,-268.1 194.19,-277.22 201.05,-278.6"/>
<g id="a_edge24&#45;headlabel"><a xlink:href="dir_000029_000010.html" target="_top" xlink:title="1">
<text text-anchor="middle" x="203.13" y="-280.18" font-family="serif" font-size="10.00">1</text>
</a>
</g>
</g>
<!-- dir_965ceb73a91008e75bf87a86c0811e42&#45;&gt;dir_7b434ec32f216829926927df16f0381b -->
<g id="edge4" class="edge">
<title>dir_965ceb73a91008e75bf87a86c0811e42&#45;&gt;dir_7b434ec32f216829926927df16f0381b</title>
<path fill="none" stroke="black" d="M190.39,-231.7C184.4,-223.47 177.12,-213.48 170.52,-204.42"/>
<polygon fill="black" stroke="black" points="173.18,-202.13 164.46,-196.1 167.52,-206.25 173.18,-202.13"/>
<g id="a_edge4&#45;headlabel"><a xlink:href="dir_000010_000007.html" target="_top" xlink:title="1">
<text text-anchor="middle" x="177.59" y="-200.86" font-family="serif" font-size="10.00">1</text>
</a>
</g>
</g>
<!-- dir_c032d959549aafe62efcbd448707d983 -->
<g id="node7" class="node">
<title>dir_c032d959549aafe62efcbd448707d983</title>
<g id="a_node7"><a xlink:href="dir_c032d959549aafe62efcbd448707d983.html" target="_top" xlink:title="Variables">
<polygon fill="none" stroke="black" points="272.5,-124 209.5,-124 209.5,-88 272.5,-88 272.5,-124"/>
<text text-anchor="middle" x="241" y="-103.5" font-family="serif" font-size="10.00">Variables</text>
</a>
</g>
</g>
<!-- dir_965ceb73a91008e75bf87a86c0811e42&#45;&gt;dir_c032d959549aafe62efcbd448707d983 -->
<g id="edge5" class="edge">
<title>dir_965ceb73a91008e75bf87a86c0811e42&#45;&gt;dir_c032d959549aafe62efcbd448707d983</title>
<path fill="none" stroke="black" d="M207.58,-231.87C214.09,-207.56 226.06,-162.82 233.77,-134.01"/>
<polygon fill="black" stroke="black" points="237.2,-134.75 236.4,-124.19 230.43,-132.94 237.2,-134.75"/>
<g id="a_edge5&#45;headlabel"><a xlink:href="dir_000010_000032.html" target="_top" xlink:title="3">
<text text-anchor="middle" x="239.01" y="-136.46" font-family="serif" font-size="10.00">3</text>
</a>
</g>
</g>
<!-- dir_d1fdbacf2952101c0cb04843585fddf6 -->
<g id="node8" class="node">
<title>dir_d1fdbacf2952101c0cb04843585fddf6</title>
<g id="a_node8"><a xlink:href="dir_d1fdbacf2952101c0cb04843585fddf6.html" target="_top" xlink:title="PostProcessing">
<polygon fill="none" stroke="black" points="353.5,-196 260.5,-196 260.5,-160 353.5,-160 353.5,-196"/>
<text text-anchor="middle" x="307" y="-175.5" font-family="serif" font-size="10.00">PostProcessing</text>
</a>
</g>
</g>
<!-- dir_965ceb73a91008e75bf87a86c0811e42&#45;&gt;dir_d1fdbacf2952101c0cb04843585fddf6 -->
<g id="edge6" class="edge">
<title>dir_965ceb73a91008e75bf87a86c0811e42&#45;&gt;dir_d1fdbacf2952101c0cb04843585fddf6</title>
<path fill="none" stroke="black" d="M228.44,-231.88C241.79,-222.89 258.32,-211.76 272.78,-202.03"/>
<polygon fill="black" stroke="black" points="275.12,-204.68 281.46,-196.19 271.21,-198.87 275.12,-204.68"/>
<g id="a_edge6&#45;headlabel"><a xlink:href="dir_000010_000024.html" target="_top" xlink:title="3">
<text text-anchor="middle" x="273.72" y="-206.54" font-family="serif" font-size="10.00">3</text>
</a>
</g>
</g>
<!-- dir_e413f75bec04976993afadedd8ad09f5 -->
<g id="node9" class="node">
<title>dir_e413f75bec04976993afadedd8ad09f5</title>
<g id="a_node9"><a xlink:href="dir_e413f75bec04976993afadedd8ad09f5.html" target="_top" xlink:title="Convergence">
<polygon fill="none" stroke="black" points="456,-196 372,-196 372,-160 456,-160 456,-196"/>
<text text-anchor="middle" x="414" y="-175.5" font-family="serif" font-size="10.00">Convergence</text>
</a>
</g>
</g>
<!-- dir_965ceb73a91008e75bf87a86c0811e42&#45;&gt;dir_e413f75bec04976993afadedd8ad09f5 -->
<g id="edge7" class="edge">
<title>dir_965ceb73a91008e75bf87a86c0811e42&#45;&gt;dir_e413f75bec04976993afadedd8ad09f5</title>
<path fill="none" stroke="black" d="M235.79,-238.16C266.18,-228.11 312.9,-212.64 362.38,-196.2"/>
<polygon fill="black" stroke="black" points="363.59,-199.49 371.98,-193.01 361.38,-192.85 363.59,-199.49"/>
<g id="a_edge7&#45;headlabel"><a xlink:href="dir_000010_000014.html" target="_top" xlink:title="7">
<text text-anchor="middle" x="361.08" y="-200.82" font-family="serif" font-size="10.00">7</text>
</a>
</g>
</g>
<!-- dir_965ceb73a91008e75bf87a86c0811e42&#45;&gt;dir_eb1bcaaac1032b67f9df3118ac8c5353 -->
<g id="edge8" class="edge">
<title>dir_965ceb73a91008e75bf87a86c0811e42&#45;&gt;dir_eb1bcaaac1032b67f9df3118ac8c5353</title>
<path fill="none" stroke="black" d="M203.73,-231.72C203.84,-213.11 202.01,-183.08 191,-160 185.95,-149.42 178.01,-139.56 169.93,-131.28"/>
<polygon fill="black" stroke="black" points="172.17,-128.58 162.55,-124.15 167.31,-133.61 172.17,-128.58"/>
<g id="a_edge8&#45;headlabel"><a xlink:href="dir_000010_000012.html" target="_top" xlink:title="1">
<text text-anchor="middle" x="176.73" y="-126.54" font-family="serif" font-size="10.00">1</text>
</a>
</g>
</g>
<!-- dir_a427ffbe2ec72e9253dbe1d9e0b72aff -->
<g id="node6" class="node">
<title>dir_a427ffbe2ec72e9253dbe1d9e0b72aff</title>
<g id="a_node6"><a xlink:href="dir_a427ffbe2ec72e9253dbe1d9e0b72aff.html" target="_top" xlink:title="Operators">
<polygon fill="none" stroke="black" points="84,-196 16,-196 16,-160 84,-160 84,-196"/>
<text text-anchor="middle" x="50" y="-175.5" font-family="serif" font-size="10.00">Operators</text>
</a>
</g>
</g>
<!-- dir_a427ffbe2ec72e9253dbe1d9e0b72aff&#45;&gt;dir_5df7af9f6474348e88015f5803315ff2 -->
<g id="edge20" class="edge">
<title>dir_a427ffbe2ec72e9253dbe1d9e0b72aff&#45;&gt;dir_5df7af9f6474348e88015f5803315ff2</title>
<path fill="none" stroke="black" d="M54.09,-159.67C59.71,-139.57 71.76,-106.81 94,-88 133.53,-54.56 193.65,-42.22 232.38,-37.67"/>
<polygon fill="black" stroke="black" points="233.12,-41.11 242.7,-36.58 232.39,-34.14 233.12,-41.11"/>
<g id="a_edge20&#45;headlabel"><a xlink:href="dir_000021_000028.html" target="_top" xlink:title="3">
<text text-anchor="middle" x="229.85" y="-41.81" font-family="serif" font-size="10.00">3</text>
</a>
</g>
</g>
<!-- dir_a427ffbe2ec72e9253dbe1d9e0b72aff&#45;&gt;dir_c032d959549aafe62efcbd448707d983 -->
<g id="edge21" class="edge">
<title>dir_a427ffbe2ec72e9253dbe1d9e0b72aff&#45;&gt;dir_c032d959549aafe62efcbd448707d983</title>
<path fill="none" stroke="black" d="M84.15,-164.49C116.47,-152.64 165.06,-134.83 199.59,-122.18"/>
<polygon fill="black" stroke="black" points="201.18,-125.32 209.37,-118.59 198.77,-118.75 201.18,-125.32"/>
<g id="a_edge21&#45;headlabel"><a xlink:href="dir_000021_000032.html" target="_top" xlink:title="3">
<text text-anchor="middle" x="198.79" y="-126.72" font-family="serif" font-size="10.00">3</text>
</a>
</g>
</g>
<!-- dir_a427ffbe2ec72e9253dbe1d9e0b72aff&#45;&gt;dir_eb1bcaaac1032b67f9df3118ac8c5353 -->
<g id="edge22" class="edge">
<title>dir_a427ffbe2ec72e9253dbe1d9e0b72aff&#45;&gt;dir_eb1bcaaac1032b67f9df3118ac8c5353</title>
<path fill="none" stroke="black" d="M72.49,-159.7C83.96,-150.88 98.06,-140.03 110.48,-130.47"/>
<polygon fill="black" stroke="black" points="112.97,-132.98 118.76,-124.1 108.7,-127.43 112.97,-132.98"/>
<g id="a_edge22&#45;headlabel"><a xlink:href="dir_000021_000012.html" target="_top" xlink:title="1">
<text text-anchor="middle" x="111.85" y="-134.92" font-family="serif" font-size="10.00">1</text>
</a>
</g>
</g>
<!-- dir_c032d959549aafe62efcbd448707d983&#45;&gt;dir_5df7af9f6474348e88015f5803315ff2 -->
<g id="edge1" class="edge">
<title>dir_c032d959549aafe62efcbd448707d983&#45;&gt;dir_5df7af9f6474348e88015f5803315ff2</title>
<path fill="none" stroke="black" d="M248.17,-87.7C251.43,-79.81 255.37,-70.3 259,-61.55"/>
<polygon fill="black" stroke="black" points="262.32,-62.68 262.91,-52.1 255.85,-60 262.32,-62.68"/>
<g id="a_edge1&#45;headlabel"><a xlink:href="dir_000032_000028.html" target="_top" xlink:title="1">
<text text-anchor="middle" x="263.57" y="-64.59" font-family="serif" font-size="10.00">1</text>
</a>
</g>
</g>
<!-- dir_d1fdbacf2952101c0cb04843585fddf6&#45;&gt;dir_5df7af9f6474348e88015f5803315ff2 -->
<g id="edge2" class="edge">
<title>dir_d1fdbacf2952101c0cb04843585fddf6&#45;&gt;dir_5df7af9f6474348e88015f5803315ff2</title>
<path fill="none" stroke="black" d="M302.54,-159.87C296.2,-135.56 284.54,-90.82 277.04,-62.01"/>
<polygon fill="black" stroke="black" points="280.39,-60.98 274.48,-52.19 273.61,-62.75 280.39,-60.98"/>
<g id="a_edge2&#45;headlabel"><a xlink:href="dir_000024_000028.html" target="_top" xlink:title="1">
<text text-anchor="middle" x="284.04" y="-61.25" font-family="serif" font-size="10.00">1</text>
</a>
</g>
</g>
<!-- dir_d1fdbacf2952101c0cb04843585fddf6&#45;&gt;dir_c032d959549aafe62efcbd448707d983 -->
<g id="edge3" class="edge">
<title>dir_d1fdbacf2952101c0cb04843585fddf6&#45;&gt;dir_c032d959549aafe62efcbd448707d983</title>
<path fill="none" stroke="black" d="M290.69,-159.7C282.69,-151.22 272.93,-140.86 264.18,-131.58"/>
<polygon fill="black" stroke="black" points="266.53,-128.98 257.13,-124.1 261.44,-133.78 266.53,-128.98"/>
<g id="a_edge3&#45;headlabel"><a xlink:href="dir_000024_000032.html" target="_top" xlink:title="2">
<text text-anchor="middle" x="271.07" y="-127.15" font-family="serif" font-size="10.00">2</text>
</a>
</g>
</g>
<!-- dir_f40ee04a696d44f4ec44c0bc998bbedd -->
<g id="node11" class="node">
<title>dir_f40ee04a696d44f4ec44c0bc998bbedd</title>
<g id="a_node11"><a xlink:href="dir_f40ee04a696d44f4ec44c0bc998bbedd.html" target="_top" xlink:title="Property">
<polygon fill="none" stroke="black" points="475.5,-340 414.5,-340 414.5,-304 475.5,-304 475.5,-340"/>
<text text-anchor="middle" x="445" y="-319.5" font-family="serif" font-size="10.00">Property</text>
</a>
</g>
</g>
<!-- dir_d651e8aba512ab36ba48cc7eb6edfe46 -->
<g id="node12" class="node">
<title>dir_d651e8aba512ab36ba48cc7eb6edfe46</title>
<g id="a_node12"><a xlink:href="dir_d651e8aba512ab36ba48cc7eb6edfe46.html" target="_top" xlink:title="Sloth">
<polygon fill="#eeeeff" stroke="black" points="262,-412 208,-412 208,-376 262,-376 262,-412"/>
<text text-anchor="middle" x="235" y="-391.5" font-family="serif" font-size="10.00">Sloth</text>
</a>
</g>
</g>
<!-- dir_d651e8aba512ab36ba48cc7eb6edfe46&#45;&gt;dir_5df7af9f6474348e88015f5803315ff2 -->
<g id="edge9" class="edge">
<title>dir_d651e8aba512ab36ba48cc7eb6edfe46&#45;&gt;dir_5df7af9f6474348e88015f5803315ff2</title>
<path fill="none" stroke="black" d="M262.28,-379.85C313.54,-353.4 422.87,-288.31 465,-196 500.02,-119.26 372.63,-67.02 306.89,-45.73"/>
<polygon fill="black" stroke="black" points="307.87,-42.37 297.28,-42.7 305.77,-49.05 307.87,-42.37"/>
<g id="a_edge9&#45;headlabel"><a xlink:href="dir_000026_000028.html" target="_top" xlink:title="1">
<text text-anchor="middle" x="312.16" y="-38.25" font-family="serif" font-size="10.00">1</text>
</a>
</g>
</g>
<!-- dir_d651e8aba512ab36ba48cc7eb6edfe46&#45;&gt;dir_6a0e15dd18d578a57902bf4501958f48 -->
<g id="edge10" class="edge">
<title>dir_d651e8aba512ab36ba48cc7eb6edfe46&#45;&gt;dir_6a0e15dd18d578a57902bf4501958f48</title>
<path fill="none" stroke="black" d="M207.75,-381.44C182.15,-370.58 143.4,-354.14 113.52,-341.46"/>
<polygon fill="black" stroke="black" points="114.73,-338.17 104.16,-337.49 112,-344.62 114.73,-338.17"/>
<g id="a_edge10&#45;headlabel"><a xlink:href="dir_000026_000015.html" target="_top" xlink:title="1">
<text text-anchor="middle" x="119.15" y="-334.46" font-family="serif" font-size="10.00">1</text>
</a>
</g>
</g>
<!-- dir_d651e8aba512ab36ba48cc7eb6edfe46&#45;&gt;dir_7b434ec32f216829926927df16f0381b -->
<g id="edge11" class="edge">
<title>dir_d651e8aba512ab36ba48cc7eb6edfe46&#45;&gt;dir_7b434ec32f216829926927df16f0381b</title>
<path fill="none" stroke="black" d="M207.99,-383.56C188.88,-375.3 164.66,-361.25 153,-340 129.96,-297.98 137.33,-240.03 144.71,-206.34"/>
<polygon fill="black" stroke="black" points="148.19,-206.84 147.07,-196.3 141.38,-205.23 148.19,-206.84"/>
<g id="a_edge11&#45;headlabel"><a xlink:href="dir_000026_000007.html" target="_top" xlink:title="3">
<text text-anchor="middle" x="150.13" y="-208.48" font-family="serif" font-size="10.00">3</text>
</a>
</g>
</g>
<!-- dir_d651e8aba512ab36ba48cc7eb6edfe46&#45;&gt;dir_8adae1f873bcbbb5a35ca5b0e1951c17 -->
<g id="edge12" class="edge">
<title>dir_d651e8aba512ab36ba48cc7eb6edfe46&#45;&gt;dir_8adae1f873bcbbb5a35ca5b0e1951c17</title>
<path fill="none" stroke="black" d="M223.63,-375.7C218.28,-367.56 211.8,-357.69 205.89,-348.7"/>
<polygon fill="black" stroke="black" points="208.66,-346.54 200.24,-340.1 202.81,-350.38 208.66,-346.54"/>
<g id="a_edge12&#45;headlabel"><a xlink:href="dir_000026_000029.html" target="_top" xlink:title="1">
<text text-anchor="middle" x="213" y="-345.48" font-family="serif" font-size="10.00">1</text>
</a>
</g>
</g>
<!-- dir_d651e8aba512ab36ba48cc7eb6edfe46&#45;&gt;dir_965ceb73a91008e75bf87a86c0811e42 -->
<g id="edge13" class="edge">
<title>dir_d651e8aba512ab36ba48cc7eb6edfe46&#45;&gt;dir_965ceb73a91008e75bf87a86c0811e42</title>
<path fill="none" stroke="black" d="M234.49,-375.68C233.63,-357.55 231.3,-328.39 225,-304 222.71,-295.13 219.22,-285.78 215.7,-277.46"/>
<polygon fill="black" stroke="black" points="218.86,-275.96 211.61,-268.24 212.46,-278.8 218.86,-275.96"/>
<g id="a_edge13&#45;headlabel"><a xlink:href="dir_000026_000010.html" target="_top" xlink:title="1">
<text text-anchor="middle" x="222.92" y="-275.6" font-family="serif" font-size="10.00">1</text>
</a>
</g>
</g>
<!-- dir_d651e8aba512ab36ba48cc7eb6edfe46&#45;&gt;dir_a427ffbe2ec72e9253dbe1d9e0b72aff -->
<g id="edge14" class="edge">
<title>dir_d651e8aba512ab36ba48cc7eb6edfe46&#45;&gt;dir_a427ffbe2ec72e9253dbe1d9e0b72aff</title>
<path fill="none" stroke="black" d="M207.82,-390.16C156.64,-384.18 49.12,-368.47 27,-340 -3.41,-300.87 18.69,-239.73 35.59,-205.14"/>
<polygon fill="black" stroke="black" points="38.76,-206.63 40.17,-196.13 32.52,-203.46 38.76,-206.63"/>
<g id="a_edge14&#45;headlabel"><a xlink:href="dir_000026_000021.html" target="_top" xlink:title="1">
<text text-anchor="middle" x="39.66" y="-208.62" font-family="serif" font-size="10.00">1</text>
</a>
</g>
</g>
<!-- dir_d651e8aba512ab36ba48cc7eb6edfe46&#45;&gt;dir_c032d959549aafe62efcbd448707d983 -->
<g id="edge15" class="edge">
<title>dir_d651e8aba512ab36ba48cc7eb6edfe46&#45;&gt;dir_c032d959549aafe62efcbd448707d983</title>
<path fill="none" stroke="black" d="M236.83,-375.64C239.27,-351.52 243.46,-306.5 245,-268 246.87,-221.27 244.59,-166.87 242.78,-134.77"/>
<polygon fill="black" stroke="black" points="246.25,-134.17 242.17,-124.4 239.26,-134.59 246.25,-134.17"/>
<g id="a_edge15&#45;headlabel"><a xlink:href="dir_000026_000032.html" target="_top" xlink:title="2">
<text text-anchor="middle" x="249.3" y="-135.1" font-family="serif" font-size="10.00">2</text>
</a>
</g>
</g>
<!-- dir_d651e8aba512ab36ba48cc7eb6edfe46&#45;&gt;dir_d1fdbacf2952101c0cb04843585fddf6 -->
<g id="edge16" class="edge">
<title>dir_d651e8aba512ab36ba48cc7eb6edfe46&#45;&gt;dir_d1fdbacf2952101c0cb04843585fddf6</title>
<path fill="none" stroke="black" d="M244.04,-375.63C249.13,-365.43 255.38,-352.18 260,-340 277.44,-294.01 292.32,-238.62 300.44,-206.26"/>
<polygon fill="black" stroke="black" points="303.92,-206.76 302.92,-196.21 297.12,-205.08 303.92,-206.76"/>
<g id="a_edge16&#45;headlabel"><a xlink:href="dir_000026_000024.html" target="_top" xlink:title="1">
<text text-anchor="middle" x="305.81" y="-208.43" font-family="serif" font-size="10.00">1</text>
</a>
</g>
</g>
<!-- dir_d651e8aba512ab36ba48cc7eb6edfe46&#45;&gt;dir_e413f75bec04976993afadedd8ad09f5 -->
<g id="edge17" class="edge">
<title>dir_d651e8aba512ab36ba48cc7eb6edfe46&#45;&gt;dir_e413f75bec04976993afadedd8ad09f5</title>
<path fill="none" stroke="black" d="M249.35,-375.85C280.83,-338.21 356.12,-248.2 392.96,-204.15"/>
<polygon fill="black" stroke="black" points="395.85,-206.15 399.59,-196.23 390.49,-201.66 395.85,-206.15"/>
<g id="a_edge17&#45;headlabel"><a xlink:href="dir_000026_000014.html" target="_top" xlink:title="2">
<text text-anchor="middle" x="395.73" y="-208.23" font-family="serif" font-size="10.00">2</text>
</a>
</g>
</g>
<!-- dir_d651e8aba512ab36ba48cc7eb6edfe46&#45;&gt;dir_eb1bcaaac1032b67f9df3118ac8c5353 -->
<g id="edge18" class="edge">
<title>dir_d651e8aba512ab36ba48cc7eb6edfe46&#45;&gt;dir_eb1bcaaac1032b67f9df3118ac8c5353</title>
<path fill="none" stroke="black" d="M207.73,-385.85C184.8,-378.34 153.11,-364.2 136,-340 89.47,-274.19 95.19,-238.37 114,-160 116.21,-150.81 120.29,-141.41 124.62,-133.13"/>
<polygon fill="black" stroke="black" points="127.72,-134.77 129.53,-124.33 121.6,-131.36 127.72,-134.77"/>
<g id="a_edge18&#45;headlabel"><a xlink:href="dir_000026_000012.html" target="_top" xlink:title="1">
<text text-anchor="middle" x="128.44" y="-136.79" font-family="serif" font-size="10.00">1</text>
</a>
</g>
</g>
<!-- dir_d651e8aba512ab36ba48cc7eb6edfe46&#45;&gt;dir_f40ee04a696d44f4ec44c0bc998bbedd -->
<g id="edge19" class="edge">
<title>dir_d651e8aba512ab36ba48cc7eb6edfe46&#45;&gt;dir_f40ee04a696d44f4ec44c0bc998bbedd</title>
<path fill="none" stroke="black" d="M262,-384.78C294.79,-374.7 351.71,-356.86 400,-340 401.43,-339.5 402.88,-338.99 404.35,-338.46"/>
<polygon fill="black" stroke="black" points="405.89,-341.63 414.09,-334.91 403.5,-335.05 405.89,-341.63"/>
<g id="a_edge19&#45;headlabel"><a xlink:href="dir_000026_000020.html" target="_top" xlink:title="2">
<text text-anchor="middle" x="403.49" y="-343.02" font-family="serif" font-size="10.00">2</text>
</a>
</g>
</g>
</g>
</svg>
        <g id="navigator" transform="translate(0 0)" fill="#404254">
                <rect fill="#f2f5e9" fill-opacity="0.5" stroke="#606060" stroke-width=".5" x="0" y="0" width="60" height="60"/>
                <use id="zoomplus" xlink:href="#zoomPlus" x="17" y="9" onmousedown="handleZoom(evt,'in')"/>
                <use id="zoomminus" xlink:href="#zoomMin" x="42" y="9" onmousedown="handleZoom(evt,'out')"/>
                <use id="reset" xlink:href="#resetDef" x="30" y="36" onmousedown="handleReset()"/>
                <g id="arrowUp" xlink:href="#dirArrow" transform="translate(30 24)" onmousedown="handlePan(0,-1)">
                  <use xlink:href="#rim" fill="#404040">
                        <set attributeName="fill" to="#808080" begin="arrowUp.mouseover" end="arrowUp.mouseout"/>
                  </use>
                  <path fill="none" stroke="white" stroke-width="1.5" d="M0,-3.0v7 M-2.5,-0.5L0,-3.0L2.5,-0.5"/>
                </g>
                <g id="arrowRight" xlink:href="#dirArrow" transform="rotate(90) translate(36 -43)" onmousedown="handlePan(1,0)">
                  <use xlink:href="#rim" fill="#404040">
                        <set attributeName="fill" to="#808080" begin="arrowRight.mouseover" end="arrowRight.mouseout"/>
                  </use>
                  <path fill="none" stroke="white" stroke-width="1.5" d="M0,-3.0v7 M-2.5,-0.5L0,-3.0L2.5,-0.5"/>
                </g>
                <g id="arrowDown" xlink:href="#dirArrow" transform="rotate(180) translate(-30 -48)" onmousedown="handlePan(0,1)">
                  <use xlink:href="#rim" fill="#404040">
                        <set attributeName="fill" to="#808080" begin="arrowDown.mouseover" end="arrowDown.mouseout"/>
                  </use>
                  <path fill="none" stroke="white" stroke-width="1.5" d="M0,-3.0v7 M-2.5,-0.5L0,-3.0L2.5,-0.5"/>
                </g>
                <g id="arrowLeft" xlink:href="#dirArrow" transform="rotate(270) translate(-36 17)" onmousedown="handlePan(-1,0)">
                  <use xlink:href="#rim" fill="#404040">
                        <set attributeName="fill" to="#808080" begin="arrowLeft.mouseover" end="arrowLeft.mouseout"/>
                  </use>
                  <path fill="none" stroke="white" stroke-width="1.5" d="M0,-3.0v7 M-2.5,-0.5L0,-3.0L2.5,-0.5"/>
                </g>
        </g>
        <svg viewBox="0 0 15 15" width="100%" height="30px" preserveAspectRatio="xMaxYMin meet">
         <g id="arrow_out" transform="scale(0.3 0.3)">
          <a xlink:href="dir_d651e8aba512ab36ba48cc7eb6edfe46_dep_org.svg" target="_base">
           <rect id="button" ry="5" rx="5" y="6" x="6" height="38" width="38"
                fill="#f2f5e9" fill-opacity="0.5" stroke="#606060" stroke-width="1.0"/>
           <path id="arrow"
             d="M 11.500037,31.436501 C 11.940474,20.09759 22.043105,11.32322 32.158766,21.979434 L 37.068811,17.246167 C 37.068811,17.246167 37.088388,32 37.088388,32 L 22.160133,31.978069 C 22.160133,31.978069 26.997745,27.140456 26.997745,27.140456 C 18.528582,18.264221 13.291696,25.230495 11.500037,31.436501 z"
             style="fill:#404040;"/>
          </a>
         </g>
        </svg>
</svg>
