<?xml version="1.0" encoding="UTF-8" standalone="no"?>
<!DOCTYPE svg PUBLIC "-//W3C//DTD SVG 1.1//EN"
 "http://www.w3.org/Graphics/SVG/1.1/DTD/svg11.dtd">
<!-- Generated by graphviz version 2.43.0 (0)
 -->
<!-- Title: Operators Pages: 1 -->
<svg width="576pt" height="455pt"
 viewBox="0.00 0.00 576.00 455.00" xmlns="http://www.w3.org/2000/svg" xmlns:xlink="http://www.w3.org/1999/xlink">
<g id="graph0" class="graph" transform="scale(1 1) rotate(0) translate(4 451)">
<title>Operators</title>
<g id="clust1" class="cluster">
<title>clusterdir_009f605b833ac4622acd6c3c0c26c0f0</title>
<g id="a_clust1"><a xlink:href="dir_009f605b833ac4622acd6c3c0c26c0f0.html" target="_top" xlink:title="include">
<polygon fill="#ddddee" stroke="black" points="8,-8 8,-439 560,-439 560,-8 8,-8"/>
<text text-anchor="middle" x="284" y="-427" font-family="serif" font-size="10.00">include</text>
</a>
</g>
</g>
<!-- dir_184b109a86d3f32ed165e8c995e7a4b9 -->
<g id="node1" class="node">
<title>dir_184b109a86d3f32ed165e8c995e7a4b9</title>
<g id="a_node1"><a xlink:href="dir_184b109a86d3f32ed165e8c995e7a4b9.html" target="_top" xlink:title="AnalyticalFunctions">
<polygon fill="none" stroke="black" points="419.5,-196 302.5,-196 302.5,-160 419.5,-160 419.5,-196"/>
<text text-anchor="middle" x="361" y="-175.5" font-family="serif" font-size="10.00">AnalyticalFunctions</text>
</a>
</g>
</g>
<!-- dir_891ea87c6e6d1f8e94fb23e54b4dc7cd -->
<g id="node5" class="node">
<title>dir_891ea87c6e6d1f8e94fb23e54b4dc7cd</title>
<g id="a_node5"><a xlink:href="dir_891ea87c6e6d1f8e94fb23e54b4dc7cd.html" target="_top" xlink:title="Options">
<polygon fill="none" stroke="black" points="282,-124 226,-124 226,-88 282,-88 282,-124"/>
<text text-anchor="middle" x="254" y="-103.5" font-family="serif" font-size="10.00">Options</text>
</a>
</g>
</g>
<!-- dir_184b109a86d3f32ed165e8c995e7a4b9&#45;&gt;dir_891ea87c6e6d1f8e94fb23e54b4dc7cd -->
<g id="edge8" class="edge">
<title>dir_184b109a86d3f32ed165e8c995e7a4b9&#45;&gt;dir_891ea87c6e6d1f8e94fb23e54b4dc7cd</title>
<path fill="none" stroke="black" d="M334.82,-159.88C320.96,-150.81 303.76,-139.55 288.79,-129.76"/>
<polygon fill="black" stroke="black" points="290.56,-126.74 280.28,-124.19 286.73,-132.59 290.56,-126.74"/>
<g id="a_edge8&#45;headlabel"><a xlink:href="dir_000006_000005.html" target="_top" xlink:title="1">
<text text-anchor="middle" x="295.12" y="-123.83" font-family="serif" font-size="10.00">1</text>
</a>
</g>
</g>
<!-- dir_97cd71bc012adc9145264269177778ae -->
<g id="node7" class="node">
<title>dir_97cd71bc012adc9145264269177778ae</title>
<g id="a_node7"><a xlink:href="dir_97cd71bc012adc9145264269177778ae.html" target="_top" xlink:title="Utils">
<polygon fill="none" stroke="black" points="434,-52 380,-52 380,-16 434,-16 434,-52"/>
<text text-anchor="middle" x="407" y="-31.5" font-family="serif" font-size="10.00">Utils</text>
</a>
</g>
</g>
<!-- dir_184b109a86d3f32ed165e8c995e7a4b9&#45;&gt;dir_97cd71bc012adc9145264269177778ae -->
<g id="edge9" class="edge">
<title>dir_184b109a86d3f32ed165e8c995e7a4b9&#45;&gt;dir_97cd71bc012adc9145264269177778ae</title>
<path fill="none" stroke="black" d="M366.55,-159.87C374.42,-135.56 388.92,-90.82 398.25,-62.01"/>
<polygon fill="black" stroke="black" points="401.68,-62.78 401.43,-52.19 395.02,-60.62 401.68,-62.78"/>
<g id="a_edge9&#45;headlabel"><a xlink:href="dir_000006_000030.html" target="_top" xlink:title="1">
<text text-anchor="middle" x="403.27" y="-64.58" font-family="serif" font-size="10.00">1</text>
</a>
</g>
</g>
<!-- dir_3f3ce32f10c2af7ad8f9b7c5f5af7ee0 -->
<g id="node2" class="node">
<title>dir_3f3ce32f10c2af7ad8f9b7c5f5af7ee0</title>
<g id="a_node2"><a xlink:href="dir_3f3ce32f10c2af7ad8f9b7c5f5af7ee0.html" target="_top" xlink:title="Integrators">
<polygon fill="none" stroke="black" points="206,-268 132,-268 132,-232 206,-232 206,-268"/>
<text text-anchor="middle" x="169" y="-247.5" font-family="serif" font-size="10.00">Integrators</text>
</a>
</g>
</g>
<!-- dir_3f3ce32f10c2af7ad8f9b7c5f5af7ee0&#45;&gt;dir_891ea87c6e6d1f8e94fb23e54b4dc7cd -->
<g id="edge26" class="edge">
<title>dir_3f3ce32f10c2af7ad8f9b7c5f5af7ee0&#45;&gt;dir_891ea87c6e6d1f8e94fb23e54b4dc7cd</title>
<path fill="none" stroke="black" d="M166.97,-231.97C165.56,-213.05 165.87,-182.22 179,-160 187.87,-145 202.84,-133.14 217.08,-124.48"/>
<polygon fill="black" stroke="black" points="218.85,-127.5 225.79,-119.51 215.37,-121.43 218.85,-127.5"/>
<g id="a_edge26&#45;headlabel"><a xlink:href="dir_000002_000005.html" target="_top" xlink:title="5">
<text text-anchor="middle" x="217.13" y="-129.25" font-family="serif" font-size="10.00">5</text>
</a>
</g>
</g>
<!-- dir_91c9bd6d2116d1df73605922efc3dea0 -->
<g id="node6" class="node">
<title>dir_91c9bd6d2116d1df73605922efc3dea0</title>
<g id="a_node6"><a xlink:href="dir_91c9bd6d2116d1df73605922efc3dea0.html" target="_top" xlink:title="Parameters">
<polygon fill="none" stroke="black" points="130,-196 56,-196 56,-160 130,-160 130,-196"/>
<text text-anchor="middle" x="93" y="-175.5" font-family="serif" font-size="10.00">Parameters</text>
</a>
</g>
</g>
<!-- dir_3f3ce32f10c2af7ad8f9b7c5f5af7ee0&#45;&gt;dir_91c9bd6d2116d1df73605922efc3dea0 -->
<g id="edge27" class="edge">
<title>dir_3f3ce32f10c2af7ad8f9b7c5f5af7ee0&#45;&gt;dir_91c9bd6d2116d1df73605922efc3dea0</title>
<path fill="none" stroke="black" d="M150.21,-231.7C140.83,-223.05 129.32,-212.45 119.09,-203.03"/>
<polygon fill="black" stroke="black" points="121.3,-200.3 111.57,-196.1 116.55,-205.45 121.3,-200.3"/>
<g id="a_edge27&#45;headlabel"><a xlink:href="dir_000002_000023.html" target="_top" xlink:title="30">
<text text-anchor="middle" x="125.86" y="-198.15" font-family="serif" font-size="10.00">30</text>
</a>
</g>
</g>
<!-- dir_3f3ce32f10c2af7ad8f9b7c5f5af7ee0&#45;&gt;dir_97cd71bc012adc9145264269177778ae -->
<g id="edge28" class="edge">
<title>dir_3f3ce32f10c2af7ad8f9b7c5f5af7ee0&#45;&gt;dir_97cd71bc012adc9145264269177778ae</title>
<path fill="none" stroke="black" d="M164.04,-231.78C159.63,-213.48 155.02,-183.95 163,-160 175.65,-122.05 183.98,-110.57 217,-88 263.68,-56.09 329.19,-43.29 369.82,-38.23"/>
<polygon fill="black" stroke="black" points="370.3,-41.7 379.83,-37.08 369.5,-34.74 370.3,-41.7"/>
<g id="a_edge28&#45;headlabel"><a xlink:href="dir_000002_000030.html" target="_top" xlink:title="16">
<text text-anchor="middle" x="367.05" y="-42.43" font-family="serif" font-size="10.00">16</text>
</a>
</g>
</g>
<!-- dir_eb1bcaaac1032b67f9df3118ac8c5353 -->
<g id="node10" class="node">
<title>dir_eb1bcaaac1032b67f9df3118ac8c5353</title>
<g id="a_node10"><a xlink:href="dir_eb1bcaaac1032b67f9df3118ac8c5353.html" target="_top" xlink:title="Coefficients">
<polygon fill="none" stroke="black" points="264,-196 188,-196 188,-160 264,-160 264,-196"/>
<text text-anchor="middle" x="226" y="-175.5" font-family="serif" font-size="10.00">Coefficients</text>
</a>
</g>
</g>
<!-- dir_3f3ce32f10c2af7ad8f9b7c5f5af7ee0&#45;&gt;dir_eb1bcaaac1032b67f9df3118ac8c5353 -->
<g id="edge29" class="edge">
<title>dir_3f3ce32f10c2af7ad8f9b7c5f5af7ee0&#45;&gt;dir_eb1bcaaac1032b67f9df3118ac8c5353</title>
<path fill="none" stroke="black" d="M183.09,-231.7C189.92,-223.3 198.26,-213.07 205.76,-203.86"/>
<polygon fill="black" stroke="black" points="208.47,-206.07 212.07,-196.1 203.04,-201.65 208.47,-206.07"/>
<g id="a_edge29&#45;headlabel"><a xlink:href="dir_000002_000012.html" target="_top" xlink:title="11">
<text text-anchor="middle" x="208.4" y="-208.15" font-family="serif" font-size="10.00">11</text>
</a>
</g>
</g>
<!-- dir_5df7af9f6474348e88015f5803315ff2 -->
<g id="node3" class="node">
<title>dir_5df7af9f6474348e88015f5803315ff2</title>
<g id="a_node3"><a xlink:href="dir_5df7af9f6474348e88015f5803315ff2.html" target="_top" xlink:title="Spatial">
<polygon fill="none" stroke="black" points="492,-196 438,-196 438,-160 492,-160 492,-196"/>
<text text-anchor="middle" x="465" y="-175.5" font-family="serif" font-size="10.00">Spatial</text>
</a>
</g>
</g>
<!-- dir_5df7af9f6474348e88015f5803315ff2&#45;&gt;dir_891ea87c6e6d1f8e94fb23e54b4dc7cd -->
<g id="edge10" class="edge">
<title>dir_5df7af9f6474348e88015f5803315ff2&#45;&gt;dir_891ea87c6e6d1f8e94fb23e54b4dc7cd</title>
<path fill="none" stroke="black" d="M437.66,-163.58C434.76,-162.31 431.84,-161.09 429,-160 382.76,-142.19 327.85,-126.4 292.03,-116.78"/>
<polygon fill="black" stroke="black" points="292.57,-113.3 282.01,-114.12 290.77,-120.07 292.57,-113.3"/>
<g id="a_edge10&#45;headlabel"><a xlink:href="dir_000028_000005.html" target="_top" xlink:title="1">
<text text-anchor="middle" x="296.77" y="-108.98" font-family="serif" font-size="10.00">1</text>
</a>
</g>
</g>
<!-- dir_5df7af9f6474348e88015f5803315ff2&#45;&gt;dir_97cd71bc012adc9145264269177778ae -->
<g id="edge11" class="edge">
<title>dir_5df7af9f6474348e88015f5803315ff2&#45;&gt;dir_97cd71bc012adc9145264269177778ae</title>
<path fill="none" stroke="black" d="M458,-159.87C448.03,-135.46 429.64,-90.43 417.88,-61.64"/>
<polygon fill="black" stroke="black" points="421.04,-60.12 414.02,-52.19 414.56,-62.77 421.04,-60.12"/>
<g id="a_edge11&#45;headlabel"><a xlink:href="dir_000028_000030.html" target="_top" xlink:title="1">
<text text-anchor="middle" x="425.03" y="-59.88" font-family="serif" font-size="10.00">1</text>
</a>
</g>
</g>
<!-- dir_64fc8d0c977472725ead506290358a75 -->
<g id="node4" class="node">
<title>dir_64fc8d0c977472725ead506290358a75</title>
<g id="a_node4"><a xlink:href="dir_64fc8d0c977472725ead506290358a75.html" target="_top" xlink:title="BCs">
<polygon fill="none" stroke="black" points="532,-268 478,-268 478,-232 532,-232 532,-268"/>
<text text-anchor="middle" x="505" y="-247.5" font-family="serif" font-size="10.00">BCs</text>
</a>
</g>
</g>
<!-- dir_64fc8d0c977472725ead506290358a75&#45;&gt;dir_5df7af9f6474348e88015f5803315ff2 -->
<g id="edge1" class="edge">
<title>dir_64fc8d0c977472725ead506290358a75&#45;&gt;dir_5df7af9f6474348e88015f5803315ff2</title>
<path fill="none" stroke="black" d="M495.11,-231.7C490.51,-223.64 484.94,-213.89 479.85,-204.98"/>
<polygon fill="black" stroke="black" points="482.77,-203.05 474.77,-196.1 476.7,-206.52 482.77,-203.05"/>
<g id="a_edge1&#45;headlabel"><a xlink:href="dir_000009_000028.html" target="_top" xlink:title="2">
<text text-anchor="middle" x="487.02" y="-202.26" font-family="serif" font-size="10.00">2</text>
</a>
</g>
</g>
<!-- dir_64fc8d0c977472725ead506290358a75&#45;&gt;dir_97cd71bc012adc9145264269177778ae -->
<g id="edge2" class="edge">
<title>dir_64fc8d0c977472725ead506290358a75&#45;&gt;dir_97cd71bc012adc9145264269177778ae</title>
<path fill="none" stroke="black" d="M512.26,-231.91C524.29,-200.66 544.38,-133.36 516,-88 500.4,-63.07 469.35,-49.57 444.37,-42.44"/>
<polygon fill="black" stroke="black" points="445,-38.99 434.44,-39.85 443.23,-45.76 445,-38.99"/>
<g id="a_edge2&#45;headlabel"><a xlink:href="dir_000009_000030.html" target="_top" xlink:title="2">
<text text-anchor="middle" x="449.2" y="-34.65" font-family="serif" font-size="10.00">2</text>
</a>
</g>
</g>
<!-- dir_891ea87c6e6d1f8e94fb23e54b4dc7cd&#45;&gt;dir_97cd71bc012adc9145264269177778ae -->
<g id="edge30" class="edge">
<title>dir_891ea87c6e6d1f8e94fb23e54b4dc7cd&#45;&gt;dir_97cd71bc012adc9145264269177778ae</title>
<path fill="none" stroke="black" d="M282.06,-92.16C306.99,-80.76 343.57,-64.02 370.71,-51.6"/>
<polygon fill="black" stroke="black" points="372.25,-54.75 379.89,-47.4 369.34,-48.38 372.25,-54.75"/>
<g id="a_edge30&#45;headlabel"><a xlink:href="dir_000005_000030.html" target="_top" xlink:title="12">
<text text-anchor="middle" x="370.16" y="-56.33" font-family="serif" font-size="10.00">12</text>
</a>
</g>
</g>
<!-- dir_91c9bd6d2116d1df73605922efc3dea0&#45;&gt;dir_891ea87c6e6d1f8e94fb23e54b4dc7cd -->
<g id="edge15" class="edge">
<title>dir_91c9bd6d2116d1df73605922efc3dea0&#45;&gt;dir_891ea87c6e6d1f8e94fb23e54b4dc7cd</title>
<path fill="none" stroke="black" d="M130.34,-160.76C156.21,-149.52 190.51,-134.6 216.42,-123.34"/>
<polygon fill="black" stroke="black" points="218.13,-126.41 225.91,-119.21 215.34,-119.99 218.13,-126.41"/>
<g id="a_edge15&#45;headlabel"><a xlink:href="dir_000023_000005.html" target="_top" xlink:title="1">
<text text-anchor="middle" x="215.97" y="-127.95" font-family="serif" font-size="10.00">1</text>
</a>
</g>
</g>
<!-- dir_c032d959549aafe62efcbd448707d983 -->
<g id="node8" class="node">
<title>dir_c032d959549aafe62efcbd448707d983</title>
<g id="a_node8"><a xlink:href="dir_c032d959549aafe62efcbd448707d983.html" target="_top" xlink:title="Variables">
<polygon fill="none" stroke="black" points="470.5,-340 407.5,-340 407.5,-304 470.5,-304 470.5,-340"/>
<text text-anchor="middle" x="439" y="-319.5" font-family="serif" font-size="10.00">Variables</text>
</a>
</g>
</g>
<!-- dir_c032d959549aafe62efcbd448707d983&#45;&gt;dir_184b109a86d3f32ed165e8c995e7a4b9 -->
<g id="edge3" class="edge">
<title>dir_c032d959549aafe62efcbd448707d983&#45;&gt;dir_184b109a86d3f32ed165e8c995e7a4b9</title>
<path fill="none" stroke="black" d="M429.59,-303.87C416.12,-279.35 391.23,-234.03 375.42,-205.26"/>
<polygon fill="black" stroke="black" points="378.32,-203.27 370.44,-196.19 372.19,-206.64 378.32,-203.27"/>
<g id="a_edge3&#45;headlabel"><a xlink:href="dir_000032_000006.html" target="_top" xlink:title="1">
<text text-anchor="middle" x="382.54" y="-202.55" font-family="serif" font-size="10.00">1</text>
</a>
</g>
</g>
<!-- dir_c032d959549aafe62efcbd448707d983&#45;&gt;dir_5df7af9f6474348e88015f5803315ff2 -->
<g id="edge4" class="edge">
<title>dir_c032d959549aafe62efcbd448707d983&#45;&gt;dir_5df7af9f6474348e88015f5803315ff2</title>
<path fill="none" stroke="black" d="M441.69,-303.9C444.55,-285.96 449.31,-256.95 454,-232 455.59,-223.56 457.44,-214.39 459.17,-206.09"/>
<polygon fill="black" stroke="black" points="462.63,-206.66 461.27,-196.15 455.78,-205.22 462.63,-206.66"/>
<g id="a_edge4&#45;headlabel"><a xlink:href="dir_000032_000028.html" target="_top" xlink:title="1">
<text text-anchor="middle" x="464.67" y="-208.26" font-family="serif" font-size="10.00">1</text>
</a>
</g>
</g>
<!-- dir_c032d959549aafe62efcbd448707d983&#45;&gt;dir_64fc8d0c977472725ead506290358a75 -->
<g id="edge5" class="edge">
<title>dir_c032d959549aafe62efcbd448707d983&#45;&gt;dir_64fc8d0c977472725ead506290358a75</title>
<path fill="none" stroke="black" d="M455.31,-303.7C463.31,-295.22 473.07,-284.86 481.82,-275.58"/>
<polygon fill="black" stroke="black" points="484.56,-277.78 488.87,-268.1 479.47,-272.98 484.56,-277.78"/>
<g id="a_edge5&#45;headlabel"><a xlink:href="dir_000032_000009.html" target="_top" xlink:title="1">
<text text-anchor="middle" x="484.16" y="-279.84" font-family="serif" font-size="10.00">1</text>
</a>
</g>
</g>
<!-- dir_c032d959549aafe62efcbd448707d983&#45;&gt;dir_97cd71bc012adc9145264269177778ae -->
<g id="edge6" class="edge">
<title>dir_c032d959549aafe62efcbd448707d983&#45;&gt;dir_97cd71bc012adc9145264269177778ae</title>
<path fill="none" stroke="black" d="M443.85,-303.99C450.32,-281.82 461.8,-244.41 469,-232 479.75,-213.49 493.39,-216.01 501,-196 506.69,-181.04 506.07,-175.18 501,-160 487.65,-120.03 455.94,-82.58 433.03,-59.29"/>
<polygon fill="black" stroke="black" points="435.5,-56.8 425.94,-52.24 430.56,-61.77 435.5,-56.8"/>
<g id="a_edge6&#45;headlabel"><a xlink:href="dir_000032_000030.html" target="_top" xlink:title="1">
<text text-anchor="middle" x="440.05" y="-54.82" font-family="serif" font-size="10.00">1</text>
</a>
</g>
</g>
<!-- dir_e75be19162f41df736fc69975279409b -->
<g id="node9" class="node">
<title>dir_e75be19162f41df736fc69975279409b</title>
<g id="a_node9"><a xlink:href="dir_e75be19162f41df736fc69975279409b.html" target="_top" xlink:title="Solvers">
<polygon fill="none" stroke="black" points="77,-268 23,-268 23,-232 77,-232 77,-268"/>
<text text-anchor="middle" x="50" y="-247.5" font-family="serif" font-size="10.00">Solvers</text>
</a>
</g>
</g>
<!-- dir_e75be19162f41df736fc69975279409b&#45;&gt;dir_891ea87c6e6d1f8e94fb23e54b4dc7cd -->
<g id="edge12" class="edge">
<title>dir_e75be19162f41df736fc69975279409b&#45;&gt;dir_891ea87c6e6d1f8e94fb23e54b4dc7cd</title>
<path fill="none" stroke="black" d="M43.53,-231.95C37.34,-212.43 31.07,-180.52 47,-160 67.47,-133.63 161.49,-118.14 215.51,-111.27"/>
<polygon fill="black" stroke="black" points="216.25,-114.7 225.75,-110.01 215.4,-107.75 216.25,-114.7"/>
<g id="a_edge12&#45;headlabel"><a xlink:href="dir_000017_000005.html" target="_top" xlink:title="10">
<text text-anchor="middle" x="213.03" y="-115.46" font-family="serif" font-size="10.00">10</text>
</a>
</g>
</g>
<!-- dir_e75be19162f41df736fc69975279409b&#45;&gt;dir_91c9bd6d2116d1df73605922efc3dea0 -->
<g id="edge13" class="edge">
<title>dir_e75be19162f41df736fc69975279409b&#45;&gt;dir_91c9bd6d2116d1df73605922efc3dea0</title>
<path fill="none" stroke="black" d="M60.63,-231.7C65.63,-223.56 71.69,-213.69 77.21,-204.7"/>
<polygon fill="black" stroke="black" points="80.24,-206.46 82.49,-196.1 74.28,-202.79 80.24,-206.46"/>
<g id="a_edge13&#45;headlabel"><a xlink:href="dir_000017_000023.html" target="_top" xlink:title="12">
<text text-anchor="middle" x="80.78" y="-208.51" font-family="serif" font-size="10.00">12</text>
</a>
</g>
</g>
<!-- dir_e75be19162f41df736fc69975279409b&#45;&gt;dir_97cd71bc012adc9145264269177778ae -->
<g id="edge14" class="edge">
<title>dir_e75be19162f41df736fc69975279409b&#45;&gt;dir_97cd71bc012adc9145264269177778ae</title>
<path fill="none" stroke="black" d="M40.12,-231.99C30.56,-213.08 19.37,-182.27 33,-160 69.24,-100.81 282.68,-56.97 369.9,-41.29"/>
<polygon fill="black" stroke="black" points="370.65,-44.71 379.89,-39.52 369.43,-37.82 370.65,-44.71"/>
<g id="a_edge14&#45;headlabel"><a xlink:href="dir_000017_000030.html" target="_top" xlink:title="10">
<text text-anchor="middle" x="367.61" y="-45.63" font-family="serif" font-size="10.00">10</text>
</a>
</g>
</g>
<!-- dir_eb1bcaaac1032b67f9df3118ac8c5353&#45;&gt;dir_891ea87c6e6d1f8e94fb23e54b4dc7cd -->
<g id="edge7" class="edge">
<title>dir_eb1bcaaac1032b67f9df3118ac8c5353&#45;&gt;dir_891ea87c6e6d1f8e94fb23e54b4dc7cd</title>
<path fill="none" stroke="black" d="M232.92,-159.7C236.07,-151.81 239.88,-142.3 243.38,-133.55"/>
<polygon fill="black" stroke="black" points="246.69,-134.69 247.16,-124.1 240.19,-132.09 246.69,-134.69"/>
<g id="a_edge7&#45;headlabel"><a xlink:href="dir_000012_000005.html" target="_top" xlink:title="2">
<text text-anchor="middle" x="248" y="-136.58" font-family="serif" font-size="10.00">2</text>
</a>
</g>
</g>
<!-- dir_a427ffbe2ec72e9253dbe1d9e0b72aff -->
<g id="node11" class="node">
<title>dir_a427ffbe2ec72e9253dbe1d9e0b72aff</title>
<g id="a_node11"><a xlink:href="dir_a427ffbe2ec72e9253dbe1d9e0b72aff.html" target="_top" xlink:title="Operators">
<polygon fill="#eeeeff" stroke="black" points="335,-412 267,-412 267,-376 335,-376 335,-412"/>
<text text-anchor="middle" x="301" y="-391.5" font-family="serif" font-size="10.00">Operators</text>
</a>
</g>
</g>
<!-- dir_a427ffbe2ec72e9253dbe1d9e0b72aff&#45;&gt;dir_184b109a86d3f32ed165e8c995e7a4b9 -->
<g id="edge16" class="edge">
<title>dir_a427ffbe2ec72e9253dbe1d9e0b72aff&#45;&gt;dir_184b109a86d3f32ed165e8c995e7a4b9</title>
<path fill="none" stroke="black" d="M305.81,-375.85C316.21,-338.75 340.87,-250.81 353.4,-206.1"/>
<polygon fill="black" stroke="black" points="356.84,-206.81 356.17,-196.23 350.1,-204.92 356.84,-206.81"/>
<g id="a_edge16&#45;headlabel"><a xlink:href="dir_000021_000006.html" target="_top" xlink:title="3">
<text text-anchor="middle" x="358.6" y="-208.53" font-family="serif" font-size="10.00">3</text>
</a>
</g>
</g>
<!-- dir_a427ffbe2ec72e9253dbe1d9e0b72aff&#45;&gt;dir_3f3ce32f10c2af7ad8f9b7c5f5af7ee0 -->
<g id="edge17" class="edge">
<title>dir_a427ffbe2ec72e9253dbe1d9e0b72aff&#45;&gt;dir_3f3ce32f10c2af7ad8f9b7c5f5af7ee0</title>
<path fill="none" stroke="black" d="M279.54,-375.99C267.44,-366 252.33,-352.86 240,-340 220.72,-319.89 201.15,-294.95 187.45,-276.59"/>
<polygon fill="black" stroke="black" points="189.98,-274.12 181.23,-268.16 184.35,-278.28 189.98,-274.12"/>
<g id="a_edge17&#45;headlabel"><a xlink:href="dir_000021_000002.html" target="_top" xlink:title="1">
<text text-anchor="middle" x="194.4" y="-272.83" font-family="serif" font-size="10.00">1</text>
</a>
</g>
</g>
<!-- dir_a427ffbe2ec72e9253dbe1d9e0b72aff&#45;&gt;dir_5df7af9f6474348e88015f5803315ff2 -->
<g id="edge18" class="edge">
<title>dir_a427ffbe2ec72e9253dbe1d9e0b72aff&#45;&gt;dir_5df7af9f6474348e88015f5803315ff2</title>
<path fill="none" stroke="black" d="M314.14,-375.85C342.93,-338.28 411.68,-248.58 445.51,-204.43"/>
<polygon fill="black" stroke="black" points="448.49,-206.3 451.79,-196.23 442.93,-202.04 448.49,-206.3"/>
<g id="a_edge18&#45;headlabel"><a xlink:href="dir_000021_000028.html" target="_top" xlink:title="3">
<text text-anchor="middle" x="448.56" y="-208.38" font-family="serif" font-size="10.00">3</text>
</a>
</g>
</g>
<!-- dir_a427ffbe2ec72e9253dbe1d9e0b72aff&#45;&gt;dir_64fc8d0c977472725ead506290358a75 -->
<g id="edge19" class="edge">
<title>dir_a427ffbe2ec72e9253dbe1d9e0b72aff&#45;&gt;dir_64fc8d0c977472725ead506290358a75</title>
<path fill="none" stroke="black" d="M335.29,-392.33C375.46,-389.67 441.43,-379.12 480,-340 496.07,-323.7 501.99,-297.95 504.09,-278.33"/>
<polygon fill="black" stroke="black" points="507.59,-278.41 504.9,-268.16 500.62,-277.85 507.59,-278.41"/>
<g id="a_edge19&#45;headlabel"><a xlink:href="dir_000021_000009.html" target="_top" xlink:title="1">
<text text-anchor="middle" x="510.14" y="-279.71" font-family="serif" font-size="10.00">1</text>
</a>
</g>
</g>
<!-- dir_a427ffbe2ec72e9253dbe1d9e0b72aff&#45;&gt;dir_891ea87c6e6d1f8e94fb23e54b4dc7cd -->
<g id="edge20" class="edge">
<title>dir_a427ffbe2ec72e9253dbe1d9e0b72aff&#45;&gt;dir_891ea87c6e6d1f8e94fb23e54b4dc7cd</title>
<path fill="none" stroke="black" d="M300.26,-375.81C298.28,-336.91 291.73,-239.3 273,-160 270.96,-151.34 267.96,-142.14 264.96,-133.88"/>
<polygon fill="black" stroke="black" points="268.17,-132.47 261.34,-124.37 261.62,-134.96 268.17,-132.47"/>
<g id="a_edge20&#45;headlabel"><a xlink:href="dir_000021_000005.html" target="_top" xlink:title="3">
<text text-anchor="middle" x="272.1" y="-132.33" font-family="serif" font-size="10.00">3</text>
</a>
</g>
</g>
<!-- dir_a427ffbe2ec72e9253dbe1d9e0b72aff&#45;&gt;dir_91c9bd6d2116d1df73605922efc3dea0 -->
<g id="edge21" class="edge">
<title>dir_a427ffbe2ec72e9253dbe1d9e0b72aff&#45;&gt;dir_91c9bd6d2116d1df73605922efc3dea0</title>
<path fill="none" stroke="black" d="M266.64,-378.41C225.8,-359.24 158.7,-321.58 123,-268 110.47,-249.2 102.72,-224.67 98.24,-206.13"/>
<polygon fill="black" stroke="black" points="101.63,-205.25 96.02,-196.25 94.8,-206.78 101.63,-205.25"/>
<g id="a_edge21&#45;headlabel"><a xlink:href="dir_000021_000023.html" target="_top" xlink:title="5">
<text text-anchor="middle" x="105.18" y="-205.63" font-family="serif" font-size="10.00">5</text>
</a>
</g>
</g>
<!-- dir_a427ffbe2ec72e9253dbe1d9e0b72aff&#45;&gt;dir_97cd71bc012adc9145264269177778ae -->
<g id="edge22" class="edge">
<title>dir_a427ffbe2ec72e9253dbe1d9e0b72aff&#45;&gt;dir_97cd71bc012adc9145264269177778ae</title>
<path fill="none" stroke="black" d="M335.19,-390.9C376.42,-386.83 446.14,-374.91 494,-340 531.95,-312.32 551,-297.97 551,-251 551,-251 551,-251 551,-177 551,-136.03 553.68,-119.09 527,-88 505.76,-63.25 470.73,-49.6 443.99,-42.38"/>
<polygon fill="black" stroke="black" points="444.74,-38.97 434.19,-39.92 443.04,-45.75 444.74,-38.97"/>
<g id="a_edge22&#45;headlabel"><a xlink:href="dir_000021_000030.html" target="_top" xlink:title="3">
<text text-anchor="middle" x="448.92" y="-34.59" font-family="serif" font-size="10.00">3</text>
</a>
</g>
</g>
<!-- dir_a427ffbe2ec72e9253dbe1d9e0b72aff&#45;&gt;dir_c032d959549aafe62efcbd448707d983 -->
<g id="edge23" class="edge">
<title>dir_a427ffbe2ec72e9253dbe1d9e0b72aff&#45;&gt;dir_c032d959549aafe62efcbd448707d983</title>
<path fill="none" stroke="black" d="M334.76,-375.88C354,-366.12 378.23,-353.83 398.49,-343.55"/>
<polygon fill="black" stroke="black" points="400.15,-346.63 407.48,-338.99 396.98,-340.39 400.15,-346.63"/>
<g id="a_edge23&#45;headlabel"><a xlink:href="dir_000021_000032.html" target="_top" xlink:title="3">
<text text-anchor="middle" x="398.23" y="-348.29" font-family="serif" font-size="10.00">3</text>
</a>
</g>
</g>
<!-- dir_a427ffbe2ec72e9253dbe1d9e0b72aff&#45;&gt;dir_e75be19162f41df736fc69975279409b -->
<g id="edge24" class="edge">
<title>dir_a427ffbe2ec72e9253dbe1d9e0b72aff&#45;&gt;dir_e75be19162f41df736fc69975279409b</title>
<path fill="none" stroke="black" d="M266.83,-392.2C223.28,-389.5 147.7,-379.03 98,-340 77.92,-324.23 65.17,-297.66 57.89,-277.64"/>
<polygon fill="black" stroke="black" points="61.2,-276.49 54.67,-268.14 54.57,-278.74 61.2,-276.49"/>
<g id="a_edge24&#45;headlabel"><a xlink:href="dir_000021_000017.html" target="_top" xlink:title="5">
<text text-anchor="middle" x="65.04" y="-276.48" font-family="serif" font-size="10.00">5</text>
</a>
</g>
</g>
<!-- dir_a427ffbe2ec72e9253dbe1d9e0b72aff&#45;&gt;dir_eb1bcaaac1032b67f9df3118ac8c5353 -->
<g id="edge25" class="edge">
<title>dir_a427ffbe2ec72e9253dbe1d9e0b72aff&#45;&gt;dir_eb1bcaaac1032b67f9df3118ac8c5353</title>
<path fill="none" stroke="black" d="M293.12,-375.99C288.46,-365.68 282.6,-352.2 278,-340 260.48,-293.58 243.44,-238.33 233.88,-206.11"/>
<polygon fill="black" stroke="black" points="237.11,-204.71 230.93,-196.11 230.4,-206.69 237.11,-204.71"/>
<g id="a_edge25&#45;headlabel"><a xlink:href="dir_000021_000012.html" target="_top" xlink:title="1">
<text text-anchor="middle" x="240.85" y="-204.86" font-family="serif" font-size="10.00">1</text>
</a>
</g>
</g>
</g>
</svg>
