<?xml version="1.0" encoding="UTF-8" standalone="no"?>
<!DOCTYPE svg PUBLIC "-//W3C//DTD SVG 1.1//EN"
 "http://www.w3.org/Graphics/SVG/1.1/DTD/svg11.dtd">
<!-- Generated by graphviz version 2.43.0 (0)
 -->
<!-- Title: DSolverBase.hpp Pages: 1 -->
<svg width="487pt" height="364pt"
 viewBox="0.00 0.00 487.00 364.00" xmlns="http://www.w3.org/2000/svg" xmlns:xlink="http://www.w3.org/1999/xlink">
<g id="graph0" class="graph" transform="scale(1 1) rotate(0) translate(4 360)">
<title>DSolverBase.hpp</title>
<!-- Node1 -->
<g id="node1" class="node">
<title>Node1</title>
<g id="a_node1"><a xlink:title="Direct solvers.">
<polygon fill="#bfbfbf" stroke="black" points="217.5,-336.5 217.5,-355.5 322.5,-355.5 322.5,-336.5 217.5,-336.5"/>
<text text-anchor="middle" x="270" y="-343.5" font-family="serif" font-size="10.00">DSolverBase.hpp</text>
</a>
</g>
</g>
<!-- Node2 -->
<g id="node2" class="node">
<title>Node2</title>
<g id="a_node2"><a xlink:href="NLSolver_8hpp.html" target="_top" xlink:title="Class used to manage a NonLinear Solver( Newton type)">
<polygon fill="none" stroke="black" points="131.5,-224.5 131.5,-243.5 218.5,-243.5 218.5,-224.5 131.5,-224.5"/>
<text text-anchor="middle" x="175" y="-231.5" font-family="serif" font-size="10.00">NLSolver.hpp</text>
</a>
</g>
</g>
<!-- Node1&#45;&gt;Node2 -->
<g id="edge1" class="edge">
<title>Node1&#45;&gt;Node2</title>
<path fill="none" stroke="midnightblue" d="M247.54,-330.72C236,-322.65 222.24,-311.82 212,-300 196.52,-282.14 184.35,-256.82 178.61,-243.68"/>
<polygon fill="midnightblue" stroke="midnightblue" points="245.59,-333.63 255.84,-336.32 249.51,-327.83 245.59,-333.63"/>
</g>
<!-- Node8 -->
<g id="node8" class="node">
<title>Node8</title>
<g id="a_node8"><a xlink:href="NLSolver_8cpp.html" target="_top" xlink:title="Class used to manage a NonLinear Solver( Newton type)">
<polygon fill="none" stroke="black" points="0,-168.5 0,-187.5 86,-187.5 86,-168.5 0,-168.5"/>
<text text-anchor="middle" x="43" y="-175.5" font-family="serif" font-size="10.00">NLSolver.cpp</text>
</a>
</g>
</g>
<!-- Node1&#45;&gt;Node8 -->
<g id="edge21" class="edge">
<title>Node1&#45;&gt;Node8</title>
<path fill="none" stroke="midnightblue" d="M238.6,-332.4C200.49,-316.05 135.67,-284.71 90,-244 71.08,-227.14 55.31,-201.4 47.77,-187.93"/>
<polygon fill="midnightblue" stroke="midnightblue" points="237.57,-335.76 248.14,-336.42 240.29,-329.31 237.57,-335.76"/>
</g>
<!-- Node9 -->
<g id="node9" class="node">
<title>Node9</title>
<g id="a_node9"><a xlink:href="SlothSolver_8hpp.html" target="_top" xlink:title="Class to define a SlothSolver objet.">
<polygon fill="none" stroke="black" points="221,-280.5 221,-299.5 319,-299.5 319,-280.5 221,-280.5"/>
<text text-anchor="middle" x="270" y="-287.5" font-family="serif" font-size="10.00">SlothSolver.hpp</text>
</a>
</g>
</g>
<!-- Node1&#45;&gt;Node9 -->
<g id="edge10" class="edge">
<title>Node1&#45;&gt;Node9</title>
<path fill="none" stroke="midnightblue" d="M270,-325.8C270,-316.91 270,-306.78 270,-299.75"/>
<polygon fill="midnightblue" stroke="midnightblue" points="266.5,-326.08 270,-336.08 273.5,-326.08 266.5,-326.08"/>
</g>
<!-- Node12 -->
<g id="node12" class="node">
<title>Node12</title>
<g id="a_node12"><a xlink:href="SlothSolver_8cpp.html" target="_top" xlink:title="Class to define a SlothSolver objet.">
<polygon fill="none" stroke="black" points="371,-224.5 371,-243.5 467,-243.5 467,-224.5 371,-224.5"/>
<text text-anchor="middle" x="419" y="-231.5" font-family="serif" font-size="10.00">SlothSolver.cpp</text>
</a>
</g>
</g>
<!-- Node1&#45;&gt;Node12 -->
<g id="edge22" class="edge">
<title>Node1&#45;&gt;Node12</title>
<path fill="none" stroke="midnightblue" d="M289.75,-330.42C321.27,-307.15 381.95,-262.35 407.36,-243.59"/>
<polygon fill="midnightblue" stroke="midnightblue" points="287.66,-327.61 281.69,-336.37 291.82,-333.24 287.66,-327.61"/>
</g>
<!-- Node13 -->
<g id="node13" class="node">
<title>Node13</title>
<g id="a_node13"><a xlink:href="DSolverBase_8cpp.html" target="_top" xlink:title="Direct solvers.">
<polygon fill="none" stroke="black" points="375,-280.5 375,-299.5 479,-299.5 479,-280.5 375,-280.5"/>
<text text-anchor="middle" x="427" y="-287.5" font-family="serif" font-size="10.00">DSolverBase.cpp</text>
</a>
</g>
</g>
<!-- Node1&#45;&gt;Node13 -->
<g id="edge20" class="edge">
<title>Node1&#45;&gt;Node13</title>
<path fill="none" stroke="midnightblue" d="M304.39,-333.17C333.95,-323 375.87,-308.59 402.24,-299.52"/>
<polygon fill="midnightblue" stroke="midnightblue" points="303.2,-329.88 294.88,-336.44 305.47,-336.5 303.2,-329.88"/>
</g>
<!-- Node3 -->
<g id="node3" class="node">
<title>Node3</title>
<g id="a_node3"><a xlink:href="OperatorBase_8hpp.html" target="_top" xlink:title="Base class for building Steady and TimeDependent PhaseFieldOperators.">
<polygon fill="none" stroke="black" points="142,-168.5 142,-187.5 252,-187.5 252,-168.5 142,-168.5"/>
<text text-anchor="middle" x="197" y="-175.5" font-family="serif" font-size="10.00">OperatorBase.hpp</text>
</a>
</g>
</g>
<!-- Node2&#45;&gt;Node3 -->
<g id="edge2" class="edge">
<title>Node2&#45;&gt;Node3</title>
<path fill="none" stroke="midnightblue" d="M182.46,-214.69C186.17,-205.59 190.48,-195.01 193.43,-187.75"/>
<polygon fill="midnightblue" stroke="midnightblue" points="179.16,-213.5 178.63,-224.08 185.65,-216.14 179.16,-213.5"/>
</g>
<!-- Node4 -->
<g id="node4" class="node">
<title>Node4</title>
<g id="a_node4"><a xlink:href="SteadyOperator_8hpp.html" target="_top" xlink:title="Steady Operator.">
<polygon fill="none" stroke="black" points="113,-112.5 113,-131.5 233,-131.5 233,-112.5 113,-112.5"/>
<text text-anchor="middle" x="173" y="-119.5" font-family="serif" font-size="10.00">SteadyOperator.hpp</text>
</a>
</g>
</g>
<!-- Node2&#45;&gt;Node4 -->
<g id="edge8" class="edge">
<title>Node2&#45;&gt;Node4</title>
<path fill="none" stroke="midnightblue" d="M154.95,-217.53C146.47,-209.71 137.51,-199.45 133,-188 124.45,-166.3 146.56,-143.72 161.22,-131.72"/>
<polygon fill="midnightblue" stroke="midnightblue" points="152.91,-220.39 162.79,-224.24 157.47,-215.07 152.91,-220.39"/>
</g>
<!-- Node2&#45;&gt;Node8 -->
<g id="edge9" class="edge">
<title>Node2&#45;&gt;Node8</title>
<path fill="none" stroke="midnightblue" d="M144.78,-220.64C120.01,-210.5 85.6,-196.43 63.82,-187.52"/>
<polygon fill="midnightblue" stroke="midnightblue" points="143.5,-223.9 154.08,-224.44 146.15,-217.42 143.5,-223.9"/>
</g>
<!-- Node3&#45;&gt;Node4 -->
<g id="edge3" class="edge">
<title>Node3&#45;&gt;Node4</title>
<path fill="none" stroke="midnightblue" d="M188.86,-158.69C184.82,-149.59 180.12,-139.01 176.89,-131.75"/>
<polygon fill="midnightblue" stroke="midnightblue" points="185.78,-160.37 193.04,-168.08 192.17,-157.52 185.78,-160.37"/>
</g>
<!-- Node7 -->
<g id="node7" class="node">
<title>Node7</title>
<g id="a_node7"><a xlink:href="TransientOperator_8hpp.html" target="_top" xlink:title="Transient Operator.">
<polygon fill="none" stroke="black" points="251,-112.5 251,-131.5 385,-131.5 385,-112.5 251,-112.5"/>
<text text-anchor="middle" x="318" y="-119.5" font-family="serif" font-size="10.00">TransientOperator.hpp</text>
</a>
</g>
</g>
<!-- Node3&#45;&gt;Node7 -->
<g id="edge6" class="edge">
<title>Node3&#45;&gt;Node7</title>
<path fill="none" stroke="midnightblue" d="M225.31,-164.37C247.97,-154.26 279.13,-140.35 298.92,-131.52"/>
<polygon fill="midnightblue" stroke="midnightblue" points="223.88,-161.17 216.17,-168.44 226.73,-167.56 223.88,-161.17"/>
</g>
<!-- Node5 -->
<g id="node5" class="node">
<title>Node5</title>
<g id="a_node5"><a xlink:href="ListOperators_8hpp.html" target="_top" xlink:title=" ">
<polygon fill="none" stroke="black" points="190,-56.5 190,-75.5 300,-75.5 300,-56.5 190,-56.5"/>
<text text-anchor="middle" x="245" y="-63.5" font-family="serif" font-size="10.00">ListOperators.hpp</text>
</a>
</g>
</g>
<!-- Node4&#45;&gt;Node5 -->
<g id="edge4" class="edge">
<title>Node4&#45;&gt;Node5</title>
<path fill="none" stroke="midnightblue" d="M192.87,-106.1C205.82,-96.38 222.3,-84.03 233.22,-75.83"/>
<polygon fill="midnightblue" stroke="midnightblue" points="190.47,-103.52 184.57,-112.32 194.67,-109.12 190.47,-103.52"/>
</g>
<!-- Node6 -->
<g id="node6" class="node">
<title>Node6</title>
<g id="a_node6"><a xlink:href="sloth_8hpp.html" target="_top" xlink:title="List of SLOTH header files.">
<polygon fill="none" stroke="black" points="212.5,-0.5 212.5,-19.5 277.5,-19.5 277.5,-0.5 212.5,-0.5"/>
<text text-anchor="middle" x="245" y="-7.5" font-family="serif" font-size="10.00">sloth.hpp</text>
</a>
</g>
</g>
<!-- Node5&#45;&gt;Node6 -->
<g id="edge5" class="edge">
<title>Node5&#45;&gt;Node6</title>
<path fill="none" stroke="midnightblue" d="M245,-45.8C245,-36.91 245,-26.78 245,-19.75"/>
<polygon fill="midnightblue" stroke="midnightblue" points="241.5,-46.08 245,-56.08 248.5,-46.08 241.5,-46.08"/>
</g>
<!-- Node7&#45;&gt;Node5 -->
<g id="edge7" class="edge">
<title>Node7&#45;&gt;Node5</title>
<path fill="none" stroke="midnightblue" d="M297.86,-106.1C284.72,-96.38 268.02,-84.03 256.94,-75.83"/>
<polygon fill="midnightblue" stroke="midnightblue" points="296.15,-109.19 306.27,-112.32 300.31,-103.56 296.15,-109.19"/>
</g>
<!-- Node9&#45;&gt;Node2 -->
<g id="edge16" class="edge">
<title>Node9&#45;&gt;Node2</title>
<path fill="none" stroke="midnightblue" d="M245.68,-275.18C228.2,-265.24 205.17,-252.15 190.23,-243.65"/>
<polygon fill="midnightblue" stroke="midnightblue" points="244.31,-278.43 254.74,-280.32 247.77,-272.34 244.31,-278.43"/>
</g>
<!-- Node9&#45;&gt;Node8 -->
<g id="edge18" class="edge">
<title>Node9&#45;&gt;Node8</title>
<path fill="none" stroke="midnightblue" d="M216.18,-278.05C187.19,-270.84 151.43,-259.77 122,-244 93.19,-228.57 64.98,-201.74 51.4,-187.87"/>
<polygon fill="midnightblue" stroke="midnightblue" points="215.59,-281.51 226.13,-280.44 217.23,-274.7 215.59,-281.51"/>
</g>
<!-- Node10 -->
<g id="node10" class="node">
<title>Node10</title>
<g id="a_node10"><a xlink:href="LSolver_8hpp.html" target="_top" xlink:title="Class used to manage Linear Solver objet.">
<polygon fill="none" stroke="black" points="237,-224.5 237,-243.5 315,-243.5 315,-224.5 237,-224.5"/>
<text text-anchor="middle" x="276" y="-231.5" font-family="serif" font-size="10.00">LSolver.hpp</text>
</a>
</g>
</g>
<!-- Node9&#45;&gt;Node10 -->
<g id="edge11" class="edge">
<title>Node9&#45;&gt;Node10</title>
<path fill="none" stroke="midnightblue" d="M272.1,-270.1C273.1,-261.14 274.24,-250.86 275.03,-243.75"/>
<polygon fill="midnightblue" stroke="midnightblue" points="268.62,-269.76 270.99,-280.08 275.57,-270.53 268.62,-269.76"/>
</g>
<!-- Node11 -->
<g id="node11" class="node">
<title>Node11</title>
<g id="a_node11"><a xlink:href="LSolver_8cpp.html" target="_top" xlink:title="Class used to manage Linear Solver objet.">
<polygon fill="none" stroke="black" points="346.5,-168.5 346.5,-187.5 423.5,-187.5 423.5,-168.5 346.5,-168.5"/>
<text text-anchor="middle" x="385" y="-175.5" font-family="serif" font-size="10.00">LSolver.cpp</text>
</a>
</g>
</g>
<!-- Node9&#45;&gt;Node11 -->
<g id="edge17" class="edge">
<title>Node9&#45;&gt;Node11</title>
<path fill="none" stroke="midnightblue" d="M289.23,-273.93C299.77,-265.44 312.9,-254.46 324,-244 344.27,-224.89 366.19,-200.52 377.42,-187.73"/>
<polygon fill="midnightblue" stroke="midnightblue" points="286.73,-271.44 281.09,-280.41 291.09,-276.92 286.73,-271.44"/>
</g>
<!-- Node9&#45;&gt;Node12 -->
<g id="edge19" class="edge">
<title>Node9&#45;&gt;Node12</title>
<path fill="none" stroke="midnightblue" d="M303.37,-276.91C331.38,-266.75 370.7,-252.51 395.5,-243.52"/>
<polygon fill="midnightblue" stroke="midnightblue" points="301.82,-273.75 293.61,-280.44 304.2,-280.33 301.82,-273.75"/>
</g>
<!-- Node10&#45;&gt;Node3 -->
<g id="edge12" class="edge">
<title>Node10&#45;&gt;Node3</title>
<path fill="none" stroke="midnightblue" d="M254.97,-218.62C240.53,-208.76 221.86,-195.99 209.66,-187.65"/>
<polygon fill="midnightblue" stroke="midnightblue" points="253.08,-221.57 263.31,-224.32 257.03,-215.79 253.08,-221.57"/>
</g>
<!-- Node10&#45;&gt;Node4 -->
<g id="edge13" class="edge">
<title>Node10&#45;&gt;Node4</title>
<path fill="none" stroke="midnightblue" d="M275.81,-214.46C274.78,-200.38 271.34,-181.26 261,-168 246.86,-149.87 223.41,-138.39 204.27,-131.57"/>
<polygon fill="midnightblue" stroke="midnightblue" points="272.32,-214.6 276.22,-224.45 279.31,-214.32 272.32,-214.6"/>
</g>
<!-- Node10&#45;&gt;Node7 -->
<g id="edge14" class="edge">
<title>Node10&#45;&gt;Node7</title>
<path fill="none" stroke="midnightblue" d="M283.3,-215.07C286.62,-206.84 290.56,-196.95 294,-188 301.69,-168.01 310.29,-144.4 314.81,-131.86"/>
<polygon fill="midnightblue" stroke="midnightblue" points="280.03,-213.82 279.52,-224.4 286.52,-216.45 280.03,-213.82"/>
</g>
<!-- Node10&#45;&gt;Node11 -->
<g id="edge15" class="edge">
<title>Node10&#45;&gt;Node11</title>
<path fill="none" stroke="midnightblue" d="M302.52,-219.86C322.73,-209.85 349.99,-196.35 367.53,-187.65"/>
<polygon fill="midnightblue" stroke="midnightblue" points="300.92,-216.75 293.51,-224.32 304.03,-223.02 300.92,-216.75"/>
</g>
</g>
</svg>
