<?xml version="1.0" encoding="UTF-8" standalone="no"?>
<!DOCTYPE svg PUBLIC "-//W3C//DTD SVG 1.1//EN"
 "http://www.w3.org/Graphics/SVG/1.1/DTD/svg11.dtd">
<!-- Generated by graphviz version 2.43.0 (0)
 -->
<!-- Title: ExprTkSloth.cpp Pages: 1 -->
<svg width="1063pt" height="196pt"
 viewBox="0.00 0.00 1063.39 196.00" xmlns="http://www.w3.org/2000/svg" xmlns:xlink="http://www.w3.org/1999/xlink">
<g id="graph0" class="graph" transform="scale(1 1) rotate(0) translate(4 192)">
<title>ExprTkSloth.cpp</title>
<!-- Node1 -->
<g id="node1" class="node">
<title>Node1</title>
<g id="a_node1"><a xlink:title=" ">
<polygon fill="#bfbfbf" stroke="black" points="646.5,-168.5 646.5,-187.5 748.5,-187.5 748.5,-168.5 646.5,-168.5"/>
<text text-anchor="middle" x="697.5" y="-175.5" font-family="serif" font-size="10.00">ExprTkSloth.cpp</text>
</a>
</g>
</g>
<!-- Node2 -->
<g id="node2" class="node">
<title>Node2</title>
<g id="a_node2"><a xlink:href="ExprTkSloth_8hpp.html" target="_top" xlink:title=" ">
<polygon fill="none" stroke="black" points="559.5,-112.5 559.5,-131.5 725.5,-131.5 725.5,-112.5 559.5,-112.5"/>
<text text-anchor="middle" x="642.5" y="-119.5" font-family="serif" font-size="10.00">Coefficients/ExprTkSloth.hpp</text>
</a>
</g>
</g>
<!-- Node1&#45;&gt;Node2 -->
<g id="edge1" class="edge">
<title>Node1&#45;&gt;Node2</title>
<path fill="none" stroke="midnightblue" d="M688.42,-168.08C680.33,-160.14 668.3,-148.34 658.59,-138.8"/>
<polygon fill="midnightblue" stroke="midnightblue" points="661,-136.26 651.41,-131.75 656.1,-141.25 661,-136.26"/>
</g>
<!-- Node3 -->
<g id="node3" class="node">
<title>Node3</title>
<g id="a_node3"><a xlink:title=" ">
<polygon fill="none" stroke="#bfbfbf" points="36,-56.5 36,-75.5 97,-75.5 97,-56.5 36,-56.5"/>
<text text-anchor="middle" x="66.5" y="-63.5" font-family="serif" font-size="10.00">iostream</text>
</a>
</g>
</g>
<!-- Node1&#45;&gt;Node3 -->
<g id="edge29" class="edge">
<title>Node1&#45;&gt;Node3</title>
<path fill="none" stroke="midnightblue" d="M646.29,-170.14C585.78,-161.86 482.11,-147.17 393.5,-132 268.23,-110.56 234.73,-103.47 107.29,-76.34"/>
<polygon fill="midnightblue" stroke="midnightblue" points="107.64,-72.83 97.13,-74.18 106.19,-79.68 107.64,-72.83"/>
</g>
<!-- Node4 -->
<g id="node4" class="node">
<title>Node4</title>
<g id="a_node4"><a xlink:title=" ">
<polygon fill="none" stroke="#bfbfbf" points="675,-0.5 675,-19.5 716,-19.5 716,-0.5 675,-0.5"/>
<text text-anchor="middle" x="695.5" y="-7.5" font-family="serif" font-size="10.00">span</text>
</a>
</g>
</g>
<!-- Node1&#45;&gt;Node4 -->
<g id="edge30" class="edge">
<title>Node1&#45;&gt;Node4</title>
<path fill="none" stroke="midnightblue" d="M646.2,-175.97C613.11,-172.3 572.32,-161.5 550.5,-132 530,-104.29 571.08,-68.87 586.5,-56 598.89,-45.66 637.35,-30.99 665.08,-21.25"/>
<polygon fill="midnightblue" stroke="midnightblue" points="666.44,-24.48 674.74,-17.89 664.15,-17.86 666.44,-24.48"/>
</g>
<!-- Node5 -->
<g id="node5" class="node">
<title>Node5</title>
<g id="a_node5"><a xlink:title=" ">
<polygon fill="none" stroke="#bfbfbf" points="674,-56.5 674,-75.5 731,-75.5 731,-56.5 674,-56.5"/>
<text text-anchor="middle" x="702.5" y="-63.5" font-family="serif" font-size="10.00">sstream</text>
</a>
</g>
</g>
<!-- Node1&#45;&gt;Node5 -->
<g id="edge31" class="edge">
<title>Node1&#45;&gt;Node5</title>
<path fill="none" stroke="midnightblue" d="M707.94,-168.24C716.92,-159.97 729.25,-146.66 734.5,-132 740.7,-114.71 729.41,-96 718.57,-83.11"/>
<polygon fill="midnightblue" stroke="midnightblue" points="721.02,-80.6 711.71,-75.56 715.84,-85.31 721.02,-80.6"/>
</g>
<!-- Node6 -->
<g id="node6" class="node">
<title>Node6</title>
<g id="a_node6"><a xlink:title=" ">
<polygon fill="none" stroke="#bfbfbf" points="0,-0.5 0,-19.5 47,-19.5 47,-0.5 0,-0.5"/>
<text text-anchor="middle" x="23.5" y="-7.5" font-family="serif" font-size="10.00">string</text>
</a>
</g>
</g>
<!-- Node1&#45;&gt;Node6 -->
<g id="edge32" class="edge">
<title>Node1&#45;&gt;Node6</title>
<path fill="none" stroke="midnightblue" d="M646.48,-177.56C503.79,-177.92 105.86,-170.31 26.5,-76 15.94,-63.45 16.39,-44.23 18.76,-29.94"/>
<polygon fill="midnightblue" stroke="midnightblue" points="22.27,-30.26 20.9,-19.76 15.42,-28.83 22.27,-30.26"/>
</g>
<!-- Node7 -->
<g id="node7" class="node">
<title>Node7</title>
<g id="a_node7"><a xlink:title=" ">
<polygon fill="none" stroke="#bfbfbf" points="749.5,-56.5 749.5,-75.5 847.5,-75.5 847.5,-56.5 749.5,-56.5"/>
<text text-anchor="middle" x="798.5" y="-63.5" font-family="serif" font-size="10.00">unordered_map</text>
</a>
</g>
</g>
<!-- Node1&#45;&gt;Node7 -->
<g id="edge33" class="edge">
<title>Node1&#45;&gt;Node7</title>
<path fill="none" stroke="midnightblue" d="M708.86,-168.32C719.83,-159.69 736.62,-145.78 749.5,-132 763.61,-116.9 777.59,-97.84 786.99,-84.27"/>
<polygon fill="midnightblue" stroke="midnightblue" points="789.97,-86.11 792.7,-75.87 784.18,-82.17 789.97,-86.11"/>
</g>
<!-- Node8 -->
<g id="node8" class="node">
<title>Node8</title>
<g id="a_node8"><a xlink:title=" ">
<polygon fill="none" stroke="#bfbfbf" points="734.5,-0.5 734.5,-19.5 780.5,-19.5 780.5,-0.5 734.5,-0.5"/>
<text text-anchor="middle" x="757.5" y="-7.5" font-family="serif" font-size="10.00">utility</text>
</a>
</g>
</g>
<!-- Node1&#45;&gt;Node8 -->
<g id="edge34" class="edge">
<title>Node1&#45;&gt;Node8</title>
<path fill="none" stroke="midnightblue" d="M748.84,-169.3C834.72,-155.24 1001.47,-122.53 1035.5,-76 1040.75,-68.82 1041.31,-62.73 1035.5,-56 1001.21,-16.32 859.06,-29.9 791.08,-19.78"/>
<polygon fill="midnightblue" stroke="midnightblue" points="791.29,-16.26 780.83,-17.94 790.06,-23.15 791.29,-16.26"/>
</g>
<!-- Node9 -->
<g id="node9" class="node">
<title>Node9</title>
<g id="a_node9"><a xlink:title=" ">
<polygon fill="none" stroke="#bfbfbf" points="798.5,-0.5 798.5,-19.5 846.5,-19.5 846.5,-0.5 798.5,-0.5"/>
<text text-anchor="middle" x="822.5" y="-7.5" font-family="serif" font-size="10.00">vector</text>
</a>
</g>
</g>
<!-- Node1&#45;&gt;Node9 -->
<g id="edge35" class="edge">
<title>Node1&#45;&gt;Node9</title>
<path fill="none" stroke="midnightblue" d="M748.59,-174.39C803.35,-170.22 892.03,-159.49 963.5,-132 1006.77,-115.36 1029.19,-116.64 1051.5,-76 1055.78,-68.21 1057.15,-62.86 1051.5,-56 1027.27,-26.54 914.81,-16.07 857.01,-12.6"/>
<polygon fill="midnightblue" stroke="midnightblue" points="857.07,-9.09 846.88,-12.03 856.67,-16.08 857.07,-9.09"/>
</g>
<!-- Node10 -->
<g id="node10" class="node">
<title>Node10</title>
<g id="a_node10"><a xlink:href="FunctionCoefficient_8hpp.html" target="_top" xlink:title="Base class defining analytical expression, first and second derivatives of a Coefficient.">
<polygon fill="none" stroke="black" points="302,-56.5 302,-75.5 503,-75.5 503,-56.5 302,-56.5"/>
<text text-anchor="middle" x="402.5" y="-63.5" font-family="serif" font-size="10.00">Coefficients/FunctionCoefficient.hpp</text>
</a>
</g>
</g>
<!-- Node1&#45;&gt;Node10 -->
<g id="edge36" class="edge">
<title>Node1&#45;&gt;Node10</title>
<path fill="none" stroke="midnightblue" d="M648.64,-168.49C611.79,-161.2 560.43,-149.13 517.5,-132 482.87,-118.18 445.84,-95.69 423.42,-81.12"/>
<polygon fill="midnightblue" stroke="midnightblue" points="425.31,-78.18 415.04,-75.6 421.46,-84.02 425.31,-78.18"/>
</g>
<!-- Node20 -->
<g id="node20" class="node">
<title>Node20</title>
<g id="a_node20"><a xlink:href="Glossary_8hpp.html" target="_top" xlink:title="Glossary used to defined variables and properties in SLOTH.">
<polygon fill="none" stroke="black" points="153.5,-56.5 153.5,-75.5 283.5,-75.5 283.5,-56.5 153.5,-56.5"/>
<text text-anchor="middle" x="218.5" y="-63.5" font-family="serif" font-size="10.00">Glossary/Glossary.hpp</text>
</a>
</g>
</g>
<!-- Node1&#45;&gt;Node20 -->
<g id="edge37" class="edge">
<title>Node1&#45;&gt;Node20</title>
<path fill="none" stroke="midnightblue" d="M651.66,-168.44C606.48,-159.84 535.54,-145.9 474.5,-132 398.37,-114.67 310.26,-91.64 259.79,-78.15"/>
<polygon fill="midnightblue" stroke="midnightblue" points="260.47,-74.71 249.91,-75.51 258.66,-81.48 260.47,-74.71"/>
</g>
<!-- Node21 -->
<g id="node21" class="node">
<title>Node21</title>
<g id="a_node21"><a xlink:title=" ">
<polygon fill="none" stroke="#bfbfbf" points="866,-56.5 866,-75.5 939,-75.5 939,-56.5 866,-56.5"/>
<text text-anchor="middle" x="902.5" y="-63.5" font-family="serif" font-size="10.00">exprtk.hpp</text>
</a>
</g>
</g>
<!-- Node1&#45;&gt;Node21 -->
<g id="edge38" class="edge">
<title>Node1&#45;&gt;Node21</title>
<path fill="none" stroke="midnightblue" d="M713.59,-168.37C749.21,-149.25 834.98,-103.23 877.6,-80.36"/>
<polygon fill="midnightblue" stroke="midnightblue" points="879.33,-83.4 886.49,-75.59 876.02,-77.24 879.33,-83.4"/>
</g>
<!-- Node22 -->
<g id="node22" class="node">
<title>Node22</title>
<g id="a_node22"><a xlink:title=" ">
<polygon fill="none" stroke="#bfbfbf" points="957,-56.5 957,-75.5 1026,-75.5 1026,-56.5 957,-56.5"/>
<text text-anchor="middle" x="991.5" y="-63.5" font-family="serif" font-size="10.00">mfem.hpp</text>
</a>
</g>
</g>
<!-- Node1&#45;&gt;Node22 -->
<g id="edge39" class="edge">
<title>Node1&#45;&gt;Node22</title>
<path fill="none" stroke="midnightblue" d="M720.57,-168.37C772.52,-148.93 898.82,-101.67 958.82,-79.23"/>
<polygon fill="midnightblue" stroke="midnightblue" points="960.4,-82.37 968.54,-75.59 957.95,-75.82 960.4,-82.37"/>
</g>
<!-- Node2&#45;&gt;Node3 -->
<g id="edge2" class="edge">
<title>Node2&#45;&gt;Node3</title>
<path fill="none" stroke="midnightblue" d="M559.4,-116.87C454.6,-110.99 269.05,-98.36 111.5,-76 110.21,-75.82 108.91,-75.62 107.59,-75.41"/>
<polygon fill="midnightblue" stroke="midnightblue" points="107.86,-71.91 97.41,-73.66 106.67,-78.81 107.86,-71.91"/>
</g>
<!-- Node2&#45;&gt;Node4 -->
<g id="edge3" class="edge">
<title>Node2&#45;&gt;Node4</title>
<path fill="none" stroke="midnightblue" d="M627.8,-112.44C608.82,-100.27 579.76,-77.07 593.5,-56 601.75,-43.35 637.85,-29.4 664.77,-20.43"/>
<polygon fill="midnightblue" stroke="midnightblue" points="666.14,-23.67 674.57,-17.26 663.98,-17.01 666.14,-23.67"/>
</g>
<!-- Node2&#45;&gt;Node5 -->
<g id="edge4" class="edge">
<title>Node2&#45;&gt;Node5</title>
<path fill="none" stroke="midnightblue" d="M652.14,-112.32C661.01,-104.34 674.37,-92.31 685.11,-82.65"/>
<polygon fill="midnightblue" stroke="midnightblue" points="687.59,-85.13 692.68,-75.83 682.91,-79.92 687.59,-85.13"/>
</g>
<!-- Node2&#45;&gt;Node6 -->
<g id="edge5" class="edge">
<title>Node2&#45;&gt;Node6</title>
<path fill="none" stroke="midnightblue" d="M559.44,-117.53C438.44,-111.78 219.9,-98.63 144.5,-76 139.39,-74.47 82.17,-43.24 48.28,-24.64"/>
<polygon fill="midnightblue" stroke="midnightblue" points="49.85,-21.51 39.4,-19.76 46.48,-27.64 49.85,-21.51"/>
</g>
<!-- Node2&#45;&gt;Node7 -->
<g id="edge6" class="edge">
<title>Node2&#45;&gt;Node7</title>
<path fill="none" stroke="midnightblue" d="M667.22,-112.44C693.35,-103.4 734.76,-89.06 764.08,-78.92"/>
<polygon fill="midnightblue" stroke="midnightblue" points="765.59,-82.1 773.9,-75.52 763.3,-75.48 765.59,-82.1"/>
</g>
<!-- Node2&#45;&gt;Node8 -->
<g id="edge7" class="edge">
<title>Node2&#45;&gt;Node8</title>
<path fill="none" stroke="midnightblue" d="M637.27,-112.11C630.12,-98.7 619.5,-73.03 631.5,-56 637.09,-48.07 689.01,-31.34 724.44,-20.66"/>
<polygon fill="midnightblue" stroke="midnightblue" points="725.8,-23.9 734.38,-17.69 723.8,-17.2 725.8,-23.9"/>
</g>
<!-- Node2&#45;&gt;Node9 -->
<g id="edge8" class="edge">
<title>Node2&#45;&gt;Node9</title>
<path fill="none" stroke="midnightblue" d="M642.97,-112.05C644.21,-98.08 648.63,-71.12 664.5,-56 665.66,-54.9 742.41,-33.35 788.5,-20.47"/>
<polygon fill="midnightblue" stroke="midnightblue" points="789.7,-23.77 798.39,-17.71 787.82,-17.03 789.7,-23.77"/>
</g>
<!-- Node2&#45;&gt;Node10 -->
<g id="edge9" class="edge">
<title>Node2&#45;&gt;Node10</title>
<path fill="none" stroke="midnightblue" d="M604.47,-112.44C562.69,-103.04 495.52,-87.93 450.23,-77.74"/>
<polygon fill="midnightblue" stroke="midnightblue" points="450.88,-74.3 440.35,-75.52 449.34,-81.13 450.88,-74.3"/>
</g>
<!-- Node2&#45;&gt;Node20 -->
<g id="edge23" class="edge">
<title>Node2&#45;&gt;Node20</title>
<path fill="none" stroke="midnightblue" d="M575.32,-112.44C498.62,-102.68 373.48,-86.74 293.62,-76.57"/>
<polygon fill="midnightblue" stroke="midnightblue" points="293.99,-73.09 283.63,-75.29 293.11,-80.03 293.99,-73.09"/>
</g>
<!-- Node2&#45;&gt;Node21 -->
<g id="edge27" class="edge">
<title>Node2&#45;&gt;Node21</title>
<path fill="none" stroke="midnightblue" d="M683.7,-112.44C730.49,-102.73 806.67,-86.9 855.67,-76.73"/>
<polygon fill="midnightblue" stroke="midnightblue" points="856.62,-80.1 865.7,-74.64 855.2,-73.25 856.62,-80.1"/>
</g>
<!-- Node2&#45;&gt;Node22 -->
<g id="edge28" class="edge">
<title>Node2&#45;&gt;Node22</title>
<path fill="none" stroke="midnightblue" d="M708.35,-112.49C768.2,-104.48 859.17,-91.65 946.94,-76.2"/>
<polygon fill="midnightblue" stroke="midnightblue" points="947.57,-79.64 956.8,-74.45 946.34,-72.75 947.57,-79.64"/>
</g>
<!-- Node10&#45;&gt;Node4 -->
<g id="edge19" class="edge">
<title>Node10&#45;&gt;Node4</title>
<path fill="none" stroke="midnightblue" d="M465.1,-56.49C516.36,-49.01 590.89,-37.01 664.96,-19.87"/>
<polygon fill="midnightblue" stroke="midnightblue" points="666,-23.22 674.93,-17.53 664.4,-16.41 666,-23.22"/>
</g>
<!-- Node10&#45;&gt;Node6 -->
<g id="edge20" class="edge">
<title>Node10&#45;&gt;Node6</title>
<path fill="none" stroke="midnightblue" d="M308,-56.49C240.34,-49.52 147,-38.14 57,-20.07"/>
<polygon fill="midnightblue" stroke="midnightblue" points="57.67,-16.64 47.17,-18.07 56.27,-23.5 57.67,-16.64"/>
</g>
<!-- Node10&#45;&gt;Node8 -->
<g id="edge21" class="edge">
<title>Node10&#45;&gt;Node8</title>
<path fill="none" stroke="midnightblue" d="M484.38,-56.47C547.39,-49.24 636.76,-37.52 724.32,-19.78"/>
<polygon fill="midnightblue" stroke="midnightblue" points="725.06,-23.2 734.15,-17.76 723.65,-16.35 725.06,-23.2"/>
</g>
<!-- Node10&#45;&gt;Node9 -->
<g id="edge22" class="edge">
<title>Node10&#45;&gt;Node9</title>
<path fill="none" stroke="midnightblue" d="M503.37,-57.46C579.39,-50.8 686.28,-39.36 788.56,-19.92"/>
<polygon fill="midnightblue" stroke="midnightblue" points="789.29,-23.34 798.45,-18.01 787.97,-16.47 789.29,-23.34"/>
</g>
<!-- Node11 -->
<g id="node11" class="node">
<title>Node11</title>
<g id="a_node11"><a xlink:title=" ">
<polygon fill="none" stroke="#bfbfbf" points="555,-0.5 555,-19.5 590,-19.5 590,-0.5 555,-0.5"/>
<text text-anchor="middle" x="572.5" y="-7.5" font-family="serif" font-size="10.00">any</text>
</a>
</g>
</g>
<!-- Node10&#45;&gt;Node11 -->
<g id="edge10" class="edge">
<title>Node10&#45;&gt;Node11</title>
<path fill="none" stroke="midnightblue" d="M430.23,-56.43C457.15,-48.07 499.42,-34.86 545.02,-20.12"/>
<polygon fill="midnightblue" stroke="midnightblue" points="546.36,-23.36 554.8,-16.95 544.2,-16.7 546.36,-23.36"/>
</g>
<!-- Node12 -->
<g id="node12" class="node">
<title>Node12</title>
<g id="a_node12"><a xlink:title=" ">
<polygon fill="none" stroke="#bfbfbf" points="608.5,-0.5 608.5,-19.5 656.5,-19.5 656.5,-0.5 608.5,-0.5"/>
<text text-anchor="middle" x="632.5" y="-7.5" font-family="serif" font-size="10.00">cmath</text>
</a>
</g>
</g>
<!-- Node10&#45;&gt;Node12 -->
<g id="edge11" class="edge">
<title>Node10&#45;&gt;Node12</title>
<path fill="none" stroke="midnightblue" d="M441.27,-56.5C480.87,-47.72 544.1,-33.44 598.5,-20 598.6,-19.98 598.7,-19.95 598.8,-19.93"/>
<polygon fill="midnightblue" stroke="midnightblue" points="599.55,-23.35 608.38,-17.49 597.83,-16.56 599.55,-23.35"/>
</g>
<!-- Node13 -->
<g id="node13" class="node">
<title>Node13</title>
<g id="a_node13"><a xlink:title=" ">
<polygon fill="none" stroke="#bfbfbf" points="198.5,-0.5 198.5,-19.5 260.5,-19.5 260.5,-0.5 198.5,-0.5"/>
<text text-anchor="middle" x="229.5" y="-7.5" font-family="serif" font-size="10.00">concepts</text>
</a>
</g>
</g>
<!-- Node10&#45;&gt;Node13 -->
<g id="edge12" class="edge">
<title>Node10&#45;&gt;Node13</title>
<path fill="none" stroke="midnightblue" d="M375.09,-56.44C345.73,-47.28 298.98,-32.69 266.4,-22.52"/>
<polygon fill="midnightblue" stroke="midnightblue" points="267.37,-19.16 256.78,-19.52 265.29,-25.84 267.37,-19.16"/>
</g>
<!-- Node14 -->
<g id="node14" class="node">
<title>Node14</title>
<g id="a_node14"><a xlink:title=" ">
<polygon fill="none" stroke="#bfbfbf" points="278.5,-0.5 278.5,-19.5 346.5,-19.5 346.5,-0.5 278.5,-0.5"/>
<text text-anchor="middle" x="312.5" y="-7.5" font-family="serif" font-size="10.00">functional</text>
</a>
</g>
</g>
<!-- Node10&#45;&gt;Node14 -->
<g id="edge13" class="edge">
<title>Node10&#45;&gt;Node14</title>
<path fill="none" stroke="midnightblue" d="M388.04,-56.32C374,-47.9 352.45,-34.97 335.96,-25.07"/>
<polygon fill="midnightblue" stroke="midnightblue" points="337.3,-21.8 326.92,-19.65 333.7,-27.8 337.3,-21.8"/>
</g>
<!-- Node15 -->
<g id="node15" class="node">
<title>Node15</title>
<g id="a_node15"><a xlink:title=" ">
<polygon fill="none" stroke="#bfbfbf" points="364.5,-0.5 364.5,-19.5 408.5,-19.5 408.5,-0.5 364.5,-0.5"/>
<text text-anchor="middle" x="386.5" y="-7.5" font-family="serif" font-size="10.00">limits</text>
</a>
</g>
</g>
<!-- Node10&#45;&gt;Node15 -->
<g id="edge14" class="edge">
<title>Node10&#45;&gt;Node15</title>
<path fill="none" stroke="midnightblue" d="M399.86,-56.08C397.71,-48.85 394.62,-38.41 391.95,-29.4"/>
<polygon fill="midnightblue" stroke="midnightblue" points="395.29,-28.34 389.09,-19.75 388.58,-30.33 395.29,-28.34"/>
</g>
<!-- Node16 -->
<g id="node16" class="node">
<title>Node16</title>
<g id="a_node16"><a xlink:title=" ">
<polygon fill="none" stroke="#bfbfbf" points="65,-0.5 65,-19.5 104,-19.5 104,-0.5 65,-0.5"/>
<text text-anchor="middle" x="84.5" y="-7.5" font-family="serif" font-size="10.00">map</text>
</a>
</g>
</g>
<!-- Node10&#45;&gt;Node16 -->
<g id="edge15" class="edge">
<title>Node10&#45;&gt;Node16</title>
<path fill="none" stroke="midnightblue" d="M328.28,-56.48C271.97,-49.32 192.56,-37.73 114.11,-19.83"/>
<polygon fill="midnightblue" stroke="midnightblue" points="114.58,-16.34 104.05,-17.49 113,-23.16 114.58,-16.34"/>
</g>
<!-- Node17 -->
<g id="node17" class="node">
<title>Node17</title>
<g id="a_node17"><a xlink:title=" ">
<polygon fill="none" stroke="#bfbfbf" points="427,-0.5 427,-19.5 486,-19.5 486,-0.5 427,-0.5"/>
<text text-anchor="middle" x="456.5" y="-7.5" font-family="serif" font-size="10.00">memory</text>
</a>
</g>
</g>
<!-- Node10&#45;&gt;Node17 -->
<g id="edge16" class="edge">
<title>Node10&#45;&gt;Node17</title>
<path fill="none" stroke="midnightblue" d="M411.42,-56.08C419.28,-48.22 430.93,-36.57 440.42,-27.08"/>
<polygon fill="midnightblue" stroke="midnightblue" points="443.15,-29.3 447.75,-19.75 438.2,-24.35 443.15,-29.3"/>
</g>
<!-- Node18 -->
<g id="node18" class="node">
<title>Node18</title>
<g id="a_node18"><a xlink:title=" ">
<polygon fill="none" stroke="#bfbfbf" points="122.5,-0.5 122.5,-19.5 180.5,-19.5 180.5,-0.5 122.5,-0.5"/>
<text text-anchor="middle" x="151.5" y="-7.5" font-family="serif" font-size="10.00">optional</text>
</a>
</g>
</g>
<!-- Node10&#45;&gt;Node18 -->
<g id="edge17" class="edge">
<title>Node10&#45;&gt;Node18</title>
<path fill="none" stroke="midnightblue" d="M360.4,-56.42C319.49,-48.01 255.34,-34.65 190.52,-20.19"/>
<polygon fill="midnightblue" stroke="midnightblue" points="191.05,-16.72 180.53,-17.95 189.52,-23.55 191.05,-16.72"/>
</g>
<!-- Node19 -->
<g id="node19" class="node">
<title>Node19</title>
<g id="a_node19"><a xlink:title=" ">
<polygon fill="none" stroke="#bfbfbf" points="504.5,-0.5 504.5,-19.5 536.5,-19.5 536.5,-0.5 504.5,-0.5"/>
<text text-anchor="middle" x="520.5" y="-7.5" font-family="serif" font-size="10.00">set</text>
</a>
</g>
</g>
<!-- Node10&#45;&gt;Node19 -->
<g id="edge18" class="edge">
<title>Node10&#45;&gt;Node19</title>
<path fill="none" stroke="midnightblue" d="M421.2,-56.44C441.12,-47.32 472.8,-32.83 495,-22.67"/>
<polygon fill="midnightblue" stroke="midnightblue" points="496.53,-25.82 504.17,-18.47 493.62,-19.45 496.53,-25.82"/>
</g>
<!-- Node20&#45;&gt;Node6 -->
<g id="edge26" class="edge">
<title>Node20&#45;&gt;Node6</title>
<path fill="none" stroke="midnightblue" d="M187.24,-56.42C156.4,-47.94 107.67,-34.52 57.07,-20.43"/>
<polygon fill="midnightblue" stroke="midnightblue" points="57.83,-17.01 47.26,-17.7 55.96,-23.75 57.83,-17.01"/>
</g>
<!-- Node20&#45;&gt;Node16 -->
<g id="edge24" class="edge">
<title>Node20&#45;&gt;Node16</title>
<path fill="none" stroke="midnightblue" d="M197.27,-56.44C174.73,-47.36 138.94,-32.94 113.74,-22.78"/>
<polygon fill="midnightblue" stroke="midnightblue" points="114.91,-19.48 104.32,-18.99 112.29,-25.97 114.91,-19.48"/>
</g>
<!-- Node20&#45;&gt;Node18 -->
<g id="edge25" class="edge">
<title>Node20&#45;&gt;Node18</title>
<path fill="none" stroke="midnightblue" d="M207.74,-56.32C197.73,-48.26 182.61,-36.08 170.57,-26.37"/>
<polygon fill="midnightblue" stroke="midnightblue" points="172.44,-23.38 162.46,-19.83 168.05,-28.83 172.44,-23.38"/>
</g>
</g>
</svg>
