<?xml version="1.0" encoding="UTF-8" standalone="no"?>
<!DOCTYPE svg PUBLIC "-//W3C//DTD SVG 1.1//EN"
 "http://www.w3.org/Graphics/SVG/1.1/DTD/svg11.dtd">
<!-- Generated by graphviz version 2.43.0 (0)
 -->
<!-- Title: HSolverBase.hpp Pages: 1 -->
<!--zoomable 364 -->
<svg id="main" version="1.1" xmlns="http://www.w3.org/2000/svg" xmlns:xlink="http://www.w3.org/1999/xlink" xml:space="preserve" onload="init(evt)">
<style type="text/css"><![CDATA[
.edge:hover path { stroke: red; }
.edge:hover polygon { stroke: red; fill: red; }
]]></style>
<script type="text/javascript"><![CDATA[
var edges = document.getElementsByTagName('g');
if (edges && edges.length) {
  for (var i=0;i<edges.length;i++) {
    if (edges[i].id.substr(0,4)=='edge') {
      edges[i].setAttribute('class','edge');
    }
  }
}
]]></script>
        <defs>
                <circle id="rim" cx="0" cy="0" r="7"/>
                <circle id="rim2" cx="0" cy="0" r="3.5"/>
                <g id="zoomPlus">
                        <use xlink:href="#rim" fill="#404040">
                                <set attributeName="fill" to="#808080" begin="zoomplus.mouseover" end="zoomplus.mouseout"/>
                        </use>
                        <path d="M-4,0h8M0,-4v8" fill="none" stroke="white" stroke-width="1.5" pointer-events="none"/>
                </g>
                <g id="zoomMin">
                        <use xlink:href="#rim" fill="#404040">
                                <set attributeName="fill" to="#808080" begin="zoomminus.mouseover" end="zoomminus.mouseout"/>
                        </use>
                        <path d="M-4,0h8" fill="none" stroke="white" stroke-width="1.5" pointer-events="none"/>
                </g>
                <g id="dirArrow">
                        <path fill="none" stroke="white" stroke-width="1.5" d="M0,-3.0v7 M-2.5,-0.5L0,-3.0L2.5,-0.5"/>
                </g>
               <g id="resetDef">
                       <use xlink:href="#rim2" fill="#404040">
                               <set attributeName="fill" to="#808080" begin="reset.mouseover" end="reset.mouseout"/>
                       </use>
               </g>
        </defs>

<script type="text/javascript">
var viewWidth = 523;
var viewHeight = 364;
var sectionId = 'dynsection-1';
</script>
<script xlink:href="svgpan.js"/>
<svg id="graph" class="graph">
<g id="viewport">
<title>HSolverBase.hpp</title>
<!-- Node1 -->
<g id="node1" class="node">
<title>Node1</title>
<g id="a_node1"><a xlink:title="Base class for Hypre solvers.">
<polygon fill="#bfbfbf" stroke="black" points="330,-336.5 330,-355.5 436,-355.5 436,-336.5 330,-336.5"/>
<text text-anchor="middle" x="383" y="-343.5" font-family="serif" font-size="10.00">HSolverBase.hpp</text>
</a>
</g>
</g>
<!-- Node2 -->
<g id="node2" class="node">
<title>Node2</title>
<g id="a_node2"><a xlink:href="SlothSolver_8hpp.html" target="_top" xlink:title="Class to define a SlothSolver objet.">
<polygon fill="none" stroke="black" points="226,-280.5 226,-299.5 324,-299.5 324,-280.5 226,-280.5"/>
<text text-anchor="middle" x="275" y="-287.5" font-family="serif" font-size="10.00">SlothSolver.hpp</text>
</a>
</g>
</g>
<!-- Node1&#45;&gt;Node2 -->
<g id="edge1" class="edge">
<title>Node1&#45;&gt;Node2</title>
<path fill="none" stroke="midnightblue" d="M356.45,-331.73C336.45,-321.73 309.61,-308.31 292.31,-299.65"/>
<polygon fill="midnightblue" stroke="midnightblue" points="355.14,-334.98 365.65,-336.32 358.27,-328.72 355.14,-334.98"/>
</g>
<!-- Node12 -->
<g id="node12" class="node">
<title>Node12</title>
<g id="a_node12"><a xlink:href="SlothSolver_8cpp.html" target="_top" xlink:title="Class to define a SlothSolver objet.">
<polygon fill="none" stroke="black" points="366,-224.5 366,-243.5 462,-243.5 462,-224.5 366,-224.5"/>
<text text-anchor="middle" x="414" y="-231.5" font-family="serif" font-size="10.00">SlothSolver.cpp</text>
</a>
</g>
</g>
<!-- Node1&#45;&gt;Node12 -->
<g id="edge20" class="edge">
<title>Node1&#45;&gt;Node12</title>
<path fill="none" stroke="midnightblue" d="M388.16,-326.67C394.94,-302.62 406.56,-261.39 411.58,-243.59"/>
<polygon fill="midnightblue" stroke="midnightblue" points="384.78,-325.79 385.43,-336.37 391.51,-327.69 384.78,-325.79"/>
</g>
<!-- Node13 -->
<g id="node13" class="node">
<title>Node13</title>
<g id="a_node13"><a xlink:href="HSolverBase_8cpp.html" target="_top" xlink:title="Base class for Hypre solvers.">
<polygon fill="none" stroke="black" points="411,-280.5 411,-299.5 515,-299.5 515,-280.5 411,-280.5"/>
<text text-anchor="middle" x="463" y="-287.5" font-family="serif" font-size="10.00">HSolverBase.cpp</text>
</a>
</g>
</g>
<!-- Node1&#45;&gt;Node13 -->
<g id="edge19" class="edge">
<title>Node1&#45;&gt;Node13</title>
<path fill="none" stroke="midnightblue" d="M404.3,-330.62C418.92,-320.76 437.83,-307.99 450.18,-299.65"/>
<polygon fill="midnightblue" stroke="midnightblue" points="402.18,-327.83 395.85,-336.32 406.1,-333.63 402.18,-327.83"/>
</g>
<!-- Node3 -->
<g id="node3" class="node">
<title>Node3</title>
<g id="a_node3"><a xlink:href="LSolver_8hpp.html" target="_top" xlink:title="Class used to manage Linear Solver objet.">
<polygon fill="none" stroke="black" points="270,-224.5 270,-243.5 348,-243.5 348,-224.5 270,-224.5"/>
<text text-anchor="middle" x="309" y="-231.5" font-family="serif" font-size="10.00">LSolver.hpp</text>
</a>
</g>
</g>
<!-- Node2&#45;&gt;Node3 -->
<g id="edge2" class="edge">
<title>Node2&#45;&gt;Node3</title>
<path fill="none" stroke="midnightblue" d="M285.98,-271.57C291.83,-262.27 298.77,-251.25 303.49,-243.75"/>
<polygon fill="midnightblue" stroke="midnightblue" points="282.98,-269.76 280.61,-280.08 288.9,-273.49 282.98,-269.76"/>
</g>
<!-- Node9 -->
<g id="node9" class="node">
<title>Node9</title>
<g id="a_node9"><a xlink:href="LSolver_8cpp.html" target="_top" xlink:title="Class used to manage Linear Solver objet.">
<polygon fill="none" stroke="black" points="270.5,-168.5 270.5,-187.5 347.5,-187.5 347.5,-168.5 270.5,-168.5"/>
<text text-anchor="middle" x="309" y="-175.5" font-family="serif" font-size="10.00">LSolver.cpp</text>
</a>
</g>
</g>
<!-- Node2&#45;&gt;Node9 -->
<g id="edge16" class="edge">
<title>Node2&#45;&gt;Node9</title>
<path fill="none" stroke="midnightblue" d="M265.44,-271.16C259.61,-257.77 254.42,-239.19 261,-224 267.81,-208.28 283.12,-195.53 294.63,-187.67"/>
<polygon fill="midnightblue" stroke="midnightblue" points="262.34,-272.78 269.85,-280.26 268.64,-269.73 262.34,-272.78"/>
</g>
<!-- Node10 -->
<g id="node10" class="node">
<title>Node10</title>
<g id="a_node10"><a xlink:href="NLSolver_8hpp.html" target="_top" xlink:title="Class used to manage a NonLinear Solver( Newton type)">
<polygon fill="none" stroke="black" points="112.5,-224.5 112.5,-243.5 199.5,-243.5 199.5,-224.5 112.5,-224.5"/>
<text text-anchor="middle" x="156" y="-231.5" font-family="serif" font-size="10.00">NLSolver.hpp</text>
</a>
</g>
</g>
<!-- Node2&#45;&gt;Node10 -->
<g id="edge12" class="edge">
<title>Node2&#45;&gt;Node10</title>
<path fill="none" stroke="midnightblue" d="M246.86,-276.23C224.6,-266.13 194.14,-252.31 174.77,-243.52"/>
<polygon fill="midnightblue" stroke="midnightblue" points="245.59,-279.5 256.14,-280.44 248.48,-273.12 245.59,-279.5"/>
</g>
<!-- Node11 -->
<g id="node11" class="node">
<title>Node11</title>
<g id="a_node11"><a xlink:href="NLSolver_8cpp.html" target="_top" xlink:title="Class used to manage a NonLinear Solver( Newton type)">
<polygon fill="none" stroke="black" points="0,-168.5 0,-187.5 86,-187.5 86,-168.5 0,-168.5"/>
<text text-anchor="middle" x="43" y="-175.5" font-family="serif" font-size="10.00">NLSolver.cpp</text>
</a>
</g>
</g>
<!-- Node2&#45;&gt;Node11 -->
<g id="edge17" class="edge">
<title>Node2&#45;&gt;Node11</title>
<path fill="none" stroke="midnightblue" d="M215.77,-281.99C181.02,-275.88 137.32,-264.6 103,-244 78.51,-229.3 57.93,-201.65 48.51,-187.62"/>
<polygon fill="midnightblue" stroke="midnightblue" points="215.35,-285.47 225.79,-283.66 216.5,-278.57 215.35,-285.47"/>
</g>
<!-- Node2&#45;&gt;Node12 -->
<g id="edge18" class="edge">
<title>Node2&#45;&gt;Node12</title>
<path fill="none" stroke="midnightblue" d="M306.48,-276.77C332.59,-266.63 369.04,-252.47 392.08,-243.52"/>
<polygon fill="midnightblue" stroke="midnightblue" points="305.08,-273.56 297.02,-280.44 307.61,-280.08 305.08,-273.56"/>
</g>
<!-- Node4 -->
<g id="node4" class="node">
<title>Node4</title>
<g id="a_node4"><a xlink:href="OperatorBase_8hpp.html" target="_top" xlink:title="Base class for building Steady and TimeDependent PhaseFieldOperators.">
<polygon fill="none" stroke="black" points="142,-168.5 142,-187.5 252,-187.5 252,-168.5 142,-168.5"/>
<text text-anchor="middle" x="197" y="-175.5" font-family="serif" font-size="10.00">OperatorBase.hpp</text>
</a>
</g>
</g>
<!-- Node3&#45;&gt;Node4 -->
<g id="edge3" class="edge">
<title>Node3&#45;&gt;Node4</title>
<path fill="none" stroke="midnightblue" d="M281.75,-219.86C260.98,-209.85 232.98,-196.35 214.95,-187.65"/>
<polygon fill="midnightblue" stroke="midnightblue" points="280.48,-223.13 291.01,-224.32 283.52,-216.83 280.48,-223.13"/>
</g>
<!-- Node5 -->
<g id="node5" class="node">
<title>Node5</title>
<g id="a_node5"><a xlink:href="SteadyOperator_8hpp.html" target="_top" xlink:title="Steady Operator.">
<polygon fill="none" stroke="black" points="137,-112.5 137,-131.5 257,-131.5 257,-112.5 137,-112.5"/>
<text text-anchor="middle" x="197" y="-119.5" font-family="serif" font-size="10.00">SteadyOperator.hpp</text>
</a>
</g>
</g>
<!-- Node3&#45;&gt;Node5 -->
<g id="edge9" class="edge">
<title>Node3&#45;&gt;Node5</title>
<path fill="none" stroke="midnightblue" d="M331.66,-218.37C349.34,-205.11 368.92,-185.09 356,-168 343.37,-151.3 293.43,-139.01 252.84,-131.53"/>
<polygon fill="midnightblue" stroke="midnightblue" points="329.42,-215.66 323.28,-224.29 333.47,-221.38 329.42,-215.66"/>
</g>
<!-- Node8 -->
<g id="node8" class="node">
<title>Node8</title>
<g id="a_node8"><a xlink:href="TransientOperator_8hpp.html" target="_top" xlink:title="Transient Operator.">
<polygon fill="none" stroke="black" points="275,-112.5 275,-131.5 409,-131.5 409,-112.5 275,-112.5"/>
<text text-anchor="middle" x="342" y="-119.5" font-family="serif" font-size="10.00">TransientOperator.hpp</text>
</a>
</g>
</g>
<!-- Node3&#45;&gt;Node8 -->
<g id="edge10" class="edge">
<title>Node3&#45;&gt;Node8</title>
<path fill="none" stroke="midnightblue" d="M349.52,-220.54C365.01,-213.57 381.08,-203.16 390,-188 402.59,-166.6 374.83,-143.72 356.49,-131.64"/>
<polygon fill="midnightblue" stroke="midnightblue" points="347.94,-217.4 340.02,-224.44 350.6,-223.88 347.94,-217.4"/>
</g>
<!-- Node3&#45;&gt;Node9 -->
<g id="edge11" class="edge">
<title>Node3&#45;&gt;Node9</title>
<path fill="none" stroke="midnightblue" d="M309,-213.8C309,-204.91 309,-194.78 309,-187.75"/>
<polygon fill="midnightblue" stroke="midnightblue" points="305.5,-214.08 309,-224.08 312.5,-214.08 305.5,-214.08"/>
</g>
<!-- Node4&#45;&gt;Node5 -->
<g id="edge4" class="edge">
<title>Node4&#45;&gt;Node5</title>
<path fill="none" stroke="midnightblue" d="M197,-157.8C197,-148.91 197,-138.78 197,-131.75"/>
<polygon fill="midnightblue" stroke="midnightblue" points="193.5,-158.08 197,-168.08 200.5,-158.08 193.5,-158.08"/>
</g>
<!-- Node4&#45;&gt;Node8 -->
<g id="edge7" class="edge">
<title>Node4&#45;&gt;Node8</title>
<path fill="none" stroke="midnightblue" d="M229.48,-164.91C256.74,-154.75 294.99,-140.51 319.13,-131.52"/>
<polygon fill="midnightblue" stroke="midnightblue" points="228.13,-161.67 219.98,-168.44 230.57,-168.23 228.13,-161.67"/>
</g>
<!-- Node6 -->
<g id="node6" class="node">
<title>Node6</title>
<g id="a_node6"><a xlink:href="ListOperators_8hpp.html" target="_top" xlink:title=" ">
<polygon fill="none" stroke="black" points="214,-56.5 214,-75.5 324,-75.5 324,-56.5 214,-56.5"/>
<text text-anchor="middle" x="269" y="-63.5" font-family="serif" font-size="10.00">ListOperators.hpp</text>
</a>
</g>
</g>
<!-- Node5&#45;&gt;Node6 -->
<g id="edge5" class="edge">
<title>Node5&#45;&gt;Node6</title>
<path fill="none" stroke="midnightblue" d="M216.87,-106.1C229.82,-96.38 246.3,-84.03 257.22,-75.83"/>
<polygon fill="midnightblue" stroke="midnightblue" points="214.47,-103.52 208.57,-112.32 218.67,-109.12 214.47,-103.52"/>
</g>
<!-- Node7 -->
<g id="node7" class="node">
<title>Node7</title>
<g id="a_node7"><a xlink:href="sloth_8hpp.html" target="_top" xlink:title="List of SLOTH header files.">
<polygon fill="none" stroke="black" points="236.5,-0.5 236.5,-19.5 301.5,-19.5 301.5,-0.5 236.5,-0.5"/>
<text text-anchor="middle" x="269" y="-7.5" font-family="serif" font-size="10.00">sloth.hpp</text>
</a>
</g>
</g>
<!-- Node6&#45;&gt;Node7 -->
<g id="edge6" class="edge">
<title>Node6&#45;&gt;Node7</title>
<path fill="none" stroke="midnightblue" d="M269,-45.8C269,-36.91 269,-26.78 269,-19.75"/>
<polygon fill="midnightblue" stroke="midnightblue" points="265.5,-46.08 269,-56.08 272.5,-46.08 265.5,-46.08"/>
</g>
<!-- Node8&#45;&gt;Node6 -->
<g id="edge8" class="edge">
<title>Node8&#45;&gt;Node6</title>
<path fill="none" stroke="midnightblue" d="M321.86,-106.1C308.72,-96.38 292.02,-84.03 280.94,-75.83"/>
<polygon fill="midnightblue" stroke="midnightblue" points="320.15,-109.19 330.27,-112.32 324.31,-103.56 320.15,-109.19"/>
</g>
<!-- Node10&#45;&gt;Node4 -->
<g id="edge13" class="edge">
<title>Node10&#45;&gt;Node4</title>
<path fill="none" stroke="midnightblue" d="M169.02,-215.86C176.12,-206.5 184.6,-195.33 190.36,-187.75"/>
<polygon fill="midnightblue" stroke="midnightblue" points="166.03,-214 162.77,-224.08 171.61,-218.24 166.03,-214"/>
</g>
<!-- Node10&#45;&gt;Node5 -->
<g id="edge14" class="edge">
<title>Node10&#45;&gt;Node5</title>
<path fill="none" stroke="midnightblue" d="M142.49,-215.97C133.59,-202.54 124.93,-183.54 133,-168 141.89,-150.88 160.61,-138.91 175.52,-131.64"/>
<polygon fill="midnightblue" stroke="midnightblue" points="139.8,-218.22 148.5,-224.27 145.47,-214.12 139.8,-218.22"/>
</g>
<!-- Node10&#45;&gt;Node11 -->
<g id="edge15" class="edge">
<title>Node10&#45;&gt;Node11</title>
<path fill="none" stroke="midnightblue" d="M129,-220.1C107.89,-210.01 79.14,-196.27 60.82,-187.52"/>
<polygon fill="midnightblue" stroke="midnightblue" points="127.56,-223.29 138.09,-224.44 130.58,-216.97 127.56,-223.29"/>
</g>
</g>
</svg>
        <g id="navigator" transform="translate(0 0)" fill="#404254">
                <rect fill="#f2f5e9" fill-opacity="0.5" stroke="#606060" stroke-width=".5" x="0" y="0" width="60" height="60"/>
                <use id="zoomplus" xlink:href="#zoomPlus" x="17" y="9" onmousedown="handleZoom(evt,'in')"/>
                <use id="zoomminus" xlink:href="#zoomMin" x="42" y="9" onmousedown="handleZoom(evt,'out')"/>
                <use id="reset" xlink:href="#resetDef" x="30" y="36" onmousedown="handleReset()"/>
                <g id="arrowUp" xlink:href="#dirArrow" transform="translate(30 24)" onmousedown="handlePan(0,-1)">
                  <use xlink:href="#rim" fill="#404040">
                        <set attributeName="fill" to="#808080" begin="arrowUp.mouseover" end="arrowUp.mouseout"/>
                  </use>
                  <path fill="none" stroke="white" stroke-width="1.5" d="M0,-3.0v7 M-2.5,-0.5L0,-3.0L2.5,-0.5"/>
                </g>
                <g id="arrowRight" xlink:href="#dirArrow" transform="rotate(90) translate(36 -43)" onmousedown="handlePan(1,0)">
                  <use xlink:href="#rim" fill="#404040">
                        <set attributeName="fill" to="#808080" begin="arrowRight.mouseover" end="arrowRight.mouseout"/>
                  </use>
                  <path fill="none" stroke="white" stroke-width="1.5" d="M0,-3.0v7 M-2.5,-0.5L0,-3.0L2.5,-0.5"/>
                </g>
                <g id="arrowDown" xlink:href="#dirArrow" transform="rotate(180) translate(-30 -48)" onmousedown="handlePan(0,1)">
                  <use xlink:href="#rim" fill="#404040">
                        <set attributeName="fill" to="#808080" begin="arrowDown.mouseover" end="arrowDown.mouseout"/>
                  </use>
                  <path fill="none" stroke="white" stroke-width="1.5" d="M0,-3.0v7 M-2.5,-0.5L0,-3.0L2.5,-0.5"/>
                </g>
                <g id="arrowLeft" xlink:href="#dirArrow" transform="rotate(270) translate(-36 17)" onmousedown="handlePan(-1,0)">
                  <use xlink:href="#rim" fill="#404040">
                        <set attributeName="fill" to="#808080" begin="arrowLeft.mouseover" end="arrowLeft.mouseout"/>
                  </use>
                  <path fill="none" stroke="white" stroke-width="1.5" d="M0,-3.0v7 M-2.5,-0.5L0,-3.0L2.5,-0.5"/>
                </g>
        </g>
        <svg viewBox="0 0 15 15" width="100%" height="30px" preserveAspectRatio="xMaxYMin meet">
         <g id="arrow_out" transform="scale(0.3 0.3)">
          <a xlink:href="HSolverBase_8hpp__dep__incl_org.svg" target="_base">
           <rect id="button" ry="5" rx="5" y="6" x="6" height="38" width="38"
                fill="#f2f5e9" fill-opacity="0.5" stroke="#606060" stroke-width="1.0"/>
           <path id="arrow"
             d="M 11.500037,31.436501 C 11.940474,20.09759 22.043105,11.32322 32.158766,21.979434 L 37.068811,17.246167 C 37.068811,17.246167 37.088388,32 37.088388,32 L 22.160133,31.978069 C 22.160133,31.978069 26.997745,27.140456 26.997745,27.140456 C 18.528582,18.264221 13.291696,25.230495 11.500037,31.436501 z"
             style="fill:#404040;"/>
          </a>
         </g>
        </svg>
</svg>
