<?xml version="1.0" encoding="UTF-8" standalone="no"?>
<!DOCTYPE svg PUBLIC "-//W3C//DTD SVG 1.1//EN"
 "http://www.w3.org/Graphics/SVG/1.1/DTD/svg11.dtd">
<!-- Generated by graphviz version 2.43.0 (0)
 -->
<!-- Title: Graphical Class Hierarchy Pages: 1 -->
<svg width="826pt" height="529pt"
 viewBox="0.00 0.00 826.00 529.00" xmlns="http://www.w3.org/2000/svg" xmlns:xlink="http://www.w3.org/1999/xlink">
<g id="graph0" class="graph" transform="scale(1 1) rotate(0) translate(4 525)">
<title>Graphical Class Hierarchy</title>
<!-- Node3 -->
<g id="node1" class="node">
<title>Node3</title>
<g id="a_node1"><a xlink:title=" ">
<polygon fill="none" stroke="#bfbfbf" points="0,-291.5 0,-321.5 158,-321.5 158,-291.5 0,-291.5"/>
<text text-anchor="start" x="8" y="-309.5" font-family="serif" font-size="10.00">mfem::BlockNonlinearForm</text>
<text text-anchor="middle" x="79" y="-298.5" font-family="serif" font-size="10.00">Integrator</text>
</a>
</g>
</g>
<!-- Node0 -->
<g id="node2" class="node">
<title>Node0</title>
<g id="a_node2"><a xlink:href="classAllenCahnGrainNLFormIntegrator.html" target="_top" xlink:title="Class dedicated to the FV of the Allen Cahn equation.">
<polygon fill="none" stroke="black" points="367,-490.5 367,-520.5 576,-520.5 576,-490.5 367,-490.5"/>
<text text-anchor="start" x="375" y="-508.5" font-family="serif" font-size="10.00">AllenCahnGrainNLFormIntegrator</text>
<text text-anchor="middle" x="471.5" y="-497.5" font-family="serif" font-size="10.00">&lt; VARS, SCHEME, ENERGY, MOBI &gt;</text>
</a>
</g>
</g>
<!-- Node3&#45;&gt;Node0 -->
<g id="edge1" class="edge">
<title>Node3&#45;&gt;Node0</title>
<path fill="none" stroke="midnightblue" d="M107.96,-327.81C157.49,-364.55 265.07,-439.87 367,-481.5 375.28,-484.88 384.14,-487.84 393.06,-490.42"/>
<polygon fill="midnightblue" stroke="midnightblue" points="109.79,-324.8 99.68,-321.62 105.6,-330.41 109.79,-324.8"/>
</g>
<!-- Node5 -->
<g id="node3" class="node">
<title>Node5</title>
<g id="a_node3"><a xlink:href="classSlothNLFormIntegrator.html" target="_top" xlink:title="Class prodiving common methods to all NLFormIntegrators.">
<polygon fill="none" stroke="black" points="194,-269.5 194,-299.5 331,-299.5 331,-269.5 194,-269.5"/>
<text text-anchor="start" x="202" y="-287.5" font-family="serif" font-size="10.00">SlothNLFormIntegrator</text>
<text text-anchor="middle" x="262.5" y="-276.5" font-family="serif" font-size="10.00">&lt; VARS &gt;</text>
</a>
</g>
</g>
<!-- Node3&#45;&gt;Node5 -->
<g id="edge2" class="edge">
<title>Node3&#45;&gt;Node5</title>
<path fill="none" stroke="midnightblue" d="M168.13,-295.82C176.77,-294.77 185.43,-293.72 193.82,-292.7"/>
<polygon fill="midnightblue" stroke="midnightblue" points="167.53,-292.36 158.03,-297.04 168.37,-299.31 167.53,-292.36"/>
</g>
<!-- Node5&#45;&gt;Node0 -->
<g id="edge3" class="edge">
<title>Node5&#45;&gt;Node0</title>
<path fill="none" stroke="midnightblue" d="M277.88,-308.14C292.02,-331.72 313.9,-369.12 331,-402.5 348.6,-436.84 337.13,-457.07 367,-481.5 371.14,-484.89 375.67,-487.81 380.45,-490.34"/>
<polygon fill="midnightblue" stroke="midnightblue" points="280.85,-306.29 272.69,-299.53 274.85,-309.9 280.85,-306.29"/>
</g>
<!-- Node6 -->
<g id="node4" class="node">
<title>Node6</title>
<g id="a_node4"><a xlink:href="classAllenCahnNLFormIntegrator.html" target="_top" xlink:title="Class dedicated to the VF of the RHS of the AllenCahn equation (see TimeDerivative integrator for the...">
<polygon fill="none" stroke="black" points="389.5,-441.5 389.5,-471.5 553.5,-471.5 553.5,-441.5 389.5,-441.5"/>
<text text-anchor="start" x="397.5" y="-459.5" font-family="serif" font-size="10.00">AllenCahnNLFormIntegrator</text>
<text text-anchor="middle" x="471.5" y="-448.5" font-family="serif" font-size="10.00">&lt; VARS &gt;</text>
</a>
</g>
</g>
<!-- Node5&#45;&gt;Node6 -->
<g id="edge4" class="edge">
<title>Node5&#45;&gt;Node6</title>
<path fill="none" stroke="midnightblue" d="M273.92,-309.37C289.24,-342.76 321.09,-401.48 367,-432.5 373.88,-437.15 381.54,-440.9 389.49,-443.93"/>
<polygon fill="midnightblue" stroke="midnightblue" points="276.96,-307.59 269.7,-299.87 270.57,-310.43 276.96,-307.59"/>
</g>
<!-- Node7 -->
<g id="node5" class="node">
<title>Node7</title>
<g id="a_node5"><a xlink:href="classBlockAllenCahnNLFormIntegrator.html" target="_top" xlink:title="Class dedicated to the VF of the AllenCahn equation (splitted form)">
<polygon fill="none" stroke="black" points="375.5,-392.5 375.5,-422.5 567.5,-422.5 567.5,-392.5 375.5,-392.5"/>
<text text-anchor="start" x="383.5" y="-410.5" font-family="serif" font-size="10.00">BlockAllenCahnNLFormIntegrator</text>
<text text-anchor="middle" x="471.5" y="-399.5" font-family="serif" font-size="10.00">&lt; VARS &gt;</text>
</a>
</g>
</g>
<!-- Node5&#45;&gt;Node7 -->
<g id="edge5" class="edge">
<title>Node5&#45;&gt;Node7</title>
<path fill="none" stroke="midnightblue" d="M281.06,-307.33C299.84,-330.13 331.74,-364.44 367,-383.5 373.41,-386.96 380.31,-389.93 387.38,-392.47"/>
<polygon fill="midnightblue" stroke="midnightblue" points="283.75,-305.09 274.75,-299.5 278.3,-309.48 283.75,-305.09"/>
</g>
<!-- Node8 -->
<g id="node6" class="node">
<title>Node8</title>
<g id="a_node6"><a xlink:href="classCahnHilliardNLFormIntegrator.html" target="_top" xlink:title="Class dedicated to the VF of the RHS of the Cahn&#45;Hilliard equation (splitted form) (see SplitTimeDeri...">
<polygon fill="none" stroke="black" points="383.5,-343.5 383.5,-373.5 559.5,-373.5 559.5,-343.5 383.5,-343.5"/>
<text text-anchor="start" x="391.5" y="-361.5" font-family="serif" font-size="10.00">CahnHilliardNLFormIntegrator</text>
<text text-anchor="middle" x="471.5" y="-350.5" font-family="serif" font-size="10.00">&lt; VARS &gt;</text>
</a>
</g>
</g>
<!-- Node5&#45;&gt;Node8 -->
<g id="edge6" class="edge">
<title>Node5&#45;&gt;Node8</title>
<path fill="none" stroke="midnightblue" d="M299.32,-304.24C318.87,-314.39 343.77,-326.31 367,-334.5 376.39,-337.81 386.43,-340.79 396.42,-343.44"/>
<polygon fill="midnightblue" stroke="midnightblue" points="300.94,-301.14 290.46,-299.58 297.68,-307.34 300.94,-301.14"/>
</g>
<!-- Node9 -->
<g id="node7" class="node">
<title>Node9</title>
<g id="a_node7"><a xlink:href="classDiffusionFluxNLFormIntegrator.html" target="_top" xlink:title="Class dedicated to the VF of an inter&#45;diffusion equation.">
<polygon fill="none" stroke="black" points="382,-294.5 382,-324.5 561,-324.5 561,-294.5 382,-294.5"/>
<text text-anchor="start" x="390" y="-312.5" font-family="serif" font-size="10.00">DiffusionFluxNLFormIntegrator</text>
<text text-anchor="middle" x="471.5" y="-301.5" font-family="serif" font-size="10.00">&lt; VARS &gt;</text>
</a>
</g>
</g>
<!-- Node5&#45;&gt;Node9 -->
<g id="edge7" class="edge">
<title>Node5&#45;&gt;Node9</title>
<path fill="none" stroke="midnightblue" d="M341.27,-293.89C354.51,-295.49 368.35,-297.16 381.85,-298.79"/>
<polygon fill="midnightblue" stroke="midnightblue" points="341.63,-290.41 331.28,-292.69 340.79,-297.36 341.63,-290.41"/>
</g>
<!-- Node12 -->
<g id="node10" class="node">
<title>Node12</title>
<g id="a_node10"><a xlink:href="classDiffusionNLFormIntegrator.html" target="_top" xlink:title="Nonlinear form integrator for diffusion&#45;type problems.">
<polygon fill="none" stroke="black" points="393,-245.5 393,-275.5 550,-275.5 550,-245.5 393,-245.5"/>
<text text-anchor="start" x="401" y="-263.5" font-family="serif" font-size="10.00">DiffusionNLFormIntegrator</text>
<text text-anchor="middle" x="471.5" y="-252.5" font-family="serif" font-size="10.00">&lt; VARS &gt;</text>
</a>
</g>
</g>
<!-- Node5&#45;&gt;Node12 -->
<g id="edge10" class="edge">
<title>Node5&#45;&gt;Node12</title>
<path fill="none" stroke="midnightblue" d="M341.59,-275.45C358.37,-273.5 376.11,-271.44 392.87,-269.5"/>
<polygon fill="midnightblue" stroke="midnightblue" points="340.81,-272.01 331.28,-276.64 341.62,-278.97 340.81,-272.01"/>
</g>
<!-- Node15 -->
<g id="node13" class="node">
<title>Node15</title>
<g id="a_node13"><a xlink:href="classLatentHeatNLFormIntegrator.html" target="_top" xlink:title="Latent heat contribution for heat transfer equations.">
<polygon fill="none" stroke="black" points="387,-196.5 387,-226.5 556,-226.5 556,-196.5 387,-196.5"/>
<text text-anchor="start" x="395" y="-214.5" font-family="serif" font-size="10.00">LatentHeatNLFormIntegrator</text>
<text text-anchor="middle" x="471.5" y="-203.5" font-family="serif" font-size="10.00">&lt; VARS &gt;</text>
</a>
</g>
</g>
<!-- Node5&#45;&gt;Node15 -->
<g id="edge13" class="edge">
<title>Node5&#45;&gt;Node15</title>
<path fill="none" stroke="midnightblue" d="M300.94,-264.96C320.29,-255.42 344.5,-244.35 367,-236.5 377.56,-232.82 388.91,-229.48 400.08,-226.53"/>
<polygon fill="midnightblue" stroke="midnightblue" points="299.25,-261.89 291.87,-269.49 302.38,-268.15 299.25,-261.89"/>
</g>
<!-- Node16 -->
<g id="node14" class="node">
<title>Node16</title>
<g id="a_node14"><a xlink:href="classMeltingBaseNLFormIntegrator.html" target="_top" xlink:title="Base class for melting integrators.">
<polygon fill="none" stroke="black" points="383.5,-147.5 383.5,-177.5 559.5,-177.5 559.5,-147.5 383.5,-147.5"/>
<text text-anchor="start" x="391.5" y="-165.5" font-family="serif" font-size="10.00">MeltingBaseNLFormIntegrator</text>
<text text-anchor="middle" x="471.5" y="-154.5" font-family="serif" font-size="10.00">&lt; VARS &gt;</text>
</a>
</g>
</g>
<!-- Node5&#45;&gt;Node16 -->
<g id="edge14" class="edge">
<title>Node5&#45;&gt;Node16</title>
<path fill="none" stroke="midnightblue" d="M281.76,-261.54C300.72,-239.27 332.41,-206.17 367,-187.5 374.16,-183.64 381.91,-180.36 389.85,-177.59"/>
<polygon fill="midnightblue" stroke="midnightblue" points="278.84,-259.57 275.14,-269.5 284.22,-264.05 278.84,-259.57"/>
</g>
<!-- Node20 -->
<g id="node18" class="node">
<title>Node20</title>
<g id="a_node18"><a xlink:href="classRobinNLFormIntegrator.html" target="_top" xlink:title="Class dedicated to the Robin boundary condition integrator.">
<polygon fill="none" stroke="black" points="401,-98.5 401,-128.5 542,-128.5 542,-98.5 401,-98.5"/>
<text text-anchor="start" x="409" y="-116.5" font-family="serif" font-size="10.00">RobinNLFormIntegrator</text>
<text text-anchor="middle" x="471.5" y="-105.5" font-family="serif" font-size="10.00">&lt; VARS &gt;</text>
</a>
</g>
</g>
<!-- Node5&#45;&gt;Node20 -->
<g id="edge18" class="edge">
<title>Node5&#45;&gt;Node20</title>
<path fill="none" stroke="midnightblue" d="M274.05,-260.03C289.53,-227.15 321.55,-169.3 367,-138.5 377.1,-131.66 388.87,-126.68 400.78,-123.06"/>
<polygon fill="midnightblue" stroke="midnightblue" points="270.76,-258.82 269.79,-269.37 277.12,-261.73 270.76,-258.82"/>
</g>
<!-- Node22 -->
<g id="node20" class="node">
<title>Node22</title>
<g id="a_node20"><a xlink:href="classTimeCHNLFormIntegrator.html" target="_top" xlink:title="Class dedicated to the VF of the time&#45;derivative (eg. LHS of Cahn&#45;Hilliard and Allen&#45;Cahn equations u...">
<polygon fill="none" stroke="black" points="395,-49.5 395,-79.5 548,-79.5 548,-49.5 395,-49.5"/>
<text text-anchor="start" x="403" y="-67.5" font-family="serif" font-size="10.00">TimeCHNLFormIntegrator</text>
<text text-anchor="middle" x="471.5" y="-56.5" font-family="serif" font-size="10.00">&lt; VARS &gt;</text>
</a>
</g>
</g>
<!-- Node5&#45;&gt;Node22 -->
<g id="edge20" class="edge">
<title>Node5&#45;&gt;Node22</title>
<path fill="none" stroke="midnightblue" d="M269.55,-259.62C281.06,-217.77 310.19,-133.58 367,-89.5 375.25,-83.1 384.9,-78.3 394.93,-74.72"/>
<polygon fill="midnightblue" stroke="midnightblue" points="266.17,-258.73 267,-269.29 272.93,-260.52 266.17,-258.73"/>
</g>
<!-- Node23 -->
<g id="node21" class="node">
<title>Node23</title>
<g id="a_node21"><a xlink:href="classTimeNLFormIntegrator.html" target="_top" xlink:title="Class dedicated to the VF of the time&#45;derivative (eg. LHS of Allen&#45;Cahn equation)">
<polygon fill="none" stroke="black" points="403,-0.5 403,-30.5 540,-30.5 540,-0.5 403,-0.5"/>
<text text-anchor="start" x="411" y="-18.5" font-family="serif" font-size="10.00">TimeNLFormIntegrator</text>
<text text-anchor="middle" x="471.5" y="-7.5" font-family="serif" font-size="10.00">&lt; VARS &gt;</text>
</a>
</g>
</g>
<!-- Node5&#45;&gt;Node23 -->
<g id="edge21" class="edge">
<title>Node5&#45;&gt;Node23</title>
<path fill="none" stroke="midnightblue" d="M266.57,-259.41C274.07,-209.48 298.04,-97.52 367,-39.5 377.23,-30.89 389.97,-25.23 402.97,-21.54"/>
<polygon fill="midnightblue" stroke="midnightblue" points="263.1,-258.96 265.18,-269.35 270.03,-259.93 263.1,-258.96"/>
</g>
<!-- Node10 -->
<g id="node8" class="node">
<title>Node10</title>
<g id="a_node8"><a xlink:href="classMassDiffusionFluxNLFormIntegrator.html" target="_top" xlink:title="Class dedicated to the VF of diffusion flux (gradient of chemical potential) used in mass balance equ...">
<polygon fill="none" stroke="black" points="612,-392.5 612,-422.5 818,-422.5 818,-392.5 612,-392.5"/>
<text text-anchor="start" x="620" y="-410.5" font-family="serif" font-size="10.00">MassDiffusionFluxNLFormIntegrator</text>
<text text-anchor="middle" x="715" y="-399.5" font-family="serif" font-size="10.00">&lt; VARS &gt;</text>
</a>
</g>
</g>
<!-- Node9&#45;&gt;Node10 -->
<g id="edge8" class="edge">
<title>Node9&#45;&gt;Node10</title>
<path fill="none" stroke="midnightblue" d="M566.26,-328.8C569.63,-330.54 572.89,-332.43 576,-334.5 598.5,-349.47 589.46,-368.6 612,-383.5 617.24,-386.96 622.91,-389.93 628.82,-392.46"/>
<polygon fill="midnightblue" stroke="midnightblue" points="567.66,-325.58 557.11,-324.55 564.71,-331.93 567.66,-325.58"/>
</g>
<!-- Node11 -->
<g id="node9" class="node">
<title>Node11</title>
<g id="a_node9"><a xlink:href="classThermalDiffusionFluxNLFormIntegrator.html" target="_top" xlink:title="Class dedicated to the VF of thermal diffusion flux used in energy balance equation.">
<polygon fill="none" stroke="black" points="630,-343.5 630,-373.5 800,-373.5 800,-343.5 630,-343.5"/>
<text text-anchor="start" x="638" y="-361.5" font-family="serif" font-size="10.00">ThermalDiffusionFluxNLForm</text>
<text text-anchor="middle" x="715" y="-350.5" font-family="serif" font-size="10.00">Integrator&lt; VARS &gt;</text>
</a>
</g>
</g>
<!-- Node9&#45;&gt;Node11 -->
<g id="edge9" class="edge">
<title>Node9&#45;&gt;Node11</title>
<path fill="none" stroke="midnightblue" d="M556.48,-326.54C583.68,-332.06 613.63,-338.13 640.04,-343.49"/>
<polygon fill="midnightblue" stroke="midnightblue" points="557.1,-323.09 546.6,-324.53 555.7,-329.95 557.1,-323.09"/>
</g>
<!-- Node13 -->
<g id="node11" class="node">
<title>Node13</title>
<g id="a_node11"><a xlink:href="classFickNLFormIntegrator.html" target="_top" xlink:title="Nonlinear form integrator for the right&#45;hand side of the mass diffusion equation (Fick&#39;s law).">
<polygon fill="none" stroke="black" points="649,-294.5 649,-324.5 781,-324.5 781,-294.5 649,-294.5"/>
<text text-anchor="start" x="657" y="-312.5" font-family="serif" font-size="10.00">FickNLFormIntegrator</text>
<text text-anchor="middle" x="715" y="-301.5" font-family="serif" font-size="10.00">&lt; VARS &gt;</text>
</a>
</g>
</g>
<!-- Node12&#45;&gt;Node13 -->
<g id="edge11" class="edge">
<title>Node12&#45;&gt;Node13</title>
<path fill="none" stroke="midnightblue" d="M556.68,-277.58C586.82,-283.7 620.32,-290.49 648.63,-296.24"/>
<polygon fill="midnightblue" stroke="midnightblue" points="557.1,-274.09 546.6,-275.53 555.7,-280.95 557.1,-274.09"/>
</g>
<!-- Node14 -->
<g id="node12" class="node">
<title>Node14</title>
<g id="a_node12"><a xlink:href="classFourierNLFormIntegrator.html" target="_top" xlink:title="Nonlinear form integrator for the right&#45;hand side of the heat transfer equation (Fourier&#39;s law).">
<polygon fill="none" stroke="black" points="640.5,-245.5 640.5,-275.5 789.5,-275.5 789.5,-245.5 640.5,-245.5"/>
<text text-anchor="start" x="648.5" y="-263.5" font-family="serif" font-size="10.00">FourierNLFormIntegrator</text>
<text text-anchor="middle" x="715" y="-252.5" font-family="serif" font-size="10.00">&lt; VARS &gt;</text>
</a>
</g>
</g>
<!-- Node12&#45;&gt;Node14 -->
<g id="edge12" class="edge">
<title>Node12&#45;&gt;Node14</title>
<path fill="none" stroke="midnightblue" d="M560.52,-260.5C586.64,-260.5 614.97,-260.5 640.1,-260.5"/>
<polygon fill="midnightblue" stroke="midnightblue" points="560.24,-257 550.24,-260.5 560.24,-264 560.24,-257"/>
</g>
<!-- Node17 -->
<g id="node15" class="node">
<title>Node17</title>
<g id="a_node15"><a xlink:href="classMeltingCalphadNLFormIntegrator.html" target="_top" xlink:title="Class dedicated to the VF of Calphad melting contribution found in Allen&#45;Cahn&#45;type equations.">
<polygon fill="none" stroke="black" points="618,-196.5 618,-226.5 812,-226.5 812,-196.5 618,-196.5"/>
<text text-anchor="start" x="626" y="-214.5" font-family="serif" font-size="10.00">MeltingCalphadNLFormIntegrator</text>
<text text-anchor="middle" x="715" y="-203.5" font-family="serif" font-size="10.00">&lt; VARS &gt;</text>
</a>
</g>
</g>
<!-- Node16&#45;&gt;Node17 -->
<g id="edge15" class="edge">
<title>Node16&#45;&gt;Node17</title>
<path fill="none" stroke="midnightblue" d="M556.48,-179.54C583.68,-185.06 613.63,-191.13 640.04,-196.49"/>
<polygon fill="midnightblue" stroke="midnightblue" points="557.1,-176.09 546.6,-177.53 555.7,-182.95 557.1,-176.09"/>
</g>
<!-- Node18 -->
<g id="node16" class="node">
<title>Node18</title>
<g id="a_node16"><a xlink:href="classMeltingConstantNLFormIntegrator.html" target="_top" xlink:title="Class dedicated to the VF of an ad&#45;hoc constant melting contribution found in Allen&#45;Cahn&#45;type equatio...">
<polygon fill="none" stroke="black" points="616.5,-147.5 616.5,-177.5 813.5,-177.5 813.5,-147.5 616.5,-147.5"/>
<text text-anchor="start" x="624.5" y="-165.5" font-family="serif" font-size="10.00">MeltingConstantNLFormIntegrator</text>
<text text-anchor="middle" x="715" y="-154.5" font-family="serif" font-size="10.00">&lt; VARS &gt;</text>
</a>
</g>
</g>
<!-- Node16&#45;&gt;Node18 -->
<g id="edge16" class="edge">
<title>Node16&#45;&gt;Node18</title>
<path fill="none" stroke="midnightblue" d="M569.69,-162.5C585.04,-162.5 600.93,-162.5 616.29,-162.5"/>
<polygon fill="midnightblue" stroke="midnightblue" points="569.69,-159 559.69,-162.5 569.69,-166 569.69,-159"/>
</g>
<!-- Node19 -->
<g id="node17" class="node">
<title>Node19</title>
<g id="a_node17"><a xlink:href="classMeltingTemperatureNLFormIntegrator.html" target="_top" xlink:title="Class dedicated to the VF of an ad&#45;hoc temperature melting contribution found in Allen&#45;Cahn&#45;type equa...">
<polygon fill="none" stroke="black" points="632.5,-98.5 632.5,-128.5 797.5,-128.5 797.5,-98.5 632.5,-98.5"/>
<text text-anchor="start" x="640.5" y="-116.5" font-family="serif" font-size="10.00">MeltingTemperatureNLForm</text>
<text text-anchor="middle" x="715" y="-105.5" font-family="serif" font-size="10.00">Integrator&lt; VARS &gt;</text>
</a>
</g>
</g>
<!-- Node16&#45;&gt;Node19 -->
<g id="edge17" class="edge">
<title>Node16&#45;&gt;Node19</title>
<path fill="none" stroke="midnightblue" d="M556.48,-145.46C583.68,-139.94 613.63,-133.87 640.04,-128.51"/>
<polygon fill="midnightblue" stroke="midnightblue" points="555.7,-142.05 546.6,-147.47 557.1,-148.91 555.7,-142.05"/>
</g>
<!-- Node21 -->
<g id="node19" class="node">
<title>Node21</title>
<g id="a_node19"><a xlink:href="classNeumannNLFormIntegrator.html" target="_top" xlink:title="Class dedicated to the Neumann boundary condiiton integrator.">
<polygon fill="none" stroke="black" points="634,-49.5 634,-79.5 796,-79.5 796,-49.5 634,-49.5"/>
<text text-anchor="start" x="642" y="-67.5" font-family="serif" font-size="10.00">NeumannNLFormIntegrator</text>
<text text-anchor="middle" x="715" y="-56.5" font-family="serif" font-size="10.00">&lt; VARS &gt;</text>
</a>
</g>
</g>
<!-- Node20&#45;&gt;Node21 -->
<g id="edge19" class="edge">
<title>Node20&#45;&gt;Node21</title>
<path fill="none" stroke="midnightblue" d="M551.9,-97.39C580.24,-91.64 612.03,-85.19 639.91,-79.53"/>
<polygon fill="midnightblue" stroke="midnightblue" points="551.13,-93.97 542.03,-99.39 552.52,-100.83 551.13,-93.97"/>
</g>
<!-- Node24 -->
<g id="node22" class="node">
<title>Node24</title>
<g id="a_node22"><a xlink:href="classHeatTimeNLFormIntegrator.html" target="_top" xlink:title="Class dedicated to the VF of the time&#45;derivativefor heat transfer equation.">
<polygon fill="none" stroke="black" points="634.5,-0.5 634.5,-30.5 795.5,-30.5 795.5,-0.5 634.5,-0.5"/>
<text text-anchor="start" x="642.5" y="-18.5" font-family="serif" font-size="10.00">HeatTimeNLFormIntegrator</text>
<text text-anchor="middle" x="715" y="-7.5" font-family="serif" font-size="10.00">&lt; VARS &gt;</text>
</a>
</g>
</g>
<!-- Node23&#45;&gt;Node24 -->
<g id="edge22" class="edge">
<title>Node23&#45;&gt;Node24</title>
<path fill="none" stroke="midnightblue" d="M550.24,-15.5C577.17,-15.5 607.38,-15.5 634.45,-15.5"/>
<polygon fill="midnightblue" stroke="midnightblue" points="550.09,-12 540.09,-15.5 550.09,-19 550.09,-12"/>
</g>
</g>
</svg>
