<?xml version="1.0" encoding="UTF-8" standalone="no"?>
<!DOCTYPE svg PUBLIC "-//W3C//DTD SVG 1.1//EN"
 "http://www.w3.org/Graphics/SVG/1.1/DTD/svg11.dtd">
<!-- Generated by graphviz version 2.43.0 (0)
 -->
<!-- Title: Graphical Class Hierarchy Pages: 1 -->
<svg width="276pt" height="332pt"
 viewBox="0.00 0.00 276.00 332.00" xmlns="http://www.w3.org/2000/svg" xmlns:xlink="http://www.w3.org/1999/xlink">
<g id="graph0" class="graph" transform="scale(1 1) rotate(0) translate(4 328)">
<title>Graphical Class Hierarchy</title>
<!-- Node0 -->
<g id="node1" class="node">
<title>Node0</title>
<g id="a_node1"><a xlink:href="classFunctionCoefficient.html" target="_top" xlink:title="Base class defining analytical expression, first and second derivatives of a Coefficient.">
<polygon fill="none" stroke="black" points="0,-152.5 0,-171.5 116,-171.5 116,-152.5 0,-152.5"/>
<text text-anchor="middle" x="58" y="-159.5" font-family="serif" font-size="10.00">FunctionCoefficient</text>
</a>
</g>
</g>
<!-- Node1 -->
<g id="node2" class="node">
<title>Node1</title>
<g id="a_node2"><a xlink:href="classConstantCoefficient.html" target="_top" xlink:title="Constant&#45;valued coefficient implementation.">
<polygon fill="none" stroke="black" points="152,-304.5 152,-323.5 268,-323.5 268,-304.5 152,-304.5"/>
<text text-anchor="middle" x="210" y="-311.5" font-family="serif" font-size="10.00">ConstantCoefficient</text>
</a>
</g>
</g>
<!-- Node0&#45;&gt;Node1 -->
<g id="edge1" class="edge">
<title>Node0&#45;&gt;Node1</title>
<path fill="none" stroke="midnightblue" d="M67.39,-180.95C81.05,-209.7 110.77,-264.23 152,-295 157.18,-298.87 163.2,-301.98 169.34,-304.47"/>
<polygon fill="midnightblue" stroke="midnightblue" points="70.45,-179.24 63.09,-171.62 64.09,-182.17 70.45,-179.24"/>
</g>
<!-- Node2 -->
<g id="node3" class="node">
<title>Node2</title>
<g id="a_node3"><a xlink:href="classExprTkCoefficient.html" target="_top" xlink:title="Base class definining a coefficient from an analytical formula.">
<polygon fill="none" stroke="black" points="156,-266.5 156,-285.5 264,-285.5 264,-266.5 156,-266.5"/>
<text text-anchor="middle" x="210" y="-273.5" font-family="serif" font-size="10.00">ExprTkCoefficient</text>
</a>
</g>
</g>
<!-- Node0&#45;&gt;Node2 -->
<g id="edge2" class="edge">
<title>Node0&#45;&gt;Node2</title>
<path fill="none" stroke="midnightblue" d="M71.99,-179.68C88.42,-200.87 118.61,-236.12 152,-257 158.01,-260.76 164.85,-263.86 171.66,-266.39"/>
<polygon fill="midnightblue" stroke="midnightblue" points="74.65,-177.4 65.82,-171.55 69.08,-181.63 74.65,-177.4"/>
</g>
<!-- Node3 -->
<g id="node4" class="node">
<title>Node3</title>
<g id="a_node4"><a xlink:href="classFw.html" target="_top" xlink:title="Coefficient based on expression: 0.25 * (x * x &#45; 1.0) * (x * x &#45; 1.0)">
<polygon fill="none" stroke="black" points="194,-228.5 194,-247.5 226,-247.5 226,-228.5 194,-228.5"/>
<text text-anchor="middle" x="210" y="-235.5" font-family="serif" font-size="10.00">Fw</text>
</a>
</g>
</g>
<!-- Node0&#45;&gt;Node3 -->
<g id="edge3" class="edge">
<title>Node0&#45;&gt;Node3</title>
<path fill="none" stroke="midnightblue" d="M80.81,-177.34C99.17,-189.77 126.45,-207.1 152,-219 165.62,-225.34 181.95,-230.56 193.63,-233.91"/>
<polygon fill="midnightblue" stroke="midnightblue" points="82.54,-174.29 72.32,-171.52 78.58,-180.06 82.54,-174.29"/>
</g>
<!-- Node4 -->
<g id="node5" class="node">
<title>Node4</title>
<g id="a_node5"><a xlink:href="classGradientEnergy.html" target="_top" xlink:title="Coefficient based on expression: 0.5*dot(x,x)">
<polygon fill="none" stroke="black" points="160.5,-190.5 160.5,-209.5 259.5,-209.5 259.5,-190.5 160.5,-190.5"/>
<text text-anchor="middle" x="210" y="-197.5" font-family="serif" font-size="10.00">GradientEnergy</text>
</a>
</g>
</g>
<!-- Node0&#45;&gt;Node4 -->
<g id="edge4" class="edge">
<title>Node0&#45;&gt;Node4</title>
<path fill="none" stroke="midnightblue" d="M106.81,-174.11C127.7,-179.4 151.85,-185.52 171.42,-190.48"/>
<polygon fill="midnightblue" stroke="midnightblue" points="107.4,-170.65 96.85,-171.59 105.69,-177.44 107.4,-170.65"/>
</g>
<!-- Node5 -->
<g id="node6" class="node">
<title>Node5</title>
<g id="a_node6"><a xlink:href="classH.html" target="_top" xlink:title="Coefficient based on expression: x * x * x * (6.0 * x * x &#45; 15.0 * x + 10.0)">
<polygon fill="none" stroke="black" points="195.5,-152.5 195.5,-171.5 224.5,-171.5 224.5,-152.5 195.5,-152.5"/>
<text text-anchor="middle" x="210" y="-159.5" font-family="serif" font-size="10.00">H</text>
</a>
</g>
</g>
<!-- Node0&#45;&gt;Node5 -->
<g id="edge5" class="edge">
<title>Node0&#45;&gt;Node5</title>
<path fill="none" stroke="midnightblue" d="M126.39,-162C152.38,-162 179.59,-162 195.39,-162"/>
<polygon fill="midnightblue" stroke="midnightblue" points="126.14,-158.5 116.14,-162 126.14,-165.5 126.14,-158.5"/>
</g>
<!-- Node6 -->
<g id="node7" class="node">
<title>Node6</title>
<g id="a_node7"><a xlink:href="classLog.html" target="_top" xlink:title="Coefficient based on expression: x * log(x) + (1.0 &#45; x)*log(1.0 &#45; x)">
<polygon fill="none" stroke="black" points="192,-114.5 192,-133.5 228,-133.5 228,-114.5 192,-114.5"/>
<text text-anchor="middle" x="210" y="-121.5" font-family="serif" font-size="10.00">Log</text>
</a>
</g>
</g>
<!-- Node0&#45;&gt;Node6 -->
<g id="edge6" class="edge">
<title>Node0&#45;&gt;Node6</title>
<path fill="none" stroke="midnightblue" d="M106.85,-149.88C135.96,-142.5 171.38,-133.53 191.94,-128.32"/>
<polygon fill="midnightblue" stroke="midnightblue" points="105.69,-146.56 96.85,-152.41 107.4,-153.35 105.69,-146.56"/>
</g>
<!-- Node7 -->
<g id="node8" class="node">
<title>Node7</title>
<g id="a_node8"><a xlink:href="classProductCoefficient.html" target="_top" xlink:title="Define a product of FunctionCoefficient objects as a FunctionCoefficient.">
<polygon fill="none" stroke="black" points="155,-76.5 155,-95.5 265,-95.5 265,-76.5 155,-76.5"/>
<text text-anchor="middle" x="210" y="-83.5" font-family="serif" font-size="10.00">ProductCoefficient</text>
</a>
</g>
</g>
<!-- Node0&#45;&gt;Node7 -->
<g id="edge7" class="edge">
<title>Node0&#45;&gt;Node7</title>
<path fill="none" stroke="midnightblue" d="M80.81,-146.66C99.17,-134.23 126.45,-116.9 152,-105 159.56,-101.48 167.97,-98.3 175.95,-95.6"/>
<polygon fill="midnightblue" stroke="midnightblue" points="78.58,-143.94 72.32,-152.48 82.54,-149.71 78.58,-143.94"/>
</g>
<!-- Node8 -->
<g id="node9" class="node">
<title>Node8</title>
<g id="a_node9"><a xlink:href="classSumCoefficient.html" target="_top" xlink:title="Define a summation of FunctionCoefficient objects as a FunctionCoefficient.">
<polygon fill="none" stroke="black" points="163,-38.5 163,-57.5 257,-57.5 257,-38.5 163,-38.5"/>
<text text-anchor="middle" x="210" y="-45.5" font-family="serif" font-size="10.00">SumCoefficient</text>
</a>
</g>
</g>
<!-- Node0&#45;&gt;Node8 -->
<g id="edge8" class="edge">
<title>Node0&#45;&gt;Node8</title>
<path fill="none" stroke="midnightblue" d="M71.99,-144.32C88.42,-123.13 118.61,-87.88 152,-67 158.01,-63.24 164.85,-60.14 171.66,-57.61"/>
<polygon fill="midnightblue" stroke="midnightblue" points="69.08,-142.37 65.82,-152.45 74.65,-146.6 69.08,-142.37"/>
</g>
<!-- Node9 -->
<g id="node10" class="node">
<title>Node9</title>
<g id="a_node10"><a xlink:href="classW.html" target="_top" xlink:title="Coefficient based on expression: x*x*(1.0&#45;x) * (1.0&#45;x)">
<polygon fill="none" stroke="black" points="195.5,-0.5 195.5,-19.5 224.5,-19.5 224.5,-0.5 195.5,-0.5"/>
<text text-anchor="middle" x="210" y="-7.5" font-family="serif" font-size="10.00">W</text>
</a>
</g>
</g>
<!-- Node0&#45;&gt;Node9 -->
<g id="edge9" class="edge">
<title>Node0&#45;&gt;Node9</title>
<path fill="none" stroke="midnightblue" d="M67.39,-143.05C81.05,-114.3 110.77,-59.77 152,-29 164.87,-19.39 182.89,-14.47 195.2,-12.07"/>
<polygon fill="midnightblue" stroke="midnightblue" points="64.09,-141.83 63.09,-152.38 70.45,-144.76 64.09,-141.83"/>
</g>
</g>
</svg>
