<?xml version="1.0" encoding="UTF-8" standalone="no"?>
<!DOCTYPE svg PUBLIC "-//W3C//DTD SVG 1.1//EN"
 "http://www.w3.org/Graphics/SVG/1.1/DTD/svg11.dtd">
<!-- Generated by graphviz version 2.43.0 (0)
 -->
<!-- Title: Graphical Class Hierarchy Pages: 1 -->
<svg width="827pt" height="431pt"
 viewBox="0.00 0.00 827.00 431.00" xmlns="http://www.w3.org/2000/svg" xmlns:xlink="http://www.w3.org/1999/xlink">
<g id="graph0" class="graph" transform="scale(1 1) rotate(0) translate(4 427)">
<title>Graphical Class Hierarchy</title>
<!-- Node3 -->
<g id="node1" class="node">
<title>Node3</title>
<g id="a_node1"><a xlink:href="classCahnHilliardNLFormIntegrator.html" target="_top" xlink:title="Class dedicated to the VF of the RHS of the Cahn&#45;Hilliard equation (splitted form) (see SplitTimeDeri...">
<polygon fill="none" stroke="black" points="0,-196.5 0,-226.5 176,-226.5 176,-196.5 0,-196.5"/>
<text text-anchor="start" x="8" y="-214.5" font-family="serif" font-size="10.00">CahnHilliardNLFormIntegrator</text>
<text text-anchor="middle" x="88" y="-203.5" font-family="serif" font-size="10.00">&lt; VARS &gt;</text>
</a>
</g>
</g>
<!-- Node0 -->
<g id="node2" class="node">
<title>Node0</title>
<g id="a_node2"><a xlink:href="classSlothNLFormIntegrator.html" target="_top" xlink:title="Class prodiving common methods to all NLFormIntegrators.">
<polygon fill="none" stroke="black" points="212,-196.5 212,-226.5 349,-226.5 349,-196.5 212,-196.5"/>
<text text-anchor="start" x="220" y="-214.5" font-family="serif" font-size="10.00">SlothNLFormIntegrator</text>
<text text-anchor="middle" x="280.5" y="-203.5" font-family="serif" font-size="10.00">&lt; VARS &gt;</text>
</a>
</g>
</g>
<!-- Node3&#45;&gt;Node0 -->
<g id="edge1" class="edge">
<title>Node3&#45;&gt;Node0</title>
<path fill="none" stroke="midnightblue" d="M186.27,-204.75C194.89,-204.76 203.49,-204.85 211.78,-205.01"/>
<polygon fill="midnightblue" stroke="midnightblue" points="186.16,-201.25 176.17,-204.77 186.17,-208.25 186.16,-201.25"/>
</g>
<!-- Node0&#45;&gt;Node3 -->
<g id="edge4" class="edge">
<title>Node0&#45;&gt;Node3</title>
<path fill="none" stroke="midnightblue" d="M201.64,-218.15C193.25,-218.25 184.66,-218.27 176.17,-218.23"/>
<polygon fill="midnightblue" stroke="midnightblue" points="201.83,-221.65 211.78,-217.99 201.72,-214.65 201.83,-221.65"/>
</g>
<!-- Node1 -->
<g id="node3" class="node">
<title>Node1</title>
<g id="a_node3"><a xlink:href="classAllenCahnNLFormIntegrator.html" target="_top" xlink:title="Class dedicated to the VF of the RHS of the AllenCahn equation (see TimeDerivative integrator for the...">
<polygon fill="none" stroke="black" points="399,-392.5 399,-422.5 563,-422.5 563,-392.5 399,-392.5"/>
<text text-anchor="start" x="407" y="-410.5" font-family="serif" font-size="10.00">AllenCahnNLFormIntegrator</text>
<text text-anchor="middle" x="481" y="-399.5" font-family="serif" font-size="10.00">&lt; VARS &gt;</text>
</a>
</g>
</g>
<!-- Node0&#45;&gt;Node1 -->
<g id="edge2" class="edge">
<title>Node0&#45;&gt;Node1</title>
<path fill="none" stroke="midnightblue" d="M289.49,-236.33C302.96,-274.08 333.83,-345.54 385,-383.5 389.65,-386.95 394.73,-389.9 400.06,-392.43"/>
<polygon fill="midnightblue" stroke="midnightblue" points="292.72,-234.94 286.16,-226.63 286.1,-237.22 292.72,-234.94"/>
</g>
<!-- Node2 -->
<g id="node4" class="node">
<title>Node2</title>
<g id="a_node4"><a xlink:href="classBlockAllenCahnNLFormIntegrator.html" target="_top" xlink:title="Class dedicated to the VF of the AllenCahn equation (splitted form)">
<polygon fill="none" stroke="black" points="385,-343.5 385,-373.5 577,-373.5 577,-343.5 385,-343.5"/>
<text text-anchor="start" x="393" y="-361.5" font-family="serif" font-size="10.00">BlockAllenCahnNLFormIntegrator</text>
<text text-anchor="middle" x="481" y="-350.5" font-family="serif" font-size="10.00">&lt; VARS &gt;</text>
</a>
</g>
</g>
<!-- Node0&#45;&gt;Node2 -->
<g id="edge3" class="edge">
<title>Node0&#45;&gt;Node2</title>
<path fill="none" stroke="midnightblue" d="M295.14,-235.39C312.41,-263.45 344.83,-309.35 385,-334.5 390.48,-337.93 396.42,-340.87 402.58,-343.39"/>
<polygon fill="midnightblue" stroke="midnightblue" points="298.02,-233.39 289.87,-226.61 292.02,-236.99 298.02,-233.39"/>
</g>
<!-- Node4 -->
<g id="node5" class="node">
<title>Node4</title>
<g id="a_node5"><a xlink:href="classDiffusionFluxNLFormIntegrator.html" target="_top" xlink:title="Class dedicated to the VF of an inter&#45;diffusion equation.">
<polygon fill="none" stroke="black" points="391.5,-294.5 391.5,-324.5 570.5,-324.5 570.5,-294.5 391.5,-294.5"/>
<text text-anchor="start" x="399.5" y="-312.5" font-family="serif" font-size="10.00">DiffusionFluxNLFormIntegrator</text>
<text text-anchor="middle" x="481" y="-301.5" font-family="serif" font-size="10.00">&lt; VARS &gt;</text>
</a>
</g>
</g>
<!-- Node0&#45;&gt;Node4 -->
<g id="edge5" class="edge">
<title>Node0&#45;&gt;Node4</title>
<path fill="none" stroke="midnightblue" d="M306.24,-233.27C326.23,-249.81 355.76,-271.95 385,-285.5 392.33,-288.9 400.21,-291.86 408.19,-294.43"/>
<polygon fill="midnightblue" stroke="midnightblue" points="308.45,-230.55 298.55,-226.79 303.94,-235.91 308.45,-230.55"/>
</g>
<!-- Node7 -->
<g id="node8" class="node">
<title>Node7</title>
<g id="a_node8"><a xlink:href="classDiffusionNLFormIntegrator.html" target="_top" xlink:title="Nonlinear form integrator for diffusion&#45;type problems.">
<polygon fill="none" stroke="black" points="402.5,-245.5 402.5,-275.5 559.5,-275.5 559.5,-245.5 402.5,-245.5"/>
<text text-anchor="start" x="410.5" y="-263.5" font-family="serif" font-size="10.00">DiffusionNLFormIntegrator</text>
<text text-anchor="middle" x="481" y="-252.5" font-family="serif" font-size="10.00">&lt; VARS &gt;</text>
</a>
</g>
</g>
<!-- Node0&#45;&gt;Node7 -->
<g id="edge8" class="edge">
<title>Node0&#45;&gt;Node7</title>
<path fill="none" stroke="midnightblue" d="M352.3,-228.98C374.18,-234.38 398.07,-240.28 419.21,-245.49"/>
<polygon fill="midnightblue" stroke="midnightblue" points="352.95,-225.53 342.41,-226.53 351.28,-232.33 352.95,-225.53"/>
</g>
<!-- Node10 -->
<g id="node11" class="node">
<title>Node10</title>
<g id="a_node11"><a xlink:href="classLatentHeatNLFormIntegrator.html" target="_top" xlink:title="Latent heat contribution for heat transfer equations.">
<polygon fill="none" stroke="black" points="396.5,-196.5 396.5,-226.5 565.5,-226.5 565.5,-196.5 396.5,-196.5"/>
<text text-anchor="start" x="404.5" y="-214.5" font-family="serif" font-size="10.00">LatentHeatNLFormIntegrator</text>
<text text-anchor="middle" x="481" y="-203.5" font-family="serif" font-size="10.00">&lt; VARS &gt;</text>
</a>
</g>
</g>
<!-- Node0&#45;&gt;Node10 -->
<g id="edge11" class="edge">
<title>Node0&#45;&gt;Node10</title>
<path fill="none" stroke="midnightblue" d="M359.35,-211.5C371.51,-211.5 384.11,-211.5 396.39,-211.5"/>
<polygon fill="midnightblue" stroke="midnightblue" points="359.26,-208 349.26,-211.5 359.26,-215 359.26,-208"/>
</g>
<!-- Node11 -->
<g id="node12" class="node">
<title>Node11</title>
<g id="a_node12"><a xlink:href="classMeltingBaseNLFormIntegrator.html" target="_top" xlink:title="Base class for melting integrators.">
<polygon fill="none" stroke="black" points="393,-147.5 393,-177.5 569,-177.5 569,-147.5 393,-147.5"/>
<text text-anchor="start" x="401" y="-165.5" font-family="serif" font-size="10.00">MeltingBaseNLFormIntegrator</text>
<text text-anchor="middle" x="481" y="-154.5" font-family="serif" font-size="10.00">&lt; VARS &gt;</text>
</a>
</g>
</g>
<!-- Node0&#45;&gt;Node11 -->
<g id="edge12" class="edge">
<title>Node0&#45;&gt;Node11</title>
<path fill="none" stroke="midnightblue" d="M352.3,-194.02C374.18,-188.62 398.07,-182.72 419.21,-177.51"/>
<polygon fill="midnightblue" stroke="midnightblue" points="351.28,-190.67 342.41,-196.47 352.95,-197.47 351.28,-190.67"/>
</g>
<!-- Node15 -->
<g id="node16" class="node">
<title>Node15</title>
<g id="a_node16"><a xlink:href="classRobinNLFormIntegrator.html" target="_top" xlink:title="Class dedicated to the Robin boundary condition integrator.">
<polygon fill="none" stroke="black" points="410.5,-98.5 410.5,-128.5 551.5,-128.5 551.5,-98.5 410.5,-98.5"/>
<text text-anchor="start" x="418.5" y="-116.5" font-family="serif" font-size="10.00">RobinNLFormIntegrator</text>
<text text-anchor="middle" x="481" y="-105.5" font-family="serif" font-size="10.00">&lt; VARS &gt;</text>
</a>
</g>
</g>
<!-- Node0&#45;&gt;Node15 -->
<g id="edge16" class="edge">
<title>Node0&#45;&gt;Node15</title>
<path fill="none" stroke="midnightblue" d="M306.33,-190.12C326.37,-173.86 355.92,-152.04 385,-138.5 393.19,-134.68 402.07,-131.38 410.99,-128.53"/>
<polygon fill="midnightblue" stroke="midnightblue" points="304.1,-187.42 298.61,-196.49 308.55,-192.82 304.1,-187.42"/>
</g>
<!-- Node17 -->
<g id="node18" class="node">
<title>Node17</title>
<g id="a_node18"><a xlink:href="classTimeCHNLFormIntegrator.html" target="_top" xlink:title="Class dedicated to the VF of the time&#45;derivative (eg. LHS of Cahn&#45;Hilliard and Allen&#45;Cahn equations u...">
<polygon fill="none" stroke="black" points="404.5,-49.5 404.5,-79.5 557.5,-79.5 557.5,-49.5 404.5,-49.5"/>
<text text-anchor="start" x="412.5" y="-67.5" font-family="serif" font-size="10.00">TimeCHNLFormIntegrator</text>
<text text-anchor="middle" x="481" y="-56.5" font-family="serif" font-size="10.00">&lt; VARS &gt;</text>
</a>
</g>
</g>
<!-- Node0&#45;&gt;Node17 -->
<g id="edge18" class="edge">
<title>Node0&#45;&gt;Node17</title>
<path fill="none" stroke="midnightblue" d="M295.51,-187.43C312.94,-159.63 345.31,-114.51 385,-89.5 391.2,-85.59 398,-82.29 405.03,-79.5"/>
<polygon fill="midnightblue" stroke="midnightblue" points="292.41,-185.78 290.18,-196.14 298.38,-189.44 292.41,-185.78"/>
</g>
<!-- Node18 -->
<g id="node19" class="node">
<title>Node18</title>
<g id="a_node19"><a xlink:href="classTimeNLFormIntegrator.html" target="_top" xlink:title="Class dedicated to the VF of the time&#45;derivative (eg. LHS of Allen&#45;Cahn equation)">
<polygon fill="none" stroke="black" points="412.5,-0.5 412.5,-30.5 549.5,-30.5 549.5,-0.5 412.5,-0.5"/>
<text text-anchor="start" x="420.5" y="-18.5" font-family="serif" font-size="10.00">TimeNLFormIntegrator</text>
<text text-anchor="middle" x="481" y="-7.5" font-family="serif" font-size="10.00">&lt; VARS &gt;</text>
</a>
</g>
</g>
<!-- Node0&#45;&gt;Node18 -->
<g id="edge19" class="edge">
<title>Node0&#45;&gt;Node18</title>
<path fill="none" stroke="midnightblue" d="M289.58,-186.88C303.17,-149.42 334.19,-78.48 385,-40.5 393.06,-34.48 402.45,-29.9 412.13,-26.43"/>
<polygon fill="midnightblue" stroke="midnightblue" points="286.21,-185.9 286.21,-196.5 292.82,-188.22 286.21,-185.9"/>
</g>
<!-- Node5 -->
<g id="node6" class="node">
<title>Node5</title>
<g id="a_node6"><a xlink:href="classMassDiffusionFluxNLFormIntegrator.html" target="_top" xlink:title="Class dedicated to the VF of diffusion flux (gradient of chemical potential) used in mass balance equ...">
<polygon fill="none" stroke="black" points="613,-392.5 613,-422.5 819,-422.5 819,-392.5 613,-392.5"/>
<text text-anchor="start" x="621" y="-410.5" font-family="serif" font-size="10.00">MassDiffusionFluxNLFormIntegrator</text>
<text text-anchor="middle" x="716" y="-399.5" font-family="serif" font-size="10.00">&lt; VARS &gt;</text>
</a>
</g>
</g>
<!-- Node4&#45;&gt;Node5 -->
<g id="edge6" class="edge">
<title>Node4&#45;&gt;Node5</title>
<path fill="none" stroke="midnightblue" d="M567.87,-329.02C571.03,-330.7 574.09,-332.52 577,-334.5 599.35,-349.7 590.46,-368.6 613,-383.5 618.24,-386.96 623.91,-389.93 629.82,-392.46"/>
<polygon fill="midnightblue" stroke="midnightblue" points="569.25,-325.8 558.72,-324.67 566.24,-332.12 569.25,-325.8"/>
</g>
<!-- Node6 -->
<g id="node7" class="node">
<title>Node6</title>
<g id="a_node7"><a xlink:href="classThermalDiffusionFluxNLFormIntegrator.html" target="_top" xlink:title="Class dedicated to the VF of thermal diffusion flux used in energy balance equation.">
<polygon fill="none" stroke="black" points="631,-343.5 631,-373.5 801,-373.5 801,-343.5 631,-343.5"/>
<text text-anchor="start" x="639" y="-361.5" font-family="serif" font-size="10.00">ThermalDiffusionFluxNLForm</text>
<text text-anchor="middle" x="716" y="-350.5" font-family="serif" font-size="10.00">Integrator&lt; VARS &gt;</text>
</a>
</g>
</g>
<!-- Node4&#45;&gt;Node6 -->
<g id="edge7" class="edge">
<title>Node4&#45;&gt;Node6</title>
<path fill="none" stroke="midnightblue" d="M563.37,-326.61C589.52,-332.11 618.27,-338.16 643.64,-343.49"/>
<polygon fill="midnightblue" stroke="midnightblue" points="564,-323.17 553.49,-324.53 562.56,-330.02 564,-323.17"/>
</g>
<!-- Node8 -->
<g id="node9" class="node">
<title>Node8</title>
<g id="a_node9"><a xlink:href="classFickNLFormIntegrator.html" target="_top" xlink:title="Nonlinear form integrator for the right&#45;hand side of the mass diffusion equation (Fick&#39;s law).">
<polygon fill="none" stroke="black" points="650,-294.5 650,-324.5 782,-324.5 782,-294.5 650,-294.5"/>
<text text-anchor="start" x="658" y="-312.5" font-family="serif" font-size="10.00">FickNLFormIntegrator</text>
<text text-anchor="middle" x="716" y="-301.5" font-family="serif" font-size="10.00">&lt; VARS &gt;</text>
</a>
</g>
</g>
<!-- Node7&#45;&gt;Node8 -->
<g id="edge9" class="edge">
<title>Node7&#45;&gt;Node8</title>
<path fill="none" stroke="midnightblue" d="M563.38,-277.61C591.73,-283.58 623.14,-290.18 649.99,-295.83"/>
<polygon fill="midnightblue" stroke="midnightblue" points="564,-274.17 553.49,-275.53 562.56,-281.02 564,-274.17"/>
</g>
<!-- Node9 -->
<g id="node10" class="node">
<title>Node9</title>
<g id="a_node10"><a xlink:href="classFourierNLFormIntegrator.html" target="_top" xlink:title="Nonlinear form integrator for the right&#45;hand side of the heat transfer equation (Fourier&#39;s law).">
<polygon fill="none" stroke="black" points="641.5,-245.5 641.5,-275.5 790.5,-275.5 790.5,-245.5 641.5,-245.5"/>
<text text-anchor="start" x="649.5" y="-263.5" font-family="serif" font-size="10.00">FourierNLFormIntegrator</text>
<text text-anchor="middle" x="716" y="-252.5" font-family="serif" font-size="10.00">&lt; VARS &gt;</text>
</a>
</g>
</g>
<!-- Node7&#45;&gt;Node9 -->
<g id="edge10" class="edge">
<title>Node7&#45;&gt;Node9</title>
<path fill="none" stroke="midnightblue" d="M569.59,-260.5C593.21,-260.5 618.53,-260.5 641.3,-260.5"/>
<polygon fill="midnightblue" stroke="midnightblue" points="569.59,-257 559.59,-260.5 569.59,-264 569.59,-257"/>
</g>
<!-- Node12 -->
<g id="node13" class="node">
<title>Node12</title>
<g id="a_node13"><a xlink:href="classMeltingCalphadNLFormIntegrator.html" target="_top" xlink:title="Class dedicated to the VF of Calphad melting contribution found in Allen&#45;Cahn&#45;type equations.">
<polygon fill="none" stroke="black" points="619,-196.5 619,-226.5 813,-226.5 813,-196.5 619,-196.5"/>
<text text-anchor="start" x="627" y="-214.5" font-family="serif" font-size="10.00">MeltingCalphadNLFormIntegrator</text>
<text text-anchor="middle" x="716" y="-203.5" font-family="serif" font-size="10.00">&lt; VARS &gt;</text>
</a>
</g>
</g>
<!-- Node11&#45;&gt;Node12 -->
<g id="edge13" class="edge">
<title>Node11&#45;&gt;Node12</title>
<path fill="none" stroke="midnightblue" d="M563.37,-179.61C589.52,-185.11 618.27,-191.16 643.64,-196.49"/>
<polygon fill="midnightblue" stroke="midnightblue" points="564,-176.17 553.49,-177.53 562.56,-183.02 564,-176.17"/>
</g>
<!-- Node13 -->
<g id="node14" class="node">
<title>Node13</title>
<g id="a_node14"><a xlink:href="classMeltingConstantNLFormIntegrator.html" target="_top" xlink:title="Class dedicated to the VF of an ad&#45;hoc constant melting contribution found in Allen&#45;Cahn&#45;type equatio...">
<polygon fill="none" stroke="black" points="617.5,-147.5 617.5,-177.5 814.5,-177.5 814.5,-147.5 617.5,-147.5"/>
<text text-anchor="start" x="625.5" y="-165.5" font-family="serif" font-size="10.00">MeltingConstantNLFormIntegrator</text>
<text text-anchor="middle" x="716" y="-154.5" font-family="serif" font-size="10.00">&lt; VARS &gt;</text>
</a>
</g>
</g>
<!-- Node11&#45;&gt;Node13 -->
<g id="edge14" class="edge">
<title>Node11&#45;&gt;Node13</title>
<path fill="none" stroke="midnightblue" d="M579.16,-162.5C591.82,-162.5 604.78,-162.5 617.45,-162.5"/>
<polygon fill="midnightblue" stroke="midnightblue" points="579.09,-159 569.09,-162.5 579.09,-166 579.09,-159"/>
</g>
<!-- Node14 -->
<g id="node15" class="node">
<title>Node14</title>
<g id="a_node15"><a xlink:href="classMeltingTemperatureNLFormIntegrator.html" target="_top" xlink:title="Class dedicated to the VF of an ad&#45;hoc temperature melting contribution found in Allen&#45;Cahn&#45;type equa...">
<polygon fill="none" stroke="black" points="633.5,-98.5 633.5,-128.5 798.5,-128.5 798.5,-98.5 633.5,-98.5"/>
<text text-anchor="start" x="641.5" y="-116.5" font-family="serif" font-size="10.00">MeltingTemperatureNLForm</text>
<text text-anchor="middle" x="716" y="-105.5" font-family="serif" font-size="10.00">Integrator&lt; VARS &gt;</text>
</a>
</g>
</g>
<!-- Node11&#45;&gt;Node14 -->
<g id="edge15" class="edge">
<title>Node11&#45;&gt;Node14</title>
<path fill="none" stroke="midnightblue" d="M563.37,-145.39C589.52,-139.89 618.27,-133.84 643.64,-128.51"/>
<polygon fill="midnightblue" stroke="midnightblue" points="562.56,-141.98 553.49,-147.47 564,-148.83 562.56,-141.98"/>
</g>
<!-- Node16 -->
<g id="node17" class="node">
<title>Node16</title>
<g id="a_node17"><a xlink:href="classNeumannNLFormIntegrator.html" target="_top" xlink:title="Class dedicated to the Neumann boundary condiiton integrator.">
<polygon fill="none" stroke="black" points="635,-49.5 635,-79.5 797,-79.5 797,-49.5 635,-49.5"/>
<text text-anchor="start" x="643" y="-67.5" font-family="serif" font-size="10.00">NeumannNLFormIntegrator</text>
<text text-anchor="middle" x="716" y="-56.5" font-family="serif" font-size="10.00">&lt; VARS &gt;</text>
</a>
</g>
</g>
<!-- Node15&#45;&gt;Node16 -->
<g id="edge17" class="edge">
<title>Node15&#45;&gt;Node16</title>
<path fill="none" stroke="midnightblue" d="M561.6,-96.76C588.11,-91.18 617.47,-85.01 643.35,-79.57"/>
<polygon fill="midnightblue" stroke="midnightblue" points="560.66,-93.38 551.59,-98.86 562.1,-100.23 560.66,-93.38"/>
</g>
<!-- Node19 -->
<g id="node20" class="node">
<title>Node19</title>
<g id="a_node20"><a xlink:href="classHeatTimeNLFormIntegrator.html" target="_top" xlink:title="Class dedicated to the VF of the time&#45;derivativefor heat transfer equation.">
<polygon fill="none" stroke="black" points="635.5,-0.5 635.5,-30.5 796.5,-30.5 796.5,-0.5 635.5,-0.5"/>
<text text-anchor="start" x="643.5" y="-18.5" font-family="serif" font-size="10.00">HeatTimeNLFormIntegrator</text>
<text text-anchor="middle" x="716" y="-7.5" font-family="serif" font-size="10.00">&lt; VARS &gt;</text>
</a>
</g>
</g>
<!-- Node18&#45;&gt;Node19 -->
<g id="edge20" class="edge">
<title>Node18&#45;&gt;Node19</title>
<path fill="none" stroke="midnightblue" d="M559.92,-15.5C584.13,-15.5 610.85,-15.5 635.18,-15.5"/>
<polygon fill="midnightblue" stroke="midnightblue" points="559.71,-12 549.71,-15.5 559.71,-19 559.71,-12"/>
</g>
</g>
</svg>
