<?xml version="1.0" encoding="UTF-8" standalone="no"?>
<!DOCTYPE svg PUBLIC "-//W3C//DTD SVG 1.1//EN"
 "http://www.w3.org/Graphics/SVG/1.1/DTD/svg11.dtd">
<!-- Generated by graphviz version 2.43.0 (0)
 -->
<!-- Title: IntegratorsOptions.cpp Pages: 1 -->
<!--zoomable 308 -->
<svg id="main" version="1.1" xmlns="http://www.w3.org/2000/svg" xmlns:xlink="http://www.w3.org/1999/xlink" xml:space="preserve" onload="init(evt)">
<style type="text/css"><![CDATA[
.edge:hover path { stroke: red; }
.edge:hover polygon { stroke: red; fill: red; }
]]></style>
<script type="text/javascript"><![CDATA[
var edges = document.getElementsByTagName('g');
if (edges && edges.length) {
  for (var i=0;i<edges.length;i++) {
    if (edges[i].id.substr(0,4)=='edge') {
      edges[i].setAttribute('class','edge');
    }
  }
}
]]></script>
        <defs>
                <circle id="rim" cx="0" cy="0" r="7"/>
                <circle id="rim2" cx="0" cy="0" r="3.5"/>
                <g id="zoomPlus">
                        <use xlink:href="#rim" fill="#404040">
                                <set attributeName="fill" to="#808080" begin="zoomplus.mouseover" end="zoomplus.mouseout"/>
                        </use>
                        <path d="M-4,0h8M0,-4v8" fill="none" stroke="white" stroke-width="1.5" pointer-events="none"/>
                </g>
                <g id="zoomMin">
                        <use xlink:href="#rim" fill="#404040">
                                <set attributeName="fill" to="#808080" begin="zoomminus.mouseover" end="zoomminus.mouseout"/>
                        </use>
                        <path d="M-4,0h8" fill="none" stroke="white" stroke-width="1.5" pointer-events="none"/>
                </g>
                <g id="dirArrow">
                        <path fill="none" stroke="white" stroke-width="1.5" d="M0,-3.0v7 M-2.5,-0.5L0,-3.0L2.5,-0.5"/>
                </g>
               <g id="resetDef">
                       <use xlink:href="#rim2" fill="#404040">
                               <set attributeName="fill" to="#808080" begin="reset.mouseover" end="reset.mouseout"/>
                       </use>
               </g>
        </defs>

<script type="text/javascript">
var viewWidth = 1278;
var viewHeight = 308;
var sectionId = 'dynsection-0';
</script>
<script xlink:href="svgpan.js"/>
<svg id="graph" class="graph">
<g id="viewport">
<title>IntegratorsOptions.cpp</title>
<!-- Node1 -->
<g id="node1" class="node">
<title>Node1</title>
<g id="a_node1"><a xlink:title="Options for Integrators.">
<polygon fill="#bfbfbf" stroke="black" points="257,-280.5 257,-299.5 392,-299.5 392,-280.5 257,-280.5"/>
<text text-anchor="middle" x="324.5" y="-287.5" font-family="serif" font-size="10.00">IntegratorsOptions.cpp</text>
</a>
</g>
</g>
<!-- Node2 -->
<g id="node2" class="node">
<title>Node2</title>
<g id="a_node2"><a xlink:href="IntegratorsOptions_8hpp.html" target="_top" xlink:title="Options for Integrators.">
<polygon fill="none" stroke="black" points="235,-224.5 235,-243.5 414,-243.5 414,-224.5 235,-224.5"/>
<text text-anchor="middle" x="324.5" y="-231.5" font-family="serif" font-size="10.00">Options/IntegratorsOptions.hpp</text>
</a>
</g>
</g>
<!-- Node1&#45;&gt;Node2 -->
<g id="edge1" class="edge">
<title>Node1&#45;&gt;Node2</title>
<path fill="none" stroke="midnightblue" d="M324.5,-280.08C324.5,-273.01 324.5,-262.86 324.5,-253.99"/>
<polygon fill="midnightblue" stroke="midnightblue" points="328,-253.75 324.5,-243.75 321,-253.75 328,-253.75"/>
</g>
<!-- Node3 -->
<g id="node3" class="node">
<title>Node3</title>
<g id="a_node3"><a xlink:title=" ">
<polygon fill="none" stroke="#bfbfbf" points="278,-0.5 278,-19.5 325,-19.5 325,-0.5 278,-0.5"/>
<text text-anchor="middle" x="301.5" y="-7.5" font-family="serif" font-size="10.00">string</text>
</a>
</g>
</g>
<!-- Node1&#45;&gt;Node3 -->
<g id="edge50" class="edge">
<title>Node1&#45;&gt;Node3</title>
<path fill="none" stroke="midnightblue" d="M288.78,-280.49C267.94,-273.8 242.66,-262.45 226.5,-244 206.58,-221.26 206.5,-209.23 206.5,-179 206.5,-179 206.5,-179 206.5,-121 206.5,-77.74 249.11,-43.09 277.25,-24.91"/>
<polygon fill="midnightblue" stroke="midnightblue" points="279.16,-27.85 285.81,-19.6 275.47,-21.9 279.16,-27.85"/>
</g>
<!-- Node4 -->
<g id="node4" class="node">
<title>Node4</title>
<g id="a_node4"><a xlink:href="Utils_8hpp.html" target="_top" xlink:title="List of all Utils files.">
<polygon fill="none" stroke="black" points="398,-168.5 398,-187.5 487,-187.5 487,-168.5 398,-168.5"/>
<text text-anchor="middle" x="442.5" y="-175.5" font-family="serif" font-size="10.00">Utils/Utils.hpp</text>
</a>
</g>
</g>
<!-- Node1&#45;&gt;Node4 -->
<g id="edge51" class="edge">
<title>Node1&#45;&gt;Node4</title>
<path fill="none" stroke="midnightblue" d="M361.64,-280.35C382.53,-273.68 407.55,-262.4 423.5,-244 434.68,-231.1 439.29,-211.93 441.19,-197.74"/>
<polygon fill="midnightblue" stroke="midnightblue" points="444.68,-197.95 442.2,-187.65 437.72,-197.25 444.68,-197.95"/>
</g>
<!-- Node2&#45;&gt;Node3 -->
<g id="edge2" class="edge">
<title>Node2&#45;&gt;Node3</title>
<path fill="none" stroke="midnightblue" d="M323,-224.18C319.01,-200.37 308.15,-132.73 303.5,-76 302.23,-60.51 301.75,-42.88 301.57,-29.89"/>
<polygon fill="midnightblue" stroke="midnightblue" points="305.07,-29.82 301.49,-19.85 298.07,-29.88 305.07,-29.82"/>
</g>
<!-- Node2&#45;&gt;Node4 -->
<g id="edge3" class="edge">
<title>Node2&#45;&gt;Node4</title>
<path fill="none" stroke="midnightblue" d="M343.2,-224.44C362.44,-215.64 392.65,-201.81 414.7,-191.72"/>
<polygon fill="midnightblue" stroke="midnightblue" points="416.25,-194.86 423.89,-187.52 413.34,-188.5 416.25,-194.86"/>
</g>
<!-- Node5 -->
<g id="node5" class="node">
<title>Node5</title>
<g id="a_node5"><a xlink:href="UtilsForData_8hpp.html" target="_top" xlink:title="Usefull methods for data.">
<polygon fill="none" stroke="black" points="846,-56.5 846,-75.5 977,-75.5 977,-56.5 846,-56.5"/>
<text text-anchor="middle" x="911.5" y="-63.5" font-family="serif" font-size="10.00">Utils/UtilsForData.hpp</text>
</a>
</g>
</g>
<!-- Node4&#45;&gt;Node5 -->
<g id="edge4" class="edge">
<title>Node4&#45;&gt;Node5</title>
<path fill="none" stroke="midnightblue" d="M478.91,-168.46C563.24,-148.68 771.83,-99.76 865.12,-77.88"/>
<polygon fill="midnightblue" stroke="midnightblue" points="866.18,-81.23 875.11,-75.53 864.58,-74.41 866.18,-81.23"/>
</g>
<!-- Node18 -->
<g id="node18" class="node">
<title>Node18</title>
<g id="a_node18"><a xlink:href="UtilsForDebug_8hpp.html" target="_top" xlink:title="Usefull methods for debug.">
<polygon fill="none" stroke="black" points="841,-112.5 841,-131.5 982,-131.5 982,-112.5 841,-112.5"/>
<text text-anchor="middle" x="911.5" y="-119.5" font-family="serif" font-size="10.00">Utils/UtilsForDebug.hpp</text>
</a>
</g>
</g>
<!-- Node4&#45;&gt;Node18 -->
<g id="edge18" class="edge">
<title>Node4&#45;&gt;Node18</title>
<path fill="none" stroke="midnightblue" d="M487.05,-171.87C565.96,-162.78 731.37,-143.74 830.79,-132.29"/>
<polygon fill="midnightblue" stroke="midnightblue" points="831.26,-135.76 840.8,-131.14 830.46,-128.81 831.26,-135.76"/>
</g>
<!-- Node21 -->
<g id="node21" class="node">
<title>Node21</title>
<g id="a_node21"><a xlink:href="UtilsForOptions_8hpp.html" target="_top" xlink:title="Usefull methods for Options.">
<polygon fill="none" stroke="black" points="531.5,-56.5 531.5,-75.5 677.5,-75.5 677.5,-56.5 531.5,-56.5"/>
<text text-anchor="middle" x="604.5" y="-63.5" font-family="serif" font-size="10.00">Utils/UtilsForOptions.hpp</text>
</a>
</g>
</g>
<!-- Node4&#45;&gt;Node21 -->
<g id="edge29" class="edge">
<title>Node4&#45;&gt;Node21</title>
<path fill="none" stroke="midnightblue" d="M455.21,-168.37C483.01,-149.49 549.44,-104.38 583.53,-81.24"/>
<polygon fill="midnightblue" stroke="midnightblue" points="585.54,-84.1 591.85,-75.59 581.61,-78.31 585.54,-84.1"/>
</g>
<!-- Node24 -->
<g id="node24" class="node">
<title>Node24</title>
<g id="a_node24"><a xlink:href="UtilsForPostProcessing_8hpp.html" target="_top" xlink:title="Usefull methods for post&#45;processing.">
<polygon fill="none" stroke="black" points="330,-56.5 330,-75.5 513,-75.5 513,-56.5 330,-56.5"/>
<text text-anchor="middle" x="421.5" y="-63.5" font-family="serif" font-size="10.00">Utils/UtilsForPostProcessing.hpp</text>
</a>
</g>
</g>
<!-- Node4&#45;&gt;Node24 -->
<g id="edge39" class="edge">
<title>Node4&#45;&gt;Node24</title>
<path fill="none" stroke="midnightblue" d="M440.85,-168.37C437.46,-150.62 429.65,-109.67 425.05,-85.6"/>
<polygon fill="midnightblue" stroke="midnightblue" points="428.45,-84.76 423.14,-75.59 421.58,-86.07 428.45,-84.76"/>
</g>
<!-- Node25 -->
<g id="node25" class="node">
<title>Node25</title>
<g id="a_node25"><a xlink:href="UtilsForVariants_8hpp.html" target="_top" xlink:title="manage std::Variants">
<polygon fill="none" stroke="black" points="30.5,-56.5 30.5,-75.5 178.5,-75.5 178.5,-56.5 30.5,-56.5"/>
<text text-anchor="middle" x="104.5" y="-63.5" font-family="serif" font-size="10.00">Utils/UtilsForVariants.hpp</text>
</a>
</g>
</g>
<!-- Node4&#45;&gt;Node25 -->
<g id="edge46" class="edge">
<title>Node4&#45;&gt;Node25</title>
<path fill="none" stroke="midnightblue" d="M416.26,-168.46C356.36,-148.97 209.46,-101.16 140.88,-78.84"/>
<polygon fill="midnightblue" stroke="midnightblue" points="141.55,-75.38 130.96,-75.61 139.38,-82.03 141.55,-75.38"/>
</g>
<!-- Node5&#45;&gt;Node3 -->
<g id="edge13" class="edge">
<title>Node5&#45;&gt;Node3</title>
<path fill="none" stroke="midnightblue" d="M845.77,-59.74C830.27,-58.51 813.8,-57.2 798.5,-56 595.52,-40.04 540.02,-54.89 335.05,-19.74"/>
<polygon fill="midnightblue" stroke="midnightblue" points="335.62,-16.29 325.17,-18.03 334.43,-23.19 335.62,-16.29"/>
</g>
<!-- Node6 -->
<g id="node6" class="node">
<title>Node6</title>
<g id="a_node6"><a xlink:title=" ">
<polygon fill="none" stroke="#bfbfbf" points="1059,-0.5 1059,-19.5 1118,-19.5 1118,-0.5 1059,-0.5"/>
<text text-anchor="middle" x="1088.5" y="-7.5" font-family="serif" font-size="10.00">unistd.h</text>
</a>
</g>
</g>
<!-- Node5&#45;&gt;Node6 -->
<g id="edge5" class="edge">
<title>Node5&#45;&gt;Node6</title>
<path fill="none" stroke="midnightblue" d="M939.55,-56.44C969.58,-47.28 1017.41,-32.69 1050.74,-22.52"/>
<polygon fill="midnightblue" stroke="midnightblue" points="1052.04,-25.78 1060.59,-19.52 1050,-19.09 1052.04,-25.78"/>
</g>
<!-- Node7 -->
<g id="node7" class="node">
<title>Node7</title>
<g id="a_node7"><a xlink:title=" ">
<polygon fill="none" stroke="#bfbfbf" points="471.5,-0.5 471.5,-19.5 537.5,-19.5 537.5,-0.5 471.5,-0.5"/>
<text text-anchor="middle" x="504.5" y="-7.5" font-family="serif" font-size="10.00">algorithm</text>
</a>
</g>
</g>
<!-- Node5&#45;&gt;Node7 -->
<g id="edge6" class="edge">
<title>Node5&#45;&gt;Node7</title>
<path fill="none" stroke="midnightblue" d="M845.97,-58.69C774.87,-51.44 657.81,-38.35 547.85,-20.11"/>
<polygon fill="midnightblue" stroke="midnightblue" points="548.36,-16.64 537.92,-18.44 547.2,-23.55 548.36,-16.64"/>
</g>
<!-- Node8 -->
<g id="node8" class="node">
<title>Node8</title>
<g id="a_node8"><a xlink:title=" ">
<polygon fill="none" stroke="#bfbfbf" points="760.5,-0.5 760.5,-19.5 810.5,-19.5 810.5,-0.5 760.5,-0.5"/>
<text text-anchor="middle" x="785.5" y="-7.5" font-family="serif" font-size="10.00">cctype</text>
</a>
</g>
</g>
<!-- Node5&#45;&gt;Node8 -->
<g id="edge7" class="edge">
<title>Node5&#45;&gt;Node8</title>
<path fill="none" stroke="midnightblue" d="M891.53,-56.44C870.89,-47.6 838.44,-33.69 814.87,-23.59"/>
<polygon fill="midnightblue" stroke="midnightblue" points="815.94,-20.24 805.37,-19.52 813.18,-26.67 815.94,-20.24"/>
</g>
<!-- Node9 -->
<g id="node9" class="node">
<title>Node9</title>
<g id="a_node9"><a xlink:title=" ">
<polygon fill="none" stroke="#bfbfbf" points="1136,-0.5 1136,-19.5 1183,-19.5 1183,-0.5 1136,-0.5"/>
<text text-anchor="middle" x="1159.5" y="-7.5" font-family="serif" font-size="10.00">cstdio</text>
</a>
</g>
</g>
<!-- Node5&#45;&gt;Node9 -->
<g id="edge8" class="edge">
<title>Node5&#45;&gt;Node9</title>
<path fill="none" stroke="midnightblue" d="M957.22,-56.42C998.93,-48.38 1062.5,-35.61 1126.01,-20.25"/>
<polygon fill="midnightblue" stroke="midnightblue" points="1126.9,-23.64 1135.78,-17.87 1125.24,-16.84 1126.9,-23.64"/>
</g>
<!-- Node10 -->
<g id="node10" class="node">
<title>Node10</title>
<g id="a_node10"><a xlink:title=" ">
<polygon fill="none" stroke="#bfbfbf" points="828.5,-0.5 828.5,-19.5 896.5,-19.5 896.5,-0.5 828.5,-0.5"/>
<text text-anchor="middle" x="862.5" y="-7.5" font-family="serif" font-size="10.00">filesystem</text>
</a>
</g>
</g>
<!-- Node5&#45;&gt;Node10 -->
<g id="edge9" class="edge">
<title>Node5&#45;&gt;Node10</title>
<path fill="none" stroke="midnightblue" d="M903.41,-56.08C896.34,-48.3 885.91,-36.8 877.35,-27.37"/>
<polygon fill="midnightblue" stroke="midnightblue" points="879.75,-24.8 870.44,-19.75 874.57,-29.51 879.75,-24.8"/>
</g>
<!-- Node11 -->
<g id="node11" class="node">
<title>Node11</title>
<g id="a_node11"><a xlink:title=" ">
<polygon fill="none" stroke="#bfbfbf" points="972.5,-0.5 972.5,-19.5 1040.5,-19.5 1040.5,-0.5 972.5,-0.5"/>
<text text-anchor="middle" x="1006.5" y="-7.5" font-family="serif" font-size="10.00">functional</text>
</a>
</g>
</g>
<!-- Node5&#45;&gt;Node11 -->
<g id="edge10" class="edge">
<title>Node5&#45;&gt;Node11</title>
<path fill="none" stroke="midnightblue" d="M926.76,-56.32C941.72,-47.82 964.75,-34.73 982.23,-24.8"/>
<polygon fill="midnightblue" stroke="midnightblue" points="984.31,-27.64 991.27,-19.65 980.85,-21.55 984.31,-27.64"/>
</g>
<!-- Node12 -->
<g id="node12" class="node">
<title>Node12</title>
<g id="a_node12"><a xlink:title=" ">
<polygon fill="none" stroke="#bfbfbf" points="620,-0.5 620,-19.5 681,-19.5 681,-0.5 620,-0.5"/>
<text text-anchor="middle" x="650.5" y="-7.5" font-family="serif" font-size="10.00">iostream</text>
</a>
</g>
</g>
<!-- Node5&#45;&gt;Node12 -->
<g id="edge11" class="edge">
<title>Node5&#45;&gt;Node12</title>
<path fill="none" stroke="midnightblue" d="M868.25,-56.47C825.75,-48.02 758.79,-34.55 691.06,-20.08"/>
<polygon fill="midnightblue" stroke="midnightblue" points="691.57,-16.62 681.06,-17.94 690.11,-23.46 691.57,-16.62"/>
</g>
<!-- Node13 -->
<g id="node13" class="node">
<title>Node13</title>
<g id="a_node13"><a xlink:title=" ">
<polygon fill="none" stroke="#bfbfbf" points="915,-0.5 915,-19.5 954,-19.5 954,-0.5 915,-0.5"/>
<text text-anchor="middle" x="934.5" y="-7.5" font-family="serif" font-size="10.00">map</text>
</a>
</g>
</g>
<!-- Node5&#45;&gt;Node13 -->
<g id="edge12" class="edge">
<title>Node5&#45;&gt;Node13</title>
<path fill="none" stroke="midnightblue" d="M915.3,-56.08C918.41,-48.77 922.92,-38.18 926.79,-29.1"/>
<polygon fill="midnightblue" stroke="midnightblue" points="930.07,-30.32 930.77,-19.75 923.63,-27.58 930.07,-30.32"/>
</g>
<!-- Node14 -->
<g id="node14" class="node">
<title>Node14</title>
<g id="a_node14"><a xlink:title=" ">
<polygon fill="none" stroke="#bfbfbf" points="699,-0.5 699,-19.5 742,-19.5 742,-0.5 699,-0.5"/>
<text text-anchor="middle" x="720.5" y="-7.5" font-family="serif" font-size="10.00">tuple</text>
</a>
</g>
</g>
<!-- Node5&#45;&gt;Node14 -->
<g id="edge14" class="edge">
<title>Node5&#45;&gt;Node14</title>
<path fill="none" stroke="midnightblue" d="M880.81,-56.45C850.53,-48 802.69,-34.59 752,-20.13"/>
<polygon fill="midnightblue" stroke="midnightblue" points="752.75,-16.7 742.17,-17.32 750.83,-23.43 752.75,-16.7"/>
</g>
<!-- Node15 -->
<g id="node15" class="node">
<title>Node15</title>
<g id="a_node15"><a xlink:title=" ">
<polygon fill="none" stroke="#bfbfbf" points="555.5,-0.5 555.5,-19.5 601.5,-19.5 601.5,-0.5 555.5,-0.5"/>
<text text-anchor="middle" x="578.5" y="-7.5" font-family="serif" font-size="10.00">utility</text>
</a>
</g>
</g>
<!-- Node5&#45;&gt;Node15 -->
<g id="edge15" class="edge">
<title>Node5&#45;&gt;Node15</title>
<path fill="none" stroke="midnightblue" d="M845.85,-57.41C787.07,-50.09 698.39,-37.8 611.85,-19.84"/>
<polygon fill="midnightblue" stroke="midnightblue" points="612.36,-16.37 601.85,-17.73 610.92,-23.22 612.36,-16.37"/>
</g>
<!-- Node16 -->
<g id="node16" class="node">
<title>Node16</title>
<g id="a_node16"><a xlink:title=" ">
<polygon fill="none" stroke="#bfbfbf" points="405.5,-0.5 405.5,-19.5 453.5,-19.5 453.5,-0.5 405.5,-0.5"/>
<text text-anchor="middle" x="429.5" y="-7.5" font-family="serif" font-size="10.00">vector</text>
</a>
</g>
</g>
<!-- Node5&#45;&gt;Node16 -->
<g id="edge16" class="edge">
<title>Node5&#45;&gt;Node16</title>
<path fill="none" stroke="midnightblue" d="M845.64,-59.76C743.41,-51.4 550.1,-34.66 463.56,-19.85"/>
<polygon fill="midnightblue" stroke="midnightblue" points="464,-16.37 453.54,-18.05 462.77,-23.26 464,-16.37"/>
</g>
<!-- Node17 -->
<g id="node17" class="node">
<title>Node17</title>
<g id="a_node17"><a xlink:title=" ">
<polygon fill="none" stroke="#bfbfbf" points="1201,-0.5 1201,-19.5 1270,-19.5 1270,-0.5 1201,-0.5"/>
<text text-anchor="middle" x="1235.5" y="-7.5" font-family="serif" font-size="10.00">mfem.hpp</text>
</a>
</g>
</g>
<!-- Node5&#45;&gt;Node17 -->
<g id="edge17" class="edge">
<title>Node5&#45;&gt;Node17</title>
<path fill="none" stroke="midnightblue" d="M969.76,-56.5C1024.46,-48.32 1108.83,-35.24 1190.81,-20.25"/>
<polygon fill="midnightblue" stroke="midnightblue" points="1191.59,-23.66 1200.79,-18.41 1190.33,-16.78 1191.59,-23.66"/>
</g>
<!-- Node18&#45;&gt;Node3 -->
<g id="edge25" class="edge">
<title>Node18&#45;&gt;Node3</title>
<path fill="none" stroke="midnightblue" d="M840.77,-120.01C692.86,-117.32 361.25,-107.76 321.5,-76 307.83,-65.08 303.28,-45.01 301.88,-30.05"/>
<polygon fill="midnightblue" stroke="midnightblue" points="305.36,-29.64 301.32,-19.85 298.37,-30.02 305.36,-29.64"/>
</g>
<!-- Node18&#45;&gt;Node5 -->
<g id="edge27" class="edge">
<title>Node18&#45;&gt;Node5</title>
<path fill="none" stroke="midnightblue" d="M911.5,-112.08C911.5,-105.01 911.5,-94.86 911.5,-85.99"/>
<polygon fill="midnightblue" stroke="midnightblue" points="915,-85.75 911.5,-75.75 908,-85.75 915,-85.75"/>
</g>
<!-- Node18&#45;&gt;Node6 -->
<g id="edge20" class="edge">
<title>Node18&#45;&gt;Node6</title>
<path fill="none" stroke="midnightblue" d="M932.72,-112.42C952.24,-104.17 981.67,-90.79 1005.5,-76 1029.6,-61.04 1054.94,-40.37 1071.19,-26.39"/>
<polygon fill="midnightblue" stroke="midnightblue" points="1073.56,-28.96 1078.8,-19.75 1068.96,-23.69 1073.56,-28.96"/>
</g>
<!-- Node18&#45;&gt;Node9 -->
<g id="edge21" class="edge">
<title>Node18&#45;&gt;Node9</title>
<path fill="none" stroke="midnightblue" d="M937.57,-112.42C962.53,-103.97 1001.06,-90.28 1033.5,-76 1069.85,-59.99 1110.45,-38.33 1135.49,-24.51"/>
<polygon fill="midnightblue" stroke="midnightblue" points="1137.24,-27.54 1144.28,-19.63 1133.84,-21.42 1137.24,-27.54"/>
</g>
<!-- Node18&#45;&gt;Node11 -->
<g id="edge23" class="edge">
<title>Node18&#45;&gt;Node11</title>
<path fill="none" stroke="midnightblue" d="M934.61,-112.43C951.28,-105.13 973.11,-93.09 986.5,-76 996.96,-62.65 1001.97,-43.82 1004.37,-29.87"/>
<polygon fill="midnightblue" stroke="midnightblue" points="1007.84,-30.3 1005.77,-19.91 1000.91,-29.32 1007.84,-30.3"/>
</g>
<!-- Node18&#45;&gt;Node12 -->
<g id="edge24" class="edge">
<title>Node18&#45;&gt;Node12</title>
<path fill="none" stroke="midnightblue" d="M897.58,-112.46C872.03,-96.88 818.44,-64.63 798.5,-56 763.29,-40.76 721.29,-28.51 691.05,-20.67"/>
<polygon fill="midnightblue" stroke="midnightblue" points="691.82,-17.25 681.27,-18.18 690.09,-24.04 691.82,-17.25"/>
</g>
<!-- Node18&#45;&gt;Node15 -->
<g id="edge26" class="edge">
<title>Node18&#45;&gt;Node15</title>
<path fill="none" stroke="midnightblue" d="M861.28,-112.43C823.04,-105.07 769.5,-92.95 724.5,-76 706.64,-69.27 703.77,-64.12 686.5,-56 661.16,-44.08 631.78,-31.95 610.07,-23.29"/>
<polygon fill="midnightblue" stroke="midnightblue" points="611.26,-19.99 600.68,-19.57 608.69,-26.5 611.26,-19.99"/>
</g>
<!-- Node18&#45;&gt;Node17 -->
<g id="edge28" class="edge">
<title>Node18&#45;&gt;Node17</title>
<path fill="none" stroke="midnightblue" d="M982.14,-118.17C1058.61,-113.77 1174.25,-102.79 1208.5,-76 1222.77,-64.84 1229.56,-44.82 1232.76,-29.93"/>
<polygon fill="midnightblue" stroke="midnightblue" points="1236.26,-30.24 1234.56,-19.78 1229.37,-29.01 1236.26,-30.24"/>
</g>
<!-- Node19 -->
<g id="node19" class="node">
<title>Node19</title>
<g id="a_node19"><a xlink:title=" ">
<polygon fill="none" stroke="#bfbfbf" points="1109.5,-56.5 1109.5,-75.5 1199.5,-75.5 1199.5,-56.5 1109.5,-56.5"/>
<text text-anchor="middle" x="1154.5" y="-63.5" font-family="serif" font-size="10.00">sys/resource.h</text>
</a>
</g>
</g>
<!-- Node18&#45;&gt;Node19 -->
<g id="edge19" class="edge">
<title>Node18&#45;&gt;Node19</title>
<path fill="none" stroke="midnightblue" d="M950,-112.44C992.31,-103.04 1060.32,-87.93 1106.17,-77.74"/>
<polygon fill="midnightblue" stroke="midnightblue" points="1107.17,-81.1 1116.18,-75.52 1105.65,-74.27 1107.17,-81.1"/>
</g>
<!-- Node20 -->
<g id="node20" class="node">
<title>Node20</title>
<g id="a_node20"><a xlink:title=" ">
<polygon fill="none" stroke="#bfbfbf" points="733.5,-56.5 733.5,-75.5 789.5,-75.5 789.5,-56.5 733.5,-56.5"/>
<text text-anchor="middle" x="761.5" y="-63.5" font-family="serif" font-size="10.00">fstream</text>
</a>
</g>
</g>
<!-- Node18&#45;&gt;Node20 -->
<g id="edge22" class="edge">
<title>Node18&#45;&gt;Node20</title>
<path fill="none" stroke="midnightblue" d="M887.73,-112.44C862.61,-103.4 822.79,-89.06 794.6,-78.92"/>
<polygon fill="midnightblue" stroke="midnightblue" points="795.75,-75.61 785.16,-75.52 793.38,-82.2 795.75,-75.61"/>
</g>
<!-- Node21&#45;&gt;Node3 -->
<g id="edge34" class="edge">
<title>Node21&#45;&gt;Node3</title>
<path fill="none" stroke="midnightblue" d="M542.5,-56.49C489.81,-48.84 411.99,-36.57 335.08,-19.94"/>
<polygon fill="midnightblue" stroke="midnightblue" points="335.74,-16.5 325.22,-17.78 334.24,-23.33 335.74,-16.5"/>
</g>
<!-- Node21&#45;&gt;Node7 -->
<g id="edge30" class="edge">
<title>Node21&#45;&gt;Node7</title>
<path fill="none" stroke="midnightblue" d="M588.43,-56.32C572.54,-47.74 547.99,-34.49 529.54,-24.52"/>
<polygon fill="midnightblue" stroke="midnightblue" points="530.99,-21.33 520.53,-19.65 527.66,-27.49 530.99,-21.33"/>
</g>
<!-- Node21&#45;&gt;Node11 -->
<g id="edge31" class="edge">
<title>Node21&#45;&gt;Node11</title>
<path fill="none" stroke="midnightblue" d="M677.64,-57.6C748.09,-50.07 857.87,-37.29 962.2,-20.1"/>
<polygon fill="midnightblue" stroke="midnightblue" points="962.99,-23.52 972.28,-18.43 961.84,-16.61 962.99,-23.52"/>
</g>
<!-- Node21&#45;&gt;Node12 -->
<g id="edge32" class="edge">
<title>Node21&#45;&gt;Node12</title>
<path fill="none" stroke="midnightblue" d="M612.1,-56.08C618.73,-48.3 628.52,-36.8 636.56,-27.37"/>
<polygon fill="midnightblue" stroke="midnightblue" points="639.23,-29.63 643.05,-19.75 633.9,-25.09 639.23,-29.63"/>
</g>
<!-- Node21&#45;&gt;Node14 -->
<g id="edge35" class="edge">
<title>Node21&#45;&gt;Node14</title>
<path fill="none" stroke="midnightblue" d="M622.88,-56.44C641.72,-47.68 671.23,-33.94 692.88,-23.86"/>
<polygon fill="midnightblue" stroke="midnightblue" points="694.62,-26.91 702.21,-19.52 691.66,-20.56 694.62,-26.91"/>
</g>
<!-- Node21&#45;&gt;Node15 -->
<g id="edge36" class="edge">
<title>Node21&#45;&gt;Node15</title>
<path fill="none" stroke="midnightblue" d="M600.21,-56.08C596.65,-48.69 591.48,-37.95 587.08,-28.81"/>
<polygon fill="midnightblue" stroke="midnightblue" points="590.21,-27.24 582.71,-19.75 583.9,-30.28 590.21,-27.24"/>
</g>
<!-- Node21&#45;&gt;Node16 -->
<g id="edge38" class="edge">
<title>Node21&#45;&gt;Node16</title>
<path fill="none" stroke="midnightblue" d="M576.77,-56.44C546.03,-46.96 496.42,-31.65 463.4,-21.46"/>
<polygon fill="midnightblue" stroke="midnightblue" points="464.31,-18.08 453.72,-18.47 462.24,-24.77 464.31,-18.08"/>
</g>
<!-- Node22 -->
<g id="node22" class="node">
<title>Node22</title>
<g id="a_node22"><a xlink:title=" ">
<polygon fill="none" stroke="#bfbfbf" points="343.5,-0.5 343.5,-19.5 387.5,-19.5 387.5,-0.5 343.5,-0.5"/>
<text text-anchor="middle" x="365.5" y="-7.5" font-family="serif" font-size="10.00">limits</text>
</a>
</g>
</g>
<!-- Node21&#45;&gt;Node22 -->
<g id="edge33" class="edge">
<title>Node21&#45;&gt;Node22</title>
<path fill="none" stroke="midnightblue" d="M560.87,-56.48C520.79,-48.45 459.53,-35.66 397.72,-20.18"/>
<polygon fill="midnightblue" stroke="midnightblue" points="398.35,-16.73 387.8,-17.68 396.64,-23.52 398.35,-16.73"/>
</g>
<!-- Node23 -->
<g id="node23" class="node">
<title>Node23</title>
<g id="a_node23"><a xlink:title=" ">
<polygon fill="none" stroke="#bfbfbf" points="193,-0.5 193,-19.5 246,-19.5 246,-0.5 193,-0.5"/>
<text text-anchor="middle" x="219.5" y="-7.5" font-family="serif" font-size="10.00">variant</text>
</a>
</g>
</g>
<!-- Node21&#45;&gt;Node23 -->
<g id="edge37" class="edge">
<title>Node21&#45;&gt;Node23</title>
<path fill="none" stroke="midnightblue" d="M534.11,-56.47C466.23,-48.03 360.66,-34.32 269.5,-20 265.24,-19.33 260.78,-18.59 256.35,-17.82"/>
<polygon fill="midnightblue" stroke="midnightblue" points="256.65,-14.32 246.19,-16.03 255.43,-21.22 256.65,-14.32"/>
</g>
<!-- Node24&#45;&gt;Node3 -->
<g id="edge43" class="edge">
<title>Node24&#45;&gt;Node3</title>
<path fill="none" stroke="midnightblue" d="M402.49,-56.44C382.91,-47.64 352.19,-33.81 329.77,-23.72"/>
<polygon fill="midnightblue" stroke="midnightblue" points="330.98,-20.43 320.43,-19.52 328.11,-26.81 330.98,-20.43"/>
</g>
<!-- Node24&#45;&gt;Node7 -->
<g id="edge40" class="edge">
<title>Node24&#45;&gt;Node7</title>
<path fill="none" stroke="midnightblue" d="M434.84,-56.32C447.66,-47.98 467.28,-35.21 482.44,-25.35"/>
<polygon fill="midnightblue" stroke="midnightblue" points="484.72,-28.04 491.2,-19.65 480.91,-22.17 484.72,-28.04"/>
</g>
<!-- Node24&#45;&gt;Node12 -->
<g id="edge41" class="edge">
<title>Node24&#45;&gt;Node12</title>
<path fill="none" stroke="midnightblue" d="M457.79,-56.44C499.23,-46.67 566.88,-30.72 610.01,-20.55"/>
<polygon fill="midnightblue" stroke="midnightblue" points="610.95,-23.92 619.88,-18.22 609.34,-17.11 610.95,-23.92"/>
</g>
<!-- Node24&#45;&gt;Node15 -->
<g id="edge44" class="edge">
<title>Node24&#45;&gt;Node15</title>
<path fill="none" stroke="midnightblue" d="M446.38,-56.44C473.26,-47.2 516.2,-32.43 545.79,-22.25"/>
<polygon fill="midnightblue" stroke="midnightblue" points="546.96,-25.55 555.27,-18.99 544.68,-18.93 546.96,-25.55"/>
</g>
<!-- Node24&#45;&gt;Node16 -->
<g id="edge45" class="edge">
<title>Node24&#45;&gt;Node16</title>
<path fill="none" stroke="midnightblue" d="M422.82,-56.08C423.88,-48.93 425.41,-38.64 426.73,-29.69"/>
<polygon fill="midnightblue" stroke="midnightblue" points="430.2,-30.16 428.2,-19.75 423.28,-29.13 430.2,-30.16"/>
</g>
<!-- Node24&#45;&gt;Node22 -->
<g id="edge42" class="edge">
<title>Node24&#45;&gt;Node22</title>
<path fill="none" stroke="midnightblue" d="M412.5,-56.32C404.31,-48.42 391.99,-36.55 382.03,-26.94"/>
<polygon fill="midnightblue" stroke="midnightblue" points="384.29,-24.26 374.66,-19.83 379.43,-29.29 384.29,-24.26"/>
</g>
<!-- Node25&#45;&gt;Node23 -->
<g id="edge49" class="edge">
<title>Node25&#45;&gt;Node23</title>
<path fill="none" stroke="midnightblue" d="M122.72,-56.44C141.4,-47.68 170.66,-33.94 192.12,-23.86"/>
<polygon fill="midnightblue" stroke="midnightblue" points="193.8,-26.93 201.36,-19.52 190.82,-20.6 193.8,-26.93"/>
</g>
<!-- Node26 -->
<g id="node26" class="node">
<title>Node26</title>
<g id="a_node26"><a xlink:title=" ">
<polygon fill="none" stroke="#bfbfbf" points="89,-0.5 89,-19.5 148,-19.5 148,-0.5 89,-0.5"/>
<text text-anchor="middle" x="118.5" y="-7.5" font-family="serif" font-size="10.00">memory</text>
</a>
</g>
</g>
<!-- Node25&#45;&gt;Node26 -->
<g id="edge47" class="edge">
<title>Node25&#45;&gt;Node26</title>
<path fill="none" stroke="midnightblue" d="M106.81,-56.08C108.67,-48.93 111.34,-38.64 113.65,-29.69"/>
<polygon fill="midnightblue" stroke="midnightblue" points="117.11,-30.31 116.23,-19.75 110.33,-28.55 117.11,-30.31"/>
</g>
<!-- Node27 -->
<g id="node27" class="node">
<title>Node27</title>
<g id="a_node27"><a xlink:title=" ">
<polygon fill="none" stroke="#bfbfbf" points="0,-0.5 0,-19.5 71,-19.5 71,-0.5 0,-0.5"/>
<text text-anchor="middle" x="35.5" y="-7.5" font-family="serif" font-size="10.00">type_traits</text>
</a>
</g>
</g>
<!-- Node25&#45;&gt;Node27 -->
<g id="edge48" class="edge">
<title>Node25&#45;&gt;Node27</title>
<path fill="none" stroke="midnightblue" d="M93.41,-56.32C83.01,-48.18 67.24,-35.84 54.78,-26.09"/>
<polygon fill="midnightblue" stroke="midnightblue" points="56.82,-23.24 46.79,-19.83 52.51,-28.75 56.82,-23.24"/>
</g>
</g>
</svg>
        <g id="navigator" transform="translate(0 0)" fill="#404254">
                <rect fill="#f2f5e9" fill-opacity="0.5" stroke="#606060" stroke-width=".5" x="0" y="0" width="60" height="60"/>
                <use id="zoomplus" xlink:href="#zoomPlus" x="17" y="9" onmousedown="handleZoom(evt,'in')"/>
                <use id="zoomminus" xlink:href="#zoomMin" x="42" y="9" onmousedown="handleZoom(evt,'out')"/>
                <use id="reset" xlink:href="#resetDef" x="30" y="36" onmousedown="handleReset()"/>
                <g id="arrowUp" xlink:href="#dirArrow" transform="translate(30 24)" onmousedown="handlePan(0,-1)">
                  <use xlink:href="#rim" fill="#404040">
                        <set attributeName="fill" to="#808080" begin="arrowUp.mouseover" end="arrowUp.mouseout"/>
                  </use>
                  <path fill="none" stroke="white" stroke-width="1.5" d="M0,-3.0v7 M-2.5,-0.5L0,-3.0L2.5,-0.5"/>
                </g>
                <g id="arrowRight" xlink:href="#dirArrow" transform="rotate(90) translate(36 -43)" onmousedown="handlePan(1,0)">
                  <use xlink:href="#rim" fill="#404040">
                        <set attributeName="fill" to="#808080" begin="arrowRight.mouseover" end="arrowRight.mouseout"/>
                  </use>
                  <path fill="none" stroke="white" stroke-width="1.5" d="M0,-3.0v7 M-2.5,-0.5L0,-3.0L2.5,-0.5"/>
                </g>
                <g id="arrowDown" xlink:href="#dirArrow" transform="rotate(180) translate(-30 -48)" onmousedown="handlePan(0,1)">
                  <use xlink:href="#rim" fill="#404040">
                        <set attributeName="fill" to="#808080" begin="arrowDown.mouseover" end="arrowDown.mouseout"/>
                  </use>
                  <path fill="none" stroke="white" stroke-width="1.5" d="M0,-3.0v7 M-2.5,-0.5L0,-3.0L2.5,-0.5"/>
                </g>
                <g id="arrowLeft" xlink:href="#dirArrow" transform="rotate(270) translate(-36 17)" onmousedown="handlePan(-1,0)">
                  <use xlink:href="#rim" fill="#404040">
                        <set attributeName="fill" to="#808080" begin="arrowLeft.mouseover" end="arrowLeft.mouseout"/>
                  </use>
                  <path fill="none" stroke="white" stroke-width="1.5" d="M0,-3.0v7 M-2.5,-0.5L0,-3.0L2.5,-0.5"/>
                </g>
        </g>
        <svg viewBox="0 0 15 15" width="100%" height="30px" preserveAspectRatio="xMaxYMin meet">
         <g id="arrow_out" transform="scale(0.3 0.3)">
          <a xlink:href="IntegratorsOptions_8cpp__incl_org.svg" target="_base">
           <rect id="button" ry="5" rx="5" y="6" x="6" height="38" width="38"
                fill="#f2f5e9" fill-opacity="0.5" stroke="#606060" stroke-width="1.0"/>
           <path id="arrow"
             d="M 11.500037,31.436501 C 11.940474,20.09759 22.043105,11.32322 32.158766,21.979434 L 37.068811,17.246167 C 37.068811,17.246167 37.088388,32 37.088388,32 L 22.160133,31.978069 C 22.160133,31.978069 26.997745,27.140456 26.997745,27.140456 C 18.528582,18.264221 13.291696,25.230495 11.500037,31.436501 z"
             style="fill:#404040;"/>
          </a>
         </g>
        </svg>
</svg>
