<?xml version="1.0" encoding="UTF-8" standalone="no"?>
<!DOCTYPE svg PUBLIC "-//W3C//DTD SVG 1.1//EN"
 "http://www.w3.org/Graphics/SVG/1.1/DTD/svg11.dtd">
<!-- Generated by graphviz version 2.43.0 (0)
 -->
<!-- Title: ListCoefficients.hpp Pages: 1 -->
<!--zoomable 207 -->
<svg id="main" version="1.1" xmlns="http://www.w3.org/2000/svg" xmlns:xlink="http://www.w3.org/1999/xlink" xml:space="preserve" onload="init(evt)">
<style type="text/css"><![CDATA[
.edge:hover path { stroke: red; }
.edge:hover polygon { stroke: red; fill: red; }
]]></style>
<script type="text/javascript"><![CDATA[
var edges = document.getElementsByTagName('g');
if (edges && edges.length) {
  for (var i=0;i<edges.length;i++) {
    if (edges[i].id.substr(0,4)=='edge') {
      edges[i].setAttribute('class','edge');
    }
  }
}
]]></script>
        <defs>
                <circle id="rim" cx="0" cy="0" r="7"/>
                <circle id="rim2" cx="0" cy="0" r="3.5"/>
                <g id="zoomPlus">
                        <use xlink:href="#rim" fill="#404040">
                                <set attributeName="fill" to="#808080" begin="zoomplus.mouseover" end="zoomplus.mouseout"/>
                        </use>
                        <path d="M-4,0h8M0,-4v8" fill="none" stroke="white" stroke-width="1.5" pointer-events="none"/>
                </g>
                <g id="zoomMin">
                        <use xlink:href="#rim" fill="#404040">
                                <set attributeName="fill" to="#808080" begin="zoomminus.mouseover" end="zoomminus.mouseout"/>
                        </use>
                        <path d="M-4,0h8" fill="none" stroke="white" stroke-width="1.5" pointer-events="none"/>
                </g>
                <g id="dirArrow">
                        <path fill="none" stroke="white" stroke-width="1.5" d="M0,-3.0v7 M-2.5,-0.5L0,-3.0L2.5,-0.5"/>
                </g>
               <g id="resetDef">
                       <use xlink:href="#rim2" fill="#404040">
                               <set attributeName="fill" to="#808080" begin="reset.mouseover" end="reset.mouseout"/>
                       </use>
               </g>
        </defs>

<script type="text/javascript">
var viewWidth = 1328;
var viewHeight = 207;
var sectionId = 'dynsection-0';
</script>
<script xlink:href="svgpan.js"/>
<svg id="graph" class="graph">
<g id="viewport">
<title>ListCoefficients.hpp</title>
<!-- Node1 -->
<g id="node1" class="node">
<title>Node1</title>
<g id="a_node1"><a xlink:title="List of header files contained in the Coefficients directory.">
<polygon fill="#bfbfbf" stroke="black" points="731.5,-179.5 731.5,-198.5 849.5,-198.5 849.5,-179.5 731.5,-179.5"/>
<text text-anchor="middle" x="790.5" y="-186.5" font-family="serif" font-size="10.00">ListCoefficients.hpp</text>
</a>
</g>
</g>
<!-- Node2 -->
<g id="node2" class="node">
<title>Node2</title>
<g id="a_node2"><a xlink:href="CommonCoefficients_8hpp.html" target="_top" xlink:title="List of common coefficients.">
<polygon fill="none" stroke="black" points="163,-118 163,-137 370,-137 370,-118 163,-118"/>
<text text-anchor="middle" x="266.5" y="-125" font-family="serif" font-size="10.00">Coefficients/CommonCoefficients.hpp</text>
</a>
</g>
</g>
<!-- Node1&#45;&gt;Node2 -->
<g id="edge1" class="edge">
<title>Node1&#45;&gt;Node2</title>
<path fill="none" stroke="midnightblue" d="M731.41,-181.29C638.58,-170.75 458.2,-150.27 351.47,-138.15"/>
<polygon fill="midnightblue" stroke="midnightblue" points="351.7,-134.65 341.37,-137 350.91,-141.61 351.7,-134.65"/>
</g>
<!-- Node19 -->
<g id="node19" class="node">
<title>Node19</title>
<g id="a_node19"><a xlink:href="ProductFunctionCoefficients_8hpp.html" target="_top" xlink:title=" ">
<polygon fill="none" stroke="black" points="882.5,-112.5 882.5,-142.5 1046.5,-142.5 1046.5,-112.5 882.5,-112.5"/>
<text text-anchor="start" x="890.5" y="-130.5" font-family="serif" font-size="10.00">Coefficients/ProductFunction</text>
<text text-anchor="middle" x="964.5" y="-119.5" font-family="serif" font-size="10.00">Coefficients.hpp</text>
</a>
</g>
</g>
<!-- Node1&#45;&gt;Node19 -->
<g id="edge22" class="edge">
<title>Node1&#45;&gt;Node19</title>
<path fill="none" stroke="midnightblue" d="M815.43,-179.48C840.98,-170.74 881.43,-156.91 913.75,-145.86"/>
<polygon fill="midnightblue" stroke="midnightblue" points="915.16,-149.07 923.49,-142.52 912.9,-142.45 915.16,-149.07"/>
</g>
<!-- Node20 -->
<g id="node20" class="node">
<title>Node20</title>
<g id="a_node20"><a xlink:href="SumFunctionCoefficients_8hpp.html" target="_top" xlink:title=" ">
<polygon fill="none" stroke="black" points="717,-112.5 717,-142.5 864,-142.5 864,-112.5 717,-112.5"/>
<text text-anchor="start" x="725" y="-130.5" font-family="serif" font-size="10.00">Coefficients/SumFunction</text>
<text text-anchor="middle" x="790.5" y="-119.5" font-family="serif" font-size="10.00">Coefficients.hpp</text>
</a>
</g>
</g>
<!-- Node1&#45;&gt;Node20 -->
<g id="edge35" class="edge">
<title>Node1&#45;&gt;Node20</title>
<path fill="none" stroke="midnightblue" d="M790.5,-179.48C790.5,-172.47 790.5,-162.19 790.5,-152.7"/>
<polygon fill="midnightblue" stroke="midnightblue" points="794,-152.52 790.5,-142.52 787,-152.52 794,-152.52"/>
</g>
<!-- Node3 -->
<g id="node3" class="node">
<title>Node3</title>
<g id="a_node3"><a xlink:title=" ">
<polygon fill="none" stroke="#bfbfbf" points="115.5,-56.5 115.5,-75.5 181.5,-75.5 181.5,-56.5 115.5,-56.5"/>
<text text-anchor="middle" x="148.5" y="-63.5" font-family="serif" font-size="10.00">algorithm</text>
</a>
</g>
</g>
<!-- Node2&#45;&gt;Node3 -->
<g id="edge2" class="edge">
<title>Node2&#45;&gt;Node3</title>
<path fill="none" stroke="midnightblue" d="M249.59,-117.98C229.97,-108.08 197.37,-91.64 174.51,-80.12"/>
<polygon fill="midnightblue" stroke="midnightblue" points="175.88,-76.89 165.38,-75.51 172.73,-83.14 175.88,-76.89"/>
</g>
<!-- Node4 -->
<g id="node4" class="node">
<title>Node4</title>
<g id="a_node4"><a xlink:title=" ">
<polygon fill="none" stroke="#bfbfbf" points="331.5,-0.5 331.5,-19.5 379.5,-19.5 379.5,-0.5 331.5,-0.5"/>
<text text-anchor="middle" x="355.5" y="-7.5" font-family="serif" font-size="10.00">cmath</text>
</a>
</g>
</g>
<!-- Node2&#45;&gt;Node4 -->
<g id="edge3" class="edge">
<title>Node2&#45;&gt;Node4</title>
<path fill="none" stroke="midnightblue" d="M264.63,-117.87C262.07,-103.69 259.09,-75.15 271.5,-56 282.89,-38.43 303.54,-27.23 321.52,-20.4"/>
<polygon fill="midnightblue" stroke="midnightblue" points="322.87,-23.64 331.16,-17.04 320.57,-17.03 322.87,-23.64"/>
</g>
<!-- Node5 -->
<g id="node5" class="node">
<title>Node5</title>
<g id="a_node5"><a xlink:title=" ">
<polygon fill="none" stroke="#bfbfbf" points="593.5,-0.5 593.5,-19.5 661.5,-19.5 661.5,-0.5 593.5,-0.5"/>
<text text-anchor="middle" x="627.5" y="-7.5" font-family="serif" font-size="10.00">functional</text>
</a>
</g>
</g>
<!-- Node2&#45;&gt;Node5 -->
<g id="edge4" class="edge">
<title>Node2&#45;&gt;Node5</title>
<path fill="none" stroke="midnightblue" d="M293.34,-117.91C357.17,-97.49 518.11,-46 590.83,-22.73"/>
<polygon fill="midnightblue" stroke="midnightblue" points="592.03,-26.02 600.48,-19.64 589.89,-19.36 592.03,-26.02"/>
</g>
<!-- Node6 -->
<g id="node6" class="node">
<title>Node6</title>
<g id="a_node6"><a xlink:title=" ">
<polygon fill="none" stroke="#bfbfbf" points="0,-56.5 0,-75.5 59,-75.5 59,-56.5 0,-56.5"/>
<text text-anchor="middle" x="29.5" y="-63.5" font-family="serif" font-size="10.00">numeric</text>
</a>
</g>
</g>
<!-- Node2&#45;&gt;Node6 -->
<g id="edge5" class="edge">
<title>Node2&#45;&gt;Node6</title>
<path fill="none" stroke="midnightblue" d="M232.54,-117.98C189.35,-107.13 114.88,-88.44 69.14,-76.95"/>
<polygon fill="midnightblue" stroke="midnightblue" points="69.83,-73.52 59.27,-74.47 68.12,-80.3 69.83,-73.52"/>
</g>
<!-- Node7 -->
<g id="node7" class="node">
<title>Node7</title>
<g id="a_node7"><a xlink:title=" ">
<polygon fill="none" stroke="#bfbfbf" points="227,-0.5 227,-19.5 268,-19.5 268,-0.5 227,-0.5"/>
<text text-anchor="middle" x="247.5" y="-7.5" font-family="serif" font-size="10.00">span</text>
</a>
</g>
</g>
<!-- Node2&#45;&gt;Node7 -->
<g id="edge6" class="edge">
<title>Node2&#45;&gt;Node7</title>
<path fill="none" stroke="midnightblue" d="M174.82,-117.96C148.56,-110.76 122.69,-98.08 106.5,-76 76.52,-35.1 166.74,-19.21 216.69,-13.66"/>
<polygon fill="midnightblue" stroke="midnightblue" points="217.1,-17.14 226.68,-12.63 216.38,-10.17 217.1,-17.14"/>
</g>
<!-- Node8 -->
<g id="node8" class="node">
<title>Node8</title>
<g id="a_node8"><a xlink:title=" ">
<polygon fill="none" stroke="#bfbfbf" points="445.5,-0.5 445.5,-19.5 493.5,-19.5 493.5,-0.5 445.5,-0.5"/>
<text text-anchor="middle" x="469.5" y="-7.5" font-family="serif" font-size="10.00">vector</text>
</a>
</g>
</g>
<!-- Node2&#45;&gt;Node8 -->
<g id="edge7" class="edge">
<title>Node2&#45;&gt;Node8</title>
<path fill="none" stroke="midnightblue" d="M274.66,-117.53C288.42,-102.88 317.67,-73.67 347.5,-56 375.33,-39.52 410.22,-27.39 435.55,-19.9"/>
<polygon fill="midnightblue" stroke="midnightblue" points="436.78,-23.19 445.43,-17.08 434.85,-16.46 436.78,-23.19"/>
</g>
<!-- Node9 -->
<g id="node9" class="node">
<title>Node9</title>
<g id="a_node9"><a xlink:href="FunctionCoefficient_8hpp.html" target="_top" xlink:title="Base class defining analytical expression, first and second derivatives of a Coefficient.">
<polygon fill="none" stroke="black" points="694,-56.5 694,-75.5 895,-75.5 895,-56.5 694,-56.5"/>
<text text-anchor="middle" x="794.5" y="-63.5" font-family="serif" font-size="10.00">Coefficients/FunctionCoefficient.hpp</text>
</a>
</g>
</g>
<!-- Node2&#45;&gt;Node9 -->
<g id="edge8" class="edge">
<title>Node2&#45;&gt;Node9</title>
<path fill="none" stroke="midnightblue" d="M342.15,-117.98C439.19,-107.04 607.07,-88.12 708.75,-76.66"/>
<polygon fill="midnightblue" stroke="midnightblue" points="709.45,-80.11 718.99,-75.51 708.66,-73.15 709.45,-80.11"/>
</g>
<!-- Node9&#45;&gt;Node4 -->
<g id="edge10" class="edge">
<title>Node9&#45;&gt;Node4</title>
<path fill="none" stroke="midnightblue" d="M724.94,-56.44C629.73,-44.73 462.44,-24.15 390.26,-15.28"/>
<polygon fill="midnightblue" stroke="midnightblue" points="390.27,-11.75 379.92,-14 389.42,-18.7 390.27,-11.75"/>
</g>
<!-- Node9&#45;&gt;Node5 -->
<g id="edge12" class="edge">
<title>Node9&#45;&gt;Node5</title>
<path fill="none" stroke="midnightblue" d="M768.04,-56.44C739.82,-47.32 694.96,-32.81 663.53,-22.65"/>
<polygon fill="midnightblue" stroke="midnightblue" points="664.43,-19.26 653.84,-19.52 662.28,-25.92 664.43,-19.26"/>
</g>
<!-- Node9&#45;&gt;Node7 -->
<g id="edge18" class="edge">
<title>Node9&#45;&gt;Node7</title>
<path fill="none" stroke="midnightblue" d="M697.7,-56.47C602.25,-47.89 452.22,-33.96 322.5,-20 307.99,-18.44 291.93,-16.53 278.4,-14.88"/>
<polygon fill="midnightblue" stroke="midnightblue" points="278.53,-11.37 268.18,-13.62 277.67,-18.32 278.53,-11.37"/>
</g>
<!-- Node9&#45;&gt;Node8 -->
<g id="edge21" class="edge">
<title>Node9&#45;&gt;Node8</title>
<path fill="none" stroke="midnightblue" d="M729.89,-56.48C671.34,-48.39 582.81,-35.21 506.5,-20 505.59,-19.82 504.67,-19.63 503.75,-19.44"/>
<polygon fill="midnightblue" stroke="midnightblue" points="504.24,-15.96 493.72,-17.2 502.71,-22.79 504.24,-15.96"/>
</g>
<!-- Node10 -->
<g id="node10" class="node">
<title>Node10</title>
<g id="a_node10"><a xlink:title=" ">
<polygon fill="none" stroke="#bfbfbf" points="735,-0.5 735,-19.5 770,-19.5 770,-0.5 735,-0.5"/>
<text text-anchor="middle" x="752.5" y="-7.5" font-family="serif" font-size="10.00">any</text>
</a>
</g>
</g>
<!-- Node9&#45;&gt;Node10 -->
<g id="edge9" class="edge">
<title>Node9&#45;&gt;Node10</title>
<path fill="none" stroke="midnightblue" d="M787.56,-56.08C781.57,-48.38 772.75,-37.03 765.45,-27.65"/>
<polygon fill="midnightblue" stroke="midnightblue" points="768.21,-25.5 759.31,-19.75 762.68,-29.79 768.21,-25.5"/>
</g>
<!-- Node11 -->
<g id="node11" class="node">
<title>Node11</title>
<g id="a_node11"><a xlink:title=" ">
<polygon fill="none" stroke="#bfbfbf" points="788.5,-0.5 788.5,-19.5 850.5,-19.5 850.5,-0.5 788.5,-0.5"/>
<text text-anchor="middle" x="819.5" y="-7.5" font-family="serif" font-size="10.00">concepts</text>
</a>
</g>
</g>
<!-- Node9&#45;&gt;Node11 -->
<g id="edge11" class="edge">
<title>Node9&#45;&gt;Node11</title>
<path fill="none" stroke="midnightblue" d="M798.63,-56.08C802.01,-48.77 806.92,-38.18 811.12,-29.1"/>
<polygon fill="midnightblue" stroke="midnightblue" points="814.42,-30.3 815.45,-19.75 808.07,-27.36 814.42,-30.3"/>
</g>
<!-- Node12 -->
<g id="node12" class="node">
<title>Node12</title>
<g id="a_node12"><a xlink:title=" ">
<polygon fill="none" stroke="#bfbfbf" points="1053.5,-0.5 1053.5,-19.5 1097.5,-19.5 1097.5,-0.5 1053.5,-0.5"/>
<text text-anchor="middle" x="1075.5" y="-7.5" font-family="serif" font-size="10.00">limits</text>
</a>
</g>
</g>
<!-- Node9&#45;&gt;Node12 -->
<g id="edge13" class="edge">
<title>Node9&#45;&gt;Node12</title>
<path fill="none" stroke="midnightblue" d="M840.41,-56.48C888.19,-47.57 965.14,-33.09 1031.5,-20 1035.24,-19.26 1039.15,-18.48 1043.04,-17.69"/>
<polygon fill="midnightblue" stroke="midnightblue" points="1044.03,-21.06 1053.13,-15.64 1042.63,-14.21 1044.03,-21.06"/>
</g>
<!-- Node13 -->
<g id="node13" class="node">
<title>Node13</title>
<g id="a_node13"><a xlink:title=" ">
<polygon fill="none" stroke="#bfbfbf" points="1208,-0.5 1208,-19.5 1247,-19.5 1247,-0.5 1208,-0.5"/>
<text text-anchor="middle" x="1227.5" y="-7.5" font-family="serif" font-size="10.00">map</text>
</a>
</g>
</g>
<!-- Node9&#45;&gt;Node13 -->
<g id="edge14" class="edge">
<title>Node9&#45;&gt;Node13</title>
<path fill="none" stroke="midnightblue" d="M887.95,-56.48C966.94,-48.73 1082.97,-36.07 1183.5,-20 1188.13,-19.26 1193.01,-18.37 1197.77,-17.44"/>
<polygon fill="midnightblue" stroke="midnightblue" points="1198.75,-20.82 1207.85,-15.4 1197.36,-13.96 1198.75,-20.82"/>
</g>
<!-- Node14 -->
<g id="node14" class="node">
<title>Node14</title>
<g id="a_node14"><a xlink:title=" ">
<polygon fill="none" stroke="#bfbfbf" points="516,-0.5 516,-19.5 575,-19.5 575,-0.5 516,-0.5"/>
<text text-anchor="middle" x="545.5" y="-7.5" font-family="serif" font-size="10.00">memory</text>
</a>
</g>
</g>
<!-- Node9&#45;&gt;Node14 -->
<g id="edge15" class="edge">
<title>Node9&#45;&gt;Node14</title>
<path fill="none" stroke="midnightblue" d="M753.81,-56.48C713.54,-48 649.88,-34.48 585.26,-20.14"/>
<polygon fill="midnightblue" stroke="midnightblue" points="585.82,-16.68 575.3,-17.93 584.3,-23.51 585.82,-16.68"/>
</g>
<!-- Node15 -->
<g id="node15" class="node">
<title>Node15</title>
<g id="a_node15"><a xlink:title=" ">
<polygon fill="none" stroke="#bfbfbf" points="894.5,-0.5 894.5,-19.5 952.5,-19.5 952.5,-0.5 894.5,-0.5"/>
<text text-anchor="middle" x="923.5" y="-7.5" font-family="serif" font-size="10.00">optional</text>
</a>
</g>
</g>
<!-- Node9&#45;&gt;Node15 -->
<g id="edge16" class="edge">
<title>Node9&#45;&gt;Node15</title>
<path fill="none" stroke="midnightblue" d="M814.94,-56.44C836.17,-47.56 869.6,-33.56 893.75,-23.45"/>
<polygon fill="midnightblue" stroke="midnightblue" points="895.28,-26.61 903.16,-19.52 892.58,-20.15 895.28,-26.61"/>
</g>
<!-- Node16 -->
<g id="node16" class="node">
<title>Node16</title>
<g id="a_node16"><a xlink:title=" ">
<polygon fill="none" stroke="#bfbfbf" points="1287.5,-0.5 1287.5,-19.5 1319.5,-19.5 1319.5,-0.5 1287.5,-0.5"/>
<text text-anchor="middle" x="1303.5" y="-7.5" font-family="serif" font-size="10.00">set</text>
</a>
</g>
</g>
<!-- Node9&#45;&gt;Node16 -->
<g id="edge17" class="edge">
<title>Node9&#45;&gt;Node16</title>
<path fill="none" stroke="midnightblue" d="M895.31,-57.87C989.12,-50.6 1132.67,-37.85 1256.5,-20 1263.3,-19.02 1270.61,-17.73 1277.39,-16.44"/>
<polygon fill="midnightblue" stroke="midnightblue" points="1278.33,-19.82 1287.46,-14.45 1276.98,-12.96 1278.33,-19.82"/>
</g>
<!-- Node17 -->
<g id="node17" class="node">
<title>Node17</title>
<g id="a_node17"><a xlink:title=" ">
<polygon fill="none" stroke="#bfbfbf" points="976,-0.5 976,-19.5 1023,-19.5 1023,-0.5 976,-0.5"/>
<text text-anchor="middle" x="999.5" y="-7.5" font-family="serif" font-size="10.00">string</text>
</a>
</g>
</g>
<!-- Node9&#45;&gt;Node17 -->
<g id="edge19" class="edge">
<title>Node9&#45;&gt;Node17</title>
<path fill="none" stroke="midnightblue" d="M826.98,-56.44C865.02,-46.42 927.69,-29.92 966.11,-19.79"/>
<polygon fill="midnightblue" stroke="midnightblue" points="967.02,-23.18 975.8,-17.24 965.24,-16.41 967.02,-23.18"/>
</g>
<!-- Node18 -->
<g id="node18" class="node">
<title>Node18</title>
<g id="a_node18"><a xlink:title=" ">
<polygon fill="none" stroke="#bfbfbf" points="1128.5,-0.5 1128.5,-19.5 1174.5,-19.5 1174.5,-0.5 1128.5,-0.5"/>
<text text-anchor="middle" x="1151.5" y="-7.5" font-family="serif" font-size="10.00">utility</text>
</a>
</g>
</g>
<!-- Node9&#45;&gt;Node18 -->
<g id="edge20" class="edge">
<title>Node9&#45;&gt;Node18</title>
<path fill="none" stroke="midnightblue" d="M861.01,-56.47C924.28,-48.1 1022.09,-34.52 1106.5,-20 1110.25,-19.35 1114.18,-18.64 1118.07,-17.89"/>
<polygon fill="midnightblue" stroke="midnightblue" points="1119.05,-21.27 1128.19,-15.91 1117.7,-14.4 1119.05,-21.27"/>
</g>
<!-- Node19&#45;&gt;Node4 -->
<g id="edge24" class="edge">
<title>Node19&#45;&gt;Node4</title>
<path fill="none" stroke="midnightblue" d="M882.27,-113.36C878.97,-112.89 875.7,-112.43 872.5,-112 732.43,-92.99 694.66,-105.9 556.5,-76 495,-62.69 425.66,-38.03 386.6,-23.21"/>
<polygon fill="midnightblue" stroke="midnightblue" points="387.71,-19.88 377.12,-19.57 385.2,-26.42 387.71,-19.88"/>
</g>
<!-- Node19&#45;&gt;Node5 -->
<g id="edge25" class="edge">
<title>Node19&#45;&gt;Node5</title>
<path fill="none" stroke="midnightblue" d="M882.49,-113.07C803.02,-99.84 693.21,-80.92 684.5,-76 664.38,-64.62 647.83,-43.4 637.85,-28.31"/>
<polygon fill="midnightblue" stroke="midnightblue" points="640.8,-26.43 632.5,-19.84 634.88,-30.16 640.8,-26.43"/>
</g>
<!-- Node19&#45;&gt;Node8 -->
<g id="edge33" class="edge">
<title>Node19&#45;&gt;Node8</title>
<path fill="none" stroke="midnightblue" d="M882.25,-113.46C878.96,-112.96 875.7,-112.47 872.5,-112 757.1,-94.92 724.55,-108.48 612.5,-76 568.69,-63.3 521.07,-39.44 493.33,-24.43"/>
<polygon fill="midnightblue" stroke="midnightblue" points="494.84,-21.27 484.39,-19.53 491.47,-27.41 494.84,-21.27"/>
</g>
<!-- Node19&#45;&gt;Node9 -->
<g id="edge34" class="edge">
<title>Node19&#45;&gt;Node9</title>
<path fill="none" stroke="midnightblue" d="M924.21,-112.4C895.18,-102.24 856.42,-88.67 828.85,-79.02"/>
<polygon fill="midnightblue" stroke="midnightblue" points="829.83,-75.66 819.24,-75.66 827.52,-82.26 829.83,-75.66"/>
</g>
<!-- Node19&#45;&gt;Node10 -->
<g id="edge23" class="edge">
<title>Node19&#45;&gt;Node10</title>
<path fill="none" stroke="midnightblue" d="M955.95,-112.44C945.51,-96.45 926.39,-70.67 903.5,-56 857.73,-26.66 836.57,-35.93 779.98,-19.92"/>
<polygon fill="midnightblue" stroke="midnightblue" points="780.77,-16.51 770.19,-17.01 778.77,-23.22 780.77,-16.51"/>
</g>
<!-- Node19&#45;&gt;Node12 -->
<g id="edge26" class="edge">
<title>Node19&#45;&gt;Node12</title>
<path fill="none" stroke="midnightblue" d="M1016.8,-112.41C1035.68,-104.7 1055.31,-93.12 1067.5,-76 1076.88,-62.83 1078.3,-44.24 1077.72,-30.31"/>
<polygon fill="midnightblue" stroke="midnightblue" points="1081.18,-29.62 1076.89,-19.93 1074.2,-30.18 1081.18,-29.62"/>
</g>
<!-- Node19&#45;&gt;Node13 -->
<g id="edge27" class="edge">
<title>Node19&#45;&gt;Node13</title>
<path fill="none" stroke="midnightblue" d="M1013.03,-112.44C1042.35,-103.34 1080.17,-90.5 1112.5,-76 1146.16,-60.9 1182.92,-39.12 1205.59,-25.01"/>
<polygon fill="midnightblue" stroke="midnightblue" points="1207.52,-27.94 1214.12,-19.65 1203.79,-22.01 1207.52,-27.94"/>
</g>
<!-- Node19&#45;&gt;Node14 -->
<g id="edge28" class="edge">
<title>Node19&#45;&gt;Node14</title>
<path fill="none" stroke="midnightblue" d="M882.11,-113.32C793,-99 662.83,-77.91 657.5,-76 622.87,-63.58 586.76,-40.48 565.2,-25.43"/>
<polygon fill="midnightblue" stroke="midnightblue" points="567.08,-22.47 556.9,-19.53 563.02,-28.17 567.08,-22.47"/>
</g>
<!-- Node19&#45;&gt;Node15 -->
<g id="edge29" class="edge">
<title>Node19&#45;&gt;Node15</title>
<path fill="none" stroke="midnightblue" d="M971.23,-112.35C977.22,-97.64 983.84,-74.25 975.5,-56 969.72,-43.36 958.45,-32.91 947.87,-25.27"/>
<polygon fill="midnightblue" stroke="midnightblue" points="949.54,-22.18 939.28,-19.53 945.65,-28 949.54,-22.18"/>
</g>
<!-- Node19&#45;&gt;Node16 -->
<g id="edge30" class="edge">
<title>Node19&#45;&gt;Node16</title>
<path fill="none" stroke="midnightblue" d="M1022.02,-112.46C1058.11,-103.18 1105.42,-90.14 1146.5,-76 1193.82,-59.71 1247.37,-36.47 1278.11,-22.64"/>
<polygon fill="midnightblue" stroke="midnightblue" points="1279.59,-25.81 1287.25,-18.5 1276.7,-19.43 1279.59,-25.81"/>
</g>
<!-- Node19&#45;&gt;Node17 -->
<g id="edge31" class="edge">
<title>Node19&#45;&gt;Node17</title>
<path fill="none" stroke="midnightblue" d="M1007.31,-112.42C1024.19,-104.52 1041.83,-92.8 1051.5,-76 1062.41,-57.06 1042.27,-37.81 1023.97,-25.23"/>
<polygon fill="midnightblue" stroke="midnightblue" points="1025.58,-22.1 1015.28,-19.62 1021.78,-27.98 1025.58,-22.1"/>
</g>
<!-- Node19&#45;&gt;Node18 -->
<g id="edge32" class="edge">
<title>Node19&#45;&gt;Node18</title>
<path fill="none" stroke="midnightblue" d="M1010.09,-112.45C1033.97,-103.93 1063.05,-91.66 1086.5,-76 1106.72,-62.49 1125.9,-42.04 1138.11,-27.69"/>
<polygon fill="midnightblue" stroke="midnightblue" points="1141.08,-29.6 1144.76,-19.66 1135.69,-25.13 1141.08,-29.6"/>
</g>
<!-- Node20&#45;&gt;Node4 -->
<g id="edge37" class="edge">
<title>Node20&#45;&gt;Node4</title>
<path fill="none" stroke="midnightblue" d="M716.95,-115.19C665.17,-106.46 594.49,-93.02 533.5,-76 480.29,-61.15 420.3,-37.82 385.31,-23.52"/>
<polygon fill="midnightblue" stroke="midnightblue" points="386.3,-20.13 375.72,-19.56 383.63,-26.61 386.3,-20.13"/>
</g>
<!-- Node20&#45;&gt;Node5 -->
<g id="edge38" class="edge">
<title>Node20&#45;&gt;Node5</title>
<path fill="none" stroke="midnightblue" d="M716.53,-114.57C673.93,-106.03 626.35,-93.03 613.5,-76 603.11,-62.22 609.63,-42.37 616.85,-28.24"/>
<polygon fill="midnightblue" stroke="midnightblue" points="619.91,-29.94 621.76,-19.51 613.81,-26.51 619.91,-29.94"/>
</g>
<!-- Node20&#45;&gt;Node7 -->
<g id="edge44" class="edge">
<title>Node20&#45;&gt;Node7</title>
<path fill="none" stroke="midnightblue" d="M716.92,-117.59C651.74,-109.06 554.2,-94.72 470.5,-76 400.7,-60.39 320.57,-35.2 277.93,-21.21"/>
<polygon fill="midnightblue" stroke="midnightblue" points="278.77,-17.8 268.18,-17.99 276.57,-24.45 278.77,-17.8"/>
</g>
<!-- Node20&#45;&gt;Node8 -->
<g id="edge47" class="edge">
<title>Node20&#45;&gt;Node8</title>
<path fill="none" stroke="midnightblue" d="M716.92,-115.05C674.8,-107.05 621.54,-94.45 576.5,-76 544.09,-62.72 510.08,-40.4 489.33,-25.69"/>
<polygon fill="midnightblue" stroke="midnightblue" points="491.2,-22.72 481.04,-19.71 487.1,-28.4 491.2,-22.72"/>
</g>
<!-- Node20&#45;&gt;Node9 -->
<g id="edge48" class="edge">
<title>Node20&#45;&gt;Node9</title>
<path fill="none" stroke="midnightblue" d="M791.45,-112.4C791.98,-104.47 792.65,-94.46 793.23,-85.86"/>
<polygon fill="midnightblue" stroke="midnightblue" points="796.74,-85.87 793.92,-75.66 789.76,-85.4 796.74,-85.87"/>
</g>
<!-- Node20&#45;&gt;Node10 -->
<g id="edge36" class="edge">
<title>Node20&#45;&gt;Node10</title>
<path fill="none" stroke="midnightblue" d="M732.79,-112.41C714.12,-104.83 695.44,-93.32 684.5,-76 670.49,-53.81 700.85,-33.87 725.41,-22.1"/>
<polygon fill="midnightblue" stroke="midnightblue" points="727.1,-25.17 734.76,-17.85 724.21,-18.8 727.1,-25.17"/>
</g>
<!-- Node20&#45;&gt;Node12 -->
<g id="edge39" class="edge">
<title>Node20&#45;&gt;Node12</title>
<path fill="none" stroke="midnightblue" d="M843.55,-112.45C875.36,-103.39 916.33,-90.6 951.5,-76 987.77,-60.95 1027.64,-39.01 1052.13,-24.87"/>
<polygon fill="midnightblue" stroke="midnightblue" points="1054.15,-27.74 1061.02,-19.68 1050.62,-21.7 1054.15,-27.74"/>
</g>
<!-- Node20&#45;&gt;Node13 -->
<g id="edge40" class="edge">
<title>Node20&#45;&gt;Node13</title>
<path fill="none" stroke="midnightblue" d="M864.16,-112.98C911.42,-103.78 973.94,-90.65 1028.5,-76 1089.72,-59.56 1159.89,-35.35 1198.4,-21.59"/>
<polygon fill="midnightblue" stroke="midnightblue" points="1199.71,-24.84 1207.94,-18.16 1197.34,-18.25 1199.71,-24.84"/>
</g>
<!-- Node20&#45;&gt;Node14 -->
<g id="edge41" class="edge">
<title>Node20&#45;&gt;Node14</title>
<path fill="none" stroke="midnightblue" d="M716.88,-116.46C681.04,-109.17 638.46,-96.79 604.5,-76 584.48,-63.74 567.19,-42.7 556.6,-27.89"/>
<polygon fill="midnightblue" stroke="midnightblue" points="559.45,-25.86 550.9,-19.6 553.68,-29.82 559.45,-25.86"/>
</g>
<!-- Node20&#45;&gt;Node15 -->
<g id="edge42" class="edge">
<title>Node20&#45;&gt;Node15</title>
<path fill="none" stroke="midnightblue" d="M845.58,-112.48C866.23,-104.76 888.33,-93.14 903.5,-76 914.86,-63.16 919.77,-43.98 921.89,-29.78"/>
<polygon fill="midnightblue" stroke="midnightblue" points="925.38,-30.01 923.06,-19.67 918.43,-29.2 925.38,-30.01"/>
</g>
<!-- Node20&#45;&gt;Node16 -->
<g id="edge43" class="edge">
<title>Node20&#45;&gt;Node16</title>
<path fill="none" stroke="midnightblue" d="M864.24,-113.58C947.24,-99.01 1071.29,-77.2 1076.5,-76 1150.33,-58.96 1235.88,-32.64 1277.74,-19.33"/>
<polygon fill="midnightblue" stroke="midnightblue" points="1278.95,-22.61 1287.41,-16.23 1276.82,-15.95 1278.95,-22.61"/>
</g>
<!-- Node20&#45;&gt;Node17 -->
<g id="edge45" class="edge">
<title>Node20&#45;&gt;Node17</title>
<path fill="none" stroke="midnightblue" d="M839.42,-112.42C865.39,-103.86 897.26,-91.56 923.5,-76 946.69,-62.25 969.7,-41.27 984.22,-26.89"/>
<polygon fill="midnightblue" stroke="midnightblue" points="986.83,-29.24 991.37,-19.67 981.85,-24.32 986.83,-29.24"/>
</g>
<!-- Node20&#45;&gt;Node18 -->
<g id="edge46" class="edge">
<title>Node20&#45;&gt;Node18</title>
<path fill="none" stroke="midnightblue" d="M853.3,-112.4C892.03,-103.19 942.55,-90.26 986.5,-76 1035.07,-60.24 1089.96,-37.62 1122.59,-23.64"/>
<polygon fill="midnightblue" stroke="midnightblue" points="1124.18,-26.77 1131.97,-19.6 1121.41,-20.34 1124.18,-26.77"/>
</g>
</g>
</svg>
        <g id="navigator" transform="translate(0 0)" fill="#404254">
                <rect fill="#f2f5e9" fill-opacity="0.5" stroke="#606060" stroke-width=".5" x="0" y="0" width="60" height="60"/>
                <use id="zoomplus" xlink:href="#zoomPlus" x="17" y="9" onmousedown="handleZoom(evt,'in')"/>
                <use id="zoomminus" xlink:href="#zoomMin" x="42" y="9" onmousedown="handleZoom(evt,'out')"/>
                <use id="reset" xlink:href="#resetDef" x="30" y="36" onmousedown="handleReset()"/>
                <g id="arrowUp" xlink:href="#dirArrow" transform="translate(30 24)" onmousedown="handlePan(0,-1)">
                  <use xlink:href="#rim" fill="#404040">
                        <set attributeName="fill" to="#808080" begin="arrowUp.mouseover" end="arrowUp.mouseout"/>
                  </use>
                  <path fill="none" stroke="white" stroke-width="1.5" d="M0,-3.0v7 M-2.5,-0.5L0,-3.0L2.5,-0.5"/>
                </g>
                <g id="arrowRight" xlink:href="#dirArrow" transform="rotate(90) translate(36 -43)" onmousedown="handlePan(1,0)">
                  <use xlink:href="#rim" fill="#404040">
                        <set attributeName="fill" to="#808080" begin="arrowRight.mouseover" end="arrowRight.mouseout"/>
                  </use>
                  <path fill="none" stroke="white" stroke-width="1.5" d="M0,-3.0v7 M-2.5,-0.5L0,-3.0L2.5,-0.5"/>
                </g>
                <g id="arrowDown" xlink:href="#dirArrow" transform="rotate(180) translate(-30 -48)" onmousedown="handlePan(0,1)">
                  <use xlink:href="#rim" fill="#404040">
                        <set attributeName="fill" to="#808080" begin="arrowDown.mouseover" end="arrowDown.mouseout"/>
                  </use>
                  <path fill="none" stroke="white" stroke-width="1.5" d="M0,-3.0v7 M-2.5,-0.5L0,-3.0L2.5,-0.5"/>
                </g>
                <g id="arrowLeft" xlink:href="#dirArrow" transform="rotate(270) translate(-36 17)" onmousedown="handlePan(-1,0)">
                  <use xlink:href="#rim" fill="#404040">
                        <set attributeName="fill" to="#808080" begin="arrowLeft.mouseover" end="arrowLeft.mouseout"/>
                  </use>
                  <path fill="none" stroke="white" stroke-width="1.5" d="M0,-3.0v7 M-2.5,-0.5L0,-3.0L2.5,-0.5"/>
                </g>
        </g>
        <svg viewBox="0 0 15 15" width="100%" height="30px" preserveAspectRatio="xMaxYMin meet">
         <g id="arrow_out" transform="scale(0.3 0.3)">
          <a xlink:href="ListCoefficients_8hpp__incl_org.svg" target="_base">
           <rect id="button" ry="5" rx="5" y="6" x="6" height="38" width="38"
                fill="#f2f5e9" fill-opacity="0.5" stroke="#606060" stroke-width="1.0"/>
           <path id="arrow"
             d="M 11.500037,31.436501 C 11.940474,20.09759 22.043105,11.32322 32.158766,21.979434 L 37.068811,17.246167 C 37.068811,17.246167 37.088388,32 37.088388,32 L 22.160133,31.978069 C 22.160133,31.978069 26.997745,27.140456 26.997745,27.140456 C 18.528582,18.264221 13.291696,25.230495 11.500037,31.436501 z"
             style="fill:#404040;"/>
          </a>
         </g>
        </svg>
</svg>
