<?xml version="1.0" encoding="UTF-8" standalone="no"?>
<!DOCTYPE svg PUBLIC "-//W3C//DTD SVG 1.1//EN"
 "http://www.w3.org/Graphics/SVG/1.1/DTD/svg11.dtd">
<!-- Generated by graphviz version 2.43.0 (0)
 -->
<!-- Title: LSolver.hpp Pages: 1 -->
<svg width="330pt" height="252pt"
 viewBox="0.00 0.00 329.50 252.00" xmlns="http://www.w3.org/2000/svg" xmlns:xlink="http://www.w3.org/1999/xlink">
<g id="graph0" class="graph" transform="scale(1 1) rotate(0) translate(4 248)">
<title>LSolver.hpp</title>
<!-- Node1 -->
<g id="node1" class="node">
<title>Node1</title>
<g id="a_node1"><a xlink:title="Class used to manage Linear Solver objet.">
<polygon fill="#bfbfbf" stroke="black" points="135,-224.5 135,-243.5 213,-243.5 213,-224.5 135,-224.5"/>
<text text-anchor="middle" x="174" y="-231.5" font-family="serif" font-size="10.00">LSolver.hpp</text>
</a>
</g>
</g>
<!-- Node2 -->
<g id="node2" class="node">
<title>Node2</title>
<g id="a_node2"><a xlink:href="OperatorBase_8hpp.html" target="_top" xlink:title="Base class for building Steady and TimeDependent PhaseFieldOperators.">
<polygon fill="none" stroke="black" points="78,-168.5 78,-187.5 188,-187.5 188,-168.5 78,-168.5"/>
<text text-anchor="middle" x="133" y="-175.5" font-family="serif" font-size="10.00">OperatorBase.hpp</text>
</a>
</g>
</g>
<!-- Node1&#45;&gt;Node2 -->
<g id="edge1" class="edge">
<title>Node1&#45;&gt;Node2</title>
<path fill="none" stroke="midnightblue" d="M160.98,-215.86C153.88,-206.5 145.4,-195.33 139.64,-187.75"/>
<polygon fill="midnightblue" stroke="midnightblue" points="158.39,-218.24 167.23,-224.08 163.97,-214 158.39,-218.24"/>
</g>
<!-- Node3 -->
<g id="node3" class="node">
<title>Node3</title>
<g id="a_node3"><a xlink:href="SteadyOperator_8hpp.html" target="_top" xlink:title="Steady Operator.">
<polygon fill="none" stroke="black" points="0,-112.5 0,-131.5 120,-131.5 120,-112.5 0,-112.5"/>
<text text-anchor="middle" x="60" y="-119.5" font-family="serif" font-size="10.00">SteadyOperator.hpp</text>
</a>
</g>
</g>
<!-- Node1&#45;&gt;Node3 -->
<g id="edge7" class="edge">
<title>Node1&#45;&gt;Node3</title>
<path fill="none" stroke="midnightblue" d="M125.04,-223.24C104.65,-216.67 82.59,-205.82 69,-188 56.28,-171.33 57.2,-145.05 58.72,-131.58"/>
<polygon fill="midnightblue" stroke="midnightblue" points="124.3,-226.67 134.88,-226.13 126.27,-219.96 124.3,-226.67"/>
</g>
<!-- Node6 -->
<g id="node6" class="node">
<title>Node6</title>
<g id="a_node6"><a xlink:href="TransientOperator_8hpp.html" target="_top" xlink:title="Transient Operator.">
<polygon fill="none" stroke="black" points="138,-112.5 138,-131.5 272,-131.5 272,-112.5 138,-112.5"/>
<text text-anchor="middle" x="205" y="-119.5" font-family="serif" font-size="10.00">TransientOperator.hpp</text>
</a>
</g>
</g>
<!-- Node1&#45;&gt;Node6 -->
<g id="edge8" class="edge">
<title>Node1&#45;&gt;Node6</title>
<path fill="none" stroke="midnightblue" d="M184.7,-215.6C189.21,-207.49 194.07,-197.54 197,-188 203,-168.43 204.52,-144.25 204.89,-131.61"/>
<polygon fill="midnightblue" stroke="midnightblue" points="181.57,-214.02 179.54,-224.42 187.61,-217.56 181.57,-214.02"/>
</g>
<!-- Node7 -->
<g id="node7" class="node">
<title>Node7</title>
<g id="a_node7"><a xlink:href="LSolver_8cpp.html" target="_top" xlink:title="Class used to manage Linear Solver objet.">
<polygon fill="none" stroke="black" points="244.5,-168.5 244.5,-187.5 321.5,-187.5 321.5,-168.5 244.5,-168.5"/>
<text text-anchor="middle" x="283" y="-175.5" font-family="serif" font-size="10.00">LSolver.cpp</text>
</a>
</g>
</g>
<!-- Node1&#45;&gt;Node7 -->
<g id="edge9" class="edge">
<title>Node1&#45;&gt;Node7</title>
<path fill="none" stroke="midnightblue" d="M200.52,-219.86C220.73,-209.85 247.99,-196.35 265.53,-187.65"/>
<polygon fill="midnightblue" stroke="midnightblue" points="198.92,-216.75 191.51,-224.32 202.03,-223.02 198.92,-216.75"/>
</g>
<!-- Node2&#45;&gt;Node3 -->
<g id="edge2" class="edge">
<title>Node2&#45;&gt;Node3</title>
<path fill="none" stroke="midnightblue" d="M112.86,-162.1C99.72,-152.38 83.02,-140.03 71.94,-131.83"/>
<polygon fill="midnightblue" stroke="midnightblue" points="111.15,-165.19 121.27,-168.32 115.31,-159.56 111.15,-165.19"/>
</g>
<!-- Node2&#45;&gt;Node6 -->
<g id="edge5" class="edge">
<title>Node2&#45;&gt;Node6</title>
<path fill="none" stroke="midnightblue" d="M152.87,-162.1C165.82,-152.38 182.3,-140.03 193.22,-131.83"/>
<polygon fill="midnightblue" stroke="midnightblue" points="150.47,-159.52 144.57,-168.32 154.67,-165.12 150.47,-159.52"/>
</g>
<!-- Node4 -->
<g id="node4" class="node">
<title>Node4</title>
<g id="a_node4"><a xlink:href="ListOperators_8hpp.html" target="_top" xlink:title=" ">
<polygon fill="none" stroke="black" points="77,-56.5 77,-75.5 187,-75.5 187,-56.5 77,-56.5"/>
<text text-anchor="middle" x="132" y="-63.5" font-family="serif" font-size="10.00">ListOperators.hpp</text>
</a>
</g>
</g>
<!-- Node3&#45;&gt;Node4 -->
<g id="edge3" class="edge">
<title>Node3&#45;&gt;Node4</title>
<path fill="none" stroke="midnightblue" d="M79.87,-106.1C92.82,-96.38 109.3,-84.03 120.22,-75.83"/>
<polygon fill="midnightblue" stroke="midnightblue" points="77.47,-103.52 71.57,-112.32 81.67,-109.12 77.47,-103.52"/>
</g>
<!-- Node5 -->
<g id="node5" class="node">
<title>Node5</title>
<g id="a_node5"><a xlink:href="sloth_8hpp.html" target="_top" xlink:title="List of SLOTH header files.">
<polygon fill="none" stroke="black" points="99.5,-0.5 99.5,-19.5 164.5,-19.5 164.5,-0.5 99.5,-0.5"/>
<text text-anchor="middle" x="132" y="-7.5" font-family="serif" font-size="10.00">sloth.hpp</text>
</a>
</g>
</g>
<!-- Node4&#45;&gt;Node5 -->
<g id="edge4" class="edge">
<title>Node4&#45;&gt;Node5</title>
<path fill="none" stroke="midnightblue" d="M132,-45.8C132,-36.91 132,-26.78 132,-19.75"/>
<polygon fill="midnightblue" stroke="midnightblue" points="128.5,-46.08 132,-56.08 135.5,-46.08 128.5,-46.08"/>
</g>
<!-- Node6&#45;&gt;Node4 -->
<g id="edge6" class="edge">
<title>Node6&#45;&gt;Node4</title>
<path fill="none" stroke="midnightblue" d="M184.86,-106.1C171.72,-96.38 155.02,-84.03 143.94,-75.83"/>
<polygon fill="midnightblue" stroke="midnightblue" points="183.15,-109.19 193.27,-112.32 187.31,-103.56 183.15,-109.19"/>
</g>
</g>
</svg>
