<?xml version="1.0" encoding="UTF-8" standalone="no"?>
<!DOCTYPE svg PUBLIC "-//W3C//DTD SVG 1.1//EN"
 "http://www.w3.org/Graphics/SVG/1.1/DTD/svg11.dtd">
<!-- Generated by graphviz version 2.43.0 (0)
 -->
<!-- Title: MeltingBaseNLFormIntegrator.hpp Pages: 1 -->
<svg width="645pt" height="151pt"
 viewBox="0.00 0.00 644.50 151.00" xmlns="http://www.w3.org/2000/svg" xmlns:xlink="http://www.w3.org/1999/xlink">
<g id="graph0" class="graph" transform="scale(1 1) rotate(0) translate(4 147)">
<title>MeltingBaseNLFormIntegrator.hpp</title>
<!-- Node1 -->
<g id="node1" class="node">
<title>Node1</title>
<g id="a_node1"><a xlink:title="Base class for melting integrators.">
<polygon fill="#bfbfbf" stroke="black" points="245,-123.5 245,-142.5 443,-142.5 443,-123.5 245,-123.5"/>
<text text-anchor="middle" x="344" y="-130.5" font-family="serif" font-size="10.00">MeltingBaseNLFormIntegrator.hpp</text>
</a>
</g>
</g>
<!-- Node2 -->
<g id="node2" class="node">
<title>Node2</title>
<g id="a_node2"><a xlink:href="MeltingCalphadNLFormIntegrator_8hpp.html" target="_top" xlink:title="NonlinearFormIntegrator for ad&#45;hoc melting term based on temperature.">
<polygon fill="none" stroke="black" points="0,-62 0,-81 216,-81 216,-62 0,-62"/>
<text text-anchor="middle" x="108" y="-69" font-family="serif" font-size="10.00">MeltingCalphadNLFormIntegrator.hpp</text>
</a>
</g>
</g>
<!-- Node1&#45;&gt;Node2 -->
<g id="edge1" class="edge">
<title>Node1&#45;&gt;Node2</title>
<path fill="none" stroke="midnightblue" d="M300.24,-120.97C254.42,-109.41 183.43,-91.52 141.75,-81.01"/>
<polygon fill="midnightblue" stroke="midnightblue" points="299.63,-124.42 310.19,-123.48 301.35,-117.64 299.63,-124.42"/>
</g>
<!-- Node4 -->
<g id="node4" class="node">
<title>Node4</title>
<g id="a_node4"><a xlink:href="MeltingConstantNLFormIntegrator_8hpp.html" target="_top" xlink:title="NonlinearFormIntegrator for ad&#45;hoc constant melting term.">
<polygon fill="none" stroke="black" points="234.5,-62 234.5,-81 453.5,-81 453.5,-62 234.5,-62"/>
<text text-anchor="middle" x="344" y="-69" font-family="serif" font-size="10.00">MeltingConstantNLFormIntegrator.hpp</text>
</a>
</g>
</g>
<!-- Node1&#45;&gt;Node4 -->
<g id="edge3" class="edge">
<title>Node1&#45;&gt;Node4</title>
<path fill="none" stroke="midnightblue" d="M344,-113.32C344,-102.5 344,-89.4 344,-81.01"/>
<polygon fill="midnightblue" stroke="midnightblue" points="340.5,-113.48 344,-123.48 347.5,-113.48 340.5,-113.48"/>
</g>
<!-- Node5 -->
<g id="node5" class="node">
<title>Node5</title>
<g id="a_node5"><a xlink:href="MeltingTemperatureNLFormIntegrator_8hpp.html" target="_top" xlink:title="NonlinearFormIntegrator for ad&#45;hoc melting term based on temperature.">
<polygon fill="none" stroke="black" points="471.5,-56.5 471.5,-86.5 636.5,-86.5 636.5,-56.5 471.5,-56.5"/>
<text text-anchor="start" x="479.5" y="-74.5" font-family="serif" font-size="10.00">MeltingTemperatureNLForm</text>
<text text-anchor="middle" x="554" y="-63.5" font-family="serif" font-size="10.00">Integrator.hpp</text>
</a>
</g>
</g>
<!-- Node1&#45;&gt;Node5 -->
<g id="edge5" class="edge">
<title>Node1&#45;&gt;Node5</title>
<path fill="none" stroke="midnightblue" d="M383.76,-120.73C418.03,-111.02 467.67,-96.96 504.51,-86.52"/>
<polygon fill="midnightblue" stroke="midnightblue" points="382.76,-117.38 374.09,-123.48 384.66,-124.12 382.76,-117.38"/>
</g>
<!-- Node3 -->
<g id="node3" class="node">
<title>Node3</title>
<g id="a_node3"><a xlink:href="ListIntegrators_8hpp.html" target="_top" xlink:title="List of header files contained in the Integrators directory.">
<polygon fill="none" stroke="black" points="286,-0.5 286,-19.5 402,-19.5 402,-0.5 286,-0.5"/>
<text text-anchor="middle" x="344" y="-7.5" font-family="serif" font-size="10.00">ListIntegrators.hpp</text>
</a>
</g>
</g>
<!-- Node2&#45;&gt;Node3 -->
<g id="edge2" class="edge">
<title>Node2&#45;&gt;Node3</title>
<path fill="none" stroke="midnightblue" d="M151.76,-59.47C197.58,-47.91 268.57,-30.02 310.25,-19.51"/>
<polygon fill="midnightblue" stroke="midnightblue" points="150.65,-56.14 141.81,-61.98 152.37,-62.92 150.65,-56.14"/>
</g>
<!-- Node4&#45;&gt;Node3 -->
<g id="edge4" class="edge">
<title>Node4&#45;&gt;Node3</title>
<path fill="none" stroke="midnightblue" d="M344,-51.82C344,-41 344,-27.9 344,-19.51"/>
<polygon fill="midnightblue" stroke="midnightblue" points="340.5,-51.98 344,-61.98 347.5,-51.98 340.5,-51.98"/>
</g>
<!-- Node5&#45;&gt;Node3 -->
<g id="edge6" class="edge">
<title>Node5&#45;&gt;Node3</title>
<path fill="none" stroke="midnightblue" d="M494.74,-53.71C455.39,-42.56 405.38,-28.39 374.02,-19.51"/>
<polygon fill="midnightblue" stroke="midnightblue" points="493.92,-57.12 504.5,-56.47 495.83,-50.38 493.92,-57.12"/>
</g>
</g>
</svg>
