<?xml version="1.0" encoding="UTF-8" standalone="no"?>
<!DOCTYPE svg PUBLIC "-//W3C//DTD SVG 1.1//EN"
 "http://www.w3.org/Graphics/SVG/1.1/DTD/svg11.dtd">
<!-- Generated by graphviz version 2.43.0 (0)
 -->
<!-- Title: NLSolver.hpp Pages: 1 -->
<svg width="310pt" height="252pt"
 viewBox="0.00 0.00 310.00 252.00" xmlns="http://www.w3.org/2000/svg" xmlns:xlink="http://www.w3.org/1999/xlink">
<g id="graph0" class="graph" transform="scale(1 1) rotate(0) translate(4 248)">
<title>NLSolver.hpp</title>
<!-- Node1 -->
<g id="node1" class="node">
<title>Node1</title>
<g id="a_node1"><a xlink:title="Class used to manage a NonLinear Solver( Newton type)">
<polygon fill="#bfbfbf" stroke="black" points="99.5,-224.5 99.5,-243.5 186.5,-243.5 186.5,-224.5 99.5,-224.5"/>
<text text-anchor="middle" x="143" y="-231.5" font-family="serif" font-size="10.00">NLSolver.hpp</text>
</a>
</g>
</g>
<!-- Node2 -->
<g id="node2" class="node">
<title>Node2</title>
<g id="a_node2"><a xlink:href="OperatorBase_8hpp.html" target="_top" xlink:title="Base class for building Steady and TimeDependent PhaseFieldOperators.">
<polygon fill="none" stroke="black" points="88,-168.5 88,-187.5 198,-187.5 198,-168.5 88,-168.5"/>
<text text-anchor="middle" x="143" y="-175.5" font-family="serif" font-size="10.00">OperatorBase.hpp</text>
</a>
</g>
</g>
<!-- Node1&#45;&gt;Node2 -->
<g id="edge1" class="edge">
<title>Node1&#45;&gt;Node2</title>
<path fill="none" stroke="midnightblue" d="M143,-213.8C143,-204.91 143,-194.78 143,-187.75"/>
<polygon fill="midnightblue" stroke="midnightblue" points="139.5,-214.08 143,-224.08 146.5,-214.08 139.5,-214.08"/>
</g>
<!-- Node3 -->
<g id="node3" class="node">
<title>Node3</title>
<g id="a_node3"><a xlink:href="SteadyOperator_8hpp.html" target="_top" xlink:title="Steady Operator.">
<polygon fill="none" stroke="black" points="0,-112.5 0,-131.5 120,-131.5 120,-112.5 0,-112.5"/>
<text text-anchor="middle" x="60" y="-119.5" font-family="serif" font-size="10.00">SteadyOperator.hpp</text>
</a>
</g>
</g>
<!-- Node1&#45;&gt;Node3 -->
<g id="edge7" class="edge">
<title>Node1&#45;&gt;Node3</title>
<path fill="none" stroke="midnightblue" d="M115.74,-219.44C102.92,-211.81 88.41,-201.15 79,-188 66.55,-170.6 62.2,-145.09 60.72,-131.79"/>
<polygon fill="midnightblue" stroke="midnightblue" points="114.25,-222.62 124.69,-224.46 117.68,-216.51 114.25,-222.62"/>
</g>
<!-- Node7 -->
<g id="node7" class="node">
<title>Node7</title>
<g id="a_node7"><a xlink:href="NLSolver_8cpp.html" target="_top" xlink:title="Class used to manage a NonLinear Solver( Newton type)">
<polygon fill="none" stroke="black" points="216,-168.5 216,-187.5 302,-187.5 302,-168.5 216,-168.5"/>
<text text-anchor="middle" x="259" y="-175.5" font-family="serif" font-size="10.00">NLSolver.cpp</text>
</a>
</g>
</g>
<!-- Node1&#45;&gt;Node7 -->
<g id="edge8" class="edge">
<title>Node1&#45;&gt;Node7</title>
<path fill="none" stroke="midnightblue" d="M170.72,-220.1C192.39,-210.01 221.9,-196.27 240.71,-187.52"/>
<polygon fill="midnightblue" stroke="midnightblue" points="168.97,-217.05 161.38,-224.44 171.92,-223.4 168.97,-217.05"/>
</g>
<!-- Node2&#45;&gt;Node3 -->
<g id="edge2" class="edge">
<title>Node2&#45;&gt;Node3</title>
<path fill="none" stroke="midnightblue" d="M120.9,-162.62C105.74,-152.76 86.12,-139.99 73.3,-131.65"/>
<polygon fill="midnightblue" stroke="midnightblue" points="119.37,-165.8 129.66,-168.32 123.19,-159.94 119.37,-165.8"/>
</g>
<!-- Node6 -->
<g id="node6" class="node">
<title>Node6</title>
<g id="a_node6"><a xlink:href="TransientOperator_8hpp.html" target="_top" xlink:title="Transient Operator.">
<polygon fill="none" stroke="black" points="138,-112.5 138,-131.5 272,-131.5 272,-112.5 138,-112.5"/>
<text text-anchor="middle" x="205" y="-119.5" font-family="serif" font-size="10.00">TransientOperator.hpp</text>
</a>
</g>
</g>
<!-- Node2&#45;&gt;Node6 -->
<g id="edge5" class="edge">
<title>Node2&#45;&gt;Node6</title>
<path fill="none" stroke="midnightblue" d="M160.75,-161.54C171.81,-151.91 185.63,-139.87 194.86,-131.83"/>
<polygon fill="midnightblue" stroke="midnightblue" points="158.2,-159.12 152.96,-168.32 162.8,-164.4 158.2,-159.12"/>
</g>
<!-- Node4 -->
<g id="node4" class="node">
<title>Node4</title>
<g id="a_node4"><a xlink:href="ListOperators_8hpp.html" target="_top" xlink:title=" ">
<polygon fill="none" stroke="black" points="77,-56.5 77,-75.5 187,-75.5 187,-56.5 77,-56.5"/>
<text text-anchor="middle" x="132" y="-63.5" font-family="serif" font-size="10.00">ListOperators.hpp</text>
</a>
</g>
</g>
<!-- Node3&#45;&gt;Node4 -->
<g id="edge3" class="edge">
<title>Node3&#45;&gt;Node4</title>
<path fill="none" stroke="midnightblue" d="M79.87,-106.1C92.82,-96.38 109.3,-84.03 120.22,-75.83"/>
<polygon fill="midnightblue" stroke="midnightblue" points="77.47,-103.52 71.57,-112.32 81.67,-109.12 77.47,-103.52"/>
</g>
<!-- Node5 -->
<g id="node5" class="node">
<title>Node5</title>
<g id="a_node5"><a xlink:href="sloth_8hpp.html" target="_top" xlink:title="List of SLOTH header files.">
<polygon fill="none" stroke="black" points="99.5,-0.5 99.5,-19.5 164.5,-19.5 164.5,-0.5 99.5,-0.5"/>
<text text-anchor="middle" x="132" y="-7.5" font-family="serif" font-size="10.00">sloth.hpp</text>
</a>
</g>
</g>
<!-- Node4&#45;&gt;Node5 -->
<g id="edge4" class="edge">
<title>Node4&#45;&gt;Node5</title>
<path fill="none" stroke="midnightblue" d="M132,-45.8C132,-36.91 132,-26.78 132,-19.75"/>
<polygon fill="midnightblue" stroke="midnightblue" points="128.5,-46.08 132,-56.08 135.5,-46.08 128.5,-46.08"/>
</g>
<!-- Node6&#45;&gt;Node4 -->
<g id="edge6" class="edge">
<title>Node6&#45;&gt;Node4</title>
<path fill="none" stroke="midnightblue" d="M184.86,-106.1C171.72,-96.38 155.02,-84.03 143.94,-75.83"/>
<polygon fill="midnightblue" stroke="midnightblue" points="183.15,-109.19 193.27,-112.32 187.31,-103.56 183.15,-109.19"/>
</g>
</g>
</svg>
