<?xml version="1.0" encoding="UTF-8" standalone="no"?>
<!DOCTYPE svg PUBLIC "-//W3C//DTD SVG 1.1//EN"
 "http://www.w3.org/Graphics/SVG/1.1/DTD/svg11.dtd">
<!-- Generated by graphviz version 2.43.0 (0)
 -->
<!-- Title: NLSolverBase.hpp Pages: 1 -->
<svg width="396pt" height="308pt"
 viewBox="0.00 0.00 395.50 308.00" xmlns="http://www.w3.org/2000/svg" xmlns:xlink="http://www.w3.org/1999/xlink">
<g id="graph0" class="graph" transform="scale(1 1) rotate(0) translate(4 304)">
<title>NLSolverBase.hpp</title>
<!-- Node1 -->
<g id="node1" class="node">
<title>Node1</title>
<g id="a_node1"><a xlink:title="ase class for non linear solvers">
<polygon fill="#bfbfbf" stroke="black" points="191.5,-280.5 191.5,-299.5 304.5,-299.5 304.5,-280.5 191.5,-280.5"/>
<text text-anchor="middle" x="248" y="-287.5" font-family="serif" font-size="10.00">NLSolverBase.hpp</text>
</a>
</g>
</g>
<!-- Node2 -->
<g id="node2" class="node">
<title>Node2</title>
<g id="a_node2"><a xlink:href="NLSolver_8hpp.html" target="_top" xlink:title="Class used to manage a NonLinear Solver( Newton type)">
<polygon fill="none" stroke="black" points="121.5,-224.5 121.5,-243.5 208.5,-243.5 208.5,-224.5 121.5,-224.5"/>
<text text-anchor="middle" x="165" y="-231.5" font-family="serif" font-size="10.00">NLSolver.hpp</text>
</a>
</g>
</g>
<!-- Node1&#45;&gt;Node2 -->
<g id="edge1" class="edge">
<title>Node1&#45;&gt;Node2</title>
<path fill="none" stroke="midnightblue" d="M225.9,-274.62C210.74,-264.76 191.12,-251.99 178.3,-243.65"/>
<polygon fill="midnightblue" stroke="midnightblue" points="224.37,-277.8 234.66,-280.32 228.19,-271.94 224.37,-277.8"/>
</g>
<!-- Node8 -->
<g id="node8" class="node">
<title>Node8</title>
<g id="a_node8"><a xlink:href="NLSolver_8cpp.html" target="_top" xlink:title="Class used to manage a NonLinear Solver( Newton type)">
<polygon fill="none" stroke="black" points="216,-168.5 216,-187.5 302,-187.5 302,-168.5 216,-168.5"/>
<text text-anchor="middle" x="259" y="-175.5" font-family="serif" font-size="10.00">NLSolver.cpp</text>
</a>
</g>
</g>
<!-- Node1&#45;&gt;Node8 -->
<g id="edge10" class="edge">
<title>Node1&#45;&gt;Node8</title>
<path fill="none" stroke="midnightblue" d="M249.87,-270.35C252.27,-246.25 256.37,-205.31 258.14,-187.59"/>
<polygon fill="midnightblue" stroke="midnightblue" points="246.38,-270.07 248.86,-280.37 253.34,-270.77 246.38,-270.07"/>
</g>
<!-- Node9 -->
<g id="node9" class="node">
<title>Node9</title>
<g id="a_node9"><a xlink:href="NLSolverBase_8cpp.html" target="_top" xlink:title="ase class for non linear solvers">
<polygon fill="none" stroke="black" points="276.5,-224.5 276.5,-243.5 387.5,-243.5 387.5,-224.5 276.5,-224.5"/>
<text text-anchor="middle" x="332" y="-231.5" font-family="serif" font-size="10.00">NLSolverBase.cpp</text>
</a>
</g>
</g>
<!-- Node1&#45;&gt;Node9 -->
<g id="edge11" class="edge">
<title>Node1&#45;&gt;Node9</title>
<path fill="none" stroke="midnightblue" d="M269.93,-274.9C285.34,-265 305.45,-252.07 318.54,-243.65"/>
<polygon fill="midnightblue" stroke="midnightblue" points="268.02,-271.97 261.5,-280.32 271.8,-277.86 268.02,-271.97"/>
</g>
<!-- Node3 -->
<g id="node3" class="node">
<title>Node3</title>
<g id="a_node3"><a xlink:href="OperatorBase_8hpp.html" target="_top" xlink:title="Base class for building Steady and TimeDependent PhaseFieldOperators.">
<polygon fill="none" stroke="black" points="88,-168.5 88,-187.5 198,-187.5 198,-168.5 88,-168.5"/>
<text text-anchor="middle" x="143" y="-175.5" font-family="serif" font-size="10.00">OperatorBase.hpp</text>
</a>
</g>
</g>
<!-- Node2&#45;&gt;Node3 -->
<g id="edge2" class="edge">
<title>Node2&#45;&gt;Node3</title>
<path fill="none" stroke="midnightblue" d="M157.54,-214.69C153.83,-205.59 149.52,-195.01 146.57,-187.75"/>
<polygon fill="midnightblue" stroke="midnightblue" points="154.35,-216.14 161.37,-224.08 160.84,-213.5 154.35,-216.14"/>
</g>
<!-- Node4 -->
<g id="node4" class="node">
<title>Node4</title>
<g id="a_node4"><a xlink:href="SteadyOperator_8hpp.html" target="_top" xlink:title="Steady Operator.">
<polygon fill="none" stroke="black" points="0,-112.5 0,-131.5 120,-131.5 120,-112.5 0,-112.5"/>
<text text-anchor="middle" x="60" y="-119.5" font-family="serif" font-size="10.00">SteadyOperator.hpp</text>
</a>
</g>
</g>
<!-- Node2&#45;&gt;Node4 -->
<g id="edge8" class="edge">
<title>Node2&#45;&gt;Node4</title>
<path fill="none" stroke="midnightblue" d="M126.44,-220.64C109.73,-213.5 91.23,-202.93 79,-188 65.29,-171.27 61.47,-145.01 60.41,-131.56"/>
<polygon fill="midnightblue" stroke="midnightblue" points="125.43,-224 136.01,-224.44 128.02,-217.49 125.43,-224"/>
</g>
<!-- Node2&#45;&gt;Node8 -->
<g id="edge9" class="edge">
<title>Node2&#45;&gt;Node8</title>
<path fill="none" stroke="midnightblue" d="M189.06,-219.18C206.36,-209.24 229.15,-196.15 243.93,-187.65"/>
<polygon fill="midnightblue" stroke="midnightblue" points="187.03,-216.31 180.1,-224.32 190.52,-222.38 187.03,-216.31"/>
</g>
<!-- Node3&#45;&gt;Node4 -->
<g id="edge3" class="edge">
<title>Node3&#45;&gt;Node4</title>
<path fill="none" stroke="midnightblue" d="M120.9,-162.62C105.74,-152.76 86.12,-139.99 73.3,-131.65"/>
<polygon fill="midnightblue" stroke="midnightblue" points="119.37,-165.8 129.66,-168.32 123.19,-159.94 119.37,-165.8"/>
</g>
<!-- Node7 -->
<g id="node7" class="node">
<title>Node7</title>
<g id="a_node7"><a xlink:href="TransientOperator_8hpp.html" target="_top" xlink:title="Transient Operator.">
<polygon fill="none" stroke="black" points="138,-112.5 138,-131.5 272,-131.5 272,-112.5 138,-112.5"/>
<text text-anchor="middle" x="205" y="-119.5" font-family="serif" font-size="10.00">TransientOperator.hpp</text>
</a>
</g>
</g>
<!-- Node3&#45;&gt;Node7 -->
<g id="edge6" class="edge">
<title>Node3&#45;&gt;Node7</title>
<path fill="none" stroke="midnightblue" d="M160.75,-161.54C171.81,-151.91 185.63,-139.87 194.86,-131.83"/>
<polygon fill="midnightblue" stroke="midnightblue" points="158.2,-159.12 152.96,-168.32 162.8,-164.4 158.2,-159.12"/>
</g>
<!-- Node5 -->
<g id="node5" class="node">
<title>Node5</title>
<g id="a_node5"><a xlink:href="ListOperators_8hpp.html" target="_top" xlink:title=" ">
<polygon fill="none" stroke="black" points="77,-56.5 77,-75.5 187,-75.5 187,-56.5 77,-56.5"/>
<text text-anchor="middle" x="132" y="-63.5" font-family="serif" font-size="10.00">ListOperators.hpp</text>
</a>
</g>
</g>
<!-- Node4&#45;&gt;Node5 -->
<g id="edge4" class="edge">
<title>Node4&#45;&gt;Node5</title>
<path fill="none" stroke="midnightblue" d="M79.87,-106.1C92.82,-96.38 109.3,-84.03 120.22,-75.83"/>
<polygon fill="midnightblue" stroke="midnightblue" points="77.47,-103.52 71.57,-112.32 81.67,-109.12 77.47,-103.52"/>
</g>
<!-- Node6 -->
<g id="node6" class="node">
<title>Node6</title>
<g id="a_node6"><a xlink:href="sloth_8hpp.html" target="_top" xlink:title="List of SLOTH header files.">
<polygon fill="none" stroke="black" points="99.5,-0.5 99.5,-19.5 164.5,-19.5 164.5,-0.5 99.5,-0.5"/>
<text text-anchor="middle" x="132" y="-7.5" font-family="serif" font-size="10.00">sloth.hpp</text>
</a>
</g>
</g>
<!-- Node5&#45;&gt;Node6 -->
<g id="edge5" class="edge">
<title>Node5&#45;&gt;Node6</title>
<path fill="none" stroke="midnightblue" d="M132,-45.8C132,-36.91 132,-26.78 132,-19.75"/>
<polygon fill="midnightblue" stroke="midnightblue" points="128.5,-46.08 132,-56.08 135.5,-46.08 128.5,-46.08"/>
</g>
<!-- Node7&#45;&gt;Node5 -->
<g id="edge7" class="edge">
<title>Node7&#45;&gt;Node5</title>
<path fill="none" stroke="midnightblue" d="M184.86,-106.1C171.72,-96.38 155.02,-84.03 143.94,-75.83"/>
<polygon fill="midnightblue" stroke="midnightblue" points="183.15,-109.19 193.27,-112.32 187.31,-103.56 183.15,-109.19"/>
</g>
</g>
</svg>
