<?xml version="1.0" encoding="UTF-8" standalone="no"?>
<!DOCTYPE svg PUBLIC "-//W3C//DTD SVG 1.1//EN"
 "http://www.w3.org/Graphics/SVG/1.1/DTD/svg11.dtd">
<!-- Generated by graphviz version 2.43.0 (0)
 -->
<!-- Title: NLSolverBase.hpp Pages: 1 -->
<svg width="477pt" height="364pt"
 viewBox="0.00 0.00 477.00 364.00" xmlns="http://www.w3.org/2000/svg" xmlns:xlink="http://www.w3.org/1999/xlink">
<g id="graph0" class="graph" transform="scale(1 1) rotate(0) translate(4 360)">
<title>NLSolverBase.hpp</title>
<!-- Node1 -->
<g id="node1" class="node">
<title>Node1</title>
<g id="a_node1"><a xlink:title="ase class for non linear solvers">
<polygon fill="#bfbfbf" stroke="black" points="156.5,-336.5 156.5,-355.5 269.5,-355.5 269.5,-336.5 156.5,-336.5"/>
<text text-anchor="middle" x="213" y="-343.5" font-family="serif" font-size="10.00">NLSolverBase.hpp</text>
</a>
</g>
</g>
<!-- Node2 -->
<g id="node2" class="node">
<title>Node2</title>
<g id="a_node2"><a xlink:href="NLSolver_8hpp.html" target="_top" xlink:title="Class used to manage a NonLinear Solver( Newton type)">
<polygon fill="none" stroke="black" points="131.5,-224.5 131.5,-243.5 218.5,-243.5 218.5,-224.5 131.5,-224.5"/>
<text text-anchor="middle" x="175" y="-231.5" font-family="serif" font-size="10.00">NLSolver.hpp</text>
</a>
</g>
</g>
<!-- Node1&#45;&gt;Node2 -->
<g id="edge1" class="edge">
<title>Node1&#45;&gt;Node2</title>
<path fill="none" stroke="midnightblue" d="M204.93,-327.21C201.36,-319.01 197.24,-309.1 194,-300 186.9,-280.06 180.39,-256.03 177.15,-243.51"/>
<polygon fill="midnightblue" stroke="midnightblue" points="201.8,-328.78 209.06,-336.49 208.19,-325.93 201.8,-328.78"/>
</g>
<!-- Node8 -->
<g id="node8" class="node">
<title>Node8</title>
<g id="a_node8"><a xlink:href="NLSolver_8cpp.html" target="_top" xlink:title="Class used to manage a NonLinear Solver( Newton type)">
<polygon fill="none" stroke="black" points="0,-168.5 0,-187.5 86,-187.5 86,-168.5 0,-168.5"/>
<text text-anchor="middle" x="43" y="-175.5" font-family="serif" font-size="10.00">NLSolver.cpp</text>
</a>
</g>
</g>
<!-- Node1&#45;&gt;Node8 -->
<g id="edge20" class="edge">
<title>Node1&#45;&gt;Node8</title>
<path fill="none" stroke="midnightblue" d="M192.6,-330.53C167.28,-312.04 123.46,-278.31 91,-244 73.45,-225.45 56.6,-200.42 48.32,-187.5"/>
<polygon fill="midnightblue" stroke="midnightblue" points="190.58,-333.39 200.74,-336.41 194.68,-327.72 190.58,-333.39"/>
</g>
<!-- Node9 -->
<g id="node9" class="node">
<title>Node9</title>
<g id="a_node9"><a xlink:href="SlothSolver_8hpp.html" target="_top" xlink:title="Class to define a SlothSolver objet.">
<polygon fill="none" stroke="black" points="203,-280.5 203,-299.5 301,-299.5 301,-280.5 203,-280.5"/>
<text text-anchor="middle" x="252" y="-287.5" font-family="serif" font-size="10.00">SlothSolver.hpp</text>
</a>
</g>
</g>
<!-- Node1&#45;&gt;Node9 -->
<g id="edge10" class="edge">
<title>Node1&#45;&gt;Node9</title>
<path fill="none" stroke="midnightblue" d="M225.38,-327.86C232.14,-318.5 240.21,-307.33 245.68,-299.75"/>
<polygon fill="midnightblue" stroke="midnightblue" points="222.46,-325.93 219.44,-336.08 228.13,-330.03 222.46,-325.93"/>
</g>
<!-- Node13 -->
<g id="node13" class="node">
<title>Node13</title>
<g id="a_node13"><a xlink:href="NLSolverBase_8cpp.html" target="_top" xlink:title="ase class for non linear solvers">
<polygon fill="none" stroke="black" points="319.5,-280.5 319.5,-299.5 430.5,-299.5 430.5,-280.5 319.5,-280.5"/>
<text text-anchor="middle" x="375" y="-287.5" font-family="serif" font-size="10.00">NLSolverBase.cpp</text>
</a>
</g>
</g>
<!-- Node1&#45;&gt;Node13 -->
<g id="edge21" class="edge">
<title>Node1&#45;&gt;Node13</title>
<path fill="none" stroke="midnightblue" d="M248.48,-333.17C278.99,-323 322.24,-308.59 349.45,-299.52"/>
<polygon fill="midnightblue" stroke="midnightblue" points="247.05,-329.96 238.67,-336.44 249.26,-336.6 247.05,-329.96"/>
</g>
<!-- Node3 -->
<g id="node3" class="node">
<title>Node3</title>
<g id="a_node3"><a xlink:href="OperatorBase_8hpp.html" target="_top" xlink:title="Base class for building Steady and TimeDependent PhaseFieldOperators.">
<polygon fill="none" stroke="black" points="142,-168.5 142,-187.5 252,-187.5 252,-168.5 142,-168.5"/>
<text text-anchor="middle" x="197" y="-175.5" font-family="serif" font-size="10.00">OperatorBase.hpp</text>
</a>
</g>
</g>
<!-- Node2&#45;&gt;Node3 -->
<g id="edge2" class="edge">
<title>Node2&#45;&gt;Node3</title>
<path fill="none" stroke="midnightblue" d="M182.46,-214.69C186.17,-205.59 190.48,-195.01 193.43,-187.75"/>
<polygon fill="midnightblue" stroke="midnightblue" points="179.16,-213.5 178.63,-224.08 185.65,-216.14 179.16,-213.5"/>
</g>
<!-- Node4 -->
<g id="node4" class="node">
<title>Node4</title>
<g id="a_node4"><a xlink:href="SteadyOperator_8hpp.html" target="_top" xlink:title="Steady Operator.">
<polygon fill="none" stroke="black" points="113,-112.5 113,-131.5 233,-131.5 233,-112.5 113,-112.5"/>
<text text-anchor="middle" x="173" y="-119.5" font-family="serif" font-size="10.00">SteadyOperator.hpp</text>
</a>
</g>
</g>
<!-- Node2&#45;&gt;Node4 -->
<g id="edge8" class="edge">
<title>Node2&#45;&gt;Node4</title>
<path fill="none" stroke="midnightblue" d="M154.95,-217.53C146.47,-209.71 137.51,-199.45 133,-188 124.45,-166.3 146.56,-143.72 161.22,-131.72"/>
<polygon fill="midnightblue" stroke="midnightblue" points="152.91,-220.39 162.79,-224.24 157.47,-215.07 152.91,-220.39"/>
</g>
<!-- Node2&#45;&gt;Node8 -->
<g id="edge9" class="edge">
<title>Node2&#45;&gt;Node8</title>
<path fill="none" stroke="midnightblue" d="M144.78,-220.64C120.01,-210.5 85.6,-196.43 63.82,-187.52"/>
<polygon fill="midnightblue" stroke="midnightblue" points="143.5,-223.9 154.08,-224.44 146.15,-217.42 143.5,-223.9"/>
</g>
<!-- Node3&#45;&gt;Node4 -->
<g id="edge3" class="edge">
<title>Node3&#45;&gt;Node4</title>
<path fill="none" stroke="midnightblue" d="M188.86,-158.69C184.82,-149.59 180.12,-139.01 176.89,-131.75"/>
<polygon fill="midnightblue" stroke="midnightblue" points="185.78,-160.37 193.04,-168.08 192.17,-157.52 185.78,-160.37"/>
</g>
<!-- Node7 -->
<g id="node7" class="node">
<title>Node7</title>
<g id="a_node7"><a xlink:href="TransientOperator_8hpp.html" target="_top" xlink:title="Transient Operator.">
<polygon fill="none" stroke="black" points="251,-112.5 251,-131.5 385,-131.5 385,-112.5 251,-112.5"/>
<text text-anchor="middle" x="318" y="-119.5" font-family="serif" font-size="10.00">TransientOperator.hpp</text>
</a>
</g>
</g>
<!-- Node3&#45;&gt;Node7 -->
<g id="edge6" class="edge">
<title>Node3&#45;&gt;Node7</title>
<path fill="none" stroke="midnightblue" d="M225.31,-164.37C247.97,-154.26 279.13,-140.35 298.92,-131.52"/>
<polygon fill="midnightblue" stroke="midnightblue" points="223.88,-161.17 216.17,-168.44 226.73,-167.56 223.88,-161.17"/>
</g>
<!-- Node5 -->
<g id="node5" class="node">
<title>Node5</title>
<g id="a_node5"><a xlink:href="ListOperators_8hpp.html" target="_top" xlink:title=" ">
<polygon fill="none" stroke="black" points="190,-56.5 190,-75.5 300,-75.5 300,-56.5 190,-56.5"/>
<text text-anchor="middle" x="245" y="-63.5" font-family="serif" font-size="10.00">ListOperators.hpp</text>
</a>
</g>
</g>
<!-- Node4&#45;&gt;Node5 -->
<g id="edge4" class="edge">
<title>Node4&#45;&gt;Node5</title>
<path fill="none" stroke="midnightblue" d="M192.87,-106.1C205.82,-96.38 222.3,-84.03 233.22,-75.83"/>
<polygon fill="midnightblue" stroke="midnightblue" points="190.47,-103.52 184.57,-112.32 194.67,-109.12 190.47,-103.52"/>
</g>
<!-- Node6 -->
<g id="node6" class="node">
<title>Node6</title>
<g id="a_node6"><a xlink:href="sloth_8hpp.html" target="_top" xlink:title="List of SLOTH header files.">
<polygon fill="none" stroke="black" points="212.5,-0.5 212.5,-19.5 277.5,-19.5 277.5,-0.5 212.5,-0.5"/>
<text text-anchor="middle" x="245" y="-7.5" font-family="serif" font-size="10.00">sloth.hpp</text>
</a>
</g>
</g>
<!-- Node5&#45;&gt;Node6 -->
<g id="edge5" class="edge">
<title>Node5&#45;&gt;Node6</title>
<path fill="none" stroke="midnightblue" d="M245,-45.8C245,-36.91 245,-26.78 245,-19.75"/>
<polygon fill="midnightblue" stroke="midnightblue" points="241.5,-46.08 245,-56.08 248.5,-46.08 241.5,-46.08"/>
</g>
<!-- Node7&#45;&gt;Node5 -->
<g id="edge7" class="edge">
<title>Node7&#45;&gt;Node5</title>
<path fill="none" stroke="midnightblue" d="M297.86,-106.1C284.72,-96.38 268.02,-84.03 256.94,-75.83"/>
<polygon fill="midnightblue" stroke="midnightblue" points="296.15,-109.19 306.27,-112.32 300.31,-103.56 296.15,-109.19"/>
</g>
<!-- Node9&#45;&gt;Node2 -->
<g id="edge16" class="edge">
<title>Node9&#45;&gt;Node2</title>
<path fill="none" stroke="midnightblue" d="M231.1,-274.34C217.09,-264.52 199.12,-251.91 187.34,-243.65"/>
<polygon fill="midnightblue" stroke="midnightblue" points="229.43,-277.45 239.63,-280.32 233.45,-271.72 229.43,-277.45"/>
</g>
<!-- Node9&#45;&gt;Node8 -->
<g id="edge18" class="edge">
<title>Node9&#45;&gt;Node8</title>
<path fill="none" stroke="midnightblue" d="M207.65,-277.68C181.99,-270.12 149.61,-258.85 123,-244 94.25,-227.95 65.5,-201.4 51.6,-187.73"/>
<polygon fill="midnightblue" stroke="midnightblue" points="206.91,-281.1 217.49,-280.49 208.84,-274.37 206.91,-281.1"/>
</g>
<!-- Node10 -->
<g id="node10" class="node">
<title>Node10</title>
<g id="a_node10"><a xlink:href="LSolver_8hpp.html" target="_top" xlink:title="Class used to manage Linear Solver objet.">
<polygon fill="none" stroke="black" points="239,-224.5 239,-243.5 317,-243.5 317,-224.5 239,-224.5"/>
<text text-anchor="middle" x="278" y="-231.5" font-family="serif" font-size="10.00">LSolver.hpp</text>
</a>
</g>
</g>
<!-- Node9&#45;&gt;Node10 -->
<g id="edge11" class="edge">
<title>Node9&#45;&gt;Node10</title>
<path fill="none" stroke="midnightblue" d="M260.67,-270.98C265.09,-261.82 270.25,-251.09 273.79,-243.75"/>
<polygon fill="midnightblue" stroke="midnightblue" points="257.48,-269.55 256.29,-280.08 263.79,-272.59 257.48,-269.55"/>
</g>
<!-- Node11 -->
<g id="node11" class="node">
<title>Node11</title>
<g id="a_node11"><a xlink:href="LSolver_8cpp.html" target="_top" xlink:title="Class used to manage Linear Solver objet.">
<polygon fill="none" stroke="black" points="346.5,-168.5 346.5,-187.5 423.5,-187.5 423.5,-168.5 346.5,-168.5"/>
<text text-anchor="middle" x="385" y="-175.5" font-family="serif" font-size="10.00">LSolver.cpp</text>
</a>
</g>
</g>
<!-- Node9&#45;&gt;Node11 -->
<g id="edge17" class="edge">
<title>Node9&#45;&gt;Node11</title>
<path fill="none" stroke="midnightblue" d="M278.16,-275.53C292.9,-267.35 311.26,-256.17 326,-244 347.39,-226.34 368.19,-200.94 378.42,-187.73"/>
<polygon fill="midnightblue" stroke="midnightblue" points="276.2,-272.61 269.07,-280.44 279.53,-278.76 276.2,-272.61"/>
</g>
<!-- Node12 -->
<g id="node12" class="node">
<title>Node12</title>
<g id="a_node12"><a xlink:href="SlothSolver_8cpp.html" target="_top" xlink:title="Class to define a SlothSolver objet.">
<polygon fill="none" stroke="black" points="373,-224.5 373,-243.5 469,-243.5 469,-224.5 373,-224.5"/>
<text text-anchor="middle" x="421" y="-231.5" font-family="serif" font-size="10.00">SlothSolver.cpp</text>
</a>
</g>
</g>
<!-- Node9&#45;&gt;Node12 -->
<g id="edge19" class="edge">
<title>Node9&#45;&gt;Node12</title>
<path fill="none" stroke="midnightblue" d="M288.6,-277.3C320.45,-267.13 365.84,-252.62 394.35,-243.52"/>
<polygon fill="midnightblue" stroke="midnightblue" points="287.24,-274.07 278.78,-280.44 289.37,-280.73 287.24,-274.07"/>
</g>
<!-- Node10&#45;&gt;Node3 -->
<g id="edge12" class="edge">
<title>Node10&#45;&gt;Node3</title>
<path fill="none" stroke="midnightblue" d="M256.43,-218.62C241.64,-208.76 222.49,-195.99 209.98,-187.65"/>
<polygon fill="midnightblue" stroke="midnightblue" points="254.72,-221.69 264.99,-224.32 258.61,-215.86 254.72,-221.69"/>
</g>
<!-- Node10&#45;&gt;Node4 -->
<g id="edge13" class="edge">
<title>Node10&#45;&gt;Node4</title>
<path fill="none" stroke="midnightblue" d="M277.16,-214.43C275.65,-200.34 271.61,-181.2 261,-168 246.49,-149.94 222.81,-138.42 203.67,-131.55"/>
<polygon fill="midnightblue" stroke="midnightblue" points="273.68,-214.73 277.91,-224.44 280.66,-214.2 273.68,-214.73"/>
</g>
<!-- Node10&#45;&gt;Node7 -->
<g id="edge14" class="edge">
<title>Node10&#45;&gt;Node7</title>
<path fill="none" stroke="midnightblue" d="M284.66,-214.67C293.41,-190.62 308.4,-149.39 314.88,-131.59"/>
<polygon fill="midnightblue" stroke="midnightblue" points="281.27,-213.77 281.14,-224.37 287.85,-216.17 281.27,-213.77"/>
</g>
<!-- Node10&#45;&gt;Node11 -->
<g id="edge15" class="edge">
<title>Node10&#45;&gt;Node11</title>
<path fill="none" stroke="midnightblue" d="M304.3,-219.73C324.11,-209.73 350.71,-196.31 367.85,-187.65"/>
<polygon fill="midnightblue" stroke="midnightblue" points="302.54,-216.69 295.19,-224.32 305.7,-222.94 302.54,-216.69"/>
</g>
</g>
</svg>
