<?xml version="1.0" encoding="UTF-8" standalone="no"?>
<!DOCTYPE svg PUBLIC "-//W3C//DTD SVG 1.1//EN"
 "http://www.w3.org/Graphics/SVG/1.1/DTD/svg11.dtd">
<!-- Generated by graphviz version 2.43.0 (0)
 -->
<!-- Title: NLSolver.cpp Pages: 1 -->
<svg width="4004pt" height="711pt"
 viewBox="0.00 0.00 4004.06 711.00" xmlns="http://www.w3.org/2000/svg" xmlns:xlink="http://www.w3.org/1999/xlink">
<g id="graph0" class="graph" transform="scale(1 1) rotate(0) translate(4 707)">
<title>NLSolver.cpp</title>
<!-- Node1 -->
<g id="node1" class="node">
<title>Node1</title>
<g id="a_node1"><a xlink:title="Class used to manage a NonLinear Solver( Newton type)">
<polygon fill="#bfbfbf" stroke="black" points="2395.06,-683.5 2395.06,-702.5 2481.06,-702.5 2481.06,-683.5 2395.06,-683.5"/>
<text text-anchor="middle" x="2438.06" y="-690.5" font-family="serif" font-size="10.00">NLSolver.cpp</text>
</a>
</g>
</g>
<!-- Node2 -->
<g id="node2" class="node">
<title>Node2</title>
<g id="a_node2"><a xlink:href="NLSolver_8hpp.html" target="_top" xlink:title="Class used to manage a NonLinear Solver( Newton type)">
<polygon fill="none" stroke="black" points="2374.06,-627.5 2374.06,-646.5 2502.06,-646.5 2502.06,-627.5 2374.06,-627.5"/>
<text text-anchor="middle" x="2438.06" y="-634.5" font-family="serif" font-size="10.00">Solvers/NLSolver.hpp</text>
</a>
</g>
</g>
<!-- Node1&#45;&gt;Node2 -->
<g id="edge1" class="edge">
<title>Node1&#45;&gt;Node2</title>
<path fill="none" stroke="midnightblue" d="M2438.06,-683.08C2438.06,-676.01 2438.06,-665.86 2438.06,-656.99"/>
<polygon fill="midnightblue" stroke="midnightblue" points="2441.56,-656.75 2438.06,-646.75 2434.56,-656.75 2441.56,-656.75"/>
</g>
<!-- Node3 -->
<g id="node3" class="node">
<title>Node3</title>
<g id="a_node3"><a xlink:title=" ">
<polygon fill="none" stroke="#bfbfbf" points="312.56,-56.5 312.56,-75.5 371.56,-75.5 371.56,-56.5 312.56,-56.5"/>
<text text-anchor="middle" x="342.06" y="-63.5" font-family="serif" font-size="10.00">memory</text>
</a>
</g>
</g>
<!-- Node1&#45;&gt;Node3 -->
<g id="edge169" class="edge">
<title>Node1&#45;&gt;Node3</title>
<path fill="none" stroke="midnightblue" d="M2394.79,-692.06C2133.15,-692.24 759.79,-691.09 341.06,-647 187.62,-630.84 0.06,-736.28 0.06,-582 0.06,-582 0.06,-582 0.06,-524 0.06,-383.45 24.62,-342.58 100.06,-224 138.87,-162.99 156.56,-150.02 218.06,-112 244.37,-95.73 277.44,-84.1 302.8,-76.75"/>
<polygon fill="midnightblue" stroke="midnightblue" points="303.78,-80.11 312.47,-74.04 301.89,-73.37 303.78,-80.11"/>
</g>
<!-- Node4 -->
<g id="node4" class="node">
<title>Node4</title>
<g id="a_node4"><a xlink:title=" ">
<polygon fill="none" stroke="#bfbfbf" points="3402.56,-56.5 3402.56,-75.5 3473.56,-75.5 3473.56,-56.5 3402.56,-56.5"/>
<text text-anchor="middle" x="3438.06" y="-63.5" font-family="serif" font-size="10.00">type_traits</text>
</a>
</g>
</g>
<!-- Node1&#45;&gt;Node4 -->
<g id="edge170" class="edge">
<title>Node1&#45;&gt;Node4</title>
<path fill="none" stroke="midnightblue" d="M2481.29,-692.45C2619.86,-693.39 3065.23,-692.41 3430.06,-647 3565.44,-630.15 3730.06,-718.43 3730.06,-582 3730.06,-582 3730.06,-582 3730.06,-412 3730.06,-251.01 3658.27,-205.28 3527.06,-112 3508.84,-99.05 3486.37,-87.72 3468.56,-79.66"/>
<polygon fill="midnightblue" stroke="midnightblue" points="3469.76,-76.37 3459.2,-75.54 3466.94,-82.78 3469.76,-76.37"/>
</g>
<!-- Node5 -->
<g id="node5" class="node">
<title>Node5</title>
<g id="a_node5"><a xlink:title=" ">
<polygon fill="none" stroke="#bfbfbf" points="3855.56,-0.5 3855.56,-19.5 3908.56,-19.5 3908.56,-0.5 3855.56,-0.5"/>
<text text-anchor="middle" x="3882.06" y="-7.5" font-family="serif" font-size="10.00">variant</text>
</a>
</g>
</g>
<!-- Node1&#45;&gt;Node5 -->
<g id="edge171" class="edge">
<title>Node1&#45;&gt;Node5</title>
<path fill="none" stroke="midnightblue" d="M2481.37,-692.03C2682.18,-691.95 3523.75,-689.05 3783.06,-647 3880.76,-631.16 3996.06,-680.98 3996.06,-582 3996.06,-582 3996.06,-582 3996.06,-121 3996.06,-74.11 3945.51,-40.89 3911.73,-23.93"/>
<polygon fill="midnightblue" stroke="midnightblue" points="3913.23,-20.77 3902.7,-19.58 3910.19,-27.07 3913.23,-20.77"/>
</g>
<!-- Node6 -->
<g id="node6" class="node">
<title>Node6</title>
<g id="a_node6"><a xlink:href="Options_8hpp.html" target="_top" xlink:title="List of all Options files.">
<polygon fill="none" stroke="black" points="1599.06,-291.5 1599.06,-310.5 1721.06,-310.5 1721.06,-291.5 1599.06,-291.5"/>
<text text-anchor="middle" x="1660.06" y="-298.5" font-family="serif" font-size="10.00">Options/Options.hpp</text>
</a>
</g>
</g>
<!-- Node1&#45;&gt;Node6 -->
<g id="edge172" class="edge">
<title>Node1&#45;&gt;Node6</title>
<path fill="none" stroke="midnightblue" d="M2394.66,-692.22C2082.36,-693.53 190.06,-696.72 190.06,-582 190.06,-582 190.06,-582 190.06,-524 190.06,-393.31 332.81,-440.3 458.06,-403 612.83,-356.91 656.45,-363.77 817.06,-347 1101.94,-317.25 1443.16,-306.7 1588.67,-303.37"/>
<polygon fill="midnightblue" stroke="midnightblue" points="1588.89,-306.87 1598.8,-303.14 1588.73,-299.87 1588.89,-306.87"/>
</g>
<!-- Node9 -->
<g id="node9" class="node">
<title>Node9</title>
<g id="a_node9"><a xlink:href="Utils_8hpp.html" target="_top" xlink:title="List of all Utils files.">
<polygon fill="none" stroke="black" points="2447.56,-168.5 2447.56,-187.5 2536.56,-187.5 2536.56,-168.5 2447.56,-168.5"/>
<text text-anchor="middle" x="2492.06" y="-175.5" font-family="serif" font-size="10.00">Utils/Utils.hpp</text>
</a>
</g>
</g>
<!-- Node1&#45;&gt;Node9 -->
<g id="edge179" class="edge">
<title>Node1&#45;&gt;Node9</title>
<path fill="none" stroke="midnightblue" d="M2481.23,-690.52C2701.73,-682.71 3692.06,-644.15 3692.06,-582 3692.06,-582 3692.06,-582 3692.06,-468 3692.06,-376.11 3379.76,-391.03 3291.06,-367 3118.64,-320.29 3074.63,-311.18 2905.06,-255 2867.68,-242.62 2860.29,-233.45 2822.06,-224 2703.05,-194.57 2667.34,-206.69 2546.64,-188.81"/>
<polygon fill="midnightblue" stroke="midnightblue" points="2547.05,-185.34 2536.64,-187.29 2546,-192.26 2547.05,-185.34"/>
</g>
<!-- Node22 -->
<g id="node22" class="node">
<title>Node22</title>
<g id="a_node22"><a xlink:title=" ">
<polygon fill="none" stroke="#bfbfbf" points="3638.56,-0.5 3638.56,-19.5 3707.56,-19.5 3707.56,-0.5 3638.56,-0.5"/>
<text text-anchor="middle" x="3673.06" y="-7.5" font-family="serif" font-size="10.00">mfem.hpp</text>
</a>
</g>
</g>
<!-- Node1&#45;&gt;Node22 -->
<g id="edge180" class="edge">
<title>Node1&#45;&gt;Node22</title>
<path fill="none" stroke="midnightblue" d="M2481.06,-692.41C2633,-693.42 3158.57,-693.12 3589.06,-647 3754.64,-629.26 3958.06,-748.52 3958.06,-582 3958.06,-582 3958.06,-582 3958.06,-121 3958.06,-70.18 3798.34,-33.8 3718.04,-18.72"/>
<polygon fill="midnightblue" stroke="midnightblue" points="3718.19,-15.19 3707.72,-16.82 3716.92,-22.08 3718.19,-15.19"/>
</g>
<!-- Node40 -->
<g id="node40" class="node">
<title>Node40</title>
<g id="a_node40"><a xlink:href="Parameters_8hpp.html" target="_top" xlink:title="Parameter class used to build and manage calculation parameter.">
<polygon fill="none" stroke="black" points="2774.06,-403.5 2774.06,-422.5 2932.06,-422.5 2932.06,-403.5 2774.06,-403.5"/>
<text text-anchor="middle" x="2853.06" y="-410.5" font-family="serif" font-size="10.00">Parameters/Parameters.hpp</text>
</a>
</g>
</g>
<!-- Node1&#45;&gt;Node40 -->
<g id="edge173" class="edge">
<title>Node1&#45;&gt;Node40</title>
<path fill="none" stroke="midnightblue" d="M2481.38,-686.43C2575.61,-673.53 2795.24,-639.02 2851.06,-591 2896.32,-552.06 2890.04,-517.05 2876.06,-459 2873.75,-449.42 2869.04,-439.58 2864.48,-431.56"/>
<polygon fill="midnightblue" stroke="midnightblue" points="2867.35,-429.54 2859.16,-422.81 2861.37,-433.17 2867.35,-429.54"/>
</g>
<!-- Node48 -->
<g id="node48" class="node">
<title>Node48</title>
<g id="a_node48"><a xlink:href="DSolverBase_8hpp.html" target="_top" xlink:title="Direct solvers.">
<polygon fill="none" stroke="black" points="1535.06,-515.5 1535.06,-534.5 1681.06,-534.5 1681.06,-515.5 1535.06,-515.5"/>
<text text-anchor="middle" x="1608.06" y="-522.5" font-family="serif" font-size="10.00">Solvers/DSolverBase.hpp</text>
</a>
</g>
</g>
<!-- Node1&#45;&gt;Node48 -->
<g id="edge174" class="edge">
<title>Node1&#45;&gt;Node48</title>
<path fill="none" stroke="midnightblue" d="M2394.73,-684.67C2344.47,-676.06 2259.14,-661.17 2186.06,-647 1989.46,-608.88 1756.36,-558.48 1656.93,-536.74"/>
<polygon fill="midnightblue" stroke="midnightblue" points="1657.4,-533.26 1646.88,-534.54 1655.9,-540.1 1657.4,-533.26"/>
</g>
<!-- Node50 -->
<g id="node50" class="node">
<title>Node50</title>
<g id="a_node50"><a xlink:href="IPrecondBase_8hpp.html" target="_top" xlink:title="Base class for preconditionners used in linear system involved in non linear algorithm.">
<polygon fill="none" stroke="black" points="2449.56,-515.5 2449.56,-534.5 2600.56,-534.5 2600.56,-515.5 2449.56,-515.5"/>
<text text-anchor="middle" x="2525.06" y="-522.5" font-family="serif" font-size="10.00">Solvers/IPrecondBase.hpp</text>
</a>
</g>
</g>
<!-- Node1&#45;&gt;Node50 -->
<g id="edge175" class="edge">
<title>Node1&#45;&gt;Node50</title>
<path fill="none" stroke="midnightblue" d="M2462.55,-683.49C2479.09,-676.39 2499.87,-664.58 2511.06,-647 2531.05,-615.59 2530.17,-570.16 2527.67,-544.85"/>
<polygon fill="midnightblue" stroke="midnightblue" points="2531.12,-544.27 2526.47,-534.75 2524.17,-545.1 2531.12,-544.27"/>
</g>
<!-- Node51 -->
<g id="node51" class="node">
<title>Node51</title>
<g id="a_node51"><a xlink:href="ISolverBase_8hpp.html" target="_top" xlink:title="Base class for iterative solvers.">
<polygon fill="none" stroke="black" points="1699.56,-515.5 1699.56,-534.5 1840.56,-534.5 1840.56,-515.5 1699.56,-515.5"/>
<text text-anchor="middle" x="1770.06" y="-522.5" font-family="serif" font-size="10.00">Solvers/ISolverBase.hpp</text>
</a>
</g>
</g>
<!-- Node1&#45;&gt;Node51 -->
<g id="edge176" class="edge">
<title>Node1&#45;&gt;Node51</title>
<path fill="none" stroke="midnightblue" d="M2403.55,-683.42C2291.68,-655.62 1939.09,-568 1814.33,-537"/>
<polygon fill="midnightblue" stroke="midnightblue" points="1814.91,-533.54 1804.36,-534.52 1813.22,-540.33 1814.91,-533.54"/>
</g>
<!-- Node52 -->
<g id="node52" class="node">
<title>Node52</title>
<g id="a_node52"><a xlink:href="NLSolverBase_8hpp.html" target="_top" xlink:title="ase class for non linear solvers">
<polygon fill="none" stroke="black" points="2273.56,-515.5 2273.56,-534.5 2426.56,-534.5 2426.56,-515.5 2273.56,-515.5"/>
<text text-anchor="middle" x="2350.06" y="-522.5" font-family="serif" font-size="10.00">Solvers/NLSolverBase.hpp</text>
</a>
</g>
</g>
<!-- Node1&#45;&gt;Node52 -->
<g id="edge177" class="edge">
<title>Node1&#45;&gt;Node52</title>
<path fill="none" stroke="midnightblue" d="M2413.62,-683.46C2397.1,-676.35 2376.32,-664.54 2365.06,-647 2344.92,-615.65 2345.39,-570.2 2347.64,-544.86"/>
<polygon fill="midnightblue" stroke="midnightblue" points="2351.14,-545.08 2348.74,-534.76 2344.18,-544.33 2351.14,-545.08"/>
</g>
<!-- Node53 -->
<g id="node53" class="node">
<title>Node53</title>
<g id="a_node53"><a xlink:href="SlothSolver_8hpp.html" target="_top" xlink:title="Class to define a SlothSolver objet.">
<polygon fill="none" stroke="black" points="2176.06,-571.5 2176.06,-590.5 2314.06,-590.5 2314.06,-571.5 2176.06,-571.5"/>
<text text-anchor="middle" x="2245.06" y="-578.5" font-family="serif" font-size="10.00">Solvers/SlothSolver.hpp</text>
</a>
</g>
</g>
<!-- Node1&#45;&gt;Node53 -->
<g id="edge178" class="edge">
<title>Node1&#45;&gt;Node53</title>
<path fill="none" stroke="midnightblue" d="M2413.27,-683.41C2391.26,-675.34 2358.58,-662.24 2332.06,-647 2306.58,-632.36 2279.89,-611.46 2262.89,-597.34"/>
<polygon fill="midnightblue" stroke="midnightblue" points="2264.85,-594.42 2254.95,-590.65 2260.34,-599.77 2264.85,-594.42"/>
</g>
<!-- Node2&#45;&gt;Node3 -->
<g id="edge2" class="edge">
<title>Node2&#45;&gt;Node3</title>
<path fill="none" stroke="midnightblue" d="M2374.01,-636.25C2010.98,-637.22 228.06,-636.41 228.06,-526 228.06,-526 228.06,-526 228.06,-300 228.06,-210.36 296.98,-119.26 327.64,-83.16"/>
<polygon fill="midnightblue" stroke="midnightblue" points="330.32,-85.41 334.22,-75.56 325.03,-80.83 330.32,-85.41"/>
</g>
<!-- Node2&#45;&gt;Node4 -->
<g id="edge3" class="edge">
<title>Node2&#45;&gt;Node4</title>
<path fill="none" stroke="midnightblue" d="M2502.15,-631.17C2752.95,-611.42 3654.06,-532.23 3654.06,-414 3654.06,-414 3654.06,-414 3654.06,-356 3654.06,-227.24 3514.8,-118.93 3459.91,-81.24"/>
<polygon fill="midnightblue" stroke="midnightblue" points="3461.82,-78.31 3451.57,-75.61 3457.9,-84.11 3461.82,-78.31"/>
</g>
<!-- Node2&#45;&gt;Node5 -->
<g id="edge4" class="edge">
<title>Node2&#45;&gt;Node5</title>
<path fill="none" stroke="midnightblue" d="M2502.3,-634.52C2627.66,-631.06 2913.53,-620.38 3152.06,-591 3288.41,-574.2 3321.89,-564.55 3456.06,-535 3553.75,-513.48 3578.13,-507.36 3674.06,-479 3803.22,-440.81 3920.06,-436.69 3920.06,-302 3920.06,-302 3920.06,-302 3920.06,-121 3920.06,-86.81 3903.46,-49.76 3892.2,-28.57"/>
<polygon fill="midnightblue" stroke="midnightblue" points="3895.24,-26.83 3887.34,-19.77 3889.11,-30.22 3895.24,-26.83"/>
</g>
<!-- Node2&#45;&gt;Node6 -->
<g id="edge5" class="edge">
<title>Node2&#45;&gt;Node6</title>
<path fill="none" stroke="midnightblue" d="M2373.85,-633.83C2175.34,-626.46 1581.46,-599.17 1526.06,-535 1463.07,-462.05 1588.96,-355.14 1639.94,-316.56"/>
<polygon fill="midnightblue" stroke="midnightblue" points="1642.06,-319.35 1647.99,-310.57 1637.88,-313.73 1642.06,-319.35"/>
</g>
<!-- Node2&#45;&gt;Node9 -->
<g id="edge167" class="edge">
<title>Node2&#45;&gt;Node9</title>
<path fill="none" stroke="midnightblue" d="M2467.04,-627.49C2506.1,-614.4 2574.69,-585.43 2609.06,-535 2623.26,-514.17 2616.05,-504.13 2618.06,-479 2622.13,-428.06 2599.07,-417.62 2592.06,-367 2590.84,-358.2 2586.56,-353.98 2592.06,-347 2634.2,-293.47 2680.57,-342.34 2741.06,-311 2774.62,-293.62 2789.44,-289.42 2805.06,-255 2810.75,-242.45 2814.12,-234.38 2805.06,-224 2768.02,-181.57 2615.49,-195.75 2546.57,-188.56"/>
<polygon fill="midnightblue" stroke="midnightblue" points="2547.01,-185.09 2536.64,-187.28 2546.11,-192.03 2547.01,-185.09"/>
</g>
<!-- Node2&#45;&gt;Node22 -->
<g id="edge168" class="edge">
<title>Node2&#45;&gt;Node22</title>
<path fill="none" stroke="midnightblue" d="M2502.19,-634.68C2682.62,-629.43 3208.46,-603.73 3623.06,-479 3756.57,-438.83 3882.06,-441.42 3882.06,-302 3882.06,-302 3882.06,-302 3882.06,-177 3882.06,-110.24 3848.69,-92.91 3793.06,-56 3770.02,-40.71 3741.08,-29.67 3717.39,-22.34"/>
<polygon fill="midnightblue" stroke="midnightblue" points="3718.18,-18.92 3707.59,-19.43 3716.18,-25.63 3718.18,-18.92"/>
</g>
<!-- Node2&#45;&gt;Node40 -->
<g id="edge84" class="edge">
<title>Node2&#45;&gt;Node40</title>
<path fill="none" stroke="midnightblue" d="M2502.15,-632.87C2607.07,-627.14 2806.18,-613.42 2829.06,-591 2872.03,-548.89 2863.65,-468.95 2857.08,-432.71"/>
<polygon fill="midnightblue" stroke="midnightblue" points="2860.45,-431.71 2855.07,-422.57 2853.58,-433.06 2860.45,-431.71"/>
</g>
<!-- Node2&#45;&gt;Node48 -->
<g id="edge103" class="edge">
<title>Node2&#45;&gt;Node48</title>
<path fill="none" stroke="midnightblue" d="M2374.03,-629.46C2295.48,-621.28 2158.31,-606.44 2041.06,-591 1908.89,-573.59 1754.6,-549.53 1670.53,-536.1"/>
<polygon fill="midnightblue" stroke="midnightblue" points="1671.06,-532.64 1660.63,-534.52 1669.95,-539.55 1671.06,-532.64"/>
</g>
<!-- Node2&#45;&gt;Node50 -->
<g id="edge117" class="edge">
<title>Node2&#45;&gt;Node50</title>
<path fill="none" stroke="midnightblue" d="M2444.89,-627.37C2459.31,-609.14 2493.09,-566.43 2511.87,-542.68"/>
<polygon fill="midnightblue" stroke="midnightblue" points="2514.81,-544.61 2518.26,-534.59 2509.32,-540.26 2514.81,-544.61"/>
</g>
<!-- Node2&#45;&gt;Node51 -->
<g id="edge125" class="edge">
<title>Node2&#45;&gt;Node51</title>
<path fill="none" stroke="midnightblue" d="M2386.2,-627.46C2264.88,-607.48 1962.95,-557.76 1832.13,-536.22"/>
<polygon fill="midnightblue" stroke="midnightblue" points="1832.32,-532.71 1821.89,-534.53 1831.19,-539.61 1832.32,-532.71"/>
</g>
<!-- Node2&#45;&gt;Node52 -->
<g id="edge133" class="edge">
<title>Node2&#45;&gt;Node52</title>
<path fill="none" stroke="midnightblue" d="M2431.15,-627.37C2416.57,-609.14 2382.4,-566.43 2363.4,-542.68"/>
<polygon fill="midnightblue" stroke="midnightblue" points="2365.91,-540.21 2356.93,-534.59 2360.45,-544.59 2365.91,-540.21"/>
</g>
<!-- Node2&#45;&gt;Node53 -->
<g id="edge141" class="edge">
<title>Node2&#45;&gt;Node53</title>
<path fill="none" stroke="midnightblue" d="M2407.48,-627.44C2374.45,-618.2 2321.67,-603.44 2285.29,-593.26"/>
<polygon fill="midnightblue" stroke="midnightblue" points="2286.07,-589.84 2275.5,-590.52 2284.19,-596.58 2286.07,-589.84"/>
</g>
<!-- Node7 -->
<g id="node7" class="node">
<title>Node7</title>
<g id="a_node7"><a xlink:href="AnalyticalFunctionOptions_8hpp.html" target="_top" xlink:title="Options for Analytical functions.">
<polygon fill="none" stroke="black" points="774.56,-224.5 774.56,-254.5 929.56,-254.5 929.56,-224.5 774.56,-224.5"/>
<text text-anchor="start" x="782.56" y="-242.5" font-family="serif" font-size="10.00">Options/AnalyticalFunction</text>
<text text-anchor="middle" x="852.06" y="-231.5" font-family="serif" font-size="10.00">Options.hpp</text>
</a>
</g>
</g>
<!-- Node6&#45;&gt;Node7 -->
<g id="edge6" class="edge">
<title>Node6&#45;&gt;Node7</title>
<path fill="none" stroke="midnightblue" d="M1599.03,-294.01C1587.11,-292.93 1574.7,-291.87 1563.06,-291 1288.99,-270.4 1216.31,-285.79 940.15,-255.16"/>
<polygon fill="midnightblue" stroke="midnightblue" points="940.15,-251.64 929.82,-254 939.37,-258.59 940.15,-251.64"/>
</g>
<!-- Node6&#45;&gt;Node9 -->
<g id="edge83" class="edge">
<title>Node6&#45;&gt;Node9</title>
<path fill="none" stroke="midnightblue" d="M1670.8,-291.39C1692.19,-274.83 1742.25,-238.83 1791.06,-224 1911.59,-187.39 2294.07,-180.56 2437.25,-179.29"/>
<polygon fill="midnightblue" stroke="midnightblue" points="2437.57,-182.79 2447.54,-179.21 2437.51,-175.79 2437.57,-182.79"/>
</g>
<!-- Node30 -->
<g id="node30" class="node">
<title>Node30</title>
<g id="a_node30"><a xlink:href="CalphadOptions_8hpp.html" target="_top" xlink:title="Options for Calphad problems.">
<polygon fill="none" stroke="black" points="2914.56,-230 2914.56,-249 3079.56,-249 3079.56,-230 2914.56,-230"/>
<text text-anchor="middle" x="2997.06" y="-237" font-family="serif" font-size="10.00">Options/CalphadOptions.hpp</text>
</a>
</g>
</g>
<!-- Node6&#45;&gt;Node30 -->
<g id="edge55" class="edge">
<title>Node6&#45;&gt;Node30</title>
<path fill="none" stroke="midnightblue" d="M1721.42,-297.27C1935.23,-287.75 2648.3,-256.02 2904.45,-244.62"/>
<polygon fill="midnightblue" stroke="midnightblue" points="2904.63,-248.12 2914.47,-244.18 2904.32,-241.12 2904.63,-248.12"/>
</g>
<!-- Node31 -->
<g id="node31" class="node">
<title>Node31</title>
<g id="a_node31"><a xlink:href="DiffusionOptions_8hpp.html" target="_top" xlink:title="Option for Mass Diffusion problems.">
<polygon fill="none" stroke="black" points="1800.06,-230 1800.06,-249 1968.06,-249 1968.06,-230 1800.06,-230"/>
<text text-anchor="middle" x="1884.06" y="-237" font-family="serif" font-size="10.00">Options/DiffusionOptions.hpp</text>
</a>
</g>
</g>
<!-- Node6&#45;&gt;Node31 -->
<g id="edge60" class="edge">
<title>Node6&#45;&gt;Node31</title>
<path fill="none" stroke="midnightblue" d="M1692.15,-291.48C1731.66,-280.98 1798.84,-263.14 1842.32,-251.59"/>
<polygon fill="midnightblue" stroke="midnightblue" points="1843.26,-254.96 1852.03,-249.01 1841.46,-248.19 1843.26,-254.96"/>
</g>
<!-- Node32 -->
<g id="node32" class="node">
<title>Node32</title>
<g id="a_node32"><a xlink:href="IntegratorsOptions_8hpp.html" target="_top" xlink:title="Options for Integrators.">
<polygon fill="none" stroke="black" points="947.56,-230 947.56,-249 1126.56,-249 1126.56,-230 947.56,-230"/>
<text text-anchor="middle" x="1037.06" y="-237" font-family="serif" font-size="10.00">Options/IntegratorsOptions.hpp</text>
</a>
</g>
</g>
<!-- Node6&#45;&gt;Node32 -->
<g id="edge62" class="edge">
<title>Node6&#45;&gt;Node32</title>
<path fill="none" stroke="midnightblue" d="M1599.01,-294.25C1587.09,-293.16 1574.68,-292.03 1563.06,-291 1372.91,-274.18 1324.68,-276.98 1135.06,-255 1123.83,-253.7 1111.9,-252.11 1100.38,-250.46"/>
<polygon fill="midnightblue" stroke="midnightblue" points="1100.78,-246.99 1090.38,-249.01 1099.78,-253.91 1100.78,-246.99"/>
</g>
<!-- Node33 -->
<g id="node33" class="node">
<title>Node33</title>
<g id="a_node33"><a xlink:href="PhaseFieldOptions_8hpp.html" target="_top" xlink:title="Options for PhaseField problems.">
<polygon fill="none" stroke="black" points="1986.56,-230 1986.56,-249 2165.56,-249 2165.56,-230 1986.56,-230"/>
<text text-anchor="middle" x="2076.06" y="-237" font-family="serif" font-size="10.00">Options/PhaseFieldOptions.hpp</text>
</a>
</g>
</g>
<!-- Node6&#45;&gt;Node33 -->
<g id="edge65" class="edge">
<title>Node6&#45;&gt;Node33</title>
<path fill="none" stroke="midnightblue" d="M1720.55,-291.49C1784.34,-282.5 1887.79,-267.87 1977.06,-255 1987.16,-253.54 1997.83,-251.99 2008.29,-250.47"/>
<polygon fill="midnightblue" stroke="midnightblue" points="2008.83,-253.92 2018.22,-249.02 2007.82,-247 2008.83,-253.92"/>
</g>
<!-- Node34 -->
<g id="node34" class="node">
<title>Node34</title>
<g id="a_node34"><a xlink:href="PhysicalConvergenceOptions_8hpp.html" target="_top" xlink:title="Options for PhysicalConvergence objects.">
<polygon fill="none" stroke="black" points="1144.56,-224.5 1144.56,-254.5 1313.56,-254.5 1313.56,-224.5 1144.56,-224.5"/>
<text text-anchor="start" x="1152.56" y="-242.5" font-family="serif" font-size="10.00">Options/PhysicalConvergence</text>
<text text-anchor="middle" x="1229.06" y="-231.5" font-family="serif" font-size="10.00">Options.hpp</text>
</a>
</g>
</g>
<!-- Node6&#45;&gt;Node34 -->
<g id="edge67" class="edge">
<title>Node6&#45;&gt;Node34</title>
<path fill="none" stroke="midnightblue" d="M1598.82,-292.2C1533.36,-283.78 1426.27,-269.76 1323.53,-255.05"/>
<polygon fill="midnightblue" stroke="midnightblue" points="1323.99,-251.58 1313.6,-253.62 1323,-258.51 1323.99,-251.58"/>
</g>
<!-- Node35 -->
<g id="node35" class="node">
<title>Node35</title>
<g id="a_node35"><a xlink:href="PhysicalPropertiesOptions_8hpp.html" target="_top" xlink:title="Options for physical properties.">
<polygon fill="none" stroke="black" points="2184.06,-224.5 2184.06,-254.5 2338.06,-254.5 2338.06,-224.5 2184.06,-224.5"/>
<text text-anchor="start" x="2192.06" y="-242.5" font-family="serif" font-size="10.00">Options/PhysicalProperties</text>
<text text-anchor="middle" x="2261.06" y="-231.5" font-family="serif" font-size="10.00">Options.hpp</text>
</a>
</g>
</g>
<!-- Node6&#45;&gt;Node35 -->
<g id="edge70" class="edge">
<title>Node6&#45;&gt;Node35</title>
<path fill="none" stroke="midnightblue" d="M1721.15,-296.2C1815.72,-289.97 2003.48,-276.24 2173.64,-254.98"/>
<polygon fill="midnightblue" stroke="midnightblue" points="2174.3,-258.42 2183.78,-253.7 2173.43,-251.48 2174.3,-258.42"/>
</g>
<!-- Node36 -->
<g id="node36" class="node">
<title>Node36</title>
<g id="a_node36"><a xlink:href="ProblemsOptions_8hpp.html" target="_top" xlink:title="Options for Problem objects.">
<polygon fill="none" stroke="black" points="1332.06,-230 1332.06,-249 1502.06,-249 1502.06,-230 1332.06,-230"/>
<text text-anchor="middle" x="1417.06" y="-237" font-family="serif" font-size="10.00">Options/ProblemsOptions.hpp</text>
</a>
</g>
</g>
<!-- Node6&#45;&gt;Node36 -->
<g id="edge72" class="edge">
<title>Node6&#45;&gt;Node36</title>
<path fill="none" stroke="midnightblue" d="M1625.24,-291.48C1582.21,-280.94 1508.89,-262.99 1461.75,-251.44"/>
<polygon fill="midnightblue" stroke="midnightblue" points="1462.36,-247.99 1451.81,-249.01 1460.69,-254.79 1462.36,-247.99"/>
</g>
<!-- Node37 -->
<g id="node37" class="node">
<title>Node37</title>
<g id="a_node37"><a xlink:href="SolversOptions_8hpp.html" target="_top" xlink:title="Options for solvers and preconditioners.">
<polygon fill="none" stroke="black" points="2356.06,-230 2356.06,-249 2516.06,-249 2516.06,-230 2356.06,-230"/>
<text text-anchor="middle" x="2436.06" y="-237" font-family="serif" font-size="10.00">Options/SolversOptions.hpp</text>
</a>
</g>
</g>
<!-- Node6&#45;&gt;Node37 -->
<g id="edge75" class="edge">
<title>Node6&#45;&gt;Node37</title>
<path fill="none" stroke="midnightblue" d="M1721.35,-297.96C1841.64,-293.53 2116.97,-281.22 2347.06,-255 2357.43,-253.82 2368.44,-252.27 2379.05,-250.62"/>
<polygon fill="midnightblue" stroke="midnightblue" points="2379.74,-254.06 2389.06,-249.02 2378.64,-247.14 2379.74,-254.06"/>
</g>
<!-- Node38 -->
<g id="node38" class="node">
<title>Node38</title>
<g id="a_node38"><a xlink:href="SpatialOptions_8hpp.html" target="_top" xlink:title="Options for Spatial discretization.">
<polygon fill="none" stroke="black" points="598.06,-230 598.06,-249 756.06,-249 756.06,-230 598.06,-230"/>
<text text-anchor="middle" x="677.06" y="-237" font-family="serif" font-size="10.00">Options/SpatialOptions.hpp</text>
</a>
</g>
</g>
<!-- Node6&#45;&gt;Node38 -->
<g id="edge77" class="edge">
<title>Node6&#45;&gt;Node38</title>
<path fill="none" stroke="midnightblue" d="M1599.04,-293.89C1587.11,-292.83 1574.7,-291.8 1563.06,-291 1208.87,-266.59 1118.16,-291.92 765.06,-255 754.56,-253.9 743.4,-252.36 732.69,-250.69"/>
<polygon fill="midnightblue" stroke="midnightblue" points="733.03,-247.2 722.59,-249.06 731.91,-254.11 733.03,-247.2"/>
</g>
<!-- Node39 -->
<g id="node39" class="node">
<title>Node39</title>
<g id="a_node39"><a xlink:href="TimeOptions_8hpp.html" target="_top" xlink:title="Options for Time discretization.">
<polygon fill="none" stroke="black" points="1520.06,-230 1520.06,-249 1668.06,-249 1668.06,-230 1520.06,-230"/>
<text text-anchor="middle" x="1594.06" y="-237" font-family="serif" font-size="10.00">Options/TimeOptions.hpp</text>
</a>
</g>
</g>
<!-- Node6&#45;&gt;Node39 -->
<g id="edge80" class="edge">
<title>Node6&#45;&gt;Node39</title>
<path fill="none" stroke="midnightblue" d="M1650.6,-291.48C1640.31,-282.2 1623.64,-267.17 1611.07,-255.83"/>
<polygon fill="midnightblue" stroke="midnightblue" points="1613.27,-253.11 1603.5,-249.01 1608.58,-258.3 1613.27,-253.11"/>
</g>
<!-- Node8 -->
<g id="node8" class="node">
<title>Node8</title>
<g id="a_node8"><a xlink:title=" ">
<polygon fill="none" stroke="#bfbfbf" points="1290.56,-0.5 1290.56,-19.5 1337.56,-19.5 1337.56,-0.5 1290.56,-0.5"/>
<text text-anchor="middle" x="1314.06" y="-7.5" font-family="serif" font-size="10.00">string</text>
</a>
</g>
</g>
<!-- Node7&#45;&gt;Node8 -->
<g id="edge7" class="edge">
<title>Node7&#45;&gt;Node8</title>
<path fill="none" stroke="midnightblue" d="M880.61,-224.44C963.98,-183.39 1206.28,-64.07 1287.31,-24.17"/>
<polygon fill="midnightblue" stroke="midnightblue" points="1288.95,-27.27 1296.37,-19.71 1285.85,-20.99 1288.95,-27.27"/>
</g>
<!-- Node7&#45;&gt;Node9 -->
<g id="edge8" class="edge">
<title>Node7&#45;&gt;Node9</title>
<path fill="none" stroke="midnightblue" d="M929.81,-224.9C932.59,-224.57 935.35,-224.27 938.06,-224 1237.97,-194.52 2197.08,-182.23 2437.17,-179.57"/>
<polygon fill="midnightblue" stroke="midnightblue" points="2437.43,-183.07 2447.39,-179.46 2437.36,-176.07 2437.43,-183.07"/>
</g>
<!-- Node10 -->
<g id="node10" class="node">
<title>Node10</title>
<g id="a_node10"><a xlink:href="UtilsForData_8hpp.html" target="_top" xlink:title="Usefull methods for data.">
<polygon fill="none" stroke="black" points="2506.56,-56.5 2506.56,-75.5 2637.56,-75.5 2637.56,-56.5 2506.56,-56.5"/>
<text text-anchor="middle" x="2572.06" y="-63.5" font-family="serif" font-size="10.00">Utils/UtilsForData.hpp</text>
</a>
</g>
</g>
<!-- Node9&#45;&gt;Node10 -->
<g id="edge9" class="edge">
<title>Node9&#45;&gt;Node10</title>
<path fill="none" stroke="midnightblue" d="M2498.34,-168.37C2511.54,-150.22 2542.39,-107.8 2559.7,-83.99"/>
<polygon fill="midnightblue" stroke="midnightblue" points="2562.76,-85.74 2565.81,-75.59 2557.1,-81.62 2562.76,-85.74"/>
</g>
<!-- Node23 -->
<g id="node23" class="node">
<title>Node23</title>
<g id="a_node23"><a xlink:href="UtilsForDebug_8hpp.html" target="_top" xlink:title="Usefull methods for debug.">
<polygon fill="none" stroke="black" points="2369.56,-112.5 2369.56,-131.5 2510.56,-131.5 2510.56,-112.5 2369.56,-112.5"/>
<text text-anchor="middle" x="2440.06" y="-119.5" font-family="serif" font-size="10.00">Utils/UtilsForDebug.hpp</text>
</a>
</g>
</g>
<!-- Node9&#45;&gt;Node23 -->
<g id="edge23" class="edge">
<title>Node9&#45;&gt;Node23</title>
<path fill="none" stroke="midnightblue" d="M2483.47,-168.08C2475.9,-160.22 2464.68,-148.57 2455.55,-139.08"/>
<polygon fill="midnightblue" stroke="midnightblue" points="2457.94,-136.53 2448.49,-131.75 2452.9,-141.38 2457.94,-136.53"/>
</g>
<!-- Node26 -->
<g id="node26" class="node">
<title>Node26</title>
<g id="a_node26"><a xlink:href="UtilsForOptions_8hpp.html" target="_top" xlink:title="Usefull methods for Options.">
<polygon fill="none" stroke="black" points="2656.06,-56.5 2656.06,-75.5 2802.06,-75.5 2802.06,-56.5 2656.06,-56.5"/>
<text text-anchor="middle" x="2729.06" y="-63.5" font-family="serif" font-size="10.00">Utils/UtilsForOptions.hpp</text>
</a>
</g>
</g>
<!-- Node9&#45;&gt;Node26 -->
<g id="edge34" class="edge">
<title>Node9&#45;&gt;Node26</title>
<path fill="none" stroke="midnightblue" d="M2510.66,-168.37C2552.1,-149.13 2652.25,-102.65 2701.2,-79.93"/>
<polygon fill="midnightblue" stroke="midnightblue" points="2702.95,-82.98 2710.55,-75.59 2700.01,-76.63 2702.95,-82.98"/>
</g>
<!-- Node28 -->
<g id="node28" class="node">
<title>Node28</title>
<g id="a_node28"><a xlink:href="UtilsForPostProcessing_8hpp.html" target="_top" xlink:title="Usefull methods for post&#45;processing.">
<polygon fill="none" stroke="black" points="2820.56,-56.5 2820.56,-75.5 3003.56,-75.5 3003.56,-56.5 2820.56,-56.5"/>
<text text-anchor="middle" x="2912.06" y="-63.5" font-family="serif" font-size="10.00">Utils/UtilsForPostProcessing.hpp</text>
</a>
</g>
</g>
<!-- Node9&#45;&gt;Node28 -->
<g id="edge44" class="edge">
<title>Node9&#45;&gt;Node28</title>
<path fill="none" stroke="midnightblue" d="M2524.67,-168.46C2599.95,-148.74 2785.85,-100.05 2869.76,-78.08"/>
<polygon fill="midnightblue" stroke="midnightblue" points="2870.69,-81.45 2879.47,-75.53 2868.91,-74.68 2870.69,-81.45"/>
</g>
<!-- Node29 -->
<g id="node29" class="node">
<title>Node29</title>
<g id="a_node29"><a xlink:href="UtilsForVariants_8hpp.html" target="_top" xlink:title="manage std::Variants">
<polygon fill="none" stroke="black" points="2970.06,-112.5 2970.06,-131.5 3118.06,-131.5 3118.06,-112.5 2970.06,-112.5"/>
<text text-anchor="middle" x="3044.06" y="-119.5" font-family="serif" font-size="10.00">Utils/UtilsForVariants.hpp</text>
</a>
</g>
</g>
<!-- Node9&#45;&gt;Node29 -->
<g id="edge51" class="edge">
<title>Node9&#45;&gt;Node29</title>
<path fill="none" stroke="midnightblue" d="M2536.76,-172.63C2628.79,-163.62 2840.71,-142.89 2959.47,-131.28"/>
<polygon fill="midnightblue" stroke="midnightblue" points="2960,-134.74 2969.61,-130.28 2959.32,-127.77 2960,-134.74"/>
</g>
<!-- Node10&#45;&gt;Node8 -->
<g id="edge18" class="edge">
<title>Node10&#45;&gt;Node8</title>
<path fill="none" stroke="midnightblue" d="M2506.46,-61.79C2470.1,-60.03 2424.08,-57.84 2383.06,-56 1975.59,-37.72 1480.66,-17.69 1348.08,-12.36"/>
<polygon fill="midnightblue" stroke="midnightblue" points="1347.9,-8.85 1337.76,-11.95 1347.61,-15.85 1347.9,-8.85"/>
</g>
<!-- Node11 -->
<g id="node11" class="node">
<title>Node11</title>
<g id="a_node11"><a xlink:title=" ">
<polygon fill="none" stroke="#bfbfbf" points="2309.56,-0.5 2309.56,-19.5 2368.56,-19.5 2368.56,-0.5 2309.56,-0.5"/>
<text text-anchor="middle" x="2339.06" y="-7.5" font-family="serif" font-size="10.00">unistd.h</text>
</a>
</g>
</g>
<!-- Node10&#45;&gt;Node11 -->
<g id="edge10" class="edge">
<title>Node10&#45;&gt;Node11</title>
<path fill="none" stroke="midnightblue" d="M2534.66,-56.44C2497.47,-47.91 2438.5,-34.34 2378.89,-20.42"/>
<polygon fill="midnightblue" stroke="midnightblue" points="2379.46,-16.96 2368.93,-18.09 2377.87,-23.78 2379.46,-16.96"/>
</g>
<!-- Node12 -->
<g id="node12" class="node">
<title>Node12</title>
<g id="a_node12"><a xlink:title=" ">
<polygon fill="none" stroke="#bfbfbf" points="2833.06,-0.5 2833.06,-19.5 2899.06,-19.5 2899.06,-0.5 2833.06,-0.5"/>
<text text-anchor="middle" x="2866.06" y="-7.5" font-family="serif" font-size="10.00">algorithm</text>
</a>
</g>
</g>
<!-- Node10&#45;&gt;Node12 -->
<g id="edge11" class="edge">
<title>Node10&#45;&gt;Node12</title>
<path fill="none" stroke="midnightblue" d="M2622.14,-56.46C2670.68,-48.08 2746.65,-34.72 2822.53,-20.05"/>
<polygon fill="midnightblue" stroke="midnightblue" points="2823.59,-23.41 2832.74,-18.07 2822.26,-16.54 2823.59,-23.41"/>
</g>
<!-- Node13 -->
<g id="node13" class="node">
<title>Node13</title>
<g id="a_node13"><a xlink:title=" ">
<polygon fill="none" stroke="#bfbfbf" points="2624.06,-0.5 2624.06,-19.5 2674.06,-19.5 2674.06,-0.5 2624.06,-0.5"/>
<text text-anchor="middle" x="2649.06" y="-7.5" font-family="serif" font-size="10.00">cctype</text>
</a>
</g>
</g>
<!-- Node10&#45;&gt;Node13 -->
<g id="edge12" class="edge">
<title>Node10&#45;&gt;Node13</title>
<path fill="none" stroke="midnightblue" d="M2584.43,-56.32C2596.22,-48.06 2614.19,-35.45 2628.2,-25.63"/>
<polygon fill="midnightblue" stroke="midnightblue" points="2630.54,-28.26 2636.72,-19.65 2626.52,-22.53 2630.54,-28.26"/>
</g>
<!-- Node14 -->
<g id="node14" class="node">
<title>Node14</title>
<g id="a_node14"><a xlink:title=" ">
<polygon fill="none" stroke="#bfbfbf" points="2386.56,-0.5 2386.56,-19.5 2433.56,-19.5 2433.56,-0.5 2386.56,-0.5"/>
<text text-anchor="middle" x="2410.06" y="-7.5" font-family="serif" font-size="10.00">cstdio</text>
</a>
</g>
</g>
<!-- Node10&#45;&gt;Node14 -->
<g id="edge13" class="edge">
<title>Node10&#45;&gt;Node14</title>
<path fill="none" stroke="midnightblue" d="M2546.39,-56.44C2518.58,-47.17 2474.09,-32.34 2443.54,-22.16"/>
<polygon fill="midnightblue" stroke="midnightblue" points="2444.36,-18.74 2433.76,-18.9 2442.14,-25.38 2444.36,-18.74"/>
</g>
<!-- Node15 -->
<g id="node15" class="node">
<title>Node15</title>
<g id="a_node15"><a xlink:title=" ">
<polygon fill="none" stroke="#bfbfbf" points="2538.06,-0.5 2538.06,-19.5 2606.06,-19.5 2606.06,-0.5 2538.06,-0.5"/>
<text text-anchor="middle" x="2572.06" y="-7.5" font-family="serif" font-size="10.00">filesystem</text>
</a>
</g>
</g>
<!-- Node10&#45;&gt;Node15 -->
<g id="edge14" class="edge">
<title>Node10&#45;&gt;Node15</title>
<path fill="none" stroke="midnightblue" d="M2572.06,-56.08C2572.06,-49.01 2572.06,-38.86 2572.06,-29.99"/>
<polygon fill="midnightblue" stroke="midnightblue" points="2575.56,-29.75 2572.06,-19.75 2568.56,-29.75 2575.56,-29.75"/>
</g>
<!-- Node16 -->
<g id="node16" class="node">
<title>Node16</title>
<g id="a_node16"><a xlink:title=" ">
<polygon fill="none" stroke="#bfbfbf" points="2452.06,-0.5 2452.06,-19.5 2520.06,-19.5 2520.06,-0.5 2452.06,-0.5"/>
<text text-anchor="middle" x="2486.06" y="-7.5" font-family="serif" font-size="10.00">functional</text>
</a>
</g>
</g>
<!-- Node10&#45;&gt;Node16 -->
<g id="edge15" class="edge">
<title>Node10&#45;&gt;Node16</title>
<path fill="none" stroke="midnightblue" d="M2558.24,-56.32C2544.83,-47.9 2524.24,-34.97 2508.47,-25.07"/>
<polygon fill="midnightblue" stroke="midnightblue" points="2510.17,-22.01 2499.84,-19.65 2506.45,-27.94 2510.17,-22.01"/>
</g>
<!-- Node17 -->
<g id="node17" class="node">
<title>Node17</title>
<g id="a_node17"><a xlink:title=" ">
<polygon fill="none" stroke="#bfbfbf" points="2753.56,-0.5 2753.56,-19.5 2814.56,-19.5 2814.56,-0.5 2753.56,-0.5"/>
<text text-anchor="middle" x="2784.06" y="-7.5" font-family="serif" font-size="10.00">iostream</text>
</a>
</g>
</g>
<!-- Node10&#45;&gt;Node17 -->
<g id="edge16" class="edge">
<title>Node10&#45;&gt;Node17</title>
<path fill="none" stroke="midnightblue" d="M2605.65,-56.44C2643.11,-46.9 2703.67,-31.48 2743.68,-21.29"/>
<polygon fill="midnightblue" stroke="midnightblue" points="2744.55,-24.68 2753.38,-18.82 2742.82,-17.89 2744.55,-24.68"/>
</g>
<!-- Node18 -->
<g id="node18" class="node">
<title>Node18</title>
<g id="a_node18"><a xlink:title=" ">
<polygon fill="none" stroke="#bfbfbf" points="2917.56,-0.5 2917.56,-19.5 2956.56,-19.5 2956.56,-0.5 2917.56,-0.5"/>
<text text-anchor="middle" x="2937.06" y="-7.5" font-family="serif" font-size="10.00">map</text>
</a>
</g>
</g>
<!-- Node10&#45;&gt;Node18 -->
<g id="edge17" class="edge">
<title>Node10&#45;&gt;Node18</title>
<path fill="none" stroke="midnightblue" d="M2637.61,-56.82C2721.01,-46.33 2859.15,-28.64 2907.48,-19.6"/>
<polygon fill="midnightblue" stroke="midnightblue" points="2908.43,-22.98 2917.52,-17.55 2907.03,-16.12 2908.43,-22.98"/>
</g>
<!-- Node19 -->
<g id="node19" class="node">
<title>Node19</title>
<g id="a_node19"><a xlink:title=" ">
<polygon fill="none" stroke="#bfbfbf" points="2692.56,-0.5 2692.56,-19.5 2735.56,-19.5 2735.56,-0.5 2692.56,-0.5"/>
<text text-anchor="middle" x="2714.06" y="-7.5" font-family="serif" font-size="10.00">tuple</text>
</a>
</g>
</g>
<!-- Node10&#45;&gt;Node19 -->
<g id="edge19" class="edge">
<title>Node10&#45;&gt;Node19</title>
<path fill="none" stroke="midnightblue" d="M2594.56,-56.44C2618.28,-47.42 2655.82,-33.15 2682.49,-23"/>
<polygon fill="midnightblue" stroke="midnightblue" points="2684.03,-26.16 2692.13,-19.34 2681.54,-19.62 2684.03,-26.16"/>
</g>
<!-- Node20 -->
<g id="node20" class="node">
<title>Node20</title>
<g id="a_node20"><a xlink:title=" ">
<polygon fill="none" stroke="#bfbfbf" points="2975.06,-0.5 2975.06,-19.5 3021.06,-19.5 3021.06,-0.5 2975.06,-0.5"/>
<text text-anchor="middle" x="2998.06" y="-7.5" font-family="serif" font-size="10.00">utility</text>
</a>
</g>
</g>
<!-- Node10&#45;&gt;Node20 -->
<g id="edge20" class="edge">
<title>Node10&#45;&gt;Node20</title>
<path fill="none" stroke="midnightblue" d="M2637.91,-57.07C2641,-56.71 2644.06,-56.35 2647.06,-56 2785.17,-39.9 2823.65,-46.48 2964.83,-19.74"/>
<polygon fill="midnightblue" stroke="midnightblue" points="2965.57,-23.16 2974.73,-17.84 2964.25,-16.28 2965.57,-23.16"/>
</g>
<!-- Node21 -->
<g id="node21" class="node">
<title>Node21</title>
<g id="a_node21"><a xlink:title=" ">
<polygon fill="none" stroke="#bfbfbf" points="3039.06,-0.5 3039.06,-19.5 3087.06,-19.5 3087.06,-0.5 3039.06,-0.5"/>
<text text-anchor="middle" x="3063.06" y="-7.5" font-family="serif" font-size="10.00">vector</text>
</a>
</g>
</g>
<!-- Node10&#45;&gt;Node21 -->
<g id="edge21" class="edge">
<title>Node10&#45;&gt;Node21</title>
<path fill="none" stroke="midnightblue" d="M2637.9,-57C2640.99,-56.66 2644.06,-56.32 2647.06,-56 2813.82,-38.16 2860.1,-50.13 3029.04,-19.88"/>
<polygon fill="midnightblue" stroke="midnightblue" points="3029.8,-23.3 3039.02,-18.07 3028.56,-16.41 3029.8,-23.3"/>
</g>
<!-- Node10&#45;&gt;Node22 -->
<g id="edge22" class="edge">
<title>Node10&#45;&gt;Node22</title>
<path fill="none" stroke="midnightblue" d="M2637.88,-56.82C2640.98,-56.52 2644.05,-56.25 2647.06,-56 3025.86,-25.01 3485.2,-14.43 3628.31,-11.76"/>
<polygon fill="midnightblue" stroke="midnightblue" points="3628.52,-15.25 3638.46,-11.57 3628.4,-8.25 3628.52,-15.25"/>
</g>
<!-- Node23&#45;&gt;Node8 -->
<g id="edge30" class="edge">
<title>Node23&#45;&gt;Node8</title>
<path fill="none" stroke="midnightblue" d="M2369.4,-114.92C2312.69,-108.76 2231.52,-97.04 2163.06,-76 2142.91,-69.81 2140.5,-61.12 2120.06,-56 1970.31,-18.47 1481.39,-12.21 1347.96,-11.19"/>
<polygon fill="midnightblue" stroke="midnightblue" points="1347.59,-7.69 1337.57,-11.12 1347.54,-14.69 1347.59,-7.69"/>
</g>
<!-- Node23&#45;&gt;Node10 -->
<g id="edge32" class="edge">
<title>Node23&#45;&gt;Node10</title>
<path fill="none" stroke="midnightblue" d="M2460.98,-112.44C2482.8,-103.52 2517.21,-89.44 2541.95,-79.32"/>
<polygon fill="midnightblue" stroke="midnightblue" points="2543.31,-82.54 2551.24,-75.52 2540.66,-76.06 2543.31,-82.54"/>
</g>
<!-- Node23&#45;&gt;Node11 -->
<g id="edge25" class="edge">
<title>Node23&#45;&gt;Node11</title>
<path fill="none" stroke="midnightblue" d="M2432.83,-112.46C2422.14,-99.9 2401.42,-75.82 2383.06,-56 2373.97,-46.18 2363.5,-35.45 2355.06,-26.94"/>
<polygon fill="midnightblue" stroke="midnightblue" points="2357.51,-24.44 2347.97,-19.83 2352.55,-29.38 2357.51,-24.44"/>
</g>
<!-- Node23&#45;&gt;Node14 -->
<g id="edge26" class="edge">
<title>Node23&#45;&gt;Node14</title>
<path fill="none" stroke="midnightblue" d="M2437.71,-112.37C2432.84,-94.54 2421.59,-53.3 2415.04,-29.27"/>
<polygon fill="midnightblue" stroke="midnightblue" points="2418.41,-28.32 2412.4,-19.59 2411.66,-30.16 2418.41,-28.32"/>
</g>
<!-- Node23&#45;&gt;Node16 -->
<g id="edge28" class="edge">
<title>Node23&#45;&gt;Node16</title>
<path fill="none" stroke="midnightblue" d="M2443.67,-112.37C2451.16,-94.46 2468.53,-52.92 2478.55,-28.95"/>
<polygon fill="midnightblue" stroke="midnightblue" points="2481.84,-30.17 2482.47,-19.59 2475.38,-27.47 2481.84,-30.17"/>
</g>
<!-- Node23&#45;&gt;Node17 -->
<g id="edge29" class="edge">
<title>Node23&#45;&gt;Node17</title>
<path fill="none" stroke="midnightblue" d="M2383.88,-112.42C2337.1,-103.01 2282.15,-85.23 2309.06,-56 2340.3,-22.06 2662.3,-26.76 2742.73,-19.61"/>
<polygon fill="midnightblue" stroke="midnightblue" points="2743.6,-23.03 2753.13,-18.4 2742.8,-16.07 2743.6,-23.03"/>
</g>
<!-- Node23&#45;&gt;Node20 -->
<g id="edge31" class="edge">
<title>Node23&#45;&gt;Node20</title>
<path fill="none" stroke="midnightblue" d="M2510.79,-120.68C2656.35,-119.29 2978.67,-112.12 3012.06,-76 3023.77,-63.33 3017.03,-43.29 3009.39,-28.81"/>
<polygon fill="midnightblue" stroke="midnightblue" points="3012.23,-26.72 3004.18,-19.83 3006.18,-30.24 3012.23,-26.72"/>
</g>
<!-- Node23&#45;&gt;Node22 -->
<g id="edge33" class="edge">
<title>Node23&#45;&gt;Node22</title>
<path fill="none" stroke="midnightblue" d="M2510.94,-116.16C2621.77,-108.46 2842.8,-92.6 3030.06,-76 3254.81,-56.07 3523.23,-27.34 3628.03,-15.94"/>
<polygon fill="midnightblue" stroke="midnightblue" points="3628.68,-19.39 3638.24,-14.82 3627.92,-12.43 3628.68,-19.39"/>
</g>
<!-- Node24 -->
<g id="node24" class="node">
<title>Node24</title>
<g id="a_node24"><a xlink:title=" ">
<polygon fill="none" stroke="#bfbfbf" points="2172.06,-56.5 2172.06,-75.5 2262.06,-75.5 2262.06,-56.5 2172.06,-56.5"/>
<text text-anchor="middle" x="2217.06" y="-63.5" font-family="serif" font-size="10.00">sys/resource.h</text>
</a>
</g>
</g>
<!-- Node23&#45;&gt;Node24 -->
<g id="edge24" class="edge">
<title>Node23&#45;&gt;Node24</title>
<path fill="none" stroke="midnightblue" d="M2404.72,-112.44C2366.15,-103.1 2304.28,-88.12 2262.21,-77.93"/>
<polygon fill="midnightblue" stroke="midnightblue" points="2262.77,-74.47 2252.23,-75.52 2261.12,-81.27 2262.77,-74.47"/>
</g>
<!-- Node25 -->
<g id="node25" class="node">
<title>Node25</title>
<g id="a_node25"><a xlink:title=" ">
<polygon fill="none" stroke="#bfbfbf" points="2318.06,-56.5 2318.06,-75.5 2374.06,-75.5 2374.06,-56.5 2318.06,-56.5"/>
<text text-anchor="middle" x="2346.06" y="-63.5" font-family="serif" font-size="10.00">fstream</text>
</a>
</g>
</g>
<!-- Node23&#45;&gt;Node25 -->
<g id="edge27" class="edge">
<title>Node23&#45;&gt;Node25</title>
<path fill="none" stroke="midnightblue" d="M2424.96,-112.32C2410.16,-103.82 2387.37,-90.73 2370.08,-80.8"/>
<polygon fill="midnightblue" stroke="midnightblue" points="2371.54,-77.6 2361.13,-75.65 2368.05,-83.67 2371.54,-77.6"/>
</g>
<!-- Node26&#45;&gt;Node5 -->
<g id="edge42" class="edge">
<title>Node26&#45;&gt;Node5</title>
<path fill="none" stroke="midnightblue" d="M2802.35,-56.7C2805.29,-56.45 2808.2,-56.21 2811.06,-56 3212.93,-26 3314.52,-38.97 3717.06,-20 3761.15,-17.92 3811.84,-15.09 3845.27,-13.16"/>
<polygon fill="midnightblue" stroke="midnightblue" points="3845.71,-16.64 3855.49,-12.57 3845.3,-9.66 3845.71,-16.64"/>
</g>
<!-- Node26&#45;&gt;Node8 -->
<g id="edge39" class="edge">
<title>Node26&#45;&gt;Node8</title>
<path fill="none" stroke="midnightblue" d="M2655.77,-56.75C2652.49,-56.48 2649.24,-56.23 2646.06,-56 2129.91,-19.35 1499.07,-12.39 1347.8,-11.22"/>
<polygon fill="midnightblue" stroke="midnightblue" points="1347.77,-7.72 1337.75,-11.14 1347.72,-14.72 1347.77,-7.72"/>
</g>
<!-- Node26&#45;&gt;Node12 -->
<g id="edge35" class="edge">
<title>Node26&#45;&gt;Node12</title>
<path fill="none" stroke="midnightblue" d="M2750.77,-56.44C2773.41,-47.52 2809.13,-33.44 2834.81,-23.32"/>
<polygon fill="midnightblue" stroke="midnightblue" points="2836.43,-26.44 2844.45,-19.52 2833.87,-19.93 2836.43,-26.44"/>
</g>
<!-- Node26&#45;&gt;Node16 -->
<g id="edge36" class="edge">
<title>Node26&#45;&gt;Node16</title>
<path fill="none" stroke="midnightblue" d="M2690.56,-56.44C2646.89,-46.74 2575.81,-30.95 2530.01,-20.77"/>
<polygon fill="midnightblue" stroke="midnightblue" points="2530.59,-17.31 2520.07,-18.56 2529.07,-24.14 2530.59,-17.31"/>
</g>
<!-- Node26&#45;&gt;Node17 -->
<g id="edge37" class="edge">
<title>Node26&#45;&gt;Node17</title>
<path fill="none" stroke="midnightblue" d="M2738.14,-56.08C2746.23,-48.14 2758.26,-36.34 2767.97,-26.8"/>
<polygon fill="midnightblue" stroke="midnightblue" points="2770.46,-29.25 2775.15,-19.75 2765.56,-24.26 2770.46,-29.25"/>
</g>
<!-- Node26&#45;&gt;Node19 -->
<g id="edge40" class="edge">
<title>Node26&#45;&gt;Node19</title>
<path fill="none" stroke="midnightblue" d="M2726.58,-56.08C2724.57,-48.85 2721.67,-38.41 2719.17,-29.4"/>
<polygon fill="midnightblue" stroke="midnightblue" points="2722.54,-28.45 2716.49,-19.75 2715.79,-30.32 2722.54,-28.45"/>
</g>
<!-- Node26&#45;&gt;Node20 -->
<g id="edge41" class="edge">
<title>Node26&#45;&gt;Node20</title>
<path fill="none" stroke="midnightblue" d="M2779.94,-56.48C2827.9,-48.17 2901.67,-34.67 2965.06,-20 2965.16,-19.98 2965.26,-19.95 2965.36,-19.93"/>
<polygon fill="midnightblue" stroke="midnightblue" points="2966.18,-23.33 2975.04,-17.52 2964.49,-16.54 2966.18,-23.33"/>
</g>
<!-- Node26&#45;&gt;Node21 -->
<g id="edge43" class="edge">
<title>Node26&#45;&gt;Node21</title>
<path fill="none" stroke="midnightblue" d="M2802.17,-56.52C2861.06,-49.13 2946.11,-37.19 3029.14,-19.98"/>
<polygon fill="midnightblue" stroke="midnightblue" points="3029.92,-23.4 3038.99,-17.92 3028.48,-16.55 3029.92,-23.4"/>
</g>
<!-- Node27 -->
<g id="node27" class="node">
<title>Node27</title>
<g id="a_node27"><a xlink:title=" ">
<polygon fill="none" stroke="#bfbfbf" points="3190.06,-0.5 3190.06,-19.5 3234.06,-19.5 3234.06,-0.5 3190.06,-0.5"/>
<text text-anchor="middle" x="3212.06" y="-7.5" font-family="serif" font-size="10.00">limits</text>
</a>
</g>
</g>
<!-- Node26&#45;&gt;Node27 -->
<g id="edge38" class="edge">
<title>Node26&#45;&gt;Node27</title>
<path fill="none" stroke="midnightblue" d="M2802.15,-56.83C2908.95,-44.89 3103.23,-23.17 3179.8,-14.61"/>
<polygon fill="midnightblue" stroke="midnightblue" points="3180.26,-18.08 3189.8,-13.49 3179.48,-11.12 3180.26,-18.08"/>
</g>
<!-- Node28&#45;&gt;Node8 -->
<g id="edge48" class="edge">
<title>Node28&#45;&gt;Node8</title>
<path fill="none" stroke="midnightblue" d="M2820.42,-56.6C2817.26,-56.38 2814.14,-56.18 2811.06,-56 2226.23,-21.18 1511.18,-12.79 1348.2,-11.28"/>
<polygon fill="midnightblue" stroke="midnightblue" points="1347.88,-7.78 1337.85,-11.19 1347.82,-14.78 1347.88,-7.78"/>
</g>
<!-- Node28&#45;&gt;Node12 -->
<g id="edge45" class="edge">
<title>Node28&#45;&gt;Node12</title>
<path fill="none" stroke="midnightblue" d="M2904.46,-56.08C2897.83,-48.3 2888.04,-36.8 2880,-27.37"/>
<polygon fill="midnightblue" stroke="midnightblue" points="2882.66,-25.09 2873.51,-19.75 2877.33,-29.63 2882.66,-25.09"/>
</g>
<!-- Node28&#45;&gt;Node17 -->
<g id="edge46" class="edge">
<title>Node28&#45;&gt;Node17</title>
<path fill="none" stroke="midnightblue" d="M2891.78,-56.44C2870.71,-47.56 2837.54,-33.56 2813.57,-23.45"/>
<polygon fill="midnightblue" stroke="midnightblue" points="2814.82,-20.18 2804.25,-19.52 2812.1,-26.63 2814.82,-20.18"/>
</g>
<!-- Node28&#45;&gt;Node20 -->
<g id="edge49" class="edge">
<title>Node28&#45;&gt;Node20</title>
<path fill="none" stroke="midnightblue" d="M2925.88,-56.32C2939.29,-47.9 2959.88,-34.97 2975.65,-25.07"/>
<polygon fill="midnightblue" stroke="midnightblue" points="2977.67,-27.94 2984.28,-19.65 2973.95,-22.01 2977.67,-27.94"/>
</g>
<!-- Node28&#45;&gt;Node21 -->
<g id="edge50" class="edge">
<title>Node28&#45;&gt;Node21</title>
<path fill="none" stroke="midnightblue" d="M2935.99,-56.44C2961.28,-47.4 3001.36,-33.06 3029.74,-22.92"/>
<polygon fill="midnightblue" stroke="midnightblue" points="3031.01,-26.18 3039.25,-19.52 3028.65,-19.59 3031.01,-26.18"/>
</g>
<!-- Node28&#45;&gt;Node27 -->
<g id="edge47" class="edge">
<title>Node28&#45;&gt;Node27</title>
<path fill="none" stroke="midnightblue" d="M2959.6,-56.44C3021.24,-45.35 3127.12,-26.29 3180.02,-16.77"/>
<polygon fill="midnightblue" stroke="midnightblue" points="3180.64,-20.21 3189.86,-15 3179.4,-13.32 3180.64,-20.21"/>
</g>
<!-- Node29&#45;&gt;Node3 -->
<g id="edge52" class="edge">
<title>Node29&#45;&gt;Node3</title>
<path fill="none" stroke="midnightblue" d="M2970.03,-119.52C2570.95,-111.54 682.73,-73.81 382.37,-67.81"/>
<polygon fill="midnightblue" stroke="midnightblue" points="382.04,-64.3 371.97,-67.6 381.9,-71.3 382.04,-64.3"/>
</g>
<!-- Node29&#45;&gt;Node4 -->
<g id="edge53" class="edge">
<title>Node29&#45;&gt;Node4</title>
<path fill="none" stroke="midnightblue" d="M3117.02,-112.49C3186.75,-104.11 3294.77,-90.49 3388.06,-76 3389.5,-75.78 3390.97,-75.54 3392.45,-75.3"/>
<polygon fill="midnightblue" stroke="midnightblue" points="3393.03,-78.75 3402.32,-73.65 3391.87,-71.85 3393.03,-78.75"/>
</g>
<!-- Node29&#45;&gt;Node5 -->
<g id="edge54" class="edge">
<title>Node29&#45;&gt;Node5</title>
<path fill="none" stroke="midnightblue" d="M3083.38,-112.45C3147.8,-98.72 3279.97,-71.7 3393.06,-56 3561.16,-32.66 3763.5,-18.41 3845.2,-13.22"/>
<polygon fill="midnightblue" stroke="midnightblue" points="3845.7,-16.7 3855.46,-12.58 3845.26,-9.71 3845.7,-16.7"/>
</g>
<!-- Node30&#45;&gt;Node8 -->
<g id="edge57" class="edge">
<title>Node30&#45;&gt;Node8</title>
<path fill="none" stroke="midnightblue" d="M2947.34,-229.95C2864.23,-215.84 2691.72,-187.31 2545.06,-168 2396.59,-148.46 2358.29,-153.22 2210.06,-132 2020.54,-104.87 1975.73,-82 1786.06,-56 1622.49,-33.58 1425.5,-18.67 1347.86,-13.26"/>
<polygon fill="midnightblue" stroke="midnightblue" points="1347.93,-9.76 1337.71,-12.56 1347.45,-16.74 1347.93,-9.76"/>
</g>
<!-- Node30&#45;&gt;Node9 -->
<g id="edge59" class="edge">
<title>Node30&#45;&gt;Node9</title>
<path fill="none" stroke="midnightblue" d="M2942.99,-229.97C2929.02,-227.89 2914,-225.76 2900.06,-224 2745.35,-204.47 2705.74,-207.76 2551.06,-188 2549.76,-187.83 2548.44,-187.66 2547.12,-187.49"/>
<polygon fill="midnightblue" stroke="midnightblue" points="2547.19,-183.96 2536.81,-186.06 2546.23,-190.9 2547.19,-183.96"/>
</g>
<!-- Node30&#45;&gt;Node21 -->
<g id="edge58" class="edge">
<title>Node30&#45;&gt;Node21</title>
<path fill="none" stroke="midnightblue" d="M2990.22,-229.89C2974.11,-208.51 2936.91,-151.83 2961.06,-112 2978.99,-82.42 3005.74,-100.59 3030.06,-76 3043.11,-62.81 3052.04,-43.4 3057.28,-29.23"/>
<polygon fill="midnightblue" stroke="midnightblue" points="3060.65,-30.2 3060.58,-19.6 3054.03,-27.93 3060.65,-30.2"/>
</g>
<!-- Node30&#45;&gt;Node27 -->
<g id="edge56" class="edge">
<title>Node30&#45;&gt;Node27</title>
<path fill="none" stroke="midnightblue" d="M3032.3,-230C3094.33,-212.91 3221.41,-167.92 3274.06,-76 3285.79,-55.51 3261.97,-36.53 3240.54,-24.43"/>
<polygon fill="midnightblue" stroke="midnightblue" points="3242.09,-21.29 3231.61,-19.68 3238.8,-27.47 3242.09,-21.29"/>
</g>
<!-- Node31&#45;&gt;Node9 -->
<g id="edge61" class="edge">
<title>Node31&#45;&gt;Node9</title>
<path fill="none" stroke="midnightblue" d="M1934.65,-229.98C1948.39,-227.84 1963.27,-225.68 1977.06,-224 2144.3,-203.68 2343.18,-188.96 2437.38,-182.56"/>
<polygon fill="midnightblue" stroke="midnightblue" points="2437.78,-186.04 2447.52,-181.87 2437.31,-179.06 2437.78,-186.04"/>
</g>
<!-- Node32&#45;&gt;Node8 -->
<g id="edge63" class="edge">
<title>Node32&#45;&gt;Node8</title>
<path fill="none" stroke="midnightblue" d="M1047.58,-229.86C1089.14,-195.72 1242.24,-69.99 1295.58,-26.17"/>
<polygon fill="midnightblue" stroke="midnightblue" points="1298.02,-28.7 1303.53,-19.65 1293.58,-23.29 1298.02,-28.7"/>
</g>
<!-- Node32&#45;&gt;Node9 -->
<g id="edge64" class="edge">
<title>Node32&#45;&gt;Node9</title>
<path fill="none" stroke="midnightblue" d="M1087.04,-229.99C1102.4,-227.67 1119.39,-225.41 1135.06,-224 1639.41,-178.48 2252.91,-177.67 2437.19,-178.58"/>
<polygon fill="midnightblue" stroke="midnightblue" points="2437.41,-182.09 2447.43,-178.64 2437.45,-175.09 2437.41,-182.09"/>
</g>
<!-- Node33&#45;&gt;Node9 -->
<g id="edge66" class="edge">
<title>Node33&#45;&gt;Node9</title>
<path fill="none" stroke="midnightblue" d="M2133.9,-229.98C2147.41,-228.01 2161.74,-225.92 2175.06,-224 2267.04,-210.73 2374.09,-195.6 2437.29,-186.7"/>
<polygon fill="midnightblue" stroke="midnightblue" points="2438.01,-190.13 2447.43,-185.27 2437.04,-183.2 2438.01,-190.13"/>
</g>
<!-- Node34&#45;&gt;Node8 -->
<g id="edge68" class="edge">
<title>Node34&#45;&gt;Node8</title>
<path fill="none" stroke="midnightblue" d="M1234.38,-224.27C1249.15,-184.73 1290.69,-73.55 1307.18,-29.4"/>
<polygon fill="midnightblue" stroke="midnightblue" points="1310.5,-30.52 1310.72,-19.93 1303.95,-28.07 1310.5,-30.52"/>
</g>
<!-- Node34&#45;&gt;Node9 -->
<g id="edge69" class="edge">
<title>Node34&#45;&gt;Node9</title>
<path fill="none" stroke="midnightblue" d="M1313.81,-224.97C1316.93,-224.62 1320.02,-224.29 1323.06,-224 1750.79,-182.91 2269.97,-179 2437.3,-178.88"/>
<polygon fill="midnightblue" stroke="midnightblue" points="2437.34,-182.38 2447.34,-178.88 2437.34,-175.38 2437.34,-182.38"/>
</g>
<!-- Node35&#45;&gt;Node9 -->
<g id="edge71" class="edge">
<title>Node35&#45;&gt;Node9</title>
<path fill="none" stroke="midnightblue" d="M2315.51,-224.47C2356.23,-213.99 2411.16,-199.84 2448.88,-190.12"/>
<polygon fill="midnightblue" stroke="midnightblue" points="2450.22,-193.39 2459.04,-187.51 2448.48,-186.61 2450.22,-193.39"/>
</g>
<!-- Node36&#45;&gt;Node8 -->
<g id="edge73" class="edge">
<title>Node36&#45;&gt;Node8</title>
<path fill="none" stroke="midnightblue" d="M1413.15,-229.86C1398.01,-196.43 1343.1,-75.13 1322.2,-28.99"/>
<polygon fill="midnightblue" stroke="midnightblue" points="1325.29,-27.32 1317.98,-19.65 1318.91,-30.2 1325.29,-27.32"/>
</g>
<!-- Node36&#45;&gt;Node9 -->
<g id="edge74" class="edge">
<title>Node36&#45;&gt;Node9</title>
<path fill="none" stroke="midnightblue" d="M1465.72,-229.98C1480.26,-227.71 1496.27,-225.48 1511.06,-224 1862.7,-188.92 2288.02,-181.14 2437.19,-179.46"/>
<polygon fill="midnightblue" stroke="midnightblue" points="2437.49,-182.95 2447.45,-179.35 2437.41,-175.95 2437.49,-182.95"/>
</g>
<!-- Node37&#45;&gt;Node9 -->
<g id="edge76" class="edge">
<title>Node37&#45;&gt;Node9</title>
<path fill="none" stroke="midnightblue" d="M2444.08,-229.98C2452.65,-220.87 2466.42,-206.24 2477.02,-194.98"/>
<polygon fill="midnightblue" stroke="midnightblue" points="2479.75,-197.19 2484.05,-187.51 2474.65,-192.39 2479.75,-197.19"/>
</g>
<!-- Node38&#45;&gt;Node8 -->
<g id="edge78" class="edge">
<title>Node38&#45;&gt;Node8</title>
<path fill="none" stroke="midnightblue" d="M700.52,-229.94C772.61,-203.66 997.27,-121.95 1184.06,-56 1217.01,-44.37 1254.76,-31.33 1281.06,-22.3"/>
<polygon fill="midnightblue" stroke="midnightblue" points="1282.22,-25.6 1290.54,-19.04 1279.95,-18.98 1282.22,-25.6"/>
</g>
<!-- Node38&#45;&gt;Node9 -->
<g id="edge79" class="edge">
<title>Node38&#45;&gt;Node9</title>
<path fill="none" stroke="midnightblue" d="M721.67,-229.93C735.52,-227.6 750.88,-225.35 765.06,-224 1100.98,-192.1 2180.54,-181.51 2437.02,-179.42"/>
<polygon fill="midnightblue" stroke="midnightblue" points="2437.23,-182.91 2447.21,-179.33 2437.18,-175.92 2437.23,-182.91"/>
</g>
<!-- Node39&#45;&gt;Node8 -->
<g id="edge81" class="edge">
<title>Node39&#45;&gt;Node8</title>
<path fill="none" stroke="midnightblue" d="M1583.43,-229.86C1541.41,-195.72 1386.66,-69.99 1332.74,-26.17"/>
<polygon fill="midnightblue" stroke="midnightblue" points="1334.67,-23.24 1324.7,-19.65 1330.26,-28.67 1334.67,-23.24"/>
</g>
<!-- Node39&#45;&gt;Node9 -->
<g id="edge82" class="edge">
<title>Node39&#45;&gt;Node9</title>
<path fill="none" stroke="midnightblue" d="M1640.06,-229.96C1653.55,-227.72 1668.36,-225.5 1682.06,-224 1964.9,-192.93 2305.78,-182.87 2436.95,-180.01"/>
<polygon fill="midnightblue" stroke="midnightblue" points="2437.21,-183.51 2447.14,-179.8 2437.06,-176.51 2437.21,-183.51"/>
</g>
<!-- Node40&#45;&gt;Node4 -->
<g id="edge93" class="edge">
<title>Node40&#45;&gt;Node4</title>
<path fill="none" stroke="midnightblue" d="M2932.15,-407.67C3021.96,-401.77 3162.21,-389.3 3210.06,-367 3335.97,-308.32 3409.87,-140.58 3431.41,-85.08"/>
<polygon fill="midnightblue" stroke="midnightblue" points="3434.76,-86.13 3435.02,-75.54 3428.21,-83.65 3434.76,-86.13"/>
</g>
<!-- Node40&#45;&gt;Node8 -->
<g id="edge92" class="edge">
<title>Node40&#45;&gt;Node8</title>
<path fill="none" stroke="midnightblue" d="M2773.79,-408.04C2556.76,-395.98 1957.91,-354.34 1791.06,-255 1754.78,-233.4 1734.06,-221.22 1734.06,-179 1734.06,-179 1734.06,-179 1734.06,-121 1734.06,-41.36 1447.92,-18.25 1348,-12.61"/>
<polygon fill="midnightblue" stroke="midnightblue" points="1348.02,-9.1 1337.84,-12.06 1347.64,-16.09 1348.02,-9.1"/>
</g>
<!-- Node40&#45;&gt;Node12 -->
<g id="edge85" class="edge">
<title>Node40&#45;&gt;Node12</title>
<path fill="none" stroke="midnightblue" d="M2932.13,-404.74C2963.58,-398.62 2998.52,-387.42 3025.06,-367 3055.82,-343.33 3047.39,-323.85 3068.06,-291 3100.36,-239.66 3146.06,-239.66 3146.06,-179 3146.06,-179 3146.06,-179 3146.06,-121 3146.06,-95.54 2983.61,-45.05 2906.18,-22.43"/>
<polygon fill="midnightblue" stroke="midnightblue" points="2906.87,-18.98 2896.29,-19.55 2904.92,-25.7 2906.87,-18.98"/>
</g>
<!-- Node40&#45;&gt;Node18 -->
<g id="edge89" class="edge">
<title>Node40&#45;&gt;Node18</title>
<path fill="none" stroke="midnightblue" d="M2932.52,-406.62C2970.32,-400.99 3014.65,-389.65 3049.06,-367 3055.5,-362.76 3126.58,-261.27 3131.06,-255 3155,-221.5 3184.06,-220.18 3184.06,-179 3184.06,-179 3184.06,-179 3184.06,-121 3184.06,-97.44 3032.16,-43.18 2966.6,-20.86"/>
<polygon fill="midnightblue" stroke="midnightblue" points="2967.45,-17.46 2956.86,-17.57 2965.21,-24.09 2967.45,-17.46"/>
</g>
<!-- Node40&#45;&gt;Node20 -->
<g id="edge94" class="edge">
<title>Node40&#45;&gt;Node20</title>
<path fill="none" stroke="midnightblue" d="M2932.22,-408.65C2975.84,-403.74 3029.43,-392.45 3071.06,-367 3162.5,-311.1 3222.06,-286.17 3222.06,-179 3222.06,-179 3222.06,-179 3222.06,-121 3222.06,-99.92 3092.54,-47.29 3030.48,-23.29"/>
<polygon fill="midnightblue" stroke="midnightblue" points="3031.36,-19.88 3020.77,-19.55 3028.85,-26.41 3031.36,-19.88"/>
</g>
<!-- Node40&#45;&gt;Node21 -->
<g id="edge95" class="edge">
<title>Node40&#45;&gt;Node21</title>
<path fill="none" stroke="midnightblue" d="M2932.07,-406.47C2982.29,-400.86 3047.82,-389.6 3102.06,-367 3170.92,-338.31 3188.5,-318.85 3227.06,-255 3246.1,-223.48 3260.06,-215.82 3260.06,-179 3260.06,-179 3260.06,-179 3260.06,-121 3260.06,-47.4 3153.94,-22.58 3097.47,-14.59"/>
<polygon fill="midnightblue" stroke="midnightblue" points="3097.59,-11.07 3087.22,-13.24 3096.68,-18.01 3097.59,-11.07"/>
</g>
<!-- Node40&#45;&gt;Node27 -->
<g id="edge88" class="edge">
<title>Node40&#45;&gt;Node27</title>
<path fill="none" stroke="midnightblue" d="M2932.13,-409.76C2990.74,-405.69 3071.49,-394.91 3137.06,-367 3175.01,-350.84 3182.13,-340.39 3211.06,-311 3294.29,-226.44 3349.4,-158.74 3290.06,-56 3280.12,-38.8 3260.84,-27.59 3243.93,-20.66"/>
<polygon fill="midnightblue" stroke="midnightblue" points="3244.93,-17.29 3234.34,-17.06 3242.47,-23.85 3244.93,-17.29"/>
</g>
<!-- Node41 -->
<g id="node41" class="node">
<title>Node41</title>
<g id="a_node41"><a xlink:title=" ">
<polygon fill="none" stroke="#bfbfbf" points="2824.56,-347.5 2824.56,-366.5 2859.56,-366.5 2859.56,-347.5 2824.56,-347.5"/>
<text text-anchor="middle" x="2842.06" y="-354.5" font-family="serif" font-size="10.00">any</text>
</a>
</g>
</g>
<!-- Node40&#45;&gt;Node41 -->
<g id="edge86" class="edge">
<title>Node40&#45;&gt;Node41</title>
<path fill="none" stroke="midnightblue" d="M2851.24,-403.08C2849.79,-395.93 2847.69,-385.64 2845.87,-376.69"/>
<polygon fill="midnightblue" stroke="midnightblue" points="2849.27,-375.85 2843.84,-366.75 2842.41,-377.25 2849.27,-375.85"/>
</g>
<!-- Node42 -->
<g id="node42" class="node">
<title>Node42</title>
<g id="a_node42"><a xlink:title=" ">
<polygon fill="none" stroke="#bfbfbf" points="2878.06,-347.5 2878.06,-366.5 2940.06,-366.5 2940.06,-347.5 2878.06,-347.5"/>
<text text-anchor="middle" x="2909.06" y="-354.5" font-family="serif" font-size="10.00">concepts</text>
</a>
</g>
</g>
<!-- Node40&#45;&gt;Node42 -->
<g id="edge87" class="edge">
<title>Node40&#45;&gt;Node42</title>
<path fill="none" stroke="midnightblue" d="M2862.06,-403.32C2870.25,-395.42 2882.57,-383.55 2892.53,-373.94"/>
<polygon fill="midnightblue" stroke="midnightblue" points="2895.13,-376.29 2899.9,-366.83 2890.27,-371.26 2895.13,-376.29"/>
</g>
<!-- Node43 -->
<g id="node43" class="node">
<title>Node43</title>
<g id="a_node43"><a xlink:title=" ">
<polygon fill="none" stroke="#bfbfbf" points="2958.06,-347.5 2958.06,-366.5 3016.06,-366.5 3016.06,-347.5 2958.06,-347.5"/>
<text text-anchor="middle" x="2987.06" y="-354.5" font-family="serif" font-size="10.00">optional</text>
</a>
</g>
</g>
<!-- Node40&#45;&gt;Node43 -->
<g id="edge90" class="edge">
<title>Node40&#45;&gt;Node43</title>
<path fill="none" stroke="midnightblue" d="M2874.29,-403.44C2896.44,-394.52 2931.38,-380.44 2956.5,-370.32"/>
<polygon fill="midnightblue" stroke="midnightblue" points="2957.96,-373.5 2965.93,-366.52 2955.34,-367.01 2957.96,-373.5"/>
</g>
<!-- Node44 -->
<g id="node44" class="node">
<title>Node44</title>
<g id="a_node44"><a xlink:title=" ">
<polygon fill="none" stroke="#bfbfbf" points="2601.06,-347.5 2601.06,-366.5 2633.06,-366.5 2633.06,-347.5 2601.06,-347.5"/>
<text text-anchor="middle" x="2617.06" y="-354.5" font-family="serif" font-size="10.00">set</text>
</a>
</g>
</g>
<!-- Node40&#45;&gt;Node44 -->
<g id="edge91" class="edge">
<title>Node40&#45;&gt;Node44</title>
<path fill="none" stroke="midnightblue" d="M2803.99,-403.49C2763.12,-395.95 2703.27,-383.92 2642.8,-366.91"/>
<polygon fill="midnightblue" stroke="midnightblue" points="2643.67,-363.52 2633.09,-364.13 2641.75,-370.25 2643.67,-363.52"/>
</g>
<!-- Node45 -->
<g id="node45" class="node">
<title>Node45</title>
<g id="a_node45"><a xlink:href="Parameter_8hpp.html" target="_top" xlink:title="Parameter class.">
<polygon fill="none" stroke="black" points="3300.06,-347.5 3300.06,-366.5 3452.06,-366.5 3452.06,-347.5 3300.06,-347.5"/>
<text text-anchor="middle" x="3376.06" y="-354.5" font-family="serif" font-size="10.00">Parameters/Parameter.hpp</text>
</a>
</g>
</g>
<!-- Node40&#45;&gt;Node45 -->
<g id="edge96" class="edge">
<title>Node40&#45;&gt;Node45</title>
<path fill="none" stroke="midnightblue" d="M2932.21,-403.83C3028.56,-393.88 3190.68,-377.14 3290.04,-366.88"/>
<polygon fill="midnightblue" stroke="midnightblue" points="3290.46,-370.36 3300.05,-365.85 3289.74,-363.39 3290.46,-370.36"/>
</g>
<!-- Node47 -->
<g id="node47" class="node">
<title>Node47</title>
<g id="a_node47"><a xlink:href="Parameters_8tpp.html" target="_top" xlink:title=" ">
<polygon fill="none" stroke="black" points="2651.56,-347.5 2651.56,-366.5 2806.56,-366.5 2806.56,-347.5 2651.56,-347.5"/>
<text text-anchor="middle" x="2729.06" y="-354.5" font-family="serif" font-size="10.00">Parameters/Parameters.tpp</text>
</a>
</g>
</g>
<!-- Node40&#45;&gt;Node47 -->
<g id="edge102" class="edge">
<title>Node40&#45;&gt;Node47</title>
<path fill="none" stroke="midnightblue" d="M2833.41,-403.44C2813.1,-394.6 2781.16,-380.69 2757.96,-370.59"/>
<polygon fill="midnightblue" stroke="midnightblue" points="2759.18,-367.3 2748.62,-366.52 2756.39,-373.72 2759.18,-367.3"/>
</g>
<!-- Node45&#45;&gt;Node4 -->
<g id="edge98" class="edge">
<title>Node45&#45;&gt;Node4</title>
<path fill="none" stroke="midnightblue" d="M3383.15,-347.19C3389.87,-338.46 3399.85,-324.47 3406.06,-311 3419.7,-281.43 3426.06,-273.07 3426.06,-240.5 3426.06,-240.5 3426.06,-240.5 3426.06,-177 3426.06,-144.76 3431.22,-107.51 3434.77,-85.68"/>
<polygon fill="midnightblue" stroke="midnightblue" points="3438.27,-85.97 3436.49,-75.52 3431.37,-84.8 3438.27,-85.97"/>
</g>
<!-- Node45&#45;&gt;Node5 -->
<g id="edge100" class="edge">
<title>Node45&#45;&gt;Node5</title>
<path fill="none" stroke="midnightblue" d="M3388.57,-347.47C3455.97,-301.52 3775.98,-83.32 3861.18,-25.23"/>
<polygon fill="midnightblue" stroke="midnightblue" points="3863.25,-28.06 3869.54,-19.54 3859.3,-22.28 3863.25,-28.06"/>
</g>
<!-- Node45&#45;&gt;Node6 -->
<g id="edge101" class="edge">
<title>Node45&#45;&gt;Node6</title>
<path fill="none" stroke="midnightblue" d="M3299.83,-353.6C3014.15,-344.61 2009.15,-312.99 1731.56,-304.25"/>
<polygon fill="midnightblue" stroke="midnightblue" points="1731.32,-300.74 1721.22,-303.92 1731.1,-307.74 1731.32,-300.74"/>
</g>
<!-- Node45&#45;&gt;Node8 -->
<g id="edge97" class="edge">
<title>Node45&#45;&gt;Node8</title>
<path fill="none" stroke="midnightblue" d="M3361.68,-347.47C3320.61,-323.55 3198.61,-255.52 3088.06,-224 2774.43,-134.58 2683.07,-177 2360.06,-132 2137.87,-101.05 2083.87,-82.1 1861.06,-56 1667.29,-33.3 1433.58,-18.13 1347.76,-12.96"/>
<polygon fill="midnightblue" stroke="midnightblue" points="1347.77,-9.45 1337.58,-12.35 1347.35,-16.44 1347.77,-9.45"/>
</g>
<!-- Node46 -->
<g id="node46" class="node">
<title>Node46</title>
<g id="a_node46"><a xlink:title=" ">
<polygon fill="none" stroke="#bfbfbf" points="3338.56,-291.5 3338.56,-310.5 3397.56,-310.5 3397.56,-291.5 3338.56,-291.5"/>
<text text-anchor="middle" x="3368.06" y="-298.5" font-family="serif" font-size="10.00">typeinfo</text>
</a>
</g>
</g>
<!-- Node45&#45;&gt;Node46 -->
<g id="edge99" class="edge">
<title>Node45&#45;&gt;Node46</title>
<path fill="none" stroke="midnightblue" d="M3374.74,-347.08C3373.68,-339.93 3372.15,-329.64 3370.83,-320.69"/>
<polygon fill="midnightblue" stroke="midnightblue" points="3374.28,-320.13 3369.36,-310.75 3367.36,-321.16 3374.28,-320.13"/>
</g>
<!-- Node48&#45;&gt;Node3 -->
<g id="edge104" class="edge">
<title>Node48&#45;&gt;Node3</title>
<path fill="none" stroke="midnightblue" d="M1534.62,-523.4C1274.07,-521.01 406.88,-510.71 357.06,-479 213.94,-387.9 162.87,-256.32 252.06,-112 263.17,-94.03 283.86,-83 302.61,-76.36"/>
<polygon fill="midnightblue" stroke="midnightblue" points="303.73,-79.67 312.17,-73.27 301.58,-73.01 303.73,-79.67"/>
</g>
<!-- Node48&#45;&gt;Node6 -->
<g id="edge106" class="edge">
<title>Node48&#45;&gt;Node6</title>
<path fill="none" stroke="midnightblue" d="M1535,-524.12C1274.83,-524.18 406.78,-521.22 366.06,-479 279.14,-388.87 1305.67,-322.5 1588.83,-305.99"/>
<polygon fill="midnightblue" stroke="midnightblue" points="1589.21,-309.47 1598.99,-305.4 1588.8,-302.48 1589.21,-309.47"/>
</g>
<!-- Node48&#45;&gt;Node8 -->
<g id="edge105" class="edge">
<title>Node48&#45;&gt;Node8</title>
<path fill="none" stroke="midnightblue" d="M1534.82,-523.93C1236.39,-523.39 124.92,-518.69 62.06,-479 10.97,-446.74 0.06,-418.43 0.06,-358 0.06,-358 0.06,-358 0.06,-121 0.06,-90.2 -0.9,-74.04 24.06,-56 76.44,-18.13 1082.51,-11.97 1280.43,-11.12"/>
<polygon fill="midnightblue" stroke="midnightblue" points="1280.53,-14.62 1290.52,-11.08 1280.5,-7.62 1280.53,-14.62"/>
</g>
<!-- Node48&#45;&gt;Node9 -->
<g id="edge115" class="edge">
<title>Node48&#45;&gt;Node9</title>
<path fill="none" stroke="midnightblue" d="M1623.82,-515.31C1688.39,-480.18 1939.84,-347.8 2164.06,-291 2242.21,-271.2 2470.96,-314.77 2525.06,-255 2540.82,-237.59 2523.05,-211.47 2508.11,-194.83"/>
<polygon fill="midnightblue" stroke="midnightblue" points="2510.59,-192.36 2501.17,-187.51 2505.51,-197.17 2510.59,-192.36"/>
</g>
<!-- Node48&#45;&gt;Node22 -->
<g id="edge116" class="edge">
<title>Node48&#45;&gt;Node22</title>
<path fill="none" stroke="midnightblue" d="M1681.36,-515.81C1684.3,-515.53 1687.21,-515.26 1690.06,-515 2043.73,-483.18 2132.65,-480.99 2487.06,-459 2784.25,-440.56 2860.16,-456.26 3156.06,-423 3302.15,-406.58 3362.77,-452.93 3482.06,-367 3544.06,-322.34 3638.87,-95.85 3665.74,-29.37"/>
<polygon fill="midnightblue" stroke="midnightblue" points="3669.1,-30.4 3669.57,-19.81 3662.6,-27.79 3669.1,-30.4"/>
</g>
<!-- Node48&#45;&gt;Node40 -->
<g id="edge107" class="edge">
<title>Node48&#45;&gt;Node40</title>
<path fill="none" stroke="midnightblue" d="M1644.64,-515.49C1707.77,-501.17 1841.46,-472.51 1956.06,-459 2250.21,-424.31 2601.7,-416.32 2763.49,-414.51"/>
<polygon fill="midnightblue" stroke="midnightblue" points="2763.91,-418.01 2773.87,-414.4 2763.83,-411.01 2763.91,-418.01"/>
</g>
<!-- Node49 -->
<g id="node49" class="node">
<title>Node49</title>
<g id="a_node49"><a xlink:href="SolverBase_8hpp.html" target="_top" xlink:title="Base class for Hypre, Iterative, Direct and Non Linear Solvers.">
<polygon fill="none" stroke="black" points="1965.56,-459.5 1965.56,-478.5 2102.56,-478.5 2102.56,-459.5 1965.56,-459.5"/>
<text text-anchor="middle" x="2034.06" y="-466.5" font-family="serif" font-size="10.00">Solvers/SolverBase.hpp</text>
</a>
</g>
</g>
<!-- Node48&#45;&gt;Node49 -->
<g id="edge108" class="edge">
<title>Node48&#45;&gt;Node49</title>
<path fill="none" stroke="midnightblue" d="M1675.56,-515.44C1752.06,-505.75 1876.51,-489.97 1956.82,-479.79"/>
<polygon fill="midnightblue" stroke="midnightblue" points="1957.39,-483.25 1966.87,-478.52 1956.51,-476.3 1957.39,-483.25"/>
</g>
<!-- Node49&#45;&gt;Node3 -->
<g id="edge109" class="edge">
<title>Node49&#45;&gt;Node3</title>
<path fill="none" stroke="midnightblue" d="M1987.55,-459.5C1942.13,-450.99 1871.11,-437.17 1810.06,-423 1681.11,-393.06 1652.39,-370.24 1522.06,-347 1097.48,-271.28 951.81,-426.42 556.06,-255 514.74,-237.1 509.27,-222.27 480.06,-188 454.15,-157.59 461.68,-138.81 432.06,-112 416.32,-97.76 395.25,-86.9 377.45,-79.42"/>
<polygon fill="midnightblue" stroke="midnightblue" points="378.54,-76.08 367.96,-75.61 375.94,-82.58 378.54,-76.08"/>
</g>
<!-- Node49&#45;&gt;Node6 -->
<g id="edge111" class="edge">
<title>Node49&#45;&gt;Node6</title>
<path fill="none" stroke="midnightblue" d="M2028.23,-459.19C2012.61,-436.4 1967.32,-375.3 1913.06,-347 1856.51,-317.51 1784.21,-306.92 1731.4,-303.32"/>
<polygon fill="midnightblue" stroke="midnightblue" points="1731.3,-299.81 1721.1,-302.69 1730.87,-306.8 1731.3,-299.81"/>
</g>
<!-- Node49&#45;&gt;Node8 -->
<g id="edge110" class="edge">
<title>Node49&#45;&gt;Node8</title>
<path fill="none" stroke="midnightblue" d="M1965.37,-467.43C1688.98,-463.88 660.62,-438.38 404.06,-255 329.75,-201.88 322.1,-165.34 303.06,-76 301.21,-67.31 296.92,-62.42 303.06,-56 337.58,-19.91 1108.32,-12.43 1280.26,-11.21"/>
<polygon fill="midnightblue" stroke="midnightblue" points="1280.5,-14.71 1290.48,-11.14 1280.46,-7.71 1280.5,-14.71"/>
</g>
<!-- Node49&#45;&gt;Node9 -->
<g id="edge113" class="edge">
<title>Node49&#45;&gt;Node9</title>
<path fill="none" stroke="midnightblue" d="M2046.91,-459.27C2098.37,-424.34 2287.57,-296.22 2302.06,-291 2371.88,-265.84 2584.49,-310.23 2634.06,-255 2643.26,-244.75 2642.2,-235.12 2634.06,-224 2623.38,-209.41 2581.99,-197.33 2546.63,-189.37"/>
<polygon fill="midnightblue" stroke="midnightblue" points="2547.36,-185.95 2536.85,-187.24 2545.87,-192.79 2547.36,-185.95"/>
</g>
<!-- Node49&#45;&gt;Node22 -->
<g id="edge114" class="edge">
<title>Node49&#45;&gt;Node22</title>
<path fill="none" stroke="midnightblue" d="M2102.76,-465.73C2381.38,-456.21 3414.54,-417.58 3461.06,-367 3499.13,-325.61 3464.06,-296.74 3464.06,-240.5 3464.06,-240.5 3464.06,-240.5 3464.06,-177 3464.06,-116.57 3479.73,-94.8 3526.06,-56 3554.92,-31.83 3596.61,-20.63 3628.22,-15.45"/>
<polygon fill="midnightblue" stroke="midnightblue" points="3629.15,-18.85 3638.52,-13.91 3628.12,-11.93 3629.15,-18.85"/>
</g>
<!-- Node49&#45;&gt;Node40 -->
<g id="edge112" class="edge">
<title>Node49&#45;&gt;Node40</title>
<path fill="none" stroke="midnightblue" d="M2102.88,-460.29C2107.68,-459.83 2112.44,-459.39 2117.06,-459 2350.08,-439.25 2625.32,-424.77 2763.86,-418.1"/>
<polygon fill="midnightblue" stroke="midnightblue" points="2764.18,-421.59 2774.01,-417.61 2763.85,-414.6 2764.18,-421.59"/>
</g>
<!-- Node50&#45;&gt;Node3 -->
<g id="edge118" class="edge">
<title>Node50&#45;&gt;Node3</title>
<path fill="none" stroke="midnightblue" d="M2486.65,-515.46C2358.83,-487.31 1935.92,-396.49 1582.06,-347 1362.58,-316.3 788.11,-352.42 589.06,-255 549.94,-235.86 491.04,-136.53 455.06,-112 432.57,-96.66 404.07,-85.36 381.32,-77.92"/>
<polygon fill="midnightblue" stroke="midnightblue" points="382.23,-74.54 371.64,-74.87 380.12,-81.21 382.23,-74.54"/>
</g>
<!-- Node50&#45;&gt;Node6 -->
<g id="edge120" class="edge">
<title>Node50&#45;&gt;Node6</title>
<path fill="none" stroke="midnightblue" d="M2507.1,-515.47C2478.94,-502.29 2422.52,-476.66 2373.06,-459 2204.43,-398.8 2161.21,-384.23 1986.06,-347 1899.33,-328.56 1797.94,-315.94 1731.55,-308.86"/>
<polygon fill="midnightblue" stroke="midnightblue" points="1731.51,-305.34 1721.2,-307.77 1730.78,-312.3 1731.51,-305.34"/>
</g>
<!-- Node50&#45;&gt;Node8 -->
<g id="edge119" class="edge">
<title>Node50&#45;&gt;Node8</title>
<path fill="none" stroke="midnightblue" d="M2511.91,-515.38C2491.26,-502.09 2449.68,-476.31 2412.06,-459 2344.38,-427.85 2324.66,-426.79 2254.06,-403 2202.88,-385.75 1828,-294.4 1791.06,-255 1767.25,-229.6 1772.06,-213.82 1772.06,-179 1772.06,-179 1772.06,-179 1772.06,-121 1772.06,-33.74 1453.74,-15.52 1347.86,-11.87"/>
<polygon fill="midnightblue" stroke="midnightblue" points="1347.83,-8.37 1337.72,-11.55 1347.6,-15.37 1347.83,-8.37"/>
</g>
<!-- Node50&#45;&gt;Node9 -->
<g id="edge123" class="edge">
<title>Node50&#45;&gt;Node9</title>
<path fill="none" stroke="midnightblue" d="M2553.07,-515.4C2570.23,-508.51 2590.81,-496.98 2601.06,-479 2631.55,-425.51 2521.09,-395.46 2559.06,-347 2600.27,-294.39 2644.13,-338.45 2705.06,-311 2753.23,-289.3 2820.59,-263.98 2786.06,-224 2751.98,-184.55 2611.34,-195.59 2546.7,-188.6"/>
<polygon fill="midnightblue" stroke="midnightblue" points="2547.02,-185.12 2536.65,-187.26 2546.09,-192.05 2547.02,-185.12"/>
</g>
<!-- Node50&#45;&gt;Node22 -->
<g id="edge124" class="edge">
<title>Node50&#45;&gt;Node22</title>
<path fill="none" stroke="midnightblue" d="M2600.8,-521.82C2776.49,-515.69 3224.82,-493.82 3592.06,-423 3699.35,-402.31 3806.06,-411.26 3806.06,-302 3806.06,-302 3806.06,-302 3806.06,-177 3806.06,-116.57 3787.45,-98.05 3744.06,-56 3730.99,-43.34 3713.81,-32.33 3699.62,-24.38"/>
<polygon fill="midnightblue" stroke="midnightblue" points="3701.27,-21.29 3690.81,-19.6 3697.93,-27.44 3701.27,-21.29"/>
</g>
<!-- Node50&#45;&gt;Node40 -->
<g id="edge121" class="edge">
<title>Node50&#45;&gt;Node40</title>
<path fill="none" stroke="midnightblue" d="M2573.08,-515.5C2611.98,-507.93 2667.86,-495.5 2715.06,-479 2756.03,-464.68 2801.09,-442.05 2828.22,-427.63"/>
<polygon fill="midnightblue" stroke="midnightblue" points="2830.22,-430.53 2837.37,-422.72 2826.9,-424.37 2830.22,-430.53"/>
</g>
<!-- Node50&#45;&gt;Node49 -->
<g id="edge122" class="edge">
<title>Node50&#45;&gt;Node49</title>
<path fill="none" stroke="midnightblue" d="M2449.42,-515.68C2358.15,-505.64 2205.45,-488.85 2112.81,-478.66"/>
<polygon fill="midnightblue" stroke="midnightblue" points="2112.98,-475.16 2102.65,-477.54 2112.21,-482.12 2112.98,-475.16"/>
</g>
<!-- Node51&#45;&gt;Node3 -->
<g id="edge126" class="edge">
<title>Node51&#45;&gt;Node3</title>
<path fill="none" stroke="midnightblue" d="M1699.42,-515.73C1696.26,-515.46 1693.13,-515.22 1690.06,-515 1620.87,-510.12 501.94,-514.02 442.06,-479 345.63,-422.61 340.77,-365.98 328.06,-255 320.83,-191.86 318.51,-174.83 328.06,-112 329.43,-103 332.25,-93.33 335.01,-85.26"/>
<polygon fill="midnightblue" stroke="midnightblue" points="338.33,-86.37 338.46,-75.78 331.75,-83.98 338.33,-86.37"/>
</g>
<!-- Node51&#45;&gt;Node6 -->
<g id="edge128" class="edge">
<title>Node51&#45;&gt;Node6</title>
<path fill="none" stroke="midnightblue" d="M1703.02,-515.5C1612,-503.8 1460.1,-483.66 1456.06,-479 1417.63,-434.67 1419.31,-392.73 1456.06,-347 1472.64,-326.36 1536.68,-314.62 1588.64,-308.35"/>
<polygon fill="midnightblue" stroke="midnightblue" points="1589.32,-311.8 1598.85,-307.17 1588.51,-304.84 1589.32,-311.8"/>
</g>
<!-- Node51&#45;&gt;Node8 -->
<g id="edge127" class="edge">
<title>Node51&#45;&gt;Node8</title>
<path fill="none" stroke="midnightblue" d="M1699.42,-515.71C1696.26,-515.44 1693.13,-515.21 1690.06,-515 1601.9,-509.06 171.98,-530.33 100.06,-479 74.99,-461.11 76.06,-444.8 76.06,-414 76.06,-414 76.06,-414 76.06,-356 76.06,-275.54 38.06,-259.46 38.06,-179 38.06,-179 38.06,-179 38.06,-121 38.06,-81.08 63.66,-72.39 100.06,-56 210.19,-6.42 1095.19,-9.54 1280.22,-10.74"/>
<polygon fill="midnightblue" stroke="midnightblue" points="1280.41,-14.24 1290.43,-10.81 1280.46,-7.24 1280.41,-14.24"/>
</g>
<!-- Node51&#45;&gt;Node9 -->
<g id="edge131" class="edge">
<title>Node51&#45;&gt;Node9</title>
<path fill="none" stroke="midnightblue" d="M1782.65,-515.27C1834.26,-479.98 2035.83,-347.09 2223.06,-291 2294.78,-269.51 2508.02,-310.7 2558.06,-255 2567.27,-244.75 2564.5,-236.18 2558.06,-224 2550.64,-209.95 2536.64,-199.47 2523.44,-192.17"/>
<polygon fill="midnightblue" stroke="midnightblue" points="2525.02,-189.04 2514.52,-187.62 2521.84,-195.28 2525.02,-189.04"/>
</g>
<!-- Node51&#45;&gt;Node22 -->
<g id="edge132" class="edge">
<title>Node51&#45;&gt;Node22</title>
<path fill="none" stroke="midnightblue" d="M1840.87,-518.41C1856.41,-517.24 1872.79,-516.04 1888.06,-515 2021.1,-505.93 2358.62,-514.86 2487.06,-479 2505.44,-473.87 2506.63,-463.94 2525.06,-459 2721.61,-406.31 3245.24,-481.78 3440.06,-423 3451.52,-419.54 3524.35,-376.15 3532.06,-367 3622.87,-259.31 3659.95,-85.98 3670.03,-29.47"/>
<polygon fill="midnightblue" stroke="midnightblue" points="3673.5,-29.95 3671.74,-19.51 3666.6,-28.77 3673.5,-29.95"/>
</g>
<!-- Node51&#45;&gt;Node40 -->
<g id="edge129" class="edge">
<title>Node51&#45;&gt;Node40</title>
<path fill="none" stroke="midnightblue" d="M1833.39,-515.48C1949.5,-499.93 2192.32,-467.74 2277.06,-459 2448.97,-441.28 2650.4,-427.03 2763.73,-419.6"/>
<polygon fill="midnightblue" stroke="midnightblue" points="2764,-423.09 2773.75,-418.95 2763.55,-416.11 2764,-423.09"/>
</g>
<!-- Node51&#45;&gt;Node49 -->
<g id="edge130" class="edge">
<title>Node51&#45;&gt;Node49</title>
<path fill="none" stroke="midnightblue" d="M1811.89,-515.44C1858.14,-505.98 1932.67,-490.74 1982.5,-480.55"/>
<polygon fill="midnightblue" stroke="midnightblue" points="1983.33,-483.95 1992.42,-478.52 1981.93,-477.09 1983.33,-483.95"/>
</g>
<!-- Node52&#45;&gt;Node3 -->
<g id="edge134" class="edge">
<title>Node52&#45;&gt;Node3</title>
<path fill="none" stroke="midnightblue" d="M2273.22,-518.51C2174.44,-511.14 1997.68,-496.88 1847.06,-479 1786.83,-471.85 1772.1,-467.63 1712.06,-459 1594.13,-442.05 765.32,-341.15 650.06,-311 584.03,-293.73 562.93,-294.2 507.06,-255 436.9,-205.77 376.85,-120.71 353.02,-84.32"/>
<polygon fill="midnightblue" stroke="midnightblue" points="355.88,-82.3 347.52,-75.8 350,-86.1 355.88,-82.3"/>
</g>
<!-- Node52&#45;&gt;Node6 -->
<g id="edge136" class="edge">
<title>Node52&#45;&gt;Node6</title>
<path fill="none" stroke="midnightblue" d="M2334.32,-515.41C2281.07,-486.71 2102.09,-393.41 1943.06,-347 1872.55,-326.42 1789.25,-314.61 1731.35,-308.3"/>
<polygon fill="midnightblue" stroke="midnightblue" points="1731.52,-304.8 1721.21,-307.22 1730.78,-311.76 1731.52,-304.8"/>
</g>
<!-- Node52&#45;&gt;Node8 -->
<g id="edge135" class="edge">
<title>Node52&#45;&gt;Node8</title>
<path fill="none" stroke="midnightblue" d="M2273.28,-516.35C2193.78,-508.16 2066.02,-494.28 1956.06,-479 1879.83,-468.41 638.88,-313.65 589.06,-255 492.4,-141.21 1124.85,-39.07 1280.18,-15.9"/>
<polygon fill="midnightblue" stroke="midnightblue" points="1281.15,-19.3 1290.53,-14.37 1280.12,-12.37 1281.15,-19.3"/>
</g>
<!-- Node52&#45;&gt;Node9 -->
<g id="edge139" class="edge">
<title>Node52&#45;&gt;Node9</title>
<path fill="none" stroke="midnightblue" d="M2357.94,-515.24C2383.17,-487.58 2465.17,-400.72 2547.06,-347 2588.13,-320.05 2721.52,-296.34 2748.06,-255 2824.67,-135.68 2779.49,-227.7 2546.8,-188.96"/>
<polygon fill="midnightblue" stroke="midnightblue" points="2547.11,-185.46 2536.66,-187.21 2545.91,-192.36 2547.11,-185.46"/>
</g>
<!-- Node52&#45;&gt;Node22 -->
<g id="edge140" class="edge">
<title>Node52&#45;&gt;Node22</title>
<path fill="none" stroke="midnightblue" d="M2426.65,-516.25C2431.18,-515.82 2435.68,-515.4 2440.06,-515 2501.9,-509.35 3494.44,-440.37 3554.06,-423 3572.38,-417.66 3574.45,-410.35 3592.06,-403 3641.1,-382.55 3660.97,-395.11 3706.06,-367 3739.94,-345.88 3768.06,-341.92 3768.06,-302 3768.06,-302 3768.06,-302 3768.06,-177 3768.06,-114.74 3717.1,-54.64 3689.83,-26.93"/>
<polygon fill="midnightblue" stroke="midnightblue" points="3692.09,-24.24 3682.52,-19.7 3687.17,-29.22 3692.09,-24.24"/>
</g>
<!-- Node52&#45;&gt;Node40 -->
<g id="edge137" class="edge">
<title>Node52&#45;&gt;Node40</title>
<path fill="none" stroke="midnightblue" d="M2389.11,-515.46C2479.83,-495.62 2704.63,-446.46 2804.23,-424.68"/>
<polygon fill="midnightblue" stroke="midnightblue" points="2805.01,-428.09 2814.03,-422.53 2803.52,-421.25 2805.01,-428.09"/>
</g>
<!-- Node52&#45;&gt;Node49 -->
<g id="edge138" class="edge">
<title>Node52&#45;&gt;Node49</title>
<path fill="none" stroke="midnightblue" d="M2299.99,-515.44C2244.05,-505.89 2153.55,-490.42 2093.92,-480.23"/>
<polygon fill="midnightblue" stroke="midnightblue" points="2094.34,-476.75 2083.9,-478.52 2093.16,-483.65 2094.34,-476.75"/>
</g>
<!-- Node53&#45;&gt;Node3 -->
<g id="edge142" class="edge">
<title>Node53&#45;&gt;Node3</title>
<path fill="none" stroke="midnightblue" d="M2175.83,-579.16C1852.32,-574.84 498.01,-552.48 325.06,-479 209.6,-429.95 192.99,-348.96 204.06,-224 208.65,-172.18 201.34,-148.85 238.06,-112 255.56,-94.44 281.04,-83.26 302.4,-76.44"/>
<polygon fill="midnightblue" stroke="midnightblue" points="303.6,-79.73 312.19,-73.52 301.6,-73.02 303.6,-79.73"/>
</g>
<!-- Node53&#45;&gt;Node6 -->
<g id="edge143" class="edge">
<title>Node53&#45;&gt;Node6</title>
<path fill="none" stroke="midnightblue" d="M2175.75,-574.18C2087.49,-566.27 1940.17,-551.23 1888.06,-535 1886.45,-534.5 1781.42,-480 1780.06,-479 1727.16,-440.28 1714.74,-424.94 1684.06,-367 1676.14,-352.05 1669.68,-333.91 1665.47,-320.6"/>
<polygon fill="midnightblue" stroke="midnightblue" points="1668.72,-319.28 1662.47,-310.73 1662.03,-321.31 1668.72,-319.28"/>
</g>
<!-- Node53&#45;&gt;Node9 -->
<g id="edge165" class="edge">
<title>Node53&#45;&gt;Node9</title>
<path fill="none" stroke="midnightblue" d="M2245.73,-571.17C2247.13,-557.82 2251.39,-532.24 2264.06,-515 2343.75,-406.52 2402.25,-418.87 2516.06,-347 2549.77,-325.71 2650.39,-289.67 2670.06,-255 2676.86,-243.02 2678.52,-234.87 2670.06,-224 2662.32,-214.06 2596.24,-199.23 2546.84,-189.35"/>
<polygon fill="midnightblue" stroke="midnightblue" points="2547.38,-185.89 2536.89,-187.38 2546.02,-192.75 2547.38,-185.89"/>
</g>
<!-- Node53&#45;&gt;Node22 -->
<g id="edge166" class="edge">
<title>Node53&#45;&gt;Node22</title>
<path fill="none" stroke="midnightblue" d="M2314.43,-573.46C2407.11,-564.72 2576.45,-548.73 2721.06,-535 2974.79,-510.9 3844.06,-556.87 3844.06,-302 3844.06,-302 3844.06,-302 3844.06,-177 3844.06,-113.49 3817.25,-96.17 3768.06,-56 3750.61,-41.75 3727.89,-30.77 3709.05,-23.23"/>
<polygon fill="midnightblue" stroke="midnightblue" points="3710.18,-19.92 3699.59,-19.6 3707.67,-26.46 3710.18,-19.92"/>
</g>
<!-- Node53&#45;&gt;Node40 -->
<g id="edge145" class="edge">
<title>Node53&#45;&gt;Node40</title>
<path fill="none" stroke="midnightblue" d="M2314.09,-576.57C2388,-571.71 2508.26,-560.41 2609.06,-535 2675.65,-518.21 2691.95,-510.32 2753.06,-479 2782.3,-464.01 2813.72,-442.63 2833.37,-428.54"/>
<polygon fill="midnightblue" stroke="midnightblue" points="2835.49,-431.33 2841.53,-422.63 2831.38,-425.66 2835.49,-431.33"/>
</g>
<!-- Node53&#45;&gt;Node45 -->
<g id="edge144" class="edge">
<title>Node53&#45;&gt;Node45</title>
<path fill="none" stroke="midnightblue" d="M2314.34,-575.25C2396.54,-568.97 2537.5,-556.15 2657.06,-535 2920.41,-488.41 3230.57,-400.65 3337.54,-369.4"/>
<polygon fill="midnightblue" stroke="midnightblue" points="3338.63,-372.73 3347.25,-366.56 3336.67,-366.01 3338.63,-372.73"/>
</g>
<!-- Node53&#45;&gt;Node48 -->
<g id="edge146" class="edge">
<title>Node53&#45;&gt;Node48</title>
<path fill="none" stroke="midnightblue" d="M2175.78,-575.02C2072.59,-567.46 1872.13,-552.23 1691.33,-535.1"/>
<polygon fill="midnightblue" stroke="midnightblue" points="1691.65,-531.61 1681.37,-534.15 1690.99,-538.58 1691.65,-531.61"/>
</g>
<!-- Node53&#45;&gt;Node50 -->
<g id="edge163" class="edge">
<title>Node53&#45;&gt;Node50</title>
<path fill="none" stroke="midnightblue" d="M2289.43,-571.44C2338.68,-561.94 2418.19,-546.61 2471.03,-536.42"/>
<polygon fill="midnightblue" stroke="midnightblue" points="2471.74,-539.85 2480.9,-534.52 2470.42,-532.97 2471.74,-539.85"/>
</g>
<!-- Node53&#45;&gt;Node51 -->
<g id="edge164" class="edge">
<title>Node53&#45;&gt;Node51</title>
<path fill="none" stroke="midnightblue" d="M2175.99,-572.15C2089.68,-562.34 1942.24,-545.57 1850.8,-535.18"/>
<polygon fill="midnightblue" stroke="midnightblue" points="1851.09,-531.69 1840.76,-534.04 1850.3,-538.65 1851.09,-531.69"/>
</g>
<!-- Node54 -->
<g id="node54" class="node">
<title>Node54</title>
<g id="a_node54"><a xlink:href="HPrecondBase_8hpp.html" target="_top" xlink:title="Base class for hypre preconditionners used in linear system involved in non linear algorithm.">
<polygon fill="none" stroke="black" points="1897.06,-515.5 1897.06,-534.5 2053.06,-534.5 2053.06,-515.5 1897.06,-515.5"/>
<text text-anchor="middle" x="1975.06" y="-522.5" font-family="serif" font-size="10.00">Solvers/HPrecondBase.hpp</text>
</a>
</g>
</g>
<!-- Node53&#45;&gt;Node54 -->
<g id="edge147" class="edge">
<title>Node53&#45;&gt;Node54</title>
<path fill="none" stroke="midnightblue" d="M2202.28,-571.44C2154.88,-561.96 2078.43,-546.67 2027.48,-536.48"/>
<polygon fill="midnightblue" stroke="midnightblue" points="2028.13,-533.05 2017.64,-534.52 2026.76,-539.91 2028.13,-533.05"/>
</g>
<!-- Node55 -->
<g id="node55" class="node">
<title>Node55</title>
<g id="a_node55"><a xlink:href="HSolverBase_8hpp.html" target="_top" xlink:title="Base class for Hypre solvers.">
<polygon fill="none" stroke="black" points="2071.06,-515.5 2071.06,-534.5 2217.06,-534.5 2217.06,-515.5 2071.06,-515.5"/>
<text text-anchor="middle" x="2144.06" y="-522.5" font-family="serif" font-size="10.00">Solvers/HSolverBase.hpp</text>
</a>
</g>
</g>
<!-- Node53&#45;&gt;Node55 -->
<g id="edge155" class="edge">
<title>Node53&#45;&gt;Node55</title>
<path fill="none" stroke="midnightblue" d="M2228.83,-571.32C2212.71,-562.7 2187.76,-549.36 2169.1,-539.39"/>
<polygon fill="midnightblue" stroke="midnightblue" points="2170.72,-536.28 2160.25,-534.65 2167.42,-542.46 2170.72,-536.28"/>
</g>
<!-- Node54&#45;&gt;Node3 -->
<g id="edge148" class="edge">
<title>Node54&#45;&gt;Node3</title>
<path fill="none" stroke="midnightblue" d="M1896.8,-517.4C1617.42,-493.56 678.95,-410.99 551.06,-367 460.17,-335.74 418.47,-335.57 366.06,-255 331.42,-201.74 335.38,-121.86 339.42,-85.82"/>
<polygon fill="midnightblue" stroke="midnightblue" points="342.91,-86.11 340.69,-75.75 335.97,-85.24 342.91,-86.11"/>
</g>
<!-- Node54&#45;&gt;Node6 -->
<g id="edge150" class="edge">
<title>Node54&#45;&gt;Node6</title>
<path fill="none" stroke="midnightblue" d="M1908.65,-515.47C1876.67,-509.09 1838.89,-498.03 1809.06,-479 1742.51,-436.54 1690.33,-354.96 1669.67,-319.35"/>
<polygon fill="midnightblue" stroke="midnightblue" points="1672.68,-317.56 1664.7,-310.59 1666.6,-321.02 1672.68,-317.56"/>
</g>
<!-- Node54&#45;&gt;Node8 -->
<g id="edge149" class="edge">
<title>Node54&#45;&gt;Node8</title>
<path fill="none" stroke="midnightblue" d="M1896.77,-518.25C1880.98,-517.13 1864.49,-516 1849.06,-515 1752.71,-508.75 114.06,-510.55 114.06,-414 114.06,-414 114.06,-414 114.06,-121 114.06,-35.11 211.77,-72.53 296.06,-56 490.81,-17.82 1126.14,-12 1280.19,-11.14"/>
<polygon fill="midnightblue" stroke="midnightblue" points="1280.45,-14.64 1290.43,-11.09 1280.42,-7.64 1280.45,-14.64"/>
</g>
<!-- Node54&#45;&gt;Node9 -->
<g id="edge153" class="edge">
<title>Node54&#45;&gt;Node9</title>
<path fill="none" stroke="midnightblue" d="M1968.47,-515.45C1959.33,-502.48 1945.1,-477.38 1956.06,-459 1966.12,-442.13 2248.31,-296.84 2267.06,-291 2337.28,-269.12 2546.96,-309.76 2596.06,-255 2605.26,-244.74 2603.62,-235.52 2596.06,-224 2588.35,-212.26 2556.9,-199.62 2530.58,-190.74"/>
<polygon fill="midnightblue" stroke="midnightblue" points="2531.4,-187.32 2520.8,-187.52 2529.21,-193.97 2531.4,-187.32"/>
</g>
<!-- Node54&#45;&gt;Node22 -->
<g id="edge154" class="edge">
<title>Node54&#45;&gt;Node22</title>
<path fill="none" stroke="midnightblue" d="M2053.31,-515.81C2056.26,-515.53 2059.19,-515.26 2062.06,-515 2267.62,-496.38 2319.89,-501.5 2525.06,-479 2587.98,-472.1 2603.04,-464.85 2666.06,-459 2845.91,-442.3 3304.56,-473.22 3478.06,-423 3484.08,-421.26 3572.19,-371.93 3576.06,-367 3659.82,-260.18 3671.38,-86.28 3672.87,-29.54"/>
<polygon fill="midnightblue" stroke="midnightblue" points="3676.37,-29.61 3673.06,-19.54 3669.37,-29.48 3676.37,-29.61"/>
</g>
<!-- Node54&#45;&gt;Node40 -->
<g id="edge151" class="edge">
<title>Node54&#45;&gt;Node40</title>
<path fill="none" stroke="midnightblue" d="M2030.43,-515.46C2116.16,-502.39 2286.24,-477.04 2431.06,-459 2545.76,-444.71 2678.35,-431.04 2763.83,-422.59"/>
<polygon fill="midnightblue" stroke="midnightblue" points="2764.41,-426.05 2774.02,-421.59 2763.73,-419.08 2764.41,-426.05"/>
</g>
<!-- Node54&#45;&gt;Node49 -->
<g id="edge152" class="edge">
<title>Node54&#45;&gt;Node49</title>
<path fill="none" stroke="midnightblue" d="M1984.54,-515.32C1993.26,-507.34 2006.4,-495.31 2016.96,-485.65"/>
<polygon fill="midnightblue" stroke="midnightblue" points="2019.39,-488.17 2024.41,-478.83 2014.67,-483 2019.39,-488.17"/>
</g>
<!-- Node55&#45;&gt;Node3 -->
<g id="edge156" class="edge">
<title>Node55&#45;&gt;Node3</title>
<path fill="none" stroke="midnightblue" d="M2070.75,-515.9C2067.81,-515.59 2064.91,-515.29 2062.06,-515 1894.18,-497.79 1851.49,-500.16 1684.06,-479 1208.65,-418.92 1088.15,-408.84 619.06,-311 522.4,-290.84 476.07,-322.56 404.06,-255 378.75,-231.26 354.79,-127.98 345.8,-85.43"/>
<polygon fill="midnightblue" stroke="midnightblue" points="349.21,-84.65 343.76,-75.57 342.36,-86.08 349.21,-84.65"/>
</g>
<!-- Node55&#45;&gt;Node6 -->
<g id="edge158" class="edge">
<title>Node55&#45;&gt;Node6</title>
<path fill="none" stroke="midnightblue" d="M2089.22,-515.42C2050.97,-508.36 1999.26,-496.6 1956.06,-479 1844.56,-433.56 1725.58,-350.29 1679.68,-316.66"/>
<polygon fill="midnightblue" stroke="midnightblue" points="1681.62,-313.75 1671.5,-310.63 1677.47,-319.38 1681.62,-313.75"/>
</g>
<!-- Node55&#45;&gt;Node8 -->
<g id="edge157" class="edge">
<title>Node55&#45;&gt;Node8</title>
<path fill="none" stroke="midnightblue" d="M2070.74,-515.93C2067.81,-515.61 2064.91,-515.3 2062.06,-515 1906.56,-498.47 1866.45,-503.82 1712.06,-479 1671.18,-472.43 1661.65,-467.21 1621.06,-459 1559.98,-446.64 557.92,-302.9 518.06,-255 491.07,-222.56 520.99,-191.45 556.06,-168 678.84,-85.89 1149.65,-29.03 1280.28,-14.6"/>
<polygon fill="midnightblue" stroke="midnightblue" points="1280.91,-18.05 1290.47,-13.49 1280.15,-11.09 1280.91,-18.05"/>
</g>
<!-- Node55&#45;&gt;Node9 -->
<g id="edge161" class="edge">
<title>Node55&#45;&gt;Node9</title>
<path fill="none" stroke="midnightblue" d="M2151.26,-515.36C2180.92,-480.44 2298.15,-348.77 2426.06,-291 2518.75,-249.13 2586.04,-332.37 2652.06,-255 2661,-244.52 2660.38,-234.98 2652.06,-224 2645.18,-214.91 2585.81,-199.89 2541.38,-189.73"/>
<polygon fill="midnightblue" stroke="midnightblue" points="2542.12,-186.31 2531.59,-187.51 2540.57,-193.14 2542.12,-186.31"/>
</g>
<!-- Node55&#45;&gt;Node22 -->
<g id="edge162" class="edge">
<title>Node55&#45;&gt;Node22</title>
<path fill="none" stroke="midnightblue" d="M2217.14,-517.36C2355.2,-504.94 2663.83,-477.75 2924.06,-459 3055.52,-449.53 3389.13,-458.49 3516.06,-423 3534.44,-417.86 3537.1,-411.76 3554.06,-403 3585.49,-386.76 3600.6,-392.57 3625.06,-367 3685.42,-303.9 3687.65,-273.36 3706.06,-188 3718.56,-130.08 3694.45,-60.88 3681.1,-28.87"/>
<polygon fill="midnightblue" stroke="midnightblue" points="3684.23,-27.3 3677.05,-19.51 3677.81,-30.08 3684.23,-27.3"/>
</g>
<!-- Node55&#45;&gt;Node40 -->
<g id="edge159" class="edge">
<title>Node55&#45;&gt;Node40</title>
<path fill="none" stroke="midnightblue" d="M2199.1,-515.46C2328.13,-495.44 2649.62,-445.56 2788.01,-424.09"/>
<polygon fill="midnightblue" stroke="midnightblue" points="2788.71,-427.53 2798.05,-422.53 2787.63,-420.61 2788.71,-427.53"/>
</g>
<!-- Node55&#45;&gt;Node49 -->
<g id="edge160" class="edge">
<title>Node55&#45;&gt;Node49</title>
<path fill="none" stroke="midnightblue" d="M2126.39,-515.32C2108.67,-506.62 2081.16,-493.12 2060.77,-483.11"/>
<polygon fill="midnightblue" stroke="midnightblue" points="2062.21,-479.92 2051.69,-478.65 2059.12,-486.2 2062.21,-479.92"/>
</g>
</g>
</svg>
