<?xml version="1.0" encoding="UTF-8" standalone="no"?>
<!DOCTYPE svg PUBLIC "-//W3C//DTD SVG 1.1//EN"
 "http://www.w3.org/Graphics/SVG/1.1/DTD/svg11.dtd">
<!-- Generated by graphviz version 2.43.0 (0)
 -->
<!-- Title: OperatorBase.tpp Pages: 1 -->
<svg width="280pt" height="252pt"
 viewBox="0.00 0.00 280.00 252.00" xmlns="http://www.w3.org/2000/svg" xmlns:xlink="http://www.w3.org/1999/xlink">
<g id="graph0" class="graph" transform="scale(1 1) rotate(0) translate(4 248)">
<title>OperatorBase.tpp</title>
<!-- Node1 -->
<g id="node1" class="node">
<title>Node1</title>
<g id="a_node1"><a xlink:title=" ">
<polygon fill="#bfbfbf" stroke="black" points="78.5,-224.5 78.5,-243.5 185.5,-243.5 185.5,-224.5 78.5,-224.5"/>
<text text-anchor="middle" x="132" y="-231.5" font-family="serif" font-size="10.00">OperatorBase.tpp</text>
</a>
</g>
</g>
<!-- Node2 -->
<g id="node2" class="node">
<title>Node2</title>
<g id="a_node2"><a xlink:href="OperatorBase_8hpp.html" target="_top" xlink:title="Base class for building Steady and TimeDependent PhaseFieldOperators.">
<polygon fill="none" stroke="black" points="77,-168.5 77,-187.5 187,-187.5 187,-168.5 77,-168.5"/>
<text text-anchor="middle" x="132" y="-175.5" font-family="serif" font-size="10.00">OperatorBase.hpp</text>
</a>
</g>
</g>
<!-- Node1&#45;&gt;Node2 -->
<g id="edge1" class="edge">
<title>Node1&#45;&gt;Node2</title>
<path fill="none" stroke="midnightblue" d="M132,-213.8C132,-204.91 132,-194.78 132,-187.75"/>
<polygon fill="midnightblue" stroke="midnightblue" points="128.5,-214.08 132,-224.08 135.5,-214.08 128.5,-214.08"/>
</g>
<!-- Node3 -->
<g id="node3" class="node">
<title>Node3</title>
<g id="a_node3"><a xlink:href="SteadyOperator_8hpp.html" target="_top" xlink:title="Steady Operator.">
<polygon fill="none" stroke="black" points="0,-112.5 0,-131.5 120,-131.5 120,-112.5 0,-112.5"/>
<text text-anchor="middle" x="60" y="-119.5" font-family="serif" font-size="10.00">SteadyOperator.hpp</text>
</a>
</g>
</g>
<!-- Node2&#45;&gt;Node3 -->
<g id="edge2" class="edge">
<title>Node2&#45;&gt;Node3</title>
<path fill="none" stroke="midnightblue" d="M112.13,-162.1C99.18,-152.38 82.7,-140.03 71.78,-131.83"/>
<polygon fill="midnightblue" stroke="midnightblue" points="110.33,-165.12 120.43,-168.32 114.53,-159.52 110.33,-165.12"/>
</g>
<!-- Node6 -->
<g id="node6" class="node">
<title>Node6</title>
<g id="a_node6"><a xlink:href="TransientOperator_8hpp.html" target="_top" xlink:title="Transient Operator.">
<polygon fill="none" stroke="black" points="138,-112.5 138,-131.5 272,-131.5 272,-112.5 138,-112.5"/>
<text text-anchor="middle" x="205" y="-119.5" font-family="serif" font-size="10.00">TransientOperator.hpp</text>
</a>
</g>
</g>
<!-- Node2&#45;&gt;Node6 -->
<g id="edge5" class="edge">
<title>Node2&#45;&gt;Node6</title>
<path fill="none" stroke="midnightblue" d="M152.14,-162.1C165.28,-152.38 181.98,-140.03 193.06,-131.83"/>
<polygon fill="midnightblue" stroke="midnightblue" points="149.69,-159.56 143.73,-168.32 153.85,-165.19 149.69,-159.56"/>
</g>
<!-- Node4 -->
<g id="node4" class="node">
<title>Node4</title>
<g id="a_node4"><a xlink:href="ListOperators_8hpp.html" target="_top" xlink:title=" ">
<polygon fill="none" stroke="black" points="77,-56.5 77,-75.5 187,-75.5 187,-56.5 77,-56.5"/>
<text text-anchor="middle" x="132" y="-63.5" font-family="serif" font-size="10.00">ListOperators.hpp</text>
</a>
</g>
</g>
<!-- Node3&#45;&gt;Node4 -->
<g id="edge3" class="edge">
<title>Node3&#45;&gt;Node4</title>
<path fill="none" stroke="midnightblue" d="M79.87,-106.1C92.82,-96.38 109.3,-84.03 120.22,-75.83"/>
<polygon fill="midnightblue" stroke="midnightblue" points="77.47,-103.52 71.57,-112.32 81.67,-109.12 77.47,-103.52"/>
</g>
<!-- Node5 -->
<g id="node5" class="node">
<title>Node5</title>
<g id="a_node5"><a xlink:href="sloth_8hpp.html" target="_top" xlink:title="List of SLOTH header files.">
<polygon fill="none" stroke="black" points="99.5,-0.5 99.5,-19.5 164.5,-19.5 164.5,-0.5 99.5,-0.5"/>
<text text-anchor="middle" x="132" y="-7.5" font-family="serif" font-size="10.00">sloth.hpp</text>
</a>
</g>
</g>
<!-- Node4&#45;&gt;Node5 -->
<g id="edge4" class="edge">
<title>Node4&#45;&gt;Node5</title>
<path fill="none" stroke="midnightblue" d="M132,-45.8C132,-36.91 132,-26.78 132,-19.75"/>
<polygon fill="midnightblue" stroke="midnightblue" points="128.5,-46.08 132,-56.08 135.5,-46.08 128.5,-46.08"/>
</g>
<!-- Node6&#45;&gt;Node4 -->
<g id="edge6" class="edge">
<title>Node6&#45;&gt;Node4</title>
<path fill="none" stroke="midnightblue" d="M184.86,-106.1C171.72,-96.38 155.02,-84.03 143.94,-75.83"/>
<polygon fill="midnightblue" stroke="midnightblue" points="183.15,-109.19 193.27,-112.32 187.31,-103.56 183.15,-109.19"/>
</g>
</g>
</svg>
