<?xml version="1.0" encoding="UTF-8" standalone="no"?>
<!DOCTYPE svg PUBLIC "-//W3C//DTD SVG 1.1//EN"
 "http://www.w3.org/Graphics/SVG/1.1/DTD/svg11.dtd">
<!-- Generated by graphviz version 2.43.0 (0)
 -->
<!-- Title: Parameter.hpp Pages: 1 -->
<!--zoomable 375 -->
<svg id="main" version="1.1" xmlns="http://www.w3.org/2000/svg" xmlns:xlink="http://www.w3.org/1999/xlink" xml:space="preserve" onload="init(evt)">
<style type="text/css"><![CDATA[
.edge:hover path { stroke: red; }
.edge:hover polygon { stroke: red; fill: red; }
]]></style>
<script type="text/javascript"><![CDATA[
var edges = document.getElementsByTagName('g');
if (edges && edges.length) {
  for (var i=0;i<edges.length;i++) {
    if (edges[i].id.substr(0,4)=='edge') {
      edges[i].setAttribute('class','edge');
    }
  }
}
]]></script>
        <defs>
                <circle id="rim" cx="0" cy="0" r="7"/>
                <circle id="rim2" cx="0" cy="0" r="3.5"/>
                <g id="zoomPlus">
                        <use xlink:href="#rim" fill="#404040">
                                <set attributeName="fill" to="#808080" begin="zoomplus.mouseover" end="zoomplus.mouseout"/>
                        </use>
                        <path d="M-4,0h8M0,-4v8" fill="none" stroke="white" stroke-width="1.5" pointer-events="none"/>
                </g>
                <g id="zoomMin">
                        <use xlink:href="#rim" fill="#404040">
                                <set attributeName="fill" to="#808080" begin="zoomminus.mouseover" end="zoomminus.mouseout"/>
                        </use>
                        <path d="M-4,0h8" fill="none" stroke="white" stroke-width="1.5" pointer-events="none"/>
                </g>
                <g id="dirArrow">
                        <path fill="none" stroke="white" stroke-width="1.5" d="M0,-3.0v7 M-2.5,-0.5L0,-3.0L2.5,-0.5"/>
                </g>
               <g id="resetDef">
                       <use xlink:href="#rim2" fill="#404040">
                               <set attributeName="fill" to="#808080" begin="reset.mouseover" end="reset.mouseout"/>
                       </use>
               </g>
        </defs>

<script type="text/javascript">
var viewWidth = 2215;
var viewHeight = 375;
var sectionId = 'dynsection-0';
</script>
<script xlink:href="svgpan.js"/>
<svg id="graph" class="graph">
<g id="viewport">
<title>Parameter.hpp</title>
<!-- Node1 -->
<g id="node1" class="node">
<title>Node1</title>
<g id="a_node1"><a xlink:title="Parameter class.">
<polygon fill="#bfbfbf" stroke="black" points="2035,-347.5 2035,-366.5 2127,-366.5 2127,-347.5 2035,-347.5"/>
<text text-anchor="middle" x="2081" y="-354.5" font-family="serif" font-size="10.00">Parameter.hpp</text>
</a>
</g>
</g>
<!-- Node2 -->
<g id="node2" class="node">
<title>Node2</title>
<g id="a_node2"><a xlink:title=" ">
<polygon fill="none" stroke="#bfbfbf" points="744.5,-0.5 744.5,-19.5 791.5,-19.5 791.5,-0.5 744.5,-0.5"/>
<text text-anchor="middle" x="768" y="-7.5" font-family="serif" font-size="10.00">string</text>
</a>
</g>
</g>
<!-- Node1&#45;&gt;Node2 -->
<g id="edge1" class="edge">
<title>Node1&#45;&gt;Node2</title>
<path fill="none" stroke="midnightblue" d="M2034.62,-355.93C1727.57,-355.13 0,-346 0,-240.5 0,-240.5 0,-240.5 0,-121 0,-45.77 584.9,-18.07 733.83,-12.24"/>
<polygon fill="midnightblue" stroke="midnightblue" points="734.31,-15.72 744.17,-11.84 734.05,-8.73 734.31,-15.72"/>
</g>
<!-- Node3 -->
<g id="node3" class="node">
<title>Node3</title>
<g id="a_node3"><a xlink:title=" ">
<polygon fill="none" stroke="#bfbfbf" points="2019.5,-56.5 2019.5,-75.5 2090.5,-75.5 2090.5,-56.5 2019.5,-56.5"/>
<text text-anchor="middle" x="2055" y="-63.5" font-family="serif" font-size="10.00">type_traits</text>
</a>
</g>
</g>
<!-- Node1&#45;&gt;Node3 -->
<g id="edge2" class="edge">
<title>Node1&#45;&gt;Node3</title>
<path fill="none" stroke="midnightblue" d="M2081,-347.31C2081,-328.06 2081,-280.4 2081,-240.5 2081,-240.5 2081,-240.5 2081,-177 2081,-143.93 2069.73,-106.73 2062.03,-85.17"/>
<polygon fill="midnightblue" stroke="midnightblue" points="2065.27,-83.83 2058.51,-75.68 2058.71,-86.27 2065.27,-83.83"/>
</g>
<!-- Node4 -->
<g id="node4" class="node">
<title>Node4</title>
<g id="a_node4"><a xlink:title=" ">
<polygon fill="none" stroke="#bfbfbf" points="2147.5,-291.5 2147.5,-310.5 2206.5,-310.5 2206.5,-291.5 2147.5,-291.5"/>
<text text-anchor="middle" x="2177" y="-298.5" font-family="serif" font-size="10.00">typeinfo</text>
</a>
</g>
</g>
<!-- Node1&#45;&gt;Node4 -->
<g id="edge3" class="edge">
<title>Node1&#45;&gt;Node4</title>
<path fill="none" stroke="midnightblue" d="M2096.42,-347.32C2111.54,-338.82 2134.82,-325.73 2152.47,-315.8"/>
<polygon fill="midnightblue" stroke="midnightblue" points="2154.61,-318.61 2161.61,-310.65 2151.18,-312.51 2154.61,-318.61"/>
</g>
<!-- Node5 -->
<g id="node5" class="node">
<title>Node5</title>
<g id="a_node5"><a xlink:title=" ">
<polygon fill="none" stroke="#bfbfbf" points="1964.5,-0.5 1964.5,-19.5 2017.5,-19.5 2017.5,-0.5 1964.5,-0.5"/>
<text text-anchor="middle" x="1991" y="-7.5" font-family="serif" font-size="10.00">variant</text>
</a>
</g>
</g>
<!-- Node1&#45;&gt;Node5 -->
<g id="edge4" class="edge">
<title>Node1&#45;&gt;Node5</title>
<path fill="none" stroke="midnightblue" d="M2085.97,-347.34C2096.27,-328.53 2119,-282.3 2119,-240.5 2119,-240.5 2119,-240.5 2119,-121 2119,-90.9 2120.11,-78.39 2100,-56 2081.21,-35.08 2051.19,-23.65 2027.42,-17.55"/>
<polygon fill="midnightblue" stroke="midnightblue" points="2028.2,-14.14 2017.66,-15.26 2026.59,-20.96 2028.2,-14.14"/>
</g>
<!-- Node6 -->
<g id="node6" class="node">
<title>Node6</title>
<g id="a_node6"><a xlink:href="Options_8hpp.html" target="_top" xlink:title="List of all Options files.">
<polygon fill="none" stroke="black" points="1064,-291.5 1064,-310.5 1186,-310.5 1186,-291.5 1064,-291.5"/>
<text text-anchor="middle" x="1125" y="-298.5" font-family="serif" font-size="10.00">Options/Options.hpp</text>
</a>
</g>
</g>
<!-- Node1&#45;&gt;Node6 -->
<g id="edge5" class="edge">
<title>Node1&#45;&gt;Node6</title>
<path fill="none" stroke="midnightblue" d="M2034.89,-353.4C1880.78,-344.69 1382.83,-316.56 1196.37,-306.03"/>
<polygon fill="midnightblue" stroke="midnightblue" points="1196.31,-302.52 1186.13,-305.45 1195.92,-309.51 1196.31,-302.52"/>
</g>
<!-- Node7 -->
<g id="node7" class="node">
<title>Node7</title>
<g id="a_node7"><a xlink:href="AnalyticalFunctionOptions_8hpp.html" target="_top" xlink:title="Options for Analytical functions.">
<polygon fill="none" stroke="black" points="558.5,-224.5 558.5,-254.5 713.5,-254.5 713.5,-224.5 558.5,-224.5"/>
<text text-anchor="start" x="566.5" y="-242.5" font-family="serif" font-size="10.00">Options/AnalyticalFunction</text>
<text text-anchor="middle" x="636" y="-231.5" font-family="serif" font-size="10.00">Options.hpp</text>
</a>
</g>
</g>
<!-- Node6&#45;&gt;Node7 -->
<g id="edge6" class="edge">
<title>Node6&#45;&gt;Node7</title>
<path fill="none" stroke="midnightblue" d="M1063.76,-294.24C986.75,-286.75 850.23,-272.68 724.02,-255.24"/>
<polygon fill="midnightblue" stroke="midnightblue" points="724.17,-251.73 713.79,-253.82 723.21,-258.66 724.17,-251.73"/>
</g>
<!-- Node8 -->
<g id="node8" class="node">
<title>Node8</title>
<g id="a_node8"><a xlink:href="Utils_8hpp.html" target="_top" xlink:title="List of all Utils files.">
<polygon fill="none" stroke="black" points="1043.5,-168.5 1043.5,-187.5 1132.5,-187.5 1132.5,-168.5 1043.5,-168.5"/>
<text text-anchor="middle" x="1088" y="-175.5" font-family="serif" font-size="10.00">Utils/Utils.hpp</text>
</a>
</g>
</g>
<!-- Node6&#45;&gt;Node8 -->
<g id="edge83" class="edge">
<title>Node6&#45;&gt;Node8</title>
<path fill="none" stroke="midnightblue" d="M1123.26,-291.46C1120.29,-277.28 1113.78,-248.07 1106,-224 1103.09,-214.99 1099.26,-205.21 1095.88,-197.08"/>
<polygon fill="midnightblue" stroke="midnightblue" points="1099.08,-195.66 1091.95,-187.83 1092.64,-198.41 1099.08,-195.66"/>
</g>
<!-- Node30 -->
<g id="node30" class="node">
<title>Node30</title>
<g id="a_node30"><a xlink:href="CalphadOptions_8hpp.html" target="_top" xlink:title="Options for Calphad problems.">
<polygon fill="none" stroke="black" points="1887.5,-230 1887.5,-249 2052.5,-249 2052.5,-230 1887.5,-230"/>
<text text-anchor="middle" x="1970" y="-237" font-family="serif" font-size="10.00">Options/CalphadOptions.hpp</text>
</a>
</g>
</g>
<!-- Node6&#45;&gt;Node30 -->
<g id="edge55" class="edge">
<title>Node6&#45;&gt;Node30</title>
<path fill="none" stroke="midnightblue" d="M1186.17,-298.35C1314.64,-294.44 1621.83,-282.78 1878,-255 1888.83,-253.83 1900.33,-252.27 1911.4,-250.6"/>
<polygon fill="midnightblue" stroke="midnightblue" points="1912.07,-254.04 1921.42,-249.06 1911,-247.12 1912.07,-254.04"/>
</g>
<!-- Node31 -->
<g id="node31" class="node">
<title>Node31</title>
<g id="a_node31"><a xlink:href="DiffusionOptions_8hpp.html" target="_top" xlink:title="Option for Mass Diffusion problems.">
<polygon fill="none" stroke="black" points="1153,-230 1153,-249 1321,-249 1321,-230 1153,-230"/>
<text text-anchor="middle" x="1237" y="-237" font-family="serif" font-size="10.00">Options/DiffusionOptions.hpp</text>
</a>
</g>
</g>
<!-- Node6&#45;&gt;Node31 -->
<g id="edge60" class="edge">
<title>Node6&#45;&gt;Node31</title>
<path fill="none" stroke="midnightblue" d="M1141.05,-291.48C1159.59,-281.62 1190.34,-265.29 1212.02,-253.77"/>
<polygon fill="midnightblue" stroke="midnightblue" points="1213.79,-256.79 1220.98,-249.01 1210.51,-250.61 1213.79,-256.79"/>
</g>
<!-- Node32 -->
<g id="node32" class="node">
<title>Node32</title>
<g id="a_node32"><a xlink:href="IntegratorsOptions_8hpp.html" target="_top" xlink:title="Options for Integrators.">
<polygon fill="none" stroke="black" points="731.5,-230 731.5,-249 910.5,-249 910.5,-230 731.5,-230"/>
<text text-anchor="middle" x="821" y="-237" font-family="serif" font-size="10.00">Options/IntegratorsOptions.hpp</text>
</a>
</g>
</g>
<!-- Node6&#45;&gt;Node32 -->
<g id="edge62" class="edge">
<title>Node6&#45;&gt;Node32</title>
<path fill="none" stroke="midnightblue" d="M1081.44,-291.48C1026.81,-280.78 933.19,-262.46 874.33,-250.94"/>
<polygon fill="midnightblue" stroke="midnightblue" points="874.96,-247.5 864.47,-249.01 873.62,-254.36 874.96,-247.5"/>
</g>
<!-- Node33 -->
<g id="node33" class="node">
<title>Node33</title>
<g id="a_node33"><a xlink:href="PhaseFieldOptions_8hpp.html" target="_top" xlink:title="Options for PhaseField problems.">
<polygon fill="none" stroke="black" points="1339.5,-230 1339.5,-249 1518.5,-249 1518.5,-230 1339.5,-230"/>
<text text-anchor="middle" x="1429" y="-237" font-family="serif" font-size="10.00">Options/PhaseFieldOptions.hpp</text>
</a>
</g>
</g>
<!-- Node6&#45;&gt;Node33 -->
<g id="edge65" class="edge">
<title>Node6&#45;&gt;Node33</title>
<path fill="none" stroke="midnightblue" d="M1168.56,-291.48C1223.19,-280.78 1316.81,-262.46 1375.67,-250.94"/>
<polygon fill="midnightblue" stroke="midnightblue" points="1376.38,-254.36 1385.53,-249.01 1375.04,-247.5 1376.38,-254.36"/>
</g>
<!-- Node34 -->
<g id="node34" class="node">
<title>Node34</title>
<g id="a_node34"><a xlink:href="PhysicalConvergenceOptions_8hpp.html" target="_top" xlink:title="Options for PhysicalConvergence objects.">
<polygon fill="none" stroke="black" points="928.5,-224.5 928.5,-254.5 1097.5,-254.5 1097.5,-224.5 928.5,-224.5"/>
<text text-anchor="start" x="936.5" y="-242.5" font-family="serif" font-size="10.00">Options/PhysicalConvergence</text>
<text text-anchor="middle" x="1013" y="-231.5" font-family="serif" font-size="10.00">Options.hpp</text>
</a>
</g>
</g>
<!-- Node6&#45;&gt;Node34 -->
<g id="edge67" class="edge">
<title>Node6&#45;&gt;Node34</title>
<path fill="none" stroke="midnightblue" d="M1108.95,-291.48C1093.22,-283.12 1068.7,-270.09 1048.39,-259.3"/>
<polygon fill="midnightblue" stroke="midnightblue" points="1049.87,-256.12 1039.4,-254.52 1046.59,-262.31 1049.87,-256.12"/>
</g>
<!-- Node35 -->
<g id="node35" class="node">
<title>Node35</title>
<g id="a_node35"><a xlink:href="PhysicalPropertiesOptions_8hpp.html" target="_top" xlink:title="Options for physical properties.">
<polygon fill="none" stroke="black" points="1537,-224.5 1537,-254.5 1691,-254.5 1691,-224.5 1537,-224.5"/>
<text text-anchor="start" x="1545" y="-242.5" font-family="serif" font-size="10.00">Options/PhysicalProperties</text>
<text text-anchor="middle" x="1614" y="-231.5" font-family="serif" font-size="10.00">Options.hpp</text>
</a>
</g>
</g>
<!-- Node6&#45;&gt;Node35 -->
<g id="edge70" class="edge">
<title>Node6&#45;&gt;Node35</title>
<path fill="none" stroke="midnightblue" d="M1186.24,-294.24C1263.25,-286.75 1399.77,-272.68 1526.41,-255.18"/>
<polygon fill="midnightblue" stroke="midnightblue" points="1527.25,-258.59 1536.68,-253.75 1526.29,-251.66 1527.25,-258.59"/>
</g>
<!-- Node36 -->
<g id="node36" class="node">
<title>Node36</title>
<g id="a_node36"><a xlink:href="ProblemsOptions_8hpp.html" target="_top" xlink:title="Options for Problem objects.">
<polygon fill="none" stroke="black" points="28,-230 28,-249 198,-249 198,-230 28,-230"/>
<text text-anchor="middle" x="113" y="-237" font-family="serif" font-size="10.00">Options/ProblemsOptions.hpp</text>
</a>
</g>
</g>
<!-- Node6&#45;&gt;Node36 -->
<g id="edge72" class="edge">
<title>Node6&#45;&gt;Node36</title>
<path fill="none" stroke="midnightblue" d="M1063.87,-299.2C916.24,-296.79 528.67,-287.6 207,-255 195.69,-253.85 183.67,-252.28 172.13,-250.58"/>
<polygon fill="midnightblue" stroke="midnightblue" points="172.56,-247.11 162.15,-249.07 171.51,-254.03 172.56,-247.11"/>
</g>
<!-- Node37 -->
<g id="node37" class="node">
<title>Node37</title>
<g id="a_node37"><a xlink:href="SolversOptions_8hpp.html" target="_top" xlink:title="Options for solvers and preconditioners.">
<polygon fill="none" stroke="black" points="1709,-230 1709,-249 1869,-249 1869,-230 1709,-230"/>
<text text-anchor="middle" x="1789" y="-237" font-family="serif" font-size="10.00">Options/SolversOptions.hpp</text>
</a>
</g>
</g>
<!-- Node6&#45;&gt;Node37 -->
<g id="edge75" class="edge">
<title>Node6&#45;&gt;Node37</title>
<path fill="none" stroke="midnightblue" d="M1186.02,-296.9C1291.2,-291.18 1513.35,-277.47 1700,-255 1710.03,-253.79 1720.65,-252.27 1730.93,-250.68"/>
<polygon fill="midnightblue" stroke="midnightblue" points="1731.74,-254.09 1741.07,-249.06 1730.64,-247.18 1731.74,-254.09"/>
</g>
<!-- Node38 -->
<g id="node38" class="node">
<title>Node38</title>
<g id="a_node38"><a xlink:href="SpatialOptions_8hpp.html" target="_top" xlink:title="Options for Spatial discretization.">
<polygon fill="none" stroke="black" points="216,-230 216,-249 374,-249 374,-230 216,-230"/>
<text text-anchor="middle" x="295" y="-237" font-family="serif" font-size="10.00">Options/SpatialOptions.hpp</text>
</a>
</g>
</g>
<!-- Node6&#45;&gt;Node38 -->
<g id="edge77" class="edge">
<title>Node6&#45;&gt;Node38</title>
<path fill="none" stroke="midnightblue" d="M1063.74,-298.41C936.54,-294.65 634.69,-283.29 383,-255 372.74,-253.85 361.85,-252.31 351.36,-250.67"/>
<polygon fill="midnightblue" stroke="midnightblue" points="351.89,-247.21 341.46,-249.07 350.77,-254.12 351.89,-247.21"/>
</g>
<!-- Node39 -->
<g id="node39" class="node">
<title>Node39</title>
<g id="a_node39"><a xlink:href="TimeOptions_8hpp.html" target="_top" xlink:title="Options for Time discretization.">
<polygon fill="none" stroke="black" points="392,-230 392,-249 540,-249 540,-230 392,-230"/>
<text text-anchor="middle" x="466" y="-237" font-family="serif" font-size="10.00">Options/TimeOptions.hpp</text>
</a>
</g>
</g>
<!-- Node6&#45;&gt;Node39 -->
<g id="edge80" class="edge">
<title>Node6&#45;&gt;Node39</title>
<path fill="none" stroke="midnightblue" d="M1063.85,-297.13C958.44,-291.77 735.84,-278.56 549,-255 539.73,-253.83 529.91,-252.34 520.41,-250.77"/>
<polygon fill="midnightblue" stroke="midnightblue" points="520.7,-247.26 510.25,-249.03 519.52,-254.16 520.7,-247.26"/>
</g>
<!-- Node7&#45;&gt;Node2 -->
<g id="edge7" class="edge">
<title>Node7&#45;&gt;Node2</title>
<path fill="none" stroke="midnightblue" d="M644.26,-224.27C667.3,-184.56 732.25,-72.61 757.65,-28.85"/>
<polygon fill="midnightblue" stroke="midnightblue" points="760.83,-30.33 762.82,-19.93 754.77,-26.82 760.83,-30.33"/>
</g>
<!-- Node7&#45;&gt;Node8 -->
<g id="edge8" class="edge">
<title>Node7&#45;&gt;Node8</title>
<path fill="none" stroke="midnightblue" d="M713.79,-225.22C716.56,-224.8 719.3,-224.39 722,-224 832.2,-207.94 961.62,-192.93 1033.26,-184.96"/>
<polygon fill="midnightblue" stroke="midnightblue" points="1033.85,-188.41 1043.41,-183.83 1033.08,-181.46 1033.85,-188.41"/>
</g>
<!-- Node9 -->
<g id="node9" class="node">
<title>Node9</title>
<g id="a_node9"><a xlink:href="UtilsForData_8hpp.html" target="_top" xlink:title="Usefull methods for data.">
<polygon fill="none" stroke="black" points="977.5,-56.5 977.5,-75.5 1108.5,-75.5 1108.5,-56.5 977.5,-56.5"/>
<text text-anchor="middle" x="1043" y="-63.5" font-family="serif" font-size="10.00">Utils/UtilsForData.hpp</text>
</a>
</g>
</g>
<!-- Node8&#45;&gt;Node9 -->
<g id="edge9" class="edge">
<title>Node8&#45;&gt;Node9</title>
<path fill="none" stroke="midnightblue" d="M1084.47,-168.37C1077.14,-150.46 1060.15,-108.92 1050.34,-84.95"/>
<polygon fill="midnightblue" stroke="midnightblue" points="1053.54,-83.52 1046.51,-75.59 1047.06,-86.17 1053.54,-83.52"/>
</g>
<!-- Node22 -->
<g id="node22" class="node">
<title>Node22</title>
<g id="a_node22"><a xlink:href="UtilsForDebug_8hpp.html" target="_top" xlink:title="Usefull methods for debug.">
<polygon fill="none" stroke="black" points="1084.5,-112.5 1084.5,-131.5 1225.5,-131.5 1225.5,-112.5 1084.5,-112.5"/>
<text text-anchor="middle" x="1155" y="-119.5" font-family="serif" font-size="10.00">Utils/UtilsForDebug.hpp</text>
</a>
</g>
</g>
<!-- Node8&#45;&gt;Node22 -->
<g id="edge23" class="edge">
<title>Node8&#45;&gt;Node22</title>
<path fill="none" stroke="midnightblue" d="M1098.76,-168.32C1108.77,-160.26 1123.89,-148.08 1135.93,-138.37"/>
<polygon fill="midnightblue" stroke="midnightblue" points="1138.45,-140.83 1144.04,-131.83 1134.06,-135.38 1138.45,-140.83"/>
</g>
<!-- Node25 -->
<g id="node25" class="node">
<title>Node25</title>
<g id="a_node25"><a xlink:href="UtilsForOptions_8hpp.html" target="_top" xlink:title="Usefull methods for Options.">
<polygon fill="none" stroke="black" points="1461,-56.5 1461,-75.5 1607,-75.5 1607,-56.5 1461,-56.5"/>
<text text-anchor="middle" x="1534" y="-63.5" font-family="serif" font-size="10.00">Utils/UtilsForOptions.hpp</text>
</a>
</g>
</g>
<!-- Node8&#45;&gt;Node25 -->
<g id="edge34" class="edge">
<title>Node8&#45;&gt;Node25</title>
<path fill="none" stroke="midnightblue" d="M1122.63,-168.46C1202.74,-148.7 1400.78,-99.86 1489.62,-77.94"/>
<polygon fill="midnightblue" stroke="midnightblue" points="1490.53,-81.33 1499.4,-75.53 1488.85,-74.53 1490.53,-81.33"/>
</g>
<!-- Node27 -->
<g id="node27" class="node">
<title>Node27</title>
<g id="a_node27"><a xlink:href="UtilsForPostProcessing_8hpp.html" target="_top" xlink:title="Usefull methods for post&#45;processing.">
<polygon fill="none" stroke="black" points="1625.5,-56.5 1625.5,-75.5 1808.5,-75.5 1808.5,-56.5 1625.5,-56.5"/>
<text text-anchor="middle" x="1717" y="-63.5" font-family="serif" font-size="10.00">Utils/UtilsForPostProcessing.hpp</text>
</a>
</g>
</g>
<!-- Node8&#45;&gt;Node27 -->
<g id="edge44" class="edge">
<title>Node8&#45;&gt;Node27</title>
<path fill="none" stroke="midnightblue" d="M1132.73,-169.18C1243.98,-149.72 1533.13,-99.16 1658.07,-77.31"/>
<polygon fill="midnightblue" stroke="midnightblue" points="1658.96,-80.7 1668.21,-75.53 1657.76,-73.81 1658.96,-80.7"/>
</g>
<!-- Node28 -->
<g id="node28" class="node">
<title>Node28</title>
<g id="a_node28"><a xlink:href="UtilsForVariants_8hpp.html" target="_top" xlink:title="manage std::Variants">
<polygon fill="none" stroke="black" points="1904,-112.5 1904,-131.5 2052,-131.5 2052,-112.5 1904,-112.5"/>
<text text-anchor="middle" x="1978" y="-119.5" font-family="serif" font-size="10.00">Utils/UtilsForVariants.hpp</text>
</a>
</g>
</g>
<!-- Node8&#45;&gt;Node28 -->
<g id="edge51" class="edge">
<title>Node8&#45;&gt;Node28</title>
<path fill="none" stroke="midnightblue" d="M1132.75,-174.29C1273.46,-165.75 1708.6,-139.35 1893.49,-128.13"/>
<polygon fill="midnightblue" stroke="midnightblue" points="1893.94,-131.61 1903.71,-127.51 1893.51,-124.62 1893.94,-131.61"/>
</g>
<!-- Node9&#45;&gt;Node2 -->
<g id="edge18" class="edge">
<title>Node9&#45;&gt;Node2</title>
<path fill="none" stroke="midnightblue" d="M996.1,-56.48C948.6,-47.74 873.07,-33.55 808,-20 805.93,-19.57 803.8,-19.12 801.66,-18.66"/>
<polygon fill="midnightblue" stroke="midnightblue" points="802.18,-15.19 791.66,-16.46 800.68,-22.02 802.18,-15.19"/>
</g>
<!-- Node10 -->
<g id="node10" class="node">
<title>Node10</title>
<g id="a_node10"><a xlink:title=" ">
<polygon fill="none" stroke="#bfbfbf" points="1182.5,-0.5 1182.5,-19.5 1241.5,-19.5 1241.5,-0.5 1182.5,-0.5"/>
<text text-anchor="middle" x="1212" y="-7.5" font-family="serif" font-size="10.00">unistd.h</text>
</a>
</g>
</g>
<!-- Node9&#45;&gt;Node10 -->
<g id="edge10" class="edge">
<title>Node9&#45;&gt;Node10</title>
<path fill="none" stroke="midnightblue" d="M1069.78,-56.44C1098.33,-47.32 1143.73,-32.81 1175.54,-22.65"/>
<polygon fill="midnightblue" stroke="midnightblue" points="1176.89,-25.89 1185.35,-19.52 1174.76,-19.23 1176.89,-25.89"/>
</g>
<!-- Node11 -->
<g id="node11" class="node">
<title>Node11</title>
<g id="a_node11"><a xlink:title=" ">
<polygon fill="none" stroke="#bfbfbf" points="1551,-0.5 1551,-19.5 1617,-19.5 1617,-0.5 1551,-0.5"/>
<text text-anchor="middle" x="1584" y="-7.5" font-family="serif" font-size="10.00">algorithm</text>
</a>
</g>
</g>
<!-- Node9&#45;&gt;Node11 -->
<g id="edge11" class="edge">
<title>Node9&#45;&gt;Node11</title>
<path fill="none" stroke="midnightblue" d="M1108.84,-56.97C1111.93,-56.63 1115,-56.31 1118,-56 1302.92,-37.06 1353.23,-47.5 1540.69,-20.02"/>
<polygon fill="midnightblue" stroke="midnightblue" points="1541.22,-23.48 1550.6,-18.56 1540.19,-16.56 1541.22,-23.48"/>
</g>
<!-- Node12 -->
<g id="node12" class="node">
<title>Node12</title>
<g id="a_node12"><a xlink:title=" ">
<polygon fill="none" stroke="#bfbfbf" points="1114,-0.5 1114,-19.5 1164,-19.5 1164,-0.5 1114,-0.5"/>
<text text-anchor="middle" x="1139" y="-7.5" font-family="serif" font-size="10.00">cctype</text>
</a>
</g>
</g>
<!-- Node9&#45;&gt;Node12 -->
<g id="edge12" class="edge">
<title>Node9&#45;&gt;Node12</title>
<path fill="none" stroke="midnightblue" d="M1058.42,-56.32C1073.54,-47.82 1096.82,-34.73 1114.47,-24.8"/>
<polygon fill="midnightblue" stroke="midnightblue" points="1116.61,-27.61 1123.61,-19.65 1113.18,-21.51 1116.61,-27.61"/>
</g>
<!-- Node13 -->
<g id="node13" class="node">
<title>Node13</title>
<g id="a_node13"><a xlink:title=" ">
<polygon fill="none" stroke="#bfbfbf" points="817.5,-0.5 817.5,-19.5 864.5,-19.5 864.5,-0.5 817.5,-0.5"/>
<text text-anchor="middle" x="841" y="-7.5" font-family="serif" font-size="10.00">cstdio</text>
</a>
</g>
</g>
<!-- Node9&#45;&gt;Node13 -->
<g id="edge13" class="edge">
<title>Node9&#45;&gt;Node13</title>
<path fill="none" stroke="midnightblue" d="M1010.05,-56.44C977.78,-48.02 926.96,-34.67 874.55,-20.4"/>
<polygon fill="midnightblue" stroke="midnightblue" points="875.32,-16.98 864.75,-17.72 873.48,-23.73 875.32,-16.98"/>
</g>
<!-- Node14 -->
<g id="node14" class="node">
<title>Node14</title>
<g id="a_node14"><a xlink:title=" ">
<polygon fill="none" stroke="#bfbfbf" points="970,-0.5 970,-19.5 1038,-19.5 1038,-0.5 970,-0.5"/>
<text text-anchor="middle" x="1004" y="-7.5" font-family="serif" font-size="10.00">filesystem</text>
</a>
</g>
</g>
<!-- Node9&#45;&gt;Node14 -->
<g id="edge14" class="edge">
<title>Node9&#45;&gt;Node14</title>
<path fill="none" stroke="midnightblue" d="M1036.56,-56.08C1031.05,-48.46 1022.97,-37.26 1016.24,-27.94"/>
<polygon fill="midnightblue" stroke="midnightblue" points="1019.01,-25.81 1010.32,-19.75 1013.34,-29.91 1019.01,-25.81"/>
</g>
<!-- Node15 -->
<g id="node15" class="node">
<title>Node15</title>
<g id="a_node15"><a xlink:title=" ">
<polygon fill="none" stroke="#bfbfbf" points="1321,-0.5 1321,-19.5 1389,-19.5 1389,-0.5 1321,-0.5"/>
<text text-anchor="middle" x="1355" y="-7.5" font-family="serif" font-size="10.00">functional</text>
</a>
</g>
</g>
<!-- Node9&#45;&gt;Node15 -->
<g id="edge15" class="edge">
<title>Node9&#45;&gt;Node15</title>
<path fill="none" stroke="midnightblue" d="M1097.98,-56.47C1150.2,-48.22 1231.15,-35.04 1310.58,-20.21"/>
<polygon fill="midnightblue" stroke="midnightblue" points="1311.58,-23.58 1320.76,-18.3 1310.28,-16.7 1311.58,-23.58"/>
</g>
<!-- Node16 -->
<g id="node16" class="node">
<title>Node16</title>
<g id="a_node16"><a xlink:title=" ">
<polygon fill="none" stroke="#bfbfbf" points="1471.5,-0.5 1471.5,-19.5 1532.5,-19.5 1532.5,-0.5 1471.5,-0.5"/>
<text text-anchor="middle" x="1502" y="-7.5" font-family="serif" font-size="10.00">iostream</text>
</a>
</g>
</g>
<!-- Node9&#45;&gt;Node16 -->
<g id="edge16" class="edge">
<title>Node9&#45;&gt;Node16</title>
<path fill="none" stroke="midnightblue" d="M1108.84,-57.04C1111.94,-56.69 1115,-56.34 1118,-56 1267.48,-39.21 1308.56,-44.66 1461.27,-19.92"/>
<polygon fill="midnightblue" stroke="midnightblue" points="1462.19,-23.32 1471.5,-18.25 1461.06,-16.41 1462.19,-23.32"/>
</g>
<!-- Node17 -->
<g id="node17" class="node">
<title>Node17</title>
<g id="a_node17"><a xlink:title=" ">
<polygon fill="none" stroke="#bfbfbf" points="1056.5,-0.5 1056.5,-19.5 1095.5,-19.5 1095.5,-0.5 1056.5,-0.5"/>
<text text-anchor="middle" x="1076" y="-7.5" font-family="serif" font-size="10.00">map</text>
</a>
</g>
</g>
<!-- Node9&#45;&gt;Node17 -->
<g id="edge17" class="edge">
<title>Node9&#45;&gt;Node17</title>
<path fill="none" stroke="midnightblue" d="M1048.45,-56.08C1053.01,-48.61 1059.67,-37.72 1065.29,-28.52"/>
<polygon fill="midnightblue" stroke="midnightblue" points="1068.42,-30.11 1070.65,-19.75 1062.45,-26.46 1068.42,-30.11"/>
</g>
<!-- Node18 -->
<g id="node18" class="node">
<title>Node18</title>
<g id="a_node18"><a xlink:title=" ">
<polygon fill="none" stroke="#bfbfbf" points="1259.5,-0.5 1259.5,-19.5 1302.5,-19.5 1302.5,-0.5 1259.5,-0.5"/>
<text text-anchor="middle" x="1281" y="-7.5" font-family="serif" font-size="10.00">tuple</text>
</a>
</g>
</g>
<!-- Node9&#45;&gt;Node18 -->
<g id="edge19" class="edge">
<title>Node9&#45;&gt;Node18</title>
<path fill="none" stroke="midnightblue" d="M1086.42,-56.46C1126.31,-48.42 1187.27,-35.62 1249.39,-20.01"/>
<polygon fill="midnightblue" stroke="midnightblue" points="1250.54,-23.33 1259.37,-17.48 1248.82,-16.55 1250.54,-23.33"/>
</g>
<!-- Node19 -->
<g id="node19" class="node">
<title>Node19</title>
<g id="a_node19"><a xlink:title=" ">
<polygon fill="none" stroke="#bfbfbf" points="1407,-0.5 1407,-19.5 1453,-19.5 1453,-0.5 1407,-0.5"/>
<text text-anchor="middle" x="1430" y="-7.5" font-family="serif" font-size="10.00">utility</text>
</a>
</g>
</g>
<!-- Node9&#45;&gt;Node19 -->
<g id="edge20" class="edge">
<title>Node9&#45;&gt;Node19</title>
<path fill="none" stroke="midnightblue" d="M1108.53,-56.95C1198.15,-45.9 1352.21,-26.78 1396.72,-19.74"/>
<polygon fill="midnightblue" stroke="midnightblue" points="1397.43,-23.16 1406.68,-17.99 1396.22,-16.27 1397.43,-23.16"/>
</g>
<!-- Node20 -->
<g id="node20" class="node">
<title>Node20</title>
<g id="a_node20"><a xlink:title=" ">
<polygon fill="none" stroke="#bfbfbf" points="1635,-0.5 1635,-19.5 1683,-19.5 1683,-0.5 1635,-0.5"/>
<text text-anchor="middle" x="1659" y="-7.5" font-family="serif" font-size="10.00">vector</text>
</a>
</g>
</g>
<!-- Node9&#45;&gt;Node20 -->
<g id="edge21" class="edge">
<title>Node9&#45;&gt;Node20</title>
<path fill="none" stroke="midnightblue" d="M1108.83,-56.92C1111.93,-56.59 1115,-56.29 1118,-56 1340.02,-34.82 1401.08,-57.28 1624.88,-19.85"/>
<polygon fill="midnightblue" stroke="midnightblue" points="1625.7,-23.26 1634.97,-18.14 1624.53,-16.36 1625.7,-23.26"/>
</g>
<!-- Node21 -->
<g id="node21" class="node">
<title>Node21</title>
<g id="a_node21"><a xlink:title=" ">
<polygon fill="none" stroke="#bfbfbf" points="882.5,-0.5 882.5,-19.5 951.5,-19.5 951.5,-0.5 882.5,-0.5"/>
<text text-anchor="middle" x="917" y="-7.5" font-family="serif" font-size="10.00">mfem.hpp</text>
</a>
</g>
</g>
<!-- Node9&#45;&gt;Node21 -->
<g id="edge22" class="edge">
<title>Node9&#45;&gt;Node21</title>
<path fill="none" stroke="midnightblue" d="M1023.03,-56.44C1002.39,-47.6 969.94,-33.69 946.37,-23.59"/>
<polygon fill="midnightblue" stroke="midnightblue" points="947.44,-20.24 936.87,-19.52 944.68,-26.67 947.44,-20.24"/>
</g>
<!-- Node22&#45;&gt;Node2 -->
<g id="edge30" class="edge">
<title>Node22&#45;&gt;Node2</title>
<path fill="none" stroke="midnightblue" d="M1084.45,-113.86C1032.75,-107.35 961.36,-95.67 901,-76 860.52,-62.81 816.74,-39.47 790.88,-24.64"/>
<polygon fill="midnightblue" stroke="midnightblue" points="792.6,-21.6 782.2,-19.6 789.09,-27.65 792.6,-21.6"/>
</g>
<!-- Node22&#45;&gt;Node9 -->
<g id="edge32" class="edge">
<title>Node22&#45;&gt;Node9</title>
<path fill="none" stroke="midnightblue" d="M1137.01,-112.32C1118.96,-103.62 1090.95,-90.12 1070.2,-80.11"/>
<polygon fill="midnightblue" stroke="midnightblue" points="1071.48,-76.84 1060.95,-75.65 1068.44,-83.15 1071.48,-76.84"/>
</g>
<!-- Node22&#45;&gt;Node10 -->
<g id="edge25" class="edge">
<title>Node22&#45;&gt;Node10</title>
<path fill="none" stroke="midnightblue" d="M1163.79,-112.45C1172.11,-103.92 1184.43,-90.08 1192,-76 1199.86,-61.38 1205.12,-43.21 1208.27,-29.8"/>
<polygon fill="midnightblue" stroke="midnightblue" points="1211.73,-30.35 1210.42,-19.84 1204.89,-28.87 1211.73,-30.35"/>
</g>
<!-- Node22&#45;&gt;Node13 -->
<g id="edge26" class="edge">
<title>Node22&#45;&gt;Node13</title>
<path fill="none" stroke="midnightblue" d="M1084.39,-112.48C1042.23,-105.83 988.27,-94.52 943,-76 911.65,-63.18 879.31,-40.71 859.68,-25.84"/>
<polygon fill="midnightblue" stroke="midnightblue" points="861.65,-22.94 851.6,-19.61 857.38,-28.49 861.65,-22.94"/>
</g>
<!-- Node22&#45;&gt;Node15 -->
<g id="edge28" class="edge">
<title>Node22&#45;&gt;Node15</title>
<path fill="none" stroke="midnightblue" d="M1218.38,-112.42C1264.25,-104.96 1321.05,-92.71 1338,-76 1350.19,-63.98 1353.99,-44.38 1355.02,-29.84"/>
<polygon fill="midnightblue" stroke="midnightblue" points="1358.53,-29.61 1355.35,-19.51 1351.53,-29.39 1358.53,-29.61"/>
</g>
<!-- Node22&#45;&gt;Node16 -->
<g id="edge29" class="edge">
<title>Node22&#45;&gt;Node16</title>
<path fill="none" stroke="midnightblue" d="M1225.74,-113.01C1272.04,-106.37 1333.31,-94.88 1385,-76 1420.68,-62.97 1458.5,-40.07 1481.18,-25.23"/>
<polygon fill="midnightblue" stroke="midnightblue" points="1483.26,-28.05 1489.65,-19.6 1479.38,-22.22 1483.26,-28.05"/>
</g>
<!-- Node22&#45;&gt;Node19 -->
<g id="edge31" class="edge">
<title>Node22&#45;&gt;Node19</title>
<path fill="none" stroke="midnightblue" d="M1225.77,-114.15C1265.96,-108.13 1316.23,-96.88 1357,-76 1380.7,-63.86 1402.78,-42.18 1416.31,-27.21"/>
<polygon fill="midnightblue" stroke="midnightblue" points="1418.95,-29.52 1422.91,-19.69 1413.69,-24.9 1418.95,-29.52"/>
</g>
<!-- Node22&#45;&gt;Node21 -->
<g id="edge33" class="edge">
<title>Node22&#45;&gt;Node21</title>
<path fill="none" stroke="midnightblue" d="M1084.46,-115.22C1047.44,-109.54 1002.7,-98.28 968,-76 949.58,-64.17 935,-43.36 926.23,-28.46"/>
<polygon fill="midnightblue" stroke="midnightblue" points="929.26,-26.71 921.32,-19.69 923.15,-30.12 929.26,-26.71"/>
</g>
<!-- Node23 -->
<g id="node23" class="node">
<title>Node23</title>
<g id="a_node23"><a xlink:title=" ">
<polygon fill="none" stroke="#bfbfbf" points="1239,-56.5 1239,-75.5 1329,-75.5 1329,-56.5 1239,-56.5"/>
<text text-anchor="middle" x="1284" y="-63.5" font-family="serif" font-size="10.00">sys/resource.h</text>
</a>
</g>
</g>
<!-- Node22&#45;&gt;Node23 -->
<g id="edge24" class="edge">
<title>Node22&#45;&gt;Node23</title>
<path fill="none" stroke="midnightblue" d="M1175.44,-112.44C1196.67,-103.56 1230.1,-89.56 1254.25,-79.45"/>
<polygon fill="midnightblue" stroke="midnightblue" points="1255.78,-82.61 1263.66,-75.52 1253.08,-76.15 1255.78,-82.61"/>
</g>
<!-- Node24 -->
<g id="node24" class="node">
<title>Node24</title>
<g id="a_node24"><a xlink:title=" ">
<polygon fill="none" stroke="#bfbfbf" points="1127,-56.5 1127,-75.5 1183,-75.5 1183,-56.5 1127,-56.5"/>
<text text-anchor="middle" x="1155" y="-63.5" font-family="serif" font-size="10.00">fstream</text>
</a>
</g>
</g>
<!-- Node22&#45;&gt;Node24 -->
<g id="edge27" class="edge">
<title>Node22&#45;&gt;Node24</title>
<path fill="none" stroke="midnightblue" d="M1155,-112.08C1155,-105.01 1155,-94.86 1155,-85.99"/>
<polygon fill="midnightblue" stroke="midnightblue" points="1158.5,-85.75 1155,-75.75 1151.5,-85.75 1158.5,-85.75"/>
</g>
<!-- Node25&#45;&gt;Node2 -->
<g id="edge39" class="edge">
<title>Node25&#45;&gt;Node2</title>
<path fill="none" stroke="midnightblue" d="M1460.74,-61.12C1289.23,-51.96 871.33,-29.03 808,-20 805.91,-19.7 803.76,-19.35 801.61,-18.97"/>
<polygon fill="midnightblue" stroke="midnightblue" points="802.07,-15.49 791.57,-16.96 800.69,-22.35 802.07,-15.49"/>
</g>
<!-- Node25&#45;&gt;Node5 -->
<g id="edge42" class="edge">
<title>Node25&#45;&gt;Node5</title>
<path fill="none" stroke="midnightblue" d="M1606.16,-56.47C1705.01,-44.79 1878.86,-24.25 1954.32,-15.33"/>
<polygon fill="midnightblue" stroke="midnightblue" points="1954.78,-18.8 1964.3,-14.15 1953.96,-11.85 1954.78,-18.8"/>
</g>
<!-- Node25&#45;&gt;Node11 -->
<g id="edge35" class="edge">
<title>Node25&#45;&gt;Node11</title>
<path fill="none" stroke="midnightblue" d="M1542.26,-56.08C1549.46,-48.3 1560.11,-36.8 1568.85,-27.37"/>
<polygon fill="midnightblue" stroke="midnightblue" points="1571.67,-29.47 1575.9,-19.75 1566.53,-24.71 1571.67,-29.47"/>
</g>
<!-- Node25&#45;&gt;Node15 -->
<g id="edge36" class="edge">
<title>Node25&#45;&gt;Node15</title>
<path fill="none" stroke="midnightblue" d="M1505.64,-56.44C1475.26,-47.28 1426.89,-32.69 1393.18,-22.52"/>
<polygon fill="midnightblue" stroke="midnightblue" points="1393.82,-19.05 1383.23,-19.52 1391.79,-25.76 1393.82,-19.05"/>
</g>
<!-- Node25&#45;&gt;Node16 -->
<g id="edge37" class="edge">
<title>Node25&#45;&gt;Node16</title>
<path fill="none" stroke="midnightblue" d="M1528.72,-56.08C1524.29,-48.61 1517.84,-37.72 1512.38,-28.52"/>
<polygon fill="midnightblue" stroke="midnightblue" points="1515.29,-26.57 1507.19,-19.75 1509.27,-30.14 1515.29,-26.57"/>
</g>
<!-- Node25&#45;&gt;Node18 -->
<g id="edge40" class="edge">
<title>Node25&#45;&gt;Node18</title>
<path fill="none" stroke="midnightblue" d="M1486.11,-56.48C1443.18,-48.57 1378.29,-35.96 1312.72,-20.01"/>
<polygon fill="midnightblue" stroke="midnightblue" points="1313.17,-16.51 1302.62,-17.52 1311.49,-23.31 1313.17,-16.51"/>
</g>
<!-- Node25&#45;&gt;Node19 -->
<g id="edge41" class="edge">
<title>Node25&#45;&gt;Node19</title>
<path fill="none" stroke="midnightblue" d="M1517.29,-56.32C1500.69,-47.7 1475,-34.36 1455.78,-24.39"/>
<polygon fill="midnightblue" stroke="midnightblue" points="1457.16,-21.16 1446.67,-19.65 1453.93,-27.37 1457.16,-21.16"/>
</g>
<!-- Node25&#45;&gt;Node20 -->
<g id="edge43" class="edge">
<title>Node25&#45;&gt;Node20</title>
<path fill="none" stroke="midnightblue" d="M1553.81,-56.44C1574.29,-47.6 1606.48,-33.69 1629.86,-23.59"/>
<polygon fill="midnightblue" stroke="midnightblue" points="1631.49,-26.7 1639.29,-19.52 1628.72,-20.27 1631.49,-26.7"/>
</g>
<!-- Node26 -->
<g id="node26" class="node">
<title>Node26</title>
<g id="a_node26"><a xlink:title=" ">
<polygon fill="none" stroke="#bfbfbf" points="1701,-0.5 1701,-19.5 1745,-19.5 1745,-0.5 1701,-0.5"/>
<text text-anchor="middle" x="1723" y="-7.5" font-family="serif" font-size="10.00">limits</text>
</a>
</g>
</g>
<!-- Node25&#45;&gt;Node26 -->
<g id="edge38" class="edge">
<title>Node25&#45;&gt;Node26</title>
<path fill="none" stroke="midnightblue" d="M1564.3,-56.42C1594.19,-47.94 1641.43,-34.52 1691.32,-20.19"/>
<polygon fill="midnightblue" stroke="midnightblue" points="1692.35,-23.53 1700.99,-17.41 1690.41,-16.81 1692.35,-23.53"/>
</g>
<!-- Node27&#45;&gt;Node2 -->
<g id="edge48" class="edge">
<title>Node27&#45;&gt;Node2</title>
<path fill="none" stroke="midnightblue" d="M1625.36,-56.66C1622.2,-56.42 1619.07,-56.21 1616,-56 1257.33,-32.04 1164.3,-67.64 808,-20 805.91,-19.72 803.76,-19.38 801.6,-19.01"/>
<polygon fill="midnightblue" stroke="midnightblue" points="802.05,-15.53 791.56,-17.03 800.7,-22.4 802.05,-15.53"/>
</g>
<!-- Node27&#45;&gt;Node11 -->
<g id="edge45" class="edge">
<title>Node27&#45;&gt;Node11</title>
<path fill="none" stroke="midnightblue" d="M1695.93,-56.44C1673.94,-47.52 1639.27,-33.44 1614.34,-23.32"/>
<polygon fill="midnightblue" stroke="midnightblue" points="1615.56,-20.04 1604.98,-19.52 1612.92,-26.52 1615.56,-20.04"/>
</g>
<!-- Node27&#45;&gt;Node16 -->
<g id="edge46" class="edge">
<title>Node27&#45;&gt;Node16</title>
<path fill="none" stroke="midnightblue" d="M1682.93,-56.44C1644.84,-46.88 1583.17,-31.39 1542.61,-21.2"/>
<polygon fill="midnightblue" stroke="midnightblue" points="1543.32,-17.77 1532.77,-18.73 1541.62,-24.56 1543.32,-17.77"/>
</g>
<!-- Node27&#45;&gt;Node19 -->
<g id="edge49" class="edge">
<title>Node27&#45;&gt;Node19</title>
<path fill="none" stroke="midnightblue" d="M1660.46,-56.49C1608.79,-48.36 1530.4,-35.13 1463,-20 1462.9,-19.98 1462.8,-19.95 1462.7,-19.93"/>
<polygon fill="midnightblue" stroke="midnightblue" points="1463.56,-16.54 1453.01,-17.56 1461.89,-23.34 1463.56,-16.54"/>
</g>
<!-- Node27&#45;&gt;Node20 -->
<g id="edge50" class="edge">
<title>Node27&#45;&gt;Node20</title>
<path fill="none" stroke="midnightblue" d="M1707.68,-56.32C1699.11,-48.34 1686.19,-36.31 1675.81,-26.65"/>
<polygon fill="midnightblue" stroke="midnightblue" points="1678.19,-24.09 1668.49,-19.83 1673.42,-29.21 1678.19,-24.09"/>
</g>
<!-- Node27&#45;&gt;Node26 -->
<g id="edge47" class="edge">
<title>Node27&#45;&gt;Node26</title>
<path fill="none" stroke="midnightblue" d="M1717.99,-56.08C1718.79,-48.93 1719.93,-38.64 1720.92,-29.69"/>
<polygon fill="midnightblue" stroke="midnightblue" points="1724.4,-30.08 1722.03,-19.75 1717.44,-29.3 1724.4,-30.08"/>
</g>
<!-- Node28&#45;&gt;Node3 -->
<g id="edge53" class="edge">
<title>Node28&#45;&gt;Node3</title>
<path fill="none" stroke="midnightblue" d="M1990.37,-112.32C2002.16,-104.06 2020.13,-91.45 2034.14,-81.63"/>
<polygon fill="midnightblue" stroke="midnightblue" points="2036.48,-84.26 2042.66,-75.65 2032.46,-78.53 2036.48,-84.26"/>
</g>
<!-- Node28&#45;&gt;Node5 -->
<g id="edge54" class="edge">
<title>Node28&#45;&gt;Node5</title>
<path fill="none" stroke="midnightblue" d="M1979.02,-112.37C1981.12,-94.62 1985.96,-53.67 1988.8,-29.6"/>
<polygon fill="midnightblue" stroke="midnightblue" points="1992.29,-29.93 1989.98,-19.59 1985.34,-29.11 1992.29,-29.93"/>
</g>
<!-- Node29 -->
<g id="node29" class="node">
<title>Node29</title>
<g id="a_node29"><a xlink:title=" ">
<polygon fill="none" stroke="#bfbfbf" points="1903.5,-56.5 1903.5,-75.5 1962.5,-75.5 1962.5,-56.5 1903.5,-56.5"/>
<text text-anchor="middle" x="1933" y="-63.5" font-family="serif" font-size="10.00">memory</text>
</a>
</g>
</g>
<!-- Node28&#45;&gt;Node29 -->
<g id="edge52" class="edge">
<title>Node28&#45;&gt;Node29</title>
<path fill="none" stroke="midnightblue" d="M1970.57,-112.08C1964.15,-104.38 1954.69,-93.03 1946.88,-83.65"/>
<polygon fill="midnightblue" stroke="midnightblue" points="1949.38,-81.19 1940.29,-75.75 1944.01,-85.67 1949.38,-81.19"/>
</g>
<!-- Node30&#45;&gt;Node2 -->
<g id="edge57" class="edge">
<title>Node30&#45;&gt;Node2</title>
<path fill="none" stroke="midnightblue" d="M1918.48,-229.99C1905.3,-227.92 1891.14,-225.79 1878,-224 1522.05,-175.58 1428.52,-195.78 1075,-132 973.16,-113.63 941.75,-121.9 849,-76 842.05,-72.56 807.82,-44.35 786.14,-26.24"/>
<polygon fill="midnightblue" stroke="midnightblue" points="788.18,-23.39 778.26,-19.65 783.68,-28.75 788.18,-23.39"/>
</g>
<!-- Node30&#45;&gt;Node8 -->
<g id="edge59" class="edge">
<title>Node30&#45;&gt;Node8</title>
<path fill="none" stroke="midnightblue" d="M1922.38,-230C1908.14,-227.73 1892.48,-225.49 1878,-224 1554.43,-190.63 1470.65,-220.57 1147,-188 1145.7,-187.87 1144.38,-187.73 1143.04,-187.58"/>
<polygon fill="midnightblue" stroke="midnightblue" points="1143.07,-184.06 1132.72,-186.31 1142.22,-191 1143.07,-184.06"/>
</g>
<!-- Node30&#45;&gt;Node20 -->
<g id="edge58" class="edge">
<title>Node30&#45;&gt;Node20</title>
<path fill="none" stroke="midnightblue" d="M1959.29,-229.75C1947.77,-220.1 1929.19,-203.83 1915,-188 1866.4,-133.79 1877.82,-97.49 1818,-56 1815.37,-54.18 1739.11,-33.02 1693.17,-20.37"/>
<polygon fill="midnightblue" stroke="midnightblue" points="1693.88,-16.94 1683.31,-17.66 1692.03,-23.69 1693.88,-16.94"/>
</g>
<!-- Node30&#45;&gt;Node26 -->
<g id="edge56" class="edge">
<title>Node30&#45;&gt;Node26</title>
<path fill="none" stroke="midnightblue" d="M1963.51,-229.84C1950.16,-211.93 1918.89,-169.34 1895,-132 1873.97,-99.12 1881.05,-80.91 1851,-56 1823.34,-33.08 1783.21,-21.49 1755.28,-15.88"/>
<polygon fill="midnightblue" stroke="midnightblue" points="1755.7,-12.39 1745.22,-14 1754.41,-19.28 1755.7,-12.39"/>
</g>
<!-- Node31&#45;&gt;Node8 -->
<g id="edge61" class="edge">
<title>Node31&#45;&gt;Node8</title>
<path fill="none" stroke="midnightblue" d="M1215.65,-229.98C1190.31,-219.86 1147.86,-202.9 1118.93,-191.35"/>
<polygon fill="midnightblue" stroke="midnightblue" points="1119.89,-187.97 1109.31,-187.51 1117.3,-194.47 1119.89,-187.97"/>
</g>
<!-- Node32&#45;&gt;Node2 -->
<g id="edge63" class="edge">
<title>Node32&#45;&gt;Node2</title>
<path fill="none" stroke="midnightblue" d="M811.96,-229.79C802.87,-220.42 789.34,-204.61 783,-188 762.23,-133.62 763.93,-63.21 766.26,-29.97"/>
<polygon fill="midnightblue" stroke="midnightblue" points="769.76,-30.1 767.08,-19.85 762.79,-29.54 769.76,-30.1"/>
</g>
<!-- Node32&#45;&gt;Node8 -->
<g id="edge64" class="edge">
<title>Node32&#45;&gt;Node8</title>
<path fill="none" stroke="midnightblue" d="M859.25,-229.98C906.84,-219.37 988.11,-201.26 1039.88,-189.72"/>
<polygon fill="midnightblue" stroke="midnightblue" points="1040.82,-193.1 1049.82,-187.51 1039.29,-186.27 1040.82,-193.1"/>
</g>
<!-- Node33&#45;&gt;Node8 -->
<g id="edge66" class="edge">
<title>Node33&#45;&gt;Node8</title>
<path fill="none" stroke="midnightblue" d="M1380.14,-229.98C1317.3,-219.01 1208.45,-200.02 1142.84,-188.57"/>
<polygon fill="midnightblue" stroke="midnightblue" points="1143.15,-185.07 1132.69,-186.8 1141.94,-191.97 1143.15,-185.07"/>
</g>
<!-- Node34&#45;&gt;Node2 -->
<g id="edge68" class="edge">
<title>Node34&#45;&gt;Node2</title>
<path fill="none" stroke="midnightblue" d="M994.01,-224.33C958.37,-197.32 879.74,-135.83 821,-76 806.08,-60.8 790.91,-41.76 780.64,-28.22"/>
<polygon fill="midnightblue" stroke="midnightblue" points="783.17,-25.76 774.38,-19.84 777.57,-29.95 783.17,-25.76"/>
</g>
<!-- Node34&#45;&gt;Node8 -->
<g id="edge69" class="edge">
<title>Node34&#45;&gt;Node8</title>
<path fill="none" stroke="midnightblue" d="M1030.77,-224.4C1042.35,-215.22 1057.42,-203.26 1069.2,-193.92"/>
<polygon fill="midnightblue" stroke="midnightblue" points="1071.43,-196.61 1077.09,-187.66 1067.08,-191.13 1071.43,-196.61"/>
</g>
<!-- Node35&#45;&gt;Node8 -->
<g id="edge71" class="edge">
<title>Node35&#45;&gt;Node8</title>
<path fill="none" stroke="midnightblue" d="M1536.68,-225.19C1533.76,-224.77 1530.85,-224.37 1528,-224 1359.36,-201.85 1315.81,-208.83 1147,-188 1145.7,-187.84 1144.38,-187.67 1143.05,-187.5"/>
<polygon fill="midnightblue" stroke="midnightblue" points="1143.12,-183.98 1132.74,-186.1 1142.18,-190.91 1143.12,-183.98"/>
</g>
<!-- Node36&#45;&gt;Node2 -->
<g id="edge73" class="edge">
<title>Node36&#45;&gt;Node2</title>
<path fill="none" stroke="midnightblue" d="M137.17,-229.95C211.4,-203.72 442.77,-122.12 635,-56 668.93,-44.33 707.81,-31.2 734.73,-22.15"/>
<polygon fill="midnightblue" stroke="midnightblue" points="736.07,-25.4 744.43,-18.89 733.84,-18.76 736.07,-25.4"/>
</g>
<!-- Node36&#45;&gt;Node8 -->
<g id="edge74" class="edge">
<title>Node36&#45;&gt;Node8</title>
<path fill="none" stroke="midnightblue" d="M162.15,-229.95C176.56,-227.71 192.38,-225.5 207,-224 518.45,-192.11 894.27,-182.46 1033.06,-179.86"/>
<polygon fill="midnightblue" stroke="midnightblue" points="1033.48,-183.35 1043.42,-179.67 1033.35,-176.35 1033.48,-183.35"/>
</g>
<!-- Node37&#45;&gt;Node8 -->
<g id="edge76" class="edge">
<title>Node37&#45;&gt;Node8</title>
<path fill="none" stroke="midnightblue" d="M1742,-229.97C1728.48,-227.76 1713.69,-225.56 1700,-224 1455.28,-196.17 1391.86,-214.6 1147,-188 1145.7,-187.86 1144.38,-187.71 1143.05,-187.55"/>
<polygon fill="midnightblue" stroke="midnightblue" points="1143.09,-184.03 1132.72,-186.24 1142.2,-190.97 1143.09,-184.03"/>
</g>
<!-- Node38&#45;&gt;Node2 -->
<g id="edge78" class="edge">
<title>Node38&#45;&gt;Node2</title>
<path fill="none" stroke="midnightblue" d="M312.68,-230C384.38,-195.51 653.81,-65.92 740.76,-24.1"/>
<polygon fill="midnightblue" stroke="midnightblue" points="742.48,-27.16 749.98,-19.67 739.45,-20.85 742.48,-27.16"/>
</g>
<!-- Node38&#45;&gt;Node8 -->
<g id="edge79" class="edge">
<title>Node38&#45;&gt;Node8</title>
<path fill="none" stroke="midnightblue" d="M341.46,-229.96C354.83,-227.74 369.46,-225.54 383,-224 624.3,-196.49 914.13,-184.61 1033.03,-180.65"/>
<polygon fill="midnightblue" stroke="midnightblue" points="1033.44,-184.13 1043.32,-180.31 1033.21,-177.14 1033.44,-184.13"/>
</g>
<!-- Node39&#45;&gt;Node2 -->
<g id="edge81" class="edge">
<title>Node39&#45;&gt;Node2</title>
<path fill="none" stroke="midnightblue" d="M477.47,-229.86C522.88,-195.65 690.39,-69.47 748.21,-25.9"/>
<polygon fill="midnightblue" stroke="midnightblue" points="750.64,-28.46 756.52,-19.65 746.43,-22.87 750.64,-28.46"/>
</g>
<!-- Node39&#45;&gt;Node8 -->
<g id="edge82" class="edge">
<title>Node39&#45;&gt;Node8</title>
<path fill="none" stroke="midnightblue" d="M510.69,-229.94C523.06,-227.77 536.52,-225.61 549,-224 725.35,-201.28 935.7,-187.55 1033.28,-181.94"/>
<polygon fill="midnightblue" stroke="midnightblue" points="1033.7,-185.42 1043.49,-181.36 1033.31,-178.44 1033.7,-185.42"/>
</g>
</g>
</svg>
        <g id="navigator" transform="translate(0 0)" fill="#404254">
                <rect fill="#f2f5e9" fill-opacity="0.5" stroke="#606060" stroke-width=".5" x="0" y="0" width="60" height="60"/>
                <use id="zoomplus" xlink:href="#zoomPlus" x="17" y="9" onmousedown="handleZoom(evt,'in')"/>
                <use id="zoomminus" xlink:href="#zoomMin" x="42" y="9" onmousedown="handleZoom(evt,'out')"/>
                <use id="reset" xlink:href="#resetDef" x="30" y="36" onmousedown="handleReset()"/>
                <g id="arrowUp" xlink:href="#dirArrow" transform="translate(30 24)" onmousedown="handlePan(0,-1)">
                  <use xlink:href="#rim" fill="#404040">
                        <set attributeName="fill" to="#808080" begin="arrowUp.mouseover" end="arrowUp.mouseout"/>
                  </use>
                  <path fill="none" stroke="white" stroke-width="1.5" d="M0,-3.0v7 M-2.5,-0.5L0,-3.0L2.5,-0.5"/>
                </g>
                <g id="arrowRight" xlink:href="#dirArrow" transform="rotate(90) translate(36 -43)" onmousedown="handlePan(1,0)">
                  <use xlink:href="#rim" fill="#404040">
                        <set attributeName="fill" to="#808080" begin="arrowRight.mouseover" end="arrowRight.mouseout"/>
                  </use>
                  <path fill="none" stroke="white" stroke-width="1.5" d="M0,-3.0v7 M-2.5,-0.5L0,-3.0L2.5,-0.5"/>
                </g>
                <g id="arrowDown" xlink:href="#dirArrow" transform="rotate(180) translate(-30 -48)" onmousedown="handlePan(0,1)">
                  <use xlink:href="#rim" fill="#404040">
                        <set attributeName="fill" to="#808080" begin="arrowDown.mouseover" end="arrowDown.mouseout"/>
                  </use>
                  <path fill="none" stroke="white" stroke-width="1.5" d="M0,-3.0v7 M-2.5,-0.5L0,-3.0L2.5,-0.5"/>
                </g>
                <g id="arrowLeft" xlink:href="#dirArrow" transform="rotate(270) translate(-36 17)" onmousedown="handlePan(-1,0)">
                  <use xlink:href="#rim" fill="#404040">
                        <set attributeName="fill" to="#808080" begin="arrowLeft.mouseover" end="arrowLeft.mouseout"/>
                  </use>
                  <path fill="none" stroke="white" stroke-width="1.5" d="M0,-3.0v7 M-2.5,-0.5L0,-3.0L2.5,-0.5"/>
                </g>
        </g>
        <svg viewBox="0 0 15 15" width="100%" height="30px" preserveAspectRatio="xMaxYMin meet">
         <g id="arrow_out" transform="scale(0.3 0.3)">
          <a xlink:href="Parameter_8hpp__incl_org.svg" target="_base">
           <rect id="button" ry="5" rx="5" y="6" x="6" height="38" width="38"
                fill="#f2f5e9" fill-opacity="0.5" stroke="#606060" stroke-width="1.0"/>
           <path id="arrow"
             d="M 11.500037,31.436501 C 11.940474,20.09759 22.043105,11.32322 32.158766,21.979434 L 37.068811,17.246167 C 37.068811,17.246167 37.088388,32 37.088388,32 L 22.160133,31.978069 C 22.160133,31.978069 26.997745,27.140456 26.997745,27.140456 C 18.528582,18.264221 13.291696,25.230495 11.500037,31.436501 z"
             style="fill:#404040;"/>
          </a>
         </g>
        </svg>
</svg>
