<?xml version="1.0" encoding="UTF-8" standalone="no"?>
<!DOCTYPE svg PUBLIC "-//W3C//DTD SVG 1.1//EN"
 "http://www.w3.org/Graphics/SVG/1.1/DTD/svg11.dtd">
<!-- Generated by graphviz version 2.43.0 (0)
 -->
<!-- Title: PhysicalConvergence.hpp Pages: 1 -->
<svg width="684pt" height="252pt"
 viewBox="0.00 0.00 684.46 252.00" xmlns="http://www.w3.org/2000/svg" xmlns:xlink="http://www.w3.org/1999/xlink">
<g id="graph0" class="graph" transform="scale(1 1) rotate(0) translate(4 248)">
<title>PhysicalConvergence.hpp</title>
<!-- Node1 -->
<g id="node1" class="node">
<title>Node1</title>
<g id="a_node1"><a xlink:title="Class used to define a PhysicalConvergence criterion (physical increment allowed per time&#45;step)">
<polygon fill="#bfbfbf" stroke="black" points="258.96,-224.5 258.96,-243.5 407.96,-243.5 407.96,-224.5 258.96,-224.5"/>
<text text-anchor="middle" x="333.46" y="-231.5" font-family="serif" font-size="10.00">PhysicalConvergence.hpp</text>
</a>
</g>
</g>
<!-- Node2 -->
<g id="node2" class="node">
<title>Node2</title>
<g id="a_node2"><a xlink:href="Convergence_8hpp.html" target="_top" xlink:title="Class used to build and manage PhysicalConvergence.">
<polygon fill="none" stroke="black" points="320.96,-168.5 320.96,-187.5 427.96,-187.5 427.96,-168.5 320.96,-168.5"/>
<text text-anchor="middle" x="374.46" y="-175.5" font-family="serif" font-size="10.00">Convergence.hpp</text>
</a>
</g>
</g>
<!-- Node1&#45;&gt;Node2 -->
<g id="edge1" class="edge">
<title>Node1&#45;&gt;Node2</title>
<path fill="none" stroke="midnightblue" d="M346.48,-215.86C353.58,-206.5 362.07,-195.33 367.82,-187.75"/>
<polygon fill="midnightblue" stroke="midnightblue" points="343.49,-214 340.23,-224.08 349.07,-218.24 343.49,-214"/>
</g>
<!-- Node3 -->
<g id="node3" class="node">
<title>Node3</title>
<g id="a_node3"><a xlink:href="Calphad__problem_8hpp.html" target="_top" xlink:title="Class used to defined a Calphad_Problem objet.">
<polygon fill="none" stroke="black" points="382.96,-112.5 382.96,-131.5 513.96,-131.5 513.96,-112.5 382.96,-112.5"/>
<text text-anchor="middle" x="448.46" y="-119.5" font-family="serif" font-size="10.00">Calphad_problem.hpp</text>
</a>
</g>
</g>
<!-- Node1&#45;&gt;Node3 -->
<g id="edge13" class="edge">
<title>Node1&#45;&gt;Node3</title>
<path fill="none" stroke="midnightblue" d="M385.31,-221.29C404.05,-214.54 423.71,-204.08 436.46,-188 449.59,-171.46 450.04,-145.12 449.26,-131.61"/>
<polygon fill="midnightblue" stroke="midnightblue" points="384.03,-218.02 375.64,-224.49 386.23,-224.67 384.03,-218.02"/>
</g>
<!-- Node5 -->
<g id="node5" class="node">
<title>Node5</title>
<g id="a_node5"><a xlink:href="sloth_8hpp.html" target="_top" xlink:title="List of SLOTH header files.">
<polygon fill="none" stroke="black" points="82.96,-0.5 82.96,-19.5 147.96,-19.5 147.96,-0.5 82.96,-0.5"/>
<text text-anchor="middle" x="115.46" y="-7.5" font-family="serif" font-size="10.00">sloth.hpp</text>
</a>
</g>
</g>
<!-- Node1&#45;&gt;Node5 -->
<g id="edge22" class="edge">
<title>Node1&#45;&gt;Node5</title>
<path fill="none" stroke="midnightblue" d="M265.4,-222.84C177.22,-207.99 31.55,-177.14 4.46,-132 -6.42,-113.86 5.52,-70.64 17.46,-56 33.79,-35.98 60.99,-24.47 82.6,-18.11"/>
<polygon fill="midnightblue" stroke="midnightblue" points="264.89,-226.3 275.32,-224.48 266.03,-219.39 264.89,-226.3"/>
</g>
<!-- Node6 -->
<g id="node6" class="node">
<title>Node6</title>
<g id="a_node6"><a xlink:href="Problem_8hpp.html" target="_top" xlink:title="Class used to defined a PDE Problem.">
<polygon fill="none" stroke="black" points="13.96,-112.5 13.96,-131.5 96.96,-131.5 96.96,-112.5 13.96,-112.5"/>
<text text-anchor="middle" x="55.46" y="-119.5" font-family="serif" font-size="10.00">Problem.hpp</text>
</a>
</g>
</g>
<!-- Node1&#45;&gt;Node6 -->
<g id="edge14" class="edge">
<title>Node1&#45;&gt;Node6</title>
<path fill="none" stroke="midnightblue" d="M263.88,-222.62C228.03,-215.69 184.24,-204.7 147.46,-188 114.34,-172.96 80.78,-145.46 64.91,-131.55"/>
<polygon fill="midnightblue" stroke="midnightblue" points="263.3,-226.07 273.77,-224.47 264.59,-219.19 263.3,-226.07"/>
</g>
<!-- Node8 -->
<g id="node8" class="node">
<title>Node8</title>
<g id="a_node8"><a xlink:href="PropertyProblem_8hpp.html" target="_top" xlink:title="Class used to compute primary variables as a function of auxialiary variables.">
<polygon fill="none" stroke="black" points="237.96,-112.5 237.96,-131.5 364.96,-131.5 364.96,-112.5 237.96,-112.5"/>
<text text-anchor="middle" x="301.46" y="-119.5" font-family="serif" font-size="10.00">PropertyProblem.hpp</text>
</a>
</g>
</g>
<!-- Node1&#45;&gt;Node8 -->
<g id="edge21" class="edge">
<title>Node1&#45;&gt;Node8</title>
<path fill="none" stroke="midnightblue" d="M323.37,-215.5C319.09,-207.37 314.42,-197.44 311.46,-188 305.32,-168.39 302.87,-144.22 301.96,-131.6"/>
<polygon fill="midnightblue" stroke="midnightblue" points="320.36,-217.29 328.26,-224.36 326.5,-213.92 320.36,-217.29"/>
</g>
<!-- Node9 -->
<g id="node9" class="node">
<title>Node9</title>
<g id="a_node9"><a xlink:href="Convergence_8cpp.html" target="_top" xlink:title="Class used to build and manage PhysicalConvergence.">
<polygon fill="none" stroke="black" points="570.46,-112.5 570.46,-131.5 676.46,-131.5 676.46,-112.5 570.46,-112.5"/>
<text text-anchor="middle" x="623.46" y="-119.5" font-family="serif" font-size="10.00">Convergence.cpp</text>
</a>
</g>
</g>
<!-- Node1&#45;&gt;Node9 -->
<g id="edge23" class="edge">
<title>Node1&#45;&gt;Node9</title>
<path fill="none" stroke="midnightblue" d="M366.46,-220.99C391.03,-212.01 425.39,-199.36 455.46,-188 508.12,-168.1 569.79,-144.05 601.76,-131.52"/>
<polygon fill="midnightblue" stroke="midnightblue" points="365.08,-217.76 356.89,-224.48 367.49,-224.34 365.08,-217.76"/>
</g>
<!-- Node10 -->
<g id="node10" class="node">
<title>Node10</title>
<g id="a_node10"><a xlink:href="ProblemBase_8hpp.html" target="_top" xlink:title="Base class for building Problems.">
<polygon fill="none" stroke="black" points="156.96,-168.5 156.96,-187.5 263.96,-187.5 263.96,-168.5 156.96,-168.5"/>
<text text-anchor="middle" x="210.46" y="-175.5" font-family="serif" font-size="10.00">ProblemBase.hpp</text>
</a>
</g>
</g>
<!-- Node1&#45;&gt;Node10 -->
<g id="edge15" class="edge">
<title>Node1&#45;&gt;Node10</title>
<path fill="none" stroke="midnightblue" d="M304.69,-220.37C281.66,-210.26 249.98,-196.35 229.86,-187.52"/>
<polygon fill="midnightblue" stroke="midnightblue" points="303.41,-223.63 313.97,-224.44 306.22,-217.22 303.41,-223.63"/>
</g>
<!-- Node12 -->
<g id="node12" class="node">
<title>Node12</title>
<g id="a_node12"><a xlink:href="PhysicalConvergence_8cpp.html" target="_top" xlink:title="Class used to define a PhysicalConvergence criterion (physical increment allowed per time&#45;step)">
<polygon fill="none" stroke="black" points="522.46,-168.5 522.46,-187.5 670.46,-187.5 670.46,-168.5 522.46,-168.5"/>
<text text-anchor="middle" x="596.46" y="-175.5" font-family="serif" font-size="10.00">PhysicalConvergence.cpp</text>
</a>
</g>
</g>
<!-- Node1&#45;&gt;Node12 -->
<g id="edge24" class="edge">
<title>Node1&#45;&gt;Node12</title>
<path fill="none" stroke="midnightblue" d="M385.04,-222.41C434.75,-212.2 508.99,-196.96 554.98,-187.52"/>
<polygon fill="midnightblue" stroke="midnightblue" points="384.23,-219 375.14,-224.44 385.64,-225.86 384.23,-219"/>
</g>
<!-- Node2&#45;&gt;Node3 -->
<g id="edge2" class="edge">
<title>Node2&#45;&gt;Node3</title>
<path fill="none" stroke="midnightblue" d="M394.5,-162.38C407.87,-152.62 425.02,-140.11 436.36,-131.83"/>
<polygon fill="midnightblue" stroke="midnightblue" points="392.37,-159.6 386.35,-168.32 396.49,-165.26 392.37,-159.6"/>
</g>
<!-- Node2&#45;&gt;Node5 -->
<g id="edge11" class="edge">
<title>Node2&#45;&gt;Node5</title>
<path fill="none" stroke="midnightblue" d="M434.61,-166.36C471.02,-158.56 512.49,-146.77 523.46,-132 528.76,-124.86 528.94,-119 523.46,-112 476.69,-52.24 236.58,-22.91 148.18,-14.02"/>
<polygon fill="midnightblue" stroke="midnightblue" points="433.59,-163 424.5,-168.46 435,-169.86 433.59,-163"/>
</g>
<!-- Node2&#45;&gt;Node6 -->
<g id="edge5" class="edge">
<title>Node2&#45;&gt;Node6</title>
<path fill="none" stroke="midnightblue" d="M312.9,-166.81C258.57,-157.79 177.22,-144.18 106.46,-132 103.45,-131.48 100.34,-130.94 97.21,-130.4"/>
<polygon fill="midnightblue" stroke="midnightblue" points="312.63,-170.31 323.06,-168.5 313.77,-163.41 312.63,-170.31"/>
</g>
<!-- Node2&#45;&gt;Node8 -->
<g id="edge9" class="edge">
<title>Node2&#45;&gt;Node8</title>
<path fill="none" stroke="midnightblue" d="M354.32,-162.1C341.18,-152.38 324.48,-140.03 313.4,-131.83"/>
<polygon fill="midnightblue" stroke="midnightblue" points="352.61,-165.19 362.73,-168.32 356.78,-159.56 352.61,-165.19"/>
</g>
<!-- Node2&#45;&gt;Node9 -->
<g id="edge12" class="edge">
<title>Node2&#45;&gt;Node9</title>
<path fill="none" stroke="midnightblue" d="M423.89,-166.28C470.94,-156.08 540.83,-140.92 584.19,-131.52"/>
<polygon fill="midnightblue" stroke="midnightblue" points="422.95,-162.9 413.92,-168.44 424.43,-169.74 422.95,-162.9"/>
</g>
<!-- Node4 -->
<g id="node4" class="node">
<title>Node4</title>
<g id="a_node4"><a xlink:href="ListProblems_8hpp.html" target="_top" xlink:title=" ">
<polygon fill="none" stroke="black" points="113.96,-56.5 113.96,-75.5 220.96,-75.5 220.96,-56.5 113.96,-56.5"/>
<text text-anchor="middle" x="167.46" y="-63.5" font-family="serif" font-size="10.00">ListProblems.hpp</text>
</a>
</g>
</g>
<!-- Node3&#45;&gt;Node4 -->
<g id="edge3" class="edge">
<title>Node3&#45;&gt;Node4</title>
<path fill="none" stroke="midnightblue" d="M394.02,-110.54C340.91,-100.33 261.12,-85 211.78,-75.52"/>
<polygon fill="midnightblue" stroke="midnightblue" points="393.46,-113.99 403.94,-112.44 394.78,-107.12 393.46,-113.99"/>
</g>
<!-- Node4&#45;&gt;Node5 -->
<g id="edge4" class="edge">
<title>Node4&#45;&gt;Node5</title>
<path fill="none" stroke="midnightblue" d="M151.78,-48.72C142.62,-39.2 131.41,-27.56 123.89,-19.75"/>
<polygon fill="midnightblue" stroke="midnightblue" points="149.42,-51.31 158.88,-56.08 154.46,-46.45 149.42,-51.31"/>
</g>
<!-- Node6&#45;&gt;Node4 -->
<g id="edge6" class="edge">
<title>Node6&#45;&gt;Node4</title>
<path fill="none" stroke="midnightblue" d="M82.71,-107.86C103.48,-97.85 131.49,-84.35 149.51,-75.65"/>
<polygon fill="midnightblue" stroke="midnightblue" points="80.94,-104.83 73.46,-112.32 83.99,-111.13 80.94,-104.83"/>
</g>
<!-- Node7 -->
<g id="node7" class="node">
<title>Node7</title>
<g id="a_node7"><a xlink:href="Time_8hpp.html" target="_top" xlink:title="Main time loop.">
<polygon fill="none" stroke="black" points="26.96,-56.5 26.96,-75.5 91.96,-75.5 91.96,-56.5 26.96,-56.5"/>
<text text-anchor="middle" x="59.46" y="-63.5" font-family="serif" font-size="10.00">Time.hpp</text>
</a>
</g>
</g>
<!-- Node6&#45;&gt;Node7 -->
<g id="edge7" class="edge">
<title>Node6&#45;&gt;Node7</title>
<path fill="none" stroke="midnightblue" d="M56.86,-102.1C57.53,-93.14 58.29,-82.86 58.81,-75.75"/>
<polygon fill="midnightblue" stroke="midnightblue" points="53.37,-101.85 56.12,-112.08 60.35,-102.37 53.37,-101.85"/>
</g>
<!-- Node7&#45;&gt;Node5 -->
<g id="edge8" class="edge">
<title>Node7&#45;&gt;Node5</title>
<path fill="none" stroke="midnightblue" d="M75.79,-49.25C85.73,-39.67 98.05,-27.79 106.3,-19.83"/>
<polygon fill="midnightblue" stroke="midnightblue" points="73.23,-46.86 68.46,-56.32 78.09,-51.9 73.23,-46.86"/>
</g>
<!-- Node8&#45;&gt;Node4 -->
<g id="edge10" class="edge">
<title>Node8&#45;&gt;Node4</title>
<path fill="none" stroke="midnightblue" d="M270.79,-108.64C245.64,-98.5 210.71,-84.43 188.6,-75.52"/>
<polygon fill="midnightblue" stroke="midnightblue" points="269.65,-111.95 280.23,-112.44 272.26,-105.46 269.65,-111.95"/>
</g>
<!-- Node10&#45;&gt;Node3 -->
<g id="edge16" class="edge">
<title>Node10&#45;&gt;Node3</title>
<path fill="none" stroke="midnightblue" d="M257.99,-166.22C302.96,-156.01 369.57,-140.9 410.93,-131.52"/>
<polygon fill="midnightblue" stroke="midnightblue" points="257.15,-162.82 248.17,-168.44 258.7,-169.64 257.15,-162.82"/>
</g>
<!-- Node10&#45;&gt;Node6 -->
<g id="edge19" class="edge">
<title>Node10&#45;&gt;Node6</title>
<path fill="none" stroke="midnightblue" d="M176.13,-165.04C146.97,-154.88 105.83,-140.55 79.91,-131.52"/>
<polygon fill="midnightblue" stroke="midnightblue" points="175.31,-168.46 185.9,-168.44 177.61,-161.85 175.31,-168.46"/>
</g>
<!-- Node10&#45;&gt;Node8 -->
<g id="edge20" class="edge">
<title>Node10&#45;&gt;Node8</title>
<path fill="none" stroke="midnightblue" d="M233.76,-163.18C250.5,-153.24 272.56,-140.15 286.88,-131.65"/>
<polygon fill="midnightblue" stroke="midnightblue" points="231.9,-160.21 225.08,-168.32 235.47,-166.23 231.9,-160.21"/>
</g>
<!-- Node11 -->
<g id="node11" class="node">
<title>Node11</title>
<g id="a_node11"><a xlink:href="MPIProblem_8hpp.html" target="_top" xlink:title="Class used to defined a MPI_Problem objet.">
<polygon fill="none" stroke="black" points="115.46,-112.5 115.46,-131.5 219.46,-131.5 219.46,-112.5 115.46,-112.5"/>
<text text-anchor="middle" x="167.46" y="-119.5" font-family="serif" font-size="10.00">MPIProblem.hpp</text>
</a>
</g>
</g>
<!-- Node10&#45;&gt;Node11 -->
<g id="edge17" class="edge">
<title>Node10&#45;&gt;Node11</title>
<path fill="none" stroke="midnightblue" d="M197.04,-160.14C189.55,-150.74 180.53,-139.4 174.43,-131.75"/>
<polygon fill="midnightblue" stroke="midnightblue" points="194.39,-162.44 203.36,-168.08 199.87,-158.08 194.39,-162.44"/>
</g>
<!-- Node11&#45;&gt;Node4 -->
<g id="edge18" class="edge">
<title>Node11&#45;&gt;Node4</title>
<path fill="none" stroke="midnightblue" d="M167.46,-101.8C167.46,-92.91 167.46,-82.78 167.46,-75.75"/>
<polygon fill="midnightblue" stroke="midnightblue" points="163.96,-102.08 167.46,-112.08 170.96,-102.08 163.96,-102.08"/>
</g>
</g>
</svg>
