<?xml version="1.0" encoding="UTF-8" standalone="no"?>
<!DOCTYPE svg PUBLIC "-//W3C//DTD SVG 1.1//EN"
 "http://www.w3.org/Graphics/SVG/1.1/DTD/svg11.dtd">
<!-- Generated by graphviz version 2.43.0 (0)
 -->
<!-- Title: PhysicalConvergence.cpp Pages: 1 -->
<svg width="2433pt" height="431pt"
 viewBox="0.00 0.00 2433.00 431.00" xmlns="http://www.w3.org/2000/svg" xmlns:xlink="http://www.w3.org/1999/xlink">
<g id="graph0" class="graph" transform="scale(1 1) rotate(0) translate(4 427)">
<title>PhysicalConvergence.cpp</title>
<!-- Node1 -->
<g id="node1" class="node">
<title>Node1</title>
<g id="a_node1"><a xlink:title="Class used to define a PhysicalConvergence criterion (physical increment allowed per time&#45;step)">
<polygon fill="#bfbfbf" stroke="black" points="2162,-403.5 2162,-422.5 2310,-422.5 2310,-403.5 2162,-403.5"/>
<text text-anchor="middle" x="2236" y="-410.5" font-family="serif" font-size="10.00">PhysicalConvergence.cpp</text>
</a>
</g>
</g>
<!-- Node2 -->
<g id="node2" class="node">
<title>Node2</title>
<g id="a_node2"><a xlink:href="PhysicalConvergence_8hpp.html" target="_top" xlink:title="Class used to define a PhysicalConvergence criterion (physical increment allowed per time&#45;step)">
<polygon fill="none" stroke="black" points="1977,-347.5 1977,-366.5 2197,-366.5 2197,-347.5 1977,-347.5"/>
<text text-anchor="middle" x="2087" y="-354.5" font-family="serif" font-size="10.00">Convergence/PhysicalConvergence.hpp</text>
</a>
</g>
</g>
<!-- Node1&#45;&gt;Node2 -->
<g id="edge1" class="edge">
<title>Node1&#45;&gt;Node2</title>
<path fill="none" stroke="midnightblue" d="M2212.39,-403.44C2187.54,-394.44 2148.23,-380.19 2120.25,-370.05"/>
<polygon fill="midnightblue" stroke="midnightblue" points="2121.09,-366.63 2110.5,-366.52 2118.71,-373.21 2121.09,-366.63"/>
</g>
<!-- Node3 -->
<g id="node3" class="node">
<title>Node3</title>
<g id="a_node3"><a xlink:title=" ">
<polygon fill="none" stroke="#bfbfbf" points="1749,-0.5 1749,-19.5 1815,-19.5 1815,-0.5 1749,-0.5"/>
<text text-anchor="middle" x="1782" y="-7.5" font-family="serif" font-size="10.00">algorithm</text>
</a>
</g>
</g>
<!-- Node1&#45;&gt;Node3 -->
<g id="edge87" class="edge">
<title>Node1&#45;&gt;Node3</title>
<path fill="none" stroke="midnightblue" d="M2247.39,-403.4C2268.37,-386.48 2311,-346.61 2311,-302 2311,-302 2311,-302 2311,-238.5 2311,-133 1951.4,-46.82 1825.17,-19.81"/>
<polygon fill="midnightblue" stroke="midnightblue" points="1825.6,-16.33 1815.09,-17.68 1824.15,-23.18 1825.6,-16.33"/>
</g>
<!-- Node4 -->
<g id="node4" class="node">
<title>Node4</title>
<g id="a_node4"><a xlink:title=" ">
<polygon fill="none" stroke="#bfbfbf" points="2327,-0.5 2327,-19.5 2371,-19.5 2371,-0.5 2327,-0.5"/>
<text text-anchor="middle" x="2349" y="-7.5" font-family="serif" font-size="10.00">limits</text>
</a>
</g>
</g>
<!-- Node1&#45;&gt;Node4 -->
<g id="edge88" class="edge">
<title>Node1&#45;&gt;Node4</title>
<path fill="none" stroke="midnightblue" d="M2310.2,-406.7C2341.52,-400.99 2376.37,-389.56 2401,-367 2423.71,-346.2 2425,-332.8 2425,-302 2425,-302 2425,-302 2425,-121 2425,-81.28 2391.04,-45.5 2368.52,-26.15"/>
<polygon fill="midnightblue" stroke="midnightblue" points="2370.48,-23.24 2360.54,-19.57 2366.02,-28.63 2370.48,-23.24"/>
</g>
<!-- Node5 -->
<g id="node5" class="node">
<title>Node5</title>
<g id="a_node5"><a xlink:title=" ">
<polygon fill="none" stroke="#bfbfbf" points="1409.5,-0.5 1409.5,-19.5 1452.5,-19.5 1452.5,-0.5 1409.5,-0.5"/>
<text text-anchor="middle" x="1431" y="-7.5" font-family="serif" font-size="10.00">tuple</text>
</a>
</g>
</g>
<!-- Node1&#45;&gt;Node5 -->
<g id="edge89" class="edge">
<title>Node1&#45;&gt;Node5</title>
<path fill="none" stroke="midnightblue" d="M2161.77,-410.33C1854.69,-403.08 682.66,-371.89 318,-311 228.64,-296.08 176.56,-327.33 122,-255 66.85,-181.88 172.87,-183.58 234,-168 452.06,-112.41 1027.3,-184.99 1246,-132 1302.81,-118.24 1317.05,-109.43 1365,-76 1385.1,-61.99 1404.66,-41.63 1417.19,-27.44"/>
<polygon fill="midnightblue" stroke="midnightblue" points="1420.15,-29.37 1424.04,-19.52 1414.85,-24.8 1420.15,-29.37"/>
</g>
<!-- Node6 -->
<g id="node6" class="node">
<title>Node6</title>
<g id="a_node6"><a xlink:title=" ">
<polygon fill="none" stroke="#bfbfbf" points="1889,-0.5 1889,-19.5 1937,-19.5 1937,-0.5 1889,-0.5"/>
<text text-anchor="middle" x="1913" y="-7.5" font-family="serif" font-size="10.00">vector</text>
</a>
</g>
</g>
<!-- Node1&#45;&gt;Node6 -->
<g id="edge90" class="edge">
<title>Node1&#45;&gt;Node6</title>
<path fill="none" stroke="midnightblue" d="M2270.26,-403.44C2314.82,-390.02 2387,-359.41 2387,-302 2387,-302 2387,-302 2387,-177 2387,-130.33 2055.48,-45.62 1946.95,-19.14"/>
<polygon fill="midnightblue" stroke="midnightblue" points="1947.7,-15.72 1937.16,-16.76 1946.05,-22.52 1947.7,-15.72"/>
</g>
<!-- Node20 -->
<g id="node20" class="node">
<title>Node20</title>
<g id="a_node20"><a xlink:title=" ">
<polygon fill="none" stroke="#bfbfbf" points="301.5,-0.5 301.5,-19.5 370.5,-19.5 370.5,-0.5 301.5,-0.5"/>
<text text-anchor="middle" x="336" y="-7.5" font-family="serif" font-size="10.00">mfem.hpp</text>
</a>
</g>
</g>
<!-- Node1&#45;&gt;Node20 -->
<g id="edge91" class="edge">
<title>Node1&#45;&gt;Node20</title>
<path fill="none" stroke="midnightblue" d="M2161.92,-412.31C1774.6,-413.48 0,-412.8 0,-302 0,-302 0,-302 0,-121 0,-71.66 44.62,-75.36 90,-56 156.5,-27.63 240.58,-17.13 291.23,-13.25"/>
<polygon fill="midnightblue" stroke="midnightblue" points="291.48,-16.74 301.2,-12.54 290.98,-9.76 291.48,-16.74"/>
</g>
<!-- Node2&#45;&gt;Node3 -->
<g id="edge2" class="edge">
<title>Node2&#45;&gt;Node3</title>
<path fill="none" stroke="midnightblue" d="M2108.31,-347.36C2152.93,-327.94 2249.43,-278.3 2216,-224 2170.26,-149.69 1912.52,-55.58 1817.33,-22.85"/>
<polygon fill="midnightblue" stroke="midnightblue" points="1818.18,-19.45 1807.59,-19.52 1815.92,-26.07 1818.18,-19.45"/>
</g>
<!-- Node2&#45;&gt;Node4 -->
<g id="edge3" class="edge">
<title>Node2&#45;&gt;Node4</title>
<path fill="none" stroke="midnightblue" d="M2197.35,-349.57C2268.95,-338.71 2349,-310.84 2349,-240.5 2349,-240.5 2349,-240.5 2349,-177 2349,-123.59 2349,-60.52 2349,-29.76"/>
<polygon fill="midnightblue" stroke="midnightblue" points="2352.5,-29.64 2349,-19.64 2345.5,-29.64 2352.5,-29.64"/>
</g>
<!-- Node2&#45;&gt;Node5 -->
<g id="edge4" class="edge">
<title>Node2&#45;&gt;Node5</title>
<path fill="none" stroke="midnightblue" d="M1976.92,-354.45C1573.61,-348.26 196.85,-322.24 133,-255 123.51,-245.01 123.64,-234.11 133,-224 222.62,-127.15 1189.44,-165.76 1317,-132 1345.25,-124.52 1420.34,-100.68 1436,-76 1444.71,-62.28 1442.07,-43.49 1438.08,-29.65"/>
<polygon fill="midnightblue" stroke="midnightblue" points="1441.27,-28.16 1434.78,-19.79 1434.64,-30.39 1441.27,-28.16"/>
</g>
<!-- Node2&#45;&gt;Node6 -->
<g id="edge5" class="edge">
<title>Node2&#45;&gt;Node6</title>
<path fill="none" stroke="midnightblue" d="M2144.74,-347.46C2185.92,-340.05 2236.19,-327.85 2249,-311 2272.4,-280.22 2264.98,-259.21 2249,-224 2192.17,-98.76 2020.45,-39.48 1946.96,-19.32"/>
<polygon fill="midnightblue" stroke="midnightblue" points="1947.83,-15.93 1937.26,-16.73 1946.02,-22.69 1947.83,-15.93"/>
</g>
<!-- Node7 -->
<g id="node7" class="node">
<title>Node7</title>
<g id="a_node7"><a xlink:href="Options_8hpp.html" target="_top" xlink:title="List of all Options files.">
<polygon fill="none" stroke="black" points="1250,-291.5 1250,-310.5 1372,-310.5 1372,-291.5 1250,-291.5"/>
<text text-anchor="middle" x="1311" y="-298.5" font-family="serif" font-size="10.00">Options/Options.hpp</text>
</a>
</g>
</g>
<!-- Node2&#45;&gt;Node7 -->
<g id="edge6" class="edge">
<title>Node2&#45;&gt;Node7</title>
<path fill="none" stroke="midnightblue" d="M1976.64,-348.32C1814.94,-337.07 1518.15,-316.41 1382.29,-306.96"/>
<polygon fill="midnightblue" stroke="midnightblue" points="1382.23,-303.45 1372.01,-306.25 1381.74,-310.43 1382.23,-303.45"/>
</g>
<!-- Node10 -->
<g id="node10" class="node">
<title>Node10</title>
<g id="a_node10"><a xlink:href="Utils_8hpp.html" target="_top" xlink:title="List of all Utils files.">
<polygon fill="none" stroke="black" points="1121.5,-168.5 1121.5,-187.5 1210.5,-187.5 1210.5,-168.5 1121.5,-168.5"/>
<text text-anchor="middle" x="1166" y="-175.5" font-family="serif" font-size="10.00">Utils/Utils.hpp</text>
</a>
</g>
</g>
<!-- Node2&#45;&gt;Node10 -->
<g id="edge85" class="edge">
<title>Node2&#45;&gt;Node10</title>
<path fill="none" stroke="midnightblue" d="M2084.07,-347.49C2075.13,-323 2045.61,-252.32 1994,-224 1919.01,-182.85 1310.12,-196.46 1225,-188 1223.7,-187.87 1222.37,-187.73 1221.04,-187.58"/>
<polygon fill="midnightblue" stroke="midnightblue" points="1221.07,-184.06 1210.72,-186.32 1220.22,-191.01 1221.07,-184.06"/>
</g>
<!-- Node2&#45;&gt;Node20 -->
<g id="edge86" class="edge">
<title>Node2&#45;&gt;Node20</title>
<path fill="none" stroke="midnightblue" d="M1976.71,-354.81C1615.38,-350.71 481.04,-335.95 318,-311 207.26,-294.05 76,-352.53 76,-240.5 76,-240.5 76,-240.5 76,-121 76,-28.55 217.16,-12.62 291.46,-10.64"/>
<polygon fill="midnightblue" stroke="midnightblue" points="291.54,-14.14 301.47,-10.44 291.41,-7.14 291.54,-14.14"/>
</g>
<!-- Node8 -->
<g id="node8" class="node">
<title>Node8</title>
<g id="a_node8"><a xlink:href="AnalyticalFunctionOptions_8hpp.html" target="_top" xlink:title="Options for Analytical functions.">
<polygon fill="none" stroke="black" points="318.5,-224.5 318.5,-254.5 473.5,-254.5 473.5,-224.5 318.5,-224.5"/>
<text text-anchor="start" x="326.5" y="-242.5" font-family="serif" font-size="10.00">Options/AnalyticalFunction</text>
<text text-anchor="middle" x="396" y="-231.5" font-family="serif" font-size="10.00">Options.hpp</text>
</a>
</g>
</g>
<!-- Node7&#45;&gt;Node8 -->
<g id="edge7" class="edge">
<title>Node7&#45;&gt;Node8</title>
<path fill="none" stroke="midnightblue" d="M1249.78,-298.99C1113.83,-296.25 776.35,-286.69 483.68,-254.98"/>
<polygon fill="midnightblue" stroke="midnightblue" points="484.05,-251.5 473.73,-253.89 483.29,-258.46 484.05,-251.5"/>
</g>
<!-- Node7&#45;&gt;Node10 -->
<g id="edge84" class="edge">
<title>Node7&#45;&gt;Node10</title>
<path fill="none" stroke="midnightblue" d="M1347.7,-291.35C1366.83,-284.77 1388.57,-273.58 1400,-255 1407.22,-243.26 1408.77,-234.62 1400,-224 1394.27,-217.06 1288.15,-198.75 1220.81,-187.75"/>
<polygon fill="midnightblue" stroke="midnightblue" points="1221.19,-184.26 1210.76,-186.11 1220.07,-191.17 1221.19,-184.26"/>
</g>
<!-- Node30 -->
<g id="node30" class="node">
<title>Node30</title>
<g id="a_node30"><a xlink:href="CalphadOptions_8hpp.html" target="_top" xlink:title="Options for Calphad problems.">
<polygon fill="none" stroke="black" points="2041.5,-230 2041.5,-249 2206.5,-249 2206.5,-230 2041.5,-230"/>
<text text-anchor="middle" x="2124" y="-237" font-family="serif" font-size="10.00">Options/CalphadOptions.hpp</text>
</a>
</g>
</g>
<!-- Node7&#45;&gt;Node30 -->
<g id="edge56" class="edge">
<title>Node7&#45;&gt;Node30</title>
<path fill="none" stroke="midnightblue" d="M1372.3,-296.89C1491.95,-290.63 1764.96,-275.31 1994,-255 2009.83,-253.6 2026.72,-251.88 2042.9,-250.12"/>
<polygon fill="midnightblue" stroke="midnightblue" points="2043.32,-253.59 2052.88,-249.02 2042.55,-246.64 2043.32,-253.59"/>
</g>
<!-- Node31 -->
<g id="node31" class="node">
<title>Node31</title>
<g id="a_node31"><a xlink:href="DiffusionOptions_8hpp.html" target="_top" xlink:title="Option for Mass Diffusion problems.">
<polygon fill="none" stroke="black" points="1447,-230 1447,-249 1615,-249 1615,-230 1447,-230"/>
<text text-anchor="middle" x="1531" y="-237" font-family="serif" font-size="10.00">Options/DiffusionOptions.hpp</text>
</a>
</g>
</g>
<!-- Node7&#45;&gt;Node31 -->
<g id="edge61" class="edge">
<title>Node7&#45;&gt;Node31</title>
<path fill="none" stroke="midnightblue" d="M1342.52,-291.48C1381.24,-281 1447.02,-263.21 1489.74,-251.66"/>
<polygon fill="midnightblue" stroke="midnightblue" points="1490.8,-255 1499.54,-249.01 1488.97,-248.24 1490.8,-255"/>
</g>
<!-- Node32 -->
<g id="node32" class="node">
<title>Node32</title>
<g id="a_node32"><a xlink:href="IntegratorsOptions_8hpp.html" target="_top" xlink:title="Options for Integrators.">
<polygon fill="none" stroke="black" points="658.5,-230 658.5,-249 837.5,-249 837.5,-230 658.5,-230"/>
<text text-anchor="middle" x="748" y="-237" font-family="serif" font-size="10.00">Options/IntegratorsOptions.hpp</text>
</a>
</g>
</g>
<!-- Node7&#45;&gt;Node32 -->
<g id="edge63" class="edge">
<title>Node7&#45;&gt;Node32</title>
<path fill="none" stroke="midnightblue" d="M1249.72,-295.02C1160.84,-287.57 991.01,-272.52 847,-255 836.04,-253.67 824.42,-252.1 813.15,-250.5"/>
<polygon fill="midnightblue" stroke="midnightblue" points="813.32,-246.99 802.92,-249.03 812.32,-253.92 813.32,-246.99"/>
</g>
<!-- Node33 -->
<g id="node33" class="node">
<title>Node33</title>
<g id="a_node33"><a xlink:href="PhaseFieldOptions_8hpp.html" target="_top" xlink:title="Options for PhaseField problems.">
<polygon fill="none" stroke="black" points="1633.5,-230 1633.5,-249 1812.5,-249 1812.5,-230 1633.5,-230"/>
<text text-anchor="middle" x="1723" y="-237" font-family="serif" font-size="10.00">Options/PhaseFieldOptions.hpp</text>
</a>
</g>
</g>
<!-- Node7&#45;&gt;Node33 -->
<g id="edge66" class="edge">
<title>Node7&#45;&gt;Node33</title>
<path fill="none" stroke="midnightblue" d="M1370.72,-291.46C1433.71,-282.45 1535.85,-267.79 1624,-255 1633.93,-253.56 1644.41,-252.03 1654.7,-250.53"/>
<polygon fill="midnightblue" stroke="midnightblue" points="1655.51,-253.95 1664.9,-249.04 1654.5,-247.02 1655.51,-253.95"/>
</g>
<!-- Node34 -->
<g id="node34" class="node">
<title>Node34</title>
<g id="a_node34"><a xlink:href="PhysicalConvergenceOptions_8hpp.html" target="_top" xlink:title="Options for PhysicalConvergence objects.">
<polygon fill="none" stroke="black" points="855.5,-224.5 855.5,-254.5 1024.5,-254.5 1024.5,-224.5 855.5,-224.5"/>
<text text-anchor="start" x="863.5" y="-242.5" font-family="serif" font-size="10.00">Options/PhysicalConvergence</text>
<text text-anchor="middle" x="940" y="-231.5" font-family="serif" font-size="10.00">Options.hpp</text>
</a>
</g>
</g>
<!-- Node7&#45;&gt;Node34 -->
<g id="edge68" class="edge">
<title>Node7&#45;&gt;Node34</title>
<path fill="none" stroke="midnightblue" d="M1257.84,-291.48C1199.79,-282.16 1105.65,-267.07 1034.86,-255.71"/>
<polygon fill="midnightblue" stroke="midnightblue" points="1035.02,-252.19 1024.59,-254.07 1033.91,-259.11 1035.02,-252.19"/>
</g>
<!-- Node35 -->
<g id="node35" class="node">
<title>Node35</title>
<g id="a_node35"><a xlink:href="PhysicalPropertiesOptions_8hpp.html" target="_top" xlink:title="Options for physical properties.">
<polygon fill="none" stroke="black" points="1831,-224.5 1831,-254.5 1985,-254.5 1985,-224.5 1831,-224.5"/>
<text text-anchor="start" x="1839" y="-242.5" font-family="serif" font-size="10.00">Options/PhysicalProperties</text>
<text text-anchor="middle" x="1908" y="-231.5" font-family="serif" font-size="10.00">Options.hpp</text>
</a>
</g>
</g>
<!-- Node7&#45;&gt;Node35 -->
<g id="edge71" class="edge">
<title>Node7&#45;&gt;Node35</title>
<path fill="none" stroke="midnightblue" d="M1372.13,-296.19C1466.28,-289.97 1652.66,-276.29 1820.67,-255.11"/>
<polygon fill="midnightblue" stroke="midnightblue" points="1821.21,-258.57 1830.69,-253.83 1820.33,-251.62 1821.21,-258.57"/>
</g>
<!-- Node36 -->
<g id="node36" class="node">
<title>Node36</title>
<g id="a_node36"><a xlink:href="ProblemsOptions_8hpp.html" target="_top" xlink:title="Options for Problem objects.">
<polygon fill="none" stroke="black" points="1043,-230 1043,-249 1213,-249 1213,-230 1043,-230"/>
<text text-anchor="middle" x="1128" y="-237" font-family="serif" font-size="10.00">Options/ProblemsOptions.hpp</text>
</a>
</g>
</g>
<!-- Node7&#45;&gt;Node36 -->
<g id="edge73" class="edge">
<title>Node7&#45;&gt;Node36</title>
<path fill="none" stroke="midnightblue" d="M1284.78,-291.48C1252.98,-281.14 1199.23,-263.66 1163.68,-252.1"/>
<polygon fill="midnightblue" stroke="midnightblue" points="1164.76,-248.77 1154.17,-249.01 1162.6,-255.43 1164.76,-248.77"/>
</g>
<!-- Node37 -->
<g id="node37" class="node">
<title>Node37</title>
<g id="a_node37"><a xlink:href="SolversOptions_8hpp.html" target="_top" xlink:title="Options for solvers and preconditioners.">
<polygon fill="none" stroke="black" points="1231,-230 1231,-249 1391,-249 1391,-230 1231,-230"/>
<text text-anchor="middle" x="1311" y="-237" font-family="serif" font-size="10.00">Options/SolversOptions.hpp</text>
</a>
</g>
</g>
<!-- Node7&#45;&gt;Node37 -->
<g id="edge76" class="edge">
<title>Node7&#45;&gt;Node37</title>
<path fill="none" stroke="midnightblue" d="M1311,-291.48C1311,-283.08 1311,-269.98 1311,-259.16"/>
<polygon fill="midnightblue" stroke="midnightblue" points="1314.5,-259.01 1311,-249.01 1307.5,-259.01 1314.5,-259.01"/>
</g>
<!-- Node38 -->
<g id="node38" class="node">
<title>Node38</title>
<g id="a_node38"><a xlink:href="SpatialOptions_8hpp.html" target="_top" xlink:title="Options for Spatial discretization.">
<polygon fill="none" stroke="black" points="142,-230 142,-249 300,-249 300,-230 142,-230"/>
<text text-anchor="middle" x="221" y="-237" font-family="serif" font-size="10.00">Options/SpatialOptions.hpp</text>
</a>
</g>
</g>
<!-- Node7&#45;&gt;Node38 -->
<g id="edge78" class="edge">
<title>Node7&#45;&gt;Node38</title>
<path fill="none" stroke="midnightblue" d="M1249.82,-299.77C1093,-298.63 664.04,-292.09 309,-255 298.5,-253.9 287.34,-252.36 276.63,-250.69"/>
<polygon fill="midnightblue" stroke="midnightblue" points="276.97,-247.2 266.53,-249.06 275.85,-254.11 276.97,-247.2"/>
</g>
<!-- Node39 -->
<g id="node39" class="node">
<title>Node39</title>
<g id="a_node39"><a xlink:href="TimeOptions_8hpp.html" target="_top" xlink:title="Options for Time discretization.">
<polygon fill="none" stroke="black" points="492,-230 492,-249 640,-249 640,-230 492,-230"/>
<text text-anchor="middle" x="566" y="-237" font-family="serif" font-size="10.00">Options/TimeOptions.hpp</text>
</a>
</g>
</g>
<!-- Node7&#45;&gt;Node39 -->
<g id="edge81" class="edge">
<title>Node7&#45;&gt;Node39</title>
<path fill="none" stroke="midnightblue" d="M1249.65,-297.98C1132.53,-293.66 869.15,-281.64 649,-255 639.52,-253.85 629.47,-252.35 619.76,-250.74"/>
<polygon fill="midnightblue" stroke="midnightblue" points="620.26,-247.27 609.81,-249.04 619.08,-254.17 620.26,-247.27"/>
</g>
<!-- Node9 -->
<g id="node9" class="node">
<title>Node9</title>
<g id="a_node9"><a xlink:title=" ">
<polygon fill="none" stroke="#bfbfbf" points="800.5,-0.5 800.5,-19.5 847.5,-19.5 847.5,-0.5 800.5,-0.5"/>
<text text-anchor="middle" x="824" y="-7.5" font-family="serif" font-size="10.00">string</text>
</a>
</g>
</g>
<!-- Node8&#45;&gt;Node9 -->
<g id="edge8" class="edge">
<title>Node8&#45;&gt;Node9</title>
<path fill="none" stroke="midnightblue" d="M453.29,-224.46C483.29,-215.98 520.11,-203.74 551,-188 640.03,-142.64 647.47,-107.66 733,-56 753.08,-43.87 776.87,-32.19 795.09,-23.77"/>
<polygon fill="midnightblue" stroke="midnightblue" points="796.68,-26.9 804.32,-19.57 793.77,-20.53 796.68,-26.9"/>
</g>
<!-- Node8&#45;&gt;Node10 -->
<g id="edge9" class="edge">
<title>Node8&#45;&gt;Node10</title>
<path fill="none" stroke="midnightblue" d="M473.73,-225.15C476.86,-224.74 479.96,-224.35 483,-224 715.61,-197.02 994.8,-184.91 1111.04,-180.77"/>
<polygon fill="midnightblue" stroke="midnightblue" points="1111.24,-184.26 1121.11,-180.41 1110.99,-177.27 1111.24,-184.26"/>
</g>
<!-- Node11 -->
<g id="node11" class="node">
<title>Node11</title>
<g id="a_node11"><a xlink:href="UtilsForData_8hpp.html" target="_top" xlink:title="Usefull methods for data.">
<polygon fill="none" stroke="black" points="966.5,-56.5 966.5,-75.5 1097.5,-75.5 1097.5,-56.5 966.5,-56.5"/>
<text text-anchor="middle" x="1032" y="-63.5" font-family="serif" font-size="10.00">Utils/UtilsForData.hpp</text>
</a>
</g>
</g>
<!-- Node10&#45;&gt;Node11 -->
<g id="edge10" class="edge">
<title>Node10&#45;&gt;Node11</title>
<path fill="none" stroke="midnightblue" d="M1146.62,-168.34C1129.85,-160.32 1105.46,-147.33 1087,-132 1070.02,-117.9 1054.14,-98.14 1043.85,-84.11"/>
<polygon fill="midnightblue" stroke="midnightblue" points="1046.6,-81.95 1037.94,-75.84 1040.91,-86.02 1046.6,-81.95"/>
</g>
<!-- Node21 -->
<g id="node21" class="node">
<title>Node21</title>
<g id="a_node21"><a xlink:href="UtilsForDebug_8hpp.html" target="_top" xlink:title="Usefull methods for debug.">
<polygon fill="none" stroke="black" points="1095.5,-112.5 1095.5,-131.5 1236.5,-131.5 1236.5,-112.5 1095.5,-112.5"/>
<text text-anchor="middle" x="1166" y="-119.5" font-family="serif" font-size="10.00">Utils/UtilsForDebug.hpp</text>
</a>
</g>
</g>
<!-- Node10&#45;&gt;Node21 -->
<g id="edge24" class="edge">
<title>Node10&#45;&gt;Node21</title>
<path fill="none" stroke="midnightblue" d="M1166,-168.08C1166,-161.01 1166,-150.86 1166,-141.99"/>
<polygon fill="midnightblue" stroke="midnightblue" points="1169.5,-141.75 1166,-131.75 1162.5,-141.75 1169.5,-141.75"/>
</g>
<!-- Node24 -->
<g id="node24" class="node">
<title>Node24</title>
<g id="a_node24"><a xlink:href="UtilsForOptions_8hpp.html" target="_top" xlink:title="Usefull methods for Options.">
<polygon fill="none" stroke="black" points="1526,-56.5 1526,-75.5 1672,-75.5 1672,-56.5 1526,-56.5"/>
<text text-anchor="middle" x="1599" y="-63.5" font-family="serif" font-size="10.00">Utils/UtilsForOptions.hpp</text>
</a>
</g>
</g>
<!-- Node10&#45;&gt;Node24 -->
<g id="edge35" class="edge">
<title>Node10&#45;&gt;Node24</title>
<path fill="none" stroke="midnightblue" d="M1210.67,-169.78C1257.07,-161.92 1331.62,-148.27 1395,-132 1455.91,-116.37 1525.4,-93.01 1565.53,-78.97"/>
<polygon fill="midnightblue" stroke="midnightblue" points="1566.81,-82.23 1575.08,-75.61 1564.48,-75.62 1566.81,-82.23"/>
</g>
<!-- Node26 -->
<g id="node26" class="node">
<title>Node26</title>
<g id="a_node26"><a xlink:href="UtilsForPostProcessing_8hpp.html" target="_top" xlink:title="Usefull methods for post&#45;processing.">
<polygon fill="none" stroke="black" points="1690.5,-56.5 1690.5,-75.5 1873.5,-75.5 1873.5,-56.5 1690.5,-56.5"/>
<text text-anchor="middle" x="1782" y="-63.5" font-family="serif" font-size="10.00">Utils/UtilsForPostProcessing.hpp</text>
</a>
</g>
</g>
<!-- Node10&#45;&gt;Node26 -->
<g id="edge45" class="edge">
<title>Node10&#45;&gt;Node26</title>
<path fill="none" stroke="midnightblue" d="M1210.52,-170.12C1265.13,-161.6 1360.49,-146.43 1442,-132 1544.02,-113.93 1662.83,-90.72 1729.54,-77.49"/>
<polygon fill="midnightblue" stroke="midnightblue" points="1730.27,-80.91 1739.4,-75.53 1728.91,-74.05 1730.27,-80.91"/>
</g>
<!-- Node27 -->
<g id="node27" class="node">
<title>Node27</title>
<g id="a_node27"><a xlink:href="UtilsForVariants_8hpp.html" target="_top" xlink:title="manage std::Variants">
<polygon fill="none" stroke="black" points="2173,-56.5 2173,-75.5 2321,-75.5 2321,-56.5 2173,-56.5"/>
<text text-anchor="middle" x="2247" y="-63.5" font-family="serif" font-size="10.00">Utils/UtilsForVariants.hpp</text>
</a>
</g>
</g>
<!-- Node10&#45;&gt;Node27 -->
<g id="edge52" class="edge">
<title>Node10&#45;&gt;Node27</title>
<path fill="none" stroke="midnightblue" d="M1210.73,-172.45C1374.87,-155.75 1945.75,-97.65 2162.57,-75.59"/>
<polygon fill="midnightblue" stroke="midnightblue" points="2163.03,-79.06 2172.63,-74.57 2162.33,-72.1 2163.03,-79.06"/>
</g>
<!-- Node11&#45;&gt;Node3 -->
<g id="edge12" class="edge">
<title>Node11&#45;&gt;Node3</title>
<path fill="none" stroke="midnightblue" d="M1097.57,-60.28C1247.72,-49.47 1613.18,-23.16 1738.77,-14.11"/>
<polygon fill="midnightblue" stroke="midnightblue" points="1739.06,-17.6 1748.79,-13.39 1738.56,-10.62 1739.06,-17.6"/>
</g>
<!-- Node11&#45;&gt;Node5 -->
<g id="edge20" class="edge">
<title>Node11&#45;&gt;Node5</title>
<path fill="none" stroke="midnightblue" d="M1095.22,-56.44C1181.61,-44.75 1333.29,-24.22 1399.07,-15.32"/>
<polygon fill="midnightblue" stroke="midnightblue" points="1399.79,-18.76 1409.23,-13.95 1398.85,-11.82 1399.79,-18.76"/>
</g>
<!-- Node11&#45;&gt;Node6 -->
<g id="edge22" class="edge">
<title>Node11&#45;&gt;Node6</title>
<path fill="none" stroke="midnightblue" d="M1097.78,-61.03C1124.25,-59.45 1155.08,-57.62 1183,-56 1467.86,-39.51 1539.54,-42.36 1824,-20 1842.03,-18.58 1862.08,-16.59 1878.58,-14.84"/>
<polygon fill="midnightblue" stroke="midnightblue" points="1879.28,-18.29 1888.85,-13.74 1878.53,-11.33 1879.28,-18.29"/>
</g>
<!-- Node11&#45;&gt;Node9 -->
<g id="edge19" class="edge">
<title>Node11&#45;&gt;Node9</title>
<path fill="none" stroke="midnightblue" d="M999.04,-56.44C960.34,-46.4 896.51,-29.83 857.56,-19.71"/>
<polygon fill="midnightblue" stroke="midnightblue" points="858.3,-16.29 847.75,-17.16 856.55,-23.07 858.3,-16.29"/>
</g>
<!-- Node12 -->
<g id="node12" class="node">
<title>Node12</title>
<g id="a_node12"><a xlink:title=" ">
<polygon fill="none" stroke="#bfbfbf" points="868.5,-0.5 868.5,-19.5 927.5,-19.5 927.5,-0.5 868.5,-0.5"/>
<text text-anchor="middle" x="898" y="-7.5" font-family="serif" font-size="10.00">unistd.h</text>
</a>
</g>
</g>
<!-- Node11&#45;&gt;Node12 -->
<g id="edge11" class="edge">
<title>Node11&#45;&gt;Node12</title>
<path fill="none" stroke="midnightblue" d="M1010.77,-56.44C988.62,-47.52 953.68,-33.44 928.56,-23.32"/>
<polygon fill="midnightblue" stroke="midnightblue" points="929.72,-20.01 919.13,-19.52 927.1,-26.5 929.72,-20.01"/>
</g>
<!-- Node13 -->
<g id="node13" class="node">
<title>Node13</title>
<g id="a_node13"><a xlink:title=" ">
<polygon fill="none" stroke="#bfbfbf" points="1003,-0.5 1003,-19.5 1053,-19.5 1053,-0.5 1003,-0.5"/>
<text text-anchor="middle" x="1028" y="-7.5" font-family="serif" font-size="10.00">cctype</text>
</a>
</g>
</g>
<!-- Node11&#45;&gt;Node13 -->
<g id="edge13" class="edge">
<title>Node11&#45;&gt;Node13</title>
<path fill="none" stroke="midnightblue" d="M1031.34,-56.08C1030.82,-49.01 1030.06,-38.86 1029.41,-29.99"/>
<polygon fill="midnightblue" stroke="midnightblue" points="1032.88,-29.47 1028.65,-19.75 1025.9,-29.98 1032.88,-29.47"/>
</g>
<!-- Node14 -->
<g id="node14" class="node">
<title>Node14</title>
<g id="a_node14"><a xlink:title=" ">
<polygon fill="none" stroke="#bfbfbf" points="1157.5,-0.5 1157.5,-19.5 1204.5,-19.5 1204.5,-0.5 1157.5,-0.5"/>
<text text-anchor="middle" x="1181" y="-7.5" font-family="serif" font-size="10.00">cstdio</text>
</a>
</g>
</g>
<!-- Node11&#45;&gt;Node14 -->
<g id="edge14" class="edge">
<title>Node11&#45;&gt;Node14</title>
<path fill="none" stroke="midnightblue" d="M1055.61,-56.44C1080.46,-47.44 1119.77,-33.19 1147.75,-23.05"/>
<polygon fill="midnightblue" stroke="midnightblue" points="1149.29,-26.21 1157.5,-19.52 1146.91,-19.63 1149.29,-26.21"/>
</g>
<!-- Node15 -->
<g id="node15" class="node">
<title>Node15</title>
<g id="a_node15"><a xlink:title=" ">
<polygon fill="none" stroke="#bfbfbf" points="1071,-0.5 1071,-19.5 1139,-19.5 1139,-0.5 1071,-0.5"/>
<text text-anchor="middle" x="1105" y="-7.5" font-family="serif" font-size="10.00">filesystem</text>
</a>
</g>
</g>
<!-- Node11&#45;&gt;Node15 -->
<g id="edge15" class="edge">
<title>Node11&#45;&gt;Node15</title>
<path fill="none" stroke="midnightblue" d="M1043.73,-56.32C1054.84,-48.11 1071.74,-35.6 1084.98,-25.81"/>
<polygon fill="midnightblue" stroke="midnightblue" points="1087.1,-28.59 1093.06,-19.83 1082.94,-22.97 1087.1,-28.59"/>
</g>
<!-- Node16 -->
<g id="node16" class="node">
<title>Node16</title>
<g id="a_node16"><a xlink:title=" ">
<polygon fill="none" stroke="#bfbfbf" points="1223,-0.5 1223,-19.5 1291,-19.5 1291,-0.5 1223,-0.5"/>
<text text-anchor="middle" x="1257" y="-7.5" font-family="serif" font-size="10.00">functional</text>
</a>
</g>
</g>
<!-- Node11&#45;&gt;Node16 -->
<g id="edge16" class="edge">
<title>Node11&#45;&gt;Node16</title>
<path fill="none" stroke="midnightblue" d="M1067.65,-56.44C1107.11,-46.97 1170.74,-31.7 1213.21,-21.51"/>
<polygon fill="midnightblue" stroke="midnightblue" points="1214.08,-24.9 1222.99,-19.16 1212.45,-18.09 1214.08,-24.9"/>
</g>
<!-- Node17 -->
<g id="node17" class="node">
<title>Node17</title>
<g id="a_node17"><a xlink:title=" ">
<polygon fill="none" stroke="#bfbfbf" points="1487.5,-0.5 1487.5,-19.5 1548.5,-19.5 1548.5,-0.5 1487.5,-0.5"/>
<text text-anchor="middle" x="1518" y="-7.5" font-family="serif" font-size="10.00">iostream</text>
</a>
</g>
</g>
<!-- Node11&#45;&gt;Node17 -->
<g id="edge17" class="edge">
<title>Node11&#45;&gt;Node17</title>
<path fill="none" stroke="midnightblue" d="M1097.7,-59.26C1182.16,-51.62 1333.27,-37.07 1462,-20 1466.87,-19.35 1471.97,-18.62 1477.02,-17.85"/>
<polygon fill="midnightblue" stroke="midnightblue" points="1477.9,-21.26 1487.24,-16.26 1476.82,-14.34 1477.9,-21.26"/>
</g>
<!-- Node18 -->
<g id="node18" class="node">
<title>Node18</title>
<g id="a_node18"><a xlink:title=" ">
<polygon fill="none" stroke="#bfbfbf" points="945.5,-0.5 945.5,-19.5 984.5,-19.5 984.5,-0.5 945.5,-0.5"/>
<text text-anchor="middle" x="965" y="-7.5" font-family="serif" font-size="10.00">map</text>
</a>
</g>
</g>
<!-- Node11&#45;&gt;Node18 -->
<g id="edge18" class="edge">
<title>Node11&#45;&gt;Node18</title>
<path fill="none" stroke="midnightblue" d="M1021.24,-56.32C1011.23,-48.26 996.11,-36.08 984.07,-26.37"/>
<polygon fill="midnightblue" stroke="midnightblue" points="985.94,-23.38 975.96,-19.83 981.55,-28.83 985.94,-23.38"/>
</g>
<!-- Node19 -->
<g id="node19" class="node">
<title>Node19</title>
<g id="a_node19"><a xlink:title=" ">
<polygon fill="none" stroke="#bfbfbf" points="1571,-0.5 1571,-19.5 1617,-19.5 1617,-0.5 1571,-0.5"/>
<text text-anchor="middle" x="1594" y="-7.5" font-family="serif" font-size="10.00">utility</text>
</a>
</g>
</g>
<!-- Node11&#45;&gt;Node19 -->
<g id="edge21" class="edge">
<title>Node11&#45;&gt;Node19</title>
<path fill="none" stroke="midnightblue" d="M1097.91,-60.68C1218.73,-52.55 1471.21,-34.47 1558,-20 1558.92,-19.85 1559.85,-19.68 1560.78,-19.51"/>
<polygon fill="midnightblue" stroke="midnightblue" points="1561.82,-22.87 1570.88,-17.36 1560.37,-16.02 1561.82,-22.87"/>
</g>
<!-- Node11&#45;&gt;Node20 -->
<g id="edge23" class="edge">
<title>Node11&#45;&gt;Node20</title>
<path fill="none" stroke="midnightblue" d="M966.21,-59.9C825.92,-49.01 500.45,-23.76 381,-14.49"/>
<polygon fill="midnightblue" stroke="midnightblue" points="381,-10.98 370.76,-13.7 380.46,-17.96 381,-10.98"/>
</g>
<!-- Node21&#45;&gt;Node9 -->
<g id="edge31" class="edge">
<title>Node21&#45;&gt;Node9</title>
<path fill="none" stroke="midnightblue" d="M1108.03,-112.48C1048.73,-103.33 960.91,-88.41 929,-76 896.63,-63.41 863.17,-40.72 842.97,-25.76"/>
<polygon fill="midnightblue" stroke="midnightblue" points="845.01,-22.91 834.92,-19.68 840.8,-28.5 845.01,-22.91"/>
</g>
<!-- Node21&#45;&gt;Node11 -->
<g id="edge33" class="edge">
<title>Node21&#45;&gt;Node11</title>
<path fill="none" stroke="midnightblue" d="M1144.77,-112.44C1122.62,-103.52 1087.68,-89.44 1062.56,-79.32"/>
<polygon fill="midnightblue" stroke="midnightblue" points="1063.72,-76.01 1053.13,-75.52 1061.1,-82.5 1063.72,-76.01"/>
</g>
<!-- Node21&#45;&gt;Node12 -->
<g id="edge26" class="edge">
<title>Node21&#45;&gt;Node12</title>
<path fill="none" stroke="midnightblue" d="M1108.04,-112.47C1055.71,-104.06 983.18,-90.39 958,-76 937.46,-64.26 919.92,-43.12 909.2,-28.14"/>
<polygon fill="midnightblue" stroke="midnightblue" points="911.99,-26.01 903.44,-19.74 906.21,-29.97 911.99,-26.01"/>
</g>
<!-- Node21&#45;&gt;Node14 -->
<g id="edge27" class="edge">
<title>Node21&#45;&gt;Node14</title>
<path fill="none" stroke="midnightblue" d="M1160.96,-112.5C1154.22,-99.99 1143.79,-75.97 1150,-56 1153.23,-45.62 1159.78,-35.52 1166.02,-27.53"/>
<polygon fill="midnightblue" stroke="midnightblue" points="1168.79,-29.68 1172.52,-19.77 1163.42,-25.19 1168.79,-29.68"/>
</g>
<!-- Node21&#45;&gt;Node16 -->
<g id="edge29" class="edge">
<title>Node21&#45;&gt;Node16</title>
<path fill="none" stroke="midnightblue" d="M1166.26,-112.11C1167.08,-98.7 1170.32,-73.03 1183,-56 1193.46,-41.95 1209.72,-31.37 1224.34,-24.01"/>
<polygon fill="midnightblue" stroke="midnightblue" points="1226.08,-27.06 1233.63,-19.64 1223.09,-20.73 1226.08,-27.06"/>
</g>
<!-- Node21&#45;&gt;Node17 -->
<g id="edge30" class="edge">
<title>Node21&#45;&gt;Node17</title>
<path fill="none" stroke="midnightblue" d="M1214.91,-112.48C1255.6,-104.79 1314.77,-92.2 1365,-76 1410.41,-61.35 1460.97,-38.52 1491.1,-24.18"/>
<polygon fill="midnightblue" stroke="midnightblue" points="1492.99,-27.15 1500.49,-19.66 1489.96,-20.84 1492.99,-27.15"/>
</g>
<!-- Node21&#45;&gt;Node19 -->
<g id="edge32" class="edge">
<title>Node21&#45;&gt;Node19</title>
<path fill="none" stroke="midnightblue" d="M1223.74,-112.45C1272.26,-104.71 1343.22,-92.06 1404,-76 1460.84,-60.98 1525.25,-37.54 1562.58,-23.3"/>
<polygon fill="midnightblue" stroke="midnightblue" points="1564.29,-26.39 1572.37,-19.53 1561.78,-19.86 1564.29,-26.39"/>
</g>
<!-- Node21&#45;&gt;Node20 -->
<g id="edge34" class="edge">
<title>Node21&#45;&gt;Node20</title>
<path fill="none" stroke="midnightblue" d="M1101.56,-112.46C939.71,-91.01 519.19,-35.28 380.85,-16.94"/>
<polygon fill="midnightblue" stroke="midnightblue" points="380.99,-13.43 370.62,-15.59 380.07,-20.37 380.99,-13.43"/>
</g>
<!-- Node22 -->
<g id="node22" class="node">
<title>Node22</title>
<g id="a_node22"><a xlink:title=" ">
<polygon fill="none" stroke="#bfbfbf" points="1192,-56.5 1192,-75.5 1282,-75.5 1282,-56.5 1192,-56.5"/>
<text text-anchor="middle" x="1237" y="-63.5" font-family="serif" font-size="10.00">sys/resource.h</text>
</a>
</g>
</g>
<!-- Node21&#45;&gt;Node22 -->
<g id="edge25" class="edge">
<title>Node21&#45;&gt;Node22</title>
<path fill="none" stroke="midnightblue" d="M1177.41,-112.32C1188.11,-104.18 1204.34,-91.84 1217.16,-82.09"/>
<polygon fill="midnightblue" stroke="midnightblue" points="1219.54,-84.67 1225.39,-75.83 1215.31,-79.1 1219.54,-84.67"/>
</g>
<!-- Node23 -->
<g id="node23" class="node">
<title>Node23</title>
<g id="a_node23"><a xlink:title=" ">
<polygon fill="none" stroke="#bfbfbf" points="1300,-56.5 1300,-75.5 1356,-75.5 1356,-56.5 1300,-56.5"/>
<text text-anchor="middle" x="1328" y="-63.5" font-family="serif" font-size="10.00">fstream</text>
</a>
</g>
</g>
<!-- Node21&#45;&gt;Node23 -->
<g id="edge28" class="edge">
<title>Node21&#45;&gt;Node23</title>
<path fill="none" stroke="midnightblue" d="M1191.67,-112.44C1218.92,-103.36 1262.18,-88.94 1292.65,-78.78"/>
<polygon fill="midnightblue" stroke="midnightblue" points="1294.07,-82 1302.45,-75.52 1291.86,-75.36 1294.07,-82"/>
</g>
<!-- Node24&#45;&gt;Node3 -->
<g id="edge36" class="edge">
<title>Node24&#45;&gt;Node3</title>
<path fill="none" stroke="midnightblue" d="M1628,-56.44C1659.18,-47.24 1708.93,-32.56 1743.41,-22.39"/>
<polygon fill="midnightblue" stroke="midnightblue" points="1744.54,-25.7 1753.14,-19.52 1742.56,-18.99 1744.54,-25.7"/>
</g>
<!-- Node24&#45;&gt;Node4 -->
<g id="edge39" class="edge">
<title>Node24&#45;&gt;Node4</title>
<path fill="none" stroke="midnightblue" d="M1672.3,-56.85C1675.58,-56.55 1678.82,-56.26 1682,-56 1957.07,-33.12 2028.09,-54.03 2302,-20 2306.8,-19.4 2311.84,-18.61 2316.77,-17.75"/>
<polygon fill="midnightblue" stroke="midnightblue" points="2317.44,-21.19 2326.62,-15.91 2316.15,-14.31 2317.44,-21.19"/>
</g>
<!-- Node24&#45;&gt;Node5 -->
<g id="edge41" class="edge">
<title>Node24&#45;&gt;Node5</title>
<path fill="none" stroke="midnightblue" d="M1572.38,-56.44C1542.49,-46.84 1494.04,-31.26 1462.34,-21.07"/>
<polygon fill="midnightblue" stroke="midnightblue" points="1463.28,-17.7 1452.69,-17.97 1461.14,-24.36 1463.28,-17.7"/>
</g>
<!-- Node24&#45;&gt;Node6 -->
<g id="edge44" class="edge">
<title>Node24&#45;&gt;Node6</title>
<path fill="none" stroke="midnightblue" d="M1648.75,-56.44C1713.09,-45.38 1823.44,-26.4 1878.97,-16.85"/>
<polygon fill="midnightblue" stroke="midnightblue" points="1879.74,-20.27 1889,-15.13 1878.55,-13.37 1879.74,-20.27"/>
</g>
<!-- Node24&#45;&gt;Node9 -->
<g id="edge40" class="edge">
<title>Node24&#45;&gt;Node9</title>
<path fill="none" stroke="midnightblue" d="M1525.72,-62.26C1365.21,-55.97 986.8,-39.54 860,-20 859.26,-19.89 858.51,-19.76 857.76,-19.63"/>
<polygon fill="midnightblue" stroke="midnightblue" points="858.38,-16.19 847.89,-17.62 856.99,-23.05 858.38,-16.19"/>
</g>
<!-- Node24&#45;&gt;Node16 -->
<g id="edge37" class="edge">
<title>Node24&#45;&gt;Node16</title>
<path fill="none" stroke="midnightblue" d="M1544.81,-56.44C1477.37,-45.79 1363.49,-27.81 1301.11,-17.97"/>
<polygon fill="midnightblue" stroke="midnightblue" points="1301.62,-14.5 1291.19,-16.4 1300.52,-21.42 1301.62,-14.5"/>
</g>
<!-- Node24&#45;&gt;Node17 -->
<g id="edge38" class="edge">
<title>Node24&#45;&gt;Node17</title>
<path fill="none" stroke="midnightblue" d="M1585.99,-56.32C1573.47,-47.98 1554.32,-35.21 1539.53,-25.35"/>
<polygon fill="midnightblue" stroke="midnightblue" points="1541.24,-22.29 1530.98,-19.65 1537.36,-28.11 1541.24,-22.29"/>
</g>
<!-- Node24&#45;&gt;Node19 -->
<g id="edge42" class="edge">
<title>Node24&#45;&gt;Node19</title>
<path fill="none" stroke="midnightblue" d="M1598.17,-56.08C1597.52,-49.01 1596.58,-38.86 1595.76,-29.99"/>
<polygon fill="midnightblue" stroke="midnightblue" points="1599.22,-29.39 1594.81,-19.75 1592.25,-30.03 1599.22,-29.39"/>
</g>
<!-- Node25 -->
<g id="node25" class="node">
<title>Node25</title>
<g id="a_node25"><a xlink:title=" ">
<polygon fill="none" stroke="#bfbfbf" points="2034.5,-0.5 2034.5,-19.5 2087.5,-19.5 2087.5,-0.5 2034.5,-0.5"/>
<text text-anchor="middle" x="2061" y="-7.5" font-family="serif" font-size="10.00">variant</text>
</a>
</g>
</g>
<!-- Node24&#45;&gt;Node25 -->
<g id="edge43" class="edge">
<title>Node24&#45;&gt;Node25</title>
<path fill="none" stroke="midnightblue" d="M1671.95,-56.47C1772.01,-44.78 1948.06,-24.2 2024.2,-15.3"/>
<polygon fill="midnightblue" stroke="midnightblue" points="2024.74,-18.76 2034.26,-14.13 2023.92,-11.81 2024.74,-18.76"/>
</g>
<!-- Node26&#45;&gt;Node3 -->
<g id="edge46" class="edge">
<title>Node26&#45;&gt;Node3</title>
<path fill="none" stroke="midnightblue" d="M1782,-56.08C1782,-49.01 1782,-38.86 1782,-29.99"/>
<polygon fill="midnightblue" stroke="midnightblue" points="1785.5,-29.75 1782,-19.75 1778.5,-29.75 1785.5,-29.75"/>
</g>
<!-- Node26&#45;&gt;Node4 -->
<g id="edge48" class="edge">
<title>Node26&#45;&gt;Node4</title>
<path fill="none" stroke="midnightblue" d="M1873.9,-59.91C1978.07,-53.48 2152.78,-40.69 2302,-20 2306.79,-19.34 2311.83,-18.51 2316.76,-17.63"/>
<polygon fill="midnightblue" stroke="midnightblue" points="2317.42,-21.06 2326.61,-15.78 2316.13,-14.18 2317.42,-21.06"/>
</g>
<!-- Node26&#45;&gt;Node6 -->
<g id="edge51" class="edge">
<title>Node26&#45;&gt;Node6</title>
<path fill="none" stroke="midnightblue" d="M1802.76,-56.44C1824.32,-47.56 1858.26,-33.56 1882.79,-23.45"/>
<polygon fill="midnightblue" stroke="midnightblue" points="1884.43,-26.56 1892.34,-19.52 1881.76,-20.09 1884.43,-26.56"/>
</g>
<!-- Node26&#45;&gt;Node9 -->
<g id="edge49" class="edge">
<title>Node26&#45;&gt;Node9</title>
<path fill="none" stroke="midnightblue" d="M1690.36,-56.65C1687.2,-56.42 1684.07,-56.2 1681,-56 1316.56,-31.79 1221.44,-72.56 860,-20 859.26,-19.89 858.51,-19.78 857.76,-19.65"/>
<polygon fill="midnightblue" stroke="midnightblue" points="858.37,-16.2 847.88,-17.68 857,-23.07 858.37,-16.2"/>
</g>
<!-- Node26&#45;&gt;Node17 -->
<g id="edge47" class="edge">
<title>Node26&#45;&gt;Node17</title>
<path fill="none" stroke="midnightblue" d="M1740.17,-56.44C1690.35,-46.25 1607.72,-29.35 1558.5,-19.28"/>
<polygon fill="midnightblue" stroke="midnightblue" points="1559.02,-15.82 1548.52,-17.24 1557.62,-22.68 1559.02,-15.82"/>
</g>
<!-- Node26&#45;&gt;Node19 -->
<g id="edge50" class="edge">
<title>Node26&#45;&gt;Node19</title>
<path fill="none" stroke="midnightblue" d="M1752.21,-56.44C1718.1,-46.65 1662.37,-30.64 1626.98,-20.47"/>
<polygon fill="midnightblue" stroke="midnightblue" points="1627.71,-17.04 1617.13,-17.64 1625.78,-23.77 1627.71,-17.04"/>
</g>
<!-- Node27&#45;&gt;Node25 -->
<g id="edge55" class="edge">
<title>Node27&#45;&gt;Node25</title>
<path fill="none" stroke="midnightblue" d="M2217.53,-56.44C2184.99,-47 2132.58,-31.78 2097.48,-21.59"/>
<polygon fill="midnightblue" stroke="midnightblue" points="2098.2,-18.16 2087.62,-18.73 2096.25,-24.88 2098.2,-18.16"/>
</g>
<!-- Node28 -->
<g id="node28" class="node">
<title>Node28</title>
<g id="a_node28"><a xlink:title=" ">
<polygon fill="none" stroke="#bfbfbf" points="2233.5,-0.5 2233.5,-19.5 2292.5,-19.5 2292.5,-0.5 2233.5,-0.5"/>
<text text-anchor="middle" x="2263" y="-7.5" font-family="serif" font-size="10.00">memory</text>
</a>
</g>
</g>
<!-- Node27&#45;&gt;Node28 -->
<g id="edge53" class="edge">
<title>Node27&#45;&gt;Node28</title>
<path fill="none" stroke="midnightblue" d="M2249.64,-56.08C2251.79,-48.85 2254.88,-38.41 2257.55,-29.4"/>
<polygon fill="midnightblue" stroke="midnightblue" points="2260.92,-30.33 2260.41,-19.75 2254.21,-28.34 2260.92,-30.33"/>
</g>
<!-- Node29 -->
<g id="node29" class="node">
<title>Node29</title>
<g id="a_node29"><a xlink:title=" ">
<polygon fill="none" stroke="#bfbfbf" points="2144.5,-0.5 2144.5,-19.5 2215.5,-19.5 2215.5,-0.5 2144.5,-0.5"/>
<text text-anchor="middle" x="2180" y="-7.5" font-family="serif" font-size="10.00">type_traits</text>
</a>
</g>
</g>
<!-- Node27&#45;&gt;Node29 -->
<g id="edge54" class="edge">
<title>Node27&#45;&gt;Node29</title>
<path fill="none" stroke="midnightblue" d="M2236.24,-56.32C2226.23,-48.26 2211.11,-36.08 2199.07,-26.37"/>
<polygon fill="midnightblue" stroke="midnightblue" points="2200.94,-23.38 2190.96,-19.83 2196.55,-28.83 2200.94,-23.38"/>
</g>
<!-- Node30&#45;&gt;Node4 -->
<g id="edge57" class="edge">
<title>Node30&#45;&gt;Node4</title>
<path fill="none" stroke="midnightblue" d="M2141.05,-229.89C2180.51,-209.07 2278.66,-152.08 2330,-76 2339.35,-62.14 2344.18,-43.63 2346.62,-29.9"/>
<polygon fill="midnightblue" stroke="midnightblue" points="2350.12,-30.12 2348.16,-19.71 2343.2,-29.07 2350.12,-30.12"/>
</g>
<!-- Node30&#45;&gt;Node6 -->
<g id="edge59" class="edge">
<title>Node30&#45;&gt;Node6</title>
<path fill="none" stroke="midnightblue" d="M2115.99,-229.86C2084.52,-195.93 1969.15,-71.54 1927.84,-27"/>
<polygon fill="midnightblue" stroke="midnightblue" points="1930.39,-24.6 1921.02,-19.65 1925.26,-29.36 1930.39,-24.6"/>
</g>
<!-- Node30&#45;&gt;Node9 -->
<g id="edge58" class="edge">
<title>Node30&#45;&gt;Node9</title>
<path fill="none" stroke="midnightblue" d="M2069.08,-229.98C2054.75,-227.89 2039.31,-225.75 2025,-224 1609.2,-173.19 1498.81,-208.68 1087,-132 995.41,-114.95 964.73,-124.2 885,-76 864.6,-63.67 846.67,-42.64 835.61,-27.85"/>
<polygon fill="midnightblue" stroke="midnightblue" points="838.34,-25.65 829.66,-19.58 832.66,-29.74 838.34,-25.65"/>
</g>
<!-- Node30&#45;&gt;Node10 -->
<g id="edge60" class="edge">
<title>Node30&#45;&gt;Node10</title>
<path fill="none" stroke="midnightblue" d="M2073.78,-229.98C2058.77,-227.71 2042.25,-225.48 2027,-224 1671.86,-189.58 1580.09,-222.95 1225,-188 1223.69,-187.87 1222.37,-187.73 1221.04,-187.59"/>
<polygon fill="midnightblue" stroke="midnightblue" points="1221.06,-184.06 1210.71,-186.33 1220.22,-191.01 1221.06,-184.06"/>
</g>
<!-- Node31&#45;&gt;Node10 -->
<g id="edge62" class="edge">
<title>Node31&#45;&gt;Node10</title>
<path fill="none" stroke="midnightblue" d="M1478.7,-229.98C1410.13,-218.8 1290.37,-199.27 1220.65,-187.91"/>
<polygon fill="midnightblue" stroke="midnightblue" points="1221.17,-184.45 1210.74,-186.29 1220.04,-191.36 1221.17,-184.45"/>
</g>
<!-- Node32&#45;&gt;Node9 -->
<g id="edge64" class="edge">
<title>Node32&#45;&gt;Node9</title>
<path fill="none" stroke="midnightblue" d="M747.07,-229.86C744.54,-202.47 739.72,-115.93 772,-56 778.63,-43.68 790.09,-33.21 800.57,-25.48"/>
<polygon fill="midnightblue" stroke="midnightblue" points="802.77,-28.21 809.01,-19.65 798.79,-22.45 802.77,-28.21"/>
</g>
<!-- Node32&#45;&gt;Node10 -->
<g id="edge65" class="edge">
<title>Node32&#45;&gt;Node10</title>
<path fill="none" stroke="midnightblue" d="M805.84,-229.98C819.34,-228 833.67,-225.92 847,-224 939.69,-210.67 1047.59,-195.53 1111.15,-186.65"/>
<polygon fill="midnightblue" stroke="midnightblue" points="1111.93,-190.07 1121.35,-185.22 1110.96,-183.14 1111.93,-190.07"/>
</g>
<!-- Node33&#45;&gt;Node10 -->
<g id="edge67" class="edge">
<title>Node33&#45;&gt;Node10</title>
<path fill="none" stroke="midnightblue" d="M1668.61,-229.98C1654.13,-227.86 1638.49,-225.71 1624,-224 1447.18,-203.09 1401.76,-209.44 1225,-188 1223.7,-187.84 1222.38,-187.68 1221.05,-187.51"/>
<polygon fill="midnightblue" stroke="midnightblue" points="1221.12,-183.99 1210.74,-186.12 1220.18,-190.92 1221.12,-183.99"/>
</g>
<!-- Node34&#45;&gt;Node9 -->
<g id="edge69" class="edge">
<title>Node34&#45;&gt;Node9</title>
<path fill="none" stroke="midnightblue" d="M860.73,-224.39C840.94,-216.92 821.96,-205.48 810,-188 776.4,-138.9 801.43,-63.21 815.78,-28.95"/>
<polygon fill="midnightblue" stroke="midnightblue" points="819.01,-30.28 819.81,-19.72 812.6,-27.48 819.01,-30.28"/>
</g>
<!-- Node34&#45;&gt;Node10 -->
<g id="edge70" class="edge">
<title>Node34&#45;&gt;Node10</title>
<path fill="none" stroke="midnightblue" d="M993.27,-224.47C1033.11,-213.99 1086.86,-199.84 1123.75,-190.12"/>
<polygon fill="midnightblue" stroke="midnightblue" points="1124.91,-193.44 1133.69,-187.51 1123.13,-186.67 1124.91,-193.44"/>
</g>
<!-- Node35&#45;&gt;Node10 -->
<g id="edge72" class="edge">
<title>Node35&#45;&gt;Node10</title>
<path fill="none" stroke="midnightblue" d="M1830.7,-225.07C1827.77,-224.68 1824.86,-224.33 1822,-224 1557.9,-193.86 1489.33,-216.07 1225,-188 1223.7,-187.86 1222.38,-187.71 1221.05,-187.56"/>
<polygon fill="midnightblue" stroke="midnightblue" points="1221.08,-184.04 1210.72,-186.26 1220.21,-190.98 1221.08,-184.04"/>
</g>
<!-- Node36&#45;&gt;Node9 -->
<g id="edge74" class="edge">
<title>Node36&#45;&gt;Node9</title>
<path fill="none" stroke="midnightblue" d="M1101.18,-229.94C1046.02,-211.03 919.09,-160.52 848,-76 836.76,-62.63 830.55,-43.52 827.28,-29.48"/>
<polygon fill="midnightblue" stroke="midnightblue" points="830.67,-28.61 825.25,-19.51 823.81,-30.01 830.67,-28.61"/>
</g>
<!-- Node36&#45;&gt;Node10 -->
<g id="edge75" class="edge">
<title>Node36&#45;&gt;Node10</title>
<path fill="none" stroke="midnightblue" d="M1133.44,-229.98C1139.09,-221.14 1148.06,-207.09 1155.16,-195.98"/>
<polygon fill="midnightblue" stroke="midnightblue" points="1158.13,-197.82 1160.57,-187.51 1152.23,-194.05 1158.13,-197.82"/>
</g>
<!-- Node37&#45;&gt;Node10 -->
<g id="edge77" class="edge">
<title>Node37&#45;&gt;Node10</title>
<path fill="none" stroke="midnightblue" d="M1290.23,-229.98C1265.57,-219.86 1224.25,-202.9 1196.1,-191.35"/>
<polygon fill="midnightblue" stroke="midnightblue" points="1197.32,-188.07 1186.74,-187.51 1194.66,-194.54 1197.32,-188.07"/>
</g>
<!-- Node38&#45;&gt;Node9 -->
<g id="edge79" class="edge">
<title>Node38&#45;&gt;Node9</title>
<path fill="none" stroke="midnightblue" d="M242.86,-229.98C310.5,-203.67 522.43,-121.48 699,-56 730.12,-44.46 765.75,-31.67 790.99,-22.69"/>
<polygon fill="midnightblue" stroke="midnightblue" points="792.2,-25.97 800.45,-19.33 789.86,-19.38 792.2,-25.97"/>
</g>
<!-- Node38&#45;&gt;Node10 -->
<g id="edge80" class="edge">
<title>Node38&#45;&gt;Node10</title>
<path fill="none" stroke="midnightblue" d="M267,-229.93C280.49,-227.69 295.3,-225.48 309,-224 610.72,-191.32 974.86,-182.16 1111.08,-179.78"/>
<polygon fill="midnightblue" stroke="midnightblue" points="1111.31,-183.27 1121.25,-179.6 1111.19,-176.27 1111.31,-183.27"/>
</g>
<!-- Node39&#45;&gt;Node9 -->
<g id="edge82" class="edge">
<title>Node39&#45;&gt;Node9</title>
<path fill="none" stroke="midnightblue" d="M574.42,-229.64C600.54,-202.33 683.07,-117.59 759,-56 772.64,-44.94 788.88,-33.69 801.72,-25.21"/>
<polygon fill="midnightblue" stroke="midnightblue" points="803.91,-27.96 810.38,-19.56 800.09,-22.09 803.91,-27.96"/>
</g>
<!-- Node39&#45;&gt;Node10 -->
<g id="edge83" class="edge">
<title>Node39&#45;&gt;Node10</title>
<path fill="none" stroke="midnightblue" d="M610.69,-229.97C623.07,-227.8 636.53,-225.63 649,-224 816.7,-202.09 1016.44,-188.12 1111.06,-182.22"/>
<polygon fill="midnightblue" stroke="midnightblue" points="1111.49,-185.7 1121.25,-181.59 1111.06,-178.72 1111.49,-185.7"/>
</g>
</g>
</svg>
