<?xml version="1.0" encoding="UTF-8" standalone="no"?>
<!DOCTYPE svg PUBLIC "-//W3C//DTD SVG 1.1//EN"
 "http://www.w3.org/Graphics/SVG/1.1/DTD/svg11.dtd">
<!-- Generated by graphviz version 2.43.0 (0)
 -->
<!-- Title: ProblemsOptions.cpp Pages: 1 -->
<svg width="1275pt" height="308pt"
 viewBox="0.00 0.00 1275.00 308.00" xmlns="http://www.w3.org/2000/svg" xmlns:xlink="http://www.w3.org/1999/xlink">
<g id="graph0" class="graph" transform="scale(1 1) rotate(0) translate(4 304)">
<title>ProblemsOptions.cpp</title>
<!-- Node1 -->
<g id="node1" class="node">
<title>Node1</title>
<g id="a_node1"><a xlink:title="Options for Problem objects.">
<polygon fill="#bfbfbf" stroke="black" points="257.5,-280.5 257.5,-299.5 383.5,-299.5 383.5,-280.5 257.5,-280.5"/>
<text text-anchor="middle" x="320.5" y="-287.5" font-family="serif" font-size="10.00">ProblemsOptions.cpp</text>
</a>
</g>
</g>
<!-- Node2 -->
<g id="node2" class="node">
<title>Node2</title>
<g id="a_node2"><a xlink:href="ProblemsOptions_8hpp.html" target="_top" xlink:title="Options for Problem objects.">
<polygon fill="none" stroke="black" points="235.5,-224.5 235.5,-243.5 405.5,-243.5 405.5,-224.5 235.5,-224.5"/>
<text text-anchor="middle" x="320.5" y="-231.5" font-family="serif" font-size="10.00">Options/ProblemsOptions.hpp</text>
</a>
</g>
</g>
<!-- Node1&#45;&gt;Node2 -->
<g id="edge1" class="edge">
<title>Node1&#45;&gt;Node2</title>
<path fill="none" stroke="midnightblue" d="M320.5,-280.08C320.5,-273.01 320.5,-262.86 320.5,-253.99"/>
<polygon fill="midnightblue" stroke="midnightblue" points="324,-253.75 320.5,-243.75 317,-253.75 324,-253.75"/>
</g>
<!-- Node3 -->
<g id="node3" class="node">
<title>Node3</title>
<g id="a_node3"><a xlink:title=" ">
<polygon fill="none" stroke="#bfbfbf" points="275,-0.5 275,-19.5 322,-19.5 322,-0.5 275,-0.5"/>
<text text-anchor="middle" x="298.5" y="-7.5" font-family="serif" font-size="10.00">string</text>
</a>
</g>
</g>
<!-- Node1&#45;&gt;Node3 -->
<g id="edge50" class="edge">
<title>Node1&#45;&gt;Node3</title>
<path fill="none" stroke="midnightblue" d="M286.59,-280.36C266.47,-273.59 241.97,-262.2 226.5,-244 207.01,-221.06 207.5,-209.1 207.5,-179 207.5,-179 207.5,-179 207.5,-121 207.5,-78.47 248.39,-43.53 275.35,-25.12"/>
<polygon fill="midnightblue" stroke="midnightblue" points="277.44,-27.93 283.88,-19.52 273.6,-22.08 277.44,-27.93"/>
</g>
<!-- Node4 -->
<g id="node4" class="node">
<title>Node4</title>
<g id="a_node4"><a xlink:href="Utils_8hpp.html" target="_top" xlink:title="List of all Utils files.">
<polygon fill="none" stroke="black" points="389,-168.5 389,-187.5 478,-187.5 478,-168.5 389,-168.5"/>
<text text-anchor="middle" x="433.5" y="-175.5" font-family="serif" font-size="10.00">Utils/Utils.hpp</text>
</a>
</g>
</g>
<!-- Node1&#45;&gt;Node4 -->
<g id="edge51" class="edge">
<title>Node1&#45;&gt;Node4</title>
<path fill="none" stroke="midnightblue" d="M354.41,-280.36C374.53,-273.59 399.03,-262.2 414.5,-244 425.55,-230.99 430.18,-211.83 432.12,-197.68"/>
<polygon fill="midnightblue" stroke="midnightblue" points="435.61,-197.93 433.16,-187.62 428.65,-197.21 435.61,-197.93"/>
</g>
<!-- Node2&#45;&gt;Node3 -->
<g id="edge2" class="edge">
<title>Node2&#45;&gt;Node3</title>
<path fill="none" stroke="midnightblue" d="M319.07,-224.18C315.29,-200.36 304.97,-132.7 300.5,-76 299.28,-60.5 298.79,-42.88 298.6,-29.89"/>
<polygon fill="midnightblue" stroke="midnightblue" points="302.1,-29.81 298.5,-19.85 295.1,-29.88 302.1,-29.81"/>
</g>
<!-- Node2&#45;&gt;Node4 -->
<g id="edge3" class="edge">
<title>Node2&#45;&gt;Node4</title>
<path fill="none" stroke="midnightblue" d="M338.41,-224.44C356.75,-215.68 385.51,-201.94 406.59,-191.86"/>
<polygon fill="midnightblue" stroke="midnightblue" points="408.17,-194.99 415.68,-187.52 405.15,-188.67 408.17,-194.99"/>
</g>
<!-- Node5 -->
<g id="node5" class="node">
<title>Node5</title>
<g id="a_node5"><a xlink:href="UtilsForData_8hpp.html" target="_top" xlink:title="Usefull methods for data.">
<polygon fill="none" stroke="black" points="843,-56.5 843,-75.5 974,-75.5 974,-56.5 843,-56.5"/>
<text text-anchor="middle" x="908.5" y="-63.5" font-family="serif" font-size="10.00">Utils/UtilsForData.hpp</text>
</a>
</g>
</g>
<!-- Node4&#45;&gt;Node5 -->
<g id="edge4" class="edge">
<title>Node4&#45;&gt;Node5</title>
<path fill="none" stroke="midnightblue" d="M470.38,-168.46C555.87,-148.66 767.48,-99.66 861.81,-77.81"/>
<polygon fill="midnightblue" stroke="midnightblue" points="862.69,-81.2 871.65,-75.53 861.11,-74.38 862.69,-81.2"/>
</g>
<!-- Node18 -->
<g id="node18" class="node">
<title>Node18</title>
<g id="a_node18"><a xlink:href="UtilsForDebug_8hpp.html" target="_top" xlink:title="Usefull methods for debug.">
<polygon fill="none" stroke="black" points="838,-112.5 838,-131.5 979,-131.5 979,-112.5 838,-112.5"/>
<text text-anchor="middle" x="908.5" y="-119.5" font-family="serif" font-size="10.00">Utils/UtilsForDebug.hpp</text>
</a>
</g>
</g>
<!-- Node4&#45;&gt;Node18 -->
<g id="edge18" class="edge">
<title>Node4&#45;&gt;Node18</title>
<path fill="none" stroke="midnightblue" d="M478.19,-171.92C558.23,-162.82 727.1,-143.62 827.85,-132.17"/>
<polygon fill="midnightblue" stroke="midnightblue" points="828.44,-135.62 837.98,-131.02 827.65,-128.67 828.44,-135.62"/>
</g>
<!-- Node21 -->
<g id="node21" class="node">
<title>Node21</title>
<g id="a_node21"><a xlink:href="UtilsForOptions_8hpp.html" target="_top" xlink:title="Usefull methods for Options.">
<polygon fill="none" stroke="black" points="528.5,-56.5 528.5,-75.5 674.5,-75.5 674.5,-56.5 528.5,-56.5"/>
<text text-anchor="middle" x="601.5" y="-63.5" font-family="serif" font-size="10.00">Utils/UtilsForOptions.hpp</text>
</a>
</g>
</g>
<!-- Node4&#45;&gt;Node21 -->
<g id="edge29" class="edge">
<title>Node4&#45;&gt;Node21</title>
<path fill="none" stroke="midnightblue" d="M446.68,-168.37C475.51,-149.49 544.4,-104.38 579.76,-81.24"/>
<polygon fill="midnightblue" stroke="midnightblue" points="581.93,-84 588.38,-75.59 578.1,-78.14 581.93,-84"/>
</g>
<!-- Node24 -->
<g id="node24" class="node">
<title>Node24</title>
<g id="a_node24"><a xlink:href="UtilsForPostProcessing_8hpp.html" target="_top" xlink:title="Usefull methods for post&#45;processing.">
<polygon fill="none" stroke="black" points="327,-56.5 327,-75.5 510,-75.5 510,-56.5 327,-56.5"/>
<text text-anchor="middle" x="418.5" y="-63.5" font-family="serif" font-size="10.00">Utils/UtilsForPostProcessing.hpp</text>
</a>
</g>
</g>
<!-- Node4&#45;&gt;Node24 -->
<g id="edge39" class="edge">
<title>Node4&#45;&gt;Node24</title>
<path fill="none" stroke="midnightblue" d="M432.32,-168.37C429.9,-150.62 424.32,-109.67 421.04,-85.6"/>
<polygon fill="midnightblue" stroke="midnightblue" points="424.49,-85.03 419.67,-75.59 417.55,-85.97 424.49,-85.03"/>
</g>
<!-- Node25 -->
<g id="node25" class="node">
<title>Node25</title>
<g id="a_node25"><a xlink:href="UtilsForVariants_8hpp.html" target="_top" xlink:title="manage std::Variants">
<polygon fill="none" stroke="black" points="31.5,-56.5 31.5,-75.5 179.5,-75.5 179.5,-56.5 31.5,-56.5"/>
<text text-anchor="middle" x="105.5" y="-63.5" font-family="serif" font-size="10.00">Utils/UtilsForVariants.hpp</text>
</a>
</g>
</g>
<!-- Node4&#45;&gt;Node25 -->
<g id="edge46" class="edge">
<title>Node4&#45;&gt;Node25</title>
<path fill="none" stroke="midnightblue" d="M408.04,-168.46C349.91,-148.97 207.36,-101.16 140.8,-78.84"/>
<polygon fill="midnightblue" stroke="midnightblue" points="141.77,-75.47 131.17,-75.61 139.54,-82.11 141.77,-75.47"/>
</g>
<!-- Node5&#45;&gt;Node3 -->
<g id="edge13" class="edge">
<title>Node5&#45;&gt;Node3</title>
<path fill="none" stroke="midnightblue" d="M842.77,-59.74C827.27,-58.51 810.8,-57.2 795.5,-56 592.52,-40.04 537.02,-54.89 332.05,-19.74"/>
<polygon fill="midnightblue" stroke="midnightblue" points="332.62,-16.29 322.17,-18.03 331.43,-23.19 332.62,-16.29"/>
</g>
<!-- Node6 -->
<g id="node6" class="node">
<title>Node6</title>
<g id="a_node6"><a xlink:title=" ">
<polygon fill="none" stroke="#bfbfbf" points="1056,-0.5 1056,-19.5 1115,-19.5 1115,-0.5 1056,-0.5"/>
<text text-anchor="middle" x="1085.5" y="-7.5" font-family="serif" font-size="10.00">unistd.h</text>
</a>
</g>
</g>
<!-- Node5&#45;&gt;Node6 -->
<g id="edge5" class="edge">
<title>Node5&#45;&gt;Node6</title>
<path fill="none" stroke="midnightblue" d="M936.55,-56.44C966.58,-47.28 1014.41,-32.69 1047.74,-22.52"/>
<polygon fill="midnightblue" stroke="midnightblue" points="1049.04,-25.78 1057.59,-19.52 1047,-19.09 1049.04,-25.78"/>
</g>
<!-- Node7 -->
<g id="node7" class="node">
<title>Node7</title>
<g id="a_node7"><a xlink:title=" ">
<polygon fill="none" stroke="#bfbfbf" points="468.5,-0.5 468.5,-19.5 534.5,-19.5 534.5,-0.5 468.5,-0.5"/>
<text text-anchor="middle" x="501.5" y="-7.5" font-family="serif" font-size="10.00">algorithm</text>
</a>
</g>
</g>
<!-- Node5&#45;&gt;Node7 -->
<g id="edge6" class="edge">
<title>Node5&#45;&gt;Node7</title>
<path fill="none" stroke="midnightblue" d="M842.97,-58.69C771.87,-51.44 654.81,-38.35 544.85,-20.11"/>
<polygon fill="midnightblue" stroke="midnightblue" points="545.36,-16.64 534.92,-18.44 544.2,-23.55 545.36,-16.64"/>
</g>
<!-- Node8 -->
<g id="node8" class="node">
<title>Node8</title>
<g id="a_node8"><a xlink:title=" ">
<polygon fill="none" stroke="#bfbfbf" points="757.5,-0.5 757.5,-19.5 807.5,-19.5 807.5,-0.5 757.5,-0.5"/>
<text text-anchor="middle" x="782.5" y="-7.5" font-family="serif" font-size="10.00">cctype</text>
</a>
</g>
</g>
<!-- Node5&#45;&gt;Node8 -->
<g id="edge7" class="edge">
<title>Node5&#45;&gt;Node8</title>
<path fill="none" stroke="midnightblue" d="M888.53,-56.44C867.89,-47.6 835.44,-33.69 811.87,-23.59"/>
<polygon fill="midnightblue" stroke="midnightblue" points="812.94,-20.24 802.37,-19.52 810.18,-26.67 812.94,-20.24"/>
</g>
<!-- Node9 -->
<g id="node9" class="node">
<title>Node9</title>
<g id="a_node9"><a xlink:title=" ">
<polygon fill="none" stroke="#bfbfbf" points="1133,-0.5 1133,-19.5 1180,-19.5 1180,-0.5 1133,-0.5"/>
<text text-anchor="middle" x="1156.5" y="-7.5" font-family="serif" font-size="10.00">cstdio</text>
</a>
</g>
</g>
<!-- Node5&#45;&gt;Node9 -->
<g id="edge8" class="edge">
<title>Node5&#45;&gt;Node9</title>
<path fill="none" stroke="midnightblue" d="M954.22,-56.42C995.93,-48.38 1059.5,-35.61 1123.01,-20.25"/>
<polygon fill="midnightblue" stroke="midnightblue" points="1123.9,-23.64 1132.78,-17.87 1122.24,-16.84 1123.9,-23.64"/>
</g>
<!-- Node10 -->
<g id="node10" class="node">
<title>Node10</title>
<g id="a_node10"><a xlink:title=" ">
<polygon fill="none" stroke="#bfbfbf" points="825.5,-0.5 825.5,-19.5 893.5,-19.5 893.5,-0.5 825.5,-0.5"/>
<text text-anchor="middle" x="859.5" y="-7.5" font-family="serif" font-size="10.00">filesystem</text>
</a>
</g>
</g>
<!-- Node5&#45;&gt;Node10 -->
<g id="edge9" class="edge">
<title>Node5&#45;&gt;Node10</title>
<path fill="none" stroke="midnightblue" d="M900.41,-56.08C893.34,-48.3 882.91,-36.8 874.35,-27.37"/>
<polygon fill="midnightblue" stroke="midnightblue" points="876.75,-24.8 867.44,-19.75 871.57,-29.51 876.75,-24.8"/>
</g>
<!-- Node11 -->
<g id="node11" class="node">
<title>Node11</title>
<g id="a_node11"><a xlink:title=" ">
<polygon fill="none" stroke="#bfbfbf" points="969.5,-0.5 969.5,-19.5 1037.5,-19.5 1037.5,-0.5 969.5,-0.5"/>
<text text-anchor="middle" x="1003.5" y="-7.5" font-family="serif" font-size="10.00">functional</text>
</a>
</g>
</g>
<!-- Node5&#45;&gt;Node11 -->
<g id="edge10" class="edge">
<title>Node5&#45;&gt;Node11</title>
<path fill="none" stroke="midnightblue" d="M923.76,-56.32C938.72,-47.82 961.75,-34.73 979.23,-24.8"/>
<polygon fill="midnightblue" stroke="midnightblue" points="981.31,-27.64 988.27,-19.65 977.85,-21.55 981.31,-27.64"/>
</g>
<!-- Node12 -->
<g id="node12" class="node">
<title>Node12</title>
<g id="a_node12"><a xlink:title=" ">
<polygon fill="none" stroke="#bfbfbf" points="617,-0.5 617,-19.5 678,-19.5 678,-0.5 617,-0.5"/>
<text text-anchor="middle" x="647.5" y="-7.5" font-family="serif" font-size="10.00">iostream</text>
</a>
</g>
</g>
<!-- Node5&#45;&gt;Node12 -->
<g id="edge11" class="edge">
<title>Node5&#45;&gt;Node12</title>
<path fill="none" stroke="midnightblue" d="M865.25,-56.47C822.75,-48.02 755.79,-34.55 688.06,-20.08"/>
<polygon fill="midnightblue" stroke="midnightblue" points="688.57,-16.62 678.06,-17.94 687.11,-23.46 688.57,-16.62"/>
</g>
<!-- Node13 -->
<g id="node13" class="node">
<title>Node13</title>
<g id="a_node13"><a xlink:title=" ">
<polygon fill="none" stroke="#bfbfbf" points="912,-0.5 912,-19.5 951,-19.5 951,-0.5 912,-0.5"/>
<text text-anchor="middle" x="931.5" y="-7.5" font-family="serif" font-size="10.00">map</text>
</a>
</g>
</g>
<!-- Node5&#45;&gt;Node13 -->
<g id="edge12" class="edge">
<title>Node5&#45;&gt;Node13</title>
<path fill="none" stroke="midnightblue" d="M912.3,-56.08C915.41,-48.77 919.92,-38.18 923.79,-29.1"/>
<polygon fill="midnightblue" stroke="midnightblue" points="927.07,-30.32 927.77,-19.75 920.63,-27.58 927.07,-30.32"/>
</g>
<!-- Node14 -->
<g id="node14" class="node">
<title>Node14</title>
<g id="a_node14"><a xlink:title=" ">
<polygon fill="none" stroke="#bfbfbf" points="696,-0.5 696,-19.5 739,-19.5 739,-0.5 696,-0.5"/>
<text text-anchor="middle" x="717.5" y="-7.5" font-family="serif" font-size="10.00">tuple</text>
</a>
</g>
</g>
<!-- Node5&#45;&gt;Node14 -->
<g id="edge14" class="edge">
<title>Node5&#45;&gt;Node14</title>
<path fill="none" stroke="midnightblue" d="M877.81,-56.45C847.53,-48 799.69,-34.59 749,-20.13"/>
<polygon fill="midnightblue" stroke="midnightblue" points="749.75,-16.7 739.17,-17.32 747.83,-23.43 749.75,-16.7"/>
</g>
<!-- Node15 -->
<g id="node15" class="node">
<title>Node15</title>
<g id="a_node15"><a xlink:title=" ">
<polygon fill="none" stroke="#bfbfbf" points="552.5,-0.5 552.5,-19.5 598.5,-19.5 598.5,-0.5 552.5,-0.5"/>
<text text-anchor="middle" x="575.5" y="-7.5" font-family="serif" font-size="10.00">utility</text>
</a>
</g>
</g>
<!-- Node5&#45;&gt;Node15 -->
<g id="edge15" class="edge">
<title>Node5&#45;&gt;Node15</title>
<path fill="none" stroke="midnightblue" d="M842.85,-57.41C784.07,-50.09 695.39,-37.8 608.85,-19.84"/>
<polygon fill="midnightblue" stroke="midnightblue" points="609.36,-16.37 598.85,-17.73 607.92,-23.22 609.36,-16.37"/>
</g>
<!-- Node16 -->
<g id="node16" class="node">
<title>Node16</title>
<g id="a_node16"><a xlink:title=" ">
<polygon fill="none" stroke="#bfbfbf" points="402.5,-0.5 402.5,-19.5 450.5,-19.5 450.5,-0.5 402.5,-0.5"/>
<text text-anchor="middle" x="426.5" y="-7.5" font-family="serif" font-size="10.00">vector</text>
</a>
</g>
</g>
<!-- Node5&#45;&gt;Node16 -->
<g id="edge16" class="edge">
<title>Node5&#45;&gt;Node16</title>
<path fill="none" stroke="midnightblue" d="M842.64,-59.76C740.41,-51.4 547.1,-34.66 460.56,-19.85"/>
<polygon fill="midnightblue" stroke="midnightblue" points="461,-16.37 450.54,-18.05 459.77,-23.26 461,-16.37"/>
</g>
<!-- Node17 -->
<g id="node17" class="node">
<title>Node17</title>
<g id="a_node17"><a xlink:title=" ">
<polygon fill="none" stroke="#bfbfbf" points="1198,-0.5 1198,-19.5 1267,-19.5 1267,-0.5 1198,-0.5"/>
<text text-anchor="middle" x="1232.5" y="-7.5" font-family="serif" font-size="10.00">mfem.hpp</text>
</a>
</g>
</g>
<!-- Node5&#45;&gt;Node17 -->
<g id="edge17" class="edge">
<title>Node5&#45;&gt;Node17</title>
<path fill="none" stroke="midnightblue" d="M966.76,-56.5C1021.46,-48.32 1105.83,-35.24 1187.81,-20.25"/>
<polygon fill="midnightblue" stroke="midnightblue" points="1188.59,-23.66 1197.79,-18.41 1187.33,-16.78 1188.59,-23.66"/>
</g>
<!-- Node18&#45;&gt;Node3 -->
<g id="edge25" class="edge">
<title>Node18&#45;&gt;Node3</title>
<path fill="none" stroke="midnightblue" d="M837.77,-120.01C689.86,-117.32 358.25,-107.76 318.5,-76 304.83,-65.08 300.28,-45.01 298.88,-30.05"/>
<polygon fill="midnightblue" stroke="midnightblue" points="302.36,-29.64 298.32,-19.85 295.37,-30.02 302.36,-29.64"/>
</g>
<!-- Node18&#45;&gt;Node5 -->
<g id="edge27" class="edge">
<title>Node18&#45;&gt;Node5</title>
<path fill="none" stroke="midnightblue" d="M908.5,-112.08C908.5,-105.01 908.5,-94.86 908.5,-85.99"/>
<polygon fill="midnightblue" stroke="midnightblue" points="912,-85.75 908.5,-75.75 905,-85.75 912,-85.75"/>
</g>
<!-- Node18&#45;&gt;Node6 -->
<g id="edge20" class="edge">
<title>Node18&#45;&gt;Node6</title>
<path fill="none" stroke="midnightblue" d="M929.72,-112.42C949.24,-104.17 978.67,-90.79 1002.5,-76 1026.6,-61.04 1051.94,-40.37 1068.19,-26.39"/>
<polygon fill="midnightblue" stroke="midnightblue" points="1070.56,-28.96 1075.8,-19.75 1065.96,-23.69 1070.56,-28.96"/>
</g>
<!-- Node18&#45;&gt;Node9 -->
<g id="edge21" class="edge">
<title>Node18&#45;&gt;Node9</title>
<path fill="none" stroke="midnightblue" d="M934.57,-112.42C959.53,-103.97 998.06,-90.28 1030.5,-76 1066.85,-59.99 1107.45,-38.33 1132.49,-24.51"/>
<polygon fill="midnightblue" stroke="midnightblue" points="1134.24,-27.54 1141.28,-19.63 1130.84,-21.42 1134.24,-27.54"/>
</g>
<!-- Node18&#45;&gt;Node11 -->
<g id="edge23" class="edge">
<title>Node18&#45;&gt;Node11</title>
<path fill="none" stroke="midnightblue" d="M931.61,-112.43C948.28,-105.13 970.11,-93.09 983.5,-76 993.96,-62.65 998.97,-43.82 1001.37,-29.87"/>
<polygon fill="midnightblue" stroke="midnightblue" points="1004.84,-30.3 1002.77,-19.91 997.91,-29.32 1004.84,-30.3"/>
</g>
<!-- Node18&#45;&gt;Node12 -->
<g id="edge24" class="edge">
<title>Node18&#45;&gt;Node12</title>
<path fill="none" stroke="midnightblue" d="M894.58,-112.46C869.03,-96.88 815.44,-64.63 795.5,-56 760.29,-40.76 718.29,-28.51 688.05,-20.67"/>
<polygon fill="midnightblue" stroke="midnightblue" points="688.82,-17.25 678.27,-18.18 687.09,-24.04 688.82,-17.25"/>
</g>
<!-- Node18&#45;&gt;Node15 -->
<g id="edge26" class="edge">
<title>Node18&#45;&gt;Node15</title>
<path fill="none" stroke="midnightblue" d="M858.28,-112.43C820.04,-105.07 766.5,-92.95 721.5,-76 703.64,-69.27 700.77,-64.12 683.5,-56 658.16,-44.08 628.78,-31.95 607.07,-23.29"/>
<polygon fill="midnightblue" stroke="midnightblue" points="608.26,-19.99 597.68,-19.57 605.69,-26.5 608.26,-19.99"/>
</g>
<!-- Node18&#45;&gt;Node17 -->
<g id="edge28" class="edge">
<title>Node18&#45;&gt;Node17</title>
<path fill="none" stroke="midnightblue" d="M979.14,-118.17C1055.61,-113.77 1171.25,-102.79 1205.5,-76 1219.77,-64.84 1226.56,-44.82 1229.76,-29.93"/>
<polygon fill="midnightblue" stroke="midnightblue" points="1233.26,-30.24 1231.56,-19.78 1226.37,-29.01 1233.26,-30.24"/>
</g>
<!-- Node19 -->
<g id="node19" class="node">
<title>Node19</title>
<g id="a_node19"><a xlink:title=" ">
<polygon fill="none" stroke="#bfbfbf" points="1106.5,-56.5 1106.5,-75.5 1196.5,-75.5 1196.5,-56.5 1106.5,-56.5"/>
<text text-anchor="middle" x="1151.5" y="-63.5" font-family="serif" font-size="10.00">sys/resource.h</text>
</a>
</g>
</g>
<!-- Node18&#45;&gt;Node19 -->
<g id="edge19" class="edge">
<title>Node18&#45;&gt;Node19</title>
<path fill="none" stroke="midnightblue" d="M947,-112.44C989.31,-103.04 1057.32,-87.93 1103.17,-77.74"/>
<polygon fill="midnightblue" stroke="midnightblue" points="1104.17,-81.1 1113.18,-75.52 1102.65,-74.27 1104.17,-81.1"/>
</g>
<!-- Node20 -->
<g id="node20" class="node">
<title>Node20</title>
<g id="a_node20"><a xlink:title=" ">
<polygon fill="none" stroke="#bfbfbf" points="730.5,-56.5 730.5,-75.5 786.5,-75.5 786.5,-56.5 730.5,-56.5"/>
<text text-anchor="middle" x="758.5" y="-63.5" font-family="serif" font-size="10.00">fstream</text>
</a>
</g>
</g>
<!-- Node18&#45;&gt;Node20 -->
<g id="edge22" class="edge">
<title>Node18&#45;&gt;Node20</title>
<path fill="none" stroke="midnightblue" d="M884.73,-112.44C859.61,-103.4 819.79,-89.06 791.6,-78.92"/>
<polygon fill="midnightblue" stroke="midnightblue" points="792.75,-75.61 782.16,-75.52 790.38,-82.2 792.75,-75.61"/>
</g>
<!-- Node21&#45;&gt;Node3 -->
<g id="edge34" class="edge">
<title>Node21&#45;&gt;Node3</title>
<path fill="none" stroke="midnightblue" d="M539.5,-56.49C486.81,-48.84 408.99,-36.57 332.08,-19.94"/>
<polygon fill="midnightblue" stroke="midnightblue" points="332.74,-16.5 322.22,-17.78 331.24,-23.33 332.74,-16.5"/>
</g>
<!-- Node21&#45;&gt;Node7 -->
<g id="edge30" class="edge">
<title>Node21&#45;&gt;Node7</title>
<path fill="none" stroke="midnightblue" d="M585.43,-56.32C569.54,-47.74 544.99,-34.49 526.54,-24.52"/>
<polygon fill="midnightblue" stroke="midnightblue" points="527.99,-21.33 517.53,-19.65 524.66,-27.49 527.99,-21.33"/>
</g>
<!-- Node21&#45;&gt;Node11 -->
<g id="edge31" class="edge">
<title>Node21&#45;&gt;Node11</title>
<path fill="none" stroke="midnightblue" d="M674.64,-57.6C745.09,-50.07 854.87,-37.29 959.2,-20.1"/>
<polygon fill="midnightblue" stroke="midnightblue" points="959.99,-23.52 969.28,-18.43 958.84,-16.61 959.99,-23.52"/>
</g>
<!-- Node21&#45;&gt;Node12 -->
<g id="edge32" class="edge">
<title>Node21&#45;&gt;Node12</title>
<path fill="none" stroke="midnightblue" d="M609.1,-56.08C615.73,-48.3 625.52,-36.8 633.56,-27.37"/>
<polygon fill="midnightblue" stroke="midnightblue" points="636.23,-29.63 640.05,-19.75 630.9,-25.09 636.23,-29.63"/>
</g>
<!-- Node21&#45;&gt;Node14 -->
<g id="edge35" class="edge">
<title>Node21&#45;&gt;Node14</title>
<path fill="none" stroke="midnightblue" d="M619.88,-56.44C638.72,-47.68 668.23,-33.94 689.88,-23.86"/>
<polygon fill="midnightblue" stroke="midnightblue" points="691.62,-26.91 699.21,-19.52 688.66,-20.56 691.62,-26.91"/>
</g>
<!-- Node21&#45;&gt;Node15 -->
<g id="edge36" class="edge">
<title>Node21&#45;&gt;Node15</title>
<path fill="none" stroke="midnightblue" d="M597.21,-56.08C593.65,-48.69 588.48,-37.95 584.08,-28.81"/>
<polygon fill="midnightblue" stroke="midnightblue" points="587.21,-27.24 579.71,-19.75 580.9,-30.28 587.21,-27.24"/>
</g>
<!-- Node21&#45;&gt;Node16 -->
<g id="edge38" class="edge">
<title>Node21&#45;&gt;Node16</title>
<path fill="none" stroke="midnightblue" d="M573.77,-56.44C543.03,-46.96 493.42,-31.65 460.4,-21.46"/>
<polygon fill="midnightblue" stroke="midnightblue" points="461.31,-18.08 450.72,-18.47 459.24,-24.77 461.31,-18.08"/>
</g>
<!-- Node22 -->
<g id="node22" class="node">
<title>Node22</title>
<g id="a_node22"><a xlink:title=" ">
<polygon fill="none" stroke="#bfbfbf" points="340.5,-0.5 340.5,-19.5 384.5,-19.5 384.5,-0.5 340.5,-0.5"/>
<text text-anchor="middle" x="362.5" y="-7.5" font-family="serif" font-size="10.00">limits</text>
</a>
</g>
</g>
<!-- Node21&#45;&gt;Node22 -->
<g id="edge33" class="edge">
<title>Node21&#45;&gt;Node22</title>
<path fill="none" stroke="midnightblue" d="M557.87,-56.48C517.79,-48.45 456.53,-35.66 394.72,-20.18"/>
<polygon fill="midnightblue" stroke="midnightblue" points="395.35,-16.73 384.8,-17.68 393.64,-23.52 395.35,-16.73"/>
</g>
<!-- Node23 -->
<g id="node23" class="node">
<title>Node23</title>
<g id="a_node23"><a xlink:title=" ">
<polygon fill="none" stroke="#bfbfbf" points="191,-0.5 191,-19.5 244,-19.5 244,-0.5 191,-0.5"/>
<text text-anchor="middle" x="217.5" y="-7.5" font-family="serif" font-size="10.00">variant</text>
</a>
</g>
</g>
<!-- Node21&#45;&gt;Node23 -->
<g id="edge37" class="edge">
<title>Node21&#45;&gt;Node23</title>
<path fill="none" stroke="midnightblue" d="M530.45,-56.46C462.54,-48.06 357.34,-34.44 266.5,-20 262.53,-19.37 258.38,-18.67 254.26,-17.95"/>
<polygon fill="midnightblue" stroke="midnightblue" points="254.62,-14.46 244.16,-16.14 253.39,-21.35 254.62,-14.46"/>
</g>
<!-- Node24&#45;&gt;Node3 -->
<g id="edge43" class="edge">
<title>Node24&#45;&gt;Node3</title>
<path fill="none" stroke="midnightblue" d="M399.49,-56.44C379.91,-47.64 349.19,-33.81 326.77,-23.72"/>
<polygon fill="midnightblue" stroke="midnightblue" points="327.98,-20.43 317.43,-19.52 325.11,-26.81 327.98,-20.43"/>
</g>
<!-- Node24&#45;&gt;Node7 -->
<g id="edge40" class="edge">
<title>Node24&#45;&gt;Node7</title>
<path fill="none" stroke="midnightblue" d="M431.84,-56.32C444.66,-47.98 464.28,-35.21 479.44,-25.35"/>
<polygon fill="midnightblue" stroke="midnightblue" points="481.72,-28.04 488.2,-19.65 477.91,-22.17 481.72,-28.04"/>
</g>
<!-- Node24&#45;&gt;Node12 -->
<g id="edge41" class="edge">
<title>Node24&#45;&gt;Node12</title>
<path fill="none" stroke="midnightblue" d="M454.79,-56.44C496.23,-46.67 563.88,-30.72 607.01,-20.55"/>
<polygon fill="midnightblue" stroke="midnightblue" points="607.95,-23.92 616.88,-18.22 606.34,-17.11 607.95,-23.92"/>
</g>
<!-- Node24&#45;&gt;Node15 -->
<g id="edge44" class="edge">
<title>Node24&#45;&gt;Node15</title>
<path fill="none" stroke="midnightblue" d="M443.38,-56.44C470.26,-47.2 513.2,-32.43 542.79,-22.25"/>
<polygon fill="midnightblue" stroke="midnightblue" points="543.96,-25.55 552.27,-18.99 541.68,-18.93 543.96,-25.55"/>
</g>
<!-- Node24&#45;&gt;Node16 -->
<g id="edge45" class="edge">
<title>Node24&#45;&gt;Node16</title>
<path fill="none" stroke="midnightblue" d="M419.82,-56.08C420.88,-48.93 422.41,-38.64 423.73,-29.69"/>
<polygon fill="midnightblue" stroke="midnightblue" points="427.2,-30.16 425.2,-19.75 420.28,-29.13 427.2,-30.16"/>
</g>
<!-- Node24&#45;&gt;Node22 -->
<g id="edge42" class="edge">
<title>Node24&#45;&gt;Node22</title>
<path fill="none" stroke="midnightblue" d="M409.5,-56.32C401.31,-48.42 388.99,-36.55 379.03,-26.94"/>
<polygon fill="midnightblue" stroke="midnightblue" points="381.29,-24.26 371.66,-19.83 376.43,-29.29 381.29,-24.26"/>
</g>
<!-- Node25&#45;&gt;Node23 -->
<g id="edge49" class="edge">
<title>Node25&#45;&gt;Node23</title>
<path fill="none" stroke="midnightblue" d="M123.49,-56.32C141.54,-47.62 169.55,-34.12 190.3,-24.11"/>
<polygon fill="midnightblue" stroke="midnightblue" points="192.06,-27.15 199.55,-19.65 189.02,-20.84 192.06,-27.15"/>
</g>
<!-- Node26 -->
<g id="node26" class="node">
<title>Node26</title>
<g id="a_node26"><a xlink:title=" ">
<polygon fill="none" stroke="#bfbfbf" points="89,-0.5 89,-19.5 148,-19.5 148,-0.5 89,-0.5"/>
<text text-anchor="middle" x="118.5" y="-7.5" font-family="serif" font-size="10.00">memory</text>
</a>
</g>
</g>
<!-- Node25&#45;&gt;Node26 -->
<g id="edge47" class="edge">
<title>Node25&#45;&gt;Node26</title>
<path fill="none" stroke="midnightblue" d="M107.65,-56.08C109.37,-48.93 111.85,-38.64 114,-29.69"/>
<polygon fill="midnightblue" stroke="midnightblue" points="117.46,-30.29 116.39,-19.75 110.65,-28.65 117.46,-30.29"/>
</g>
<!-- Node27 -->
<g id="node27" class="node">
<title>Node27</title>
<g id="a_node27"><a xlink:title=" ">
<polygon fill="none" stroke="#bfbfbf" points="0,-0.5 0,-19.5 71,-19.5 71,-0.5 0,-0.5"/>
<text text-anchor="middle" x="35.5" y="-7.5" font-family="serif" font-size="10.00">type_traits</text>
</a>
</g>
</g>
<!-- Node25&#45;&gt;Node27 -->
<g id="edge48" class="edge">
<title>Node25&#45;&gt;Node27</title>
<path fill="none" stroke="midnightblue" d="M94.25,-56.32C83.7,-48.18 67.7,-35.84 55.06,-26.09"/>
<polygon fill="midnightblue" stroke="midnightblue" points="57.01,-23.17 46.95,-19.83 52.73,-28.71 57.01,-23.17"/>
</g>
</g>
</svg>
