<?xml version="1.0" encoding="UTF-8" standalone="no"?>
<!DOCTYPE svg PUBLIC "-//W3C//DTD SVG 1.1//EN"
 "http://www.w3.org/Graphics/SVG/1.1/DTD/svg11.dtd">
<!-- Generated by graphviz version 2.43.0 (0)
 -->
<!-- Title: Problem.hpp Pages: 1 -->
<svg width="198pt" height="140pt"
 viewBox="0.00 0.00 198.00 140.00" xmlns="http://www.w3.org/2000/svg" xmlns:xlink="http://www.w3.org/1999/xlink">
<g id="graph0" class="graph" transform="scale(1 1) rotate(0) translate(4 136)">
<title>Problem.hpp</title>
<!-- Node1 -->
<g id="node1" class="node">
<title>Node1</title>
<g id="a_node1"><a xlink:title="Class used to defined a PDE Problem.">
<polygon fill="#bfbfbf" stroke="black" points="64,-112.5 64,-131.5 147,-131.5 147,-112.5 64,-112.5"/>
<text text-anchor="middle" x="105.5" y="-119.5" font-family="serif" font-size="10.00">Problem.hpp</text>
</a>
</g>
</g>
<!-- Node2 -->
<g id="node2" class="node">
<title>Node2</title>
<g id="a_node2"><a xlink:href="ListProblems_8hpp.html" target="_top" xlink:title=" ">
<polygon fill="none" stroke="black" points="0,-56.5 0,-75.5 107,-75.5 107,-56.5 0,-56.5"/>
<text text-anchor="middle" x="53.5" y="-63.5" font-family="serif" font-size="10.00">ListProblems.hpp</text>
</a>
</g>
</g>
<!-- Node1&#45;&gt;Node2 -->
<g id="edge1" class="edge">
<title>Node1&#45;&gt;Node2</title>
<path fill="none" stroke="midnightblue" d="M89.82,-104.72C80.66,-95.2 69.45,-83.56 61.93,-75.75"/>
<polygon fill="midnightblue" stroke="midnightblue" points="87.46,-107.31 96.91,-112.08 92.5,-102.45 87.46,-107.31"/>
</g>
<!-- Node4 -->
<g id="node4" class="node">
<title>Node4</title>
<g id="a_node4"><a xlink:href="Time_8hpp.html" target="_top" xlink:title="Main time loop.">
<polygon fill="none" stroke="black" points="125,-56.5 125,-75.5 190,-75.5 190,-56.5 125,-56.5"/>
<text text-anchor="middle" x="157.5" y="-63.5" font-family="serif" font-size="10.00">Time.hpp</text>
</a>
</g>
</g>
<!-- Node1&#45;&gt;Node4 -->
<g id="edge3" class="edge">
<title>Node1&#45;&gt;Node4</title>
<path fill="none" stroke="midnightblue" d="M121.18,-104.72C130.34,-95.2 141.55,-83.56 149.07,-75.75"/>
<polygon fill="midnightblue" stroke="midnightblue" points="118.5,-102.45 114.09,-112.08 123.54,-107.31 118.5,-102.45"/>
</g>
<!-- Node3 -->
<g id="node3" class="node">
<title>Node3</title>
<g id="a_node3"><a xlink:href="sloth_8hpp.html" target="_top" xlink:title="List of SLOTH header files.">
<polygon fill="none" stroke="black" points="73,-0.5 73,-19.5 138,-19.5 138,-0.5 73,-0.5"/>
<text text-anchor="middle" x="105.5" y="-7.5" font-family="serif" font-size="10.00">sloth.hpp</text>
</a>
</g>
</g>
<!-- Node2&#45;&gt;Node3 -->
<g id="edge2" class="edge">
<title>Node2&#45;&gt;Node3</title>
<path fill="none" stroke="midnightblue" d="M69.18,-48.72C78.34,-39.2 89.55,-27.56 97.07,-19.75"/>
<polygon fill="midnightblue" stroke="midnightblue" points="66.5,-46.45 62.09,-56.08 71.54,-51.31 66.5,-46.45"/>
</g>
<!-- Node4&#45;&gt;Node3 -->
<g id="edge4" class="edge">
<title>Node4&#45;&gt;Node3</title>
<path fill="none" stroke="midnightblue" d="M141.82,-48.72C132.66,-39.2 121.45,-27.56 113.93,-19.75"/>
<polygon fill="midnightblue" stroke="midnightblue" points="139.46,-51.31 148.91,-56.08 144.5,-46.45 139.46,-51.31"/>
</g>
</g>
</svg>
