<?xml version="1.0" encoding="UTF-8" standalone="no"?>
<!DOCTYPE svg PUBLIC "-//W3C//DTD SVG 1.1//EN"
 "http://www.w3.org/Graphics/SVG/1.1/DTD/svg11.dtd">
<!-- Generated by graphviz version 2.43.0 (0)
 -->
<!-- Title: ProblemBase.tpp Pages: 1 -->
<svg width="508pt" height="252pt"
 viewBox="0.00 0.00 508.00 252.00" xmlns="http://www.w3.org/2000/svg" xmlns:xlink="http://www.w3.org/1999/xlink">
<g id="graph0" class="graph" transform="scale(1 1) rotate(0) translate(4 248)">
<title>ProblemBase.tpp</title>
<!-- Node1 -->
<g id="node1" class="node">
<title>Node1</title>
<g id="a_node1"><a xlink:title=" ">
<polygon fill="#bfbfbf" stroke="black" points="216.5,-224.5 216.5,-243.5 320.5,-243.5 320.5,-224.5 216.5,-224.5"/>
<text text-anchor="middle" x="268.5" y="-231.5" font-family="serif" font-size="10.00">ProblemBase.tpp</text>
</a>
</g>
</g>
<!-- Node2 -->
<g id="node2" class="node">
<title>Node2</title>
<g id="a_node2"><a xlink:href="ProblemBase_8hpp.html" target="_top" xlink:title="Base class for building Problems.">
<polygon fill="none" stroke="black" points="215,-168.5 215,-187.5 322,-187.5 322,-168.5 215,-168.5"/>
<text text-anchor="middle" x="268.5" y="-175.5" font-family="serif" font-size="10.00">ProblemBase.hpp</text>
</a>
</g>
</g>
<!-- Node1&#45;&gt;Node2 -->
<g id="edge1" class="edge">
<title>Node1&#45;&gt;Node2</title>
<path fill="none" stroke="midnightblue" d="M268.5,-213.8C268.5,-204.91 268.5,-194.78 268.5,-187.75"/>
<polygon fill="midnightblue" stroke="midnightblue" points="265,-214.08 268.5,-224.08 272,-214.08 265,-214.08"/>
</g>
<!-- Node3 -->
<g id="node3" class="node">
<title>Node3</title>
<g id="a_node3"><a xlink:href="Calphad__problem_8hpp.html" target="_top" xlink:title="Class used to defined a Calphad_Problem objet.">
<polygon fill="none" stroke="black" points="0,-112.5 0,-131.5 131,-131.5 131,-112.5 0,-112.5"/>
<text text-anchor="middle" x="65.5" y="-119.5" font-family="serif" font-size="10.00">Calphad_problem.hpp</text>
</a>
</g>
</g>
<!-- Node2&#45;&gt;Node3 -->
<g id="edge2" class="edge">
<title>Node2&#45;&gt;Node3</title>
<path fill="none" stroke="midnightblue" d="M226.51,-165.83C188.18,-155.63 132.35,-140.78 97.52,-131.52"/>
<polygon fill="midnightblue" stroke="midnightblue" points="225.77,-169.26 236.33,-168.44 227.57,-162.49 225.77,-169.26"/>
</g>
<!-- Node6 -->
<g id="node6" class="node">
<title>Node6</title>
<g id="a_node6"><a xlink:href="MPIProblem_8hpp.html" target="_top" xlink:title="Class used to defined a MPI_Problem objet.">
<polygon fill="none" stroke="black" points="149.5,-112.5 149.5,-131.5 253.5,-131.5 253.5,-112.5 149.5,-112.5"/>
<text text-anchor="middle" x="201.5" y="-119.5" font-family="serif" font-size="10.00">MPIProblem.hpp</text>
</a>
</g>
</g>
<!-- Node2&#45;&gt;Node6 -->
<g id="edge5" class="edge">
<title>Node2&#45;&gt;Node6</title>
<path fill="none" stroke="midnightblue" d="M249.67,-161.82C237.66,-152.15 222.53,-139.95 212.46,-131.83"/>
<polygon fill="midnightblue" stroke="midnightblue" points="247.75,-164.77 257.74,-168.32 252.15,-159.32 247.75,-164.77"/>
</g>
<!-- Node7 -->
<g id="node7" class="node">
<title>Node7</title>
<g id="a_node7"><a xlink:href="Problem_8hpp.html" target="_top" xlink:title="Class used to defined a PDE Problem.">
<polygon fill="none" stroke="black" points="417,-112.5 417,-131.5 500,-131.5 500,-112.5 417,-112.5"/>
<text text-anchor="middle" x="458.5" y="-119.5" font-family="serif" font-size="10.00">Problem.hpp</text>
</a>
</g>
</g>
<!-- Node2&#45;&gt;Node7 -->
<g id="edge7" class="edge">
<title>Node2&#45;&gt;Node7</title>
<path fill="none" stroke="midnightblue" d="M308.26,-165.7C344.12,-155.51 396.07,-140.74 428.53,-131.52"/>
<polygon fill="midnightblue" stroke="midnightblue" points="307.27,-162.34 298.61,-168.44 309.18,-169.08 307.27,-162.34"/>
</g>
<!-- Node9 -->
<g id="node9" class="node">
<title>Node9</title>
<g id="a_node9"><a xlink:href="PropertyProblem_8hpp.html" target="_top" xlink:title="Class used to compute primary variables as a function of auxialiary variables.">
<polygon fill="none" stroke="black" points="272,-112.5 272,-131.5 399,-131.5 399,-112.5 272,-112.5"/>
<text text-anchor="middle" x="335.5" y="-119.5" font-family="serif" font-size="10.00">PropertyProblem.hpp</text>
</a>
</g>
</g>
<!-- Node2&#45;&gt;Node9 -->
<g id="edge11" class="edge">
<title>Node2&#45;&gt;Node9</title>
<path fill="none" stroke="midnightblue" d="M287.33,-161.82C299.34,-152.15 314.47,-139.95 324.54,-131.83"/>
<polygon fill="midnightblue" stroke="midnightblue" points="284.85,-159.32 279.26,-168.32 289.25,-164.77 284.85,-159.32"/>
</g>
<!-- Node4 -->
<g id="node4" class="node">
<title>Node4</title>
<g id="a_node4"><a xlink:href="ListProblems_8hpp.html" target="_top" xlink:title=" ">
<polygon fill="none" stroke="black" points="282,-56.5 282,-75.5 389,-75.5 389,-56.5 282,-56.5"/>
<text text-anchor="middle" x="335.5" y="-63.5" font-family="serif" font-size="10.00">ListProblems.hpp</text>
</a>
</g>
</g>
<!-- Node3&#45;&gt;Node4 -->
<g id="edge3" class="edge">
<title>Node3&#45;&gt;Node4</title>
<path fill="none" stroke="midnightblue" d="M118.13,-110.47C169.16,-100.27 245.6,-84.98 292.92,-75.52"/>
<polygon fill="midnightblue" stroke="midnightblue" points="117.4,-107.05 108.28,-112.44 118.77,-113.91 117.4,-107.05"/>
</g>
<!-- Node5 -->
<g id="node5" class="node">
<title>Node5</title>
<g id="a_node5"><a xlink:href="sloth_8hpp.html" target="_top" xlink:title="List of SLOTH header files.">
<polygon fill="none" stroke="black" points="355,-0.5 355,-19.5 420,-19.5 420,-0.5 355,-0.5"/>
<text text-anchor="middle" x="387.5" y="-7.5" font-family="serif" font-size="10.00">sloth.hpp</text>
</a>
</g>
</g>
<!-- Node4&#45;&gt;Node5 -->
<g id="edge4" class="edge">
<title>Node4&#45;&gt;Node5</title>
<path fill="none" stroke="midnightblue" d="M351.18,-48.72C360.34,-39.2 371.55,-27.56 379.07,-19.75"/>
<polygon fill="midnightblue" stroke="midnightblue" points="348.5,-46.45 344.09,-56.08 353.54,-51.31 348.5,-46.45"/>
</g>
<!-- Node6&#45;&gt;Node4 -->
<g id="edge6" class="edge">
<title>Node6&#45;&gt;Node4</title>
<path fill="none" stroke="midnightblue" d="M232.18,-108.64C257.32,-98.5 292.25,-84.43 314.37,-75.52"/>
<polygon fill="midnightblue" stroke="midnightblue" points="230.7,-105.46 222.73,-112.44 233.32,-111.95 230.7,-105.46"/>
</g>
<!-- Node7&#45;&gt;Node4 -->
<g id="edge8" class="edge">
<title>Node7&#45;&gt;Node4</title>
<path fill="none" stroke="midnightblue" d="M429.73,-108.37C406.69,-98.26 375.02,-84.35 354.9,-75.52"/>
<polygon fill="midnightblue" stroke="midnightblue" points="428.45,-111.63 439.01,-112.44 431.26,-105.22 428.45,-111.63"/>
</g>
<!-- Node8 -->
<g id="node8" class="node">
<title>Node8</title>
<g id="a_node8"><a xlink:href="Time_8hpp.html" target="_top" xlink:title="Main time loop.">
<polygon fill="none" stroke="black" points="416,-56.5 416,-75.5 481,-75.5 481,-56.5 416,-56.5"/>
<text text-anchor="middle" x="448.5" y="-63.5" font-family="serif" font-size="10.00">Time.hpp</text>
</a>
</g>
</g>
<!-- Node7&#45;&gt;Node8 -->
<g id="edge9" class="edge">
<title>Node7&#45;&gt;Node8</title>
<path fill="none" stroke="midnightblue" d="M455,-102.1C453.34,-93.14 451.44,-82.86 450.12,-75.75"/>
<polygon fill="midnightblue" stroke="midnightblue" points="451.59,-102.89 456.85,-112.08 458.47,-101.61 451.59,-102.89"/>
</g>
<!-- Node8&#45;&gt;Node5 -->
<g id="edge10" class="edge">
<title>Node8&#45;&gt;Node5</title>
<path fill="none" stroke="midnightblue" d="M431.03,-49.54C420.16,-39.91 406.56,-27.87 397.48,-19.83"/>
<polygon fill="midnightblue" stroke="midnightblue" points="428.89,-52.32 438.7,-56.32 433.53,-47.07 428.89,-52.32"/>
</g>
<!-- Node9&#45;&gt;Node4 -->
<g id="edge12" class="edge">
<title>Node9&#45;&gt;Node4</title>
<path fill="none" stroke="midnightblue" d="M335.5,-101.8C335.5,-92.91 335.5,-82.78 335.5,-75.75"/>
<polygon fill="midnightblue" stroke="midnightblue" points="332,-102.08 335.5,-112.08 339,-102.08 332,-102.08"/>
</g>
</g>
</svg>
