<?xml version="1.0" encoding="UTF-8" standalone="no"?>
<!DOCTYPE svg PUBLIC "-//W3C//DTD SVG 1.1//EN"
 "http://www.w3.org/Graphics/SVG/1.1/DTD/svg11.dtd">
<!-- Generated by graphviz version 2.43.0 (0)
 -->
<!-- Title: ProductFunctionCoefficients.hpp Pages: 1 -->
<!--zoomable 140 -->
<svg id="main" version="1.1" xmlns="http://www.w3.org/2000/svg" xmlns:xlink="http://www.w3.org/1999/xlink" xml:space="preserve" onload="init(evt)">
<style type="text/css"><![CDATA[
.edge:hover path { stroke: red; }
.edge:hover polygon { stroke: red; fill: red; }
]]></style>
<script type="text/javascript"><![CDATA[
var edges = document.getElementsByTagName('g');
if (edges && edges.length) {
  for (var i=0;i<edges.length;i++) {
    if (edges[i].id.substr(0,4)=='edge') {
      edges[i].setAttribute('class','edge');
    }
  }
}
]]></script>
        <defs>
                <circle id="rim" cx="0" cy="0" r="7"/>
                <circle id="rim2" cx="0" cy="0" r="3.5"/>
                <g id="zoomPlus">
                        <use xlink:href="#rim" fill="#404040">
                                <set attributeName="fill" to="#808080" begin="zoomplus.mouseover" end="zoomplus.mouseout"/>
                        </use>
                        <path d="M-4,0h8M0,-4v8" fill="none" stroke="white" stroke-width="1.5" pointer-events="none"/>
                </g>
                <g id="zoomMin">
                        <use xlink:href="#rim" fill="#404040">
                                <set attributeName="fill" to="#808080" begin="zoomminus.mouseover" end="zoomminus.mouseout"/>
                        </use>
                        <path d="M-4,0h8" fill="none" stroke="white" stroke-width="1.5" pointer-events="none"/>
                </g>
                <g id="dirArrow">
                        <path fill="none" stroke="white" stroke-width="1.5" d="M0,-3.0v7 M-2.5,-0.5L0,-3.0L2.5,-0.5"/>
                </g>
               <g id="resetDef">
                       <use xlink:href="#rim2" fill="#404040">
                               <set attributeName="fill" to="#808080" begin="reset.mouseover" end="reset.mouseout"/>
                       </use>
               </g>
        </defs>

<script type="text/javascript">
var viewWidth = 854;
var viewHeight = 140;
var sectionId = 'dynsection-0';
</script>
<script xlink:href="svgpan.js"/>
<svg id="graph" class="graph">
<g id="viewport">
<title>ProductFunctionCoefficients.hpp</title>
<!-- Node1 -->
<g id="node1" class="node">
<title>Node1</title>
<g id="a_node1"><a xlink:title=" ">
<polygon fill="#bfbfbf" stroke="black" points="290.5,-112.5 290.5,-131.5 474.5,-131.5 474.5,-112.5 290.5,-112.5"/>
<text text-anchor="middle" x="382.5" y="-119.5" font-family="serif" font-size="10.00">ProductFunctionCoefficients.hpp</text>
</a>
</g>
</g>
<!-- Node2 -->
<g id="node2" class="node">
<title>Node2</title>
<g id="a_node2"><a xlink:title=" ">
<polygon fill="none" stroke="#bfbfbf" points="0,-0.5 0,-19.5 35,-19.5 35,-0.5 0,-0.5"/>
<text text-anchor="middle" x="17.5" y="-7.5" font-family="serif" font-size="10.00">any</text>
</a>
</g>
</g>
<!-- Node1&#45;&gt;Node2 -->
<g id="edge1" class="edge">
<title>Node1&#45;&gt;Node2</title>
<path fill="none" stroke="midnightblue" d="M337.5,-112.46C297.68,-104.47 238.18,-91.46 187.5,-76 136.01,-60.3 77.76,-36.71 44.55,-22.68"/>
<polygon fill="midnightblue" stroke="midnightblue" points="45.66,-19.35 35.08,-18.65 42.92,-25.79 45.66,-19.35"/>
</g>
<!-- Node3 -->
<g id="node3" class="node">
<title>Node3</title>
<g id="a_node3"><a xlink:title=" ">
<polygon fill="none" stroke="#bfbfbf" points="53.5,-0.5 53.5,-19.5 101.5,-19.5 101.5,-0.5 53.5,-0.5"/>
<text text-anchor="middle" x="77.5" y="-7.5" font-family="serif" font-size="10.00">cmath</text>
</a>
</g>
</g>
<!-- Node1&#45;&gt;Node3 -->
<g id="edge2" class="edge">
<title>Node1&#45;&gt;Node3</title>
<path fill="none" stroke="midnightblue" d="M353.47,-112.47C324.62,-103.84 279.22,-89.84 240.5,-76 193.31,-59.14 139.47,-37.11 107.01,-23.52"/>
<polygon fill="midnightblue" stroke="midnightblue" points="108.22,-20.23 97.65,-19.58 105.51,-26.68 108.22,-20.23"/>
</g>
<!-- Node4 -->
<g id="node4" class="node">
<title>Node4</title>
<g id="a_node4"><a xlink:title=" ">
<polygon fill="none" stroke="#bfbfbf" points="119.5,-0.5 119.5,-19.5 187.5,-19.5 187.5,-0.5 119.5,-0.5"/>
<text text-anchor="middle" x="153.5" y="-7.5" font-family="serif" font-size="10.00">functional</text>
</a>
</g>
</g>
<!-- Node1&#45;&gt;Node4 -->
<g id="edge3" class="edge">
<title>Node1&#45;&gt;Node4</title>
<path fill="none" stroke="midnightblue" d="M363.05,-112.42C343.02,-103.51 310.93,-89.09 283.5,-76 247.15,-58.66 205.59,-37.67 179.45,-24.33"/>
<polygon fill="midnightblue" stroke="midnightblue" points="180.73,-21.05 170.23,-19.61 177.54,-27.28 180.73,-21.05"/>
</g>
<!-- Node5 -->
<g id="node5" class="node">
<title>Node5</title>
<g id="a_node5"><a xlink:title=" ">
<polygon fill="none" stroke="#bfbfbf" points="205.5,-0.5 205.5,-19.5 249.5,-19.5 249.5,-0.5 205.5,-0.5"/>
<text text-anchor="middle" x="227.5" y="-7.5" font-family="serif" font-size="10.00">limits</text>
</a>
</g>
</g>
<!-- Node1&#45;&gt;Node5 -->
<g id="edge4" class="edge">
<title>Node1&#45;&gt;Node5</title>
<path fill="none" stroke="midnightblue" d="M368.83,-112.48C354.77,-103.62 332.34,-89.24 313.5,-76 290.03,-59.51 263.83,-39.46 246.59,-26.03"/>
<polygon fill="midnightblue" stroke="midnightblue" points="248.48,-23.07 238.45,-19.66 244.17,-28.58 248.48,-23.07"/>
</g>
<!-- Node6 -->
<g id="node6" class="node">
<title>Node6</title>
<g id="a_node6"><a xlink:title=" ">
<polygon fill="none" stroke="#bfbfbf" points="268,-0.5 268,-19.5 307,-19.5 307,-0.5 268,-0.5"/>
<text text-anchor="middle" x="287.5" y="-7.5" font-family="serif" font-size="10.00">map</text>
</a>
</g>
</g>
<!-- Node1&#45;&gt;Node6 -->
<g id="edge5" class="edge">
<title>Node1&#45;&gt;Node6</title>
<path fill="none" stroke="midnightblue" d="M371.22,-112.42C360.36,-103.87 343.82,-90.01 331.5,-76 318.46,-61.18 306.09,-42.32 297.81,-28.74"/>
<polygon fill="midnightblue" stroke="midnightblue" points="300.68,-26.71 292.55,-19.92 294.66,-30.3 300.68,-26.71"/>
</g>
<!-- Node7 -->
<g id="node7" class="node">
<title>Node7</title>
<g id="a_node7"><a xlink:title=" ">
<polygon fill="none" stroke="#bfbfbf" points="325,-0.5 325,-19.5 384,-19.5 384,-0.5 325,-0.5"/>
<text text-anchor="middle" x="354.5" y="-7.5" font-family="serif" font-size="10.00">memory</text>
</a>
</g>
</g>
<!-- Node1&#45;&gt;Node7 -->
<g id="edge6" class="edge">
<title>Node1&#45;&gt;Node7</title>
<path fill="none" stroke="midnightblue" d="M369.44,-112.44C358.59,-104.47 343.93,-91.52 337.5,-76 331.1,-60.54 337.21,-42 343.82,-28.68"/>
<polygon fill="midnightblue" stroke="midnightblue" points="347.03,-30.11 348.77,-19.66 340.89,-26.74 347.03,-30.11"/>
</g>
<!-- Node8 -->
<g id="node8" class="node">
<title>Node8</title>
<g id="a_node8"><a xlink:title=" ">
<polygon fill="none" stroke="#bfbfbf" points="541.5,-0.5 541.5,-19.5 599.5,-19.5 599.5,-0.5 541.5,-0.5"/>
<text text-anchor="middle" x="570.5" y="-7.5" font-family="serif" font-size="10.00">optional</text>
</a>
</g>
</g>
<!-- Node1&#45;&gt;Node8 -->
<g id="edge7" class="edge">
<title>Node1&#45;&gt;Node8</title>
<path fill="none" stroke="midnightblue" d="M441.63,-112.47C485.6,-104.93 540.62,-92.54 556.5,-76 568.11,-63.91 571.05,-44.63 571.43,-30.2"/>
<polygon fill="midnightblue" stroke="midnightblue" points="574.92,-29.85 571.29,-19.9 567.92,-29.94 574.92,-29.85"/>
</g>
<!-- Node9 -->
<g id="node9" class="node">
<title>Node9</title>
<g id="a_node9"><a xlink:title=" ">
<polygon fill="none" stroke="#bfbfbf" points="617.5,-0.5 617.5,-19.5 649.5,-19.5 649.5,-0.5 617.5,-0.5"/>
<text text-anchor="middle" x="633.5" y="-7.5" font-family="serif" font-size="10.00">set</text>
</a>
</g>
</g>
<!-- Node1&#45;&gt;Node9 -->
<g id="edge8" class="edge">
<title>Node1&#45;&gt;Node9</title>
<path fill="none" stroke="midnightblue" d="M470.41,-112.41C505.29,-106.08 544.61,-95.09 576.5,-76 596.15,-64.24 612.62,-43.41 622.73,-28.5"/>
<polygon fill="midnightblue" stroke="midnightblue" points="625.92,-30 628.42,-19.71 620.05,-26.2 625.92,-30"/>
</g>
<!-- Node10 -->
<g id="node10" class="node">
<title>Node10</title>
<g id="a_node10"><a xlink:title=" ">
<polygon fill="none" stroke="#bfbfbf" points="668,-0.5 668,-19.5 715,-19.5 715,-0.5 668,-0.5"/>
<text text-anchor="middle" x="691.5" y="-7.5" font-family="serif" font-size="10.00">string</text>
</a>
</g>
</g>
<!-- Node1&#45;&gt;Node10 -->
<g id="edge9" class="edge">
<title>Node1&#45;&gt;Node10</title>
<path fill="none" stroke="midnightblue" d="M466.05,-112.49C508.27,-106.08 559.53,-95 602.5,-76 630.22,-63.75 657.71,-41.77 674.64,-26.8"/>
<polygon fill="midnightblue" stroke="midnightblue" points="677.42,-29 682.48,-19.69 672.72,-23.82 677.42,-29"/>
</g>
<!-- Node11 -->
<g id="node11" class="node">
<title>Node11</title>
<g id="a_node11"><a xlink:title=" ">
<polygon fill="none" stroke="#bfbfbf" points="733.5,-0.5 733.5,-19.5 779.5,-19.5 779.5,-0.5 733.5,-0.5"/>
<text text-anchor="middle" x="756.5" y="-7.5" font-family="serif" font-size="10.00">utility</text>
</a>
</g>
</g>
<!-- Node1&#45;&gt;Node11 -->
<g id="edge10" class="edge">
<title>Node1&#45;&gt;Node11</title>
<path fill="none" stroke="midnightblue" d="M467.89,-112.49C517.5,-105.9 580.64,-94.64 634.5,-76 671.74,-63.11 711.4,-40.02 735.05,-25.11"/>
<polygon fill="midnightblue" stroke="midnightblue" points="737.05,-27.99 743.59,-19.65 733.28,-22.09 737.05,-27.99"/>
</g>
<!-- Node12 -->
<g id="node12" class="node">
<title>Node12</title>
<g id="a_node12"><a xlink:title=" ">
<polygon fill="none" stroke="#bfbfbf" points="797.5,-0.5 797.5,-19.5 845.5,-19.5 845.5,-0.5 797.5,-0.5"/>
<text text-anchor="middle" x="821.5" y="-7.5" font-family="serif" font-size="10.00">vector</text>
</a>
</g>
</g>
<!-- Node1&#45;&gt;Node12 -->
<g id="edge11" class="edge">
<title>Node1&#45;&gt;Node12</title>
<path fill="none" stroke="midnightblue" d="M474.58,-112.71C532.01,-106.06 606.99,-94.67 671.5,-76 717.06,-62.82 767.06,-39.15 796.28,-24.3"/>
<polygon fill="midnightblue" stroke="midnightblue" points="798.07,-27.32 805.36,-19.63 794.87,-21.09 798.07,-27.32"/>
</g>
<!-- Node13 -->
<g id="node13" class="node">
<title>Node13</title>
<g id="a_node13"><a xlink:href="FunctionCoefficient_8hpp.html" target="_top" xlink:title="Base class defining analytical expression, first and second derivatives of a Coefficient.">
<polygon fill="none" stroke="black" points="347,-56.5 347,-75.5 548,-75.5 548,-56.5 347,-56.5"/>
<text text-anchor="middle" x="447.5" y="-63.5" font-family="serif" font-size="10.00">Coefficients/FunctionCoefficient.hpp</text>
</a>
</g>
</g>
<!-- Node1&#45;&gt;Node13 -->
<g id="edge12" class="edge">
<title>Node1&#45;&gt;Node13</title>
<path fill="none" stroke="midnightblue" d="M392.94,-112.32C402.65,-104.26 417.32,-92.08 429,-82.37"/>
<polygon fill="midnightblue" stroke="midnightblue" points="431.41,-84.92 436.87,-75.83 426.94,-79.53 431.41,-84.92"/>
</g>
<!-- Node13&#45;&gt;Node2 -->
<g id="edge13" class="edge">
<title>Node13&#45;&gt;Node2</title>
<path fill="none" stroke="midnightblue" d="M346.76,-59.65C267.06,-54.05 153,-43.01 44.85,-19.6"/>
<polygon fill="midnightblue" stroke="midnightblue" points="45.59,-16.18 35.07,-17.45 44.08,-23.02 45.59,-16.18"/>
</g>
<!-- Node13&#45;&gt;Node3 -->
<g id="edge14" class="edge">
<title>Node13&#45;&gt;Node3</title>
<path fill="none" stroke="midnightblue" d="M359.33,-56.48C293.5,-49.37 201.2,-37.81 111.62,-19.99"/>
<polygon fill="midnightblue" stroke="midnightblue" points="112.06,-16.51 101.56,-17.96 110.67,-23.37 112.06,-16.51"/>
</g>
<!-- Node13&#45;&gt;Node4 -->
<g id="edge16" class="edge">
<title>Node13&#45;&gt;Node4</title>
<path fill="none" stroke="midnightblue" d="M397.42,-56.46C348.88,-48.08 272.91,-34.72 197.85,-20.22"/>
<polygon fill="midnightblue" stroke="midnightblue" points="198.23,-16.73 187.75,-18.26 196.9,-23.6 198.23,-16.73"/>
</g>
<!-- Node13&#45;&gt;Node5 -->
<g id="edge17" class="edge">
<title>Node13&#45;&gt;Node5</title>
<path fill="none" stroke="midnightblue" d="M409.35,-56.49C373.18,-48.3 317.07,-35.26 259.77,-20.24"/>
<polygon fill="midnightblue" stroke="midnightblue" points="260.38,-16.79 249.81,-17.62 258.59,-23.55 260.38,-16.79"/>
</g>
<!-- Node13&#45;&gt;Node6 -->
<g id="edge18" class="edge">
<title>Node13&#45;&gt;Node6</title>
<path fill="none" stroke="midnightblue" d="M422.15,-56.44C393.49,-46.77 346.91,-31.05 316.74,-20.87"/>
<polygon fill="midnightblue" stroke="midnightblue" points="317.78,-17.53 307.19,-17.64 315.54,-24.16 317.78,-17.53"/>
</g>
<!-- Node13&#45;&gt;Node7 -->
<g id="edge19" class="edge">
<title>Node13&#45;&gt;Node7</title>
<path fill="none" stroke="midnightblue" d="M432.56,-56.32C417.91,-47.82 395.37,-34.73 378.26,-24.8"/>
<polygon fill="midnightblue" stroke="midnightblue" points="379.81,-21.65 369.4,-19.65 376.3,-27.7 379.81,-21.65"/>
</g>
<!-- Node13&#45;&gt;Node8 -->
<g id="edge20" class="edge">
<title>Node13&#45;&gt;Node8</title>
<path fill="none" stroke="midnightblue" d="M466.99,-56.44C487.14,-47.6 518.82,-33.69 541.83,-23.59"/>
<polygon fill="midnightblue" stroke="midnightblue" points="543.35,-26.74 551.1,-19.52 540.54,-20.33 543.35,-26.74"/>
</g>
<!-- Node13&#45;&gt;Node9 -->
<g id="edge21" class="edge">
<title>Node13&#45;&gt;Node9</title>
<path fill="none" stroke="midnightblue" d="M480.7,-56.48C511.42,-48.43 558.54,-35.66 607.86,-20.04"/>
<polygon fill="midnightblue" stroke="midnightblue" points="608.96,-23.36 617.42,-16.98 606.83,-16.69 608.96,-23.36"/>
</g>
<!-- Node13&#45;&gt;Node10 -->
<g id="edge23" class="edge">
<title>Node13&#45;&gt;Node10</title>
<path fill="none" stroke="midnightblue" d="M490.9,-56.49C531.58,-48.34 594.31,-35.35 657.94,-20.03"/>
<polygon fill="midnightblue" stroke="midnightblue" points="658.86,-23.41 667.75,-17.65 657.2,-16.61 658.86,-23.41"/>
</g>
<!-- Node13&#45;&gt;Node11 -->
<g id="edge24" class="edge">
<title>Node13&#45;&gt;Node11</title>
<path fill="none" stroke="midnightblue" d="M511.72,-56.47C567.88,-48.55 651.51,-35.64 723.5,-20 723.6,-19.98 723.7,-19.96 723.81,-19.93"/>
<polygon fill="midnightblue" stroke="midnightblue" points="724.59,-23.34 733.5,-17.6 722.96,-16.54 724.59,-23.34"/>
</g>
<!-- Node13&#45;&gt;Node12 -->
<g id="edge25" class="edge">
<title>Node13&#45;&gt;Node12</title>
<path fill="none" stroke="midnightblue" d="M537.43,-56.48C604.08,-49.39 697.23,-37.85 787.58,-19.95"/>
<polygon fill="midnightblue" stroke="midnightblue" points="788.33,-23.37 797.44,-17.97 786.95,-16.5 788.33,-23.37"/>
</g>
<!-- Node14 -->
<g id="node14" class="node">
<title>Node14</title>
<g id="a_node14"><a xlink:title=" ">
<polygon fill="none" stroke="#bfbfbf" points="461.5,-0.5 461.5,-19.5 523.5,-19.5 523.5,-0.5 461.5,-0.5"/>
<text text-anchor="middle" x="492.5" y="-7.5" font-family="serif" font-size="10.00">concepts</text>
</a>
</g>
</g>
<!-- Node13&#45;&gt;Node14 -->
<g id="edge15" class="edge">
<title>Node13&#45;&gt;Node14</title>
<path fill="none" stroke="midnightblue" d="M454.93,-56.08C461.35,-48.38 470.81,-37.03 478.62,-27.65"/>
<polygon fill="midnightblue" stroke="midnightblue" points="481.49,-29.67 485.21,-19.75 476.12,-25.19 481.49,-29.67"/>
</g>
<!-- Node15 -->
<g id="node15" class="node">
<title>Node15</title>
<g id="a_node15"><a xlink:title=" ">
<polygon fill="none" stroke="#bfbfbf" points="402,-0.5 402,-19.5 443,-19.5 443,-0.5 402,-0.5"/>
<text text-anchor="middle" x="422.5" y="-7.5" font-family="serif" font-size="10.00">span</text>
</a>
</g>
</g>
<!-- Node13&#45;&gt;Node15 -->
<g id="edge22" class="edge">
<title>Node13&#45;&gt;Node15</title>
<path fill="none" stroke="midnightblue" d="M443.37,-56.08C439.99,-48.77 435.08,-38.18 430.88,-29.1"/>
<polygon fill="midnightblue" stroke="midnightblue" points="433.93,-27.36 426.55,-19.75 427.58,-30.3 433.93,-27.36"/>
</g>
</g>
</svg>
        <g id="navigator" transform="translate(0 0)" fill="#404254">
                <rect fill="#f2f5e9" fill-opacity="0.5" stroke="#606060" stroke-width=".5" x="0" y="0" width="60" height="60"/>
                <use id="zoomplus" xlink:href="#zoomPlus" x="17" y="9" onmousedown="handleZoom(evt,'in')"/>
                <use id="zoomminus" xlink:href="#zoomMin" x="42" y="9" onmousedown="handleZoom(evt,'out')"/>
                <use id="reset" xlink:href="#resetDef" x="30" y="36" onmousedown="handleReset()"/>
                <g id="arrowUp" xlink:href="#dirArrow" transform="translate(30 24)" onmousedown="handlePan(0,-1)">
                  <use xlink:href="#rim" fill="#404040">
                        <set attributeName="fill" to="#808080" begin="arrowUp.mouseover" end="arrowUp.mouseout"/>
                  </use>
                  <path fill="none" stroke="white" stroke-width="1.5" d="M0,-3.0v7 M-2.5,-0.5L0,-3.0L2.5,-0.5"/>
                </g>
                <g id="arrowRight" xlink:href="#dirArrow" transform="rotate(90) translate(36 -43)" onmousedown="handlePan(1,0)">
                  <use xlink:href="#rim" fill="#404040">
                        <set attributeName="fill" to="#808080" begin="arrowRight.mouseover" end="arrowRight.mouseout"/>
                  </use>
                  <path fill="none" stroke="white" stroke-width="1.5" d="M0,-3.0v7 M-2.5,-0.5L0,-3.0L2.5,-0.5"/>
                </g>
                <g id="arrowDown" xlink:href="#dirArrow" transform="rotate(180) translate(-30 -48)" onmousedown="handlePan(0,1)">
                  <use xlink:href="#rim" fill="#404040">
                        <set attributeName="fill" to="#808080" begin="arrowDown.mouseover" end="arrowDown.mouseout"/>
                  </use>
                  <path fill="none" stroke="white" stroke-width="1.5" d="M0,-3.0v7 M-2.5,-0.5L0,-3.0L2.5,-0.5"/>
                </g>
                <g id="arrowLeft" xlink:href="#dirArrow" transform="rotate(270) translate(-36 17)" onmousedown="handlePan(-1,0)">
                  <use xlink:href="#rim" fill="#404040">
                        <set attributeName="fill" to="#808080" begin="arrowLeft.mouseover" end="arrowLeft.mouseout"/>
                  </use>
                  <path fill="none" stroke="white" stroke-width="1.5" d="M0,-3.0v7 M-2.5,-0.5L0,-3.0L2.5,-0.5"/>
                </g>
        </g>
        <svg viewBox="0 0 15 15" width="100%" height="30px" preserveAspectRatio="xMaxYMin meet">
         <g id="arrow_out" transform="scale(0.3 0.3)">
          <a xlink:href="ProductFunctionCoefficients_8hpp__incl_org.svg" target="_base">
           <rect id="button" ry="5" rx="5" y="6" x="6" height="38" width="38"
                fill="#f2f5e9" fill-opacity="0.5" stroke="#606060" stroke-width="1.0"/>
           <path id="arrow"
             d="M 11.500037,31.436501 C 11.940474,20.09759 22.043105,11.32322 32.158766,21.979434 L 37.068811,17.246167 C 37.068811,17.246167 37.088388,32 37.088388,32 L 22.160133,31.978069 C 22.160133,31.978069 26.997745,27.140456 26.997745,27.140456 C 18.528582,18.264221 13.291696,25.230495 11.500037,31.436501 z"
             style="fill:#404040;"/>
          </a>
         </g>
        </svg>
</svg>
