<?xml version="1.0" encoding="UTF-8" standalone="no"?>
<!DOCTYPE svg PUBLIC "-//W3C//DTD SVG 1.1//EN"
 "http://www.w3.org/Graphics/SVG/1.1/DTD/svg11.dtd">
<!-- Generated by graphviz version 2.43.0 (0)
 -->
<!-- Title: ReducedOperator.hpp Pages: 1 -->
<svg width="288pt" height="196pt"
 viewBox="0.00 0.00 288.00 196.00" xmlns="http://www.w3.org/2000/svg" xmlns:xlink="http://www.w3.org/1999/xlink">
<g id="graph0" class="graph" transform="scale(1 1) rotate(0) translate(4 192)">
<title>ReducedOperator.hpp</title>
<!-- Node1 -->
<g id="node1" class="node">
<title>Node1</title>
<g id="a_node1"><a xlink:title="UnSteady version of the linear system resulting from the NonLinear algorithm.">
<polygon fill="#bfbfbf" stroke="black" points="76,-168.5 76,-187.5 206,-187.5 206,-168.5 76,-168.5"/>
<text text-anchor="middle" x="141" y="-175.5" font-family="serif" font-size="10.00">ReducedOperator.hpp</text>
</a>
</g>
</g>
<!-- Node2 -->
<g id="node2" class="node">
<title>Node2</title>
<g id="a_node2"><a xlink:href="TransientOperator_8hpp.html" target="_top" xlink:title="Transient Operator.">
<polygon fill="none" stroke="black" points="0,-112.5 0,-131.5 134,-131.5 134,-112.5 0,-112.5"/>
<text text-anchor="middle" x="67" y="-119.5" font-family="serif" font-size="10.00">TransientOperator.hpp</text>
</a>
</g>
</g>
<!-- Node1&#45;&gt;Node2 -->
<g id="edge1" class="edge">
<title>Node1&#45;&gt;Node2</title>
<path fill="none" stroke="midnightblue" d="M120.97,-162.38C107.59,-152.62 90.44,-140.11 79.11,-131.83"/>
<polygon fill="midnightblue" stroke="midnightblue" points="118.97,-165.26 129.11,-168.32 123.1,-159.6 118.97,-165.26"/>
</g>
<!-- Node5 -->
<g id="node5" class="node">
<title>Node5</title>
<g id="a_node5"><a xlink:href="ReducedOperator_8cpp.html" target="_top" xlink:title="UnSteady version of the linear system resulting from the NonLinear algorithm.">
<polygon fill="none" stroke="black" points="152,-112.5 152,-131.5 280,-131.5 280,-112.5 152,-112.5"/>
<text text-anchor="middle" x="216" y="-119.5" font-family="serif" font-size="10.00">ReducedOperator.cpp</text>
</a>
</g>
</g>
<!-- Node1&#45;&gt;Node5 -->
<g id="edge4" class="edge">
<title>Node1&#45;&gt;Node5</title>
<path fill="none" stroke="midnightblue" d="M161.31,-162.38C174.86,-152.62 192.24,-140.11 203.73,-131.83"/>
<polygon fill="midnightblue" stroke="midnightblue" points="159.12,-159.64 153.05,-168.32 163.21,-165.32 159.12,-159.64"/>
</g>
<!-- Node3 -->
<g id="node3" class="node">
<title>Node3</title>
<g id="a_node3"><a xlink:href="ListOperators_8hpp.html" target="_top" xlink:title=" ">
<polygon fill="none" stroke="black" points="12,-56.5 12,-75.5 122,-75.5 122,-56.5 12,-56.5"/>
<text text-anchor="middle" x="67" y="-63.5" font-family="serif" font-size="10.00">ListOperators.hpp</text>
</a>
</g>
</g>
<!-- Node2&#45;&gt;Node3 -->
<g id="edge2" class="edge">
<title>Node2&#45;&gt;Node3</title>
<path fill="none" stroke="midnightblue" d="M67,-101.8C67,-92.91 67,-82.78 67,-75.75"/>
<polygon fill="midnightblue" stroke="midnightblue" points="63.5,-102.08 67,-112.08 70.5,-102.08 63.5,-102.08"/>
</g>
<!-- Node4 -->
<g id="node4" class="node">
<title>Node4</title>
<g id="a_node4"><a xlink:href="sloth_8hpp.html" target="_top" xlink:title="List of SLOTH header files.">
<polygon fill="none" stroke="black" points="34.5,-0.5 34.5,-19.5 99.5,-19.5 99.5,-0.5 34.5,-0.5"/>
<text text-anchor="middle" x="67" y="-7.5" font-family="serif" font-size="10.00">sloth.hpp</text>
</a>
</g>
</g>
<!-- Node3&#45;&gt;Node4 -->
<g id="edge3" class="edge">
<title>Node3&#45;&gt;Node4</title>
<path fill="none" stroke="midnightblue" d="M67,-45.8C67,-36.91 67,-26.78 67,-19.75"/>
<polygon fill="midnightblue" stroke="midnightblue" points="63.5,-46.08 67,-56.08 70.5,-46.08 63.5,-46.08"/>
</g>
</g>
</svg>
