<?xml version="1.0" encoding="UTF-8" standalone="no"?>
<!DOCTYPE svg PUBLIC "-//W3C//DTD SVG 1.1//EN"
 "http://www.w3.org/Graphics/SVG/1.1/DTD/svg11.dtd">
<!-- Generated by graphviz version 2.43.0 (0)
 -->
<!-- Title: RobinNLFormIntegrator.hpp Pages: 1 -->
<svg width="243pt" height="140pt"
 viewBox="0.00 0.00 242.50 140.00" xmlns="http://www.w3.org/2000/svg" xmlns:xlink="http://www.w3.org/1999/xlink">
<g id="graph0" class="graph" transform="scale(1 1) rotate(0) translate(4 136)">
<title>RobinNLFormIntegrator.hpp</title>
<!-- Node1 -->
<g id="node1" class="node">
<title>Node1</title>
<g id="a_node1"><a xlink:title="Robin integrator.">
<polygon fill="#bfbfbf" stroke="black" points="0,-112.5 0,-131.5 164,-131.5 164,-112.5 0,-112.5"/>
<text text-anchor="middle" x="82" y="-119.5" font-family="serif" font-size="10.00">RobinNLFormIntegrator.hpp</text>
</a>
</g>
</g>
<!-- Node2 -->
<g id="node2" class="node">
<title>Node2</title>
<g id="a_node2"><a xlink:href="ListIntegrators_8hpp.html" target="_top" xlink:title="List of header files contained in the Integrators directory.">
<polygon fill="none" stroke="black" points="24,-0.5 24,-19.5 140,-19.5 140,-0.5 24,-0.5"/>
<text text-anchor="middle" x="82" y="-7.5" font-family="serif" font-size="10.00">ListIntegrators.hpp</text>
</a>
</g>
</g>
<!-- Node1&#45;&gt;Node2 -->
<g id="edge1" class="edge">
<title>Node1&#45;&gt;Node2</title>
<path fill="none" stroke="midnightblue" d="M62.75,-105.75C54.37,-97.87 45.45,-87.5 41,-76 32.52,-54.1 55.08,-31.59 70.01,-19.66"/>
<polygon fill="midnightblue" stroke="midnightblue" points="60.63,-108.54 70.46,-112.49 65.24,-103.27 60.63,-108.54"/>
</g>
<!-- Node3 -->
<g id="node3" class="node">
<title>Node3</title>
<g id="a_node3"><a xlink:href="NeumannNLFormIntegrator_8hpp.html" target="_top" xlink:title="Neumann integrator.">
<polygon fill="none" stroke="black" points="49.5,-56.5 49.5,-75.5 234.5,-75.5 234.5,-56.5 49.5,-56.5"/>
<text text-anchor="middle" x="142" y="-63.5" font-family="serif" font-size="10.00">NeumannNLFormIntegrator.hpp</text>
</a>
</g>
</g>
<!-- Node1&#45;&gt;Node3 -->
<g id="edge2" class="edge">
<title>Node1&#45;&gt;Node3</title>
<path fill="none" stroke="midnightblue" d="M99.18,-105.54C109.88,-95.91 123.26,-83.87 132.18,-75.83"/>
<polygon fill="midnightblue" stroke="midnightblue" points="96.73,-103.03 91.64,-112.32 101.41,-108.24 96.73,-103.03"/>
</g>
<!-- Node3&#45;&gt;Node2 -->
<g id="edge3" class="edge">
<title>Node3&#45;&gt;Node2</title>
<path fill="none" stroke="midnightblue" d="M124.82,-49.54C114.12,-39.91 100.74,-27.87 91.82,-19.83"/>
<polygon fill="midnightblue" stroke="midnightblue" points="122.59,-52.24 132.36,-56.32 127.27,-47.03 122.59,-52.24"/>
</g>
</g>
</svg>
