<?xml version="1.0" encoding="UTF-8" standalone="no"?>
<!DOCTYPE svg PUBLIC "-//W3C//DTD SVG 1.1//EN"
 "http://www.w3.org/Graphics/SVG/1.1/DTD/svg11.dtd">
<!-- Generated by graphviz version 2.43.0 (0)
 -->
<!-- Title: SlothBaseCoefficient.hpp Pages: 1 -->
<!--zoomable 308 -->
<svg id="main" version="1.1" xmlns="http://www.w3.org/2000/svg" xmlns:xlink="http://www.w3.org/1999/xlink" xml:space="preserve" onload="init(evt)">
<style type="text/css"><![CDATA[
.edge:hover path { stroke: red; }
.edge:hover polygon { stroke: red; fill: red; }
]]></style>
<script type="text/javascript"><![CDATA[
var edges = document.getElementsByTagName('g');
if (edges && edges.length) {
  for (var i=0;i<edges.length;i++) {
    if (edges[i].id.substr(0,4)=='edge') {
      edges[i].setAttribute('class','edge');
    }
  }
}
]]></script>
        <defs>
                <circle id="rim" cx="0" cy="0" r="7"/>
                <circle id="rim2" cx="0" cy="0" r="3.5"/>
                <g id="zoomPlus">
                        <use xlink:href="#rim" fill="#404040">
                                <set attributeName="fill" to="#808080" begin="zoomplus.mouseover" end="zoomplus.mouseout"/>
                        </use>
                        <path d="M-4,0h8M0,-4v8" fill="none" stroke="white" stroke-width="1.5" pointer-events="none"/>
                </g>
                <g id="zoomMin">
                        <use xlink:href="#rim" fill="#404040">
                                <set attributeName="fill" to="#808080" begin="zoomminus.mouseover" end="zoomminus.mouseout"/>
                        </use>
                        <path d="M-4,0h8" fill="none" stroke="white" stroke-width="1.5" pointer-events="none"/>
                </g>
                <g id="dirArrow">
                        <path fill="none" stroke="white" stroke-width="1.5" d="M0,-3.0v7 M-2.5,-0.5L0,-3.0L2.5,-0.5"/>
                </g>
               <g id="resetDef">
                       <use xlink:href="#rim2" fill="#404040">
                               <set attributeName="fill" to="#808080" begin="reset.mouseover" end="reset.mouseout"/>
                       </use>
               </g>
        </defs>

<script type="text/javascript">
var viewWidth = 2010;
var viewHeight = 308;
var sectionId = 'dynsection-0';
</script>
<script xlink:href="svgpan.js"/>
<svg id="graph" class="graph">
<g id="viewport">
<title>SlothBaseCoefficient.hpp</title>
<!-- Node1 -->
<g id="node1" class="node">
<title>Node1</title>
<g id="a_node1"><a xlink:title="Base class definining a coefficient from an analytical formula.">
<polygon fill="#bfbfbf" stroke="black" points="1342.5,-280.5 1342.5,-299.5 1487.5,-299.5 1487.5,-280.5 1342.5,-280.5"/>
<text text-anchor="middle" x="1415" y="-287.5" font-family="serif" font-size="10.00">SlothBaseCoefficient.hpp</text>
</a>
</g>
</g>
<!-- Node2 -->
<g id="node2" class="node">
<title>Node2</title>
<g id="a_node2"><a xlink:title=" ">
<polygon fill="none" stroke="#bfbfbf" points="456.5,-0.5 456.5,-19.5 517.5,-19.5 517.5,-0.5 456.5,-0.5"/>
<text text-anchor="middle" x="487" y="-7.5" font-family="serif" font-size="10.00">iostream</text>
</a>
</g>
</g>
<!-- Node1&#45;&gt;Node2 -->
<g id="edge1" class="edge">
<title>Node1&#45;&gt;Node2</title>
<path fill="none" stroke="midnightblue" d="M1342.1,-286.5C1073.13,-276.79 152,-239.15 152,-179 152,-179 152,-179 152,-121 152,-85.61 167.81,-74.48 198,-56 290.67,0.72 334.52,-37.95 446.51,-19.86"/>
<polygon fill="midnightblue" stroke="midnightblue" points="447.22,-23.28 456.48,-18.12 446.02,-16.39 447.22,-23.28"/>
</g>
<!-- Node3 -->
<g id="node3" class="node">
<title>Node3</title>
<g id="a_node3"><a xlink:title=" ">
<polygon fill="none" stroke="#bfbfbf" points="1366.5,-0.5 1366.5,-19.5 1425.5,-19.5 1425.5,-0.5 1366.5,-0.5"/>
<text text-anchor="middle" x="1396" y="-7.5" font-family="serif" font-size="10.00">memory</text>
</a>
</g>
</g>
<!-- Node1&#45;&gt;Node3 -->
<g id="edge2" class="edge">
<title>Node1&#45;&gt;Node3</title>
<path fill="none" stroke="midnightblue" d="M1412.44,-280.25C1407.25,-261.74 1396,-217.18 1396,-179 1396,-179 1396,-179 1396,-121 1396,-88.95 1396,-51.64 1396,-29.75"/>
<polygon fill="midnightblue" stroke="midnightblue" points="1399.5,-29.56 1396,-19.56 1392.5,-29.56 1399.5,-29.56"/>
</g>
<!-- Node4 -->
<g id="node4" class="node">
<title>Node4</title>
<g id="a_node4"><a xlink:title=" ">
<polygon fill="none" stroke="#bfbfbf" points="1862,-0.5 1862,-19.5 1920,-19.5 1920,-0.5 1862,-0.5"/>
<text text-anchor="middle" x="1891" y="-7.5" font-family="serif" font-size="10.00">optional</text>
</a>
</g>
</g>
<!-- Node1&#45;&gt;Node4 -->
<g id="edge3" class="edge">
<title>Node1&#45;&gt;Node4</title>
<path fill="none" stroke="midnightblue" d="M1487.58,-288.01C1626.43,-284.13 1916,-265.66 1916,-179 1916,-179 1916,-179 1916,-121 1916,-88 1905.17,-50.77 1897.76,-29.19"/>
<polygon fill="midnightblue" stroke="midnightblue" points="1901.03,-27.93 1894.37,-19.69 1894.43,-30.28 1901.03,-27.93"/>
</g>
<!-- Node5 -->
<g id="node5" class="node">
<title>Node5</title>
<g id="a_node5"><a xlink:title=" ">
<polygon fill="none" stroke="#bfbfbf" points="1802.5,-0.5 1802.5,-19.5 1843.5,-19.5 1843.5,-0.5 1802.5,-0.5"/>
<text text-anchor="middle" x="1823" y="-7.5" font-family="serif" font-size="10.00">span</text>
</a>
</g>
</g>
<!-- Node1&#45;&gt;Node5 -->
<g id="edge4" class="edge">
<title>Node1&#45;&gt;Node5</title>
<path fill="none" stroke="midnightblue" d="M1487.6,-286.67C1617.9,-280.5 1878,-258.26 1878,-179 1878,-179 1878,-179 1878,-121 1878,-84.57 1853.57,-47.84 1837.27,-27.39"/>
<polygon fill="midnightblue" stroke="midnightblue" points="1839.95,-25.14 1830.88,-19.67 1834.56,-29.6 1839.95,-25.14"/>
</g>
<!-- Node6 -->
<g id="node6" class="node">
<title>Node6</title>
<g id="a_node6"><a xlink:title=" ">
<polygon fill="none" stroke="#bfbfbf" points="1944.5,-224.5 1944.5,-243.5 2001.5,-243.5 2001.5,-224.5 1944.5,-224.5"/>
<text text-anchor="middle" x="1973" y="-231.5" font-family="serif" font-size="10.00">sstream</text>
</a>
</g>
</g>
<!-- Node1&#45;&gt;Node6 -->
<g id="edge5" class="edge">
<title>Node1&#45;&gt;Node6</title>
<path fill="none" stroke="midnightblue" d="M1487.81,-285.38C1587.87,-279.78 1773.29,-267.16 1930,-244 1931.46,-243.78 1932.95,-243.55 1934.45,-243.3"/>
<polygon fill="midnightblue" stroke="midnightblue" points="1935.2,-246.72 1944.4,-241.48 1933.94,-239.83 1935.2,-246.72"/>
</g>
<!-- Node7 -->
<g id="node7" class="node">
<title>Node7</title>
<g id="a_node7"><a xlink:title=" ">
<polygon fill="none" stroke="#bfbfbf" points="1054.5,-0.5 1054.5,-19.5 1101.5,-19.5 1101.5,-0.5 1054.5,-0.5"/>
<text text-anchor="middle" x="1078" y="-7.5" font-family="serif" font-size="10.00">string</text>
</a>
</g>
</g>
<!-- Node1&#45;&gt;Node7 -->
<g id="edge6" class="edge">
<title>Node1&#45;&gt;Node7</title>
<path fill="none" stroke="midnightblue" d="M1342.49,-287.64C1260.18,-284.6 1132.68,-274.88 1097,-244 1074.24,-224.3 1078,-209.1 1078,-179 1078,-179 1078,-179 1078,-121 1078,-88.95 1078,-51.64 1078,-29.75"/>
<polygon fill="midnightblue" stroke="midnightblue" points="1081.5,-29.56 1078,-19.56 1074.5,-29.56 1081.5,-29.56"/>
</g>
<!-- Node8 -->
<g id="node8" class="node">
<title>Node8</title>
<g id="a_node8"><a xlink:title=" ">
<polygon fill="none" stroke="#bfbfbf" points="854,-0.5 854,-19.5 902,-19.5 902,-0.5 854,-0.5"/>
<text text-anchor="middle" x="878" y="-7.5" font-family="serif" font-size="10.00">vector</text>
</a>
</g>
</g>
<!-- Node1&#45;&gt;Node8 -->
<g id="edge7" class="edge">
<title>Node1&#45;&gt;Node8</title>
<path fill="none" stroke="midnightblue" d="M1402.93,-280.49C1355.9,-247.61 1179.58,-127.25 1020,-56 1000.6,-47.34 947.62,-31.26 912.15,-20.85"/>
<polygon fill="midnightblue" stroke="midnightblue" points="912.79,-17.39 902.21,-17.95 910.82,-24.11 912.79,-17.39"/>
</g>
<!-- Node9 -->
<g id="node9" class="node">
<title>Node9</title>
<g id="a_node9"><a xlink:href="ConstantCoefficient_8hpp.html" target="_top" xlink:title="Constant coefficient.">
<polygon fill="none" stroke="black" points="1500,-112.5 1500,-131.5 1702,-131.5 1702,-112.5 1500,-112.5"/>
<text text-anchor="middle" x="1601" y="-119.5" font-family="serif" font-size="10.00">Coefficients/ConstantCoefficient.hpp</text>
</a>
</g>
</g>
<!-- Node1&#45;&gt;Node9 -->
<g id="edge8" class="edge">
<title>Node1&#45;&gt;Node9</title>
<path fill="none" stroke="midnightblue" d="M1430.99,-280.38C1445.89,-272 1468.41,-258.45 1486,-244 1526.48,-210.73 1567.14,-164.1 1587.54,-139.58"/>
<polygon fill="midnightblue" stroke="midnightblue" points="1590.45,-141.55 1594.1,-131.61 1585.04,-137.11 1590.45,-141.55"/>
</g>
<!-- Node12 -->
<g id="node12" class="node">
<title>Node12</title>
<g id="a_node12"><a xlink:href="FunctionCoefficient_8hpp.html" target="_top" xlink:title="Base class defining analytical expression, first and second derivatives of a Coefficient.">
<polygon fill="none" stroke="black" points="1424.5,-56.5 1424.5,-75.5 1625.5,-75.5 1625.5,-56.5 1424.5,-56.5"/>
<text text-anchor="middle" x="1525" y="-63.5" font-family="serif" font-size="10.00">Coefficients/FunctionCoefficient.hpp</text>
</a>
</g>
</g>
<!-- Node1&#45;&gt;Node12 -->
<g id="edge27" class="edge">
<title>Node1&#45;&gt;Node12</title>
<path fill="none" stroke="midnightblue" d="M1422.73,-280.25C1430.08,-271.57 1441.02,-257.62 1448,-244 1476.15,-189.1 1462.45,-166.7 1491,-112 1496.31,-101.82 1503.89,-91.52 1510.55,-83.35"/>
<polygon fill="midnightblue" stroke="midnightblue" points="1513.23,-85.6 1517.01,-75.7 1507.89,-81.08 1513.23,-85.6"/>
</g>
<!-- Node19 -->
<g id="node19" class="node">
<title>Node19</title>
<g id="a_node19"><a xlink:href="Glossary_8hpp.html" target="_top" xlink:title="Glossary used to defined variables and properties in SLOTH.">
<polygon fill="none" stroke="black" points="1644,-56.5 1644,-75.5 1774,-75.5 1774,-56.5 1644,-56.5"/>
<text text-anchor="middle" x="1709" y="-63.5" font-family="serif" font-size="10.00">Glossary/Glossary.hpp</text>
</a>
</g>
</g>
<!-- Node1&#45;&gt;Node19 -->
<g id="edge28" class="edge">
<title>Node1&#45;&gt;Node19</title>
<path fill="none" stroke="midnightblue" d="M1415.94,-280.33C1419.55,-251.4 1435.29,-157.46 1491,-112 1502.94,-102.26 1584.65,-87.18 1644.54,-77.21"/>
<polygon fill="midnightblue" stroke="midnightblue" points="1645.4,-80.61 1654.7,-75.53 1644.26,-73.7 1645.4,-80.61"/>
</g>
<!-- Node20 -->
<g id="node20" class="node">
<title>Node20</title>
<g id="a_node20"><a xlink:href="TimeOptions_8hpp.html" target="_top" xlink:title="Options for Time discretization.">
<polygon fill="none" stroke="black" points="1106,-224.5 1106,-243.5 1254,-243.5 1254,-224.5 1106,-224.5"/>
<text text-anchor="middle" x="1180" y="-231.5" font-family="serif" font-size="10.00">Options/TimeOptions.hpp</text>
</a>
</g>
</g>
<!-- Node1&#45;&gt;Node20 -->
<g id="edge32" class="edge">
<title>Node1&#45;&gt;Node20</title>
<path fill="none" stroke="midnightblue" d="M1377.76,-280.44C1336.94,-271.06 1271.36,-255.99 1227.02,-245.8"/>
<polygon fill="midnightblue" stroke="midnightblue" points="1227.59,-242.34 1217.06,-243.52 1226.02,-249.17 1227.59,-242.34"/>
</g>
<!-- Node29 -->
<g id="node29" class="node">
<title>Node29</title>
<g id="a_node29"><a xlink:title=" ">
<polygon fill="none" stroke="#bfbfbf" points="3.5,-0.5 3.5,-19.5 72.5,-19.5 72.5,-0.5 3.5,-0.5"/>
<text text-anchor="middle" x="38" y="-7.5" font-family="serif" font-size="10.00">mfem.hpp</text>
</a>
</g>
</g>
<!-- Node1&#45;&gt;Node29 -->
<g id="edge81" class="edge">
<title>Node1&#45;&gt;Node29</title>
<path fill="none" stroke="midnightblue" d="M1342.46,-289.78C1167.82,-290.82 710.45,-288.65 332,-244 182.68,-226.38 0,-329.36 0,-179 0,-179 0,-179 0,-121 0,-86.81 16.6,-49.76 27.86,-28.57"/>
<polygon fill="midnightblue" stroke="midnightblue" points="30.95,-30.22 32.72,-19.77 24.82,-26.83 30.95,-30.22"/>
</g>
<!-- Node9&#45;&gt;Node5 -->
<g id="edge11" class="edge">
<title>Node9&#45;&gt;Node5</title>
<path fill="none" stroke="midnightblue" d="M1669.56,-112.46C1718.82,-105.06 1779.79,-92.86 1799,-76 1812.4,-64.24 1818.33,-44.31 1820.95,-29.61"/>
<polygon fill="midnightblue" stroke="midnightblue" points="1824.42,-30.01 1822.37,-19.61 1817.49,-29.02 1824.42,-30.01"/>
</g>
<!-- Node9&#45;&gt;Node8 -->
<g id="edge12" class="edge">
<title>Node9&#45;&gt;Node8</title>
<path fill="none" stroke="midnightblue" d="M1499.91,-118.19C1420.15,-113.87 1306.77,-103.03 1211,-76 1190.72,-70.27 1188.21,-61.97 1168,-56 1060.41,-24.22 1025.86,-42.17 911.87,-19.92"/>
<polygon fill="midnightblue" stroke="midnightblue" points="912.56,-16.49 902.07,-17.94 911.18,-23.35 912.56,-16.49"/>
</g>
<!-- Node10 -->
<g id="node10" class="node">
<title>Node10</title>
<g id="a_node10"><a xlink:title=" ">
<polygon fill="none" stroke="#bfbfbf" points="1720,-0.5 1720,-19.5 1768,-19.5 1768,-0.5 1720,-0.5"/>
<text text-anchor="middle" x="1744" y="-7.5" font-family="serif" font-size="10.00">cmath</text>
</a>
</g>
</g>
<!-- Node9&#45;&gt;Node10 -->
<g id="edge9" class="edge">
<title>Node9&#45;&gt;Node10</title>
<path fill="none" stroke="midnightblue" d="M1672.05,-112.48C1716.97,-105.46 1769.11,-93.75 1783,-76 1795.5,-60.03 1778.81,-39.73 1763.55,-26.1"/>
<polygon fill="midnightblue" stroke="midnightblue" points="1765.77,-23.39 1755.86,-19.64 1761.27,-28.75 1765.77,-23.39"/>
</g>
<!-- Node11 -->
<g id="node11" class="node">
<title>Node11</title>
<g id="a_node11"><a xlink:title=" ">
<polygon fill="none" stroke="#bfbfbf" points="597,-0.5 597,-19.5 665,-19.5 665,-0.5 597,-0.5"/>
<text text-anchor="middle" x="631" y="-7.5" font-family="serif" font-size="10.00">functional</text>
</a>
</g>
</g>
<!-- Node9&#45;&gt;Node11 -->
<g id="edge10" class="edge">
<title>Node9&#45;&gt;Node11</title>
<path fill="none" stroke="midnightblue" d="M1499.6,-119.17C1262.36,-114.47 688.61,-100.63 655,-76 640.62,-65.46 634.84,-45.34 632.53,-30.26"/>
<polygon fill="midnightblue" stroke="midnightblue" points="635.97,-29.49 631.35,-19.96 629.01,-30.29 635.97,-29.49"/>
</g>
<!-- Node9&#45;&gt;Node12 -->
<g id="edge13" class="edge">
<title>Node9&#45;&gt;Node12</title>
<path fill="none" stroke="midnightblue" d="M1588.79,-112.32C1577.22,-104.11 1559.62,-91.6 1545.84,-81.81"/>
<polygon fill="midnightblue" stroke="midnightblue" points="1547.61,-78.77 1537.43,-75.83 1543.56,-84.48 1547.61,-78.77"/>
</g>
<!-- Node12&#45;&gt;Node3 -->
<g id="edge20" class="edge">
<title>Node12&#45;&gt;Node3</title>
<path fill="none" stroke="midnightblue" d="M1504.56,-56.44C1483.33,-47.56 1449.9,-33.56 1425.75,-23.45"/>
<polygon fill="midnightblue" stroke="midnightblue" points="1426.92,-20.15 1416.34,-19.52 1424.22,-26.61 1426.92,-20.15"/>
</g>
<!-- Node12&#45;&gt;Node4 -->
<g id="edge21" class="edge">
<title>Node12&#45;&gt;Node4</title>
<path fill="none" stroke="midnightblue" d="M1602.54,-56.49C1666.88,-48.95 1760.93,-36.78 1851.69,-20.1"/>
<polygon fill="midnightblue" stroke="midnightblue" points="1852.41,-23.53 1861.6,-18.26 1851.13,-16.64 1852.41,-23.53"/>
</g>
<!-- Node12&#45;&gt;Node5 -->
<g id="edge23" class="edge">
<title>Node12&#45;&gt;Node5</title>
<path fill="none" stroke="midnightblue" d="M1574.3,-56.44C1625.13,-47.56 1706.67,-33.16 1777,-20 1781.94,-19.08 1787.17,-18.07 1792.27,-17.09"/>
<polygon fill="midnightblue" stroke="midnightblue" points="1793.26,-20.46 1802.41,-15.1 1791.92,-13.59 1793.26,-20.46"/>
</g>
<!-- Node12&#45;&gt;Node7 -->
<g id="edge24" class="edge">
<title>Node12&#45;&gt;Node7</title>
<path fill="none" stroke="midnightblue" d="M1454.17,-56.44C1356.56,-44.65 1184.54,-23.87 1111.89,-15.09"/>
<polygon fill="midnightblue" stroke="midnightblue" points="1112.26,-11.61 1101.91,-13.89 1111.42,-18.56 1112.26,-11.61"/>
</g>
<!-- Node12&#45;&gt;Node8 -->
<g id="edge26" class="edge">
<title>Node12&#45;&gt;Node8</title>
<path fill="none" stroke="midnightblue" d="M1424.35,-58.69C1271.01,-48.93 989.34,-30.34 912.24,-19.7"/>
<polygon fill="midnightblue" stroke="midnightblue" points="912.45,-16.19 902.03,-18.13 911.38,-23.11 912.45,-16.19"/>
</g>
<!-- Node12&#45;&gt;Node10 -->
<g id="edge15" class="edge">
<title>Node12&#45;&gt;Node10</title>
<path fill="none" stroke="midnightblue" d="M1559.7,-56.44C1600.95,-46.27 1669.33,-29.41 1710.19,-19.34"/>
<polygon fill="midnightblue" stroke="midnightblue" points="1711.08,-22.72 1719.95,-16.93 1709.4,-15.93 1711.08,-22.72"/>
</g>
<!-- Node12&#45;&gt;Node11 -->
<g id="edge17" class="edge">
<title>Node12&#45;&gt;Node11</title>
<path fill="none" stroke="midnightblue" d="M1424.3,-58.76C1408.47,-57.81 1392.29,-56.86 1377,-56 1069.52,-38.65 991.16,-53.37 685,-20 681.79,-19.65 678.48,-19.23 675.15,-18.78"/>
<polygon fill="midnightblue" stroke="midnightblue" points="675.6,-15.31 665.2,-17.3 674.58,-22.23 675.6,-15.31"/>
</g>
<!-- Node13 -->
<g id="node13" class="node">
<title>Node13</title>
<g id="a_node13"><a xlink:title=" ">
<polygon fill="none" stroke="#bfbfbf" points="1503.5,-0.5 1503.5,-19.5 1538.5,-19.5 1538.5,-0.5 1503.5,-0.5"/>
<text text-anchor="middle" x="1521" y="-7.5" font-family="serif" font-size="10.00">any</text>
</a>
</g>
</g>
<!-- Node12&#45;&gt;Node13 -->
<g id="edge14" class="edge">
<title>Node12&#45;&gt;Node13</title>
<path fill="none" stroke="midnightblue" d="M1524.34,-56.08C1523.82,-49.01 1523.06,-38.86 1522.41,-29.99"/>
<polygon fill="midnightblue" stroke="midnightblue" points="1525.88,-29.47 1521.65,-19.75 1518.9,-29.98 1525.88,-29.47"/>
</g>
<!-- Node14 -->
<g id="node14" class="node">
<title>Node14</title>
<g id="a_node14"><a xlink:title=" ">
<polygon fill="none" stroke="#bfbfbf" points="1557,-0.5 1557,-19.5 1619,-19.5 1619,-0.5 1557,-0.5"/>
<text text-anchor="middle" x="1588" y="-7.5" font-family="serif" font-size="10.00">concepts</text>
</a>
</g>
</g>
<!-- Node12&#45;&gt;Node14 -->
<g id="edge16" class="edge">
<title>Node12&#45;&gt;Node14</title>
<path fill="none" stroke="midnightblue" d="M1535.12,-56.32C1544.53,-48.26 1558.74,-36.08 1570.07,-26.37"/>
<polygon fill="midnightblue" stroke="midnightblue" points="1572.38,-29 1577.69,-19.83 1567.82,-23.68 1572.38,-29"/>
</g>
<!-- Node15 -->
<g id="node15" class="node">
<title>Node15</title>
<g id="a_node15"><a xlink:title=" ">
<polygon fill="none" stroke="#bfbfbf" points="992,-0.5 992,-19.5 1036,-19.5 1036,-0.5 992,-0.5"/>
<text text-anchor="middle" x="1014" y="-7.5" font-family="serif" font-size="10.00">limits</text>
</a>
</g>
</g>
<!-- Node12&#45;&gt;Node15 -->
<g id="edge18" class="edge">
<title>Node12&#45;&gt;Node15</title>
<path fill="none" stroke="midnightblue" d="M1424.38,-57.82C1310.33,-49.29 1130.38,-34.6 1046.24,-19.85"/>
<polygon fill="midnightblue" stroke="midnightblue" points="1046.7,-16.37 1036.23,-18 1045.43,-23.25 1046.7,-16.37"/>
</g>
<!-- Node16 -->
<g id="node16" class="node">
<title>Node16</title>
<g id="a_node16"><a xlink:title=" ">
<polygon fill="none" stroke="#bfbfbf" points="1446.5,-0.5 1446.5,-19.5 1485.5,-19.5 1485.5,-0.5 1446.5,-0.5"/>
<text text-anchor="middle" x="1466" y="-7.5" font-family="serif" font-size="10.00">map</text>
</a>
</g>
</g>
<!-- Node12&#45;&gt;Node16 -->
<g id="edge19" class="edge">
<title>Node12&#45;&gt;Node16</title>
<path fill="none" stroke="midnightblue" d="M1515.52,-56.32C1506.8,-48.34 1493.66,-36.31 1483.1,-26.65"/>
<polygon fill="midnightblue" stroke="midnightblue" points="1485.39,-24 1475.65,-19.83 1480.67,-29.17 1485.39,-24"/>
</g>
<!-- Node17 -->
<g id="node17" class="node">
<title>Node17</title>
<g id="a_node17"><a xlink:title=" ">
<polygon fill="none" stroke="#bfbfbf" points="1637,-0.5 1637,-19.5 1669,-19.5 1669,-0.5 1637,-0.5"/>
<text text-anchor="middle" x="1653" y="-7.5" font-family="serif" font-size="10.00">set</text>
</a>
</g>
</g>
<!-- Node12&#45;&gt;Node17 -->
<g id="edge22" class="edge">
<title>Node12&#45;&gt;Node17</title>
<path fill="none" stroke="midnightblue" d="M1545.28,-56.44C1567.59,-47.03 1603.46,-31.9 1627.62,-21.71"/>
<polygon fill="midnightblue" stroke="midnightblue" points="1629.01,-24.92 1636.87,-17.81 1626.29,-18.47 1629.01,-24.92"/>
</g>
<!-- Node18 -->
<g id="node18" class="node">
<title>Node18</title>
<g id="a_node18"><a xlink:title=" ">
<polygon fill="none" stroke="#bfbfbf" points="778,-0.5 778,-19.5 824,-19.5 824,-0.5 778,-0.5"/>
<text text-anchor="middle" x="801" y="-7.5" font-family="serif" font-size="10.00">utility</text>
</a>
</g>
</g>
<!-- Node12&#45;&gt;Node18 -->
<g id="edge25" class="edge">
<title>Node12&#45;&gt;Node18</title>
<path fill="none" stroke="midnightblue" d="M1424.38,-58.7C1242.05,-47.24 873.16,-23.79 845,-20 841.49,-19.53 837.85,-18.94 834.22,-18.29"/>
<polygon fill="midnightblue" stroke="midnightblue" points="834.67,-14.82 824.19,-16.36 833.35,-21.69 834.67,-14.82"/>
</g>
<!-- Node19&#45;&gt;Node4 -->
<g id="edge30" class="edge">
<title>Node19&#45;&gt;Node4</title>
<path fill="none" stroke="midnightblue" d="M1737.84,-56.44C1768.86,-47.24 1818.33,-32.56 1852.62,-22.39"/>
<polygon fill="midnightblue" stroke="midnightblue" points="1853.71,-25.72 1862.3,-19.52 1851.71,-19.01 1853.71,-25.72"/>
</g>
<!-- Node19&#45;&gt;Node7 -->
<g id="edge31" class="edge">
<title>Node19&#45;&gt;Node7</title>
<path fill="none" stroke="midnightblue" d="M1643.65,-56.91C1640.73,-56.59 1637.83,-56.29 1635,-56 1436.94,-35.96 1198.54,-19.14 1111.71,-13.25"/>
<polygon fill="midnightblue" stroke="midnightblue" points="1111.86,-9.75 1101.65,-12.57 1111.39,-16.73 1111.86,-9.75"/>
</g>
<!-- Node19&#45;&gt;Node16 -->
<g id="edge29" class="edge">
<title>Node19&#45;&gt;Node16</title>
<path fill="none" stroke="midnightblue" d="M1661.95,-56.42C1620.52,-48.57 1558.39,-36.09 1495.3,-19.88"/>
<polygon fill="midnightblue" stroke="midnightblue" points="1496.14,-16.48 1485.58,-17.35 1494.38,-23.25 1496.14,-16.48"/>
</g>
<!-- Node20&#45;&gt;Node7 -->
<g id="edge33" class="edge">
<title>Node20&#45;&gt;Node7</title>
<path fill="none" stroke="midnightblue" d="M1176,-224.3C1160.9,-191.42 1107.13,-74.39 1086.31,-29.09"/>
<polygon fill="midnightblue" stroke="midnightblue" points="1089.44,-27.51 1082.08,-19.88 1083.08,-30.43 1089.44,-27.51"/>
</g>
<!-- Node21 -->
<g id="node21" class="node">
<title>Node21</title>
<g id="a_node21"><a xlink:href="Utils_8hpp.html" target="_top" xlink:title="List of all Utils files.">
<polygon fill="none" stroke="black" points="775.5,-168.5 775.5,-187.5 864.5,-187.5 864.5,-168.5 775.5,-168.5"/>
<text text-anchor="middle" x="820" y="-175.5" font-family="serif" font-size="10.00">Utils/Utils.hpp</text>
</a>
</g>
</g>
<!-- Node20&#45;&gt;Node21 -->
<g id="edge34" class="edge">
<title>Node20&#45;&gt;Node21</title>
<path fill="none" stroke="midnightblue" d="M1122.96,-224.44C1054.78,-214.22 941.54,-197.23 874.51,-187.18"/>
<polygon fill="midnightblue" stroke="midnightblue" points="874.97,-183.71 864.56,-185.68 873.93,-190.63 874.97,-183.71"/>
</g>
<!-- Node22 -->
<g id="node22" class="node">
<title>Node22</title>
<g id="a_node22"><a xlink:href="UtilsForData_8hpp.html" target="_top" xlink:title="Usefull methods for data.">
<polygon fill="none" stroke="black" points="400.5,-56.5 400.5,-75.5 531.5,-75.5 531.5,-56.5 400.5,-56.5"/>
<text text-anchor="middle" x="466" y="-63.5" font-family="serif" font-size="10.00">Utils/UtilsForData.hpp</text>
</a>
</g>
</g>
<!-- Node21&#45;&gt;Node22 -->
<g id="edge35" class="edge">
<title>Node21&#45;&gt;Node22</title>
<path fill="none" stroke="midnightblue" d="M792.52,-168.46C729.65,-148.93 575.3,-100.96 503.66,-78.7"/>
<polygon fill="midnightblue" stroke="midnightblue" points="504.3,-75.24 493.71,-75.61 502.22,-81.92 504.3,-75.24"/>
</g>
<!-- Node30 -->
<g id="node30" class="node">
<title>Node30</title>
<g id="a_node30"><a xlink:href="UtilsForDebug_8hpp.html" target="_top" xlink:title="Usefull methods for debug.">
<polygon fill="none" stroke="black" points="283.5,-112.5 283.5,-131.5 424.5,-131.5 424.5,-112.5 283.5,-112.5"/>
<text text-anchor="middle" x="354" y="-119.5" font-family="serif" font-size="10.00">Utils/UtilsForDebug.hpp</text>
</a>
</g>
</g>
<!-- Node21&#45;&gt;Node30 -->
<g id="edge49" class="edge">
<title>Node21&#45;&gt;Node30</title>
<path fill="none" stroke="midnightblue" d="M775.32,-171.82C696.88,-162.73 533.4,-143.79 434.73,-132.36"/>
<polygon fill="midnightblue" stroke="midnightblue" points="434.84,-128.84 424.51,-131.17 434.04,-135.8 434.84,-128.84"/>
</g>
<!-- Node33 -->
<g id="node33" class="node">
<title>Node33</title>
<g id="a_node33"><a xlink:href="UtilsForOptions_8hpp.html" target="_top" xlink:title="Usefull methods for Options.">
<polygon fill="none" stroke="black" points="664,-56.5 664,-75.5 810,-75.5 810,-56.5 664,-56.5"/>
<text text-anchor="middle" x="737" y="-63.5" font-family="serif" font-size="10.00">Utils/UtilsForOptions.hpp</text>
</a>
</g>
</g>
<!-- Node21&#45;&gt;Node33 -->
<g id="edge60" class="edge">
<title>Node21&#45;&gt;Node33</title>
<path fill="none" stroke="midnightblue" d="M813.49,-168.37C799.73,-150.14 767.5,-107.43 749.58,-83.68"/>
<polygon fill="midnightblue" stroke="midnightblue" points="752.3,-81.47 743.48,-75.59 746.71,-85.68 752.3,-81.47"/>
</g>
<!-- Node35 -->
<g id="node35" class="node">
<title>Node35</title>
<g id="a_node35"><a xlink:href="UtilsForPostProcessing_8hpp.html" target="_top" xlink:title="Usefull methods for post&#45;processing.">
<polygon fill="none" stroke="black" points="828.5,-56.5 828.5,-75.5 1011.5,-75.5 1011.5,-56.5 828.5,-56.5"/>
<text text-anchor="middle" x="920" y="-63.5" font-family="serif" font-size="10.00">Utils/UtilsForPostProcessing.hpp</text>
</a>
</g>
</g>
<!-- Node21&#45;&gt;Node35 -->
<g id="edge70" class="edge">
<title>Node21&#45;&gt;Node35</title>
<path fill="none" stroke="midnightblue" d="M827.85,-168.37C844.57,-149.97 883.94,-106.67 905.41,-83.05"/>
<polygon fill="midnightblue" stroke="midnightblue" points="908.05,-85.35 912.19,-75.59 902.87,-80.64 908.05,-85.35"/>
</g>
<!-- Node36 -->
<g id="node36" class="node">
<title>Node36</title>
<g id="a_node36"><a xlink:href="UtilsForVariants_8hpp.html" target="_top" xlink:title="manage std::Variants">
<polygon fill="none" stroke="black" points="1220,-56.5 1220,-75.5 1368,-75.5 1368,-56.5 1220,-56.5"/>
<text text-anchor="middle" x="1294" y="-63.5" font-family="serif" font-size="10.00">Utils/UtilsForVariants.hpp</text>
</a>
</g>
</g>
<!-- Node21&#45;&gt;Node36 -->
<g id="edge77" class="edge">
<title>Node21&#45;&gt;Node36</title>
<path fill="none" stroke="midnightblue" d="M856.8,-168.46C942.11,-148.66 1153.27,-99.66 1247.41,-77.81"/>
<polygon fill="midnightblue" stroke="midnightblue" points="1248.27,-81.2 1257.22,-75.53 1246.69,-74.39 1248.27,-81.2"/>
</g>
<!-- Node22&#45;&gt;Node2 -->
<g id="edge42" class="edge">
<title>Node22&#45;&gt;Node2</title>
<path fill="none" stroke="midnightblue" d="M469.47,-56.08C472.31,-48.77 476.43,-38.18 479.96,-29.1"/>
<polygon fill="midnightblue" stroke="midnightblue" points="483.23,-30.34 483.6,-19.75 476.71,-27.8 483.23,-30.34"/>
</g>
<!-- Node22&#45;&gt;Node7 -->
<g id="edge44" class="edge">
<title>Node22&#45;&gt;Node7</title>
<path fill="none" stroke="midnightblue" d="M531.96,-61.44C658.22,-54.39 930.86,-37.88 1044.19,-19.73"/>
<polygon fill="midnightblue" stroke="midnightblue" points="1045.05,-23.14 1054.33,-18.03 1043.89,-16.24 1045.05,-23.14"/>
</g>
<!-- Node22&#45;&gt;Node8 -->
<g id="edge47" class="edge">
<title>Node22&#45;&gt;Node8</title>
<path fill="none" stroke="midnightblue" d="M531.51,-58.47C605.09,-50.79 727.95,-36.92 833,-20 836.49,-19.44 840.12,-18.8 843.74,-18.13"/>
<polygon fill="midnightblue" stroke="midnightblue" points="844.62,-21.53 853.77,-16.19 843.29,-14.65 844.62,-21.53"/>
</g>
<!-- Node22&#45;&gt;Node11 -->
<g id="edge41" class="edge">
<title>Node22&#45;&gt;Node11</title>
<path fill="none" stroke="midnightblue" d="M492.14,-56.44C520.02,-47.32 564.35,-32.81 595.4,-22.65"/>
<polygon fill="midnightblue" stroke="midnightblue" points="596.56,-25.95 604.98,-19.52 594.38,-19.3 596.56,-25.95"/>
</g>
<!-- Node22&#45;&gt;Node16 -->
<g id="edge43" class="edge">
<title>Node22&#45;&gt;Node16</title>
<path fill="none" stroke="midnightblue" d="M531.6,-61.85C567.96,-60.12 613.98,-57.92 655,-56 1001.21,-39.76 1091.84,-75.28 1434,-20 1434.75,-19.88 1435.5,-19.75 1436.26,-19.61"/>
<polygon fill="midnightblue" stroke="midnightblue" points="1437.22,-22.98 1446.19,-17.33 1435.66,-16.15 1437.22,-22.98"/>
</g>
<!-- Node22&#45;&gt;Node18 -->
<g id="edge46" class="edge">
<title>Node22&#45;&gt;Node18</title>
<path fill="none" stroke="midnightblue" d="M531.74,-57.68C591.12,-50.51 681.03,-38.28 767.67,-20.06"/>
<polygon fill="midnightblue" stroke="midnightblue" points="768.62,-23.44 777.67,-17.93 767.16,-16.59 768.62,-23.44"/>
</g>
<!-- Node23 -->
<g id="node23" class="node">
<title>Node23</title>
<g id="a_node23"><a xlink:title=" ">
<polygon fill="none" stroke="#bfbfbf" points="212.5,-0.5 212.5,-19.5 271.5,-19.5 271.5,-0.5 212.5,-0.5"/>
<text text-anchor="middle" x="242" y="-7.5" font-family="serif" font-size="10.00">unistd.h</text>
</a>
</g>
</g>
<!-- Node22&#45;&gt;Node23 -->
<g id="edge36" class="edge">
<title>Node22&#45;&gt;Node23</title>
<path fill="none" stroke="midnightblue" d="M430.51,-56.44C389.93,-46.66 323.71,-30.7 281.52,-20.53"/>
<polygon fill="midnightblue" stroke="midnightblue" points="282.15,-17.08 271.6,-18.14 280.51,-23.88 282.15,-17.08"/>
</g>
<!-- Node24 -->
<g id="node24" class="node">
<title>Node24</title>
<g id="a_node24"><a xlink:title=" ">
<polygon fill="none" stroke="#bfbfbf" points="694,-0.5 694,-19.5 760,-19.5 760,-0.5 694,-0.5"/>
<text text-anchor="middle" x="727" y="-7.5" font-family="serif" font-size="10.00">algorithm</text>
</a>
</g>
</g>
<!-- Node22&#45;&gt;Node24 -->
<g id="edge37" class="edge">
<title>Node22&#45;&gt;Node24</title>
<path fill="none" stroke="midnightblue" d="M507.36,-56.44C555.53,-46.48 634.76,-30.09 683.73,-19.95"/>
<polygon fill="midnightblue" stroke="midnightblue" points="684.62,-23.34 693.7,-17.89 683.2,-16.49 684.62,-23.34"/>
</g>
<!-- Node25 -->
<g id="node25" class="node">
<title>Node25</title>
<g id="a_node25"><a xlink:title=" ">
<polygon fill="none" stroke="#bfbfbf" points="388,-0.5 388,-19.5 438,-19.5 438,-0.5 388,-0.5"/>
<text text-anchor="middle" x="413" y="-7.5" font-family="serif" font-size="10.00">cctype</text>
</a>
</g>
</g>
<!-- Node22&#45;&gt;Node25 -->
<g id="edge38" class="edge">
<title>Node22&#45;&gt;Node25</title>
<path fill="none" stroke="midnightblue" d="M457.25,-56.08C449.53,-48.22 438.1,-36.57 428.78,-27.08"/>
<polygon fill="midnightblue" stroke="midnightblue" points="431.09,-24.44 421.59,-19.75 426.1,-29.34 431.09,-24.44"/>
</g>
<!-- Node26 -->
<g id="node26" class="node">
<title>Node26</title>
<g id="a_node26"><a xlink:title=" ">
<polygon fill="none" stroke="#bfbfbf" points="123.5,-0.5 123.5,-19.5 170.5,-19.5 170.5,-0.5 123.5,-0.5"/>
<text text-anchor="middle" x="147" y="-7.5" font-family="serif" font-size="10.00">cstdio</text>
</a>
</g>
</g>
<!-- Node22&#45;&gt;Node26 -->
<g id="edge39" class="edge">
<title>Node22&#45;&gt;Node26</title>
<path fill="none" stroke="midnightblue" d="M415.45,-56.44C349.77,-45.32 236.85,-26.21 180.72,-16.71"/>
<polygon fill="midnightblue" stroke="midnightblue" points="181.04,-13.21 170.6,-15 179.88,-20.12 181.04,-13.21"/>
</g>
<!-- Node27 -->
<g id="node27" class="node">
<title>Node27</title>
<g id="a_node27"><a xlink:title=" ">
<polygon fill="none" stroke="#bfbfbf" points="302,-0.5 302,-19.5 370,-19.5 370,-0.5 302,-0.5"/>
<text text-anchor="middle" x="336" y="-7.5" font-family="serif" font-size="10.00">filesystem</text>
</a>
</g>
</g>
<!-- Node22&#45;&gt;Node27 -->
<g id="edge40" class="edge">
<title>Node22&#45;&gt;Node27</title>
<path fill="none" stroke="midnightblue" d="M445.4,-56.44C424.01,-47.56 390.32,-33.56 365.98,-23.45"/>
<polygon fill="midnightblue" stroke="midnightblue" points="367.08,-20.12 356.5,-19.52 364.39,-26.58 367.08,-20.12"/>
</g>
<!-- Node28 -->
<g id="node28" class="node">
<title>Node28</title>
<g id="a_node28"><a xlink:title=" ">
<polygon fill="none" stroke="#bfbfbf" points="535.5,-0.5 535.5,-19.5 578.5,-19.5 578.5,-0.5 535.5,-0.5"/>
<text text-anchor="middle" x="557" y="-7.5" font-family="serif" font-size="10.00">tuple</text>
</a>
</g>
</g>
<!-- Node22&#45;&gt;Node28 -->
<g id="edge45" class="edge">
<title>Node22&#45;&gt;Node28</title>
<path fill="none" stroke="midnightblue" d="M480.62,-56.32C494.95,-47.82 517.01,-34.73 533.75,-24.8"/>
<polygon fill="midnightblue" stroke="midnightblue" points="535.6,-27.77 542.42,-19.65 532.03,-21.75 535.6,-27.77"/>
</g>
<!-- Node22&#45;&gt;Node29 -->
<g id="edge48" class="edge">
<title>Node22&#45;&gt;Node29</title>
<path fill="none" stroke="midnightblue" d="M400.06,-56.68C312.05,-45.58 158.5,-26.2 82.8,-16.65"/>
<polygon fill="midnightblue" stroke="midnightblue" points="83.01,-13.15 72.65,-15.37 82.13,-20.1 83.01,-13.15"/>
</g>
<!-- Node30&#45;&gt;Node2 -->
<g id="edge55" class="edge">
<title>Node30&#45;&gt;Node2</title>
<path fill="none" stroke="midnightblue" d="M283.64,-112.49C234.64,-103.73 182.47,-86.85 209,-56 242.11,-17.51 379.44,-28.55 446.36,-19.71"/>
<polygon fill="midnightblue" stroke="midnightblue" points="447.14,-23.13 456.47,-18.1 446.05,-16.21 447.14,-23.13"/>
</g>
<!-- Node30&#45;&gt;Node7 -->
<g id="edge56" class="edge">
<title>Node30&#45;&gt;Node7</title>
<path fill="none" stroke="midnightblue" d="M424.57,-119.24C585.06,-114.8 967.56,-101.65 1020,-76 1041.15,-65.66 1058.03,-43.85 1068.01,-28.35"/>
<polygon fill="midnightblue" stroke="midnightblue" points="1071.08,-30.04 1073.3,-19.68 1065.11,-26.39 1071.08,-30.04"/>
</g>
<!-- Node30&#45;&gt;Node11 -->
<g id="edge54" class="edge">
<title>Node30&#45;&gt;Node11</title>
<path fill="none" stroke="midnightblue" d="M414.15,-112.47C451.55,-105.71 499.96,-94.3 540,-76 568.22,-63.1 596.68,-40.97 614.07,-26.16"/>
<polygon fill="midnightblue" stroke="midnightblue" points="616.42,-28.76 621.68,-19.55 611.83,-23.47 616.42,-28.76"/>
</g>
<!-- Node30&#45;&gt;Node18 -->
<g id="edge57" class="edge">
<title>Node30&#45;&gt;Node18</title>
<path fill="none" stroke="midnightblue" d="M400.15,-112.49C444.43,-104.08 513.07,-90.43 572,-76 642.39,-58.77 723.78,-34.65 768.09,-21.16"/>
<polygon fill="midnightblue" stroke="midnightblue" points="769.2,-24.48 777.74,-18.21 767.16,-17.79 769.2,-24.48"/>
</g>
<!-- Node30&#45;&gt;Node22 -->
<g id="edge58" class="edge">
<title>Node30&#45;&gt;Node22</title>
<path fill="none" stroke="midnightblue" d="M371.99,-112.32C390.04,-103.62 418.05,-90.12 438.8,-80.11"/>
<polygon fill="midnightblue" stroke="midnightblue" points="440.56,-83.15 448.05,-75.65 437.52,-76.84 440.56,-83.15"/>
</g>
<!-- Node30&#45;&gt;Node23 -->
<g id="edge51" class="edge">
<title>Node30&#45;&gt;Node23</title>
<path fill="none" stroke="midnightblue" d="M285.92,-112.5C241.66,-105.41 189.71,-93.6 176,-76 160.65,-56.28 188.24,-36.56 212.31,-24.09"/>
<polygon fill="midnightblue" stroke="midnightblue" points="214.16,-27.08 221.6,-19.53 211.08,-20.8 214.16,-27.08"/>
</g>
<!-- Node30&#45;&gt;Node26 -->
<g id="edge52" class="edge">
<title>Node30&#45;&gt;Node26</title>
<path fill="none" stroke="midnightblue" d="M290.81,-112.43C244.18,-104.89 185.84,-92.55 168,-76 155.24,-64.16 150.21,-44.53 148.24,-29.94"/>
<polygon fill="midnightblue" stroke="midnightblue" points="151.68,-29.17 147.22,-19.56 144.71,-29.85 151.68,-29.17"/>
</g>
<!-- Node30&#45;&gt;Node29 -->
<g id="edge59" class="edge">
<title>Node30&#45;&gt;Node29</title>
<path fill="none" stroke="midnightblue" d="M293.08,-112.46C252,-105.52 197.11,-93.89 151,-76 116.66,-62.68 80.31,-40.02 58.39,-25.29"/>
<polygon fill="midnightblue" stroke="midnightblue" points="60.15,-22.26 49.92,-19.51 56.21,-28.04 60.15,-22.26"/>
</g>
<!-- Node31 -->
<g id="node31" class="node">
<title>Node31</title>
<g id="a_node31"><a xlink:title=" ">
<polygon fill="none" stroke="#bfbfbf" points="218,-56.5 218,-75.5 308,-75.5 308,-56.5 218,-56.5"/>
<text text-anchor="middle" x="263" y="-63.5" font-family="serif" font-size="10.00">sys/resource.h</text>
</a>
</g>
</g>
<!-- Node30&#45;&gt;Node31 -->
<g id="edge50" class="edge">
<title>Node30&#45;&gt;Node31</title>
<path fill="none" stroke="midnightblue" d="M339.38,-112.32C325.05,-103.82 302.99,-90.73 286.25,-80.8"/>
<polygon fill="midnightblue" stroke="midnightblue" points="287.97,-77.75 277.58,-75.65 284.4,-83.77 287.97,-77.75"/>
</g>
<!-- Node32 -->
<g id="node32" class="node">
<title>Node32</title>
<g id="a_node32"><a xlink:title=" ">
<polygon fill="none" stroke="#bfbfbf" points="326,-56.5 326,-75.5 382,-75.5 382,-56.5 326,-56.5"/>
<text text-anchor="middle" x="354" y="-63.5" font-family="serif" font-size="10.00">fstream</text>
</a>
</g>
</g>
<!-- Node30&#45;&gt;Node32 -->
<g id="edge53" class="edge">
<title>Node30&#45;&gt;Node32</title>
<path fill="none" stroke="midnightblue" d="M354,-112.08C354,-105.01 354,-94.86 354,-85.99"/>
<polygon fill="midnightblue" stroke="midnightblue" points="357.5,-85.75 354,-75.75 350.5,-85.75 357.5,-85.75"/>
</g>
<!-- Node33&#45;&gt;Node2 -->
<g id="edge63" class="edge">
<title>Node33&#45;&gt;Node2</title>
<path fill="none" stroke="midnightblue" d="M696.11,-56.49C655.65,-48.02 591.68,-34.51 527.52,-20.31"/>
<polygon fill="midnightblue" stroke="midnightblue" points="528.17,-16.87 517.65,-18.12 526.65,-23.71 528.17,-16.87"/>
</g>
<!-- Node33&#45;&gt;Node7 -->
<g id="edge65" class="edge">
<title>Node33&#45;&gt;Node7</title>
<path fill="none" stroke="midnightblue" d="M810.25,-56.83C870.6,-49.52 958.56,-37.54 1044.38,-19.9"/>
<polygon fill="midnightblue" stroke="midnightblue" points="1045.21,-23.3 1054.29,-17.84 1043.79,-16.45 1045.21,-23.3"/>
</g>
<!-- Node33&#45;&gt;Node8 -->
<g id="edge69" class="edge">
<title>Node33&#45;&gt;Node8</title>
<path fill="none" stroke="midnightblue" d="M759.34,-56.44C782.75,-47.48 819.74,-33.31 846.19,-23.18"/>
<polygon fill="midnightblue" stroke="midnightblue" points="847.68,-26.36 855.76,-19.52 845.17,-19.82 847.68,-26.36"/>
</g>
<!-- Node33&#45;&gt;Node11 -->
<g id="edge62" class="edge">
<title>Node33&#45;&gt;Node11</title>
<path fill="none" stroke="midnightblue" d="M719.97,-56.32C702.97,-47.66 676.62,-34.24 657.01,-24.25"/>
<polygon fill="midnightblue" stroke="midnightblue" points="658.49,-21.08 647.99,-19.65 655.31,-27.31 658.49,-21.08"/>
</g>
<!-- Node33&#45;&gt;Node15 -->
<g id="edge64" class="edge">
<title>Node33&#45;&gt;Node15</title>
<path fill="none" stroke="midnightblue" d="M791.79,-56.43C839.4,-48.64 910.39,-36.23 981.64,-19.89"/>
<polygon fill="midnightblue" stroke="midnightblue" points="982.74,-23.23 991.69,-17.56 981.16,-16.41 982.74,-23.23"/>
</g>
<!-- Node33&#45;&gt;Node18 -->
<g id="edge67" class="edge">
<title>Node33&#45;&gt;Node18</title>
<path fill="none" stroke="midnightblue" d="M747.28,-56.32C756.84,-48.26 771.28,-36.08 782.78,-26.37"/>
<polygon fill="midnightblue" stroke="midnightblue" points="785.14,-28.96 790.53,-19.83 780.63,-23.61 785.14,-28.96"/>
</g>
<!-- Node33&#45;&gt;Node24 -->
<g id="edge61" class="edge">
<title>Node33&#45;&gt;Node24</title>
<path fill="none" stroke="midnightblue" d="M735.35,-56.08C734.02,-48.93 732.12,-38.64 730.46,-29.69"/>
<polygon fill="midnightblue" stroke="midnightblue" points="733.88,-28.95 728.62,-19.75 727,-30.22 733.88,-28.95"/>
</g>
<!-- Node33&#45;&gt;Node28 -->
<g id="edge66" class="edge">
<title>Node33&#45;&gt;Node28</title>
<path fill="none" stroke="midnightblue" d="M708.48,-56.44C675.78,-46.63 622.33,-30.6 588.45,-20.44"/>
<polygon fill="midnightblue" stroke="midnightblue" points="589.19,-17 578.61,-17.48 587.18,-23.71 589.19,-17"/>
</g>
<!-- Node34 -->
<g id="node34" class="node">
<title>Node34</title>
<g id="a_node34"><a xlink:title=" ">
<polygon fill="none" stroke="#bfbfbf" points="920.5,-0.5 920.5,-19.5 973.5,-19.5 973.5,-0.5 920.5,-0.5"/>
<text text-anchor="middle" x="947" y="-7.5" font-family="serif" font-size="10.00">variant</text>
</a>
</g>
</g>
<!-- Node33&#45;&gt;Node34 -->
<g id="edge68" class="edge">
<title>Node33&#45;&gt;Node34</title>
<path fill="none" stroke="midnightblue" d="M770.28,-56.44C808.47,-46.62 870.92,-30.56 910.44,-20.4"/>
<polygon fill="midnightblue" stroke="midnightblue" points="911.4,-23.77 920.21,-17.89 909.65,-16.99 911.4,-23.77"/>
</g>
<!-- Node35&#45;&gt;Node2 -->
<g id="edge72" class="edge">
<title>Node35&#45;&gt;Node2</title>
<path fill="none" stroke="midnightblue" d="M835.58,-56.49C742.8,-46.95 598.54,-31.5 527.87,-20.12"/>
<polygon fill="midnightblue" stroke="midnightblue" points="528.03,-16.6 517.59,-18.4 526.88,-23.5 528.03,-16.6"/>
</g>
<!-- Node35&#45;&gt;Node7 -->
<g id="edge74" class="edge">
<title>Node35&#45;&gt;Node7</title>
<path fill="none" stroke="midnightblue" d="M945.04,-56.44C972.01,-47.23 1015.05,-32.51 1044.83,-22.34"/>
<polygon fill="midnightblue" stroke="midnightblue" points="1046.04,-25.62 1054.37,-19.08 1043.78,-19 1046.04,-25.62"/>
</g>
<!-- Node35&#45;&gt;Node8 -->
<g id="edge76" class="edge">
<title>Node35&#45;&gt;Node8</title>
<path fill="none" stroke="midnightblue" d="M913.06,-56.08C907.07,-48.38 898.25,-37.03 890.95,-27.65"/>
<polygon fill="midnightblue" stroke="midnightblue" points="893.71,-25.5 884.81,-19.75 888.18,-29.79 893.71,-25.5"/>
</g>
<!-- Node35&#45;&gt;Node15 -->
<g id="edge73" class="edge">
<title>Node35&#45;&gt;Node15</title>
<path fill="none" stroke="midnightblue" d="M935.1,-56.32C949.9,-47.82 972.69,-34.73 989.98,-24.8"/>
<polygon fill="midnightblue" stroke="midnightblue" points="992.01,-27.67 998.93,-19.65 988.52,-21.6 992.01,-27.67"/>
</g>
<!-- Node35&#45;&gt;Node18 -->
<g id="edge75" class="edge">
<title>Node35&#45;&gt;Node18</title>
<path fill="none" stroke="midnightblue" d="M901.14,-56.44C881.73,-47.64 851.27,-33.81 829.04,-23.72"/>
<polygon fill="midnightblue" stroke="midnightblue" points="830.32,-20.46 819.77,-19.52 827.43,-26.84 830.32,-20.46"/>
</g>
<!-- Node35&#45;&gt;Node24 -->
<g id="edge71" class="edge">
<title>Node35&#45;&gt;Node24</title>
<path fill="none" stroke="midnightblue" d="M889.42,-56.44C856.39,-47.2 803.61,-32.44 767.23,-22.26"/>
<polygon fill="midnightblue" stroke="midnightblue" points="768.01,-18.84 757.44,-19.52 766.13,-25.58 768.01,-18.84"/>
</g>
<!-- Node36&#45;&gt;Node3 -->
<g id="edge78" class="edge">
<title>Node36&#45;&gt;Node3</title>
<path fill="none" stroke="midnightblue" d="M1310.39,-56.32C1326.67,-47.7 1351.87,-34.36 1370.72,-24.39"/>
<polygon fill="midnightblue" stroke="midnightblue" points="1372.45,-27.43 1379.65,-19.65 1369.18,-21.24 1372.45,-27.43"/>
</g>
<!-- Node36&#45;&gt;Node34 -->
<g id="edge80" class="edge">
<title>Node36&#45;&gt;Node34</title>
<path fill="none" stroke="midnightblue" d="M1220.44,-56.49C1159.54,-48.95 1070.59,-36.82 983.7,-19.96"/>
<polygon fill="midnightblue" stroke="midnightblue" points="984.16,-16.48 973.67,-17.99 982.81,-23.35 984.16,-16.48"/>
</g>
<!-- Node37 -->
<g id="node37" class="node">
<title>Node37</title>
<g id="a_node37"><a xlink:title=" ">
<polygon fill="none" stroke="#bfbfbf" points="1258.5,-0.5 1258.5,-19.5 1329.5,-19.5 1329.5,-0.5 1258.5,-0.5"/>
<text text-anchor="middle" x="1294" y="-7.5" font-family="serif" font-size="10.00">type_traits</text>
</a>
</g>
</g>
<!-- Node36&#45;&gt;Node37 -->
<g id="edge79" class="edge">
<title>Node36&#45;&gt;Node37</title>
<path fill="none" stroke="midnightblue" d="M1294,-56.08C1294,-49.01 1294,-38.86 1294,-29.99"/>
<polygon fill="midnightblue" stroke="midnightblue" points="1297.5,-29.75 1294,-19.75 1290.5,-29.75 1297.5,-29.75"/>
</g>
</g>
</svg>
        <g id="navigator" transform="translate(0 0)" fill="#404254">
                <rect fill="#f2f5e9" fill-opacity="0.5" stroke="#606060" stroke-width=".5" x="0" y="0" width="60" height="60"/>
                <use id="zoomplus" xlink:href="#zoomPlus" x="17" y="9" onmousedown="handleZoom(evt,'in')"/>
                <use id="zoomminus" xlink:href="#zoomMin" x="42" y="9" onmousedown="handleZoom(evt,'out')"/>
                <use id="reset" xlink:href="#resetDef" x="30" y="36" onmousedown="handleReset()"/>
                <g id="arrowUp" xlink:href="#dirArrow" transform="translate(30 24)" onmousedown="handlePan(0,-1)">
                  <use xlink:href="#rim" fill="#404040">
                        <set attributeName="fill" to="#808080" begin="arrowUp.mouseover" end="arrowUp.mouseout"/>
                  </use>
                  <path fill="none" stroke="white" stroke-width="1.5" d="M0,-3.0v7 M-2.5,-0.5L0,-3.0L2.5,-0.5"/>
                </g>
                <g id="arrowRight" xlink:href="#dirArrow" transform="rotate(90) translate(36 -43)" onmousedown="handlePan(1,0)">
                  <use xlink:href="#rim" fill="#404040">
                        <set attributeName="fill" to="#808080" begin="arrowRight.mouseover" end="arrowRight.mouseout"/>
                  </use>
                  <path fill="none" stroke="white" stroke-width="1.5" d="M0,-3.0v7 M-2.5,-0.5L0,-3.0L2.5,-0.5"/>
                </g>
                <g id="arrowDown" xlink:href="#dirArrow" transform="rotate(180) translate(-30 -48)" onmousedown="handlePan(0,1)">
                  <use xlink:href="#rim" fill="#404040">
                        <set attributeName="fill" to="#808080" begin="arrowDown.mouseover" end="arrowDown.mouseout"/>
                  </use>
                  <path fill="none" stroke="white" stroke-width="1.5" d="M0,-3.0v7 M-2.5,-0.5L0,-3.0L2.5,-0.5"/>
                </g>
                <g id="arrowLeft" xlink:href="#dirArrow" transform="rotate(270) translate(-36 17)" onmousedown="handlePan(-1,0)">
                  <use xlink:href="#rim" fill="#404040">
                        <set attributeName="fill" to="#808080" begin="arrowLeft.mouseover" end="arrowLeft.mouseout"/>
                  </use>
                  <path fill="none" stroke="white" stroke-width="1.5" d="M0,-3.0v7 M-2.5,-0.5L0,-3.0L2.5,-0.5"/>
                </g>
        </g>
        <svg viewBox="0 0 15 15" width="100%" height="30px" preserveAspectRatio="xMaxYMin meet">
         <g id="arrow_out" transform="scale(0.3 0.3)">
          <a xlink:href="SlothBaseCoefficient_8hpp__incl_org.svg" target="_base">
           <rect id="button" ry="5" rx="5" y="6" x="6" height="38" width="38"
                fill="#f2f5e9" fill-opacity="0.5" stroke="#606060" stroke-width="1.0"/>
           <path id="arrow"
             d="M 11.500037,31.436501 C 11.940474,20.09759 22.043105,11.32322 32.158766,21.979434 L 37.068811,17.246167 C 37.068811,17.246167 37.088388,32 37.088388,32 L 22.160133,31.978069 C 22.160133,31.978069 26.997745,27.140456 26.997745,27.140456 C 18.528582,18.264221 13.291696,25.230495 11.500037,31.436501 z"
             style="fill:#404040;"/>
          </a>
         </g>
        </svg>
</svg>
