<?xml version="1.0" encoding="UTF-8" standalone="no"?>
<!DOCTYPE svg PUBLIC "-//W3C//DTD SVG 1.1//EN"
 "http://www.w3.org/Graphics/SVG/1.1/DTD/svg11.dtd">
<!-- Generated by graphviz version 2.43.0 (0)
 -->
<!-- Title: SlothSolver.hpp Pages: 1 -->
<svg width="481pt" height="308pt"
 viewBox="0.00 0.00 480.50 308.00" xmlns="http://www.w3.org/2000/svg" xmlns:xlink="http://www.w3.org/1999/xlink">
<g id="graph0" class="graph" transform="scale(1 1) rotate(0) translate(4 304)">
<title>SlothSolver.hpp</title>
<!-- Node1 -->
<g id="node1" class="node">
<title>Node1</title>
<g id="a_node1"><a xlink:title="Class to define a SlothSolver objet.">
<polygon fill="#bfbfbf" stroke="black" points="227.5,-280.5 227.5,-299.5 325.5,-299.5 325.5,-280.5 227.5,-280.5"/>
<text text-anchor="middle" x="276.5" y="-287.5" font-family="serif" font-size="10.00">SlothSolver.hpp</text>
</a>
</g>
</g>
<!-- Node2 -->
<g id="node2" class="node">
<title>Node2</title>
<g id="a_node2"><a xlink:href="LSolver_8hpp.html" target="_top" xlink:title="Class used to manage Linear Solver objet.">
<polygon fill="none" stroke="black" points="104.5,-224.5 104.5,-243.5 182.5,-243.5 182.5,-224.5 104.5,-224.5"/>
<text text-anchor="middle" x="143.5" y="-231.5" font-family="serif" font-size="10.00">LSolver.hpp</text>
</a>
</g>
</g>
<!-- Node1&#45;&gt;Node2 -->
<g id="edge1" class="edge">
<title>Node1&#45;&gt;Node2</title>
<path fill="none" stroke="midnightblue" d="M246.05,-276.64C221.09,-266.5 186.42,-252.43 164.48,-243.52"/>
<polygon fill="midnightblue" stroke="midnightblue" points="244.84,-279.92 255.43,-280.44 247.48,-273.44 244.84,-279.92"/>
</g>
<!-- Node8 -->
<g id="node8" class="node">
<title>Node8</title>
<g id="a_node8"><a xlink:href="LSolver_8cpp.html" target="_top" xlink:title="Class used to manage Linear Solver objet.">
<polygon fill="none" stroke="black" points="0,-168.5 0,-187.5 77,-187.5 77,-168.5 0,-168.5"/>
<text text-anchor="middle" x="38.5" y="-175.5" font-family="serif" font-size="10.00">LSolver.cpp</text>
</a>
</g>
</g>
<!-- Node1&#45;&gt;Node8 -->
<g id="edge15" class="edge">
<title>Node1&#45;&gt;Node8</title>
<path fill="none" stroke="midnightblue" d="M217.15,-283.4C180.02,-277.76 132.4,-266.49 95.5,-244 71.66,-229.47 52.37,-201.74 43.61,-187.66"/>
<polygon fill="midnightblue" stroke="midnightblue" points="216.93,-286.9 227.32,-284.84 217.92,-279.97 216.93,-286.9"/>
</g>
<!-- Node9 -->
<g id="node9" class="node">
<title>Node9</title>
<g id="a_node9"><a xlink:href="NLSolver_8hpp.html" target="_top" xlink:title="Class used to manage a NonLinear Solver( Newton type)">
<polygon fill="none" stroke="black" points="233,-224.5 233,-243.5 320,-243.5 320,-224.5 233,-224.5"/>
<text text-anchor="middle" x="276.5" y="-231.5" font-family="serif" font-size="10.00">NLSolver.hpp</text>
</a>
</g>
</g>
<!-- Node1&#45;&gt;Node9 -->
<g id="edge11" class="edge">
<title>Node1&#45;&gt;Node9</title>
<path fill="none" stroke="midnightblue" d="M276.5,-269.8C276.5,-260.91 276.5,-250.78 276.5,-243.75"/>
<polygon fill="midnightblue" stroke="midnightblue" points="273,-270.08 276.5,-280.08 280,-270.08 273,-270.08"/>
</g>
<!-- Node10 -->
<g id="node10" class="node">
<title>Node10</title>
<g id="a_node10"><a xlink:href="NLSolver_8cpp.html" target="_top" xlink:title="Class used to manage a NonLinear Solver( Newton type)">
<polygon fill="none" stroke="black" points="337.5,-168.5 337.5,-187.5 423.5,-187.5 423.5,-168.5 337.5,-168.5"/>
<text text-anchor="middle" x="380.5" y="-175.5" font-family="serif" font-size="10.00">NLSolver.cpp</text>
</a>
</g>
</g>
<!-- Node1&#45;&gt;Node10 -->
<g id="edge16" class="edge">
<title>Node1&#45;&gt;Node10</title>
<path fill="none" stroke="midnightblue" d="M296.11,-273.93C306.48,-265.58 319.17,-254.74 329.5,-244 347.4,-225.39 365.34,-200.82 374.42,-187.87"/>
<polygon fill="midnightblue" stroke="midnightblue" points="293.72,-271.36 288.04,-280.31 298.06,-276.85 293.72,-271.36"/>
</g>
<!-- Node11 -->
<g id="node11" class="node">
<title>Node11</title>
<g id="a_node11"><a xlink:href="SlothSolver_8cpp.html" target="_top" xlink:title="Class to define a SlothSolver objet.">
<polygon fill="none" stroke="black" points="376.5,-224.5 376.5,-243.5 472.5,-243.5 472.5,-224.5 376.5,-224.5"/>
<text text-anchor="middle" x="424.5" y="-231.5" font-family="serif" font-size="10.00">SlothSolver.cpp</text>
</a>
</g>
</g>
<!-- Node1&#45;&gt;Node11 -->
<g id="edge17" class="edge">
<title>Node1&#45;&gt;Node11</title>
<path fill="none" stroke="midnightblue" d="M309.65,-276.91C337.47,-266.75 376.52,-252.51 401.16,-243.52"/>
<polygon fill="midnightblue" stroke="midnightblue" points="308.15,-273.73 299.95,-280.44 310.54,-280.3 308.15,-273.73"/>
</g>
<!-- Node3 -->
<g id="node3" class="node">
<title>Node3</title>
<g id="a_node3"><a xlink:href="OperatorBase_8hpp.html" target="_top" xlink:title="Base class for building Steady and TimeDependent PhaseFieldOperators.">
<polygon fill="none" stroke="black" points="171.5,-168.5 171.5,-187.5 281.5,-187.5 281.5,-168.5 171.5,-168.5"/>
<text text-anchor="middle" x="226.5" y="-175.5" font-family="serif" font-size="10.00">OperatorBase.hpp</text>
</a>
</g>
</g>
<!-- Node2&#45;&gt;Node3 -->
<g id="edge2" class="edge">
<title>Node2&#45;&gt;Node3</title>
<path fill="none" stroke="midnightblue" d="M165.6,-218.62C180.76,-208.76 200.38,-195.99 213.2,-187.65"/>
<polygon fill="midnightblue" stroke="midnightblue" points="163.31,-215.94 156.84,-224.32 167.13,-221.8 163.31,-215.94"/>
</g>
<!-- Node4 -->
<g id="node4" class="node">
<title>Node4</title>
<g id="a_node4"><a xlink:href="SteadyOperator_8hpp.html" target="_top" xlink:title="Steady Operator.">
<polygon fill="none" stroke="black" points="190.5,-112.5 190.5,-131.5 310.5,-131.5 310.5,-112.5 190.5,-112.5"/>
<text text-anchor="middle" x="250.5" y="-119.5" font-family="serif" font-size="10.00">SteadyOperator.hpp</text>
</a>
</g>
</g>
<!-- Node2&#45;&gt;Node4 -->
<g id="edge8" class="edge">
<title>Node2&#45;&gt;Node4</title>
<path fill="none" stroke="midnightblue" d="M144.98,-214.4C146.97,-200.29 151.62,-181.15 162.5,-168 177.38,-150.02 201.28,-138.44 220.43,-131.54"/>
<polygon fill="midnightblue" stroke="midnightblue" points="141.49,-214.1 143.89,-224.42 148.45,-214.86 141.49,-214.1"/>
</g>
<!-- Node7 -->
<g id="node7" class="node">
<title>Node7</title>
<g id="a_node7"><a xlink:href="TransientOperator_8hpp.html" target="_top" xlink:title="Transient Operator.">
<polygon fill="none" stroke="black" points="38.5,-112.5 38.5,-131.5 172.5,-131.5 172.5,-112.5 38.5,-112.5"/>
<text text-anchor="middle" x="105.5" y="-119.5" font-family="serif" font-size="10.00">TransientOperator.hpp</text>
</a>
</g>
</g>
<!-- Node2&#45;&gt;Node7 -->
<g id="edge9" class="edge">
<title>Node2&#45;&gt;Node7</title>
<path fill="none" stroke="midnightblue" d="M137.17,-214.67C128.86,-190.62 114.62,-149.39 108.47,-131.59"/>
<polygon fill="midnightblue" stroke="midnightblue" points="133.94,-216.06 140.52,-224.37 140.56,-213.77 133.94,-216.06"/>
</g>
<!-- Node2&#45;&gt;Node8 -->
<g id="edge10" class="edge">
<title>Node2&#45;&gt;Node8</title>
<path fill="none" stroke="midnightblue" d="M117.69,-219.73C98.25,-209.73 72.15,-196.31 55.33,-187.65"/>
<polygon fill="midnightblue" stroke="midnightblue" points="116.14,-222.86 126.63,-224.32 119.34,-216.64 116.14,-222.86"/>
</g>
<!-- Node3&#45;&gt;Node4 -->
<g id="edge3" class="edge">
<title>Node3&#45;&gt;Node4</title>
<path fill="none" stroke="midnightblue" d="M234.64,-158.69C238.68,-149.59 243.38,-139.01 246.61,-131.75"/>
<polygon fill="midnightblue" stroke="midnightblue" points="231.33,-157.52 230.46,-168.08 237.72,-160.37 231.33,-157.52"/>
</g>
<!-- Node3&#45;&gt;Node7 -->
<g id="edge6" class="edge">
<title>Node3&#45;&gt;Node7</title>
<path fill="none" stroke="midnightblue" d="M198.19,-164.37C175.53,-154.26 144.37,-140.35 124.58,-131.52"/>
<polygon fill="midnightblue" stroke="midnightblue" points="196.77,-167.56 207.33,-168.44 199.62,-161.17 196.77,-167.56"/>
</g>
<!-- Node5 -->
<g id="node5" class="node">
<title>Node5</title>
<g id="a_node5"><a xlink:href="ListOperators_8hpp.html" target="_top" xlink:title=" ">
<polygon fill="none" stroke="black" points="122.5,-56.5 122.5,-75.5 232.5,-75.5 232.5,-56.5 122.5,-56.5"/>
<text text-anchor="middle" x="177.5" y="-63.5" font-family="serif" font-size="10.00">ListOperators.hpp</text>
</a>
</g>
</g>
<!-- Node4&#45;&gt;Node5 -->
<g id="edge4" class="edge">
<title>Node4&#45;&gt;Node5</title>
<path fill="none" stroke="midnightblue" d="M230.36,-106.1C217.22,-96.38 200.52,-84.03 189.44,-75.83"/>
<polygon fill="midnightblue" stroke="midnightblue" points="228.65,-109.19 238.77,-112.32 232.81,-103.56 228.65,-109.19"/>
</g>
<!-- Node6 -->
<g id="node6" class="node">
<title>Node6</title>
<g id="a_node6"><a xlink:href="sloth_8hpp.html" target="_top" xlink:title="List of SLOTH header files.">
<polygon fill="none" stroke="black" points="145,-0.5 145,-19.5 210,-19.5 210,-0.5 145,-0.5"/>
<text text-anchor="middle" x="177.5" y="-7.5" font-family="serif" font-size="10.00">sloth.hpp</text>
</a>
</g>
</g>
<!-- Node5&#45;&gt;Node6 -->
<g id="edge5" class="edge">
<title>Node5&#45;&gt;Node6</title>
<path fill="none" stroke="midnightblue" d="M177.5,-45.8C177.5,-36.91 177.5,-26.78 177.5,-19.75"/>
<polygon fill="midnightblue" stroke="midnightblue" points="174,-46.08 177.5,-56.08 181,-46.08 174,-46.08"/>
</g>
<!-- Node7&#45;&gt;Node5 -->
<g id="edge7" class="edge">
<title>Node7&#45;&gt;Node5</title>
<path fill="none" stroke="midnightblue" d="M125.37,-106.1C138.32,-96.38 154.8,-84.03 165.72,-75.83"/>
<polygon fill="midnightblue" stroke="midnightblue" points="122.97,-103.52 117.07,-112.32 127.17,-109.12 122.97,-103.52"/>
</g>
<!-- Node9&#45;&gt;Node3 -->
<g id="edge12" class="edge">
<title>Node9&#45;&gt;Node3</title>
<path fill="none" stroke="midnightblue" d="M261.42,-216.72C252.61,-207.2 241.83,-195.56 234.6,-187.75"/>
<polygon fill="midnightblue" stroke="midnightblue" points="258.88,-219.12 268.24,-224.08 264.02,-214.37 258.88,-219.12"/>
</g>
<!-- Node9&#45;&gt;Node4 -->
<g id="edge13" class="edge">
<title>Node9&#45;&gt;Node4</title>
<path fill="none" stroke="midnightblue" d="M285.82,-214.93C291.38,-201.65 296.33,-183.33 290.5,-168 284.78,-152.95 271.47,-139.73 261.77,-131.57"/>
<polygon fill="midnightblue" stroke="midnightblue" points="282.48,-213.81 281.42,-224.35 288.82,-216.77 282.48,-213.81"/>
</g>
<!-- Node9&#45;&gt;Node10 -->
<g id="edge14" class="edge">
<title>Node9&#45;&gt;Node10</title>
<path fill="none" stroke="midnightblue" d="M302.33,-219.59C321.56,-209.61 347.24,-196.27 363.83,-187.65"/>
<polygon fill="midnightblue" stroke="midnightblue" points="300.47,-216.61 293.21,-224.32 303.7,-222.82 300.47,-216.61"/>
</g>
</g>
</svg>
