<?xml version="1.0" encoding="UTF-8" standalone="no"?>
<!DOCTYPE svg PUBLIC "-//W3C//DTD SVG 1.1//EN"
 "http://www.w3.org/Graphics/SVG/1.1/DTD/svg11.dtd">
<!-- Generated by graphviz version 2.43.0 (0)
 -->
<!-- Title: SlothNLFormIntegrator.tpp Pages: 1 -->
<svg width="2489pt" height="319pt"
 viewBox="0.00 0.00 2489.00 319.00" xmlns="http://www.w3.org/2000/svg" xmlns:xlink="http://www.w3.org/1999/xlink">
<g id="graph0" class="graph" transform="scale(1 1) rotate(0) translate(4 315)">
<title>SlothNLFormIntegrator.tpp</title>
<!-- Node1 -->
<g id="node1" class="node">
<title>Node1</title>
<g id="a_node1"><a xlink:title=" ">
<polygon fill="#bfbfbf" stroke="black" points="1084.5,-291.5 1084.5,-310.5 1241.5,-310.5 1241.5,-291.5 1084.5,-291.5"/>
<text text-anchor="middle" x="1163" y="-298.5" font-family="serif" font-size="10.00">SlothNLFormIntegrator.tpp</text>
</a>
</g>
</g>
<!-- Node2 -->
<g id="node2" class="node">
<title>Node2</title>
<g id="a_node2"><a xlink:href="SlothNLFormIntegrator_8hpp.html" target="_top" xlink:title="Class prodiving common methods to all NLFormIntegrators.">
<polygon fill="none" stroke="black" points="1083,-235.5 1083,-254.5 1243,-254.5 1243,-235.5 1083,-235.5"/>
<text text-anchor="middle" x="1163" y="-242.5" font-family="serif" font-size="10.00">SlothNLFormIntegrator.hpp</text>
</a>
</g>
</g>
<!-- Node1&#45;&gt;Node2 -->
<g id="edge1" class="edge">
<title>Node1&#45;&gt;Node2</title>
<path fill="none" stroke="midnightblue" d="M1163,-280.8C1163,-271.91 1163,-261.78 1163,-254.75"/>
<polygon fill="midnightblue" stroke="midnightblue" points="1159.5,-281.08 1163,-291.08 1166.5,-281.08 1159.5,-281.08"/>
</g>
<!-- Node3 -->
<g id="node3" class="node">
<title>Node3</title>
<g id="a_node3"><a xlink:href="AllenCahnNLFormIntegrator_8hpp.html" target="_top" xlink:title="VF of the Allen Cahn equation.">
<polygon fill="none" stroke="black" points="1248.5,-118 1248.5,-137 1435.5,-137 1435.5,-118 1248.5,-118"/>
<text text-anchor="middle" x="1342" y="-125" font-family="serif" font-size="10.00">AllenCahnNLFormIntegrator.hpp</text>
</a>
</g>
</g>
<!-- Node2&#45;&gt;Node3 -->
<g id="edge2" class="edge">
<title>Node2&#45;&gt;Node3</title>
<path fill="none" stroke="midnightblue" d="M1185.5,-230.13C1199.74,-221.3 1218.51,-209.58 1235,-199 1269.26,-177.01 1309.22,-150.43 1329.22,-137.06"/>
<polygon fill="midnightblue" stroke="midnightblue" points="1183.53,-227.23 1176.86,-235.47 1187.21,-233.19 1183.53,-227.23"/>
</g>
<!-- Node4 -->
<g id="node4" class="node">
<title>Node4</title>
<g id="a_node4"><a xlink:href="ListIntegrators_8hpp.html" target="_top" xlink:title="List of header files contained in the Integrators directory.">
<polygon fill="none" stroke="black" points="1065,-56.5 1065,-75.5 1181,-75.5 1181,-56.5 1065,-56.5"/>
<text text-anchor="middle" x="1123" y="-63.5" font-family="serif" font-size="10.00">ListIntegrators.hpp</text>
</a>
</g>
</g>
<!-- Node2&#45;&gt;Node4 -->
<g id="edge22" class="edge">
<title>Node2&#45;&gt;Node4</title>
<path fill="none" stroke="midnightblue" d="M1181.58,-228.32C1189.48,-220.44 1197.83,-210.19 1202,-199 1205.11,-190.67 1203.34,-187.79 1202,-179 1197.28,-148.15 1198.81,-137.63 1181,-112 1170.02,-96.2 1151.81,-83.38 1138.72,-75.53"/>
<polygon fill="midnightblue" stroke="midnightblue" points="1178.94,-226 1173.99,-235.37 1183.7,-231.13 1178.94,-226"/>
</g>
<!-- Node5 -->
<g id="node5" class="node">
<title>Node5</title>
<g id="a_node5"><a xlink:href="BlockAllenCahnNLFormIntegrator_8hpp.html" target="_top" xlink:title="VF of the AllenCahn equations (splitted form)">
<polygon fill="none" stroke="black" points="1287.5,-179.5 1287.5,-198.5 1502.5,-198.5 1502.5,-179.5 1287.5,-179.5"/>
<text text-anchor="middle" x="1395" y="-186.5" font-family="serif" font-size="10.00">BlockAllenCahnNLFormIntegrator.hpp</text>
</a>
</g>
</g>
<!-- Node2&#45;&gt;Node5 -->
<g id="edge4" class="edge">
<title>Node2&#45;&gt;Node5</title>
<path fill="none" stroke="midnightblue" d="M1209.6,-233.15C1253.44,-222.95 1318.18,-207.88 1358.41,-198.52"/>
<polygon fill="midnightblue" stroke="midnightblue" points="1208.71,-229.77 1199.76,-235.44 1210.29,-236.59 1208.71,-229.77"/>
</g>
<!-- Node6 -->
<g id="node6" class="node">
<title>Node6</title>
<g id="a_node6"><a xlink:href="CahnHilliardNLFormIntegrator_8hpp.html" target="_top" xlink:title="VF of the CahnHilliard equations.">
<polygon fill="none" stroke="black" points="1795.5,-179.5 1795.5,-198.5 1994.5,-198.5 1994.5,-179.5 1795.5,-179.5"/>
<text text-anchor="middle" x="1895" y="-186.5" font-family="serif" font-size="10.00">CahnHilliardNLFormIntegrator.hpp</text>
</a>
</g>
</g>
<!-- Node2&#45;&gt;Node6 -->
<g id="edge6" class="edge">
<title>Node2&#45;&gt;Node6</title>
<path fill="none" stroke="midnightblue" d="M1253.28,-237.6C1373.66,-229.02 1593.39,-213.24 1781,-199 1785.65,-198.65 1790.41,-198.28 1795.22,-197.91"/>
<polygon fill="midnightblue" stroke="midnightblue" points="1252.74,-234.13 1243.01,-238.33 1253.23,-241.11 1252.74,-234.13"/>
</g>
<!-- Node7 -->
<g id="node7" class="node">
<title>Node7</title>
<g id="a_node7"><a xlink:href="DiffusionFluxNLFormIntegrator_8hpp.html" target="_top" xlink:title="inter&#45;diffusion integrator">
<polygon fill="none" stroke="black" points="2013,-179.5 2013,-198.5 2215,-198.5 2215,-179.5 2013,-179.5"/>
<text text-anchor="middle" x="2114" y="-186.5" font-family="serif" font-size="10.00">DiffusionFluxNLFormIntegrator.hpp</text>
</a>
</g>
</g>
<!-- Node2&#45;&gt;Node7 -->
<g id="edge8" class="edge">
<title>Node2&#45;&gt;Node7</title>
<path fill="none" stroke="midnightblue" d="M1253.6,-239.96C1407.64,-232.91 1730.41,-217.35 2003,-199 2006.28,-198.78 2009.61,-198.55 2012.98,-198.31"/>
<polygon fill="midnightblue" stroke="midnightblue" points="1253.08,-236.48 1243.25,-240.43 1253.4,-243.47 1253.08,-236.48"/>
</g>
<!-- Node9 -->
<g id="node9" class="node">
<title>Node9</title>
<g id="a_node9"><a xlink:href="DiffusionNLFormIntegrator_8hpp.html" target="_top" xlink:title="Nonlinear form integrator for diffusion&#45;type problems.">
<polygon fill="none" stroke="black" points="1559.5,-179.5 1559.5,-198.5 1738.5,-198.5 1738.5,-179.5 1559.5,-179.5"/>
<text text-anchor="middle" x="1649" y="-186.5" font-family="serif" font-size="10.00">DiffusionNLFormIntegrator.hpp</text>
</a>
</g>
</g>
<!-- Node2&#45;&gt;Node9 -->
<g id="edge11" class="edge">
<title>Node2&#45;&gt;Node9</title>
<path fill="none" stroke="midnightblue" d="M1249.83,-234.35C1341.49,-224.17 1484.6,-208.27 1572.26,-198.53"/>
<polygon fill="midnightblue" stroke="midnightblue" points="1249.29,-230.89 1239.74,-235.47 1250.07,-237.85 1249.29,-230.89"/>
</g>
<!-- Node10 -->
<g id="node10" class="node">
<title>Node10</title>
<g id="a_node10"><a xlink:href="FickNLFormIntegrator_8hpp.html" target="_top" xlink:title="FV for the mass diffusion equation.">
<polygon fill="none" stroke="black" points="1680.5,-118 1680.5,-137 1835.5,-137 1835.5,-118 1680.5,-118"/>
<text text-anchor="middle" x="1758" y="-125" font-family="serif" font-size="10.00">FickNLFormIntegrator.hpp</text>
</a>
</g>
</g>
<!-- Node2&#45;&gt;Node10 -->
<g id="edge16" class="edge">
<title>Node2&#45;&gt;Node10</title>
<path fill="none" stroke="midnightblue" d="M1253.54,-243.09C1408.56,-240.66 1711.63,-231.72 1747,-199 1764.1,-183.19 1762.01,-152.58 1759.7,-137.43"/>
<polygon fill="midnightblue" stroke="midnightblue" points="1253.04,-239.6 1243.09,-243.25 1253.14,-246.6 1253.04,-239.6"/>
</g>
<!-- Node11 -->
<g id="node11" class="node">
<title>Node11</title>
<g id="a_node11"><a xlink:href="FourierNLFormIntegrator_8hpp.html" target="_top" xlink:title="FV for the heat transfer equation.">
<polygon fill="none" stroke="black" points="1491.5,-118 1491.5,-137 1662.5,-137 1662.5,-118 1491.5,-118"/>
<text text-anchor="middle" x="1577" y="-125" font-family="serif" font-size="10.00">FourierNLFormIntegrator.hpp</text>
</a>
</g>
</g>
<!-- Node2&#45;&gt;Node11 -->
<g id="edge17" class="edge">
<title>Node2&#45;&gt;Node11</title>
<path fill="none" stroke="midnightblue" d="M1253.37,-239.23C1341.15,-233.38 1467.39,-221.34 1511,-199 1539.35,-184.47 1561.97,-152.68 1571.75,-137.25"/>
<polygon fill="midnightblue" stroke="midnightblue" points="1252.88,-235.76 1243.13,-239.9 1253.33,-242.74 1252.88,-235.76"/>
</g>
<!-- Node12 -->
<g id="node12" class="node">
<title>Node12</title>
<g id="a_node12"><a xlink:href="HeatTimeNLFormIntegrator_8hpp.html" target="_top" xlink:title="VF of the time derivative.">
<polygon fill="none" stroke="black" points="0,-118 0,-137 184,-137 184,-118 0,-118"/>
<text text-anchor="middle" x="92" y="-125" font-family="serif" font-size="10.00">HeatTimeNLFormIntegrator.hpp</text>
</a>
</g>
</g>
<!-- Node2&#45;&gt;Node12 -->
<g id="edge18" class="edge">
<title>Node2&#45;&gt;Node12</title>
<path fill="none" stroke="midnightblue" d="M1072.68,-243.07C824.14,-240.14 145.93,-229.38 109,-199 90.53,-183.8 90.11,-152.33 91.12,-137.11"/>
<polygon fill="midnightblue" stroke="midnightblue" points="1072.73,-246.58 1082.77,-243.19 1072.81,-239.58 1072.73,-246.58"/>
</g>
<!-- Node13 -->
<g id="node13" class="node">
<title>Node13</title>
<g id="a_node13"><a xlink:href="LatentHeatNLFormIntegrator_8hpp.html" target="_top" xlink:title="Latent heat contribution for heat transfer equation.">
<polygon fill="none" stroke="black" points="295.5,-179.5 295.5,-198.5 486.5,-198.5 486.5,-179.5 295.5,-179.5"/>
<text text-anchor="middle" x="391" y="-186.5" font-family="serif" font-size="10.00">LatentHeatNLFormIntegrator.hpp</text>
</a>
</g>
</g>
<!-- Node2&#45;&gt;Node13 -->
<g id="edge20" class="edge">
<title>Node2&#45;&gt;Node13</title>
<path fill="none" stroke="midnightblue" d="M1072.88,-238.27C945.47,-230.08 705.4,-214.31 501,-199 496.32,-198.65 491.53,-198.28 486.69,-197.91"/>
<polygon fill="midnightblue" stroke="midnightblue" points="1072.78,-241.77 1082.98,-238.92 1073.23,-234.78 1072.78,-241.77"/>
</g>
<!-- Node14 -->
<g id="node14" class="node">
<title>Node14</title>
<g id="a_node14"><a xlink:href="MeltingBaseNLFormIntegrator_8hpp.html" target="_top" xlink:title="Base class for melting integrators.">
<polygon fill="none" stroke="black" points="543,-179.5 543,-198.5 741,-198.5 741,-179.5 543,-179.5"/>
<text text-anchor="middle" x="642" y="-186.5" font-family="serif" font-size="10.00">MeltingBaseNLFormIntegrator.hpp</text>
</a>
</g>
</g>
<!-- Node2&#45;&gt;Node14 -->
<g id="edge23" class="edge">
<title>Node2&#45;&gt;Node14</title>
<path fill="none" stroke="midnightblue" d="M1072.53,-234.62C974.32,-224.44 818.86,-208.33 724.08,-198.51"/>
<polygon fill="midnightblue" stroke="midnightblue" points="1072.43,-238.13 1082.74,-235.68 1073.15,-231.17 1072.43,-238.13"/>
</g>
<!-- Node15 -->
<g id="node15" class="node">
<title>Node15</title>
<g id="a_node15"><a xlink:href="MeltingCalphadNLFormIntegrator_8hpp.html" target="_top" xlink:title="NonlinearFormIntegrator for ad&#45;hoc melting term based on temperature.">
<polygon fill="none" stroke="black" points="278,-118 278,-137 494,-137 494,-118 278,-118"/>
<text text-anchor="middle" x="386" y="-125" font-family="serif" font-size="10.00">MeltingCalphadNLFormIntegrator.hpp</text>
</a>
</g>
</g>
<!-- Node2&#45;&gt;Node15 -->
<g id="edge30" class="edge">
<title>Node2&#45;&gt;Node15</title>
<path fill="none" stroke="midnightblue" d="M1072.8,-241.98C923.76,-237.91 632.75,-226.61 534,-199 515.24,-193.75 512.51,-187.54 495,-179 463.7,-163.73 426.85,-146.89 405.01,-137.03"/>
<polygon fill="midnightblue" stroke="midnightblue" points="1072.75,-245.48 1082.84,-242.25 1072.94,-238.49 1072.75,-245.48"/>
</g>
<!-- Node16 -->
<g id="node16" class="node">
<title>Node16</title>
<g id="a_node16"><a xlink:href="MeltingConstantNLFormIntegrator_8hpp.html" target="_top" xlink:title="NonlinearFormIntegrator for ad&#45;hoc constant melting term.">
<polygon fill="none" stroke="black" points="512.5,-118 512.5,-137 731.5,-137 731.5,-118 512.5,-118"/>
<text text-anchor="middle" x="622" y="-125" font-family="serif" font-size="10.00">MeltingConstantNLFormIntegrator.hpp</text>
</a>
</g>
</g>
<!-- Node2&#45;&gt;Node16 -->
<g id="edge31" class="edge">
<title>Node2&#45;&gt;Node16</title>
<path fill="none" stroke="midnightblue" d="M1072.72,-237.85C1001.88,-231.7 901.16,-220.03 815,-199 781.12,-190.73 686.43,-153.98 643.57,-137.07"/>
<polygon fill="midnightblue" stroke="midnightblue" points="1072.69,-241.36 1082.95,-238.71 1073.29,-234.38 1072.69,-241.36"/>
</g>
<!-- Node17 -->
<g id="node17" class="node">
<title>Node17</title>
<g id="a_node17"><a xlink:href="MeltingTemperatureNLFormIntegrator_8hpp.html" target="_top" xlink:title="NonlinearFormIntegrator for ad&#45;hoc melting term based on temperature.">
<polygon fill="none" stroke="black" points="749.5,-112.5 749.5,-142.5 914.5,-142.5 914.5,-112.5 749.5,-112.5"/>
<text text-anchor="start" x="757.5" y="-130.5" font-family="serif" font-size="10.00">MeltingTemperatureNLForm</text>
<text text-anchor="middle" x="832" y="-119.5" font-family="serif" font-size="10.00">Integrator.hpp</text>
</a>
</g>
</g>
<!-- Node2&#45;&gt;Node17 -->
<g id="edge32" class="edge">
<title>Node2&#45;&gt;Node17</title>
<path fill="none" stroke="midnightblue" d="M1072.82,-238.02C978.57,-230.83 842.11,-217.4 826,-199 812.49,-183.56 819.16,-158.27 825.43,-142.54"/>
<polygon fill="midnightblue" stroke="midnightblue" points="1072.71,-241.52 1082.95,-238.78 1073.24,-234.54 1072.71,-241.52"/>
</g>
<!-- Node18 -->
<g id="node18" class="node">
<title>Node18</title>
<g id="a_node18"><a xlink:href="RobinNLFormIntegrator_8hpp.html" target="_top" xlink:title="Robin integrator.">
<polygon fill="none" stroke="black" points="835,-179.5 835,-198.5 999,-198.5 999,-179.5 835,-179.5"/>
<text text-anchor="middle" x="917" y="-186.5" font-family="serif" font-size="10.00">RobinNLFormIntegrator.hpp</text>
</a>
</g>
</g>
<!-- Node2&#45;&gt;Node18 -->
<g id="edge33" class="edge">
<title>Node2&#45;&gt;Node18</title>
<path fill="none" stroke="midnightblue" d="M1114.17,-233.28C1067.68,-223.08 998.64,-207.92 955.8,-198.52"/>
<polygon fill="midnightblue" stroke="midnightblue" points="1113.5,-236.72 1124.02,-235.44 1115,-229.88 1113.5,-236.72"/>
</g>
<!-- Node20 -->
<g id="node20" class="node">
<title>Node20</title>
<g id="a_node20"><a xlink:href="TimeCHNLFormIntegrator_8hpp.html" target="_top" xlink:title="VF of the time derivative for CH equations.">
<polygon fill="none" stroke="black" points="1017,-179.5 1017,-198.5 1193,-198.5 1193,-179.5 1017,-179.5"/>
<text text-anchor="middle" x="1105" y="-186.5" font-family="serif" font-size="10.00">TimeCHNLFormIntegrator.hpp</text>
</a>
</g>
</g>
<!-- Node2&#45;&gt;Node20 -->
<g id="edge37" class="edge">
<title>Node2&#45;&gt;Node20</title>
<path fill="none" stroke="midnightblue" d="M1146.09,-228.25C1135.8,-218.67 1123.03,-206.79 1114.49,-198.83"/>
<polygon fill="midnightblue" stroke="midnightblue" points="1143.98,-231.07 1153.68,-235.32 1148.75,-225.95 1143.98,-231.07"/>
</g>
<!-- Node21 -->
<g id="node21" class="node">
<title>Node21</title>
<g id="a_node21"><a xlink:href="TimeNLFormIntegrator_8hpp.html" target="_top" xlink:title="VF of the time derivative.">
<polygon fill="none" stroke="black" points="118.5,-179.5 118.5,-198.5 277.5,-198.5 277.5,-179.5 118.5,-179.5"/>
<text text-anchor="middle" x="198" y="-186.5" font-family="serif" font-size="10.00">TimeNLFormIntegrator.hpp</text>
</a>
</g>
</g>
<!-- Node2&#45;&gt;Node21 -->
<g id="edge39" class="edge">
<title>Node2&#45;&gt;Node21</title>
<path fill="none" stroke="midnightblue" d="M1072.59,-240.87C913.43,-235.03 572.89,-221.02 286,-199 283.24,-198.79 280.44,-198.56 277.61,-198.32"/>
<polygon fill="midnightblue" stroke="midnightblue" points="1072.68,-244.38 1082.81,-241.25 1072.94,-237.38 1072.68,-244.38"/>
</g>
<!-- Node22 -->
<g id="node22" class="node">
<title>Node22</title>
<g id="a_node22"><a xlink:href="OperatorBase_8hpp.html" target="_top" xlink:title="Base class for building Steady and TimeDependent PhaseFieldOperators.">
<polygon fill="none" stroke="black" points="2233,-179.5 2233,-198.5 2343,-198.5 2343,-179.5 2233,-179.5"/>
<text text-anchor="middle" x="2288" y="-186.5" font-family="serif" font-size="10.00">OperatorBase.hpp</text>
</a>
</g>
</g>
<!-- Node2&#45;&gt;Node22 -->
<g id="edge42" class="edge">
<title>Node2&#45;&gt;Node22</title>
<path fill="none" stroke="midnightblue" d="M1253.16,-243.13C1436.42,-240.72 1865.41,-231.74 2224,-199 2226.91,-198.73 2229.88,-198.43 2232.88,-198.1"/>
<polygon fill="midnightblue" stroke="midnightblue" points="1252.99,-239.63 1243.04,-243.26 1253.08,-246.63 1252.99,-239.63"/>
</g>
<!-- Node3&#45;&gt;Node4 -->
<g id="edge3" class="edge">
<title>Node3&#45;&gt;Node4</title>
<path fill="none" stroke="midnightblue" d="M1300.86,-115.32C1258.32,-103.76 1192.83,-85.97 1154.32,-75.51"/>
<polygon fill="midnightblue" stroke="midnightblue" points="1300.05,-118.73 1310.62,-117.98 1301.89,-111.98 1300.05,-118.73"/>
</g>
<!-- Node5&#45;&gt;Node4 -->
<g id="edge5" class="edge">
<title>Node5&#45;&gt;Node4</title>
<path fill="none" stroke="midnightblue" d="M1415.8,-173.28C1435.88,-157.31 1460.95,-131.49 1444,-112 1410.63,-73.62 1264.36,-67.01 1181.25,-66.43"/>
<polygon fill="midnightblue" stroke="midnightblue" points="1413.49,-170.64 1407.63,-179.48 1417.72,-176.22 1413.49,-170.64"/>
</g>
<!-- Node6&#45;&gt;Node4 -->
<g id="edge7" class="edge">
<title>Node6&#45;&gt;Node4</title>
<path fill="none" stroke="midnightblue" d="M1888.48,-170.03C1880.85,-151.9 1866.35,-124.83 1844,-112 1787.17,-79.38 1342.57,-70.03 1181.24,-67.69"/>
<polygon fill="midnightblue" stroke="midnightblue" points="1885.27,-171.45 1892.18,-179.49 1891.79,-168.9 1885.27,-171.45"/>
</g>
<!-- Node8 -->
<g id="node8" class="node">
<title>Node8</title>
<g id="a_node8"><a xlink:href="MassDiffusionFluxNLFormIntegrator_8hpp.html" target="_top" xlink:title="Class dedicated to the VF of diffusion flux (gradient of chemical potential) used in mass balance equ...">
<polygon fill="none" stroke="black" points="1943.5,-118 1943.5,-137 2172.5,-137 2172.5,-118 1943.5,-118"/>
<text text-anchor="middle" x="2058" y="-125" font-family="serif" font-size="10.00">MassDiffusionFluxNLFormIntegrator.hpp</text>
</a>
</g>
</g>
<!-- Node7&#45;&gt;Node8 -->
<g id="edge9" class="edge">
<title>Node7&#45;&gt;Node8</title>
<path fill="none" stroke="midnightblue" d="M2098.94,-172C2088.34,-160.74 2074.57,-146.1 2066.01,-137.01"/>
<polygon fill="midnightblue" stroke="midnightblue" points="2096.57,-174.59 2105.98,-179.48 2101.67,-169.79 2096.57,-174.59"/>
</g>
<!-- Node8&#45;&gt;Node4 -->
<g id="edge10" class="edge">
<title>Node8&#45;&gt;Node4</title>
<path fill="none" stroke="midnightblue" d="M1956.23,-117.09C1935.32,-115.28 1913.46,-113.5 1893,-112 1627.57,-92.58 1310.17,-76.19 1181.48,-69.83"/>
<polygon fill="midnightblue" stroke="midnightblue" points="1956.13,-120.59 1966.4,-117.97 1956.74,-113.62 1956.13,-120.59"/>
</g>
<!-- Node9&#45;&gt;Node10 -->
<g id="edge12" class="edge">
<title>Node9&#45;&gt;Node10</title>
<path fill="none" stroke="midnightblue" d="M1673.63,-174.56C1694.72,-163.04 1724.46,-146.81 1742.41,-137.01"/>
<polygon fill="midnightblue" stroke="midnightblue" points="1671.72,-171.61 1664.62,-179.48 1675.07,-177.76 1671.72,-171.61"/>
</g>
<!-- Node9&#45;&gt;Node11 -->
<g id="edge14" class="edge">
<title>Node9&#45;&gt;Node11</title>
<path fill="none" stroke="midnightblue" d="M1630.82,-172.97C1617.04,-161.59 1598.62,-146.37 1587.3,-137.01"/>
<polygon fill="midnightblue" stroke="midnightblue" points="1628.75,-175.8 1638.68,-179.48 1633.21,-170.41 1628.75,-175.8"/>
</g>
<!-- Node10&#45;&gt;Node4 -->
<g id="edge13" class="edge">
<title>Node10&#45;&gt;Node4</title>
<path fill="none" stroke="midnightblue" d="M1701.24,-116.34C1691.19,-114.74 1680.8,-113.22 1671,-112 1493.14,-89.91 1281.41,-76.02 1181.16,-70.18"/>
<polygon fill="midnightblue" stroke="midnightblue" points="1700.71,-119.8 1711.15,-117.96 1701.84,-112.89 1700.71,-119.8"/>
</g>
<!-- Node11&#45;&gt;Node4 -->
<g id="edge15" class="edge">
<title>Node11&#45;&gt;Node4</title>
<path fill="none" stroke="midnightblue" d="M1509.17,-116.5C1498.41,-114.96 1487.41,-113.42 1477,-112 1372.95,-97.84 1251.49,-82.71 1181.3,-74.09"/>
<polygon fill="midnightblue" stroke="midnightblue" points="1508.99,-120.01 1519.39,-117.97 1509.99,-113.08 1508.99,-120.01"/>
</g>
<!-- Node12&#45;&gt;Node4 -->
<g id="edge19" class="edge">
<title>Node12&#45;&gt;Node4</title>
<path fill="none" stroke="midnightblue" d="M157.53,-116.63C170.9,-114.87 184.88,-113.21 198,-112 525,-81.74 919.03,-71.12 1064.97,-68.06"/>
<polygon fill="midnightblue" stroke="midnightblue" points="156.9,-113.18 147.46,-117.98 157.84,-120.12 156.9,-113.18"/>
</g>
<!-- Node13&#45;&gt;Node4 -->
<g id="edge21" class="edge">
<title>Node13&#45;&gt;Node4</title>
<path fill="none" stroke="midnightblue" d="M316.83,-176.29C298.21,-169.64 280.32,-159.24 269,-143 261.12,-131.7 259.52,-122 269,-112 296.38,-83.14 876.77,-71.06 1064.78,-67.89"/>
<polygon fill="midnightblue" stroke="midnightblue" points="316.01,-179.7 326.6,-179.43 318.16,-173.04 316.01,-179.7"/>
</g>
<!-- Node14&#45;&gt;Node15 -->
<g id="edge24" class="edge">
<title>Node14&#45;&gt;Node15</title>
<path fill="none" stroke="midnightblue" d="M595.47,-177.19C545.8,-165.64 468.11,-147.58 422.61,-137.01"/>
<polygon fill="midnightblue" stroke="midnightblue" points="594.79,-180.62 605.32,-179.48 596.37,-173.8 594.79,-180.62"/>
</g>
<!-- Node14&#45;&gt;Node16 -->
<g id="edge26" class="edge">
<title>Node14&#45;&gt;Node16</title>
<path fill="none" stroke="midnightblue" d="M635.83,-169.66C632.18,-158.77 627.71,-145.49 624.86,-137.01"/>
<polygon fill="midnightblue" stroke="midnightblue" points="632.63,-171.11 639.13,-179.48 639.27,-168.88 632.63,-171.11"/>
</g>
<!-- Node14&#45;&gt;Node17 -->
<g id="edge28" class="edge">
<title>Node14&#45;&gt;Node17</title>
<path fill="none" stroke="midnightblue" d="M678.78,-176.48C709.75,-166.78 754.18,-152.87 787.22,-142.52"/>
<polygon fill="midnightblue" stroke="midnightblue" points="677.72,-173.15 669.22,-179.48 679.81,-179.83 677.72,-173.15"/>
</g>
<!-- Node15&#45;&gt;Node4 -->
<g id="edge25" class="edge">
<title>Node15&#45;&gt;Node4</title>
<path fill="none" stroke="midnightblue" d="M460.21,-116.73C474.4,-115.02 489.15,-113.36 503,-112 709.22,-91.75 954.86,-76.56 1064.79,-70.23"/>
<polygon fill="midnightblue" stroke="midnightblue" points="459.5,-113.29 450,-117.97 460.35,-120.24 459.5,-113.29"/>
</g>
<!-- Node16&#45;&gt;Node4 -->
<g id="edge27" class="edge">
<title>Node16&#45;&gt;Node4</title>
<path fill="none" stroke="midnightblue" d="M701.24,-116.7C714.19,-115.12 727.47,-113.51 740,-112 855.16,-98.16 989.87,-82.44 1064.92,-73.73"/>
<polygon fill="midnightblue" stroke="midnightblue" points="700.44,-113.28 690.94,-117.97 701.29,-120.22 700.44,-113.28"/>
</g>
<!-- Node17&#45;&gt;Node4 -->
<g id="edge29" class="edge">
<title>Node17&#45;&gt;Node4</title>
<path fill="none" stroke="midnightblue" d="M910.67,-110.41C965.7,-99.16 1037.02,-84.58 1081.4,-75.51"/>
<polygon fill="midnightblue" stroke="midnightblue" points="909.69,-107.04 900.59,-112.47 911.09,-113.9 909.69,-107.04"/>
</g>
<!-- Node18&#45;&gt;Node4 -->
<g id="edge34" class="edge">
<title>Node18&#45;&gt;Node4</title>
<path fill="none" stroke="midnightblue" d="M922.91,-169.92C929.5,-152.56 941.83,-126.83 961,-112 990.78,-88.96 1031.68,-77.71 1064.94,-72.22"/>
<polygon fill="midnightblue" stroke="midnightblue" points="919.56,-168.89 919.53,-179.48 926.16,-171.22 919.56,-168.89"/>
</g>
<!-- Node19 -->
<g id="node19" class="node">
<title>Node19</title>
<g id="a_node19"><a xlink:href="NeumannNLFormIntegrator_8hpp.html" target="_top" xlink:title="Neumann integrator.">
<polygon fill="none" stroke="black" points="970.5,-118 970.5,-137 1155.5,-137 1155.5,-118 970.5,-118"/>
<text text-anchor="middle" x="1063" y="-125" font-family="serif" font-size="10.00">NeumannNLFormIntegrator.hpp</text>
</a>
</g>
</g>
<!-- Node18&#45;&gt;Node19 -->
<g id="edge35" class="edge">
<title>Node18&#45;&gt;Node19</title>
<path fill="none" stroke="midnightblue" d="M947.35,-175.63C975.71,-164.07 1017.31,-147.12 1042.12,-137.01"/>
<polygon fill="midnightblue" stroke="midnightblue" points="945.86,-172.46 937.92,-179.48 948.5,-178.94 945.86,-172.46"/>
</g>
<!-- Node19&#45;&gt;Node4 -->
<g id="edge36" class="edge">
<title>Node19&#45;&gt;Node4</title>
<path fill="none" stroke="midnightblue" d="M1078.81,-110.82C1090.21,-99.52 1105.16,-84.69 1114.42,-75.51"/>
<polygon fill="midnightblue" stroke="midnightblue" points="1076.23,-108.45 1071.6,-117.98 1081.16,-113.42 1076.23,-108.45"/>
</g>
<!-- Node20&#45;&gt;Node4 -->
<g id="edge38" class="edge">
<title>Node20&#45;&gt;Node4</title>
<path fill="none" stroke="midnightblue" d="M1132.83,-174.27C1144.74,-166.81 1157.4,-156.34 1164,-143 1170.11,-130.65 1168.98,-124.85 1164,-112 1158.12,-96.82 1144.48,-83.62 1134.54,-75.51"/>
<polygon fill="midnightblue" stroke="midnightblue" points="1130.88,-171.36 1123.98,-179.4 1134.39,-177.41 1130.88,-171.36"/>
</g>
<!-- Node21&#45;&gt;Node4 -->
<g id="edge41" class="edge">
<title>Node21&#45;&gt;Node4</title>
<path fill="none" stroke="midnightblue" d="M206.46,-170.4C216.28,-152.17 234.35,-124.62 259,-112 330.28,-75.5 882.34,-68.58 1064.73,-67.29"/>
<polygon fill="midnightblue" stroke="midnightblue" points="203.29,-168.92 201.86,-179.42 209.52,-172.1 203.29,-168.92"/>
</g>
<!-- Node21&#45;&gt;Node12 -->
<g id="edge40" class="edge">
<title>Node21&#45;&gt;Node12</title>
<path fill="none" stroke="midnightblue" d="M174.05,-174.56C153.54,-163.04 124.62,-146.81 107.16,-137.01"/>
<polygon fill="midnightblue" stroke="midnightblue" points="172.38,-177.63 182.81,-179.48 175.81,-171.53 172.38,-177.63"/>
</g>
<!-- Node23 -->
<g id="node23" class="node">
<title>Node23</title>
<g id="a_node23"><a xlink:href="SteadyOperator_8hpp.html" target="_top" xlink:title="Steady Operator.">
<polygon fill="none" stroke="black" points="2209,-118 2209,-137 2329,-137 2329,-118 2209,-118"/>
<text text-anchor="middle" x="2269" y="-125" font-family="serif" font-size="10.00">SteadyOperator.hpp</text>
</a>
</g>
</g>
<!-- Node22&#45;&gt;Node23 -->
<g id="edge43" class="edge">
<title>Node22&#45;&gt;Node23</title>
<path fill="none" stroke="midnightblue" d="M2282.14,-169.66C2278.67,-158.77 2274.42,-145.49 2271.72,-137.01"/>
<polygon fill="midnightblue" stroke="midnightblue" points="2278.9,-171.01 2285.28,-179.48 2285.57,-168.88 2278.9,-171.01"/>
</g>
<!-- Node26 -->
<g id="node26" class="node">
<title>Node26</title>
<g id="a_node26"><a xlink:href="TransientOperator_8hpp.html" target="_top" xlink:title="Transient Operator.">
<polygon fill="none" stroke="black" points="2347,-118 2347,-137 2481,-137 2481,-118 2347,-118"/>
<text text-anchor="middle" x="2414" y="-125" font-family="serif" font-size="10.00">TransientOperator.hpp</text>
</a>
</g>
</g>
<!-- Node22&#45;&gt;Node26 -->
<g id="edge46" class="edge">
<title>Node22&#45;&gt;Node26</title>
<path fill="none" stroke="midnightblue" d="M2315.16,-175.17C2339.61,-163.63 2374.85,-146.99 2395.98,-137.01"/>
<polygon fill="midnightblue" stroke="midnightblue" points="2313.6,-172.04 2306.05,-179.48 2316.59,-178.37 2313.6,-172.04"/>
</g>
<!-- Node24 -->
<g id="node24" class="node">
<title>Node24</title>
<g id="a_node24"><a xlink:href="ListOperators_8hpp.html" target="_top" xlink:title=" ">
<polygon fill="none" stroke="black" points="2286,-56.5 2286,-75.5 2396,-75.5 2396,-56.5 2286,-56.5"/>
<text text-anchor="middle" x="2341" y="-63.5" font-family="serif" font-size="10.00">ListOperators.hpp</text>
</a>
</g>
</g>
<!-- Node23&#45;&gt;Node24 -->
<g id="edge44" class="edge">
<title>Node23&#45;&gt;Node24</title>
<path fill="none" stroke="midnightblue" d="M2287.18,-111.47C2300.96,-100.09 2319.38,-84.87 2330.7,-75.51"/>
<polygon fill="midnightblue" stroke="midnightblue" points="2284.79,-108.91 2279.32,-117.98 2289.25,-114.3 2284.79,-108.91"/>
</g>
<!-- Node25 -->
<g id="node25" class="node">
<title>Node25</title>
<g id="a_node25"><a xlink:href="sloth_8hpp.html" target="_top" xlink:title="List of SLOTH header files.">
<polygon fill="none" stroke="black" points="2308.5,-0.5 2308.5,-19.5 2373.5,-19.5 2373.5,-0.5 2308.5,-0.5"/>
<text text-anchor="middle" x="2341" y="-7.5" font-family="serif" font-size="10.00">sloth.hpp</text>
</a>
</g>
</g>
<!-- Node24&#45;&gt;Node25 -->
<g id="edge45" class="edge">
<title>Node24&#45;&gt;Node25</title>
<path fill="none" stroke="midnightblue" d="M2341,-45.8C2341,-36.91 2341,-26.78 2341,-19.75"/>
<polygon fill="midnightblue" stroke="midnightblue" points="2337.5,-46.08 2341,-56.08 2344.5,-46.08 2337.5,-46.08"/>
</g>
<!-- Node26&#45;&gt;Node24 -->
<g id="edge47" class="edge">
<title>Node26&#45;&gt;Node24</title>
<path fill="none" stroke="midnightblue" d="M2395.56,-111.47C2381.6,-100.09 2362.92,-84.87 2351.44,-75.51"/>
<polygon fill="midnightblue" stroke="midnightblue" points="2393.58,-114.37 2403.54,-117.98 2398,-108.94 2393.58,-114.37"/>
</g>
</g>
</svg>
