<?xml version="1.0" encoding="UTF-8" standalone="no"?>
<!DOCTYPE svg PUBLIC "-//W3C//DTD SVG 1.1//EN"
 "http://www.w3.org/Graphics/SVG/1.1/DTD/svg11.dtd">
<!-- Generated by graphviz version 2.43.0 (0)
 -->
<!-- Title: SlothBaseCoefficient.hpp Pages: 1 -->
<svg width="3319pt" height="431pt"
 viewBox="0.00 0.00 3318.50 431.00" xmlns="http://www.w3.org/2000/svg" xmlns:xlink="http://www.w3.org/1999/xlink">
<g id="graph0" class="graph" transform="scale(1 1) rotate(0) translate(4 427)">
<title>SlothBaseCoefficient.hpp</title>
<!-- Node1 -->
<g id="node1" class="node">
<title>Node1</title>
<g id="a_node1"><a xlink:title="Base class definining a coefficient from an analytical formula.">
<polygon fill="#bfbfbf" stroke="black" points="2054.5,-403.5 2054.5,-422.5 2199.5,-422.5 2199.5,-403.5 2054.5,-403.5"/>
<text text-anchor="middle" x="2127" y="-410.5" font-family="serif" font-size="10.00">SlothBaseCoefficient.hpp</text>
</a>
</g>
</g>
<!-- Node2 -->
<g id="node2" class="node">
<title>Node2</title>
<g id="a_node2"><a xlink:href="Coefficient_8hpp.html" target="_top" xlink:title="Base class definining a coefficient from an analytical formula.">
<polygon fill="none" stroke="black" points="1595,-347.5 1595,-366.5 1689,-366.5 1689,-347.5 1595,-347.5"/>
<text text-anchor="middle" x="1642" y="-354.5" font-family="serif" font-size="10.00">Coefficient.hpp</text>
</a>
</g>
</g>
<!-- Node1&#45;&gt;Node2 -->
<g id="edge1" class="edge">
<title>Node1&#45;&gt;Node2</title>
<path fill="none" stroke="midnightblue" d="M2044.4,-402.8C1942.1,-391.41 1771.3,-372.4 1689.07,-363.24"/>
<polygon fill="midnightblue" stroke="midnightblue" points="2044.06,-406.29 2054.39,-403.92 2044.84,-399.33 2044.06,-406.29"/>
</g>
<!-- Node9 -->
<g id="node9" class="node">
<title>Node9</title>
<g id="a_node9"><a xlink:href="AllenCahnNLFormIntegrator_8hpp.html" target="_top" xlink:title="VF of the Allen Cahn equation.">
<polygon fill="none" stroke="black" points="3123.5,-179.5 3123.5,-198.5 3310.5,-198.5 3310.5,-179.5 3123.5,-179.5"/>
<text text-anchor="middle" x="3217" y="-186.5" font-family="serif" font-size="10.00">AllenCahnNLFormIntegrator.hpp</text>
</a>
</g>
</g>
<!-- Node1&#45;&gt;Node9 -->
<g id="edge71" class="edge">
<title>Node1&#45;&gt;Node9</title>
<path fill="none" stroke="midnightblue" d="M2160.84,-400.1C2202.05,-385.95 2273.96,-362.32 2337,-347 2639.74,-273.44 3008.82,-218.7 3154.03,-198.5"/>
<polygon fill="midnightblue" stroke="midnightblue" points="2159.61,-396.83 2151.3,-403.4 2161.89,-403.44 2159.61,-396.83"/>
</g>
<!-- Node11 -->
<g id="node11" class="node">
<title>Node11</title>
<g id="a_node11"><a xlink:href="BlockAllenCahnNLFormIntegrator_8hpp.html" target="_top" xlink:title="VF of the AllenCahn equations (splitted form)">
<polygon fill="none" stroke="black" points="1756.5,-179.5 1756.5,-198.5 1971.5,-198.5 1971.5,-179.5 1756.5,-179.5"/>
<text text-anchor="middle" x="1864" y="-186.5" font-family="serif" font-size="10.00">BlockAllenCahnNLFormIntegrator.hpp</text>
</a>
</g>
</g>
<!-- Node1&#45;&gt;Node11 -->
<g id="edge72" class="edge">
<title>Node1&#45;&gt;Node11</title>
<path fill="none" stroke="midnightblue" d="M2108.78,-396.62C2057.64,-353.45 1913.89,-232.11 1874.24,-198.64"/>
<polygon fill="midnightblue" stroke="midnightblue" points="2106.79,-399.52 2116.69,-403.3 2111.31,-394.17 2106.79,-399.52"/>
</g>
<!-- Node12 -->
<g id="node12" class="node">
<title>Node12</title>
<g id="a_node12"><a xlink:href="CahnHilliardNLFormIntegrator_8hpp.html" target="_top" xlink:title="VF of the CahnHilliard equations.">
<polygon fill="none" stroke="black" points="2282.5,-179.5 2282.5,-198.5 2481.5,-198.5 2481.5,-179.5 2282.5,-179.5"/>
<text text-anchor="middle" x="2382" y="-186.5" font-family="serif" font-size="10.00">CahnHilliardNLFormIntegrator.hpp</text>
</a>
</g>
</g>
<!-- Node1&#45;&gt;Node12 -->
<g id="edge73" class="edge">
<title>Node1&#45;&gt;Node12</title>
<path fill="none" stroke="midnightblue" d="M2127.88,-393.31C2130.62,-357.09 2141.99,-277.19 2189,-235 2207.63,-218.28 2267.43,-206.03 2315.58,-198.57"/>
<polygon fill="midnightblue" stroke="midnightblue" points="2124.37,-393.24 2127.25,-403.43 2131.36,-393.67 2124.37,-393.24"/>
</g>
<!-- Node13 -->
<g id="node13" class="node">
<title>Node13</title>
<g id="a_node13"><a xlink:href="DiffusionFluxNLFormIntegrator_8hpp.html" target="_top" xlink:title="inter&#45;diffusion integrator">
<polygon fill="none" stroke="black" points="2500,-179.5 2500,-198.5 2702,-198.5 2702,-179.5 2500,-179.5"/>
<text text-anchor="middle" x="2601" y="-186.5" font-family="serif" font-size="10.00">DiffusionFluxNLFormIntegrator.hpp</text>
</a>
</g>
</g>
<!-- Node1&#45;&gt;Node13 -->
<g id="edge74" class="edge">
<title>Node1&#45;&gt;Node13</title>
<path fill="none" stroke="midnightblue" d="M2134.65,-394.01C2152.47,-353.02 2197.42,-254.72 2227,-235 2238.82,-227.12 2406.88,-209.21 2513.65,-198.51"/>
<polygon fill="midnightblue" stroke="midnightblue" points="2131.39,-392.75 2130.65,-403.32 2137.82,-395.52 2131.39,-392.75"/>
</g>
<!-- Node15 -->
<g id="node15" class="node">
<title>Node15</title>
<g id="a_node15"><a xlink:href="DiffusionNLFormIntegrator_8hpp.html" target="_top" xlink:title="Nonlinear form integrator for diffusion&#45;type problems.">
<polygon fill="none" stroke="black" points="770.5,-179.5 770.5,-198.5 949.5,-198.5 949.5,-179.5 770.5,-179.5"/>
<text text-anchor="middle" x="860" y="-186.5" font-family="serif" font-size="10.00">DiffusionNLFormIntegrator.hpp</text>
</a>
</g>
</g>
<!-- Node1&#45;&gt;Node15 -->
<g id="edge75" class="edge">
<title>Node1&#45;&gt;Node15</title>
<path fill="none" stroke="midnightblue" d="M2044.12,-410.85C1926.22,-408.09 1703.66,-398.73 1517,-367 1265.74,-324.28 971.35,-227.85 884.98,-198.58"/>
<polygon fill="midnightblue" stroke="midnightblue" points="2044.08,-414.35 2054.16,-411.07 2044.24,-407.35 2044.08,-414.35"/>
</g>
<!-- Node19 -->
<g id="node19" class="node">
<title>Node19</title>
<g id="a_node19"><a xlink:href="LatentHeatNLFormIntegrator_8hpp.html" target="_top" xlink:title="Latent heat contribution for heat transfer equation.">
<polygon fill="none" stroke="black" points="2720.5,-179.5 2720.5,-198.5 2911.5,-198.5 2911.5,-179.5 2720.5,-179.5"/>
<text text-anchor="middle" x="2816" y="-186.5" font-family="serif" font-size="10.00">LatentHeatNLFormIntegrator.hpp</text>
</a>
</g>
</g>
<!-- Node1&#45;&gt;Node19 -->
<g id="edge76" class="edge">
<title>Node1&#45;&gt;Node19</title>
<path fill="none" stroke="midnightblue" d="M2140.58,-395.76C2147.64,-387.25 2156.36,-376.63 2164,-367 2209.91,-309.13 2200.14,-270.36 2265,-235 2352.3,-187.41 2611.91,-207.25 2711,-199 2714.1,-198.74 2717.25,-198.48 2720.43,-198.21"/>
<polygon fill="midnightblue" stroke="midnightblue" points="2137.89,-393.52 2134.18,-403.45 2143.27,-398 2137.89,-393.52"/>
</g>
<!-- Node20 -->
<g id="node20" class="node">
<title>Node20</title>
<g id="a_node20"><a xlink:href="MeltingBaseNLFormIntegrator_8hpp.html" target="_top" xlink:title="Base class for melting integrators.">
<polygon fill="none" stroke="black" points="2028,-179.5 2028,-198.5 2226,-198.5 2226,-179.5 2028,-179.5"/>
<text text-anchor="middle" x="2127" y="-186.5" font-family="serif" font-size="10.00">MeltingBaseNLFormIntegrator.hpp</text>
</a>
</g>
</g>
<!-- Node1&#45;&gt;Node20 -->
<g id="edge77" class="edge">
<title>Node1&#45;&gt;Node20</title>
<path fill="none" stroke="midnightblue" d="M2127,-393.3C2127,-347.64 2127,-231.85 2127,-198.88"/>
<polygon fill="midnightblue" stroke="midnightblue" points="2123.5,-393.3 2127,-403.3 2130.5,-393.3 2123.5,-393.3"/>
</g>
<!-- Node26 -->
<g id="node26" class="node">
<title>Node26</title>
<g id="a_node26"><a xlink:href="TimeCHNLFormIntegrator_8hpp.html" target="_top" xlink:title="VF of the time derivative for CH equations.">
<polygon fill="none" stroke="black" points="2930,-179.5 2930,-198.5 3106,-198.5 3106,-179.5 2930,-179.5"/>
<text text-anchor="middle" x="3018" y="-186.5" font-family="serif" font-size="10.00">TimeCHNLFormIntegrator.hpp</text>
</a>
</g>
</g>
<!-- Node1&#45;&gt;Node26 -->
<g id="edge78" class="edge">
<title>Node1&#45;&gt;Node26</title>
<path fill="none" stroke="midnightblue" d="M2147.55,-397.11C2158.71,-388.7 2172.53,-377.75 2184,-367 2241.65,-313 2231.8,-269.19 2303,-235 2365.01,-205.23 2852.41,-204.18 2921,-199 2923.95,-198.78 2926.95,-198.54 2929.98,-198.3"/>
<polygon fill="midnightblue" stroke="midnightblue" points="2145.22,-394.48 2139.27,-403.25 2149.39,-400.1 2145.22,-394.48"/>
</g>
<!-- Node27 -->
<g id="node27" class="node">
<title>Node27</title>
<g id="a_node27"><a xlink:href="TimeNLFormIntegrator_8hpp.html" target="_top" xlink:title="VF of the time derivative.">
<polygon fill="none" stroke="black" points="1043.5,-179.5 1043.5,-198.5 1202.5,-198.5 1202.5,-179.5 1043.5,-179.5"/>
<text text-anchor="middle" x="1123" y="-186.5" font-family="serif" font-size="10.00">TimeNLFormIntegrator.hpp</text>
</a>
</g>
</g>
<!-- Node1&#45;&gt;Node27 -->
<g id="edge79" class="edge">
<title>Node1&#45;&gt;Node27</title>
<path fill="none" stroke="midnightblue" d="M2044.22,-412.01C1937.19,-410.45 1745.56,-402.34 1586,-367 1515.71,-351.43 1501.33,-336.5 1434,-311 1325.1,-269.76 1195.48,-218.69 1144.82,-198.64"/>
<polygon fill="midnightblue" stroke="midnightblue" points="2044.27,-415.51 2054.32,-412.14 2044.36,-408.51 2044.27,-415.51"/>
</g>
<!-- Node40 -->
<g id="node40" class="node">
<title>Node40</title>
<g id="a_node40"><a xlink:href="Coefficient_8cpp.html" target="_top" xlink:title="Base class definining a coefficient from an analytical formula.">
<polygon fill="none" stroke="black" points="1850,-291.5 1850,-310.5 1942,-310.5 1942,-291.5 1850,-291.5"/>
<text text-anchor="middle" x="1896" y="-298.5" font-family="serif" font-size="10.00">Coefficient.cpp</text>
</a>
</g>
</g>
<!-- Node1&#45;&gt;Node40 -->
<g id="edge80" class="edge">
<title>Node1&#45;&gt;Node40</title>
<path fill="none" stroke="midnightblue" d="M2099.74,-399.02C2051.97,-376.27 1954.36,-329.79 1914.04,-310.59"/>
<polygon fill="midnightblue" stroke="midnightblue" points="2098.34,-402.23 2108.87,-403.37 2101.35,-395.91 2098.34,-402.23"/>
</g>
<!-- Node41 -->
<g id="node41" class="node">
<title>Node41</title>
<g id="a_node41"><a xlink:href="SlothBaseCoefficient_8cpp.html" target="_top" xlink:title="Base class definining a coefficient from an analytical formula.">
<polygon fill="none" stroke="black" points="2345.5,-347.5 2345.5,-366.5 2488.5,-366.5 2488.5,-347.5 2345.5,-347.5"/>
<text text-anchor="middle" x="2417" y="-354.5" font-family="serif" font-size="10.00">SlothBaseCoefficient.cpp</text>
</a>
</g>
</g>
<!-- Node1&#45;&gt;Node41 -->
<g id="edge81" class="edge">
<title>Node1&#45;&gt;Node41</title>
<path fill="none" stroke="midnightblue" d="M2182.85,-401.6C2237.65,-391.4 2320.23,-376.02 2371.26,-366.52"/>
<polygon fill="midnightblue" stroke="midnightblue" points="2182.14,-398.17 2172.95,-403.44 2183.42,-405.05 2182.14,-398.17"/>
</g>
<!-- Node3 -->
<g id="node3" class="node">
<title>Node3</title>
<g id="a_node3"><a xlink:href="KKS_8hpp.html" target="_top" xlink:title="All needed for Calphad calculation including KKS model.">
<polygon fill="none" stroke="black" points="189,-291.5 189,-310.5 251,-310.5 251,-291.5 189,-291.5"/>
<text text-anchor="middle" x="220" y="-298.5" font-family="serif" font-size="10.00">KKS.hpp</text>
</a>
</g>
</g>
<!-- Node2&#45;&gt;Node3 -->
<g id="edge2" class="edge">
<title>Node2&#45;&gt;Node3</title>
<path fill="none" stroke="midnightblue" d="M1584.46,-353.82C1345.1,-344.73 432.26,-310.06 251.29,-303.19"/>
<polygon fill="midnightblue" stroke="midnightblue" points="1584.56,-357.32 1594.69,-354.2 1584.83,-350.33 1584.56,-357.32"/>
</g>
<!-- Node5 -->
<g id="node5" class="node">
<title>Node5</title>
<g id="a_node5"><a xlink:href="Coefficients_8hpp.html" target="_top" xlink:title="Coefficients class used to build and manage a collection of Coefficient.">
<polygon fill="none" stroke="black" points="1443.5,-291.5 1443.5,-310.5 1542.5,-310.5 1542.5,-291.5 1443.5,-291.5"/>
<text text-anchor="middle" x="1493" y="-298.5" font-family="serif" font-size="10.00">Coefficients.hpp</text>
</a>
</g>
</g>
<!-- Node2&#45;&gt;Node5 -->
<g id="edge4" class="edge">
<title>Node2&#45;&gt;Node5</title>
<path fill="none" stroke="midnightblue" d="M1608.63,-343.91C1580.62,-333.75 1541.3,-319.51 1516.5,-310.52"/>
<polygon fill="midnightblue" stroke="midnightblue" points="1607.8,-347.33 1618.39,-347.44 1610.18,-340.75 1607.8,-347.33"/>
</g>
<!-- Node7 -->
<g id="node7" class="node">
<title>Node7</title>
<g id="a_node7"><a xlink:href="SlothNLFormIntegrator_8hpp.html" target="_top" xlink:title="Class prodiving common methods to all NLFormIntegrators.">
<polygon fill="none" stroke="black" points="1636,-235.5 1636,-254.5 1796,-254.5 1796,-235.5 1636,-235.5"/>
<text text-anchor="middle" x="1716" y="-242.5" font-family="serif" font-size="10.00">SlothNLFormIntegrator.hpp</text>
</a>
</g>
</g>
<!-- Node2&#45;&gt;Node7 -->
<g id="edge68" class="edge">
<title>Node2&#45;&gt;Node7</title>
<path fill="none" stroke="midnightblue" d="M1653.47,-338.96C1669.5,-315.12 1698.03,-272.71 1710.22,-254.59"/>
<polygon fill="midnightblue" stroke="midnightblue" points="1650.48,-337.12 1647.81,-347.37 1656.29,-341.02 1650.48,-337.12"/>
</g>
<!-- Node39 -->
<g id="node39" class="node">
<title>Node39</title>
<g id="a_node39"><a xlink:href="Coefficients_8cpp.html" target="_top" xlink:title="Coefficients class used to build and manage a collection of Coefficient.">
<polygon fill="none" stroke="black" points="1520,-235.5 1520,-254.5 1618,-254.5 1618,-235.5 1520,-235.5"/>
<text text-anchor="middle" x="1569" y="-242.5" font-family="serif" font-size="10.00">Coefficients.cpp</text>
</a>
</g>
</g>
<!-- Node2&#45;&gt;Node39 -->
<g id="edge70" class="edge">
<title>Node2&#45;&gt;Node39</title>
<path fill="none" stroke="midnightblue" d="M1630.69,-338.96C1614.87,-315.12 1586.72,-272.71 1574.7,-254.59"/>
<polygon fill="midnightblue" stroke="midnightblue" points="1627.83,-340.97 1636.27,-347.37 1633.66,-337.1 1627.83,-340.97"/>
</g>
<!-- Node2&#45;&gt;Node40 -->
<g id="edge69" class="edge">
<title>Node2&#45;&gt;Node40</title>
<path fill="none" stroke="midnightblue" d="M1692.12,-345.35C1740.12,-335.14 1811.62,-319.94 1855.94,-310.52"/>
<polygon fill="midnightblue" stroke="midnightblue" points="1691.3,-341.94 1682.25,-347.44 1692.76,-348.79 1691.3,-341.94"/>
</g>
<!-- Node4 -->
<g id="node4" class="node">
<title>Node4</title>
<g id="a_node4"><a xlink:href="sloth_8hpp.html" target="_top" xlink:title="List of SLOTH header files.">
<polygon fill="none" stroke="black" points="97.5,-0.5 97.5,-19.5 162.5,-19.5 162.5,-0.5 97.5,-0.5"/>
<text text-anchor="middle" x="130" y="-7.5" font-family="serif" font-size="10.00">sloth.hpp</text>
</a>
</g>
</g>
<!-- Node3&#45;&gt;Node4 -->
<g id="edge3" class="edge">
<title>Node3&#45;&gt;Node4</title>
<path fill="none" stroke="midnightblue" d="M178.82,-297.56C115.13,-291.31 0,-269.08 0,-190 0,-190 0,-190 0,-126.5 0,-92.09 7.72,-80.38 32,-56 49.96,-37.96 76.5,-26.38 97.43,-19.5"/>
<polygon fill="midnightblue" stroke="midnightblue" points="178.67,-301.06 188.95,-298.46 179.3,-294.09 178.67,-301.06"/>
</g>
<!-- Node6 -->
<g id="node6" class="node">
<title>Node6</title>
<g id="a_node6"><a xlink:href="MfemCoefficient_8hpp.html" target="_top" xlink:title="Built a MFEM Coefficient from a SLOTH Coefficient.">
<polygon fill="none" stroke="black" points="1378,-235.5 1378,-254.5 1502,-254.5 1502,-235.5 1378,-235.5"/>
<text text-anchor="middle" x="1440" y="-242.5" font-family="serif" font-size="10.00">MfemCoefficient.hpp</text>
</a>
</g>
</g>
<!-- Node5&#45;&gt;Node6 -->
<g id="edge5" class="edge">
<title>Node5&#45;&gt;Node6</title>
<path fill="none" stroke="midnightblue" d="M1477.02,-283.72C1467.68,-274.2 1456.25,-262.56 1448.59,-254.75"/>
<polygon fill="midnightblue" stroke="midnightblue" points="1474.75,-286.4 1484.25,-291.08 1479.74,-281.49 1474.75,-286.4"/>
</g>
<!-- Node5&#45;&gt;Node7 -->
<g id="edge6" class="edge">
<title>Node5&#45;&gt;Node7</title>
<path fill="none" stroke="midnightblue" d="M1538.06,-289.09C1580.19,-278.89 1642.24,-263.86 1680.83,-254.52"/>
<polygon fill="midnightblue" stroke="midnightblue" points="1537.23,-285.69 1528.34,-291.44 1538.88,-292.49 1537.23,-285.69"/>
</g>
<!-- Node28 -->
<g id="node28" class="node">
<title>Node28</title>
<g id="a_node28"><a xlink:href="OperatorBase_8hpp.html" target="_top" xlink:title="Base class for building Steady and TimeDependent PhaseFieldOperators.">
<polygon fill="none" stroke="black" points="642,-179.5 642,-198.5 752,-198.5 752,-179.5 642,-179.5"/>
<text text-anchor="middle" x="697" y="-186.5" font-family="serif" font-size="10.00">OperatorBase.hpp</text>
</a>
</g>
</g>
<!-- Node5&#45;&gt;Node28 -->
<g id="edge54" class="edge">
<title>Node5&#45;&gt;Node28</title>
<path fill="none" stroke="midnightblue" d="M1439.74,-289.5C1367.37,-275.52 1233.82,-250.73 1119,-235 960.57,-213.29 919.76,-218.14 761,-199 758.1,-198.65 755.14,-198.28 752.14,-197.89"/>
<polygon fill="midnightblue" stroke="midnightblue" points="1439.48,-293.02 1449.96,-291.48 1440.81,-286.14 1439.48,-293.02"/>
</g>
<!-- Node32 -->
<g id="node32" class="node">
<title>Node32</title>
<g id="a_node32"><a xlink:href="ProblemBase_8hpp.html" target="_top" xlink:title="Base class for building Problems.">
<polygon fill="none" stroke="black" points="262.5,-179.5 262.5,-198.5 369.5,-198.5 369.5,-179.5 262.5,-179.5"/>
<text text-anchor="middle" x="316" y="-186.5" font-family="serif" font-size="10.00">ProblemBase.hpp</text>
</a>
</g>
</g>
<!-- Node5&#45;&gt;Node32 -->
<g id="edge55" class="edge">
<title>Node5&#45;&gt;Node32</title>
<path fill="none" stroke="midnightblue" d="M1432.95,-294.39C1228.8,-275.31 563.44,-213.12 369.5,-195"/>
<polygon fill="midnightblue" stroke="midnightblue" points="1432.9,-297.9 1443.18,-295.34 1433.55,-290.93 1432.9,-297.9"/>
</g>
<!-- Node5&#45;&gt;Node39 -->
<g id="edge67" class="edge">
<title>Node5&#45;&gt;Node39</title>
<path fill="none" stroke="midnightblue" d="M1513.58,-285.38C1527.31,-275.62 1544.93,-263.11 1556.57,-254.83"/>
<polygon fill="midnightblue" stroke="midnightblue" points="1511.34,-282.68 1505.21,-291.32 1515.39,-288.38 1511.34,-282.68"/>
</g>
<!-- Node8 -->
<g id="node8" class="node">
<title>Node8</title>
<g id="a_node8"><a xlink:href="AllenCahnGrainsNLFormIntegrator_8hpp.html" target="_top" xlink:title="VF for Allen&#45;Cahn equation solved in a polycrystal.">
<polygon fill="none" stroke="black" points="1220.5,-179.5 1220.5,-198.5 1441.5,-198.5 1441.5,-179.5 1220.5,-179.5"/>
<text text-anchor="middle" x="1331" y="-186.5" font-family="serif" font-size="10.00">AllenCahnGrainsNLFormIntegrator.hpp</text>
</a>
</g>
</g>
<!-- Node7&#45;&gt;Node8 -->
<g id="edge7" class="edge">
<title>Node7&#45;&gt;Node8</title>
<path fill="none" stroke="midnightblue" d="M1645,-234.04C1572.29,-223.84 1460.45,-208.16 1391.72,-198.52"/>
<polygon fill="midnightblue" stroke="midnightblue" points="1644.61,-237.52 1655,-235.44 1645.58,-230.59 1644.61,-237.52"/>
</g>
<!-- Node7&#45;&gt;Node9 -->
<g id="edge8" class="edge">
<title>Node7&#45;&gt;Node9</title>
<path fill="none" stroke="midnightblue" d="M1806.44,-242.84C2029.11,-239.6 2621.62,-228.68 3115,-199 3117.75,-198.83 3120.54,-198.66 3123.36,-198.47"/>
<polygon fill="midnightblue" stroke="midnightblue" points="1806.07,-239.34 1796.12,-242.99 1806.17,-246.34 1806.07,-239.34"/>
</g>
<!-- Node10 -->
<g id="node10" class="node">
<title>Node10</title>
<g id="a_node10"><a xlink:href="ListIntegrators_8hpp.html" target="_top" xlink:title="List of header files contained in the Integrators directory.">
<polygon fill="none" stroke="black" points="1798,-56.5 1798,-75.5 1914,-75.5 1914,-56.5 1798,-56.5"/>
<text text-anchor="middle" x="1856" y="-63.5" font-family="serif" font-size="10.00">ListIntegrators.hpp</text>
</a>
</g>
</g>
<!-- Node7&#45;&gt;Node10 -->
<g id="edge28" class="edge">
<title>Node7&#45;&gt;Node10</title>
<path fill="none" stroke="midnightblue" d="M1708.33,-225.64C1698.16,-198.05 1684.18,-145.55 1709,-112 1729.32,-84.53 1766.07,-73.28 1797.74,-68.9"/>
<polygon fill="midnightblue" stroke="midnightblue" points="1705.18,-227.18 1712.09,-235.21 1711.69,-224.62 1705.18,-227.18"/>
</g>
<!-- Node7&#45;&gt;Node11 -->
<g id="edge10" class="edge">
<title>Node7&#45;&gt;Node11</title>
<path fill="none" stroke="midnightblue" d="M1749.15,-231.91C1776.97,-221.75 1816.02,-207.51 1840.66,-198.52"/>
<polygon fill="midnightblue" stroke="midnightblue" points="1747.65,-228.73 1739.45,-235.44 1750.04,-235.3 1747.65,-228.73"/>
</g>
<!-- Node7&#45;&gt;Node12 -->
<g id="edge12" class="edge">
<title>Node7&#45;&gt;Node12</title>
<path fill="none" stroke="midnightblue" d="M1806.24,-236.68C1930.44,-226.61 2153.3,-208.54 2282.29,-198.08"/>
<polygon fill="midnightblue" stroke="midnightblue" points="1805.69,-233.22 1796,-237.51 1806.25,-240.19 1805.69,-233.22"/>
</g>
<!-- Node7&#45;&gt;Node13 -->
<g id="edge14" class="edge">
<title>Node7&#45;&gt;Node13</title>
<path fill="none" stroke="midnightblue" d="M1806.24,-239.45C1950.83,-232.01 2243.34,-216.32 2491,-199 2493.87,-198.8 2496.78,-198.59 2499.71,-198.38"/>
<polygon fill="midnightblue" stroke="midnightblue" points="1805.9,-235.97 1796.09,-239.98 1806.26,-242.96 1805.9,-235.97"/>
</g>
<!-- Node7&#45;&gt;Node15 -->
<g id="edge17" class="edge">
<title>Node7&#45;&gt;Node15</title>
<path fill="none" stroke="midnightblue" d="M1625.83,-234.95C1331.09,-212.32 1255.07,-219.49 964,-199 959.3,-198.67 954.48,-198.31 949.62,-197.94"/>
<polygon fill="midnightblue" stroke="midnightblue" points="1625.72,-238.45 1635.96,-235.73 1626.26,-231.47 1625.72,-238.45"/>
</g>
<!-- Node16 -->
<g id="node16" class="node">
<title>Node16</title>
<g id="a_node16"><a xlink:href="FickNLFormIntegrator_8hpp.html" target="_top" xlink:title="FV for the mass diffusion equation.">
<polygon fill="none" stroke="black" points="1026.5,-118 1026.5,-137 1181.5,-137 1181.5,-118 1026.5,-118"/>
<text text-anchor="middle" x="1104" y="-125" font-family="serif" font-size="10.00">FickNLFormIntegrator.hpp</text>
</a>
</g>
</g>
<!-- Node7&#45;&gt;Node16 -->
<g id="edge22" class="edge">
<title>Node7&#45;&gt;Node16</title>
<path fill="none" stroke="midnightblue" d="M1625.69,-235.16C1525.13,-230.91 1077.52,-245.24 1034,-199 1012.49,-176.14 1056.94,-150.15 1084.44,-137.04"/>
<polygon fill="midnightblue" stroke="midnightblue" points="1625.77,-238.67 1635.96,-235.75 1626.18,-231.68 1625.77,-238.67"/>
</g>
<!-- Node17 -->
<g id="node17" class="node">
<title>Node17</title>
<g id="a_node17"><a xlink:href="FourierNLFormIntegrator_8hpp.html" target="_top" xlink:title="FV for the heat transfer equation.">
<polygon fill="none" stroke="black" points="837.5,-118 837.5,-137 1008.5,-137 1008.5,-118 837.5,-118"/>
<text text-anchor="middle" x="923" y="-125" font-family="serif" font-size="10.00">FourierNLFormIntegrator.hpp</text>
</a>
</g>
</g>
<!-- Node7&#45;&gt;Node17 -->
<g id="edge23" class="edge">
<title>Node7&#45;&gt;Node17</title>
<path fill="none" stroke="midnightblue" d="M1625.61,-234.99C1477.51,-225.09 1148.72,-241.69 1025,-199 986.13,-185.59 948.48,-152.95 931.87,-137.23"/>
<polygon fill="midnightblue" stroke="midnightblue" points="1625.73,-238.51 1635.96,-235.75 1626.24,-231.53 1625.73,-238.51"/>
</g>
<!-- Node18 -->
<g id="node18" class="node">
<title>Node18</title>
<g id="a_node18"><a xlink:href="HeatTimeNLFormIntegrator_8hpp.html" target="_top" xlink:title="VF of the time derivative.">
<polygon fill="none" stroke="black" points="1238,-118 1238,-137 1422,-137 1422,-118 1238,-118"/>
<text text-anchor="middle" x="1330" y="-125" font-family="serif" font-size="10.00">HeatTimeNLFormIntegrator.hpp</text>
</a>
</g>
</g>
<!-- Node7&#45;&gt;Node18 -->
<g id="edge24" class="edge">
<title>Node7&#45;&gt;Node18</title>
<path fill="none" stroke="midnightblue" d="M1637.25,-233.91C1592.91,-226.86 1536.97,-215.69 1489,-199 1470.6,-192.6 1467.66,-187.23 1450,-179 1416.2,-163.25 1376.12,-146.82 1351.89,-137.13"/>
<polygon fill="midnightblue" stroke="midnightblue" points="1636.98,-237.41 1647.4,-235.48 1638.05,-230.49 1636.98,-237.41"/>
</g>
<!-- Node7&#45;&gt;Node19 -->
<g id="edge26" class="edge">
<title>Node7&#45;&gt;Node19</title>
<path fill="none" stroke="midnightblue" d="M1806.2,-241.14C1980.93,-235.33 2377.71,-220.81 2711,-199 2714.1,-198.8 2717.26,-198.58 2720.44,-198.36"/>
<polygon fill="midnightblue" stroke="midnightblue" points="1805.9,-237.65 1796.02,-241.48 1806.13,-244.64 1805.9,-237.65"/>
</g>
<!-- Node7&#45;&gt;Node20 -->
<g id="edge29" class="edge">
<title>Node7&#45;&gt;Node20</title>
<path fill="none" stroke="midnightblue" d="M1791.32,-234.1C1868.93,-223.91 1988.66,-208.18 2062.18,-198.52"/>
<polygon fill="midnightblue" stroke="midnightblue" points="1790.58,-230.67 1781.12,-235.44 1791.49,-237.61 1790.58,-230.67"/>
</g>
<!-- Node21 -->
<g id="node21" class="node">
<title>Node21</title>
<g id="a_node21"><a xlink:href="MeltingCalphadNLFormIntegrator_8hpp.html" target="_top" xlink:title="NonlinearFormIntegrator for ad&#45;hoc melting term based on temperature.">
<polygon fill="none" stroke="black" points="1940,-118 1940,-137 2156,-137 2156,-118 1940,-118"/>
<text text-anchor="middle" x="2048" y="-125" font-family="serif" font-size="10.00">MeltingCalphadNLFormIntegrator.hpp</text>
</a>
</g>
</g>
<!-- Node7&#45;&gt;Node21 -->
<g id="edge36" class="edge">
<title>Node7&#45;&gt;Node21</title>
<path fill="none" stroke="midnightblue" d="M1806.22,-242.54C1859.44,-238.38 1926.61,-227.21 1980,-199 2008.57,-183.9 2032.19,-152.38 2042.47,-137.13"/>
<polygon fill="midnightblue" stroke="midnightblue" points="1805.83,-239.06 1796.11,-243.26 1806.33,-246.04 1805.83,-239.06"/>
</g>
<!-- Node22 -->
<g id="node22" class="node">
<title>Node22</title>
<g id="a_node22"><a xlink:href="MeltingConstantNLFormIntegrator_8hpp.html" target="_top" xlink:title="NonlinearFormIntegrator for ad&#45;hoc constant melting term.">
<polygon fill="none" stroke="black" points="2174.5,-118 2174.5,-137 2393.5,-137 2393.5,-118 2174.5,-118"/>
<text text-anchor="middle" x="2284" y="-125" font-family="serif" font-size="10.00">MeltingConstantNLFormIntegrator.hpp</text>
</a>
</g>
</g>
<!-- Node7&#45;&gt;Node22 -->
<g id="edge37" class="edge">
<title>Node7&#45;&gt;Node22</title>
<path fill="none" stroke="midnightblue" d="M1806.38,-240.32C1945.24,-234.05 2198.9,-219.91 2235,-199 2259.51,-184.81 2274.63,-152.85 2280.8,-137.31"/>
<polygon fill="midnightblue" stroke="midnightblue" points="1806.01,-236.84 1796.17,-240.78 1806.32,-243.83 1806.01,-236.84"/>
</g>
<!-- Node23 -->
<g id="node23" class="node">
<title>Node23</title>
<g id="a_node23"><a xlink:href="MeltingTemperatureNLFormIntegrator_8hpp.html" target="_top" xlink:title="NonlinearFormIntegrator for ad&#45;hoc melting term based on temperature.">
<polygon fill="none" stroke="black" points="1718.5,-112.5 1718.5,-142.5 1883.5,-142.5 1883.5,-112.5 1718.5,-112.5"/>
<text text-anchor="start" x="1726.5" y="-130.5" font-family="serif" font-size="10.00">MeltingTemperatureNLForm</text>
<text text-anchor="middle" x="1801" y="-119.5" font-family="serif" font-size="10.00">Integrator.hpp</text>
</a>
</g>
</g>
<!-- Node7&#45;&gt;Node23 -->
<g id="edge38" class="edge">
<title>Node7&#45;&gt;Node23</title>
<path fill="none" stroke="midnightblue" d="M1722.55,-225.79C1727.93,-212.18 1736.39,-193.49 1747,-179 1757.16,-165.12 1771.48,-151.94 1782.82,-142.52"/>
<polygon fill="midnightblue" stroke="midnightblue" points="1719.16,-224.86 1718.9,-235.45 1725.71,-227.33 1719.16,-224.86"/>
</g>
<!-- Node24 -->
<g id="node24" class="node">
<title>Node24</title>
<g id="a_node24"><a xlink:href="RobinNLFormIntegrator_8hpp.html" target="_top" xlink:title="Robin integrator.">
<polygon fill="none" stroke="black" points="1498,-179.5 1498,-198.5 1662,-198.5 1662,-179.5 1498,-179.5"/>
<text text-anchor="middle" x="1580" y="-186.5" font-family="serif" font-size="10.00">RobinNLFormIntegrator.hpp</text>
</a>
</g>
</g>
<!-- Node7&#45;&gt;Node24 -->
<g id="edge39" class="edge">
<title>Node7&#45;&gt;Node24</title>
<path fill="none" stroke="midnightblue" d="M1684.87,-231.64C1659.34,-221.5 1623.89,-207.43 1601.45,-198.52"/>
<polygon fill="midnightblue" stroke="midnightblue" points="1683.86,-235.01 1694.45,-235.44 1686.45,-228.5 1683.86,-235.01"/>
</g>
<!-- Node7&#45;&gt;Node26 -->
<g id="edge43" class="edge">
<title>Node7&#45;&gt;Node26</title>
<path fill="none" stroke="midnightblue" d="M1806.29,-242.33C2006.92,-238.25 2504.94,-226.05 2921,-199 2923.95,-198.81 2926.96,-198.6 2929.99,-198.38"/>
<polygon fill="midnightblue" stroke="midnightblue" points="1806.03,-238.84 1796.1,-242.54 1806.17,-245.83 1806.03,-238.84"/>
</g>
<!-- Node7&#45;&gt;Node27 -->
<g id="edge45" class="edge">
<title>Node7&#45;&gt;Node27</title>
<path fill="none" stroke="midnightblue" d="M1625.87,-234.91C1440.56,-217.62 1392.51,-216.13 1211,-199 1208.25,-198.74 1205.45,-198.47 1202.62,-198.2"/>
<polygon fill="midnightblue" stroke="midnightblue" points="1625.67,-238.4 1635.95,-235.85 1626.32,-231.43 1625.67,-238.4"/>
</g>
<!-- Node7&#45;&gt;Node28 -->
<g id="edge48" class="edge">
<title>Node7&#45;&gt;Node28</title>
<path fill="none" stroke="midnightblue" d="M1625.95,-234.97C1241.06,-208.05 1141.36,-233.57 761,-199 758.09,-198.74 755.12,-198.43 752.12,-198.1"/>
<polygon fill="midnightblue" stroke="midnightblue" points="1625.74,-238.47 1635.97,-235.68 1626.24,-231.48 1625.74,-238.47"/>
</g>
<!-- Node9&#45;&gt;Node10 -->
<g id="edge9" class="edge">
<title>Node9&#45;&gt;Node10</title>
<path fill="none" stroke="midnightblue" d="M3172.1,-177.06C3099.74,-159.92 2952.63,-127.16 2826,-112 2482.02,-70.81 2065.24,-66.75 1914.19,-66.75"/>
<polygon fill="midnightblue" stroke="midnightblue" points="3171.68,-180.55 3182.22,-179.47 3173.3,-173.75 3171.68,-180.55"/>
</g>
<!-- Node11&#45;&gt;Node10 -->
<g id="edge11" class="edge">
<title>Node11&#45;&gt;Node10</title>
<path fill="none" stroke="midnightblue" d="M1877.51,-171.3C1883.17,-163.25 1889.1,-153.16 1892,-143 1895.79,-129.75 1896.56,-125 1892,-112 1886.9,-97.46 1874.91,-84.13 1866.16,-75.81"/>
<polygon fill="midnightblue" stroke="midnightblue" points="1874.62,-169.31 1871.41,-179.41 1880.22,-173.52 1874.62,-169.31"/>
</g>
<!-- Node12&#45;&gt;Node10 -->
<g id="edge13" class="edge">
<title>Node12&#45;&gt;Node10</title>
<path fill="none" stroke="midnightblue" d="M2394.84,-170.85C2405.88,-153.87 2417.87,-128.14 2403,-112 2370.4,-76.61 2048.67,-69.05 1914.4,-67.44"/>
<polygon fill="midnightblue" stroke="midnightblue" points="2391.82,-169.06 2388.98,-179.26 2397.57,-173.06 2391.82,-169.06"/>
</g>
<!-- Node14 -->
<g id="node14" class="node">
<title>Node14</title>
<g id="a_node14"><a xlink:href="MassDiffusionFluxNLFormIntegrator_8hpp.html" target="_top" xlink:title="Class dedicated to the VF of diffusion flux (gradient of chemical potential) used in mass balance equ...">
<polygon fill="none" stroke="black" points="2468.5,-118 2468.5,-137 2697.5,-137 2697.5,-118 2468.5,-118"/>
<text text-anchor="middle" x="2583" y="-125" font-family="serif" font-size="10.00">MassDiffusionFluxNLFormIntegrator.hpp</text>
</a>
</g>
</g>
<!-- Node13&#45;&gt;Node14 -->
<g id="edge15" class="edge">
<title>Node13&#45;&gt;Node14</title>
<path fill="none" stroke="midnightblue" d="M2595.45,-169.66C2592.16,-158.77 2588.14,-145.49 2585.57,-137.01"/>
<polygon fill="midnightblue" stroke="midnightblue" points="2592.18,-170.92 2598.42,-179.48 2598.88,-168.89 2592.18,-170.92"/>
</g>
<!-- Node14&#45;&gt;Node10 -->
<g id="edge16" class="edge">
<title>Node14&#45;&gt;Node10</title>
<path fill="none" stroke="midnightblue" d="M2489.48,-116.98C2471.73,-115.26 2453.3,-113.52 2436,-112 2245.1,-95.18 2018.54,-78.57 1914.07,-71.1"/>
<polygon fill="midnightblue" stroke="midnightblue" points="2489.55,-120.5 2499.85,-117.99 2490.23,-113.54 2489.55,-120.5"/>
</g>
<!-- Node15&#45;&gt;Node16 -->
<g id="edge18" class="edge">
<title>Node15&#45;&gt;Node16</title>
<path fill="none" stroke="midnightblue" d="M904.94,-177.04C952.31,-165.49 1025.92,-147.54 1069.11,-137.01"/>
<polygon fill="midnightblue" stroke="midnightblue" points="903.85,-173.71 894.96,-179.48 905.5,-180.51 903.85,-173.71"/>
</g>
<!-- Node15&#45;&gt;Node17 -->
<g id="edge20" class="edge">
<title>Node15&#45;&gt;Node17</title>
<path fill="none" stroke="midnightblue" d="M876.6,-172.32C888.57,-161.02 904.27,-146.19 913.99,-137.01"/>
<polygon fill="midnightblue" stroke="midnightblue" points="873.89,-170.06 869.03,-179.48 878.7,-175.15 873.89,-170.06"/>
</g>
<!-- Node16&#45;&gt;Node10 -->
<g id="edge19" class="edge">
<title>Node16&#45;&gt;Node10</title>
<path fill="none" stroke="midnightblue" d="M1162.98,-116.41C1173.94,-114.77 1185.3,-113.21 1196,-112 1417.41,-87.05 1682.27,-74.07 1797.57,-69.25"/>
<polygon fill="midnightblue" stroke="midnightblue" points="1162.42,-112.96 1153.07,-117.94 1163.49,-119.88 1162.42,-112.96"/>
</g>
<!-- Node17&#45;&gt;Node10 -->
<g id="edge21" class="edge">
<title>Node17&#45;&gt;Node10</title>
<path fill="none" stroke="midnightblue" d="M982.14,-116.46C993.67,-114.76 1005.69,-113.17 1017,-112 1309.36,-81.69 1661.28,-71.21 1797.87,-68.13"/>
<polygon fill="midnightblue" stroke="midnightblue" points="981.52,-113.01 972.15,-117.97 982.57,-119.94 981.52,-113.01"/>
</g>
<!-- Node18&#45;&gt;Node10 -->
<g id="edge25" class="edge">
<title>Node18&#45;&gt;Node10</title>
<path fill="none" stroke="midnightblue" d="M1399.93,-116.64C1411.96,-115.03 1424.33,-113.42 1436,-112 1565.03,-96.27 1716.73,-80.75 1797.85,-72.69"/>
<polygon fill="midnightblue" stroke="midnightblue" points="1399.38,-113.18 1389.94,-117.99 1400.32,-120.12 1399.38,-113.18"/>
</g>
<!-- Node19&#45;&gt;Node10 -->
<g id="edge27" class="edge">
<title>Node19&#45;&gt;Node10</title>
<path fill="none" stroke="midnightblue" d="M2799.83,-172.26C2779.88,-153.99 2744.04,-124.72 2707,-112 2632.58,-86.44 2094.11,-72.28 1914.29,-68.23"/>
<polygon fill="midnightblue" stroke="midnightblue" points="2797.68,-175.05 2807.36,-179.34 2802.47,-169.95 2797.68,-175.05"/>
</g>
<!-- Node20&#45;&gt;Node21 -->
<g id="edge30" class="edge">
<title>Node20&#45;&gt;Node21</title>
<path fill="none" stroke="midnightblue" d="M2107.47,-173.29C2092.32,-161.88 2071.84,-146.46 2059.3,-137.01"/>
<polygon fill="midnightblue" stroke="midnightblue" points="2105.59,-176.25 2115.68,-179.48 2109.8,-170.66 2105.59,-176.25"/>
</g>
<!-- Node20&#45;&gt;Node22 -->
<g id="edge32" class="edge">
<title>Node20&#45;&gt;Node22</title>
<path fill="none" stroke="midnightblue" d="M2159.24,-175.78C2189.75,-164.22 2234.75,-147.16 2261.55,-137.01"/>
<polygon fill="midnightblue" stroke="midnightblue" points="2157.6,-172.66 2149.49,-179.48 2160.09,-179.2 2157.6,-172.66"/>
</g>
<!-- Node20&#45;&gt;Node23 -->
<g id="edge34" class="edge">
<title>Node20&#45;&gt;Node23</title>
<path fill="none" stroke="midnightblue" d="M2070.34,-177.66C2017.05,-167.93 1936.86,-153.3 1877.83,-142.52"/>
<polygon fill="midnightblue" stroke="midnightblue" points="2069.83,-181.12 2080.29,-179.48 2071.08,-174.24 2069.83,-181.12"/>
</g>
<!-- Node21&#45;&gt;Node10 -->
<g id="edge31" class="edge">
<title>Node21&#45;&gt;Node10</title>
<path fill="none" stroke="midnightblue" d="M2010.51,-114.88C1973.19,-103.32 1916.8,-85.84 1883.46,-75.51"/>
<polygon fill="midnightblue" stroke="midnightblue" points="2009.9,-118.36 2020.49,-117.98 2011.98,-111.67 2009.9,-118.36"/>
</g>
<!-- Node22&#45;&gt;Node10 -->
<g id="edge33" class="edge">
<title>Node22&#45;&gt;Node10</title>
<path fill="none" stroke="midnightblue" d="M2212.74,-116.59C2129.01,-104.95 1991.7,-85.86 1914.12,-75.08"/>
<polygon fill="midnightblue" stroke="midnightblue" points="2212.29,-120.06 2222.68,-117.98 2213.26,-113.13 2212.29,-120.06"/>
</g>
<!-- Node23&#45;&gt;Node10 -->
<g id="edge35" class="edge">
<title>Node23&#45;&gt;Node10</title>
<path fill="none" stroke="midnightblue" d="M1820.87,-105C1830.25,-94.86 1840.9,-83.33 1848,-75.66"/>
<polygon fill="midnightblue" stroke="midnightblue" points="1818.25,-102.68 1814.03,-112.4 1823.39,-107.43 1818.25,-102.68"/>
</g>
<!-- Node24&#45;&gt;Node10 -->
<g id="edge40" class="edge">
<title>Node24&#45;&gt;Node10</title>
<path fill="none" stroke="midnightblue" d="M1515.27,-176.28C1496.94,-169.65 1478.99,-159.26 1468,-143 1460.28,-131.59 1458.84,-122.29 1468,-112 1489.54,-87.82 1694.92,-74.67 1797.83,-69.55"/>
<polygon fill="midnightblue" stroke="midnightblue" points="1514.27,-179.64 1524.86,-179.42 1516.45,-172.98 1514.27,-179.64"/>
</g>
<!-- Node25 -->
<g id="node25" class="node">
<title>Node25</title>
<g id="a_node25"><a xlink:href="NeumannNLFormIntegrator_8hpp.html" target="_top" xlink:title="Neumann integrator.">
<polygon fill="none" stroke="black" points="1477.5,-118 1477.5,-137 1662.5,-137 1662.5,-118 1477.5,-118"/>
<text text-anchor="middle" x="1570" y="-125" font-family="serif" font-size="10.00">NeumannNLFormIntegrator.hpp</text>
</a>
</g>
</g>
<!-- Node24&#45;&gt;Node25 -->
<g id="edge41" class="edge">
<title>Node24&#45;&gt;Node25</title>
<path fill="none" stroke="midnightblue" d="M1576.86,-169.32C1575.04,-158.5 1572.84,-145.4 1571.43,-137.01"/>
<polygon fill="midnightblue" stroke="midnightblue" points="1573.46,-170.19 1578.57,-179.48 1580.36,-169.03 1573.46,-170.19"/>
</g>
<!-- Node25&#45;&gt;Node10 -->
<g id="edge42" class="edge">
<title>Node25&#45;&gt;Node10</title>
<path fill="none" stroke="midnightblue" d="M1620.94,-115.9C1676.39,-104.37 1763.95,-86.15 1815.1,-75.51"/>
<polygon fill="midnightblue" stroke="midnightblue" points="1620.05,-112.51 1610.98,-117.98 1621.48,-119.36 1620.05,-112.51"/>
</g>
<!-- Node26&#45;&gt;Node10 -->
<g id="edge44" class="edge">
<title>Node26&#45;&gt;Node10</title>
<path fill="none" stroke="midnightblue" d="M2984.99,-176.06C2934.8,-158.51 2835.91,-126.28 2749,-112 2587.4,-85.45 2085.54,-72.1 1914.1,-68.22"/>
<polygon fill="midnightblue" stroke="midnightblue" points="2984.06,-179.45 2994.66,-179.47 2986.39,-172.84 2984.06,-179.45"/>
</g>
<!-- Node27&#45;&gt;Node10 -->
<g id="edge47" class="edge">
<title>Node27&#45;&gt;Node10</title>
<path fill="none" stroke="midnightblue" d="M1145.03,-173.84C1158.25,-165.19 1175.3,-153.75 1190,-143 1207.87,-129.93 1208.37,-120.04 1229,-112 1331.7,-71.97 1662.71,-67.1 1797.78,-66.82"/>
<polygon fill="midnightblue" stroke="midnightblue" points="1143.04,-170.96 1136.57,-179.35 1146.86,-176.83 1143.04,-170.96"/>
</g>
<!-- Node27&#45;&gt;Node18 -->
<g id="edge46" class="edge">
<title>Node27&#45;&gt;Node18</title>
<path fill="none" stroke="midnightblue" d="M1162.4,-176.68C1202.62,-165.11 1264.15,-147.43 1300.4,-137.01"/>
<polygon fill="midnightblue" stroke="midnightblue" points="1161.3,-173.35 1152.66,-179.48 1163.24,-180.08 1161.3,-173.35"/>
</g>
<!-- Node29 -->
<g id="node29" class="node">
<title>Node29</title>
<g id="a_node29"><a xlink:href="SteadyOperator_8hpp.html" target="_top" xlink:title="Steady Operator.">
<polygon fill="none" stroke="black" points="547,-118 547,-137 667,-137 667,-118 547,-118"/>
<text text-anchor="middle" x="607" y="-125" font-family="serif" font-size="10.00">SteadyOperator.hpp</text>
</a>
</g>
</g>
<!-- Node28&#45;&gt;Node29 -->
<g id="edge49" class="edge">
<title>Node28&#45;&gt;Node29</title>
<path fill="none" stroke="midnightblue" d="M675.72,-173.93C658.37,-162.46 634.43,-146.63 619.87,-137.01"/>
<polygon fill="midnightblue" stroke="midnightblue" points="673.83,-176.88 684.11,-179.48 677.69,-171.04 673.83,-176.88"/>
</g>
<!-- Node31 -->
<g id="node31" class="node">
<title>Node31</title>
<g id="a_node31"><a xlink:href="TransientOperator_8hpp.html" target="_top" xlink:title="Transient Operator.">
<polygon fill="none" stroke="black" points="685,-118 685,-137 819,-137 819,-118 685,-118"/>
<text text-anchor="middle" x="752" y="-125" font-family="serif" font-size="10.00">TransientOperator.hpp</text>
</a>
</g>
</g>
<!-- Node28&#45;&gt;Node31 -->
<g id="edge52" class="edge">
<title>Node28&#45;&gt;Node31</title>
<path fill="none" stroke="midnightblue" d="M711.79,-172C722.2,-160.74 735.73,-146.1 744.13,-137.01"/>
<polygon fill="midnightblue" stroke="midnightblue" points="709.1,-169.76 704.88,-179.48 714.24,-174.51 709.1,-169.76"/>
</g>
<!-- Node30 -->
<g id="node30" class="node">
<title>Node30</title>
<g id="a_node30"><a xlink:href="ListOperators_8hpp.html" target="_top" xlink:title=" ">
<polygon fill="none" stroke="black" points="552,-56.5 552,-75.5 662,-75.5 662,-56.5 552,-56.5"/>
<text text-anchor="middle" x="607" y="-63.5" font-family="serif" font-size="10.00">ListOperators.hpp</text>
</a>
</g>
</g>
<!-- Node29&#45;&gt;Node30 -->
<g id="edge50" class="edge">
<title>Node29&#45;&gt;Node30</title>
<path fill="none" stroke="midnightblue" d="M607,-107.82C607,-97 607,-83.9 607,-75.51"/>
<polygon fill="midnightblue" stroke="midnightblue" points="603.5,-107.98 607,-117.98 610.5,-107.98 603.5,-107.98"/>
</g>
<!-- Node30&#45;&gt;Node4 -->
<g id="edge51" class="edge">
<title>Node30&#45;&gt;Node4</title>
<path fill="none" stroke="midnightblue" d="M541.81,-57.62C438.46,-45.92 240.71,-23.53 162.76,-14.71"/>
<polygon fill="midnightblue" stroke="midnightblue" points="541.49,-61.11 551.82,-58.75 542.27,-54.15 541.49,-61.11"/>
</g>
<!-- Node31&#45;&gt;Node30 -->
<g id="edge53" class="edge">
<title>Node31&#45;&gt;Node30</title>
<path fill="none" stroke="midnightblue" d="M721.86,-114.13C693.69,-102.57 652.38,-85.62 627.74,-75.51"/>
<polygon fill="midnightblue" stroke="midnightblue" points="720.64,-117.42 731.23,-117.98 723.3,-110.94 720.64,-117.42"/>
</g>
<!-- Node33 -->
<g id="node33" class="node">
<title>Node33</title>
<g id="a_node33"><a xlink:href="Calphad__problem_8hpp.html" target="_top" xlink:title="Class used to defined a Calphad_Problem objet.">
<polygon fill="none" stroke="black" points="397.5,-118 397.5,-137 528.5,-137 528.5,-118 397.5,-118"/>
<text text-anchor="middle" x="463" y="-125" font-family="serif" font-size="10.00">Calphad_problem.hpp</text>
</a>
</g>
</g>
<!-- Node32&#45;&gt;Node33 -->
<g id="edge56" class="edge">
<title>Node32&#45;&gt;Node33</title>
<path fill="none" stroke="midnightblue" d="M346.56,-175.63C375.12,-164.07 417,-147.12 441.98,-137.01"/>
<polygon fill="midnightblue" stroke="midnightblue" points="345.02,-172.48 337.06,-179.48 347.64,-178.97 345.02,-172.48"/>
</g>
<!-- Node35 -->
<g id="node35" class="node">
<title>Node35</title>
<g id="a_node35"><a xlink:href="MPIProblem_8hpp.html" target="_top" xlink:title="Class used to defined a MPI_Problem objet.">
<polygon fill="none" stroke="black" points="130,-118 130,-137 234,-137 234,-118 130,-118"/>
<text text-anchor="middle" x="182" y="-125" font-family="serif" font-size="10.00">MPIProblem.hpp</text>
</a>
</g>
</g>
<!-- Node32&#45;&gt;Node35 -->
<g id="edge59" class="edge">
<title>Node32&#45;&gt;Node35</title>
<path fill="none" stroke="midnightblue" d="M287.46,-175.33C261.45,-163.78 223.74,-147.03 201.16,-137.01"/>
<polygon fill="midnightblue" stroke="midnightblue" points="286.24,-178.62 296.8,-179.48 289.08,-172.22 286.24,-178.62"/>
</g>
<!-- Node36 -->
<g id="node36" class="node">
<title>Node36</title>
<g id="a_node36"><a xlink:href="Problem_8hpp.html" target="_top" xlink:title="Class used to defined a PDE Problem.">
<polygon fill="none" stroke="black" points="28.5,-118 28.5,-137 111.5,-137 111.5,-118 28.5,-118"/>
<text text-anchor="middle" x="70" y="-125" font-family="serif" font-size="10.00">Problem.hpp</text>
</a>
</g>
</g>
<!-- Node32&#45;&gt;Node36 -->
<g id="edge61" class="edge">
<title>Node32&#45;&gt;Node36</title>
<path fill="none" stroke="midnightblue" d="M266.36,-177.27C226.85,-168.55 170.22,-155.67 121,-143 113.87,-141.16 106.21,-139.06 99.06,-137.03"/>
<polygon fill="midnightblue" stroke="midnightblue" points="265.75,-180.72 276.27,-179.44 267.25,-173.88 265.75,-180.72"/>
</g>
<!-- Node38 -->
<g id="node38" class="node">
<title>Node38</title>
<g id="a_node38"><a xlink:href="PropertyProblem_8hpp.html" target="_top" xlink:title="Class used to compute primary variables as a function of auxialiary variables.">
<polygon fill="none" stroke="black" points="252.5,-118 252.5,-137 379.5,-137 379.5,-118 252.5,-118"/>
<text text-anchor="middle" x="316" y="-125" font-family="serif" font-size="10.00">PropertyProblem.hpp</text>
</a>
</g>
</g>
<!-- Node32&#45;&gt;Node38 -->
<g id="edge65" class="edge">
<title>Node32&#45;&gt;Node38</title>
<path fill="none" stroke="midnightblue" d="M316,-169.32C316,-158.5 316,-145.4 316,-137.01"/>
<polygon fill="midnightblue" stroke="midnightblue" points="312.5,-169.48 316,-179.48 319.5,-169.48 312.5,-169.48"/>
</g>
<!-- Node34 -->
<g id="node34" class="node">
<title>Node34</title>
<g id="a_node34"><a xlink:href="ListProblems_8hpp.html" target="_top" xlink:title=" ">
<polygon fill="none" stroke="black" points="128.5,-56.5 128.5,-75.5 235.5,-75.5 235.5,-56.5 128.5,-56.5"/>
<text text-anchor="middle" x="182" y="-63.5" font-family="serif" font-size="10.00">ListProblems.hpp</text>
</a>
</g>
</g>
<!-- Node33&#45;&gt;Node34 -->
<g id="edge57" class="edge">
<title>Node33&#45;&gt;Node34</title>
<path fill="none" stroke="midnightblue" d="M412.95,-115.9C358.47,-104.37 272.44,-86.15 222.19,-75.51"/>
<polygon fill="midnightblue" stroke="midnightblue" points="412.23,-119.33 422.74,-117.98 413.68,-112.48 412.23,-119.33"/>
</g>
<!-- Node34&#45;&gt;Node4 -->
<g id="edge58" class="edge">
<title>Node34&#45;&gt;Node4</title>
<path fill="none" stroke="midnightblue" d="M166.32,-48.72C157.16,-39.2 145.95,-27.56 138.43,-19.75"/>
<polygon fill="midnightblue" stroke="midnightblue" points="163.96,-51.31 173.41,-56.08 169,-46.45 163.96,-51.31"/>
</g>
<!-- Node35&#45;&gt;Node34 -->
<g id="edge60" class="edge">
<title>Node35&#45;&gt;Node34</title>
<path fill="none" stroke="midnightblue" d="M182,-107.82C182,-97 182,-83.9 182,-75.51"/>
<polygon fill="midnightblue" stroke="midnightblue" points="178.5,-107.98 182,-117.98 185.5,-107.98 178.5,-107.98"/>
</g>
<!-- Node36&#45;&gt;Node34 -->
<g id="edge62" class="edge">
<title>Node36&#45;&gt;Node34</title>
<path fill="none" stroke="midnightblue" d="M95.01,-113.21C116.7,-101.69 147.45,-85.36 165.98,-75.51"/>
<polygon fill="midnightblue" stroke="midnightblue" points="93.24,-110.19 86.05,-117.98 96.52,-116.37 93.24,-110.19"/>
</g>
<!-- Node37 -->
<g id="node37" class="node">
<title>Node37</title>
<g id="a_node37"><a xlink:href="Time_8hpp.html" target="_top" xlink:title="Main time loop.">
<polygon fill="none" stroke="black" points="41.5,-56.5 41.5,-75.5 106.5,-75.5 106.5,-56.5 41.5,-56.5"/>
<text text-anchor="middle" x="74" y="-63.5" font-family="serif" font-size="10.00">Time.hpp</text>
</a>
</g>
</g>
<!-- Node36&#45;&gt;Node37 -->
<g id="edge63" class="edge">
<title>Node36&#45;&gt;Node37</title>
<path fill="none" stroke="midnightblue" d="M71.26,-107.82C71.98,-97 72.86,-83.9 73.43,-75.51"/>
<polygon fill="midnightblue" stroke="midnightblue" points="67.75,-107.76 70.57,-117.98 74.74,-108.23 67.75,-107.76"/>
</g>
<!-- Node37&#45;&gt;Node4 -->
<g id="edge64" class="edge">
<title>Node37&#45;&gt;Node4</title>
<path fill="none" stroke="midnightblue" d="M90.33,-49.25C100.26,-39.67 112.59,-27.79 120.84,-19.83"/>
<polygon fill="midnightblue" stroke="midnightblue" points="87.77,-46.86 83,-56.32 92.63,-51.9 87.77,-46.86"/>
</g>
<!-- Node38&#45;&gt;Node34 -->
<g id="edge66" class="edge">
<title>Node38&#45;&gt;Node34</title>
<path fill="none" stroke="midnightblue" d="M287.46,-113.83C261.45,-102.28 223.74,-85.53 201.16,-75.51"/>
<polygon fill="midnightblue" stroke="midnightblue" points="286.24,-117.12 296.8,-117.98 289.08,-110.72 286.24,-117.12"/>
</g>
</g>
</svg>
