<?xml version="1.0" encoding="UTF-8" standalone="no"?>
<!DOCTYPE svg PUBLIC "-//W3C//DTD SVG 1.1//EN"
 "http://www.w3.org/Graphics/SVG/1.1/DTD/svg11.dtd">
<!-- Generated by graphviz version 2.43.0 (0)
 -->
<!-- Title: SlothGridFunction.hpp Pages: 1 -->
<!--zoomable 207 -->
<svg id="main" version="1.1" xmlns="http://www.w3.org/2000/svg" xmlns:xlink="http://www.w3.org/1999/xlink" xml:space="preserve" onload="init(evt)">
<style type="text/css"><![CDATA[
.edge:hover path { stroke: red; }
.edge:hover polygon { stroke: red; fill: red; }
]]></style>
<script type="text/javascript"><![CDATA[
var edges = document.getElementsByTagName('g');
if (edges && edges.length) {
  for (var i=0;i<edges.length;i++) {
    if (edges[i].id.substr(0,4)=='edge') {
      edges[i].setAttribute('class','edge');
    }
  }
}
]]></script>
        <defs>
                <circle id="rim" cx="0" cy="0" r="7"/>
                <circle id="rim2" cx="0" cy="0" r="3.5"/>
                <g id="zoomPlus">
                        <use xlink:href="#rim" fill="#404040">
                                <set attributeName="fill" to="#808080" begin="zoomplus.mouseover" end="zoomplus.mouseout"/>
                        </use>
                        <path d="M-4,0h8M0,-4v8" fill="none" stroke="white" stroke-width="1.5" pointer-events="none"/>
                </g>
                <g id="zoomMin">
                        <use xlink:href="#rim" fill="#404040">
                                <set attributeName="fill" to="#808080" begin="zoomminus.mouseover" end="zoomminus.mouseout"/>
                        </use>
                        <path d="M-4,0h8" fill="none" stroke="white" stroke-width="1.5" pointer-events="none"/>
                </g>
                <g id="dirArrow">
                        <path fill="none" stroke="white" stroke-width="1.5" d="M0,-3.0v7 M-2.5,-0.5L0,-3.0L2.5,-0.5"/>
                </g>
               <g id="resetDef">
                       <use xlink:href="#rim2" fill="#404040">
                               <set attributeName="fill" to="#808080" begin="reset.mouseover" end="reset.mouseout"/>
                       </use>
               </g>
        </defs>

<script type="text/javascript">
var viewWidth = 1027;
var viewHeight = 207;
var sectionId = 'dynsection-1';
</script>
<script xlink:href="svgpan.js"/>
<svg id="graph" class="graph">
<g id="viewport">
<title>SlothGridFunction.hpp</title>
<!-- Node1 -->
<g id="node1" class="node">
<title>Node1</title>
<g id="a_node1"><a xlink:title="Class dedicated to the calculation of the gradient of a GridFunction.">
<polygon fill="#bfbfbf" stroke="black" points="421.5,-179.5 421.5,-198.5 555.5,-198.5 555.5,-179.5 421.5,-179.5"/>
<text text-anchor="middle" x="488.5" y="-186.5" font-family="serif" font-size="10.00">SlothGridFunction.hpp</text>
</a>
</g>
</g>
<!-- Node2 -->
<g id="node2" class="node">
<title>Node2</title>
<g id="a_node2"><a xlink:href="BlockAllenCahnNLFormIntegrator_8hpp.html" target="_top" xlink:title="VF of the AllenCahn equations (splitted form)">
<polygon fill="none" stroke="black" points="0,-56.5 0,-75.5 215,-75.5 215,-56.5 0,-56.5"/>
<text text-anchor="middle" x="107.5" y="-63.5" font-family="serif" font-size="10.00">BlockAllenCahnNLFormIntegrator.hpp</text>
</a>
</g>
</g>
<!-- Node1&#45;&gt;Node2 -->
<g id="edge1" class="edge">
<title>Node1&#45;&gt;Node2</title>
<path fill="none" stroke="midnightblue" d="M411.43,-185.12C354.33,-180.72 275.63,-169.82 211.5,-143 171.68,-126.35 132.79,-91.61 116.06,-75.52"/>
<polygon fill="midnightblue" stroke="midnightblue" points="411.24,-188.61 421.47,-185.84 411.75,-181.63 411.24,-188.61"/>
</g>
<!-- Node4 -->
<g id="node4" class="node">
<title>Node4</title>
<g id="a_node4"><a xlink:href="DiffusionFluxNLFormIntegrator_8hpp.html" target="_top" xlink:title="inter&#45;diffusion integrator">
<polygon fill="none" stroke="black" points="220.5,-118 220.5,-137 422.5,-137 422.5,-118 220.5,-118"/>
<text text-anchor="middle" x="321.5" y="-125" font-family="serif" font-size="10.00">DiffusionFluxNLFormIntegrator.hpp</text>
</a>
</g>
</g>
<!-- Node1&#45;&gt;Node4 -->
<g id="edge3" class="edge">
<title>Node1&#45;&gt;Node4</title>
<path fill="none" stroke="midnightblue" d="M455.05,-176.08C422.59,-164.52 374.13,-147.25 345.38,-137.01"/>
<polygon fill="midnightblue" stroke="midnightblue" points="453.98,-179.42 464.57,-179.48 456.33,-172.82 453.98,-179.42"/>
</g>
<!-- Node5 -->
<g id="node5" class="node">
<title>Node5</title>
<g id="a_node5"><a xlink:href="MassDiffusionFluxNLFormIntegrator_8hpp.html" target="_top" xlink:title="Class dedicated to the VF of diffusion flux (gradient of chemical potential) used in mass balance equ...">
<polygon fill="none" stroke="black" points="233,-56.5 233,-75.5 462,-75.5 462,-56.5 233,-56.5"/>
<text text-anchor="middle" x="347.5" y="-63.5" font-family="serif" font-size="10.00">MassDiffusionFluxNLFormIntegrator.hpp</text>
</a>
</g>
</g>
<!-- Node1&#45;&gt;Node5 -->
<g id="edge6" class="edge">
<title>Node1&#45;&gt;Node5</title>
<path fill="none" stroke="midnightblue" d="M478.36,-170.31C468.17,-153.68 451.16,-128.89 431.5,-112 412.8,-95.94 387.41,-83.33 369.46,-75.6"/>
<polygon fill="midnightblue" stroke="midnightblue" points="475.43,-172.23 483.55,-179.04 481.45,-168.65 475.43,-172.23"/>
</g>
<!-- Node6 -->
<g id="node6" class="node">
<title>Node6</title>
<g id="a_node6"><a xlink:href="NeumannNLFormIntegrator_8hpp.html" target="_top" xlink:title="Neumann integrator.">
<polygon fill="none" stroke="black" points="480,-56.5 480,-75.5 665,-75.5 665,-56.5 480,-56.5"/>
<text text-anchor="middle" x="572.5" y="-63.5" font-family="serif" font-size="10.00">NeumannNLFormIntegrator.hpp</text>
</a>
</g>
</g>
<!-- Node1&#45;&gt;Node6 -->
<g id="edge7" class="edge">
<title>Node1&#45;&gt;Node6</title>
<path fill="none" stroke="midnightblue" d="M489.51,-169.22C491.2,-152.84 495.68,-129.09 507.5,-112 518.98,-95.41 538.71,-83.03 553.43,-75.5"/>
<polygon fill="midnightblue" stroke="midnightblue" points="486.02,-168.97 488.73,-179.21 493,-169.52 486.02,-168.97"/>
</g>
<!-- Node7 -->
<g id="node7" class="node">
<title>Node7</title>
<g id="a_node7"><a xlink:href="RobinNLFormIntegrator_8hpp.html" target="_top" xlink:title="Robin integrator.">
<polygon fill="none" stroke="black" points="516.5,-118 516.5,-137 680.5,-137 680.5,-118 516.5,-118"/>
<text text-anchor="middle" x="598.5" y="-125" font-family="serif" font-size="10.00">RobinNLFormIntegrator.hpp</text>
</a>
</g>
</g>
<!-- Node1&#45;&gt;Node7 -->
<g id="edge9" class="edge">
<title>Node1&#45;&gt;Node7</title>
<path fill="none" stroke="midnightblue" d="M513.07,-174.71C534.37,-163.19 564.57,-146.86 582.77,-137.01"/>
<polygon fill="midnightblue" stroke="midnightblue" points="511.39,-171.64 504.26,-179.48 514.72,-177.8 511.39,-171.64"/>
</g>
<!-- Node8 -->
<g id="node8" class="node">
<title>Node8</title>
<g id="a_node8"><a xlink:href="ThermalDiffusionFluxNLFormIntegrator_8hpp.html" target="_top" xlink:title="Class dedicated to the VF of thermal diffusion flux used in energy balance equation.">
<polygon fill="none" stroke="black" points="698.5,-112.5 698.5,-142.5 868.5,-142.5 868.5,-112.5 698.5,-112.5"/>
<text text-anchor="start" x="706.5" y="-130.5" font-family="serif" font-size="10.00">ThermalDiffusionFluxNLForm</text>
<text text-anchor="middle" x="783.5" y="-119.5" font-family="serif" font-size="10.00">Integrator.hpp</text>
</a>
</g>
</g>
<!-- Node1&#45;&gt;Node8 -->
<g id="edge12" class="edge">
<title>Node1&#45;&gt;Node8</title>
<path fill="none" stroke="midnightblue" d="M540.68,-177.48C588.9,-167.75 660.89,-153.23 713.97,-142.52"/>
<polygon fill="midnightblue" stroke="midnightblue" points="539.88,-174.07 530.77,-179.48 541.26,-180.93 539.88,-174.07"/>
</g>
<!-- Node9 -->
<g id="node9" class="node">
<title>Node9</title>
<g id="a_node9"><a xlink:href="SlothGridFunction_8cpp.html" target="_top" xlink:title="Class dedicated to the calculation of the gradient of a GridFunction.">
<polygon fill="none" stroke="black" points="886.5,-118 886.5,-137 1018.5,-137 1018.5,-118 886.5,-118"/>
<text text-anchor="middle" x="952.5" y="-125" font-family="serif" font-size="10.00">SlothGridFunction.cpp</text>
</a>
</g>
</g>
<!-- Node1&#45;&gt;Node9 -->
<g id="edge13" class="edge">
<title>Node1&#45;&gt;Node9</title>
<path fill="none" stroke="midnightblue" d="M566.14,-180.77C644.82,-173.03 769.95,-159.59 877.5,-143 888.51,-141.3 900.37,-139.16 911.34,-137.04"/>
<polygon fill="midnightblue" stroke="midnightblue" points="565.44,-177.32 555.82,-181.78 566.12,-184.29 565.44,-177.32"/>
</g>
<!-- Node3 -->
<g id="node3" class="node">
<title>Node3</title>
<g id="a_node3"><a xlink:href="ListIntegrators_8hpp.html" target="_top" xlink:title="List of header files contained in the Integrators directory.">
<polygon fill="none" stroke="black" points="401.5,-0.5 401.5,-19.5 517.5,-19.5 517.5,-0.5 401.5,-0.5"/>
<text text-anchor="middle" x="459.5" y="-7.5" font-family="serif" font-size="10.00">ListIntegrators.hpp</text>
</a>
</g>
</g>
<!-- Node2&#45;&gt;Node3 -->
<g id="edge2" class="edge">
<title>Node2&#45;&gt;Node3</title>
<path fill="none" stroke="midnightblue" d="M173.23,-54.92C239.73,-44.71 341.4,-29.12 403.99,-19.52"/>
<polygon fill="midnightblue" stroke="midnightblue" points="172.63,-51.47 163.28,-56.44 173.69,-58.39 172.63,-51.47"/>
</g>
<!-- Node4&#45;&gt;Node5 -->
<g id="edge4" class="edge">
<title>Node4&#45;&gt;Node5</title>
<path fill="none" stroke="midnightblue" d="M329.37,-108.5C334.15,-97.55 340.04,-84.07 343.78,-75.51"/>
<polygon fill="midnightblue" stroke="midnightblue" points="326.02,-107.41 325.23,-117.98 332.44,-110.21 326.02,-107.41"/>
</g>
<!-- Node5&#45;&gt;Node3 -->
<g id="edge5" class="edge">
<title>Node5&#45;&gt;Node3</title>
<path fill="none" stroke="midnightblue" d="M374.75,-51.86C395.52,-41.85 423.52,-28.35 441.55,-19.65"/>
<polygon fill="midnightblue" stroke="midnightblue" points="372.98,-48.83 365.49,-56.32 376.02,-55.13 372.98,-48.83"/>
</g>
<!-- Node6&#45;&gt;Node3 -->
<g id="edge8" class="edge">
<title>Node6&#45;&gt;Node3</title>
<path fill="none" stroke="midnightblue" d="M545.5,-52.1C524.39,-42.01 495.64,-28.27 477.32,-19.52"/>
<polygon fill="midnightblue" stroke="midnightblue" points="544.06,-55.29 554.59,-56.44 547.08,-48.97 544.06,-55.29"/>
</g>
<!-- Node7&#45;&gt;Node3 -->
<g id="edge10" class="edge">
<title>Node7&#45;&gt;Node3</title>
<path fill="none" stroke="midnightblue" d="M629.77,-113.83C658.08,-100.53 692.75,-78.46 674.5,-56 655.05,-32.06 574.35,-20.41 517.56,-15.07"/>
<polygon fill="midnightblue" stroke="midnightblue" points="628.19,-110.7 620.5,-117.99 631.06,-117.09 628.19,-110.7"/>
</g>
<!-- Node7&#45;&gt;Node6 -->
<g id="edge11" class="edge">
<title>Node7&#45;&gt;Node6</title>
<path fill="none" stroke="midnightblue" d="M590.63,-108.5C585.85,-97.55 579.96,-84.07 576.22,-75.51"/>
<polygon fill="midnightblue" stroke="midnightblue" points="587.56,-110.21 594.77,-117.98 593.98,-107.41 587.56,-110.21"/>
</g>
</g>
</svg>
        <g id="navigator" transform="translate(0 0)" fill="#404254">
                <rect fill="#f2f5e9" fill-opacity="0.5" stroke="#606060" stroke-width=".5" x="0" y="0" width="60" height="60"/>
                <use id="zoomplus" xlink:href="#zoomPlus" x="17" y="9" onmousedown="handleZoom(evt,'in')"/>
                <use id="zoomminus" xlink:href="#zoomMin" x="42" y="9" onmousedown="handleZoom(evt,'out')"/>
                <use id="reset" xlink:href="#resetDef" x="30" y="36" onmousedown="handleReset()"/>
                <g id="arrowUp" xlink:href="#dirArrow" transform="translate(30 24)" onmousedown="handlePan(0,-1)">
                  <use xlink:href="#rim" fill="#404040">
                        <set attributeName="fill" to="#808080" begin="arrowUp.mouseover" end="arrowUp.mouseout"/>
                  </use>
                  <path fill="none" stroke="white" stroke-width="1.5" d="M0,-3.0v7 M-2.5,-0.5L0,-3.0L2.5,-0.5"/>
                </g>
                <g id="arrowRight" xlink:href="#dirArrow" transform="rotate(90) translate(36 -43)" onmousedown="handlePan(1,0)">
                  <use xlink:href="#rim" fill="#404040">
                        <set attributeName="fill" to="#808080" begin="arrowRight.mouseover" end="arrowRight.mouseout"/>
                  </use>
                  <path fill="none" stroke="white" stroke-width="1.5" d="M0,-3.0v7 M-2.5,-0.5L0,-3.0L2.5,-0.5"/>
                </g>
                <g id="arrowDown" xlink:href="#dirArrow" transform="rotate(180) translate(-30 -48)" onmousedown="handlePan(0,1)">
                  <use xlink:href="#rim" fill="#404040">
                        <set attributeName="fill" to="#808080" begin="arrowDown.mouseover" end="arrowDown.mouseout"/>
                  </use>
                  <path fill="none" stroke="white" stroke-width="1.5" d="M0,-3.0v7 M-2.5,-0.5L0,-3.0L2.5,-0.5"/>
                </g>
                <g id="arrowLeft" xlink:href="#dirArrow" transform="rotate(270) translate(-36 17)" onmousedown="handlePan(-1,0)">
                  <use xlink:href="#rim" fill="#404040">
                        <set attributeName="fill" to="#808080" begin="arrowLeft.mouseover" end="arrowLeft.mouseout"/>
                  </use>
                  <path fill="none" stroke="white" stroke-width="1.5" d="M0,-3.0v7 M-2.5,-0.5L0,-3.0L2.5,-0.5"/>
                </g>
        </g>
        <svg viewBox="0 0 15 15" width="100%" height="30px" preserveAspectRatio="xMaxYMin meet">
         <g id="arrow_out" transform="scale(0.3 0.3)">
          <a xlink:href="SlothGridFunction_8hpp__dep__incl_org.svg" target="_base">
           <rect id="button" ry="5" rx="5" y="6" x="6" height="38" width="38"
                fill="#f2f5e9" fill-opacity="0.5" stroke="#606060" stroke-width="1.0"/>
           <path id="arrow"
             d="M 11.500037,31.436501 C 11.940474,20.09759 22.043105,11.32322 32.158766,21.979434 L 37.068811,17.246167 C 37.068811,17.246167 37.088388,32 37.088388,32 L 22.160133,31.978069 C 22.160133,31.978069 26.997745,27.140456 26.997745,27.140456 C 18.528582,18.264221 13.291696,25.230495 11.500037,31.436501 z"
             style="fill:#404040;"/>
          </a>
         </g>
        </svg>
</svg>
