<?xml version="1.0" encoding="UTF-8" standalone="no"?>
<!DOCTYPE svg PUBLIC "-//W3C//DTD SVG 1.1//EN"
 "http://www.w3.org/Graphics/SVG/1.1/DTD/svg11.dtd">
<!-- Generated by graphviz version 2.43.0 (0)
 -->
<!-- Title: Spatial.hpp Pages: 1 -->
<svg width="2575pt" height="375pt"
 viewBox="0.00 0.00 2575.00 375.00" xmlns="http://www.w3.org/2000/svg" xmlns:xlink="http://www.w3.org/1999/xlink">
<g id="graph0" class="graph" transform="scale(1 1) rotate(0) translate(4 371)">
<title>Spatial.hpp</title>
<!-- Node1 -->
<g id="node1" class="node">
<title>Node1</title>
<g id="a_node1"><a xlink:title="Spatial discretization.">
<polygon fill="#bfbfbf" stroke="black" points="266.5,-347.5 266.5,-366.5 341.5,-366.5 341.5,-347.5 266.5,-347.5"/>
<text text-anchor="middle" x="304" y="-354.5" font-family="serif" font-size="10.00">Spatial.hpp</text>
</a>
</g>
</g>
<!-- Node2 -->
<g id="node2" class="node">
<title>Node2</title>
<g id="a_node2"><a xlink:title=" ">
<polygon fill="none" stroke="#bfbfbf" points="0,-0.5 0,-19.5 68,-19.5 68,-0.5 0,-0.5"/>
<text text-anchor="middle" x="34" y="-7.5" font-family="serif" font-size="10.00">filesystem</text>
</a>
</g>
</g>
<!-- Node1&#45;&gt;Node2 -->
<g id="edge1" class="edge">
<title>Node1&#45;&gt;Node2</title>
<path fill="none" stroke="midnightblue" d="M266.46,-355.96C194.02,-353.71 42,-337.43 42,-240.5 42,-240.5 42,-240.5 42,-121 42,-88.86 38.56,-51.58 36.19,-29.72"/>
<polygon fill="midnightblue" stroke="midnightblue" points="39.64,-29.09 35.05,-19.54 32.69,-29.87 39.64,-29.09"/>
</g>
<!-- Node3 -->
<g id="node3" class="node">
<title>Node3</title>
<g id="a_node3"><a xlink:title=" ">
<polygon fill="none" stroke="#bfbfbf" points="438,-0.5 438,-19.5 506,-19.5 506,-0.5 438,-0.5"/>
<text text-anchor="middle" x="472" y="-7.5" font-family="serif" font-size="10.00">functional</text>
</a>
</g>
</g>
<!-- Node1&#45;&gt;Node3 -->
<g id="edge2" class="edge">
<title>Node1&#45;&gt;Node3</title>
<path fill="none" stroke="midnightblue" d="M276.48,-347.43C235.45,-332.73 163,-298.57 163,-240.5 163,-240.5 163,-240.5 163,-121 163,-69.47 211.57,-76.15 259,-56 259.98,-55.58 365.97,-33.28 428.05,-20.23"/>
<polygon fill="midnightblue" stroke="midnightblue" points="428.91,-23.63 437.98,-18.14 427.47,-16.78 428.91,-23.63"/>
</g>
<!-- Node4 -->
<g id="node4" class="node">
<title>Node4</title>
<g id="a_node4"><a xlink:title=" ">
<polygon fill="none" stroke="#bfbfbf" points="1511.5,-56.5 1511.5,-75.5 1570.5,-75.5 1570.5,-56.5 1511.5,-56.5"/>
<text text-anchor="middle" x="1541" y="-63.5" font-family="serif" font-size="10.00">memory</text>
</a>
</g>
</g>
<!-- Node1&#45;&gt;Node4 -->
<g id="edge3" class="edge">
<title>Node1&#45;&gt;Node4</title>
<path fill="none" stroke="midnightblue" d="M341.81,-355.63C617.75,-352.77 2312.71,-332.08 2386,-255 2395.49,-245.02 2394.81,-234.59 2386,-224 2359.54,-192.18 1744.19,-97.58 1580.62,-72.93"/>
<polygon fill="midnightblue" stroke="midnightblue" points="1580.92,-69.43 1570.51,-71.41 1579.88,-76.36 1580.92,-69.43"/>
</g>
<!-- Node5 -->
<g id="node5" class="node">
<title>Node5</title>
<g id="a_node5"><a xlink:title=" ">
<polygon fill="none" stroke="#bfbfbf" points="2471,-291.5 2471,-310.5 2517,-310.5 2517,-291.5 2471,-291.5"/>
<text text-anchor="middle" x="2494" y="-298.5" font-family="serif" font-size="10.00">regex</text>
</a>
</g>
</g>
<!-- Node1&#45;&gt;Node5 -->
<g id="edge4" class="edge">
<title>Node1&#45;&gt;Node5</title>
<path fill="none" stroke="midnightblue" d="M341.54,-355.71C610.48,-353.55 2239.43,-339.39 2457,-311 2458.25,-310.84 2459.53,-310.65 2460.81,-310.44"/>
<polygon fill="midnightblue" stroke="midnightblue" points="2461.52,-313.86 2470.66,-308.49 2460.17,-307 2461.52,-313.86"/>
</g>
<!-- Node6 -->
<g id="node6" class="node">
<title>Node6</title>
<g id="a_node6"><a xlink:title=" ">
<polygon fill="none" stroke="#bfbfbf" points="2535,-291.5 2535,-310.5 2567,-310.5 2567,-291.5 2535,-291.5"/>
<text text-anchor="middle" x="2551" y="-298.5" font-family="serif" font-size="10.00">set</text>
</a>
</g>
</g>
<!-- Node1&#45;&gt;Node6 -->
<g id="edge5" class="edge">
<title>Node1&#45;&gt;Node6</title>
<path fill="none" stroke="midnightblue" d="M341.9,-355.97C613.4,-355.69 2258.89,-352.32 2524.89,-310.39"/>
<polygon fill="midnightblue" stroke="midnightblue" points="2525.54,-313.83 2534.81,-308.69 2524.36,-306.93 2525.54,-313.83"/>
</g>
<!-- Node7 -->
<g id="node7" class="node">
<title>Node7</title>
<g id="a_node7"><a xlink:title=" ">
<polygon fill="none" stroke="#bfbfbf" points="1517.5,-0.5 1517.5,-19.5 1564.5,-19.5 1564.5,-0.5 1517.5,-0.5"/>
<text text-anchor="middle" x="1541" y="-7.5" font-family="serif" font-size="10.00">string</text>
</a>
</g>
</g>
<!-- Node1&#45;&gt;Node7 -->
<g id="edge6" class="edge">
<title>Node1&#45;&gt;Node7</title>
<path fill="none" stroke="midnightblue" d="M341.51,-355.88C566.99,-355.04 1744.75,-348.89 2104,-311 2257.04,-294.86 2443,-394.39 2443,-240.5 2443,-240.5 2443,-240.5 2443,-121 2443,-31.85 1739.67,-14.37 1575.14,-11.5"/>
<polygon fill="midnightblue" stroke="midnightblue" points="1574.72,-8 1564.66,-11.33 1574.6,-15 1574.72,-8"/>
</g>
<!-- Node8 -->
<g id="node8" class="node">
<title>Node8</title>
<g id="a_node8"><a xlink:title=" ">
<polygon fill="none" stroke="#bfbfbf" points="376.5,-0.5 376.5,-19.5 419.5,-19.5 419.5,-0.5 376.5,-0.5"/>
<text text-anchor="middle" x="398" y="-7.5" font-family="serif" font-size="10.00">tuple</text>
</a>
</g>
</g>
<!-- Node1&#45;&gt;Node8 -->
<g id="edge7" class="edge">
<title>Node1&#45;&gt;Node8</title>
<path fill="none" stroke="midnightblue" d="M266.33,-354.62C231.57,-351.37 180.71,-341.29 149,-311 125.07,-288.13 125,-273.6 125,-240.5 125,-240.5 125,-240.5 125,-121 125,-90.2 125.26,-75.61 149,-56 222.27,4.52 268.2,-38.73 366.42,-19.74"/>
<polygon fill="midnightblue" stroke="midnightblue" points="367.35,-23.12 376.41,-17.62 365.9,-16.27 367.35,-23.12"/>
</g>
<!-- Node9 -->
<g id="node9" class="node">
<title>Node9</title>
<g id="a_node9"><a xlink:title=" ">
<polygon fill="none" stroke="#bfbfbf" points="590,-0.5 590,-19.5 636,-19.5 636,-0.5 590,-0.5"/>
<text text-anchor="middle" x="613" y="-7.5" font-family="serif" font-size="10.00">utility</text>
</a>
</g>
</g>
<!-- Node1&#45;&gt;Node9 -->
<g id="edge8" class="edge">
<title>Node1&#45;&gt;Node9</title>
<path fill="none" stroke="midnightblue" d="M294.98,-347.34C286.93,-338.93 275.7,-325.36 271,-311 258.97,-274.25 252.23,-257.8 271,-224 306.26,-160.5 509.38,-59.85 584.81,-24.12"/>
<polygon fill="midnightblue" stroke="midnightblue" points="586.62,-27.13 594.17,-19.7 583.63,-20.8 586.62,-27.13"/>
</g>
<!-- Node10 -->
<g id="node10" class="node">
<title>Node10</title>
<g id="a_node10"><a xlink:title=" ">
<polygon fill="none" stroke="#bfbfbf" points="989,-0.5 989,-19.5 1037,-19.5 1037,-0.5 989,-0.5"/>
<text text-anchor="middle" x="1013" y="-7.5" font-family="serif" font-size="10.00">vector</text>
</a>
</g>
</g>
<!-- Node1&#45;&gt;Node10 -->
<g id="edge9" class="edge">
<title>Node1&#45;&gt;Node10</title>
<path fill="none" stroke="midnightblue" d="M301.3,-347.33C294.53,-323.63 279.7,-257.29 314,-224 448.76,-93.21 1025.4,-219.95 1146,-76 1151.71,-69.19 1151.18,-63.22 1146,-56 1140.03,-47.67 1084.5,-30.86 1047.1,-20.31"/>
<polygon fill="midnightblue" stroke="midnightblue" points="1047.67,-16.84 1037.09,-17.51 1045.78,-23.58 1047.67,-16.84"/>
</g>
<!-- Node11 -->
<g id="node11" class="node">
<title>Node11</title>
<g id="a_node11"><a xlink:href="Options_8hpp.html" target="_top" xlink:title="List of all Options files.">
<polygon fill="none" stroke="black" points="1145,-291.5 1145,-310.5 1267,-310.5 1267,-291.5 1145,-291.5"/>
<text text-anchor="middle" x="1206" y="-298.5" font-family="serif" font-size="10.00">Options/Options.hpp</text>
</a>
</g>
</g>
<!-- Node1&#45;&gt;Node11 -->
<g id="edge10" class="edge">
<title>Node1&#45;&gt;Node11</title>
<path fill="none" stroke="midnightblue" d="M341.61,-353.75C478.73,-345.54 953.29,-317.13 1134.71,-306.27"/>
<polygon fill="midnightblue" stroke="midnightblue" points="1135.17,-309.75 1144.94,-305.66 1134.75,-302.76 1135.17,-309.75"/>
</g>
<!-- Node13 -->
<g id="node13" class="node">
<title>Node13</title>
<g id="a_node13"><a xlink:href="Utils_8hpp.html" target="_top" xlink:title="List of all Utils files.">
<polygon fill="none" stroke="black" points="985.5,-168.5 985.5,-187.5 1074.5,-187.5 1074.5,-168.5 985.5,-168.5"/>
<text text-anchor="middle" x="1030" y="-175.5" font-family="serif" font-size="10.00">Utils/Utils.hpp</text>
</a>
</g>
</g>
<!-- Node1&#45;&gt;Node13 -->
<g id="edge89" class="edge">
<title>Node1&#45;&gt;Node13</title>
<path fill="none" stroke="midnightblue" d="M303.45,-347.45C302.42,-323.46 303.18,-255.26 342,-224 366.56,-204.22 816.95,-186.51 975.41,-180.87"/>
<polygon fill="midnightblue" stroke="midnightblue" points="975.55,-184.36 985.42,-180.51 975.3,-177.37 975.55,-184.36"/>
</g>
<!-- Node21 -->
<g id="node21" class="node">
<title>Node21</title>
<g id="a_node21"><a xlink:title=" ">
<polygon fill="none" stroke="#bfbfbf" points="86.5,-0.5 86.5,-19.5 155.5,-19.5 155.5,-0.5 86.5,-0.5"/>
<text text-anchor="middle" x="121" y="-7.5" font-family="serif" font-size="10.00">mfem.hpp</text>
</a>
</g>
</g>
<!-- Node1&#45;&gt;Node21 -->
<g id="edge90" class="edge">
<title>Node1&#45;&gt;Node21</title>
<path fill="none" stroke="midnightblue" d="M266.29,-354.51C228.22,-351.26 169.43,-341.27 129,-311 99.8,-289.14 87,-276.97 87,-240.5 87,-240.5 87,-240.5 87,-121 87,-87.16 101.87,-49.97 111.94,-28.66"/>
<polygon fill="midnightblue" stroke="midnightblue" points="115.14,-30.08 116.41,-19.56 108.86,-26.99 115.14,-30.08"/>
</g>
<!-- Node12 -->
<g id="node12" class="node">
<title>Node12</title>
<g id="a_node12"><a xlink:href="AnalyticalFunctionOptions_8hpp.html" target="_top" xlink:title="Options for Analytical functions.">
<polygon fill="none" stroke="black" points="1671.5,-224.5 1671.5,-254.5 1826.5,-254.5 1826.5,-224.5 1671.5,-224.5"/>
<text text-anchor="start" x="1679.5" y="-242.5" font-family="serif" font-size="10.00">Options/AnalyticalFunction</text>
<text text-anchor="middle" x="1749" y="-231.5" font-family="serif" font-size="10.00">Options.hpp</text>
</a>
</g>
</g>
<!-- Node11&#45;&gt;Node12 -->
<g id="edge11" class="edge">
<title>Node11&#45;&gt;Node12</title>
<path fill="none" stroke="midnightblue" d="M1267.37,-295.25C1353.1,-288.33 1513.81,-274.3 1661.12,-255.06"/>
<polygon fill="midnightblue" stroke="midnightblue" points="1661.79,-258.5 1671.25,-253.72 1660.88,-251.56 1661.79,-258.5"/>
</g>
<!-- Node11&#45;&gt;Node13 -->
<g id="edge88" class="edge">
<title>Node11&#45;&gt;Node13</title>
<path fill="none" stroke="midnightblue" d="M1144.91,-300.38C991.15,-300.71 597.52,-297.36 558,-255 548.6,-244.93 548.73,-234.19 558,-224 585.62,-193.63 856.78,-183.26 975.17,-180.17"/>
<polygon fill="midnightblue" stroke="midnightblue" points="975.56,-183.66 985.47,-179.91 975.38,-176.66 975.56,-183.66"/>
</g>
<!-- Node31 -->
<g id="node31" class="node">
<title>Node31</title>
<g id="a_node31"><a xlink:href="CalphadOptions_8hpp.html" target="_top" xlink:title="Options for Calphad problems.">
<polygon fill="none" stroke="black" points="1123.5,-230 1123.5,-249 1288.5,-249 1288.5,-230 1123.5,-230"/>
<text text-anchor="middle" x="1206" y="-237" font-family="serif" font-size="10.00">Options/CalphadOptions.hpp</text>
</a>
</g>
</g>
<!-- Node11&#45;&gt;Node31 -->
<g id="edge60" class="edge">
<title>Node11&#45;&gt;Node31</title>
<path fill="none" stroke="midnightblue" d="M1206,-291.48C1206,-283.08 1206,-269.98 1206,-259.16"/>
<polygon fill="midnightblue" stroke="midnightblue" points="1209.5,-259.01 1206,-249.01 1202.5,-259.01 1209.5,-259.01"/>
</g>
<!-- Node32 -->
<g id="node32" class="node">
<title>Node32</title>
<g id="a_node32"><a xlink:href="DiffusionOptions_8hpp.html" target="_top" xlink:title="Option for Mass Diffusion problems.">
<polygon fill="none" stroke="black" points="567,-230 567,-249 735,-249 735,-230 567,-230"/>
<text text-anchor="middle" x="651" y="-237" font-family="serif" font-size="10.00">Options/DiffusionOptions.hpp</text>
</a>
</g>
</g>
<!-- Node11&#45;&gt;Node32 -->
<g id="edge65" class="edge">
<title>Node11&#45;&gt;Node32</title>
<path fill="none" stroke="midnightblue" d="M1144.73,-295.11C1056.3,-287.81 887.82,-272.97 745,-255 734.7,-253.7 723.78,-252.17 713.18,-250.59"/>
<polygon fill="midnightblue" stroke="midnightblue" points="713.55,-247.11 703.13,-249.07 712.5,-254.03 713.55,-247.11"/>
</g>
<!-- Node33 -->
<g id="node33" class="node">
<title>Node33</title>
<g id="a_node33"><a xlink:href="IntegratorsOptions_8hpp.html" target="_top" xlink:title="Options for Integrators.">
<polygon fill="none" stroke="black" points="1844.5,-230 1844.5,-249 2023.5,-249 2023.5,-230 1844.5,-230"/>
<text text-anchor="middle" x="1934" y="-237" font-family="serif" font-size="10.00">Options/IntegratorsOptions.hpp</text>
</a>
</g>
</g>
<!-- Node11&#45;&gt;Node33 -->
<g id="edge67" class="edge">
<title>Node11&#45;&gt;Node33</title>
<path fill="none" stroke="midnightblue" d="M1267.4,-297.16C1380.23,-291.59 1628.08,-277.77 1836,-255 1847.44,-253.75 1859.59,-252.16 1871.3,-250.5"/>
<polygon fill="midnightblue" stroke="midnightblue" points="1872.06,-253.92 1881.45,-249.02 1871.06,-247 1872.06,-253.92"/>
</g>
<!-- Node34 -->
<g id="node34" class="node">
<title>Node34</title>
<g id="a_node34"><a xlink:href="PhaseFieldOptions_8hpp.html" target="_top" xlink:title="Options for PhaseField problems.">
<polygon fill="none" stroke="black" points="753.5,-230 753.5,-249 932.5,-249 932.5,-230 753.5,-230"/>
<text text-anchor="middle" x="843" y="-237" font-family="serif" font-size="10.00">Options/PhaseFieldOptions.hpp</text>
</a>
</g>
</g>
<!-- Node11&#45;&gt;Node34 -->
<g id="edge70" class="edge">
<title>Node11&#45;&gt;Node34</title>
<path fill="none" stroke="midnightblue" d="M1153.99,-291.48C1088.22,-280.69 975.11,-262.15 904.94,-250.65"/>
<polygon fill="midnightblue" stroke="midnightblue" points="905.35,-247.17 894.91,-249.01 904.21,-254.08 905.35,-247.17"/>
</g>
<!-- Node35 -->
<g id="node35" class="node">
<title>Node35</title>
<g id="a_node35"><a xlink:href="PhysicalConvergenceOptions_8hpp.html" target="_top" xlink:title="Options for PhysicalConvergence objects.">
<polygon fill="none" stroke="black" points="2041.5,-224.5 2041.5,-254.5 2210.5,-254.5 2210.5,-224.5 2041.5,-224.5"/>
<text text-anchor="start" x="2049.5" y="-242.5" font-family="serif" font-size="10.00">Options/PhysicalConvergence</text>
<text text-anchor="middle" x="2126" y="-231.5" font-family="serif" font-size="10.00">Options.hpp</text>
</a>
</g>
</g>
<!-- Node11&#45;&gt;Node35 -->
<g id="edge72" class="edge">
<title>Node11&#45;&gt;Node35</title>
<path fill="none" stroke="midnightblue" d="M1267.12,-298.77C1402.79,-295.59 1739.51,-285.19 2031.05,-255.14"/>
<polygon fill="midnightblue" stroke="midnightblue" points="2031.82,-258.58 2041.4,-254.06 2031.09,-251.61 2031.82,-258.58"/>
</g>
<!-- Node36 -->
<g id="node36" class="node">
<title>Node36</title>
<g id="a_node36"><a xlink:href="PhysicalPropertiesOptions_8hpp.html" target="_top" xlink:title="Options for physical properties.">
<polygon fill="none" stroke="black" points="951,-224.5 951,-254.5 1105,-254.5 1105,-224.5 951,-224.5"/>
<text text-anchor="start" x="959" y="-242.5" font-family="serif" font-size="10.00">Options/PhysicalProperties</text>
<text text-anchor="middle" x="1028" y="-231.5" font-family="serif" font-size="10.00">Options.hpp</text>
</a>
</g>
</g>
<!-- Node11&#45;&gt;Node36 -->
<g id="edge75" class="edge">
<title>Node11&#45;&gt;Node36</title>
<path fill="none" stroke="midnightblue" d="M1180.5,-291.48C1154.25,-282.7 1112.63,-268.79 1079.49,-257.71"/>
<polygon fill="midnightblue" stroke="midnightblue" points="1080.54,-254.37 1069.95,-254.52 1078.33,-261.01 1080.54,-254.37"/>
</g>
<!-- Node37 -->
<g id="node37" class="node">
<title>Node37</title>
<g id="a_node37"><a xlink:href="ProblemsOptions_8hpp.html" target="_top" xlink:title="Options for Problem objects.">
<polygon fill="none" stroke="black" points="1307,-230 1307,-249 1477,-249 1477,-230 1307,-230"/>
<text text-anchor="middle" x="1392" y="-237" font-family="serif" font-size="10.00">Options/ProblemsOptions.hpp</text>
</a>
</g>
</g>
<!-- Node11&#45;&gt;Node37 -->
<g id="edge77" class="edge">
<title>Node11&#45;&gt;Node37</title>
<path fill="none" stroke="midnightblue" d="M1232.65,-291.48C1264.97,-281.14 1319.6,-263.66 1355.73,-252.1"/>
<polygon fill="midnightblue" stroke="midnightblue" points="1356.94,-255.39 1365.4,-249.01 1354.81,-248.72 1356.94,-255.39"/>
</g>
<!-- Node38 -->
<g id="node38" class="node">
<title>Node38</title>
<g id="a_node38"><a xlink:href="SolversOptions_8hpp.html" target="_top" xlink:title="Options for solvers and preconditioners.">
<polygon fill="none" stroke="black" points="351,-230 351,-249 511,-249 511,-230 351,-230"/>
<text text-anchor="middle" x="431" y="-237" font-family="serif" font-size="10.00">Options/SolversOptions.hpp</text>
</a>
</g>
</g>
<!-- Node11&#45;&gt;Node38 -->
<g id="edge80" class="edge">
<title>Node11&#45;&gt;Node38</title>
<path fill="none" stroke="midnightblue" d="M1144.8,-297.74C1025.35,-292.95 752.9,-280.06 525,-255 514.07,-253.8 502.46,-252.24 491.27,-250.59"/>
<polygon fill="midnightblue" stroke="midnightblue" points="491.55,-247.09 481.14,-249.06 490.5,-254.02 491.55,-247.09"/>
</g>
<!-- Node39 -->
<g id="node39" class="node">
<title>Node39</title>
<g id="a_node39"><a xlink:href="SpatialOptions_8hpp.html" target="_top" xlink:title="Options for Spatial discretization.">
<polygon fill="none" stroke="black" points="1495,-230 1495,-249 1653,-249 1653,-230 1495,-230"/>
<text text-anchor="middle" x="1574" y="-237" font-family="serif" font-size="10.00">Options/SpatialOptions.hpp</text>
</a>
</g>
</g>
<!-- Node11&#45;&gt;Node39 -->
<g id="edge82" class="edge">
<title>Node11&#45;&gt;Node39</title>
<path fill="none" stroke="midnightblue" d="M1259.43,-291.48C1315.78,-282.47 1407.15,-267.83 1486,-255 1494.55,-253.61 1503.57,-252.13 1512.44,-250.68"/>
<polygon fill="midnightblue" stroke="midnightblue" points="1513.06,-254.12 1522.35,-249.04 1511.92,-247.21 1513.06,-254.12"/>
</g>
<!-- Node40 -->
<g id="node40" class="node">
<title>Node40</title>
<g id="a_node40"><a xlink:href="TimeOptions_8hpp.html" target="_top" xlink:title="Options for Time discretization.">
<polygon fill="none" stroke="black" points="2229,-230 2229,-249 2377,-249 2377,-230 2229,-230"/>
<text text-anchor="middle" x="2303" y="-237" font-family="serif" font-size="10.00">Options/TimeOptions.hpp</text>
</a>
</g>
</g>
<!-- Node11&#45;&gt;Node40 -->
<g id="edge85" class="edge">
<title>Node11&#45;&gt;Node40</title>
<path fill="none" stroke="midnightblue" d="M1267.07,-300.02C1425.1,-299.48 1860.23,-294.24 2220,-255 2229.92,-253.92 2240.46,-252.38 2250.57,-250.71"/>
<polygon fill="midnightblue" stroke="midnightblue" points="2251.23,-254.15 2260.5,-249.01 2250.05,-247.25 2251.23,-254.15"/>
</g>
<!-- Node12&#45;&gt;Node7 -->
<g id="edge12" class="edge">
<title>Node12&#45;&gt;Node7</title>
<path fill="none" stroke="midnightblue" d="M1738.68,-224.47C1715.12,-192.82 1654.82,-114.12 1596,-56 1585.06,-45.19 1571.73,-34.24 1560.93,-25.84"/>
<polygon fill="midnightblue" stroke="midnightblue" points="1562.98,-23 1552.91,-19.71 1558.73,-28.56 1562.98,-23"/>
</g>
<!-- Node12&#45;&gt;Node13 -->
<g id="edge13" class="edge">
<title>Node12&#45;&gt;Node13</title>
<path fill="none" stroke="midnightblue" d="M1671.26,-225.17C1668.14,-224.75 1665.04,-224.36 1662,-224 1449.3,-198.76 1194.53,-185.88 1084.74,-181.16"/>
<polygon fill="midnightblue" stroke="midnightblue" points="1084.72,-177.66 1074.58,-180.73 1084.42,-184.65 1084.72,-177.66"/>
</g>
<!-- Node14 -->
<g id="node14" class="node">
<title>Node14</title>
<g id="a_node14"><a xlink:href="UtilsForData_8hpp.html" target="_top" xlink:title="Usefull methods for data.">
<polygon fill="none" stroke="black" points="267.5,-56.5 267.5,-75.5 398.5,-75.5 398.5,-56.5 267.5,-56.5"/>
<text text-anchor="middle" x="333" y="-63.5" font-family="serif" font-size="10.00">Utils/UtilsForData.hpp</text>
</a>
</g>
</g>
<!-- Node13&#45;&gt;Node14 -->
<g id="edge14" class="edge">
<title>Node13&#45;&gt;Node14</title>
<path fill="none" stroke="midnightblue" d="M985.11,-175.68C868.87,-171.9 560.24,-159.49 462,-132 421.74,-120.73 379.21,-96.58 354.44,-81.1"/>
<polygon fill="midnightblue" stroke="midnightblue" points="356.18,-78.05 345.86,-75.63 352.42,-83.96 356.18,-78.05"/>
</g>
<!-- Node22 -->
<g id="node22" class="node">
<title>Node22</title>
<g id="a_node22"><a xlink:href="UtilsForDebug_8hpp.html" target="_top" xlink:title="Usefull methods for debug.">
<polygon fill="none" stroke="black" points="470.5,-112.5 470.5,-131.5 611.5,-131.5 611.5,-112.5 470.5,-112.5"/>
<text text-anchor="middle" x="541" y="-119.5" font-family="serif" font-size="10.00">Utils/UtilsForDebug.hpp</text>
</a>
</g>
</g>
<!-- Node13&#45;&gt;Node22 -->
<g id="edge28" class="edge">
<title>Node13&#45;&gt;Node22</title>
<path fill="none" stroke="midnightblue" d="M985.31,-172.06C902.82,-162.96 725.61,-143.39 621.64,-131.91"/>
<polygon fill="midnightblue" stroke="midnightblue" points="621.83,-128.4 611.51,-130.79 621.06,-135.36 621.83,-128.4"/>
</g>
<!-- Node25 -->
<g id="node25" class="node">
<title>Node25</title>
<g id="a_node25"><a xlink:href="UtilsForOptions_8hpp.html" target="_top" xlink:title="Usefull methods for Options.">
<polygon fill="none" stroke="black" points="789,-56.5 789,-75.5 935,-75.5 935,-56.5 789,-56.5"/>
<text text-anchor="middle" x="862" y="-63.5" font-family="serif" font-size="10.00">Utils/UtilsForOptions.hpp</text>
</a>
</g>
</g>
<!-- Node13&#45;&gt;Node25 -->
<g id="edge39" class="edge">
<title>Node13&#45;&gt;Node25</title>
<path fill="none" stroke="midnightblue" d="M1016.82,-168.37C987.99,-149.49 919.1,-104.38 883.74,-81.24"/>
<polygon fill="midnightblue" stroke="midnightblue" points="885.4,-78.14 875.12,-75.59 881.57,-84 885.4,-78.14"/>
</g>
<!-- Node28 -->
<g id="node28" class="node">
<title>Node28</title>
<g id="a_node28"><a xlink:href="UtilsForPostProcessing_8hpp.html" target="_top" xlink:title="Usefull methods for post&#45;processing.">
<polygon fill="none" stroke="black" points="953.5,-56.5 953.5,-75.5 1136.5,-75.5 1136.5,-56.5 953.5,-56.5"/>
<text text-anchor="middle" x="1045" y="-63.5" font-family="serif" font-size="10.00">Utils/UtilsForPostProcessing.hpp</text>
</a>
</g>
</g>
<!-- Node13&#45;&gt;Node28 -->
<g id="edge49" class="edge">
<title>Node13&#45;&gt;Node28</title>
<path fill="none" stroke="midnightblue" d="M1031.18,-168.37C1033.6,-150.62 1039.18,-109.67 1042.46,-85.6"/>
<polygon fill="midnightblue" stroke="midnightblue" points="1045.95,-85.97 1043.83,-75.59 1039.01,-85.03 1045.95,-85.97"/>
</g>
<!-- Node29 -->
<g id="node29" class="node">
<title>Node29</title>
<g id="a_node29"><a xlink:href="UtilsForVariants_8hpp.html" target="_top" xlink:title="manage std::Variants">
<polygon fill="none" stroke="black" points="1269,-112.5 1269,-131.5 1417,-131.5 1417,-112.5 1269,-112.5"/>
<text text-anchor="middle" x="1343" y="-119.5" font-family="serif" font-size="10.00">Utils/UtilsForVariants.hpp</text>
</a>
</g>
</g>
<!-- Node13&#45;&gt;Node29 -->
<g id="edge56" class="edge">
<title>Node13&#45;&gt;Node29</title>
<path fill="none" stroke="midnightblue" d="M1074.51,-169.32C1129.35,-159.86 1222.71,-143.75 1283.62,-133.24"/>
<polygon fill="midnightblue" stroke="midnightblue" points="1284.22,-136.69 1293.48,-131.54 1283.03,-129.8 1284.22,-136.69"/>
</g>
<!-- Node14&#45;&gt;Node2 -->
<g id="edge19" class="edge">
<title>Node14&#45;&gt;Node2</title>
<path fill="none" stroke="midnightblue" d="M281.42,-56.44C231.89,-48.1 154.67,-34.81 78.5,-20.24"/>
<polygon fill="midnightblue" stroke="midnightblue" points="78.73,-16.72 68.25,-18.27 77.41,-23.6 78.73,-16.72"/>
</g>
<!-- Node14&#45;&gt;Node3 -->
<g id="edge20" class="edge">
<title>Node14&#45;&gt;Node3</title>
<path fill="none" stroke="midnightblue" d="M355.02,-56.44C378.1,-47.48 414.56,-33.31 440.64,-23.18"/>
<polygon fill="midnightblue" stroke="midnightblue" points="442.02,-26.4 450.08,-19.52 439.49,-19.88 442.02,-26.4"/>
</g>
<!-- Node14&#45;&gt;Node7 -->
<g id="edge23" class="edge">
<title>Node14&#45;&gt;Node7</title>
<path fill="none" stroke="midnightblue" d="M398.81,-62.06C621.62,-52.1 1342.94,-19.85 1507.4,-12.5"/>
<polygon fill="midnightblue" stroke="midnightblue" points="1507.59,-16 1517.42,-12.05 1507.28,-9 1507.59,-16"/>
</g>
<!-- Node14&#45;&gt;Node8 -->
<g id="edge24" class="edge">
<title>Node14&#45;&gt;Node8</title>
<path fill="none" stroke="midnightblue" d="M343.44,-56.32C353.15,-48.26 367.82,-36.08 379.5,-26.37"/>
<polygon fill="midnightblue" stroke="midnightblue" points="381.91,-28.92 387.37,-19.83 377.44,-23.53 381.91,-28.92"/>
</g>
<!-- Node14&#45;&gt;Node9 -->
<g id="edge25" class="edge">
<title>Node14&#45;&gt;Node9</title>
<path fill="none" stroke="midnightblue" d="M388.47,-56.48C436.66,-48.73 508.53,-36.33 579.93,-20.07"/>
<polygon fill="midnightblue" stroke="midnightblue" points="581.04,-23.41 590,-17.75 579.46,-16.59 581.04,-23.41"/>
</g>
<!-- Node14&#45;&gt;Node10 -->
<g id="edge26" class="edge">
<title>Node14&#45;&gt;Node10</title>
<path fill="none" stroke="midnightblue" d="M398.52,-59.92C504.68,-51.66 720.88,-34.78 904,-20 928.93,-17.99 957.07,-15.66 978.51,-13.88"/>
<polygon fill="midnightblue" stroke="midnightblue" points="979.08,-17.35 988.76,-13.03 978.5,-10.37 979.08,-17.35"/>
</g>
<!-- Node15 -->
<g id="node15" class="node">
<title>Node15</title>
<g id="a_node15"><a xlink:title=" ">
<polygon fill="none" stroke="#bfbfbf" points="173.5,-0.5 173.5,-19.5 232.5,-19.5 232.5,-0.5 173.5,-0.5"/>
<text text-anchor="middle" x="203" y="-7.5" font-family="serif" font-size="10.00">unistd.h</text>
</a>
</g>
</g>
<!-- Node14&#45;&gt;Node15 -->
<g id="edge15" class="edge">
<title>Node14&#45;&gt;Node15</title>
<path fill="none" stroke="midnightblue" d="M312.4,-56.44C291.01,-47.56 257.32,-33.56 232.98,-23.45"/>
<polygon fill="midnightblue" stroke="midnightblue" points="234.08,-20.12 223.5,-19.52 231.39,-26.58 234.08,-20.12"/>
</g>
<!-- Node16 -->
<g id="node16" class="node">
<title>Node16</title>
<g id="a_node16"><a xlink:title=" ">
<polygon fill="none" stroke="#bfbfbf" points="829,-0.5 829,-19.5 895,-19.5 895,-0.5 829,-0.5"/>
<text text-anchor="middle" x="862" y="-7.5" font-family="serif" font-size="10.00">algorithm</text>
</a>
</g>
</g>
<!-- Node14&#45;&gt;Node16 -->
<g id="edge16" class="edge">
<title>Node14&#45;&gt;Node16</title>
<path fill="none" stroke="midnightblue" d="M398.75,-58.3C484.93,-49.51 640.78,-33.61 774,-20 788.63,-18.51 804.63,-16.87 818.92,-15.41"/>
<polygon fill="midnightblue" stroke="midnightblue" points="819.4,-18.88 828.99,-14.38 818.68,-11.91 819.4,-18.88"/>
</g>
<!-- Node17 -->
<g id="node17" class="node">
<title>Node17</title>
<g id="a_node17"><a xlink:title=" ">
<polygon fill="none" stroke="#bfbfbf" points="308,-0.5 308,-19.5 358,-19.5 358,-0.5 308,-0.5"/>
<text text-anchor="middle" x="333" y="-7.5" font-family="serif" font-size="10.00">cctype</text>
</a>
</g>
</g>
<!-- Node14&#45;&gt;Node17 -->
<g id="edge17" class="edge">
<title>Node14&#45;&gt;Node17</title>
<path fill="none" stroke="midnightblue" d="M333,-56.08C333,-49.01 333,-38.86 333,-29.99"/>
<polygon fill="midnightblue" stroke="midnightblue" points="336.5,-29.75 333,-19.75 329.5,-29.75 336.5,-29.75"/>
</g>
<!-- Node18 -->
<g id="node18" class="node">
<title>Node18</title>
<g id="a_node18"><a xlink:title=" ">
<polygon fill="none" stroke="#bfbfbf" points="524.5,-0.5 524.5,-19.5 571.5,-19.5 571.5,-0.5 524.5,-0.5"/>
<text text-anchor="middle" x="548" y="-7.5" font-family="serif" font-size="10.00">cstdio</text>
</a>
</g>
</g>
<!-- Node14&#45;&gt;Node18 -->
<g id="edge18" class="edge">
<title>Node14&#45;&gt;Node18</title>
<path fill="none" stroke="midnightblue" d="M368.64,-56.46C403.36,-48.07 457.91,-34.74 514.4,-20.11"/>
<polygon fill="midnightblue" stroke="midnightblue" points="515.43,-23.46 524.23,-17.56 513.67,-16.68 515.43,-23.46"/>
</g>
<!-- Node19 -->
<g id="node19" class="node">
<title>Node19</title>
<g id="a_node19"><a xlink:title=" ">
<polygon fill="none" stroke="#bfbfbf" points="703.5,-0.5 703.5,-19.5 764.5,-19.5 764.5,-0.5 703.5,-0.5"/>
<text text-anchor="middle" x="734" y="-7.5" font-family="serif" font-size="10.00">iostream</text>
</a>
</g>
</g>
<!-- Node14&#45;&gt;Node19 -->
<g id="edge21" class="edge">
<title>Node14&#45;&gt;Node19</title>
<path fill="none" stroke="midnightblue" d="M396.54,-56.44C479.72,-45.24 623.15,-25.93 693.17,-16.5"/>
<polygon fill="midnightblue" stroke="midnightblue" points="693.91,-19.93 703.35,-15.13 692.97,-12.99 693.91,-19.93"/>
</g>
<!-- Node20 -->
<g id="node20" class="node">
<title>Node20</title>
<g id="a_node20"><a xlink:title=" ">
<polygon fill="none" stroke="#bfbfbf" points="250.5,-0.5 250.5,-19.5 289.5,-19.5 289.5,-0.5 250.5,-0.5"/>
<text text-anchor="middle" x="270" y="-7.5" font-family="serif" font-size="10.00">map</text>
</a>
</g>
</g>
<!-- Node14&#45;&gt;Node20 -->
<g id="edge22" class="edge">
<title>Node14&#45;&gt;Node20</title>
<path fill="none" stroke="midnightblue" d="M322.88,-56.32C313.47,-48.26 299.26,-36.08 287.93,-26.37"/>
<polygon fill="midnightblue" stroke="midnightblue" points="290.18,-23.68 280.31,-19.83 285.62,-29 290.18,-23.68"/>
</g>
<!-- Node14&#45;&gt;Node21 -->
<g id="edge27" class="edge">
<title>Node14&#45;&gt;Node21</title>
<path fill="none" stroke="midnightblue" d="M299.41,-56.44C262.81,-47.12 204.16,-32.18 164.17,-22"/>
<polygon fill="midnightblue" stroke="midnightblue" points="164.99,-18.59 154.43,-19.52 163.26,-25.38 164.99,-18.59"/>
</g>
<!-- Node22&#45;&gt;Node3 -->
<g id="edge33" class="edge">
<title>Node22&#45;&gt;Node3</title>
<path fill="none" stroke="midnightblue" d="M535.59,-112.37C524.25,-94.3 497.83,-52.18 482.86,-28.31"/>
<polygon fill="midnightblue" stroke="midnightblue" points="485.67,-26.2 477.39,-19.59 479.74,-29.92 485.67,-26.2"/>
</g>
<!-- Node22&#45;&gt;Node7 -->
<g id="edge35" class="edge">
<title>Node22&#45;&gt;Node7</title>
<path fill="none" stroke="midnightblue" d="M611.52,-117.79C724.59,-112.19 953.3,-98.98 1146,-76 1280.29,-59.99 1438.65,-30.76 1506.9,-17.66"/>
<polygon fill="midnightblue" stroke="midnightblue" points="1507.9,-21.03 1517.06,-15.7 1506.58,-14.16 1507.9,-21.03"/>
</g>
<!-- Node22&#45;&gt;Node9 -->
<g id="edge36" class="edge">
<title>Node22&#45;&gt;Node9</title>
<path fill="none" stroke="midnightblue" d="M541.93,-112.35C543.66,-99.23 548.35,-73.95 560,-56 567.8,-43.98 579.77,-33.42 590.36,-25.57"/>
<polygon fill="midnightblue" stroke="midnightblue" points="592.64,-28.24 598.81,-19.63 588.62,-22.51 592.64,-28.24"/>
</g>
<!-- Node22&#45;&gt;Node14 -->
<g id="edge37" class="edge">
<title>Node22&#45;&gt;Node14</title>
<path fill="none" stroke="midnightblue" d="M508.04,-112.44C472.21,-103.14 414.84,-88.25 375.61,-78.06"/>
<polygon fill="midnightblue" stroke="midnightblue" points="376.36,-74.64 365.8,-75.52 374.6,-81.42 376.36,-74.64"/>
</g>
<!-- Node22&#45;&gt;Node15 -->
<g id="edge30" class="edge">
<title>Node22&#45;&gt;Node15</title>
<path fill="none" stroke="midnightblue" d="M470.36,-115.29C398.96,-108.55 294.28,-95.69 259,-76 239.15,-64.93 223.07,-43.96 213.32,-28.83"/>
<polygon fill="midnightblue" stroke="midnightblue" points="216.05,-26.59 207.84,-19.89 210.08,-30.25 216.05,-26.59"/>
</g>
<!-- Node22&#45;&gt;Node18 -->
<g id="edge31" class="edge">
<title>Node22&#45;&gt;Node18</title>
<path fill="none" stroke="midnightblue" d="M536.65,-112.16C531.06,-99.65 522.55,-76.06 527,-56 529.12,-46.43 533.51,-36.48 537.72,-28.37"/>
<polygon fill="midnightblue" stroke="midnightblue" points="540.82,-30 542.62,-19.56 534.7,-26.6 540.82,-30"/>
</g>
<!-- Node22&#45;&gt;Node19 -->
<g id="edge34" class="edge">
<title>Node22&#45;&gt;Node19</title>
<path fill="none" stroke="midnightblue" d="M578.21,-112.43C604.61,-105.29 640.14,-93.43 668,-76 688.97,-62.88 708.57,-42.06 720.87,-27.53"/>
<polygon fill="midnightblue" stroke="midnightblue" points="723.57,-29.75 727.23,-19.81 718.17,-25.3 723.57,-29.75"/>
</g>
<!-- Node22&#45;&gt;Node21 -->
<g id="edge38" class="edge">
<title>Node22&#45;&gt;Node21</title>
<path fill="none" stroke="midnightblue" d="M470.19,-118.52C406.12,-114.47 309.99,-103.85 231,-76 196.77,-63.93 161.36,-40.74 140.26,-25.57"/>
<polygon fill="midnightblue" stroke="midnightblue" points="142.27,-22.7 132.14,-19.61 138.14,-28.35 142.27,-22.7"/>
</g>
<!-- Node23 -->
<g id="node23" class="node">
<title>Node23</title>
<g id="a_node23"><a xlink:title=" ">
<polygon fill="none" stroke="#bfbfbf" points="569,-56.5 569,-75.5 659,-75.5 659,-56.5 569,-56.5"/>
<text text-anchor="middle" x="614" y="-63.5" font-family="serif" font-size="10.00">sys/resource.h</text>
</a>
</g>
</g>
<!-- Node22&#45;&gt;Node23 -->
<g id="edge29" class="edge">
<title>Node22&#45;&gt;Node23</title>
<path fill="none" stroke="midnightblue" d="M552.73,-112.32C563.84,-104.11 580.74,-91.6 593.98,-81.81"/>
<polygon fill="midnightblue" stroke="midnightblue" points="596.1,-84.59 602.06,-75.83 591.94,-78.97 596.1,-84.59"/>
</g>
<!-- Node24 -->
<g id="node24" class="node">
<title>Node24</title>
<g id="a_node24"><a xlink:title=" ">
<polygon fill="none" stroke="#bfbfbf" points="715,-56.5 715,-75.5 771,-75.5 771,-56.5 715,-56.5"/>
<text text-anchor="middle" x="743" y="-63.5" font-family="serif" font-size="10.00">fstream</text>
</a>
</g>
</g>
<!-- Node22&#45;&gt;Node24 -->
<g id="edge32" class="edge">
<title>Node22&#45;&gt;Node24</title>
<path fill="none" stroke="midnightblue" d="M573.01,-112.44C608.85,-102.86 666.9,-87.34 705.02,-77.15"/>
<polygon fill="midnightblue" stroke="midnightblue" points="705.97,-80.52 714.73,-74.56 704.16,-73.76 705.97,-80.52"/>
</g>
<!-- Node25&#45;&gt;Node3 -->
<g id="edge41" class="edge">
<title>Node25&#45;&gt;Node3</title>
<path fill="none" stroke="midnightblue" d="M791.66,-56.46C706.31,-46 567.46,-28.6 516,-20 515.9,-19.98 515.8,-19.97 515.7,-19.95"/>
<polygon fill="midnightblue" stroke="midnightblue" points="516.53,-16.54 506.06,-18.22 515.29,-23.43 516.53,-16.54"/>
</g>
<!-- Node25&#45;&gt;Node7 -->
<g id="edge44" class="edge">
<title>Node25&#45;&gt;Node7</title>
<path fill="none" stroke="midnightblue" d="M935.31,-56.92C938.58,-56.6 941.82,-56.29 945,-56 1158.95,-36.33 1416.69,-19.04 1507.43,-13.15"/>
<polygon fill="midnightblue" stroke="midnightblue" points="1507.66,-16.64 1517.41,-12.5 1507.21,-9.66 1507.66,-16.64"/>
</g>
<!-- Node25&#45;&gt;Node8 -->
<g id="edge45" class="edge">
<title>Node25&#45;&gt;Node8</title>
<path fill="none" stroke="midnightblue" d="M788.69,-56.93C785.75,-56.61 782.85,-56.3 780,-56 627.26,-39.78 584.66,-49.56 429.46,-19.72"/>
<polygon fill="midnightblue" stroke="midnightblue" points="430.04,-16.27 419.56,-17.8 428.71,-23.14 430.04,-16.27"/>
</g>
<!-- Node25&#45;&gt;Node9 -->
<g id="edge46" class="edge">
<title>Node25&#45;&gt;Node9</title>
<path fill="none" stroke="midnightblue" d="M822.55,-56.44C773.82,-45.88 691.8,-28.09 646.17,-18.19"/>
<polygon fill="midnightblue" stroke="midnightblue" points="646.72,-14.73 636.2,-16.03 645.23,-21.57 646.72,-14.73"/>
</g>
<!-- Node25&#45;&gt;Node10 -->
<g id="edge48" class="edge">
<title>Node25&#45;&gt;Node10</title>
<path fill="none" stroke="midnightblue" d="M885.93,-56.44C911.22,-47.4 951.3,-33.06 979.68,-22.92"/>
<polygon fill="midnightblue" stroke="midnightblue" points="980.95,-26.18 989.19,-19.52 978.59,-19.59 980.95,-26.18"/>
</g>
<!-- Node25&#45;&gt;Node16 -->
<g id="edge40" class="edge">
<title>Node25&#45;&gt;Node16</title>
<path fill="none" stroke="midnightblue" d="M862,-56.08C862,-49.01 862,-38.86 862,-29.99"/>
<polygon fill="midnightblue" stroke="midnightblue" points="865.5,-29.75 862,-19.75 858.5,-29.75 865.5,-29.75"/>
</g>
<!-- Node25&#45;&gt;Node19 -->
<g id="edge42" class="edge">
<title>Node25&#45;&gt;Node19</title>
<path fill="none" stroke="midnightblue" d="M841.72,-56.44C820.65,-47.56 787.48,-33.56 763.51,-23.45"/>
<polygon fill="midnightblue" stroke="midnightblue" points="764.76,-20.18 754.19,-19.52 762.04,-26.63 764.76,-20.18"/>
</g>
<!-- Node26 -->
<g id="node26" class="node">
<title>Node26</title>
<g id="a_node26"><a xlink:title=" ">
<polygon fill="none" stroke="#bfbfbf" points="1055,-0.5 1055,-19.5 1099,-19.5 1099,-0.5 1055,-0.5"/>
<text text-anchor="middle" x="1077" y="-7.5" font-family="serif" font-size="10.00">limits</text>
</a>
</g>
</g>
<!-- Node25&#45;&gt;Node26 -->
<g id="edge43" class="edge">
<title>Node25&#45;&gt;Node26</title>
<path fill="none" stroke="midnightblue" d="M898.77,-56.49C933.96,-48.25 988.76,-35.12 1044.92,-20.21"/>
<polygon fill="midnightblue" stroke="midnightblue" points="1045.92,-23.56 1054.68,-17.6 1044.12,-16.8 1045.92,-23.56"/>
</g>
<!-- Node27 -->
<g id="node27" class="node">
<title>Node27</title>
<g id="a_node27"><a xlink:title=" ">
<polygon fill="none" stroke="#bfbfbf" points="1169.5,-0.5 1169.5,-19.5 1222.5,-19.5 1222.5,-0.5 1169.5,-0.5"/>
<text text-anchor="middle" x="1196" y="-7.5" font-family="serif" font-size="10.00">variant</text>
</a>
</g>
</g>
<!-- Node25&#45;&gt;Node27 -->
<g id="edge47" class="edge">
<title>Node25&#45;&gt;Node27</title>
<path fill="none" stroke="midnightblue" d="M914.92,-56.44C983.12,-45.42 1099.93,-26.53 1159.19,-16.95"/>
<polygon fill="midnightblue" stroke="midnightblue" points="1159.91,-20.38 1169.22,-15.33 1158.79,-13.47 1159.91,-20.38"/>
</g>
<!-- Node28&#45;&gt;Node7 -->
<g id="edge53" class="edge">
<title>Node28&#45;&gt;Node7</title>
<path fill="none" stroke="midnightblue" d="M1123.32,-56.47C1233.34,-44.49 1428.97,-23.2 1507.25,-14.67"/>
<polygon fill="midnightblue" stroke="midnightblue" points="1507.94,-18.12 1517.5,-13.56 1507.18,-11.16 1507.94,-18.12"/>
</g>
<!-- Node28&#45;&gt;Node9 -->
<g id="edge54" class="edge">
<title>Node28&#45;&gt;Node9</title>
<path fill="none" stroke="midnightblue" d="M976.55,-56.44C882.41,-44.68 716.64,-23.96 646.19,-15.15"/>
<polygon fill="midnightblue" stroke="midnightblue" points="646.47,-11.66 636.11,-13.89 645.6,-18.6 646.47,-11.66"/>
</g>
<!-- Node28&#45;&gt;Node10 -->
<g id="edge55" class="edge">
<title>Node28&#45;&gt;Node10</title>
<path fill="none" stroke="midnightblue" d="M1039.72,-56.08C1035.29,-48.61 1028.84,-37.72 1023.38,-28.52"/>
<polygon fill="midnightblue" stroke="midnightblue" points="1026.29,-26.57 1018.19,-19.75 1020.27,-30.14 1026.29,-26.57"/>
</g>
<!-- Node28&#45;&gt;Node16 -->
<g id="edge50" class="edge">
<title>Node28&#45;&gt;Node16</title>
<path fill="none" stroke="midnightblue" d="M1016,-56.44C984.82,-47.24 935.07,-32.56 900.59,-22.39"/>
<polygon fill="midnightblue" stroke="midnightblue" points="901.44,-18.99 890.86,-19.52 899.46,-25.7 901.44,-18.99"/>
</g>
<!-- Node28&#45;&gt;Node19 -->
<g id="edge51" class="edge">
<title>Node28&#45;&gt;Node19</title>
<path fill="none" stroke="midnightblue" d="M995.72,-56.44C934.61,-45.83 831.58,-27.94 774.72,-18.07"/>
<polygon fill="midnightblue" stroke="midnightblue" points="775.12,-14.59 764.67,-16.32 773.92,-21.48 775.12,-14.59"/>
</g>
<!-- Node28&#45;&gt;Node26 -->
<g id="edge52" class="edge">
<title>Node28&#45;&gt;Node26</title>
<path fill="none" stroke="midnightblue" d="M1050.28,-56.08C1054.71,-48.61 1061.16,-37.72 1066.62,-28.52"/>
<polygon fill="midnightblue" stroke="midnightblue" points="1069.73,-30.14 1071.81,-19.75 1063.71,-26.57 1069.73,-30.14"/>
</g>
<!-- Node29&#45;&gt;Node4 -->
<g id="edge57" class="edge">
<title>Node29&#45;&gt;Node4</title>
<path fill="none" stroke="midnightblue" d="M1374.37,-112.44C1408.76,-103.07 1464,-88 1501.36,-77.81"/>
<polygon fill="midnightblue" stroke="midnightblue" points="1502.66,-81.08 1511.39,-75.08 1500.82,-74.33 1502.66,-81.08"/>
</g>
<!-- Node29&#45;&gt;Node27 -->
<g id="edge59" class="edge">
<title>Node29&#45;&gt;Node27</title>
<path fill="none" stroke="midnightblue" d="M1331.47,-112.37C1306.45,-93.65 1246.98,-49.15 1215.82,-25.83"/>
<polygon fill="midnightblue" stroke="midnightblue" points="1217.58,-22.78 1207.48,-19.59 1213.39,-28.39 1217.58,-22.78"/>
</g>
<!-- Node30 -->
<g id="node30" class="node">
<title>Node30</title>
<g id="a_node30"><a xlink:title=" ">
<polygon fill="none" stroke="#bfbfbf" points="1345.5,-56.5 1345.5,-75.5 1416.5,-75.5 1416.5,-56.5 1345.5,-56.5"/>
<text text-anchor="middle" x="1381" y="-63.5" font-family="serif" font-size="10.00">type_traits</text>
</a>
</g>
</g>
<!-- Node29&#45;&gt;Node30 -->
<g id="edge58" class="edge">
<title>Node29&#45;&gt;Node30</title>
<path fill="none" stroke="midnightblue" d="M1349.27,-112.08C1354.64,-104.46 1362.52,-93.26 1369.08,-83.94"/>
<polygon fill="midnightblue" stroke="midnightblue" points="1371.95,-85.94 1374.84,-75.75 1366.22,-81.91 1371.95,-85.94"/>
</g>
<!-- Node31&#45;&gt;Node7 -->
<g id="edge62" class="edge">
<title>Node31&#45;&gt;Node7</title>
<path fill="none" stroke="midnightblue" d="M1232.03,-229.95C1275.31,-214.9 1363.52,-180.58 1426,-132 1460.86,-104.89 1459.14,-87.58 1490,-56 1500.32,-45.44 1512.72,-34.47 1522.71,-26"/>
<polygon fill="midnightblue" stroke="midnightblue" points="1525.01,-28.64 1530.43,-19.54 1520.52,-23.27 1525.01,-28.64"/>
</g>
<!-- Node31&#45;&gt;Node10 -->
<g id="edge63" class="edge">
<title>Node31&#45;&gt;Node10</title>
<path fill="none" stroke="midnightblue" d="M1207.66,-229.92C1212.7,-201.21 1224.75,-107.47 1179,-56 1140.3,-12.47 1108.36,-33.71 1046.86,-19.99"/>
<polygon fill="midnightblue" stroke="midnightblue" points="1047.7,-16.6 1037.15,-17.59 1046.02,-23.39 1047.7,-16.6"/>
</g>
<!-- Node31&#45;&gt;Node13 -->
<g id="edge64" class="edge">
<title>Node31&#45;&gt;Node13</title>
<path fill="none" stroke="midnightblue" d="M1180.78,-229.98C1150.33,-219.68 1098.95,-202.31 1064.76,-190.75"/>
<polygon fill="midnightblue" stroke="midnightblue" points="1065.76,-187.4 1055.17,-187.51 1063.52,-194.03 1065.76,-187.4"/>
</g>
<!-- Node31&#45;&gt;Node26 -->
<g id="edge61" class="edge">
<title>Node31&#45;&gt;Node26</title>
<path fill="none" stroke="midnightblue" d="M1210.02,-229.81C1222.44,-201.54 1257.01,-110.89 1217,-56 1192.51,-22.4 1142.51,-13.34 1109.38,-11.19"/>
<polygon fill="midnightblue" stroke="midnightblue" points="1109.42,-7.69 1099.27,-10.72 1109.09,-14.68 1109.42,-7.69"/>
</g>
<!-- Node32&#45;&gt;Node13 -->
<g id="edge66" class="edge">
<title>Node32&#45;&gt;Node13</title>
<path fill="none" stroke="midnightblue" d="M705.3,-229.98C777.09,-218.7 902.9,-198.95 975.03,-187.63"/>
<polygon fill="midnightblue" stroke="midnightblue" points="975.93,-191.03 985.27,-186.02 974.85,-184.12 975.93,-191.03"/>
</g>
<!-- Node33&#45;&gt;Node7 -->
<g id="edge68" class="edge">
<title>Node33&#45;&gt;Node7</title>
<path fill="none" stroke="midnightblue" d="M1919.07,-229.86C1859.5,-195.37 1638.4,-67.38 1564.92,-24.85"/>
<polygon fill="midnightblue" stroke="midnightblue" points="1566.35,-21.63 1555.94,-19.65 1562.84,-27.69 1566.35,-21.63"/>
</g>
<!-- Node33&#45;&gt;Node13 -->
<g id="edge69" class="edge">
<title>Node33&#45;&gt;Node13</title>
<path fill="none" stroke="midnightblue" d="M1882.49,-229.98C1867.53,-227.75 1851.14,-225.54 1836,-224 1554.31,-195.36 1215.25,-183.9 1084.81,-180.34"/>
<polygon fill="midnightblue" stroke="midnightblue" points="1084.76,-176.84 1074.67,-180.07 1084.58,-183.83 1084.76,-176.84"/>
</g>
<!-- Node34&#45;&gt;Node13 -->
<g id="edge71" class="edge">
<title>Node34&#45;&gt;Node13</title>
<path fill="none" stroke="midnightblue" d="M869.79,-229.98C902.29,-219.64 957.21,-202.16 993.54,-190.6"/>
<polygon fill="midnightblue" stroke="midnightblue" points="994.79,-193.88 1003.26,-187.51 992.67,-187.21 994.79,-193.88"/>
</g>
<!-- Node35&#45;&gt;Node7 -->
<g id="edge73" class="edge">
<title>Node35&#45;&gt;Node7</title>
<path fill="none" stroke="midnightblue" d="M2089.85,-224.44C1983.52,-183.09 1673.02,-62.34 1572.68,-23.32"/>
<polygon fill="midnightblue" stroke="midnightblue" points="1573.69,-19.96 1563.1,-19.59 1571.15,-26.48 1573.69,-19.96"/>
</g>
<!-- Node35&#45;&gt;Node13 -->
<g id="edge74" class="edge">
<title>Node35&#45;&gt;Node13</title>
<path fill="none" stroke="midnightblue" d="M2041.4,-224.91C2038.57,-224.58 2035.76,-224.28 2033,-224 1672.65,-187.93 1236.57,-180.77 1085.03,-179.35"/>
<polygon fill="midnightblue" stroke="midnightblue" points="1084.65,-175.85 1074.62,-179.26 1084.58,-182.85 1084.65,-175.85"/>
</g>
<!-- Node36&#45;&gt;Node13 -->
<g id="edge76" class="edge">
<title>Node36&#45;&gt;Node13</title>
<path fill="none" stroke="midnightblue" d="M1028.47,-224.4C1028.74,-216.47 1029.08,-206.46 1029.37,-197.86"/>
<polygon fill="midnightblue" stroke="midnightblue" points="1032.87,-197.77 1029.71,-187.66 1025.87,-197.53 1032.87,-197.77"/>
</g>
<!-- Node37&#45;&gt;Node7 -->
<g id="edge78" class="edge">
<title>Node37&#45;&gt;Node7</title>
<path fill="none" stroke="midnightblue" d="M1408.61,-229.85C1423.76,-221.17 1445.74,-206.45 1459,-188 1495.1,-137.79 1472.73,-109.93 1503,-56 1508.93,-45.43 1517.51,-35.01 1525.02,-26.86"/>
<polygon fill="midnightblue" stroke="midnightblue" points="1527.64,-29.18 1532.03,-19.54 1522.59,-24.34 1527.64,-29.18"/>
</g>
<!-- Node37&#45;&gt;Node13 -->
<g id="edge79" class="edge">
<title>Node37&#45;&gt;Node13</title>
<path fill="none" stroke="midnightblue" d="M1340.13,-229.98C1272.35,-218.83 1154.16,-199.41 1084.91,-188.03"/>
<polygon fill="midnightblue" stroke="midnightblue" points="1085.08,-184.51 1074.64,-186.34 1083.94,-191.41 1085.08,-184.51"/>
</g>
<!-- Node38&#45;&gt;Node13 -->
<g id="edge81" class="edge">
<title>Node38&#45;&gt;Node13</title>
<path fill="none" stroke="midnightblue" d="M482.63,-229.93C496.38,-227.81 511.23,-225.67 525,-224 688.39,-204.14 882.52,-189.28 975.31,-182.72"/>
<polygon fill="midnightblue" stroke="midnightblue" points="975.58,-186.21 985.31,-182.01 975.09,-179.22 975.58,-186.21"/>
</g>
<!-- Node39&#45;&gt;Node7 -->
<g id="edge83" class="edge">
<title>Node39&#45;&gt;Node7</title>
<path fill="none" stroke="midnightblue" d="M1576.55,-229.76C1583.96,-202.8 1603.49,-118.97 1580,-56 1575.83,-44.81 1567.48,-34.56 1559.58,-26.68"/>
<polygon fill="midnightblue" stroke="midnightblue" points="1561.7,-23.87 1551.99,-19.63 1556.94,-29 1561.7,-23.87"/>
</g>
<!-- Node39&#45;&gt;Node13 -->
<g id="edge84" class="edge">
<title>Node39&#45;&gt;Node13</title>
<path fill="none" stroke="midnightblue" d="M1525.67,-229.96C1512.8,-227.84 1498.9,-225.7 1486,-224 1341.62,-205 1170.56,-190.16 1084.8,-183.25"/>
<polygon fill="midnightblue" stroke="midnightblue" points="1085.02,-179.76 1074.77,-182.45 1084.46,-186.73 1085.02,-179.76"/>
</g>
<!-- Node40&#45;&gt;Node7 -->
<g id="edge86" class="edge">
<title>Node40&#45;&gt;Node7</title>
<path fill="none" stroke="midnightblue" d="M2274.79,-229.99C2188.12,-203.86 1918.05,-122.52 1694,-56 1652.86,-43.79 1605.46,-29.87 1574.45,-20.79"/>
<polygon fill="midnightblue" stroke="midnightblue" points="1575.18,-17.35 1564.6,-17.9 1573.21,-24.07 1575.18,-17.35"/>
</g>
<!-- Node40&#45;&gt;Node13 -->
<g id="edge87" class="edge">
<title>Node40&#45;&gt;Node13</title>
<path fill="none" stroke="midnightblue" d="M2260.5,-229.94C2247.55,-227.64 2233.24,-225.4 2220,-224 1784.26,-177.91 1254.39,-177.29 1084.9,-178.44"/>
<polygon fill="midnightblue" stroke="midnightblue" points="1084.71,-174.95 1074.73,-178.52 1084.76,-181.95 1084.71,-174.95"/>
</g>
</g>
</svg>
