<?xml version="1.0" encoding="UTF-8" standalone="no"?>
<!DOCTYPE svg PUBLIC "-//W3C//DTD SVG 1.1//EN"
 "http://www.w3.org/Graphics/SVG/1.1/DTD/svg11.dtd">
<!-- Generated by graphviz version 2.43.0 (0)
 -->
<!-- Title: SpatialOptions.cpp Pages: 1 -->
<!--zoomable 308 -->
<svg id="main" version="1.1" xmlns="http://www.w3.org/2000/svg" xmlns:xlink="http://www.w3.org/1999/xlink" xml:space="preserve" onload="init(evt)">
<style type="text/css"><![CDATA[
.edge:hover path { stroke: red; }
.edge:hover polygon { stroke: red; fill: red; }
]]></style>
<script type="text/javascript"><![CDATA[
var edges = document.getElementsByTagName('g');
if (edges && edges.length) {
  for (var i=0;i<edges.length;i++) {
    if (edges[i].id.substr(0,4)=='edge') {
      edges[i].setAttribute('class','edge');
    }
  }
}
]]></script>
        <defs>
                <circle id="rim" cx="0" cy="0" r="7"/>
                <circle id="rim2" cx="0" cy="0" r="3.5"/>
                <g id="zoomPlus">
                        <use xlink:href="#rim" fill="#404040">
                                <set attributeName="fill" to="#808080" begin="zoomplus.mouseover" end="zoomplus.mouseout"/>
                        </use>
                        <path d="M-4,0h8M0,-4v8" fill="none" stroke="white" stroke-width="1.5" pointer-events="none"/>
                </g>
                <g id="zoomMin">
                        <use xlink:href="#rim" fill="#404040">
                                <set attributeName="fill" to="#808080" begin="zoomminus.mouseover" end="zoomminus.mouseout"/>
                        </use>
                        <path d="M-4,0h8" fill="none" stroke="white" stroke-width="1.5" pointer-events="none"/>
                </g>
                <g id="dirArrow">
                        <path fill="none" stroke="white" stroke-width="1.5" d="M0,-3.0v7 M-2.5,-0.5L0,-3.0L2.5,-0.5"/>
                </g>
               <g id="resetDef">
                       <use xlink:href="#rim2" fill="#404040">
                               <set attributeName="fill" to="#808080" begin="reset.mouseover" end="reset.mouseout"/>
                       </use>
               </g>
        </defs>

<script type="text/javascript">
var viewWidth = 1270;
var viewHeight = 308;
var sectionId = 'dynsection-0';
</script>
<script xlink:href="svgpan.js"/>
<svg id="graph" class="graph">
<g id="viewport">
<title>SpatialOptions.cpp</title>
<!-- Node1 -->
<g id="node1" class="node">
<title>Node1</title>
<g id="a_node1"><a xlink:title=" ">
<polygon fill="#bfbfbf" stroke="black" points="259,-280.5 259,-299.5 372,-299.5 372,-280.5 259,-280.5"/>
<text text-anchor="middle" x="315.5" y="-287.5" font-family="serif" font-size="10.00">SpatialOptions.cpp</text>
</a>
</g>
</g>
<!-- Node2 -->
<g id="node2" class="node">
<title>Node2</title>
<g id="a_node2"><a xlink:href="SpatialOptions_8hpp.html" target="_top" xlink:title="Options for Spatial discretization.">
<polygon fill="none" stroke="black" points="236.5,-224.5 236.5,-243.5 394.5,-243.5 394.5,-224.5 236.5,-224.5"/>
<text text-anchor="middle" x="315.5" y="-231.5" font-family="serif" font-size="10.00">Options/SpatialOptions.hpp</text>
</a>
</g>
</g>
<!-- Node1&#45;&gt;Node2 -->
<g id="edge1" class="edge">
<title>Node1&#45;&gt;Node2</title>
<path fill="none" stroke="midnightblue" d="M315.5,-280.08C315.5,-273.01 315.5,-262.86 315.5,-253.99"/>
<polygon fill="midnightblue" stroke="midnightblue" points="319,-253.75 315.5,-243.75 312,-253.75 319,-253.75"/>
</g>
<!-- Node3 -->
<g id="node3" class="node">
<title>Node3</title>
<g id="a_node3"><a xlink:title=" ">
<polygon fill="none" stroke="#bfbfbf" points="270,-0.5 270,-19.5 317,-19.5 317,-0.5 270,-0.5"/>
<text text-anchor="middle" x="293.5" y="-7.5" font-family="serif" font-size="10.00">string</text>
</a>
</g>
</g>
<!-- Node1&#45;&gt;Node3 -->
<g id="edge50" class="edge">
<title>Node1&#45;&gt;Node3</title>
<path fill="none" stroke="midnightblue" d="M285.43,-280.46C266.28,-273.56 242.38,-261.98 227.5,-244 208.31,-220.81 208.5,-209.1 208.5,-179 208.5,-179 208.5,-179 208.5,-121 208.5,-79.76 246.36,-44.57 271.55,-25.73"/>
<polygon fill="midnightblue" stroke="midnightblue" points="273.77,-28.44 279.84,-19.76 269.68,-22.76 273.77,-28.44"/>
</g>
<!-- Node4 -->
<g id="node4" class="node">
<title>Node4</title>
<g id="a_node4"><a xlink:href="Utils_8hpp.html" target="_top" xlink:title="List of all Utils files.">
<polygon fill="none" stroke="black" points="378,-168.5 378,-187.5 467,-187.5 467,-168.5 378,-168.5"/>
<text text-anchor="middle" x="422.5" y="-175.5" font-family="serif" font-size="10.00">Utils/Utils.hpp</text>
</a>
</g>
</g>
<!-- Node1&#45;&gt;Node4 -->
<g id="edge51" class="edge">
<title>Node1&#45;&gt;Node4</title>
<path fill="none" stroke="midnightblue" d="M345.57,-280.46C364.72,-273.56 388.62,-261.98 403.5,-244 414.38,-230.85 419.03,-211.71 421.02,-197.6"/>
<polygon fill="midnightblue" stroke="midnightblue" points="424.51,-197.9 422.11,-187.58 417.55,-197.14 424.51,-197.9"/>
</g>
<!-- Node2&#45;&gt;Node3 -->
<g id="edge2" class="edge">
<title>Node2&#45;&gt;Node3</title>
<path fill="none" stroke="midnightblue" d="M314.07,-224.18C310.29,-200.36 299.97,-132.7 295.5,-76 294.28,-60.5 293.79,-42.88 293.6,-29.89"/>
<polygon fill="midnightblue" stroke="midnightblue" points="297.1,-29.81 293.5,-19.85 290.1,-29.88 297.1,-29.81"/>
</g>
<!-- Node2&#45;&gt;Node4 -->
<g id="edge3" class="edge">
<title>Node2&#45;&gt;Node4</title>
<path fill="none" stroke="midnightblue" d="M332.69,-224.32C349.85,-215.66 376.45,-202.24 396.25,-192.25"/>
<polygon fill="midnightblue" stroke="midnightblue" points="398,-195.28 405.35,-187.65 394.85,-189.04 398,-195.28"/>
</g>
<!-- Node5 -->
<g id="node5" class="node">
<title>Node5</title>
<g id="a_node5"><a xlink:href="UtilsForData_8hpp.html" target="_top" xlink:title="Usefull methods for data.">
<polygon fill="none" stroke="black" points="838,-56.5 838,-75.5 969,-75.5 969,-56.5 838,-56.5"/>
<text text-anchor="middle" x="903.5" y="-63.5" font-family="serif" font-size="10.00">Utils/UtilsForData.hpp</text>
</a>
</g>
</g>
<!-- Node4&#45;&gt;Node5 -->
<g id="edge4" class="edge">
<title>Node4&#45;&gt;Node5</title>
<path fill="none" stroke="midnightblue" d="M459.84,-168.46C546.41,-148.66 760.69,-99.66 856.22,-77.81"/>
<polygon fill="midnightblue" stroke="midnightblue" points="857.21,-81.18 866.18,-75.53 855.65,-74.35 857.21,-81.18"/>
</g>
<!-- Node18 -->
<g id="node18" class="node">
<title>Node18</title>
<g id="a_node18"><a xlink:href="UtilsForDebug_8hpp.html" target="_top" xlink:title="Usefull methods for debug.">
<polygon fill="none" stroke="black" points="833,-112.5 833,-131.5 974,-131.5 974,-112.5 833,-112.5"/>
<text text-anchor="middle" x="903.5" y="-119.5" font-family="serif" font-size="10.00">Utils/UtilsForDebug.hpp</text>
</a>
</g>
</g>
<!-- Node4&#45;&gt;Node18 -->
<g id="edge18" class="edge">
<title>Node4&#45;&gt;Node18</title>
<path fill="none" stroke="midnightblue" d="M467.32,-171.97C548.46,-162.86 720.73,-143.52 822.82,-132.06"/>
<polygon fill="midnightblue" stroke="midnightblue" points="823.23,-135.53 832.78,-130.94 822.45,-128.58 823.23,-135.53"/>
</g>
<!-- Node21 -->
<g id="node21" class="node">
<title>Node21</title>
<g id="a_node21"><a xlink:href="UtilsForOptions_8hpp.html" target="_top" xlink:title="Usefull methods for Options.">
<polygon fill="none" stroke="black" points="523.5,-56.5 523.5,-75.5 669.5,-75.5 669.5,-56.5 523.5,-56.5"/>
<text text-anchor="middle" x="596.5" y="-63.5" font-family="serif" font-size="10.00">Utils/UtilsForOptions.hpp</text>
</a>
</g>
</g>
<!-- Node4&#45;&gt;Node21 -->
<g id="edge29" class="edge">
<title>Node4&#45;&gt;Node21</title>
<path fill="none" stroke="midnightblue" d="M436.15,-168.37C466.14,-149.41 537.97,-104 574.45,-80.94"/>
<polygon fill="midnightblue" stroke="midnightblue" points="576.33,-83.89 582.91,-75.59 572.59,-77.98 576.33,-83.89"/>
</g>
<!-- Node24 -->
<g id="node24" class="node">
<title>Node24</title>
<g id="a_node24"><a xlink:href="UtilsForPostProcessing_8hpp.html" target="_top" xlink:title="Usefull methods for post&#45;processing.">
<polygon fill="none" stroke="black" points="322,-56.5 322,-75.5 505,-75.5 505,-56.5 322,-56.5"/>
<text text-anchor="middle" x="413.5" y="-63.5" font-family="serif" font-size="10.00">Utils/UtilsForPostProcessing.hpp</text>
</a>
</g>
</g>
<!-- Node4&#45;&gt;Node24 -->
<g id="edge39" class="edge">
<title>Node4&#45;&gt;Node24</title>
<path fill="none" stroke="midnightblue" d="M421.79,-168.37C420.34,-150.62 416.99,-109.67 415.02,-85.6"/>
<polygon fill="midnightblue" stroke="midnightblue" points="418.51,-85.27 414.2,-75.59 411.53,-85.84 418.51,-85.27"/>
</g>
<!-- Node25 -->
<g id="node25" class="node">
<title>Node25</title>
<g id="a_node25"><a xlink:href="UtilsForVariants_8hpp.html" target="_top" xlink:title="manage std::Variants">
<polygon fill="none" stroke="black" points="32.5,-56.5 32.5,-75.5 180.5,-75.5 180.5,-56.5 32.5,-56.5"/>
<text text-anchor="middle" x="106.5" y="-63.5" font-family="serif" font-size="10.00">Utils/UtilsForVariants.hpp</text>
</a>
</g>
</g>
<!-- Node4&#45;&gt;Node25 -->
<g id="edge46" class="edge">
<title>Node4&#45;&gt;Node25</title>
<path fill="none" stroke="midnightblue" d="M397.97,-168.46C342.08,-149.01 205.19,-101.36 140.91,-78.98"/>
<polygon fill="midnightblue" stroke="midnightblue" points="141.83,-75.59 131.24,-75.61 139.53,-82.2 141.83,-75.59"/>
</g>
<!-- Node5&#45;&gt;Node3 -->
<g id="edge13" class="edge">
<title>Node5&#45;&gt;Node3</title>
<path fill="none" stroke="midnightblue" d="M837.77,-59.74C822.27,-58.51 805.8,-57.2 790.5,-56 587.52,-40.04 532.02,-54.89 327.05,-19.74"/>
<polygon fill="midnightblue" stroke="midnightblue" points="327.62,-16.29 317.17,-18.03 326.43,-23.19 327.62,-16.29"/>
</g>
<!-- Node6 -->
<g id="node6" class="node">
<title>Node6</title>
<g id="a_node6"><a xlink:title=" ">
<polygon fill="none" stroke="#bfbfbf" points="1051,-0.5 1051,-19.5 1110,-19.5 1110,-0.5 1051,-0.5"/>
<text text-anchor="middle" x="1080.5" y="-7.5" font-family="serif" font-size="10.00">unistd.h</text>
</a>
</g>
</g>
<!-- Node5&#45;&gt;Node6 -->
<g id="edge5" class="edge">
<title>Node5&#45;&gt;Node6</title>
<path fill="none" stroke="midnightblue" d="M931.55,-56.44C961.58,-47.28 1009.41,-32.69 1042.74,-22.52"/>
<polygon fill="midnightblue" stroke="midnightblue" points="1044.04,-25.78 1052.59,-19.52 1042,-19.09 1044.04,-25.78"/>
</g>
<!-- Node7 -->
<g id="node7" class="node">
<title>Node7</title>
<g id="a_node7"><a xlink:title=" ">
<polygon fill="none" stroke="#bfbfbf" points="463.5,-0.5 463.5,-19.5 529.5,-19.5 529.5,-0.5 463.5,-0.5"/>
<text text-anchor="middle" x="496.5" y="-7.5" font-family="serif" font-size="10.00">algorithm</text>
</a>
</g>
</g>
<!-- Node5&#45;&gt;Node7 -->
<g id="edge6" class="edge">
<title>Node5&#45;&gt;Node7</title>
<path fill="none" stroke="midnightblue" d="M837.97,-58.69C766.87,-51.44 649.81,-38.35 539.85,-20.11"/>
<polygon fill="midnightblue" stroke="midnightblue" points="540.36,-16.64 529.92,-18.44 539.2,-23.55 540.36,-16.64"/>
</g>
<!-- Node8 -->
<g id="node8" class="node">
<title>Node8</title>
<g id="a_node8"><a xlink:title=" ">
<polygon fill="none" stroke="#bfbfbf" points="752.5,-0.5 752.5,-19.5 802.5,-19.5 802.5,-0.5 752.5,-0.5"/>
<text text-anchor="middle" x="777.5" y="-7.5" font-family="serif" font-size="10.00">cctype</text>
</a>
</g>
</g>
<!-- Node5&#45;&gt;Node8 -->
<g id="edge7" class="edge">
<title>Node5&#45;&gt;Node8</title>
<path fill="none" stroke="midnightblue" d="M883.53,-56.44C862.89,-47.6 830.44,-33.69 806.87,-23.59"/>
<polygon fill="midnightblue" stroke="midnightblue" points="807.94,-20.24 797.37,-19.52 805.18,-26.67 807.94,-20.24"/>
</g>
<!-- Node9 -->
<g id="node9" class="node">
<title>Node9</title>
<g id="a_node9"><a xlink:title=" ">
<polygon fill="none" stroke="#bfbfbf" points="1128,-0.5 1128,-19.5 1175,-19.5 1175,-0.5 1128,-0.5"/>
<text text-anchor="middle" x="1151.5" y="-7.5" font-family="serif" font-size="10.00">cstdio</text>
</a>
</g>
</g>
<!-- Node5&#45;&gt;Node9 -->
<g id="edge8" class="edge">
<title>Node5&#45;&gt;Node9</title>
<path fill="none" stroke="midnightblue" d="M949.22,-56.42C990.93,-48.38 1054.5,-35.61 1118.01,-20.25"/>
<polygon fill="midnightblue" stroke="midnightblue" points="1118.9,-23.64 1127.78,-17.87 1117.24,-16.84 1118.9,-23.64"/>
</g>
<!-- Node10 -->
<g id="node10" class="node">
<title>Node10</title>
<g id="a_node10"><a xlink:title=" ">
<polygon fill="none" stroke="#bfbfbf" points="820.5,-0.5 820.5,-19.5 888.5,-19.5 888.5,-0.5 820.5,-0.5"/>
<text text-anchor="middle" x="854.5" y="-7.5" font-family="serif" font-size="10.00">filesystem</text>
</a>
</g>
</g>
<!-- Node5&#45;&gt;Node10 -->
<g id="edge9" class="edge">
<title>Node5&#45;&gt;Node10</title>
<path fill="none" stroke="midnightblue" d="M895.41,-56.08C888.34,-48.3 877.91,-36.8 869.35,-27.37"/>
<polygon fill="midnightblue" stroke="midnightblue" points="871.75,-24.8 862.44,-19.75 866.57,-29.51 871.75,-24.8"/>
</g>
<!-- Node11 -->
<g id="node11" class="node">
<title>Node11</title>
<g id="a_node11"><a xlink:title=" ">
<polygon fill="none" stroke="#bfbfbf" points="964.5,-0.5 964.5,-19.5 1032.5,-19.5 1032.5,-0.5 964.5,-0.5"/>
<text text-anchor="middle" x="998.5" y="-7.5" font-family="serif" font-size="10.00">functional</text>
</a>
</g>
</g>
<!-- Node5&#45;&gt;Node11 -->
<g id="edge10" class="edge">
<title>Node5&#45;&gt;Node11</title>
<path fill="none" stroke="midnightblue" d="M918.76,-56.32C933.72,-47.82 956.75,-34.73 974.23,-24.8"/>
<polygon fill="midnightblue" stroke="midnightblue" points="976.31,-27.64 983.27,-19.65 972.85,-21.55 976.31,-27.64"/>
</g>
<!-- Node12 -->
<g id="node12" class="node">
<title>Node12</title>
<g id="a_node12"><a xlink:title=" ">
<polygon fill="none" stroke="#bfbfbf" points="612,-0.5 612,-19.5 673,-19.5 673,-0.5 612,-0.5"/>
<text text-anchor="middle" x="642.5" y="-7.5" font-family="serif" font-size="10.00">iostream</text>
</a>
</g>
</g>
<!-- Node5&#45;&gt;Node12 -->
<g id="edge11" class="edge">
<title>Node5&#45;&gt;Node12</title>
<path fill="none" stroke="midnightblue" d="M860.25,-56.47C817.75,-48.02 750.79,-34.55 683.06,-20.08"/>
<polygon fill="midnightblue" stroke="midnightblue" points="683.57,-16.62 673.06,-17.94 682.11,-23.46 683.57,-16.62"/>
</g>
<!-- Node13 -->
<g id="node13" class="node">
<title>Node13</title>
<g id="a_node13"><a xlink:title=" ">
<polygon fill="none" stroke="#bfbfbf" points="907,-0.5 907,-19.5 946,-19.5 946,-0.5 907,-0.5"/>
<text text-anchor="middle" x="926.5" y="-7.5" font-family="serif" font-size="10.00">map</text>
</a>
</g>
</g>
<!-- Node5&#45;&gt;Node13 -->
<g id="edge12" class="edge">
<title>Node5&#45;&gt;Node13</title>
<path fill="none" stroke="midnightblue" d="M907.3,-56.08C910.41,-48.77 914.92,-38.18 918.79,-29.1"/>
<polygon fill="midnightblue" stroke="midnightblue" points="922.07,-30.32 922.77,-19.75 915.63,-27.58 922.07,-30.32"/>
</g>
<!-- Node14 -->
<g id="node14" class="node">
<title>Node14</title>
<g id="a_node14"><a xlink:title=" ">
<polygon fill="none" stroke="#bfbfbf" points="691,-0.5 691,-19.5 734,-19.5 734,-0.5 691,-0.5"/>
<text text-anchor="middle" x="712.5" y="-7.5" font-family="serif" font-size="10.00">tuple</text>
</a>
</g>
</g>
<!-- Node5&#45;&gt;Node14 -->
<g id="edge14" class="edge">
<title>Node5&#45;&gt;Node14</title>
<path fill="none" stroke="midnightblue" d="M872.81,-56.45C842.53,-48 794.69,-34.59 744,-20.13"/>
<polygon fill="midnightblue" stroke="midnightblue" points="744.75,-16.7 734.17,-17.32 742.83,-23.43 744.75,-16.7"/>
</g>
<!-- Node15 -->
<g id="node15" class="node">
<title>Node15</title>
<g id="a_node15"><a xlink:title=" ">
<polygon fill="none" stroke="#bfbfbf" points="547.5,-0.5 547.5,-19.5 593.5,-19.5 593.5,-0.5 547.5,-0.5"/>
<text text-anchor="middle" x="570.5" y="-7.5" font-family="serif" font-size="10.00">utility</text>
</a>
</g>
</g>
<!-- Node5&#45;&gt;Node15 -->
<g id="edge15" class="edge">
<title>Node5&#45;&gt;Node15</title>
<path fill="none" stroke="midnightblue" d="M837.85,-57.41C779.07,-50.09 690.39,-37.8 603.85,-19.84"/>
<polygon fill="midnightblue" stroke="midnightblue" points="604.36,-16.37 593.85,-17.73 602.92,-23.22 604.36,-16.37"/>
</g>
<!-- Node16 -->
<g id="node16" class="node">
<title>Node16</title>
<g id="a_node16"><a xlink:title=" ">
<polygon fill="none" stroke="#bfbfbf" points="397.5,-0.5 397.5,-19.5 445.5,-19.5 445.5,-0.5 397.5,-0.5"/>
<text text-anchor="middle" x="421.5" y="-7.5" font-family="serif" font-size="10.00">vector</text>
</a>
</g>
</g>
<!-- Node5&#45;&gt;Node16 -->
<g id="edge16" class="edge">
<title>Node5&#45;&gt;Node16</title>
<path fill="none" stroke="midnightblue" d="M837.64,-59.76C735.41,-51.4 542.1,-34.66 455.56,-19.85"/>
<polygon fill="midnightblue" stroke="midnightblue" points="456,-16.37 445.54,-18.05 454.77,-23.26 456,-16.37"/>
</g>
<!-- Node17 -->
<g id="node17" class="node">
<title>Node17</title>
<g id="a_node17"><a xlink:title=" ">
<polygon fill="none" stroke="#bfbfbf" points="1193,-0.5 1193,-19.5 1262,-19.5 1262,-0.5 1193,-0.5"/>
<text text-anchor="middle" x="1227.5" y="-7.5" font-family="serif" font-size="10.00">mfem.hpp</text>
</a>
</g>
</g>
<!-- Node5&#45;&gt;Node17 -->
<g id="edge17" class="edge">
<title>Node5&#45;&gt;Node17</title>
<path fill="none" stroke="midnightblue" d="M961.76,-56.5C1016.46,-48.32 1100.83,-35.24 1182.81,-20.25"/>
<polygon fill="midnightblue" stroke="midnightblue" points="1183.59,-23.66 1192.79,-18.41 1182.33,-16.78 1183.59,-23.66"/>
</g>
<!-- Node18&#45;&gt;Node3 -->
<g id="edge25" class="edge">
<title>Node18&#45;&gt;Node3</title>
<path fill="none" stroke="midnightblue" d="M832.77,-120.01C684.86,-117.32 353.25,-107.76 313.5,-76 299.83,-65.08 295.28,-45.01 293.88,-30.05"/>
<polygon fill="midnightblue" stroke="midnightblue" points="297.36,-29.64 293.32,-19.85 290.37,-30.02 297.36,-29.64"/>
</g>
<!-- Node18&#45;&gt;Node5 -->
<g id="edge27" class="edge">
<title>Node18&#45;&gt;Node5</title>
<path fill="none" stroke="midnightblue" d="M903.5,-112.08C903.5,-105.01 903.5,-94.86 903.5,-85.99"/>
<polygon fill="midnightblue" stroke="midnightblue" points="907,-85.75 903.5,-75.75 900,-85.75 907,-85.75"/>
</g>
<!-- Node18&#45;&gt;Node6 -->
<g id="edge20" class="edge">
<title>Node18&#45;&gt;Node6</title>
<path fill="none" stroke="midnightblue" d="M924.72,-112.42C944.24,-104.17 973.67,-90.79 997.5,-76 1021.6,-61.04 1046.94,-40.37 1063.19,-26.39"/>
<polygon fill="midnightblue" stroke="midnightblue" points="1065.56,-28.96 1070.8,-19.75 1060.96,-23.69 1065.56,-28.96"/>
</g>
<!-- Node18&#45;&gt;Node9 -->
<g id="edge21" class="edge">
<title>Node18&#45;&gt;Node9</title>
<path fill="none" stroke="midnightblue" d="M929.57,-112.42C954.53,-103.97 993.06,-90.28 1025.5,-76 1061.85,-59.99 1102.45,-38.33 1127.49,-24.51"/>
<polygon fill="midnightblue" stroke="midnightblue" points="1129.24,-27.54 1136.28,-19.63 1125.84,-21.42 1129.24,-27.54"/>
</g>
<!-- Node18&#45;&gt;Node11 -->
<g id="edge23" class="edge">
<title>Node18&#45;&gt;Node11</title>
<path fill="none" stroke="midnightblue" d="M926.61,-112.43C943.28,-105.13 965.11,-93.09 978.5,-76 988.96,-62.65 993.97,-43.82 996.37,-29.87"/>
<polygon fill="midnightblue" stroke="midnightblue" points="999.84,-30.3 997.77,-19.91 992.91,-29.32 999.84,-30.3"/>
</g>
<!-- Node18&#45;&gt;Node12 -->
<g id="edge24" class="edge">
<title>Node18&#45;&gt;Node12</title>
<path fill="none" stroke="midnightblue" d="M889.58,-112.46C864.03,-96.88 810.44,-64.63 790.5,-56 755.29,-40.76 713.29,-28.51 683.05,-20.67"/>
<polygon fill="midnightblue" stroke="midnightblue" points="683.82,-17.25 673.27,-18.18 682.09,-24.04 683.82,-17.25"/>
</g>
<!-- Node18&#45;&gt;Node15 -->
<g id="edge26" class="edge">
<title>Node18&#45;&gt;Node15</title>
<path fill="none" stroke="midnightblue" d="M853.28,-112.43C815.04,-105.07 761.5,-92.95 716.5,-76 698.64,-69.27 695.77,-64.12 678.5,-56 653.16,-44.08 623.78,-31.95 602.07,-23.29"/>
<polygon fill="midnightblue" stroke="midnightblue" points="603.26,-19.99 592.68,-19.57 600.69,-26.5 603.26,-19.99"/>
</g>
<!-- Node18&#45;&gt;Node17 -->
<g id="edge28" class="edge">
<title>Node18&#45;&gt;Node17</title>
<path fill="none" stroke="midnightblue" d="M974.14,-118.17C1050.61,-113.77 1166.25,-102.79 1200.5,-76 1214.77,-64.84 1221.56,-44.82 1224.76,-29.93"/>
<polygon fill="midnightblue" stroke="midnightblue" points="1228.26,-30.24 1226.56,-19.78 1221.37,-29.01 1228.26,-30.24"/>
</g>
<!-- Node19 -->
<g id="node19" class="node">
<title>Node19</title>
<g id="a_node19"><a xlink:title=" ">
<polygon fill="none" stroke="#bfbfbf" points="1101.5,-56.5 1101.5,-75.5 1191.5,-75.5 1191.5,-56.5 1101.5,-56.5"/>
<text text-anchor="middle" x="1146.5" y="-63.5" font-family="serif" font-size="10.00">sys/resource.h</text>
</a>
</g>
</g>
<!-- Node18&#45;&gt;Node19 -->
<g id="edge19" class="edge">
<title>Node18&#45;&gt;Node19</title>
<path fill="none" stroke="midnightblue" d="M942,-112.44C984.31,-103.04 1052.32,-87.93 1098.17,-77.74"/>
<polygon fill="midnightblue" stroke="midnightblue" points="1099.17,-81.1 1108.18,-75.52 1097.65,-74.27 1099.17,-81.1"/>
</g>
<!-- Node20 -->
<g id="node20" class="node">
<title>Node20</title>
<g id="a_node20"><a xlink:title=" ">
<polygon fill="none" stroke="#bfbfbf" points="725.5,-56.5 725.5,-75.5 781.5,-75.5 781.5,-56.5 725.5,-56.5"/>
<text text-anchor="middle" x="753.5" y="-63.5" font-family="serif" font-size="10.00">fstream</text>
</a>
</g>
</g>
<!-- Node18&#45;&gt;Node20 -->
<g id="edge22" class="edge">
<title>Node18&#45;&gt;Node20</title>
<path fill="none" stroke="midnightblue" d="M879.73,-112.44C854.61,-103.4 814.79,-89.06 786.6,-78.92"/>
<polygon fill="midnightblue" stroke="midnightblue" points="787.75,-75.61 777.16,-75.52 785.38,-82.2 787.75,-75.61"/>
</g>
<!-- Node21&#45;&gt;Node3 -->
<g id="edge34" class="edge">
<title>Node21&#45;&gt;Node3</title>
<path fill="none" stroke="midnightblue" d="M534.5,-56.49C481.81,-48.84 403.99,-36.57 327.08,-19.94"/>
<polygon fill="midnightblue" stroke="midnightblue" points="327.74,-16.5 317.22,-17.78 326.24,-23.33 327.74,-16.5"/>
</g>
<!-- Node21&#45;&gt;Node7 -->
<g id="edge30" class="edge">
<title>Node21&#45;&gt;Node7</title>
<path fill="none" stroke="midnightblue" d="M580.43,-56.32C564.54,-47.74 539.99,-34.49 521.54,-24.52"/>
<polygon fill="midnightblue" stroke="midnightblue" points="522.99,-21.33 512.53,-19.65 519.66,-27.49 522.99,-21.33"/>
</g>
<!-- Node21&#45;&gt;Node11 -->
<g id="edge31" class="edge">
<title>Node21&#45;&gt;Node11</title>
<path fill="none" stroke="midnightblue" d="M669.64,-57.6C740.09,-50.07 849.87,-37.29 954.2,-20.1"/>
<polygon fill="midnightblue" stroke="midnightblue" points="954.99,-23.52 964.28,-18.43 953.84,-16.61 954.99,-23.52"/>
</g>
<!-- Node21&#45;&gt;Node12 -->
<g id="edge32" class="edge">
<title>Node21&#45;&gt;Node12</title>
<path fill="none" stroke="midnightblue" d="M604.1,-56.08C610.73,-48.3 620.52,-36.8 628.56,-27.37"/>
<polygon fill="midnightblue" stroke="midnightblue" points="631.23,-29.63 635.05,-19.75 625.9,-25.09 631.23,-29.63"/>
</g>
<!-- Node21&#45;&gt;Node14 -->
<g id="edge35" class="edge">
<title>Node21&#45;&gt;Node14</title>
<path fill="none" stroke="midnightblue" d="M614.88,-56.44C633.72,-47.68 663.23,-33.94 684.88,-23.86"/>
<polygon fill="midnightblue" stroke="midnightblue" points="686.62,-26.91 694.21,-19.52 683.66,-20.56 686.62,-26.91"/>
</g>
<!-- Node21&#45;&gt;Node15 -->
<g id="edge36" class="edge">
<title>Node21&#45;&gt;Node15</title>
<path fill="none" stroke="midnightblue" d="M592.21,-56.08C588.65,-48.69 583.48,-37.95 579.08,-28.81"/>
<polygon fill="midnightblue" stroke="midnightblue" points="582.21,-27.24 574.71,-19.75 575.9,-30.28 582.21,-27.24"/>
</g>
<!-- Node21&#45;&gt;Node16 -->
<g id="edge38" class="edge">
<title>Node21&#45;&gt;Node16</title>
<path fill="none" stroke="midnightblue" d="M568.77,-56.44C538.03,-46.96 488.42,-31.65 455.4,-21.46"/>
<polygon fill="midnightblue" stroke="midnightblue" points="456.31,-18.08 445.72,-18.47 454.24,-24.77 456.31,-18.08"/>
</g>
<!-- Node22 -->
<g id="node22" class="node">
<title>Node22</title>
<g id="a_node22"><a xlink:title=" ">
<polygon fill="none" stroke="#bfbfbf" points="335.5,-0.5 335.5,-19.5 379.5,-19.5 379.5,-0.5 335.5,-0.5"/>
<text text-anchor="middle" x="357.5" y="-7.5" font-family="serif" font-size="10.00">limits</text>
</a>
</g>
</g>
<!-- Node21&#45;&gt;Node22 -->
<g id="edge33" class="edge">
<title>Node21&#45;&gt;Node22</title>
<path fill="none" stroke="midnightblue" d="M552.87,-56.48C512.79,-48.45 451.53,-35.66 389.72,-20.18"/>
<polygon fill="midnightblue" stroke="midnightblue" points="390.35,-16.73 379.8,-17.68 388.64,-23.52 390.35,-16.73"/>
</g>
<!-- Node23 -->
<g id="node23" class="node">
<title>Node23</title>
<g id="a_node23"><a xlink:title=" ">
<polygon fill="none" stroke="#bfbfbf" points="188,-0.5 188,-19.5 241,-19.5 241,-0.5 188,-0.5"/>
<text text-anchor="middle" x="214.5" y="-7.5" font-family="serif" font-size="10.00">variant</text>
</a>
</g>
</g>
<!-- Node21&#45;&gt;Node23 -->
<g id="edge37" class="edge">
<title>Node21&#45;&gt;Node23</title>
<path fill="none" stroke="midnightblue" d="M524.45,-56.5C456.49,-48.2 351.85,-34.71 261.5,-20 258.22,-19.47 254.82,-18.88 251.41,-18.27"/>
<polygon fill="midnightblue" stroke="midnightblue" points="251.77,-14.78 241.3,-16.4 250.49,-21.66 251.77,-14.78"/>
</g>
<!-- Node24&#45;&gt;Node3 -->
<g id="edge43" class="edge">
<title>Node24&#45;&gt;Node3</title>
<path fill="none" stroke="midnightblue" d="M394.49,-56.44C374.91,-47.64 344.19,-33.81 321.77,-23.72"/>
<polygon fill="midnightblue" stroke="midnightblue" points="322.98,-20.43 312.43,-19.52 320.11,-26.81 322.98,-20.43"/>
</g>
<!-- Node24&#45;&gt;Node7 -->
<g id="edge40" class="edge">
<title>Node24&#45;&gt;Node7</title>
<path fill="none" stroke="midnightblue" d="M426.84,-56.32C439.66,-47.98 459.28,-35.21 474.44,-25.35"/>
<polygon fill="midnightblue" stroke="midnightblue" points="476.72,-28.04 483.2,-19.65 472.91,-22.17 476.72,-28.04"/>
</g>
<!-- Node24&#45;&gt;Node12 -->
<g id="edge41" class="edge">
<title>Node24&#45;&gt;Node12</title>
<path fill="none" stroke="midnightblue" d="M449.79,-56.44C491.23,-46.67 558.88,-30.72 602.01,-20.55"/>
<polygon fill="midnightblue" stroke="midnightblue" points="602.95,-23.92 611.88,-18.22 601.34,-17.11 602.95,-23.92"/>
</g>
<!-- Node24&#45;&gt;Node15 -->
<g id="edge44" class="edge">
<title>Node24&#45;&gt;Node15</title>
<path fill="none" stroke="midnightblue" d="M438.38,-56.44C465.26,-47.2 508.2,-32.43 537.79,-22.25"/>
<polygon fill="midnightblue" stroke="midnightblue" points="538.96,-25.55 547.27,-18.99 536.68,-18.93 538.96,-25.55"/>
</g>
<!-- Node24&#45;&gt;Node16 -->
<g id="edge45" class="edge">
<title>Node24&#45;&gt;Node16</title>
<path fill="none" stroke="midnightblue" d="M414.82,-56.08C415.88,-48.93 417.41,-38.64 418.73,-29.69"/>
<polygon fill="midnightblue" stroke="midnightblue" points="422.2,-30.16 420.2,-19.75 415.28,-29.13 422.2,-30.16"/>
</g>
<!-- Node24&#45;&gt;Node22 -->
<g id="edge42" class="edge">
<title>Node24&#45;&gt;Node22</title>
<path fill="none" stroke="midnightblue" d="M404.5,-56.32C396.31,-48.42 383.99,-36.55 374.03,-26.94"/>
<polygon fill="midnightblue" stroke="midnightblue" points="376.29,-24.26 366.66,-19.83 371.43,-29.29 376.29,-24.26"/>
</g>
<!-- Node25&#45;&gt;Node23 -->
<g id="edge49" class="edge">
<title>Node25&#45;&gt;Node23</title>
<path fill="none" stroke="midnightblue" d="M123.85,-56.32C141.17,-47.66 168.02,-34.24 188,-24.25"/>
<polygon fill="midnightblue" stroke="midnightblue" points="189.81,-27.26 197.19,-19.65 186.68,-21 189.81,-27.26"/>
</g>
<!-- Node26 -->
<g id="node26" class="node">
<title>Node26</title>
<g id="a_node26"><a xlink:title=" ">
<polygon fill="none" stroke="#bfbfbf" points="89,-0.5 89,-19.5 148,-19.5 148,-0.5 89,-0.5"/>
<text text-anchor="middle" x="118.5" y="-7.5" font-family="serif" font-size="10.00">memory</text>
</a>
</g>
</g>
<!-- Node25&#45;&gt;Node26 -->
<g id="edge47" class="edge">
<title>Node25&#45;&gt;Node26</title>
<path fill="none" stroke="midnightblue" d="M108.48,-56.08C110.07,-48.93 112.36,-38.64 114.35,-29.69"/>
<polygon fill="midnightblue" stroke="midnightblue" points="117.8,-30.27 116.56,-19.75 110.97,-28.75 117.8,-30.27"/>
</g>
<!-- Node27 -->
<g id="node27" class="node">
<title>Node27</title>
<g id="a_node27"><a xlink:title=" ">
<polygon fill="none" stroke="#bfbfbf" points="0,-0.5 0,-19.5 71,-19.5 71,-0.5 0,-0.5"/>
<text text-anchor="middle" x="35.5" y="-7.5" font-family="serif" font-size="10.00">type_traits</text>
</a>
</g>
</g>
<!-- Node25&#45;&gt;Node27 -->
<g id="edge48" class="edge">
<title>Node25&#45;&gt;Node27</title>
<path fill="none" stroke="midnightblue" d="M95.09,-56.32C84.39,-48.18 68.16,-35.84 55.34,-26.09"/>
<polygon fill="midnightblue" stroke="midnightblue" points="57.19,-23.1 47.11,-19.83 52.96,-28.67 57.19,-23.1"/>
</g>
</g>
</svg>
        <g id="navigator" transform="translate(0 0)" fill="#404254">
                <rect fill="#f2f5e9" fill-opacity="0.5" stroke="#606060" stroke-width=".5" x="0" y="0" width="60" height="60"/>
                <use id="zoomplus" xlink:href="#zoomPlus" x="17" y="9" onmousedown="handleZoom(evt,'in')"/>
                <use id="zoomminus" xlink:href="#zoomMin" x="42" y="9" onmousedown="handleZoom(evt,'out')"/>
                <use id="reset" xlink:href="#resetDef" x="30" y="36" onmousedown="handleReset()"/>
                <g id="arrowUp" xlink:href="#dirArrow" transform="translate(30 24)" onmousedown="handlePan(0,-1)">
                  <use xlink:href="#rim" fill="#404040">
                        <set attributeName="fill" to="#808080" begin="arrowUp.mouseover" end="arrowUp.mouseout"/>
                  </use>
                  <path fill="none" stroke="white" stroke-width="1.5" d="M0,-3.0v7 M-2.5,-0.5L0,-3.0L2.5,-0.5"/>
                </g>
                <g id="arrowRight" xlink:href="#dirArrow" transform="rotate(90) translate(36 -43)" onmousedown="handlePan(1,0)">
                  <use xlink:href="#rim" fill="#404040">
                        <set attributeName="fill" to="#808080" begin="arrowRight.mouseover" end="arrowRight.mouseout"/>
                  </use>
                  <path fill="none" stroke="white" stroke-width="1.5" d="M0,-3.0v7 M-2.5,-0.5L0,-3.0L2.5,-0.5"/>
                </g>
                <g id="arrowDown" xlink:href="#dirArrow" transform="rotate(180) translate(-30 -48)" onmousedown="handlePan(0,1)">
                  <use xlink:href="#rim" fill="#404040">
                        <set attributeName="fill" to="#808080" begin="arrowDown.mouseover" end="arrowDown.mouseout"/>
                  </use>
                  <path fill="none" stroke="white" stroke-width="1.5" d="M0,-3.0v7 M-2.5,-0.5L0,-3.0L2.5,-0.5"/>
                </g>
                <g id="arrowLeft" xlink:href="#dirArrow" transform="rotate(270) translate(-36 17)" onmousedown="handlePan(-1,0)">
                  <use xlink:href="#rim" fill="#404040">
                        <set attributeName="fill" to="#808080" begin="arrowLeft.mouseover" end="arrowLeft.mouseout"/>
                  </use>
                  <path fill="none" stroke="white" stroke-width="1.5" d="M0,-3.0v7 M-2.5,-0.5L0,-3.0L2.5,-0.5"/>
                </g>
        </g>
        <svg viewBox="0 0 15 15" width="100%" height="30px" preserveAspectRatio="xMaxYMin meet">
         <g id="arrow_out" transform="scale(0.3 0.3)">
          <a xlink:href="SpatialOptions_8cpp__incl_org.svg" target="_base">
           <rect id="button" ry="5" rx="5" y="6" x="6" height="38" width="38"
                fill="#f2f5e9" fill-opacity="0.5" stroke="#606060" stroke-width="1.0"/>
           <path id="arrow"
             d="M 11.500037,31.436501 C 11.940474,20.09759 22.043105,11.32322 32.158766,21.979434 L 37.068811,17.246167 C 37.068811,17.246167 37.088388,32 37.088388,32 L 22.160133,31.978069 C 22.160133,31.978069 26.997745,27.140456 26.997745,27.140456 C 18.528582,18.264221 13.291696,25.230495 11.500037,31.436501 z"
             style="fill:#404040;"/>
          </a>
         </g>
        </svg>
</svg>
