<?xml version="1.0" encoding="UTF-8" standalone="no"?>
<!DOCTYPE svg PUBLIC "-//W3C//DTD SVG 1.1//EN"
 "http://www.w3.org/Graphics/SVG/1.1/DTD/svg11.dtd">
<!-- Generated by graphviz version 2.43.0 (0)
 -->
<!-- Title: Spatial.hpp Pages: 1 -->
<!--zoomable 532 -->
<svg id="main" version="1.1" xmlns="http://www.w3.org/2000/svg" xmlns:xlink="http://www.w3.org/1999/xlink" xml:space="preserve" onload="init(evt)">
<style type="text/css"><![CDATA[
.edge:hover path { stroke: red; }
.edge:hover polygon { stroke: red; fill: red; }
]]></style>
<script type="text/javascript"><![CDATA[
var edges = document.getElementsByTagName('g');
if (edges && edges.length) {
  for (var i=0;i<edges.length;i++) {
    if (edges[i].id.substr(0,4)=='edge') {
      edges[i].setAttribute('class','edge');
    }
  }
}
]]></script>
        <defs>
                <circle id="rim" cx="0" cy="0" r="7"/>
                <circle id="rim2" cx="0" cy="0" r="3.5"/>
                <g id="zoomPlus">
                        <use xlink:href="#rim" fill="#404040">
                                <set attributeName="fill" to="#808080" begin="zoomplus.mouseover" end="zoomplus.mouseout"/>
                        </use>
                        <path d="M-4,0h8M0,-4v8" fill="none" stroke="white" stroke-width="1.5" pointer-events="none"/>
                </g>
                <g id="zoomMin">
                        <use xlink:href="#rim" fill="#404040">
                                <set attributeName="fill" to="#808080" begin="zoomminus.mouseover" end="zoomminus.mouseout"/>
                        </use>
                        <path d="M-4,0h8" fill="none" stroke="white" stroke-width="1.5" pointer-events="none"/>
                </g>
                <g id="dirArrow">
                        <path fill="none" stroke="white" stroke-width="1.5" d="M0,-3.0v7 M-2.5,-0.5L0,-3.0L2.5,-0.5"/>
                </g>
               <g id="resetDef">
                       <use xlink:href="#rim2" fill="#404040">
                               <set attributeName="fill" to="#808080" begin="reset.mouseover" end="reset.mouseout"/>
                       </use>
               </g>
        </defs>

<script type="text/javascript">
var viewWidth = 930;
var viewHeight = 532;
var sectionId = 'dynsection-1';
</script>
<script xlink:href="svgpan.js"/>
<svg id="graph" class="graph">
<g id="viewport">
<title>Spatial.hpp</title>
<!-- Node1 -->
<g id="node1" class="node">
<title>Node1</title>
<g id="a_node1"><a xlink:title="Spatial discretization.">
<polygon fill="#bfbfbf" stroke="black" points="709.5,-504.5 709.5,-523.5 784.5,-523.5 784.5,-504.5 709.5,-504.5"/>
<text text-anchor="middle" x="747" y="-511.5" font-family="serif" font-size="10.00">Spatial.hpp</text>
</a>
</g>
</g>
<!-- Node2 -->
<g id="node2" class="node">
<title>Node2</title>
<g id="a_node2"><a xlink:href="Boundary_8hpp.html" target="_top" xlink:title="Boundary class used to build a boundary with a name, an index, a type and, if needed,...">
<polygon fill="none" stroke="black" points="629.5,-448.5 629.5,-467.5 718.5,-467.5 718.5,-448.5 629.5,-448.5"/>
<text text-anchor="middle" x="674" y="-455.5" font-family="serif" font-size="10.00">Boundary.hpp</text>
</a>
</g>
</g>
<!-- Node1&#45;&gt;Node2 -->
<g id="edge1" class="edge">
<title>Node1&#45;&gt;Node2</title>
<path fill="none" stroke="midnightblue" d="M726.86,-498.1C713.72,-488.38 697.02,-476.03 685.94,-467.83"/>
<polygon fill="midnightblue" stroke="midnightblue" points="725.15,-501.19 735.27,-504.32 729.31,-495.56 725.15,-501.19"/>
</g>
<!-- Node3 -->
<g id="node3" class="node">
<title>Node3</title>
<g id="a_node3"><a xlink:href="BoundaryConditions_8hpp.html" target="_top" xlink:title="BoundaryConditions class used to build and manage boundary conditions.">
<polygon fill="none" stroke="black" points="624.5,-392.5 624.5,-411.5 769.5,-411.5 769.5,-392.5 624.5,-392.5"/>
<text text-anchor="middle" x="697" y="-399.5" font-family="serif" font-size="10.00">BoundaryConditions.hpp</text>
</a>
</g>
</g>
<!-- Node1&#45;&gt;Node3 -->
<g id="edge37" class="edge">
<title>Node1&#45;&gt;Node3</title>
<path fill="none" stroke="midnightblue" d="M742.81,-494.43C739.45,-481.13 734.12,-463 727,-448 720.56,-434.43 710.45,-420.24 703.77,-411.51"/>
<polygon fill="midnightblue" stroke="midnightblue" points="739.44,-495.38 745.17,-504.29 746.25,-493.75 739.44,-495.38"/>
</g>
<!-- Node4 -->
<g id="node4" class="node">
<title>Node4</title>
<g id="a_node4"><a xlink:href="OperatorBase_8hpp.html" target="_top" xlink:title="Base class for building Steady and TimeDependent PhaseFieldOperators.">
<polygon fill="none" stroke="black" points="698,-224.5 698,-243.5 808,-243.5 808,-224.5 698,-224.5"/>
<text text-anchor="middle" x="753" y="-231.5" font-family="serif" font-size="10.00">OperatorBase.hpp</text>
</a>
</g>
</g>
<!-- Node1&#45;&gt;Node4 -->
<g id="edge38" class="edge">
<title>Node1&#45;&gt;Node4</title>
<path fill="none" stroke="midnightblue" d="M760.44,-496.16C775.55,-475.49 798,-438.76 798,-403 798,-403 798,-403 798,-345 798,-304.56 771.62,-261.56 759.26,-243.63"/>
<polygon fill="midnightblue" stroke="midnightblue" points="757.57,-494.15 754.31,-504.23 763.14,-498.39 757.57,-494.15"/>
</g>
<!-- Node5 -->
<g id="node5" class="node">
<title>Node5</title>
<g id="a_node5"><a xlink:href="SteadyOperator_8hpp.html" target="_top" xlink:title="Steady Operator.">
<polygon fill="none" stroke="black" points="622,-168.5 622,-187.5 742,-187.5 742,-168.5 622,-168.5"/>
<text text-anchor="middle" x="682" y="-175.5" font-family="serif" font-size="10.00">SteadyOperator.hpp</text>
</a>
</g>
</g>
<!-- Node1&#45;&gt;Node5 -->
<g id="edge39" class="edge">
<title>Node1&#45;&gt;Node5</title>
<path fill="none" stroke="midnightblue" d="M769.64,-498.76C796.01,-480.22 836,-445.15 836,-403 836,-403 836,-403 836,-289 836,-258.9 837.88,-245.68 817,-224 797.37,-203.63 768.3,-192.48 742.15,-186.37"/>
<polygon fill="midnightblue" stroke="midnightblue" points="767.62,-495.9 761.3,-504.4 771.54,-501.7 767.62,-495.9"/>
</g>
<!-- Node7 -->
<g id="node7" class="node">
<title>Node7</title>
<g id="a_node7"><a xlink:href="sloth_8hpp.html" target="_top" xlink:title="List of SLOTH header files.">
<polygon fill="none" stroke="black" points="523.5,-0.5 523.5,-19.5 588.5,-19.5 588.5,-0.5 523.5,-0.5"/>
<text text-anchor="middle" x="556" y="-7.5" font-family="serif" font-size="10.00">sloth.hpp</text>
</a>
</g>
</g>
<!-- Node1&#45;&gt;Node7 -->
<g id="edge42" class="edge">
<title>Node1&#45;&gt;Node7</title>
<path fill="none" stroke="midnightblue" d="M794.56,-504.38C846.38,-491.92 922,-463.39 922,-403 922,-403 922,-403 922,-121 922,-51.75 678.64,-22.29 588.8,-13.78"/>
<polygon fill="midnightblue" stroke="midnightblue" points="793.51,-501.02 784.54,-506.66 795.07,-507.85 793.51,-501.02"/>
</g>
<!-- Node8 -->
<g id="node8" class="node">
<title>Node8</title>
<g id="a_node8"><a xlink:href="TransientOperator_8hpp.html" target="_top" xlink:title="Transient Operator.">
<polygon fill="none" stroke="black" points="760,-168.5 760,-187.5 894,-187.5 894,-168.5 760,-168.5"/>
<text text-anchor="middle" x="827" y="-175.5" font-family="serif" font-size="10.00">TransientOperator.hpp</text>
</a>
</g>
</g>
<!-- Node1&#45;&gt;Node8 -->
<g id="edge40" class="edge">
<title>Node1&#45;&gt;Node8</title>
<path fill="none" stroke="midnightblue" d="M781.4,-500.44C819.01,-484.23 874,-452.13 874,-403 874,-403 874,-403 874,-289 874,-248.3 846.45,-205.44 833.54,-187.59"/>
<polygon fill="midnightblue" stroke="midnightblue" points="779.7,-497.36 771.79,-504.41 782.37,-503.83 779.7,-497.36"/>
</g>
<!-- Node9 -->
<g id="node9" class="node">
<title>Node9</title>
<g id="a_node9"><a xlink:href="Variable_8hpp.html" target="_top" xlink:title="Variable class used to build and manage variables of model.">
<polygon fill="none" stroke="black" points="378.5,-336.5 378.5,-355.5 459.5,-355.5 459.5,-336.5 378.5,-336.5"/>
<text text-anchor="middle" x="419" y="-343.5" font-family="serif" font-size="10.00">Variable.hpp</text>
</a>
</g>
</g>
<!-- Node1&#45;&gt;Node9 -->
<g id="edge43" class="edge">
<title>Node1&#45;&gt;Node9</title>
<path fill="none" stroke="midnightblue" d="M699.33,-510.29C631.43,-505.57 511.28,-493.76 477,-468 438.64,-439.17 424.46,-378.39 420.38,-355.74"/>
<polygon fill="midnightblue" stroke="midnightblue" points="699.14,-513.78 709.35,-510.96 699.61,-506.8 699.14,-513.78"/>
</g>
<!-- Node10 -->
<g id="node10" class="node">
<title>Node10</title>
<g id="a_node10"><a xlink:href="postprocessing_8hpp.html" target="_top" xlink:title="Post&#45;processing features.">
<polygon fill="none" stroke="black" points="443.5,-224.5 443.5,-243.5 560.5,-243.5 560.5,-224.5 443.5,-224.5"/>
<text text-anchor="middle" x="502" y="-231.5" font-family="serif" font-size="10.00">postprocessing.hpp</text>
</a>
</g>
</g>
<!-- Node1&#45;&gt;Node10 -->
<g id="edge41" class="edge">
<title>Node1&#45;&gt;Node10</title>
<path fill="none" stroke="midnightblue" d="M699.19,-512.97C625.1,-510.14 491,-492.63 491,-403 491,-403 491,-403 491,-345 491,-307 497.58,-261.98 500.56,-243.53"/>
<polygon fill="midnightblue" stroke="midnightblue" points="699.12,-516.47 709.23,-513.28 699.34,-509.48 699.12,-516.47"/>
</g>
<!-- Node19 -->
<g id="node19" class="node">
<title>Node19</title>
<g id="a_node19"><a xlink:href="Boundary_8cpp.html" target="_top" xlink:title="Boundary class used to build a boundary with a name, an index, a type and, if needed,...">
<polygon fill="none" stroke="black" points="519.5,-392.5 519.5,-411.5 606.5,-411.5 606.5,-392.5 519.5,-392.5"/>
<text text-anchor="middle" x="563" y="-399.5" font-family="serif" font-size="10.00">Boundary.cpp</text>
</a>
</g>
</g>
<!-- Node1&#45;&gt;Node19 -->
<g id="edge44" class="edge">
<title>Node1&#45;&gt;Node19</title>
<path fill="none" stroke="midnightblue" d="M699.7,-502.43C674.57,-495.35 644.02,-484.28 620,-468 597.14,-452.5 577.7,-425.7 568.57,-411.86"/>
<polygon fill="midnightblue" stroke="midnightblue" points="698.82,-505.82 709.39,-505.05 700.64,-499.06 698.82,-505.82"/>
</g>
<!-- Node2&#45;&gt;Node3 -->
<g id="edge2" class="edge">
<title>Node2&#45;&gt;Node3</title>
<path fill="none" stroke="midnightblue" d="M681.8,-438.69C685.68,-429.59 690.18,-419.01 693.27,-411.75"/>
<polygon fill="midnightblue" stroke="midnightblue" points="678.5,-437.51 677.8,-448.08 684.94,-440.25 678.5,-437.51"/>
</g>
<!-- Node2&#45;&gt;Node19 -->
<g id="edge36" class="edge">
<title>Node2&#45;&gt;Node19</title>
<path fill="none" stroke="midnightblue" d="M646.99,-443.86C626.41,-433.85 598.66,-420.35 580.79,-411.65"/>
<polygon fill="midnightblue" stroke="midnightblue" points="645.64,-447.1 656.17,-448.32 648.7,-440.8 645.64,-447.1"/>
</g>
<!-- Node3&#45;&gt;Node4 -->
<g id="edge3" class="edge">
<title>Node3&#45;&gt;Node4</title>
<path fill="none" stroke="midnightblue" d="M703.28,-382.39C715.36,-346.59 741.41,-269.34 750.11,-243.57"/>
<polygon fill="midnightblue" stroke="midnightblue" points="699.89,-381.48 700.01,-392.08 706.52,-383.72 699.89,-381.48"/>
</g>
<!-- Node3&#45;&gt;Node9 -->
<g id="edge9" class="edge">
<title>Node3&#45;&gt;Node9</title>
<path fill="none" stroke="midnightblue" d="M642.93,-390.5C589.23,-380.07 508.13,-364.31 459.68,-354.9"/>
<polygon fill="midnightblue" stroke="midnightblue" points="642.47,-393.97 652.95,-392.44 643.8,-387.1 642.47,-393.97"/>
</g>
<!-- Node4&#45;&gt;Node5 -->
<g id="edge4" class="edge">
<title>Node4&#45;&gt;Node5</title>
<path fill="none" stroke="midnightblue" d="M733.41,-218.1C720.63,-208.38 704.39,-196.03 693.61,-187.83"/>
<polygon fill="midnightblue" stroke="midnightblue" points="731.51,-221.06 741.59,-224.32 735.75,-215.48 731.51,-221.06"/>
</g>
<!-- Node4&#45;&gt;Node8 -->
<g id="edge7" class="edge">
<title>Node4&#45;&gt;Node8</title>
<path fill="none" stroke="midnightblue" d="M773.03,-218.38C786.41,-208.62 803.56,-196.11 814.89,-187.83"/>
<polygon fill="midnightblue" stroke="midnightblue" points="770.9,-215.6 764.89,-224.32 775.03,-221.26 770.9,-215.6"/>
</g>
<!-- Node6 -->
<g id="node6" class="node">
<title>Node6</title>
<g id="a_node6"><a xlink:href="ListOperators_8hpp.html" target="_top" xlink:title=" ">
<polygon fill="none" stroke="black" points="627,-112.5 627,-131.5 737,-131.5 737,-112.5 627,-112.5"/>
<text text-anchor="middle" x="682" y="-119.5" font-family="serif" font-size="10.00">ListOperators.hpp</text>
</a>
</g>
</g>
<!-- Node5&#45;&gt;Node6 -->
<g id="edge5" class="edge">
<title>Node5&#45;&gt;Node6</title>
<path fill="none" stroke="midnightblue" d="M682,-157.8C682,-148.91 682,-138.78 682,-131.75"/>
<polygon fill="midnightblue" stroke="midnightblue" points="678.5,-158.08 682,-168.08 685.5,-158.08 678.5,-158.08"/>
</g>
<!-- Node6&#45;&gt;Node7 -->
<g id="edge6" class="edge">
<title>Node6&#45;&gt;Node7</title>
<path fill="none" stroke="midnightblue" d="M664.45,-105.52C649.47,-92.32 627.36,-72.88 608,-56 593.42,-43.29 576.47,-28.65 565.99,-19.6"/>
<polygon fill="midnightblue" stroke="midnightblue" points="662.15,-108.16 671.97,-112.15 666.78,-102.91 662.15,-108.16"/>
</g>
<!-- Node8&#45;&gt;Node6 -->
<g id="edge8" class="edge">
<title>Node8&#45;&gt;Node6</title>
<path fill="none" stroke="midnightblue" d="M794.52,-164.91C767.26,-154.75 729.01,-140.51 704.87,-131.52"/>
<polygon fill="midnightblue" stroke="midnightblue" points="793.43,-168.23 804.02,-168.44 795.87,-161.67 793.43,-168.23"/>
</g>
<!-- Node9&#45;&gt;Node7 -->
<g id="edge29" class="edge">
<title>Node9&#45;&gt;Node7</title>
<path fill="none" stroke="midnightblue" d="M368.44,-342.36C256.99,-335.16 0,-310.39 0,-235 0,-235 0,-235 0,-121 0,-13.62 404.11,-9.38 523.3,-10.47"/>
<polygon fill="midnightblue" stroke="midnightblue" points="368.25,-345.86 378.44,-342.99 368.68,-338.87 368.25,-345.86"/>
</g>
<!-- Node9&#45;&gt;Node10 -->
<g id="edge10" class="edge">
<title>Node9&#45;&gt;Node10</title>
<path fill="none" stroke="midnightblue" d="M431.62,-328.27C449.56,-304.49 481.79,-261.79 495.52,-243.59"/>
<polygon fill="midnightblue" stroke="midnightblue" points="428.74,-326.28 425.51,-336.37 434.33,-330.49 428.74,-326.28"/>
</g>
<!-- Node11 -->
<g id="node11" class="node">
<title>Node11</title>
<g id="a_node11"><a xlink:href="MPIProblem_8hpp.html" target="_top" xlink:title="Class used to defined a MPI_Problem objet.">
<polygon fill="none" stroke="black" points="28,-112.5 28,-131.5 132,-131.5 132,-112.5 28,-112.5"/>
<text text-anchor="middle" x="80" y="-119.5" font-family="serif" font-size="10.00">MPIProblem.hpp</text>
</a>
</g>
</g>
<!-- Node9&#45;&gt;Node11 -->
<g id="edge26" class="edge">
<title>Node9&#45;&gt;Node11</title>
<path fill="none" stroke="midnightblue" d="M397.13,-330.68C332.67,-288.46 144.72,-165.39 93.2,-131.64"/>
<polygon fill="midnightblue" stroke="midnightblue" points="395.43,-333.75 405.71,-336.3 399.26,-327.89 395.43,-333.75"/>
</g>
<!-- Node13 -->
<g id="node13" class="node">
<title>Node13</title>
<g id="a_node13"><a xlink:href="Problem_8hpp.html" target="_top" xlink:title="Class used to defined a PDE Problem.">
<polygon fill="none" stroke="black" points="444.5,-112.5 444.5,-131.5 527.5,-131.5 527.5,-112.5 444.5,-112.5"/>
<text text-anchor="middle" x="486" y="-119.5" font-family="serif" font-size="10.00">Problem.hpp</text>
</a>
</g>
</g>
<!-- Node9&#45;&gt;Node13 -->
<g id="edge27" class="edge">
<title>Node9&#45;&gt;Node13</title>
<path fill="none" stroke="midnightblue" d="M419.31,-326.01C420.16,-301.82 423.22,-258.94 434,-224 445.23,-187.63 469.08,-148.69 480.14,-131.73"/>
<polygon fill="midnightblue" stroke="midnightblue" points="415.8,-326.19 419.04,-336.27 422.8,-326.37 415.8,-326.19"/>
</g>
<!-- Node15 -->
<g id="node15" class="node">
<title>Node15</title>
<g id="a_node15"><a xlink:href="ProblemBase_8hpp.html" target="_top" xlink:title="Base class for building Problems.">
<polygon fill="none" stroke="black" points="279.5,-168.5 279.5,-187.5 386.5,-187.5 386.5,-168.5 279.5,-168.5"/>
<text text-anchor="middle" x="333" y="-175.5" font-family="serif" font-size="10.00">ProblemBase.hpp</text>
</a>
</g>
</g>
<!-- Node9&#45;&gt;Node15 -->
<g id="edge28" class="edge">
<title>Node9&#45;&gt;Node15</title>
<path fill="none" stroke="midnightblue" d="M409.6,-326.86C391.15,-291.25 350.85,-213.45 337.44,-187.57"/>
<polygon fill="midnightblue" stroke="midnightblue" points="406.67,-328.81 414.38,-336.08 412.88,-325.59 406.67,-328.81"/>
</g>
<!-- Node18 -->
<g id="node18" class="node">
<title>Node18</title>
<g id="a_node18"><a xlink:href="Variables_8hpp.html" target="_top" xlink:title="Variables class used to build and manage variables.">
<polygon fill="none" stroke="black" points="570,-280.5 570,-299.5 656,-299.5 656,-280.5 570,-280.5"/>
<text text-anchor="middle" x="613" y="-287.5" font-family="serif" font-size="10.00">Variables.hpp</text>
</a>
</g>
</g>
<!-- Node9&#45;&gt;Node18 -->
<g id="edge30" class="edge">
<title>Node9&#45;&gt;Node18</title>
<path fill="none" stroke="midnightblue" d="M459.6,-333.7C496.22,-323.51 549.26,-308.74 582.4,-299.52"/>
<polygon fill="midnightblue" stroke="midnightblue" points="458.44,-330.39 449.74,-336.44 460.31,-337.13 458.44,-330.39"/>
</g>
<!-- Node10&#45;&gt;Node7 -->
<g id="edge25" class="edge">
<title>Node10&#45;&gt;Node7</title>
<path fill="none" stroke="midnightblue" d="M509,-215.12C516.58,-195.14 528.6,-161.67 536,-132 546.35,-90.47 552.78,-39.56 555.06,-19.61"/>
<polygon fill="midnightblue" stroke="midnightblue" points="505.71,-213.9 505.39,-224.49 512.25,-216.42 505.71,-213.9"/>
</g>
<!-- Node10&#45;&gt;Node11 -->
<g id="edge11" class="edge">
<title>Node10&#45;&gt;Node11</title>
<path fill="none" stroke="midnightblue" d="M436.66,-222.81C389.88,-214.91 325.58,-202.82 270,-188 207.85,-171.43 136.59,-144.98 101.64,-131.5"/>
<polygon fill="midnightblue" stroke="midnightblue" points="436.23,-226.28 446.67,-224.48 437.38,-219.38 436.23,-226.28"/>
</g>
<!-- Node10&#45;&gt;Node13 -->
<g id="edge14" class="edge">
<title>Node10&#45;&gt;Node13</title>
<path fill="none" stroke="midnightblue" d="M499.29,-214.35C495.78,-190.25 489.83,-149.31 487.25,-131.59"/>
<polygon fill="midnightblue" stroke="midnightblue" points="495.84,-214.98 500.74,-224.37 502.77,-213.97 495.84,-214.98"/>
</g>
<!-- Node10&#45;&gt;Node15 -->
<g id="edge18" class="edge">
<title>Node10&#45;&gt;Node15</title>
<path fill="none" stroke="midnightblue" d="M465.4,-221.3C433.55,-211.13 388.16,-196.62 359.65,-187.52"/>
<polygon fill="midnightblue" stroke="midnightblue" points="464.63,-224.73 475.22,-224.44 466.76,-218.07 464.63,-224.73"/>
</g>
<!-- Node12 -->
<g id="node12" class="node">
<title>Node12</title>
<g id="a_node12"><a xlink:href="ListProblems_8hpp.html" target="_top" xlink:title=" ">
<polygon fill="none" stroke="black" points="309.5,-56.5 309.5,-75.5 416.5,-75.5 416.5,-56.5 309.5,-56.5"/>
<text text-anchor="middle" x="363" y="-63.5" font-family="serif" font-size="10.00">ListProblems.hpp</text>
</a>
</g>
</g>
<!-- Node11&#45;&gt;Node12 -->
<g id="edge12" class="edge">
<title>Node11&#45;&gt;Node12</title>
<path fill="none" stroke="midnightblue" d="M134.83,-110.54C188.32,-100.33 268.67,-85 318.37,-75.52"/>
<polygon fill="midnightblue" stroke="midnightblue" points="134.01,-107.13 124.84,-112.44 135.32,-114.01 134.01,-107.13"/>
</g>
<!-- Node12&#45;&gt;Node7 -->
<g id="edge13" class="edge">
<title>Node12&#45;&gt;Node7</title>
<path fill="none" stroke="midnightblue" d="M403.39,-53.7C439.82,-43.51 492.59,-28.74 525.56,-19.52"/>
<polygon fill="midnightblue" stroke="midnightblue" points="402.27,-50.38 393.58,-56.44 404.15,-57.12 402.27,-50.38"/>
</g>
<!-- Node13&#45;&gt;Node12 -->
<g id="edge15" class="edge">
<title>Node13&#45;&gt;Node12</title>
<path fill="none" stroke="midnightblue" d="M457.23,-108.37C434.19,-98.26 402.52,-84.35 382.4,-75.52"/>
<polygon fill="midnightblue" stroke="midnightblue" points="455.95,-111.63 466.51,-112.44 458.76,-105.22 455.95,-111.63"/>
</g>
<!-- Node14 -->
<g id="node14" class="node">
<title>Node14</title>
<g id="a_node14"><a xlink:href="Time_8hpp.html" target="_top" xlink:title="Main time loop.">
<polygon fill="none" stroke="black" points="457.5,-56.5 457.5,-75.5 522.5,-75.5 522.5,-56.5 457.5,-56.5"/>
<text text-anchor="middle" x="490" y="-63.5" font-family="serif" font-size="10.00">Time.hpp</text>
</a>
</g>
</g>
<!-- Node13&#45;&gt;Node14 -->
<g id="edge16" class="edge">
<title>Node13&#45;&gt;Node14</title>
<path fill="none" stroke="midnightblue" d="M487.4,-102.1C488.06,-93.14 488.83,-82.86 489.35,-75.75"/>
<polygon fill="midnightblue" stroke="midnightblue" points="483.91,-101.85 486.66,-112.08 490.89,-102.37 483.91,-101.85"/>
</g>
<!-- Node14&#45;&gt;Node7 -->
<g id="edge17" class="edge">
<title>Node14&#45;&gt;Node7</title>
<path fill="none" stroke="midnightblue" d="M508.55,-49.82C520.38,-40.15 535.29,-27.95 545.2,-19.83"/>
<polygon fill="midnightblue" stroke="midnightblue" points="506.13,-47.28 500.6,-56.32 510.56,-52.7 506.13,-47.28"/>
</g>
<!-- Node15&#45;&gt;Node11 -->
<g id="edge21" class="edge">
<title>Node15&#45;&gt;Node11</title>
<path fill="none" stroke="midnightblue" d="M283.08,-166.35C235.27,-156.14 164.05,-140.94 119.9,-131.52"/>
<polygon fill="midnightblue" stroke="midnightblue" points="282.4,-169.78 292.91,-168.44 283.86,-162.93 282.4,-169.78"/>
</g>
<!-- Node15&#45;&gt;Node13 -->
<g id="edge22" class="edge">
<title>Node15&#45;&gt;Node13</title>
<path fill="none" stroke="midnightblue" d="M366.89,-165.04C395.68,-154.88 436.29,-140.55 461.87,-131.52"/>
<polygon fill="midnightblue" stroke="midnightblue" points="365.51,-161.81 357.24,-168.44 367.84,-168.42 365.51,-161.81"/>
</g>
<!-- Node16 -->
<g id="node16" class="node">
<title>Node16</title>
<g id="a_node16"><a xlink:href="Calphad__problem_8hpp.html" target="_top" xlink:title="Class used to defined a Calphad_Problem objet.">
<polygon fill="none" stroke="black" points="150.5,-112.5 150.5,-131.5 281.5,-131.5 281.5,-112.5 150.5,-112.5"/>
<text text-anchor="middle" x="216" y="-119.5" font-family="serif" font-size="10.00">Calphad_problem.hpp</text>
</a>
</g>
</g>
<!-- Node15&#45;&gt;Node16 -->
<g id="edge19" class="edge">
<title>Node15&#45;&gt;Node16</title>
<path fill="none" stroke="midnightblue" d="M305.34,-164.23C283.45,-154.13 253.5,-140.31 234.45,-131.52"/>
<polygon fill="midnightblue" stroke="midnightblue" points="303.91,-167.43 314.46,-168.44 306.85,-161.08 303.91,-167.43"/>
</g>
<!-- Node17 -->
<g id="node17" class="node">
<title>Node17</title>
<g id="a_node17"><a xlink:href="PropertyProblem_8hpp.html" target="_top" xlink:title="Class used to compute primary variables as a function of auxialiary variables.">
<polygon fill="none" stroke="black" points="299.5,-112.5 299.5,-131.5 426.5,-131.5 426.5,-112.5 299.5,-112.5"/>
<text text-anchor="middle" x="363" y="-119.5" font-family="serif" font-size="10.00">PropertyProblem.hpp</text>
</a>
</g>
</g>
<!-- Node15&#45;&gt;Node17 -->
<g id="edge23" class="edge">
<title>Node15&#45;&gt;Node17</title>
<path fill="none" stroke="midnightblue" d="M342.85,-159.27C347.97,-150.05 354.02,-139.17 358.14,-131.75"/>
<polygon fill="midnightblue" stroke="midnightblue" points="339.75,-157.64 337.95,-168.08 345.87,-161.04 339.75,-157.64"/>
</g>
<!-- Node16&#45;&gt;Node12 -->
<g id="edge20" class="edge">
<title>Node16&#45;&gt;Node12</title>
<path fill="none" stroke="midnightblue" d="M248.92,-108.91C276.56,-98.75 315.34,-84.51 339.82,-75.52"/>
<polygon fill="midnightblue" stroke="midnightblue" points="247.47,-105.71 239.29,-112.44 249.89,-112.28 247.47,-105.71"/>
</g>
<!-- Node17&#45;&gt;Node12 -->
<g id="edge24" class="edge">
<title>Node17&#45;&gt;Node12</title>
<path fill="none" stroke="midnightblue" d="M363,-101.8C363,-92.91 363,-82.78 363,-75.75"/>
<polygon fill="midnightblue" stroke="midnightblue" points="359.5,-102.08 363,-112.08 366.5,-102.08 359.5,-102.08"/>
</g>
<!-- Node18&#45;&gt;Node4 -->
<g id="edge31" class="edge">
<title>Node18&#45;&gt;Node4</title>
<path fill="none" stroke="midnightblue" d="M644.7,-276.77C671,-266.63 707.72,-252.47 730.92,-243.52"/>
<polygon fill="midnightblue" stroke="midnightblue" points="643.25,-273.58 635.18,-280.44 645.77,-280.11 643.25,-273.58"/>
</g>
<!-- Node18&#45;&gt;Node5 -->
<g id="edge32" class="edge">
<title>Node18&#45;&gt;Node5</title>
<path fill="none" stroke="midnightblue" d="M623.89,-271.64C638.88,-247.74 665.3,-205.63 676.61,-187.59"/>
<polygon fill="midnightblue" stroke="midnightblue" points="620.76,-270.04 618.41,-280.37 626.69,-273.76 620.76,-270.04"/>
</g>
<!-- Node18&#45;&gt;Node7 -->
<g id="edge35" class="edge">
<title>Node18&#45;&gt;Node7</title>
<path fill="none" stroke="midnightblue" d="M607.78,-270.39C602.16,-248.65 594,-211.51 594,-179 594,-179 594,-179 594,-121 594,-81.4 571.73,-37.96 561.28,-19.77"/>
<polygon fill="midnightblue" stroke="midnightblue" points="604.46,-271.5 610.44,-280.25 611.22,-269.68 604.46,-271.5"/>
</g>
<!-- Node18&#45;&gt;Node8 -->
<g id="edge33" class="edge">
<title>Node18&#45;&gt;Node8</title>
<path fill="none" stroke="midnightblue" d="M628.13,-272.85C642.55,-258.29 665.49,-237.19 689,-224 719.99,-206.61 758.7,-194.73 787.23,-187.56"/>
<polygon fill="midnightblue" stroke="midnightblue" points="625.48,-270.56 621.04,-280.18 630.51,-275.42 625.48,-270.56"/>
</g>
<!-- Node18&#45;&gt;Node10 -->
<g id="edge34" class="edge">
<title>Node18&#45;&gt;Node10</title>
<path fill="none" stroke="midnightblue" d="M585.99,-275.86C565.41,-265.85 537.66,-252.35 519.79,-243.65"/>
<polygon fill="midnightblue" stroke="midnightblue" points="584.64,-279.1 595.17,-280.32 587.7,-272.8 584.64,-279.1"/>
</g>
</g>
</svg>
        <g id="navigator" transform="translate(0 0)" fill="#404254">
                <rect fill="#f2f5e9" fill-opacity="0.5" stroke="#606060" stroke-width=".5" x="0" y="0" width="60" height="60"/>
                <use id="zoomplus" xlink:href="#zoomPlus" x="17" y="9" onmousedown="handleZoom(evt,'in')"/>
                <use id="zoomminus" xlink:href="#zoomMin" x="42" y="9" onmousedown="handleZoom(evt,'out')"/>
                <use id="reset" xlink:href="#resetDef" x="30" y="36" onmousedown="handleReset()"/>
                <g id="arrowUp" xlink:href="#dirArrow" transform="translate(30 24)" onmousedown="handlePan(0,-1)">
                  <use xlink:href="#rim" fill="#404040">
                        <set attributeName="fill" to="#808080" begin="arrowUp.mouseover" end="arrowUp.mouseout"/>
                  </use>
                  <path fill="none" stroke="white" stroke-width="1.5" d="M0,-3.0v7 M-2.5,-0.5L0,-3.0L2.5,-0.5"/>
                </g>
                <g id="arrowRight" xlink:href="#dirArrow" transform="rotate(90) translate(36 -43)" onmousedown="handlePan(1,0)">
                  <use xlink:href="#rim" fill="#404040">
                        <set attributeName="fill" to="#808080" begin="arrowRight.mouseover" end="arrowRight.mouseout"/>
                  </use>
                  <path fill="none" stroke="white" stroke-width="1.5" d="M0,-3.0v7 M-2.5,-0.5L0,-3.0L2.5,-0.5"/>
                </g>
                <g id="arrowDown" xlink:href="#dirArrow" transform="rotate(180) translate(-30 -48)" onmousedown="handlePan(0,1)">
                  <use xlink:href="#rim" fill="#404040">
                        <set attributeName="fill" to="#808080" begin="arrowDown.mouseover" end="arrowDown.mouseout"/>
                  </use>
                  <path fill="none" stroke="white" stroke-width="1.5" d="M0,-3.0v7 M-2.5,-0.5L0,-3.0L2.5,-0.5"/>
                </g>
                <g id="arrowLeft" xlink:href="#dirArrow" transform="rotate(270) translate(-36 17)" onmousedown="handlePan(-1,0)">
                  <use xlink:href="#rim" fill="#404040">
                        <set attributeName="fill" to="#808080" begin="arrowLeft.mouseover" end="arrowLeft.mouseout"/>
                  </use>
                  <path fill="none" stroke="white" stroke-width="1.5" d="M0,-3.0v7 M-2.5,-0.5L0,-3.0L2.5,-0.5"/>
                </g>
        </g>
        <svg viewBox="0 0 15 15" width="100%" height="30px" preserveAspectRatio="xMaxYMin meet">
         <g id="arrow_out" transform="scale(0.3 0.3)">
          <a xlink:href="Spatial_8hpp__dep__incl_org.svg" target="_base">
           <rect id="button" ry="5" rx="5" y="6" x="6" height="38" width="38"
                fill="#f2f5e9" fill-opacity="0.5" stroke="#606060" stroke-width="1.0"/>
           <path id="arrow"
             d="M 11.500037,31.436501 C 11.940474,20.09759 22.043105,11.32322 32.158766,21.979434 L 37.068811,17.246167 C 37.068811,17.246167 37.088388,32 37.088388,32 L 22.160133,31.978069 C 22.160133,31.978069 26.997745,27.140456 26.997745,27.140456 C 18.528582,18.264221 13.291696,25.230495 11.500037,31.436501 z"
             style="fill:#404040;"/>
          </a>
         </g>
        </svg>
</svg>
