<?xml version="1.0" encoding="UTF-8" standalone="no"?>
<!DOCTYPE svg PUBLIC "-//W3C//DTD SVG 1.1//EN"
 "http://www.w3.org/Graphics/SVG/1.1/DTD/svg11.dtd">
<!-- Generated by graphviz version 2.43.0 (0)
 -->
<!-- Title: TimeOptions.cpp Pages: 1 -->
<svg width="1267pt" height="308pt"
 viewBox="0.00 0.00 1267.00 308.00" xmlns="http://www.w3.org/2000/svg" xmlns:xlink="http://www.w3.org/1999/xlink">
<g id="graph0" class="graph" transform="scale(1 1) rotate(0) translate(4 304)">
<title>TimeOptions.cpp</title>
<!-- Node1 -->
<g id="node1" class="node">
<title>Node1</title>
<g id="a_node1"><a xlink:title="Options for Time discretization.">
<polygon fill="#bfbfbf" stroke="black" points="260.5,-280.5 260.5,-299.5 364.5,-299.5 364.5,-280.5 260.5,-280.5"/>
<text text-anchor="middle" x="312.5" y="-287.5" font-family="serif" font-size="10.00">TimeOptions.cpp</text>
</a>
</g>
</g>
<!-- Node2 -->
<g id="node2" class="node">
<title>Node2</title>
<g id="a_node2"><a xlink:href="TimeOptions_8hpp.html" target="_top" xlink:title="Options for Time discretization.">
<polygon fill="none" stroke="black" points="238.5,-224.5 238.5,-243.5 386.5,-243.5 386.5,-224.5 238.5,-224.5"/>
<text text-anchor="middle" x="312.5" y="-231.5" font-family="serif" font-size="10.00">Options/TimeOptions.hpp</text>
</a>
</g>
</g>
<!-- Node1&#45;&gt;Node2 -->
<g id="edge1" class="edge">
<title>Node1&#45;&gt;Node2</title>
<path fill="none" stroke="midnightblue" d="M312.5,-280.08C312.5,-273.01 312.5,-262.86 312.5,-253.99"/>
<polygon fill="midnightblue" stroke="midnightblue" points="316,-253.75 312.5,-243.75 309,-253.75 316,-253.75"/>
</g>
<!-- Node3 -->
<g id="node3" class="node">
<title>Node3</title>
<g id="a_node3"><a xlink:title=" ">
<polygon fill="none" stroke="#bfbfbf" points="267,-0.5 267,-19.5 314,-19.5 314,-0.5 267,-0.5"/>
<text text-anchor="middle" x="290.5" y="-7.5" font-family="serif" font-size="10.00">string</text>
</a>
</g>
</g>
<!-- Node1&#45;&gt;Node3 -->
<g id="edge50" class="edge">
<title>Node1&#45;&gt;Node3</title>
<path fill="none" stroke="midnightblue" d="M284.91,-280.35C266.72,-273.3 243.71,-261.6 229.5,-244 210.59,-220.58 210.5,-209.1 210.5,-179 210.5,-179 210.5,-179 210.5,-121 210.5,-80.62 246.19,-45.11 269.9,-25.97"/>
<polygon fill="midnightblue" stroke="midnightblue" points="272.24,-28.58 278,-19.69 267.95,-23.05 272.24,-28.58"/>
</g>
<!-- Node4 -->
<g id="node4" class="node">
<title>Node4</title>
<g id="a_node4"><a xlink:href="Utils_8hpp.html" target="_top" xlink:title="List of all Utils files.">
<polygon fill="none" stroke="black" points="370,-168.5 370,-187.5 459,-187.5 459,-168.5 370,-168.5"/>
<text text-anchor="middle" x="414.5" y="-175.5" font-family="serif" font-size="10.00">Utils/Utils.hpp</text>
</a>
</g>
</g>
<!-- Node1&#45;&gt;Node4 -->
<g id="edge51" class="edge">
<title>Node1&#45;&gt;Node4</title>
<path fill="none" stroke="midnightblue" d="M340.09,-280.35C358.28,-273.3 381.29,-261.6 395.5,-244 406.22,-230.72 410.89,-211.59 412.93,-197.53"/>
<polygon fill="midnightblue" stroke="midnightblue" points="416.41,-197.87 414.06,-187.54 409.46,-197.08 416.41,-197.87"/>
</g>
<!-- Node2&#45;&gt;Node3 -->
<g id="edge2" class="edge">
<title>Node2&#45;&gt;Node3</title>
<path fill="none" stroke="midnightblue" d="M311.07,-224.18C307.29,-200.36 296.97,-132.7 292.5,-76 291.28,-60.5 290.79,-42.88 290.6,-29.89"/>
<polygon fill="midnightblue" stroke="midnightblue" points="294.1,-29.81 290.5,-19.85 287.1,-29.88 294.1,-29.81"/>
</g>
<!-- Node2&#45;&gt;Node4 -->
<g id="edge3" class="edge">
<title>Node2&#45;&gt;Node4</title>
<path fill="none" stroke="midnightblue" d="M328.89,-224.32C345.17,-215.7 370.37,-202.36 389.22,-192.39"/>
<polygon fill="midnightblue" stroke="midnightblue" points="390.95,-195.43 398.15,-187.65 387.68,-189.24 390.95,-195.43"/>
</g>
<!-- Node5 -->
<g id="node5" class="node">
<title>Node5</title>
<g id="a_node5"><a xlink:href="UtilsForData_8hpp.html" target="_top" xlink:title="Usefull methods for data.">
<polygon fill="none" stroke="black" points="835,-56.5 835,-75.5 966,-75.5 966,-56.5 835,-56.5"/>
<text text-anchor="middle" x="900.5" y="-63.5" font-family="serif" font-size="10.00">Utils/UtilsForData.hpp</text>
</a>
</g>
</g>
<!-- Node4&#45;&gt;Node5 -->
<g id="edge4" class="edge">
<title>Node4&#45;&gt;Node5</title>
<path fill="none" stroke="midnightblue" d="M452.23,-168.46C539.79,-148.64 756.65,-99.56 853.02,-77.75"/>
<polygon fill="midnightblue" stroke="midnightblue" points="853.81,-81.16 862.79,-75.53 852.27,-74.33 853.81,-81.16"/>
</g>
<!-- Node18 -->
<g id="node18" class="node">
<title>Node18</title>
<g id="a_node18"><a xlink:href="UtilsForDebug_8hpp.html" target="_top" xlink:title="Usefull methods for debug.">
<polygon fill="none" stroke="black" points="830,-112.5 830,-131.5 971,-131.5 971,-112.5 830,-112.5"/>
<text text-anchor="middle" x="900.5" y="-119.5" font-family="serif" font-size="10.00">Utils/UtilsForDebug.hpp</text>
</a>
</g>
</g>
<!-- Node4&#45;&gt;Node18 -->
<g id="edge18" class="edge">
<title>Node4&#45;&gt;Node18</title>
<path fill="none" stroke="midnightblue" d="M459.35,-172.02C541.33,-162.91 716.42,-143.45 819.67,-131.98"/>
<polygon fill="midnightblue" stroke="midnightblue" points="820.18,-135.45 829.73,-130.86 819.41,-128.49 820.18,-135.45"/>
</g>
<!-- Node21 -->
<g id="node21" class="node">
<title>Node21</title>
<g id="a_node21"><a xlink:href="UtilsForOptions_8hpp.html" target="_top" xlink:title="Usefull methods for Options.">
<polygon fill="none" stroke="black" points="520.5,-56.5 520.5,-75.5 666.5,-75.5 666.5,-56.5 520.5,-56.5"/>
<text text-anchor="middle" x="593.5" y="-63.5" font-family="serif" font-size="10.00">Utils/UtilsForOptions.hpp</text>
</a>
</g>
</g>
<!-- Node4&#45;&gt;Node21 -->
<g id="edge29" class="edge">
<title>Node4&#45;&gt;Node21</title>
<path fill="none" stroke="midnightblue" d="M428.55,-168.37C459.39,-149.41 533.29,-104 570.81,-80.94"/>
<polygon fill="midnightblue" stroke="midnightblue" points="572.83,-83.81 579.52,-75.59 569.17,-77.85 572.83,-83.81"/>
</g>
<!-- Node24 -->
<g id="node24" class="node">
<title>Node24</title>
<g id="a_node24"><a xlink:href="UtilsForPostProcessing_8hpp.html" target="_top" xlink:title="Usefull methods for post&#45;processing.">
<polygon fill="none" stroke="black" points="319,-56.5 319,-75.5 502,-75.5 502,-56.5 319,-56.5"/>
<text text-anchor="middle" x="410.5" y="-63.5" font-family="serif" font-size="10.00">Utils/UtilsForPostProcessing.hpp</text>
</a>
</g>
</g>
<!-- Node4&#45;&gt;Node24 -->
<g id="edge39" class="edge">
<title>Node4&#45;&gt;Node24</title>
<path fill="none" stroke="midnightblue" d="M414.19,-168.37C413.54,-150.62 412.05,-109.67 411.18,-85.6"/>
<polygon fill="midnightblue" stroke="midnightblue" points="414.67,-85.46 410.81,-75.59 407.68,-85.71 414.67,-85.46"/>
</g>
<!-- Node25 -->
<g id="node25" class="node">
<title>Node25</title>
<g id="a_node25"><a xlink:href="UtilsForVariants_8hpp.html" target="_top" xlink:title="manage std::Variants">
<polygon fill="none" stroke="black" points="34.5,-56.5 34.5,-75.5 182.5,-75.5 182.5,-56.5 34.5,-56.5"/>
<text text-anchor="middle" x="108.5" y="-63.5" font-family="serif" font-size="10.00">Utils/UtilsForVariants.hpp</text>
</a>
</g>
</g>
<!-- Node4&#45;&gt;Node25 -->
<g id="edge46" class="edge">
<title>Node4&#45;&gt;Node25</title>
<path fill="none" stroke="midnightblue" d="M390.74,-168.46C336.74,-149.05 204.62,-101.55 142.2,-79.12"/>
<polygon fill="midnightblue" stroke="midnightblue" points="143.05,-75.7 132.45,-75.61 140.68,-82.29 143.05,-75.7"/>
</g>
<!-- Node5&#45;&gt;Node3 -->
<g id="edge13" class="edge">
<title>Node5&#45;&gt;Node3</title>
<path fill="none" stroke="midnightblue" d="M834.77,-59.74C819.27,-58.51 802.8,-57.2 787.5,-56 584.52,-40.04 529.02,-54.89 324.05,-19.74"/>
<polygon fill="midnightblue" stroke="midnightblue" points="324.62,-16.29 314.17,-18.03 323.43,-23.19 324.62,-16.29"/>
</g>
<!-- Node6 -->
<g id="node6" class="node">
<title>Node6</title>
<g id="a_node6"><a xlink:title=" ">
<polygon fill="none" stroke="#bfbfbf" points="1048,-0.5 1048,-19.5 1107,-19.5 1107,-0.5 1048,-0.5"/>
<text text-anchor="middle" x="1077.5" y="-7.5" font-family="serif" font-size="10.00">unistd.h</text>
</a>
</g>
</g>
<!-- Node5&#45;&gt;Node6 -->
<g id="edge5" class="edge">
<title>Node5&#45;&gt;Node6</title>
<path fill="none" stroke="midnightblue" d="M928.55,-56.44C958.58,-47.28 1006.41,-32.69 1039.74,-22.52"/>
<polygon fill="midnightblue" stroke="midnightblue" points="1041.04,-25.78 1049.59,-19.52 1039,-19.09 1041.04,-25.78"/>
</g>
<!-- Node7 -->
<g id="node7" class="node">
<title>Node7</title>
<g id="a_node7"><a xlink:title=" ">
<polygon fill="none" stroke="#bfbfbf" points="460.5,-0.5 460.5,-19.5 526.5,-19.5 526.5,-0.5 460.5,-0.5"/>
<text text-anchor="middle" x="493.5" y="-7.5" font-family="serif" font-size="10.00">algorithm</text>
</a>
</g>
</g>
<!-- Node5&#45;&gt;Node7 -->
<g id="edge6" class="edge">
<title>Node5&#45;&gt;Node7</title>
<path fill="none" stroke="midnightblue" d="M834.97,-58.69C763.87,-51.44 646.81,-38.35 536.85,-20.11"/>
<polygon fill="midnightblue" stroke="midnightblue" points="537.36,-16.64 526.92,-18.44 536.2,-23.55 537.36,-16.64"/>
</g>
<!-- Node8 -->
<g id="node8" class="node">
<title>Node8</title>
<g id="a_node8"><a xlink:title=" ">
<polygon fill="none" stroke="#bfbfbf" points="749.5,-0.5 749.5,-19.5 799.5,-19.5 799.5,-0.5 749.5,-0.5"/>
<text text-anchor="middle" x="774.5" y="-7.5" font-family="serif" font-size="10.00">cctype</text>
</a>
</g>
</g>
<!-- Node5&#45;&gt;Node8 -->
<g id="edge7" class="edge">
<title>Node5&#45;&gt;Node8</title>
<path fill="none" stroke="midnightblue" d="M880.53,-56.44C859.89,-47.6 827.44,-33.69 803.87,-23.59"/>
<polygon fill="midnightblue" stroke="midnightblue" points="804.94,-20.24 794.37,-19.52 802.18,-26.67 804.94,-20.24"/>
</g>
<!-- Node9 -->
<g id="node9" class="node">
<title>Node9</title>
<g id="a_node9"><a xlink:title=" ">
<polygon fill="none" stroke="#bfbfbf" points="1125,-0.5 1125,-19.5 1172,-19.5 1172,-0.5 1125,-0.5"/>
<text text-anchor="middle" x="1148.5" y="-7.5" font-family="serif" font-size="10.00">cstdio</text>
</a>
</g>
</g>
<!-- Node5&#45;&gt;Node9 -->
<g id="edge8" class="edge">
<title>Node5&#45;&gt;Node9</title>
<path fill="none" stroke="midnightblue" d="M946.22,-56.42C987.93,-48.38 1051.5,-35.61 1115.01,-20.25"/>
<polygon fill="midnightblue" stroke="midnightblue" points="1115.9,-23.64 1124.78,-17.87 1114.24,-16.84 1115.9,-23.64"/>
</g>
<!-- Node10 -->
<g id="node10" class="node">
<title>Node10</title>
<g id="a_node10"><a xlink:title=" ">
<polygon fill="none" stroke="#bfbfbf" points="817.5,-0.5 817.5,-19.5 885.5,-19.5 885.5,-0.5 817.5,-0.5"/>
<text text-anchor="middle" x="851.5" y="-7.5" font-family="serif" font-size="10.00">filesystem</text>
</a>
</g>
</g>
<!-- Node5&#45;&gt;Node10 -->
<g id="edge9" class="edge">
<title>Node5&#45;&gt;Node10</title>
<path fill="none" stroke="midnightblue" d="M892.41,-56.08C885.34,-48.3 874.91,-36.8 866.35,-27.37"/>
<polygon fill="midnightblue" stroke="midnightblue" points="868.75,-24.8 859.44,-19.75 863.57,-29.51 868.75,-24.8"/>
</g>
<!-- Node11 -->
<g id="node11" class="node">
<title>Node11</title>
<g id="a_node11"><a xlink:title=" ">
<polygon fill="none" stroke="#bfbfbf" points="961.5,-0.5 961.5,-19.5 1029.5,-19.5 1029.5,-0.5 961.5,-0.5"/>
<text text-anchor="middle" x="995.5" y="-7.5" font-family="serif" font-size="10.00">functional</text>
</a>
</g>
</g>
<!-- Node5&#45;&gt;Node11 -->
<g id="edge10" class="edge">
<title>Node5&#45;&gt;Node11</title>
<path fill="none" stroke="midnightblue" d="M915.76,-56.32C930.72,-47.82 953.75,-34.73 971.23,-24.8"/>
<polygon fill="midnightblue" stroke="midnightblue" points="973.31,-27.64 980.27,-19.65 969.85,-21.55 973.31,-27.64"/>
</g>
<!-- Node12 -->
<g id="node12" class="node">
<title>Node12</title>
<g id="a_node12"><a xlink:title=" ">
<polygon fill="none" stroke="#bfbfbf" points="609,-0.5 609,-19.5 670,-19.5 670,-0.5 609,-0.5"/>
<text text-anchor="middle" x="639.5" y="-7.5" font-family="serif" font-size="10.00">iostream</text>
</a>
</g>
</g>
<!-- Node5&#45;&gt;Node12 -->
<g id="edge11" class="edge">
<title>Node5&#45;&gt;Node12</title>
<path fill="none" stroke="midnightblue" d="M857.25,-56.47C814.75,-48.02 747.79,-34.55 680.06,-20.08"/>
<polygon fill="midnightblue" stroke="midnightblue" points="680.57,-16.62 670.06,-17.94 679.11,-23.46 680.57,-16.62"/>
</g>
<!-- Node13 -->
<g id="node13" class="node">
<title>Node13</title>
<g id="a_node13"><a xlink:title=" ">
<polygon fill="none" stroke="#bfbfbf" points="904,-0.5 904,-19.5 943,-19.5 943,-0.5 904,-0.5"/>
<text text-anchor="middle" x="923.5" y="-7.5" font-family="serif" font-size="10.00">map</text>
</a>
</g>
</g>
<!-- Node5&#45;&gt;Node13 -->
<g id="edge12" class="edge">
<title>Node5&#45;&gt;Node13</title>
<path fill="none" stroke="midnightblue" d="M904.3,-56.08C907.41,-48.77 911.92,-38.18 915.79,-29.1"/>
<polygon fill="midnightblue" stroke="midnightblue" points="919.07,-30.32 919.77,-19.75 912.63,-27.58 919.07,-30.32"/>
</g>
<!-- Node14 -->
<g id="node14" class="node">
<title>Node14</title>
<g id="a_node14"><a xlink:title=" ">
<polygon fill="none" stroke="#bfbfbf" points="688,-0.5 688,-19.5 731,-19.5 731,-0.5 688,-0.5"/>
<text text-anchor="middle" x="709.5" y="-7.5" font-family="serif" font-size="10.00">tuple</text>
</a>
</g>
</g>
<!-- Node5&#45;&gt;Node14 -->
<g id="edge14" class="edge">
<title>Node5&#45;&gt;Node14</title>
<path fill="none" stroke="midnightblue" d="M869.81,-56.45C839.53,-48 791.69,-34.59 741,-20.13"/>
<polygon fill="midnightblue" stroke="midnightblue" points="741.75,-16.7 731.17,-17.32 739.83,-23.43 741.75,-16.7"/>
</g>
<!-- Node15 -->
<g id="node15" class="node">
<title>Node15</title>
<g id="a_node15"><a xlink:title=" ">
<polygon fill="none" stroke="#bfbfbf" points="544.5,-0.5 544.5,-19.5 590.5,-19.5 590.5,-0.5 544.5,-0.5"/>
<text text-anchor="middle" x="567.5" y="-7.5" font-family="serif" font-size="10.00">utility</text>
</a>
</g>
</g>
<!-- Node5&#45;&gt;Node15 -->
<g id="edge15" class="edge">
<title>Node5&#45;&gt;Node15</title>
<path fill="none" stroke="midnightblue" d="M834.85,-57.41C776.07,-50.09 687.39,-37.8 600.85,-19.84"/>
<polygon fill="midnightblue" stroke="midnightblue" points="601.36,-16.37 590.85,-17.73 599.92,-23.22 601.36,-16.37"/>
</g>
<!-- Node16 -->
<g id="node16" class="node">
<title>Node16</title>
<g id="a_node16"><a xlink:title=" ">
<polygon fill="none" stroke="#bfbfbf" points="394.5,-0.5 394.5,-19.5 442.5,-19.5 442.5,-0.5 394.5,-0.5"/>
<text text-anchor="middle" x="418.5" y="-7.5" font-family="serif" font-size="10.00">vector</text>
</a>
</g>
</g>
<!-- Node5&#45;&gt;Node16 -->
<g id="edge16" class="edge">
<title>Node5&#45;&gt;Node16</title>
<path fill="none" stroke="midnightblue" d="M834.64,-59.76C732.41,-51.4 539.1,-34.66 452.56,-19.85"/>
<polygon fill="midnightblue" stroke="midnightblue" points="453,-16.37 442.54,-18.05 451.77,-23.26 453,-16.37"/>
</g>
<!-- Node17 -->
<g id="node17" class="node">
<title>Node17</title>
<g id="a_node17"><a xlink:title=" ">
<polygon fill="none" stroke="#bfbfbf" points="1190,-0.5 1190,-19.5 1259,-19.5 1259,-0.5 1190,-0.5"/>
<text text-anchor="middle" x="1224.5" y="-7.5" font-family="serif" font-size="10.00">mfem.hpp</text>
</a>
</g>
</g>
<!-- Node5&#45;&gt;Node17 -->
<g id="edge17" class="edge">
<title>Node5&#45;&gt;Node17</title>
<path fill="none" stroke="midnightblue" d="M958.76,-56.5C1013.46,-48.32 1097.83,-35.24 1179.81,-20.25"/>
<polygon fill="midnightblue" stroke="midnightblue" points="1180.59,-23.66 1189.79,-18.41 1179.33,-16.78 1180.59,-23.66"/>
</g>
<!-- Node18&#45;&gt;Node3 -->
<g id="edge25" class="edge">
<title>Node18&#45;&gt;Node3</title>
<path fill="none" stroke="midnightblue" d="M829.77,-120.01C681.86,-117.32 350.25,-107.76 310.5,-76 296.83,-65.08 292.28,-45.01 290.88,-30.05"/>
<polygon fill="midnightblue" stroke="midnightblue" points="294.36,-29.64 290.32,-19.85 287.37,-30.02 294.36,-29.64"/>
</g>
<!-- Node18&#45;&gt;Node5 -->
<g id="edge27" class="edge">
<title>Node18&#45;&gt;Node5</title>
<path fill="none" stroke="midnightblue" d="M900.5,-112.08C900.5,-105.01 900.5,-94.86 900.5,-85.99"/>
<polygon fill="midnightblue" stroke="midnightblue" points="904,-85.75 900.5,-75.75 897,-85.75 904,-85.75"/>
</g>
<!-- Node18&#45;&gt;Node6 -->
<g id="edge20" class="edge">
<title>Node18&#45;&gt;Node6</title>
<path fill="none" stroke="midnightblue" d="M921.72,-112.42C941.24,-104.17 970.67,-90.79 994.5,-76 1018.6,-61.04 1043.94,-40.37 1060.19,-26.39"/>
<polygon fill="midnightblue" stroke="midnightblue" points="1062.56,-28.96 1067.8,-19.75 1057.96,-23.69 1062.56,-28.96"/>
</g>
<!-- Node18&#45;&gt;Node9 -->
<g id="edge21" class="edge">
<title>Node18&#45;&gt;Node9</title>
<path fill="none" stroke="midnightblue" d="M926.57,-112.42C951.53,-103.97 990.06,-90.28 1022.5,-76 1058.85,-59.99 1099.45,-38.33 1124.49,-24.51"/>
<polygon fill="midnightblue" stroke="midnightblue" points="1126.24,-27.54 1133.28,-19.63 1122.84,-21.42 1126.24,-27.54"/>
</g>
<!-- Node18&#45;&gt;Node11 -->
<g id="edge23" class="edge">
<title>Node18&#45;&gt;Node11</title>
<path fill="none" stroke="midnightblue" d="M923.61,-112.43C940.28,-105.13 962.11,-93.09 975.5,-76 985.96,-62.65 990.97,-43.82 993.37,-29.87"/>
<polygon fill="midnightblue" stroke="midnightblue" points="996.84,-30.3 994.77,-19.91 989.91,-29.32 996.84,-30.3"/>
</g>
<!-- Node18&#45;&gt;Node12 -->
<g id="edge24" class="edge">
<title>Node18&#45;&gt;Node12</title>
<path fill="none" stroke="midnightblue" d="M886.58,-112.46C861.03,-96.88 807.44,-64.63 787.5,-56 752.29,-40.76 710.29,-28.51 680.05,-20.67"/>
<polygon fill="midnightblue" stroke="midnightblue" points="680.82,-17.25 670.27,-18.18 679.09,-24.04 680.82,-17.25"/>
</g>
<!-- Node18&#45;&gt;Node15 -->
<g id="edge26" class="edge">
<title>Node18&#45;&gt;Node15</title>
<path fill="none" stroke="midnightblue" d="M850.28,-112.43C812.04,-105.07 758.5,-92.95 713.5,-76 695.64,-69.27 692.77,-64.12 675.5,-56 650.16,-44.08 620.78,-31.95 599.07,-23.29"/>
<polygon fill="midnightblue" stroke="midnightblue" points="600.26,-19.99 589.68,-19.57 597.69,-26.5 600.26,-19.99"/>
</g>
<!-- Node18&#45;&gt;Node17 -->
<g id="edge28" class="edge">
<title>Node18&#45;&gt;Node17</title>
<path fill="none" stroke="midnightblue" d="M971.14,-118.17C1047.61,-113.77 1163.25,-102.79 1197.5,-76 1211.77,-64.84 1218.56,-44.82 1221.76,-29.93"/>
<polygon fill="midnightblue" stroke="midnightblue" points="1225.26,-30.24 1223.56,-19.78 1218.37,-29.01 1225.26,-30.24"/>
</g>
<!-- Node19 -->
<g id="node19" class="node">
<title>Node19</title>
<g id="a_node19"><a xlink:title=" ">
<polygon fill="none" stroke="#bfbfbf" points="1098.5,-56.5 1098.5,-75.5 1188.5,-75.5 1188.5,-56.5 1098.5,-56.5"/>
<text text-anchor="middle" x="1143.5" y="-63.5" font-family="serif" font-size="10.00">sys/resource.h</text>
</a>
</g>
</g>
<!-- Node18&#45;&gt;Node19 -->
<g id="edge19" class="edge">
<title>Node18&#45;&gt;Node19</title>
<path fill="none" stroke="midnightblue" d="M939,-112.44C981.31,-103.04 1049.32,-87.93 1095.17,-77.74"/>
<polygon fill="midnightblue" stroke="midnightblue" points="1096.17,-81.1 1105.18,-75.52 1094.65,-74.27 1096.17,-81.1"/>
</g>
<!-- Node20 -->
<g id="node20" class="node">
<title>Node20</title>
<g id="a_node20"><a xlink:title=" ">
<polygon fill="none" stroke="#bfbfbf" points="722.5,-56.5 722.5,-75.5 778.5,-75.5 778.5,-56.5 722.5,-56.5"/>
<text text-anchor="middle" x="750.5" y="-63.5" font-family="serif" font-size="10.00">fstream</text>
</a>
</g>
</g>
<!-- Node18&#45;&gt;Node20 -->
<g id="edge22" class="edge">
<title>Node18&#45;&gt;Node20</title>
<path fill="none" stroke="midnightblue" d="M876.73,-112.44C851.61,-103.4 811.79,-89.06 783.6,-78.92"/>
<polygon fill="midnightblue" stroke="midnightblue" points="784.75,-75.61 774.16,-75.52 782.38,-82.2 784.75,-75.61"/>
</g>
<!-- Node21&#45;&gt;Node3 -->
<g id="edge34" class="edge">
<title>Node21&#45;&gt;Node3</title>
<path fill="none" stroke="midnightblue" d="M531.5,-56.49C478.81,-48.84 400.99,-36.57 324.08,-19.94"/>
<polygon fill="midnightblue" stroke="midnightblue" points="324.74,-16.5 314.22,-17.78 323.24,-23.33 324.74,-16.5"/>
</g>
<!-- Node21&#45;&gt;Node7 -->
<g id="edge30" class="edge">
<title>Node21&#45;&gt;Node7</title>
<path fill="none" stroke="midnightblue" d="M577.43,-56.32C561.54,-47.74 536.99,-34.49 518.54,-24.52"/>
<polygon fill="midnightblue" stroke="midnightblue" points="519.99,-21.33 509.53,-19.65 516.66,-27.49 519.99,-21.33"/>
</g>
<!-- Node21&#45;&gt;Node11 -->
<g id="edge31" class="edge">
<title>Node21&#45;&gt;Node11</title>
<path fill="none" stroke="midnightblue" d="M666.64,-57.6C737.09,-50.07 846.87,-37.29 951.2,-20.1"/>
<polygon fill="midnightblue" stroke="midnightblue" points="951.99,-23.52 961.28,-18.43 950.84,-16.61 951.99,-23.52"/>
</g>
<!-- Node21&#45;&gt;Node12 -->
<g id="edge32" class="edge">
<title>Node21&#45;&gt;Node12</title>
<path fill="none" stroke="midnightblue" d="M601.1,-56.08C607.73,-48.3 617.52,-36.8 625.56,-27.37"/>
<polygon fill="midnightblue" stroke="midnightblue" points="628.23,-29.63 632.05,-19.75 622.9,-25.09 628.23,-29.63"/>
</g>
<!-- Node21&#45;&gt;Node14 -->
<g id="edge35" class="edge">
<title>Node21&#45;&gt;Node14</title>
<path fill="none" stroke="midnightblue" d="M611.88,-56.44C630.72,-47.68 660.23,-33.94 681.88,-23.86"/>
<polygon fill="midnightblue" stroke="midnightblue" points="683.62,-26.91 691.21,-19.52 680.66,-20.56 683.62,-26.91"/>
</g>
<!-- Node21&#45;&gt;Node15 -->
<g id="edge36" class="edge">
<title>Node21&#45;&gt;Node15</title>
<path fill="none" stroke="midnightblue" d="M589.21,-56.08C585.65,-48.69 580.48,-37.95 576.08,-28.81"/>
<polygon fill="midnightblue" stroke="midnightblue" points="579.21,-27.24 571.71,-19.75 572.9,-30.28 579.21,-27.24"/>
</g>
<!-- Node21&#45;&gt;Node16 -->
<g id="edge38" class="edge">
<title>Node21&#45;&gt;Node16</title>
<path fill="none" stroke="midnightblue" d="M565.77,-56.44C535.03,-46.96 485.42,-31.65 452.4,-21.46"/>
<polygon fill="midnightblue" stroke="midnightblue" points="453.31,-18.08 442.72,-18.47 451.24,-24.77 453.31,-18.08"/>
</g>
<!-- Node22 -->
<g id="node22" class="node">
<title>Node22</title>
<g id="a_node22"><a xlink:title=" ">
<polygon fill="none" stroke="#bfbfbf" points="332.5,-0.5 332.5,-19.5 376.5,-19.5 376.5,-0.5 332.5,-0.5"/>
<text text-anchor="middle" x="354.5" y="-7.5" font-family="serif" font-size="10.00">limits</text>
</a>
</g>
</g>
<!-- Node21&#45;&gt;Node22 -->
<g id="edge33" class="edge">
<title>Node21&#45;&gt;Node22</title>
<path fill="none" stroke="midnightblue" d="M549.87,-56.48C509.79,-48.45 448.53,-35.66 386.72,-20.18"/>
<polygon fill="midnightblue" stroke="midnightblue" points="387.35,-16.73 376.8,-17.68 385.64,-23.52 387.35,-16.73"/>
</g>
<!-- Node23 -->
<g id="node23" class="node">
<title>Node23</title>
<g id="a_node23"><a xlink:title=" ">
<polygon fill="none" stroke="#bfbfbf" points="186,-0.5 186,-19.5 239,-19.5 239,-0.5 186,-0.5"/>
<text text-anchor="middle" x="212.5" y="-7.5" font-family="serif" font-size="10.00">variant</text>
</a>
</g>
</g>
<!-- Node21&#45;&gt;Node23 -->
<g id="edge37" class="edge">
<title>Node21&#45;&gt;Node23</title>
<path fill="none" stroke="midnightblue" d="M520.45,-56.46C452.46,-48.21 348.39,-34.82 258.5,-20 255.47,-19.5 252.33,-18.95 249.18,-18.38"/>
<polygon fill="midnightblue" stroke="midnightblue" points="249.68,-14.91 239.21,-16.51 248.39,-21.79 249.68,-14.91"/>
</g>
<!-- Node24&#45;&gt;Node3 -->
<g id="edge43" class="edge">
<title>Node24&#45;&gt;Node3</title>
<path fill="none" stroke="midnightblue" d="M391.49,-56.44C371.91,-47.64 341.19,-33.81 318.77,-23.72"/>
<polygon fill="midnightblue" stroke="midnightblue" points="319.98,-20.43 309.43,-19.52 317.11,-26.81 319.98,-20.43"/>
</g>
<!-- Node24&#45;&gt;Node7 -->
<g id="edge40" class="edge">
<title>Node24&#45;&gt;Node7</title>
<path fill="none" stroke="midnightblue" d="M423.84,-56.32C436.66,-47.98 456.28,-35.21 471.44,-25.35"/>
<polygon fill="midnightblue" stroke="midnightblue" points="473.72,-28.04 480.2,-19.65 469.91,-22.17 473.72,-28.04"/>
</g>
<!-- Node24&#45;&gt;Node12 -->
<g id="edge41" class="edge">
<title>Node24&#45;&gt;Node12</title>
<path fill="none" stroke="midnightblue" d="M446.79,-56.44C488.23,-46.67 555.88,-30.72 599.01,-20.55"/>
<polygon fill="midnightblue" stroke="midnightblue" points="599.95,-23.92 608.88,-18.22 598.34,-17.11 599.95,-23.92"/>
</g>
<!-- Node24&#45;&gt;Node15 -->
<g id="edge44" class="edge">
<title>Node24&#45;&gt;Node15</title>
<path fill="none" stroke="midnightblue" d="M435.38,-56.44C462.26,-47.2 505.2,-32.43 534.79,-22.25"/>
<polygon fill="midnightblue" stroke="midnightblue" points="535.96,-25.55 544.27,-18.99 533.68,-18.93 535.96,-25.55"/>
</g>
<!-- Node24&#45;&gt;Node16 -->
<g id="edge45" class="edge">
<title>Node24&#45;&gt;Node16</title>
<path fill="none" stroke="midnightblue" d="M411.82,-56.08C412.88,-48.93 414.41,-38.64 415.73,-29.69"/>
<polygon fill="midnightblue" stroke="midnightblue" points="419.2,-30.16 417.2,-19.75 412.28,-29.13 419.2,-30.16"/>
</g>
<!-- Node24&#45;&gt;Node22 -->
<g id="edge42" class="edge">
<title>Node24&#45;&gt;Node22</title>
<path fill="none" stroke="midnightblue" d="M401.5,-56.32C393.31,-48.42 380.99,-36.55 371.03,-26.94"/>
<polygon fill="midnightblue" stroke="midnightblue" points="373.29,-24.26 363.66,-19.83 368.43,-29.29 373.29,-24.26"/>
</g>
<!-- Node25&#45;&gt;Node23 -->
<g id="edge49" class="edge">
<title>Node25&#45;&gt;Node23</title>
<path fill="none" stroke="midnightblue" d="M125.21,-56.32C141.81,-47.7 167.5,-34.36 186.72,-24.39"/>
<polygon fill="midnightblue" stroke="midnightblue" points="188.57,-27.37 195.83,-19.65 185.34,-21.16 188.57,-27.37"/>
</g>
<!-- Node26 -->
<g id="node26" class="node">
<title>Node26</title>
<g id="a_node26"><a xlink:title=" ">
<polygon fill="none" stroke="#bfbfbf" points="89,-0.5 89,-19.5 148,-19.5 148,-0.5 89,-0.5"/>
<text text-anchor="middle" x="118.5" y="-7.5" font-family="serif" font-size="10.00">memory</text>
</a>
</g>
</g>
<!-- Node25&#45;&gt;Node26 -->
<g id="edge47" class="edge">
<title>Node25&#45;&gt;Node26</title>
<path fill="none" stroke="midnightblue" d="M110.15,-56.08C111.48,-48.93 113.38,-38.64 115.04,-29.69"/>
<polygon fill="midnightblue" stroke="midnightblue" points="118.5,-30.22 116.88,-19.75 111.62,-28.95 118.5,-30.22"/>
</g>
<!-- Node27 -->
<g id="node27" class="node">
<title>Node27</title>
<g id="a_node27"><a xlink:title=" ">
<polygon fill="none" stroke="#bfbfbf" points="0,-0.5 0,-19.5 71,-19.5 71,-0.5 0,-0.5"/>
<text text-anchor="middle" x="35.5" y="-7.5" font-family="serif" font-size="10.00">type_traits</text>
</a>
</g>
</g>
<!-- Node25&#45;&gt;Node27 -->
<g id="edge48" class="edge">
<title>Node25&#45;&gt;Node27</title>
<path fill="none" stroke="midnightblue" d="M96.77,-56.32C85.66,-48.11 68.76,-35.6 55.52,-25.81"/>
<polygon fill="midnightblue" stroke="midnightblue" points="57.56,-22.97 47.44,-19.83 53.4,-28.59 57.56,-22.97"/>
</g>
</g>
</svg>
