<?xml version="1.0" encoding="UTF-8" standalone="no"?>
<!DOCTYPE svg PUBLIC "-//W3C//DTD SVG 1.1//EN"
 "http://www.w3.org/Graphics/SVG/1.1/DTD/svg11.dtd">
<!-- Generated by graphviz version 2.43.0 (0)
 -->
<!-- Title: UtilsForDebug.cpp Pages: 1 -->
<svg width="938pt" height="196pt"
 viewBox="0.00 0.00 937.50 196.00" xmlns="http://www.w3.org/2000/svg" xmlns:xlink="http://www.w3.org/1999/xlink">
<g id="graph0" class="graph" transform="scale(1 1) rotate(0) translate(4 192)">
<title>UtilsForDebug.cpp</title>
<!-- Node1 -->
<g id="node1" class="node">
<title>Node1</title>
<g id="a_node1"><a xlink:title="Usefull methods for debug.">
<polygon fill="#bfbfbf" stroke="black" points="301.5,-168.5 301.5,-187.5 414.5,-187.5 414.5,-168.5 301.5,-168.5"/>
<text text-anchor="middle" x="358" y="-175.5" font-family="serif" font-size="10.00">UtilsForDebug.cpp</text>
</a>
</g>
</g>
<!-- Node2 -->
<g id="node2" class="node">
<title>Node2</title>
<g id="a_node2"><a xlink:href="UtilsForDebug_8hpp.html" target="_top" xlink:title="Usefull methods for debug.">
<polygon fill="none" stroke="black" points="337.5,-112.5 337.5,-131.5 478.5,-131.5 478.5,-112.5 337.5,-112.5"/>
<text text-anchor="middle" x="408" y="-119.5" font-family="serif" font-size="10.00">Utils/UtilsForDebug.hpp</text>
</a>
</g>
</g>
<!-- Node1&#45;&gt;Node2 -->
<g id="edge1" class="edge">
<title>Node1&#45;&gt;Node2</title>
<path fill="none" stroke="midnightblue" d="M366.26,-168.08C373.46,-160.3 384.11,-148.8 392.85,-139.37"/>
<polygon fill="midnightblue" stroke="midnightblue" points="395.67,-141.47 399.9,-131.75 390.53,-136.71 395.67,-141.47"/>
</g>
<!-- Node3 -->
<g id="node3" class="node">
<title>Node3</title>
<g id="a_node3"><a xlink:title=" ">
<polygon fill="none" stroke="#bfbfbf" points="176,-56.5 176,-75.5 266,-75.5 266,-56.5 176,-56.5"/>
<text text-anchor="middle" x="221" y="-63.5" font-family="serif" font-size="10.00">sys/resource.h</text>
</a>
</g>
</g>
<!-- Node1&#45;&gt;Node3 -->
<g id="edge25" class="edge">
<title>Node1&#45;&gt;Node3</title>
<path fill="none" stroke="midnightblue" d="M347.25,-168.37C324.04,-149.73 268.99,-105.53 239.85,-82.13"/>
<polygon fill="midnightblue" stroke="midnightblue" points="241.69,-79.12 231.7,-75.59 237.31,-84.58 241.69,-79.12"/>
</g>
<!-- Node4 -->
<g id="node4" class="node">
<title>Node4</title>
<g id="a_node4"><a xlink:title=" ">
<polygon fill="none" stroke="#bfbfbf" points="870.5,-0.5 870.5,-19.5 929.5,-19.5 929.5,-0.5 870.5,-0.5"/>
<text text-anchor="middle" x="900" y="-7.5" font-family="serif" font-size="10.00">unistd.h</text>
</a>
</g>
</g>
<!-- Node1&#45;&gt;Node4 -->
<g id="edge26" class="edge">
<title>Node1&#45;&gt;Node4</title>
<path fill="none" stroke="midnightblue" d="M414.61,-173.66C504.5,-167.77 675.49,-154.05 732,-132 795.09,-107.39 856.31,-53.47 884.24,-26.71"/>
<polygon fill="midnightblue" stroke="midnightblue" points="886.79,-29.11 891.51,-19.63 881.9,-24.1 886.79,-29.11"/>
</g>
<!-- Node5 -->
<g id="node5" class="node">
<title>Node5</title>
<g id="a_node5"><a xlink:title=" ">
<polygon fill="none" stroke="#bfbfbf" points="718.5,-0.5 718.5,-19.5 765.5,-19.5 765.5,-0.5 718.5,-0.5"/>
<text text-anchor="middle" x="742" y="-7.5" font-family="serif" font-size="10.00">cstdio</text>
</a>
</g>
</g>
<!-- Node1&#45;&gt;Node5 -->
<g id="edge27" class="edge">
<title>Node1&#45;&gt;Node5</title>
<path fill="none" stroke="midnightblue" d="M414.81,-171.49C516.43,-160.32 722.65,-131.26 765,-76 775.87,-61.82 766.24,-42.07 756.32,-28.07"/>
<polygon fill="midnightblue" stroke="midnightblue" points="758.85,-25.61 749.98,-19.82 753.3,-29.88 758.85,-25.61"/>
</g>
<!-- Node6 -->
<g id="node6" class="node">
<title>Node6</title>
<g id="a_node6"><a xlink:title=" ">
<polygon fill="none" stroke="#bfbfbf" points="700,-56.5 700,-75.5 756,-75.5 756,-56.5 700,-56.5"/>
<text text-anchor="middle" x="728" y="-63.5" font-family="serif" font-size="10.00">fstream</text>
</a>
</g>
</g>
<!-- Node1&#45;&gt;Node6 -->
<g id="edge28" class="edge">
<title>Node1&#45;&gt;Node6</title>
<path fill="none" stroke="midnightblue" d="M386.73,-168.46C452.81,-148.81 615.62,-100.41 689.92,-78.32"/>
<polygon fill="midnightblue" stroke="midnightblue" points="691.21,-81.59 699.8,-75.38 689.22,-74.88 691.21,-81.59"/>
</g>
<!-- Node7 -->
<g id="node7" class="node">
<title>Node7</title>
<g id="a_node7"><a xlink:title=" ">
<polygon fill="none" stroke="#bfbfbf" points="0,-0.5 0,-19.5 68,-19.5 68,-0.5 0,-0.5"/>
<text text-anchor="middle" x="34" y="-7.5" font-family="serif" font-size="10.00">functional</text>
</a>
</g>
</g>
<!-- Node1&#45;&gt;Node7 -->
<g id="edge29" class="edge">
<title>Node1&#45;&gt;Node7</title>
<path fill="none" stroke="midnightblue" d="M301.12,-173.86C257.17,-169.35 196.09,-158.43 149,-132 102.43,-105.86 63.32,-54.66 45.06,-28.02"/>
<polygon fill="midnightblue" stroke="midnightblue" points="47.96,-26.06 39.49,-19.7 42.14,-29.96 47.96,-26.06"/>
</g>
<!-- Node8 -->
<g id="node8" class="node">
<title>Node8</title>
<g id="a_node8"><a xlink:title=" ">
<polygon fill="none" stroke="#bfbfbf" points="86.5,-0.5 86.5,-19.5 147.5,-19.5 147.5,-0.5 86.5,-0.5"/>
<text text-anchor="middle" x="117" y="-7.5" font-family="serif" font-size="10.00">iostream</text>
</a>
</g>
</g>
<!-- Node1&#45;&gt;Node8 -->
<g id="edge30" class="edge">
<title>Node1&#45;&gt;Node8</title>
<path fill="none" stroke="midnightblue" d="M301.18,-176.55C260.18,-173.38 205.78,-162.94 169,-132 137.46,-105.47 124.56,-56.31 119.68,-29.54"/>
<polygon fill="midnightblue" stroke="midnightblue" points="123.12,-28.88 118.05,-19.57 116.21,-30.01 123.12,-28.88"/>
</g>
<!-- Node9 -->
<g id="node9" class="node">
<title>Node9</title>
<g id="a_node9"><a xlink:title=" ">
<polygon fill="none" stroke="#bfbfbf" points="165.5,-0.5 165.5,-19.5 212.5,-19.5 212.5,-0.5 165.5,-0.5"/>
<text text-anchor="middle" x="189" y="-7.5" font-family="serif" font-size="10.00">string</text>
</a>
</g>
</g>
<!-- Node1&#45;&gt;Node9 -->
<g id="edge31" class="edge">
<title>Node1&#45;&gt;Node9</title>
<path fill="none" stroke="midnightblue" d="M301.48,-171.45C268.16,-165.85 226.66,-154.6 196,-132 165.91,-109.82 149.45,-91.86 160,-56 163.01,-45.76 169.15,-35.66 175.01,-27.63"/>
<polygon fill="midnightblue" stroke="midnightblue" points="177.93,-29.58 181.33,-19.54 172.41,-25.27 177.93,-29.58"/>
</g>
<!-- Node10 -->
<g id="node10" class="node">
<title>Node10</title>
<g id="a_node10"><a xlink:title=" ">
<polygon fill="none" stroke="#bfbfbf" points="231,-0.5 231,-19.5 277,-19.5 277,-0.5 231,-0.5"/>
<text text-anchor="middle" x="254" y="-7.5" font-family="serif" font-size="10.00">utility</text>
</a>
</g>
</g>
<!-- Node1&#45;&gt;Node10 -->
<g id="edge32" class="edge">
<title>Node1&#45;&gt;Node10</title>
<path fill="none" stroke="midnightblue" d="M316.93,-168.43C271.18,-156.45 199.42,-129.82 167,-76 151.2,-49.77 190.47,-30.66 221.29,-20.19"/>
<polygon fill="midnightblue" stroke="midnightblue" points="222.47,-23.49 230.92,-17.1 220.33,-16.82 222.47,-23.49"/>
</g>
<!-- Node18 -->
<g id="node18" class="node">
<title>Node18</title>
<g id="a_node18"><a xlink:title=" ">
<polygon fill="none" stroke="#bfbfbf" points="783.5,-0.5 783.5,-19.5 852.5,-19.5 852.5,-0.5 783.5,-0.5"/>
<text text-anchor="middle" x="818" y="-7.5" font-family="serif" font-size="10.00">mfem.hpp</text>
</a>
</g>
</g>
<!-- Node1&#45;&gt;Node18 -->
<g id="edge33" class="edge">
<title>Node1&#45;&gt;Node18</title>
<path fill="none" stroke="midnightblue" d="M414.76,-176.78C483.03,-174.86 600.15,-166.25 694,-132 737.55,-116.11 750.23,-109.76 782,-76 794.82,-62.37 804.67,-43.32 810.8,-29.37"/>
<polygon fill="midnightblue" stroke="midnightblue" points="814.14,-30.44 814.75,-19.87 807.68,-27.76 814.14,-30.44"/>
</g>
<!-- Node2&#45;&gt;Node3 -->
<g id="edge2" class="edge">
<title>Node2&#45;&gt;Node3</title>
<path fill="none" stroke="midnightblue" d="M378.37,-112.44C346.5,-103.24 295.67,-88.56 260.44,-78.39"/>
<polygon fill="midnightblue" stroke="midnightblue" points="261.07,-74.93 250.49,-75.52 259.13,-81.65 261.07,-74.93"/>
</g>
<!-- Node2&#45;&gt;Node4 -->
<g id="edge3" class="edge">
<title>Node2&#45;&gt;Node4</title>
<path fill="none" stroke="midnightblue" d="M478.54,-112.75C527.24,-105.87 593.04,-94.2 649,-76 668.66,-69.6 671.42,-62.63 691,-56 761.15,-32.24 783.75,-36.29 860.1,-20.12"/>
<polygon fill="midnightblue" stroke="midnightblue" points="861.17,-23.47 870.2,-17.93 859.69,-16.63 861.17,-23.47"/>
</g>
<!-- Node2&#45;&gt;Node5 -->
<g id="edge4" class="edge">
<title>Node2&#45;&gt;Node5</title>
<path fill="none" stroke="midnightblue" d="M446.92,-112.5C481.33,-104.53 532.65,-91.54 576,-76 596.22,-68.75 600.13,-64.17 620,-56 649.73,-43.78 684.13,-31.23 708.81,-22.5"/>
<polygon fill="midnightblue" stroke="midnightblue" points="710.14,-25.74 718.42,-19.12 707.82,-19.14 710.14,-25.74"/>
</g>
<!-- Node2&#45;&gt;Node6 -->
<g id="edge5" class="edge">
<title>Node2&#45;&gt;Node6</title>
<path fill="none" stroke="midnightblue" d="M465.92,-112.5C522.26,-104.02 610.2,-90.25 686,-76 687.24,-75.77 688.49,-75.53 689.76,-75.28"/>
<polygon fill="midnightblue" stroke="midnightblue" points="690.46,-78.71 699.57,-73.3 689.08,-71.85 690.46,-78.71"/>
</g>
<!-- Node2&#45;&gt;Node7 -->
<g id="edge6" class="edge">
<title>Node2&#45;&gt;Node7</title>
<path fill="none" stroke="midnightblue" d="M386.96,-112.42C366.48,-103.85 334.63,-89.99 308,-76 292.82,-68.02 291.04,-62.08 275,-56 194.31,-25.41 166.72,-36.31 78.18,-20.13"/>
<polygon fill="midnightblue" stroke="midnightblue" points="78.73,-16.68 68.25,-18.25 77.43,-23.55 78.73,-16.68"/>
</g>
<!-- Node2&#45;&gt;Node8 -->
<g id="edge7" class="edge">
<title>Node2&#45;&gt;Node8</title>
<path fill="none" stroke="midnightblue" d="M397.6,-112.47C380.16,-98.59 343.42,-71.14 308,-56 304.5,-54.5 212.65,-33.13 157.62,-20.39"/>
<polygon fill="midnightblue" stroke="midnightblue" points="158.33,-16.96 147.8,-18.11 156.75,-23.78 158.33,-16.96"/>
</g>
<!-- Node2&#45;&gt;Node9 -->
<g id="edge8" class="edge">
<title>Node2&#45;&gt;Node9</title>
<path fill="none" stroke="midnightblue" d="M402.2,-112.45C392.3,-98.52 370.82,-71.01 346,-56 343.29,-54.36 267.64,-33.02 222.36,-20.33"/>
<polygon fill="midnightblue" stroke="midnightblue" points="223.22,-16.93 212.65,-17.61 221.33,-23.67 223.22,-16.93"/>
</g>
<!-- Node2&#45;&gt;Node10 -->
<g id="edge9" class="edge">
<title>Node2&#45;&gt;Node10</title>
<path fill="none" stroke="midnightblue" d="M407.12,-112.14C405.29,-98.29 399.81,-71.49 384,-56 376.83,-48.97 322.97,-31.76 286.86,-20.77"/>
<polygon fill="midnightblue" stroke="midnightblue" points="287.79,-17.39 277.2,-17.85 285.76,-24.1 287.79,-17.39"/>
</g>
<!-- Node11 -->
<g id="node11" class="node">
<title>Node11</title>
<g id="a_node11"><a xlink:href="UtilsForData_8hpp.html" target="_top" xlink:title="Usefull methods for data.">
<polygon fill="none" stroke="black" points="436.5,-56.5 436.5,-75.5 567.5,-75.5 567.5,-56.5 436.5,-56.5"/>
<text text-anchor="middle" x="502" y="-63.5" font-family="serif" font-size="10.00">Utils/UtilsForData.hpp</text>
</a>
</g>
</g>
<!-- Node2&#45;&gt;Node11 -->
<g id="edge10" class="edge">
<title>Node2&#45;&gt;Node11</title>
<path fill="none" stroke="midnightblue" d="M423.1,-112.32C437.9,-103.82 460.69,-90.73 477.98,-80.8"/>
<polygon fill="midnightblue" stroke="midnightblue" points="480.01,-83.67 486.93,-75.65 476.52,-77.6 480.01,-83.67"/>
</g>
<!-- Node2&#45;&gt;Node18 -->
<g id="edge24" class="edge">
<title>Node2&#45;&gt;Node18</title>
<path fill="none" stroke="midnightblue" d="M459.45,-112.5C501.14,-104.93 561.11,-92.5 612,-76 633.21,-69.12 637,-63.48 658,-56 696.26,-42.37 740.82,-30.13 773.19,-21.86"/>
<polygon fill="midnightblue" stroke="midnightblue" points="774.4,-25.16 783.24,-19.32 772.69,-18.38 774.4,-25.16"/>
</g>
<!-- Node11&#45;&gt;Node4 -->
<g id="edge11" class="edge">
<title>Node11&#45;&gt;Node4</title>
<path fill="none" stroke="midnightblue" d="M567.81,-58.79C637.85,-51.72 752.09,-38.87 860.15,-19.98"/>
<polygon fill="midnightblue" stroke="midnightblue" points="861.02,-23.38 870.25,-18.19 859.8,-16.49 861.02,-23.38"/>
</g>
<!-- Node11&#45;&gt;Node5 -->
<g id="edge14" class="edge">
<title>Node11&#45;&gt;Node5</title>
<path fill="none" stroke="midnightblue" d="M544.57,-56.42C584.39,-48.25 645.75,-35.27 708.21,-20.09"/>
<polygon fill="midnightblue" stroke="midnightblue" points="709.36,-23.41 718.25,-17.64 707.7,-16.61 709.36,-23.41"/>
</g>
<!-- Node11&#45;&gt;Node7 -->
<g id="edge16" class="edge">
<title>Node11&#45;&gt;Node7</title>
<path fill="none" stroke="midnightblue" d="M436.21,-60.1C354.49,-53.56 210.67,-40.53 78.14,-20.04"/>
<polygon fill="midnightblue" stroke="midnightblue" points="78.63,-16.57 68.21,-18.48 77.55,-23.49 78.63,-16.57"/>
</g>
<!-- Node11&#45;&gt;Node8 -->
<g id="edge17" class="edge">
<title>Node11&#45;&gt;Node8</title>
<path fill="none" stroke="midnightblue" d="M436.34,-58.39C368.71,-51.14 260.08,-38.3 157.5,-20.13"/>
<polygon fill="midnightblue" stroke="midnightblue" points="158.06,-16.68 147.6,-18.36 156.82,-23.57 158.06,-16.68"/>
</g>
<!-- Node11&#45;&gt;Node9 -->
<g id="edge19" class="edge">
<title>Node11&#45;&gt;Node9</title>
<path fill="none" stroke="midnightblue" d="M436.29,-56.46C381.64,-48.9 301.67,-36.77 222.83,-19.98"/>
<polygon fill="midnightblue" stroke="midnightblue" points="223.23,-16.48 212.72,-17.79 221.76,-23.32 223.23,-16.48"/>
</g>
<!-- Node11&#45;&gt;Node10 -->
<g id="edge21" class="edge">
<title>Node11&#45;&gt;Node10</title>
<path fill="none" stroke="midnightblue" d="M456.28,-56.42C414.57,-48.38 351,-35.61 286.9,-20.09"/>
<polygon fill="midnightblue" stroke="midnightblue" points="287.57,-16.65 277.02,-17.68 285.91,-23.45 287.57,-16.65"/>
</g>
<!-- Node12 -->
<g id="node12" class="node">
<title>Node12</title>
<g id="a_node12"><a xlink:title=" ">
<polygon fill="none" stroke="#bfbfbf" points="295,-0.5 295,-19.5 361,-19.5 361,-0.5 295,-0.5"/>
<text text-anchor="middle" x="328" y="-7.5" font-family="serif" font-size="10.00">algorithm</text>
</a>
</g>
</g>
<!-- Node11&#45;&gt;Node12 -->
<g id="edge12" class="edge">
<title>Node11&#45;&gt;Node12</title>
<path fill="none" stroke="midnightblue" d="M474.43,-56.44C444.9,-47.28 397.88,-32.69 365.12,-22.52"/>
<polygon fill="midnightblue" stroke="midnightblue" points="366.03,-19.14 355.44,-19.52 363.96,-25.82 366.03,-19.14"/>
</g>
<!-- Node13 -->
<g id="node13" class="node">
<title>Node13</title>
<g id="a_node13"><a xlink:title=" ">
<polygon fill="none" stroke="#bfbfbf" points="379,-0.5 379,-19.5 429,-19.5 429,-0.5 379,-0.5"/>
<text text-anchor="middle" x="404" y="-7.5" font-family="serif" font-size="10.00">cctype</text>
</a>
</g>
</g>
<!-- Node11&#45;&gt;Node13 -->
<g id="edge13" class="edge">
<title>Node11&#45;&gt;Node13</title>
<path fill="none" stroke="midnightblue" d="M486.25,-56.32C470.68,-47.74 446.62,-34.49 428.54,-24.52"/>
<polygon fill="midnightblue" stroke="midnightblue" points="430.15,-21.42 419.71,-19.65 426.78,-27.55 430.15,-21.42"/>
</g>
<!-- Node14 -->
<g id="node14" class="node">
<title>Node14</title>
<g id="a_node14"><a xlink:title=" ">
<polygon fill="none" stroke="#bfbfbf" points="447,-0.5 447,-19.5 515,-19.5 515,-0.5 447,-0.5"/>
<text text-anchor="middle" x="481" y="-7.5" font-family="serif" font-size="10.00">filesystem</text>
</a>
</g>
</g>
<!-- Node11&#45;&gt;Node14 -->
<g id="edge15" class="edge">
<title>Node11&#45;&gt;Node14</title>
<path fill="none" stroke="midnightblue" d="M498.53,-56.08C495.69,-48.77 491.57,-38.18 488.04,-29.1"/>
<polygon fill="midnightblue" stroke="midnightblue" points="491.29,-27.8 484.4,-19.75 484.77,-30.34 491.29,-27.8"/>
</g>
<!-- Node15 -->
<g id="node15" class="node">
<title>Node15</title>
<g id="a_node15"><a xlink:title=" ">
<polygon fill="none" stroke="#bfbfbf" points="533.5,-0.5 533.5,-19.5 572.5,-19.5 572.5,-0.5 533.5,-0.5"/>
<text text-anchor="middle" x="553" y="-7.5" font-family="serif" font-size="10.00">map</text>
</a>
</g>
</g>
<!-- Node11&#45;&gt;Node15 -->
<g id="edge18" class="edge">
<title>Node11&#45;&gt;Node15</title>
<path fill="none" stroke="midnightblue" d="M510.42,-56.08C517.85,-48.22 528.85,-36.57 537.81,-27.08"/>
<polygon fill="midnightblue" stroke="midnightblue" points="540.41,-29.42 544.74,-19.75 535.32,-24.62 540.41,-29.42"/>
</g>
<!-- Node16 -->
<g id="node16" class="node">
<title>Node16</title>
<g id="a_node16"><a xlink:title=" ">
<polygon fill="none" stroke="#bfbfbf" points="590.5,-0.5 590.5,-19.5 633.5,-19.5 633.5,-0.5 590.5,-0.5"/>
<text text-anchor="middle" x="612" y="-7.5" font-family="serif" font-size="10.00">tuple</text>
</a>
</g>
</g>
<!-- Node11&#45;&gt;Node16 -->
<g id="edge20" class="edge">
<title>Node11&#45;&gt;Node16</title>
<path fill="none" stroke="midnightblue" d="M519.67,-56.32C537.39,-47.62 564.9,-34.12 585.29,-24.11"/>
<polygon fill="midnightblue" stroke="midnightblue" points="586.94,-27.2 594.37,-19.65 583.85,-20.92 586.94,-27.2"/>
</g>
<!-- Node17 -->
<g id="node17" class="node">
<title>Node17</title>
<g id="a_node17"><a xlink:title=" ">
<polygon fill="none" stroke="#bfbfbf" points="652,-0.5 652,-19.5 700,-19.5 700,-0.5 652,-0.5"/>
<text text-anchor="middle" x="676" y="-7.5" font-family="serif" font-size="10.00">vector</text>
</a>
</g>
</g>
<!-- Node11&#45;&gt;Node17 -->
<g id="edge22" class="edge">
<title>Node11&#45;&gt;Node17</title>
<path fill="none" stroke="midnightblue" d="M529.57,-56.44C560.14,-46.96 609.46,-31.65 642.3,-21.46"/>
<polygon fill="midnightblue" stroke="midnightblue" points="643.41,-24.78 651.92,-18.47 641.33,-18.09 643.41,-24.78"/>
</g>
<!-- Node11&#45;&gt;Node18 -->
<g id="edge23" class="edge">
<title>Node11&#45;&gt;Node18</title>
<path fill="none" stroke="midnightblue" d="M557.33,-56.47C610.21,-48.18 692.43,-34.93 773.55,-20.02"/>
<polygon fill="midnightblue" stroke="midnightblue" points="774.24,-23.46 783.44,-18.2 772.97,-16.57 774.24,-23.46"/>
</g>
</g>
</svg>
