<?xml version="1.0" encoding="UTF-8" standalone="no"?>
<!DOCTYPE svg PUBLIC "-//W3C//DTD SVG 1.1//EN"
 "http://www.w3.org/Graphics/SVG/1.1/DTD/svg11.dtd">
<!-- Generated by graphviz version 2.43.0 (0)
 -->
<!-- Title: UtilsForDebug.hpp Pages: 1 -->
<svg width="938pt" height="140pt"
 viewBox="0.00 0.00 938.00 140.00" xmlns="http://www.w3.org/2000/svg" xmlns:xlink="http://www.w3.org/1999/xlink">
<g id="graph0" class="graph" transform="scale(1 1) rotate(0) translate(4 136)">
<title>UtilsForDebug.hpp</title>
<!-- Node1 -->
<g id="node1" class="node">
<title>Node1</title>
<g id="a_node1"><a xlink:title="Usefull methods for debug.">
<polygon fill="#bfbfbf" stroke="black" points="235,-112.5 235,-131.5 350,-131.5 350,-112.5 235,-112.5"/>
<text text-anchor="middle" x="292.5" y="-119.5" font-family="serif" font-size="10.00">UtilsForDebug.hpp</text>
</a>
</g>
</g>
<!-- Node2 -->
<g id="node2" class="node">
<title>Node2</title>
<g id="a_node2"><a xlink:title=" ">
<polygon fill="none" stroke="#bfbfbf" points="41.5,-56.5 41.5,-75.5 131.5,-75.5 131.5,-56.5 41.5,-56.5"/>
<text text-anchor="middle" x="86.5" y="-63.5" font-family="serif" font-size="10.00">sys/resource.h</text>
</a>
</g>
</g>
<!-- Node1&#45;&gt;Node2 -->
<g id="edge1" class="edge">
<title>Node1&#45;&gt;Node2</title>
<path fill="none" stroke="midnightblue" d="M259.86,-112.44C224.45,-103.16 167.79,-88.31 128.95,-78.13"/>
<polygon fill="midnightblue" stroke="midnightblue" points="129.55,-74.67 118.99,-75.52 127.77,-81.44 129.55,-74.67"/>
</g>
<!-- Node3 -->
<g id="node3" class="node">
<title>Node3</title>
<g id="a_node3"><a xlink:title=" ">
<polygon fill="none" stroke="#bfbfbf" points="0,-0.5 0,-19.5 59,-19.5 59,-0.5 0,-0.5"/>
<text text-anchor="middle" x="29.5" y="-7.5" font-family="serif" font-size="10.00">unistd.h</text>
</a>
</g>
</g>
<!-- Node1&#45;&gt;Node3 -->
<g id="edge2" class="edge">
<title>Node1&#45;&gt;Node3</title>
<path fill="none" stroke="midnightblue" d="M266.93,-112.43C242.91,-104.08 206.17,-90.56 175.5,-76 159.31,-68.32 156.62,-63.83 140.5,-56 114.92,-43.58 84.99,-31.58 62.66,-23.11"/>
<polygon fill="midnightblue" stroke="midnightblue" points="63.88,-19.83 53.29,-19.58 61.42,-26.38 63.88,-19.83"/>
</g>
<!-- Node4 -->
<g id="node4" class="node">
<title>Node4</title>
<g id="a_node4"><a xlink:title=" ">
<polygon fill="none" stroke="#bfbfbf" points="77,-0.5 77,-19.5 124,-19.5 124,-0.5 77,-0.5"/>
<text text-anchor="middle" x="100.5" y="-7.5" font-family="serif" font-size="10.00">cstdio</text>
</a>
</g>
</g>
<!-- Node1&#45;&gt;Node4 -->
<g id="edge3" class="edge">
<title>Node1&#45;&gt;Node4</title>
<path fill="none" stroke="midnightblue" d="M277.43,-112.37C244.21,-93.33 164.41,-47.62 124.33,-24.65"/>
<polygon fill="midnightblue" stroke="midnightblue" points="125.91,-21.53 115.5,-19.59 122.43,-27.6 125.91,-21.53"/>
</g>
<!-- Node5 -->
<g id="node5" class="node">
<title>Node5</title>
<g id="a_node5"><a xlink:title=" ">
<polygon fill="none" stroke="#bfbfbf" points="565.5,-56.5 565.5,-75.5 621.5,-75.5 621.5,-56.5 565.5,-56.5"/>
<text text-anchor="middle" x="593.5" y="-63.5" font-family="serif" font-size="10.00">fstream</text>
</a>
</g>
</g>
<!-- Node1&#45;&gt;Node5 -->
<g id="edge4" class="edge">
<title>Node1&#45;&gt;Node5</title>
<path fill="none" stroke="midnightblue" d="M345.19,-112.46C397.6,-103.83 480.26,-89.82 551.5,-76 552.74,-75.76 553.99,-75.51 555.26,-75.26"/>
<polygon fill="midnightblue" stroke="midnightblue" points="555.97,-78.69 565.06,-73.25 554.57,-71.83 555.97,-78.69"/>
</g>
<!-- Node6 -->
<g id="node6" class="node">
<title>Node6</title>
<g id="a_node6"><a xlink:title=" ">
<polygon fill="none" stroke="#bfbfbf" points="142.5,-0.5 142.5,-19.5 210.5,-19.5 210.5,-0.5 142.5,-0.5"/>
<text text-anchor="middle" x="176.5" y="-7.5" font-family="serif" font-size="10.00">functional</text>
</a>
</g>
</g>
<!-- Node1&#45;&gt;Node6 -->
<g id="edge5" class="edge">
<title>Node1&#45;&gt;Node6</title>
<path fill="none" stroke="midnightblue" d="M283.4,-112.37C263.92,-93.89 217.94,-50.29 193.1,-26.74"/>
<polygon fill="midnightblue" stroke="midnightblue" points="195.22,-23.93 185.56,-19.59 190.41,-29.01 195.22,-23.93"/>
</g>
<!-- Node7 -->
<g id="node7" class="node">
<title>Node7</title>
<g id="a_node7"><a xlink:title=" ">
<polygon fill="none" stroke="#bfbfbf" points="229,-0.5 229,-19.5 290,-19.5 290,-0.5 229,-0.5"/>
<text text-anchor="middle" x="259.5" y="-7.5" font-family="serif" font-size="10.00">iostream</text>
</a>
</g>
</g>
<!-- Node1&#45;&gt;Node7 -->
<g id="edge6" class="edge">
<title>Node1&#45;&gt;Node7</title>
<path fill="none" stroke="midnightblue" d="M289.91,-112.37C284.56,-94.54 272.19,-53.3 264.98,-29.27"/>
<polygon fill="midnightblue" stroke="midnightblue" points="268.3,-28.16 262.08,-19.59 261.6,-30.18 268.3,-28.16"/>
</g>
<!-- Node8 -->
<g id="node8" class="node">
<title>Node8</title>
<g id="a_node8"><a xlink:title=" ">
<polygon fill="none" stroke="#bfbfbf" points="308,-0.5 308,-19.5 355,-19.5 355,-0.5 308,-0.5"/>
<text text-anchor="middle" x="331.5" y="-7.5" font-family="serif" font-size="10.00">string</text>
</a>
</g>
</g>
<!-- Node1&#45;&gt;Node8 -->
<g id="edge7" class="edge">
<title>Node1&#45;&gt;Node8</title>
<path fill="none" stroke="midnightblue" d="M295.56,-112.37C301.88,-94.54 316.5,-53.3 325.02,-29.27"/>
<polygon fill="midnightblue" stroke="midnightblue" points="328.41,-30.19 328.45,-19.59 321.81,-27.85 328.41,-30.19"/>
</g>
<!-- Node9 -->
<g id="node9" class="node">
<title>Node9</title>
<g id="a_node9"><a xlink:title=" ">
<polygon fill="none" stroke="#bfbfbf" points="373.5,-0.5 373.5,-19.5 419.5,-19.5 419.5,-0.5 373.5,-0.5"/>
<text text-anchor="middle" x="396.5" y="-7.5" font-family="serif" font-size="10.00">utility</text>
</a>
</g>
</g>
<!-- Node1&#45;&gt;Node9 -->
<g id="edge8" class="edge">
<title>Node1&#45;&gt;Node9</title>
<path fill="none" stroke="midnightblue" d="M300.66,-112.37C318.05,-93.97 358.99,-50.67 381.32,-27.05"/>
<polygon fill="midnightblue" stroke="midnightblue" points="384.05,-29.26 388.38,-19.59 378.96,-24.45 384.05,-29.26"/>
</g>
<!-- Node10 -->
<g id="node10" class="node">
<title>Node10</title>
<g id="a_node10"><a xlink:href="UtilsForData_8hpp.html" target="_top" xlink:title="Usefull methods for data.">
<polygon fill="none" stroke="black" points="378,-56.5 378,-75.5 509,-75.5 509,-56.5 378,-56.5"/>
<text text-anchor="middle" x="443.5" y="-63.5" font-family="serif" font-size="10.00">Utils/UtilsForData.hpp</text>
</a>
</g>
</g>
<!-- Node1&#45;&gt;Node10 -->
<g id="edge9" class="edge">
<title>Node1&#45;&gt;Node10</title>
<path fill="none" stroke="midnightblue" d="M316.43,-112.44C341.72,-103.4 381.8,-89.06 410.18,-78.92"/>
<polygon fill="midnightblue" stroke="midnightblue" points="411.45,-82.18 419.69,-75.52 409.09,-75.59 411.45,-82.18"/>
</g>
<!-- Node17 -->
<g id="node17" class="node">
<title>Node17</title>
<g id="a_node17"><a xlink:title=" ">
<polygon fill="none" stroke="#bfbfbf" points="861,-0.5 861,-19.5 930,-19.5 930,-0.5 861,-0.5"/>
<text text-anchor="middle" x="895.5" y="-7.5" font-family="serif" font-size="10.00">mfem.hpp</text>
</a>
</g>
</g>
<!-- Node1&#45;&gt;Node17 -->
<g id="edge23" class="edge">
<title>Node1&#45;&gt;Node17</title>
<path fill="none" stroke="midnightblue" d="M350.38,-114.15C396.78,-107.56 463.07,-95.64 518.5,-76 536.49,-69.63 538.28,-61.69 556.5,-56 679.49,-17.56 719.2,-40.09 850.9,-19.93"/>
<polygon fill="midnightblue" stroke="midnightblue" points="851.63,-23.36 860.96,-18.34 850.54,-16.45 851.63,-23.36"/>
</g>
<!-- Node10&#45;&gt;Node3 -->
<g id="edge10" class="edge">
<title>Node10&#45;&gt;Node3</title>
<path fill="none" stroke="midnightblue" d="M377.96,-59.43C304.8,-52.7 182.75,-39.95 69.21,-20.15"/>
<polygon fill="midnightblue" stroke="midnightblue" points="69.76,-16.69 59.3,-18.4 68.54,-23.58 69.76,-16.69"/>
</g>
<!-- Node10&#45;&gt;Node4 -->
<g id="edge13" class="edge">
<title>Node10&#45;&gt;Node4</title>
<path fill="none" stroke="midnightblue" d="M377.78,-57.82C316.96,-50.64 223.91,-38.3 134.02,-19.88"/>
<polygon fill="midnightblue" stroke="midnightblue" points="134.71,-16.45 124.21,-17.84 133.29,-23.3 134.71,-16.45"/>
</g>
<!-- Node10&#45;&gt;Node6 -->
<g id="edge15" class="edge">
<title>Node10&#45;&gt;Node6</title>
<path fill="none" stroke="midnightblue" d="M400.54,-56.48C357.54,-47.92 289.23,-34.27 220.85,-20.26"/>
<polygon fill="midnightblue" stroke="midnightblue" points="221.26,-16.78 210.76,-18.2 219.86,-23.63 221.26,-16.78"/>
</g>
<!-- Node10&#45;&gt;Node7 -->
<g id="edge16" class="edge">
<title>Node10&#45;&gt;Node7</title>
<path fill="none" stroke="midnightblue" d="M414.34,-56.44C382.99,-47.24 332.97,-32.56 298.3,-22.39"/>
<polygon fill="midnightblue" stroke="midnightblue" points="299.1,-18.97 288.52,-19.52 297.13,-25.69 299.1,-18.97"/>
</g>
<!-- Node10&#45;&gt;Node8 -->
<g id="edge18" class="edge">
<title>Node10&#45;&gt;Node8</title>
<path fill="none" stroke="midnightblue" d="M425.51,-56.32C407.46,-47.62 379.45,-34.12 358.7,-24.11"/>
<polygon fill="midnightblue" stroke="midnightblue" points="359.98,-20.84 349.45,-19.65 356.94,-27.15 359.98,-20.84"/>
</g>
<!-- Node10&#45;&gt;Node9 -->
<g id="edge20" class="edge">
<title>Node10&#45;&gt;Node9</title>
<path fill="none" stroke="midnightblue" d="M435.74,-56.08C428.96,-48.3 418.96,-36.8 410.74,-27.37"/>
<polygon fill="midnightblue" stroke="midnightblue" points="413.32,-25 404.12,-19.75 408.04,-29.59 413.32,-25"/>
</g>
<!-- Node11 -->
<g id="node11" class="node">
<title>Node11</title>
<g id="a_node11"><a xlink:title=" ">
<polygon fill="none" stroke="#bfbfbf" points="622.5,-0.5 622.5,-19.5 688.5,-19.5 688.5,-0.5 622.5,-0.5"/>
<text text-anchor="middle" x="655.5" y="-7.5" font-family="serif" font-size="10.00">algorithm</text>
</a>
</g>
</g>
<!-- Node10&#45;&gt;Node11 -->
<g id="edge11" class="edge">
<title>Node10&#45;&gt;Node11</title>
<path fill="none" stroke="midnightblue" d="M477.09,-56.44C513.79,-47.09 572.68,-32.09 612.68,-21.91"/>
<polygon fill="midnightblue" stroke="midnightblue" points="613.59,-25.29 622.41,-19.43 611.86,-18.5 613.59,-25.29"/>
</g>
<!-- Node12 -->
<g id="node12" class="node">
<title>Node12</title>
<g id="a_node12"><a xlink:title=" ">
<polygon fill="none" stroke="#bfbfbf" points="706.5,-0.5 706.5,-19.5 756.5,-19.5 756.5,-0.5 706.5,-0.5"/>
<text text-anchor="middle" x="731.5" y="-7.5" font-family="serif" font-size="10.00">cctype</text>
</a>
</g>
</g>
<!-- Node10&#45;&gt;Node12 -->
<g id="edge12" class="edge">
<title>Node10&#45;&gt;Node12</title>
<path fill="none" stroke="midnightblue" d="M499.26,-56.49C548.68,-48.64 622.99,-36.09 696.42,-20.09"/>
<polygon fill="midnightblue" stroke="midnightblue" points="697.29,-23.49 706.31,-17.92 695.79,-16.65 697.29,-23.49"/>
</g>
<!-- Node13 -->
<g id="node13" class="node">
<title>Node13</title>
<g id="a_node13"><a xlink:title=" ">
<polygon fill="none" stroke="#bfbfbf" points="774.5,-0.5 774.5,-19.5 842.5,-19.5 842.5,-0.5 774.5,-0.5"/>
<text text-anchor="middle" x="808.5" y="-7.5" font-family="serif" font-size="10.00">filesystem</text>
</a>
</g>
</g>
<!-- Node10&#45;&gt;Node13 -->
<g id="edge14" class="edge">
<title>Node10&#45;&gt;Node13</title>
<path fill="none" stroke="midnightblue" d="M509.07,-57.15C572.05,-49.32 670.1,-36.34 764.29,-20.12"/>
<polygon fill="midnightblue" stroke="midnightblue" points="765.02,-23.54 774.27,-18.38 763.82,-16.64 765.02,-23.54"/>
</g>
<!-- Node14 -->
<g id="node14" class="node">
<title>Node14</title>
<g id="a_node14"><a xlink:title=" ">
<polygon fill="none" stroke="#bfbfbf" points="438,-0.5 438,-19.5 477,-19.5 477,-0.5 438,-0.5"/>
<text text-anchor="middle" x="457.5" y="-7.5" font-family="serif" font-size="10.00">map</text>
</a>
</g>
</g>
<!-- Node10&#45;&gt;Node14 -->
<g id="edge17" class="edge">
<title>Node10&#45;&gt;Node14</title>
<path fill="none" stroke="midnightblue" d="M445.81,-56.08C447.67,-48.93 450.34,-38.64 452.65,-29.69"/>
<polygon fill="midnightblue" stroke="midnightblue" points="456.11,-30.31 455.23,-19.75 449.33,-28.55 456.11,-30.31"/>
</g>
<!-- Node15 -->
<g id="node15" class="node">
<title>Node15</title>
<g id="a_node15"><a xlink:title=" ">
<polygon fill="none" stroke="#bfbfbf" points="495,-0.5 495,-19.5 538,-19.5 538,-0.5 495,-0.5"/>
<text text-anchor="middle" x="516.5" y="-7.5" font-family="serif" font-size="10.00">tuple</text>
</a>
</g>
</g>
<!-- Node10&#45;&gt;Node15 -->
<g id="edge19" class="edge">
<title>Node10&#45;&gt;Node15</title>
<path fill="none" stroke="midnightblue" d="M455.23,-56.32C466.34,-48.11 483.24,-35.6 496.48,-25.81"/>
<polygon fill="midnightblue" stroke="midnightblue" points="498.6,-28.59 504.56,-19.83 494.44,-22.97 498.6,-28.59"/>
</g>
<!-- Node16 -->
<g id="node16" class="node">
<title>Node16</title>
<g id="a_node16"><a xlink:title=" ">
<polygon fill="none" stroke="#bfbfbf" points="556.5,-0.5 556.5,-19.5 604.5,-19.5 604.5,-0.5 556.5,-0.5"/>
<text text-anchor="middle" x="580.5" y="-7.5" font-family="serif" font-size="10.00">vector</text>
</a>
</g>
</g>
<!-- Node10&#45;&gt;Node16 -->
<g id="edge21" class="edge">
<title>Node10&#45;&gt;Node16</title>
<path fill="none" stroke="midnightblue" d="M465.21,-56.44C487.85,-47.52 523.57,-33.44 549.25,-23.32"/>
<polygon fill="midnightblue" stroke="midnightblue" points="550.87,-26.44 558.89,-19.52 548.31,-19.93 550.87,-26.44"/>
</g>
<!-- Node10&#45;&gt;Node17 -->
<g id="edge22" class="edge">
<title>Node10&#45;&gt;Node17</title>
<path fill="none" stroke="midnightblue" d="M509.42,-57.57C514.18,-57.04 518.92,-56.51 523.5,-56 665.98,-40.17 704.88,-42.6 850.74,-19.98"/>
<polygon fill="midnightblue" stroke="midnightblue" points="851.63,-23.38 860.97,-18.38 850.55,-16.47 851.63,-23.38"/>
</g>
</g>
</svg>
