<?xml version="1.0" encoding="UTF-8" standalone="no"?>
<!DOCTYPE svg PUBLIC "-//W3C//DTD SVG 1.1//EN"
 "http://www.w3.org/Graphics/SVG/1.1/DTD/svg11.dtd">
<!-- Generated by graphviz version 2.43.0 (0)
 -->
<!-- Title: verbose_at_least Pages: 1 -->
<svg width="471pt" height="568pt"
 viewBox="0.00 0.00 471.00 568.00" xmlns="http://www.w3.org/2000/svg" xmlns:xlink="http://www.w3.org/1999/xlink">
<g id="graph0" class="graph" transform="scale(1 1) rotate(0) translate(4 564)">
<title>verbose_at_least</title>
<!-- Node1 -->
<g id="node1" class="node">
<title>Node1</title>
<g id="a_node1"><a xlink:title="Check the level of verbosity.">
<polygon fill="#bfbfbf" stroke="black" points="362,-265 362,-284 463,-284 463,-265 362,-265"/>
<text text-anchor="middle" x="412.5" y="-272" font-family="serif" font-size="10.00">verbose_at_least</text>
</a>
</g>
</g>
<!-- Node2 -->
<g id="node2" class="node">
<title>Node2</title>
<g id="a_node2"><a xlink:href="classSolverUMFPACK.html#a83fe21379896c4df62b1df2947767d2e" target="_top" xlink:title="Create a direct solver based of the SolverType and a list of Parameters.">
<polygon fill="none" stroke="black" points="176.5,-529.5 176.5,-559.5 316.5,-559.5 316.5,-529.5 176.5,-529.5"/>
<text text-anchor="start" x="184.5" y="-547.5" font-family="serif" font-size="10.00">SolverUMFPACK::create</text>
<text text-anchor="middle" x="246.5" y="-536.5" font-family="serif" font-size="10.00">_solver</text>
</a>
</g>
</g>
<!-- Node1&#45;&gt;Node2 -->
<g id="edge1" class="edge">
<title>Node1&#45;&gt;Node2</title>
<path fill="none" stroke="midnightblue" d="M410.47,-294.34C406.97,-340.74 391.76,-457.18 326,-520.5 322.41,-523.96 318.33,-526.92 313.97,-529.46"/>
<polygon fill="midnightblue" stroke="midnightblue" points="413.98,-294.33 411.13,-284.13 406.99,-293.88 413.98,-294.33"/>
</g>
<!-- Node4 -->
<g id="node4" class="node">
<title>Node4</title>
<g id="a_node4"><a xlink:href="classPrecondHypreILU.html#a7e7defa37401cea9cac7183a5994b13b" target="_top" xlink:title="Create preconditioner based of the PreconditionerType and a list of Parameters.">
<polygon fill="none" stroke="black" points="173.5,-480.5 173.5,-510.5 319.5,-510.5 319.5,-480.5 173.5,-480.5"/>
<text text-anchor="start" x="181.5" y="-498.5" font-family="serif" font-size="10.00">PrecondHypreILU::create</text>
<text text-anchor="middle" x="246.5" y="-487.5" font-family="serif" font-size="10.00">_solver</text>
</a>
</g>
</g>
<!-- Node1&#45;&gt;Node4 -->
<g id="edge3" class="edge">
<title>Node1&#45;&gt;Node4</title>
<path fill="none" stroke="midnightblue" d="M408.51,-294.36C401.49,-333.94 380.28,-423.02 326,-471.5 322.17,-474.92 317.87,-477.85 313.3,-480.36"/>
<polygon fill="midnightblue" stroke="midnightblue" points="411.98,-294.81 410.16,-284.38 405.07,-293.67 411.98,-294.81"/>
</g>
<!-- Node5 -->
<g id="node5" class="node">
<title>Node5</title>
<g id="a_node5"><a xlink:href="classPrecondHypreBoomerAMG.html#a9274064ab381792bf2f034344d2d621d" target="_top" xlink:title="Create preconditioner based of the PreconditionerType and a list of Parameters.">
<polygon fill="none" stroke="black" points="168,-431.5 168,-461.5 325,-461.5 325,-431.5 168,-431.5"/>
<text text-anchor="start" x="176" y="-449.5" font-family="serif" font-size="10.00">PrecondHypreBoomerAMG</text>
<text text-anchor="middle" x="246.5" y="-438.5" font-family="serif" font-size="10.00">::create_solver</text>
</a>
</g>
</g>
<!-- Node1&#45;&gt;Node5 -->
<g id="edge5" class="edge">
<title>Node1&#45;&gt;Node5</title>
<path fill="none" stroke="midnightblue" d="M405.52,-293.91C394.78,-325.54 369.21,-388.14 326,-422.5 321.65,-425.96 316.8,-428.92 311.71,-431.46"/>
<polygon fill="midnightblue" stroke="midnightblue" points="408.94,-294.7 408.7,-284.11 402.28,-292.53 408.94,-294.7"/>
</g>
<!-- Node6 -->
<g id="node6" class="node">
<title>Node6</title>
<g id="a_node6"><a xlink:href="classSolverHyprePCG.html#af4a480332bac2a5014c3e2a84f3403ba" target="_top" xlink:title="Create a iterative solver based of the SolverType and a list of Parameters.">
<polygon fill="none" stroke="black" points="176,-382.5 176,-412.5 317,-412.5 317,-382.5 176,-382.5"/>
<text text-anchor="start" x="184" y="-400.5" font-family="serif" font-size="10.00">SolverHyprePCG::create</text>
<text text-anchor="middle" x="246.5" y="-389.5" font-family="serif" font-size="10.00">_solver</text>
</a>
</g>
</g>
<!-- Node1&#45;&gt;Node6 -->
<g id="edge7" class="edge">
<title>Node1&#45;&gt;Node6</title>
<path fill="none" stroke="midnightblue" d="M400.37,-292.79C385.91,-315.03 358.63,-352.23 326,-373.5 320.75,-376.92 314.98,-379.88 309.03,-382.43"/>
<polygon fill="midnightblue" stroke="midnightblue" points="403.37,-294.58 405.76,-284.26 397.46,-290.84 403.37,-294.58"/>
</g>
<!-- Node7 -->
<g id="node7" class="node">
<title>Node7</title>
<g id="a_node7"><a xlink:href="classSolverHypreGMRES.html#a94293cedbdd903adcd5866ce3554ef10" target="_top" xlink:title="Create a iterative solver based of the SolverType and a list of Parameters.">
<polygon fill="none" stroke="black" points="167,-333.5 167,-363.5 326,-363.5 326,-333.5 167,-333.5"/>
<text text-anchor="start" x="175" y="-351.5" font-family="serif" font-size="10.00">SolverHypreGMRES::create</text>
<text text-anchor="middle" x="246.5" y="-340.5" font-family="serif" font-size="10.00">_solver</text>
</a>
</g>
</g>
<!-- Node1&#45;&gt;Node7 -->
<g id="edge9" class="edge">
<title>Node1&#45;&gt;Node7</title>
<path fill="none" stroke="midnightblue" d="M388.95,-289.64C372.14,-300.44 348.33,-314.72 326,-324.5 318.56,-327.76 310.54,-330.76 302.57,-333.45"/>
<polygon fill="midnightblue" stroke="midnightblue" points="391.06,-292.45 397.52,-284.05 387.23,-286.59 391.06,-292.45"/>
</g>
<!-- Node8 -->
<g id="node8" class="node">
<title>Node8</title>
<g id="a_node8"><a xlink:href="classSolverHypreFGMRES.html#a54588ca870f9439ec8f4bccd7d8615a8" target="_top" xlink:title="Create a iterative solver based of the SolverType and a list of Parameters.">
<polygon fill="none" stroke="black" points="179.5,-284.5 179.5,-314.5 313.5,-314.5 313.5,-284.5 179.5,-284.5"/>
<text text-anchor="start" x="187.5" y="-302.5" font-family="serif" font-size="10.00">SolverHypreFGMRES::</text>
<text text-anchor="middle" x="246.5" y="-291.5" font-family="serif" font-size="10.00">create_solver</text>
</a>
</g>
</g>
<!-- Node1&#45;&gt;Node8 -->
<g id="edge11" class="edge">
<title>Node1&#45;&gt;Node8</title>
<path fill="none" stroke="midnightblue" d="M351.66,-283.62C339.3,-285.51 326.21,-287.5 313.64,-289.42"/>
<polygon fill="midnightblue" stroke="midnightblue" points="352.49,-287.04 361.85,-282.07 351.44,-280.12 352.49,-287.04"/>
</g>
<!-- Node9 -->
<g id="node9" class="node">
<title>Node9</title>
<g id="a_node9"><a xlink:href="classSolverBICGSTAB.html#a088138ab2b4e2295192b98abd8e4eefc" target="_top" xlink:title="Create a iterative solver based of the SolverType and a list of Parameters.">
<polygon fill="none" stroke="black" points="176,-235.5 176,-265.5 317,-265.5 317,-235.5 176,-235.5"/>
<text text-anchor="start" x="184" y="-253.5" font-family="serif" font-size="10.00">SolverBICGSTAB::create</text>
<text text-anchor="middle" x="246.5" y="-242.5" font-family="serif" font-size="10.00">_solver</text>
</a>
</g>
</g>
<!-- Node1&#45;&gt;Node9 -->
<g id="edge13" class="edge">
<title>Node1&#45;&gt;Node9</title>
<path fill="none" stroke="midnightblue" d="M351.75,-265.76C340.54,-264.12 328.73,-262.39 317.25,-260.71"/>
<polygon fill="midnightblue" stroke="midnightblue" points="351.45,-269.25 361.85,-267.23 352.46,-262.32 351.45,-269.25"/>
</g>
<!-- Node10 -->
<g id="node10" class="node">
<title>Node10</title>
<g id="a_node10"><a xlink:href="classSolverMINRES.html#ace4d6324acb77a33354204e692a2463f" target="_top" xlink:title=" ">
<polygon fill="none" stroke="black" points="181,-186.5 181,-216.5 312,-216.5 312,-186.5 181,-186.5"/>
<text text-anchor="start" x="189" y="-204.5" font-family="serif" font-size="10.00">SolverMINRES::create</text>
<text text-anchor="middle" x="246.5" y="-193.5" font-family="serif" font-size="10.00">_solver</text>
</a>
</g>
</g>
<!-- Node1&#45;&gt;Node10 -->
<g id="edge15" class="edge">
<title>Node1&#45;&gt;Node10</title>
<path fill="none" stroke="midnightblue" d="M387.93,-259.54C371.12,-249.31 347.74,-235.95 326,-226.5 317.74,-222.91 308.78,-219.57 299.99,-216.58"/>
<polygon fill="midnightblue" stroke="midnightblue" points="386.19,-262.58 396.54,-264.86 389.87,-256.63 386.19,-262.58"/>
</g>
<!-- Node11 -->
<g id="node11" class="node">
<title>Node11</title>
<g id="a_node11"><a xlink:href="classSolverCG.html#a22bb7e38585bc24764881aa0f5aa200c" target="_top" xlink:title=" ">
<polygon fill="none" stroke="black" points="177.5,-148 177.5,-167 315.5,-167 315.5,-148 177.5,-148"/>
<text text-anchor="middle" x="246.5" y="-155" font-family="serif" font-size="10.00">SolverCG::create_solver</text>
</a>
</g>
</g>
<!-- Node1&#45;&gt;Node11 -->
<g id="edge17" class="edge">
<title>Node1&#45;&gt;Node11</title>
<path fill="none" stroke="midnightblue" d="M400.44,-256.34C386.05,-234.29 358.84,-197.59 326,-177.5 318.92,-173.17 310.94,-169.77 302.84,-167.11"/>
<polygon fill="midnightblue" stroke="midnightblue" points="397.49,-258.22 405.8,-264.8 403.4,-254.48 397.49,-258.22"/>
</g>
<!-- Node12 -->
<g id="node12" class="node">
<title>Node12</title>
<g id="a_node12"><a xlink:href="classSolverGMRES.html#aea5f0ae2948f5e66d2ef5d508ce61f68" target="_top" xlink:title=" ">
<polygon fill="none" stroke="black" points="183,-98.5 183,-128.5 310,-128.5 310,-98.5 183,-98.5"/>
<text text-anchor="start" x="191" y="-116.5" font-family="serif" font-size="10.00">SolverGMRES::create</text>
<text text-anchor="middle" x="246.5" y="-105.5" font-family="serif" font-size="10.00">_solver</text>
</a>
</g>
</g>
<!-- Node1&#45;&gt;Node12 -->
<g id="edge19" class="edge">
<title>Node1&#45;&gt;Node12</title>
<path fill="none" stroke="midnightblue" d="M404.54,-255.48C392.84,-226.11 366.46,-169.83 326,-138.5 321.02,-134.65 315.44,-131.38 309.6,-128.61"/>
<polygon fill="midnightblue" stroke="midnightblue" points="401.34,-256.9 408.19,-264.99 407.88,-254.4 401.34,-256.9"/>
</g>
<!-- Node13 -->
<g id="node13" class="node">
<title>Node13</title>
<g id="a_node13"><a xlink:href="classSolverNewton.html#ac34b1de15feb99f5539ab9007cf37800" target="_top" xlink:title="Create non linear solver based of the NLSolverType and a list of Parameters.">
<polygon fill="none" stroke="black" points="183.5,-49.5 183.5,-79.5 309.5,-79.5 309.5,-49.5 183.5,-49.5"/>
<text text-anchor="start" x="191.5" y="-67.5" font-family="serif" font-size="10.00">SolverNewton::create</text>
<text text-anchor="middle" x="246.5" y="-56.5" font-family="serif" font-size="10.00">_solver</text>
</a>
</g>
</g>
<!-- Node1&#45;&gt;Node13 -->
<g id="edge21" class="edge">
<title>Node1&#45;&gt;Node13</title>
<path fill="none" stroke="midnightblue" d="M407.82,-254.63C399.8,-216.92 377.21,-134.69 326,-89.5 321.17,-85.24 315.62,-81.71 309.74,-78.77"/>
<polygon fill="midnightblue" stroke="midnightblue" points="404.46,-255.7 409.86,-264.82 411.33,-254.32 404.46,-255.7"/>
</g>
<!-- Node14 -->
<g id="node14" class="node">
<title>Node14</title>
<g id="a_node14"><a xlink:href="classSolverLBFGS.html#a507c2bb2c75c19d0304b42dc8f9159de" target="_top" xlink:title="Create non linear solver based of the NLSolverType and a list of Parameters.">
<polygon fill="none" stroke="black" points="185.5,-0.5 185.5,-30.5 307.5,-30.5 307.5,-0.5 185.5,-0.5"/>
<text text-anchor="start" x="193.5" y="-18.5" font-family="serif" font-size="10.00">SolverLBFGS::create</text>
<text text-anchor="middle" x="246.5" y="-7.5" font-family="serif" font-size="10.00">_solver</text>
</a>
</g>
</g>
<!-- Node1&#45;&gt;Node14 -->
<g id="edge23" class="edge">
<title>Node1&#45;&gt;Node14</title>
<path fill="none" stroke="midnightblue" d="M410.02,-254.77C405.59,-210.11 388.61,-100.53 326,-40.5 320.73,-35.45 314.45,-31.42 307.77,-28.21"/>
<polygon fill="midnightblue" stroke="midnightblue" points="406.54,-255.22 410.91,-264.88 413.52,-254.61 406.54,-255.22"/>
</g>
<!-- Node3 -->
<g id="node3" class="node">
<title>Node3</title>
<g id="a_node3"><a xlink:href="classSlothSolver.html#aa9c78d816c02f2d4ab70af64cb3f7791" target="_top" xlink:title="Create the linear solver depending on SolverType.">
<polygon fill="none" stroke="black" points="0,-265 0,-284 131,-284 131,-265 0,-265"/>
<text text-anchor="middle" x="65.5" y="-272" font-family="serif" font-size="10.00">SlothSolver::get_value</text>
</a>
</g>
</g>
<!-- Node2&#45;&gt;Node3 -->
<g id="edge2" class="edge">
<title>Node2&#45;&gt;Node3</title>
<path fill="none" stroke="midnightblue" d="M171.07,-523.89C169.66,-522.82 168.3,-521.69 167,-520.5 92.38,-452.39 71.88,-320.78 67.51,-284.16"/>
<polygon fill="midnightblue" stroke="midnightblue" points="169.33,-526.93 179.62,-529.45 173.14,-521.07 169.33,-526.93"/>
</g>
<!-- Node4&#45;&gt;Node3 -->
<g id="edge4" class="edge">
<title>Node4&#45;&gt;Node3</title>
<path fill="none" stroke="midnightblue" d="M171.87,-475.21C170.18,-474.04 168.56,-472.8 167,-471.5 104.04,-418.7 76.11,-316.51 68.64,-284.4"/>
<polygon fill="midnightblue" stroke="midnightblue" points="170.33,-478.36 180.7,-480.5 173.92,-472.36 170.33,-478.36"/>
</g>
<!-- Node5&#45;&gt;Node3 -->
<g id="edge6" class="edge">
<title>Node5&#45;&gt;Node3</title>
<path fill="none" stroke="midnightblue" d="M173.44,-426.77C171.21,-425.44 169.06,-424.02 167,-422.5 115.01,-384.15 81.16,-310.42 70.29,-284.11"/>
<polygon fill="midnightblue" stroke="midnightblue" points="171.87,-429.9 182.35,-431.49 175.15,-423.72 171.87,-429.9"/>
</g>
<!-- Node6&#45;&gt;Node3 -->
<g id="edge8" class="edge">
<title>Node6&#45;&gt;Node3</title>
<path fill="none" stroke="midnightblue" d="M176.27,-378.45C173.08,-376.92 169.97,-375.27 167,-373.5 125.76,-348.93 88.76,-303.95 73.68,-284.22"/>
<polygon fill="midnightblue" stroke="midnightblue" points="174.91,-381.67 185.47,-382.48 177.72,-375.26 174.91,-381.67"/>
</g>
<!-- Node7&#45;&gt;Node3 -->
<g id="edge10" class="edge">
<title>Node7&#45;&gt;Node3</title>
<path fill="none" stroke="midnightblue" d="M182.02,-330.08C176.9,-328.3 171.84,-326.43 167,-324.5 136.77,-312.45 103.21,-294.85 83.53,-284.06"/>
<polygon fill="midnightblue" stroke="midnightblue" points="181.29,-333.53 191.88,-333.4 183.52,-326.89 181.29,-333.53"/>
</g>
<!-- Node8&#45;&gt;Node3 -->
<g id="edge12" class="edge">
<title>Node8&#45;&gt;Node3</title>
<path fill="none" stroke="midnightblue" d="M169.28,-288.85C156.59,-287.08 143.54,-285.26 131.18,-283.53"/>
<polygon fill="midnightblue" stroke="midnightblue" points="168.97,-292.35 179.36,-290.26 169.94,-285.41 168.97,-292.35"/>
</g>
<!-- Node9&#45;&gt;Node3 -->
<g id="edge14" class="edge">
<title>Node9&#45;&gt;Node3</title>
<path fill="none" stroke="midnightblue" d="M165.68,-261.2C154.09,-262.76 142.29,-264.34 131.06,-265.84"/>
<polygon fill="midnightblue" stroke="midnightblue" points="166.34,-264.65 175.78,-259.85 165.4,-257.71 166.34,-264.65"/>
</g>
<!-- Node10&#45;&gt;Node3 -->
<g id="edge16" class="edge">
<title>Node10&#45;&gt;Node3</title>
<path fill="none" stroke="midnightblue" d="M184.91,-219.87C178.82,-222 172.76,-224.22 167,-226.5 137.52,-238.17 104.56,-254.59 84.69,-264.88"/>
<polygon fill="midnightblue" stroke="midnightblue" points="186.12,-223.16 194.47,-216.63 183.87,-216.53 186.12,-223.16"/>
</g>
<!-- Node11&#45;&gt;Node3 -->
<g id="edge18" class="edge">
<title>Node11&#45;&gt;Node3</title>
<path fill="none" stroke="midnightblue" d="M182.39,-170.43C177.04,-172.46 171.84,-174.8 167,-177.5 125.49,-200.64 88.63,-245.21 73.63,-264.83"/>
<polygon fill="midnightblue" stroke="midnightblue" points="183.79,-173.65 192.12,-167.11 181.52,-167.03 183.79,-173.65"/>
</g>
<!-- Node12&#45;&gt;Node3 -->
<g id="edge20" class="edge">
<title>Node12&#45;&gt;Node3</title>
<path fill="none" stroke="midnightblue" d="M175.43,-133.17C172.5,-134.81 169.67,-136.58 167,-138.5 117.83,-173.71 82.72,-240.32 70.88,-264.99"/>
<polygon fill="midnightblue" stroke="midnightblue" points="177.12,-136.24 184.49,-128.64 173.98,-129.98 177.12,-136.24"/>
</g>
<!-- Node13&#45;&gt;Node3 -->
<g id="edge22" class="edge">
<title>Node13&#45;&gt;Node3</title>
<path fill="none" stroke="midnightblue" d="M174.21,-84.27C171.69,-85.88 169.27,-87.62 167,-89.5 106.99,-139.1 77.27,-234.23 68.97,-264.79"/>
<polygon fill="midnightblue" stroke="midnightblue" points="176.11,-87.22 183.14,-79.29 172.7,-81.11 176.11,-87.22"/>
</g>
<!-- Node14&#45;&gt;Node3 -->
<g id="edge24" class="edge">
<title>Node14&#45;&gt;Node3</title>
<path fill="none" stroke="midnightblue" d="M176.63,-33.29C173.2,-35.43 169.95,-37.82 167,-40.5 95.61,-105.26 72.93,-229.41 67.77,-264.84"/>
<polygon fill="midnightblue" stroke="midnightblue" points="178.37,-36.33 185.5,-28.49 175.04,-30.17 178.37,-36.33"/>
</g>
</g>
</svg>
