<?xml version="1.0" encoding="UTF-8" standalone="no"?>
<!DOCTYPE svg PUBLIC "-//W3C//DTD SVG 1.1//EN"
 "http://www.w3.org/Graphics/SVG/1.1/DTD/svg11.dtd">
<!-- Generated by graphviz version 2.43.0 (0)
 -->
<!-- Title: Variables.hpp Pages: 1 -->
<svg width="853pt" height="308pt"
 viewBox="0.00 0.00 852.93 308.00" xmlns="http://www.w3.org/2000/svg" xmlns:xlink="http://www.w3.org/1999/xlink">
<g id="graph0" class="graph" transform="scale(1 1) rotate(0) translate(4 304)">
<title>Variables.hpp</title>
<!-- Node1 -->
<g id="node1" class="node">
<title>Node1</title>
<g id="a_node1"><a xlink:title="Variables class used to build and manage variables.">
<polygon fill="#bfbfbf" stroke="black" points="212,-280.5 212,-299.5 298,-299.5 298,-280.5 212,-280.5"/>
<text text-anchor="middle" x="255" y="-287.5" font-family="serif" font-size="10.00">Variables.hpp</text>
</a>
</g>
</g>
<!-- Node2 -->
<g id="node2" class="node">
<title>Node2</title>
<g id="a_node2"><a xlink:href="OperatorBase_8hpp.html" target="_top" xlink:title="Base class for building Steady and TimeDependent PhaseFieldOperators.">
<polygon fill="none" stroke="black" points="117,-224.5 117,-243.5 227,-243.5 227,-224.5 117,-224.5"/>
<text text-anchor="middle" x="172" y="-231.5" font-family="serif" font-size="10.00">OperatorBase.hpp</text>
</a>
</g>
</g>
<!-- Node1&#45;&gt;Node2 -->
<g id="edge1" class="edge">
<title>Node1&#45;&gt;Node2</title>
<path fill="none" stroke="midnightblue" d="M232.9,-274.62C217.74,-264.76 198.12,-251.99 185.3,-243.65"/>
<polygon fill="midnightblue" stroke="midnightblue" points="231.37,-277.8 241.66,-280.32 235.19,-271.94 231.37,-277.8"/>
</g>
<!-- Node3 -->
<g id="node3" class="node">
<title>Node3</title>
<g id="a_node3"><a xlink:href="SteadyOperator_8hpp.html" target="_top" xlink:title="Steady Operator.">
<polygon fill="none" stroke="black" points="152,-168.5 152,-187.5 272,-187.5 272,-168.5 152,-168.5"/>
<text text-anchor="middle" x="212" y="-175.5" font-family="serif" font-size="10.00">SteadyOperator.hpp</text>
</a>
</g>
</g>
<!-- Node1&#45;&gt;Node3 -->
<g id="edge7" class="edge">
<title>Node1&#45;&gt;Node3</title>
<path fill="none" stroke="midnightblue" d="M250.7,-270.62C247.36,-257.41 242.24,-239.31 236,-224 230.65,-210.88 222.61,-196.58 217.34,-187.7"/>
<polygon fill="midnightblue" stroke="midnightblue" points="247.32,-271.51 253.08,-280.4 254.12,-269.85 247.32,-271.51"/>
</g>
<!-- Node5 -->
<g id="node5" class="node">
<title>Node5</title>
<g id="a_node5"><a xlink:href="sloth_8hpp.html" target="_top" xlink:title="List of SLOTH header files.">
<polygon fill="none" stroke="black" points="523.5,-0.5 523.5,-19.5 588.5,-19.5 588.5,-0.5 523.5,-0.5"/>
<text text-anchor="middle" x="556" y="-7.5" font-family="serif" font-size="10.00">sloth.hpp</text>
</a>
</g>
</g>
<!-- Node1&#45;&gt;Node5 -->
<g id="edge25" class="edge">
<title>Node1&#45;&gt;Node5</title>
<path fill="none" stroke="midnightblue" d="M266.83,-271.96C280.16,-251.06 300,-214.07 300,-179 300,-179 300,-179 300,-121 300,-24.86 454.3,-11.7 523.32,-10.62"/>
<polygon fill="midnightblue" stroke="midnightblue" points="263.87,-270.1 261.26,-280.37 269.7,-273.97 263.87,-270.1"/>
</g>
<!-- Node6 -->
<g id="node6" class="node">
<title>Node6</title>
<g id="a_node6"><a xlink:href="TransientOperator_8hpp.html" target="_top" xlink:title="Transient Operator.">
<polygon fill="none" stroke="black" points="0,-168.5 0,-187.5 134,-187.5 134,-168.5 0,-168.5"/>
<text text-anchor="middle" x="67" y="-175.5" font-family="serif" font-size="10.00">TransientOperator.hpp</text>
</a>
</g>
</g>
<!-- Node1&#45;&gt;Node6 -->
<g id="edge8" class="edge">
<title>Node1&#45;&gt;Node6</title>
<path fill="none" stroke="midnightblue" d="M201.88,-282.06C171.91,-276 135.15,-264.75 108,-244 88.28,-228.93 75.57,-201.45 70.1,-187.54"/>
<polygon fill="midnightblue" stroke="midnightblue" points="201.28,-285.51 211.76,-283.93 202.58,-278.63 201.28,-285.51"/>
</g>
<!-- Node7 -->
<g id="node7" class="node">
<title>Node7</title>
<g id="a_node7"><a xlink:href="postprocessing_8hpp.html" target="_top" xlink:title="Post&#45;processing features.">
<polygon fill="none" stroke="black" points="528.5,-224.5 528.5,-243.5 645.5,-243.5 645.5,-224.5 528.5,-224.5"/>
<text text-anchor="middle" x="587" y="-231.5" font-family="serif" font-size="10.00">postprocessing.hpp</text>
</a>
</g>
</g>
<!-- Node1&#45;&gt;Node7 -->
<g id="edge9" class="edge">
<title>Node1&#45;&gt;Node7</title>
<path fill="none" stroke="midnightblue" d="M308.07,-280.37C370.31,-270.24 472.82,-253.57 534.72,-243.5"/>
<polygon fill="midnightblue" stroke="midnightblue" points="307.37,-276.94 298.06,-282 308.5,-283.84 307.37,-276.94"/>
</g>
<!-- Node2&#45;&gt;Node3 -->
<g id="edge2" class="edge">
<title>Node2&#45;&gt;Node3</title>
<path fill="none" stroke="midnightblue" d="M184.7,-215.86C191.63,-206.5 199.91,-195.33 205.52,-187.75"/>
<polygon fill="midnightblue" stroke="midnightblue" points="181.75,-213.96 178.61,-224.08 187.37,-218.13 181.75,-213.96"/>
</g>
<!-- Node2&#45;&gt;Node6 -->
<g id="edge5" class="edge">
<title>Node2&#45;&gt;Node6</title>
<path fill="none" stroke="midnightblue" d="M146.19,-219.73C126.75,-209.73 100.65,-196.31 83.83,-187.65"/>
<polygon fill="midnightblue" stroke="midnightblue" points="144.64,-222.86 155.13,-224.32 147.84,-216.64 144.64,-222.86"/>
</g>
<!-- Node4 -->
<g id="node4" class="node">
<title>Node4</title>
<g id="a_node4"><a xlink:href="ListOperators_8hpp.html" target="_top" xlink:title=" ">
<polygon fill="none" stroke="black" points="157,-112.5 157,-131.5 267,-131.5 267,-112.5 157,-112.5"/>
<text text-anchor="middle" x="212" y="-119.5" font-family="serif" font-size="10.00">ListOperators.hpp</text>
</a>
</g>
</g>
<!-- Node3&#45;&gt;Node4 -->
<g id="edge3" class="edge">
<title>Node3&#45;&gt;Node4</title>
<path fill="none" stroke="midnightblue" d="M212,-157.8C212,-148.91 212,-138.78 212,-131.75"/>
<polygon fill="midnightblue" stroke="midnightblue" points="208.5,-158.08 212,-168.08 215.5,-158.08 208.5,-158.08"/>
</g>
<!-- Node4&#45;&gt;Node5 -->
<g id="edge4" class="edge">
<title>Node4&#45;&gt;Node5</title>
<path fill="none" stroke="midnightblue" d="M225.77,-104.5C239.43,-89.33 261.75,-67.5 286,-56 365.22,-18.42 470.49,-11.64 523.12,-10.78"/>
<polygon fill="midnightblue" stroke="midnightblue" points="223.05,-102.3 219.13,-112.14 228.33,-106.89 223.05,-102.3"/>
</g>
<!-- Node6&#45;&gt;Node4 -->
<g id="edge6" class="edge">
<title>Node6&#45;&gt;Node4</title>
<path fill="none" stroke="midnightblue" d="M99.48,-164.91C126.74,-154.75 164.99,-140.51 189.13,-131.52"/>
<polygon fill="midnightblue" stroke="midnightblue" points="98.13,-161.67 89.98,-168.44 100.57,-168.23 98.13,-161.67"/>
</g>
<!-- Node7&#45;&gt;Node5 -->
<g id="edge24" class="edge">
<title>Node7&#45;&gt;Node5</title>
<path fill="none" stroke="midnightblue" d="M655.74,-226.77C743.42,-215.7 878.99,-186.3 837,-112 787.52,-24.44 651.66,-11.59 588.76,-10.5"/>
<polygon fill="midnightblue" stroke="midnightblue" points="655.07,-223.32 645.56,-228 655.91,-230.27 655.07,-223.32"/>
</g>
<!-- Node8 -->
<g id="node8" class="node">
<title>Node8</title>
<g id="a_node8"><a xlink:href="MPIProblem_8hpp.html" target="_top" xlink:title="Class used to defined a MPI_Problem objet.">
<polygon fill="none" stroke="black" points="328,-112.5 328,-131.5 432,-131.5 432,-112.5 328,-112.5"/>
<text text-anchor="middle" x="380" y="-119.5" font-family="serif" font-size="10.00">MPIProblem.hpp</text>
</a>
</g>
</g>
<!-- Node7&#45;&gt;Node8 -->
<g id="edge10" class="edge">
<title>Node7&#45;&gt;Node8</title>
<path fill="none" stroke="midnightblue" d="M561.77,-219.59C518.67,-196.69 432.07,-150.67 396.17,-131.59"/>
<polygon fill="midnightblue" stroke="midnightblue" points="560.28,-222.77 570.76,-224.37 563.57,-216.59 560.28,-222.77"/>
</g>
<!-- Node10 -->
<g id="node10" class="node">
<title>Node10</title>
<g id="a_node10"><a xlink:href="Problem_8hpp.html" target="_top" xlink:title="Class used to defined a PDE Problem.">
<polygon fill="none" stroke="black" points="744.5,-112.5 744.5,-131.5 827.5,-131.5 827.5,-112.5 744.5,-112.5"/>
<text text-anchor="middle" x="786" y="-119.5" font-family="serif" font-size="10.00">Problem.hpp</text>
</a>
</g>
</g>
<!-- Node7&#45;&gt;Node10 -->
<g id="edge13" class="edge">
<title>Node7&#45;&gt;Node10</title>
<path fill="none" stroke="midnightblue" d="M611.52,-219.45C653.04,-196.5 736.01,-150.63 770.46,-131.59"/>
<polygon fill="midnightblue" stroke="midnightblue" points="609.67,-216.47 602.62,-224.37 613.06,-222.59 609.67,-216.47"/>
</g>
<!-- Node12 -->
<g id="node12" class="node">
<title>Node12</title>
<g id="a_node12"><a xlink:href="ProblemBase_8hpp.html" target="_top" xlink:title="Base class for building Problems.">
<polygon fill="none" stroke="black" points="533.5,-168.5 533.5,-187.5 640.5,-187.5 640.5,-168.5 533.5,-168.5"/>
<text text-anchor="middle" x="587" y="-175.5" font-family="serif" font-size="10.00">ProblemBase.hpp</text>
</a>
</g>
</g>
<!-- Node7&#45;&gt;Node12 -->
<g id="edge17" class="edge">
<title>Node7&#45;&gt;Node12</title>
<path fill="none" stroke="midnightblue" d="M587,-213.8C587,-204.91 587,-194.78 587,-187.75"/>
<polygon fill="midnightblue" stroke="midnightblue" points="583.5,-214.08 587,-224.08 590.5,-214.08 583.5,-214.08"/>
</g>
<!-- Node9 -->
<g id="node9" class="node">
<title>Node9</title>
<g id="a_node9"><a xlink:href="ListProblems_8hpp.html" target="_top" xlink:title=" ">
<polygon fill="none" stroke="black" points="502.5,-56.5 502.5,-75.5 609.5,-75.5 609.5,-56.5 502.5,-56.5"/>
<text text-anchor="middle" x="556" y="-63.5" font-family="serif" font-size="10.00">ListProblems.hpp</text>
</a>
</g>
</g>
<!-- Node8&#45;&gt;Node9 -->
<g id="edge11" class="edge">
<title>Node8&#45;&gt;Node9</title>
<path fill="none" stroke="midnightblue" d="M417.69,-109.44C450.87,-99.26 498.43,-84.66 528.24,-75.52"/>
<polygon fill="midnightblue" stroke="midnightblue" points="416.42,-106.16 407.89,-112.44 418.47,-112.86 416.42,-106.16"/>
</g>
<!-- Node9&#45;&gt;Node5 -->
<g id="edge12" class="edge">
<title>Node9&#45;&gt;Node5</title>
<path fill="none" stroke="midnightblue" d="M556,-45.8C556,-36.91 556,-26.78 556,-19.75"/>
<polygon fill="midnightblue" stroke="midnightblue" points="552.5,-46.08 556,-56.08 559.5,-46.08 552.5,-46.08"/>
</g>
<!-- Node10&#45;&gt;Node9 -->
<g id="edge14" class="edge">
<title>Node10&#45;&gt;Node9</title>
<path fill="none" stroke="midnightblue" d="M739.8,-110.15C696.34,-99.95 632.16,-84.88 592.27,-75.52"/>
<polygon fill="midnightblue" stroke="midnightblue" points="739.02,-113.57 749.56,-112.44 740.62,-106.75 739.02,-113.57"/>
</g>
<!-- Node11 -->
<g id="node11" class="node">
<title>Node11</title>
<g id="a_node11"><a xlink:href="Time_8hpp.html" target="_top" xlink:title="Main time loop.">
<polygon fill="none" stroke="black" points="669.5,-56.5 669.5,-75.5 734.5,-75.5 734.5,-56.5 669.5,-56.5"/>
<text text-anchor="middle" x="702" y="-63.5" font-family="serif" font-size="10.00">Time.hpp</text>
</a>
</g>
</g>
<!-- Node10&#45;&gt;Node11 -->
<g id="edge15" class="edge">
<title>Node10&#45;&gt;Node11</title>
<path fill="none" stroke="midnightblue" d="M764.07,-106.9C748.66,-97 728.55,-84.07 715.46,-75.65"/>
<polygon fill="midnightblue" stroke="midnightblue" points="762.2,-109.86 772.5,-112.32 765.98,-103.97 762.2,-109.86"/>
</g>
<!-- Node11&#45;&gt;Node5 -->
<g id="edge16" class="edge">
<title>Node11&#45;&gt;Node5</title>
<path fill="none" stroke="midnightblue" d="M669.3,-52.91C641.85,-42.75 603.33,-28.51 579.03,-19.52"/>
<polygon fill="midnightblue" stroke="midnightblue" points="668.27,-56.26 678.87,-56.44 670.7,-49.69 668.27,-56.26"/>
</g>
<!-- Node12&#45;&gt;Node8 -->
<g id="edge20" class="edge">
<title>Node12&#45;&gt;Node8</title>
<path fill="none" stroke="midnightblue" d="M544.18,-165.83C505.09,-155.63 448.17,-140.78 412.65,-131.52"/>
<polygon fill="midnightblue" stroke="midnightblue" points="543.64,-169.31 554.2,-168.44 545.41,-162.53 543.64,-169.31"/>
</g>
<!-- Node12&#45;&gt;Node10 -->
<g id="edge21" class="edge">
<title>Node12&#45;&gt;Node10</title>
<path fill="none" stroke="midnightblue" d="M628.65,-165.7C666.21,-155.51 720.61,-140.74 754.62,-131.52"/>
<polygon fill="midnightblue" stroke="midnightblue" points="627.27,-162.45 618.53,-168.44 629.1,-169.2 627.27,-162.45"/>
</g>
<!-- Node13 -->
<g id="node13" class="node">
<title>Node13</title>
<g id="a_node13"><a xlink:href="Calphad__problem_8hpp.html" target="_top" xlink:title="Class used to defined a Calphad_Problem objet.">
<polygon fill="none" stroke="black" points="595.5,-112.5 595.5,-131.5 726.5,-131.5 726.5,-112.5 595.5,-112.5"/>
<text text-anchor="middle" x="661" y="-119.5" font-family="serif" font-size="10.00">Calphad_problem.hpp</text>
</a>
</g>
</g>
<!-- Node12&#45;&gt;Node13 -->
<g id="edge18" class="edge">
<title>Node12&#45;&gt;Node13</title>
<path fill="none" stroke="midnightblue" d="M607.03,-162.38C620.41,-152.62 637.56,-140.11 648.89,-131.83"/>
<polygon fill="midnightblue" stroke="midnightblue" points="604.9,-159.6 598.89,-168.32 609.03,-165.26 604.9,-159.6"/>
</g>
<!-- Node14 -->
<g id="node14" class="node">
<title>Node14</title>
<g id="a_node14"><a xlink:href="PropertyProblem_8hpp.html" target="_top" xlink:title="Class used to compute primary variables as a function of auxialiary variables.">
<polygon fill="none" stroke="black" points="450.5,-112.5 450.5,-131.5 577.5,-131.5 577.5,-112.5 450.5,-112.5"/>
<text text-anchor="middle" x="514" y="-119.5" font-family="serif" font-size="10.00">PropertyProblem.hpp</text>
</a>
</g>
</g>
<!-- Node12&#45;&gt;Node14 -->
<g id="edge22" class="edge">
<title>Node12&#45;&gt;Node14</title>
<path fill="none" stroke="midnightblue" d="M566.86,-162.1C553.72,-152.38 537.02,-140.03 525.94,-131.83"/>
<polygon fill="midnightblue" stroke="midnightblue" points="565.15,-165.19 575.27,-168.32 569.31,-159.56 565.15,-165.19"/>
</g>
<!-- Node13&#45;&gt;Node9 -->
<g id="edge19" class="edge">
<title>Node13&#45;&gt;Node9</title>
<path fill="none" stroke="midnightblue" d="M635.19,-107.73C615.75,-97.73 589.65,-84.31 572.83,-75.65"/>
<polygon fill="midnightblue" stroke="midnightblue" points="633.64,-110.86 644.13,-112.32 636.84,-104.64 633.64,-110.86"/>
</g>
<!-- Node14&#45;&gt;Node9 -->
<g id="edge23" class="edge">
<title>Node14&#45;&gt;Node9</title>
<path fill="none" stroke="midnightblue" d="M527.11,-104.14C534.43,-94.74 543.24,-83.4 549.19,-75.75"/>
<polygon fill="midnightblue" stroke="midnightblue" points="524.31,-102.04 520.94,-112.08 529.84,-106.34 524.31,-102.04"/>
</g>
</g>
</svg>
