<?xml version="1.0" encoding="UTF-8" standalone="no"?>
<!DOCTYPE svg PUBLIC "-//W3C//DTD SVG 1.1//EN"
 "http://www.w3.org/Graphics/SVG/1.1/DTD/svg11.dtd">
<!-- Generated by graphviz version 2.43.0 (0)
 -->
<!-- Title: Variable.tpp Pages: 1 -->
<svg width="847pt" height="420pt"
 viewBox="0.00 0.00 847.00 420.00" xmlns="http://www.w3.org/2000/svg" xmlns:xlink="http://www.w3.org/1999/xlink">
<g id="graph0" class="graph" transform="scale(1 1) rotate(0) translate(4 416)">
<title>Variable.tpp</title>
<!-- Node1 -->
<g id="node1" class="node">
<title>Node1</title>
<g id="a_node1"><a xlink:title=" ">
<polygon fill="#bfbfbf" stroke="black" points="341,-392.5 341,-411.5 419,-411.5 419,-392.5 341,-392.5"/>
<text text-anchor="middle" x="380" y="-399.5" font-family="serif" font-size="10.00">Variable.tpp</text>
</a>
</g>
</g>
<!-- Node2 -->
<g id="node2" class="node">
<title>Node2</title>
<g id="a_node2"><a xlink:href="Variable_8hpp.html" target="_top" xlink:title="Variable class used to build and manage variables of model.">
<polygon fill="none" stroke="black" points="339.5,-336.5 339.5,-355.5 420.5,-355.5 420.5,-336.5 339.5,-336.5"/>
<text text-anchor="middle" x="380" y="-343.5" font-family="serif" font-size="10.00">Variable.hpp</text>
</a>
</g>
</g>
<!-- Node1&#45;&gt;Node2 -->
<g id="edge1" class="edge">
<title>Node1&#45;&gt;Node2</title>
<path fill="none" stroke="midnightblue" d="M380,-381.8C380,-372.91 380,-362.78 380,-355.75"/>
<polygon fill="midnightblue" stroke="midnightblue" points="376.5,-382.08 380,-392.08 383.5,-382.08 376.5,-382.08"/>
</g>
<!-- Node3 -->
<g id="node3" class="node">
<title>Node3</title>
<g id="a_node3"><a xlink:href="postprocessing_8hpp.html" target="_top" xlink:title="Post&#45;processing features.">
<polygon fill="none" stroke="black" points="365.5,-224.5 365.5,-243.5 482.5,-243.5 482.5,-224.5 365.5,-224.5"/>
<text text-anchor="middle" x="424" y="-231.5" font-family="serif" font-size="10.00">postprocessing.hpp</text>
</a>
</g>
</g>
<!-- Node2&#45;&gt;Node3 -->
<g id="edge2" class="edge">
<title>Node2&#45;&gt;Node3</title>
<path fill="none" stroke="midnightblue" d="M387.2,-327C396.8,-303 413.41,-261.47 420.56,-243.59"/>
<polygon fill="midnightblue" stroke="midnightblue" points="383.92,-325.78 383.45,-336.37 390.42,-328.38 383.92,-325.78"/>
</g>
<!-- Node4 -->
<g id="node4" class="node">
<title>Node4</title>
<g id="a_node4"><a xlink:href="MPIProblem_8hpp.html" target="_top" xlink:title="Class used to defined a MPI_Problem objet.">
<polygon fill="none" stroke="black" points="28,-112.5 28,-131.5 132,-131.5 132,-112.5 28,-112.5"/>
<text text-anchor="middle" x="80" y="-119.5" font-family="serif" font-size="10.00">MPIProblem.hpp</text>
</a>
</g>
</g>
<!-- Node2&#45;&gt;Node4 -->
<g id="edge18" class="edge">
<title>Node2&#45;&gt;Node4</title>
<path fill="none" stroke="midnightblue" d="M359.94,-330.15C302.24,-287.45 137.09,-165.25 91.68,-131.64"/>
<polygon fill="midnightblue" stroke="midnightblue" points="358.12,-333.16 368.24,-336.3 362.28,-327.54 358.12,-333.16"/>
</g>
<!-- Node6 -->
<g id="node6" class="node">
<title>Node6</title>
<g id="a_node6"><a xlink:href="sloth_8hpp.html" target="_top" xlink:title="List of SLOTH header files.">
<polygon fill="none" stroke="black" points="492.5,-0.5 492.5,-19.5 557.5,-19.5 557.5,-0.5 492.5,-0.5"/>
<text text-anchor="middle" x="525" y="-7.5" font-family="serif" font-size="10.00">sloth.hpp</text>
</a>
</g>
</g>
<!-- Node2&#45;&gt;Node6 -->
<g id="edge21" class="edge">
<title>Node2&#45;&gt;Node6</title>
<path fill="none" stroke="midnightblue" d="M329.11,-340.98C225.55,-331.39 0,-302.73 0,-235 0,-235 0,-235 0,-121 0,-19.96 377.22,-11.18 492.16,-10.85"/>
<polygon fill="midnightblue" stroke="midnightblue" points="329.06,-344.49 339.33,-341.9 329.69,-337.52 329.06,-344.49"/>
</g>
<!-- Node7 -->
<g id="node7" class="node">
<title>Node7</title>
<g id="a_node7"><a xlink:href="Problem_8hpp.html" target="_top" xlink:title="Class used to defined a PDE Problem.">
<polygon fill="none" stroke="black" points="444.5,-112.5 444.5,-131.5 527.5,-131.5 527.5,-112.5 444.5,-112.5"/>
<text text-anchor="middle" x="486" y="-119.5" font-family="serif" font-size="10.00">Problem.hpp</text>
</a>
</g>
</g>
<!-- Node2&#45;&gt;Node7 -->
<g id="edge19" class="edge">
<title>Node2&#45;&gt;Node7</title>
<path fill="none" stroke="midnightblue" d="M405.06,-331.17C432.29,-314.53 474.3,-283.8 492,-244 509.27,-205.18 495.55,-152.29 488.99,-131.7"/>
<polygon fill="midnightblue" stroke="midnightblue" points="402.93,-328.36 396.1,-336.46 406.49,-334.38 402.93,-328.36"/>
</g>
<!-- Node9 -->
<g id="node9" class="node">
<title>Node9</title>
<g id="a_node9"><a xlink:href="ProblemBase_8hpp.html" target="_top" xlink:title="Base class for building Problems.">
<polygon fill="none" stroke="black" points="288.5,-168.5 288.5,-187.5 395.5,-187.5 395.5,-168.5 288.5,-168.5"/>
<text text-anchor="middle" x="342" y="-175.5" font-family="serif" font-size="10.00">ProblemBase.hpp</text>
</a>
</g>
</g>
<!-- Node2&#45;&gt;Node9 -->
<g id="edge20" class="edge">
<title>Node2&#45;&gt;Node9</title>
<path fill="none" stroke="midnightblue" d="M375.63,-325.93C367.39,-289.92 349.84,-213.23 343.96,-187.57"/>
<polygon fill="midnightblue" stroke="midnightblue" points="372.31,-327.11 377.96,-336.08 379.14,-325.55 372.31,-327.11"/>
</g>
<!-- Node12 -->
<g id="node12" class="node">
<title>Node12</title>
<g id="a_node12"><a xlink:href="Variables_8hpp.html" target="_top" xlink:title="Variables class used to build and manage variables.">
<polygon fill="none" stroke="black" points="578,-280.5 578,-299.5 664,-299.5 664,-280.5 578,-280.5"/>
<text text-anchor="middle" x="621" y="-287.5" font-family="serif" font-size="10.00">Variables.hpp</text>
</a>
</g>
</g>
<!-- Node2&#45;&gt;Node12 -->
<g id="edge22" class="edge">
<title>Node2&#45;&gt;Node12</title>
<path fill="none" stroke="midnightblue" d="M428.12,-334.22C473.66,-324.01 541.11,-308.9 582.99,-299.52"/>
<polygon fill="midnightblue" stroke="midnightblue" points="427.18,-330.84 418.19,-336.44 428.71,-337.67 427.18,-330.84"/>
</g>
<!-- Node3&#45;&gt;Node4 -->
<g id="edge3" class="edge">
<title>Node3&#45;&gt;Node4</title>
<path fill="none" stroke="midnightblue" d="M386.62,-221.45C357.53,-212.42 316.16,-199.53 280,-188 217.39,-168.04 143.95,-144.02 105.86,-131.51"/>
<polygon fill="midnightblue" stroke="midnightblue" points="385.78,-224.85 396.36,-224.47 387.85,-218.16 385.78,-224.85"/>
</g>
<!-- Node3&#45;&gt;Node6 -->
<g id="edge17" class="edge">
<title>Node3&#45;&gt;Node6</title>
<path fill="none" stroke="midnightblue" d="M448.92,-219.44C476.38,-202.91 519.04,-172.14 537,-132 554.42,-93.08 536.88,-40.24 528.7,-19.68"/>
<polygon fill="midnightblue" stroke="midnightblue" points="447.12,-216.44 440.24,-224.5 450.64,-222.49 447.12,-216.44"/>
</g>
<!-- Node3&#45;&gt;Node7 -->
<g id="edge6" class="edge">
<title>Node3&#45;&gt;Node7</title>
<path fill="none" stroke="midnightblue" d="M433.31,-215.18C440.24,-202.05 450.01,-183.8 459,-168 466.3,-155.17 475.17,-140.56 480.7,-131.56"/>
<polygon fill="midnightblue" stroke="midnightblue" points="430.18,-213.62 428.63,-224.1 436.37,-216.87 430.18,-213.62"/>
</g>
<!-- Node3&#45;&gt;Node9 -->
<g id="edge10" class="edge">
<title>Node3&#45;&gt;Node9</title>
<path fill="none" stroke="midnightblue" d="M402.17,-218.62C387.19,-208.76 367.8,-195.99 355.14,-187.65"/>
<polygon fill="midnightblue" stroke="midnightblue" points="400.55,-221.75 410.83,-224.32 404.4,-215.9 400.55,-221.75"/>
</g>
<!-- Node5 -->
<g id="node5" class="node">
<title>Node5</title>
<g id="a_node5"><a xlink:href="ListProblems_8hpp.html" target="_top" xlink:title=" ">
<polygon fill="none" stroke="black" points="309.5,-56.5 309.5,-75.5 416.5,-75.5 416.5,-56.5 309.5,-56.5"/>
<text text-anchor="middle" x="363" y="-63.5" font-family="serif" font-size="10.00">ListProblems.hpp</text>
</a>
</g>
</g>
<!-- Node4&#45;&gt;Node5 -->
<g id="edge4" class="edge">
<title>Node4&#45;&gt;Node5</title>
<path fill="none" stroke="midnightblue" d="M134.83,-110.54C188.32,-100.33 268.67,-85 318.37,-75.52"/>
<polygon fill="midnightblue" stroke="midnightblue" points="134.01,-107.13 124.84,-112.44 135.32,-114.01 134.01,-107.13"/>
</g>
<!-- Node5&#45;&gt;Node6 -->
<g id="edge5" class="edge">
<title>Node5&#45;&gt;Node6</title>
<path fill="none" stroke="midnightblue" d="M398.48,-53.17C428.99,-43 472.24,-28.59 499.45,-19.52"/>
<polygon fill="midnightblue" stroke="midnightblue" points="397.05,-49.96 388.67,-56.44 399.26,-56.6 397.05,-49.96"/>
</g>
<!-- Node7&#45;&gt;Node5 -->
<g id="edge7" class="edge">
<title>Node7&#45;&gt;Node5</title>
<path fill="none" stroke="midnightblue" d="M457.23,-108.37C434.19,-98.26 402.52,-84.35 382.4,-75.52"/>
<polygon fill="midnightblue" stroke="midnightblue" points="455.95,-111.63 466.51,-112.44 458.76,-105.22 455.95,-111.63"/>
</g>
<!-- Node8 -->
<g id="node8" class="node">
<title>Node8</title>
<g id="a_node8"><a xlink:href="Time_8hpp.html" target="_top" xlink:title="Main time loop.">
<polygon fill="none" stroke="black" points="457.5,-56.5 457.5,-75.5 522.5,-75.5 522.5,-56.5 457.5,-56.5"/>
<text text-anchor="middle" x="490" y="-63.5" font-family="serif" font-size="10.00">Time.hpp</text>
</a>
</g>
</g>
<!-- Node7&#45;&gt;Node8 -->
<g id="edge8" class="edge">
<title>Node7&#45;&gt;Node8</title>
<path fill="none" stroke="midnightblue" d="M487.4,-102.1C488.06,-93.14 488.83,-82.86 489.35,-75.75"/>
<polygon fill="midnightblue" stroke="midnightblue" points="483.91,-101.85 486.66,-112.08 490.89,-102.37 483.91,-101.85"/>
</g>
<!-- Node8&#45;&gt;Node6 -->
<g id="edge9" class="edge">
<title>Node8&#45;&gt;Node6</title>
<path fill="none" stroke="midnightblue" d="M501.3,-47.57C507.32,-38.27 514.47,-27.25 519.33,-19.75"/>
<polygon fill="midnightblue" stroke="midnightblue" points="498.28,-45.79 495.78,-56.08 504.16,-49.6 498.28,-45.79"/>
</g>
<!-- Node9&#45;&gt;Node4 -->
<g id="edge13" class="edge">
<title>Node9&#45;&gt;Node4</title>
<path fill="none" stroke="midnightblue" d="M290.62,-166.41C241.1,-156.2 167.14,-140.96 121.32,-131.52"/>
<polygon fill="midnightblue" stroke="midnightblue" points="289.98,-169.85 300.49,-168.44 291.4,-163 289.98,-169.85"/>
</g>
<!-- Node9&#45;&gt;Node7 -->
<g id="edge14" class="edge">
<title>Node9&#45;&gt;Node7</title>
<path fill="none" stroke="midnightblue" d="M374.25,-164.91C401.32,-154.75 439.32,-140.51 463.29,-131.52"/>
<polygon fill="midnightblue" stroke="midnightblue" points="372.95,-161.66 364.82,-168.44 375.41,-168.21 372.95,-161.66"/>
</g>
<!-- Node10 -->
<g id="node10" class="node">
<title>Node10</title>
<g id="a_node10"><a xlink:href="Calphad__problem_8hpp.html" target="_top" xlink:title="Class used to defined a Calphad_Problem objet.">
<polygon fill="none" stroke="black" points="150.5,-112.5 150.5,-131.5 281.5,-131.5 281.5,-112.5 150.5,-112.5"/>
<text text-anchor="middle" x="216" y="-119.5" font-family="serif" font-size="10.00">Calphad_problem.hpp</text>
</a>
</g>
</g>
<!-- Node9&#45;&gt;Node10 -->
<g id="edge11" class="edge">
<title>Node9&#45;&gt;Node10</title>
<path fill="none" stroke="midnightblue" d="M312.84,-164.5C289.22,-154.38 256.57,-140.39 235.87,-131.52"/>
<polygon fill="midnightblue" stroke="midnightblue" points="311.46,-167.72 322.03,-168.44 314.22,-161.29 311.46,-167.72"/>
</g>
<!-- Node11 -->
<g id="node11" class="node">
<title>Node11</title>
<g id="a_node11"><a xlink:href="PropertyProblem_8hpp.html" target="_top" xlink:title="Class used to compute primary variables as a function of auxialiary variables.">
<polygon fill="none" stroke="black" points="299.5,-112.5 299.5,-131.5 426.5,-131.5 426.5,-112.5 299.5,-112.5"/>
<text text-anchor="middle" x="363" y="-119.5" font-family="serif" font-size="10.00">PropertyProblem.hpp</text>
</a>
</g>
</g>
<!-- Node9&#45;&gt;Node11 -->
<g id="edge15" class="edge">
<title>Node9&#45;&gt;Node11</title>
<path fill="none" stroke="midnightblue" d="M349.12,-158.69C352.66,-149.59 356.77,-139.01 359.6,-131.75"/>
<polygon fill="midnightblue" stroke="midnightblue" points="345.83,-157.49 345.47,-168.08 352.35,-160.03 345.83,-157.49"/>
</g>
<!-- Node10&#45;&gt;Node5 -->
<g id="edge12" class="edge">
<title>Node10&#45;&gt;Node5</title>
<path fill="none" stroke="midnightblue" d="M248.92,-108.91C276.56,-98.75 315.34,-84.51 339.82,-75.52"/>
<polygon fill="midnightblue" stroke="midnightblue" points="247.47,-105.71 239.29,-112.44 249.89,-112.28 247.47,-105.71"/>
</g>
<!-- Node11&#45;&gt;Node5 -->
<g id="edge16" class="edge">
<title>Node11&#45;&gt;Node5</title>
<path fill="none" stroke="midnightblue" d="M363,-101.8C363,-92.91 363,-82.78 363,-75.75"/>
<polygon fill="midnightblue" stroke="midnightblue" points="359.5,-102.08 363,-112.08 366.5,-102.08 359.5,-102.08"/>
</g>
<!-- Node12&#45;&gt;Node3 -->
<g id="edge31" class="edge">
<title>Node12&#45;&gt;Node3</title>
<path fill="none" stroke="midnightblue" d="M579.77,-277.7C542.59,-267.51 488.73,-252.74 455.07,-243.52"/>
<polygon fill="midnightblue" stroke="midnightblue" points="579.22,-281.18 589.78,-280.44 581.07,-274.42 579.22,-281.18"/>
</g>
<!-- Node12&#45;&gt;Node6 -->
<g id="edge32" class="edge">
<title>Node12&#45;&gt;Node6</title>
<path fill="none" stroke="midnightblue" d="M674.1,-285.04C738.63,-276.99 839,-252.64 839,-179 839,-179 839,-179 839,-121 839,-61.87 638.14,-26.96 557.71,-15.35"/>
<polygon fill="midnightblue" stroke="midnightblue" points="673.6,-281.57 664.07,-286.19 674.4,-288.52 673.6,-281.57"/>
</g>
<!-- Node13 -->
<g id="node13" class="node">
<title>Node13</title>
<g id="a_node13"><a xlink:href="OperatorBase_8hpp.html" target="_top" xlink:title="Base class for building Steady and TimeDependent PhaseFieldOperators.">
<polygon fill="none" stroke="black" points="606,-224.5 606,-243.5 716,-243.5 716,-224.5 606,-224.5"/>
<text text-anchor="middle" x="661" y="-231.5" font-family="serif" font-size="10.00">OperatorBase.hpp</text>
</a>
</g>
</g>
<!-- Node12&#45;&gt;Node13 -->
<g id="edge23" class="edge">
<title>Node12&#45;&gt;Node13</title>
<path fill="none" stroke="midnightblue" d="M633.7,-271.86C640.63,-262.5 648.91,-251.33 654.52,-243.75"/>
<polygon fill="midnightblue" stroke="midnightblue" points="630.75,-269.96 627.61,-280.08 636.37,-274.13 630.75,-269.96"/>
</g>
<!-- Node14 -->
<g id="node14" class="node">
<title>Node14</title>
<g id="a_node14"><a xlink:href="SteadyOperator_8hpp.html" target="_top" xlink:title="Steady Operator.">
<polygon fill="none" stroke="black" points="539,-168.5 539,-187.5 659,-187.5 659,-168.5 539,-168.5"/>
<text text-anchor="middle" x="599" y="-175.5" font-family="serif" font-size="10.00">SteadyOperator.hpp</text>
</a>
</g>
</g>
<!-- Node12&#45;&gt;Node14 -->
<g id="edge29" class="edge">
<title>Node12&#45;&gt;Node14</title>
<path fill="none" stroke="midnightblue" d="M609.24,-271.77C604.44,-263.71 599.44,-253.75 597,-244 592.07,-224.28 595.06,-200.16 597.27,-187.57"/>
<polygon fill="midnightblue" stroke="midnightblue" points="606.31,-273.68 614.63,-280.23 612.21,-269.92 606.31,-273.68"/>
</g>
<!-- Node16 -->
<g id="node16" class="node">
<title>Node16</title>
<g id="a_node16"><a xlink:href="TransientOperator_8hpp.html" target="_top" xlink:title="Transient Operator.">
<polygon fill="none" stroke="black" points="677,-168.5 677,-187.5 811,-187.5 811,-168.5 677,-168.5"/>
<text text-anchor="middle" x="744" y="-175.5" font-family="serif" font-size="10.00">TransientOperator.hpp</text>
</a>
</g>
</g>
<!-- Node12&#45;&gt;Node16 -->
<g id="edge30" class="edge">
<title>Node12&#45;&gt;Node16</title>
<path fill="none" stroke="midnightblue" d="M670.87,-277.28C690.15,-270.47 710.91,-259.96 725,-244 739.32,-227.79 742.87,-201.3 743.73,-187.68"/>
<polygon fill="midnightblue" stroke="midnightblue" points="669.68,-273.99 661.27,-280.42 671.86,-280.64 669.68,-273.99"/>
</g>
<!-- Node13&#45;&gt;Node14 -->
<g id="edge24" class="edge">
<title>Node13&#45;&gt;Node14</title>
<path fill="none" stroke="midnightblue" d="M643.25,-217.54C632.19,-207.91 618.37,-195.87 609.14,-187.83"/>
<polygon fill="midnightblue" stroke="midnightblue" points="641.2,-220.4 651.04,-224.32 645.8,-215.12 641.2,-220.4"/>
</g>
<!-- Node13&#45;&gt;Node16 -->
<g id="edge27" class="edge">
<title>Node13&#45;&gt;Node16</title>
<path fill="none" stroke="midnightblue" d="M683.1,-218.62C698.26,-208.76 717.88,-195.99 730.7,-187.65"/>
<polygon fill="midnightblue" stroke="midnightblue" points="680.81,-215.94 674.34,-224.32 684.63,-221.8 680.81,-215.94"/>
</g>
<!-- Node15 -->
<g id="node15" class="node">
<title>Node15</title>
<g id="a_node15"><a xlink:href="ListOperators_8hpp.html" target="_top" xlink:title=" ">
<polygon fill="none" stroke="black" points="584,-112.5 584,-131.5 694,-131.5 694,-112.5 584,-112.5"/>
<text text-anchor="middle" x="639" y="-119.5" font-family="serif" font-size="10.00">ListOperators.hpp</text>
</a>
</g>
</g>
<!-- Node14&#45;&gt;Node15 -->
<g id="edge25" class="edge">
<title>Node14&#45;&gt;Node15</title>
<path fill="none" stroke="midnightblue" d="M611.7,-159.86C618.63,-150.5 626.91,-139.33 632.52,-131.75"/>
<polygon fill="midnightblue" stroke="midnightblue" points="608.75,-157.96 605.61,-168.08 614.37,-162.13 608.75,-157.96"/>
</g>
<!-- Node15&#45;&gt;Node6 -->
<g id="edge26" class="edge">
<title>Node15&#45;&gt;Node6</title>
<path fill="none" stroke="midnightblue" d="M622.63,-105.21C598.2,-81.63 553.01,-38.03 533.9,-19.59"/>
<polygon fill="midnightblue" stroke="midnightblue" points="620.43,-107.94 630.05,-112.37 625.29,-102.91 620.43,-107.94"/>
</g>
<!-- Node16&#45;&gt;Node15 -->
<g id="edge28" class="edge">
<title>Node16&#45;&gt;Node15</title>
<path fill="none" stroke="midnightblue" d="M718.19,-163.73C698.75,-153.73 672.65,-140.31 655.83,-131.65"/>
<polygon fill="midnightblue" stroke="midnightblue" points="716.64,-166.86 727.13,-168.32 719.84,-160.64 716.64,-166.86"/>
</g>
</g>
</svg>
